<svg class="main-svg" xmlns="http://www.w3.org/2000/svg" xmlns:xlink="http://www.w3.org/1999/xlink" width="700" height="500" style="" viewBox="0 0 700 500"><rect x="0" y="0" width="700" height="500" style="fill: rgb(255, 255, 255); fill-opacity: 1;"/><defs id="defs-53b4bd"><g class="clips"><clipPath id="clip53b4bdxyplot" class="plotclip"><rect width="494" height="320"/></clipPath><clipPath class="axesclip" id="clip53b4bdx"><rect x="126" y="0" width="494" height="500"/></clipPath><clipPath class="axesclip" id="clip53b4bdy"><rect x="0" y="100" width="700" height="320"/></clipPath><clipPath class="axesclip" id="clip53b4bdxy"><rect x="126" y="100" width="494" height="320"/></clipPath></g><g class="gradients"/><g class="patterns"/></defs><g class="bglayer"><rect class="bg" x="126" y="100" width="494" height="320" style="fill: rgb(229, 236, 246); fill-opacity: 1; stroke-width: 0;"/></g><g class="layer-below"><g class="imagelayer"/><g class="shapelayer"/></g><g class="cartesianlayer"><g class="subplot xy"><g class="layer-subplot"><g class="shapelayer"/><g class="imagelayer"/></g><g class="minor-gridlayer"><g class="x"/><g class="y"/></g><g class="gridlayer"><g class="x"><path class="xgrid crisp" transform="translate(212.05,0)" d="M0,100v320" style="stroke: rgb(255, 255, 255); stroke-opacity: 1; stroke-width: 1px;"/><path class="xgrid crisp" transform="translate(310.11,0)" d="M0,100v320" style="stroke: rgb(255, 255, 255); stroke-opacity: 1; stroke-width: 1px;"/><path class="xgrid crisp" transform="translate(408.18,0)" d="M0,100v320" style="stroke: rgb(255, 255, 255); stroke-opacity: 1; stroke-width: 1px;"/><path class="xgrid crisp" transform="translate(506.25,0)" d="M0,100v320" style="stroke: rgb(255, 255, 255); stroke-opacity: 1; stroke-width: 1px;"/><path class="xgrid crisp" transform="translate(604.31,0)" d="M0,100v320" style="stroke: rgb(255, 255, 255); stroke-opacity: 1; stroke-width: 1px;"/></g><g class="y"><path class="ygrid crisp" transform="translate(0,358.14)" d="M126,0h494" style="stroke: rgb(255, 255, 255); stroke-opacity: 1; stroke-width: 1px;"/><path class="ygrid crisp" transform="translate(0,312.28)" d="M126,0h494" style="stroke: rgb(255, 255, 255); stroke-opacity: 1; stroke-width: 1px;"/><path class="ygrid crisp" transform="translate(0,266.41999999999996)" d="M126,0h494" style="stroke: rgb(255, 255, 255); stroke-opacity: 1; stroke-width: 1px;"/><path class="ygrid crisp" transform="translate(0,220.56)" d="M126,0h494" style="stroke: rgb(255, 255, 255); stroke-opacity: 1; stroke-width: 1px;"/><path class="ygrid crisp" transform="translate(0,174.7)" d="M126,0h494" style="stroke: rgb(255, 255, 255); stroke-opacity: 1; stroke-width: 1px;"/><path class="ygrid crisp" transform="translate(0,128.84)" d="M126,0h494" style="stroke: rgb(255, 255, 255); stroke-opacity: 1; stroke-width: 1px;"/></g></g><g class="zerolinelayer"><path class="yzl zl crisp" transform="translate(0,404)" d="M126,0h494" style="stroke: rgb(255, 255, 255); stroke-opacity: 1; stroke-width: 2px;"/></g><path class="xlines-below"/><path class="ylines-below"/><g class="overlines-below"/><g class="xaxislayer-below"/><g class="yaxislayer-below"/><g class="overaxes-below"/><g class="plot" transform="translate(126,100)" clip-path="url(#clip53b4bdxyplot)"><g class="scatterlayer mlayer"><g class="trace scatter trace75e6b9" style="stroke-miterlimit: 2; opacity: 1;"><g class="fills"/><g class="errorbars"/><g class="lines"><path class="js-line" d="M0,304L2.99,302.83L2.99,302.81L5.26,301.76L5.26,301.75L7.19,300.86L7.24,300.86L14.26,297.68L14.26,297.68L14.28,297.68L27.19,290.95L27.19,290.9L28.03,290.11L28.03,290.11L28.05,290.1L30.61,288.65L30.61,288.63L31.86,287.76L31.92,287.76L35.87,286.3L35.87,286.3L36.02,286.3L37.63,285.51L37.69,285.51L40.33,283.89L40.33,283.89L40.33,283.88L43.86,281.28L43.86,281.27L48.8,278.38L48.8,278.38L48.8,278.36L66.08,267.19L66.08,267.19L66.08,267.16L67.51,266.24L67.51,266.24L67.53,266.24L78.22,259.9L78.22,259.89L80.13,258.61L80.16,258.61L85.09,255.64L85.09,255.63L87.61,254.2L87.61,254.2L87.61,254.18L91.22,252.03L91.22,252.01L97.29,248.68L97.33,248.68L99.61,247.44L99.61,247.44L99.63,247.43L110.75,240.11L110.75,240.11L110.75,240.09L114.66,238.08L114.82,238.08L116.92,236.82L116.92,236.81L118.78,235.68L118.78,235.67L122.89,233.35L122.89,233.33L126.9,231.42L127,231.42L135.33,226.41L135.33,226.41L135.45,226.4L144.68,221.91L144.68,221.91L144.75,221.91L149.57,219.19L149.57,219.17L151.07,218.34L151.07,218.34L151.08,218.34L157.71,214.84L157.71,214.84L157.71,214.83L160.4,213.17L160.44,213.17L164.68,211.03L164.68,211.03L164.78,211.03L170.73,207.79L170.73,207.78L175.32,205.7L175.39,205.7L180.02,203L180.09,203L184.62,200.4L184.62,200.4L184.73,200.39L186.23,199.33L186.23,199.33L186.33,199.33L192.27,195.62L192.28,195.61L205.5,188.26L205.58,188.26L240.63,167.87L240.63,167.87L240.69,167.87L242.42,167.02L242.43,167.01L245.74,164.84L245.74,164.8L256.12,158.95L256.12,158.95L256.12,158.93L257.45,158.12L257.57,158.12L261.37,156.23L261.37,156.22L265.53,154.07L265.53,154.06L266.79,153.62L266.82,153.62L271.32,151.33L271.32,151.33L271.33,151.32L273.08,150.09L273.09,150.08L290.45,139.89L290.45,139.89L290.54,139.88L292.15,139.05L292.15,139.05L292.19,139.04L293.76,138.04L293.76,138.03L296.69,135.87L296.69,135.86L298.92,134.67L299.1,134.67L309.2,129.34L309.2,129.34L309.25,129.34L311.87,128.28L311.87,128.28L311.87,128.27L323.42,121.19L323.52,121.18L355.08,102.61L355.08,102.61L355.09,102.6L358,100.6L358,100.59L372.46,92.44L372.46,92.44L372.51,92.44L376.55,90.13L376.55,90.13L376.55,90.12L395.75,78.57L395.75,78.53L398.66,77.19L398.66,77.18L400.27,75.91L400.28,75.85L406.52,71.65L406.62,71.63L409.42,69.71L409.44,69.7L411.29,68.41L411.29,68.41L411.29,68.4L416.59,65.15L416.59,65.15L416.67,65.15L418.43,63.91L418.43,63.89L421.88,61.96L421.88,61.96L421.92,61.96L424.12,60.35L424.12,60.31L468.36,31.35L468.36,31.33L470.78,29.96L470.78,29.96L470.8,29.96L473.27,28.55L473.27,28.55L473.3,28.54L481.31,23.73L481.31,23.73L481.31,23.72L482.75,22.9L482.8,22.9L488.09,19.84L488.11,19.83L494,16L494,16" style="vector-effect: non-scaling-stroke; fill: none; stroke: rgb(1, 102, 30); stroke-opacity: 1; stroke-width: 2px; opacity: 1;"/></g><g class="points"/><g class="text"/></g></g></g><g class="overplot"/><path class="xlines-above crisp" d="M0,0" style="fill: none;"/><path class="ylines-above crisp" d="M0,0" style="fill: none;"/><g class="overlines-above"/><g class="xaxislayer-above"><g class="xtick"><text text-anchor="middle" x="0" y="436" transform="translate(212.05,0)" style="font-family: 'Times New Roman'; font-size: 15px; fill: rgb(13, 13, 13); fill-opacity: 1; white-space: pre; opacity: 1;">1.61252×10​<tspan style="font-size:70%" dy="-0.6em">18</tspan><tspan dy="0.42em">​</tspan></text></g><g class="xtick"><text text-anchor="middle" x="0" y="436" style="font-family: 'Times New Roman'; font-size: 15px; fill: rgb(13, 13, 13); fill-opacity: 1; white-space: pre; opacity: 1;" transform="translate(310.11,0)">1.612525×10​<tspan style="font-size:70%" dy="-0.6em">18</tspan><tspan dy="0.42em">​</tspan></text></g><g class="xtick"><text text-anchor="middle" x="0" y="436" style="font-family: 'Times New Roman'; font-size: 15px; fill: rgb(13, 13, 13); fill-opacity: 1; white-space: pre; opacity: 1;" transform="translate(408.18,0)">1.61253×10​<tspan style="font-size:70%" dy="-0.6em">18</tspan><tspan dy="0.42em">​</tspan></text></g><g class="xtick"><text text-anchor="middle" x="0" y="436" style="font-family: 'Times New Roman'; font-size: 15px; fill: rgb(13, 13, 13); fill-opacity: 1; white-space: pre; opacity: 1;" transform="translate(506.25,0)">1.612535×10​<tspan style="font-size:70%" dy="-0.6em">18</tspan><tspan dy="0.42em">​</tspan></text></g><g class="xtick"><text text-anchor="middle" x="0" y="436" style="font-family: 'Times New Roman'; font-size: 15px; fill: rgb(13, 13, 13); fill-opacity: 1; white-space: pre; opacity: 1;" transform="translate(604.31,0)">1.61254×10​<tspan style="font-size:70%" dy="-0.6em">18</tspan><tspan dy="0.42em">​</tspan></text></g></g><g class="yaxislayer-above"><g class="ytick"><text text-anchor="end" x="125" y="12.25" transform="translate(0,404)" style="font-family: 'Times New Roman'; font-size: 35px; fill: rgb(13, 13, 13); fill-opacity: 1; white-space: pre; opacity: 1;">0</text></g><g class="ytick"><text text-anchor="end" x="125" y="12.25" style="font-family: 'Times New Roman'; font-size: 35px; fill: rgb(13, 13, 13); fill-opacity: 1; white-space: pre; opacity: 1;" transform="translate(0,358.14)">100k</text></g><g class="ytick"><text text-anchor="end" x="125" y="12.25" style="font-family: 'Times New Roman'; font-size: 35px; fill: rgb(13, 13, 13); fill-opacity: 1; white-space: pre; opacity: 1;" transform="translate(0,312.28)">200k</text></g><g class="ytick"><text text-anchor="end" x="125" y="12.25" style="font-family: 'Times New Roman'; font-size: 35px; fill: rgb(13, 13, 13); fill-opacity: 1; white-space: pre; opacity: 1;" transform="translate(0,266.41999999999996)">300k</text></g><g class="ytick"><text text-anchor="end" x="125" y="12.25" style="font-family: 'Times New Roman'; font-size: 35px; fill: rgb(13, 13, 13); fill-opacity: 1; white-space: pre; opacity: 1;" transform="translate(0,220.56)">400k</text></g><g class="ytick"><text text-anchor="end" x="125" y="12.25" style="font-family: 'Times New Roman'; font-size: 35px; fill: rgb(13, 13, 13); fill-opacity: 1; white-space: pre; opacity: 1;" transform="translate(0,174.7)">500k</text></g><g class="ytick"><text text-anchor="end" x="125" y="12.25" style="font-family: 'Times New Roman'; font-size: 35px; fill: rgb(13, 13, 13); fill-opacity: 1; white-space: pre; opacity: 1;" transform="translate(0,128.84)">600k</text></g></g><g class="overaxes-above"/></g></g><g class="polarlayer"/><g class="smithlayer"/><g class="ternarylayer"/><g class="geolayer"/><g class="funnelarealayer"/><g class="pielayer"/><g class="iciclelayer"/><g class="treemaplayer"/><g class="sunburstlayer"/><g class="glimages"/><defs id="topdefs-53b4bd"><g class="clips"/></defs><g class="layer-above"><g class="imagelayer"/><g class="shapelayer"/></g><g class="infolayer"><g class="g-gtitle"/><g class="g-xtitle"><text class="xtitle" x="373" y="463.8" text-anchor="middle" style="font-family: 'Open Sans', verdana, arial, sans-serif; font-size: 14px; fill: rgb(42, 63, 95); opacity: 1; font-weight: normal; white-space: pre;">Time Steps (ns)</text></g><g class="g-ytitle" transform="translate(24,0)"><text class="ytitle" transform="rotate(-90,12,260)" x="12" y="260" text-anchor="middle" style="font-family: 'Times New Roman'; font-size: 40px; fill: rgb(13, 13, 13); opacity: 1; font-weight: normal; white-space: pre;">Turnaround (in $)</text></g></g></svg>