<svg class="main-svg" xmlns="http://www.w3.org/2000/svg" xmlns:xlink="http://www.w3.org/1999/xlink" width="700" height="500" style="" viewBox="0 0 700 500"><rect x="0" y="0" width="700" height="500" style="fill: rgb(255, 255, 255); fill-opacity: 1;"/><defs id="defs-a8d455"><g class="clips"><clipPath id="clipa8d455xyplot" class="plotclip"><rect width="494" height="320"/></clipPath><clipPath class="axesclip" id="clipa8d455x"><rect x="126" y="0" width="494" height="500"/></clipPath><clipPath class="axesclip" id="clipa8d455y"><rect x="0" y="100" width="700" height="320"/></clipPath><clipPath class="axesclip" id="clipa8d455xy"><rect x="126" y="100" width="494" height="320"/></clipPath></g><g class="gradients"/><g class="patterns"/></defs><g class="bglayer"><rect class="bg" x="126" y="100" width="494" height="320" style="fill: rgb(229, 236, 246); fill-opacity: 1; stroke-width: 0;"/></g><g class="layer-below"><g class="imagelayer"/><g class="shapelayer"/></g><g class="cartesianlayer"><g class="subplot xy"><g class="layer-subplot"><g class="shapelayer"/><g class="imagelayer"/></g><g class="minor-gridlayer"><g class="x"/><g class="y"/></g><g class="gridlayer"><g class="x"><path class="xgrid crisp" transform="translate(212.23000000000002,0)" d="M0,100v320" style="stroke: rgb(255, 255, 255); stroke-opacity: 1; stroke-width: 1px;"/><path class="xgrid crisp" transform="translate(310.27,0)" d="M0,100v320" style="stroke: rgb(255, 255, 255); stroke-opacity: 1; stroke-width: 1px;"/><path class="xgrid crisp" transform="translate(408.3,0)" d="M0,100v320" style="stroke: rgb(255, 255, 255); stroke-opacity: 1; stroke-width: 1px;"/><path class="xgrid crisp" transform="translate(506.34,0)" d="M0,100v320" style="stroke: rgb(255, 255, 255); stroke-opacity: 1; stroke-width: 1px;"/><path class="xgrid crisp" transform="translate(604.37,0)" d="M0,100v320" style="stroke: rgb(255, 255, 255); stroke-opacity: 1; stroke-width: 1px;"/></g><g class="y"><path class="ygrid crisp" transform="translate(0,367.95)" d="M126,0h494" style="stroke: rgb(255, 255, 255); stroke-opacity: 1; stroke-width: 1px;"/><path class="ygrid crisp" transform="translate(0,331.9)" d="M126,0h494" style="stroke: rgb(255, 255, 255); stroke-opacity: 1; stroke-width: 1px;"/><path class="ygrid crisp" transform="translate(0,295.85)" d="M126,0h494" style="stroke: rgb(255, 255, 255); stroke-opacity: 1; stroke-width: 1px;"/><path class="ygrid crisp" transform="translate(0,259.8)" d="M126,0h494" style="stroke: rgb(255, 255, 255); stroke-opacity: 1; stroke-width: 1px;"/><path class="ygrid crisp" transform="translate(0,223.75)" d="M126,0h494" style="stroke: rgb(255, 255, 255); stroke-opacity: 1; stroke-width: 1px;"/><path class="ygrid crisp" transform="translate(0,187.69)" d="M126,0h494" style="stroke: rgb(255, 255, 255); stroke-opacity: 1; stroke-width: 1px;"/><path class="ygrid crisp" transform="translate(0,151.64)" d="M126,0h494" style="stroke: rgb(255, 255, 255); stroke-opacity: 1; stroke-width: 1px;"/><path class="ygrid crisp" transform="translate(0,115.59)" d="M126,0h494" style="stroke: rgb(255, 255, 255); stroke-opacity: 1; stroke-width: 1px;"/></g></g><g class="zerolinelayer"><path class="yzl zl crisp" transform="translate(0,404)" d="M126,0h494" style="stroke: rgb(255, 255, 255); stroke-opacity: 1; stroke-width: 2px;"/></g><path class="xlines-below"/><path class="ylines-below"/><g class="overlines-below"/><g class="xaxislayer-below"/><g class="yaxislayer-below"/><g class="overaxes-below"/><g class="plot" transform="translate(126,100)" clip-path="url(#clipa8d455xyplot)"><g class="scatterlayer mlayer"><g class="trace scatter trace738e9e" style="stroke-miterlimit: 2; opacity: 1;"><g class="fills"/><g class="errorbars"/><g class="lines"><path class="js-line" d="M0,304L0.68,303.79L0.79,303.92L0.95,304L1.49,302.1L1.69,303.78L1.74,304L2.11,301.58L2.48,304L2.51,304L2.83,304L2.83,303.18L3.34,298.5L3.61,304L3.63,303.6L3.63,304L4.21,302.24L4.37,304L4.47,304L4.49,301.52L5.19,303.92L5.28,304L6.02,298.57L6.02,304L6.06,303.7L6.18,298.26L6.66,304L6.69,303.9L6.69,301.92L6.69,304L7.43,303.79L7.46,303.94L7.55,304L7.61,301.89L7.98,304L8.12,304L8.26,302.68L8.67,303.3L8.67,304L9.3,301.24L9.41,304L9.44,303.77L9.44,301.38L9.44,304L10.18,303.66L10.22,303.94L10.32,303.37L10.47,304L10.7,304L10.79,295.7L10.79,304L11.54,304L11.55,303.97L11.57,304L11.72,301.12L12.09,304L12.27,304L12.94,303.2L12.98,303.93L13.04,304L13.35,301.42L13.41,304L13.41,300.43L13.66,299.57L14.18,304L14.28,304L14.53,303.03L14.54,303.89L14.77,304L15.29,295.91L15.52,304L15.53,303.92L15.66,304L16.04,302.68L16.26,304L16.31,304L16.77,301.03L16.85,304L16.91,304L17.28,300.4L17.59,303.88L17.81,303.66L17.95,302.81L17.99,304L17.99,296.85L18.78,304L18.79,303.96L18.81,303.98L19,304L19,302.08L19.45,299.24L19.91,304L19.95,304L20.62,296.51L20.7,303.98L20.73,304L21.02,300.58L21.48,304L21.57,304L22,302.81L22.3,303.86L22.33,304L22.46,301.82L22.46,297.31L22.46,304L23.2,304L23.23,303.92L23.24,302.52L23.24,304L23.95,304L23.98,304L24.21,301.13L24.65,303.99L24.85,303.64L25.41,302.71L25.63,304L25.63,303.44L26.16,299.76L26.4,304L26.41,303.04L26.41,304L26.95,268.21L27.15,304L27.17,304L27.44,302.07L27.44,304L27.5,304L28.02,303.71L28.02,303.99L28.04,300.73L28.04,304L28.75,304L28.81,304L29.26,304L29.39,303.18L29.39,304L29.75,299.69L30.11,303.97L30.18,304L30.22,298.64L30.9,303.94L30.96,304L31.64,298.85L31.67,304L31.72,304L31.82,295.19L32.46,303.95L32.49,304L32.66,296.97L33.17,303.98L33.25,304L33.74,302.92L33.96,304L34.03,304L34.32,301.48L34.47,303.84L34.55,304L34.58,300.96L35.3,304L35.31,303.09L35.34,304L35.38,302.38L36.06,303.92L36.07,303.99L36.3,302.73L36.53,303.58L36.55,304L37.17,300.32L37.18,304L37.2,295.62L37.92,304L37.97,303.79L38.51,304L38.52,301.69L38.56,303.43L38.56,301.18L38.73,304L39.21,297.56L39.31,304L39.32,304L39.79,288.07L39.85,303.89L40.07,303.24L40.28,304L40.28,302.78L40.87,301.69L40.98,304L41.03,303.3L41.03,302.28L41.77,304L41.82,303.49L41.98,302.34L42.58,304L42.58,300.13L42.64,304L43.05,299.26L43.32,303.97L43.37,303.83L43.81,303.34L44.11,304L44.2,304L44.34,302.74L44.94,304L45.02,303.78L45.02,304L45.67,302.27L45.75,304L45.79,303.98L45.82,303.82L45.83,304L45.83,299.76L45.83,304L46.57,304L46.64,303.98L46.7,299.48L46.76,304L47.33,303.98L47.4,303.59L47.42,300.64L47.42,304L48.14,303.99L48.18,303.94L48.19,301.77L48.24,304L48.93,303.91L48.93,304L49.06,302.75L49.68,303.95L49.69,304L50.39,300.96L50.45,303.88L50.47,304L51.22,301.35L51.22,304L51.24,304L51.66,300.08L51.83,304L51.89,304L52.42,302.16L52.64,304L52.66,304L52.81,303.56L52.82,303.69L52.82,297.85L52.85,304L53.53,304L53.59,304L54.11,302.3L54.11,304L54.11,242.56L54.13,304L54.86,303.53L54.92,304L55.01,301.9L55.66,303.79L55.71,303.91L55.88,304L56.27,298.51L56.46,303.46L56.46,304L56.61,299.72L57.15,303.89L57.19,304L57.21,296.79L57.91,303.95L57.95,304L58.2,302.87L58.37,303.97L58.37,304L58.89,302.76L59.08,303.85L59.15,303.57L59.29,301.31L59.9,304L59.95,304L60.41,301.56L60.41,304L60.68,301.75L60.7,304L60.7,298.69L61.44,304L61.44,294.54L61.47,304L61.69,301.59L61.96,303.97L61.99,303.95L62.01,304L62.56,299.83L62.74,303.88L62.74,304L62.79,303.81L62.86,304L62.87,297.01L62.87,304L63.6,303.96L63.64,304L64.04,300.21L64.34,303.99L64.44,304L64.79,301.94L64.91,303.91L64.91,304L65.17,302.28L65.71,302.7L65.71,304L65.78,300.17L66.01,304L66.06,304L66.3,299.52L66.77,304L66.83,304L67.15,302.14L67.31,304L67.39,303.8L67.53,303.42L67.61,304L67.63,303.9L67.64,296.42L67.79,296.08L68.38,304L68.46,303.65L68.99,301.43L69.18,304L69.18,303.99L69.24,303.97L69.26,304L69.57,302.82L69.95,303.9L69.99,304L70.64,297.81L70.72,302.81L70.76,303.79L70.8,297.77L71.48,304L71.48,303.95L71.52,298.82L71.52,304L71.82,298.04L72.24,304L72.35,304L72.94,301.52L73.18,303.64L73.18,304L73.67,299.35L73.93,303.77L73.99,304L74,297L74.68,304L74.76,303.95L74.86,304L75.06,302.66L75.31,304L75.31,301.28L76.12,304L76.21,304L76.59,302.05L76.97,303.29L77.08,303.8L77.23,302.93L77.28,304L77.28,300.57L77.3,304L77.6,297.14L78.02,303.98L78.08,304L78.24,302.64L78.78,304L78.85,303.75L78.85,304L79.29,295.51L79.56,304L79.62,304L79.98,300.13L80.35,304L80.39,303.98L80.44,304L80.99,301.6L81.06,303.97L81.15,304L81.29,303.57L81.4,303.92L81.41,301.65L81.52,304L82.14,304L82.17,304L82.65,300.08L82.87,303.37L82.95,303.91L82.99,304L83.53,302.84L83.67,304L83.72,304L84,296.81L84.45,303.96L84.47,304L84.55,302.72L85.22,304L85.25,304L85.92,302.91L85.96,303.83L86,304L86.71,299.62L86.74,303.85L86.76,304L87.34,301.83L87.49,304L87.65,304L87.79,297.47L88.34,303.94L88.41,303.87L88.51,304L88.87,302.49L89.11,304L89.17,303.91L89.27,304L89.56,303.28L89.59,303.76L89.59,300.82L89.59,304L90.03,298.04L90.34,304L90.36,301.14L90.41,296.33L91.12,304L91.13,303.72L91.14,302.34L91.18,304L91.26,302.02L91.88,302.94L91.96,304L92.18,301.26L92.59,302.29L92.59,304L92.64,302.91L93.33,303.95L93.4,304L93.65,304L93.65,302.31L93.67,304L94.2,298.25L94.34,304L94.41,304L94.82,301.46L95.16,304L95.17,303.98L95.29,304L95.67,302.13L95.86,303.95L95.96,304L96.67,302.9L96.69,304L96.72,304L97.43,301.19L97.46,303.96L97.51,304L97.88,302.88L97.89,303.01L97.91,294.66L97.91,304L98.62,304L98.67,304L98.7,303.84L98.89,304L98.9,296.27L98.9,304L99.49,304L99.66,303.75L99.66,304L99.8,301.18L100.39,301.46L100.42,304L100.58,300.71L100.99,304L101.11,304L101.17,301.8L101.8,304L101.87,304L102.02,303.81L102.06,304L102.06,302.03L102.06,304L102.55,294.82L102.77,304L102.84,304L102.96,303.14L103.03,303.87L103.03,251.28L103.74,304L103.8,303.99L103.83,304L104.13,299.4L104.51,303.82L104.6,304L104.85,300.67L105.28,304L105.37,304L105.88,302.32L106.1,303.87L106.17,304L106.67,301.61L106.92,303.92L106.97,304L107.13,303.85L107.26,303.99L107.29,302.91L107.29,304L107.31,297.92L108,302.97L108.06,302.9L108.06,304L108.77,303.9L108.86,303.06L108.86,304L109.61,302.73L109.62,304L109.93,300.96L110.34,303.92L110.38,304L110.62,298.15L111.03,304L111.08,303.4L111.09,304L111.75,300.97L111.81,303.92L111.85,303.12L112.25,301.24L112.39,304L112.58,302.67L112.62,303.93L112.67,304L112.99,295.33L113.31,303.92L113.38,303.87L113.7,304L113.77,301.71L114.51,304L114.53,303.96L114.55,303.95L114.56,304L114.95,302.1L115.3,302.77L115.33,303.89L115.39,302.97L115.42,304L116.04,304L116.11,304L116.5,297.57L116.84,303.88L116.91,304L117.67,301.99L117.67,303.8L117.67,304L117.86,303.18L118.15,303.65L118.21,304L118.38,302.69L118.96,303.99L118.97,303.98L119.05,304L119.36,303.29L119.65,304L119.74,304L119.83,301.51L120.44,304L120.5,304L121.27,301.89L121.27,304L121.48,303.63L121.48,304L121.48,302.85L121.52,304L122.14,296.09L122.22,303.99L122.25,304L122.39,302.75L123,303.96L123.05,304L123.27,301L123.7,304L123.78,304L123.98,292.28L124.13,299.83L124.13,304L124.13,300.27L124.82,303.92L124.9,303.85L124.96,304L125.21,302.78L125.6,304L125.66,304L126.22,298.97L126.39,304L126.42,304L126.69,303.6L126.86,304L126.87,289.54L127.67,304L127.77,304L128.2,300.98L128.49,304L128.51,304L128.6,302.57L129.25,303.76L129.29,303.92L129.41,304L129.89,299.5L130.01,304L130.07,304L130.13,298.71L130.44,303.82L130.46,304L130.69,303.74L130.69,302.11L130.69,304L131.42,304L131.45,304L131.8,295.35L132.18,303.99L132.24,303.88L132.37,304L132.84,302.07L132.98,304L132.99,304L133.53,298.84L133.73,303.79L133.81,303.16L134.41,302.05L134.47,304L134.61,303.93L134.66,304L134.99,303.46L135.04,304L135.05,299.74L135.8,304L135.83,303.04L136,296.91L136.56,304L136.56,302.35L136.6,304L137.29,299.66L137.34,301.22L137.4,304L137.5,298.55L138.15,304L138.2,303.85L138.29,302.36L138.29,304L138.3,303.67L138.32,295.28L138.32,304L138.57,294.85L139.04,304L139.13,304L139.67,301.77L139.88,304L139.9,304L140.53,300.94L140.6,304L140.68,304L141.25,303.43L141.41,304L141.46,304L141.7,280.18L142.21,303.46L142.27,303.88L142.41,304L142.41,302.89L142.46,302.76L142.49,304L142.82,302.41L143.14,304L143.23,304L143.72,302.84L143.97,303.82L143.97,303.99L144.14,304L144.14,301.77L144.14,304L144.69,300.99L144.89,303.97L144.9,304L145.16,303.19L145.2,303.57L145.29,304L145.62,302.66L146,303.91L146.07,303.82L146.2,304L146.2,303.17L146.21,297.86L146.21,304L146.96,303.76L147,303.77L147.08,301.79L147.08,304L147.1,295.81L147.35,295.42L147.84,304L147.84,303.74L147.9,302.4L148.19,300.78L148.62,304L148.65,300.24L149.46,304L149.49,303.96L149.62,304L150.14,301.65L150.22,304L150.33,304L150.8,295.75L151.08,303.53L151.13,303.78L151.13,304L151.76,302.25L151.85,304L151.89,303.28L152.01,297.82L152.52,304L152.64,303.69L152.69,303.91L152.8,304L153.18,303.17L153.39,303.95L153.39,304L153.57,302.79L154.13,304L154.22,304L154.82,302.48L154.95,303.72L154.96,304L155.24,301.83L155.71,304L155.72,303.85L155.75,301.25L155.8,304L156.47,302.89L156.49,304L156.61,298.69L157.24,304L157.28,302.95L157.28,304L157.59,293.3L157.98,303.96L158.04,304L158.06,302.16L158.79,304L158.81,303.69L158.81,304L159.42,302.52L159.55,303.94L159.65,304L160.03,300.73L160.38,304L160.42,303.88L160.56,304L160.56,301.83L160.9,297.62L161.34,304L161.34,303.91L161.4,303.65L161.4,304L161.64,301.29L162.15,304L162.2,304L162.71,299.88L162.95,303.95L163.02,303.89L163.24,303.47L163.25,304L163.27,303L163.27,304L163.99,302.7L164.02,304L164.04,304L164.23,297.37L164.34,303.92L164.38,303.94L164.43,304L164.71,289.52L165.11,303.87L165.15,304L165.33,303.59L165.35,304L165.38,303.19L165.38,304L165.63,302.83L166.11,304L166.17,303.95L166.21,304L166.71,300.63L166.91,304L166.93,303.97L167.01,304L167.42,301.89L167.47,304L167.56,304L167.82,298.72L168.3,303.14L168.41,303.75L168.41,304L168.52,298.85L169.15,304L169.2,304L169.62,301.95L169.91,303.82L169.92,304L170.09,303.9L170.09,304L170.09,303.17L170.1,304L170.34,297.58L170.83,304L170.85,303.86L171.16,303.34L171.3,304L171.3,301.05L171.3,304L171.75,276.52L171.96,303.97L172.09,304L172.62,302.38L172.83,303.57L172.88,304L172.92,301.32L173.61,304L173.64,304L174.07,302.93L174.39,303.94L174.4,304L174.79,302.51L174.83,304L174.83,293.73L175.68,304L175.68,303.82L175.76,302.96L175.91,304L175.91,298.35L175.93,304L176.62,303.79L176.68,303.81L176.73,304L177.22,302.18L177.39,304L177.45,304L177.69,300.23L178.17,303.98L178.21,304L178.44,302.85L178.92,304L178.97,303.69L178.97,304L179.42,302.69L179.7,304L179.75,304L180.49,302.15L180.52,303.9L180.65,304L181.2,299.06L181.2,304L181.33,304L182.08,301.72L182.1,303.93L182.1,304L182.39,302.56L182.74,303.68L182.74,304L183.09,301.09L183.48,303.75L183.5,303.51L183.5,304L183.77,302.81L184.22,304L184.26,303.92L184.27,304L184.72,303.27L185,304L185.05,304L185.71,302.08L185.8,303.71L185.84,304L186.44,298.75L186.52,303.88L186.6,304L186.9,302.44L187.35,304L187.41,303.95L187.49,304L187.78,301.96L188,303.73L188.06,304L188.7,296.32L188.79,304L188.82,304L189.37,299.14L189.57,304L189.6,303.89L189.78,303.66L190.08,304L190.08,303.21L190.44,301.51L190.83,304L190.83,304L190.83,300.11L191.52,304L191.62,304L191.91,302.81L192.36,304L192.41,304L192.81,301.97L193.16,303.99L193.18,304L193.38,304L193.38,304L193.38,302.68L193.76,299.04L194.11,304L194.17,304L194.17,302.6L194.88,303.62L194.94,303.69L195.24,301.1L195.67,304L195.68,303.99L195.73,303.92L195.78,304L196.33,300.22L196.45,304L196.51,303.45L197.06,302.69L197.11,304L197.11,303.53L197.11,302.6L197.12,304L197.46,301.96L197.83,303.96L197.9,303.94L198,304L198.32,302.33L198.48,304L198.52,304L198.88,303.05L198.91,304L198.91,301.55L198.93,304L199.46,294.31L199.66,304L199.67,303.26L199.67,304L199.72,302.3L200.42,304L200.5,303.88L200.57,304L200.79,302.16L201.26,303.75L201.26,304L201.55,304L201.55,303.19L202.38,304L202.4,303.93L202.4,303.72L202.5,304L202.56,303.39L202.75,303.97L202.78,301.14L202.78,304L203.53,304L203.54,304L203.92,294.28L204.29,304L204.35,303.97L204.48,304L204.88,303L205.1,303.98L205.12,304L205.15,301.12L205.86,304L205.89,304L206.27,300.86L206.64,304L206.65,304L206.79,303.45L206.87,304L206.87,301.85L207.17,298.41L207.39,304L207.48,302.01L207.59,299.82L207.73,296.05L208.34,304L208.35,303.92L208.39,304L209.11,301.48L209.12,304L209.15,304L209.74,302.95L209.94,303.84L209.94,304L210.42,302.17L210.67,303.85L210.79,303.79L210.88,302.69L210.88,304L210.91,304L210.93,302.25L210.93,304L211.51,298.92L211.68,304L211.69,303.88L211.72,304L211.84,300.59L212.3,303.3L212.47,303.78L212.47,304L213.19,300.81L213.19,304L213.24,303.95L213.33,304L213.4,292.37L213.94,304L214.02,304L214.56,301.96L214.68,304L214.72,284.15L214.72,304L215.43,302.96L215.5,303.99L215.62,302.43L215.75,303.79L215.75,299.74L216.47,304L216.47,303.49L216.52,302.76L217.11,302.7L217.29,304L217.3,302.17L217.3,304L217.86,301.59L217.97,304L218.07,303.95L218.23,304L218.76,295.41L218.81,304L218.84,303.93L218.93,304L219.4,303.43L219.58,304L219.63,304L220.29,301.68L220.34,303.83L220.4,304L220.84,302.51L221.15,304L221.21,304L221.24,300.95L221.95,304L222.02,303.73L222.02,300.34L222.06,304L222.73,304L222.88,304L223.55,302L223.62,303.89L223.66,304L223.93,302.96L224.31,303.97L224.31,304L224.44,303.33L224.46,304L224.49,301.98L224.49,304L225.21,304L225.31,304L225.33,303.45L226.03,303.98L226.11,304L226.28,304L226.28,302.52L226.75,300.6L226.97,304L227.04,302.72L227.04,304L227.77,300.61L227.83,304L228.16,298.42L228.57,303.9L228.59,303.85L229.02,303.21L229.15,304L229.15,304L229.16,301.75L229.89,304L230.01,303.57L230.01,304L230.75,300.47L230.75,300.68L230.79,304L230.79,292.47L231.54,302.17L231.57,303.94L231.83,303.61L231.85,301.55L232.33,301.22L232.61,304L232.61,303.7L232.69,303.98L233.11,302.5L233.21,304L233.21,298.73L233.21,304L233.95,303.87L233.97,303.97L234.03,304L234.71,296.08L234.76,304L234.83,293.71L235.4,304L235.43,303.88L235.89,304L235.89,303.97L235.89,302.44L235.93,302.16L235.93,304L236.42,304L236.47,304L236.71,301.88L237.19,304L237.26,303.6L237.26,304L237.49,298.82L238,303.67L238.1,304L238.76,302.48L238.84,304L238.89,304L239.04,304L239.04,300.19L239.25,297.38L239.8,304L239.83,304L240.37,302.69L240.52,303.38L240.59,304L241.31,301.73L241.36,304L241.44,299.81L242,303.84L242.12,304L242.64,300.43L242.87,304L242.89,304L243.27,302.81L243.33,304L243.33,297.11L243.33,304L243.33,297.1L244.08,304L244.17,303.6L244.17,304L244.2,302.88L244.84,303.76L244.93,303.99L245.59,301.48L245.63,302.47L245.64,297.26L245.64,304L246.35,299.17L246.41,304L246.75,294.58L246.89,303.73L246.91,304L247.07,302.87L247.6,304L247.68,304L247.92,304L247.92,303.31L247.95,303.13L248.39,300.14L248.57,304L248.59,162.92L249.36,304L249.4,303.92L249.43,304L249.77,303.06L250.16,304L250.2,303.68L250.2,304L250.8,301.86L250.9,303.99L250.97,303.85L251.18,304L251.18,303.19L251.22,304L251.33,299.46L251.92,304L251.96,304L252.3,301.39L252.35,303.96L252.41,304L252.6,303L252.79,303.98L252.79,304L253.19,302.97L253.42,303.49L253.43,300.33L253.7,299.47L254.23,304L254.23,304L254.23,303.95L254.27,304L254.87,296.72L254.96,299.71L254.98,303.99L255.03,297.9L255.03,304L255.63,304L255.74,303.81L255.8,303.98L256.37,301.89L256.46,303.55L256.49,303.94L256.63,304L257.26,302.24L257.26,304L257.74,303.19L258.02,303.92L258.07,304L258.62,301.26L258.88,301.31L258.92,302.27L258.94,300.94L258.94,304L259.65,302.88L259.65,304L259.82,300.18L260.26,303.88L260.37,303.8L260.37,304L260.91,301.81L261.12,304L261.13,304L261.13,296.16L261.86,303.94L261.94,304L262.1,303.91L262.13,304L262.18,303.03L262.18,304L262.6,300.29L262.92,304L262.94,304L263.45,301.56L263.65,303.92L263.71,304L263.83,301.32L264.29,302.83L264.29,304L264.37,301.88L264.98,303.95L265.07,304L265.34,284.18L265.81,303.15L265.86,302.98L266.13,300.62L266.59,304L266.62,303.55L266.67,304L266.72,303.37L267.4,304L267.44,304L268.01,294.55L268.16,303.96L268.21,304L268.58,302.87L268.96,304L268.97,304L269.43,301.94L269.64,303.24L269.64,304L269.78,302.99L269.93,304L269.93,300.06L269.99,304L270.13,296.15L270.68,301.38L270.69,304L270.83,303.78L270.87,303.93L270.89,301.37L270.9,304L271.12,299.44L271.58,303.95L271.69,303.91L271.83,303.28L271.94,304L271.96,302.95L271.96,304L272.54,300.71L272.7,303.28L272.72,302.93L272.73,304L273.44,301.5L273.48,303.89L273.61,304L274.1,303.17L274.25,303.81L274.25,304L274.54,301.04L275,304L275.05,304L275.15,302.22L275.4,304L275.4,286.11L275.41,304L275.58,285.73L276.15,304L276.16,303.94L276.46,303.27L276.81,304L276.81,301.62L276.83,295.2L277.56,304L277.66,304L277.89,301.98L278.31,303.85L278.31,304L278.96,301.3L279.03,304L279.1,303.94L279.24,303.99L279.59,301.91L279.6,304L279.6,300.97L279.6,300.82L279.66,304L280.32,302.83L280.38,304L280.52,302.34L280.83,303.96L280.91,304L281.07,303.14L281.61,304L281.71,304L281.73,279.5L282.46,304L282.49,304L283.09,299.74L283.14,304L283.15,304L283.83,301.71L283.9,303.87L283.94,303.93L284,304L284.55,299.89L284.55,303.76L284.62,304L284.81,304L284.81,303.57L284.89,303.11L284.89,304L285.58,290.73L285.59,303.74L285.67,304L285.71,302.9L286.42,303.68L286.43,303.98L286.68,304L286.94,299.77L287.16,303.8L287.21,303.8L287.21,304L287.33,294L287.9,304L287.98,303.94L288.06,304L288.14,302.43L288.42,303.88L288.53,304L288.71,302.89L289.28,304L289.3,304L290.05,302.11L290.05,304L290.07,303.99L290.07,304L290.31,299.86L290.81,303.99L290.89,304L291.21,302.09L291.64,303.98L291.68,303.93L291.7,304L292.17,297.56L292.41,302.65L292.45,304L292.9,302.72L293.21,303.68L293.21,304L293.31,301.99L293.53,302.4L293.57,303.94L293.59,304L293.77,297.31L294.28,303.93L294.35,303.87L294.54,302.87L294.56,304L294.56,302.9L294.56,302.42L294.56,304L294.89,300.02L295.3,303.91L295.32,304L295.64,302.38L296.07,303.6L296.09,304L296.84,300.95L296.87,304L297.1,299.28L297.6,304L297.63,303.9L297.81,304L298.19,302.07L298.47,303.45L298.47,304L298.99,296.5L299.21,303.96L299.27,303.76L299.58,302.92L299.7,304L299.7,295.81L299.71,304L299.98,295.29L300.39,303.25L300.48,303.81L301.05,302.96L301.24,304L301.24,303.85L301.35,304L301.9,301.88L302.05,303.96L302.11,303.9L302.3,304L302.45,300.85L302.5,303.92L302.56,304L303.16,302.22L303.25,303.82L303.28,303.95L303.57,302.34L303.78,303.43L303.78,304L303.82,298.34L304.53,303.46L304.55,303.86L304.85,302.94L305.18,304L305.18,303.24L305.96,304L305.96,303.09L306.18,304L306.36,299.99L306.71,304L306.75,304L307.05,299.73L307.45,304L307.52,303.65L307.52,304L308.22,303.31L308.26,304L308.29,302.47L308.3,304L308.93,299.7L309.04,303.85L309.06,304L309.75,304L309.75,299.96L310.41,304L310.47,303.03L310.47,291.24L310.47,304L311.22,303.91L311.23,303.98L311.45,302.11L311.58,303.7L311.61,304L311.84,298.69L312.35,303.95L312.37,303.67L312.5,304L312.75,302.4L313.12,303.78L313.15,302.15L313.45,268.59L313.83,304L313.85,303.94L313.91,303.49L313.91,304L314.32,301.84L314.66,302.8L314.72,303.75L314.99,301.16L315.45,304L315.45,302.24L315.77,301.54L316.27,304L316.27,304L316.27,298.21L317.02,304L317.04,303.39L317.05,303.29L317.05,304L317.74,303.99L317.81,304L318.53,300.09L318.55,304L318.62,293.46L319.26,304L319.33,303.99L319.33,304L319.88,301.59L320.05,304L320.13,304L320.67,300.28L320.88,304L320.89,303.92L320.92,304L321.25,302.24L321.64,303.83L321.68,304L321.85,301.13L322.43,303.95L322.52,303.82L322.63,304L322.89,301.16L323.26,303.72L323.27,304L323.81,303.5L323.88,303.88L323.93,304L324.6,302.87L324.64,303.92L324.67,304L324.72,300.47L325.4,302.42L325.46,304L325.59,299.29L326.2,303.96L326.26,303.83L326.26,304L326.97,300.35L327.02,300.33L327.78,304L327.88,303.9L327.89,304L328.1,297.94L328.58,304L328.63,304L328.66,302.3L329.36,304L329.37,304L330.07,300.48L330.09,303.83L330.14,302.17L330.14,304L330.59,298.64L330.88,304L330.95,303.61L331.07,304L331.1,300.39L331.83,304L331.83,303.99L331.97,303.73L332.41,303.26L332.65,304L332.65,303.83L332.8,303.97L333.35,303.3L333.53,303.83L333.58,304L334.06,302.86L334.32,304L334.36,304L334.7,299.72L335.11,304L335.13,303.9L335.22,304L335.23,302.57L335.31,304L335.39,303.97L335.43,302.91L335.43,304L336.08,303.99L336.2,304L336.43,295.69L336.81,303.92L337.03,304L337.36,304L337.36,303.14L337.73,301.26L338.04,304L338.04,303.43L338.06,293.82L338.06,304L338.15,291.31L338.8,303.05L338.85,304L339.01,302.97L339.56,304L339.61,303.95L339.65,302.59L339.7,304L340.33,304L340.36,304L340.9,297.86L341.09,304L341.15,304L341.85,301.86L341.86,304L342.35,300.15L342.51,304L342.62,304L343.07,297.53L343.34,303.45L343.51,303.95L343.58,304L344.23,301.84L344.24,303.97L344.29,303.91L344.4,304L344.87,302.43L345.06,303.3L345.07,303.99L345.1,304L345.65,301.58L345.72,303.83L345.79,303.87L345.87,304L346.22,301.99L346.24,303.99L346.27,299.49L346.38,298.57L346.99,304L347.06,303.91L347.14,304L347.46,303.1L347.55,304L347.55,301.43L347.92,300.23L348.32,304L348.32,303.87L348.48,304L348.48,302.44L348.52,304L348.58,301.36L349.18,304L349.22,304L349.36,273.26L349.95,304L349.98,304L350.01,300.5L350.66,303.91L350.76,304L351.39,298.96L351.51,304L351.52,304L351.9,301.66L352.22,304L352.31,304L352.43,303.49L352.53,300.92L353.2,293.94L353.26,304L353.3,304L353.38,303.6L353.46,304L353.46,255.23L353.46,304L353.46,255.07L354.2,303.92L354.28,303.85L354.5,302.86L355.01,304L355.03,303.99L355.07,303.98L355.7,302.09L355.71,303.95L355.73,304L355.86,299.87L356.47,304L356.5,303.93L356.77,303.34L356.79,303.56L356.79,299.55L356.79,304L357.54,303.83L357.55,304L357.76,302.66L358.25,303.86L358.37,303.96L358.38,304L359.1,298.94L359.1,303.81L359.15,304L359.33,302.66L359.9,304L359.91,304L360.46,302.8L360.55,302.98L360.58,304L361.31,300.15L361.35,304L361.53,303.79L361.63,304L361.64,299.77L362.43,304L362.43,304L362.44,303.94L362.59,304L363.03,302.13L363.16,303.53L363.19,304L363.42,301.4L363.46,304L363.46,301L363.46,304L364.2,302.78L364.3,304L364.68,287.83L365.03,303.94L365.08,304L365.61,301.78L365.84,303.34L365.87,304L366.24,303.5L366.26,303.84L366.26,303.05L366.66,300.54L366.92,304L366.92,303.95L367.09,303.9L367.12,304L367.73,296.6L367.8,303.95L367.85,304L368.38,303.27L368.44,303.72L368.46,304L368.58,303.42L368.64,303.63L368.64,300.07L369.4,304L369.44,303.98L369.49,304L369.63,303.05L370.18,304L370.2,304L370.9,302.83L371,304L371.04,304L371.33,301.56L371.78,303.06L371.8,303.96L371.99,304L371.99,303L372.02,304L372.12,295.12L372.74,304L372.77,303.96L372.77,304L373.45,296.02L373.51,303.88L373.6,303.81L373.69,304L374.04,302.36L374.28,303.85L374.41,303.53L374.44,304L374.87,299.56L375.16,303.94L375.18,303.83L375.33,302.55L375.71,304L375.74,303.21L375.82,302.25L376.44,304L376.5,303.98L376.52,304L376.58,301.73L377.27,303.24L377.28,304L377.8,301.81L377.99,304L378.05,304L378.16,301.81L378.79,304L378.82,303.9L378.92,304L378.92,302.24L379.55,303.94L379.58,303.94L379.72,303.72L379.76,304L379.76,300.41L380.38,296.44L380.52,304L380.52,303.88L380.59,304L381.26,301.84L381.26,302.93L381.28,304L381.97,302.06L382.03,304L382.06,304L382.27,302.19L382.46,303.9L382.46,304L382.63,300.41L382.88,304L382.88,287.99L383.66,304L383.67,304L383.83,298.54L384.35,303.97L384.45,304L385.18,295.49L385.19,303.96L385.25,303.89L385.82,303.5L385.92,303.87L385.94,302.57L386.72,304L386.75,304L386.88,303.2L387.13,303.71L387.13,304L387.73,298.85L387.8,303.87L387.91,304L388.18,304L388.18,304L388.19,302.84L388.19,304L388.77,300.41L388.93,304L388.95,304L389.05,303.06L389.24,304L389.26,298.78L389.26,304L389.26,298.59L389.98,304L390.04,304L390.69,175.3L390.79,304L390.82,304L390.97,304L391,303.16L391.35,302.49L391.69,304L391.7,303.94L391.73,301.64L391.76,299.24L392.35,304L392.35,140.99L393.22,304L393.23,303.92L393.27,303.92L393.4,304L393.5,303.49L393.54,304L393.54,301.75L393.54,304L394.29,303.87L394.3,304L394.75,302.56L395.04,304L395.09,303.9L395.22,304L395.4,302.69L395.47,304L395.47,298.21L395.58,297.93L396.17,304L396.22,302.19L396.24,304L396.26,300.95L396.96,303.94L397.02,304L397.62,294.76L397.76,303.98L397.85,303.77L397.85,304L398.5,303.24L398.52,304L398.61,302.82L398.62,304L398.79,301.42L399.35,304L399.38,304L400.04,302.11L400.13,303.88L400.17,304L400.18,301.6L400.91,303.96L400.94,303.99L401,303L401,304L401,287.44L401,287.18L401.02,304L401.66,304L401.77,304L402.03,302.95L402.52,304L402.57,304L403.21,302.28L403.27,303.89L403.34,304L403.54,301.93L403.54,303.35L403.54,301.22L403.9,299L404.27,304L404.32,303.74L404.33,304L404.35,300.22L405.03,304L405.09,304L405.53,301.96L405.81,304L405.84,304L406.1,299.67L406.11,304L406.11,295.92L406.18,293.84L406.75,304L406.8,303.98L406.88,304L407.05,302.71L407.23,304L407.23,242L407.23,304L407.46,233.22L407.98,304L408,304L408.11,302.07L408.4,303.48L408.5,304L409,302.09L409.19,303.8L409.28,303.95L409.32,304L409.55,300.96L409.82,304L409.89,304L410.35,301.48L410.63,304L410.71,304L410.89,302.5L411.38,304L411.41,304L411.42,301.17L412.16,302.39L412.2,304L412.84,302.32L412.94,303.98L412.96,303.71L413.02,304L413.69,294.97L413.75,294.99L413.75,304L414.48,304L414.53,303.83L414.55,302.54L414.86,304L414.87,300.16L415.59,304L415.62,301.06L415.63,303.99L415.92,304L415.92,304L415.92,299.15L416.42,297.16L416.67,304L416.69,303.76L416.72,304L417.4,301.92L417.47,303.86L417.53,303.98L417.84,303L418.1,303.86L418.1,304L418.51,301.61L418.91,303.59L418.91,304L418.96,301.76L419.6,304L419.68,303.65L419.99,301.6L420.3,304L420.33,303.62L420.45,303.77L420.45,304L420.52,302.22L421.16,303.28L421.21,304L421.71,298.16L421.97,303.61L421.97,304L422.03,300.37L422.72,304L422.76,304L423.21,302.13L423.51,304L423.54,304L424.09,295.16L424.29,303.61L424.31,304L424.38,302.8L425,303.99L425.08,304L425.08,301.2L425.76,304L425.84,303.41L425.85,304L426.15,299.35L426.57,303.28L426.64,303.32L426.64,304L427.32,299.51L427.36,304L427.5,304L427.84,298.25L428.22,304L428.27,304L428.31,297.67L429.02,303.95L429.07,303.91L429.07,299.53L429.13,304L429.8,304L429.95,304L430.6,301.53L430.6,303.76L430.63,304L430.69,301.05L430.77,304L430.96,295.32L430.96,304L431.24,289.16L431.69,303.89L431.76,304L432,301.47L432.14,304L432.26,304L432.66,299.78L433.01,303.87L433.03,304L433.59,303.28L433.71,303.97L433.82,303.8L433.82,304L434.25,255.03L434.57,303.99L434.6,303.84L434.6,304L435.1,301.22L435.32,301.31L435.43,304L436.13,302.52L436.21,304L436.21,301.35L436.68,300.22L436.97,304L436.97,303.93L437.05,304L437.35,301.74L437.77,304L437.82,304L438.01,299.58L438.26,303.6L438.27,304L438.71,297.24L438.99,303.98L439.04,302.8L439.04,304L439.59,302.57L439.79,304L439.8,302.49L439.99,304L440,298.42L440,293.89L440,304L440.75,303.38L440.77,303.95L440.81,304L441.1,302.29L441.47,304L441.53,304L441.93,302.98L442.02,303.93L442.02,304L442.33,300.45L442.76,304L442.8,303.79L442.8,304L442.85,288.45L443.51,304L443.57,304L444.05,301.97L444.32,304L444.42,303.72L444.47,304L445.06,302.15L445.17,303.96L445.21,304L445.83,302.36L445.96,304L445.97,304L446.31,303.27L446.71,304L446.76,304L447.07,296.23L447.51,304L447.53,304L447.77,295.24L448.27,304L448.32,304L448.75,302.98L449.07,304L449.08,303.18L449.52,302.91L449.9,304L449.95,304L450.63,299.37L450.7,303.88L450.75,303.91L451.01,303.38L451.04,304L451.04,300.88L451.04,304L451.13,296.72L451.79,304L451.8,300.02L451.8,304L452.55,304L452.56,304L452.83,301.29L453.31,303.01L453.32,304L453.33,302.02L454.05,304L454.09,304L454.17,301.12L454.81,302.43L454.82,304L454.87,302.13L455.55,303.7L455.62,303.88L455.71,304L455.95,301.8L456.33,303.88L456.44,304L456.7,302.07L457.18,304L457.2,303.79L457.2,304L457.25,301.69L457.94,303.7L457.97,303.7L458.41,301.96L458.7,304L458.73,303.75L458.73,304L459.24,302.64L459.48,303.5L459.53,303.69L459.7,302.65L460.22,304L460.22,16L460.92,304L461.01,303.92L461.12,304L461.37,302.3L461.44,304L461.44,298.42L461.44,304L462.19,304L462.23,304L462.89,301.36L462.98,303.73L462.99,303.96L463.2,303.01L463.28,304L463.28,299.34L463.33,299.25L464.04,304L464.08,302.65L464.08,296.93L464.08,304L464.81,304L464.86,303.94L464.9,304L465.56,290.17L465.6,304L465.62,303.94L465.68,304L466.14,287.58L466.35,303.99L466.42,304L466.85,302.02L467.16,303.84L467.18,304L467.65,302.15L467.93,304L467.94,303.39L468.19,303.13L468.68,304L468.68,304L468.71,303.71L468.71,304L469.11,293.68L469.46,302.18L469.49,304L470.06,302.53L470.16,303.38L470.2,304L470.56,302.72L470.99,303.18L470.99,304L471.23,301.61L471.28,304L471.28,298.78L472.05,304L472.06,303.34L472.09,304L472.17,302.44L472.72,303.99L472.76,303.93L473.22,303.06L473.35,303.63L473.47,304L473.63,304L473.63,303.89L473.63,300.36L473.63,304L474.04,299.4L474.38,304L474.39,304L474.76,260.84L474.92,304L474.97,304L475.1,299.76L475.71,304L475.75,304L475.83,303.55L475.96,303.81L475.97,300.26L475.97,304L476.34,298.57L476.69,303.82L476.74,304L476.81,302.74L477.03,303.89L477.04,303.98L477.57,303.24L477.57,304L477.67,302.24L478.31,304L478.32,304L478.33,301.71L479.06,304L479.09,304L479.43,301.84L479.84,303.29L479.85,304L480.21,301.52L480.45,303.78L480.51,304L480.67,290.34L481.2,304L481.27,304L481.91,304L481.91,302.93L481.98,304L482.56,291.53L482.64,304L482.72,304L483.06,289.41L483.46,303.94L483.5,303.99L483.72,302.63L484.27,303.19L484.27,304L484.48,302.61L484.98,303.99L485.05,303.85L485.33,302.85L485.81,304L485.84,304L485.95,301.13L486.56,304L486.61,304L487.28,301.97L487.35,304L487.39,304L487.75,300.9L488.14,304L488.19,302.41L488.19,304L488.57,298.75L488.94,303.97L488.99,303.71L488.99,304L489.71,300.95L489.71,303.92L489.78,304L490.43,302.48L490.53,304L490.54,304L491.17,300.23L491.27,303.41L491.3,304L491.57,302.83L492.04,303.91L492.07,303.85L492.1,302.1L492.81,304L492.82,303.9L492.85,304L492.98,296.3L493.6,302.57L493.62,303.96L493.82,304L493.98,301.61L494,304" style="vector-effect: non-scaling-stroke; fill: none; stroke: rgb(99, 110, 250); stroke-opacity: 1; stroke-width: 2px; opacity: 1;"/></g><g class="points"/><g class="text"/></g></g></g><g class="overplot"/><path class="xlines-above crisp" d="M0,0" style="fill: none;"/><path class="ylines-above crisp" d="M0,0" style="fill: none;"/><g class="overlines-above"/><g class="xaxislayer-above"><g class="xtick"><text text-anchor="middle" x="0" y="436" transform="translate(212.23000000000002,0)" style="font-family: 'Times New Roman'; font-size: 15px; fill: rgb(13, 13, 13); fill-opacity: 1; white-space: pre; opacity: 1;">1.61252×10​<tspan style="font-size:70%" dy="-0.6em">18</tspan><tspan dy="0.42em">​</tspan></text></g><g class="xtick"><text text-anchor="middle" x="0" y="436" style="font-family: 'Times New Roman'; font-size: 15px; fill: rgb(13, 13, 13); fill-opacity: 1; white-space: pre; opacity: 1;" transform="translate(310.27,0)">1.612525×10​<tspan style="font-size:70%" dy="-0.6em">18</tspan><tspan dy="0.42em">​</tspan></text></g><g class="xtick"><text text-anchor="middle" x="0" y="436" style="font-family: 'Times New Roman'; font-size: 15px; fill: rgb(13, 13, 13); fill-opacity: 1; white-space: pre; opacity: 1;" transform="translate(408.3,0)">1.61253×10​<tspan style="font-size:70%" dy="-0.6em">18</tspan><tspan dy="0.42em">​</tspan></text></g><g class="xtick"><text text-anchor="middle" x="0" y="436" style="font-family: 'Times New Roman'; font-size: 15px; fill: rgb(13, 13, 13); fill-opacity: 1; white-space: pre; opacity: 1;" transform="translate(506.34,0)">1.612535×10​<tspan style="font-size:70%" dy="-0.6em">18</tspan><tspan dy="0.42em">​</tspan></text></g><g class="xtick"><text text-anchor="middle" x="0" y="436" style="font-family: 'Times New Roman'; font-size: 15px; fill: rgb(13, 13, 13); fill-opacity: 1; white-space: pre; opacity: 1;" transform="translate(604.37,0)">1.61254×10​<tspan style="font-size:70%" dy="-0.6em">18</tspan><tspan dy="0.42em">​</tspan></text></g></g><g class="yaxislayer-above"><g class="ytick"><text text-anchor="end" x="125" y="12.25" transform="translate(0,404)" style="font-family: 'Times New Roman'; font-size: 35px; fill: rgb(13, 13, 13); fill-opacity: 1; white-space: pre; opacity: 1;">0</text></g><g class="ytick"><text text-anchor="end" x="125" y="12.25" style="font-family: 'Times New Roman'; font-size: 35px; fill: rgb(13, 13, 13); fill-opacity: 1; white-space: pre; opacity: 1;" transform="translate(0,367.95)">1000</text></g><g class="ytick"><text text-anchor="end" x="125" y="12.25" style="font-family: 'Times New Roman'; font-size: 35px; fill: rgb(13, 13, 13); fill-opacity: 1; white-space: pre; opacity: 1;" transform="translate(0,331.9)">2000</text></g><g class="ytick"><text text-anchor="end" x="125" y="12.25" style="font-family: 'Times New Roman'; font-size: 35px; fill: rgb(13, 13, 13); fill-opacity: 1; white-space: pre; opacity: 1;" transform="translate(0,295.85)">3000</text></g><g class="ytick"><text text-anchor="end" x="125" y="12.25" style="font-family: 'Times New Roman'; font-size: 35px; fill: rgb(13, 13, 13); fill-opacity: 1; white-space: pre; opacity: 1;" transform="translate(0,259.8)">4000</text></g><g class="ytick"><text text-anchor="end" x="125" y="12.25" style="font-family: 'Times New Roman'; font-size: 35px; fill: rgb(13, 13, 13); fill-opacity: 1; white-space: pre; opacity: 1;" transform="translate(0,223.75)">5000</text></g><g class="ytick"><text text-anchor="end" x="125" y="12.25" style="font-family: 'Times New Roman'; font-size: 35px; fill: rgb(13, 13, 13); fill-opacity: 1; white-space: pre; opacity: 1;" transform="translate(0,187.69)">6000</text></g><g class="ytick"><text text-anchor="end" x="125" y="12.25" style="font-family: 'Times New Roman'; font-size: 35px; fill: rgb(13, 13, 13); fill-opacity: 1; white-space: pre; opacity: 1;" transform="translate(0,151.64)">7000</text></g><g class="ytick"><text text-anchor="end" x="125" y="12.25" style="font-family: 'Times New Roman'; font-size: 35px; fill: rgb(13, 13, 13); fill-opacity: 1; white-space: pre; opacity: 1;" transform="translate(0,115.59)">8000</text></g></g><g class="overaxes-above"/></g></g><g class="polarlayer"/><g class="smithlayer"/><g class="ternarylayer"/><g class="geolayer"/><g class="funnelarealayer"/><g class="pielayer"/><g class="iciclelayer"/><g class="treemaplayer"/><g class="sunburstlayer"/><g class="glimages"/><defs id="topdefs-a8d455"><g class="clips"/></defs><g class="layer-above"><g class="imagelayer"/><g class="shapelayer"/></g><g class="infolayer"><g class="g-gtitle"/><g class="g-xtitle"><text class="xtitle" x="373" y="463.8" text-anchor="middle" style="font-family: 'Open Sans', verdana, arial, sans-serif; font-size: 14px; fill: rgb(42, 63, 95); opacity: 1; font-weight: normal; white-space: pre;">Time Steps (ns)</text></g><g class="g-ytitle" transform="translate(24,0)"><text class="ytitle" transform="rotate(-90,12,260)" x="12" y="260" text-anchor="middle" style="font-family: 'Times New Roman'; font-size: 40px; fill: rgb(13, 13, 13); opacity: 1; font-weight: normal; white-space: pre;">Speed (in sec.)</text></g></g></svg>