<svg class="main-svg" xmlns="http://www.w3.org/2000/svg" xmlns:xlink="http://www.w3.org/1999/xlink" width="700" height="500" style="" viewBox="0 0 700 500"><rect x="0" y="0" width="700" height="500" style="fill: rgb(255, 255, 255); fill-opacity: 1;"/><defs id="defs-72ac84"><g class="clips"><clipPath id="clip72ac84xyplot" class="plotclip"><rect width="399" height="300"/></clipPath><clipPath class="axesclip" id="clip72ac84x"><rect x="137" y="0" width="399" height="500"/></clipPath><clipPath class="axesclip" id="clip72ac84y"><rect x="0" y="100" width="700" height="300"/></clipPath><clipPath class="axesclip" id="clip72ac84xy"><rect x="137" y="100" width="399" height="300"/></clipPath></g><g class="gradients"/><g class="patterns"/></defs><g class="bglayer"><rect class="bg" x="137" y="100" width="399" height="300" style="fill: rgb(229, 236, 246); fill-opacity: 1; stroke-width: 0;"/></g><g class="layer-below"><g class="imagelayer"/><g class="shapelayer"/></g><g class="cartesianlayer"><g class="subplot xy"><g class="layer-subplot"><g class="shapelayer"/><g class="imagelayer"/></g><g class="minor-gridlayer"><g class="x"/><g class="y"/></g><g class="gridlayer"><g class="x"><path class="xgrid crisp" transform="translate(206.48000000000002,0)" d="M0,100v300" style="stroke: rgb(255, 255, 255); stroke-opacity: 1; stroke-width: 1px;"/><path class="xgrid crisp" transform="translate(285.7,0)" d="M0,100v300" style="stroke: rgb(255, 255, 255); stroke-opacity: 1; stroke-width: 1px;"/><path class="xgrid crisp" transform="translate(364.91999999999996,0)" d="M0,100v300" style="stroke: rgb(255, 255, 255); stroke-opacity: 1; stroke-width: 1px;"/><path class="xgrid crisp" transform="translate(444.15,0)" d="M0,100v300" style="stroke: rgb(255, 255, 255); stroke-opacity: 1; stroke-width: 1px;"/><path class="xgrid crisp" transform="translate(523.37,0)" d="M0,100v300" style="stroke: rgb(255, 255, 255); stroke-opacity: 1; stroke-width: 1px;"/></g><g class="y"><path class="ygrid crisp" transform="translate(0,355.75)" d="M137,0h399" style="stroke: rgb(255, 255, 255); stroke-opacity: 1; stroke-width: 1px;"/><path class="ygrid crisp" transform="translate(0,302.88)" d="M137,0h399" style="stroke: rgb(255, 255, 255); stroke-opacity: 1; stroke-width: 1px;"/><path class="ygrid crisp" transform="translate(0,197.12)" d="M137,0h399" style="stroke: rgb(255, 255, 255); stroke-opacity: 1; stroke-width: 1px;"/><path class="ygrid crisp" transform="translate(0,144.25)" d="M137,0h399" style="stroke: rgb(255, 255, 255); stroke-opacity: 1; stroke-width: 1px;"/></g></g><g class="zerolinelayer"><path class="yzl zl crisp" transform="translate(0,250)" d="M137,0h399" style="stroke: rgb(255, 255, 255); stroke-opacity: 1; stroke-width: 2px;"/></g><path class="xlines-below"/><path class="ylines-below"/><g class="overlines-below"/><g class="xaxislayer-below"/><g class="yaxislayer-below"/><g class="overaxes-below"/><g class="plot" transform="translate(137,100)" clip-path="url(#clip72ac84xyplot)"><g class="scatterlayer mlayer"><g class="trace scatter traceea1b3c" style="stroke-miterlimit: 2; opacity: 1;"><g class="fills"/><g class="errorbars"/><g class="lines"><path class="js-line" d="M0,210.8L0.13,97.12L0.74,144.71L0.77,152.64L1.26,181.72L1.3,110.35L1.51,128.85L1.51,173.8L1.58,110.34L1.96,187.01L2.17,112.99L2.19,181.72L2.26,189.65L2.49,105.05L2.94,131.49L3.06,144.71L3.19,171.15L3.22,126.21L3.74,134.14L3.84,155.29L4.1,126.2L4.1,173.79L4.58,157.93L4.63,160.57L4.82,179.08L4.95,120.92L5.38,142.07L5.41,152.64L5.79,176.44L5.83,128.84L6.16,155.29L6.17,147.36L6.42,163.22L6.46,142.07L6.46,142.07L6.49,128.85L6.7,110.34L7.3,168.51L7.3,157.93L7.3,147.36L7.44,123.56L7.87,181.72L8.05,179.08L8.1,136.78L8.7,118.28L8.7,181.72L8.77,123.56L8.83,123.57L9.27,110.34L9.56,200.23L9.56,200.23L9.7,147.36L9.7,142.07L9.76,171.15L10.4,157.93L10.46,155.29L10.48,112.99L10.98,176.43L11.2,142.07L11.25,155.29L11.79,128.85L11.84,165.86L11.89,160.57L11.89,171.15L12.5,179.07L12.58,120.93L12.66,150L12.68,144.71L12.93,181.72L12.93,115.64L13.34,123.57L13.41,123.57L13.74,179.07L14,139.43L14.18,142.07L14.27,134.14L14.29,157.93L14.84,110.35L14.97,179.07L15.04,157.93L15.1,147.36L15.12,120.92L15.33,184.36L15.78,126.21L15.87,142.07L16.13,179.07L16.32,120.93L16.57,173.79L16.62,120.93L16.78,105.06L17.13,173.79L17.34,163.22L17.41,147.36L17.74,176.43L17.75,123.57L18.14,160.57L18.14,128.85L18.74,176.43L18.88,118.28L18.88,123.57L18.92,123.56L19.51,192.3L19.56,115.63L19.67,165.86L19.68,171.15L20.04,128.85L20.43,147.36L20.46,152.64L20.98,171.15L21,123.56L21.18,136.78L21.22,152.64L21.35,160.58L21.68,134.13L21.95,139.42L21.96,163.22L21.96,171.15L22.51,118.27L22.68,157.93L22.76,168.51L22.86,184.36L22.9,110.34L23.43,152.64L23.54,152.64L23.79,155.29L23.82,128.85L23.89,131.49L23.89,171.15L23.89,173.8L24.44,120.92L24.57,157.93L24.65,136.78L24.7,110.34L24.81,194.94L25.39,128.85L25.43,168.51L25.53,118.27L25.68,187.02L26.02,150L26.05,155.29L26.25,187.03L26.33,102.39L26.72,128.84L26.9,147.36L27.43,123.56L27.44,176.44L27.64,144.71L27.65,150L28.07,107.69L28.32,176.45L28.32,126.2L28.46,102.39L28.89,173.8L29.05,131.49L29.13,155.29L29.38,126.2L29.69,179.09L29.88,160.58L29.9,139.42L30.36,181.74L30.36,118.26L30.65,152.64L30.7,147.36L30.8,176.45L30.81,120.91L31.28,142.07L31.28,123.55L31.33,120.91L32,205.52L32.05,171.15L32.06,152.64L32.17,181.73L32.25,128.84L32.52,179.09L32.57,197.6L32.59,102.4L32.64,200.24L33.32,142.07L33.37,150L33.9,176.44L33.91,123.56L34.09,147.36L34.13,152.64L34.48,197.6L34.48,107.69L34.86,120.92L34.9,173.79L35.29,123.56L35.3,184.37L35.65,163.22L35.66,136.78L35.71,134.14L35.74,171.15L35.76,155.29L35.76,115.63L35.95,99.76L36.34,171.15L36.52,157.93L36.53,152.64L36.82,173.8L36.83,120.92L37.23,150L37.23,171.15L37.41,179.09L37.78,126.2L37.8,173.8L37.84,173.79L37.87,184.37L38.41,126.21L38.51,147.36L38.52,147.36L38.67,179.09L38.87,107.7L39.27,147.36L39.28,147.36L39.4,123.56L39.95,179.09L39.98,176.44L40.05,142.07L40.4,179.08L40.78,126.2L40.81,144.71L41.23,189.66L41.5,126.21L41.54,163.22L41.58,147.36L41.97,102.41L42.14,194.95L42.33,168.51L42.35,139.42L42.47,86.54L42.99,181.72L43.1,144.71L43.15,165.86L43.64,197.57L43.72,113L43.78,173.78L43.91,160.57L44.61,194.93L44.65,86.57L44.68,134.14L45.05,173.79L45.17,112.99L45.41,165.86L45.44,157.93L45.57,245.13L45.93,99.79L46.19,155.29L46.21,165.86L46.57,110.35L46.83,208.14L46.96,165.85L46.96,173.78L47.37,110.36L47.43,179.06L47.7,144.71L47.72,152.64L48.11,168.5L48.11,126.21L48.5,147.36L48.51,155.29L48.73,171.14L48.73,123.57L49.17,150L49.27,152.64L49.77,94.49L49.79,200.22L49.98,155.29L50.03,147.36L50.16,126.21L50.34,179.07L50.76,150L50.79,150L50.99,113L51.35,181.72L51.5,163.22L51.5,134.14L52.13,176.44L52.15,110.34L52.22,147.36L52.25,128.85L52.7,118.28L52.83,192.29L52.95,152.64L53.03,152.64L53.13,155.29L53.17,144.71L53.29,152.64L53.29,173.79L53.58,181.72L54.06,115.63L54.06,134.14L54.12,131.49L54.25,179.07L54.83,152.64L54.84,136.79L54.92,128.86L55.18,176.43L55.58,155.29L55.6,150L55.68,136.78L56.04,163.22L56.08,136.78L56.08,126.21L56.22,171.15L56.84,147.36L56.84,136.78L57.35,189.65L57.53,102.42L57.59,184.36L57.66,173.79L57.78,102.43L57.78,197.57L58.38,152.64L58.49,147.36L58.73,128.86L58.77,171.14L59.23,163.22L59.28,152.64L59.3,181.72L59.33,110.35L60,157.93L60.04,152.64L60.14,179.08L60.14,120.92L60.48,134.14L60.51,165.86L60.92,176.43L60.97,128.85L61.25,157.93L61.28,163.22L61.47,173.79L61.99,123.56L61.99,171.15L61.99,173.79L62.55,105.07L62.58,192.29L62.72,173.78L62.74,181.71L63.06,189.65L63.17,97.13L63.36,163.21L63.4,181.72L64.07,110.35L64.16,168.5L64.18,165.86L64.23,112.99L64.42,194.93L64.93,115.64L64.95,210.79L65.29,112.99L65.76,126.21L65.81,168.5L65.92,200.22L66.46,86.56L66.55,152.64L66.58,152.64L66.87,176.43L67.3,123.57L67.33,142.07L67.35,157.93L67.45,173.79L67.83,107.72L68.09,147.36L68.12,168.5L68.34,171.14L68.4,126.22L68.5,168.5L68.5,173.78L68.61,126.21L68.93,189.64L69.22,144.71L69.24,155.29L69.53,181.71L69.94,107.71L69.94,107.71L70.02,181.71L70.09,115.64L70.73,221.35L70.73,205.5L70.8,184.35L70.8,94.5L71.5,147.36L71.59,147.36L71.97,181.71L72.16,128.86L72.31,131.5L72.37,168.5L72.62,120.93L72.86,194.94L73.11,142.07L73.17,147.36L73.83,113L73.86,187L73.88,155.29L73.92,187L74.16,107.71L74.67,163.21L74.69,168.5L74.74,118.29L75.21,179.07L75.44,139.43L75.45,157.93L76.12,112.99L76.16,189.65L76.18,165.86L76.18,202.87L76.79,97.13L76.95,150L76.96,160.57L77.16,194.93L77.42,105.07L77.76,126.21L77.76,176.43L78.45,179.07L78.53,113L78.53,184.36L78.92,197.57L79.06,113L79.28,152.64L79.3,152.64L79.38,123.57L79.4,181.71L80.03,150L80.03,160.57L80.07,120.93L80.1,179.07L80.78,157.93L80.82,157.93L80.95,115.65L81.32,200.21L81.55,160.57L81.61,144.71L81.74,128.86L81.8,179.07L82.37,157.93L82.38,136.79L83.1,115.63L83.12,194.94L83.22,165.86L83.63,184.36L83.7,128.85L83.81,176.43L83.82,102.41L84.41,221.36L84.41,81.26L84.52,128.85L84.59,102.41L84.62,255.72L84.62,57.46L85.34,168.5L85.35,168.5L85.69,105.06L85.79,205.51L86.06,173.79L86.11,160.57L86.51,202.88L86.57,107.69L86.73,120.92L86.82,202.87L87.34,91.84L87.55,150L87.6,165.86L87.63,208.16L87.84,99.77L88.34,107.7L88.36,107.7L88.45,99.77L88.55,208.16L89.11,110.34L89.12,110.34L89.22,184.38L89.9,173.79L89.93,126.21L90.03,112.99L90.53,194.96L90.67,150L90.7,176.44L91.08,197.58L91.35,115.63L91.41,163.22L91.49,163.22L91.56,179.08L91.89,131.49L92.23,147.36L92.23,157.93L92.43,128.85L92.71,173.79L92.94,155.29L92.97,165.86L93.04,194.94L93.07,115.63L93.7,136.78L93.72,157.93L93.72,110.34L93.93,181.72L94.47,157.93L94.48,134.14L94.9,179.08L94.91,102.41L95.23,150L95.26,152.64L95.51,94.5L95.81,194.94L96,163.22L96,187L96.25,120.92L96.77,139.43L96.82,139.43L97.04,168.5L97.1,126.21L97.55,139.43L97.6,128.85L97.99,194.94L97.99,107.71L98.34,147.36L98.36,147.36L98.49,126.21L98.72,179.08L99.09,152.64L99.12,147.36L99.31,128.85L99.57,176.43L99.7,128.85L99.7,112.99L99.7,107.71L100.08,179.08L100.41,144.71L100.46,152.64L100.61,139.43L100.78,171.15L100.81,176.44L100.84,123.56L101.55,123.56L101.57,142.07L101.63,189.65L101.64,102.42L101.8,83.91L101.88,218.72L102.31,142.07L102.36,118.28L102.58,97.14L102.79,181.71L103.09,147.36L103.14,157.93L103.67,176.43L103.78,123.57L103.84,160.57L103.94,139.43L104.48,197.57L104.55,107.71L104.69,147.36L104.7,136.79L105.26,179.07L105.45,99.78L105.48,181.71L105.86,118.29L106.23,147.36L106.27,150L106.35,186.99L107,115.65L107.02,163.21L107.04,139.43L107.53,168.5L107.73,118.28L107.77,152.64L107.83,157.93L108.46,168.5L108.46,107.71L108.54,150L108.57,171.14L108.61,186.99L109.2,115.65L109.34,120.94L109.36,152.64L109.44,179.06L109.47,118.29L110.06,155.28L110.11,173.78L110.18,192.28L110.73,123.58L110.83,152.64L110.89,147.36L110.91,123.57L110.93,173.78L111.55,144.71L111.55,134.14L111.98,171.14L112.23,118.28L112.27,152.64L112.38,144.71L112.44,165.86L112.47,134.14L112.57,157.93L112.62,123.57L112.75,184.36L112.91,118.28L113.37,160.57L113.38,160.57L113.38,176.43L113.39,123.57L114.13,139.43L114.14,139.43L114.31,200.22L114.71,94.49L114.85,144.71L114.85,155.29L115.01,194.93L115.11,97.14L115.46,155.29L115.54,155.29L115.96,120.92L116.06,131.5L116.08,176.43L116.39,197.58L116.88,115.63L116.89,187.01L117.51,120.92L117.69,155.29L117.73,152.64L117.93,144.71L117.95,163.22L117.95,136.78L117.95,126.21L118.06,194.95L118.7,176.43L118.75,136.79L119.04,189.65L119.06,110.35L119.5,136.78L119.51,160.57L119.92,229.31L119.97,118.27L120.05,152.64L120.26,152.64L120.35,208.17L120.75,120.91L121.01,189.67L121.07,136.78L121.38,242.55L121.39,54.81L121.7,165.87L121.84,144.71L122.43,171.16L122.51,128.84L122.6,152.64L122.6,134.13L122.64,181.73L122.7,115.63L123.35,155.29L123.37,173.8L123.51,120.91L123.84,200.24L124.11,152.64L124.13,163.22L124.86,120.91L124.87,181.73L124.9,144.71L125.38,192.31L125.63,115.63L125.65,118.27L125.66,168.51L125.93,118.27L126.36,150L126.42,134.13L126.53,179.09L126.81,128.84L127.16,171.16L127.19,126.2L127.23,184.38L127.58,118.27L127.95,160.58L127.97,139.42L128.02,112.98L128.6,184.38L128.72,163.22L128.8,147.36L129.19,112.98L129.21,184.38L129.45,171.16L129.54,131.49L129.89,118.26L130.02,194.96L130.26,171.16L130.33,152.64L130.87,120.91L130.88,179.09L131.04,139.42L131.1,139.42L131.37,115.62L131.4,173.8L131.84,131.49L131.89,160.58L132.51,123.55L132.64,200.25L132.67,152.64L132.85,176.45L133.04,115.62L133.06,189.67L133.08,115.62L133.81,123.55L133.83,134.13L133.92,94.46L133.93,200.25L134.51,139.42L134.59,139.42L134.67,173.81L135.29,102.39L135.29,139.42L135.36,155.29L135.4,120.91L136.1,187.04L136.11,112.96L136.59,168.52L136.86,160.58L136.86,139.42L137.34,176.45L137.46,126.2L137.61,150L137.62,142.07L137.74,179.09L138.22,112.97L138.23,200.26L138.63,205.53L138.7,91.83L138.9,163.22L139.01,144.71L139.39,118.27L139.66,202.9L139.72,152.64L139.79,147.36L139.83,189.67L140.32,126.19L140.54,163.23L140.58,163.23L141.08,115.61L141.15,184.39L141.27,136.77L141.3,163.23L141.78,112.97L141.82,184.38L141.87,120.91L141.89,120.91L141.95,208.18L142.01,118.26L142.61,147.36L142.78,147.36L143.15,197.61L143.34,99.74L143.47,189.67L143.49,123.55L144.07,89.17L144.18,208.19L144.21,181.74L144.26,120.91L144.57,120.9L144.78,173.8L145.01,157.93L145.05,152.64L145.56,126.19L145.59,176.45L145.77,168.51L145.81,150L145.82,115.62L145.95,179.1L146.54,142.06L146.55,147.35L146.86,179.09L147.3,128.84L147.31,128.84L147.78,171.16L148.06,165.87L148.08,134.13L148.7,97.09L148.71,192.32L148.78,112.96L148.9,144.71L148.94,181.74L149.12,112.97L149.63,139.42L149.63,160.58L150.11,105.03L150.12,194.97L150.35,131.48L150.39,144.71L150.76,181.74L150.83,107.68L151.09,131.48L151.17,152.65L151.31,171.16L151.32,112.97L151.9,136.77L151.9,176.45L151.94,192.32L151.96,107.68L152.64,120.91L152.66,123.55L152.83,184.39L152.83,105.03L153.42,163.23L153.46,163.23L153.82,192.32L154.14,97.09L154.2,150L154.24,150L154.45,184.38L154.64,120.9L154.99,150L155.01,155.29L155.51,110.32L155.65,197.61L155.68,197.61L155.68,208.19L155.74,102.39L156.43,173.81L156.46,126.19L156.62,110.31L156.97,163.23L157.22,157.94L157.27,142.06L157.47,107.67L157.87,171.16L158.01,155.29L158.04,155.29L158.54,131.48L158.74,179.1L158.77,134.13L158.77,171.16L159.09,179.1L159.36,112.96L159.5,139.42L159.53,147.35L159.56,128.83L160.06,184.39L160.22,165.87L160.28,142.06L160.54,192.33L160.55,115.61L160.98,139.42L161.05,139.42L161.22,189.68L161.66,91.81L161.76,152.65L161.82,152.65L161.83,200.26L161.93,102.38L162.57,152.65L162.58,152.65L162.76,173.81L162.83,120.9L163.32,147.36L163.34,152.64L163.45,187.03L163.49,112.97L164.06,136.78L164.16,134.13L164.66,176.46L164.82,89.15L164.86,94.44L164.86,83.86L164.88,65.34L165.39,171.16L165.53,150L165.55,157.94L165.55,131.48L165.58,179.1L166.3,155.29L166.32,152.65L166.42,176.45L166.48,107.67L167,134.13L167.03,168.52L167.65,112.97L167.66,187.03L167.71,126.19L167.81,147.35L168.35,118.25L168.46,173.81L168.56,150L168.57,134.13L168.91,184.39L168.92,115.61L169.32,171.16L169.38,134.13L169.55,179.1L169.62,126.19L170.13,157.94L170.21,147.35L170.29,192.32L170.32,107.68L170.95,157.94L170.98,142.06L171.29,187.03L171.36,110.32L171.72,128.84L171.79,147.35L171.94,194.97L171.98,105.03L172.45,155.29L172.56,192.33L172.96,99.73L173.02,144.71L173.06,192.32L173.08,86.51L173.73,150L173.83,147.35L174.48,107.67L174.49,181.75L174.57,165.87L174.59,144.71L174.72,120.89L174.76,247.9L174.84,22.95L174.86,15L174.93,255.86L175.21,163.23L175.21,184.4L175.24,202.92L175.26,89.14L175.93,142.06L176.02,142.06L176.58,200.26L176.69,91.79L176.77,91.79L176.81,179.1L177.49,184.39L177.5,102.38L177.55,152.65L177.56,152.65L177.59,105.03L178.06,181.75L178.24,128.84L178.24,176.45L178.34,179.1L178.71,118.26L178.97,155.29L179.02,147.35L179.1,194.97L179.53,86.53L179.76,112.97L179.78,181.74L180.28,91.81L180.44,187.02L180.55,112.98L180.56,171.16L180.63,112.98L180.73,187.02L181.22,147.35L181.23,131.48L181.78,179.09L181.88,118.27L181.98,155.29L182,155.29L182.18,179.08L182.33,107.69L182.73,168.51L182.79,152.64L183.45,115.62L183.46,187.02L183.49,155.29L183.49,112.98L183.5,189.66L184.24,147.36L184.25,155.29L184.44,200.25L184.55,126.2L184.99,144.71L185.04,155.29L185.12,120.91L185.12,179.09L185.71,171.16L185.71,134.13L185.93,118.27L186.32,184.38L186.45,128.84L186.47,152.64L186.76,131.49L186.87,184.38L186.88,173.8L186.88,194.96L187.53,202.89L187.57,107.68L187.66,144.71L187.68,160.58L188.11,107.68L188.35,189.67L188.38,189.67L188.44,168.51L188.44,110.33L189.19,176.45L189.2,160.58L189.46,115.62L189.46,181.73L189.93,142.07L189.93,168.51L190.41,118.27L190.45,181.73L190.68,163.22L190.69,163.22L191.12,128.84L191.13,168.51L191.42,157.93L191.46,152.64L191.71,179.09L191.71,115.62L192.21,147.36L192.22,150L192.63,128.84L192.66,194.96L192.66,107.68L192.98,205.54L193.41,144.71L193.47,152.64L193.6,131.49L194.04,160.58L194.05,144.71L194.05,118.27L194.53,168.51L194.79,123.56L194.83,136.78L195.04,181.73L195.12,123.55L195.56,165.87L195.62,155.29L196.18,187.02L196.22,123.56L196.28,165.87L196.38,176.44L196.51,102.4L196.53,194.95L196.59,157.93L196.64,189.66L196.74,102.4L197.19,192.31L197.34,136.78L197.44,150L197.5,181.73L198.06,131.49L198.19,144.71L198.21,147.36L198.87,105.05L198.92,194.95L198.97,134.13L199.3,187.03L199.35,115.62L199.71,144.71L199.77,155.29L200.18,176.44L200.25,126.2L200.52,147.36L200.53,147.36L200.93,197.58L200.95,99.77L201.22,176.43L201.27,144.71L201.53,89.19L201.79,202.87L201.95,160.58L201.95,128.85L202.47,179.08L202.62,110.34L202.74,134.14L202.9,202.87L202.98,105.05L203.49,155.29L203.49,128.85L203.77,194.94L203.77,105.06L204.23,142.07L204.26,142.07L204.88,120.92L204.89,194.94L205,171.15L205.03,168.51L205.38,126.2L205.5,173.79L205.75,168.51L205.76,134.14L205.83,102.42L205.9,202.86L206.51,155.29L206.54,147.36L206.86,173.79L206.91,115.64L207.29,168.51L207.3,134.14L207.31,181.73L207.72,105.07L208.03,163.22L208.05,142.07L208.78,126.21L208.8,176.44L208.85,142.07L209.2,173.79L209.21,107.71L209.56,144.71L209.56,134.14L209.64,179.07L209.86,123.56L210.3,147.36L210.32,147.36L210.71,110.35L210.72,181.72L211.05,176.43L211.08,128.85L211.08,118.28L211.4,181.72L211.83,123.56L211.87,181.72L212.1,89.21L212.39,144.71L212.43,150L212.6,176.43L212.99,105.06L213.03,110.35L213.05,168.5L213.51,176.43L213.74,126.21L213.78,139.43L213.85,160.57L214.16,115.63L214.6,187.02L214.63,173.8L214.85,184.36L215.25,126.21L215.35,157.93L215.41,147.36L215.48,126.21L215.58,184.37L216.16,157.93L216.19,147.36L216.47,131.5L216.47,173.79L216.93,144.71L216.96,144.71L217.19,118.28L217.26,181.72L217.69,152.64L217.75,150L218.09,120.92L218.12,179.08L218.47,173.79L218.48,128.85L218.64,112.98L218.65,189.66L219.23,131.5L219.26,139.43L219.86,131.49L219.9,168.51L220.01,155.29L220.04,120.92L220.21,176.44L220.76,126.2L220.8,150L220.9,126.2L221.29,179.08L221.46,171.15L221.5,126.2L221.51,173.8L222.25,142.07L222.27,147.36L222.6,126.2L222.69,216.1L223.02,165.86L223.04,155.29L223.36,200.23L223.47,102.41L223.79,152.64L223.82,147.36L224.28,176.43L224.31,118.28L224.56,144.71L224.59,168.5L224.59,120.92L224.72,197.58L225.34,157.93L225.36,157.93L225.58,118.28L225.67,192.3L226.02,147.36L226.06,155.29L226.26,126.21L226.29,179.08L226.55,147.36L226.55,115.63L227.03,105.06L227.35,187.01L227.36,147.36L227.46,139.43L227.46,168.5L227.47,126.21L228.08,112.99L228.16,229.29L228.23,160.57L228.24,120.92L228.67,168.51L229,128.85L229.07,147.36L229.52,112.99L229.79,208.15L229.8,208.15L229.88,112.99L230.44,189.65L230.56,110.34L230.67,176.43L230.7,123.57L230.86,120.92L231.37,176.43L231.5,160.57L231.51,134.14L231.82,113L231.85,184.36L232.27,157.93L232.32,150L232.64,107.71L232.7,173.79L233.07,134.14L233.08,120.92L233.1,181.72L233.81,150L233.85,165.86L234.48,184.36L234.52,107.71L234.52,107.71L234.62,115.64L234.75,197.58L235.3,128.86L235.38,160.57L235.85,128.85L235.85,176.43L236.13,152.64L236.15,155.29L236.82,184.36L236.82,118.28L236.86,157.93L236.93,139.43L237.16,110.36L237.31,187L237.66,168.5L237.7,171.14L238.28,89.21L238.3,210.79L238.45,128.85L238.45,176.43L238.57,128.86L239.21,139.43L239.27,142.07L239.56,118.28L239.63,184.36L240.02,163.22L240.04,136.78L240.31,102.42L240.37,179.07L240.8,144.71L240.8,136.78L241.35,105.07L241.46,216.08L241.47,83.92L241.49,86.56L241.52,86.55L241.53,213.44L241.75,224.01L241.99,99.77L242.28,128.85L242.3,168.5L242.64,94.48L242.66,213.44L243.04,147.36L243.06,147.36L243.09,110.34L243.81,184.36L243.82,157.93L243.87,102.41L244.21,179.07L244.55,157.93L244.6,147.36L244.99,102.42L245.03,210.79L245.35,184.35L245.37,155.28L245.47,113L246.04,192.28L246.07,179.07L246.14,163.21L246.23,187L246.69,128.86L246.86,131.5L246.94,144.71L247.39,123.57L247.41,176.43L247.68,142.07L247.74,163.21L248.09,192.28L248.1,120.93L248.39,152.64L248.41,134.14L248.42,181.71L248.48,123.57L249.12,160.57L249.18,160.57L249.38,105.07L249.46,173.78L249.87,163.21L249.99,152.64L250.2,118.29L250.26,179.07L250.64,152.64L250.64,176.42L250.68,197.56L250.78,118.29L251.33,126.22L251.41,152.64L251.79,110.36L251.8,189.64L252.1,165.86L252.19,165.86L252.49,126.21L252.6,176.43L252.86,131.5L252.93,144.72L253.16,134.15L253.16,165.85L253.63,152.64L253.7,147.36L253.89,128.86L253.9,173.78L254.38,163.21L254.39,136.79L254.42,128.86L254.57,171.14L255.17,152.64L255.18,152.64L255.4,186.99L255.48,105.08L255.82,150L255.9,152.64L256.02,128.86L256.15,181.7L256.22,171.14L256.29,139.43L256.48,128.86L256.52,184.34L256.53,115.66L256.78,110.37L257.07,186.98L257.21,144.72L257.21,102.44L257.31,192.28L257.98,179.07L258,152.64L258.6,102.45L258.62,184.34L258.75,131.51L258.77,157.93L259.37,94.51L259.48,189.63L259.52,163.21L259.53,163.21L259.75,176.42L260.2,113.01L260.22,186.99L260.58,123.59L260.91,128.86L260.94,173.78L261.28,176.42L261.37,110.37L261.68,139.43L261.72,171.14L262.19,120.94L262.61,144.72L262.63,144.72L262.7,171.14L262.75,144.72L263.11,123.58L263.46,186.99L263.5,160.57L263.51,147.36L263.67,168.49L263.9,115.65L264,126.22L264.02,176.42L264.21,179.06L264.63,115.66L264.79,134.15L264.8,165.85L264.86,168.49L264.96,134.15L265.37,147.36L265.38,152.64L265.7,181.7L266.1,131.51L266.13,152.64L266.15,142.07L266.54,173.77L266.77,126.23L266.89,136.79L266.91,173.77L267.18,105.1L267.66,134.15L267.68,126.23L267.91,105.09L268.33,181.69L268.33,181.69L268.42,131.51L268.49,107.73L268.49,192.27L269.16,139.43L269.18,160.57L269.77,118.3L269.78,181.7L269.91,147.36L269.94,147.36L270.37,128.87L270.5,189.62L270.56,186.98L270.6,115.66L270.62,181.69L270.69,97.17L271.36,150L271.38,152.64L271.53,181.7L271.87,113.02L271.98,128.87L272.15,152.64L272.49,186.98L272.5,113.02L272.86,139.44L272.9,157.92L273.44,181.68L273.45,113.03L273.64,128.88L273.68,163.2L273.84,168.49L274.11,107.74L274.39,118.31L274.43,171.12L275,113.03L275.03,186.97L275.18,150L275.22,160.56L275.3,168.49L275.34,131.51L275.87,144.72L275.89,160.56L275.91,115.67L276.3,181.69L276.58,147.36L276.67,152.64L276.67,120.95L277.09,171.13L277.41,163.2L277.44,163.2L277.97,171.13L278.02,123.58L278.18,160.56L278.25,157.92L278.65,176.41L278.69,123.59L278.88,142.08L278.9,168.49L279.28,181.7L279.59,126.23L279.62,168.49L279.69,144.72L279.74,118.31L280.11,184.33L280.4,150L280.4,134.15L280.95,107.74L280.96,184.34L281.11,152.64L281.17,152.64L281.29,102.45L281.41,194.9L281.92,168.49L281.97,157.92L282.1,176.41L282.12,110.38L282.73,136.79L282.76,163.21L282.82,115.66L282.83,186.98L283.51,157.92L283.52,157.92L283.73,165.85L284.21,110.38L284.24,163.21L284.24,189.62L284.68,118.3L284.97,184.33L285.01,171.13L285.49,208.12L285.55,97.16L285.7,128.87L285.73,171.13L286.4,200.19L286.47,99.8L286.51,134.15L286.68,113.02L286.94,186.98L287.24,152.64L287.25,126.22L287.5,107.73L287.77,208.11L287.88,126.22L288.04,155.28L288.1,160.57L288.12,99.81L288.12,186.98L288.42,105.09L288.85,123.58L288.88,123.58L289.02,107.73L289.04,192.27L289.63,142.08L289.69,136.79L290.02,113.02L290.03,186.97L290.44,152.64L290.45,139.43L290.52,168.49L290.55,128.87L291.13,139.43L291.16,160.57L291.47,126.23L291.71,173.77L291.92,147.36L291.93,152.64L292.21,165.85L292.33,123.58L292.68,147.36L292.69,150L293.22,168.49L293.44,118.3L293.46,181.7L293.47,120.94L294.19,179.06L294.23,165.85L294.23,176.42L294.39,120.94L294.98,150L294.99,152.64L295.11,165.85L295.34,134.15L295.38,152.64L295.39,171.14L295.96,179.06L296.1,89.22L296.14,89.22L296.2,99.79L296.84,197.55L296.98,173.77L297,126.23L297.06,189.62L297.14,110.38L297.74,136.79L297.77,136.79L297.86,99.82L298.23,194.92L298.23,189.63L298.29,107.73L298.29,102.44L298.99,184.35L299.04,142.07L299.05,176.42L299.27,107.72L299.78,123.58L299.82,176.42L300.46,179.06L300.46,120.94L300.53,142.07L300.64,160.57L301.12,202.84L301.15,97.16L301.37,160.57L301.38,173.78L302.05,205.48L302.06,94.52L302.1,126.22L302.17,165.85L302.19,173.78L302.76,120.93L302.91,157.93L302.93,152.64L303.14,134.15L303.47,163.21L303.59,152.64L303.6,163.21L303.82,181.71L304.31,123.58L304.36,139.43L304.38,160.57L305.1,173.78L305.12,120.94L305.12,163.21L305.17,139.43L305.21,171.14L305.23,128.86L305.92,139.43L305.96,139.43L306.16,136.79L306.71,176.42L306.73,123.58L307.35,194.92L307.47,131.5L307.56,150L307.74,171.14L307.92,128.86L308.24,150L308.25,147.36L308.51,189.63L308.77,99.8L309,150L309.03,171.14L309.2,189.62L309.61,128.86L309.79,165.85L309.84,155.28L310.23,81.3L310.3,218.7L310.58,147.36L310.58,189.63L310.92,110.37L311.32,147.36L311.35,150L311.42,123.57L311.7,176.42L312.1,147.36L312.12,147.36L312.8,118.29L312.82,184.35L312.82,168.5L312.88,163.21L312.97,184.35L313.6,120.93L313.6,120.93L313.61,176.42L313.61,123.58L313.65,184.35L314.36,152.64L314.42,139.43L314.56,173.78L314.63,128.86L315.16,142.07L315.21,157.93L315.22,168.5L315.42,118.29L315.96,134.14L315.97,134.14L316.3,118.29L316.31,181.71L316.43,155.28L316.45,171.14L316.79,128.86L316.84,150L316.86,205.49L316.86,105.07L317.6,150L317.66,147.36L318.05,81.29L318.06,202.85L318.34,144.71L318.34,176.43L318.66,107.72L319.09,168.5L319.12,123.57L319.56,194.92L319.87,123.58L319.93,126.22L320.65,91.86L320.68,208.14L320.71,99.79L321.01,194.92L321.45,107.71L321.49,155.29L322.01,205.5L322.03,94.5L322.21,131.5L322.25,136.79L322.29,89.22L322.54,179.07L323,163.21L323.01,150L323.48,200.21L323.5,99.79L323.75,163.21L323.76,126.22L324.18,213.41L324.22,89.23L324.47,155.29L324.51,152.64L324.65,165.86L324.68,99.79L324.73,107.72L324.75,192.28L324.78,105.08L324.89,194.92L325.51,147.36L325.52,152.64L326.1,113L326.26,205.49L326.29,144.72L326.45,192.27L326.69,89.23L327.02,171.14L327.06,165.85L327.51,181.7L327.54,110.37L327.81,123.58L327.82,126.22L327.89,213.41L327.91,76.02L328.53,160.57L328.6,152.64L328.74,189.63L329.17,89.25L329.31,155.28L329.36,168.48L329.59,218.65L329.93,97.19L330.11,144.72L330.13,139.44L330.76,94.54L330.79,208.1L330.88,152.64L330.89,163.2L330.97,118.31L331.03,200.17L331.03,99.83L331.09,102.47L331.12,155.28L331.13,110.39L331.6,202.82L331.87,131.52L331.93,168.48L331.95,115.67L332.07,186.97L332.68,157.92L332.7,150L333.24,189.61L333.25,110.38L333.43,147.36L333.48,147.36L333.57,192.25L333.63,102.47L334.22,136.8L334.24,163.2L334.34,165.84L334.74,126.24L334.96,163.2L334.96,179.05L335.53,110.4L335.6,194.88L335.7,157.92L335.74,150L336.15,186.96L336.31,105.1L336.32,120.95L336.35,105.1L337.1,205.44L337.13,194.89L337.88,118.32L337.91,152.64L337.93,150L338.13,202.81L338.6,97.19L338.66,189.6L339.19,105.11L339.44,160.56L339.45,155.28L339.57,126.23L339.57,176.4L340.2,144.72L340.23,157.92L340.62,89.26L340.7,213.37L340.98,147.36L340.99,147.36L341.12,131.51L341.23,168.49L341.28,165.84L341.28,115.67L341.32,173.77L342.03,168.48L342.06,168.48L342.48,97.2L342.51,213.35L342.81,157.92L342.83,131.52L342.85,128.88L342.9,171.12L343.31,131.52L343.32,94.56L343.46,200.16L344.05,160.56L344.1,147.36L344.37,176.4L344.58,118.32L344.85,160.56L344.86,160.56L344.88,128.88L345.41,179.04L345.5,168.48L345.5,126.24L345.64,179.04L346.25,157.92L346.31,131.52L346.32,184.32L346.4,102.49L347.03,147.36L347.07,139.44L347.12,123.6L347.46,179.04L347.82,152.64L347.84,139.44L348.31,115.67L348.56,168.48L348.57,152.64L348.63,147.36L348.72,152.64L348.83,139.44L348.88,165.84L349.19,176.4L349.62,118.31L349.65,150L349.73,181.69L349.96,110.4L350.37,134.16L350.44,165.84L350.85,102.45L350.93,181.69L351.16,147.36L351.18,147.36L351.57,115.67L351.58,184.33L351.82,173.77L351.84,126.23L352,176.41L352.58,157.92L352.61,134.15L352.99,181.69L353,105.1L353.35,155.28L353.38,152.64L353.48,118.31L353.93,173.77L354.12,152.64L354.16,152.64L354.33,160.56L354.38,123.59L354.38,107.75L354.44,97.18L354.47,197.53L355.11,120.95L355.14,168.48L355.32,105.1L355.6,197.54L355.88,126.23L355.89,163.21L355.9,186.98L356.38,102.46L356.5,157.92L356.51,163.21L356.55,168.49L357.08,126.23L357.23,128.87L357.24,200.18L357.28,94.54L357.97,107.72L358.04,168.49L358.57,123.58L358.64,176.42L358.74,152.64L358.79,152.64L358.98,168.5L359.46,128.87L359.5,157.92L359.52,165.85L360.04,184.34L360.12,115.65L360.22,123.58L360.31,144.72L360.96,110.37L361,189.63L361.05,157.92L361.08,150L361.45,102.44L361.5,197.56L361.81,123.58L361.87,157.93L362.25,202.85L362.39,81.28L362.61,144.71L362.66,194.93L362.83,99.78L362.84,210.79L363.34,171.14L363.36,131.5L363.88,120.93L364.07,186.99L364.1,160.57L364.1,123.58L364.45,192.27L364.46,107.73L364.67,142.07L364.67,179.07L365.04,181.72L365.16,115.64L365.43,136.79L365.48,147.36L366.04,110.36L366.05,189.64L366.06,110.36L366.2,181.71L366.81,168.5L366.81,126.21L366.88,115.64L367.36,184.35L367.53,142.07L367.54,131.5L367.76,181.71L368,118.29L368.26,152.64L368.27,120.93L368.44,173.78L369.04,155.29L369.1,150L369.28,179.07L369.3,118.28L369.73,168.5L369.78,123.57L369.86,184.36L370.19,120.93L370.5,144.71L370.52,123.57L371.15,112.99L371.27,176.43L371.29,173.79L371.34,126.21L371.54,102.42L372.01,187L372.09,163.22L372.13,157.93L372.13,107.7L372.77,181.71L372.88,139.43L372.92,157.93L373.27,120.93L373.43,179.07L373.62,144.71L373.67,144.71L374.18,118.28L374.24,184.36L374.33,165.86L374.34,120.92L375.09,181.72L375.09,150L375.11,123.57L375.13,118.28L375.86,194.93L375.88,176.43L376.29,192.28L376.62,81.28L376.66,102.42L376.71,139.43L376.75,131.5L376.77,173.78L376.8,134.15L376.81,113L377.53,181.71L377.6,147.36L377.66,152.64L377.71,184.36L377.79,115.64L378.38,118.28L378.41,168.5L378.83,102.43L378.86,189.64L379.13,144.71L379.17,147.36L379.47,176.43L379.49,126.21L379.92,136.79L379.93,136.79L380.09,126.21L380.59,176.43L380.68,147.36L380.68,118.28L380.87,179.07L380.87,115.65L381.47,144.72L381.5,147.36L381.66,97.14L381.68,205.49L382.22,120.93L382.29,115.64L382.54,171.14L383.04,142.07L383.07,142.07L383.45,118.29L383.64,189.63L383.75,181.7L383.85,150L384.34,186.99L384.35,113.01L384.52,147.36L384.55,115.65L384.87,202.85L384.93,102.44L385.3,147.36L385.32,152.64L385.86,115.64L385.99,181.71L386.03,160.57L386.1,173.78L386.84,115.65L386.84,115.65L386.93,168.5L387.44,187L387.47,113L387.64,126.22L387.69,171.14L387.88,197.56L388.12,102.43L388.45,126.22L388.46,126.22L388.94,173.78L389.22,163.21L389.23,142.07L389.49,120.93L389.61,192.28L389.97,160.57L390,139.43L390.36,120.94L390.46,179.06L390.63,139.43L390.63,171.13L391.26,186.99L391.3,115.66L391.36,136.79L391.4,144.72L391.4,181.7L391.47,118.29L392.14,131.51L392.24,131.51L392.58,210.77L392.65,105.08L392.99,155.29L393.02,144.71L393.32,118.29L393.68,184.35L393.78,155.29L393.79,142.07L394.26,102.44L394.32,200.2L394.54,152.64L394.54,136.79L394.84,113L394.99,186.99L395.26,165.85L395.31,155.28L395.38,123.58L395.52,144.71L395.53,155.29L395.53,173.78L396.21,118.29L396.27,142.07L396.31,157.93L396.38,118.29L396.39,179.07L397.04,155.29L397.07,147.36L397.27,115.65L397.34,176.42L397.75,152.64L397.78,173.78L397.78,102.44L397.91,186.99L398.53,142.07L398.58,155.28L398.9,128.86L399,168.5" style="vector-effect: non-scaling-stroke; fill: none; stroke: rgb(99, 110, 250); stroke-opacity: 1; stroke-width: 2px; opacity: 1;"/></g><g class="points"/><g class="text"/></g><g class="trace scatter trace002caf" style="stroke-miterlimit: 2; opacity: 1;"><g class="fills"/><g class="errorbars"/><g class="lines"><path class="js-line" d="M0,89.2L0.34,184.37L0.79,157.93L0.83,152.64L1.26,118.28L1.3,192.3L1.57,152.64L1.58,147.36L2.17,187.01L2.19,110.35L2.3,163.22L2.37,139.42L2.46,131.49L2.5,194.95L2.68,136.78L2.71,136.78L2.8,126.2L3.3,173.79L3.46,163.22L3.49,139.42L3.84,134.14L3.91,171.15L4.25,155.29L4.28,152.64L4.79,126.21L4.88,173.79L4.92,173.79L4.92,123.56L4.94,179.08L5.58,152.64L5.69,152.64L5.82,123.56L6.09,184.37L6.42,136.78L6.46,152.64L6.7,189.66L7.13,131.49L7.14,142.07L7.25,147.36L7.42,123.56L7.44,176.44L7.75,160.57L7.77,181.73L8.13,134.14L8.53,136.78L8.55,163.22L8.7,181.72L8.91,118.28L9.26,165.86L9.26,171.15L9.27,189.66L9.56,99.77L9.98,157.93L10.02,144.71L10.48,187.01L10.66,134.14L10.79,165.86L10.81,165.86L10.98,123.57L11.54,147.36L11.73,147.36L11.99,123.57L12.16,176.43L12.46,142.07L12.46,136.78L12.93,118.28L12.93,184.36L13.14,131.5L13.16,168.5L13.18,118.28L13.34,176.43L13.89,163.22L13.94,163.22L13.96,126.21L14.29,173.79L14.68,152.64L14.7,147.36L14.82,155.29L14.82,126.21L14.84,139.43L14.84,179.08L14.84,189.65L15.33,115.64L15.56,173.79L15.66,136.78L16.13,120.93L16.32,179.07L16.41,139.43L16.41,120.93L16.78,194.94L17.09,120.92L17.15,139.43L17.22,163.22L17.27,165.86L17.31,131.5L17.44,152.64L17.44,168.5L17.74,123.57L17.75,176.43L18.25,142.07L18.26,157.93L18.74,123.57L18.88,181.72L18.99,144.71L19.05,128.85L19.51,107.7L19.56,192.3L19.71,152.64L19.87,139.42L20.12,128.85L20.14,171.15L20.64,157.93L20.7,147.36L20.83,118.28L21,179.08L21.46,139.42L21.5,139.42L21.57,173.8L21.96,128.85L22.2,139.42L22.3,152.64L22.47,192.3L22.86,115.64L22.88,184.36L22.9,189.66L22.93,126.21L23.58,147.36L23.68,152.64L23.83,171.15L23.89,123.56L24.06,160.58L24.11,123.56L24.7,189.66L24.81,105.06L24.86,155.29L24.91,160.57L25.21,126.2L25.39,189.66L25.64,165.87L25.67,155.29L26.18,224.04L26.25,112.97L26.4,205.53L26.45,147.36L26.57,131.49L26.7,171.16L27.19,155.29L27.21,152.64L27.37,176.44L27.44,123.56L27.94,155.29L27.95,168.51L28.14,123.55L28.32,192.32L28.66,147.36L28.72,152.64L28.9,173.8L29.39,126.2L29.45,147.36L29.5,152.64L29.78,120.91L29.79,179.09L30.23,160.58L30.29,157.93L30.36,118.26L30.36,181.74L30.96,142.07L31.08,160.58L31.28,184.38L31.76,115.62L31.84,131.49L31.86,142.07L31.95,94.48L32.59,197.6L32.59,197.6L32.62,115.62L32.62,102.4L32.64,192.31L33.37,147.36L33.38,144.71L33.9,123.56L33.91,176.44L34.13,147.36L34.14,147.36L34.48,102.4L34.48,197.6L34.86,142.07L34.9,160.57L34.9,184.37L35.3,115.63L35.65,136.78L35.66,163.22L35.74,128.85L35.93,168.51L35.93,131.49L35.95,179.08L36.59,126.21L36.68,171.15L36.7,171.15L36.82,126.2L36.83,179.08L37.43,131.49L37.48,155.29L37.78,173.8L37.87,115.63L38.22,152.64L38.25,147.36L38.67,118.27L38.87,192.3L39,131.49L39.02,160.58L39.29,115.63L39.68,176.44L39.7,152.64L39.76,147.36L39.95,120.91L40.12,176.44L40.51,155.29L40.56,144.71L40.74,131.49L41.12,173.8L41.21,131.49L41.21,128.84L41.21,110.34L41.96,192.3L41.97,192.3L41.97,197.59L42.02,102.41L42.68,131.5L42.79,160.57L42.92,115.64L42.97,147.36L42.99,152.64L43.15,128.85L43.49,173.79L43.63,134.14L43.64,102.43L43.72,187L44.36,168.5L44.4,134.14L44.52,205.49L44.53,113.01L45.16,176.43L45.17,134.14L45.17,202.86L45.57,52.22L45.92,134.14L45.93,165.86L45.93,205.49L46.01,99.8L46.68,147.36L46.71,147.36L46.83,83.93L47.38,189.64L47.45,152.64L47.47,144.72L47.49,134.15L47.53,173.78L48.2,147.36L48.24,152.64L48.61,142.07L48.73,176.43L48.95,152.64L49,155.29L49.59,118.28L49.64,189.65L49.75,123.56L49.76,176.44L49.77,205.51L49.79,94.49L50.5,152.64L50.52,152.64L50.99,187L51.24,123.57L51.27,152.64L51.28,155.29L51.35,118.28L51.54,181.72L52.03,163.22L52.04,136.78L52.15,189.66L52.55,115.63L52.73,168.51L52.75,131.49L52.78,176.44L52.83,107.71L53.5,165.86L53.51,134.14L53.58,118.28L54.06,184.37L54.25,163.22L54.35,131.5L54.92,171.14L55.05,168.5L55.11,144.71L55.18,123.57L55.55,168.5L55.84,142.07L55.97,155.29L56.08,173.79L56.22,128.85L56.69,147.36L56.73,147.36L57.18,181.72L57.35,110.35L57.38,189.65L57.78,197.57L57.83,99.78L58.03,152.64L58.03,171.14L58.15,176.43L58.17,126.21L58.81,128.86L58.86,155.29L59.3,118.28L59.33,189.65L59.53,165.86L59.53,171.14L59.73,110.35L59.79,200.23L60.29,147.36L60.29,165.86L60.6,173.79L60.65,128.86L61.05,142.07L61.06,157.93L61.47,126.21L61.66,176.43L61.79,155.29L61.83,144.71L61.99,123.56L62.12,179.08L62.45,131.5L62.48,131.5L63.07,97.13L63.17,202.87L63.18,97.13L63.51,189.65L63.9,165.86L63.97,136.78L64.07,189.65L64.42,105.07L64.71,136.79L64.72,136.79L64.95,89.21L65.18,194.93L65.46,118.28L65.48,155.29L65.89,189.65L65.92,99.78L66.21,144.71L66.25,163.22L66.44,107.71L66.46,213.44L66.99,160.57L67.01,157.93L67.3,176.43L67.67,110.36L67.73,202.85L68.16,110.35L68.48,131.5L68.49,168.5L68.61,173.79L68.93,110.36L69.24,144.71L69.26,144.71L69.53,118.29L69.94,192.29L69.94,192.29L70.02,115.64L70.09,184.36L70.73,78.65L70.73,94.5L70.8,163.21L70.8,210.78L71.13,118.28L71.5,155.29L71.59,147.36L71.97,115.65L72.16,171.14L72.31,168.5L72.37,131.5L72.62,179.07L72.86,102.41L73.11,147.36L73.17,155.29L73.68,181.71L73.86,107.72L73.88,144.71L73.92,155.29L74.14,113L74.16,192.29L74.61,128.86L74.63,128.86L74.67,181.71L75.21,120.93L75.38,160.57L75.38,139.43L75.61,184.36L76.03,118.28L76.03,118.28L76.09,123.57L76.18,97.13L76.69,192.28L76.83,173.79L76.86,144.71L77.21,105.07L77.42,194.93L77.53,144.71L77.6,168.5L77.76,120.93L77.89,181.71L78.26,147.36L78.36,147.36L78.92,102.43L79.06,197.57L79.14,147.36L79.23,163.22L79.4,118.29L79.9,152.64L79.92,152.64L80.07,179.07L80.1,120.93L80.65,152.64L80.73,131.5L80.95,184.35L80.95,115.65L81.29,165.86L81.31,120.93L81.32,94.51L81.74,171.14L82.06,144.71L82.11,136.79L82.39,176.43L82.79,118.28L82.79,118.28L82.83,118.28L83.05,181.72L83.12,105.06L83.58,155.29L83.6,144.71L83.84,200.23L83.85,78.62L84.32,181.72L84.36,181.72L84.59,49.55L84.62,245.17L85.16,144.71L85.17,155.29L85.69,194.94L85.79,94.49L85.89,165.86L85.95,142.07L86.02,112.99L86.49,205.51L86.65,134.14L86.72,155.29L87.27,105.05L87.34,208.16L87.43,120.92L87.45,168.5L87.63,91.84L87.84,200.23L88.21,134.14L88.23,134.14L88.45,200.23L88.55,91.84L88.99,157.93L89,160.58L89.03,168.51L89.05,110.34L89.05,189.66L89.05,192.3L89.55,102.4L89.8,144.71L89.83,157.93L90.03,187.01L90.53,105.04L90.58,165.87L90.59,144.71L90.88,184.36L91.08,102.42L91.34,160.58L91.35,134.14L91.35,184.37L91.36,115.63L92.08,147.36L92.12,152.64L92.43,171.15L92.71,126.21L92.79,163.22L93.04,105.06L93.07,184.37L93.36,126.21L93.4,160.58L93.46,163.22L93.47,142.07L93.47,128.85L93.73,189.66L93.93,115.64L94.21,157.93L94.27,128.85L94.4,123.56L94.52,165.86L94.68,131.49L94.68,126.21L94.88,112.99L94.88,213.43L95.41,155.29L95.44,160.57L95.48,205.5L95.81,105.06L96.18,171.15L96.2,160.57L96.25,115.63L96.37,173.79L96.95,134.14L96.97,144.71L97.1,126.21L97.28,173.79L97.73,157.93L97.77,157.93L97.99,105.06L97.99,194.94L98.37,152.64L98.38,147.36L98.49,173.79L98.7,120.92L99.12,152.64L99.17,152.64L99.57,123.57L99.7,192.29L99.92,152.64L99.93,152.64L100.08,120.92L100.09,179.08L100.66,144.71L100.73,155.29L100.81,123.56L100.84,176.44L101.36,144.71L101.39,157.93L101.8,216.09L101.8,83.91L101.96,200.23L101.98,99.77L102,202.87L102.69,168.5L102.75,163.21L103.32,173.79L103.4,126.21L103.51,144.71L103.53,152.64L103.69,123.57L103.78,176.43L104.23,139.43L104.24,160.57L104.48,102.43L104.55,194.93L104.97,160.57L104.97,173.78L105.09,200.21L105.48,118.29L105.72,120.93L105.75,128.86L105.86,181.71L106.35,113.01L106.48,115.65L106.52,147.36L106.8,179.06L106.85,120.94L107.08,160.57L107.08,181.71L107.53,131.5L107.7,187L107.83,142.07L107.86,142.07L108.46,192.29L108.51,107.71L108.61,113.01L108.67,160.57L109.2,184.35L109.2,115.65L109.42,147.36L109.43,157.93L109.43,181.71L110.18,107.72L110.22,126.22L110.91,176.43L110.92,123.57L110.96,144.71L111.02,136.79L111.55,176.43L111.61,131.5L111.77,147.36L111.79,131.5L111.95,131.5L111.96,152.64L112.62,176.43L112.63,123.57L112.71,168.5L112.73,152.64L112.75,115.64L112.91,181.72L113.41,136.78L113.48,152.64L113.53,126.21L113.91,176.43L114.2,155.29L114.22,168.5L114.71,205.51L114.94,105.07L114.99,105.07L115.11,202.86L115.77,152.64L115.8,152.64L116.39,102.42L116.47,184.36L116.55,157.93L116.56,157.93L116.66,110.35L116.86,184.36L117.29,160.57L117.33,157.93L117.63,176.43L118.06,105.05L118.12,173.8L118.13,91.83L118.86,179.07L118.87,120.93L118.92,155.29L119.04,110.35L119.06,189.65L119.54,157.93L119.54,173.79L119.57,115.63L119.97,181.73L120.26,142.07L120.3,163.22L120.75,179.09L121.01,110.33L121.07,176.44L121.38,57.45L121.39,245.19L121.7,155.29L121.84,155.29L122.51,171.16L122.53,128.84L122.6,128.85L122.64,139.42L122.64,118.27L122.7,184.37L123.37,142.07L123.41,147.36L123.76,120.91L123.85,181.73L124.14,163.22L124.21,157.93L124.84,181.73L124.87,118.27L124.9,123.56L125,176.44L125.38,107.69L125.63,184.37L125.75,136.78L125.77,136.78L125.93,181.73L126.43,120.91L126.53,152.64L126.53,120.91L127.19,173.8L127.23,115.62L127.3,163.22L127.31,136.78L127.51,123.56L128.04,187.02L128.04,187.02L128.11,165.87L128.6,115.62L128.85,155.29L128.91,144.71L129.19,187.02L129.21,112.98L129.62,173.8L129.65,126.2L129.89,181.74L130.02,99.75L130.4,144.71L130.42,144.71L130.87,179.09L130.88,120.91L131.15,157.93L131.21,168.51L131.21,179.09L131.4,126.2L131.95,168.51L131.98,155.29L132.46,134.13L132.46,165.87L132.51,160.58L132.51,176.45L132.63,102.39L133.08,189.67L133.27,163.22L133.29,155.29L133.64,118.26L133.92,205.54L134.02,155.29L134.08,157.93L134.47,118.26L134.6,187.03L134.83,139.42L134.84,139.42L135.11,131.48L135.29,197.61L135.6,155.29L135.61,144.71L136.1,187.04L136.1,112.96L136.36,160.58L136.39,152.65L136.59,131.48L136.63,168.52L136.86,139.42L136.86,160.58L137.12,173.81L137.5,110.33L137.61,147.36L137.62,147.36L138.23,97.1L138.34,205.55L138.36,155.29L138.41,144.71L138.63,94.47L138.7,208.17L139.13,139.42L139.14,160.58L139.39,181.73L139.66,97.1L139.87,123.55L139.89,155.29L140.23,115.61L140.32,176.45L140.61,123.55L140.63,176.45L141.07,184.39L141.15,115.61L141.37,152.64L141.41,189.67L141.95,91.82L142.14,131.48L142.21,128.84L142.98,179.09L142.98,179.09L143.01,157.94L143.34,202.9L143.57,94.44L143.72,142.06L143.78,152.64L144.04,218.77L144.18,89.17L144.52,144.71L144.57,147.35L144.78,126.2L144.78,173.8L145.29,147.36L145.34,152.64L145.59,120.9L145.82,184.38L146.06,179.1L146.1,147.35L146.46,173.81L146.65,134.13L146.83,165.87L146.86,134.13L146.86,120.91L147.31,173.8L147.6,128.84L147.69,142.06L148.08,118.26L148.14,184.39L148.44,157.94L148.46,142.06L148.7,202.91L148.94,118.26L149.19,165.87L149.25,136.77L149.34,120.9L149.81,184.39L149.99,160.58L150.04,136.77L150.11,194.97L150.12,105.03L150.79,187.03L150.8,187.03L150.83,192.32L150.94,118.26L151.55,157.93L151.56,142.07L151.94,107.68L151.96,192.32L152.28,184.39L152.31,112.96L152.83,194.97L153.05,126.19L153.07,120.9L153.55,176.45L153.81,173.81L153.82,107.68L154.14,202.91L154.56,120.9L154.64,179.1L155.36,102.38L155.42,142.06L155.47,189.68L155.68,91.81L155.68,208.19L156.22,165.87L156.28,157.94L156.43,126.19L156.65,176.45L157.01,173.81L157.05,152.65L157.22,142.06L157.33,181.75L157.39,144.71L157.39,139.42L157.47,194.98L157.78,120.9L158.14,157.94L158.24,147.35L158.74,120.9L158.77,176.45L158.86,168.52L158.86,123.55L159.05,112.96L159.39,187.04L159.61,163.23L159.64,136.77L159.66,173.81L160.06,110.32L160.28,144.71L160.31,131.48L160.54,107.67L160.55,171.16L161.07,160.58L161.09,147.35L161.66,208.19L161.83,99.74L161.85,200.26L162.13,102.39L162.59,152.65L162.64,147.35L163.01,123.55L163.35,163.22L163.43,165.87L163.45,112.97L163.49,187.03L164.17,173.8L164.22,165.87L164.66,123.54L164.88,234.66L164.98,144.71L164.98,155.29L165.2,187.04L165.58,120.9L165.68,165.87L166.07,168.52L166.42,120.9L166.45,147.35L166.48,192.33L167.16,126.19L167.2,173.81L167.21,152.65L167.65,187.03L167.66,112.97L167.83,126.19L167.88,176.46L168.32,179.1L168.57,123.55L168.64,165.87L168.91,115.61L168.92,184.39L169.32,128.84L169.38,171.16L169.55,120.9L169.62,176.45L170.13,155.29L170.21,163.23L170.29,107.68L170.32,192.32L170.95,134.13L170.98,139.42L171.29,112.97L171.36,189.68L171.72,171.16L171.79,152.65L171.94,105.03L171.98,194.97L172.45,171.16L172.56,105.03L172.87,202.91L172.92,194.97L172.95,105.03L173.1,213.49L173.68,147.35L173.71,152.65L173.99,123.54L174.04,179.11L174.44,131.48L174.48,171.16L174.86,285L175.07,102.37L175.21,115.6L175.24,184.4L175.24,97.08L175.24,210.86L175.93,157.94L176.02,157.94L176.29,134.13L176.43,187.04L176.48,147.35L176.49,112.96L176.49,97.09L176.69,210.85L177.23,134.13L177.28,144.71L177.49,115.61L177.54,197.62L177.81,157.94L177.85,136.77L178.06,118.25L178.55,179.1L178.58,155.29L178.63,155.29L178.85,181.74L179.1,105.03L179.3,136.78L179.3,123.55L179.35,110.33L179.56,213.46L180.04,139.42L180.1,144.71L180.28,208.19L180.44,112.98L180.79,147.36L180.86,152.64L181.03,118.26L181.17,189.67L181.59,163.22L181.64,136.78L181.68,118.27L182.33,192.31L182.4,168.51L182.42,179.09L183.02,123.56L183.12,152.64L183.15,147.36L183.45,184.38L183.5,110.34L183.86,134.14L183.9,165.86L183.96,181.73L184.44,94.46L184.6,144.71L184.68,155.29L185.12,179.09L185.12,120.91L185.42,142.07L185.43,152.64L185.93,181.73L185.93,118.27L186.16,160.58L186.24,144.71L186.27,173.8L186.88,105.04L186.98,155.29L187,144.71L187.48,105.04L187.54,202.9L187.75,147.35L187.77,131.48L188.12,105.04L188.49,189.67L188.54,147.36L188.58,144.71L188.94,128.84L189.15,176.45L189.19,123.55L189.46,112.98L189.95,168.51L189.99,123.56L190.41,181.73L190.45,118.27L190.77,165.87L190.79,134.13L191.12,171.16L191.13,128.84L191.53,147.36L191.55,152.64L191.71,120.91L191.71,184.38L192.29,155.29L192.31,144.71L192.66,105.04L192.68,192.32L192.98,171.15L192.98,120.91L192.98,94.46L193.6,168.51L193.73,147.36L193.76,152.64L193.94,136.78L194.05,168.51L194.05,181.73L194.57,131.49L194.79,176.44L194.83,163.22L194.98,112.97L195.12,176.45L195.56,134.13L195.62,144.71L196.18,112.98L196.22,176.44L196.28,123.56L196.38,123.56L196.51,197.6L196.53,102.4L196.69,160.58L196.69,184.38L196.74,197.6L197.12,115.62L197.15,165.86L197.19,107.69L197.19,192.31L197.94,152.64L197.97,144.71L198.22,187.02L198.25,112.98L198.71,147.36L198.76,152.64L198.84,194.95L198.87,105.05L199.49,142.07L199.52,144.71L199.54,197.6L200.18,123.56L200.26,139.42L200.29,157.93L200.75,99.77L200.95,200.23L200.98,144.71L201.08,147.36L201.53,210.81L201.68,94.48L201.81,115.63L201.84,173.79L201.99,181.72L202.47,120.92L202.61,142.07L202.62,147.36L202.78,115.63L202.78,152.64L202.9,97.13L202.9,202.87L203.53,142.07L203.55,157.93L203.67,105.06L203.77,194.94L204.29,136.78L204.31,152.64L204.56,163.22L204.82,126.21L204.86,107.7L204.89,105.06L205.37,179.08L205.61,147.36L205.65,147.36L205.9,97.14L205.95,202.86L206.33,131.49L206.35,134.14L206.96,184.36L206.97,115.64L207.15,165.86L207.18,147.36L207.31,118.27L207.72,208.15L207.91,163.22L207.96,160.57L208.05,168.51L208.08,131.49L208.71,160.57L208.71,163.22L208.78,173.79L208.8,123.56L209.45,157.93L209.52,142.07L209.64,120.93L210,173.79L210.11,165.86L210.2,120.92L210.71,189.65L210.72,110.35L210.92,165.86L210.98,131.5L210.98,181.72L210.99,118.28L211.73,126.21L211.74,173.79L211.87,118.28L212.22,205.49L212.47,157.93L212.54,152.64L212.79,123.57L212.99,189.65L212.99,194.94L213.77,128.85L213.78,152.64L214.22,115.62L214.33,184.38L214.5,136.78L214.54,160.58L214.63,112.98L214.97,181.72L215.29,123.56L215.3,139.43L215.48,176.44L215.58,115.63L216.05,136.78L216.06,163.22L216.27,126.21L216.49,171.14L216.8,152.64L216.83,147.36L217.19,181.72L217.26,118.28L217.55,142.07L217.57,139.43L218.12,120.92L218.14,179.08L218.31,168.51L218.33,131.49L218.47,126.21L218.47,126.21L218.48,173.79L218.56,187.01L218.65,110.34L219.23,142.07L219.26,142.07L219.44,131.5L219.63,173.79L219.74,165.86L219.77,134.14L220.04,179.08L220.05,120.92L220.51,168.51L220.54,123.56L220.66,181.73L221.29,155.29L221.42,160.58L221.5,173.8L221.51,126.2L222.16,144.71L222.25,157.93L222.75,78.61L222.91,176.44L222.98,144.71L223.02,155.29L223.46,99.77L223.47,200.23L223.75,139.43L223.77,157.93L224.31,181.72L224.33,118.28L224.54,147.36L224.56,157.93L224.59,179.08L224.8,102.42L225.11,160.57L225.11,176.44L225.22,139.42L225.26,184.37L225.34,147.36L225.34,142.07L225.58,181.72L225.67,118.28L225.67,107.7L225.79,181.72L226.49,157.93L226.52,123.56L226.52,112.99L227.03,194.94L227.22,112.99L227.28,152.64L227.35,110.35L227.91,187L228.03,118.28L228.05,155.29L228.08,187.01L228.13,70.7L228.75,157.93L228.84,147.36L229.3,179.08L229.46,110.35L229.47,189.65L229.79,91.85L229.88,194.94L230.21,171.15L230.24,171.15L230.56,189.66L230.58,110.34L230.99,163.22L231.02,163.22L231.06,181.72L231.45,112.99L231.76,155.29L231.78,157.93L231.82,187L231.85,113L232.51,134.14L232.56,147.36L232.64,192.29L233.1,118.28L233.28,131.5L233.32,134.14L233.36,173.79L233.95,120.92L234.02,147.36L234.04,152.64L234.52,192.29L234.75,102.42L234.79,136.78L234.8,152.64L234.98,179.08L235.08,115.64L235.46,152.64L235.46,142.07L235.9,165.86L236.01,112.99L236.17,142.07L236.3,155.29L236.82,184.36L237,113L237.05,126.21L237.07,181.71L237.16,189.64L237.19,110.36L237.66,168.49L237.66,113.01L238.28,210.79L238.3,89.21L238.44,152.64L238.45,147.36L238.45,123.57L238.57,171.14L239.2,147.36L239.21,152.64L239.56,181.72L239.63,115.64L239.96,163.22L239.98,142.07L240.27,181.72L240.34,120.92L240.45,176.43L240.5,173.79L241.09,181.71L241.17,110.36L241.27,120.93L241.27,139.43L241.47,216.08L241.75,75.99L241.99,144.71L242.06,155.29L242.49,189.65L242.66,83.92L242.8,152.64L242.82,144.71L243.09,189.66L243.32,123.56L243.53,152.64L243.6,131.5L243.85,189.65L244.21,113L244.33,147.36L244.37,128.85L244.87,208.14L245.03,89.21L245.04,113L245.08,89.21L245.1,192.29L245.81,144.71L245.84,152.64L245.97,168.5L245.99,147.36L246.01,120.93L246.04,107.72L246.68,173.78L246.73,163.21L246.78,136.79L246.84,123.57L247.39,176.43L247.51,136.79L247.57,134.14L248.09,107.72L248.1,179.07L248.32,120.93L248.33,147.36L248.42,118.29L248.87,163.21L249.08,136.79L249.09,163.21L249.38,194.93L249.46,120.93L249.82,168.5L249.87,136.79L250.11,123.57L250.2,181.71L250.26,179.07L250.26,120.93L250.68,102.44L250.77,184.35L251.03,157.93L251.07,134.15L251.79,189.64L251.8,110.36L251.81,110.36L251.83,110.36L252.49,173.79L252.64,136.79L252.71,142.07L252.85,134.15L252.86,168.5L253.42,144.72L253.46,147.36L253.8,168.5L253.9,126.22L254.21,147.36L254.23,139.43L254.42,171.14L254.56,128.86L254.97,160.57L255,139.43L255.28,171.14L255.29,128.86L255.35,168.5L255.35,179.07L255.38,186.99L255.4,113.01L256.08,123.58L256.1,152.64L256.53,184.34L256.79,110.37L256.89,147.36L257.21,197.56L257.46,99.79L257.64,136.79L257.65,152.64L257.79,176.42L257.95,118.29L258.4,155.28L258.43,155.28L258.6,197.55L259.13,97.15L259.18,189.63L259.21,160.57L259.37,210.77L259.48,102.44L259.94,139.43L259.97,189.62L260.23,113.01L260.73,163.21L260.76,139.43L261.11,181.71L261.28,123.58L261.28,123.58L261.29,176.42L261.29,179.06L261.72,128.86L262.04,171.14L262.05,152.64L262.2,118.3L262.23,179.06L262.8,163.21L262.83,136.79L263.11,179.07L263.46,113.01L263.57,142.07L263.65,152.64L263.86,184.35L264.21,120.94L264.38,152.64L264.41,152.64L264.63,184.34L264.86,131.51L265.02,152.64L265.03,165.85L265.03,168.49L265.7,118.3L265.75,165.85L265.8,147.36L265.96,131.51L266.42,171.13L266.43,128.87L266.54,126.23L267.18,208.11L267.18,168.49L267.24,118.3L267.91,194.91L267.92,105.09L268.06,173.77L268.1,120.94L268.59,200.19L268.61,99.81L268.92,163.21L268.93,142.08L268.93,123.59L268.95,176.41L269.66,147.36L269.69,144.72L269.76,118.3L269.77,181.7L270.4,163.21L270.45,160.56L270.5,110.38L270.69,202.83L271.19,147.36L271.29,123.59L271.53,118.3L271.84,186.98L271.98,139.43L272.15,147.36L272.49,113.02L272.5,186.98L272.86,160.56L272.9,139.44L273.09,110.39L273.64,194.89L273.64,179.04L273.68,134.16L274.09,123.59L274.11,192.26L274.34,168.48L274.36,120.95L275,186.97L275.03,113.03L275.08,173.76L275.12,160.56L275.3,131.51L275.34,168.49L275.87,147.36L275.89,139.44L275.91,184.33L276.3,118.31L276.58,152.64L276.67,147.36L276.85,173.77L277.09,128.87L277.41,134.15L277.44,152.64L278.02,176.42L278.05,123.58L278.18,139.44L278.25,142.08L278.65,123.59L278.69,176.41L279.01,144.72L279.02,142.08L279.28,113.02L279.74,181.69L279.77,155.28L279.79,155.28L279.86,184.33L280.11,113.03L280.54,152.64L280.55,152.64L280.95,192.26L280.96,107.74L281.28,189.62L281.29,142.08L281.41,102.46L281.67,192.26L282.04,168.49L282.09,168.49L282.12,189.62L282.83,113.02L282.83,113.02L282.86,113.02L283.42,171.13L283.61,136.79L283.63,144.72L284.21,189.62L284.24,110.38L284.38,147.36L284.4,147.36L284.95,115.67L285.07,189.62L285.14,165.85L285.17,160.57L285.49,208.12L285.61,91.88L285.96,139.44L285.96,160.56L286.41,99.81L286.47,189.62L286.66,113.02L286.68,186.98L287.07,110.37L287.41,120.94L287.44,171.14L287.62,194.9L287.77,91.89L288.18,126.23L288.2,186.98L288.42,194.91L288.9,110.37L288.97,139.43L289.02,192.27L289.04,107.73L289.72,163.21L289.74,139.43L289.9,181.7L290.13,126.23L290.14,173.77L290.16,120.94L290.88,142.08L290.96,157.92L291.38,168.49L291.71,126.23L291.74,168.49L292.23,176.41L292.25,120.94L292.53,147.36L292.57,152.64L292.66,131.51L292.69,173.77L293.32,157.92L293.34,142.08L293.44,181.7L293.46,118.3L294.06,152.64L294.1,152.64L294.19,120.94L294.39,179.06L294.84,144.72L294.88,136.79L295.39,123.58L295.43,176.42L295.58,136.79L295.58,134.15L295.96,120.94L296.14,210.78L296.3,147.36L296.44,144.72L296.71,194.92L296.74,102.44L297.18,181.7L297.18,147.36L297.45,131.51L297.46,181.7L297.49,118.3L297.53,186.98L298.23,105.08L298.23,107.73L298.29,194.92L298.29,197.56L298.99,115.65L299.04,157.93L299.05,157.93L299.27,192.28L299.52,123.58L299.64,155.28L299.73,144.72L299.77,123.58L300.09,194.92L300.43,179.06L300.46,120.94L301.08,202.84L301.12,97.16L301.21,189.63L301.25,144.72L301.58,115.66L301.84,192.27L301.93,160.57L302.02,147.36L302.05,94.52L302.06,205.48L302.76,139.43L302.78,134.15L302.93,120.93L302.94,176.42L303.51,134.14L303.58,163.21L303.85,179.07L303.88,118.29L304.31,176.42L304.33,176.42L304.74,131.5L305.08,165.85L305.1,126.22L305.1,120.94L305.12,179.06L305.84,136.79L305.87,165.85L306.43,120.93L306.61,160.57L306.65,163.21L306.73,176.42L307.42,105.08L307.42,147.36L307.74,128.86L307.92,173.78L308.14,152.64L308.18,147.36L308.51,110.37L308.77,200.2L308.92,168.49L308.96,173.78L308.97,184.35L309.2,110.38L309.68,165.85L309.7,136.79L309.9,126.22L309.96,179.06L310.16,155.28L310.17,115.65L310.19,218.7L310.3,78.66L310.92,197.56L310.94,157.93L311.04,179.06L311.58,123.57L311.67,142.07L311.7,155.28L311.75,171.14L312.09,136.79L312.43,157.93L312.47,147.36L312.8,181.71L312.82,110.36L313.18,152.64L313.27,142.07L313.6,179.07L313.61,123.58L313.99,147.36L314.06,144.72L314.24,126.22L314.25,176.42L314.79,142.07L314.81,142.07L315.42,181.71L315.43,131.5L315.44,168.5L315.5,181.71L316.18,131.5L316.25,147.36L316.27,147.36L316.31,118.29L316.86,216.07L317,147.36L317.07,147.36L317.07,123.57L317.07,176.43L317.82,157.93L317.84,173.78L317.95,123.57L318.03,218.71L318.57,144.71L318.63,155.29L318.65,128.86L318.66,192.28L319.38,155.28L319.43,152.64L319.56,105.08L319.6,181.71L320.1,147.36L320.1,128.86L320.65,208.14L320.68,91.86L320.85,155.28L320.91,163.21L321.05,194.93L321.17,105.06L321.45,184.36L321.45,192.29L322.01,94.5L322.03,205.5L322.21,173.78L322.25,168.5L322.29,213.43L322.54,120.93L322.79,152.64L322.8,147.36L323.48,99.79L323.5,200.21L323.53,179.07L323.56,179.07L324.18,86.59L324.22,213.41L324.3,176.43L324.33,176.43L324.78,194.92L324.89,105.08L325.12,136.79L325.13,173.78L325.64,184.35L325.68,115.65L325.88,128.86L325.89,171.14L326.26,89.23L326.47,202.85L326.61,168.49L326.67,189.63L326.68,123.57L327.4,152.64L327.48,147.36L327.89,86.59L327.91,223.98L328.22,144.72L328.25,152.64L328.74,105.09L328.85,184.34L328.96,126.23L328.97,184.34L329.59,81.35L329.6,218.65L329.68,171.13L329.75,142.08L329.97,99.83L329.98,200.17L330.47,147.36L330.53,147.36L330.76,205.46L330.76,91.9L331.22,165.85L331.23,134.15L331.6,97.18L331.95,184.33L331.96,115.67L332.07,163.2L332.11,176.41L332.23,118.31L332.82,136.79L332.84,163.21L333.25,189.61L333.57,107.75L333.57,107.75L333.63,200.17L333.74,123.6L334.38,152.64L334.43,157.92L334.96,120.95L335.01,179.05L335.11,144.72L335.11,123.6L335.53,189.6L335.6,105.12L335.82,152.64L335.85,147.36L336.31,202.81L336.36,94.55L336.55,147.36L336.56,113.03L336.56,97.19L336.69,186.97L337.31,171.12L337.32,165.84L337.58,123.6L337.9,186.96L338.03,139.44L338.08,147.36L338.13,94.55L338.39,202.81L338.73,147.36L338.73,176.4L339.12,123.6L339.19,197.53L339.46,144.72L339.57,147.36L339.57,120.96L340.23,163.2L340.31,160.56L340.35,160.56L340.58,213.37L340.7,86.63L341.1,142.08L341.12,142.08L341.28,184.33L341.32,126.23L341.86,168.48L341.91,136.8L342.48,210.72L342.51,86.65L342.68,160.56L342.72,139.44L343.32,205.44L343.38,105.12L343.44,128.88L343.46,99.84L343.94,179.04L344.26,157.92L344.29,157.92L344.58,181.68L344.67,118.32L344.88,152.64L344.88,171.12L345.4,179.04L345.64,120.96L345.66,152.64L346.39,113.04L346.4,202.79L346.4,155.28L346.42,165.84L346.68,171.12L347.12,118.32L347.24,147.36L347.77,136.8L347.84,171.12L347.9,144.72L348.06,152.64L348.28,179.04L348.56,123.59L348.81,157.92L348.83,142.08L349.17,176.4L349.19,123.6L349.47,152.64L349.47,168.48L349.73,118.31L349.96,208.08L350.18,173.76L350.2,155.28L350.71,197.55L350.74,123.58L350.83,136.79L350.85,197.55L351.58,115.67L351.58,115.67L351.67,126.23L351.92,176.41L352,123.59L352.41,163.2L352.46,147.36L352.89,181.69L352.89,131.51L352.92,134.15L352.98,181.69L352.99,118.31L353,197.54L353.72,147.36L353.74,139.44L353.84,171.13L353.93,126.23L354.33,163.2L354.33,136.8L354.44,202.82L354.46,97.18L355.1,186.97L355.11,142.08L355.32,194.9L355.65,102.46L355.87,126.23L355.87,147.36L355.9,113.02L356.36,197.54L356.62,157.92L356.64,155.28L357.08,173.77L357.24,97.18L357.28,205.46L357.75,205.48L358.05,126.22L358.09,173.78L358.57,181.71L358.57,113.01L358.81,155.28L358.86,152.64L359.4,165.85L359.42,128.86L359.45,128.87L359.46,171.13L360.01,118.3L360.05,186.99L360.21,165.85L360.22,176.42L360.4,179.06L360.84,107.73L360.96,176.42L360.96,189.63L361.45,197.56L361.53,102.44L361.62,176.42L361.64,176.42L362.24,97.14L362.31,197.57L362.39,131.5L362.39,181.71L362.39,218.72L362.69,89.21L363.1,126.22L363.17,152.64L363.82,176.42L363.84,120.93L363.84,123.58L363.88,179.07L364.28,105.08L364.54,194.92L364.63,131.5L364.64,168.5L365.14,184.36L365.24,99.78L365.39,165.86L365.42,147.36L366.04,110.36L366.06,189.64L366.14,165.85L366.17,134.15L366.55,123.58L366.88,184.36L366.96,147.36L367.07,173.79L367.37,115.65L367.61,160.57L367.61,163.21L367.76,118.29L368,181.71L368.35,134.14L368.39,152.64L368.44,173.78L368.94,126.21L369.13,139.43L369.14,160.57L369.3,181.72L369.88,115.64L369.89,144.71L369.9,155.29L370.03,115.64L370.19,187L370.57,165.86L370.58,179.07L370.98,134.14L371,152.64L371.01,165.86L371.54,197.58L371.75,102.42L371.76,134.14L371.79,155.29L372.09,194.94L372.17,126.21L372.53,155.29L372.55,152.64L372.62,173.79L372.82,120.93L373.22,160.57L373.24,139.43L373.29,120.93L373.33,179.07L374,163.21L374.03,171.14L374.18,181.72L374.26,115.64L374.72,139.43L374.77,155.29L375.09,118.28L375.13,181.72L375.48,155.29L375.5,134.14L375.74,176.43L375.77,107.71L376.19,115.64L376.2,184.36L376.25,94.5L376.58,224L376.95,155.29L376.98,160.57L377.56,181.71L377.71,115.64L377.73,179.07L377.86,126.21L377.87,184.36L378.38,181.72L378.41,118.28L378.83,197.57L378.86,110.36L379.13,157.93L379.17,160.57L379.47,123.57L379.49,176.43L379.92,163.21L379.93,163.21L380.59,110.36L380.6,189.64L380.68,126.21L380.69,202.85L381.47,120.93L381.47,181.71L381.68,94.51L381.71,205.49L382.22,144.71L382.29,184.36L382.32,115.64L383.04,147.36L383.07,160.57L383.58,176.42L383.64,107.73L383.75,160.57L383.85,152.64L384.34,113.01L384.35,186.99L384.56,168.5L384.57,168.5L384.87,97.15L384.93,202.85L385.33,126.22L385.34,126.22L385.99,115.65L386.15,184.35L386.15,184.35L386.22,152.64L386.56,168.5L386.62,128.86L386.81,152.64L386.82,165.85L387.44,113L387.47,187L387.56,171.14L387.57,136.79L387.88,102.44L388.12,197.57L388.32,176.43L388.37,142.07L388.39,179.07L388.43,126.22L389.1,136.79L389.17,163.21L389.49,179.07L389.61,102.44L389.93,142.07L389.94,157.93L390.16,123.58L390.36,184.34L390.69,131.51L390.7,142.08L391.15,186.99L391.26,107.73L391.44,152.64L391.47,147.36L391.59,176.42L391.71,123.58L392.14,168.49L392.24,168.49L392.49,186.99L392.58,89.23L392.99,144.71L393.02,155.29L393.32,181.71L393.35,118.29L393.72,144.71L393.75,179.07L394.26,197.56L394.32,99.8L394.48,144.72L394.54,155.28L394.83,192.28L394.95,107.72L395.26,134.15L395.31,144.72L395.38,176.42L395.73,134.14L395.86,147.36L395.88,134.14L396.39,118.29L396.43,181.71L396.63,147.36L396.66,152.64L396.9,126.22L397.04,181.71L397.31,157.93L397.31,163.21L397.78,197.56L397.94,113.01L398.05,147.36L398.07,147.36L398.18,126.22L398.38,176.42L398.82,165.85L398.86,163.21L398.9,171.14L399,131.5" style="vector-effect: non-scaling-stroke; fill: none; stroke: rgb(239, 85, 59); stroke-opacity: 1; stroke-width: 2px; opacity: 1;"/></g><g class="points"/><g class="text"/></g><g class="trace scatter trace90edfd" style="stroke-miterlimit: 2; opacity: 1;"><g class="fills"/><g class="errorbars"/><g class="lines"><path class="js-line" d="M0,89.2L0.84,147.36L0.84,134.14L1.02,147.36L1.3,107.7L1.58,147.36L1.59,128.85L1.96,112.99L2.1,147.36L2.19,115.64L2.19,112.99L2.22,147.36L2.49,105.05L2.94,128.85L3.06,144.71L3.06,147.36L3.22,126.21L3.74,134.14L3.84,134.14L3.91,128.85L4.06,147.36L4.58,142.07L4.63,139.43L4.71,147.36L4.94,120.92L5.38,142.07L5.41,142.07L5.54,147.36L6.09,115.63L6.16,144.71L6.17,144.71L6.46,131.49L6.59,147.36L6.64,134.14L6.65,126.21L6.7,110.34L7.32,147.36L7.42,131.49L7.42,126.21L7.77,118.27L7.79,147.36L8.17,144.71L8.18,144.71L8.22,147.36L8.91,118.28L8.91,118.28L8.94,131.5L9.26,147.36L9.27,110.34L9.27,123.56L9.29,110.34L9.56,99.77L9.98,147.36L10.08,144.71L10.14,147.36L10.48,136.78L10.48,112.99L11.1,147.36L11.25,144.71L11.33,144.71L11.79,128.85L11.99,147.36L11.99,134.14L11.99,123.57L12.5,120.93L12.73,147.36L12.74,120.93L12.76,147.36L12.93,115.64L13.49,128.85L13.53,123.57L13.68,120.93L14.18,147.36L14.29,126.21L14.33,131.5L14.38,147.36L14.84,110.35L15.04,142.07L15.1,147.36L15.33,115.64L15.87,142.07L15.88,144.71L16,147.36L16.63,110.35L16.75,110.35L16.78,105.06L16.93,147.36L17.49,131.5L17.54,139.43L17.61,147.36L17.74,123.57L18.26,136.78L18.3,142.07L18.57,147.36L18.92,118.28L19.06,123.56L19.12,147.36L19.51,107.7L19.87,139.42L19.9,147.36L20.25,128.85L20.64,142.07L20.7,147.36L20.83,118.28L21.46,139.42L21.5,139.42L21.57,126.2L22.3,147.36L22.37,144.71L22.44,147.36L22.46,136.78L22.46,136.78L22.47,107.7L23.26,147.36L23.28,144.71L23.82,128.85L23.89,147.36L23.89,126.2L23.89,123.56L23.9,147.36L24.57,144.71L24.65,134.14L24.81,105.06L25.12,147.36L25.39,110.34L25.43,131.49L25.68,112.98L26.08,147.36L26.12,136.78L26.16,131.49L26.18,75.96L26.45,147.36L26.9,142.07L26.91,136.78L27.37,147.36L27.37,123.56L27.65,144.71L27.71,144.71L27.86,147.36L28.32,107.68L28.46,144.71L28.49,139.42L28.54,147.36L28.89,126.2L29.13,139.42L29.31,142.07L29.69,120.91L29.72,147.36L29.99,136.77L30.05,131.49L30.11,144.71L30.52,118.26L30.53,144.71L30.81,120.91L31.14,147.36L31.18,136.78L31.18,134.13L31.18,147.36L31.28,115.62L31.92,126.2L31.94,126.2L31.95,94.48L32,147.36L32.64,107.69L32.7,107.69L33.46,147.36L33.5,144.71L33.69,134.13L33.72,147.36L33.72,131.49L33.82,147.36L34.47,107.69L34.47,112.98L34.48,107.69L34.48,102.4L34.61,147.36L35.21,136.78L35.25,139.43L35.33,115.63L35.59,147.36L35.93,134.14L35.95,147.36L35.95,120.92L36.7,136.78L36.73,136.78L36.82,147.36L36.83,120.92L37.43,131.49L37.48,144.71L37.57,147.36L37.87,115.63L38.22,147.36L38.25,147.36L38.87,107.7L39,131.49L39.02,139.42L39.12,147.36L39.29,115.63L39.7,147.36L39.76,147.36L39.97,120.91L40.51,144.71L40.56,144.71L40.78,126.2L41.17,147.36L41.21,131.49L41.21,128.84L41.36,147.36L41.96,107.7L41.97,107.7L41.97,102.41L42,147.36L42.68,131.5L42.79,139.43L42.92,115.64L43.03,147.36L43.2,128.85L43.26,128.85L43.53,147.36L43.64,102.43L43.98,136.78L44.04,136.78L44.35,147.36L44.52,94.51L44.68,126.22L44.68,118.29L45.17,97.14L45.39,147.36L45.44,142.07L45.44,105.07L45.57,52.22L45.92,147.36L46.28,144.71L46.31,144.71L46.35,147.36L46.83,83.93L47.04,136.79L47.11,134.15L47.43,105.08L47.44,147.36L47.86,142.07L47.87,142.07L47.89,147.36L48.07,139.43L48.61,142.07L48.63,142.07L48.73,123.57L49.35,147.36L49.35,139.43L49.41,134.14L49.46,147.36L49.77,94.49L50.16,147.36L50.19,123.57L50.34,120.93L50.94,147.36L50.94,131.5L50.99,134.14L50.99,113L50.99,147.36L51.73,144.71L51.78,144.71L52.07,147.36L52.15,110.34L52.53,139.43L52.55,115.63L52.83,107.71L53.32,147.36L53.32,147.36L53.36,147.36L54.06,115.63L54.06,126.21L54.12,144.71L54.14,147.36L54.17,118.28L54.87,136.79L54.88,147.36L55.26,123.57L55.63,144.71L55.68,147.36L56.08,126.21L56.42,136.78L56.44,136.78L56.98,118.28L57.15,147.36L57.15,139.43L57.18,128.85L57.53,147.36L57.83,99.78L57.92,147.36L57.94,147.36L58.16,123.57L58.73,128.86L58.73,147.36L59.33,110.35L59.45,142.07L59.5,136.78L59.62,147.36L59.79,99.77L60.11,147.36L60.12,147.36L60.14,118.28L60.85,136.78L60.91,147.36L61.66,123.57L61.68,126.21L61.68,144.71L61.76,147.36L61.89,120.92L62.42,147.36L62.44,147.36L63.18,97.13L63.2,144.71L63.31,147.36L63.51,110.35L63.9,134.14L63.97,136.78L64.19,147.36L64.42,105.07L64.54,139.43L64.54,147.36L64.95,89.21L65.37,118.28L65.42,144.71L65.58,147.36L65.92,99.78L66.14,136.78L66.17,136.78L66.46,86.56L66.87,147.36L66.94,144.71L66.94,139.43L67.08,147.36L67.67,110.36L67.73,97.15L67.86,147.36L68.5,126.22L68.53,126.22L68.93,110.36L69.19,147.36L69.26,136.78L69.29,136.78L69.33,147.36L69.94,107.71L70.02,115.64L70.03,147.36L70.73,78.65L70.73,94.5L70.8,136.79L70.8,89.22L71.09,147.36L71.5,144.71L71.59,147.36L71.97,115.65L72.31,131.5L72.37,131.5L72.86,102.41L73.11,147.36L73.11,147.36L73.17,144.71L73.18,118.28L73.19,147.36L73.79,118.29L73.83,144.71L74.16,107.71L74.24,147.36L74.58,134.14L74.61,134.14L74.66,147.36L74.67,118.29L75.36,144.71L75.38,139.43L75.61,115.64L75.65,144.71L75.71,147.36L76.2,97.13L76.32,113L76.37,139.43L76.51,147.36L76.69,107.72L77.12,128.86L77.14,136.78L77.24,147.36L77.42,105.07L77.76,120.93L77.77,147.36L77.89,118.29L78.26,147.36L78.36,147.36L79.06,102.43L79.14,147.36L79.41,118.29L79.8,139.43L79.82,147.36L80.44,120.93L80.59,131.5L80.6,147.36L81.32,94.51L81.41,147.36L81.77,128.86L81.77,123.57L81.8,120.93L81.92,147.36L82.27,142.07L82.31,142.07L82.42,123.57L82.43,147.36L82.59,131.5L82.64,147.36L83.12,105.06L83.33,134.14L83.33,147.36L83.85,78.62L84.06,136.79L84.13,136.79L84.41,147.36L84.59,49.55L84.87,144.71L84.94,144.71L85.01,147.36L85.18,120.92L85.18,112.99L85.79,94.49L85.82,147.36L85.89,134.14L85.95,142.07L86.04,147.36L86.49,94.49L86.65,134.14L86.72,144.71L86.82,147.36L87.34,91.84L87.46,147.36L87.47,147.36L87.63,91.84L88.21,134.14L88.23,134.14L88.55,91.84L88.78,147.36L88.99,142.07L89,139.42L89.12,147.36L89.15,107.7L89.29,123.56L89.36,147.36L89.55,102.4L89.83,142.07L89.83,144.71L89.86,147.36L90.53,105.04L90.58,134.13L90.59,144.71L91.08,102.42L91.11,147.36L91.34,139.42L91.35,134.14L91.35,115.63L91.56,147.36L92.08,147.36L92.12,147.36L92.83,126.21L92.93,139.42L93.04,105.06L93.25,147.36L93.67,136.78L93.7,136.78L93.73,110.34L93.73,147.36L94.27,128.85L94.38,136.78L94.61,147.36L94.88,86.57L95.11,123.56L95.12,147.36L95.51,94.5L95.71,136.78L95.79,147.36L95.81,105.06L96.48,144.71L96.55,147.36L97.1,126.21L97.3,139.43L97.32,142.07L97.88,147.36L97.96,112.99L97.96,110.35L97.99,105.06L98.02,147.36L98.29,134.14L98.34,147.36L98.72,120.92L99.03,147.36L99.09,147.36L99.7,107.71L99.76,110.35L99.82,142.07L100.08,120.92L100.46,147.36L100.54,142.07L100.58,142.07L100.77,147.36L100.84,123.56L101.29,131.49L101.34,144.71L101.45,147.36L101.57,123.56L101.63,139.43L101.64,99.77L101.8,83.91L102.39,147.36L102.39,144.71L102.42,144.71L102.58,97.14L102.69,147.36L102.94,144.71L102.96,147.36L103.67,123.57L103.71,147.36L103.73,147.36L104.48,102.43L104.55,105.07L104.59,142.07L104.64,147.36L105.09,99.79L105.31,142.07L105.4,120.93L105.4,102.43L105.44,147.36L106.12,142.07L106.16,142.07L106.23,147.36L106.35,113.01L106.9,136.79L106.95,147.36L107.08,115.65L107.64,128.86L107.67,144.71L107.7,113L107.77,147.36L108.41,123.58L108.46,131.5L108.46,107.71L108.88,147.36L109.2,115.65L109.26,147.36L109.34,118.29L109.98,134.15L110.04,144.72L110.18,107.72L110.36,147.36L110.4,134.15L110.43,147.36L110.92,123.57L111.08,136.79L111.13,144.71L111.24,147.36L111.55,128.86L111.55,123.57L112.23,147.36L112.27,139.43L112.38,142.07L112.73,147.36L112.75,115.64L112.91,123.57L112.91,118.28L113.7,147.36L113.79,144.71L113.83,144.71L113.92,147.36L114.37,110.34L114.58,139.43L114.6,142.07L114.71,115.64L114.71,94.49L115.46,147.36L115.54,144.71L115.55,144.71L115.82,147.36L115.92,139.43L115.93,139.43L115.96,120.92L116.39,102.42L116.54,147.36L116.66,144.71L116.71,110.35L117.28,147.36L117.47,144.71L117.5,144.71L117.56,147.36L118.13,91.83L118.25,142.07L118.43,147.36L118.66,115.64L118.97,139.43L118.98,147.36L119.06,110.35L119.69,147.36L119.74,136.78L120.38,112.98L120.51,147.36L120.51,147.36L120.53,147.36L121.19,60.09L121.28,136.78L121.34,136.78L121.38,134.14L121.38,75.96L121.39,54.81L121.59,147.36L122.1,147.36L122.16,147.36L122.43,147.36L122.43,147.36L122.43,128.84L122.7,115.63L123.2,147.36L123.21,147.36L123.85,118.27L123.96,144.71L124.02,136.78L124.09,147.36L124.7,118.27L124.75,136.78L124.78,142.07L124.86,147.36L125.38,107.69L125.52,136.78L125.56,131.49L125.63,115.63L126.33,147.36L126.35,144.71L126.36,134.13L126.43,120.91L126.43,147.36L127.09,131.49L127.12,147.36L127.23,115.62L127.72,147.36L127.78,147.36L128.04,112.98L128.51,147.36L128.53,147.36L129.21,112.98L129.33,120.91L129.38,139.42L129.86,147.36L129.89,118.26L129.91,118.26L130.02,99.75L130.78,147.36L130.79,147.36L131.21,120.91L131.53,144.71L131.55,147.36L131.95,131.49L132.3,147.36L132.31,147.36L132.63,102.39L133.06,110.33L133.08,110.33L133.53,147.36L133.83,142.06L133.87,142.06L133.92,94.46L133.93,147.36L134.62,136.78L134.66,128.84L135.24,147.36L135.29,102.39L135.41,136.77L135.42,142.06L135.7,128.84L135.91,147.36L136.06,128.84L136.08,128.84L136.11,112.96L136.19,147.35L136.81,144.71L136.83,139.42L137.22,147.36L137.5,110.33L137.56,147.36L137.59,147.36L138.23,97.1L138.32,147.36L138.33,147.36L138.7,91.83L139.07,147.36L139.1,147.36L139.66,97.1L139.87,123.55L139.89,144.71L139.94,147.36L140.23,115.61L140.54,136.77L140.58,136.77L140.72,147.35L141.17,115.61L141.31,136.77L141.34,147.36L141.95,91.82L142.04,118.26L142.05,147.35L142.35,126.2L142.35,147.36L142.79,147.36L142.8,147.36L143.34,97.1L143.55,136.77L143.56,142.06L143.78,147.36L144.04,81.23L144.3,134.13L144.34,126.19L145,147.36L145.13,144.71L145.15,144.71L145.21,142.06L145.54,147.36L145.55,128.84L145.77,147.36L145.82,115.62L146.22,144.71L146.33,136.77L146.86,120.91L147.09,147.36L147.09,142.07L147.17,147.36L147.78,123.55L147.8,144.71L147.84,147.36L148.3,115.61L148.56,128.84L148.62,147.35L148.7,97.09L148.75,147.36L149.34,120.9L149.42,128.84L149.63,147.35L150.11,105.03L150.14,136.77L150.2,142.06L150.49,147.36L150.59,105.05L150.83,110.32L150.83,107.68L151.62,147.36L151.62,147.36L151.64,147.36L151.8,144.71L151.8,144.71L151.8,128.84L151.94,107.68L152.11,147.36L152.54,144.71L152.54,126.19L152.83,105.03L153.22,147.36L153.3,144.71L153.36,142.06L153.69,147.36L154.14,97.09L154.16,107.67L154.2,142.06L154.45,147.36L154.64,120.9L154.89,144.71L154.92,144.71L155.23,147.35L155.31,131.48L155.34,131.48L155.36,102.38L155.68,91.81L156.02,147.35L156.08,128.83L156.22,134.13L156.65,123.55L156.93,147.35L156.97,142.06L156.97,128.84L157.05,147.35L157.47,105.02L157.72,147.35L157.73,142.06L157.78,120.9L158.41,147.35L158.41,136.77L158.41,134.13L158.46,147.35L159.05,112.96L159.18,120.9L159.19,144.71L159.22,147.35L159.41,112.96L159.91,147.35L159.94,147.35L160.06,110.32L160.31,131.48L160.32,144.71L160.54,107.67L160.68,147.35L160.7,142.06L160.76,147.35L161.35,110.32L161.42,147.36L161.44,136.78L161.51,147.35L161.66,91.81L162.24,142.06L162.31,123.55L162.83,147.35L163.04,144.71L163.09,147.36L163.49,112.97L163.79,142.07L163.85,147.36L164.56,91.8L164.59,123.54L164.61,147.35L164.88,65.34L165.36,142.06L165.37,144.71L165.48,147.35L165.58,120.9L166.11,139.42L166.15,139.42L166.19,147.35L166.48,107.67L166.85,136.77L166.86,142.06L167.16,126.19L167.28,147.35L167.46,142.06L167.46,128.84L167.65,112.97L167.71,147.35L168.27,142.06L168.29,142.06L168.34,147.35L168.91,115.61L169.04,144.71L169.07,147.35L169.55,120.9L169.74,136.77L169.77,147.35L170.34,107.68L170.53,128.84L170.55,147.35L171.01,147.36L171.29,112.97L171.33,131.48L171.6,147.35L172.07,105.03L172.12,128.84L172.8,147.36L172.87,97.09L172.92,105.03L173.1,86.51L173.1,147.35L173.55,139.42L173.59,139.42L173.99,147.35L173.99,126.18L173.99,123.54L174.48,105.03L174.67,147.35L174.72,120.89L174.76,120.89L174.9,15L175.3,147.35L175.48,147.35L175.5,142.06L175.84,115.61L175.86,147.35L176.22,142.06L176.26,142.06L176.46,147.35L176.69,89.15L176.98,134.13L177.06,139.42L177.15,147.35L177.54,102.38L177.77,136.77L177.81,142.06L177.94,147.35L178.07,118.25L178.58,118.26L178.58,144.71L178.88,147.35L179.1,105.03L179.3,123.55L179.32,147.36L179.56,86.54L180.04,139.42L180.1,144.71L180.28,91.81L180.44,147.36L180.79,147.36L180.86,147.36L181.17,110.33L181.59,136.78L181.64,136.78L181.64,147.36L182.33,107.69L182.4,131.49L182.42,120.91L182.65,147.36L183.12,147.36L183.15,147.36L183.5,110.34L183.91,134.14L183.92,144.71L183.93,147.36L184.44,94.46L184.6,144.71L184.68,144.71L185.12,120.91L185.25,147.36L185.38,147.36L185.93,118.27L186.11,139.42L186.16,139.42L186.32,123.55L186.78,147.36L186.81,134.13L186.83,131.49L186.88,105.04L187.18,147.36L187.48,115.62L187.48,105.04L187.54,97.1L187.9,147.36L188.2,134.13L188.25,112.98L188.35,110.33L189.12,147.36L189.12,142.07L189.15,142.07L189.27,147.36L189.46,112.98L189.9,142.07L189.93,144.71L190.02,147.36L190.41,118.27L190.68,136.78L190.69,136.78L190.74,147.36L191.12,128.84L191.42,139.42L191.46,147.36L191.71,115.62L192.12,126.2L192.21,147.36L192.66,105.04L192.8,144.71L192.84,147.36L192.98,94.46L193.58,136.78L193.6,131.49L193.68,147.36L194.05,118.27L194.35,147.36L194.39,147.36L194.98,112.97L195.16,139.42L195.18,144.71L195.24,123.55L195.79,147.36L195.9,147.36L195.95,144.71L196.06,147.36L196.16,134.13L196.17,134.13L196.18,128.85L196.43,147.36L196.51,102.4L196.93,144.71L196.94,136.78L197.11,144.71L197.19,107.69L197.19,107.69L197.25,147.36L197.33,118.27L197.77,144.71L197.84,144.71L198.19,147.36L198.22,112.98L198.22,136.78L198.25,112.98L198.28,147.36L198.84,105.05L198.99,126.2L199.01,126.2L199.54,102.4L199.67,147.36L199.77,144.71L199.77,134.13L200.18,123.56L200.55,147.36L200.57,144.71L200.57,126.21L200.75,99.77L200.88,147.36L201.31,147.36L201.34,147.36L201.53,89.19L201.55,102.41L201.63,147.36L201.68,94.48L202.32,126.21L202.46,131.49L202.62,147.36L202.9,97.13L203.08,131.49L203.18,147.36L203.77,105.06L203.94,115.63L203.99,120.92L204.76,147.36L204.78,144.71L204.81,142.07L204.9,105.06L205.24,147.36L205.56,134.14L205.57,134.14L205.9,97.14L206.31,147.36L206.31,131.49L206.33,131.49L206.83,147.36L206.91,115.64L206.96,115.64L206.97,115.64L207.47,147.36L207.71,126.21L207.71,107.71L207.72,91.85L208.09,147.36L208.43,139.43L208.45,139.43L208.5,147.36L208.8,123.56L209.2,126.21L209.21,126.21L209.64,120.93L209.67,147.36L209.96,144.71L209.97,142.07L209.97,147.36L210.71,110.35L210.72,110.35L210.73,142.07L210.81,147.36L211.4,118.28L211.47,139.43L211.49,139.43L211.89,147.36L212.22,94.51L212.24,142.07L212.26,147.36L212.99,105.06L213.03,147.36L213.78,128.85L213.85,131.5L213.85,142.07L213.87,147.36L214.6,112.98L214.63,112.98L215.25,147.36L215.35,142.07L215.41,139.43L215.48,147.36L215.58,115.63L216.16,142.07L216.19,147.36L216.47,126.21L216.93,144.71L216.96,144.71L217.26,118.28L217.6,147.36L217.63,136.78L217.69,147.36L218.14,120.92L218.52,134.14L218.53,147.36L218.65,110.34L219.26,142.07L219.35,147.36L220.05,120.92L220.08,136.78L220.17,131.49L220.19,147.36L220.66,118.27L220.9,126.21L220.9,136.78L221.5,126.2L221.62,147.36L221.65,136.78L221.65,131.49L222.11,147.36L222.35,120.91L222.39,120.91L222.56,147.36L222.75,78.61L223.11,118.27L223.12,126.21L223.17,147.36L223.47,99.77L223.84,136.78L223.87,136.78L223.94,147.36L224.33,118.28L224.54,139.43L224.54,147.36L224.8,102.42L225.26,115.63L225.28,139.42L225.5,147.36L225.57,118.28L225.67,118.28L225.67,107.7L225.73,147.36L226.43,136.78L226.49,142.07L226.59,147.36L227.03,105.06L227.17,123.57L227.22,147.36L227.35,110.35L227.96,123.57L227.99,123.57L228.08,147.36L228.13,70.7L228.74,144.71L228.75,142.07L228.87,147.36L229.08,118.28L229.1,128.85L229.11,118.28L229.22,147.36L229.79,91.85L229.8,91.85L229.88,105.06L230.47,147.36L230.66,142.07L230.67,123.57L230.8,126.21L230.82,144.71L230.95,147.36L231.45,112.99L231.51,134.14L231.58,144.71L231.79,147.36L231.85,113L232.19,115.64L232.21,144.71L232.4,147.36L232.64,107.71L232.74,126.21L232.79,144.71L233.1,118.28L233.38,147.36L233.49,139.43L233.54,139.43L233.7,147.36L233.95,120.92L234.33,123.57L234.34,142.07L234.52,107.71L234.67,147.36L234.71,115.64L234.71,102.42L234.71,147.36L235.46,142.07L235.47,147.36L236.01,112.99L236.17,142.07L236.3,144.71L236.42,131.5L236.42,147.36L236.49,120.92L236.7,147.36L236.81,142.07L236.82,115.64L236.82,147.36L237.09,110.36L237.57,131.51L237.58,118.29L237.8,102.44L237.83,147.36L238.25,118.28L238.25,147.36L238.28,89.21L238.99,139.43L239.02,139.43L239.07,147.36L239.63,115.64L239.76,147.36L239.79,139.43L239.88,115.64L239.94,147.36L240.52,126.21L240.57,136.78L241.09,118.29L241.16,147.36L241.17,110.36L241.58,147.36L241.75,75.99L241.95,139.43L241.99,147.36L242.66,83.92L242.74,123.57L242.78,142.07L242.79,147.36L243.09,110.34L243.5,134.14L243.53,147.36L243.85,110.35L244.29,144.71L244.33,147.36L245.08,89.21L245.11,131.5L245.11,134.14L245.34,99.79L245.84,147.36L245.88,144.71L245.99,147.36L246.04,107.72L246.63,139.43L246.64,147.36L246.84,123.57L247.28,134.14L247.28,147.36L247.41,123.57L247.96,136.79L247.98,147.36L248.09,107.72L248.6,144.71L248.62,144.71L249.06,147.36L249.09,134.14L249.29,144.71L249.29,134.14L249.34,147.36L249.38,105.07L250.03,147.36L250.05,147.36L250.68,102.44L250.78,147.36L250.81,118.29L250.83,115.65L250.92,147.36L251.33,147.36L251.41,147.36L251.79,110.36L252.1,128.86L252.19,144.71L252.23,147.36L252.6,123.57L252.93,144.72L252.95,144.72L252.99,134.15L253.59,147.36L253.6,144.72L253.6,134.15L253.9,126.22L254.21,147.36L254.34,136.79L254.37,136.79L254.61,128.86L254.64,147.36L255.05,136.79L255.07,147.36L255.29,128.86L255.35,131.5L255.35,120.93L255.38,113.01L255.48,147.36L256.08,123.58L256.1,147.36L256.53,115.66L256.77,123.58L256.78,147.36L257.46,99.79L257.53,142.07L257.54,144.72L257.65,147.36L257.98,118.29L258.2,131.51L258.2,144.72L258.31,147.36L258.62,102.45L258.93,128.86L258.95,147.36L259.37,89.23L259.7,131.51L259.71,131.51L259.97,110.38L260.18,147.36L260.43,120.95L260.47,128.87L260.83,147.36L261.11,118.29L261.14,147.36L261.3,120.94L261.88,144.72L261.9,147.36L262.04,139.43L262.04,128.86L262.2,118.3L262.8,147.36L262.8,147.36L262.8,136.79L262.9,147.36L263.46,113.01L263.54,136.79L263.57,142.07L263.86,115.65L264.18,147.36L264.18,144.72L264.18,128.87L264.22,147.36L264.35,115.66L264.93,134.15L264.94,147.36L265.72,118.3L265.72,147.36L266.43,128.87L266.43,128.87L266.46,147.36L267.18,91.89L267.24,118.3L267.31,142.08L267.37,147.36L267.92,105.09L268.06,126.23L268.1,120.94L268.59,99.81L268.88,147.36L268.89,136.79L268.92,136.79L268.93,123.59L269.66,147.36L269.66,147.36L269.69,144.72L269.69,147.36L269.76,118.3L270.4,136.79L270.45,139.44L270.69,97.17L270.82,147.36L271.19,147.36L271.29,123.59L271.84,113.02L271.87,147.36L271.98,139.43L272.15,147.36L272.49,120.95L272.49,113.02L273.09,110.39L273.2,147.36L273.23,144.72L273.27,118.31L273.44,147.36L273.64,105.11L274.02,136.8L274.04,136.8L274.1,147.36L274.11,107.74L274.78,123.6L274.8,147.36L275.03,113.03L275.56,134.15L275.56,144.72L275.85,147.36L275.91,115.67L276.3,142.08L276.34,147.36L276.45,115.67L277.08,142.08L277.09,144.72L277.2,147.36L277.48,126.23L277.83,147.36L277.85,147.36L278.02,123.58L278.6,147.36L278.61,144.72L278.9,147.36L279.28,113.02L279.34,139.44L279.36,147.36L280.11,113.03L280.17,128.87L280.17,147.36L280.89,123.59L280.91,123.59L280.93,142.08L281,147.36L281.41,102.46L281.67,107.74L281.67,142.08L281.74,147.36L282.12,110.38L282.4,144.72L282.41,144.72L282.5,147.36L282.86,113.02L283.16,136.79L283.25,136.79L283.31,128.87L283.9,147.36L283.97,131.51L284.04,147.36L284.21,110.38L284.79,142.08L284.8,142.08L284.95,147.36L285.49,91.88L285.55,123.58L285.55,147.36L285.61,91.88L286.31,120.94L286.32,147.36L286.41,99.81L287.07,110.37L287.14,142.08L287.23,147.36L287.53,105.09L287.62,105.1L287.71,136.79L287.77,91.89L287.82,147.36L288.45,142.07L288.49,142.07L288.73,147.36L289.02,107.73L289.24,147.36L289.25,128.87L289.63,147.36L289.9,144.72L289.9,118.3L289.93,147.36L290.64,144.72L290.66,147.36L291.39,131.51L291.4,139.43L291.44,147.36L291.71,126.23L292.19,144.72L292.21,144.72L292.21,120.94L292.43,147.36L292.95,147.36L292.99,147.36L293.47,118.3L293.71,131.51L293.79,139.43L293.8,147.36L294.19,120.94L294.51,144.72L294.59,142.07L294.88,136.79L295.11,147.36L295.11,134.15L295.39,123.58L295.84,147.36L295.84,142.07L295.9,136.79L295.94,147.36L296.1,89.22L296.65,136.79L296.66,107.73L296.74,102.44L296.75,147.36L297.14,110.38L297.18,118.3L297.18,147.36L297.33,120.94L297.37,144.72L297.6,147.36L297.69,113.02L297.91,144.72L297.93,144.72L298.04,147.36L298.29,102.44L298.66,126.22L298.69,147.36L298.94,102.45L299.43,131.51L299.45,139.43L299.52,123.58L299.91,147.36L300.08,126.22L300.09,115.65L300.48,147.36L300.78,99.79L300.82,147.36L300.86,147.36L301.15,97.16L301.58,115.66L301.63,147.36L301.78,131.51L301.84,107.73L302.05,94.52L302.43,147.36L302.57,123.58L302.61,123.58L302.75,110.36L302.83,147.36L303.14,134.15L303.19,147.36L303.88,118.29L303.93,147.36L303.97,147.36L304.16,123.58L304.72,136.79L304.73,136.79L305.1,120.94L305.47,147.36L305.47,144.72L305.51,139.43L305.97,128.86L306.28,147.36L306.28,147.36L306.33,123.58L306.43,120.93L307.09,147.36L307.13,144.72L307.16,144.72L307.26,147.36L307.35,105.08L307.91,147.36L307.92,139.43L307.92,147.36L308.51,110.37L308.64,110.37L308.71,128.86L308.77,99.8L308.8,147.36L309.45,134.15L309.49,139.43L309.77,147.36L310.24,81.3L310.26,147.36L310.3,78.66L311.02,126.22L311.04,120.94L311.58,147.36L311.76,144.71L311.84,144.71L312.04,147.36L312.09,136.79L312.55,147.36L312.56,147.36L312.82,110.36L312.98,139.43L313.05,147.36L313.6,120.93L313.8,147.36L313.84,147.36L314.25,123.58L314.56,126.22L314.61,147.36L315.22,123.58L315.31,134.15L315.34,144.72L315.39,147.36L315.5,118.29L316.05,131.5L316.14,147.36L316.31,118.29L316.77,128.86L316.77,147.36L316.86,83.93L317.51,147.36L317.53,147.36L318.03,81.29L318.24,142.07L318.29,142.07L318.37,147.36L318.66,107.72L318.9,139.43L318.95,144.71L319.03,147.36L319.56,105.08L319.69,136.79L319.76,131.5L320,123.57L320.51,147.36L320.51,139.43L320.54,139.43L320.56,147.36L320.68,91.86L321.23,147.36L321.3,147.36L322.01,94.5L322.03,94.5L322.06,142.07L322.09,147.36L322.29,86.57L322.81,131.5L322.83,144.72L323.11,147.36L323.48,99.79L323.57,147.36L323.6,147.36L324.22,86.59L324.35,142.07L324.38,136.79L324.57,147.36L324.65,134.14L324.68,144.72L324.73,107.72L324.78,105.08L324.83,144.72L324.89,105.08L325.27,147.36L325.6,118.29L325.61,118.29L325.74,147.36L325.91,105.08L326,144.71L326.07,147.36L326.26,89.23L326.38,142.07L326.44,142.07L326.47,97.15L326.47,147.36L327.19,136.79L327.2,136.79L327.73,147.36L327.89,86.59L327.91,86.59L327.91,76.02L327.99,147.36L328.66,134.15L328.69,120.94L329.17,89.25L329.3,147.36L329.42,123.59L329.49,144.72L329.59,81.35L329.92,147.36L330.14,139.44L330.19,126.24L330.41,147.36L330.76,91.9L330.93,131.51L330.95,131.51L331.03,99.83L331.54,147.36L331.56,134.16L331.6,97.18L332.39,147.36L332.39,147.36L332.41,147.36L332.51,118.31L333.17,142.08L333.19,144.72L333.41,147.36L333.63,99.83L333.74,115.68L333.83,136.8L333.97,126.23L334.49,147.36L334.59,139.44L334.62,139.44L334.87,147.36L334.96,120.95L335.37,126.24L335.38,142.08L335.6,105.12L335.95,147.36L336.08,131.52L336.08,126.24L336.36,94.55L336.4,147.36L336.79,142.08L336.84,142.08L337.09,102.47L337.26,144.72L337.46,126.24L337.55,142.08L337.9,113.04L338.08,147.36L338.11,136.8L338.13,94.55L338.13,147.36L338.88,131.52L338.94,131.52L339.19,102.47L339.6,147.36L339.69,139.44L339.71,142.08L340.23,147.36L340.35,131.52L340.38,131.52L340.39,131.52L340.58,86.63L341.08,147.36L341.13,131.51L341.14,131.51L341.28,115.67L341.97,147.36L341.97,134.16L342.08,147.36L342.51,86.65L342.72,139.44L342.73,147.36L343.32,94.56L343.46,99.84L343.52,144.72L343.66,147.36L343.94,120.96L344.26,142.08L344.29,142.08L344.58,118.32L344.88,147.36L345,136.8L345.03,136.8L345.11,147.36L345.41,120.96L345.47,128.88L345.5,147.36L346.21,118.33L346.25,128.88L346.31,115.68L346.4,97.21L346.47,147.36L347.03,147.36L347.07,147.36L347.12,118.32L347.82,136.8L347.84,134.16L348.06,147.36L348.28,120.96L348.57,144.72L348.63,147.36L349.19,123.6L349.2,147.36L349.43,134.16L349.47,147.36L349.47,131.52L349.49,147.36L349.96,91.92L350.18,126.24L350.2,144.72L350.27,147.36L350.85,102.45L350.97,134.15L351,147.36L351.57,115.67L351.75,126.23L351.76,126.23L351.92,123.59L352.5,147.36L352.5,147.36L352.53,136.8L352.57,147.36L353,102.46L353.28,128.87L353.31,128.87L353.46,118.31L354.1,147.36L354.11,147.36L354.33,136.8L354.34,147.36L354.35,134.16L354.35,147.36L354.44,97.18L355.1,113.03L355.11,142.08L355.15,147.36L355.65,102.46L355.87,126.23L355.87,147.36L356.36,102.46L356.62,142.08L356.64,144.72L357.08,126.23L357.15,147.36L357.23,134.15L357.24,97.18L357.28,94.54L357.33,144.72L357.59,147.36L357.75,94.52L358.09,126.22L358.13,120.94L358.57,113.01L358.86,147.36L358.93,144.72L359.14,147.36L359.42,128.86L359.46,128.87L359.48,147.36L360.05,113.01L360.22,123.58L360.31,123.58L360.55,147.36L361,107.73L361.04,147.36L361.05,147.36L361.45,102.44L361.8,123.58L361.81,123.58L362.2,147.36L362.24,97.14L362.39,118.29L362.39,81.28L363.17,147.36L363.19,144.71L363.19,131.5L363.74,147.36L363.84,120.93L363.95,142.07L363.95,134.15L363.99,147.36L364.28,105.08L364.68,120.93L364.75,131.5L364.9,147.36L365.24,99.78L365.43,134.14L365.48,147.36L366.06,110.36L366.22,147.36L366.24,144.71L366.33,147.36L366.88,115.64L366.99,147.36L367.03,147.36L367.37,115.65L367.8,123.58L367.82,147.36L368.23,118.29L368.51,134.14L368.51,142.07L368.94,126.21L369.15,147.36L369.22,139.43L369.25,139.43L369.28,147.36L369.88,115.64L369.98,147.36L370.03,115.64L370.19,113L370.78,147.36L370.82,142.07L370.83,136.78L370.92,147.36L371.54,102.42L371.61,134.14L371.68,102.42L372.01,147.36L372.01,107.71L372.09,105.06L372.77,147.36L372.82,120.93L373.62,147.36L373.67,142.07L374.22,147.36L374.24,115.64L374.33,131.5L374.34,118.28L374.95,147.36L375.09,134.14L375.11,118.28L375.77,107.71L375.82,147.36L375.86,142.07L375.88,123.57L376.25,94.5L376.47,147.36L376.58,131.5L376.58,76L377.29,147.36L377.33,126.21L377.35,126.21L377.71,115.64L378.03,147.36L378.04,142.07L378.14,142.07L378.38,118.28L378.61,147.36L378.8,134.15L378.8,110.36L378.83,102.43L379.01,147.36L379.38,147.36L379.44,147.36L380.06,123.57L380.19,147.36L380.2,147.36L380.69,97.15L380.95,136.79L380.99,120.93L381.66,147.36L381.68,94.51L381.7,131.5L381.71,94.51L382.22,147.36L382.43,139.43L382.54,147.36L382.54,128.86L383.27,144.72L383.34,144.72L383.64,107.73L383.65,147.36L384.05,131.51L384.06,147.36L384.93,97.15L384.98,147.36L385.11,120.94L385.73,144.72L385.77,142.07L385.82,147.36L386.15,115.65L386.48,142.07L386.52,144.71L386.57,147.36L386.84,115.65L387.27,142.07L387.31,142.07L387.86,102.44L387.97,147.36L388.05,136.79L388.1,136.79L388.21,102.43L388.23,147.36L388.84,134.15L388.86,134.15L389.46,147.36L389.49,120.93L389.5,120.93L389.5,110.36L389.61,102.44L390.28,147.36L390.33,136.79L390.36,115.66L390.46,147.36L390.99,144.72L391.02,147.36L391.26,107.73L391.77,126.23L391.78,139.43L392.33,123.58L392.33,147.36L392.42,139.43L392.42,123.58L392.58,89.23L393.21,147.36L393.21,131.5L393.35,118.29L393.44,147.36L393.92,128.86L393.94,139.43L394.2,147.36L394.32,99.8L394.64,147.36L394.7,144.72L394.8,147.36L394.97,107.72L395.03,118.29L395.03,144.72L395.05,123.58L395.14,147.36L395.78,147.36L395.84,147.36L396.43,118.29L396.58,147.36L396.61,147.36L396.79,139.43L396.88,144.72L396.88,126.22L396.88,147.36L397.34,113.01L397.63,147.36L397.66,134.15L397.78,102.44L398.26,147.36L398.31,139.43L398.38,134.15L398.38,123.58L398.5,147.36L399,131.5" style="vector-effect: non-scaling-stroke; fill: none; stroke: rgb(0, 204, 150); stroke-opacity: 1; stroke-width: 2px; opacity: 1;"/></g><g class="points"/><g class="text"/></g></g></g><g class="overplot"/><path class="xlines-above crisp" d="M0,0" style="fill: none;"/><path class="ylines-above crisp" d="M0,0" style="fill: none;"/><g class="overlines-above"/><g class="xaxislayer-above"><g class="xtick"><text text-anchor="start" x="0" y="416" transform="translate(206.48000000000002,0) rotate(30,0,408.5)" style="font-family: 'Times New Roman'; font-size: 15px; fill: rgb(13, 13, 13); fill-opacity: 1; white-space: pre; opacity: 1;">1.6125210<tspan style="font-size:70%" dy="-0.6em">18</tspan><tspan dy="0.42em"></tspan></text></g><g class="xtick"><text text-anchor="start" x="0" y="416" style="font-family: 'Times New Roman'; font-size: 15px; fill: rgb(13, 13, 13); fill-opacity: 1; white-space: pre; opacity: 1;" transform="translate(285.7,0) rotate(30,0,408.5)">1.61252510<tspan style="font-size:70%" dy="-0.6em">18</tspan><tspan dy="0.42em"></tspan></text></g><g class="xtick"><text text-anchor="start" x="0" y="416" style="font-family: 'Times New Roman'; font-size: 15px; fill: rgb(13, 13, 13); fill-opacity: 1; white-space: pre; opacity: 1;" transform="translate(364.91999999999996,0) rotate(30,0,408.5)">1.6125310<tspan style="font-size:70%" dy="-0.6em">18</tspan><tspan dy="0.42em"></tspan></text></g><g class="xtick"><text text-anchor="start" x="0" y="416" style="font-family: 'Times New Roman'; font-size: 15px; fill: rgb(13, 13, 13); fill-opacity: 1; white-space: pre; opacity: 1;" transform="translate(444.15,0) rotate(30,0,408.5)">1.61253510<tspan style="font-size:70%" dy="-0.6em">18</tspan><tspan dy="0.42em"></tspan></text></g><g class="xtick"><text text-anchor="start" x="0" y="416" style="font-family: 'Times New Roman'; font-size: 15px; fill: rgb(13, 13, 13); fill-opacity: 1; white-space: pre; opacity: 1;" transform="translate(523.37,0) rotate(30,0,408.5)">1.6125410<tspan style="font-size:70%" dy="-0.6em">18</tspan><tspan dy="0.42em"></tspan></text></g></g><g class="yaxislayer-above"><g class="ytick"><text text-anchor="end" x="136" y="12.25" transform="translate(0,355.75)" style="font-family: 'Times New Roman'; font-size: 35px; fill: rgb(13, 13, 13); fill-opacity: 1; white-space: pre; opacity: 1;">0.04</text></g><g class="ytick"><text text-anchor="end" x="136" y="12.25" style="font-family: 'Times New Roman'; font-size: 35px; fill: rgb(13, 13, 13); fill-opacity: 1; white-space: pre; opacity: 1;" transform="translate(0,302.88)">0.02</text></g><g class="ytick"><text text-anchor="end" x="136" y="12.25" style="font-family: 'Times New Roman'; font-size: 35px; fill: rgb(13, 13, 13); fill-opacity: 1; white-space: pre; opacity: 1;" transform="translate(0,250)">0</text></g><g class="ytick"><text text-anchor="end" x="136" y="12.25" style="font-family: 'Times New Roman'; font-size: 35px; fill: rgb(13, 13, 13); fill-opacity: 1; white-space: pre; opacity: 1;" transform="translate(0,197.12)">0.02</text></g><g class="ytick"><text text-anchor="end" x="136" y="12.25" style="font-family: 'Times New Roman'; font-size: 35px; fill: rgb(13, 13, 13); fill-opacity: 1; white-space: pre; opacity: 1;" transform="translate(0,144.25)">0.04</text></g></g><g class="overaxes-above"/></g></g><g class="polarlayer"/><g class="smithlayer"/><g class="ternarylayer"/><g class="geolayer"/><g class="funnelarealayer"/><g class="pielayer"/><g class="iciclelayer"/><g class="treemaplayer"/><g class="sunburstlayer"/><g class="glimages"/><defs id="topdefs-72ac84"><g class="clips"/><clipPath id="legend72ac84"><rect width="144" height="67" x="0" y="0"/></clipPath></defs><g class="layer-above"><g class="imagelayer"/><g class="shapelayer"/></g><g class="infolayer"><g class="legend" pointer-events="all" transform="translate(543.98,100)"><rect class="bg" shape-rendering="crispEdges" style="stroke: rgb(68, 68, 68); stroke-opacity: 1; fill: rgb(255, 255, 255); fill-opacity: 1; stroke-width: 0px;" width="144" height="67" x="0" y="0"/><g class="scrollbox" transform="" clip-path="url(#legend72ac84)"><g class="groups"><g class="traces" transform="translate(0,14.5)" style="opacity: 1;"><text class="legendtext" text-anchor="start" x="40" y="4.680000000000001" style="font-family: 'Open Sans', verdana, arial, sans-serif; font-size: 12px; fill: rgb(42, 63, 95); fill-opacity: 1; white-space: pre;">Realized (in %)</text><g class="layers" style="opacity: 1;"><g class="legendfill"/><g class="legendlines"><path class="js-line" d="M5,0h30" style="fill: none; stroke: rgb(99, 110, 250); stroke-opacity: 1; stroke-width: 2px;"/></g><g class="legendsymbols"><g class="legendpoints"/></g></g><rect class="legendtoggle" x="0" y="-9.5" width="138.71875" height="19" style="fill: rgb(0, 0, 0); fill-opacity: 0;"/></g><g class="traces" transform="translate(0,33.5)" style="opacity: 1;"><text class="legendtext" text-anchor="start" x="40" y="4.680000000000001" style="font-family: 'Open Sans', verdana, arial, sans-serif; font-size: 12px; fill: rgb(42, 63, 95); fill-opacity: 1; white-space: pre;">Effective (in %)</text><g class="layers" style="opacity: 1;"><g class="legendfill"/><g class="legendlines"><path class="js-line" d="M5,0h30" style="fill: none; stroke: rgb(239, 85, 59); stroke-opacity: 1; stroke-width: 2px;"/></g><g class="legendsymbols"><g class="legendpoints"/></g></g><rect class="legendtoggle" x="0" y="-9.5" width="138.71875" height="19" style="fill: rgb(0, 0, 0); fill-opacity: 0;"/></g><g class="traces" transform="translate(0,52.5)" style="opacity: 1;"><text class="legendtext" text-anchor="start" x="40" y="4.680000000000001" style="font-family: 'Open Sans', verdana, arial, sans-serif; font-size: 12px; fill: rgb(42, 63, 95); fill-opacity: 1; white-space: pre;">Half Quoted (in %)</text><g class="layers" style="opacity: 1;"><g class="legendfill"/><g class="legendlines"><path class="js-line" d="M5,0h30" style="fill: none; stroke: rgb(0, 204, 150); stroke-opacity: 1; stroke-width: 2px;"/></g><g class="legendsymbols"><g class="legendpoints"/></g></g><rect class="legendtoggle" x="0" y="-9.5" width="138.71875" height="19" style="fill: rgb(0, 0, 0); fill-opacity: 0;"/></g></g></g><rect class="scrollbar" rx="20" ry="3" width="0" height="0" style="fill: rgb(128, 139, 164); fill-opacity: 1;" x="0" y="0"/></g><g class="g-gtitle"/><g class="g-xtitle"><text class="xtitle" x="336.5" y="487.503125" text-anchor="middle" style="font-family: 'Open Sans', verdana, arial, sans-serif; font-size: 14px; fill: rgb(42, 63, 95); opacity: 1; font-weight: normal; white-space: pre;">Time Steps (ns)</text></g><g class="g-ytitle" transform="translate(24,0)"><text class="ytitle" transform="rotate(-90,12,250)" x="12" y="250" text-anchor="middle" style="font-family: 'Times New Roman'; font-size: 40px; fill: rgb(13, 13, 13); opacity: 1; font-weight: normal; white-space: pre;">Spreads (in %)</text></g></g></svg>