<svg class="main-svg" xmlns="http://www.w3.org/2000/svg" xmlns:xlink="http://www.w3.org/1999/xlink" width="700" height="500" style="" viewBox="0 0 700 500"><rect x="0" y="0" width="700" height="500" style="fill: rgb(255, 255, 255); fill-opacity: 1;"/><defs id="defs-a3cafe"><g class="clips"><clipPath id="clipa3cafexyplot" class="plotclip"><rect width="511" height="320"/></clipPath><clipPath class="axesclip" id="clipa3cafex"><rect x="109" y="0" width="511" height="500"/></clipPath><clipPath class="axesclip" id="clipa3cafey"><rect x="0" y="100" width="700" height="320"/></clipPath><clipPath class="axesclip" id="clipa3cafexy"><rect x="109" y="100" width="511" height="320"/></clipPath></g><g class="gradients"/><g class="patterns"/></defs><g class="bglayer"><rect class="bg" x="109" y="100" width="511" height="320" style="fill: rgb(229, 236, 246); fill-opacity: 1; stroke-width: 0;"/></g><g class="layer-below"><g class="imagelayer"/><g class="shapelayer"/></g><g class="cartesianlayer"><g class="subplot xy"><g class="layer-subplot"><g class="shapelayer"/><g class="imagelayer"/></g><g class="minor-gridlayer"><g class="x"/><g class="y"/></g><g class="gridlayer"><g class="x"><path class="xgrid crisp" transform="translate(198.15,0)" d="M0,100v320" style="stroke: rgb(255, 255, 255); stroke-opacity: 1; stroke-width: 1px;"/><path class="xgrid crisp" transform="translate(299.56,0)" d="M0,100v320" style="stroke: rgb(255, 255, 255); stroke-opacity: 1; stroke-width: 1px;"/><path class="xgrid crisp" transform="translate(400.98,0)" d="M0,100v320" style="stroke: rgb(255, 255, 255); stroke-opacity: 1; stroke-width: 1px;"/><path class="xgrid crisp" transform="translate(502.4,0)" d="M0,100v320" style="stroke: rgb(255, 255, 255); stroke-opacity: 1; stroke-width: 1px;"/><path class="xgrid crisp" transform="translate(603.81,0)" d="M0,100v320" style="stroke: rgb(255, 255, 255); stroke-opacity: 1; stroke-width: 1px;"/></g><g class="y"><path class="ygrid crisp" transform="translate(0,346.86)" d="M109,0h511" style="stroke: rgb(255, 255, 255); stroke-opacity: 1; stroke-width: 1px;"/><path class="ygrid crisp" transform="translate(0,289.15)" d="M109,0h511" style="stroke: rgb(255, 255, 255); stroke-opacity: 1; stroke-width: 1px;"/><path class="ygrid crisp" transform="translate(0,231.43)" d="M109,0h511" style="stroke: rgb(255, 255, 255); stroke-opacity: 1; stroke-width: 1px;"/><path class="ygrid crisp" transform="translate(0,173.72)" d="M109,0h511" style="stroke: rgb(255, 255, 255); stroke-opacity: 1; stroke-width: 1px;"/><path class="ygrid crisp" transform="translate(0,116)" d="M109,0h511" style="stroke: rgb(255, 255, 255); stroke-opacity: 1; stroke-width: 1px;"/></g></g><g class="zerolinelayer"><path class="yzl zl crisp" transform="translate(0,404.58)" d="M109,0h511" style="stroke: rgb(255, 255, 255); stroke-opacity: 1; stroke-width: 2px;"/></g><path class="xlines-below"/><path class="ylines-below"/><g class="overlines-below"/><g class="xaxislayer-below"/><g class="yaxislayer-below"/><g class="overaxes-below"/><g class="plot" transform="translate(109,100)" clip-path="url(#clipa3cafexyplot)"><g class="scatterlayer mlayer"><g class="trace scatter trace60bba0" style="stroke-miterlimit: 2; opacity: 1;"><g class="fills"/><g class="errorbars"/><g class="lines"><path class="js-line" d="M0,16L0.43,251.19L0.75,232.43L0.86,232.43L0.88,16L1.47,284.38L1.58,16L1.61,70.83L1.63,16L1.87,290.87L2.34,16L2.37,16L2.57,16L2.57,16L2.59,272.83L2.59,16L2.76,281.49L3.22,16L3.43,16L3.77,287.26L4.11,224.74L4.24,16L4.77,301.69L4.98,16L5.02,67.94L5.04,16L5.72,295.92L5.75,16L5.78,24.66L5.8,295.92L5.94,16L5.95,114.12L5.97,298.69L6.67,16L6.67,16L6.73,298.81L6.73,16L7.41,301.69L7.44,79.49L7.6,16L7.9,299.77L8.36,179.11L8.36,44.86L8.48,16L8.51,189.15L8.51,246.86L8.51,16L8.93,255.52L9.26,16L9.28,16L9.48,16L9.48,16L9.51,285.82L9.88,301.69L10.23,16L10.25,223.78L10.34,16L11.06,275.72L11.06,16L11.76,301.69L11.79,290.15L11.82,16L11.85,295.92L12.55,186.26L12.65,16L12.82,16L12.82,148.75L12.82,16L13.38,292.07L13.52,247.62L13.58,16L13.72,297.36L14.39,200.69L14.4,44.86L14.58,16L15.2,284.38L15.21,16L15.32,301.95L15.93,16L15.94,16L16.6,275.72L16.65,208.38L16.87,288.71L16.92,16L17.57,160.29L17.63,16L17.87,295.92L18.17,16L18.32,125.66L18.36,16L19.03,290.15L19.06,16L19.16,16L19.52,284.38L19.91,209.35L19.92,111.23L20.19,284.38L20.69,16L20.69,16L20.7,16L20.9,285.1L21.41,16L21.51,16L21.79,291.59L22.2,168.95L22.22,16L22.47,16L22.52,151.63L22.52,16L23.17,293.03L23.24,62.17L23.28,271.39L23.83,285.82L24.01,16L24.14,16L24.39,298.81L24.91,160.29L24.91,16L24.98,281.49L25.3,16L25.68,16L25.95,260.57L26.41,16L26.47,62.17L26.54,16L26.87,284.38L27.21,16L27.23,16L27.29,302.41L27.99,82.37L27.99,16L28.41,301.69L28.68,16L28.81,16L29.41,261.29L29.54,16L29.58,16L30.27,300.25L30.35,79.49L30.48,16L30.61,275.72L31.21,272.83L31.28,47.74L31.33,16L31.38,293.03L32.01,16L32.08,16L32.14,262.73L32.78,16L32.84,16L33.35,300.25L33.51,52.07L33.6,16L34.37,284.38L34.41,160.29L34.41,16L34.74,298.81L35.16,82.37L35.18,16L35.26,295.2L35.91,249.75L35.95,16L36.19,16L36.19,16L36.24,263.45L36.32,16L36.42,284.38L36.98,264.18L37,142.97L37.12,177.6L37.14,16L37.24,16L37.34,16L37.96,275.72L38.08,251.19L38.12,44.86L38.12,16L38.14,275.72L38.86,16L38.88,53.52L39.39,298.81L39.63,16L39.64,237.48L39.7,16L40.17,298.81L40.29,255.52L40.37,16L41.1,301.72L41.15,174.72L41.15,16L41.65,283.66L41.9,16L41.93,16L42.3,301.69L42.64,163.17L42.75,16L42.92,291.2L43.5,16L43.54,16L43.71,16L43.77,160.29L43.77,16L44.5,287.26L44.51,16L44.56,287.26L44.79,16L45.3,62.17L45.39,16L45.61,298.81L45.87,16L45.96,16L46.12,295.92L46.7,39.09L46.76,218.97L46.8,16L46.9,300.25L47.49,16L47.57,16L47.74,294.48L48.32,284.38L48.39,96.8L48.68,298.81L49.15,16L49.15,160.29L49.85,290.15L49.9,16L49.9,16L49.91,284.38L50.41,301.69L50.61,16L50.62,186.26L50.69,16L50.83,288.71L51.38,117L51.4,50.63L51.4,16L52.08,288.71L52.16,189.15L52.17,16L52.19,284.38L52.91,217.04L52.92,278.61L53.61,287.26L53.73,16L53.78,226.66L54.1,293.03L54.46,16L54.52,290.15L54.57,16L55.07,290.84L55.25,218.51L55.25,65.06L55.33,16L55.97,295.92L55.97,24.66L56.01,16L56.63,298.81L56.71,16L56.77,16L57.18,295.92L57.5,53.52L57.55,62.17L57.56,16L58.02,301.69L58.3,16L58.32,168.95L58.7,301.69L59.09,16L59.18,16L59.65,298.81L59.93,203.58L59.95,16L60.04,303.6L60.69,16L60.71,16L61.26,284.38L61.5,125.66L61.62,16L62.3,301.69L62.37,16L62.42,16L62.42,290.15L63.17,289.39L63.19,105.46L63.19,287.26L63.21,16L63.94,218L63.95,16L64.19,289.59L64.69,16L64.71,16L65.45,293.03L65.45,166.06L65.47,154.52L66.1,272.83L66.14,16L66.19,125.66L66.22,173.41L66.25,16L66.92,291.59L66.96,65.06L67,200.69L67,16L67,287.26L67.62,16L67.77,16L68.5,293.03L68.53,255.52L68.53,65.06L68.55,16L68.67,283.66L69.25,16L69.32,16L69.81,295.92L70.03,16L70.08,16L70.08,295.92L70.82,16L70.89,288.71L71.5,16L71.58,298.81L71.61,21.77L71.65,298.81L72.36,16L72.5,16L72.95,293.03L73.22,16L73.28,197.8L73.28,16L73.92,295.92L73.96,16L74.05,16L74.27,303.86L74.69,189.15L74.87,16L74.94,287.26L74.96,16L75.07,298.81L75.69,44.86L75.72,275.72L75.72,16L76.23,293.03L76.46,16L76.48,171.83L76.49,16L76.49,303.13L77.23,16L77.25,267.04L77.32,16L77.57,301.69L77.97,16L78.04,16L78.52,301.69L78.8,266.94L78.83,16L78.92,59.29L78.92,261.29L78.99,16L79.15,298.81L79.66,70.83L79.78,235.32L79.78,16L80.41,295.92L80.49,184.82L80.59,16L81.14,298.81L81.33,53.52L81.36,30.43L81.79,285.82L82.08,16L82.14,16L82.47,297.71L82.85,157.4L82.92,16L83.56,299.17L83.75,252.63L83.76,67.94L83.76,16L83.85,293.03L84.51,160.29L84.54,16L85.02,296.5L85.29,186.26L85.31,16L86.01,287.26L86.05,16L86.07,30.43L86.07,16L86.22,293.03L86.74,246.86L86.84,16L87.28,299.42L87.36,16L87.5,16L88.21,299.53L88.26,293.03L88.26,16L88.82,301.69L89.01,16L89.02,16L89.05,275.72L89.77,16L89.78,16L90.18,298.81L90.53,168.95L90.54,295.92L91.23,16L91.29,102.57L91.31,218L91.33,16L91.42,303.13L92.06,215.12L92.07,274.28L92.34,295.92L92.82,16L92.87,119.89L92.99,267.06L93.54,16L93.57,197.8L93.62,122.77L93.88,266.1L94.3,16L94.37,235.01L94.46,16L94.85,284.38L95.1,183.37L95.13,160.29L95.18,16L95.85,295.92L95.87,220.89L95.95,166.06L96.39,288.71L96.66,16L96.66,235.32L96.68,293.03L96.75,301.69L97.39,16L97.39,52.07L97.43,238.2L97.86,301.69L98.19,16L98.19,232.43L98.19,16L98.92,293.03L98.95,16L99.11,281.49L99.62,261.29L99.72,16L99.88,16L99.88,16L99.89,76.4L99.97,16L100.31,288.55L100.62,16L100.65,241.09L100.71,16L101.32,285.82L101.38,76.6L101.41,16L102.04,295.92L102.07,24.66L102.07,295.92L102.14,16L102.82,16L102.86,16L103.64,278.61L103.64,41.97L104.18,290.15L104.25,16L104.25,16L104.27,229.55L104.31,16L104.82,284.38L105.02,197.8L105.03,16L105.6,297.36L105.73,177.6L105.75,16L105.79,290.15L106.08,154.52L106.11,16L106.45,294.27L106.8,16L106.87,16L106.97,303.13L107.62,88.14L107.64,16L107.82,283.87L107.91,16L108.03,16L108.5,301.69L108.79,249.75L108.79,16L109.45,301.69L109.46,235.32L109.6,16L110.18,294.48L110.33,265.62L110.39,93.92L110.63,16L110.79,264.18L111.11,115.06L111.15,142.97L111.16,16L111.31,284.38L111.88,85.26L111.92,16L112.08,16L112.09,173.27L112.68,295.92L112.82,16L112.82,16L112.86,16L113.17,16L113.17,44.86L113.28,16L113.7,278.34L113.75,16L114.46,295.92L114.5,226.66L114.51,94.7L114.52,16L115.17,301.69L115.26,16L115.28,53.52L115.38,16L115.63,290.15L116,93.92L116.06,16L116.2,298.92L116.72,16L116.83,16L117.02,16L117.02,16L117.03,56.4L117.03,16L117.35,301.72L117.78,16L117.79,16L118.56,302.41L118.56,102.57L118.64,16L119.14,295.83L119.28,16L119.31,16L119.35,275.98L120.01,117L120.08,203.58L120.11,16L120.81,298.81L120.82,16L120.85,56.4L120.85,16L121.17,295.92L121.6,122.77L121.61,16L122.13,287.26L122.37,263.35L122.37,21.77L122.38,16L122.64,301.69L123.08,16L123.15,16L123.3,37.22L123.3,16L123.32,197.8L123.59,284.38L124.07,16L124.07,16L124.09,272.83L124.1,16L124.69,285.82L124.77,16L124.85,292.31L125.14,295.92L125.61,16L125.63,125.66L125.82,249.75L125.92,16L125.92,160.29L125.95,272.83L126.56,298.81L126.71,16L126.72,210.98L126.78,16L126.91,295.92L127.42,16L127.48,16L127.58,24.66L127.63,258.4L127.63,295.92L127.65,16L128.37,16L128.41,105.46L128.45,16L128.58,303.13L129.11,16L129.22,16L129.83,298.81L129.99,108.34L129.99,16L130.13,301.69L130.63,16L130.65,16L130.76,284.38L131.42,235.32L131.43,16L131.9,298.81L132.17,16L132.25,295.92L132.91,16L132.91,203.58L133.1,295.92L133.61,16L133.62,56.4L133.69,264.18L134.12,295.92L134.45,16L134.46,52.91L134.46,232.43L134.5,295.92L135.19,16L135.19,16L135.25,85.26L135.83,281.49L135.93,16L135.93,16L135.94,215.12L135.96,16L136.12,301.69L136.68,238.2L136.7,82.37L136.7,16L137.36,298.81L137.41,226.66L137.49,16L137.82,290.15L138.17,85.66L138.23,16L138.4,301.69L138.97,295.92L138.99,189.15L139.2,301.69L139.69,16L139.69,16L139.77,16L140.14,295.92L140.44,252.63L140.53,16L141.15,285.82L141.15,251.42L141.32,21.77L141.34,16L141.47,303.13L142.07,62.17L142.1,16L142.85,293.03L142.85,16L142.89,284.38L142.9,16L143.1,301.69L143.61,160.29L143.66,168.95L143.66,16L144.18,295.92L144.38,16L144.42,27.54L144.46,16L144.52,301.69L145.17,295.92L145.19,30.43L145.23,290.15L145.29,16L145.92,16L145.97,16L146.31,298.81L146.53,218.56L146.77,16L146.86,293.03L147.44,16L147.51,16L148.15,298.81L148.25,284.38L148.28,16L148.48,290.15L148.79,16L148.89,16L149.15,290.15L149.28,16L149.36,30.43L149.39,16L149.91,294.48L149.98,284.38L150.13,16L150.27,298.81L150.82,232.43L150.92,16L151.25,294.48L151.65,16L151.71,16L151.8,291.59L152.46,223.78L152.53,16L153.07,295.92L153.28,16L153.33,16L153.89,281.49L154.02,16L154.11,44.86L154.11,290.15L154.12,16L154.77,16L154.94,16L155.62,284.38L155.67,16L155.71,16L155.92,301.69L156.46,235.32L156.48,16L157.06,298.81L157.23,16L157.27,186.26L157.37,16L157.92,293.03L157.99,174.72L158.03,145.86L158.09,16L158.68,258.4L158.72,82.37L158.81,16L159.51,293.03L159.54,16L159.56,16L160.24,293.03L160.3,16L160.35,267.06L160.37,16L160.47,301.69L161.07,279.54L161.16,16L161.31,288.71L161.91,16L161.93,24.66L161.97,16L162.42,278.61L162.68,160.29L162.71,16L163.39,288.71L163.44,36.2L163.48,16L163.85,287.74L164.1,232.43L164.18,16L164.4,16L164.4,16L164.43,102.57L164.44,301.69L164.46,16L165.17,176.16L165.19,16L165.51,298.81L165.52,16L165.86,301.69L166.27,16L166.33,16L166.64,290.15L167.08,271.39L167.12,16L167.61,297.36L167.88,275.98L167.92,47.74L167.93,16L168.35,298.92L168.66,16L168.68,284.38L168.82,16L169.4,295.92L169.41,46.92L169.46,16L170,298.81L170.21,16L170.24,16L170.24,298.81L170.97,252.63L171,268.51L171.06,16L171.56,298.08L171.74,117L171.81,162.38L172.32,16L172.46,293.03L172.53,163.17L172.55,249.75L172.55,16L173.13,284.38L173.3,203.75L173.32,99.69L173.35,16L173.56,278.61L174.07,65.06L174.08,255.52L174.3,278.61L174.8,16L174.86,131.43L174.86,189.15L174.93,293.03L175.58,16L175.69,16L176.23,291.59L176.42,16L176.45,30.43L176.51,16L176.51,16L176.54,200.69L177.1,295.92L177.31,16L177.4,229.55L177.48,16L177.97,298.81L178.15,298.81L178.19,16L178.81,284.38L178.94,111.23L178.95,111.23L179.02,16L179.3,287.26L179.68,16L179.76,117L179.83,16L180.18,278.61L180.46,16L180.54,209.35L180.54,16L180.74,298.81L181.27,44.86L181.33,16L181.36,293.76L182,258.4L182.09,16L182.28,16L182.28,16L182.39,235.32L182.58,16L182.67,293.03L183.13,16L183.21,139.68L183.24,16L183.9,295.27L183.94,16L183.97,301.69L184.73,16L184.76,16L184.89,278.61L185.5,16L185.54,16L185.55,301.69L186.29,197.8L186.33,16L186.91,293.03L187.08,102.57L187.1,16L187.51,286.54L187.76,16L187.88,16L187.9,299.53L188.62,298.92L188.63,16L188.79,303.13L189.37,269.95L189.41,16L190.13,284.38L190.13,16L190.19,16L190.86,287.26L190.89,16L190.97,16L191.07,284.38L191.63,53.52L191.78,16L192.17,297.71L192.27,16L192.41,16L192.52,259.13L193.14,173.41L193.22,16L193.25,298.81L193.95,16L193.98,85.26L194.12,16L194.12,298.81L194.62,203.58L194.75,16L194.98,16L194.98,16L194.99,223.78L194.99,16L195.12,293.03L195.71,148.26L195.75,16L196.05,282.21L196.49,16L196.58,16L196.76,16L196.77,160.29L196.77,16L197.23,301.69L197.43,16L197.58,16L197.85,16L197.89,194.92L197.91,16L198.15,303.86L198.61,142.97L198.66,177.6L198.67,275.72L198.69,16L199.3,16L199.44,258.4L199.44,16L199.8,293.03L200.18,27.54L200.22,16L200.44,293.03L200.93,105.46L200.99,16L201.51,298.81L201.71,16L201.83,16L202.34,293.03L202.58,108.34L202.61,16L203.36,285.34L203.39,278.61L203.39,41.97L203.72,16L203.73,298.81L203.77,21.77L203.82,298.81L204.58,16L204.65,79.49L204.65,16L205.38,269.14L205.39,16L205.45,16L205.59,291.59L205.84,264.18L205.9,16L205.95,30.08L205.95,16L205.96,252.63L205.96,16L206.56,298.81L206.71,16L206.73,268.2L206.73,16L206.76,298.81L207.48,16L207.5,53.79L207.5,298.81L207.55,16L208.19,88.14L208.3,16L208.31,275.72L208.96,16L209.02,16L209.73,295.92L209.76,229.76L209.84,16L210,16L210,16L210.01,295.92L210.01,16L210.31,297.36L210.74,33.31L210.78,16L211.34,295.92L211.52,59.29L211.55,16L211.87,290.15L212.27,16L212.32,16L213.01,293.03L213.06,16L213.1,255.52L213.1,16L213.16,297.36L213.85,155.63L213.87,154.52L213.87,16L214.33,294.48L214.61,248.72L214.65,16L214.88,264.18L215.39,16L215.43,16L215.61,16L215.63,62.17L215.65,16L215.9,290.15L216.26,246.86L216.34,16L216.87,281.49L217.05,269.95L217.06,16L217.7,298.81L217.73,160.29L217.75,16L218.27,290.15L218.5,16L218.55,16L219.06,266.34L219.32,238.2L219.33,16L219.91,290.15L220.06,16L220.09,16L220.09,299.17L220.84,16L220.85,16L220.94,284.38L221.61,154.52L221.65,16L222.01,299.53L222.41,295.92L222.42,16L222.66,293.48L223.16,16L223.2,16L223.39,16L223.39,215.12L223.39,16L223.73,304L224.09,16L224.15,134.32L224.84,265.62L224.92,16L224.92,16L224.94,16L225.58,290.15L225.72,281.49L225.73,39.09L226.16,295.42L226.42,16L226.43,203.58L226.59,284.38L227.2,16L227.23,277.64L227.25,16L227.59,289.39L227.98,226.66L228.06,226.66L228.08,16L228.31,278L228.77,168.95L228.84,16L229.08,298.81L229.61,149.83L229.63,122.77L229.66,16L230,290.15L230.38,16L230.46,112.19L230.46,300.83L230.47,16L231.17,151.63L231.22,287.26L231.25,16L231.4,297.33L231.97,16L232.02,93.92L232.06,284.38L232.75,16L232.75,93.92L232.81,226.66L232.81,16L232.82,303.13L233.55,16L233.57,16L233.9,16L233.9,96.8L234.24,294.48L234.63,16L234.63,16L234.63,260.14L234.69,298.81L235.28,16L235.34,157.4L235.36,163.17L235.41,275.72L235.55,16L235.66,174.72L235.69,295.92L235.69,16L236.41,16L236.49,16L236.89,301.69L237.17,76.6L237.26,16L237.92,298.81L237.97,22.14L238.02,16L238.63,275.72L238.77,73.72L238.79,16L239.21,281.49L239.54,166.06L239.58,16L239.8,16L239.84,30.43L239.93,16L239.95,301.69L240.57,16L240.63,16L240.87,291.59L241.37,223.78L241.46,223.78L241.5,16L242.19,301.69L242.26,16L242.95,300.25L243.01,33.31L243.12,96.8L243.23,16L243.64,290.15L243.85,264.18L243.92,16L244.53,298.81L244.63,298.81L244.69,16L244.92,301.69L245.41,67.94L245.46,16L245.84,282.93L246.21,16L246.27,16L246.78,285.82L247.02,16L247.04,16L247.04,293.03L247.79,183.37L247.81,93.92L247.93,16L248.43,293.03L248.54,16L248.57,160.29L248.57,16L249.12,281.49L249.31,16L249.37,226.66L249.52,295.92L250.08,16L250.09,259.01L250.12,232.43L250.12,16L250.79,301.69L250.85,16L250.9,246.86L250.9,16L251.52,293.03L251.65,160.29L251.69,16L252.35,293.03L252.48,27.54L252.48,293.03L252.52,16L252.96,232.43L253.33,16L253.84,285.53L253.84,206.46L253.98,16L254,290.72L254.72,16L254.78,16L255.3,278.61L255.53,16L255.55,281.49L255.66,16L255.67,301.93L256.28,16L256.33,220.89L256.41,16L256.82,252.63L257.08,168.95L257.11,151.63L257.13,16L257.54,301.69L257.81,128.55L257.81,16L258.11,284.38L258.56,16L258.64,88.14L258.75,16L258.77,295.92L259.39,164.62L259.41,16L259.66,299.53L260.15,16L260.18,232.43L260.19,16L260.56,296.64L260.9,174.72L260.97,16L261.32,295.2L261.72,16L261.78,16L262.48,278.61L262.55,16L262.89,282.52L263.29,16L263.31,16L263.79,298.81L264.05,281.49L264.09,39.09L264.31,301.72L264.63,16L264.66,264.18L264.69,16L265.3,290.15L265.38,16L265.42,208.38L265.9,298.81L266.24,16L266.34,186.26L266.35,16L266.68,288.71L267.08,99.69L267.13,27.54L267.13,293.03L267.17,16L267.83,267.06L267.9,16L268.01,298.92L268.48,255.52L268.56,16L269.31,261.29L269.31,243.25L269.38,16L269.82,275.72L270.12,16L270.14,16L270.41,294.48L270.77,16L270.81,16L271.33,301.72L271.56,16L271.59,16L271.64,27.54L271.65,16L271.66,255.52L271.77,16L271.97,301.69L272.39,16L272.42,249.75L272.5,16L272.65,287.26L273.17,249.75L273.19,16L273.84,290.15L273.89,267.06L273.94,16L274.73,301.69L274.73,37.58L274.93,16L274.98,298.81L275.45,264.18L275.56,16L275.97,262.73L276.31,16L276.33,16L276.96,293.03L277.03,16L277.1,16L277.25,273.66L277.84,212.23L277.91,16L278.32,280.77L278.64,122.77L278.67,16L279.03,297.36L279.34,44.86L279.37,16L279.39,295.92L280.11,16L280.14,16L280.47,294.96L280.82,16L280.95,16L281.36,301.69L281.7,16L281.75,16L282.41,290.15L282.42,155.96L282.42,24.66L282.67,233.88L282.69,16L282.7,236.4L282.77,16L283.37,290.15L283.44,16L283.46,16L283.49,21.77L283.49,303.13L284.23,16L284.3,16L285.02,294.48L285.04,232.43L285.07,16L285.15,33.31L285.15,290L285.96,16L285.97,16L285.98,301.69L286.16,16L286.21,16L286.89,303.13L286.95,21.77L287.07,16L287.18,36.2L287.18,16L287.19,160.29L287.67,281.49L287.87,16L287.87,16L287.96,272.83L288.53,298.08L288.71,16L288.87,284.38L288.87,16L289.47,295.92L289.62,16L289.63,16L290.27,298.81L290.35,261.29L290.44,16L290.51,301.69L291.16,16L291.21,85.26L291.21,16L291.48,301.69L291.95,16L292.08,286.54L292.13,16L292.47,301.69L292.82,16L292.84,16L293.32,298.81L293.52,16L293.62,16L294.08,301.69L294.37,16L294.43,16L294.63,16L294.64,299.61L295.36,16L295.36,16L295.4,248.72L295.45,295.92L295.47,16L296.13,249.75L296.19,59.29L296.19,16L296.89,298.81L296.94,223.78L296.96,16L297.68,275.72L297.7,16L297.72,16L297.79,300.25L298.47,166.06L298.52,166.06L298.57,154.52L298.57,293.03L298.61,27.54L298.69,16L298.73,293.76L299.32,281.49L299.4,255.52L299.4,16L299.4,281.49L300.14,50.63L300.2,269.95L300.2,16L300.32,293.03L300.88,16L300.96,16L301.02,27.54L301.03,293.03L301.54,297.36L301.77,16L301.81,297.36L301.86,16L301.87,301.69L302.54,137.2L302.57,16L303.29,298.81L303.35,16L303.94,294.48L304.09,224.66L304.09,16L304.26,16L304.26,16L304.27,39.09L304.33,298.81L304.63,16L304.66,298.81L304.69,16L304.91,303.13L305.41,128.55L305.44,16L305.87,293.03L306.17,16L306.23,56.4L306.34,16L306.78,275.23L306.97,60.4L307.01,16L307.36,301.69L307.67,16L307.78,16L307.79,297.36L308.52,16L308.55,16L308.68,290.15L309.26,16L309.38,16L309.42,295.2L310.12,16L310.14,16L310.41,280.77L310.81,264.18L310.83,16L311.16,301.69L311.56,296.17L311.59,16L311.72,284.38L312.29,223.78L312.29,16L312.51,301.69L312.57,16L312.58,16L312.66,18.89L312.66,190.59L312.69,298.81L313.41,16L313.41,249.75L313.42,16L313.5,298.81L314.15,266.34L314.18,16L314.46,259.85L314.91,16L314.94,99.69L314.99,16L315.14,299.53L315.64,16L315.71,16L316.19,301.69L316.38,43.63L316.46,16L317.02,298.81L317.21,223.78L317.27,16L317.93,259.85L318.02,16L318.09,258.4L318.15,284.38L318.17,16L318.84,21.77L318.96,50.63L318.97,16L319.67,287.26L319.71,160.29L319.72,16L320.05,281.49L320.42,33.31L320.51,16L320.59,287.26L321.26,248.72L321.32,16L321.33,18.89L321.35,301.69L321.38,16L321.45,303.13L322.1,238.2L322.15,114.12L322.15,16L322.49,281.49L322.86,16L322.92,16L323.59,293.03L323.6,99.69L323.68,16L324.1,290.15L324.32,16L324.35,16L324.83,298.81L325.08,16L325.11,16L325.67,298.81L325.86,223.78L325.87,16L326.22,304L326.62,295.92L326.64,50.63L327.21,287.26L327.25,16L327.25,16L327.27,290.15L327.8,298.81L328.02,16L328.13,16L328.22,298.81L328.59,16L328.64,16L329.14,301.69L329.39,255.52L329.42,16L330.02,287.26L330.02,252.94L330.1,34.23L330.14,16L330.61,301.72L330.85,295.92L330.85,24.66L330.92,16L331.38,285.82L331.59,267.06L331.75,160.29L331.75,16L331.84,298.92L332.48,16L332.51,278.61L332.53,16L333.03,295.92L333.22,36.2L333.27,16L333.51,299.53L333.97,16L334,16L334.43,287.26L334.64,160.29L334.84,16L335.48,301.69L335.59,67.94L335.61,148.26L335.61,16L335.96,297.36L336.35,16L336.4,16L336.46,298.81L337.15,258.4L337.2,16L337.3,298.81L337.87,267.06L337.87,16L338.01,301.69L338.55,16L338.63,16L339.37,293.03L339.41,160.29L339.41,16L340.17,301.69L340.17,301.69L340.17,18.89L340.23,16L340.23,301.69L340.23,16L340.95,142.97L340.99,16L341.79,298.81L341.85,280.53L341.86,21.77L341.95,16L341.95,298.81L342.09,301.69L342.66,16L342.72,249.75L342.83,16L343.06,285.1L343.46,269.95L343.51,16L343.75,301.72L344.27,278.61L344.29,16L344.74,301.69L345,16L345.05,16L345.76,287.26L345.77,142.97L345.89,145.86L345.89,16L346.22,297.36L346.62,16L346.65,16L346.88,295.92L347.3,160.29L347.3,16L347.68,16L347.68,248.05L347.93,290.15L348.29,16L348.4,30.43L348.47,192.03L348.59,16L348.76,293.03L349.15,16L349.24,16L349.96,293.76L350.01,206.46L350.01,16L350.42,301.69L350.75,16L350.78,298.81L350.78,16L351.46,212.23L351.54,16L352.13,293.03L352.28,128.55L352.36,16L353,295.92L353.11,16L353.13,97.29L353.13,16L353.79,293.03L353.86,16L353.9,16L353.99,301.69L354.64,241.09L354.69,16L355.32,298.81L355.43,281.49L355.45,39.09L355.45,16L356.15,300.25L356.16,295.92L356.26,67.94L356.26,16L356.62,301.69L356.96,278.61L357.03,16L357.63,295.92L357.65,16L358.15,298.81L358.4,16L358.43,16L358.44,301.69L359.17,261.29L359.23,287.26L359.29,16L359.97,79.49L360,16L360.34,16L360.34,16L360.35,47.74L360.7,301.69L361.06,16L361.06,16L361.09,279.48L361.09,16L361.09,300.25L361.81,16L361.86,16L362.24,300.97L362.55,76.6L362.62,76.6L362.63,16L363.3,292.31L363.37,16L363.38,243.98L364.09,16L364.11,302.41L364.11,82.59L364.19,111.23L364.28,16L364.48,298.81L364.88,194.92L364.95,27.54L365.01,293.03L365.03,16L365.68,16L365.7,16L366.22,290.15L366.46,180.49L366.5,140.09L366.8,287.26L367.25,16L367.25,16L367.27,16L367.45,303.86L368,168.95L368.06,16L368.61,287.26L368.78,16L368.84,62.17L368.84,16L368.86,295.92L369.59,285.82L369.61,16L370.29,290.73L370.38,233.88L370.39,16L370.44,24.66L370.44,295.92L370.54,298.92L371.17,16L371.19,121.81L371.24,122.77L371.44,290.15L371.56,16L372,242.53L372,16L372.51,297.36L372.63,272.83L372.76,47.74L372.93,16L373.38,290.87L373.42,16L373.52,67.94L373.58,16L374.22,301.69L374.25,16L374.28,16L374.38,278.61L375.03,24.66L375.04,16L375.2,296.64L375.8,280.53L375.8,18.89L375.85,16L376.39,290.15L376.5,16L376.55,16L376.79,290.15L377.24,246.86L377.32,16L377.9,269.95L377.97,82.37L377.98,16L378.59,298.81L378.74,238.2L378.78,16L379.03,294.96L379.55,76.6L379.65,16L380.13,294.66L380.4,16L380.42,59.29L380.66,290.15L381.2,16L381.23,269.95L381.33,16L381.36,293.03L381.98,281.49L381.99,16L382.38,301.69L382.69,212.23L382.76,16L383.38,303.13L383.51,16L383.58,16L383.95,298.81L384.31,76.6L384.35,16L384.44,293.03L385.11,215.12L385.17,284.38L385.17,16L385.74,303.86L385.91,206.46L385.94,16L386.38,298.92L386.62,16L386.73,16L387.01,294.48L387.47,148.75L387.55,16L387.84,293.03L388.3,125.66L388.31,16L388.73,301.69L389.04,278.61L389.07,16L389.15,41.97L389.18,16L389.18,298.08L389.94,16L389.97,16L390.54,293.03L390.7,85.26L390.74,50.63L390.85,269.95L390.94,16L390.94,16L390.94,259.85L390.94,16L391.11,267.06L391.67,261.29L391.74,142.8L391.84,16L392.07,294.48L392.49,108.34L392.54,212.23L392.65,16L393.28,302.41L393.31,16L393.92,282.21L394.06,203.58L394.18,117L394.18,16L394.39,295.83L394.92,16L394.97,16L395.05,272.11L395.74,239.94L395.79,16L395.96,293.03L396.51,213.66L396.55,16L397.16,300.97L397.31,288.71L397.49,151.63L397.49,16L398.14,298.08L398.23,16L398.29,91.03L398.43,16L398.53,298.81L399.03,16L399.05,16L399.12,269.95L399.8,16L399.83,16L399.85,290.15L400.57,16L400.59,16L400.87,303.14L401.32,206.46L401.35,114.12L401.43,16L401.88,293.03L402.07,30.43L402.12,16L402.12,298.81L402.83,117L402.93,167.16L402.93,16L403.19,295.92L403.65,16L403.69,16L404.12,295.92L404.43,232.43L404.46,96.8L404.48,16L405.21,295.2L405.21,53.52L405.26,16L405.39,295.92L405.94,16L405.97,224.97L405.99,16L406.44,300.97L406.69,30.43L406.79,82.37L407.4,303.42L407.53,16L407.55,215.12L407.62,16L408.22,293.03L408.27,16L408.32,16L408.53,295.92L409.04,16L409.09,16L409.21,293.76L409.72,293.03L409.85,16L410.41,303.13L410.62,183.37L410.64,16L411.16,278.61L411.29,207.9L411.31,16L411.76,272.83L412.06,16L412.08,62.17L412.13,16L412.2,295.92L412.76,214.54L412.88,283.51L412.89,16L413.53,288.71L413.6,122.77L413.64,272.83L414.25,297.71L414.43,16L414.44,53.52L414.58,300.25L414.88,16L414.89,59.29L414.89,261.29L415.29,293.03L415.65,16L415.67,16L416.25,284.38L416.44,174.72L416.49,16L417.15,287.26L417.26,272.83L417.26,47.74L417.35,16L417.62,298.81L417.87,16L418.03,16L418.41,287.26L418.81,134.32L418.83,16L419.57,293.03L419.59,16L419.72,293.03L420.34,99.69L420.35,99.69L420.42,16L420.42,299.17L421.05,197.8L421.16,213.61L421.23,16L421.61,278.61L421.91,16L421.95,70.83L421.95,16L422.09,294.48L422.65,281.49L422.71,16L422.86,281.49L423.07,16L423.16,16L423.7,301.69L423.87,144.26L423.96,39.09L424.46,293.03L424.72,16L424.73,16L425.2,298.81L425.48,16L425.49,16L425.62,284.38L426.21,248.3L426.37,36.2L426.4,293.03L426.41,16L427.12,164.62L427.12,16L427.23,295.92L427.24,278.61L427.39,16L427.75,293.03L428.14,267.06L428.17,53.52L428.21,56.4L428.21,267.06L428.21,301.69L428.27,16L428.96,16L428.97,284.38L428.98,16L429.06,299.53L429.65,16L429.81,140.09L429.81,16L430.37,288.71L430.54,16L430.59,16L430.98,284.38L431.34,194.92L431.45,285.82L431.45,16L431.94,301.69L432.18,183.37L432.21,16L432.74,284.38L433,177.6L433.03,142.97L433.03,16L433.77,298.81L433.77,298.08L433.83,272.83L433.9,16L434.37,287.26L434.55,16L434.63,16L434.9,301.69L435.34,275.72L435.42,16L435.51,264L436.19,114.12L436.19,16L436.19,287.26L436.94,16L436.99,16L437.68,275.72L437.73,160.29L437.79,16L437.82,300.97L438.53,16L438.57,16L439.19,287.26L439.32,160.29L439.33,16L439.92,295.56L440.08,275.72L440.1,16L440.24,271.39L440.82,16L440.84,16L440.9,298.81L441.57,16L441.62,16L442.3,295.92L442.37,16L442.39,16L443,296.86L443.12,284.38L443.15,16L443.2,264.18L443.81,16L443.82,16L444.42,293.03L444.56,76.6L444.61,16L444.69,290.15L445.36,229.55L445.41,266.1L445.41,16L445.81,294.48L446.16,16L446.2,301.69L446.23,16L446.94,16L446.99,16L447.66,285.1L447.74,16L447.79,16L448.17,290.84L448.52,16L448.55,16L448.81,295.92L449.26,16L449.34,16L449.84,275.72L450,16L450.17,79.49L450.19,16L450.54,287.26L450.91,16L450.98,176.16L450.98,16L451.23,284.79L451.69,16L451.76,16L452,295.92L452.5,16L452.56,264.18L452.58,16L452.72,297.94L453.31,16L453.35,16L453.88,273.38L453.94,93.92L454.05,16L454.54,298.81L454.8,16L454.81,16L455.43,296.17L455.51,16L455.6,16L455.77,301.69L456.28,125.66L456.37,117L456.38,16L456.93,278.61L457.05,16L457.13,16L457.46,296.17L457.6,16L457.82,53.52L457.82,16L458.07,298.81L458.55,16L458.58,16L458.73,16L458.73,249.03L458.75,16L458.79,284.38L459.42,278.61L459.49,41.97L459.6,16L460.22,292.31L460.22,160.29L460.25,50.63L460.25,301.69L460.34,16L460.96,252.63L461.03,16L461.4,300.25L461.73,16L461.79,160.29L461.79,16L461.9,301.69L462.52,16L462.58,16L462.79,300.39L463,16L463.08,16L463.1,297.36L463.83,185.75L463.85,36.2L463.99,284.38L464.36,16L464.36,16L464.42,255.52L464.46,16L464.81,295.92L465.17,80.13L465.21,243.98L465.36,16L465.69,278.61L465.95,16L465.99,224.5L466.03,16L466.57,295.92L466.7,16L466.75,16L467.24,299.96L467.46,16L467.54,16L467.67,295.92L468.18,33.31L468.21,16L468.8,295.92L468.93,220.89L469.02,99.69L469.08,284.38L469.7,16L469.7,16L469.81,16L470.31,301.72L470.56,278.61L470.58,16L471.02,285.7L471.31,16L471.33,16L471.39,303.13L472.08,243.82L472.12,39.09L472.46,293.03L472.57,16L472.57,16L472.57,295.92L472.93,298.81L473.34,16L473.34,268.51L474.03,283.78L474.03,16L474.12,39.09L474.15,16L474.33,290.15L474.84,85.26L474.88,16L475.19,293.48L475.63,16L475.66,16L475.86,295.92L476.42,189.15L476.45,131.43L476.68,298.81L477.13,16L477.13,16L477.27,16L477.78,293.48L477.99,16L478.02,16L478.68,282.45L478.75,82.37L478.75,16L478.76,269.95L479.48,163.17L479.5,16L480.17,275.72L480.25,16L480.28,114.12L480.3,16L480.85,298.81L481.03,16L481.13,291.59L481.43,295.2L481.84,16L481.87,71.75L481.96,16L482.27,301.69L482.66,62.17L482.68,16L482.93,282.21L483.17,16L483.18,16L483.79,301.69L483.91,189.15L483.94,16L484.16,303.13L484.66,16L484.79,16L485.07,295.92L485.54,140.09L485.54,16L486.13,301.69L486.3,73.72L486.32,16L486.99,298.92L487.03,229.55L487.11,16L487.66,301.69L487.88,267.06L487.89,53.52L488.16,298.81L488.55,16L488.56,298.81L488.6,16L489.31,16L489.35,192.03L489.43,16L489.99,290.15L490.1,214.4L490.11,16L490.82,295.92L490.91,151.63L490.92,16L491.62,264.18L491.64,200.69L491.7,16L492.11,297.99L492.37,16L492.47,16L492.77,284.38L493.21,272.83L493.25,213.66L493.3,287.26L493.98,16L493.98,16L494.07,180.49L494.07,16L494.65,292.31L494.82,134.32L494.83,255.52L494.84,16L495.13,291.11L495.57,16L495.59,16L495.73,59.29L495.73,16L495.75,261.29L495.78,16L495.91,293.03L496.49,16L496.51,170.92L496.63,298.81L497.09,16L497.09,16L497.1,293.03L497.11,16L497.29,303.13L497.83,238.2L497.86,301.69L498.61,16L498.61,241.09L498.62,215.12L498.64,108.34L498.64,16L498.87,297.36L499.36,140.09L499.43,138.09L499.58,284.38L500.17,16L500.18,264.18L500.18,16L500.85,288.24L500.91,16L500.94,16L501.49,287.26L501.69,272.83L501.7,56.4L501.77,16L501.99,295.92L502.45,16L502.47,241.09L502.5,16L503.04,298.81L503.18,16L503.23,16L503.32,41.97L503.32,278.61L503.32,16L503.33,297.36L504.05,16L504.1,239.65L504.1,16L504.13,301.69L504.85,238.2L504.86,16L505.55,290.15L505.56,120.61L505.64,16L505.81,302.19L506.31,16L506.46,16L506.77,298.81L507.2,154.52L507.23,16L507.98,301.72L507.99,29.74L508,16L508.18,298.81L508.68,232.43L508.69,16L509.38,287.26L509.44,122.77L509.45,16L510.06,288.32L510.19,67.94L510.23,16L510.43,295.92L510.98,243.98L511,76.6" style="vector-effect: non-scaling-stroke; fill: none; stroke: rgb(99, 110, 250); stroke-opacity: 1; stroke-width: 2px; opacity: 1;"/></g><g class="points"/><g class="text"/></g></g></g><g class="overplot"/><path class="xlines-above crisp" d="M0,0" style="fill: none;"/><path class="ylines-above crisp" d="M0,0" style="fill: none;"/><g class="overlines-above"/><g class="xaxislayer-above"><g class="xtick"><text text-anchor="middle" x="0" y="436" transform="translate(198.15,0)" style="font-family: 'Times New Roman'; font-size: 15px; fill: rgb(13, 13, 13); fill-opacity: 1; white-space: pre; opacity: 1;">1.61252×10​<tspan style="font-size:70%" dy="-0.6em">18</tspan><tspan dy="0.42em">​</tspan></text></g><g class="xtick"><text text-anchor="middle" x="0" y="436" style="font-family: 'Times New Roman'; font-size: 15px; fill: rgb(13, 13, 13); fill-opacity: 1; white-space: pre; opacity: 1;" transform="translate(299.56,0)">1.612525×10​<tspan style="font-size:70%" dy="-0.6em">18</tspan><tspan dy="0.42em">​</tspan></text></g><g class="xtick"><text text-anchor="middle" x="0" y="436" style="font-family: 'Times New Roman'; font-size: 15px; fill: rgb(13, 13, 13); fill-opacity: 1; white-space: pre; opacity: 1;" transform="translate(400.98,0)">1.61253×10​<tspan style="font-size:70%" dy="-0.6em">18</tspan><tspan dy="0.42em">​</tspan></text></g><g class="xtick"><text text-anchor="middle" x="0" y="436" style="font-family: 'Times New Roman'; font-size: 15px; fill: rgb(13, 13, 13); fill-opacity: 1; white-space: pre; opacity: 1;" transform="translate(502.4,0)">1.612535×10​<tspan style="font-size:70%" dy="-0.6em">18</tspan><tspan dy="0.42em">​</tspan></text></g><g class="xtick"><text text-anchor="middle" x="0" y="436" style="font-family: 'Times New Roman'; font-size: 15px; fill: rgb(13, 13, 13); fill-opacity: 1; white-space: pre; opacity: 1;" transform="translate(603.81,0)">1.61254×10​<tspan style="font-size:70%" dy="-0.6em">18</tspan><tspan dy="0.42em">​</tspan></text></g></g><g class="yaxislayer-above"><g class="ytick"><text text-anchor="end" x="108" y="12.25" transform="translate(0,404.58)" style="font-family: 'Times New Roman'; font-size: 35px; fill: rgb(13, 13, 13); fill-opacity: 1; white-space: pre; opacity: 1;">0</text></g><g class="ytick"><text text-anchor="end" x="108" y="12.25" style="font-family: 'Times New Roman'; font-size: 35px; fill: rgb(13, 13, 13); fill-opacity: 1; white-space: pre; opacity: 1;" transform="translate(0,346.86)">20</text></g><g class="ytick"><text text-anchor="end" x="108" y="12.25" style="font-family: 'Times New Roman'; font-size: 35px; fill: rgb(13, 13, 13); fill-opacity: 1; white-space: pre; opacity: 1;" transform="translate(0,289.15)">40</text></g><g class="ytick"><text text-anchor="end" x="108" y="12.25" style="font-family: 'Times New Roman'; font-size: 35px; fill: rgb(13, 13, 13); fill-opacity: 1; white-space: pre; opacity: 1;" transform="translate(0,231.43)">60</text></g><g class="ytick"><text text-anchor="end" x="108" y="12.25" style="font-family: 'Times New Roman'; font-size: 35px; fill: rgb(13, 13, 13); fill-opacity: 1; white-space: pre; opacity: 1;" transform="translate(0,173.72)">80</text></g><g class="ytick"><text text-anchor="end" x="108" y="12.25" style="font-family: 'Times New Roman'; font-size: 35px; fill: rgb(13, 13, 13); fill-opacity: 1; white-space: pre; opacity: 1;" transform="translate(0,116)">100</text></g></g><g class="overaxes-above"/></g></g><g class="polarlayer"/><g class="smithlayer"/><g class="ternarylayer"/><g class="geolayer"/><g class="funnelarealayer"/><g class="pielayer"/><g class="iciclelayer"/><g class="treemaplayer"/><g class="sunburstlayer"/><g class="glimages"/><defs id="topdefs-a3cafe"><g class="clips"/></defs><g class="layer-above"><g class="imagelayer"/><g class="shapelayer"/></g><g class="infolayer"><g class="g-gtitle"/><g class="g-xtitle"><text class="xtitle" x="364.5" y="463.8" text-anchor="middle" style="font-family: 'Open Sans', verdana, arial, sans-serif; font-size: 14px; fill: rgb(42, 63, 95); opacity: 1; font-weight: normal; white-space: pre;">Time Steps (ns)</text></g><g class="g-ytitle" transform="translate(23.5,0)"><text class="ytitle" transform="rotate(-90,12.5,260)" x="12.5" y="260" text-anchor="middle" style="font-family: 'Times New Roman'; font-size: 40px; fill: rgb(13, 13, 13); opacity: 1; font-weight: normal; white-space: pre;">Fill rate (in %)</text></g></g></svg>