<svg class="main-svg" xmlns="http://www.w3.org/2000/svg" xmlns:xlink="http://www.w3.org/1999/xlink" width="700" height="500" style="" viewBox="0 0 700 500"><rect x="0" y="0" width="700" height="500" style="fill: rgb(255, 255, 255); fill-opacity: 1;"/><defs id="defs-60d991"><g class="clips"><clipPath id="clip60d991xyplot" class="plotclip"><rect width="511" height="320"/></clipPath><clipPath class="axesclip" id="clip60d991x"><rect x="109" y="0" width="511" height="500"/></clipPath><clipPath class="axesclip" id="clip60d991y"><rect x="0" y="100" width="700" height="320"/></clipPath><clipPath class="axesclip" id="clip60d991xy"><rect x="109" y="100" width="511" height="320"/></clipPath></g><g class="gradients"/><g class="patterns"/></defs><g class="bglayer"><rect class="bg" x="109" y="100" width="511" height="320" style="fill: rgb(229, 236, 246); fill-opacity: 1; stroke-width: 0;"/></g><g class="layer-below"><g class="imagelayer"/><g class="shapelayer"/></g><g class="cartesianlayer"><g class="subplot xy"><g class="layer-subplot"><g class="shapelayer"/><g class="imagelayer"/></g><g class="minor-gridlayer"><g class="x"/><g class="y"/></g><g class="gridlayer"><g class="x"><path class="xgrid crisp" transform="translate(198.19,0)" d="M0,100v320" style="stroke: rgb(255, 255, 255); stroke-opacity: 1; stroke-width: 1px;"/><path class="xgrid crisp" transform="translate(299.59000000000003,0)" d="M0,100v320" style="stroke: rgb(255, 255, 255); stroke-opacity: 1; stroke-width: 1px;"/><path class="xgrid crisp" transform="translate(400.99,0)" d="M0,100v320" style="stroke: rgb(255, 255, 255); stroke-opacity: 1; stroke-width: 1px;"/><path class="xgrid crisp" transform="translate(502.39,0)" d="M0,100v320" style="stroke: rgb(255, 255, 255); stroke-opacity: 1; stroke-width: 1px;"/><path class="xgrid crisp" transform="translate(603.79,0)" d="M0,100v320" style="stroke: rgb(255, 255, 255); stroke-opacity: 1; stroke-width: 1px;"/></g><g class="y"><path class="ygrid crisp" transform="translate(0,346.98)" d="M109,0h511" style="stroke: rgb(255, 255, 255); stroke-opacity: 1; stroke-width: 1px;"/><path class="ygrid crisp" transform="translate(0,289.23)" d="M109,0h511" style="stroke: rgb(255, 255, 255); stroke-opacity: 1; stroke-width: 1px;"/><path class="ygrid crisp" transform="translate(0,231.49)" d="M109,0h511" style="stroke: rgb(255, 255, 255); stroke-opacity: 1; stroke-width: 1px;"/><path class="ygrid crisp" transform="translate(0,173.74)" d="M109,0h511" style="stroke: rgb(255, 255, 255); stroke-opacity: 1; stroke-width: 1px;"/><path class="ygrid crisp" transform="translate(0,116)" d="M109,0h511" style="stroke: rgb(255, 255, 255); stroke-opacity: 1; stroke-width: 1px;"/></g></g><g class="zerolinelayer"><path class="yzl zl crisp" transform="translate(0,404.72)" d="M109,0h511" style="stroke: rgb(255, 255, 255); stroke-opacity: 1; stroke-width: 2px;"/></g><path class="xlines-below"/><path class="ylines-below"/><g class="overlines-below"/><g class="xaxislayer-below"/><g class="yaxislayer-below"/><g class="overaxes-below"/><g class="plot" transform="translate(109,100)" clip-path="url(#clip60d991xyplot)"><g class="scatterlayer mlayer"><g class="trace scatter trace410d2b" style="stroke-miterlimit: 2; opacity: 1;"><g class="fills"/><g class="errorbars"/><g class="lines"><path class="js-line" d="M0,16L0.54,16L0.54,16L0.58,195.01L1.15,261.41L1.38,16L1.42,157L1.9,254.92L2.06,16L2.06,16L2.12,293.17L2.13,16L2.4,298.95L2.85,16L2.88,16L2.99,284.51L3.63,105.5L3.65,16L4.06,285.95L4.37,16L4.42,16L4.83,296.06L5.15,16L5.19,16L5.38,16L5.42,301.83L5.42,16L6.16,16L6.24,16L6.68,301.83L6.98,16L7.03,16L7.59,298.95L7.73,205.22L7.93,16L8.61,276.57L8.65,16L8.69,16L9.17,296.31L9.39,223.88L9.45,254.94L9.53,287.4L9.73,16L10.07,16L10.32,209.44L10.32,16L10.65,301.83L11.02,253.47L11.16,16L11.84,278.74L11.94,183.46L11.94,16L12.49,296.81L12.67,16L12.76,16L12.96,16L13.01,82.41L13.01,16L13.56,298.95L13.76,278.74L13.81,41.98L13.81,16L13.93,301.83L14.54,249.86L14.58,70.86L14.63,16L14.9,270.08L15.15,76.63L15.34,44.87L15.34,16L15.8,293.17L16.09,16L16.12,16L16.14,262.69L16.87,16L16.95,16L17.17,275.85L17.7,177.15L17.71,264.3L17.71,16L17.94,287.4L18.41,287.4L18.49,16L18.64,293.17L19.23,220.99L19.27,16L19.62,296.06L20.04,272.96L20.04,47.76L20.26,249.86L20.42,16L20.45,195.01L20.46,293.17L20.48,298.95L21.16,16L21.16,192.12L21.24,281.76L21.26,16L21.76,290.29L21.91,16L22.04,27.55L22.07,16L22.63,294.88L22.74,16L22.88,16L22.89,293.17L23.38,192.12L23.41,16L23.58,16L23.63,215.22L23.67,16L23.67,300.6L24.38,137.26L24.4,16L24.75,281.62L25.14,16L25.18,16L25.32,301.83L25.84,160.36L25.84,16L26.37,287.22L26.56,16L26.64,16L26.96,296.06L27.36,238.32L27.54,16L27.8,275.85L28.2,140.15L28.24,16L28.41,16L28.44,119.94L28.46,16L28.46,287.74L29.03,16L29.29,255.64L29.35,16L29.51,277.29L29.98,16L30.08,16L30.23,296.06L30.81,16L30.86,16L31.44,298.95L31.58,125.71L31.64,16L32.33,293.17L32.34,176.24L32.41,16L32.8,290.29L33.16,16L33.19,274.41L33.23,16L33.51,301.83L33.86,16L33.97,16L34.17,47.76L34.17,272.96L34.37,281.62L34.89,16L34.89,16L34.96,16L35.6,270.08L35.68,16L35.77,16L36.19,278.74L36.4,16L36.43,16L36.77,272.96L37.2,195.01L37.2,125.71L37.2,16L37.24,288.84L37.89,16L38.03,16L38.14,298.38L38.73,16L38.8,105.5L38.89,16L39.01,294.17L39.55,223.52L39.57,93.95L40.19,252.75L40.31,16L40.31,16L40.32,160.36L40.32,16L40.68,270.08L41.04,16L41.13,16L41.21,27.55L41.21,293.17L41.83,16L41.93,108.39L41.93,212.33L41.99,290.29L41.99,16L42.64,62.2L42.77,168.85L42.77,16L42.97,301.83L43.51,16L43.54,41.98L43.56,16L43.98,298.95L44.27,290.29L44.37,16L44.57,296.78L45.07,102.62L45.09,16L45.79,293.17L45.83,166.14L45.92,154.59L45.94,16L46.47,293.17L46.66,293.17L46.69,16L46.95,290.29L47.39,16L47.46,16L47.63,284.51L48.24,206.56L48.25,114.17L48.33,16L48.77,296.06L48.96,183.46L48.96,16L49.69,270.08L49.71,50.65L49.75,16L50.03,282.35L50.5,16L50.53,16L50.79,287.4L51.27,275.85L51.29,16L51.51,287.4L52.05,232.54L52.05,16L52.27,299.06L52.7,16L52.83,21.77L52.97,301.83L53.13,16L53.13,237.59L53.14,284.51L53.14,16L53.8,287.4L53.88,16L53.91,301.83L54.08,16L54.51,304L54.63,16L54.72,16L54.94,301.51L55.41,16L55.5,16L56.14,267.19L56.25,267.19L56.27,16L56.78,301.86L56.8,296.06L56.83,16L56.88,301.86L57.56,301.83L57.58,16L58.09,304L58.33,73.74L58.34,16L58.63,287.4L59.16,278.74L59.16,16L59.69,296.06L59.93,148.81L59.95,85.29L60.64,301.83L60.66,16L60.66,16L60.69,301.83L61.34,16L61.39,73.74L61.47,301.83L61.47,16L62.22,197.89L62.23,82.41L62.23,16L62.23,284.51L62.96,16L63.02,96.84L63.02,16L63.25,290.29L63.72,16L63.78,16L63.91,283.36L64.51,16L64.56,229.4L65.05,300.39L65.3,16L65.33,301.83L65.69,303.28L66.1,16L66.11,16L66.3,284.51L66.81,166.14L66.87,16L67.05,296.31L67.52,16L67.66,16L68.33,291.75L68.41,16L68.44,293.89L69.19,16L69.19,16L69.22,16L69.38,281.62L69.97,195.01L70,16L70.73,301.11L70.73,154.59L70.76,16L71.36,299.34L71.46,29.59L71.54,134.38L71.54,16L71.54,296.06L72.26,16L72.3,16L72.44,290.29L73,16L73.11,281.62L73.11,16L73.49,298.95L73.81,41.98L73.87,16L74.56,296.06L74.65,16L74.68,293.17L75.41,160.36L75.41,16L76.02,298.95L76.17,154.59L76.17,16L76.52,298.95L76.85,127.36L76.94,16L77.42,275.85L77.69,16L77.75,16L78.25,293.89L78.45,76.63L78.52,16L78.68,264.3L78.84,56.42L78.93,16L79.12,16L79.12,284.51L79.14,16L79.19,298.95L79.84,44.87L79.92,16L80.67,296.06L80.67,24.66L80.71,16L81.38,303.28L81.43,16L81.48,16L81.88,290.29L82.23,56.42L82.24,16L82.26,296.06L82.96,16L83,16L83.74,301.83L83.74,16L83.75,39.1L83.92,293.17L84.16,16L84.3,53.53L84.31,267.19L84.31,16L84.93,287.4L85.05,33.32L85.1,203.67L85.15,16L85.85,290.29L85.85,70.86L85.98,16L86.15,183.46L86.15,16L86.42,301.83L86.9,244.99L86.94,124.75L87.24,303.45L87.7,16L87.7,108.39L87.71,16L87.72,296.06L88.42,39.1L88.47,16L89.1,293.17L89.21,192.12L89.23,16L89.84,285.95L89.98,244.09L89.99,76.63L89.99,16L90.74,293.17L90.78,180.57L91.32,288.12L91.53,16L91.66,16L92.37,298.95L92.42,99.73L92.47,220.99L92.69,293.17L93.21,16L93.25,166.14L93.32,154.59L93.32,166.14L93.34,16L93.59,301.83L94.05,200.78L94.15,16L94.87,296.06L94.87,16L94.92,16L95.27,301.83L95.31,281.93L95.32,16L95.52,301.83L96.06,191.74L96.13,67.97L96.3,275.85L96.54,16L96.58,189.23L96.69,246.98L96.69,16L97.07,299.67L97.41,287.4L97.45,108.39L97.54,296.06L98.16,16L98.19,114.17L98.19,293.17L98.82,16L98.87,102.62L98.98,65.08L98.98,16L99.32,288.68L99.73,117.05L99.8,293.17L99.82,16L100.51,296.06L100.52,16L100.56,16L100.67,298.95L101.29,16L101.34,16L101.7,304L102.07,264.3L102.1,16L102.58,301.83L102.82,275.85L102.9,16L102.91,275.85L103.64,16L103.68,288.38L103.68,16L104.42,44.87L104.45,51.64L104.47,16L104.6,272.24L105.15,171.91L105.25,16L105.6,16L105.64,157.47L105.76,16L106.32,290.29L106.41,16L106.61,301.83L107.15,88.18L107.17,50.65L107.21,16L107.52,296.06L107.86,16L108.08,16L108.29,16L108.29,16L108.3,212.33L108.3,16L108.96,301.83L108.96,293.17L109.07,16L109.79,266.23L109.8,117.05L109.9,16L110.51,301.83L110.66,164.74L110.66,154.59L111.15,290.29L111.4,16L111.4,16L111.43,151.7L111.49,16L112.18,298.95L112.19,16L112.9,297.55L112.94,244.81L112.99,36.21L113.05,298.23L113.12,16L113.74,226.77L113.74,27.4L113.86,16L114.09,298.95L114.42,235.43L114.53,16L115.27,296.06L115.3,16L115.9,297.5L116.05,200.78L116.07,200.78L116.32,287.4L116.82,16L116.82,160.36L116.87,16L117.48,299.06L117.59,16L117.64,16L117.93,16L117.93,16L117.93,160.36L117.98,284.51L117.99,16L118.64,16L118.73,16L119.01,287.4L119.43,235.43L119.47,16L119.63,298.95L120.22,16L120.24,21.77L120.3,16L120.31,299.91L120.94,16L121.12,16L121.64,284.51L121.68,111.28L121.68,16L121.7,284.51L122.37,16L122.48,88.18L122.5,16L122.53,298.95L123.18,16L123.27,16L124.04,281.62L124.04,39.1L124.42,297.02L124.76,16L124.81,16L125.21,293.17L125.55,16L125.61,180.57L125.67,16L125.79,299.67L126.34,223.88L126.35,91.07L126.35,16L126.8,300.87L127.05,16L127.11,16L127.13,21.77L127.13,298.95L127.91,16L127.91,16L127.99,16L127.99,301.86L128.72,35.25L128.76,16L128.83,300.39L129.51,16L129.56,16L129.76,301.86L130.32,218.11L130.35,16L131.01,293.17L131.08,16L131.11,218.11L131.11,16L131.23,284.51L131.86,102.62L131.87,218.11L131.87,16L132,284.51L132.62,16L132.64,248.39L133.09,301.83L133.38,16L133.38,16L133.44,16L134.09,261.41L134.14,218.11L134.21,16L134.83,278.02L134.97,90.37L134.98,16L135.64,284.51L135.71,16L135.78,16L136.45,301.86L136.53,161.79L136.55,16L137.23,290.29L137.31,16L137.68,298.95L138.05,37.65L138.07,16L138.66,291.73L138.81,16L138.84,16L139.2,293.17L139.57,41.98L139.62,278.74L139.83,301.83L140.32,16L140.4,36.21L140.4,284.51L141.16,16L141.16,16L141.16,293.17L141.69,299.06L141.93,16L141.93,21.77L141.97,16L142.35,301.83L142.67,73.74L142.69,16L143.04,287.4L143.33,180.57L143.33,16L143.49,16L143.5,212.33L143.51,287.4L143.59,16L144.25,59.31L144.3,16L145.02,296.06L145.02,32.82L145.04,24.66L145.09,16L145.09,298.23L145.82,296.06L145.89,273.68L146.01,16L146.19,286.68L146.59,16L146.65,16L147.15,301.83L147.39,16L147.41,16L147.83,296.06L148.06,292.94L148.12,16L148.16,287.4L148.87,223.88L148.95,16L149.51,281.62L149.66,99.73L149.71,275.85L149.71,16L149.84,290.29L150.44,16L150.47,189.23L150.68,16L150.74,296.06L151.2,174.8L151.24,264.44L151.5,287.4L151.86,16L151.96,274.41L152.07,252.75L152.07,16L152.16,284.51L152.8,134.38L152.87,186.35L152.92,16L153.3,297.5L153.62,16L153.66,275.85L153.7,16L153.86,286.68L154.4,16L154.45,85.29L154.51,16L154.56,290.29L155.16,16L155.21,16L155.25,290.29L155.92,65.08L155.97,16L156.11,267.19L156.63,16L156.7,33.32L156.7,16L157.03,301.83L157.42,16L157.57,16L157.91,287.4L158.17,16L158.21,16L158.97,296.06L158.98,208L159,114.17L159.03,16L159.66,301.83L159.75,16L159.81,160.36L159.85,163.25L159.85,238.32L159.89,16L159.98,298.95L160.58,16L160.63,296.06L161.34,16L161.36,298.95L161.37,21.77L161.4,261.41L161.8,301.83L162.13,16L162.14,148.81L162.17,16L162.91,293.89L162.92,16L162.97,53.53L163.03,16L163.71,284.51L163.72,16L163.83,270.08L163.84,16L164.26,301.83L164.58,16L164.64,76.63L164.64,16L165.11,273.68L165.34,16L165.4,16L165.9,294.29L166.12,182.02L166.13,16L166.75,292.45L166.88,16L166.97,16L167.57,284.51L167.69,16L167.71,16L167.98,298.95L168.46,16L168.48,16L169.12,294.62L169.22,202.23L169.24,300.71L169.24,16L169.99,267.19L170.01,203.67L170.01,16L170.13,293.89L170.7,235.43L170.78,301.86L170.78,16L171.52,16L171.54,16L172.25,296.06L172.31,55.37L172.7,16L172.71,187.79L172.71,249.86L172.98,296.06L173.44,16L173.45,149.39L173.48,210.17L173.53,206.56L173.55,16L174.24,297.84L174.31,278.74L174.32,16L174.56,296.06L175.07,41.98L175.11,16L175.43,300.03L175.84,189.23L175.86,78.43L175.91,16L176.05,293.89L176.58,16L176.69,16L176.87,16L176.87,59.31L177.12,298.95L177.54,16L177.54,197.89L177.74,16L178.13,300.39L178.29,16L178.34,275.85L178.65,293.17L179.13,16L179.13,16L179.23,16L179.31,290.29L179.95,267.19L180.02,53.53L180.22,275.85L180.71,16L180.73,44.87L180.73,275.85L181.21,301.83L181.47,16L181.47,16L181.5,296.06L181.53,16L181.68,298.95L182.25,183.46L182.3,16L183.05,281.62L183.06,16L183.37,272.24L183.72,16L183.74,16L183.88,296.06L184,16L184.13,16L184.84,293.17L184.88,82.41L184.89,16L184.95,298.95L185.62,16L185.7,16L185.8,298.95L186.45,16L186.56,255.64L186.56,16L187.06,296.06L187.31,16L187.33,16L187.91,301.83L188.07,44.87L188.11,16L188.86,292.85L188.89,16L189.58,294.62L189.6,96.84L189.63,16L190.26,301.83L190.28,16L190.39,33.32L190.39,287.4L190.4,16L190.74,301.83L191.08,16L191.21,16L191.79,290.29L191.95,16L191.97,281.62L191.97,16L192.5,290.29L192.71,151.7L192.73,30.44L192.73,16L192.81,301.83L193.48,16L193.49,16L193.6,296.06L194.24,203.67L194.26,16L194.56,255.64L194.99,16L195.03,16L195.23,16L195.23,16L195.24,165.34L195.27,16L195.93,302.56L195.98,251.31L196.03,122.83L196.08,301.78L196.63,16L196.77,285.95L196.77,16L197.52,16L197.55,160.36L197.55,16L198,298.23L198.28,16L198.31,16L198.65,300.39L199.07,157.47L199.1,16L199.28,16L199.28,163.25L199.28,16L199.9,297.5L199.99,16L200.07,244.09L200.12,16L200.25,301.83L200.54,183.46L200.54,16L200.6,300.39L201.22,53.53L201.29,16L201.48,16L201.48,302.56L202.25,16L202.25,16L202.26,166.14L202.91,301.83L202.99,16L202.99,16L203.08,16L203.77,304L203.77,194.15L203.85,16L204.25,301.83L204.6,62.2L204.65,16L204.76,301.83L205.32,270.08L205.38,16L205.53,301.83L206.13,36.21L206.15,16L206.65,296.06L206.88,238.32L206.91,16L207.66,296.06L207.68,278.74L207.69,16L207.84,286.68L208.25,16L208.36,16L208.42,297.5L209.08,33.32L209.13,209.44L209.4,290.29L209.79,16L209.84,160.36L209.84,301.83L210.62,16L210.68,166.14L210.75,16L211.1,301.83L211.43,117.05L211.45,203.67L211.45,16L211.62,290.64L212.2,16L212.21,293.17L213.06,16L213.07,215.22L213.18,16L213.65,299.47L213.78,296.06L213.84,16L214.15,291.73L214.58,16L214.6,16L215.34,281.62L215.38,249.86L215.38,40.65L215.41,16L215.46,302.99L216.04,16L216.15,16L216.64,296.06L216.9,16L216.96,16L217.31,302.56L217.69,21.77L217.79,16L218.12,301.83L218.56,287.4L218.56,44.87L218.57,16L219.27,301.83L219.3,16L219.39,18.89L219.39,301.83L219.47,16L220.13,229.65L220.18,16L220.38,298.95L220.93,281.62L220.95,249.86L220.95,16L221.46,291.01L221.7,16L221.78,16L221.92,287.4L222.27,275.13L222.34,16L222.73,301.83L223.09,16L223.13,16L223.62,296.06L223.7,160.36L223.7,16L223.76,281.62L224.43,16L224.49,16L224.52,21.77L224.52,298.95L224.63,16L225.25,151.7L225.31,16L225.71,301.83L226.07,125.71L226.07,16L226.79,296.06L226.81,261.41L226.83,16L226.96,102.62L226.96,218.11L226.99,287.4L227.69,16L227.69,16L227.72,261.41L227.77,298.95L228.43,16L228.43,16L228.49,241.2L228.52,16L228.84,296.59L229.22,250.1L229.27,284.51L229.37,16L230,297.5L230,30.44L230.08,16L230.4,301.86L230.78,102.06L230.87,16L231.16,299.06L231.53,16L231.67,16L232.08,303.76L232.08,258.53L232.08,16L232.59,287.4L232.81,16L232.84,16L233.26,301.83L233.59,16L233.62,50.65L233.82,293.17L234.26,16L234.26,16L234.27,270.08L234.27,16L234.98,296.06L235.02,159.29L235.03,267.19L235.04,16L235.51,290.29L235.78,16L235.79,16L236.39,294.03L236.54,53.53L236.6,16L237.17,298.95L237.35,16L237.39,298.95L237.39,16L238.05,50.65L238.15,16L238.54,301.28L238.92,160.36L238.99,16L239.51,301.83L239.63,16L239.73,16L240.17,16L240.17,208.48L240.55,296.78L240.93,16L240.93,288.84L241.02,298.58L241.69,16L241.73,16L242.17,301.83L242.47,21.77L242.56,16L243.03,298.95L243.35,209.44L243.35,111.28L243.35,16L244.01,302.17L244.1,16L244.12,42.79L244.46,301.83L244.63,16L244.68,56.42L244.68,294.62L244.68,16L245.31,298.95L245.42,267.19L245.5,16L245.53,298.95L246.25,16L246.26,16L246.44,16L246.44,16L246.45,119.94L246.47,16L247.18,301.86L247.2,16L247.22,67.97L247.22,16L247.31,301.86L247.87,284.51L247.98,128.28L247.98,16L248.57,296.78L248.7,16L248.75,30.44L248.87,16L249.23,296.06L249.5,16L249.54,249.86L249.58,16L250.08,296.06L250.25,244.81L250.33,16L250.99,292.45L251.07,223.88L251.11,16L251.73,281.62L251.82,267.19L251.86,160.36L251.86,16L252.29,296.06L252.61,180.57L252.63,169.02L253.14,302.56L253.32,16L253.32,33.32L253.41,287.4L253.71,296.06L254.05,16L254.05,16L254.18,16L254.96,298.95L254.98,21.77L254.98,16L255.51,298.95L255.69,16L255.75,137.26L255.77,16L256.05,296.7L256.49,117.05L256.62,203.67L256.87,290.29L257.38,16L257.38,226.77L257.38,16L257.89,275.85L258.11,16L258.15,229.65L258.76,300.82L258.9,16L258.9,16L258.96,114.17L258.96,16L259.25,298.95L259.71,16L259.77,16L260.29,301.83L260.39,259.13L260.52,16L261.2,290.97L261.26,241.2L261.37,169.02L261.91,301.83L262.13,16L262.13,16L262.14,303.28L262.14,16L262.85,16L262.94,16L263.32,290.29L263.68,16L263.71,16L264.26,300.39L264.46,16L264.51,166.14L264.71,290.29L265.16,16L265.22,238.32L265.27,255.64L265.87,296.06L266.02,16L266.02,16L266.06,270.08L266.7,296.06L266.82,16L266.82,274.72L266.82,16L267.17,298.95L267.56,144.32L267.71,16L267.85,301.2L268.27,16L268.3,16L268.75,301.83L269.02,16L269.07,203.67L269.1,16L269.82,272.64L269.84,195.01L269.84,16L270.44,301.83L270.59,256.6L270.62,229.87L270.62,284.51L270.63,16L271.36,264.3L271.4,16L271.79,298.95L272.13,235.43L272.15,16L272.9,292.69L272.96,175.44L272.97,16L273.49,290.29L273.54,100.92L273.68,16L274.11,281.62L274.14,160.36L274.16,16L274.65,298.95L274.9,239.1L274.94,16L275.34,298.95L275.59,96.84L275.76,16L275.77,299.67L276.51,103.75L276.57,16L276.76,16L276.76,16L276.82,220.99L277.5,267.19L277.56,16L277.56,16L277.6,16L277.82,16L277.87,130.05L277.9,16L278.2,298.95L278.6,119.94L278.63,16L278.8,16L278.8,160.36L279.08,295.7L279.51,16L279.51,16L279.57,232.54L279.58,16L279.91,255.64L280.29,16L280.34,16L280.89,278.74L281.03,21.77L281.07,16L281.71,303.28L281.8,163.25L281.83,195.08L282.08,272.24L282.57,16L282.6,148.81L282.64,16L282.69,290.29L283.35,16L283.36,16L283.78,293.17L284.1,34.77L284.12,16L284.85,298.95L284.85,16L284.94,16L285.4,301.83L285.69,88.18L285.71,85.29L285.77,16L286.4,281.62L286.48,229.65L286.48,16L286.64,278.74L287.2,272.96L287.28,47.76L287.28,16L287.64,272.96L288,236.87L288.06,267.19L288.19,287.4L288.76,16L288.76,16L288.83,189.23L289.37,279.46L289.48,16L289.62,16L289.84,285.95L290.32,16L290.45,189.23L290.71,301.83L291.18,16L291.25,102.62L291.28,16L291.31,287.4L292,16L292.02,16L292.14,293.17L292.78,256.6L292.8,16L293.47,298.95L293.55,114.17L293.61,170.92L293.63,16L294.02,301.83L294.27,203.67L294.39,88.18L294.41,16L294.94,281.62L295.1,16L295.24,16L295.5,281.62L295.96,16L295.99,16L295.99,281.62L296.72,96.84L296.8,223.88L296.91,16L296.92,284.51L297.55,18.89L297.56,301.83L297.59,16L298.31,59.31L298.34,261.41L298.89,296.78L299,16L299,218.11L299.05,16L299.47,301.83L299.74,33.32L299.79,287.4L299.79,16L299.96,292.45L300.54,16L300.55,16L300.55,299.67L301.3,16L301.32,290.29L302.01,303.97L302.09,16L302.09,16L302.09,248.42L302.29,303.28L302.85,16L302.85,16L302.87,16L303.31,271.51L303.56,16L303.59,16L304.21,290.29L304.34,273.79L304.35,270.08L304.38,16L304.41,271.04L305.1,258.53L305.11,296.06L305.11,16L305.85,232.54L305.89,134.38L306.1,288.84L306.61,16L306.61,16L306.64,294.62L306.64,16L307.09,296.78L307.37,16L307.45,70.86L307.45,16L307.45,301.2L308.18,44.59L308.21,16L308.54,285.95L308.9,16L308.98,16L309.73,300.39L309.73,16L309.76,16L310.21,296.06L310.46,212.33L310.53,16L310.69,298.95L311.21,160.36L311.27,16L311.56,296.06L311.98,218.44L312,16L312.59,304L312.71,33.32L312.72,16L313.37,293.17L313.47,284.51L313.48,16L313.55,298.23L314.23,117.05L314.29,16L314.65,293.17L315.05,245.53L315.05,16L315.39,277.29L315.82,267.19L315.83,53.53L316.34,302.17L316.49,16L316.49,235.74L316.77,264.3L317.17,16L317.26,69.94L317.28,91.07L317.37,16L317.49,272.24L318.01,255.64L318.08,154.35L318.11,16L318.68,296.06L318.81,31.52L318.85,261.41L318.88,16L319.43,301.83L319.6,82.41L319.61,238.32L320.22,303.28L320.36,16L320.36,160.36L320.38,131.49L320.41,16L320.86,301.83L321.06,16L321.11,16L321.76,250.73L321.82,160.36L321.84,16L322.25,296.06L322.58,16L322.65,16L323.28,294.62L323.41,223.88L323.43,16L323.54,293.89L324.15,125.71L324.23,53.53L324.24,16L324.38,301.86L324.98,65.08L325.09,16L325.36,303.28L325.83,21.77L325.85,16L326.55,290.29L326.58,169.02L326.66,16L327.09,296.06L327.39,267.19L327.39,16L327.83,296.06L328.14,189.23L328.14,16L328.28,298.95L328.7,16L328.76,16L328.92,16L328.94,277.29L328.97,290.29L329.65,16L329.66,235.43L329.74,235.43L329.76,16L329.83,284.51L330.45,16L330.55,16L330.96,294.62L331.26,16L331.36,16L331.6,16L331.63,50.65L331.68,290.29L331.68,16L332.25,140.15L332.39,16L333.15,296.06L333.15,16L333.16,296.06L333.9,16L333.92,16L334.25,281.62L334.66,16L334.68,16L334.97,303.28L335.04,275.85L335.08,16L335.85,301.86L335.86,88.18L335.9,16L336.45,285.95L336.56,38.79L336.67,218.11L336.75,16L337,290.29L337.42,41.98L337.49,16L337.96,304L338.25,160.36L338.28,16L338.76,298.95L338.87,16L339.02,16L339.74,296.06L339.74,82.41L339.79,16L339.82,20.33L339.83,209.44L339.84,16L340.53,288.84L340.58,16L340.59,27.55L340.68,16L340.72,293.17L341.27,267.19L341.37,16L342,300.39L342.08,16L342.1,16L342.1,299.06L342.8,16L342.87,16L342.91,285.95L343.62,16L343.65,16L344.26,296.06L344.42,245.57L344.43,16L345.02,301.83L345.11,275.85L345.11,16L345.41,298.95L345.75,58.77L345.76,16L346.31,281.62L346.49,16L346.53,16L347.21,275.85L347.32,232.54L347.32,16L347.94,296.1L348.07,271.59L348.09,105.5L348.15,299.27L348.84,16L348.84,36.21L348.85,102.62L349.27,290.29L349.53,16L349.53,239.76L349.53,16L349.96,303.28L350.27,50.65L350.33,270.08L350.33,16L350.35,298.95L351.08,238.32L351.1,82.41L351.12,16L351.24,283.79L351.85,16L351.9,16L351.93,298.95L352.55,16L352.62,16L352.7,24.66L352.7,296.06L353.02,304L353.45,16L353.48,16L353.59,270.08L353.99,122.83L354.02,16L354.08,299.06L354.77,16L354.8,16L355.35,302.02L355.57,218.11L355.57,16L355.86,290.29L356.29,16L356.39,16L356.41,269.64L357.11,16L357.17,16L357.76,298.95L357.9,41.98L358.01,16L358.76,301.83L358.76,16L358.78,18.89L358.83,16L358.83,16L358.87,301.83L359.63,16L359.63,16L359.68,297.41L359.75,16L360.28,301.83L360.43,62.2L360.46,16L360.85,299.77L361.24,244.09L361.29,16L361.85,297.5L362.05,91.07L362.05,16L362.54,290.29L362.76,192.12L362.8,16L362.99,16L362.99,235.43L362.99,16L362.99,295.34L363.72,195.01L363.76,272.96L363.76,16L364.22,281.62L364.51,281.62L364.57,39.1L364.71,16L365.25,293.17L365.32,16L365.37,16L365.56,298.95L366.11,16L366.14,16L366.23,298.95L366.85,16L366.92,79.52L367.03,16L367.52,291.73L367.66,246.98L367.7,16L368.44,293.17L368.54,27.55L368.61,293.17L368.98,16L368.99,157.47L369.08,274.41L369.33,293.17L369.73,16L369.8,131.49L369.92,16L370.66,301.24L370.75,298.95L370.76,241.2L370.81,16L371.45,298.95L371.51,177.68L371.54,16L371.72,47.76L371.72,16L371.72,288.84L372.1,303.28L372.48,16L372.53,16L372.59,301.86L373.28,65.08L373.29,252.23L373.32,16L373.96,298.95L373.99,290.29L374.05,16L374.8,301.83L374.8,161.8L374.83,18.89L374.86,16L375.09,291.73L375.58,16L375.62,16L375.96,288.84L376.36,134.38L376.38,16L376.87,296.06L377.12,16L377.17,16L377.43,301.83L377.91,241.2L377.96,16L378.2,298.95L378.65,16L378.72,36.21L378.8,16L378.95,301.83L379.45,249.86L379.49,16L379.76,298.95L380.14,287.4L380.28,16L380.73,301.86L380.99,174.8L381.05,16L381.31,303.28L381.8,16L381.83,16L382.29,285.83L382.58,16L382.63,244.81L382.65,298.95L382.72,16L383.37,232.54L383.39,88.18L383.43,16L383.97,301.83L384.11,79.52L384.16,164.69L384.63,296.06L384.88,16L384.88,24.66L384.88,268.63L385.42,296.06L385.6,16L385.65,232.54L386.07,291.73L386.43,16L386.44,134.38L386.44,186.35L386.52,298.95L387.14,16L387.17,246.98L387.27,16L387.45,16L387.45,16L387.53,281.62L387.53,16L388.23,226.77L388.3,16L388.5,290.29L389.01,260.3L389.06,16L389.37,262.17L389.8,160.36L389.81,16L390.52,283.07L390.56,160.36L390.62,16L390.86,16L390.86,160.36L391.33,278.74L391.46,16L391.5,291.73L391.5,16L391.69,296.06L392.24,185.71L392.26,16L392.32,298.95L392.98,16L393.11,244.09L393.14,16L393.37,294.62L393.86,16L393.93,16L394.3,291.73L394.65,16L394.71,16L394.74,290.29L394.93,208.48L394.93,16L395.12,290.29L395.58,160.36L395.64,16L396.04,293.17L396.38,229.65L396.45,16L396.74,301.83L397.17,16L397.21,81.9L397.23,16L397.28,267.19L397.94,16L397.99,16L398.5,301.83L398.74,183.46L398.75,16L399,267.19L399.5,16L399.57,16L399.9,277.29L400.27,44.87L400.36,16L400.52,16L400.54,44.87L400.6,16L400.99,284.51L401.26,223.88L401.31,16L402.02,298.95L402.04,128.6L402.08,16L402.47,293.17L402.84,212.33L402.84,16L403.29,278.74L403.59,252.75L403.6,91.07L403.62,16L404.13,299.06L404.3,270.08L404.38,180.98L404.45,16L404.97,303.28L405.13,50.65L405.19,16L405.44,70.86L405.44,62.2L405.44,257.56L405.45,16L405.87,275.85L406.18,215.22L406.21,44.87L406.25,16L406.53,290.29L406.96,93.95L406.97,275.85L407.26,301.83L407.7,16L407.7,16L407.78,16L407.95,300.39L408.45,285.23L408.55,16L408.71,284.81L409.09,16L409.26,16L409.58,298.95L409.91,16L409.97,44.87L409.98,16L410.38,298.95L410.68,16L410.75,16L411.42,290.29L411.47,56.42L411.53,16L411.99,301.83L412.25,289.56L412.44,16L412.88,301.83L413.19,33.32L413.22,196.45L413.41,297.5L413.97,16L413.97,16L414.01,283.36L414.05,16L414.25,301.83L414.73,52.09L414.81,16L415.31,293.62L415.57,197.89L415.59,73.74L415.7,16L415.77,293.62L416.29,16L416.35,16L416.85,296.06L417.07,16L417.13,16L417.76,301.83L417.86,16L417.89,16L418.37,301.83L418.67,232.54L418.67,145.92L418.67,16L418.89,287.4L419.35,16L419.44,16L420,301.83L420.17,264.3L420.2,16L420.47,223.88L420.85,177.68L420.93,16L421.62,283.07L421.65,59.31L421.68,16L422.3,298.95L422.42,39.41L422.44,16L422.47,303.28L423.18,30.44L423.26,16L423.65,301.83L424.01,18.89L424.02,301.83L424.72,16L424.82,281.62L425.63,16L425.65,200.78L425.81,16L426.11,301.11L426.4,62.2L426.56,206.56L426.56,16L427.03,295.29L427.27,16L427.35,16L428.01,296.78L428.06,16L428.13,16L428.13,297.5L428.88,160.36L428.9,287.4L428.9,16L429.55,293.62L429.65,16L429.67,16L430.3,301.57L430.47,296.06L430.47,16L430.87,287.74L431.17,221.38L431.23,44.87L431.37,16L431.66,293.17L431.98,16L432.02,160.36L432.03,281.62L432.03,180.57L432.04,16L432.15,39.1L432.16,16L432.16,281.62L432.24,293.17L432.92,16L432.94,278.74L432.96,298.95L433.64,16L433.67,287.4L433.7,287.4L433.78,16L434.28,288.38L434.39,36.21L434.47,16L434.65,299.67L434.7,288.38L434.72,16L434.92,16L434.98,145.92L435.09,16L435.58,288.38L435.73,16L435.74,16L436.22,295.22L436.48,16L436.52,117.05L436.55,16L436.79,272.96L437.26,16L437.29,16L438.03,280.9L438.03,242.85L438.12,169.02L438.18,16L438.74,296.06L438.85,16L438.9,16L438.98,298.23L439.65,16L439.66,16L440.33,301.83L440.39,16L440.42,16L440.92,297.5L441.18,290.29L441.18,41.98L441.18,16L441.36,301.83L441.91,16L441.96,91.07L442.11,16L442.3,296.06L442.56,112.24L442.65,16L442.72,20.12L442.8,16L442.83,212.33L443.56,281.62L443.56,16L443.56,16L443.62,16L443.91,296.06L444.37,16L444.38,16L444.92,296.06L445.16,284.51L445.19,241.92L445.51,298.95L445.94,16L445.94,16L445.96,16L446.5,296.06L446.64,124.27L446.73,16L447,300.39L447.42,16L447.49,16L447.61,303.28L448.19,293.17L448.26,65.08L448.26,16L448.97,298.95L449,16L449.13,16L449.39,270.08L449.78,16L449.88,16L450.24,294.77L450.65,165.34L450.65,16L450.69,287.4L451.41,96.84L451.44,16L452.19,275.85L452.2,16L452.66,301.83L452.9,16L452.96,16L453.54,287.4L453.68,16L453.74,16L454.17,302.56L454.48,21.77L454.55,16L454.64,298.95L455.3,16L455.31,16L455.75,303.28L456.09,154.59L456.14,246.98L456.16,16L456.81,287.4L456.89,16L456.91,16L457.59,296.74L457.65,16L457.67,16L458.03,287.4L458.39,286.68L458.43,16L458.96,296.06L459.14,39.1L459.19,39.1L459.21,16L459.51,301.83L459.93,16L459.96,16L460.35,303.28L460.73,117.05L460.8,16L461.15,298.95L461.54,215.22L461.59,16L461.6,294.62L462.34,16L462.35,16L462.57,296.06L463.1,16L463.15,16L463.52,301.83L463.9,18.89L463.95,27.55L463.95,293.51L463.96,16L464.7,16L464.75,16L465.1,278.47L465.49,16L465.53,16L465.75,285.23L466.32,137.26L466.33,56.42L466.35,264.3L466.37,16L467.07,16L467.11,180.57L467.13,16L467.78,304L467.83,213.29L467.87,290.29L467.87,16L467.99,301.11L468.58,154.59L468.63,16L468.87,270.08L469.02,169.02L469.02,16L469.52,298.45L469.76,94.46L469.78,111.28L470.28,297.5L470.44,16L470.45,241.2L470.47,287.4L470.8,300.39L471.18,16L471.18,16L471.27,16L471.93,298.95L472.02,16L472.04,16L472.26,294.62L472.77,93.95L472.82,16L473.22,264.3L473.41,76.63L473.45,16L473.91,299.06L474.2,238.32L474.22,278.74L474.37,299.06L474.97,16L474.97,79.52L475.04,16L475.6,290.29L475.79,16L475.84,16L476.05,293.17L476.56,53.53L476.59,16L477.2,271.52L477.32,186.35L477.36,24.66L477.73,301.83L477.84,16L477.86,203.67L477.86,242.17L478.3,293.93L478.61,16L478.61,258.53L478.81,298.95L479.24,16L479.35,128.6L479.43,16L479.47,299.06L480.15,263.99L480.19,16L480.34,44.87L480.34,275.85L480.34,16L480.84,290.29L481.09,16L481.1,16L481.27,298.95L481.8,16L481.86,215.22L482.32,272.96L482.46,16L482.49,238.32L482.54,290.46L483.3,16L483.31,52.09L483.36,268.63L483.38,16L484,281.62L484.05,177.68L484.14,16L484.54,301.86L484.79,244.09L484.79,76.63L484.79,16L485.13,296.06L485.54,218.11L485.55,16L486.29,284.51L486.29,206.56L486.35,16L486.74,293.17L486.89,46.22L486.94,16L487.34,284.51L487.54,174.8L487.58,16L487.79,298.95L488.31,16L488.34,278.74L488.37,298.95L488.37,16L489.03,16L489.1,16L489.69,301.83L489.85,16L489.87,134.38L489.96,16L490.38,281.62L490.62,16L490.64,134.38L490.69,16L491.03,284.51L491.36,16L491.41,67.97L491.41,301.83L491.44,16L492.15,35.78L492.17,108.39L492.18,16L492.57,294.62L492.91,16L493,16L493.39,299.67L493.74,47.76L493.81,16L494.19,298.95L494.53,294.62L494.58,56.42L494.6,16L495.29,293.17L495.3,16L495.34,16L495.56,284.51L496.09,171.91L496.12,171.91L496.12,16L496.65,297.5L496.86,16L496.88,93.95L497.34,267.33L497.52,16L497.54,236.87L498.09,298.95L498.28,16L498.32,261.41L498.65,301.83L499.08,16L499.09,16L499.55,302.56L499.86,284.51L499.86,36.21L499.91,291.73L500.07,16L500.1,41.98L500.14,278.74L500.84,16L500.86,301.83L500.9,301.83L500.93,16L501.63,114.51L501.66,16L501.89,280.18L502.39,16L502.42,16L502.42,301.83L503.16,56.42L503.19,170.47L503.26,16L503.62,286.44L503.91,16L503.97,16L504.68,301.83L504.72,233.98L504.76,16L505.12,284.51L505.44,117.05L505.53,16L505.7,296.78L506.25,270.08L506.3,16L506.95,294.41L507.02,70.86L507.06,278.77L507.06,16L507.26,301.83L507.8,16L507.82,19.14L507.86,16L508.37,299.06L508.55,16L508.63,16L509.03,290.29L509.31,16L509.37,16L509.47,290.29L510.12,16L510.15,16L510.83,300.39L510.89,16L510.9,16L510.91,290.29L511,252" style="vector-effect: non-scaling-stroke; fill: none; stroke: rgb(99, 110, 250); stroke-opacity: 1; stroke-width: 2px; opacity: 1;"/></g><g class="points"/><g class="text"/></g></g></g><g class="overplot"/><path class="xlines-above crisp" d="M0,0" style="fill: none;"/><path class="ylines-above crisp" d="M0,0" style="fill: none;"/><g class="overlines-above"/><g class="xaxislayer-above"><g class="xtick"><text text-anchor="middle" x="0" y="436" transform="translate(198.19,0)" style="font-family: 'Times New Roman'; font-size: 15px; fill: rgb(13, 13, 13); fill-opacity: 1; white-space: pre; opacity: 1;">1.61252×10​<tspan style="font-size:70%" dy="-0.6em">18</tspan><tspan dy="0.42em">​</tspan></text></g><g class="xtick"><text text-anchor="middle" x="0" y="436" style="font-family: 'Times New Roman'; font-size: 15px; fill: rgb(13, 13, 13); fill-opacity: 1; white-space: pre; opacity: 1;" transform="translate(299.59000000000003,0)">1.612525×10​<tspan style="font-size:70%" dy="-0.6em">18</tspan><tspan dy="0.42em">​</tspan></text></g><g class="xtick"><text text-anchor="middle" x="0" y="436" style="font-family: 'Times New Roman'; font-size: 15px; fill: rgb(13, 13, 13); fill-opacity: 1; white-space: pre; opacity: 1;" transform="translate(400.99,0)">1.61253×10​<tspan style="font-size:70%" dy="-0.6em">18</tspan><tspan dy="0.42em">​</tspan></text></g><g class="xtick"><text text-anchor="middle" x="0" y="436" style="font-family: 'Times New Roman'; font-size: 15px; fill: rgb(13, 13, 13); fill-opacity: 1; white-space: pre; opacity: 1;" transform="translate(502.39,0)">1.612535×10​<tspan style="font-size:70%" dy="-0.6em">18</tspan><tspan dy="0.42em">​</tspan></text></g><g class="xtick"><text text-anchor="middle" x="0" y="436" style="font-family: 'Times New Roman'; font-size: 15px; fill: rgb(13, 13, 13); fill-opacity: 1; white-space: pre; opacity: 1;" transform="translate(603.79,0)">1.61254×10​<tspan style="font-size:70%" dy="-0.6em">18</tspan><tspan dy="0.42em">​</tspan></text></g></g><g class="yaxislayer-above"><g class="ytick"><text text-anchor="end" x="108" y="12.25" transform="translate(0,404.72)" style="font-family: 'Times New Roman'; font-size: 35px; fill: rgb(13, 13, 13); fill-opacity: 1; white-space: pre; opacity: 1;">0</text></g><g class="ytick"><text text-anchor="end" x="108" y="12.25" style="font-family: 'Times New Roman'; font-size: 35px; fill: rgb(13, 13, 13); fill-opacity: 1; white-space: pre; opacity: 1;" transform="translate(0,346.98)">20</text></g><g class="ytick"><text text-anchor="end" x="108" y="12.25" style="font-family: 'Times New Roman'; font-size: 35px; fill: rgb(13, 13, 13); fill-opacity: 1; white-space: pre; opacity: 1;" transform="translate(0,289.23)">40</text></g><g class="ytick"><text text-anchor="end" x="108" y="12.25" style="font-family: 'Times New Roman'; font-size: 35px; fill: rgb(13, 13, 13); fill-opacity: 1; white-space: pre; opacity: 1;" transform="translate(0,231.49)">60</text></g><g class="ytick"><text text-anchor="end" x="108" y="12.25" style="font-family: 'Times New Roman'; font-size: 35px; fill: rgb(13, 13, 13); fill-opacity: 1; white-space: pre; opacity: 1;" transform="translate(0,173.74)">80</text></g><g class="ytick"><text text-anchor="end" x="108" y="12.25" style="font-family: 'Times New Roman'; font-size: 35px; fill: rgb(13, 13, 13); fill-opacity: 1; white-space: pre; opacity: 1;" transform="translate(0,116)">100</text></g></g><g class="overaxes-above"/></g></g><g class="polarlayer"/><g class="smithlayer"/><g class="ternarylayer"/><g class="geolayer"/><g class="funnelarealayer"/><g class="pielayer"/><g class="iciclelayer"/><g class="treemaplayer"/><g class="sunburstlayer"/><g class="glimages"/><defs id="topdefs-60d991"><g class="clips"/></defs><g class="layer-above"><g class="imagelayer"/><g class="shapelayer"/></g><g class="infolayer"><g class="g-gtitle"/><g class="g-xtitle"><text class="xtitle" x="364.5" y="463.8" text-anchor="middle" style="font-family: 'Open Sans', verdana, arial, sans-serif; font-size: 14px; fill: rgb(42, 63, 95); opacity: 1; font-weight: normal; white-space: pre;">Time Steps (ns)</text></g><g class="g-ytitle" transform="translate(23.5,0)"><text class="ytitle" transform="rotate(-90,12.5,260)" x="12.5" y="260" text-anchor="middle" style="font-family: 'Times New Roman'; font-size: 40px; fill: rgb(13, 13, 13); opacity: 1; font-weight: normal; white-space: pre;">Fill rate (in %)</text></g></g></svg>