<svg class="main-svg" xmlns="http://www.w3.org/2000/svg" xmlns:xlink="http://www.w3.org/1999/xlink" width="700" height="500" style="" viewBox="0 0 700 500"><rect x="0" y="0" width="700" height="500" style="fill: rgb(255, 255, 255); fill-opacity: 1;"/><defs id="defs-795e2f"><g class="clips"><clipPath id="clip795e2fxyplot" class="plotclip"><rect width="399" height="300"/></clipPath><clipPath class="axesclip" id="clip795e2fx"><rect x="137" y="0" width="399" height="500"/></clipPath><clipPath class="axesclip" id="clip795e2fy"><rect x="0" y="100" width="700" height="300"/></clipPath><clipPath class="axesclip" id="clip795e2fxy"><rect x="137" y="100" width="399" height="300"/></clipPath></g><g class="gradients"/><g class="patterns"/></defs><g class="bglayer"><rect class="bg" x="137" y="100" width="399" height="300" style="fill: rgb(229, 236, 246); fill-opacity: 1; stroke-width: 0;"/></g><g class="layer-below"><g class="imagelayer"/><g class="shapelayer"/></g><g class="cartesianlayer"><g class="subplot xy"><g class="layer-subplot"><g class="shapelayer"/><g class="imagelayer"/></g><g class="minor-gridlayer"><g class="x"/><g class="y"/></g><g class="gridlayer"><g class="x"><path class="xgrid crisp" transform="translate(206.63,0)" d="M0,100v300" style="stroke: rgb(255, 255, 255); stroke-opacity: 1; stroke-width: 1px;"/><path class="xgrid crisp" transform="translate(285.81,0)" d="M0,100v300" style="stroke: rgb(255, 255, 255); stroke-opacity: 1; stroke-width: 1px;"/><path class="xgrid crisp" transform="translate(364.99,0)" d="M0,100v300" style="stroke: rgb(255, 255, 255); stroke-opacity: 1; stroke-width: 1px;"/><path class="xgrid crisp" transform="translate(444.17,0)" d="M0,100v300" style="stroke: rgb(255, 255, 255); stroke-opacity: 1; stroke-width: 1px;"/><path class="xgrid crisp" transform="translate(523.3399999999999,0)" d="M0,100v300" style="stroke: rgb(255, 255, 255); stroke-opacity: 1; stroke-width: 1px;"/></g><g class="y"><path class="ygrid crisp" transform="translate(0,381.78)" d="M137,0h399" style="stroke: rgb(255, 255, 255); stroke-opacity: 1; stroke-width: 1px;"/><path class="ygrid crisp" transform="translate(0,316.7)" d="M137,0h399" style="stroke: rgb(255, 255, 255); stroke-opacity: 1; stroke-width: 1px;"/><path class="ygrid crisp" transform="translate(0,186.55)" d="M137,0h399" style="stroke: rgb(255, 255, 255); stroke-opacity: 1; stroke-width: 1px;"/><path class="ygrid crisp" transform="translate(0,121.48)" d="M137,0h399" style="stroke: rgb(255, 255, 255); stroke-opacity: 1; stroke-width: 1px;"/></g></g><g class="zerolinelayer"><path class="yzl zl crisp" transform="translate(0,251.63)" d="M137,0h399" style="stroke: rgb(255, 255, 255); stroke-opacity: 1; stroke-width: 2px;"/></g><path class="xlines-below"/><path class="ylines-below"/><g class="overlines-below"/><g class="xaxislayer-below"/><g class="yaxislayer-below"/><g class="overaxes-below"/><g class="plot" transform="translate(137,100)" clip-path="url(#clip795e2fxyplot)"><g class="scatterlayer mlayer"><g class="trace scatter trace84735f" style="stroke-miterlimit: 2; opacity: 1;"><g class="fills"/><g class="errorbars"/><g class="lines"><path class="js-line" d="M0,154.88L0.2,93.06L0.24,177.66L0.28,148.37L0.59,242.7L0.63,285L0.9,86.56L1.29,203.68L1.38,171.15L1.44,190.67L1.7,109.33L2.11,190.67L2.18,161.39L2.27,167.89L2.44,122.34L2.47,167.89L2.47,180.91L3.08,96.32L3.1,203.68L3.23,151.63L3.23,200.42L3.24,203.69L3.69,119.09L3.98,158.13L3.99,158.13L4.25,109.33L4.34,206.93L4.74,158.13L4.76,145.12L4.93,177.65L4.93,154.88L4.97,112.59L5.2,206.93L5.22,106.08L5.7,164.64L5.73,125.6L5.81,102.83L6.17,200.43L6.32,141.87L6.37,86.56L6.67,200.42L7.12,122.34L7.29,148.37L7.69,187.41L7.75,125.61L7.89,171.14L7.89,125.61L8.18,125.6L8.75,193.91L8.78,145.12L9,210.17L9.05,99.57L9.51,174.39L9.55,122.35L9.55,102.84L9.73,174.39L10.29,135.36L10.32,151.63L10.82,122.35L10.93,180.9L11.06,154.88L11.19,125.6L11.34,180.9L11.59,119.1L11.81,151.63L11.81,138.62L12.18,122.35L12.29,180.9L12.56,154.88L12.56,141.87L13.25,115.85L13.27,184.15L13.33,167.89L13.42,177.64L14.02,119.1L14.04,154.88L14.04,167.89L14.06,180.9L14.28,132.11L14.79,132.11L14.82,148.37L14.91,145.12L14.91,171.14L15,151.63L15,171.14L15.34,174.39L15.58,122.35L15.76,158.13L15.8,148.37L16.2,119.1L16.25,171.14L16.51,135.36L16.56,145.12L16.56,138.62L17.15,187.41L17.3,171.15L17.35,132.11L17.44,115.84L17.8,200.42L17.88,174.4L17.89,135.36L18.28,119.1L18.28,203.67L18.63,132.11L18.66,119.1L18.68,184.15L19.01,112.6L19.41,122.35L19.44,145.12L19.53,112.59L19.55,154.88L19.65,154.88L19.66,109.33L20.29,187.41L20.37,148.37L20.41,154.88L20.57,197.17L20.96,89.81L21.13,148.37L21.19,148.37L21.47,86.57L21.48,200.42L21.48,229.7L21.79,122.35L22.23,148.37L22.25,164.64L22.38,200.42L22.47,122.35L23,141.87L23.02,132.11L23.04,112.59L23.43,187.41L23.68,154.88L23.79,148.37L24.16,184.15L24.19,119.1L24.46,148.37L24.59,154.88L24.72,109.34L25.3,180.9L25.32,180.9L25.33,187.41L25.42,190.66L25.42,148.37L25.82,203.67L25.91,86.57L26.13,138.61L26.22,132.11L26.89,106.07L26.89,200.43L26.97,109.33L26.99,119.09L27.22,96.32L27.41,197.18L27.74,154.88L27.75,158.14L28.44,219.96L28.47,83.3L28.5,167.89L28.51,164.64L28.59,96.31L28.91,197.19L29.25,145.12L29.27,171.15L29.48,119.08L29.48,177.66L29.98,164.64L30.03,171.15L30.22,184.17L30.36,112.58L30.78,145.12L30.8,164.65L31.14,106.07L31.48,200.43L31.53,141.86L31.64,187.42L31.64,132.1L31.67,174.4L31.71,89.8L31.99,236.26L32.05,70.23L32.5,174.41L32.53,151.63L33.07,86.52L33.17,197.19L33.24,135.35L33.31,148.37L33.41,203.7L33.56,128.84L33.64,141.86L33.64,119.07L33.85,106.06L34.18,203.71L34.39,177.67L34.4,141.86L34.62,206.95L35.09,115.83L35.15,141.86L35.19,141.86L35.54,177.66L35.56,109.33L35.9,161.39L35.95,151.63L36.63,115.83L36.68,180.92L36.7,115.83L36.73,132.1L36.9,190.68L36.91,112.57L37.16,151.63L37.17,99.56L37.37,96.32L37.93,210.2L37.94,210.19L37.96,122.34L37.99,96.3L38,206.96L38.69,138.61L38.72,141.86L38.94,200.45L39.01,102.8L39.46,148.37L39.47,135.35L39.73,122.33L39.93,187.43L40.19,174.41L40.25,148.37L40.35,180.92L40.47,122.33L40.53,128.84L40.55,128.84L40.59,197.19L41.27,122.34L41.28,148.37L41.31,145.12L41.49,180.91L41.51,112.58L42.05,171.16L42.06,125.58L42.59,109.31L42.74,193.94L42.79,161.39L42.84,158.14L43.37,180.92L43.42,122.33L43.58,128.84L43.6,171.16L43.6,177.66L43.85,109.3L44.34,154.88L44.37,125.58L44.37,184.18L44.51,109.31L45.07,161.39L45.16,141.86L45.41,112.56L45.69,210.21L45.84,125.58L45.91,145.12L45.96,177.67L45.98,96.29L46.03,115.82L46.06,200.45L46.51,213.47L46.59,89.77L46.79,128.84L46.82,145.12L47.23,115.81L47.52,200.46L47.55,154.88L47.58,151.63L47.64,187.43L48.15,112.56L48.25,158.14L48.26,184.18L48.38,249.28L48.4,53.97L49,161.39L49.02,132.1L49.03,184.17L49.58,119.08L49.75,145.12L49.78,145.12L50.25,102.8L50.34,177.67L50.42,135.35L50.42,89.77L50.96,232.97L51.16,180.92L51.19,138.61L51.22,187.43L51.41,93.04L51.93,154.88L52,158.14L52.33,119.08L52.55,187.43L52.72,164.64L52.79,141.86L52.81,119.08L53.33,190.68L53.51,145.12L53.55,174.41L53.88,184.17L54.32,115.82L54.34,122.33L54.39,164.65L54.47,177.67L54.6,112.56L55.13,151.63L55.15,190.68L55.5,219.99L55.54,112.55L55.93,167.9L55.98,148.37L56.15,119.08L56.31,213.47L56.5,193.94L56.57,132.1L56.6,203.69L56.83,112.56L57.26,174.41L57.31,128.84L57.36,223.25L57.55,73.48L57.98,158.14L58.07,145.12L58.33,109.31L58.65,174.41L58.73,119.07L58.85,132.1L59.48,89.77L59.51,213.48L59.58,180.92L59.62,174.41L59.82,203.71L60.3,102.8L60.36,109.31L60.39,122.33L60.75,167.9L60.87,86.52L60.87,210.22L61.41,96.29L61.6,132.09L61.64,132.09L61.72,193.94L61.74,115.82L62.32,154.88L62.33,128.84L62.36,112.56L62.69,174.42L63.05,141.86L63.09,167.9L63.71,112.55L63.76,210.24L63.8,164.65L63.85,151.63L64,115.81L64.09,174.42L64.1,122.33L64.11,177.67L64.67,187.45L64.76,89.75L64.86,164.65L64.87,190.71L65.63,102.78L65.67,135.35L65.7,203.72L65.84,106.04L66.41,164.65L66.43,164.65L66.71,112.55L66.89,177.68L67.18,135.35L67.2,151.63L67.31,148.37L67.31,180.93L67.54,203.73L67.68,132.09L67.74,190.69L67.74,210.22L68.03,109.29L68.49,164.65L68.5,158.14L68.81,115.81L69.21,187.45L69.26,115.81L69.76,206.97L69.99,89.77L70.03,96.29L70.03,197.2L70.78,125.58L70.81,148.37L71.26,200.46L71.28,102.79L71.54,141.86L71.58,154.88L71.87,200.47L71.91,102.79L72.31,148.37L72.35,154.88L72.47,76.75L72.61,190.69L72.97,158.14L72.97,171.15L72.99,99.54L73.11,203.71L73.71,138.6L73.73,197.21L73.8,213.48L73.81,76.74L74.48,161.39L74.49,174.42L74.99,106.03L75.11,187.45L75.24,115.8L75.25,180.94L75.28,96.26L75.95,203.74L76.01,128.83L76.02,109.29L76.57,197.22L76.77,151.63L76.78,128.83L76.78,106.03L76.94,184.19L77.53,151.63L77.56,151.63L78.16,174.43L78.23,128.83L78.24,167.91L78.24,180.94L78.65,193.97L78.71,112.54L78.97,158.14L79.01,154.88L79.04,184.19L79.75,99.52L79.76,112.54L79.77,197.22L79.8,86.49L79.9,213.5L80.5,135.34L80.57,148.37L80.58,193.96L80.6,112.55L81.31,115.81L81.32,122.32L81.6,180.93L82.11,164.65L82.12,109.29L82.16,171.16L82.86,148.37L83,141.86L83.19,187.44L83.42,125.58L83.75,184.18L83.76,119.07L83.77,184.18L84.5,154.88L84.55,177.67L84.9,193.95L84.93,109.3L85.31,148.37L85.32,151.63L85.54,190.69L85.54,119.07L85.68,167.9L85.69,119.07L86.2,216.74L86.38,177.67L86.46,148.37L86.57,122.32L86.59,180.93L87.2,148.37L87.23,148.37L87.53,190.7L87.54,106.04L87.82,122.32L87.83,122.32L87.98,184.19L88.58,135.35L88.6,141.86L88.81,200.47L89.15,99.53L89.35,161.39L89.41,145.11L89.7,203.73L89.93,99.53L90.04,125.58L90.06,177.67L90.42,190.7L90.42,96.27L90.81,125.58L90.82,171.16L90.92,125.58L91.53,190.69L91.57,187.44L91.58,154.88L91.92,122.33L91.99,226.47L92.25,226.47L92.26,226.48L92.26,255.76L92.31,93.04L93.01,151.63L93.02,177.67L93.33,184.18L93.33,109.3L93.75,174.42L93.85,141.86L94.45,93.02L94.52,216.73L94.59,141.86L94.65,128.84L95.2,99.54L95.21,239.51L95.4,158.13L95.41,145.12L95.58,86.55L95.76,226.47L96.16,213.47L96.21,213.47L96.23,89.78L96.93,141.86L96.99,135.35L97.16,122.33L97.7,187.43L97.74,164.64L97.74,125.59L97.76,109.32L97.88,184.17L98.47,167.9L98.5,154.88L98.63,158.14L98.67,141.86L98.67,135.35L98.79,174.41L99.22,128.84L99.43,154.88L99.5,154.88L99.76,174.41L99.94,112.57L99.94,171.16L99.97,171.15L100.02,132.1L100.22,148.37L100.22,200.46L100.44,89.77L100.54,213.47L100.9,167.9L100.97,171.15L101.29,102.8L101.36,206.96L101.48,125.58L101.58,99.54L102.23,180.92L102.36,141.86L102.36,115.82L102.5,203.7L103.03,128.84L103.17,141.86L103.5,200.45L103.59,106.06L103.91,148.37L103.94,151.63L104.35,125.59L104.45,167.9L104.49,158.14L104.49,135.35L104.59,180.92L105.17,112.56L105.22,164.65L105.22,106.05L105.28,197.2L106,161.39L106.02,151.63L106.21,112.56L106.22,193.94L106.69,177.66L106.69,151.63L107.08,180.92L107.11,112.56L107.32,138.61L107.34,184.18L107.97,119.07L108.12,148.37L108.12,167.9L108.77,109.31L108.87,210.21L108.96,154.88L109.49,190.69L109.5,119.07L109.61,167.9L109.7,161.39L110.05,106.05L110.05,197.2L110.4,154.88L110.42,128.84L110.77,190.69L110.77,112.56L111.18,167.9L111.19,125.59L111.46,206.96L111.8,115.82L111.93,135.35L111.96,177.66L112.56,119.08L112.6,187.44L112.69,171.16L112.72,177.67L112.97,138.61L113.45,154.88L113.48,154.88L113.93,180.92L113.94,122.33L114.13,151.63L114.13,167.9L114.57,190.69L114.75,99.53L114.85,102.79L114.85,203.71L115.22,99.53L115.63,148.37L115.67,154.88L115.84,89.76L115.88,223.26L116.38,187.44L116.39,115.81L116.89,89.78L116.89,200.45L117.11,164.65L117.16,141.86L117.27,184.18L117.29,128.84L117.9,138.61L117.92,141.86L118.16,216.74L118.23,112.57L118.66,164.65L118.68,145.12L119.02,109.31L119.26,187.44L119.43,161.39L119.44,148.37L119.5,86.52L119.53,229.76L120.19,154.88L120.21,190.69L120.67,89.76L120.9,190.7L120.96,112.55L121.02,148.37L121.56,102.79L121.58,203.72L121.72,197.21L121.81,148.37L122.17,193.95L122.2,63.7L122.52,151.63L122.52,112.56L122.69,99.53L123.17,180.93L123.29,154.88L123.3,148.37L123.92,119.06L124.02,180.93L124.03,122.32L124.13,190.7L124.24,112.55L124.55,187.44L124.55,115.81L124.66,184.19L125.31,154.88L125.33,148.37L125.6,180.93L126.04,122.32L126.08,145.12L126.16,148.37L126.45,128.83L126.57,177.67L126.57,151.63L126.59,128.83L126.64,122.32L127.14,180.93L127.21,125.58L127.42,112.55L127.63,184.19L127.89,151.63L127.97,125.58L128.4,122.32L128.51,190.7L128.73,161.4L128.75,158.14L128.91,109.31L129.12,200.46L129.5,125.58L129.52,141.86L129.58,109.3L129.67,184.18L130.27,141.86L130.27,135.35L130.67,200.46L130.8,109.3L130.92,161.39L131.01,138.6L131.36,190.69L131.63,102.79L131.72,115.81L131.79,122.32L132.24,203.72L132.24,99.54L132.53,135.35L132.6,167.91L132.77,102.79L133.04,200.47L133.33,148.37L133.36,148.37L133.44,187.44L133.53,99.53L133.77,184.18L133.78,115.81L134.23,200.46L134.54,164.65L134.54,122.33L135.03,200.46L135.31,135.35L135.37,138.61L135.63,115.82L135.99,197.2L136.07,132.1L136.15,151.63L136.16,200.45L136.36,112.57L136.9,161.39L136.91,128.84L136.99,112.57L137.11,190.68L137.67,171.16L137.71,154.88L137.89,203.7L138,99.55L138.45,135.35L138.51,148.37L138.74,102.8L138.79,219.97L139.18,112.57L139.22,180.92L139.52,193.92L139.57,93.05L139.97,135.35L140.01,154.88L140.5,206.96L140.52,115.82L140.74,132.1L140.78,132.1L140.84,190.68L141.32,89.78L141.37,154.88L141.38,206.95L141.46,86.53L141.89,213.47L142.13,167.9L142.17,154.88L142.57,125.58L142.76,190.69L142.79,190.69L142.93,193.94L143.48,109.31L143.58,135.35L144.07,99.55L144.3,210.21L144.3,210.21L144.34,206.96L144.9,109.31L145.08,122.33L145.09,180.92L145.19,193.94L145.21,99.54L145.77,154.88L145.93,154.88L146.5,119.08L146.5,193.93L146.68,141.86L146.71,148.37L147.26,102.8L147.31,177.67L147.46,161.39L147.47,145.12L147.47,190.69L147.83,132.09L148.21,138.61L148.23,158.14L148.56,128.84L148.66,200.46L148.84,145.12L148.84,197.21L149.66,128.84L149.74,167.9L149.78,180.92L150.02,112.57L150.26,122.33L150.29,80.02L150.55,73.52L150.75,232.98L151.06,141.86L151.08,141.86L151.52,206.95L151.58,109.32L151.82,148.37L151.84,148.37L152.02,187.42L152.12,128.85L152.6,154.88L152.61,148.37L153.34,200.45L153.35,102.8L153.37,197.19L154.15,119.08L154.18,148.37L154.23,154.88L154.58,112.56L154.72,180.92L154.95,128.84L154.96,174.41L155.03,109.31L155.19,210.21L155.65,158.14L155.69,177.67L155.94,119.08L156.01,219.98L156.35,161.39L156.45,193.94L156.68,93.04L157.23,145.12L157.28,158.14L157.35,174.41L157.56,125.58L157.78,151.63L157.79,171.15L158.06,190.68L158.15,115.83L158.54,151.63L158.59,154.88L158.66,190.68L158.71,112.58L159.02,115.83L159.03,184.17L159.03,190.68L159.75,125.59L159.75,154.88L159.79,174.41L159.87,187.42L160.34,102.82L160.54,132.1L160.61,167.89L160.71,197.18L160.75,125.6L161.36,174.41L161.37,171.15L161.49,200.43L162.02,115.84L162.09,135.36L162.13,154.88L162.13,187.42L162.59,102.81L162.86,138.61L162.96,164.64L163.01,177.66L163.03,119.09L163.69,151.63L163.72,145.12L163.85,115.83L163.93,187.42L164.28,177.66L164.28,125.59L164.7,83.27L165.03,223.24L165.03,219.98L165.04,148.37L165.14,76.76L165.17,229.75L165.78,161.39L165.8,151.63L165.83,109.31L165.98,193.94L166.42,154.88L166.42,122.33L166.76,119.08L166.93,216.72L167.12,145.12L167.21,158.14L167.32,200.45L167.46,128.84L167.96,145.12L167.99,158.14L168.3,197.19L168.63,122.34L168.71,145.12L168.71,164.65L168.87,187.43L169.43,122.33L169.45,154.88L169.47,151.63L169.64,96.28L169.71,203.71L170.22,180.91L170.24,122.34L170.29,115.83L170.42,216.7L170.99,141.86L171.02,132.1L171.44,190.68L171.69,119.08L171.8,161.39L171.9,132.1L172.34,190.68L172.56,119.08L172.64,190.68L172.68,177.66L173.21,203.7L173.44,86.54L173.49,145.12L173.58,190.68L173.9,119.08L174.23,154.88L174.3,154.88L174.44,109.32L174.65,206.95L175.03,141.86L175.06,167.9L175.32,96.29L175.54,213.47L175.81,167.9L175.84,148.37L176.32,203.71L176.44,76.75L176.58,200.45L176.61,200.45L177.35,76.76L177.37,210.21L178.13,99.53L178.16,148.37L178.49,226.52L178.54,89.76L178.84,115.81L178.87,119.07L178.94,112.56L178.95,190.7L179.47,102.8L179.47,200.46L179.71,145.12L179.74,154.88L179.88,184.18L180.07,122.33L180.39,145.12L180.42,161.39L180.63,187.44L180.68,122.33L181.15,141.86L181.22,145.12L181.28,219.98L181.35,80.01L181.8,141.86L181.81,161.39L182.24,112.56L182.45,177.67L182.59,135.35L182.59,174.41L182.86,93.03L182.98,180.92L183.3,115.82L183.34,180.92L183.67,119.08L183.69,190.69L183.92,171.16L184.18,138.61L184.58,180.92L184.59,119.08L184.88,154.88L184.95,145.12L184.96,122.34L185.46,187.43L185.68,141.86L185.72,148.37L185.87,197.2L185.89,106.05L186.47,122.33L186.52,190.69L186.53,112.56L187.26,148.37L187.29,148.37L187.62,187.44L187.87,122.33L188.03,171.16L188.06,151.63L188.1,206.96L188.19,76.76L188.81,148.37L188.86,148.37L189.35,122.33L189.54,197.19L189.61,158.13L189.62,177.66L189.87,180.92L190.09,119.08L190.36,151.63L190.39,141.86L190.79,184.16L191.11,122.34L191.13,180.91L191.15,158.13L191.27,125.59L191.54,187.42L191.9,171.15L191.92,135.36L192.22,203.67L192.24,115.84L192.64,128.85L192.7,158.13L193.27,210.18L193.3,63.77L193.43,125.59L193.51,80.04L193.51,229.72L194.25,122.34L194.38,164.64L194.9,193.92L194.92,102.82L195.13,158.13L195.14,158.13L195.29,89.82L195.33,226.45L195.87,164.64L195.93,148.37L196.31,99.57L196.48,184.16L196.7,164.64L196.7,154.88L196.92,193.92L197.05,109.33L197.41,145.12L197.41,119.1L197.42,210.17L197.76,109.34L198.14,171.14L198.17,145.12L198.47,102.82L198.59,180.91L198.91,154.88L198.97,148.37L199.34,73.56L199.5,229.69L199.58,73.56L199.64,229.69L200.28,148.37L200.32,148.37L200.37,167.89L200.37,122.35L200.41,180.91L200.62,122.34L201.21,148.37L201.21,151.63L201.31,167.89L201.37,125.6L201.92,161.39L201.96,164.64L202.08,132.11L202.08,184.16L202.09,122.35L202.53,99.58L202.53,197.17L202.86,174.39L202.89,154.88L203.1,125.61L203.19,177.65L203.82,180.91L203.96,109.33L204.01,135.36L204.02,154.88L204.08,99.58L204.1,171.14L204.1,210.17L204.52,86.58L204.74,158.13L204.77,203.67L205.31,232.93L205.31,73.57L205.52,184.15L205.53,148.37L205.58,86.57L206.24,213.44L206.29,167.89L206.3,151.63L206.65,109.33L206.71,180.91L207.05,171.15L207.09,141.87L207.2,112.59L207.25,187.41L207.82,151.63L207.85,151.63L208.03,122.35L208.57,200.43L208.6,154.88L208.6,141.87L208.73,200.43L208.79,99.57L209.34,171.15L209.37,158.13L209.43,200.44L209.5,193.93L209.5,141.86L209.57,236.23L210.09,99.57L210.16,171.15L210.23,125.6L210.59,112.58L210.64,190.67L210.96,112.58L211.02,109.33L211.07,193.93L211.78,174.41L211.81,128.85L211.87,180.91L212.46,161.39L212.62,158.13L213.04,187.41L213.09,115.84L213.29,158.13L213.29,203.68L213.29,213.44L213.3,119.09L214.02,177.66L214.05,177.66L214.26,187.42L214.73,109.32L214.83,125.6L214.86,125.6L215.05,119.09L215.07,206.95L215.27,151.63L215.27,128.85L215.77,200.44L215.79,102.81L216.04,154.88L216.06,151.63L216.48,99.55L216.58,203.7L216.78,138.61L216.8,164.64L216.86,200.44L217.25,115.83L217.42,148.37L217.43,174.4L217.56,193.93L217.78,80.03L218.16,158.13L218.21,161.39L218.59,184.17L218.95,125.59L218.95,125.59L219.03,164.64L219.38,177.66L219.58,122.34L219.75,171.16L219.8,177.66L220.54,115.83L220.55,213.46L220.57,89.79L221.11,184.18L221.11,80.02L221.3,141.86L221.33,154.88L221.48,109.32L221.6,197.18L222.08,138.61L222.08,177.67L222.33,210.2L222.45,76.77L222.81,115.83L222.86,141.86L223.05,190.68L223.59,119.09L223.59,145.12L223.68,148.37L223.83,184.17L224.33,112.58L224.39,148.37L224.44,148.37L224.93,115.83L224.97,206.95L225.07,141.86L225.07,135.35L225.19,174.41L225.32,125.59L225.45,167.9L225.46,119.08L225.75,226.49L225.85,115.82L226.2,148.37L226.26,148.37L226.39,190.68L226.39,106.06L226.66,210.21L227.04,60.48L227.24,89.78L227.42,60.48L227.66,226.48L227.99,122.33L228.03,161.39L228.04,83.27L228.38,219.95L228.78,135.36L228.8,141.86L229.36,184.17L229.44,106.07L229.49,128.85L229.58,135.36L229.64,184.17L229.85,115.83L230.15,167.9L230.2,128.85L230.33,119.08L230.67,180.91L230.67,171.15L230.67,190.67L230.69,206.94L231,70.28L231.38,141.86L231.43,138.61L231.54,190.67L231.57,112.58L232.09,174.4L232.12,128.85L232.62,122.34L232.89,190.66L232.89,135.36L233.12,99.56L233.45,193.92L233.63,154.88L233.66,154.88L234.37,106.09L234.38,197.17L234.46,112.59L234.6,213.43L234.6,89.82L235.17,171.14L235.24,141.87L235.5,184.15L235.58,115.85L235.87,167.89L235.88,106.08L236.53,180.91L236.63,164.64L236.64,164.64L236.89,112.59L236.98,187.41L237.36,164.64L237.41,164.64L237.6,125.6L237.68,193.92L238.04,154.88L238.12,151.63L238.51,193.9L238.53,102.85L238.86,145.12L238.91,154.88L239.06,177.64L239.29,125.61L239.34,148.37L239.35,203.65L240,115.85L240.14,148.37L240.14,200.41L240.31,128.86L240.35,122.35L241.03,184.15L241.1,180.9L241.13,128.86L241.61,197.16L241.73,109.34L241.83,138.62L241.93,138.62L241.98,190.66L242.41,109.34L242.64,132.11L242.64,174.39L242.88,99.58L243.05,197.17L243.38,167.89L243.4,174.39L243.72,99.58L243.8,197.16L244.16,145.12L244.16,164.64L244.4,115.85L244.41,187.4L244.92,154.88L244.94,158.13L245.31,197.16L245.31,106.09L245.68,138.62L245.69,167.89L245.89,122.36L245.94,187.4L246.42,141.87L246.45,141.87L246.85,177.65L247.17,122.35L247.19,161.38L247.23,161.38L247.29,115.85L247.33,200.41L247.8,138.61L247.99,161.39L248.1,122.35L248.58,177.65L248.68,151.63L248.72,122.35L248.93,190.66L249.15,115.84L249.5,177.65L249.51,154.88L249.66,109.34L249.67,200.41L250.24,135.36L250.27,171.14L250.27,115.84L250.3,187.41L251.01,151.63L251.04,145.12L251.64,115.84L251.64,197.17L251.73,138.62L251.81,158.13L252.21,180.9L252.27,102.84L252.54,158.13L252.56,161.38L252.58,109.34L252.72,184.15L253.3,141.87L253.33,135.36L253.68,210.19L253.75,109.33L254.05,151.63L254.09,161.39L254.27,112.59L254.38,197.16L254.82,184.15L254.85,151.63L254.86,122.35L255.26,197.16L255.59,138.62L255.62,138.62L255.66,203.66L255.75,99.59L256.35,184.15L256.41,154.88L256.56,115.85L256.92,184.15L257.02,174.4L257.11,151.63L257.14,187.41L257.46,96.33L257.86,145.12L257.88,148.37L258.46,83.34L258.52,236.15L258.59,174.39L258.64,174.39L258.67,28.1L258.9,216.68L259.39,145.12L259.39,252.44L259.39,63.8L260.13,135.37L260.19,180.89L260.37,210.16L260.38,122.36L260.9,167.89L260.96,164.64L261.54,109.36L261.66,210.16L261.66,122.36L261.74,148.37L261.75,128.86L261.83,206.91L262.41,187.39L262.5,148.37L262.65,219.92L262.78,99.6L263.23,154.88L263.28,109.35L264.01,203.65L264.01,106.1L264.01,93.1L264.12,213.41L264.76,187.4L264.78,135.36L264.81,219.92L264.84,83.33L265.48,200.4L265.54,200.4L265.55,102.85L266.04,226.41L266.28,119.1L266.3,112.6L266.6,93.09L266.65,229.66L266.98,177.64L267.01,132.12L267.32,115.86L267.36,190.65L267.76,174.38L267.79,167.88L268.33,219.91L268.45,115.86L268.46,184.14L268.6,184.14L268.77,193.9L269.11,119.11L269.37,151.63L269.4,174.39L269.46,31.33L269.58,187.39L270.14,158.13L270.18,154.88L270.69,210.16L270.73,93.09L270.93,148.37L271.01,161.38L271.24,122.35L271.75,177.64L271.79,164.64L272.29,187.41L272.54,119.1L272.59,164.64L273.02,177.65L273.24,125.61L273.24,132.11L273.27,177.65L273.33,210.17L273.7,93.09L274.01,138.62L274.03,102.84L274.03,83.32L274.34,210.17L274.74,148.37L274.8,154.88L275.29,83.33L275.3,219.92L275.52,158.13L275.59,145.12L275.61,125.61L276.02,200.41L276.35,161.38L276.35,148.37L276.75,187.4L276.87,115.85L277.1,135.37L277.14,135.37L277.51,109.36L277.86,206.9L277.86,119.11L278.41,67.02L278.44,200.43L278.59,122.35L278.62,138.62L279.21,112.59L279.28,190.66L279.37,145.12L279.41,99.58L279.56,93.08L279.66,210.16L280.13,125.6L280.18,154.88L280.31,83.32L280.35,223.18L280.92,161.38L280.93,148.37L281.51,193.91L281.55,60.54L281.63,164.64L281.69,200.41L282.22,115.85L282.23,200.42L282.44,171.14L282.48,174.39L282.93,89.82L282.94,203.67L283.22,174.39L283.25,141.87L283.87,200.41L283.93,83.33L283.98,154.88L284.31,86.57L284.42,216.67L284.73,174.39L284.74,135.36L284.98,177.65L285.04,67.05L285.44,141.87L285.5,171.14L285.67,128.86L285.99,180.9L286.25,145.12L286.27,154.88L286.38,115.84L286.51,184.16L286.92,177.65L287.07,164.64L287.07,125.61L287.59,190.65L287.81,171.14L287.84,167.88L288.18,193.9L288.44,50.81L288.56,132.12L288.58,151.63L288.81,200.4L289.24,102.84L289.33,161.38L289.38,148.37L289.65,180.89L289.71,106.1L290.08,177.64L290.08,119.11L290.41,112.61L290.86,193.9L290.92,145.12L291.14,96.34L291.59,197.15L291.66,145.12L291.69,164.64L291.73,174.39L292.17,102.84L292.41,148.37L292.41,167.89L292.85,99.57L292.96,203.66L293.16,148.37L293.23,135.37L293.8,99.59L293.8,210.17L293.95,128.86L294,135.37L294.58,83.33L294.59,210.17L294.74,148.37L294.78,167.89L295.18,187.4L295.35,115.86L295.46,141.87L295.49,161.38L295.96,106.09L296.16,203.66L296.23,141.87L296.25,161.38L296.87,242.68L296.89,60.58L296.97,190.65L296.98,187.4L297.63,200.42L297.64,109.34L297.67,187.42L297.76,177.65L297.88,190.66L298.17,109.34L298.55,135.36L298.55,164.64L299.01,119.1L299.04,206.92L299.28,164.64L299.32,154.88L299.32,187.4L299.44,99.58L300.07,148.37L300.08,158.13L300.37,122.35L300.41,187.41L300.83,132.11L300.84,132.11L301.26,67.05L301.38,210.18L301.49,171.14L301.5,119.1L301.92,187.4L302.27,180.9L302.29,161.39L302.63,76.79L302.75,219.95L303.05,141.87L303.07,141.87L303.15,190.67L303.18,89.79L303.77,180.91L303.83,174.4L303.83,200.43L304.19,115.84L304.55,141.87L304.59,148.37L304.81,86.54L304.9,216.71L305.34,161.39L305.37,177.65L305.84,190.67L305.94,115.84L306.12,177.65L306.13,171.15L306.16,102.83L306.3,203.68L306.88,154.88L306.92,102.82L307.49,210.19L307.63,161.39L307.69,119.09L307.71,190.66L308.18,112.58L308.44,180.91L308.44,125.6L308.47,112.59L308.62,197.17L309.19,125.6L309.2,125.6L309.63,219.93L309.64,106.08L309.91,180.9L309.97,119.09L310.21,193.91L310.21,109.34L310.72,122.35L310.75,125.6L310.96,34.51L310.98,268.74L311.46,132.11L311.48,132.11L311.76,115.84L312.22,177.65L312.22,171.15L312.24,135.36L312.78,187.41L312.82,119.1L312.98,132.11L313,132.11L313.28,109.34L313.59,190.66L313.72,151.63L313.75,148.37L314.06,184.16L314.26,109.34L314.5,158.13L314.52,141.87L314.64,109.34L314.95,206.92L315.22,161.39L315.23,125.6L315.38,115.84L315.73,187.41L315.98,148.37L316.07,141.87L316.37,122.35L316.38,193.92L316.78,122.35L316.81,128.85L317.15,197.17L317.42,89.81L317.47,86.56L317.48,223.19L318.21,180.9L318.3,132.11L318.81,109.34L319.01,184.16L319.04,106.08L319.13,93.07L319.32,216.69L319.78,148.37L319.82,148.37L319.95,109.33L319.99,197.17L320.23,148.37L320.25,102.82L320.27,96.32L320.3,197.17L321.02,174.41L321.02,128.84L321.06,119.07L321.56,200.44L321.77,164.64L321.78,167.89L322.09,236.24L322.38,112.57L322.39,190.68L322.54,99.55L322.54,203.7L323.14,132.1L323.16,132.1L323.52,200.43L323.53,128.85L323.86,148.37L323.93,154.88L324.42,190.67L324.43,119.09L324.63,128.85L324.67,171.15L324.67,184.16L324.84,112.58L325.35,151.63L325.45,154.88L326.12,177.66L326.18,125.59L326.23,148.37L326.57,135.36L326.93,174.41L326.93,141.86L326.93,132.1L327.09,216.7L327.38,119.09L327.66,151.63L327.71,135.36L327.95,102.82L328.2,206.93L328.38,174.4L328.41,89.8L328.7,73.53L329.04,216.68L329.16,151.63L329.17,167.89L329.17,112.58L329.54,180.91L329.89,138.61L329.96,148.37L330.17,210.19L330.31,83.31L330.71,151.63L330.73,138.61L331.32,187.42L331.33,112.58L331.4,135.36L331.41,171.15L331.93,109.33L332.15,184.16L332.19,184.16L332.86,223.22L332.87,73.52L332.96,141.86L333,148.37L333.23,112.57L333.47,180.91L333.7,135.36L333.73,167.9L333.86,184.17L333.92,119.08L334.49,148.37L334.5,180.91L335.2,200.42L335.25,112.59L335.25,154.88L335.31,171.15L335.73,80.03L336.06,206.95L336.09,193.93L336.29,200.43L336.29,86.54L336.83,171.15L336.9,115.83L336.91,187.42L337.64,145.12L337.69,151.63L338.15,102.81L338.15,200.44L338.35,174.41L338.35,180.91L338.84,115.82L339.03,187.42L339.12,135.35L339.13,161.39L339.43,99.54L339.62,197.19L339.86,174.41L339.89,161.39L340.56,184.17L340.57,119.08L340.63,177.66L340.67,148.37L341.05,197.2L341.06,106.06L341.39,180.92L341.39,119.08L342.09,99.54L342.12,187.43L342.12,187.43L342.16,203.71L342.83,109.32L342.91,145.12L342.91,164.65L343.17,115.82L343.58,177.67L343.62,164.65L343.68,148.37L344.23,197.19L344.23,93.04L344.43,161.39L344.44,145.12L344.48,86.51L344.83,193.95L345.18,135.35L345.2,122.33L345.2,109.3L345.69,174.42L345.91,138.6L346,135.35L346.07,206.97L346.07,96.28L346.75,135.35L346.76,148.37L347.09,190.69L347.16,86.52L347.34,89.77L347.34,210.22L347.7,119.07L348.11,138.6L348.18,164.65L348.37,174.42L348.59,119.07L348.92,154.88L348.98,151.63L349.52,190.7L349.53,112.56L349.7,145.11L349.74,145.11L349.74,119.07L350.13,197.2L350.47,167.91L350.52,141.86L350.63,206.98L350.83,115.81L351.26,164.65L351.27,125.59L351.34,96.29L351.95,177.67L351.99,128.83L352.06,180.93L352.25,119.07L352.37,184.18L352.79,132.09L352.82,158.14L352.82,197.21L353.11,125.58L353.54,174.42L353.58,158.14L353.71,99.53L353.85,226.52L354.14,122.32L354.14,190.7L354.57,99.53L354.58,216.75L354.89,148.37L354.9,154.88L355.31,109.31L355.35,206.96L355.62,141.86L355.71,145.12L356.39,122.33L356.39,187.43L356.45,145.12L356.48,141.86L356.65,164.65L356.9,128.84L356.9,148.37L356.92,187.44L357.22,99.53L357.66,132.09L357.76,158.14L357.81,167.9L357.82,122.32L357.84,122.33L357.86,184.18L358.46,193.94L358.56,93.03L358.61,106.06L358.62,197.2L358.68,109.31L359.37,158.14L359.38,180.92L359.81,187.44L359.87,119.07L360.13,161.39L360.15,151.63L360.53,190.69L360.92,106.05L360.92,106.05L360.95,125.58L361.26,190.7L361.26,109.3L361.63,125.58L361.65,115.81L361.81,119.07L361.82,158.14L362.02,109.31L362.22,184.18L362.56,151.63L362.61,151.63L363.02,122.32L363.24,180.93L363.29,174.41L363.31,128.84L364,112.56L364.02,203.71L364.05,177.67L364.09,119.07L364.68,190.69L364.84,154.88L364.86,145.12L365.04,200.46L365.12,102.79L365.44,167.91L365.46,197.2L365.99,93.02L366,213.48L366.19,148.37L366.24,161.39L366.71,200.46L366.72,102.8L366.97,161.39L367.01,154.88L367.23,115.82L367.42,187.43L367.75,125.58L367.81,161.39L367.83,93.03L368.39,213.47L368.56,158.14L368.57,151.63L368.59,128.84L369.07,203.69L369.2,161.39L369.2,132.1L369.26,122.34L369.57,187.42L369.69,171.16L369.69,197.2L370.2,112.57L370.22,206.96L370.44,151.63L370.46,122.33L371.01,106.06L371.06,197.19L371.21,154.88L371.23,154.88L371.68,187.44L371.68,115.81L371.98,171.16L372.02,102.8L372.38,210.21L372.77,148.37L372.82,148.37L373.3,115.83L373.31,206.95L373.55,167.9L373.55,125.59L373.88,190.67L374.22,115.83L374.34,161.39L374.34,145.12L374.98,184.17L375.01,115.83L375.07,180.91L375.11,158.13L375.42,200.44L375.45,96.31L375.78,177.66L375.81,145.12L375.9,180.92L376.22,119.08L376.51,154.88L376.52,148.37L376.7,89.8L376.8,213.45L377.23,122.33L377.28,135.35L377.31,223.21L377.31,102.81L377.98,132.1L378.02,154.88L378.27,200.45L378.45,102.81L378.62,151.63L378.63,174.41L379.18,106.07L379.34,135.36L379.34,184.17L379.75,190.68L379.95,106.06L380.04,148.37L380.07,167.9L380.65,93.05L380.69,210.2L380.79,154.88L380.83,148.37L381.22,125.59L381.46,177.66L381.49,158.14L381.55,138.61L381.55,200.44L381.6,112.57L382.3,161.39L382.31,125.59L382.66,86.53L382.83,206.95L383.07,167.9L383.1,164.64L383.55,180.91L383.87,132.1L383.87,171.15L384.55,119.08L384.56,177.66L384.63,171.15L384.95,119.08L385.07,184.17L385.38,135.36L385.4,164.64L385.74,180.91L385.78,112.57L386.1,164.64L386.11,141.86L386.6,180.91L386.81,115.83L386.84,177.66L386.86,190.68L386.93,128.85L387.57,164.64L387.57,154.88L387.7,184.17L387.73,122.34L388.29,158.14L388.31,158.14L388.34,184.17L388.45,128.85L389.06,161.39L389.07,148.37L389.62,86.52L389.63,229.76L389.82,177.67L389.85,177.67L389.91,249.28L389.94,76.76L390.6,154.88L390.62,148.37L390.65,187.43L391.01,122.33L391.36,132.1L391.38,167.9L391.58,93.04L391.73,223.22L392.05,161.39L392.1,158.13L392.68,177.66L392.8,122.34L392.82,167.9L392.86,122.34L392.9,180.91L393.59,135.35L393.66,154.88L393.77,112.57L394.37,197.19L394.41,154.88L394.42,197.18L394.88,242.7L394.97,60.56L395.14,158.13L395.22,151.63L395.26,119.08L395.62,187.42L395.9,135.36L395.96,135.35L396.02,210.2L396.1,99.56L396.68,122.34L396.72,148.37L397.29,102.82L397.47,281.71L397.54,151.63L397.68,76.8L398.16,200.44L398.24,141.86L398.31,161.39L398.31,109.32L398.92,180.91L399,128.85" style="vector-effect: non-scaling-stroke; fill: none; stroke: rgb(99, 110, 250); stroke-opacity: 1; stroke-width: 2px; opacity: 1;"/></g><g class="points"/><g class="text"/></g><g class="trace scatter trace0d9580" style="stroke-miterlimit: 2; opacity: 1;"><g class="fills"/><g class="errorbars"/><g class="lines"><path class="js-line" d="M0,171.15L0.2,210.19L0.63,15L0.63,154.88L0.71,239.45L1.29,99.57L1.38,161.39L1.39,171.15L1.44,112.58L1.7,193.92L2.04,135.36L2.07,135.36L2.47,109.33L2.73,184.16L2.81,135.36L2.84,167.89L3.08,206.93L3.1,96.32L3.58,148.37L3.62,148.37L4.25,193.93L4.29,109.33L4.37,164.64L4.39,138.61L4.93,125.6L4.93,174.4L4.97,148.37L5,109.34L5.22,197.17L5.76,177.65L5.81,177.65L6.17,102.82L6.32,203.68L6.56,161.39L6.58,161.39L6.67,197.17L6.67,102.83L7.12,148.37L7.29,154.88L7.69,115.84L7.75,177.65L8.06,145.12L8.07,158.13L8.16,174.4L8.75,109.34L8.78,158.13L8.99,80.06L9.05,206.93L9.51,167.89L9.55,190.66L9.55,200.42L9.73,122.35L10.29,167.89L10.32,154.88L10.81,180.9L10.93,122.35L11.06,148.37L11.19,148.37L11.33,180.9L11.57,119.1L11.95,171.14L12.06,171.14L12.18,180.9L12.29,122.36L12.81,138.62L12.82,164.63L13.25,187.4L13.27,115.85L13.61,125.61L13.61,177.64L14.02,184.15L14.06,112.6L14.31,161.38L14.37,154.88L14.78,125.61L14.79,171.14L15,132.11L15.03,171.14L15.38,128.86L15.76,141.87L15.8,154.88L16.18,132.11L16.2,184.15L16.3,148.37L16.38,141.87L16.56,132.11L16.63,171.14L17.12,161.39L17.15,154.88L17.78,180.91L17.8,102.83L17.87,154.88L17.88,164.64L18.28,184.16L18.28,89.82L18.53,167.89L18.53,119.1L19.01,190.66L19.28,180.9L19.3,180.9L19.32,122.35L19.53,190.67L20.06,148.37L20.08,167.89L20.47,197.17L20.47,106.08L20.73,122.35L20.85,180.9L21.47,216.69L21.48,70.3L21.6,158.13L21.65,141.87L21.79,187.41L22.38,102.83L22.42,138.61L22.65,128.86L23.04,193.91L23.19,177.65L23.23,177.65L23.68,125.6L23.9,180.9L23.99,154.88L24.03,145.12L24.12,115.85L24.72,193.92L24.78,135.36L24.81,135.36L25.18,184.16L25.33,115.84L25.36,115.84L25.42,112.59L25.82,99.58L25.91,216.69L26.13,164.64L26.22,171.15L26.89,197.18L26.89,102.82L26.97,197.18L26.99,145.12L27.22,206.94L27.46,115.83L27.74,154.88L27.75,145.12L28.44,83.3L28.47,219.96L28.5,135.36L28.51,135.36L28.59,206.94L28.59,96.31L29.25,158.13L29.27,158.13L29.48,184.17L29.48,119.08L29.9,167.9L29.9,171.15L30.22,119.08L30.36,190.68L30.65,167.9L30.66,135.35L30.85,125.59L31.16,184.16L31.38,125.59L31.42,138.61L32,239.52L32.07,86.52L32.09,154.88L32.12,187.44L32.62,112.57L32.87,122.34L32.89,174.41L33.04,219.98L33.23,99.55L33.23,89.79L33.42,200.45L33.93,197.2L33.99,161.39L34.34,193.94L34.62,89.79L34.73,171.15L34.77,148.37L35.27,193.93L35.31,125.59L35.48,187.42L35.52,145.12L35.54,115.83L35.56,197.18L36.27,148.37L36.34,154.88L36.63,187.43L36.9,112.57L36.91,190.68L37.24,102.81L37.39,200.42L37.68,141.87L37.69,158.13L37.74,161.39L37.78,154.88L37.86,158.13L37.93,86.54L37.96,216.71L38.69,164.65L38.72,164.65L38.94,102.8L39.01,200.45L39.47,148.37L39.47,174.41L39.73,180.92L39.93,115.82L40.26,154.88L40.32,148.37L40.58,102.81L41.04,187.42L41.11,145.12L41.49,122.34L41.51,193.93L41.85,145.12L41.92,167.9L42.59,193.94L42.64,115.82L42.66,193.94L42.7,154.88L42.74,109.31L42.76,193.94L43.45,122.33L43.5,145.12L43.6,125.59L43.64,180.92L43.82,148.37L43.85,193.95L44.64,119.07L44.64,119.07L44.72,135.35L45.41,190.69L45.42,109.3L45.46,125.58L45.48,148.37L45.68,99.54L45.98,223.24L46.2,164.65L46.32,132.09L46.51,89.78L46.53,213.47L47.07,158.14L47.08,174.41L47.23,190.69L47.52,102.79L47.82,154.88L47.86,148.37L48.38,53.97L48.4,249.28L48.6,115.82L48.63,187.43L49.03,119.08L49.34,128.84L49.4,128.84L49.58,184.18L50.14,161.39L50.16,187.43L50.42,213.48L50.91,63.76L50.93,154.88L50.97,96.31L51.41,210.21L51.52,135.35L51.55,193.94L52.28,119.08L52.32,154.88L52.33,184.17L52.45,184.18L52.55,112.57L53.02,167.9L53.05,167.9L53.08,122.33L53.09,180.92L53.79,148.37L53.81,148.37L54.3,119.08L54.32,187.43L54.48,177.67L54.54,167.9L54.6,193.95L55.17,102.8L55.17,161.39L55.23,171.16L55.61,122.33L55.71,180.93L55.98,158.14L56.02,154.88L56.11,190.68L56.31,89.79L56.77,164.65L56.78,167.9L57.33,223.25L57.36,80L57.4,223.25L57.58,106.05L58.15,167.9L58.17,145.12L58.86,125.59L58.9,193.94L58.91,193.94L58.93,193.94L59.48,213.48L59.51,89.77L59.68,112.56L59.78,154.88L59.82,99.54L60.27,171.16L60.28,132.09L60.28,102.8L60.87,216.73L60.87,86.52L61.01,177.67L61.08,141.86L61.41,206.96L61.7,112.56L61.83,158.14L61.84,158.14L61.91,122.33L62.36,190.69L62.58,171.16L62.6,158.14L62.67,171.16L62.67,171.16L62.69,132.09L63.41,125.58L63.44,180.93L63.44,180.93L63.46,148.37L63.71,190.7L63.76,93.02L64.21,167.9L64.25,154.88L64.76,213.5L64.83,96.27L64.97,161.4L65,158.14L65.16,193.96L65.23,119.07L65.68,135.35L65.68,180.93L65.7,99.53L66.36,193.96L66.43,125.57L66.47,164.65L66.52,190.71L67.03,135.35L67.2,164.65L67.31,138.6L67.74,93.04L67.76,210.22L68.05,122.31L68.11,177.68L68.26,99.52L68.81,187.44L68.83,158.14L68.91,138.6L69,167.91L69.21,115.81L69.26,187.45L69.39,93.02L69.47,210.23L69.99,141.86L70.03,206.97L70.03,96.29L70.78,180.93L70.81,154.88L71.28,102.79L71.28,200.46L71.54,161.39L71.58,154.88L71.87,102.79L71.91,200.47L72.31,148.37L72.35,154.88L72.43,226.5L72.52,99.54L72.89,184.18L72.95,184.18L72.99,203.71L73.11,99.54L73.71,141.86L73.73,106.04L73.73,86.51L73.81,226.51L74.48,135.35L74.49,128.83L74.57,193.95L74.6,119.07L74.88,161.4L74.91,148.37L75.25,109.29L75.28,206.99L75.49,148.37L75.49,132.09L75.95,99.52L76.16,193.97L76.18,164.65L76.26,161.4L76.57,106.03L76.82,197.22L76.94,158.14L76.97,119.06L77.33,180.94L77.81,145.11L77.81,132.08L78.18,174.43L78.24,115.8L78.53,135.34L78.57,180.94L78.65,109.29L78.77,193.97L79.32,164.65L79.33,164.65L79.8,216.76L79.89,86.49L80.06,154.88L80.11,148.37L80.24,119.06L80.6,190.7L80.86,190.7L80.87,154.88L81.31,187.45L81.6,122.32L81.61,135.35L81.72,154.88L81.88,125.58L81.88,171.16L81.97,161.39L82.03,180.93L82.07,197.21L82.7,135.34L82.7,148.37L82.71,167.91L83.19,115.81L83.42,177.67L83.45,177.67L83.5,125.58L83.75,119.07L83.76,184.18L84.21,138.6L84.29,164.65L84.8,193.95L84.87,109.3L84.98,164.65L85.07,135.35L85.53,112.56L85.54,190.69L85.77,161.39L85.83,180.93L86.16,86.51L86.59,122.32L86.61,135.34L86.79,132.09L87.05,177.67L87.06,154.88L87.06,132.09L87.53,112.56L87.54,197.21L87.83,180.93L87.83,122.32L87.98,119.06L88.04,184.19L88.58,171.16L88.6,145.11L88.68,119.06L89.15,203.73L89.35,141.86L89.41,161.39L89.7,99.53L89.94,203.73L89.96,125.57L90.15,119.06L90.42,206.99L90.71,125.58L90.71,122.32L91.09,115.81L91.09,187.44L91.5,154.88L91.53,115.82L91.92,180.92L92.26,47.49L92.29,193.94L92.31,210.21L92.91,112.56L93.02,158.14L93.08,164.65L93.33,193.95L93.75,128.84L93.85,145.12L94.43,210.22L94.52,83.27L94.59,135.35L94.65,174.42L94.68,193.95L95.21,34.45L95.4,145.12L95.41,158.13L95.45,112.58L95.58,216.7L95.85,145.12L95.87,138.61L96.23,213.47L96.26,89.78L96.52,161.39L96.62,158.14L96.66,109.31L96.82,190.69L97.37,154.88L97.4,141.86L97.66,115.82L97.77,193.94L98.14,145.12L98.16,125.59L98.23,119.07L98.25,193.94L98.81,154.88L98.94,154.88L99.11,167.9L99.24,125.58L99.69,141.86L99.73,145.12L99.94,190.69L100.22,102.8L100.44,145.12L100.52,213.47L100.54,86.52L101.27,190.69L101.29,141.86L101.29,93.04L101.45,180.92L102.02,171.16L102.07,154.88L102.5,99.55L102.55,190.69L102.79,148.37L102.81,154.88L103.02,174.41L103.48,112.57L103.48,112.57L103.49,190.69L103.5,102.8L103.59,197.2L104.23,145.12L104.3,148.37L104.59,122.33L104.98,180.92L105.03,148.37L105.22,197.2L105.28,106.05L105.63,174.41L105.65,122.33L106.2,193.94L106.22,106.06L106.4,148.37L106.45,154.88L106.77,187.43L107.04,122.33L107.09,184.18L107.09,190.69L107.34,119.08L107.83,167.9L107.85,148.37L107.93,122.33L108.29,203.7L108.59,164.64L108.6,138.61L108.77,193.94L108.87,93.04L109.35,164.65L109.37,138.61L109.49,112.56L109.76,203.71L109.84,138.6L109.84,115.82L110.03,106.05L110.05,197.2L110.57,148.37L110.63,158.14L110.76,112.56L110.77,190.69L111.36,135.35L111.4,148.37L111.46,96.3L111.65,187.43L112.14,138.61L112.22,161.39L112.56,190.69L112.6,115.82L112.97,161.39L112.97,164.65L113.63,128.84L113.67,154.88L113.73,174.41L113.74,122.33L113.94,180.92L114.48,164.65L114.52,164.65L115.22,203.72L115.23,99.53L115.27,158.14L115.3,145.12L115.8,132.09L115.8,171.16L115.8,154.88L115.81,115.81L115.88,80L116.3,197.21L116.56,128.85L116.58,128.85L116.75,213.47L116.89,83.27L117.3,174.41L117.34,154.88L117.82,184.18L118.02,109.3L118.03,177.67L118.07,177.67L118.16,80L118.23,190.69L118.82,154.88L118.83,145.12L119.17,190.69L119.26,115.82L119.45,164.65L119.5,99.54L119.5,216.73L119.53,73.5L120.25,161.39L120.26,161.39L120.39,187.44L120.57,122.33L120.58,177.67L120.58,187.44L120.7,213.48L121.05,132.09L121.23,148.37L121.23,132.09L121.58,99.54L121.91,184.19L121.99,180.94L122,122.32L122.11,89.77L122.21,216.74L122.74,141.86L122.81,141.86L123,190.7L123.44,122.32L123.55,141.86L123.56,161.39L123.62,135.35L123.97,184.19L123.98,135.34L124.13,112.55L124.24,190.7L124.58,125.58L124.59,180.93L124.66,119.06L125.33,154.88L125.36,148.37L125.48,180.93L125.84,115.81L126.08,158.14L126.16,154.88L126.57,125.58L126.64,180.93L126.89,167.91L126.9,135.34L127.4,193.95L127.63,119.07L127.66,135.35L128.06,112.56L128.4,184.19L128.41,148.37L128.42,154.88L129.12,102.8L129.13,200.46L129.16,184.19L129.25,138.6L129.54,125.58L129.62,193.96L130,161.39L130.02,148.37L130.11,193.95L130.51,109.3L130.63,148.37L130.67,177.67L130.67,102.79L130.8,197.21L131.42,164.65L131.45,184.18L131.65,200.46L131.95,112.56L132.14,154.88L132.15,145.11L132.24,99.54L132.24,203.72L132.72,184.19L132.77,115.81L132.85,190.7L133.04,102.78L133.51,132.09L133.53,148.37L134.2,102.79L134.24,200.46L134.27,171.16L134.37,145.11L134.44,187.44L134.52,122.32L135.03,154.88L135.07,177.67L135.63,190.69L135.8,115.82L135.84,167.9L135.9,99.54L136.36,190.68L136.59,161.39L136.62,141.86L137.11,112.57L137.19,190.68L137.4,174.41L137.43,128.84L137.89,99.55L138,203.7L138.15,193.94L138.22,158.14L138.72,213.46L138.78,102.8L138.94,119.08L139.08,145.12L139.14,109.32L139.57,210.21L139.82,145.12L139.86,158.14L140.5,96.3L140.52,190.68L140.6,125.59L140.63,164.65L140.68,112.57L141.32,213.47L141.38,154.88L141.42,93.04L141.46,216.72L141.48,86.53L142.13,135.35L142.17,148.37L142.76,112.57L142.79,190.69L142.87,141.86L142.87,112.57L143.61,184.18L143.65,138.61L144.07,203.7L144.3,93.04L144.37,154.88L144.43,158.14L144.93,106.06L145.14,206.97L145.15,148.37L145.19,102.8L145.21,206.97L145.94,154.88L145.96,154.88L146.5,184.17L146.5,109.32L146.68,161.39L146.71,161.39L147.05,119.08L147.26,200.45L147.46,141.86L147.47,161.39L147.47,86.51L147.48,193.95L148.21,164.65L148.23,138.61L148.34,174.41L148.66,102.8L148.97,141.86L149,141.86L149.04,125.58L149.65,174.41L149.66,141.86L149.74,158.14L150.25,180.92L150.29,122.33L150.42,164.65L150.53,138.61L150.58,70.27L150.99,210.2L151.3,148.37L151.35,148.37L151.52,96.3L151.58,206.95L152.08,138.61L152.12,145.12L152.29,122.33L152.7,177.66L152.86,174.41L152.93,145.12L153.35,200.45L153.37,102.8L153.64,138.61L153.67,164.64L153.98,128.84L154.15,187.42L154.31,128.84L154.36,138.61L155.03,193.94L155.04,109.31L155.06,164.65L155.12,112.57L155.19,93.04L155.57,184.18L155.87,138.6L155.88,128.84L155.94,187.42L156.01,83.27L156.5,158.14L156.51,161.39L156.61,128.84L156.71,210.22L156.73,184.18L156.73,119.07L156.78,122.33L156.83,119.07L156.84,184.18L157.1,119.08L157.61,132.1L157.64,132.1L158.06,112.57L158.15,187.42L158.34,154.88L158.4,145.12L158.71,190.68L159.03,112.57L159.15,148.37L159.17,125.59L159.87,115.83L159.88,187.42L159.88,187.42L159.89,115.83L160.25,112.58L160.3,203.69L160.64,171.15L160.67,171.15L160.71,99.56L160.75,177.66L161.42,158.13L161.45,119.09L161.49,93.06L162.02,187.42L162.2,154.88L162.27,164.64L162.59,200.44L162.6,102.81L163.01,154.88L163.03,180.91L163.27,184.17L163.76,128.85L163.81,158.13L163.93,115.83L164.41,187.43L164.47,132.1L164.61,174.41L165.14,226.49L165.16,73.5L165.34,180.92L165.37,122.34L165.38,184.17L165.88,106.06L166.11,138.61L166.13,138.61L166.37,187.43L166.73,112.57L166.84,115.83L166.87,115.83L166.93,86.53L167.52,171.16L167.63,154.88L167.66,148.37L167.95,141.86L168.04,171.15L168.11,167.9L168.13,171.15L168.39,106.06L168.63,180.92L168.87,115.82L168.89,167.9L168.91,109.31L169.43,193.94L169.63,132.09L169.64,187.44L169.64,206.97L169.7,96.28L170.39,135.36L170.4,135.36L170.42,86.56L170.87,180.91L171.15,148.37L171.16,174.4L171.44,112.57L171.69,184.17L171.8,141.86L171.9,171.15L172.24,180.91L172.64,112.57L172.68,112.57L173.21,99.56L173.44,216.71L173.49,158.14L173.58,112.57L173.85,184.17L174.23,145.12L174.3,154.88L174.44,193.94L174.65,96.3L175.03,164.65L175.06,135.35L175.5,206.96L175.54,86.53L175.81,135.35L175.84,167.9L176.32,99.55L176.44,229.75L176.58,102.8L176.61,102.8L177.35,226.49L177.37,89.78L177.65,216.73L178.13,203.72L178.16,154.88L178.49,73.47L178.52,200.46L178.84,187.44L178.87,187.44L178.94,190.7L178.95,112.56L179.47,200.46L179.47,102.8L179.71,158.14L179.74,148.37L179.88,119.07L180.07,180.92L180.39,148.37L180.39,135.35L180.63,115.82L180.69,180.93L181,138.6L181,119.07L181.28,73.51L181.29,229.74L181.67,203.72L181.78,148.37L182.44,122.33L182.48,187.43L182.53,180.92L182.57,148.37L182.74,115.82L182.74,206.96L183.3,187.43L183.34,154.88L183.67,184.18L183.69,112.57L183.92,154.88L184.18,164.65L184.58,122.33L184.59,184.18L184.88,164.64L184.95,167.9L185.01,206.95L185.46,115.82L185.68,161.39L185.72,161.39L185.87,106.05L185.89,197.2L186.47,187.43L186.52,112.56L186.53,190.69L187.26,158.14L187.29,148.37L187.62,115.81L187.89,184.18L188.03,125.58L188.06,148.37L188.19,226.49L188.46,102.81L188.81,154.88L188.86,154.88L189.35,190.69L189.54,106.06L189.61,145.12L189.62,119.09L190.09,184.17L190.09,119.08L190.36,148.37L190.39,145.12L190.45,177.66L190.56,112.58L191.13,154.88L191.15,145.12L191.27,184.17L191.54,115.84L191.9,132.1L191.92,171.15L192.17,115.84L192.24,187.41L192.64,174.4L192.7,145.12L193.23,93.06L193.3,239.48L193.43,132.1L193.51,226.46L193.51,73.53L194.25,180.91L194.38,138.61L194.9,109.33L194.92,200.43L195.11,141.87L195.13,119.09L195.29,213.44L195.33,76.81L195.87,138.62L195.93,154.88L196.31,203.68L196.48,119.09L196.7,135.36L196.7,148.37L197.01,102.83L197.05,193.92L197.23,138.62L197.39,138.62L197.42,80.07L197.85,193.91L198.1,184.16L198.14,125.6L198.45,193.92L198.59,122.35L198.89,167.89L198.91,135.36L199.1,177.65L199.1,161.38L199.11,125.6L199.35,73.56L199.6,229.69L199.86,174.4L199.87,128.85L199.9,187.42L200.02,89.82L200.62,154.88L200.62,122.34L200.93,177.65L201.31,135.36L201.36,135.36L202.08,119.09L202.09,184.16L202.12,158.13L202.53,203.67L202.53,99.58L202.86,119.1L202.86,161.38L203.19,119.1L203.3,164.64L203.58,145.12L203.62,177.65L203.96,193.92L204.1,93.08L204.36,158.13L204.39,145.12L204.42,213.42L204.44,89.83L205.14,128.85L205.15,141.87L205.2,115.84L205.22,177.65L205.22,125.61L205.23,245.94L205.31,57.31L205.93,167.89L206,161.39L206.12,213.44L206.24,89.82L206.77,138.61L206.77,164.64L207.2,190.66L207.25,112.59L207.51,145.12L207.55,161.39L207.9,122.35L208.03,180.91L208.28,141.87L208.31,148.37L208.73,99.57L208.79,203.68L209,135.36L209.03,167.89L209.43,96.31L209.77,197.19L209.78,158.14L209.8,145.12L210.08,115.84L210.09,203.69L210.54,145.12L210.56,187.42L210.59,193.93L210.64,109.32L211.3,119.09L211.32,167.9L211.43,184.16L211.87,122.34L212.03,145.12L212.08,161.39L212.31,167.9L212.85,128.85L212.87,141.87L212.89,141.87L213.29,89.81L213.3,187.42L213.58,125.6L213.6,158.13L213.81,180.91L214.19,122.34L214.23,161.39L214.23,180.91L214.26,115.83L214.71,197.18L214.98,167.9L215,135.36L215.07,190.68L215.09,80.02L215.7,161.39L215.71,99.56L216.48,203.7L216.54,203.7L216.58,99.55L217.29,138.61L217.34,148.37L217.43,115.83L217.72,219.96L218.09,148.37L218.16,135.36L218.55,112.58L218.9,177.66L218.91,112.57L219.37,109.32L219.58,180.92L219.65,125.59L219.67,135.35L220.24,187.43L220.37,99.55L220.42,161.39L220.43,141.86L220.55,89.79L220.95,255.76L221.1,135.35L221.11,119.08L221.12,229.73L221.84,145.12L221.88,158.14L222.33,93.05L222.44,203.69L222.62,138.61L222.64,138.61L222.81,187.43L223.05,112.58L223.22,145.12L223.22,132.1L223.59,184.17L223.83,119.09L223.96,161.39L223.99,171.15L224.18,122.34L224.37,193.93L224.74,171.15L224.74,132.1L224.93,187.42L224.94,119.08L225.5,171.15L225.52,128.84L225.68,180.92L225.69,99.54L226.18,171.16L226.18,132.1L226.47,96.3L226.63,236.25L226.93,148.37L226.94,122.34L227.31,83.27L227.38,259.03L227.66,161.39L227.76,187.43L227.78,239.51L227.84,76.77L228.47,184.17L228.54,138.61L228.56,210.19L228.92,112.58L229.26,174.4L229.31,132.1L229.44,197.18L229.47,115.83L230.08,171.15L230.1,125.59L230.69,96.31L230.72,206.94L230.79,164.64L230.86,164.64L231,236.23L231.04,86.54L231.58,190.67L231.62,154.88L231.95,177.66L232,122.34L232.34,135.36L232.39,145.12L232.86,115.84L233.12,203.69L233.16,99.56L233.25,190.66L233.91,148.37L233.93,141.87L234.6,89.82L234.6,213.43L234.67,154.88L234.7,164.64L234.71,193.92L235.08,106.08L235.38,167.89L235.47,164.64L235.83,122.35L235.88,197.17L236.25,145.12L236.28,158.13L236.47,180.91L236.53,122.35L236.89,167.89L236.89,190.66L236.98,115.84L237.6,180.9L237.66,158.13L237.68,109.34L237.94,167.89L238.39,148.37L238.41,148.37L238.53,200.41L238.54,102.85L239.16,154.88L239.17,141.87L239.43,93.1L239.84,190.65L239.89,141.87L239.96,190.65L240.18,102.84L240.73,122.36L240.82,161.38L241.17,187.4L241.55,106.09L241.58,154.88L241.61,102.84L241.78,193.91L242.35,180.9L242.36,141.87L242.86,190.66L242.98,93.08L243.01,190.65L243.05,102.83L243.59,93.08L243.71,210.18L243.8,180.9L243.82,148.37L243.85,109.34L244.1,197.16L244.56,154.88L244.58,125.61L245.31,106.09L245.31,197.16L245.34,106.09L245.45,190.66L246.03,154.88L246.11,148.37L246.69,132.11L246.82,177.65L246.83,158.13L246.85,125.61L247.33,102.84L247.61,187.41L247.65,115.85L248.1,180.9L248.38,161.38L248.39,145.12L248.52,171.14L248.85,135.36L248.85,171.14L248.93,112.6L249.15,187.41L249.58,154.88L249.62,154.88L249.67,99.59L249.72,197.16L250.27,187.41L250.3,115.84L250.79,174.4L251.07,145.12L251.07,128.86L251.61,193.91L251.64,106.09L251.82,148.37L251.83,154.88L252.21,122.36L252.58,193.91L252.58,174.39L252.66,128.86L252.72,119.1L253.07,184.15L253.34,180.9L253.45,135.36L253.68,93.07L254.11,197.16L254.2,180.9L254.21,154.88L254.27,200.41L254.38,99.59L254.86,158.13L254.86,184.15L255.26,106.1L255.59,164.64L255.62,164.64L255.89,203.67L256.35,96.34L256.41,164.64L256.78,184.15L257.14,115.85L257.14,115.85L257.16,158.13L257.81,206.92L257.81,96.33L257.88,141.87L257.92,154.88L258.08,180.9L258.52,50.85L258.64,128.87L258.67,275.16L259.39,63.8L259.44,164.63L259.46,219.92L259.56,76.81L260.19,158.13L260.22,148.37L260.37,93.09L260.38,210.16L260.9,141.87L260.9,135.36L261.3,109.35L261.54,193.9L261.59,161.38L261.59,125.61L261.66,180.9L261.83,86.59L262.34,138.62L262.35,164.63L262.65,80.08L262.78,210.16L263.08,132.11L263.18,145.12L263.32,184.15L263.36,93.09L263.91,158.13L263.95,158.13L264.01,210.16L264.12,89.84L264.64,138.62L264.71,138.62L264.81,83.34L264.82,219.92L265.41,154.88L265.47,106.1L265.55,200.4L266.05,76.84L266.06,158.13L266.3,193.9L266.41,106.1L266.54,161.38L266.56,76.83L266.6,210.17L267.31,122.36L267.32,115.86L267.32,187.39L267.36,112.61L268.06,132.12L268.14,158.13L268.34,106.09L268.45,187.39L268.91,145.12L268.91,154.88L269.58,109.36L269.59,200.39L269.64,161.38L269.81,148.37L269.94,167.88L269.98,112.61L270.18,161.38L270.18,177.63L270.73,210.16L270.75,93.09L270.87,154.88L270.92,148.37L270.93,135.36L271.24,180.9L271.65,145.12L271.68,148.37L272.22,184.15L272.29,115.85L272.4,119.1L272.44,148.37L272.54,184.15L273.02,125.61L273.18,132.11L273.21,154.88L273.33,93.08L273.72,210.16L273.89,187.41L273.94,115.85L274.03,219.93L274.05,83.32L274.67,148.37L274.73,154.88L275.1,122.36L275.17,167.89L275.19,128.86L275.2,184.15L275.29,219.92L275.3,83.33L275.93,174.4L275.97,135.36L276.04,125.6L276.47,174.39L276.72,138.62L276.73,145.12L276.87,115.85L276.87,187.4L277.35,119.11L277.35,184.15L277.51,193.9L277.88,99.6L278.02,164.63L278.11,193.9L278.41,236.24L278.41,67.02L278.92,138.61L278.92,171.14L279.43,99.59L279.56,210.18L279.66,161.38L279.75,141.87L280.31,219.93L280.35,70.31L280.45,141.87L280.48,193.91L280.63,96.33L281.23,164.63L281.27,164.63L281.52,245.95L282.03,132.11L282.05,171.14L282.22,193.91L282.23,86.57L282.78,135.37L282.85,148.37L282.93,213.43L282.94,89.82L283.48,148.37L283.58,141.87L283.93,226.43L284.14,106.09L284.31,138.62L284.41,210.17L284.42,86.58L285.03,229.68L285.11,141.87L285.2,158.13L285.64,115.85L285.67,193.9L285.96,145.12L285.97,158.13L286.38,187.41L286.5,119.1L286.71,145.12L286.73,145.12L286.92,125.61L287.11,177.65L287.47,135.36L287.5,141.87L288.13,109.35L288.19,200.41L288.2,187.4L288.28,171.14L288.44,252.44L288.9,112.61L289.01,161.38L289.09,154.88L289.24,200.41L289.65,122.36L289.82,184.14L289.84,148.37L290.3,122.36L290.41,190.65L290.45,174.39L290.49,177.64L290.85,106.1L291.14,206.91L291.23,174.39L291.27,187.4L291.59,106.1L291.63,197.15L292.02,148.37L292.06,154.88L292.43,115.85L292.5,203.66L292.75,180.9L292.77,122.35L292.96,99.59L293.42,200.42L293.52,177.65L293.54,135.36L293.8,93.08L293.81,210.17L294.25,180.9L294.26,99.59L294.58,219.93L294.59,83.33L295,154.88L295.02,154.88L295.35,193.9L295.71,109.36L295.78,154.88L295.96,197.16L296.16,99.59L296.47,125.61L296.49,119.11L296.87,60.58L296.89,242.68L297.24,171.14L297.27,125.61L297.63,102.83L297.64,200.42L298.01,128.86L298.06,148.37L298.34,115.85L298.59,177.64L298.78,122.35L298.84,180.9L298.93,125.61L298.94,99.59L299.04,96.34L299.59,193.91L299.68,135.36L299.73,145.12L299.95,190.66L300.41,115.84L300.44,141.87L300.5,138.61L300.95,96.32L301.01,193.92L301.2,109.34L301.23,193.91L301.26,236.21L301.62,119.1L301.98,148.37L301.99,138.62L302.44,96.33L302.46,206.93L302.73,154.88L302.75,161.39L302.75,83.31L302.93,190.67L303.47,148.37L303.55,158.13L303.83,102.82L304.17,184.16L304.18,119.09L304.81,216.72L304.85,86.54L304.94,197.19L304.96,197.19L305.25,102.82L305.26,200.43L305.73,128.85L305.73,174.4L306.19,206.94L306.3,99.57L306.46,132.1L306.48,171.15L306.54,112.57L306.55,190.68L307.23,125.6L307.24,154.88L307.33,193.92L307.49,93.06L307.95,141.87L308.01,171.15L308.18,190.67L308.62,106.08L308.73,154.88L308.78,158.13L308.81,184.16L309.51,106.08L309.51,132.11L309.55,148.37L309.64,197.17L310.21,109.34L310.28,145.12L310.41,161.39L310.96,268.74L310.98,34.51L311.15,167.89L311.18,135.36L311.39,125.6L311.77,187.41L311.95,145.12L311.98,132.11L312.34,180.91L312.55,115.85L312.72,138.62L312.74,164.64L312.78,115.84L312.82,184.16L313.03,132.11L313.03,122.35L313.28,200.42L313.59,112.59L313.75,154.88L313.8,148.37L314.06,119.1L314.28,193.91L314.52,161.39L314.55,141.87L314.64,193.91L314.95,96.33L315.29,122.35L315.31,154.88L315.38,187.41L315.73,115.84L315.98,164.64L316.07,167.89L316.26,187.41L316.38,109.34L316.81,177.65L316.82,180.91L317.4,216.69L317.48,80.06L317.59,119.09L317.62,148.37L317.63,193.92L317.98,112.59L318.37,154.88L318.38,148.37L319.13,210.19L319.13,93.07L319.16,158.13L319.22,161.39L319.32,83.31L319.51,132.11L319.6,180.9L320.27,206.93L320.3,96.32L320.37,132.11L320.45,135.36L320.61,115.84L320.82,187.42L321.15,135.35L321.21,138.61L321.83,96.31L321.85,184.16L321.97,161.39L321.97,135.36L322.54,203.7L322.54,99.55L322.71,161.39L322.75,177.67L322.81,184.18L323.2,119.09L323.5,158.13L323.51,154.88L323.52,102.82L323.53,187.42L324.2,158.13L324.27,148.37L324.42,112.58L324.42,190.67L324.99,148.37L325.01,158.13L325.46,161.39L325.82,141.87L325.82,161.39L325.97,177.66L326.12,125.59L326.57,135.36L326.57,167.9L326.93,174.41L327.08,109.32L327.25,141.87L327.31,171.15L327.84,106.08L327.95,203.68L328.06,158.13L328.08,145.12L328.13,86.56L328.7,232.97L328.8,135.35L328.86,93.06L329.04,86.57L329.04,216.68L329.63,135.36L329.67,135.36L330.17,89.81L330.31,219.94L330.42,158.13L330.53,112.59L331.21,187.42L331.28,154.88L331.32,154.88L332.01,122.35L332.06,193.92L332.06,193.92L332.08,119.09L332.27,112.59L332.42,206.94L332.83,154.88L332.86,154.88L332.87,229.73L333.47,122.34L333.58,138.61L333.61,128.85L333.86,119.08L333.92,184.17L334.38,148.37L334.4,148.37L334.51,184.17L334.88,109.32L335.14,138.61L335.14,158.13L335.65,115.83L335.71,226.47L335.77,154.88L335.78,119.08L336.06,96.31L336.29,216.71L336.55,171.15L336.58,154.88L336.9,187.42L336.91,115.83L337.31,128.85L337.34,177.66L337.92,135.35L338.09,145.12L338.12,145.12L338.15,200.44L338.15,102.81L338.85,125.59L338.95,154.88L339.42,206.96L339.62,93.04L339.69,174.41L339.73,193.94L339.98,119.08L340.46,161.39L340.5,141.86L341.05,106.06L341.06,197.2L341.24,138.61L341.26,158.14L341.33,161.39L341.37,119.08L341.39,154.88L341.39,184.17L342.09,203.71L342.12,99.54L342.12,167.9L342.16,99.54L342.89,193.94L342.91,171.16L342.93,145.12L343.17,187.43L343.58,125.59L343.68,154.88L343.7,148.37L344.23,99.55L344.48,216.74L344.48,190.7L344.5,112.55L344.74,109.3L345.25,193.95L345.27,161.39L345.35,158.14L345.64,125.58L345.71,174.42L346.03,154.88L346.05,171.16L346.07,96.28L346.07,206.97L346.76,154.88L346.82,148.37L347.16,223.24L347.34,93.03L347.57,158.14L347.6,158.14L347.7,184.18L347.71,99.54L348.3,148.37L348.3,154.88L348.59,184.18L349.01,122.32L349.01,132.09L349.03,158.14L349.52,112.56L349.63,190.7L349.74,145.11L349.74,135.35L350.04,99.53L350.44,184.18L350.47,164.65L350.52,141.86L350.63,96.27L351,193.95L351.28,180.92L351.28,154.88L351.34,210.22L351.91,128.83L351.95,128.83L352.35,184.18L352.37,115.81L352.7,125.58L352.71,171.16L352.82,106.05L353.11,177.67L353.35,112.56L353.37,112.56L353.8,210.24L353.85,76.73L354.14,141.86L354.14,102.79L354.58,86.51L354.59,216.75L354.89,154.88L354.9,148.37L355,197.2L355.32,99.54L355.62,161.39L355.71,161.39L356.39,115.82L356.39,187.43L356.45,164.65L356.48,148.37L356.65,138.6L357.13,190.69L357.22,145.11L357.22,115.81L357.45,187.44L357.97,148.37L358.02,154.88L358.59,197.2L358.62,106.06L358.75,167.9L358.75,171.16L359.31,122.33L359.31,184.18L359.45,145.12L359.49,158.14L359.55,180.93L359.56,122.33L360.15,167.9L360.17,167.91L360.43,115.81L360.56,197.21L360.92,197.21L360.95,177.67L361.26,112.56L361.26,193.95L361.51,115.81L361.54,187.44L361.91,193.94L362.22,119.07L362.31,161.39L362.39,154.88L363.02,180.93L363.03,112.56L363.16,132.09L363.21,171.16L363.26,102.8L363.85,206.97L363.96,112.56L363.99,164.65L364,190.7L364.02,96.29L364.71,161.39L364.8,154.88L365.12,200.46L365.18,102.79L365.51,167.91L365.58,158.14L365.98,193.95L366,89.77L366.28,119.08L366.28,184.18L366.71,102.8L366.72,200.46L367.02,161.39L367.04,161.39L367.16,193.94L367.44,115.82L367.7,167.9L367.74,177.67L368.39,89.79L368.4,213.47L368.5,145.12L368.52,158.14L368.84,177.66L368.86,106.06L369.27,154.88L369.28,154.88L369.75,106.06L369.82,174.41L369.86,145.12L369.9,184.17L370.22,96.3L370.66,154.88L370.71,167.9L371.01,197.19L371.06,106.06L371.46,148.37L371.47,148.37L371.68,115.81L371.68,187.44L372.18,167.9L372.23,119.08L372.38,83.28L372.4,190.68L372.98,158.13L373,148.37L373.31,96.3L373.55,187.43L373.68,145.12L373.68,128.85L373.88,112.58L374.15,187.42L374.45,174.41L374.47,128.85L375.01,187.42L375.02,115.83L375.19,164.64L375.25,148.37L375.41,102.81L375.45,206.94L375.98,161.39L375.99,161.39L376.7,213.45L376.72,89.8L376.77,158.13L376.8,89.8L376.83,213.45L377.43,167.9L377.53,154.88L377.94,187.42L378.27,102.81L378.28,200.45L378.37,197.19L378.37,197.19L378.39,106.06L378.45,200.45L379.13,154.88L379.16,132.1L379.2,197.18L379.53,115.83L379.82,122.34L379.91,122.34L380.62,106.07L380.65,210.2L380.69,93.05L381.36,180.92L381.46,167.9L381.49,132.1L381.55,102.81L381.81,193.93L382.26,187.43L382.3,141.86L382.66,216.72L382.84,115.82L383.05,128.85L383.05,145.12L383.5,171.15L383.55,122.34L383.55,122.34L383.57,180.91L383.95,132.1L384.33,138.61L384.41,161.39L384.95,184.17L385.08,112.58L385.11,158.13L385.15,167.9L385.74,115.83L385.76,193.93L385.88,141.86L385.95,145.12L386.52,125.59L386.63,180.91L386.63,122.34L386.86,112.57L386.97,180.91L387.36,158.14L387.41,148.37L387.7,119.08L387.73,184.17L388.16,128.85L388.17,154.88L388.29,145.12L388.31,158.14L388.31,177.66L388.34,119.08L389.04,180.91L389.07,128.84L389.08,177.66L389.63,66.97L389.78,223.24L389.82,125.58L389.85,125.58L389.91,53.97L389.94,226.49L390.58,154.88L390.6,148.37L390.86,184.17L391.19,115.82L391.34,148.37L391.34,135.35L391.58,210.21L391.73,80.03L392.05,141.86L392.1,141.86L392.68,125.59L392.75,180.91L392.82,135.36L392.86,184.17L393.39,112.57L393.59,148.37L393.66,138.61L393.77,193.93L394.37,102.81L394.41,148.37L394.42,154.88L394.88,60.56L394.97,242.7L395.02,239.47L395.04,63.79L395.08,206.94L395.8,138.61L395.82,161.39L396.02,93.05L396.1,210.2L396.57,148.37L396.58,148.37L396.99,115.83L397.3,197.18L397.39,197.18L397.41,31.26L397.7,219.94L398.12,145.12L398.15,148.37L398.16,102.81L398.35,193.93L398.87,125.59L398.92,132.1L398.92,122.34L399,180.91" style="vector-effect: non-scaling-stroke; fill: none; stroke: rgb(239, 85, 59); stroke-opacity: 1; stroke-width: 2px; opacity: 1;"/></g><g class="points"/><g class="text"/></g><g class="trace scatter trace6a3769" style="stroke-miterlimit: 2; opacity: 1;"><g class="fills"/><g class="errorbars"/><g class="lines"><path class="js-line" d="M0,132.11L0.16,132.1L0.2,93.06L0.63,15L0.99,148.37L1.09,148.37L1.26,125.6L1.28,99.57L1.44,148.37L2,128.85L2.04,138.61L2.27,148.37L2.47,109.33L2.73,119.09L2.81,135.36L2.95,148.37L3.1,96.32L3.11,148.37L3.23,145.12L3.23,148.37L3.24,122.35L3.24,99.56L3.38,148.37L3.99,135.36L4.04,145.12L4.25,109.33L4.6,148.37L4.76,145.12L4.85,148.37L5.22,106.08L5.58,138.61L5.62,145.12L5.96,148.37L6.32,99.58L6.37,148.37L6.46,135.36L6.67,102.83L7.12,148.37L7.29,148.37L7.69,115.84L8.07,145.12L8.11,148.37L8.75,109.34L8.78,145.12L8.93,148.37L8.99,80.06L9.55,102.84L9.57,132.11L9.68,141.87L9.73,122.35L9.87,141.87L9.89,148.37L9.96,128.86L10.51,141.87L10.56,145.12L10.68,148.37L10.93,122.35L11.06,148.37L11.19,148.37L11.57,119.1L11.85,132.11L11.95,145.12L12.18,122.35L12.19,148.37L12.66,122.36L12.73,122.36L13.25,115.85L13.55,148.37L13.55,145.12L13.61,145.12L13.65,148.37L14.06,112.6L14.31,141.87L14.37,148.37L14.65,148.37L14.65,145.12L14.78,125.61L14.82,148.37L15.26,148.37L15.33,148.37L16.06,128.86L16.11,138.62L16.2,119.1L16.84,148.37L16.87,145.12L16.97,145.12L17.42,106.09L17.54,148.37L17.56,122.35L17.58,122.35L18.28,148.37L18.28,89.82L18.35,138.62L18.38,138.62L18.52,148.37L18.53,135.36L18.53,119.1L18.56,148.37L19.01,112.6L19.28,122.35L19.3,122.35L19.53,112.59L19.55,148.37L19.8,125.6L19.84,148.37L20.59,106.08L20.68,112.59L20.71,145.12L20.88,109.34L21.34,148.37L21.41,119.1L21.48,70.3L21.48,148.37L22.16,135.36L22.23,148.37L22.38,102.83L22.98,145.12L23,145.12L23.04,109.34L23.12,148.37L23.68,125.6L23.79,128.86L24.12,115.85L24.16,148.37L24.19,119.1L24.29,122.35L24.46,148.37L24.72,109.34L25.03,145.12L25.06,148.37L25.3,119.1L25.32,148.37L25.91,86.57L26.07,141.87L26.13,145.12L26.48,148.37L26.88,106.07L26.89,106.07L27,148.37L27.22,96.32L27.62,148.37L27.65,148.37L28.32,96.31L28.4,109.33L28.44,96.31L28.44,83.3L28.52,148.37L29.18,119.08L29.23,135.36L29.48,119.08L29.95,148.37L29.98,145.12L30.03,132.1L30.36,112.58L30.78,148.37L30.8,138.61L30.82,132.1L31.02,148.37L31.47,115.83L31.53,135.36L31.6,128.85L32,63.73L32.19,148.37L32.25,135.35L32.29,115.82L32.99,96.3L33.03,148.37L33.04,96.3L33.04,83.28L33.31,148.37L33.73,128.84L33.8,148.37L34.62,89.79L34.64,132.1L35.02,119.09L35.08,148.37L35.27,132.1L35.27,109.33L35.56,106.07L35.87,148.37L36.01,128.84L36.04,128.84L36.44,125.59L36.52,148.37L36.62,145.12L36.63,122.33L36.68,148.37L37.24,102.81L37.38,102.83L37.39,102.83L37.93,86.54L38.15,148.37L38.18,115.82L38.91,148.37L38.94,125.59L38.94,102.8L39.57,148.37L39.67,145.12L39.67,122.33L39.74,115.82L40.35,148.37L40.41,125.59L40.47,125.59L40.58,102.81L40.58,148.37L41.13,145.12L41.23,132.1L41.33,148.37L41.51,109.32L41.92,125.59L41.95,148.37L42.29,119.08L42.56,148.37L42.58,148.37L42.76,109.31L43.28,145.12L43.3,148.37L43.85,109.3L44.02,145.12L44.06,145.12L44.06,148.37L44.54,109.31L44.78,132.1L44.88,135.35L45.42,109.3L45.58,148.37L45.59,125.59L45.96,148.37L45.98,80.02L46.2,138.61L46.32,132.09L46.51,89.78L46.59,148.37L47.07,145.12L47.08,128.84L47.52,102.79L47.82,148.37L47.86,148.37L48.38,53.97L48.6,115.82L48.63,115.82L49.27,148.37L49.34,128.84L49.4,128.84L49.49,148.37L49.58,119.08L50.14,141.86L50.16,115.82L50.6,86.52L50.91,148.37L50.91,122.33L50.91,102.8L50.91,63.76L50.93,148.37L51.66,135.35L51.69,132.1L51.73,109.32L52.38,148.37L52.45,138.61L52.45,119.08L52.55,112.57L53.22,148.37L53.22,128.84L53.27,128.84L53.88,119.08L54.02,148.37L54.02,148.37L54.07,145.12L54.22,128.84L54.22,148.37L54.29,128.84L54.29,122.33L54.47,148.37L54.6,109.31L55.02,125.59L55.06,141.86L55.17,102.8L55.64,148.37L55.7,128.84L55.71,122.33L56.31,89.79L56.45,148.37L56.45,125.59L56.47,141.86L56.57,148.37L56.6,99.56L57.08,138.61L57.12,138.61L57.26,148.37L57.32,125.58L57.33,128.84L57.33,96.28L57.33,80L57.55,148.37L58.07,145.12L58.13,145.12L58.47,148.37L58.87,119.07L58.87,145.12L58.89,141.86L59.08,148.37L59.48,89.77L59.63,132.1L59.67,112.56L59.82,99.54L60.02,148.37L60.39,145.12L60.43,109.31L60.87,148.37L60.87,86.52L61.1,119.08L61.13,119.08L61.36,96.29L61.49,148.37L61.88,145.12L61.9,125.58L61.97,148.37L62.36,112.56L62.6,145.12L62.66,141.86L62.72,125.58L62.8,148.37L63.41,125.58L63.44,122.33L63.76,93.02L64.14,148.37L64.19,112.56L64.76,89.75L64.93,148.37L64.95,132.09L64.97,141.86L65.16,109.29L65.42,148.37L65.59,128.83L65.59,109.3L65.7,99.53L66.33,148.37L66.33,122.32L66.35,119.06L66.36,109.3L66.5,148.37L67.08,135.35L67.11,135.35L67.31,138.6L67.31,122.32L67.35,122.32L67.35,115.81L67.74,93.04L67.83,148.37L68.13,145.11L68.13,122.31L68.26,99.52L68.83,148.37L68.91,138.6L68.94,138.6L69.03,148.37L69.48,93.02L69.67,141.86L69.7,145.11L69.77,96.28L70.21,148.37L70.39,148.37L70.5,148.37L70.67,148.37L70.67,145.11L70.81,148.37L71.31,102.79L71.42,138.6L71.44,138.6L71.58,148.37L71.7,132.09L71.74,141.86L71.8,119.07L72.08,148.37L72.43,76.75L72.53,128.84L72.56,128.84L72.99,99.54L73.25,148.37L73.3,122.32L73.52,148.37L73.81,76.74L74.04,128.83L74.08,145.11L74.28,148.37L74.29,141.86L74.3,122.32L74.69,148.37L74.99,106.03L75.02,125.57L75.09,138.6L75.23,148.37L75.28,96.26L75.83,119.06L75.83,148.37L75.95,99.52L76.57,135.34L76.59,128.83L76.82,106.03L77.11,148.37L77.27,122.32L77.31,148.37L77.31,122.32L78.04,132.08L78.1,132.08L78.65,109.29L78.81,148.37L78.84,135.34L78.89,135.34L79.04,119.06L79.65,148.37L79.65,122.31L79.8,86.49L80.02,148.37L80.38,148.37L80.41,148.37L80.86,112.55L81.18,141.86L81.25,135.34L81.32,115.81L81.4,148.37L81.52,141.86L81.53,145.11L81.72,148.37L82.07,106.04L82.25,148.37L82.32,145.11L83,125.58L83.08,148.37L83.08,148.37L83.1,132.09L83.19,115.81L83.85,148.37L83.88,141.86L83.94,148.37L84.12,128.84L84.56,148.37L84.61,148.37L84.93,109.3L85.32,148.37L85.38,145.12L85.44,148.37L85.53,112.56L86.12,148.37L86.14,112.55L86.16,86.51L86.19,148.37L86.89,145.11L86.9,138.6L87.26,122.32L87.47,148.37L87.52,122.32L87.53,112.56L87.54,106.04L87.85,148.37L88.26,148.37L88.3,145.11L88.33,148.37L88.99,102.78L89.11,122.32L89.12,128.83L89.47,148.37L89.7,99.53L89.8,122.32L89.9,106.04L89.94,99.53L89.98,148.37L90.29,141.86L90.3,141.86L90.37,145.11L90.38,112.55L90.42,135.35L90.42,96.27L91.01,148.37L91.15,141.86L91.24,145.11L91.44,128.84L91.5,148.37L91.53,115.82L91.58,148.37L92.26,47.49L92.29,109.31L92.31,93.04L92.79,148.37L93.02,145.12L93.08,138.6L93.2,132.09L93.33,148.37L93.33,148.37L93.33,109.3L93.53,148.37L94.06,135.35L94.11,135.35L94.52,83.27L94.8,148.37L94.81,135.35L94.84,128.84L94.85,148.37L95.21,34.45L95.58,86.55L95.63,132.1L95.89,96.29L96.11,148.37L96.16,106.05L96.16,89.78L97.07,148.37L97.07,128.84L97.2,148.37L97.76,109.32L97.81,115.82L97.83,148.37L98.25,109.31L98.5,148.37L98.63,145.12L98.76,148.37L99.24,125.58L99.32,145.12L99.4,148.37L99.58,148.37L99.58,145.12L99.74,148.37L99.8,125.59L99.92,138.61L99.94,112.57L100.02,145.12L100.54,86.52L100.69,135.35L100.72,135.35L100.76,148.37L101.29,93.04L101.47,125.58L101.48,148.37L102.02,132.09L102.07,148.37L102.5,99.55L102.79,148.37L102.81,148.37L103.5,102.8L103.59,106.06L103.6,141.86L103.71,148.37L103.85,109.31L104.3,148.37L104.35,145.12L104.35,122.33L104.36,148.37L105.09,125.58L105.11,145.12L105.3,106.05L105.31,148.37L105.7,122.33L105.71,148.37L105.96,148.37L105.96,122.33L106.22,106.06L106.72,148.37L106.72,128.84L106.97,148.37L107.11,112.56L107.43,145.12L107.48,138.61L107.48,148.37L108.16,99.55L108.17,138.61L108.25,135.35L108.29,99.55L108.74,148.37L108.76,145.12L108.77,109.31L108.87,93.04L108.96,148.37L109.32,135.35L109.35,141.86L109.45,148.37L109.76,99.54L110.1,106.05L110.22,148.37L110.78,112.56L110.88,145.12L110.89,148.37L111.46,96.3L111.62,122.34L111.65,135.35L111.69,148.37L111.8,115.82L112.39,148.37L112.43,141.86L112.56,112.57L113.18,148.37L113.18,148.37L113.22,148.37L113.58,148.37L113.58,148.37L113.58,145.12L113.67,148.37L113.94,122.33L114.31,148.37L114.34,148.37L114.97,99.54L115.12,115.81L115.14,135.35L115.19,148.37L115.23,99.53L115.31,145.12L115.43,148.37L115.82,112.56L115.84,145.11L115.88,83.25L115.88,80L115.94,148.37L116.63,128.84L116.64,122.33L116.89,83.27L117.42,148.37L117.42,128.84L118,148.37L118.02,109.3L118.13,128.83L118.16,80L118.9,148.37L118.9,148.37L118.93,132.1L119.17,112.56L119.43,148.37L119.44,135.35L119.44,115.82L119.53,73.5L120.19,148.37L120.21,148.37L120.7,89.77L120.96,112.55L121.02,148.37L121.58,99.54L121.72,106.04L121.81,148.37L122.21,86.51L122.55,135.35L122.59,135.35L122.73,89.77L123.33,148.37L123.34,122.32L123.9,148.37L123.92,119.06L124.08,132.09L124.13,112.55L124.27,148.37L124.86,145.11L124.89,145.11L124.93,148.37L125.3,119.07L125.63,135.35L125.67,145.12L125.77,148.37L125.84,115.81L126.42,128.83L126.45,128.83L126.64,122.32L126.76,148.37L127.06,135.34L127.08,128.83L127.4,109.3L127.83,148.37L127.84,128.84L127.88,148.37L128.51,112.55L128.59,138.6L128.6,138.6L128.69,148.37L129.13,102.8L129.34,128.84L129.36,138.6L129.45,148.37L130.11,109.3L130.13,132.09L130.18,148.37L130.67,102.79L130.92,122.32L131.01,148.37L131.65,102.79L131.72,115.81L131.79,119.07L132,148.37L132.24,99.54L132.44,122.32L132.47,148.37L133.04,102.78L133.22,125.58L133.24,125.58L133.93,112.56L133.96,148.37L134.01,145.11L134.03,132.09L134.2,102.79L134.48,148.37L134.77,132.1L134.81,132.1L135.07,125.58L135.49,148.37L135.53,115.82L135.9,99.54L136.16,148.37L136.27,132.1L136.31,128.84L136.46,112.57L136.5,148.37L136.66,141.86L136.68,148.37L137.19,112.57L137.43,128.84L137.44,148.37L138.03,99.55L138.03,145.12L138.13,145.12L138.51,148.37L138.72,89.79L138.87,125.59L138.9,135.35L139.52,148.37L139.57,93.05L139.62,102.81L139.63,99.55L140.35,148.37L140.42,138.61L140.47,138.61L140.5,96.3L141.04,148.37L141.1,135.35L141.17,145.12L141.35,148.37L141.46,86.53L141.89,89.78L141.93,141.86L141.99,109.3L142.17,148.37L142.68,145.12L142.69,135.35L142.76,112.57L143.12,148.37L143.2,138.61L143.21,125.59L143.68,112.57L143.9,148.37L144.01,145.12L144.01,135.35L144.26,148.37L144.3,93.04L144.76,119.08L144.81,135.35L145.14,96.29L145.49,148.37L145.55,141.86L145.62,145.12L146.1,128.84L146.37,148.37L146.44,145.12L146.44,148.37L146.5,109.32L147.19,138.61L147.2,145.12L147.3,148.37L147.48,86.51L147.89,148.37L147.92,148.37L148.12,148.37L148.12,148.37L148.16,132.09L148.16,148.37L148.66,102.8L148.9,135.35L148.93,145.11L149.04,125.58L149.11,148.37L149.52,141.86L149.59,141.86L149.77,122.33L149.81,148.37L150.11,132.1L150.11,128.84L150.55,148.37L150.58,70.27L150.84,122.34L150.9,132.1L150.98,93.05L151.06,148.37L151.65,128.85L151.68,145.12L151.73,102.82L151.74,148.37L152.41,148.37L152.45,148.37L152.61,148.37L152.61,141.86L152.7,125.59L153.3,148.37L153.31,145.12L153.31,122.33L153.34,102.8L153.96,148.37L154.03,145.12L154.1,148.37L154.15,115.83L154.82,135.35L154.9,141.86L155.01,148.37L155.19,93.04L155.65,145.12L155.69,145.12L155.86,148.37L156.01,83.27L156.35,132.1L156.45,145.12L156.65,115.82L156.65,93.04L157.23,148.37L157.39,132.1L157.44,135.35L157.5,148.37L158.06,112.57L158.06,122.34L158.11,145.12L158.14,148.37L158.79,112.58L158.82,135.36L158.88,145.12L158.98,148.37L159.03,112.57L159.61,122.34L159.65,122.34L160.3,99.57L160.36,148.37L160.41,132.11L160.41,115.84L160.71,99.56L161.14,148.37L161.18,135.35L161.24,145.12L161.3,148.37L161.49,93.06L161.99,122.34L162.01,122.34L162.01,148.37L162.59,102.81L162.74,148.37L162.78,148.37L163.27,119.09L163.48,141.86L163.61,145.12L163.82,125.59L163.83,148.37L163.84,141.86L163.85,115.83L163.99,148.37L164.41,115.82L164.47,132.1L164.61,128.84L164.61,148.37L165.16,73.5L165.34,122.34L165.37,122.34L165.88,106.06L166.11,148.37L166.11,138.61L166.13,138.61L166.66,148.37L166.73,112.57L166.84,115.83L166.87,115.83L166.93,86.53L167.63,148.37L167.66,148.37L168.39,106.06L168.54,128.85L168.55,138.61L168.83,148.37L168.91,109.31L169.1,145.12L169.18,148.37L169.7,96.28L169.94,119.08L169.98,148.37L170.42,86.56L170.7,141.86L170.76,141.86L170.97,148.37L171.44,112.57L171.59,125.59L171.59,145.12L171.7,119.08L172.01,148.37L172.24,122.34L172.26,148.37L172.68,112.57L172.93,145.12L173.07,148.37L173.44,86.54L173.8,132.1L173.83,145.12L174.05,148.37L174.5,109.32L174.52,119.08L174.65,119.08L174.65,96.3L174.7,148.37L175.35,115.82L175.41,141.86L175.96,145.12L176.08,86.52L176.11,145.12L176.15,148.37L176.44,73.5L176.86,102.8L176.88,128.84L176.88,148.37L177.35,76.76L177.58,119.07L177.65,86.52L178.42,148.37L178.43,128.83L178.45,128.83L178.49,73.47L178.5,148.37L179.2,122.33L179.21,122.33L179.47,102.8L179.66,148.37L179.94,148.37L179.98,148.37L180.63,115.82L180.69,122.33L180.76,145.12L180.8,119.07L180.98,148.37L181.27,135.35L181.28,73.51L181.43,148.37L181.97,148.37L182.05,148.37L182.76,96.29L182.86,148.37L183.3,115.82L183.61,148.37L183.62,145.12L183.69,112.57L184.39,148.37L184.39,148.37L184.42,148.37L185.01,96.31L185.15,141.86L185.27,141.86L185.46,115.82L185.68,148.37L185.73,135.35L185.75,122.33L185.87,106.05L185.95,148.37L186.47,115.82L186.52,112.56L187.29,148.37L187.29,141.86L187.33,141.86L187.48,148.37L187.62,115.81L188.08,145.12L188.09,141.86L188.09,148.37L188.19,76.76L188.81,148.37L188.86,148.37L189.54,106.06L189.61,145.12L189.62,119.09L189.7,148.37L190.09,119.08L190.36,148.37L190.39,145.12L190.56,112.58L190.6,148.37L191.13,148.37L191.15,145.12L191.27,148.37L191.54,115.84L191.85,148.37L191.87,148.37L192.24,115.84L192.61,128.85L192.64,141.87L192.78,148.37L193.3,63.77L193.43,132.1L193.51,73.53L193.84,148.37L194.17,132.1L194.2,125.6L194.92,102.82L194.97,148.37L194.99,148.37L195.33,76.81L195.75,122.35L195.75,145.12L195.85,148.37L196.31,99.57L196.55,125.6L196.59,138.61L197.01,102.83L197.14,148.37L197.23,138.62L197.39,138.62L197.42,80.07L197.59,148.37L197.94,138.61L197.98,148.37L198.45,109.34L198.7,145.12L198.73,148.37L199.6,73.56L199.62,135.36L199.64,73.56L199.82,148.37L200.32,148.37L200.37,148.37L200.62,122.34L201.11,148.37L201.13,148.37L201.37,125.6L201.88,141.87L201.92,141.87L202.06,148.37L202.08,145.12L202.08,119.09L202.53,99.58L202.83,148.37L202.86,119.1L202.89,148.37L203.58,145.12L203.62,125.61L203.73,148.37L204.1,93.08L204.36,145.12L204.39,145.12L204.44,148.37L204.44,89.83L205.1,145.12L205.14,128.85L205.23,57.31L205.82,148.37L205.84,132.11L205.93,132.11L206.06,148.37L206.12,89.82L206.68,148.37L206.71,122.35L207.2,112.59L207.5,148.37L207.51,145.12L207.55,141.87L207.55,148.37L207.9,122.35L208.28,141.87L208.31,148.37L208.79,99.57L209.04,128.85L209.07,148.37L209.43,96.31L209.8,138.61L209.84,135.36L210.07,148.37L210.09,99.57L210.59,109.32L210.61,148.37L210.64,109.32L211.36,148.37L211.38,148.37L211.43,119.09L212.14,141.86L212.15,138.61L212.31,135.36L212.83,148.37L212.83,128.85L213.29,89.81L213.48,148.37L213.58,128.85L213.58,125.6L214.24,115.83L214.28,148.37L214.31,119.09L214.35,125.59L214.58,148.37L214.71,106.07L215,135.36L215.04,135.36L215.09,80.02L215.2,148.37L215.79,102.81L215.85,141.86L215.92,148.37L216.58,99.55L216.62,145.12L216.84,148.37L216.86,99.56L217.29,138.61L217.34,148.37L217.72,83.29L218.09,148.37L218.16,135.36L218.55,112.58L218.86,148.37L218.86,141.86L218.86,128.85L219.33,141.86L219.37,109.32L219.45,138.61L219.48,148.37L219.8,119.08L220.21,141.86L220.24,115.82L220.55,89.79L220.63,148.37L220.94,96.31L220.95,47.49L221.35,148.37L221.7,125.59L221.78,148.37L222.38,93.05L222.49,145.12L222.56,145.12L222.81,115.83L222.98,148.37L223.05,141.86L223.05,112.58L223.69,148.37L223.78,141.87L223.83,122.34L224.03,148.37L224.37,109.33L224.57,125.59L224.59,125.59L224.85,148.37L224.93,115.83L225.33,135.35L225.35,135.35L225.68,148.37L225.69,99.54L226.07,128.84L226.07,141.86L226.18,148.37L226.63,67L226.75,122.33L226.8,148.37L227.38,44.22L227.55,148.37L227.58,148.37L227.78,63.74L228.34,96.31L228.38,112.58L228.38,83.3L228.67,148.37L229.11,148.37L229.21,148.37L229.44,106.07L229.98,125.59L230,125.59L230.45,148.37L230.69,96.31L230.72,96.31L231,67.02L231.17,148.37L231.48,145.12L231.5,138.61L231.54,112.58L232.23,148.37L232.26,145.12L232.34,135.36L232.86,115.84L233.05,148.37L233.09,132.11L233.09,148.37L233.12,99.56L233.84,132.11L233.85,132.11L233.91,148.37L234.6,89.82L234.61,115.85L234.62,141.87L234.66,148.37L235.08,106.08L235.37,135.36L235.38,135.36L235.5,148.37L235.57,125.61L235.58,115.85L235.88,106.08L236.25,148.37L236.28,145.12L236.47,135.36L236.75,148.37L236.89,112.59L237.2,122.35L237.25,135.36L237.6,148.37L237.6,122.35L237.68,135.36L237.68,109.34L238.43,148.37L238.44,125.61L238.45,125.61L238.53,102.85L239.19,148.37L239.21,145.12L239.21,138.62L239.3,148.37L239.43,93.1L239.96,112.6L239.98,148.37L240.18,102.84L240.73,122.36L240.82,141.87L240.82,148.37L241.55,106.09L241.58,148.37L241.72,102.84L242.31,119.11L242.35,122.36L242.74,148.37L242.98,93.08L243.1,138.62L243.11,138.62L243.34,148.37L243.59,93.08L243.85,109.34L243.87,145.12L243.98,148.37L244.1,106.09L244.63,135.36L244.66,115.85L245.29,148.37L245.31,106.09L245.41,115.85L245.45,112.6L245.94,109.35L246.22,148.37L246.25,148.37L246.87,125.61L246.99,138.62L247.04,148.37L247.33,102.84L247.77,138.62L247.79,145.12L248.01,148.37L248.1,122.35L248.54,141.87L248.55,138.61L248.65,148.37L248.93,112.6L249.26,119.1L249.35,122.35L249.67,99.59L249.68,148.37L250.08,125.61L250.11,138.62L250.33,115.84L250.34,148.37L250.65,141.87L250.68,148.37L251.15,125.6L251.42,148.37L251.45,148.37L251.64,106.09L252.18,135.36L252.21,135.36L252.27,148.37L252.58,109.34L252.96,132.11L252.98,148.37L253.68,93.07L253.75,109.33L253.8,135.36L254.38,99.59L254.57,148.37L254.58,148.37L255.27,106.1L255.34,128.86L255.4,138.62L255.58,122.35L255.64,148.37L255.66,125.61L255.66,99.59L256.35,96.34L256.56,148.37L256.6,145.12L256.63,141.87L256.78,148.37L257.14,115.85L257.27,122.35L257.42,128.86L257.46,96.33L258.12,148.37L258.18,119.11L258.67,28.1L258.81,148.38L258.9,135.37L258.9,70.32L259.36,148.37L259.39,63.8L259.54,138.62L259.56,76.81L260,148.37L260.27,122.36L260.32,119.11L260.37,93.09L260.84,148.37L261.04,148.37L261.08,148.37L261.3,109.35L261.3,148.38L261.4,135.37L261.41,148.37L261.83,86.59L261.89,135.37L261.89,145.12L262.35,148.38L262.65,80.08L262.71,89.84L262.77,93.09L262.86,148.37L263.49,122.36L263.55,145.12L263.88,148.37L264.12,89.84L264.23,128.86L264.23,141.87L264.76,148.37L264.81,83.34L264.9,99.6L264.92,99.6L264.92,86.59L264.95,148.38L265.67,138.62L265.69,138.62L265.89,148.37L265.99,141.87L266.03,109.35L266.16,148.37L266.56,76.83L266.74,148.37L266.86,93.09L267.61,148.38L267.64,148.38L268.34,106.09L268.34,122.36L268.41,148.37L268.77,109.36L269.11,148.38L269.16,122.36L269.17,148.38L269.59,102.86L269.94,135.37L269.97,135.37L270.1,148.38L270.73,93.09L270.75,93.09L271.39,148.37L271.52,145.12L271.55,148.37L272.29,115.85L272.29,115.85L272.31,148.37L272.4,119.1L273.05,135.37L273.07,138.62L273.14,122.36L273.21,148.37L273.27,125.61L273.33,93.08L273.98,148.37L274.03,83.32L274.07,115.85L274.12,115.85L274.34,89.84L274.81,148.37L274.96,148.37L275.3,83.33L275.69,148.37L275.73,148.37L275.9,122.35L276.47,128.86L276.5,148.37L276.87,115.85L277.27,141.87L277.28,141.87L277.84,99.6L277.97,148.38L278.02,138.62L278.11,109.35L278.41,67.02L278.78,148.37L278.8,112.6L278.86,112.6L279.5,148.37L279.56,93.08L279.62,135.36L279.62,112.6L280.13,145.12L280.31,83.32L280.32,132.11L280.35,70.31L281.08,148.37L281.11,145.12L281.12,141.87L281.52,57.3L281.55,148.37L281.82,115.85L281.86,115.85L281.96,148.37L282.23,86.57L282.57,119.1L282.67,132.11L282.93,89.82L283.43,148.37L283.43,119.1L283.44,148.37L283.93,76.82L284.17,132.11L284.19,102.84L284.42,86.58L284.91,148.37L284.96,135.36L284.96,125.6L285.03,73.58L285.38,148.37L285.71,145.12L285.75,148.37L286.03,122.35L286.32,145.12L286.34,148.37L286.4,115.84L287.07,125.61L287.08,148.37L287.62,112.6L287.78,145.12L287.81,145.12L288.44,50.81L288.53,148.38L288.56,132.12L288.58,148.38L289.24,102.84L289.33,141.87L289.38,145.12L289.53,148.37L289.71,106.1L290.14,138.62L290.16,148.37L290.45,148.38L290.85,106.1L290.86,148.37L290.92,145.12L291.14,96.34L291.28,148.37L291.47,145.12L291.48,145.12L291.71,148.37L292.17,102.84L292.23,135.37L292.31,145.12L292.5,99.59L292.53,148.37L293.03,99.59L293.07,128.86L293.35,148.37L293.81,93.08L293.85,102.84L293.85,132.11L294,148.37L294.58,83.33L294.6,141.87L294.61,138.62L294.66,109.34L295.24,148.38L295.35,109.35L295.35,148.37L295.71,109.36L295.84,145.12L295.87,148.37L296.27,148.38L296.49,89.84L296.62,132.11L296.63,145.12L296.87,60.58L297.31,148.37L297.36,148.37L297.4,132.11L297.63,102.83L298.17,148.37L298.17,148.37L298.17,132.11L298.34,115.85L298.78,148.37L298.88,125.61L298.93,125.61L299.04,96.34L299.04,148.37L299.66,125.61L299.68,135.36L299.95,112.6L300.41,148.37L300.41,119.1L300.55,148.37L300.95,96.32L301.16,138.61L301.18,138.61L301.19,148.37L301.26,67.05L301.93,141.87L301.94,119.1L302.27,148.37L302.44,96.33L302.64,96.33L302.67,96.33L302.75,83.31L303.27,148.37L303.43,122.34L303.45,122.34L303.83,102.82L304.1,148.37L304.19,115.84L304.22,115.84L304.73,148.37L304.81,86.54L304.94,106.07L304.96,106.07L305.25,102.82L305.71,148.37L305.73,145.12L305.73,128.85L306.16,148.37L306.19,96.32L306.27,106.07L306.3,99.57L306.35,148.37L307.04,148.37L307.11,148.37L307.49,93.06L307.86,112.59L307.88,138.61L308.31,148.37L308.62,106.08L308.65,125.6L308.69,148.37L309.12,119.09L309.22,122.35L309.27,145.12L309.43,148.37L309.43,119.09L309.43,115.84L309.51,106.08L309.91,148.37L310.15,128.86L310.21,119.1L310.26,148.37L310.96,34.51L310.98,34.51L311.68,148.37L311.76,115.84L311.77,115.84L312.52,148.37L312.54,135.36L312.55,115.85L312.64,148.37L313.28,102.83L313.32,148.37L313.45,145.12L313.45,125.6L313.63,109.34L314.24,148.37L314.24,148.37L314.26,109.34L314.84,148.37L314.95,96.33L315,109.34L315.02,96.33L315.31,148.37L315.76,125.6L315.8,128.85L316.37,109.34L316.4,148.37L316.55,141.87L316.56,138.61L317.02,106.08L317.23,148.37L317.3,145.12L317.32,145.12L317.42,148.37L317.48,83.31L317.48,80.06L317.98,148.37L318.21,122.35L318.3,128.86L318.8,148.37L318.82,106.09L319.01,138.61L319.04,106.08L319.22,83.31L319.78,148.37L319.82,148.37L320.3,96.32L320.45,135.36L320.46,135.36L320.67,148.37L320.82,115.83L321.21,138.61L321.26,141.86L321.56,102.82L321.7,148.37L321.83,119.09L321.83,96.31L322.62,148.37L322.64,148.37L322.81,119.07L323.39,138.61L323.42,145.12L323.48,141.87L323.51,148.37L323.52,148.37L323.52,102.82L323.66,148.37L324.27,148.37L324.28,141.86L324.53,148.37L324.88,112.58L324.99,148.37L325.01,145.12L325.14,141.87L325.46,148.37L325.72,141.87L325.74,141.87L326.07,125.59L326.51,148.37L326.54,128.85L327.08,109.32L327.23,148.37L327.25,141.87L327.31,132.1L327.45,148.37L327.95,99.57L328.03,122.34L328.05,138.61L328.51,148.37L328.7,70.28L328.8,135.35L328.86,93.06L329.04,86.57L329.54,148.37L329.63,135.36L329.67,135.36L329.8,148.37L330.31,83.31L330.42,145.12L330.53,112.59L331.32,148.37L331.32,148.37L331.33,112.58L331.72,148.37L332.06,109.33L332.08,119.09L332.09,138.61L332.4,96.31L332.58,148.37L332.69,125.59L332.76,128.85L332.87,73.52L333.36,148.37L333.52,145.12L333.56,141.86L333.86,148.37L333.92,119.08L334.25,128.85L334.38,148.37L334.88,109.32L335.14,138.61L335.14,145.12L335.31,148.37L335.71,76.78L335.8,148.37L335.85,148.37L336.24,93.05L336.26,148.37L336.29,86.54L337,145.12L337.02,148.37L337.19,148.37L337.19,145.12L337.26,148.37L337.34,125.59L337.94,128.85L337.95,135.35L338.09,148.37L338.15,102.81L338.57,122.34L338.58,148.37L338.61,102.81L339.33,125.59L339.35,135.35L339.41,148.37L339.62,93.04L340.1,122.34L340.11,122.34L340.56,119.08L340.75,148.37L340.87,145.12L340.89,145.12L341.06,106.06L341.08,148.37L341.63,132.1L341.66,125.59L341.72,148.37L342.09,99.54L342.39,135.35L342.48,148.37L342.55,102.81L343.23,128.84L343.26,145.12L343.3,148.37L343.87,109.32L343.9,109.32L344.02,102.81L344.48,86.51L344.71,148.37L344.74,109.3L344.8,109.3L345.59,148.37L345.6,141.86L345.62,141.86L346.07,96.28L346.38,148.37L346.39,138.6L346.59,99.54L346.68,148.37L347.14,119.08L347.16,80.01L347.64,148.37L347.89,141.86L347.96,145.12L348.25,148.37L348.59,119.07L348.71,138.6L348.72,128.84L349.01,122.32L349.22,148.37L349.42,145.12L349.42,119.07L350.04,99.53L350.2,148.37L350.21,148.37L350.63,96.27L350.93,138.61L350.97,148.37L351.34,93.03L351.72,148.37L351.74,141.86L351.84,115.81L351.85,148.37L351.95,125.58L351.97,148.37L352.37,115.81L352.72,125.58L352.75,148.37L352.82,106.05L353.18,128.84L353.19,148.37L353.85,76.73L353.85,79.99L353.96,132.09L354.03,148.37L354.63,86.51L354.65,148.37L355.34,99.54L355.41,141.86L355.48,141.86L355.55,119.07L355.72,148.37L356.22,141.86L356.25,145.12L356.27,148.37L356.39,115.82L356.93,138.6L357.03,145.11L357.03,148.37L357.13,112.56L357.76,145.12L357.8,145.12L358.39,148.37L358.39,115.82L358.46,115.82L358.5,148.37L358.59,106.06L359.19,122.33L359.23,122.33L359.31,119.07L359.95,148.37L359.97,145.12L360.04,138.6L360.43,115.81L360.55,148.37L360.56,106.05L361.09,148.37L361.31,135.35L361.38,148.37L362.02,109.31L362.22,119.07L362.24,141.86L362.83,148.37L362.9,125.58L362.9,125.58L362.97,135.35L363.04,148.37L363.26,102.8L363.71,145.12L363.73,145.12L363.8,148.37L364.02,96.29L364.49,135.35L364.49,145.11L364.56,148.37L365.18,102.79L365.25,135.35L365.31,135.35L365.42,148.37L366,89.77L366.05,128.84L366.08,125.59L366.24,148.37L366.71,102.8L366.9,145.12L366.91,145.12L367.06,148.37L367.16,109.31L367.64,145.12L367.65,145.12L367.69,148.37L368.39,89.79L368.4,89.79L368.41,145.12L368.44,148.37L368.91,106.06L369.15,145.12L369.16,148.37L369.69,106.06L369.9,119.08L370.02,148.37L370.22,96.3L370.66,128.84L370.66,148.37L371.08,106.06L371.24,135.35L371.45,148.37L371.68,115.81L371.98,128.84L372.02,148.37L372.38,83.28L372.77,148.37L372.82,148.37L373.31,96.3L373.33,119.08L373.36,145.12L373.48,148.37L373.88,112.58L374.11,128.85L374.12,128.85L374.13,115.84L374.78,148.37L374.85,119.09L374.93,119.09L374.93,148.37L375.45,96.31L375.68,106.07L375.69,141.87L375.71,96.31L375.9,148.37L376.43,125.6L376.51,148.37L376.83,89.8L377.3,106.07L377.31,148.37L377.31,102.81L378.04,148.37L378.1,148.37L378.45,102.81L378.63,125.59L378.65,148.37L379.18,106.07L379.39,148.37L379.42,145.12L379.44,148.37L379.95,106.06L380.17,122.34L380.19,148.37L380.65,93.05L380.89,132.1L381,148.37L381.55,102.81L381.75,132.1L381.78,132.1L381.81,109.32L381.87,148.37L382.51,128.85L382.55,148.37L382.66,86.53L383.22,138.61L383.31,138.61L383.31,148.37L383.55,122.34L384.01,145.12L384.07,135.36L384.1,148.37L384.63,119.08L384.8,148.37L384.82,145.12L384.9,148.37L385.08,112.58L385.54,138.61L385.6,145.12L385.76,109.32L386.06,148.37L386.32,138.61L386.34,138.61L386.86,112.57L387.07,148.37L387.08,145.12L387.12,138.61L387.41,148.37L387.57,132.1L387.57,145.12L387.59,148.37L387.73,119.08L388.19,148.37L388.28,148.37L388.34,119.08L388.99,122.34L389.04,141.86L389.14,148.37L389.63,66.97L389.78,80.01L389.82,125.58L389.91,53.97L390.22,148.37L390.54,145.12L390.56,148.37L390.66,115.83L391.13,135.35L391.13,148.37L391.73,80.03L391.85,135.35L391.89,135.35L391.92,96.3L392.61,148.37L392.62,132.1L392.64,132.1L392.65,148.37L393.39,112.57L393.5,145.12L393.53,148.37L393.77,109.32L394.19,135.36L394.27,138.61L394.29,148.37L394.97,60.56L395.04,63.79L395.06,141.87L395.08,96.32L395.22,148.37L395.8,138.61L395.82,141.86L395.84,148.37L396.1,93.05L396.56,148.37L396.57,148.37L397.41,31.26L397.46,135.37L397.55,132.1L397.58,145.12L397.68,135.36L397.7,83.31L398.55,148.37L398.58,135.35L398.87,141.86L398.92,122.34L399,122.34" style="vector-effect: non-scaling-stroke; fill: none; stroke: rgb(0, 204, 150); stroke-opacity: 1; stroke-width: 2px; opacity: 1;"/></g><g class="points"/><g class="text"/></g></g></g><g class="overplot"/><path class="xlines-above crisp" d="M0,0" style="fill: none;"/><path class="ylines-above crisp" d="M0,0" style="fill: none;"/><g class="overlines-above"/><g class="xaxislayer-above"><g class="xtick"><text text-anchor="start" x="0" y="416" transform="translate(206.63,0) rotate(30,0,408.5)" style="font-family: 'Times New Roman'; font-size: 15px; fill: rgb(13, 13, 13); fill-opacity: 1; white-space: pre; opacity: 1;">1.6125210<tspan style="font-size:70%" dy="-0.6em">18</tspan><tspan dy="0.42em"></tspan></text></g><g class="xtick"><text text-anchor="start" x="0" y="416" style="font-family: 'Times New Roman'; font-size: 15px; fill: rgb(13, 13, 13); fill-opacity: 1; white-space: pre; opacity: 1;" transform="translate(285.81,0) rotate(30,0,408.5)">1.61252510<tspan style="font-size:70%" dy="-0.6em">18</tspan><tspan dy="0.42em"></tspan></text></g><g class="xtick"><text text-anchor="start" x="0" y="416" style="font-family: 'Times New Roman'; font-size: 15px; fill: rgb(13, 13, 13); fill-opacity: 1; white-space: pre; opacity: 1;" transform="translate(364.99,0) rotate(30,0,408.5)">1.6125310<tspan style="font-size:70%" dy="-0.6em">18</tspan><tspan dy="0.42em"></tspan></text></g><g class="xtick"><text text-anchor="start" x="0" y="416" style="font-family: 'Times New Roman'; font-size: 15px; fill: rgb(13, 13, 13); fill-opacity: 1; white-space: pre; opacity: 1;" transform="translate(444.17,0) rotate(30,0,408.5)">1.61253510<tspan style="font-size:70%" dy="-0.6em">18</tspan><tspan dy="0.42em"></tspan></text></g><g class="xtick"><text text-anchor="start" x="0" y="416" style="font-family: 'Times New Roman'; font-size: 15px; fill: rgb(13, 13, 13); fill-opacity: 1; white-space: pre; opacity: 1;" transform="translate(523.3399999999999,0) rotate(30,0,408.5)">1.6125410<tspan style="font-size:70%" dy="-0.6em">18</tspan><tspan dy="0.42em"></tspan></text></g></g><g class="yaxislayer-above"><g class="ytick"><text text-anchor="end" x="136" y="12.25" transform="translate(0,381.78)" style="font-family: 'Times New Roman'; font-size: 35px; fill: rgb(13, 13, 13); fill-opacity: 1; white-space: pre; opacity: 1;">0.04</text></g><g class="ytick"><text text-anchor="end" x="136" y="12.25" style="font-family: 'Times New Roman'; font-size: 35px; fill: rgb(13, 13, 13); fill-opacity: 1; white-space: pre; opacity: 1;" transform="translate(0,316.7)">0.02</text></g><g class="ytick"><text text-anchor="end" x="136" y="12.25" style="font-family: 'Times New Roman'; font-size: 35px; fill: rgb(13, 13, 13); fill-opacity: 1; white-space: pre; opacity: 1;" transform="translate(0,251.63)">0</text></g><g class="ytick"><text text-anchor="end" x="136" y="12.25" style="font-family: 'Times New Roman'; font-size: 35px; fill: rgb(13, 13, 13); fill-opacity: 1; white-space: pre; opacity: 1;" transform="translate(0,186.55)">0.02</text></g><g class="ytick"><text text-anchor="end" x="136" y="12.25" style="font-family: 'Times New Roman'; font-size: 35px; fill: rgb(13, 13, 13); fill-opacity: 1; white-space: pre; opacity: 1;" transform="translate(0,121.48)">0.04</text></g></g><g class="overaxes-above"/></g></g><g class="polarlayer"/><g class="smithlayer"/><g class="ternarylayer"/><g class="geolayer"/><g class="funnelarealayer"/><g class="pielayer"/><g class="iciclelayer"/><g class="treemaplayer"/><g class="sunburstlayer"/><g class="glimages"/><defs id="topdefs-795e2f"><g class="clips"/><clipPath id="legend795e2f"><rect width="144" height="67" x="0" y="0"/></clipPath></defs><g class="layer-above"><g class="imagelayer"/><g class="shapelayer"/></g><g class="infolayer"><g class="legend" pointer-events="all" transform="translate(543.98,100)"><rect class="bg" shape-rendering="crispEdges" style="stroke: rgb(68, 68, 68); stroke-opacity: 1; fill: rgb(255, 255, 255); fill-opacity: 1; stroke-width: 0px;" width="144" height="67" x="0" y="0"/><g class="scrollbox" transform="" clip-path="url(#legend795e2f)"><g class="groups"><g class="traces" transform="translate(0,14.5)" style="opacity: 1;"><text class="legendtext" text-anchor="start" x="40" y="4.680000000000001" style="font-family: 'Open Sans', verdana, arial, sans-serif; font-size: 12px; fill: rgb(42, 63, 95); fill-opacity: 1; white-space: pre;">Realized (in %)</text><g class="layers" style="opacity: 1;"><g class="legendfill"/><g class="legendlines"><path class="js-line" d="M5,0h30" style="fill: none; stroke: rgb(99, 110, 250); stroke-opacity: 1; stroke-width: 2px;"/></g><g class="legendsymbols"><g class="legendpoints"/></g></g><rect class="legendtoggle" x="0" y="-9.5" width="138.71875" height="19" style="fill: rgb(0, 0, 0); fill-opacity: 0;"/></g><g class="traces" transform="translate(0,33.5)" style="opacity: 1;"><text class="legendtext" text-anchor="start" x="40" y="4.680000000000001" style="font-family: 'Open Sans', verdana, arial, sans-serif; font-size: 12px; fill: rgb(42, 63, 95); fill-opacity: 1; white-space: pre;">Effective (in %)</text><g class="layers" style="opacity: 1;"><g class="legendfill"/><g class="legendlines"><path class="js-line" d="M5,0h30" style="fill: none; stroke: rgb(239, 85, 59); stroke-opacity: 1; stroke-width: 2px;"/></g><g class="legendsymbols"><g class="legendpoints"/></g></g><rect class="legendtoggle" x="0" y="-9.5" width="138.71875" height="19" style="fill: rgb(0, 0, 0); fill-opacity: 0;"/></g><g class="traces" transform="translate(0,52.5)" style="opacity: 1;"><text class="legendtext" text-anchor="start" x="40" y="4.680000000000001" style="font-family: 'Open Sans', verdana, arial, sans-serif; font-size: 12px; fill: rgb(42, 63, 95); fill-opacity: 1; white-space: pre;">Half Quoted (in %)</text><g class="layers" style="opacity: 1;"><g class="legendfill"/><g class="legendlines"><path class="js-line" d="M5,0h30" style="fill: none; stroke: rgb(0, 204, 150); stroke-opacity: 1; stroke-width: 2px;"/></g><g class="legendsymbols"><g class="legendpoints"/></g></g><rect class="legendtoggle" x="0" y="-9.5" width="138.71875" height="19" style="fill: rgb(0, 0, 0); fill-opacity: 0;"/></g></g></g><rect class="scrollbar" rx="20" ry="3" width="0" height="0" style="fill: rgb(128, 139, 164); fill-opacity: 1;" x="0" y="0"/></g><g class="g-gtitle"/><g class="g-xtitle"><text class="xtitle" x="336.5" y="487.503125" text-anchor="middle" style="font-family: 'Open Sans', verdana, arial, sans-serif; font-size: 14px; fill: rgb(42, 63, 95); opacity: 1; font-weight: normal; white-space: pre;">Time Steps (ns)</text></g><g class="g-ytitle" transform="translate(24,0)"><text class="ytitle" transform="rotate(-90,12,250)" x="12" y="250" text-anchor="middle" style="font-family: 'Times New Roman'; font-size: 40px; fill: rgb(13, 13, 13); opacity: 1; font-weight: normal; white-space: pre;">Spreads (in %)</text></g></g></svg>