<svg class="main-svg" xmlns="http://www.w3.org/2000/svg" xmlns:xlink="http://www.w3.org/1999/xlink" width="700" height="500" style="" viewBox="0 0 700 500"><rect x="0" y="0" width="700" height="500" style="fill: rgb(255, 255, 255); fill-opacity: 1;"/><defs id="defs-1d7f70"><g class="clips"><clipPath id="clip1d7f70xyplot" class="plotclip"><rect width="489" height="320"/></clipPath><clipPath class="axesclip" id="clip1d7f70x"><rect x="131" y="0" width="489" height="500"/></clipPath><clipPath class="axesclip" id="clip1d7f70y"><rect x="0" y="100" width="700" height="320"/></clipPath><clipPath class="axesclip" id="clip1d7f70xy"><rect x="131" y="100" width="489" height="320"/></clipPath></g><g class="gradients"/><g class="patterns"/></defs><g class="bglayer"><rect class="bg" x="131" y="100" width="489" height="320" style="fill: rgb(229, 236, 246); fill-opacity: 1; stroke-width: 0;"/></g><g class="layer-below"><g class="imagelayer"/><g class="shapelayer"/></g><g class="cartesianlayer"><g class="subplot xy"><g class="layer-subplot"><g class="shapelayer"/><g class="imagelayer"/></g><g class="minor-gridlayer"><g class="x"/><g class="y"/></g><g class="gridlayer"><g class="x"><path class="xgrid crisp" transform="translate(216.31,0)" d="M0,100v320" style="stroke: rgb(255, 255, 255); stroke-opacity: 1; stroke-width: 1px;"/><path class="xgrid crisp" transform="translate(313.36,0)" d="M0,100v320" style="stroke: rgb(255, 255, 255); stroke-opacity: 1; stroke-width: 1px;"/><path class="xgrid crisp" transform="translate(410.41,0)" d="M0,100v320" style="stroke: rgb(255, 255, 255); stroke-opacity: 1; stroke-width: 1px;"/><path class="xgrid crisp" transform="translate(507.46,0)" d="M0,100v320" style="stroke: rgb(255, 255, 255); stroke-opacity: 1; stroke-width: 1px;"/><path class="xgrid crisp" transform="translate(604.51,0)" d="M0,100v320" style="stroke: rgb(255, 255, 255); stroke-opacity: 1; stroke-width: 1px;"/></g><g class="y"><path class="ygrid crisp" transform="translate(0,354.27)" d="M131,0h489" style="stroke: rgb(255, 255, 255); stroke-opacity: 1; stroke-width: 1px;"/><path class="ygrid crisp" transform="translate(0,304.53)" d="M131,0h489" style="stroke: rgb(255, 255, 255); stroke-opacity: 1; stroke-width: 1px;"/><path class="ygrid crisp" transform="translate(0,254.79)" d="M131,0h489" style="stroke: rgb(255, 255, 255); stroke-opacity: 1; stroke-width: 1px;"/><path class="ygrid crisp" transform="translate(0,205.05)" d="M131,0h489" style="stroke: rgb(255, 255, 255); stroke-opacity: 1; stroke-width: 1px;"/><path class="ygrid crisp" transform="translate(0,155.31)" d="M131,0h489" style="stroke: rgb(255, 255, 255); stroke-opacity: 1; stroke-width: 1px;"/><path class="ygrid crisp" transform="translate(0,105.57)" d="M131,0h489" style="stroke: rgb(255, 255, 255); stroke-opacity: 1; stroke-width: 1px;"/></g></g><g class="zerolinelayer"><path class="yzl zl crisp" transform="translate(0,404.01)" d="M131,0h489" style="stroke: rgb(255, 255, 255); stroke-opacity: 1; stroke-width: 2px;"/></g><path class="xlines-below"/><path class="ylines-below"/><g class="overlines-below"/><g class="xaxislayer-below"/><g class="yaxislayer-below"/><g class="overaxes-below"/><g class="plot" transform="translate(131,100)" clip-path="url(#clip1d7f70xyplot)"><g class="scatterlayer mlayer"><g class="trace scatter trace5bd7d2" style="stroke-miterlimit: 2; opacity: 1;"><g class="fills"/><g class="errorbars"/><g class="lines"><path class="js-line" d="M0,304L9.73,299.59L9.73,299.58L13.41,297.65L13.41,297.65L13.41,297.64L21.88,293.84L21.88,293.83L25.95,292.13L25.95,292.13L26.03,292.1L36.78,286.82L36.78,286.81L42.65,283.62L42.65,283.62L42.69,283.62L44.3,282.78L44.3,282.77L48,280.59L48,280.58L57.81,274.15L57.81,274.15L57.81,274.14L64.11,270.16L64.11,270.15L65.99,268.99L66.07,268.99L79.61,260.59L79.61,260.58L82.13,259.07L82.16,259.06L85.59,256.8L85.59,256.78L87.84,255.19L87.95,255.19L90.01,253.84L90.06,253.83L93.24,251.86L93.24,251.86L93.31,251.85L96.92,249.87L96.92,249.84L100.73,247.47L100.73,247.47L100.73,247.46L102.04,246.55L102.04,246.55L102.04,246.54L105.68,244.38L105.87,244.38L108.28,242.97L108.28,242.95L112.1,240.52L112.1,240.51L116.2,238.05L116.2,238.05L116.23,238.04L117.53,237.18L117.53,237.18L117.61,237.18L119.13,236.33L119.13,236.33L119.2,236.32L123.71,233.76L123.71,233.76L123.75,233.76L125.32,232.8L125.32,232.79L128.11,231.37L128.11,231.36L130.37,230.15L130.37,230.14L147.29,219.83L147.29,219.82L149.94,218.5L149.94,218.5L149.94,218.49L151.89,217.09L151.97,217.09L157.63,213.86L157.63,213.85L160.91,211.63L160.92,211.62L166.21,208.65L166.21,208.65L166.31,208.65L181.84,199.87L181.84,199.87L181.94,199.87L187.61,196.8L187.61,196.8L187.61,196.77L198.01,190.39L198.13,190.39L202.01,187.77L202.14,187.76L203.93,186.74L203.96,186.73L207.91,184.29L207.91,184.29L208.01,184.28L218.71,178.23L218.71,178.23L218.76,178.23L223.52,175.58L223.52,175.57L225.26,174.62L225.26,174.61L242.07,164.9L242.07,164.9L242.42,164.9L248.29,161.35L248.29,161.35L248.36,161.34L251.33,159.39L251.4,159.38L254.72,157.49L254.72,157.48L257.16,156.4L257.16,156.39L258.95,155.26L258.95,155.26L259.12,155.25L261.88,153.79L261.88,153.78L268.44,150.18L268.44,150.17L273.08,147.19L273.08,147.19L273.17,147.18L276.94,144.98L276.94,144.97L295.89,133.35L295.89,133.34L296.95,132.74L296.95,132.74L296.97,132.73L298.33,131.83L298.33,131.83L298.41,131.82L300.65,130.62L300.65,130.61L302.13,129.67L302.13,129.67L302.22,129.67L303.9,128.65L303.99,128.64L323.78,117.3L323.86,117.3L328.03,114.71L328.03,114.71L328.03,114.7L332.07,112.01L332.07,112.01L332.07,112L338.14,108.69L338.14,108.69L338.14,108.68L340.45,107.37L340.45,107.36L341.98,106.37L342.06,106.36L343.99,105.06L343.99,105.06L344.06,105.06L348.16,102.66L348.16,102.65L350.4,101.45L350.44,101.45L354.01,99.28L354.01,99.26L357.68,97.25L357.68,97.24L360.02,95.76L360.04,95.75L363.44,93.62L363.44,93.62L363.52,93.62L365.99,92.27L366.03,92.27L369.47,90.05L369.47,90.04L372.53,88.17L372.53,88.17L372.68,88.16L373.91,87.35L374.01,87.34L375.94,86.11L375.98,86.11L379.76,83.88L379.85,83.88L383.27,81.91L383.27,81.91L383.33,81.9L387.81,79.23L387.81,79.22L392.54,76.42L392.54,76.42L392.54,76.41L394.78,75.21L394.78,75.21L394.81,75.21L400.24,72.3L400.24,72.3L400.33,72.3L404.81,69.68L404.86,69.68L410.52,66.44L410.52,66.43L416.76,62.52L416.85,62.52L427.03,56.26L427.14,56.26L428.34,55.34L428.34,55.34L428.39,55.33L429.65,54.59L429.65,54.59L429.66,54.59L439.1,48.39L439.1,48.38L441.91,46.73L441.91,46.71L444.03,45.32L444.03,45.32L444.05,45.32L446.86,43.54L446.86,43.53L455.25,37.62L455.25,37.62L455.25,37.61L466.41,30.83L466.41,30.82L469.15,28.94L469.15,28.93L473.26,26.71L473.26,26.7L474.41,25.52L474.44,25.52L478.85,22.43L478.9,22.42L482.83,19.97L482.83,19.96L484.66,18.9L484.66,18.89L489,16" style="vector-effect: non-scaling-stroke; fill: none; stroke: rgb(173, 0, 0); stroke-opacity: 1; stroke-width: 2px; opacity: 1;"/></g><g class="points"/><g class="text"/></g></g></g><g class="overplot"/><path class="xlines-above crisp" d="M0,0" style="fill: none;"/><path class="ylines-above crisp" d="M0,0" style="fill: none;"/><g class="overlines-above"/><g class="xaxislayer-above"><g class="xtick"><text text-anchor="middle" x="0" y="436" transform="translate(216.31,0)" style="font-family: 'Times New Roman'; font-size: 15px; fill: rgb(13, 13, 13); fill-opacity: 1; white-space: pre; opacity: 1;">1.61252×10​<tspan style="font-size:70%" dy="-0.6em">18</tspan><tspan dy="0.42em">​</tspan></text></g><g class="xtick"><text text-anchor="middle" x="0" y="436" style="font-family: 'Times New Roman'; font-size: 15px; fill: rgb(13, 13, 13); fill-opacity: 1; white-space: pre; opacity: 1;" transform="translate(313.36,0)">1.612525×10​<tspan style="font-size:70%" dy="-0.6em">18</tspan><tspan dy="0.42em">​</tspan></text></g><g class="xtick"><text text-anchor="middle" x="0" y="436" style="font-family: 'Times New Roman'; font-size: 15px; fill: rgb(13, 13, 13); fill-opacity: 1; white-space: pre; opacity: 1;" transform="translate(410.41,0)">1.61253×10​<tspan style="font-size:70%" dy="-0.6em">18</tspan><tspan dy="0.42em">​</tspan></text></g><g class="xtick"><text text-anchor="middle" x="0" y="436" style="font-family: 'Times New Roman'; font-size: 15px; fill: rgb(13, 13, 13); fill-opacity: 1; white-space: pre; opacity: 1;" transform="translate(507.46,0)">1.612535×10​<tspan style="font-size:70%" dy="-0.6em">18</tspan><tspan dy="0.42em">​</tspan></text></g><g class="xtick"><text text-anchor="middle" x="0" y="436" style="font-family: 'Times New Roman'; font-size: 15px; fill: rgb(13, 13, 13); fill-opacity: 1; white-space: pre; opacity: 1;" transform="translate(604.51,0)">1.61254×10​<tspan style="font-size:70%" dy="-0.6em">18</tspan><tspan dy="0.42em">​</tspan></text></g></g><g class="yaxislayer-above"><g class="ytick"><text text-anchor="end" x="130" y="12.25" transform="translate(0,404.01)" style="font-family: 'Times New Roman'; font-size: 35px; fill: rgb(13, 13, 13); fill-opacity: 1; white-space: pre; opacity: 1;">0</text></g><g class="ytick"><text text-anchor="end" x="130" y="12.25" style="font-family: 'Times New Roman'; font-size: 35px; fill: rgb(13, 13, 13); fill-opacity: 1; white-space: pre; opacity: 1;" transform="translate(0,354.27)">0.5M</text></g><g class="ytick"><text text-anchor="end" x="130" y="12.25" style="font-family: 'Times New Roman'; font-size: 35px; fill: rgb(13, 13, 13); fill-opacity: 1; white-space: pre; opacity: 1;" transform="translate(0,304.53)">1M</text></g><g class="ytick"><text text-anchor="end" x="130" y="12.25" style="font-family: 'Times New Roman'; font-size: 35px; fill: rgb(13, 13, 13); fill-opacity: 1; white-space: pre; opacity: 1;" transform="translate(0,254.79)">1.5M</text></g><g class="ytick"><text text-anchor="end" x="130" y="12.25" style="font-family: 'Times New Roman'; font-size: 35px; fill: rgb(13, 13, 13); fill-opacity: 1; white-space: pre; opacity: 1;" transform="translate(0,205.05)">2M</text></g><g class="ytick"><text text-anchor="end" x="130" y="12.25" style="font-family: 'Times New Roman'; font-size: 35px; fill: rgb(13, 13, 13); fill-opacity: 1; white-space: pre; opacity: 1;" transform="translate(0,155.31)">2.5M</text></g><g class="ytick"><text text-anchor="end" x="130" y="12.25" style="font-family: 'Times New Roman'; font-size: 35px; fill: rgb(13, 13, 13); fill-opacity: 1; white-space: pre; opacity: 1;" transform="translate(0,105.57)">3M</text></g></g><g class="overaxes-above"/></g></g><g class="polarlayer"/><g class="smithlayer"/><g class="ternarylayer"/><g class="geolayer"/><g class="funnelarealayer"/><g class="pielayer"/><g class="iciclelayer"/><g class="treemaplayer"/><g class="sunburstlayer"/><g class="glimages"/><defs id="topdefs-1d7f70"><g class="clips"/></defs><g class="layer-above"><g class="imagelayer"/><g class="shapelayer"/></g><g class="infolayer"><g class="g-gtitle"/><g class="g-xtitle"><text class="xtitle" x="375.5" y="463.8" text-anchor="middle" style="font-family: 'Open Sans', verdana, arial, sans-serif; font-size: 14px; fill: rgb(42, 63, 95); opacity: 1; font-weight: normal; white-space: pre;">Time Steps (ns)</text></g><g class="g-ytitle" transform="translate(23.875,0)"><text class="ytitle" transform="rotate(-90,12.125,260)" x="12.125" y="260" text-anchor="middle" style="font-family: 'Times New Roman'; font-size: 40px; fill: rgb(13, 13, 13); opacity: 1; font-weight: normal; white-space: pre;">Cum. qty. executed securites</text></g></g></svg>