<svg class="main-svg" xmlns="http://www.w3.org/2000/svg" xmlns:xlink="http://www.w3.org/1999/xlink" width="700" height="500" style="" viewBox="0 0 700 500"><rect x="0" y="0" width="700" height="500" style="fill: rgb(255, 255, 255); fill-opacity: 1;"/><defs id="defs-b27451"><g class="clips"><clipPath id="clipb27451xyplot" class="plotclip"><rect width="511" height="320"/></clipPath><clipPath class="axesclip" id="clipb27451x"><rect x="109" y="0" width="511" height="500"/></clipPath><clipPath class="axesclip" id="clipb27451y"><rect x="0" y="100" width="700" height="320"/></clipPath><clipPath class="axesclip" id="clipb27451xy"><rect x="109" y="100" width="511" height="320"/></clipPath></g><g class="gradients"/><g class="patterns"/></defs><g class="bglayer"><rect class="bg" x="109" y="100" width="511" height="320" style="fill: rgb(229, 236, 246); fill-opacity: 1; stroke-width: 0;"/></g><g class="layer-below"><g class="imagelayer"/><g class="shapelayer"/></g><g class="cartesianlayer"><g class="subplot xy"><g class="layer-subplot"><g class="shapelayer"/><g class="imagelayer"/></g><g class="minor-gridlayer"><g class="x"/><g class="y"/></g><g class="gridlayer"><g class="x"><path class="xgrid crisp" transform="translate(198.18,0)" d="M0,100v320" style="stroke: rgb(255, 255, 255); stroke-opacity: 1; stroke-width: 1px;"/><path class="xgrid crisp" transform="translate(299.58000000000004,0)" d="M0,100v320" style="stroke: rgb(255, 255, 255); stroke-opacity: 1; stroke-width: 1px;"/><path class="xgrid crisp" transform="translate(400.99,0)" d="M0,100v320" style="stroke: rgb(255, 255, 255); stroke-opacity: 1; stroke-width: 1px;"/><path class="xgrid crisp" transform="translate(502.39,0)" d="M0,100v320" style="stroke: rgb(255, 255, 255); stroke-opacity: 1; stroke-width: 1px;"/><path class="xgrid crisp" transform="translate(603.79,0)" d="M0,100v320" style="stroke: rgb(255, 255, 255); stroke-opacity: 1; stroke-width: 1px;"/></g><g class="y"><path class="ygrid crisp" transform="translate(0,354.56)" d="M109,0h511" style="stroke: rgb(255, 255, 255); stroke-opacity: 1; stroke-width: 1px;"/><path class="ygrid crisp" transform="translate(0,305.13)" d="M109,0h511" style="stroke: rgb(255, 255, 255); stroke-opacity: 1; stroke-width: 1px;"/><path class="ygrid crisp" transform="translate(0,255.69)" d="M109,0h511" style="stroke: rgb(255, 255, 255); stroke-opacity: 1; stroke-width: 1px;"/><path class="ygrid crisp" transform="translate(0,206.26)" d="M109,0h511" style="stroke: rgb(255, 255, 255); stroke-opacity: 1; stroke-width: 1px;"/><path class="ygrid crisp" transform="translate(0,156.82)" d="M109,0h511" style="stroke: rgb(255, 255, 255); stroke-opacity: 1; stroke-width: 1px;"/><path class="ygrid crisp" transform="translate(0,107.39)" d="M109,0h511" style="stroke: rgb(255, 255, 255); stroke-opacity: 1; stroke-width: 1px;"/></g></g><g class="zerolinelayer"><path class="yzl zl crisp" transform="translate(0,404)" d="M109,0h511" style="stroke: rgb(255, 255, 255); stroke-opacity: 1; stroke-width: 2px;"/></g><path class="xlines-below"/><path class="ylines-below"/><g class="overlines-below"/><g class="xaxislayer-below"/><g class="yaxislayer-below"/><g class="overaxes-below"/><g class="plot" transform="translate(109,100)" clip-path="url(#clipb27451xyplot)"><g class="scatterlayer mlayer"><g class="trace scatter tracec65997" style="stroke-miterlimit: 2; opacity: 1;"><g class="fills"/><g class="errorbars"/><g class="lines"><path class="js-line" d="M0,304L0.97,303.98L1,304L1.05,303.33L1.66,304L1.76,303.91L1.85,304L2.18,301.68L2.48,304L2.56,303.9L2.69,304L2.91,303.34L3.17,303.76L3.24,302.32L3.24,304L3.88,299.6L3.99,304L4.01,304L4.11,300.89L4.73,303.91L4.86,304L5.6,302.49L5.62,303.98L5.74,304L6.31,302.09L6.44,303.86L6.54,304L6.64,303.72L6.66,304L6.66,297.59L6.68,304L7.3,296.64L7.37,304L7.44,304L7.61,301.57L8.16,303.92L8.27,303.98L8.69,304L8.69,300.59L9.42,304L9.42,303.63L9.49,304L9.93,302.55L10.22,303.93L10.26,304L10.99,303.27L11,303.3L11.03,304L11.51,302.49L11.72,303.84L11.81,304L12.47,303.72L12.57,304L12.78,303.27L12.98,304L12.98,289.14L13.77,304L13.77,304L13.8,304L14.45,302L14.51,303.42L14.51,304L14.73,303.12L15.18,303.19L15.31,304L15.53,302.15L16,303.94L16.08,304L16.13,300.22L16.77,302.82L16.87,304L17.07,303.39L17.6,303.97L17.65,304L17.77,302.69L18.05,303.93L18.09,304L18.32,303.62L18.58,304L18.6,300.35L18.6,304L19.33,303.57L19.37,303.53L19.46,304L19.79,303.24L20.1,303.43L20.1,304L20.74,303.66L20.74,304L20.74,302.64L20.74,304L20.82,302.47L21.43,304L21.51,304L21.79,304L21.86,300.96L21.86,296.61L21.86,304L22.6,304L22.62,304L22.64,302.82L23.34,303.85L23.38,303.94L23.41,304L23.86,300.12L24.13,303.98L24.15,304L24.69,302.91L24.79,303.94L24.84,304L25.04,300.28L25.48,303.51L25.48,304L25.95,302.72L26.24,304L26.34,304L26.55,303.61L26.55,301.86L27.44,304L27.44,303.77L27.44,304L27.88,299.56L28.14,304L28.2,303.87L28.5,303.34L28.78,304L28.78,303.73L28.78,300.53L29.48,304L29.51,303.69L29.61,303.84L29.61,304L29.93,298.48L30.33,304L30.47,301.43L30.9,295.57L31.15,304L31.15,303.95L31.32,303.57L31.32,304L31.66,302.19L32.06,304L32.09,304L32.63,302.29L32.7,303.9L32.8,303.88L33,303.47L33.31,304L33.31,302.86L33.59,295.35L34.07,304L34.11,304L34.4,293.41L34.67,304L34.71,304L35.15,302.5L35.44,303.64L35.48,303.8L35.53,304L35.54,302.24L35.9,304L35.96,304L36.27,303.55L36.27,303.78L36.27,303.21L36.5,302.06L37.02,304L37.12,303.87L37.15,303.64L37.26,304L37.84,304L37.87,304L38.56,303.16L38.56,303.28L38.63,301.3L38.64,304L39.34,303.96L39.39,303.43L39.39,304L39.89,299.89L40.1,304L40.18,303.54L40.9,302.33L40.9,304L40.95,302.4L41.62,304L41.7,303.98L41.73,303.97L42.32,302.91L42.56,303.73L42.57,304L42.75,304L42.76,303.04L42.76,304L43.45,304L43.53,304L44.31,301.99L44.31,304L44.78,298.21L45.01,303.52L45.07,303.93L45.37,304L45.38,302.87L45.5,302.33L46.19,304L46.24,304L46.67,302.87L46.98,304L47,304L47.61,301.48L47.7,303.92L47.76,304L47.82,300.45L48.49,303.06L48.58,303.89L48.61,304L48.76,298.2L49.31,303.29L49.36,304L49.97,302.96L50.11,303.61L50.15,304L50.71,302.71L50.77,304L50.8,304L51.14,302.28L51.27,304L51.32,304L51.33,300.79L52.03,304L52.11,302.96L52.19,302.86L52.87,304L52.9,304L53.4,302.69L53.4,304L53.44,302.37L53.86,300.19L54.14,304L54.17,303.95L54.21,303.77L54.79,302.97L54.95,304L54.95,303.92L54.98,302.92L54.98,304L55.19,302.04L55.71,304L55.77,304L56,302.46L56.45,303.88L56.45,304L57.04,302.96L57.17,303.94L57.27,303.69L57.28,304L57.69,301.85L58.02,303.97L58.1,303.96L58.12,304L58.34,300.46L58.64,303.85L58.65,303.98L60.31,304L60.31,303.78L60.32,303.4L60.32,301.41L60.36,304L61.07,304L61.08,303.95L61.19,304L61.3,301.42L61.35,304L61.37,298.85L62.03,304L62.12,303.84L62.17,303.04L62.18,304L62.55,295.31L62.9,303.99L62.95,303.79L62.95,304L63.5,302.63L63.69,304L63.71,304L63.94,302.7L63.94,303.58L63.94,293.43L63.97,304L64.68,290.26L64.7,304L64.7,303.07L65.45,303.82L65.51,304L66.21,302.87L66.25,303.95L66.36,303.98L66.81,303.2L67.02,304L67.05,302.89L67.05,304L67.78,303.78L67.85,304L68.02,303.41L68.02,301.36L68.77,304L68.8,304L69,302.7L69.29,303.95L69.38,303.89L69.44,304L69.53,299.62L69.6,304L69.66,303.92L69.69,304L69.92,297.56L70.4,303.49L70.43,304L71.07,302.8L71.13,303.93L71.19,303.74L71.63,303L71.84,304L71.84,302.4L71.86,304L72.49,296.38L72.59,303.96L72.61,303.82L72.76,302.91L73.25,304L73.25,303.34L73.28,303.27L73.53,301.1L74.04,304L74.06,303.12L74.06,304L74.5,301.66L74.74,303.95L74.85,303.51L75.21,302.51L75.61,304L75.64,303.5L75.95,302.82L76.36,304L76.42,304L77.56,303.44L77.56,304L77.57,303.1L78.04,301.58L78.29,304L78.39,303.97L78.44,304L78.75,303.2L79.07,303.84L79.07,304L79.24,301.48L79.83,303.57L79.83,303.97L80.03,304L80.26,302.98L80.56,304L80.59,304L80.86,304L80.86,302.09L81.45,297.7L81.59,304L81.59,304L81.65,303.75L81.65,304L82.08,302.05L82.38,303.86L82.41,303.31L82.41,304L82.81,301.54L83.16,304L83.18,304L83.88,303.68L83.89,303.98L83.94,302.19L83.94,304L84.15,301.84L84.69,304L84.73,303.73L85.26,301.33L85.43,304L85.46,303.99L85.51,304L86.2,302.41L86.2,304L86.26,304L86.66,297.07L87.01,304L87.05,304L87.14,298.86L87.78,304L87.81,304L88.37,303.19L88.63,303.99L88.64,304L89.38,300.94L89.38,303.97L89.43,304L89.92,303.04L90.29,303.79L90.29,304L90.61,302.97L91.01,303.62L91.01,304L91.49,302.96L91.74,303.82L91.79,304L91.95,300.42L92.51,304L92.57,304L92.99,300.05L93.3,303.97L93.33,304L93.87,297.76L94.06,303.91L94.1,303.9L94.15,297.39L94.15,303.96L94.48,302.97L94.48,303.11L94.48,304L94.82,303.55L94.83,296.73L94.83,304L95.58,304L95.59,303.31L95.65,304L95.82,301.62L96.29,303.93L96.35,304L96.75,303.98L96.75,304L96.77,303.22L97.07,302.84L97.53,304L97.53,303.72L97.55,304L97.88,303.99L97.88,304L97.88,303.17L98.39,302.61L98.57,304L98.57,304L98.75,304L99.25,300.92L99.44,303.69L99.49,304L100.2,303.22L100.22,304L100.27,304L100.3,301.93L100.97,304L101.03,303.9L101.14,304L101.19,302.96L101.67,303.91L101.69,304L102.2,299.04L102.36,304L102.49,304L102.77,301.02L103.22,303.99L103.32,304L103.38,302.75L103.97,303.92L104.06,304L104.15,303.55L104.41,303.92L104.41,295.41L104.41,304L104.52,293.04L105.16,304L105.17,303.92L105.43,304L105.5,302.36L105.92,303.5L105.92,304L106.33,302.49L106.65,304L106.73,303.9L106.84,304L107.5,300.79L107.5,304L107.97,302.82L108.22,304L108.29,303.83L108.29,304L108.77,301.22L109.04,303.73L109.07,303.58L109.54,302.86L109.85,304L109.92,304L110.25,302.51L110.74,303.64L110.74,304L111.05,301.5L111.5,303.74L111.5,303.99L111.85,303.22L111.96,303.99L111.96,304L112.07,302.87L112.1,303.97L112.11,300.21L112.11,304L112.75,303.97L112.87,304L113.13,303.61L113.13,304L113.17,302.69L113.17,304L113.74,302.42L113.91,303.63L113.93,304L114.12,303.06L114.12,301.78L114.14,304L114.84,303.98L114.88,304L115.45,301.97L115.47,303.98L115.64,304L115.81,301.56L115.84,303.6L115.87,303.97L116.22,302.95L116.5,303.98L116.51,304L116.93,303.67L116.97,304L116.98,297.31L116.98,304L117.56,253.32L117.72,304L117.78,303.91L117.81,304L118.16,300.64L118.5,304L118.65,303.94L118.68,304L119.2,301.35L119.39,304L119.49,303.98L119.51,304L120.23,299.98L120.23,304L120.29,304L120.64,302.89L120.65,303.93L120.66,301.33L120.66,304L121.4,303.86L121.42,304L121.86,300.49L122.05,304L122.1,214.42L122.18,214.08L122.84,304L122.84,303.75L122.91,304L123.54,303.29L123.61,303.74L123.74,303.98L123.74,301.79L123.74,304L124.48,304L124.5,303.92L124.78,304L124.78,303.07L125.19,301.27L125.59,304L125.59,303.99L125.61,303.36L125.61,304L126.03,301.65L126.36,303.91L126.37,304L126.55,298.36L127.11,304L127.13,303.47L127.16,304L127.81,302.64L127.82,304L127.85,304L128,302.42L128.23,303.97L128.23,304L128.94,302.51L129,303.88L129,304L129.4,303.22L129.72,303.59L129.81,304L129.95,302.4L130.56,303.99L130.6,304L131.33,298.79L131.33,303.7L131.36,304L131.38,299.53L131.95,304L132.13,304L132.53,303.08L132.85,304L132.9,304L133.65,302.78L133.65,304L133.69,304L133.95,301.18L134.44,303.62L134.45,303.79L134.55,302.78L135.07,304L135.07,302.42L135.43,301.72L135.82,304L135.82,303.93L135.9,303.9L136.25,303.97L136.27,298.89L136.27,304L137.02,304L137.07,304L137.18,297.04L137.8,302.42L137.89,303.94L138.13,303.23L138.22,304L138.24,303.87L138.28,302.81L138.28,304L138.99,301.06L139.03,304L139.08,303.98L139.79,302.73L139.87,303.8L139.88,304L140,303.89L140.05,301.95L140.05,304L140.24,293.25L140.77,304L140.84,303.11L140.84,304L141.58,301.88L141.59,304L141.61,303.98L141.74,302.66L141.86,304L141.86,301.59L142.43,300.05L142.6,304L142.61,303.97L142.67,304L142.87,299.47L143.3,304L143.32,304L143.55,303.02L144.03,303.79L144.12,303.9L144.16,304L144.18,301.34L144.78,304L144.82,304L145.5,303L145.58,303.94L145.66,304L145.67,303.48L146.39,304L146.44,303.6L146.44,304L146.96,297.65L147.17,304L147.24,304L147.39,295.76L147.96,304L148.07,303.98L148.16,304L148.71,302.05L148.84,304L149.26,301.2L149.26,301.5L149.27,299.72L149.98,304L150.04,303.44L150.04,304L150.76,303.92L150.8,302.92L151.21,301.41L151.58,304L151.58,303.7L152.17,304L152.17,303.96L152.19,303.21L152.19,304L152.62,303.01L152.89,304L152.96,304L153.26,302.09L153.71,304L153.73,303.91L154.31,304L154.31,302.77L154.31,304L154.59,257.65L155.06,304L155.18,304L155.68,302.65L155.89,304L156,303.59L156,304L156.23,302.76L156.75,304L156.76,304L157.42,300.35L157.49,304L157.52,303.99L157.68,304L157.69,302.32L158.24,304L158.29,303.91L158.54,303.41L158.59,304L158.62,303.88L158.62,302.96L158.62,304L158.7,302.76L159.25,304L159.39,303.81L159.39,304L159.95,301.56L160.13,304L160.17,304L160.77,302.92L160.89,303.78L160.94,303.94L161.08,304L161.66,302.97L161.66,304L161.74,303.94L161.91,304L162.51,299.59L162.51,304L162.67,299.5L163.22,304L163.28,304L164,300.4L164.06,303.35L164.06,304L164.07,299.03L164.76,303.74L164.82,303.92L164.9,304L165.09,298.46L165.53,303.84L165.59,303.93L165.69,304L165.95,302.39L166.06,303.84L166.07,304L166.77,303.14L166.84,303.93L166.86,302.19L166.99,304L167.54,303.7L167.62,303.9L167.82,304L167.84,303.73L167.88,303.18L167.88,304L168.07,300.05L168.63,304L168.66,304L169.07,303.46L169.15,303.84L169.19,304L169.45,300.85L169.61,301.72L169.61,303.99L170.14,302.38L170.45,303.56L170.47,303.98L171.01,302.86L171.18,303.98L171.22,304L171.91,298.17L171.96,303.99L172.09,304L172.19,303.37L172.4,304L172.4,295.38L172.4,304L173.15,304L173.19,303.93L173.69,303.86L173.69,304L173.7,303.13L173.98,302.73L174.4,304L174.42,303.92L174.43,292.88L174.43,304L175.15,304L175.19,303.56L175.77,304L175.82,302.26L175.82,302.44L175.97,304L176.07,301.52L176.51,303.93L176.51,304L176.77,302.55L177.25,304L177.31,303.85L177.58,303.41L177.58,304L177.58,303.87L177.59,301.19L177.59,304L178.3,303.99L178.35,304L178.39,303.82L178.53,303.99L178.53,299.74L178.54,304L179.26,304L179.31,303.97L179.34,304L179.46,303.42L180.06,303.92L180.1,303.98L180.16,304L180.63,302.31L180.71,303.14L180.79,303.9L180.96,303.32L181.13,304L181.13,301.61L181.14,304L181.85,297.03L181.85,297.15L181.89,304L181.99,302.22L182.63,302.97L182.7,303.92L182.83,304L182.83,302.92L182.98,302.27L183.58,304L183.58,303.89L183.62,303.76L183.67,302.97L184.29,304L184.29,302.67L184.29,304L184.44,300.42L185.02,304L185.06,304L185.59,301.88L185.75,304L185.78,303.95L185.82,304L186.09,299.04L186.51,304L186.54,304L187.23,301.86L187.3,303.94L187.3,304L187.41,303.82L187.41,304L187.42,300.93L187.58,304L187.62,296.29L188.11,304L188.14,303.78L188.26,304L188.83,300.69L188.88,303.99L188.92,303.98L189.28,303.24L189.7,303.93L189.7,304L190.39,302.49L190.5,303.73L190.5,304L191.12,302.99L191.24,304L191.31,304L191.66,303.04L192.07,304L192.08,304L192.14,302.76L192.81,303.77L192.84,304L192.89,303.1L193.57,304L193.61,303.88L193.76,304L194.12,303.08L194.34,304L194.37,303.94L194.69,303.33L194.96,303.77L194.97,301.13L195.76,304L195.86,303.91L195.9,304L196.35,299.4L196.6,304L196.62,303.51L196.62,304L197.18,297.57L197.36,303.79L197.4,303.95L197.44,304L197.7,303.38L198.15,303.84L198.25,303.65L198.25,304L198.67,302.68L199,304L199.02,302.53L199.02,304L199.24,293.63L199.77,303.98L199.8,304L200.45,303.95L200.45,304L200.51,302.96L200.51,304L200.99,302.81L201.24,303.99L201.28,303.96L201.63,304L201.67,302.41L201.67,304L202.34,296.53L202.34,304L202.43,304L202.55,295.96L203.17,304L203.19,303.75L203.19,304L203.65,302.39L203.91,304L203.96,304L204.36,303.28L204.36,304L204.42,303.2L204.42,304L204.75,301.6L205.11,304L205.2,303.8L205.77,303.01L205.97,304L205.97,304L206.02,304L206.34,302.27L206.77,303.48L206.8,303.97L206.81,304L206.82,302.88L206.82,110.68L206.82,304L207.57,303.91L207.58,304L208.08,302.33L208.09,304L208.09,301.99L208.23,298.94L208.88,304L208.88,304L208.88,303.24L208.88,304L209.08,302.98L209.55,304L209.64,303.68L209.64,304L210.39,294.12L210.43,303.96L210.92,303.61L211,304L211.01,290.16L211.85,304L211.85,304L211.88,303.9L211.97,304L212.48,303.28L212.67,303.74L212.73,304L213.31,302.13L213.47,304L213.49,304L213.59,303.79L213.59,301.73L213.59,304L214.34,304L214.36,303.96L214.86,302.79L215,304L215.05,304L215.64,301.26L215.81,304L215.84,303.92L216.03,304L216.26,301.82L216.28,303.94L216.3,299.23L217.05,304L217.05,303.93L217.08,303.48L217.61,301.9L217.7,304L217.74,303.92L217.74,301.72L217.74,304L218.08,292.81L218.48,304L218.53,303.94L218.6,304L219.2,302.46L219.28,304L219.3,303.98L219.39,304L219.5,302.99L220.03,304L220.15,303.69L220.15,304L220.84,302.78L220.85,303.99L220.96,304L221.04,299.78L221.22,304L221.29,304L221.76,299.19L221.76,304L222.02,304L222.03,302.1L222.03,304L222.22,298.63L222.73,303.92L222.84,303.78L223.03,303.63L223.41,304L223.41,302.87L224.16,304L224.16,303.99L224.2,303.8L224.2,304L224.45,295.32L224.93,303.91L224.99,303.53L225.48,303.21L225.54,304L225.55,300.88L225.55,260.93L225.59,304L226.28,304L226.35,303.72L226.41,304L226.51,301.06L227.08,304L227.11,303.38L227.37,301.84L227.83,304L227.83,303.95L227.9,304L228.05,302.24L228.06,300.98L228.06,304L228.17,300.82L228.74,304L228.95,303.81L228.95,304L229.4,301.87L229.7,304L229.74,304L230.55,303.27L230.72,303.77L230.78,304L230.96,302.33L231.4,304L231.5,304L232.17,296.09L232.25,303.92L232.31,303.84L232.31,304L232.62,299.99L233.05,303.95L233.15,304L233.91,303.45L233.96,303.91L233.96,304L234.57,302.97L234.75,304L234.8,303.99L235.39,302.63L235.55,304L235.88,303.92L235.88,304L236.4,302.07L236.6,303.86L236.65,303.33L236.65,304L236.71,300.7L237.36,304L237.49,304L238.18,299.61L238.21,303.9L238.27,303.92L238.37,304L238.49,302.26L239,304L239.03,304L239.62,302.18L239.77,303.81L239.8,303.77L239.8,304L240.22,293.72L240.55,303.91L240.56,303.99L240.95,301.91L241.09,303.92L241.14,303.99L241.3,303.61L241.3,300.86L241.3,304L242.04,304L242.06,303.94L242.08,304L242.74,296.92L242.79,303.1L242.83,304L242.85,303.04L243.55,304L243.64,304L243.64,302.72L244.35,303.64L244.41,303.52L244.41,304L244.98,302.25L245.1,303.08L245.27,303.96L245.3,302.76L245.36,304L245.94,304L246.03,303.76L246.1,304L246.12,301.78L246.71,304L246.79,304L247.09,301.55L247.18,303.87L247.19,304L247.41,302.51L247.89,304L247.97,303.52L248.05,302.99L248.68,304L248.71,303.89L248.74,303.96L249.14,304L249.18,303.27L249.24,302.27L249.93,304L249.95,303.97L249.96,304L250.11,302.97L250.7,303.96L250.72,304L250.78,303.31L250.84,303.33L250.85,38.33L250.85,304L251.59,304L251.61,303.93L251.84,304L252.36,300.77L252.36,300.95L252.46,303.85L252.55,304L252.55,302.11L252.6,303.97L252.8,303.92L252.82,304L252.84,16L253.55,303.93L253.57,303.98L253.61,304L254.16,301.82L254.28,303.87L254.34,303.96L254.86,303.08L254.98,304L254.99,302.56L255.04,304L255.07,301.44L255.67,304L255.8,304L255.91,302.1L255.91,302.12L255.95,298.84L255.95,304L256.67,303.72L256.77,303.85L256.94,303.23L257.52,304L257.52,303.98L257.55,304L257.77,302.54L258.27,304L258.32,303.79L258.42,304L258.86,301.94L259.04,303.26L259.06,304L259.38,300.17L259.81,304L259.84,304L260.11,303.63L260.23,298.5L260.97,304L261,304L261.42,297.16L261.55,304L261.62,304L261.78,303.59L261.81,303.99L261.81,298.94L261.83,296.23L262.56,304L262.57,303.56L262.83,303L262.87,304L262.93,303.88L262.94,294.47L262.94,304L263.62,303.98L263.73,303.73L263.73,304L263.92,302.88L264.44,303.7L264.5,304L264.81,303.56L264.92,303.7L264.96,296.64L265.22,296.31L265.69,304L265.69,303.91L265.73,304L266.16,302.96L266.48,303.66L266.5,304L266.74,303.89L266.74,303.97L266.75,302.79L266.75,304L267.27,301.51L267.5,303.98L267.55,304L267.66,303.81L267.7,304L267.7,290.89L268.4,304L268.4,303.9L268.5,303.88L268.58,304L268.99,303.02L269.24,303.89L269.28,304L269.8,301.93L270,304L270.04,303.79L270.71,303.45L270.81,304L270.92,304L271.16,302.12L271.66,303.86L271.68,303.67L271.68,304L272.36,302.07L272.43,304L272.44,304L272.72,300.99L272.72,304L272.92,299.31L273.38,303.32L273.4,304L273.71,301.85L274.13,304L274.2,304L274.87,302.73L274.97,303.94L275,304L275.41,304L275.42,302.66L275.42,304L275.44,298.82L276.13,303.99L276.18,303.72L276.18,304L276.72,302.46L276.91,303.84L276.95,303.92L277.13,303.5L277.43,304L277.44,302.84L277.44,304L278.12,301.55L278.18,303.93L278.22,303.65L278.22,304L278.71,302.76L278.97,303.94L279.02,303.85L279.04,303.6L279.17,304L279.78,303.73L279.79,303.99L279.82,304L280.32,302.47L280.52,304L280.56,304L280.99,303.07L281.35,304L281.35,299.14L282.03,304L282.09,303.84L282.11,303.98L282.16,304L282.68,300.78L282.82,303.9L282.9,303.9L282.97,303.52L282.98,296.54L282.98,304L283.66,303.99L283.8,303.81L283.9,303.11L284.5,304L284.5,303.21L284.8,302.75L285.25,304L285.27,303.75L285.29,304L285.88,302.79L285.95,303.92L286.04,304L286.24,302.57L286.66,303.92L286.66,304L287.24,301.35L287.37,304L287.44,303.87L287.6,304L287.82,300.85L288.17,303.99L288.19,304L289.02,303.18L289.03,300.29L289.77,304L289.81,303.84L289.81,304L290.4,302.49L290.55,304L290.57,303.98L291.48,303.85L291.53,304L291.53,302.24L291.53,299.05L291.56,304L292.27,303.93L292.35,303.72L292.38,304L292.43,286.92L292.43,304L292.49,304L292.49,286.37L293.19,304L293.27,303.89L293.71,304L293.72,302.74L294.45,304L294.53,303.9L294.59,304L295.18,302.11L295.26,304L295.31,303.99L295.42,304L295.84,300.15L296.06,303.89L296.08,303.96L296.5,303.58L296.5,303.09L296.5,304L297.12,299.3L297.24,304L297.28,304L297.92,302.41L297.96,303.96L297.99,304L298.19,297.92L298.73,304L298.87,304L299,301.37L299.21,304L299.24,304L299.48,303.13L299.98,304L300.01,304L300.33,304L300.33,303.06L300.33,304L300.59,301.79L301.07,303.87L301.1,304L301.11,303.22L301.83,304L301.9,304L302.38,302.4L302.6,304L302.84,304L302.85,301.27L303.51,304L303.56,303.9L303.64,304L303.99,301.22L304.37,303.34L304.4,304L305.11,299.72L305.15,303.49L305.16,303.99L305.28,304L305.36,297.48L305.9,304L305.97,304L306.64,302.55L306.72,304L306.76,304L307.03,302.9L307.48,304L307.54,303.85L307.71,303.13L308.27,304L308.3,303.92L308.43,304L308.54,301.04L308.56,304L308.56,299.61L309.23,304L309.3,303.53L309.35,303.93L309.42,304L309.71,297.62L310.09,303.99L310.11,303.97L310.3,302.77L310.49,304L310.54,304L310.94,303.05L311.33,303.38L311.35,303.99L311.4,304L311.56,301.05L312.12,302.71L312.14,303.98L312.86,304L312.86,303.02L313.44,302.33L313.61,304L313.63,303.96L313.67,303.96L314.23,301.95L314.23,303.99L314.3,304L314.81,303.23L314.91,303.81L314.91,304L315.02,302.12L315.64,303.4L315.69,304L316.26,302.03L316.47,302.28L316.47,303.97L316.56,304L316.69,300.92L317.11,304L317.16,303.54L317.16,304L317.35,302.77L317.88,304L317.92,303.88L318.04,304L318.32,303.31L318.7,304L318.73,304L319.23,301.33L319.46,304L319.52,304L319.52,300.65L320.27,304L320.28,303.43L320.65,299.98L321.07,304L321.07,303.78L321.54,303.25L321.86,304L321.86,304L321.89,304L322,300.47L322.11,303.38L322.16,304L322.91,300.88L322.91,304L322.92,304L322.94,301.08L323.67,304L323.74,303.96L323.8,304L324.46,302.84L324.46,303.76L324.59,304L324.89,300.5L325.34,304L325.35,303.94L325.45,304L325.79,302.75L326.1,303.99L326.15,304L326.92,302.99L327.02,303.94L327.09,304L327.71,301.61L327.84,304L327.87,304L328.04,302.75L328.57,303.96L328.63,303.94L328.85,304L328.85,304L328.86,300.01L328.86,304L328.97,299.41L329.49,303.81L329.68,304L330.4,301.5L330.4,303.9L330.48,304L330.69,301.11L331.18,303.91L331.24,303.89L331.5,303.31L332.16,304L332.16,304L332.17,303.42L332.17,304L332.2,303.24L332.92,304L332.95,304L333.45,302.37L333.63,303.94L333.73,304L333.95,302.34L334.48,304L334.52,303.91L334.56,304L334.67,300.1L335.24,304L335.28,303.93L335.32,304L335.98,302.74L335.99,304L335.99,298.32L335.99,304L336.74,304L336.75,303.7L336.75,304L337.29,302.8L337.45,304L337.53,304L338.17,303.28L338.31,303.99L338.33,304L339.12,304L339.12,303.92L339.14,303.24L339.14,304L339.29,302.78L339.88,303.98L339.9,303.97L340.09,303.7L340.13,303.83L340.17,301.99L340.17,304L340.62,297.44L340.88,304L340.96,304L341.43,303.39L341.61,303.94L341.77,303.81L341.92,303.25L342.41,304L342.41,302.64L342.51,304L342.86,295.23L343.13,304L343.23,304L343.65,301.71L343.82,303.54L344,303.71L344,304L344.21,302.87L344.74,304L344.77,303.94L344.84,304L345.05,302.59L345.09,293.26L345.75,304L345.84,303.11L345.92,304L346.61,297.02L346.67,303.9L346.7,303.96L347.4,304L347.4,303.99L347.44,287.62L348.21,304L348.21,304L348.24,303.55L348.28,304L348.41,302.93L348.73,303.82L348.74,288.85L348.74,304L349.46,304L349.51,303.53L349.51,304L350.26,301.95L350.29,303.96L350.4,304L350.76,301.68L351,304L351.06,303.89L351.35,303.56L351.94,304L352.14,303.69L352.14,304L352.61,301.55L352.86,304L352.95,304L352.98,303.75L352.98,303.94L352.98,296.35L353.67,304L353.69,303.37L353.74,303.93L354.25,303.22L354.29,304L354.59,302.79L355.04,304L355.05,303.96L355.12,304L355.22,301.35L355.24,303.98L355.86,303.17L355.88,304L355.9,301.2L355.9,304L355.92,292.04L356.62,303.86L356.66,304L357.31,303.13L357.38,304L357.42,304L357.91,301.88L358.16,303.94L358.27,304L359.01,304L359.05,302.92L359.67,300.15L359.82,304L359.82,303.99L360.41,304L360.41,302.78L360.54,300.15L361.22,304L361.23,303.87L361.28,303.93L361.43,304L361.73,303.26L362.02,303.98L362.07,304L362.34,302.99L362.35,301.85L362.35,304L362.91,297.18L363.05,303.6L363.18,304L363.87,295.87L363.9,304L363.94,303.78L364.54,303.36L364.68,304L364.88,303.89L364.99,304L364.99,303.37L365.54,303.98L365.54,294.48L365.54,304L366.27,303.62L366.3,304L366.65,302.73L367.01,302.79L367.16,304L367.77,301.66L367.81,304L367.92,304L368.6,302.52L368.67,304L368.68,304L369.4,302.66L369.4,304L369.49,304L369.52,302.92L370.25,303.6L370.27,304L370.43,303.8L370.43,304L370.43,301.36L370.43,304L370.43,301.27L371.17,304L371.2,303.93L371.26,304L371.93,303.33L371.94,303.98L371.95,303.99L372.33,304L372.33,303.77L372.33,302.6L372.47,301.73L373.07,304L373.12,303.89L373.17,304L373.58,300.47L373.84,304L373.92,303.87L374.15,303.29L374.15,304L374.15,302.63L374.86,304L374.92,303.97L374.95,295.9L374.96,304L375.63,303.92L375.69,303.88L375.79,304L375.97,302.89L376.17,303.57L376.19,304L376.45,302.73L376.93,304L377,303.95L377.27,304L377.27,303.5L377.28,303.15L377.72,302.12L378,304L378.04,303.82L378.04,304L378.1,277.14L378.72,303.99L378.81,304L379.43,298.97L379.57,303.78L379.58,304L379.93,301.98L380.01,304L380.18,304L380.74,302.44L380.88,304L380.95,303.08L380.95,304L381.19,296.53L381.66,303.91L381.73,303.93L382.09,303.94L382.09,302.61L382.92,304L382.92,303.98L382.94,302.96L382.94,304L383.47,302L383.69,302.75L383.72,303.96L383.88,304L383.9,303.54L383.9,300.25L383.9,304L384.65,300.11L384.65,304L384.66,303.88L384.87,303.19L385.26,304L385.26,303.97L385.28,299.38L385.28,304L385.41,299.17L385.98,303.92L386.07,303.65L386.31,300.37L386.76,304L386.76,304L386.87,304L387.12,302.7L387.6,304L387.64,303.94L388.02,304L388.02,303.22L388.02,304L388.12,265.53L388.75,303.89L388.79,303.99L388.82,304L389.53,303.24L389.54,303.95L389.55,303.6L389.55,304L390.26,301.59L390.29,304L390.36,303.68L390.36,304L391.01,300.86L391.1,304L391.18,304L391.85,303.31L391.98,303.98L391.99,304L392.59,301.54L392.69,303.99L392.76,304L393.47,302.4L393.51,304L393.53,304L394.05,302.62L394.09,304L394.09,295.62L394.94,304L394.94,304L394.99,304L395.05,303.42L395.71,304L395.73,304L396.44,301.54L396.44,304L396.5,304L397.28,303.78L397.28,300.27L397.29,304L398.03,303.95L398.04,304L398.46,298.3L398.79,303.99L398.8,304L399.25,303.62L399.55,304L399.59,304L400.24,301.78L400.25,304L400.27,304L400.28,300.12L401.02,303.94L401.03,304L401.73,302.15L401.78,303.98L401.82,304L402,303.02L402.32,304L402.39,304L402.87,303.54L403.14,303.89L403.17,304L403.33,303.58L403.36,304L403.36,300.29L403.42,304L404.09,304L404.2,304L404.29,299L404.56,303.99L404.59,304L405.18,302.78L405.3,304L405.38,303.89L405.85,304L405.85,303.49L405.86,303.22L405.86,304L405.89,302.19L406.6,304L406.64,303.86L407.65,303.87L407.66,304L408.28,298.66L408.37,303.96L408.38,304L408.63,299.54L409.1,304L409.15,303.77L409.79,303.26L409.96,304L410.01,303.9L410.12,304L410.63,297.9L410.64,304L410.67,288.83L410.68,304L411.38,304L411.44,303.93L411.52,304L411.92,302.41L412.13,304L412.17,303.94L412.17,302.57L412.2,304L412.92,304L412.94,304L413.39,301.52L413.69,303.98L413.79,304L414.06,302.43L414.35,304L414.45,304L415.57,304L415.57,302.37L415.74,302.17L416.3,304L416.38,304L417.14,301.94L417.14,304L417.44,297.66L417.89,304L417.91,303.91L417.99,304L417.99,298.91L418.65,304L418.67,303.76L418.7,304L419.22,301.85L419.4,303.98L419.45,304L419.54,300.82L420,304L420.11,304L420.17,292.1L420.83,303.44L420.89,303.92L420.89,304L421.35,289.13L421.61,304L421.69,304L422.2,303.21L422.45,303.91L422.46,303.99L422.92,302.11L423.17,303.92L423.31,303.97L423.43,303L423.43,304L424.04,304L424.09,304L424.34,301.53L424.78,304L424.79,304L425.12,301.81L425.44,303.93L425.47,304L425.52,303.82L425.54,304L425.54,301.14L425.54,304L426.29,303.92L426.31,304L427.06,304L427.07,302.77L427.08,304L427.8,303.96L427.86,304L428.76,304L428.76,302.68L428.76,304L429.21,299.57L429.49,303.99L429.54,304L429.8,302.87L430.14,303.6L430.14,304L430.65,302.82L430.93,303.8L430.93,303.88L431.31,303.24L431.63,304L431.67,303.51L431.67,304L431.98,302.09L432.42,303.56L432.48,304L433.06,300.03L433.23,304L433.24,304L433.54,303.43L433.66,304L433.68,302.47L433.68,304L434.1,301.97L434.34,303.96L434.44,304L434.51,303.13L434.55,303.16L434.59,301.38L434.59,304L435.31,303.64L435.36,303.45L435.36,304L435.59,298.65L436.11,304L436.13,303.99L436.17,304L436.61,302.39L436.86,303.67L436.9,303.96L436.92,304L437.31,302.63L437.56,304L437.65,304L438.12,300.38L438.39,303.98L438.41,304L438.41,299.45L439.16,303.89L439.17,303.42L439.2,304L439.66,302.6L439.82,304L439.94,304L440.22,302.68L440.65,303.93L440.68,303.96L440.71,304L441.14,296.61L441.42,304L441.45,304L441.95,304L441.95,302.92L441.99,304L442.66,303.97L442.73,303.67L442.73,304L443.19,303.36L443.44,304L443.49,303.95L443.56,304L443.96,301.09L443.96,303.95L443.99,303.97L444.17,304L444.17,303.89L444.2,302.54L444.2,304L444.84,299.26L444.95,303.93L444.96,303.99L445.75,303.5L445.76,303.89L445.77,304L446.34,303.9L446.39,301.05L446.39,304L447.14,302.93L447.17,303.95L447.24,304L447.45,302.84L447.69,303.72L447.69,299.25L447.69,304L448.41,303.87L448.48,303.16L448.48,304L449.01,301.81L449.22,304L449.24,303.96L449.41,302.49L449.52,303.84L449.57,304L449.84,303.83L449.84,304L449.86,298.21L449.89,304L450.6,302.79L450.62,303.48L451.13,303.35L451.44,304L451.44,303.84L451.77,302.93L452,304L452.01,303.64L452.01,302.24L452.01,304L452.75,304L452.78,303.93L452.9,303.81L452.9,299.67L452.9,304L453.65,304L453.69,304L453.95,302.37L453.95,304L454.24,303.71L454.29,304L454.32,299.42L454.35,299.18L454.38,304L455.06,304L455.08,303.96L455.12,304L455.33,302.68L455.88,303.52L455.88,303.75L456.48,302.56L456.61,304L456.66,304L456.82,303.62L456.86,304L456.86,301.86L457.58,304L457.61,303.91L457.75,303.19L458.45,304L458.45,304L458.52,303.86L458.59,304L459.08,293.41L459.27,303.1L459.27,304L459.47,302.64L460.01,303.86L460.06,303.74L460.09,304L460.18,301.67L460.81,303.81L460.86,304L460.86,300.27L461.6,304L461.66,304L461.66,302.59L462.35,303.99L462.42,303.97L462.6,302.46L462.63,304L462.67,304L463.39,302.73L463.48,302.39L464.2,304L464.2,303.96L464.3,303.85L464.76,302.46L464.77,304L464.85,301.94L464.86,304L465.26,296.63L465.45,303.95L465.56,304L465.75,295.93L466.31,303.94L466.32,304L467.04,303.01L467.08,303.91L467.2,304L467.76,302.04L467.96,303.86L467.97,304L468.63,304L468.63,302.88L468.8,301.87L469.38,304L469.38,304L469.42,304L469.95,303L470.22,303.48L470.24,304L470.6,303.88L470.65,298.17L470.65,304L471.4,303.99L471.42,304L471.54,303.08L471.58,304L471.58,300.8L471.71,304L472.21,259.42L472.32,303.97L472.37,303.93L472.64,304L472.64,303.04L473.32,304L473.32,302.41L473.37,302.26L474.11,304L474.11,303.54L474.15,304L474.87,303.07L474.9,304L474.93,304L475.09,301.47L475.28,303.54L475.34,299.75L475.34,304L475.45,297.06L476.09,303.2L476.13,304L476.91,299.49L476.91,304L476.91,298.58L477.65,303.97L477.68,303.97L477.75,304L477.81,303.38L478.46,303.59L478.46,303.93L478.58,303.4L478.59,294.49L478.59,304L478.68,243.88L479.32,303.09L479.37,303.94L479.46,304L479.56,302.8L480.08,304L480.17,303.77L480.65,302.22L480.89,304L480.92,303.92L481.01,303.9L481.06,304L481.75,303.57L481.75,303.97L481.82,304L482.28,297.55L482.57,304L482.6,303.8L482.6,304L482.77,303.41L483.29,303.87L483.37,303.83L483.37,304L483.91,303.16L484.12,304L484.16,304L484.46,295.95L484.9,304L484.92,303.41L485.2,302.56L485.64,304L485.64,303.33L485.67,303.29L485.71,304L486.19,302.85L486.41,304L486.44,304L486.89,303.15L487.24,303.81L487.27,304L487.76,302.19L487.79,304L487.79,299.05L487.79,304L487.95,289.79L488.54,303.89L488.57,303.96L488.91,303.59L488.91,304L488.94,303.12L488.94,304L489.68,304L489.75,302.92L489.75,304L490.07,301.5L490.5,303.78L490.51,304L490.57,302.3L491.24,303.97L491.3,304L491.56,302.71L491.81,303.85L491.89,304L492.21,296.57L492.62,303.86L492.69,303.68L492.69,301.99L492.71,304L493.44,303.71L493.45,303.98L494.08,303.41L494.2,304L494.28,303.97L494.45,304L494.45,303.64L494.47,302.27L494.47,304L494.86,299.83L495.2,303.98L495.34,303.83L495.91,303.37L495.94,304L495.94,302.69L496.29,300.35L496.67,304L496.71,303.62L496.71,302.91L496.71,304L497,299.36L497.45,304L497.49,304L497.96,303.26L498.18,304L498.24,303.99L498.27,304L498.98,290.66L498.99,302.67L499,304L499,302.33L499.72,303.91L499.76,303.81L499.76,304L500.43,300.99L500.49,304L500.57,303.74L500.92,302.72L501.36,304L501.36,303.83L501.36,304L501.74,301.44L502.1,304L502.16,303.77L502.85,303L502.91,304L502.92,303.39L503.24,302.39L503.67,304L503.67,303.98L503.73,304L504.33,302.6L504.48,304L504.5,304L504.97,298.46L505.25,302.63L505.26,303.99L505.62,303.14L505.69,304L505.69,210.88L506.45,304L506.45,304L506.49,303.93L506.95,303.37L507.11,303.81L507.12,304L507.73,302.71L507.87,303.88L507.88,304L508.39,302.66L508.62,303.96L508.66,304L508.94,300.26L509.34,303.92L509.46,304L509.86,302.58L510.21,304L510.25,304L510.89,303.61L511,303.86" style="vector-effect: non-scaling-stroke; fill: none; stroke: rgb(99, 110, 250); stroke-opacity: 1; stroke-width: 2px; opacity: 1;"/></g><g class="points"/><g class="text"/></g></g></g><g class="overplot"/><path class="xlines-above crisp" d="M0,0" style="fill: none;"/><path class="ylines-above crisp" d="M0,0" style="fill: none;"/><g class="overlines-above"/><g class="xaxislayer-above"><g class="xtick"><text text-anchor="middle" x="0" y="436" transform="translate(198.18,0)" style="font-family: 'Times New Roman'; font-size: 15px; fill: rgb(13, 13, 13); fill-opacity: 1; white-space: pre; opacity: 1;">1.61252×10​<tspan style="font-size:70%" dy="-0.6em">18</tspan><tspan dy="0.42em">​</tspan></text></g><g class="xtick"><text text-anchor="middle" x="0" y="436" style="font-family: 'Times New Roman'; font-size: 15px; fill: rgb(13, 13, 13); fill-opacity: 1; white-space: pre; opacity: 1;" transform="translate(299.58000000000004,0)">1.612525×10​<tspan style="font-size:70%" dy="-0.6em">18</tspan><tspan dy="0.42em">​</tspan></text></g><g class="xtick"><text text-anchor="middle" x="0" y="436" style="font-family: 'Times New Roman'; font-size: 15px; fill: rgb(13, 13, 13); fill-opacity: 1; white-space: pre; opacity: 1;" transform="translate(400.99,0)">1.61253×10​<tspan style="font-size:70%" dy="-0.6em">18</tspan><tspan dy="0.42em">​</tspan></text></g><g class="xtick"><text text-anchor="middle" x="0" y="436" style="font-family: 'Times New Roman'; font-size: 15px; fill: rgb(13, 13, 13); fill-opacity: 1; white-space: pre; opacity: 1;" transform="translate(502.39,0)">1.612535×10​<tspan style="font-size:70%" dy="-0.6em">18</tspan><tspan dy="0.42em">​</tspan></text></g><g class="xtick"><text text-anchor="middle" x="0" y="436" style="font-family: 'Times New Roman'; font-size: 15px; fill: rgb(13, 13, 13); fill-opacity: 1; white-space: pre; opacity: 1;" transform="translate(603.79,0)">1.61254×10​<tspan style="font-size:70%" dy="-0.6em">18</tspan><tspan dy="0.42em">​</tspan></text></g></g><g class="yaxislayer-above"><g class="ytick"><text text-anchor="end" x="108" y="12.25" transform="translate(0,404)" style="font-family: 'Times New Roman'; font-size: 35px; fill: rgb(13, 13, 13); fill-opacity: 1; white-space: pre; opacity: 1;">0</text></g><g class="ytick"><text text-anchor="end" x="108" y="12.25" style="font-family: 'Times New Roman'; font-size: 35px; fill: rgb(13, 13, 13); fill-opacity: 1; white-space: pre; opacity: 1;" transform="translate(0,354.56)">2k</text></g><g class="ytick"><text text-anchor="end" x="108" y="12.25" style="font-family: 'Times New Roman'; font-size: 35px; fill: rgb(13, 13, 13); fill-opacity: 1; white-space: pre; opacity: 1;" transform="translate(0,305.13)">4k</text></g><g class="ytick"><text text-anchor="end" x="108" y="12.25" style="font-family: 'Times New Roman'; font-size: 35px; fill: rgb(13, 13, 13); fill-opacity: 1; white-space: pre; opacity: 1;" transform="translate(0,255.69)">6k</text></g><g class="ytick"><text text-anchor="end" x="108" y="12.25" style="font-family: 'Times New Roman'; font-size: 35px; fill: rgb(13, 13, 13); fill-opacity: 1; white-space: pre; opacity: 1;" transform="translate(0,206.26)">8k</text></g><g class="ytick"><text text-anchor="end" x="108" y="12.25" style="font-family: 'Times New Roman'; font-size: 35px; fill: rgb(13, 13, 13); fill-opacity: 1; white-space: pre; opacity: 1;" transform="translate(0,156.82)">10k</text></g><g class="ytick"><text text-anchor="end" x="108" y="12.25" style="font-family: 'Times New Roman'; font-size: 35px; fill: rgb(13, 13, 13); fill-opacity: 1; white-space: pre; opacity: 1;" transform="translate(0,107.39)">12k</text></g></g><g class="overaxes-above"/></g></g><g class="polarlayer"/><g class="smithlayer"/><g class="ternarylayer"/><g class="geolayer"/><g class="funnelarealayer"/><g class="pielayer"/><g class="iciclelayer"/><g class="treemaplayer"/><g class="sunburstlayer"/><g class="glimages"/><defs id="topdefs-b27451"><g class="clips"/></defs><g class="layer-above"><g class="imagelayer"/><g class="shapelayer"/></g><g class="infolayer"><g class="g-gtitle"/><g class="g-xtitle"><text class="xtitle" x="364.5" y="463.8" text-anchor="middle" style="font-family: 'Open Sans', verdana, arial, sans-serif; font-size: 14px; fill: rgb(42, 63, 95); opacity: 1; font-weight: normal; white-space: pre;">Time Steps (ns)</text></g><g class="g-ytitle" transform="translate(23.5,0)"><text class="ytitle" transform="rotate(-90,12.5,260)" x="12.5" y="260" text-anchor="middle" style="font-family: 'Times New Roman'; font-size: 40px; fill: rgb(13, 13, 13); opacity: 1; font-weight: normal; white-space: pre;">Speed (in sec.)</text></g></g></svg>