<svg class="main-svg" xmlns="http://www.w3.org/2000/svg" xmlns:xlink="http://www.w3.org/1999/xlink" width="700" height="500" style="" viewBox="0 0 700 500"><rect x="0" y="0" width="700" height="500" style="fill: rgb(255, 255, 255); fill-opacity: 1;"/><defs id="defs-e92dd7"><g class="clips"><clipPath id="clipe92dd7xyplot" class="plotclip"><rect width="529" height="320"/></clipPath><clipPath class="axesclip" id="clipe92dd7x"><rect x="91" y="0" width="529" height="500"/></clipPath><clipPath class="axesclip" id="clipe92dd7y"><rect x="0" y="100" width="700" height="320"/></clipPath><clipPath class="axesclip" id="clipe92dd7xy"><rect x="91" y="100" width="529" height="320"/></clipPath></g><g class="gradients"/><g class="patterns"/></defs><g class="bglayer"><rect class="bg" x="91" y="100" width="529" height="320" style="fill: rgb(229, 236, 246); fill-opacity: 1; stroke-width: 0;"/></g><g class="layer-below"><g class="imagelayer"/><g class="shapelayer"/></g><g class="cartesianlayer"><g class="subplot xy"><g class="layer-subplot"><g class="shapelayer"/><g class="imagelayer"/></g><g class="minor-gridlayer"><g class="x"/><g class="y"/></g><g class="gridlayer"><g class="x"><path class="xgrid crisp" transform="translate(183.32999999999998,0)" d="M0,100v320" style="stroke: rgb(255, 255, 255); stroke-opacity: 1; stroke-width: 1px;"/><path class="xgrid crisp" transform="translate(288.3,0)" d="M0,100v320" style="stroke: rgb(255, 255, 255); stroke-opacity: 1; stroke-width: 1px;"/><path class="xgrid crisp" transform="translate(393.27,0)" d="M0,100v320" style="stroke: rgb(255, 255, 255); stroke-opacity: 1; stroke-width: 1px;"/><path class="xgrid crisp" transform="translate(498.25,0)" d="M0,100v320" style="stroke: rgb(255, 255, 255); stroke-opacity: 1; stroke-width: 1px;"/><path class="xgrid crisp" transform="translate(603.22,0)" d="M0,100v320" style="stroke: rgb(255, 255, 255); stroke-opacity: 1; stroke-width: 1px;"/></g><g class="y"><path class="ygrid crisp" transform="translate(0,342.51)" d="M91,0h529" style="stroke: rgb(255, 255, 255); stroke-opacity: 1; stroke-width: 1px;"/><path class="ygrid crisp" transform="translate(0,281.02)" d="M91,0h529" style="stroke: rgb(255, 255, 255); stroke-opacity: 1; stroke-width: 1px;"/><path class="ygrid crisp" transform="translate(0,219.53)" d="M91,0h529" style="stroke: rgb(255, 255, 255); stroke-opacity: 1; stroke-width: 1px;"/><path class="ygrid crisp" transform="translate(0,158.05)" d="M91,0h529" style="stroke: rgb(255, 255, 255); stroke-opacity: 1; stroke-width: 1px;"/></g></g><g class="zerolinelayer"><path class="yzl zl crisp" transform="translate(0,404)" d="M91,0h529" style="stroke: rgb(255, 255, 255); stroke-opacity: 1; stroke-width: 2px;"/></g><path class="xlines-below"/><path class="ylines-below"/><g class="overlines-below"/><g class="xaxislayer-below"/><g class="yaxislayer-below"/><g class="overaxes-below"/><g class="plot" transform="translate(91,100)" clip-path="url(#clipe92dd7xyplot)"><g class="scatterlayer mlayer"><g class="trace scatter tracefcaead" style="stroke-miterlimit: 2; opacity: 1;"><g class="fills"/><g class="errorbars"/><g class="lines"><path class="js-line" d="M0,304L0.6,303.2L0.84,303.93L0.91,304L1.54,303.42L1.82,303.57L1.82,304L2.2,302.19L2.36,304L2.45,304L2.93,302.95L3.14,303.91L3.23,304L3.78,299.54L3.9,304L4,303.7L4,304L4.21,298.14L4.75,303.99L4.78,304L5.01,302.82L5.39,304L5.42,304L5.91,303.57L5.91,304L5.93,303.08L6.73,304L6.73,303.99L6.77,304L6.92,303.42L6.92,304L6.92,302.7L7.01,304L7.66,302.16L7.73,304L8.01,297.36L8.37,304L8.4,304L8.78,303.3L8.95,303.7L8.96,302.82L8.96,301.63L9,304L9.7,304L9.72,304L10.28,302.44L10.43,304L10.69,304L11.37,298.49L11.41,303.93L11.55,304L11.93,303.23L12.23,304L12.24,299.57L12.24,304L12.91,291.57L12.96,303.95L13,304L13.73,303.37L13.79,304L13.84,304L14.2,301.45L14.54,303.59L14.62,304L14.92,301.92L15.38,303.81L15.42,304L15.5,302.81L15.53,303.76L15.53,300.98L16.24,304L16.29,303.61L16.29,299.92L16.29,304L17,304L17.09,304L17.18,301.66L17.78,304L17.93,302.89L17.93,304L18.49,299.64L18.57,303.93L18.79,304L18.87,302L19.36,303.84L19.42,304L19.42,303.27L20.14,303.78L20.18,303.93L20.31,303.98L20.66,302.69L20.74,303.93L20.81,303.94L21.04,302.98L21.08,304L21.13,304L21.14,300.76L21.87,303.83L21.9,302.7L21.9,301.02L21.9,304L22.64,303.74L22.68,303.15L23.18,302.67L23.29,304L23.42,303.87L23.54,303.82L23.54,304L23.76,302.08L24.24,304L24.36,304L25.08,303.01L25.09,304L25.18,304L25.24,303.78L25.24,304L25.26,300.79L25.26,304L25.66,300L25.99,304L26.02,304L26.21,303.01L26.68,303.82L26.68,304L26.87,303.24L26.88,296.34L26.9,296.01L27.59,304L27.63,303.95L27.66,303.54L27.91,304L27.91,304L27.91,302.39L28,302.32L28.54,304L28.62,303.02L28.67,301.47L28.67,304L29.41,304L29.44,304L29.59,301.71L30.05,304L30.32,303.54L30.32,304L30.71,300.59L31.04,304L31.13,304L31.31,301.87L31.86,304L31.89,304L31.89,302.31L32.55,303.3L32.67,303.99L32.69,303.08L32.75,304L33.41,303.99L33.47,303.8L33.48,304L33.89,301.93L34.14,303.88L34.24,304L34.72,303.21L34.98,304L35.01,303.95L35.02,304L35.73,296.66L35.73,304L35.8,304L36.33,304L36.33,302.61L36.45,301.95L37.04,304L37.11,303.32L37.11,304L37.46,302.13L37.74,303.77L37.91,303.93L38.06,304L38.52,300L38.64,304L38.67,303.99L38.69,302.9L38.69,304L39.43,303.19L39.43,304L39.48,296.86L40.18,303.96L40.26,302.49L40.26,298.29L40.26,304L41.01,304L41.07,304L41.67,302.93L41.83,303.96L41.93,304L42.41,302.69L42.44,303.94L42.44,304L42.75,303.62L42.75,304L42.8,302.41L42.8,304L43.49,303.96L43.56,303.89L43.56,302.7L43.73,304L44.29,304L44.32,303.88L44.55,303.4L44.67,304L44.67,302.81L45.13,297.9L45.33,304L45.33,303.9L45.38,297.56L45.38,304L46.07,303.69L46.14,303.55L46.14,304L46.46,302.76L46.89,304L47,303.67L47,304L47.69,300.3L47.75,303.91L47.78,304L47.88,303.7L47.89,303.93L47.98,301.28L48.6,304L48.71,303.85L48.79,304L49.43,302.78L49.52,303.69L49.6,304L49.75,303.34L49.86,304L49.86,301.96L50.61,304L50.65,303.86L51.17,304L51.17,303.04L51.86,301.2L51.89,304L51.89,297.43L52.61,304L52.62,303.96L52.74,304L53.04,302.45L53.37,304L53.42,304L53.42,302.83L54.17,303.19L54.24,303.13L54.24,304L54.31,293.72L54.99,304L55,304L55.37,303.02L55.69,303.78L55.78,304L55.86,301.95L56.43,304L56.47,304L56.74,303.49L56.81,301.92L57.46,301.73L57.56,304L57.59,304L57.65,303.57L57.82,303.82L57.84,299.04L57.84,304L58.55,304L58.6,303.89L58.66,294.67L58.66,304L59.3,304L59.37,303.9L59.4,304L59.96,299.09L60.1,304L60.13,303.91L60.65,304L60.65,302.91L60.65,304L60.69,295.1L61.4,304L61.43,304L61.65,303.05L61.72,304L61.72,301.31L62.43,304L62.48,303.65L62.48,304L63.19,298.84L63.22,304L63.25,303.98L63.36,304L63.68,303.42L63.94,303.92L64.05,304L64.4,303.1L64.58,303.77L64.58,304L64.74,304L64.74,303.18L65.02,301.03L65.48,304L65.48,303.85L65.54,304L66.14,304L66.14,303.96L66.16,303.12L66.16,304L66.77,301.42L66.91,303.37L66.92,301.16L67.55,297.28L67.66,304L67.74,303.67L67.74,304L68.47,302.19L68.47,303.43L68.56,303.82L69.03,302.88L69.32,303.99L69.39,304L69.54,303.67L69.54,304L69.55,300.15L69.59,304L70.27,304L70.37,304L70.85,301.53L71.11,304L71.14,304L71.27,303.19L71.45,303.57L71.47,301.53L71.49,304L71.51,301.14L72.2,304L72.23,304L72.35,300.8L72.37,304L72.37,292.85L73.16,304L73.22,304L73.65,299.73L73.87,303.97L73.96,303.86L74.07,304L74.48,302.87L74.56,304L74.56,301.19L75.31,304L75.32,303.93L75.34,303.88L75.45,303.76L75.46,304L75.46,302.03L76.21,304L76.21,303.84L76.25,303.41L76.51,301.17L77.02,304L77.04,303.8L77.09,304L77.78,301.95L77.82,304L78.03,304L78.48,302.94L78.68,303.47L78.68,300.08L78.68,304L79.21,298.64L79.39,304L79.44,303.75L79.44,304L79.72,303.31L80.19,304L80.22,304L80.84,302.57L80.97,304L81.01,303.95L81.96,303.25L81.96,302.95L81.98,304L82.05,298.17L82.65,303.96L82.73,304L83.38,298.33L83.46,303.89L83.49,304L84,302.77L84.03,304L84.1,304L84.19,302.02L84.86,302.83L84.9,303.95L85.14,303.57L85.19,304L85.2,302.61L85.38,300.6L86.01,304L86.01,303.92L86.07,304L86.11,301.29L86.26,304L86.29,290.75L86.29,304L87.02,303.92L87.05,303.85L87.51,302.88L87.72,304L87.72,304L87.75,302.26L87.75,304L88.5,304L88.51,304L88.88,303.83L88.88,303.83L88.88,300.29L88.88,304L89.41,299.4L89.62,303.66L89.72,303.84L89.96,302.73L90.19,304L90.19,300.8L90.21,298.38L90.21,304L90.94,303.89L90.96,303.98L91.36,304L91.36,304L91.42,300.54L91.42,300.26L91.47,304L92.12,303.91L92.18,304L92.39,302.72L92.9,303.66L92.9,304L93,303.12L93.03,304L93.03,297.33L93.81,304L93.83,303.91L93.87,304L94.53,302.97L94.62,303.03L94.65,303.93L94.7,304L94.88,300.97L95.39,303.75L95.41,303.84L95.41,304L96.1,302.7L96.15,304L96.21,304L96.88,302.87L96.88,304L96.88,295.05L97.08,294.99L97.64,304L97.64,303.72L97.64,304L98.19,301.23L98.33,303.43L98.41,303.89L98.5,304L98.74,301.88L98.89,304L98.94,304L99.37,298.02L99.43,304L99.64,303.98L99.68,302.77L99.68,304L100.37,298.14L100.39,304L100.46,304L100.9,301L101.15,304L101.2,304L101.61,297.58L101.9,304L101.98,303.92L102.07,304L102.67,302.08L102.72,303.94L102.76,303.82L102.82,304L103.36,303L103.48,303.83L103.55,304L103.59,301.79L104.24,303.98L104.3,303.91L104.34,304L105.02,302.16L105.07,303.97L105.34,303.18L105.38,303.27L105.43,300.87L105.43,304L105.66,300.36L106.18,303.93L106.19,302.67L106.19,304L106.22,296.18L106.91,303.98L106.97,304L107.42,301.89L107.72,303.99L107.73,303.78L107.73,304L108.14,300.44L108.46,303.81L108.54,304L108.62,302.83L108.85,303.93L108.85,304L109.36,304L109.36,303.22L109.63,302.52L109.76,304L109.76,303.83L109.93,298.5L110.59,304L110.67,302.08L110.7,303.96L110.92,304L111.08,299.22L111.44,303.97L111.47,304L111.47,299.58L112.17,304L112.24,304L112.59,302.26L112.99,304L113,303.71L113.23,301.25L113.63,304L113.63,303.98L113.65,300.67L114.41,304L114.42,303.76L114.42,304L115.17,302.51L115.22,304L115.84,301.43L115.94,303.79L116,303.86L116.11,304L116.14,302.93L116.14,300.92L116.89,304L116.92,303.82L116.97,303.57L117.27,300.76L117.38,304L117.42,300.68L117.42,304L117.82,299.95L118.17,304L118.18,304L118.29,301.77L118.88,303.92L118.94,303.72L118.94,304L119.63,303.03L119.64,304L119.72,303.84L119.77,304L119.88,302.23L120.45,304L120.48,303.96L120.53,304L120.81,300.7L121.21,303L121.23,304L121.29,302.12L121.98,304L122.08,304L122.29,303.23L122.81,303.8L122.82,304L123.02,303.54L123.17,304L123.2,300.57L123.2,274.58L123.2,304L123.93,304L123.98,304L124.73,301.57L124.8,303.74L124.82,304L124.91,301.19L125.49,304L125.62,304L125.96,302.45L126.35,303.99L126.39,303.96L126.57,304L127.03,303.01L127.09,303.97L127.15,304L127.67,302.37L127.81,304L127.92,304L128.05,303.47L128.22,304L128.25,295.32L128.99,304L129.01,302.21L129.07,303.92L129.22,303.45L129.73,304L129.74,303.25L130.22,297.81L130.35,304L130.41,297.83L130.44,297.61L131.09,304L131.09,303.95L131.2,303.83L131.26,302.5L131.92,304L131.92,302.68L131.92,298.68L131.94,304L132.67,303.97L132.7,303.99L133.55,303.71L133.55,304L133.58,304L134.33,299.48L134.33,304L134.44,303.26L134.46,304L135.12,299.51L135.19,304L135.25,303.9L135.36,304L136.07,303.28L136.07,304L136.15,302.54L136.72,304L136.79,304L137.31,301.96L137.55,304L137.59,304L138.25,300.86L138.28,302.98L138.38,303.94L138.47,304L139.08,302.76L139.16,303.99L139.2,304L139.62,303.22L140.01,303.9L140.01,304L140.25,303.26L140.33,302.5L140.33,304L141.01,302.24L141.08,304L141.11,303.8L141.15,304L141.67,299.89L141.85,304L141.88,303.74L142.04,301.73L142.61,304L142.61,303.99L142.61,303.12L142.61,304L143.2,298.13L143.34,303.95L143.42,304L144.02,301.86L144.07,304L144.09,304L144.31,303.56L144.36,304L144.41,302.94L144.41,304L145.1,302.54L145.14,303.19L145.27,303.97L145.35,304L145.67,301.83L145.91,304L146.02,304L146.02,300.33L146.73,303.93L146.78,303.99L147.34,301.32L147.54,303.93L147.54,304L147.81,304L147.81,303.88L147.81,303.2L147.81,304L148.03,298.38L148.56,303.89L148.65,304L149.01,302.25L149.39,304L149.44,303.98L149.5,304L149.88,302.39L150.2,303.74L150.2,304L150.86,295.66L150.9,303.9L150.96,303.91L151.03,258.5L151.03,304L151.7,304L151.75,303.86L151.83,303.64L152.06,304L152.06,302.8L152.14,302.69L152.86,304L152.86,303.42L153.24,299.66L153.62,304L153.64,303.91L153.74,302.88L153.88,304L153.88,301.6L153.89,301.88L153.94,189.09L154.66,304L154.69,303.94L154.72,304L154.78,302.11L155.42,303.99L155.51,303.73L155.77,302.96L156.17,304L156.2,303.93L156.39,303.72L156.39,304L156.5,302.09L157.12,304L157.19,304L157.61,300.34L157.91,303.82L157.97,303.92L158.07,302.19L158.12,304L158.71,304L158.72,304L159.28,303.36L159.53,304L159.56,304L160.21,298.02L160.28,303.92L160.37,303.95L160.39,304L160.81,300.41L161.11,303.45L161.12,304L161.83,298.79L161.87,304L162.03,304L162.03,304L162.07,302.28L162.15,304L162.79,302.92L162.92,304L163.27,300.25L163.66,303.92L163.69,303.99L164.09,303.09L164.19,303.9L164.23,304L164.45,302.57L164.58,303.23L164.6,304L165,298.85L165.34,304L165.38,304L165.64,299.83L166.09,304L166.14,303.88L166.14,302.94L166.14,304L166.86,304L166.91,304L167.57,300.73L167.66,303.97L167.67,304L167.91,303.04L168.42,304L168.43,304L168.73,302.21L169.1,304L169.2,304L169.76,293.71L169.93,304L169.98,303.55L170.04,302.63L170.72,304L170.77,303.99L170.96,301.77L170.96,304L171.57,294.66L171.71,304L171.75,304L172.28,303.39L172.5,304L172.51,304L172.62,301.27L173.17,303.63L173.18,303.79L173.61,302.67L173.62,304L173.72,303.91L173.74,299.16L173.76,304L173.76,299.12L174.47,304L174.52,303.98L175.17,302.75L175.25,304L175.29,304L175.61,300L176.03,304L176.07,304L176.28,301.23L176.84,303.39L176.89,304L176.94,301.79L176.99,304L176.99,123.57L177.74,304L177.74,303.51L177.77,304L178.13,303.19L178.28,303.87L178.28,301.84L179.06,304L179.06,303.53L179.29,303.32L179.66,304L179.8,303.97L179.85,304L180.21,299.12L180.21,304L180.98,303.53L181.02,303.94L181.02,304L181.73,301.29L181.75,304L181.8,304L182.03,299.53L182.55,304L182.63,303.83L182.63,304L183.23,301.59L183.38,303.98L183.39,303.99L183.64,304L183.64,303.22L183.66,304L184,301.37L184.34,304L184.4,304L184.79,299.03L185.09,304L185.16,304L185.63,303.01L185.7,303.97L185.71,302.4L186.46,304L186.52,303.96L187.06,303.74L187.1,304L187.1,302.99L187.77,299.32L187.86,304L187.86,303.94L187.89,304L188.31,303.32L188.61,304L188.66,304L188.81,302.98L189.38,303.87L189.42,304L189.57,303.25L190.07,303.83L190.07,304L190.13,302.43L190.8,304L190.83,304L191.26,298.2L191.51,303.86L191.65,303.73L192.01,293.64L192.36,304L192.4,303.96L192.43,303.79L192.83,303.37L193.13,304L193.13,303.99L193.21,303.85L193.61,301.68L193.93,304L193.95,303.97L193.99,303.95L194.04,304L194.53,302.31L194.7,303.91L194.74,304L195.51,302.57L195.55,304L195.63,300.13L196.28,303.29L196.31,304L196.46,302.79L196.5,298.14L196.5,304L197.25,303.9L197.28,303.17L197.45,302.98L198.04,304L198.04,303.34L198.36,302.53L198.78,304L198.87,304L199.4,299.25L199.6,300.07L199.68,303.91L199.69,302.96L199.74,304L200.42,303.56L200.44,303.53L200.77,304L200.91,301.9L200.95,293.85L201.7,304L201.7,304L201.75,303.29L201.75,304L202.12,300.77L202.44,303.99L202.51,304L202.84,302.99L203.25,304L203.34,304L203.71,303.01L204.11,303.78L204.18,304L204.8,296.83L204.93,303.89L204.97,303.69L205.38,300.68L205.73,304L205.73,303.68L206.3,303.33L206.44,304L206.45,303.77L206.49,303.62L206.55,302.15L206.57,304L206.62,303.39L206.7,16L206.7,304L207.39,304L207.6,300.06L207.61,304L207.67,261.9L208.31,303.93L208.38,304L209.04,303.72L209.04,304L209.05,302.06L209.05,304L209.06,301.9L209.8,304L209.85,302.44L210.48,304L210.59,303.73L210.72,304L210.92,301.88L211.21,304L211.26,304L211.97,303.24L212.03,304L212.06,304L212.36,301.93L212.8,304L212.86,303.91L212.92,304L213.43,302.34L213.6,304L213.62,303.52L213.62,304L214.25,302.14L214.32,303.77L214.39,304L214.79,302.43L215.14,303.94L215.16,301.59L215.16,304L215.51,301.14L215.87,304L215.92,304L216.14,300.64L216.66,304L216.68,304L217.28,302.77L217.4,303.51L217.45,304L217.71,301.38L218.17,304L218.23,303.66L218.76,302.88L218.97,304L219,303.96L219.04,304L219.08,301.81L219.67,303.93L219.68,304L219.84,302.89L220.43,304L220.49,304L220.84,302.63L220.84,302.86L220.86,235.77L220.86,304L221.28,234.49L221.61,304L221.64,304L221.72,303.23L222.38,303.64L222.43,304L222.92,226.93L223.18,304L223.2,302.37L224.03,304L224.09,304L224.28,302.72L224.63,304L224.71,304L225.06,303.96L225.06,304L225.07,303.23L225.08,304L225.36,302.21L225.8,303.96L225.81,304L226.26,302.13L226.52,304L226.6,304L226.77,299L227.33,304L227.39,304L227.63,302.25L228.14,304L228.15,304L228.21,301.9L228.35,304L228.45,296.44L228.45,304L228.67,292.84L229.15,303.98L229.24,303.93L229.26,298.94L229.29,304L229.95,303.35L230.03,304L230.64,299.58L230.76,303.86L230.79,304L230.86,301.45L231.26,304L231.27,304L231.84,302.92L232.02,304L232.11,304L232.17,299.35L232.7,301.47L232.7,304L232.71,299.11L233.44,304L233.47,303.56L233.5,298.9L233.6,304L233.61,289.94L233.61,304L234.31,304L234.38,304L235.01,297.89L235.1,304L235.17,304L235.31,301.73L235.42,304L235.44,298.78L235.44,304L236.15,303.96L236.22,304L236.6,301.45L236.82,303.9L236.87,303.95L237.02,303.98L237.02,303.86L237.02,301.75L237.02,304L237.77,303.82L237.78,304L238.27,303.1L238.51,303.72L238.55,304L238.64,303.29L238.9,304L238.9,301.67L239.51,304L239.56,303.87L239.69,304L240.38,300.94L240.38,298.67L241.09,304L241.23,303.74L241.23,304L241.67,302.57L241.94,303.98L242.03,303.87L242.06,304L242.17,300.37L242.64,304L242.69,304L243.25,301.02L243.41,304L243.45,304L244.09,290.38L244.19,303.94L244.23,304L244.66,302.12L244.98,304L245.01,304L245.31,300.27L245.49,303.81L245.52,304L246.08,303.9L246.08,304L246.1,303.06L246.2,302.89L246.75,304L246.86,303.99L246.94,303.84L246.94,304L247.07,301.38L247.66,304L247.7,304L248.35,302.82L248.39,304L248.46,304L249.2,302.37L249.28,304L249.67,301L250.03,303.82L250.04,304L250.63,303.19L250.7,302.5L250.7,304L250.83,302.26L251.4,304L251.49,303.68L251.49,304L251.59,298.38L252.23,303.98L252.27,303.94L252.32,303.53L252.33,304L252.39,294.43L253.08,304L253.24,304L253.42,302.93L253.95,304L254.01,304L254.68,301.3L254.74,303.69L254.77,304L254.8,302.91L255.49,304L255.54,303.92L256.02,304L256.02,303.92L256.03,303.32L256.08,302.24L256.8,304L256.8,303.97L256.89,304L257.33,301L257.63,303.96L257.69,303.92L258.01,303.18L258.01,299.97L258.01,304L258.66,304L258.84,304L259.07,300.96L259.57,304L259.61,303.45L259.61,304L259.83,303L260.29,303.9L260.37,304L260.42,303.71L260.43,304L260.43,301.38L261.17,304L261.21,303.97L261.24,304L261.24,301.85L261.97,303.31L262.01,303.98L262.63,301.93L262.64,304L262.64,300.4L263.39,303.39L263.4,303.99L263.83,303.37L264.13,303.84L264.2,303.91L264.42,304L264.47,303.5L264.51,303.19L264.51,304L264.52,300.82L265.25,303.76L265.27,302.88L265.27,304L265.92,302.22L266,303.89L266.03,304L266.32,303L266.36,304L266.39,297.95L266.39,304L266.39,295.6L267.09,302.16L267.18,303.02L267.2,304L267.4,301.33L267.87,303.92L267.94,304L267.97,302.76L268.68,304L268.74,303.95L268.86,304L269.46,299.58L269.46,304L269.49,304L269.89,301.7L270.08,303.96L270.12,304L270.58,303.28L270.69,304L270.69,302.66L271.37,304L271.37,304L271.46,303.87L271.53,304L271.6,302.47L271.61,304L271.67,301.35L272.46,304L272.55,303.93L272.59,304L272.84,301.12L273.01,302.96L273.01,304L273.57,302.93L273.63,303.82L273.66,304L274.03,303.18L274.2,304L274.27,304L274.66,302.41L274.99,303.98L275.01,298.36L275.01,304L275.23,295.98L275.76,303.73L275.88,303.85L275.89,304L276.44,299.57L276.6,304L276.65,304L276.88,302.09L276.98,303.89L277.14,304L277.35,303.27L277.66,304L277.69,304L277.81,297.52L278.23,303.89L278.3,303.9L278.35,304L278.65,301.56L279.04,304L279.13,304L279.77,302.37L279.88,303.82L279.9,304L280.16,301.66L280.64,303.97L280.67,303.66L281.02,304L281.03,303.84L281.07,297.9L281.07,304L281.73,304L281.83,301.79L281.83,304L282.57,293.63L282.58,304L282.62,300.67L282.63,304L283.36,303.95L283.39,304L283.53,302.95L284.11,304L284.17,303.61L284.17,304L284.63,228.76L284.92,304L284.95,303.8L285.3,303.08L285.48,304L285.48,301.19L285.5,304L285.77,220.78L286.21,304L286.24,303.65L286.62,302.04L286.95,304L287.06,304L287.78,295.36L287.91,303.82L287.91,304L288.55,302.32L288.65,304L288.68,304L289.19,300.58L289.43,304L289.51,304L289.58,299.26L290.26,304L290.27,303.82L290.3,304L290.3,302.49L291,304L291.04,303.32L291.04,304L291.12,299.42L291.78,303.96L291.8,303.7L291.87,304L291.98,297.8L292.55,303.93L292.59,304L292.65,301.17L293.23,303.16L293.31,303.82L293.31,304L293.55,301.92L294.06,303.98L294.08,303.94L294.13,304L294.16,302.27L294.67,304L294.69,304L294.86,301.13L295.39,303.63L295.45,303.81L295.45,304L295.5,302.17L296.2,304L296.22,304L296.47,303.4L296.49,304L296.58,302.39L296.63,304L297.28,302.31L297.31,302.35L297.4,303.87L297.54,303.47L297.9,304L297.93,302.6L298.02,302.2L298.02,304L298.03,275.23L298.03,304L298.77,304L298.87,304L299.37,303.49L299.62,303.98L299.64,303.98L299.82,304L299.89,302.22L299.89,304L300.08,300.42L300.55,303.99L300.68,303.46L301.01,302.3L301.43,304L301.51,303.88L301.59,304L301.6,301.1L302.24,303.82L302.27,303.96L302.37,303.74L302.37,304L302.43,301.86L302.45,304L302.65,301.68L303.18,303.41L303.19,304L303.88,295.45L303.89,303.98L303.95,303.91L303.96,304L304.18,295.78L304.38,303.95L304.41,303.86L304.84,303.09L305.09,304L305.09,302.58L305.85,304L305.85,304L305.9,304L306.42,299.93L306.6,303.91L306.66,303.91L307.15,304L307.15,304L307.15,301.04L307.86,304L307.88,303.98L307.99,303.97L308.01,304L308.08,303.21L308.72,303.87L308.82,303.93L308.82,304L309.45,299.66L309.55,303.8L309.58,304L309.65,303.47L309.88,303.73L309.89,297.06L310.65,304L310.68,303.98L310.71,304L310.76,293.33L311.44,304L311.57,304L311.73,300.77L312.17,303.99L312.26,304L312.94,302.23L312.94,304L313.44,300.47L313.68,303.76L313.69,304L313.81,302.62L314.42,303.24L314.5,304L314.62,301.4L315.25,304L315.27,303.38L315.57,302.15L315.99,304L316.01,302.3L316.06,304L316.1,300.69L316.73,303.97L316.79,303.59L316.79,304L317.48,301.99L317.48,304L317.56,299.89L317.56,304L318.28,303.89L318.32,303.94L318.38,304L318.79,302.23L319.06,304L319.07,303.98L319.15,304L319.7,303.37L319.78,304L319.86,304L320,302.65L320.5,303.43L320.6,304L320.64,301.57L320.93,304L321.04,304L321.57,299.44L321.76,304L321.91,303.99L321.94,298.74L322.09,304L322.62,304L322.67,304L322.96,303.27L323.4,304L323.5,304L324.21,301.65L324.23,303.82L324.28,303.9L324.44,303.61L324.56,304L324.6,300.1L324.6,304L325.3,303.56L325.36,304L325.55,301.87L325.57,304L325.57,302.37L326.32,303.75L326.34,303.54L326.34,304L327.05,300.74L327.08,302.76L327.12,304L327.16,288.33L327.83,303.98L327.89,303.56L328.02,302.06L328.63,304L328.67,304L329.34,301.41L329.42,304L329.46,304L329.57,303.39L329.62,304L329.64,291.94L330.27,304L330.3,303.59L330.42,303.43L330.42,304L330.83,302.17L331.16,304L331.19,304L331.86,300.41L331.92,304L332,304L332.04,299.95L332.72,303.99L332.78,304L333.25,303.06L333.47,304L333.47,302.23L333.49,301.7L334.23,304L334.28,304L334.51,303.4L334.54,304L334.56,298.42L334.65,304L335.3,304L335.35,304L336.14,302.04L336.14,303.1L336.15,304L336.19,300.48L336.89,303.98L336.93,304L337.43,296.16L337.68,304L337.69,304L338.33,301.75L338.35,304L338.52,304L338.83,299.67L339.25,303.98L339.38,302.87L339.38,304L340.12,302.66L340.15,304L340.73,301.78L340.78,304L340.8,303.99L340.84,304L341.45,302.12L341.55,304L341.6,303.77L341.78,301.36L341.91,304L341.91,301.29L341.91,304L342.66,299.96L342.66,304L342.71,303.92L342.8,304L343.36,302.93L343.43,303.97L343.52,304L343.71,302.82L343.76,303.95L343.83,303.97L344.31,303.48L344.62,303.96L344.71,304L344.85,303.27L345.47,303.73L345.47,304L345.61,299.88L345.84,304L345.86,304L346.09,303.97L346.09,304L346.09,301.76L346.09,304L346.84,303.96L346.88,304L347.24,302.24L347.61,304L347.68,303.34L347.69,304L347.89,293.39L348.33,304L348.42,304L348.68,303.17L349.16,303.74L349.18,303.6L349.18,304L349.29,302.83L349.92,304L349.95,302.22L349.95,304L350.24,301.97L350.7,304L350.71,304L350.79,303.79L350.79,303.86L350.81,300.27L351.71,304L351.71,303.91L351.76,304L351.82,302.87L352.44,303.81L352.47,303.95L352.56,304L352.93,302.33L353.22,303.55L353.22,304L353.78,300.87L353.99,303.53L354.01,303.97L354.04,304L354.34,301.86L354.73,303.71L354.76,304L355.11,300.93L355.51,303.27L355.51,304L355.6,301L356.16,303.85L356.22,304L356.72,302.52L356.75,304L356.75,296.98L357.5,304L357.51,303.74L357.54,304L357.58,299.61L358.19,303.88L358.23,304L358.74,301.26L358.93,304L359.02,304L359.39,301.28L359.76,304L359.78,303.91L359.83,304L360.04,300.3L360.27,304L360.27,295.59L360.28,304L360.33,294.95L360.96,304L361.04,304L361.72,303.09L361.85,303.33L361.85,304L362.52,296.67L362.55,304L362.61,303.7L363.13,303.27L363.41,304L363.45,303.89L363.61,303.33L363.82,304L363.82,302.58L363.83,304L364.51,302.49L364.56,304L364.61,303.91L364.62,304L364.92,300.52L365.36,303.93L365.39,304L365.63,302.91L366.14,304L366.2,302.8L366.2,304L366.78,297.3L366.94,304L366.96,304L367.32,303.36L367.48,303.76L367.48,302.24L367.78,298.78L368.13,304L368.17,299.89L368.25,303.94L368.29,304L368.96,301.86L368.98,303.95L369,304L369.61,302.74L369.69,304L369.75,304L369.81,302.29L370.5,304L370.51,303.78L370.66,304L370.66,301.59L371.07,299.03L371.4,304L371.4,298.36L372.15,304L372.15,301.24L372.19,304L372.19,301.21L372.9,303.95L372.95,303.92L372.97,299.92L372.97,304L373.69,304L373.72,304L373.86,301.09L373.86,303.19L373.89,265.76L374.62,304L374.68,303.95L374.68,303.8L374.7,304L374.72,299.52L375.39,304L375.48,304L375.54,301.7L376.13,303.7L376.18,304L376.33,303.96L376.33,304L376.35,303.16L376.35,304L376.5,301.56L377.07,304L377.23,303.88L377.7,304L377.72,303.13L378.48,304L378.48,303.96L378.49,304L379.21,300.68L379.23,303.97L379.24,304L379.78,302.49L380.04,303.82L380.04,304L380.17,300.83L380.79,304L380.84,304L380.89,303.04L381.53,303.84L381.53,304L381.99,283.83L382.26,304L382.3,303.9L382.35,304L382.71,303.67L382.8,303.93L382.82,299.81L382.82,304L383.57,304L383.61,304L383.82,298.18L383.85,293.82L384.63,304L384.63,303.83L384.63,304L385.21,299.59L385.34,304L385.41,304L385.51,303.57L385.51,304L385.51,299.22L385.51,304L386.15,295.38L386.24,304L386.27,304L386.77,302.83L386.92,303.98L386.93,303.99L386.95,304L387.09,300.85L387.64,304L387.7,303.94L387.81,304L388.35,293.46L388.45,304L388.49,304L388.91,303.91L388.92,302.7L388.96,304L388.96,300.73L389.64,303.98L389.7,304L390.14,295.86L390.41,304L390.45,304L390.74,301.8L390.93,304L390.93,297.48L391,297.36L391.66,304L391.71,303.73L392.22,301.01L392.41,304L392.44,303.98L392.57,304L392.62,300.59L392.64,304L392.66,238.21L392.76,304L393.4,303.87L393.53,304L394.04,300.69L394.27,303.83L394.32,303.93L394.38,302.02L394.47,304L395.06,303.91L395.07,304L395.25,302.86L395.28,300.67L395.28,304L395.92,299.39L396.03,304L396.06,304L396.73,301.77L396.81,303.86L396.85,303.89L396.87,304L397.48,300.42L397.57,303.99L397.63,304L398.17,297.99L398.38,304L398.42,304L399.01,301.99L399.14,303.9L399.18,303.94L399.66,304L399.66,303.73L399.67,302.86L399.7,304L400.05,302.22L400.42,304L400.49,302.92L400.51,304L401.18,300.48L401.2,304L401.26,303.94L401.3,299.88L401.35,304L401.98,304L402.05,303.71L402.07,287.9L402.1,304L402.79,304L402.86,303.5L402.86,304L403.09,302.91L403.59,304L403.66,304L404.07,302.99L404.41,303.92L404.42,304L404.66,304L404.66,303.23L405.11,301.03L405.43,304L405.44,303.05L405.84,299.82L406.15,304L406.15,299.63L406.83,304L406.96,304L407.23,294.13L407.69,304L407.74,303.98L408.18,302.48L408.37,303.91L408.41,304L409.01,302.32L409.09,303.97L409.23,303.98L409.24,304L409.92,299.45L409.98,303.76L409.99,303.99L410,299.02L410,304L410.74,299.06L410.74,304L410.81,303.72L410.95,304L410.97,299.87L410.97,304L411.01,299.82L411.69,303.98L411.79,302.58L411.81,302.12L411.81,304L412.46,303.97L412.48,303.99L412.53,304L412.69,301.63L413.23,304L413.26,303.96L413.81,304L413.86,303.06L414.01,298.18L414.57,304L414.57,304L414.63,304L414.73,289.57L415.09,303.79L415.12,303.95L415.51,303.88L415.54,304L415.55,303.06L416.14,301.53L416.28,304L416.31,303.96L416.36,304L416.83,302.71L417.11,304L417.17,304L417.85,300.11L417.86,304L417.94,304L418.4,298.68L418.69,303.51L418.72,304L419.24,303.38L419.5,304L419.57,304L420.25,301.22L420.31,304L420.33,304L420.81,299.06L421.11,302.64L421.11,304L421.19,302.31L421.81,304L421.87,304L422.33,302.77L422.66,303.76L422.68,303.97L423.11,304L423.11,304L423.21,302.93L423.89,302.64L423.97,304L424.01,303.87L424.16,304L424.78,301.4L424.91,304L424.93,303.92L424.96,304L424.99,300.2L425.68,302.33L425.68,304L425.94,302.66L426.23,304L426.23,296.2L426.29,304L426.97,304L426.99,304L427.15,301.22L427.66,304L427.75,304L427.77,301.01L428.44,303.94L428.51,304L428.85,300.34L429.24,304L429.27,304L429.95,302.85L430.03,303.75L430.06,304L430.35,303.63L430.39,304L430.39,302.51L431.12,304L431.12,303.84L431.16,304L431.5,301.78L431.87,303.75L431.88,303.99L432.24,304L432.24,302.66L432.92,301.64L432.98,304L433.05,303.23L433.05,304L433.05,301.34L433.78,303.48L433.81,303.96L433.82,304L434.32,296.13L434.52,303.2L434.57,303.7L434.57,304L434.76,300.92L435.3,303.19L435.34,304L435.42,303.83L435.42,299.94L436.18,304L436.26,304L437,301.97L437.03,304L437.12,304L437.69,300.88L437.69,304L437.71,304L437.77,301.52L438.28,303.37L438.37,304L438.52,303.82L438.55,299.63L439.3,304L439.34,304L440.06,302.72L440.13,303.88L440.13,304L440.56,301.96L440.93,302.98L440.93,303.91L441.1,304L441.58,290.67L441.58,304L441.59,300.49L442.32,304L442.4,304L442.62,301.55L442.76,303.96L442.82,303.99L442.96,303.63L443.02,264.88L443.02,304L443.77,304L443.81,304L444.07,301.26L444.26,303.91L444.39,304L444.43,300.57L444.81,304L444.91,303.81L445.41,302.37L445.6,304L445.63,302.94L445.63,304L446.05,301.38L446.36,303.93L446.42,304L446.74,298.86L447.17,303.87L447.18,303.99L447.56,303.35L447.56,301.36L448.33,304L448.33,303.54L448.36,303.13L448.83,301.29L449.07,304L449.1,303.89L449.23,303.55L449.6,302.77L449.96,304L449.96,303.84L449.98,302.75L449.98,304L450.3,295.2L450.69,304L450.74,304L450.91,303.49L450.92,303.89L450.92,302.38L450.96,304L451.59,298.27L451.65,303.58L451.7,304L452.14,303.23L452.35,303.92L452.47,303.93L452.5,304L453.1,301.18L453.21,304L453.23,303.95L453.33,304L453.75,303.16L453.97,303.82L454,303.95L454.01,304L454.05,302.69L454.72,303.32L454.86,304L455.58,301.64L455.61,304L455.63,303.92L455.85,304L455.85,303.34L455.85,301.64L455.85,304L456.56,303.98L456.63,303.85L457.1,303.43L457.16,304L457.2,298.59L457.21,304L457.92,304L458.03,303.96L458.03,303.11L458.03,304L458.76,303.99L458.79,304L459.3,301.92L459.54,303.81L459.55,304L459.75,303.51L459.96,303.78L460,300.92L460,304L460.26,299.07L460.74,304L460.77,304L460.88,303.16L460.92,304L460.92,295L460.92,304L461.57,293.28L461.67,303.99L461.68,304L461.99,302.84L462.03,304L462.03,302.26L462.03,304L462.78,304L462.87,303.91L462.96,304L463.5,302.07L463.61,303.87L463.61,229.56L463.63,304L464.33,304L464.37,303.66L464.41,304L464.8,301.79L465.12,303.27L465.19,304L465.27,299.3L465.5,303.01L465.5,304L465.57,303.78L465.73,304L465.8,299.12L465.87,304L465.9,296.23L466.53,304L466.56,303.73L466.61,304L467.28,300.08L467.31,303.98L467.34,304L468.03,303L468.18,303.77L468.18,304L468.75,301.44L468.92,304L468.98,304L469.23,302.72L469.47,304L469.47,299.34L469.55,299.12L470.24,304L470.27,303.94L470.41,304L470.82,302.48L470.82,304L470.87,296.02L470.87,304L471.33,288.2L471.57,304L471.65,304L472.2,304L472.2,303.78L472.23,302.69L472.23,304L472.72,301.92L472.98,304L473,304L473.71,302.19L473.73,303.89L473.76,304L474.13,303.96L474.16,302.31L474.16,304L474.86,304L474.92,302.48L474.92,304L475.13,298.34L475.67,303.8L475.68,304L476.01,302.99L476.36,303.88L476.44,304L476.69,301.88L476.72,298.2L477.46,304L477.49,302.35L477.53,303.94L477.71,302.69L477.91,304L477.97,303.97L478.11,304L478.13,299.15L478.5,304L478.55,304L479.34,299.62L479.34,304L479.73,303.35L479.73,302.45L479.75,304L480.44,303.99L480.5,303.78L480.5,304L480.58,296.83L481.25,304L481.31,304L481.52,304L481.52,303.03L481.53,304L481.75,298.88L482.26,304L482.28,302.84L482.71,301.87L482.96,304L482.96,303.91L483.12,303.89L483.85,304L483.85,303.39L483.85,299.83L483.85,304L484.6,304L484.66,303.74L484.66,304L485.29,297.97L485.41,303.96L485.44,303.95L485.46,304L486.05,302.15L486.17,303.84L486.23,304L486.53,299.63L486.98,303.99L487.01,304L487.43,299.76L487.75,304L487.78,303.97L488.26,303.3L488.28,299.63L488.28,304L488.51,299.42L489.03,304L489.04,304L489.4,303.01L489.81,303.88L489.81,304L490.14,303.41L490.56,304L490.58,304L491.22,301.1L491.31,303.98L491.39,304L491.57,303.59L491.65,303.89L491.65,302.03L491.67,304L491.7,297.86L492.36,303.91L492.43,304L492.96,301.58L493.18,303.91L493.21,303.96L493.27,304L493.27,302.31L493.82,303.26L493.83,304L493.88,301.45L494.58,304L494.6,303.62L494.6,304L494.82,303.12L495.3,303.31L495.39,304L495.47,302.27L495.57,303.93L495.57,304L496.32,302.78L496.36,303.93L496.41,304L496.74,301.86L496.96,304L497.01,304L497.31,302.97L497.53,304L497.53,299.6L498.25,304L498.29,303.91L498.43,303.8L498.76,303.49L499.24,304L499.24,303.95L499.31,304L499.74,304L499.74,301.68L500.09,301.12L500.44,304L500.53,304L500.84,293.76L501.24,304L501.3,304L501.62,301.4L501.83,303.9L501.87,303.95L501.94,304L502.54,299.79L502.59,303.99L502.63,304L503.1,303.26L503.28,304L503.41,304L504.14,296.15L504.18,303.96L504.85,302.82L504.86,302.1L504.9,301.92L505.64,304L505.67,304L505.95,301.61L506.38,303.97L506.43,304L506.6,302L507.18,303.91L507.21,304L507.92,302.99L507.97,304L508.06,304L508.15,302.19L508.75,303.95L508.84,303.89L509.09,303.31L509.43,303.95L509.43,303.73L509.44,301.67L509.44,304L510.18,299.75L510.19,304L510.2,303.99L510.77,304L510.77,304L510.77,303.03L511.22,298.2L511.48,304L511.48,304L511.58,304L512.16,298.55L512.27,304L512.31,304L513.02,302.24L513.07,303.97L513.09,304L513.15,302.05L513.86,302.64L513.91,302.36L513.91,304L514.6,303.36L514.67,303.9L515.12,303.22L515.29,303.7L515.29,304L515.92,299.56L516.03,302.24L516.21,304L516.75,299.32L516.95,303.94L517,304L517.28,302.78L517.72,303.97L517.76,303.95L517.97,302.22L518.17,304L518.2,304L518.38,303.2L518.91,303.96L519,304L519.49,299.65L519.51,304L519.57,304L519.7,302.76L520.32,304L520.33,303.95L520.39,301.76L520.43,304L521.06,304L521.08,303.93L521.19,304L521.36,303.62L521.36,301.38L521.36,304L522.09,302.76L522.14,304L522.41,301.96L522.87,303.94L522.92,303.92L522.96,304L523.16,303.46L523.19,304L523.25,297.12L523.25,304L523.93,304L524.02,304L524.26,294.42L524.52,303.6L524.54,303.93L524.7,304L524.99,300.75L525.25,304L525.29,304L525.35,302.82L525.96,304L526.08,303.82L526.08,304L526.32,297.41L526.83,304L526.85,304L526.98,301.77L527.15,303.8L527.15,304L527.85,303.22L527.86,304L527.91,304L527.96,302.73L528.62,304L528.71,303.87L528.74,302.89L528.75,304L529,303.88" style="vector-effect: non-scaling-stroke; fill: none; stroke: rgb(99, 110, 250); stroke-opacity: 1; stroke-width: 2px; opacity: 1;"/></g><g class="points"/><g class="text"/></g></g></g><g class="overplot"/><path class="xlines-above crisp" d="M0,0" style="fill: none;"/><path class="ylines-above crisp" d="M0,0" style="fill: none;"/><g class="overlines-above"/><g class="xaxislayer-above"><g class="xtick"><text text-anchor="middle" x="0" y="436" transform="translate(183.32999999999998,0)" style="font-family: 'Times New Roman'; font-size: 15px; fill: rgb(13, 13, 13); fill-opacity: 1; white-space: pre; opacity: 1;">1.61252×10​<tspan style="font-size:70%" dy="-0.6em">18</tspan><tspan dy="0.42em">​</tspan></text></g><g class="xtick"><text text-anchor="middle" x="0" y="436" style="font-family: 'Times New Roman'; font-size: 15px; fill: rgb(13, 13, 13); fill-opacity: 1; white-space: pre; opacity: 1;" transform="translate(288.3,0)">1.612525×10​<tspan style="font-size:70%" dy="-0.6em">18</tspan><tspan dy="0.42em">​</tspan></text></g><g class="xtick"><text text-anchor="middle" x="0" y="436" style="font-family: 'Times New Roman'; font-size: 15px; fill: rgb(13, 13, 13); fill-opacity: 1; white-space: pre; opacity: 1;" transform="translate(393.27,0)">1.61253×10​<tspan style="font-size:70%" dy="-0.6em">18</tspan><tspan dy="0.42em">​</tspan></text></g><g class="xtick"><text text-anchor="middle" x="0" y="436" style="font-family: 'Times New Roman'; font-size: 15px; fill: rgb(13, 13, 13); fill-opacity: 1; white-space: pre; opacity: 1;" transform="translate(498.25,0)">1.612535×10​<tspan style="font-size:70%" dy="-0.6em">18</tspan><tspan dy="0.42em">​</tspan></text></g><g class="xtick"><text text-anchor="middle" x="0" y="436" style="font-family: 'Times New Roman'; font-size: 15px; fill: rgb(13, 13, 13); fill-opacity: 1; white-space: pre; opacity: 1;" transform="translate(603.22,0)">1.61254×10​<tspan style="font-size:70%" dy="-0.6em">18</tspan><tspan dy="0.42em">​</tspan></text></g></g><g class="yaxislayer-above"><g class="ytick"><text text-anchor="end" x="90" y="12.25" transform="translate(0,404)" style="font-family: 'Times New Roman'; font-size: 35px; fill: rgb(13, 13, 13); fill-opacity: 1; white-space: pre; opacity: 1;">0</text></g><g class="ytick"><text text-anchor="end" x="90" y="12.25" style="font-family: 'Times New Roman'; font-size: 35px; fill: rgb(13, 13, 13); fill-opacity: 1; white-space: pre; opacity: 1;" transform="translate(0,342.51)">2k</text></g><g class="ytick"><text text-anchor="end" x="90" y="12.25" style="font-family: 'Times New Roman'; font-size: 35px; fill: rgb(13, 13, 13); fill-opacity: 1; white-space: pre; opacity: 1;" transform="translate(0,281.02)">4k</text></g><g class="ytick"><text text-anchor="end" x="90" y="12.25" style="font-family: 'Times New Roman'; font-size: 35px; fill: rgb(13, 13, 13); fill-opacity: 1; white-space: pre; opacity: 1;" transform="translate(0,219.53)">6k</text></g><g class="ytick"><text text-anchor="end" x="90" y="12.25" style="font-family: 'Times New Roman'; font-size: 35px; fill: rgb(13, 13, 13); fill-opacity: 1; white-space: pre; opacity: 1;" transform="translate(0,158.05)">8k</text></g></g><g class="overaxes-above"/></g></g><g class="polarlayer"/><g class="smithlayer"/><g class="ternarylayer"/><g class="geolayer"/><g class="funnelarealayer"/><g class="pielayer"/><g class="iciclelayer"/><g class="treemaplayer"/><g class="sunburstlayer"/><g class="glimages"/><defs id="topdefs-e92dd7"><g class="clips"/></defs><g class="layer-above"><g class="imagelayer"/><g class="shapelayer"/></g><g class="infolayer"><g class="g-gtitle"/><g class="g-xtitle"><text class="xtitle" x="355.5" y="463.8" text-anchor="middle" style="font-family: 'Open Sans', verdana, arial, sans-serif; font-size: 14px; fill: rgb(42, 63, 95); opacity: 1; font-weight: normal; white-space: pre;">Time Steps (ns)</text></g><g class="g-ytitle" transform="translate(24,0)"><text class="ytitle" transform="rotate(-90,12,260)" x="12" y="260" text-anchor="middle" style="font-family: 'Times New Roman'; font-size: 40px; fill: rgb(13, 13, 13); opacity: 1; font-weight: normal; white-space: pre;">Speed (in sec.)</text></g></g></svg>