<svg class="main-svg" xmlns="http://www.w3.org/2000/svg" xmlns:xlink="http://www.w3.org/1999/xlink" width="700" height="500" style="" viewBox="0 0 700 500"><rect x="0" y="0" width="700" height="500" style="fill: rgb(255, 255, 255); fill-opacity: 1;"/><defs id="defs-f7fde1"><g class="clips"><clipPath id="clipf7fde1xyplot" class="plotclip"><rect width="511" height="320"/></clipPath><clipPath class="axesclip" id="clipf7fde1x"><rect x="109" y="0" width="511" height="500"/></clipPath><clipPath class="axesclip" id="clipf7fde1y"><rect x="0" y="100" width="700" height="320"/></clipPath><clipPath class="axesclip" id="clipf7fde1xy"><rect x="109" y="100" width="511" height="320"/></clipPath></g><g class="gradients"/><g class="patterns"/></defs><g class="bglayer"><rect class="bg" x="109" y="100" width="511" height="320" style="fill: rgb(229, 236, 246); fill-opacity: 1; stroke-width: 0;"/></g><g class="layer-below"><g class="imagelayer"/><g class="shapelayer"/></g><g class="cartesianlayer"><g class="subplot xy"><g class="layer-subplot"><g class="shapelayer"/><g class="imagelayer"/></g><g class="minor-gridlayer"><g class="x"/><g class="y"/></g><g class="gridlayer"><g class="x"><path class="xgrid crisp" transform="translate(198.01,0)" d="M0,100v320" style="stroke: rgb(255, 255, 255); stroke-opacity: 1; stroke-width: 1px;"/><path class="xgrid crisp" transform="translate(299.45,0)" d="M0,100v320" style="stroke: rgb(255, 255, 255); stroke-opacity: 1; stroke-width: 1px;"/><path class="xgrid crisp" transform="translate(400.89,0)" d="M0,100v320" style="stroke: rgb(255, 255, 255); stroke-opacity: 1; stroke-width: 1px;"/><path class="xgrid crisp" transform="translate(502.33,0)" d="M0,100v320" style="stroke: rgb(255, 255, 255); stroke-opacity: 1; stroke-width: 1px;"/><path class="xgrid crisp" transform="translate(603.77,0)" d="M0,100v320" style="stroke: rgb(255, 255, 255); stroke-opacity: 1; stroke-width: 1px;"/></g><g class="y"><path class="ygrid crisp" transform="translate(0,355.95)" d="M109,0h511" style="stroke: rgb(255, 255, 255); stroke-opacity: 1; stroke-width: 1px;"/><path class="ygrid crisp" transform="translate(0,307.9)" d="M109,0h511" style="stroke: rgb(255, 255, 255); stroke-opacity: 1; stroke-width: 1px;"/><path class="ygrid crisp" transform="translate(0,259.86)" d="M109,0h511" style="stroke: rgb(255, 255, 255); stroke-opacity: 1; stroke-width: 1px;"/><path class="ygrid crisp" transform="translate(0,211.81)" d="M109,0h511" style="stroke: rgb(255, 255, 255); stroke-opacity: 1; stroke-width: 1px;"/><path class="ygrid crisp" transform="translate(0,163.76)" d="M109,0h511" style="stroke: rgb(255, 255, 255); stroke-opacity: 1; stroke-width: 1px;"/><path class="ygrid crisp" transform="translate(0,115.71000000000001)" d="M109,0h511" style="stroke: rgb(255, 255, 255); stroke-opacity: 1; stroke-width: 1px;"/></g></g><g class="zerolinelayer"><path class="yzl zl crisp" transform="translate(0,404)" d="M109,0h511" style="stroke: rgb(255, 255, 255); stroke-opacity: 1; stroke-width: 2px;"/></g><path class="xlines-below"/><path class="ylines-below"/><g class="overlines-below"/><g class="xaxislayer-below"/><g class="yaxislayer-below"/><g class="overaxes-below"/><g class="plot" transform="translate(109,100)" clip-path="url(#clipf7fde1xyplot)"><g class="scatterlayer mlayer"><g class="trace scatter tracec5ca5b" style="stroke-miterlimit: 2; opacity: 1;"><g class="fills"/><g class="errorbars"/><g class="lines"><path class="js-line" d="M0,304L0.55,303.66L0.55,304L0.81,303.53L0.81,304L1.55,304L1.61,304L1.9,302.28L2.34,303.86L2.38,303.82L2.38,304L2.86,301.25L3.09,304L3.19,304L3.79,304L3.79,303.14L4.37,302.77L4.57,304L4.6,303.05L4.6,304L5.31,298.78L5.33,303.98L5.44,304L5.72,303.29L6.19,303.64L6.24,304L6.5,302.94L6.99,304L7,303.95L7.08,304L7.77,302.59L7.8,303.97L7.83,303.97L8.47,304L8.47,301.33L8.93,294.54L9.26,304L9.27,304L9.31,300.88L10.02,302.96L10.1,303.91L10.11,304L10.81,301.13L10.87,303.05L10.92,304L11.33,291.57L11.65,303.97L11.69,304L12.47,302.61L12.5,303.93L12.52,304L13.58,303.91L13.58,304L13.61,302.86L13.64,304L13.79,299.99L14.35,303.24L14.44,304L14.59,302.83L14.88,303.67L14.91,303.97L15.94,303.08L16,303.85L16,304L16.1,302.12L16.61,304L16.65,303.97L16.7,302.15L16.7,304L17.39,304L17.4,304L17.71,300.12L18.12,303.56L18.18,304L18.4,299.18L18.41,303.95L18.44,304L18.89,303.06L18.92,303.96L18.92,304L19.01,301.16L19.67,304L19.68,303.9L19.85,304L20.38,302.81L20.38,304L21.06,293.42L21.06,304L21.1,304L21.41,303.75L21.41,303.96L21.41,302.17L22.17,304L22.29,304L22.4,300.99L22.94,304L23.07,304L23.68,302.58L23.81,303.93L23.85,303.95L23.93,302.43L23.94,304L24.3,303.71L24.36,304L24.86,302.43L24.86,302.34L24.86,304L25.32,299.9L25.61,304L25.63,304L26.37,303.43L26.37,303.76L26.39,304L27.34,304L27.34,302.59L28.12,304L28.14,304L28.14,300.02L28.82,303.98L28.9,304L29.44,300.63L29.61,304L29.73,304L29.85,301.83L29.85,301.08L29.85,304L29.88,299.41L30.56,303.64L30.61,303.86L30.77,304L31.14,302.83L31.24,303.96L31.41,304L32.15,303.07L32.16,304L32.17,303.15L32.91,304L32.91,303.5L32.92,303.09L32.92,304L33.21,302.78L33.63,303.37L33.72,304L33.85,303.57L33.9,304L33.91,300.59L33.91,304L34.61,303.97L34.68,304L35.43,297.84L35.43,303.96L35.55,304L35.88,303.3L36.28,303.91L36.31,303.97L36.44,303.41L37.01,303.95L37.01,304L37.32,301.4L37.38,303.94L37.43,304L38.03,303.69L38.19,303.83L38.22,304L38.35,303.88L38.38,304L38.44,298.3L38.44,304L39.19,303.66L39.2,303.97L39.27,304L39.53,298.31L39.93,304L39.95,304L40.76,303.23L40.88,303.94L40.88,304L40.9,302.08L41.6,304L41.65,304L41.8,303.69L41.86,304L41.86,303.15L41.86,304L41.99,300.31L42.58,303.94L42.69,303.92L42.75,304L42.83,301.92L43.3,303.93L43.31,304L43.38,303.81L43.44,304L43.44,302.08L43.44,304L44.19,303.49L44.2,304L44.46,297.16L44.91,304L44.96,303.97L45.2,303.22L45.2,304L45.39,301.69L45.6,302.54L45.64,304L46.01,303.05L46.38,303.98L46.44,304L46.45,303.42L47.19,304L47.21,304L47.72,302.06L47.96,303.94L47.99,303.84L48.05,304L48.35,298.15L48.73,303.42L48.75,304L48.99,302.72L49.48,304L49.54,304L49.87,301.49L50.23,304L50.3,304L50.62,301.73L51.05,303.99L51.07,304L51.3,303.33L51.82,304L51.83,303.85L51.83,304L52.23,301.11L52.57,304L52.59,303.73L52.93,301.16L53.34,304L53.34,303.92L53.36,303.51L53.71,297.81L54.1,304L54.14,303.98L54.24,304L54.88,301.15L54.9,303.37L54.9,303.99L55.57,302.44L55.64,303.93L55.67,303.81L55.67,304L56.41,303.4L56.42,304L56.45,303.96L56.49,304L56.91,301.6L57.12,303.69L57.17,303.93L57.21,304L57.32,300.83L57.77,303.97L57.8,304L58.11,302.13L58.54,304L58.59,303.93L58.68,304L59.18,302.01L59.32,304L59.34,304L59.76,302.84L59.86,304L59.88,304L60.46,302.7L60.51,303.81L60.53,288.61L60.53,304L61.27,303.95L61.32,303.94L61.8,304L61.8,303.12L61.8,304L62.53,301.09L62.54,303.9L62.57,302.92L63.21,304L63.38,303.93L63.49,304L63.92,302.15L64.13,303.95L64.13,304L64.32,303.93L64.33,300.75L64.98,304L65.02,303.36L65.09,302.46L65.09,304L65.84,304L65.85,303.91L65.86,304L66.49,301.44L66.59,304L66.63,304L67.35,302.84L67.39,303.16L67.39,303.89L67.74,303.26L68.36,304L68.36,303.03L68.36,304L68.95,302.96L69.07,303.91L69.13,304L69.48,301.95L69.86,303.69L69.89,304L70.45,299.33L70.45,304L70.57,299.13L71.2,304L71.21,303.87L71.39,301.4L71.41,304L71.93,303.91L72,304L72.64,302.05L72.74,303.99L72.77,303.95L72.84,304L72.96,303.38L73.55,303.78L73.55,304L73.98,302.01L74.32,303.54L74.32,303.99L75.12,304L75.13,302.9L75.7,301.21L75.85,304L75.95,302.92L75.95,304L76.46,301.71L76.67,304L76.72,303.91L76.79,304L77.45,299.14L77.5,300.19L77.5,304L77.92,296.48L78.25,304L78.27,304L78.79,303.02L79.02,303.99L79.06,304L79.43,302.95L79.73,303.49L79.77,304L80.37,303.28L80.52,304L80.61,303.88L80.84,304L80.89,301.9L80.89,304L81.63,303.96L81.68,303.99L82.14,304L82.16,301.71L82.16,304L82.47,299.84L82.89,303.9L82.92,303.92L83.08,303.61L83.08,290.32L83.82,304L83.84,303.95L83.87,304L84.56,303.21L84.72,303.69L84.72,304L84.8,303.74L84.86,303.96L84.86,281.96L85.44,277.93L85.57,304L85.64,303.65L85.88,303.2L86.1,304L86.34,303.99L86.4,303.93L86.81,303.32L86.85,304L86.9,303.16L87.1,300.86L87.64,304L87.65,303.81L87.66,303.48L87.66,304L88.32,304L88.44,304L88.91,303.86L88.91,302.89L89.16,302.08L89.64,304L89.65,303.9L89.71,303.93L89.71,304L89.71,302.08L90.43,304L90.47,303.98L90.7,303.37L90.71,304L90.71,301.04L91.46,304L91.46,303.92L91.47,303.97L91.54,304L91.61,301.75L91.86,303.25L91.89,304L92.03,303.53L92.03,303.99L92.05,298.91L92.05,304L92.75,303.96L92.84,304L93.27,302.41L93.55,304L93.62,304L94.23,301.75L94.36,304L94.41,304L94.78,303.37L95.19,303.98L95.21,304L95.36,303.32L95.39,304L95.39,302.98L95.46,304L96.13,304L96.16,304L96.84,302.3L96.91,303.93L96.95,304L97.51,303.41L97.58,303.93L97.58,304L97.66,303.29L97.89,304L97.89,289.28L97.94,304L98.62,303.89L98.66,303.95L98.82,303.42L99,304L99,302.65L99.15,301.05L99.64,304L99.69,303.85L99.78,304L100.15,300.74L100.44,303.72L100.58,304L100.79,303.08L101.06,303.96L101.1,304L101.47,303.48L101.48,301.63L101.48,304L102.03,301.43L102.17,303.83L102.25,303.9L102.29,304L102.59,301.68L102.73,303.96L102.75,299.54L102.75,304L103.48,304L103.51,303.7L103.72,304L103.75,303.95L103.76,299.02L103.87,304L104.3,287.73L104.51,303.58L104.58,304L104.85,302.47L105.21,303.49L105.23,304L105.6,303.97L105.6,303.99L105.66,302.94L105.66,304L105.91,296.48L106.38,303.97L106.43,303.94L106.49,304L107.14,301.93L107.14,304L107.19,304L107.52,304L107.52,303.73L107.53,303.19L107.53,304L108.28,303.97L108.31,304L108.56,302.53L108.98,303.92L109.08,303.94L109.21,304L109.55,303.23L109.81,303.92L109.91,304L109.91,302.62L110.65,304L110.69,304L111.4,303.51L111.4,304L111.42,301.88L111.42,304L111.45,301.62L112.17,304L112.19,304L112.21,302.8L112.9,304L112.95,304L113.39,302.03L113.39,302.42L113.45,303.93L113.49,304L114.02,298.15L114.18,303.84L114.21,304L114.65,293.67L114.9,303.85L114.97,304L115.59,297.84L115.69,304L115.73,304L116.05,303.48L116.47,303.89L116.52,303.85L116.96,302.39L117.17,304L117.21,303.96L117.22,302.07L117.34,302L117.97,304L117.97,304L117.99,303.81L118.59,302.08L118.6,304L118.77,304L118.79,303.42L119.49,304L119.54,303.98L119.56,304L120.08,301.5L120.26,303.93L120.3,303.81L120.3,304L120.62,302.61L120.98,303.98L121.08,304L121.53,302.54L121.82,303.66L121.84,304L121.87,301.11L122.5,302.42L122.53,304L122.64,301.01L123.2,303.95L123.25,303.99L123.79,303.94L123.81,303.17L123.81,304L124.3,301.75L124.55,303.97L124.6,304L125.16,303.16L125.39,303.97L125.41,304L126.13,295.62L126.14,304L126.18,304L126.18,293.04L126.93,304L126.94,303.87L127,304L127.03,298.94L127.67,304L127.73,303.7L127.73,304L128.21,301.75L128.48,303.59L128.6,303.57L128.6,304L129.12,303.5L129.3,303.82L129.38,304L129.64,302.02L130.1,304L130.16,303.89L130.24,304L130.46,302.77L130.54,304L130.54,298.9L131.14,304L131.26,303.98L131.37,304L131.65,302.14L131.71,304L131.71,300.35L132.45,304L132.45,303.87L132.49,304L132.49,302.59L133.2,304L133.26,304L133.54,303.38L133.99,303.98L134.06,303.79L134.51,302.8L134.65,304L134.69,303.1L134.76,301.83L134.76,304L135.17,300.51L135.47,304L135.56,304L135.86,302.46L136.11,303.88L136.16,303.97L136.36,303.34L136.72,303.96L136.74,304L136.95,301.12L137.07,303.84L137.07,304L137.82,302.87L137.83,304L137.9,303.85L137.97,303.55L138.31,304L138.32,301.67L139.07,304L139.08,303.92L139.11,304L139.46,301.12L139.8,303.99L139.87,303.18L139.88,304L139.97,298.34L140.62,303.98L140.64,303.99L140.74,304L140.84,302.59L141.34,304L141.4,303.92L141.54,304L142.02,303.31L142.08,303.95L142.12,303.95L142.19,302.12L142.19,304L142.83,303.9L142.88,303.94L142.88,304L143.47,290.09L143.63,304L143.66,303.72L144.09,302.93L144.37,304L144.4,302.9L144.67,302.04L145.11,304L145.11,303.83L145.22,304L145.34,303.62L145.55,304L145.55,300.34L145.57,299.7L145.58,304L146.13,303.97L146.31,303.95L146.37,303.39L146.47,304L147.07,303.88L147.09,304L147.24,304L147.24,302.36L147.32,300.61L147.86,304L147.86,304L148.03,302.92L148.03,304L148.46,302.15L148.67,304L148.8,304L149.21,302.9L149.41,303.91L149.41,304L149.78,302.63L150.1,303.92L150.18,304L150.76,303.46L150.98,302.64L150.98,304L151.72,304L151.75,303.87L151.78,304L151.81,300.56L152.34,303.98L152.38,304L152.67,302.86L153.05,304L153.16,304L153.74,301.49L153.88,304L153.94,303.92L154.59,302.73L154.6,304L154.76,300.53L155.35,304L155.39,304L155.88,302.96L156.17,303.26L156.17,304L156.17,303.31L156.92,303.9L156.97,303.27L157.11,304L157.6,302.55L157.7,303.92L157.77,303.84L157.77,304L158.15,303.65L158.45,303.96L158.58,304L158.91,303.19L159.28,304L159.37,304L159.7,301.74L159.7,304L160.17,301.17L160.37,303.92L160.49,304L161.16,301.21L161.22,304L161.76,303.05L161.98,304L162.02,303.82L162.5,303.26L162.74,304L162.76,303.78L162.81,303.99L163.08,303.25L163.21,304L163.22,302.29L163.25,304L163.94,303.88L163.98,303.53L164.59,301.85L164.6,304L164.6,304L164.76,304L164.91,303.6L165.1,303.77L165.1,301.26L165.84,304L165.92,303.93L165.96,303.95L166.01,304L166.01,297.79L166.63,304L166.7,304L166.73,303.25L167.46,303.65L167.46,304L168.19,303.08L168.19,304L168.22,303.26L168.22,304L168.95,300.46L168.97,304L168.98,304L169.39,299.9L169.72,303.93L169.77,303.8L170.24,302.78L170.24,304L170.24,303.98L170.3,302.46L171.01,304L171.04,303.72L171.08,302.45L171.08,304L171.48,301.91L171.78,303.99L171.96,303.77L171.96,304L172.2,299.5L172.69,304L172.76,304L172.98,304L172.98,303.5L172.98,296.71L172.98,286.78L173,304L173.73,303.21L173.77,303.64L173.77,304L173.95,302.94L174.51,303.92L174.54,303.99L174.63,304L174.85,302.58L175.29,304L175.31,304L176.02,301.12L176.06,304L176.08,304L176.19,303.71L176.2,304L176.25,300.83L176.94,304L177.02,303.99L177.07,304L177.33,301.72L177.47,304L177.58,303.82L177.9,303.14L178.23,304L178.25,303.21L178.25,304L178.39,300.39L178.93,304L179.05,303.98L179.18,304L179.36,302.61L179.75,304L179.85,303.78L179.85,304L180.06,303.24L180.59,303.97L180.68,304L180.99,299.36L181.42,303.95L181.45,303.88L181.56,304L181.79,303.38L182.15,303.95L182.2,304L182.85,303.07L183.03,304L183.13,304L183.22,296.59L183.72,303.94L183.77,303.93L184.16,303.79L184.16,303.07L184.23,304L184.32,301.89L184.9,303.98L184.95,303.97L185.33,301.96L185.39,303.97L185.39,304L185.48,302.21L186.14,303.24L186.15,304L186.86,303.84L186.95,303.95L186.99,304L187.66,297.85L187.7,303.69L187.76,303.04L187.76,302.51L187.78,304L188.48,303.59L188.55,304L188.98,304L188.98,304L188.98,302.85L189.36,301.3L189.74,304L189.74,303.87L189.88,303.92L189.94,302.09L189.94,304L190.58,303.28L190.65,304L190.89,303.09L191.24,304L191.24,300.85L191.24,304L191.48,297.43L191.98,303.99L192.01,304L192.55,303.08L192.84,303.53L192.84,304L193.22,304L193.22,303.14L193.79,301.27L193.93,304L193.96,303.98L194,303.78L194,304L194.62,301.3L194.74,303.86L194.82,304L195.11,303.23L195.57,303.71L195.59,303.98L195.62,304L195.9,299.51L196.31,303.98L196.36,304L196.85,303.11L197.08,303.78L197.14,304L197.85,300.64L197.89,303.98L197.91,303.99L197.92,304L197.93,303.5L198.64,304L198.75,304L199.2,300.76L199.49,304L199.52,303.85L199.52,300.18L199.55,304L200.26,303.68L200.29,302.35L200.94,304L200.99,303.89L201.07,303.9L201.13,298.14L201.14,304L201.79,303.99L201.82,304L201.92,302.97L201.97,303.87L201.99,302.35L202.73,304L202.78,304L202.99,303.21L203.47,303.28L203.56,304L204.09,301.8L204.13,303.88L204.2,303.98L204.75,302.66L204.96,304L205.02,303.98L205.36,303.2L205.4,304L205.43,301.43L205.43,304L206.14,304L206.19,303.93L206.46,303.04L206.6,303.91L206.64,303.96L206.64,304L206.74,302.04L207.35,304L207.45,304L208.07,302.56L208.2,304L208.24,304L208.35,301.67L208.99,303.97L209.02,303.92L209.1,304L209.7,299.38L209.71,303.95L209.82,303.88L209.88,304L210.4,298.18L210.52,304L210.62,304L211.24,303.01L211.3,304L211.3,298.17L212.01,304L212.08,303.99L212.11,304L212.26,303.29L212.29,303.56L212.31,299.54L212.32,299.48L212.37,304L213.06,303.95L213.11,303.68L213.11,304L213.69,302.48L213.83,304L213.87,303.93L214.09,303.77L214.13,304L214.24,301.13L214.24,304L214.97,303.99L215.02,303.94L215.37,304L215.37,304L215.43,301.2L215.51,304L216.17,303.84L216.21,304L216.8,301.22L216.96,304L216.97,304L217.04,298.69L217.36,304L217.41,303.63L217.45,301.02L218.13,304L218.13,303.93L218.13,302.39L218.39,298.46L218.94,304L218.94,303.95L218.95,303.37L219.4,294.5L219.61,304L219.61,304L219.72,303.95L219.74,304L220.32,302.6L220.47,303.91L220.51,303.96L220.52,304L221,300.06L221.24,303.87L221.26,303.97L221.44,303.79L221.44,304L221.44,302.56L222.26,304L222.26,303.81L222.71,300.08L222.98,304L223.03,304L223.36,303.26L223.77,304L223.8,304L224.09,302.13L224.49,304L224.56,304L225.15,304L225.15,300.44L225.9,304L225.93,302.95L226.02,302.07L226.55,304L226.61,303.23L226.65,298.37L226.65,304L227.38,303.92L227.41,303.96L227.48,302.66L227.56,304L228.11,302.88L228.11,304L228.14,302.52L228.85,303.86L228.9,304L228.94,303.1L229.59,303.68L229.66,304L229.66,301.92L230.41,303.82L230.42,303.86L230.73,303.31L231.31,304L231.31,303.16L231.35,303.09L232.09,304L232.1,303.33L232.1,304L232.36,299.2L232.84,303.52L232.86,303.98L233.37,302.56L233.6,304L233.64,303.97L234.05,302.83L234.21,303.96L234.23,304L234.84,301.88L234.92,303.94L235.02,304L235.25,290.33L235.75,303.99L235.78,304L236.29,302.55L236.55,303.65L236.62,303.91L236.76,304L237.26,302.94L237.35,304L237.36,302.3L238.09,304L238.09,303.98L238.15,303.85L238.23,304L238.26,301.93L238.26,303.2L238.27,300.18L238.89,299.11L238.98,304L239.02,303.99L239.05,303.96L239.73,304L239.75,303.01L239.75,304L239.84,302.91L240.47,304L240.53,303.81L240.53,304L240.95,302.86L241.28,304L241.29,304L242.03,302.84L242.15,304L242.32,303.98L242.35,302.43L242.8,300.16L243.13,304L243.13,303.91L243.16,303.99L243.2,304L243.22,16L243.87,304L243.97,303.93L243.99,304L244.39,302.54L244.72,304L244.73,304L244.8,300.63L245.44,303.85L245.5,303.95L245.56,304L245.93,303.4L246.23,304L246.31,303.86L246.4,304L246.4,302.95L247.05,303.5L247.13,303.87L247.21,304L247.74,302.09L247.87,303.94L247.89,303.98L247.91,302.32L247.92,304L248.6,303.93L248.73,304L249.47,302.6L249.5,304L249.56,299.89L250.24,303.99L250.27,304L250.53,301.71L250.76,303.92L250.78,304L251.27,302.88L251.51,304L251.56,304L252.31,302.16L252.32,303.99L252.43,304L252.64,296.28L253.03,303.82L253.09,303.58L253.38,297.76L253.82,304L253.84,303.58L253.91,303.91L253.95,304L254.48,301.54L254.64,304L254.68,304L255.22,302.82L255.43,303.9L255.47,303.94L255.56,304L255.96,303.21L256.19,304L256.25,304L256.9,303.36L256.9,304L256.9,303.03L256.91,304L257.43,301.93L257.63,304L257.7,303.81L258.01,302.78L258.4,304L258.43,303.9L258.48,302.89L258.48,304L258.7,300.93L259.23,304L259.26,303.94L259.84,304L259.88,303.2L259.96,303.03L260.65,304L260.65,304L260.66,303.14L260.66,304L260.73,302.03L261.36,304L261.43,303.67L261.67,303.61L262.2,304L262.21,303.76L262.21,304L262.92,300.02L262.99,303.86L263.02,304L263.71,301.5L263.77,303.76L263.77,304L264.39,300.61L264.51,304L264.58,304L264.64,292.79L265.27,303.65L265.35,303.94L265.41,304L265.57,302.44L266.06,304L266.13,304L266.86,302.49L266.87,303.98L266.95,303.86L268.11,304L268.11,304L268.16,303.77L268.16,304L268.81,301.16L268.86,303.95L268.99,303.84L268.99,300.39L269.13,304L269.73,303.99L269.75,303.67L269.75,304L270.11,300.28L270.46,304L270.52,304L271.15,302.76L271.27,303.75L271.29,304L272.06,303.36L272.16,304L272.2,304L272.78,300.14L272.93,304L272.97,304L273.75,303.29L273.75,304L274.47,302.41L274.52,303.84L274.55,304L274.71,295.14L275.3,304L275.34,304L275.88,302.42L276.02,303.99L276.1,304L276.18,300.39L276.79,304L276.86,304L276.92,289.46L277.4,303.89L277.44,304L277.8,303.15L278.19,304L278.22,303.46L278.81,301.58L278.96,304L279.01,304L279.06,300.12L279.61,303.85L279.66,303.97L280.35,302.94L280.45,303.57L280.48,304L280.91,301.9L280.91,297.95L281.68,304L281.69,303.63L281.69,304L282.21,299.89L282.36,303.94L282.45,304L282.76,299.22L283.1,303.94L283.17,303.86L283.25,304L283.47,301.52L283.47,301.52L283.47,254.84L283.48,253.2L283.54,304L284.21,304L284.29,303.87L284.44,302.85L284.78,304L284.86,303.6L284.86,302.72L284.86,304L285.34,301.35L285.61,304L285.62,303.91L285.64,304L285.99,300.56L286.36,304L286.38,303.97L286.72,303.26L286.8,303.64L286.8,301.66L286.97,297.78L287.54,304L287.57,303.73L287.61,304L287.76,300.36L288.32,304L288.41,303.83L288.89,303.67L289.06,304L289.11,303.95L289.2,303.9L289.4,304L289.42,302.69L289.42,304L290.16,296.91L290.18,304L290.37,300.35L290.49,304L290.49,240.88L290.5,304L291.23,304L291.31,304L291.34,303.3L292.05,303.97L292.1,303.27L292.1,304L292.62,302.73L292.79,304L292.87,303.64L292.87,304L293.01,303.37L293.62,303.66L293.64,304L294.22,302.07L294.4,302.28L294.44,303.94L294.93,303.77L294.93,301.8L294.99,299.03L295.68,304L295.71,303.94L295.72,303.78L295.74,304L295.74,304L295.76,233.79L296.49,304L296.49,304L296.6,304L296.87,302.36L297.33,303.84L297.35,303.97L297.48,304L297.61,301.12L298.1,303.97L298.1,304L298.71,304L298.71,303.24L298.71,303L298.75,304L299.45,303.99L299.55,304L299.61,302.63L300.27,304L300.31,304L300.65,302.12L301.03,304L301.09,303.94L301.69,304L301.74,303.46L301.75,303.05L302.01,302.65L302.51,304L302.51,303.94L302.57,303.76L302.72,303.43L303.07,304L303.07,303.95L303.14,302.32L303.14,304L303.46,298.95L303.89,304L303.92,303.86L304.09,303.57L304.46,304L304.46,303.09L304.48,304L304.84,300.7L305.2,303.8L305.23,304L305.36,303.66L305.42,303.99L305.42,301.91L305.61,286.45L306.13,304L306.22,304L306.29,303.64L306.29,284.56L306.29,304L307.02,303.89L307.11,304L307.73,303.42L307.8,303.91L307.82,304L308.36,302.2L308.55,303.84L308.59,303.96L308.94,304L308.94,303.26L309.02,301.24L309.66,304L309.67,303.99L309.77,304L310.45,302.41L310.45,303.34L310.48,304L311.02,300.6L311.18,304L311.24,303.97L311.61,304L311.61,303.12L311.67,304L312.3,303.77L312.42,303.79L312.92,301.34L313.15,304L313.15,303.45L313.87,304L313.87,303.99L313.89,303.23L313.89,304L314.35,299.37L314.59,304L314.65,304L314.79,303.01L315.27,303.9L315.29,303.98L315.5,303.53L315.58,303.99L315.58,302.75L315.58,304L315.76,300.14L316.31,304L316.34,304L316.97,302.97L317.05,303.19L317.1,304L317.41,298.12L317.84,303.91L317.93,304L317.96,291.86L318.13,303.66L318.15,304L318.84,298.85L318.88,304L318.91,303.86L319.09,303.65L319.26,304L319.26,296.57L319.26,304L319.96,303.84L320.07,303.95L320.26,303.89L320.26,302.24L320.26,304L321,303.14L321.06,303.98L321.12,304L321.64,303.39L321.8,304L321.83,304L322.42,302.96L322.58,303.82L322.6,303.98L322.6,300.52L322.6,304L323.34,303.99L323.39,304L323.39,299.66L324.14,303.83L324.16,303.98L324.48,303.36L324.93,304L324.95,303.97L325.03,304L325.39,302.04L325.65,304L325.73,303.91L325.82,304L325.96,302.05L325.96,304L326.45,300.75L326.71,303.8L326.74,304L327.22,279.25L327.42,304L327.54,303.94L327.62,304L328.23,303.07L328.36,303.78L328.36,303.99L328.81,303.94L328.81,303.17L328.81,304L329.45,302.4L329.45,304L329.59,304L329.65,253.79L330.13,303.84L330.21,304L330.93,302.86L330.98,304L331.02,304L331.79,301.8L331.79,304L332.44,300.52L332.52,303.96L332.55,303.97L333.23,303.73L333.23,304L333.23,301.55L333.99,304L333.99,303.84L334.48,302.85L334.66,304L334.72,302.04L334.72,304L335.33,300.83L335.45,304L335.51,304L335.74,302.51L336.21,304L336.24,304L336.66,303.58L336.83,304L336.83,298.97L336.83,304L337.07,297.39L337.56,302.59L337.59,304L337.67,302.24L338.32,303.73L338.35,303.93L339.21,303.85L339.23,303.95L339.23,304L339.88,302.72L339.97,303.56L340.01,304L340.25,301.2L340.75,303.99L340.82,303.92L341.21,304L341.3,299.11L342.1,304L342.1,303.57L342.12,303.89L342.34,304L342.35,303.27L342.35,303.7L342.35,302.83L342.35,304L342.37,287.71L343.1,304L343.11,303.85L343.2,304L343.22,303.64L343.22,300.32L343.41,297.5L343.96,304L343.96,303.82L344.02,303.93L344.18,304L344.71,303.31L344.76,303.96L344.82,304L345.42,302.44L345.57,303.57L345.67,303.74L345.96,301.98L346.4,304L346.41,303.95L346.43,303.86L346.65,303.45L346.7,304L346.7,300L346.78,304L346.79,299.27L347.43,303.87L347.46,303.97L347.68,303.05L347.71,303.82L347.71,300.45L348.39,304L348.43,303.98L348.51,304L348.95,302.64L349.26,304L349.29,303.97L349.29,304L349.84,302.68L350.04,303.94L350.1,303.8L350.19,304L350.37,302.95L350.84,304L350.86,304L351.01,303.6L351.18,303.94L351.2,299.89L351.3,296.21L351.97,304L351.97,303.96L352.05,303.89L352.63,304L352.66,301.88L352.67,301.87L352.74,304L353.4,304L353.43,303.89L353.61,303.12L353.62,301.14L353.62,304L353.87,300.67L354.32,304L354.39,303.72L354.39,304L354.47,302.51L355.11,303.99L355.18,303.77L355.61,302.22L355.65,304L355.65,302.02L356.36,304L356.4,303.88L356.43,304L356.65,303.83L356.65,304L356.66,296.26L356.66,304L356.92,287.09L357.38,304L357.44,303.77L357.47,304L357.55,301.25L358.17,303.88L358.2,303.96L358.59,303.92L358.6,303.01L358.6,304L359.25,302.24L359.35,303.85L359.42,303.91L359.52,302.38L359.52,304L360.15,303.94L360.17,304L360.53,303.17L360.64,304L360.65,300.08L360.65,304L360.66,299.77L361.36,304L361.44,304L361.58,302.83L361.9,303.96L361.94,304L362.11,303.32L362.57,304L362.58,301L362.58,304L363.03,299.96L363.22,304L363.45,304L364.14,302.88L364.2,303.02L364.26,303.92L364.31,304L364.45,296.25L364.93,304L365.03,303.94L365.05,303.12L365.05,304L365.78,303.67L365.78,304L366.08,302.63L366.53,303.26L366.55,304L367.28,300.03L367.3,304L367.31,303.22L367.32,303.1L368.01,304L368.07,303.82L368.07,304L368.32,295.53L368.81,304L368.86,304L369.41,304L369.41,303.94L369.42,303.13L369.8,302.91L370.16,304L370.22,304L370.58,301.07L370.95,304L371.02,303.97L371.12,304L371.38,301.03L371.75,303.98L371.82,303.14L371.82,304L372.54,304L372.58,303.82L372.58,304L372.59,301.38L373.33,303.95L373.38,303.79L373.38,304L374,297.54L374.1,304L374.16,304L374.98,302.82L375,303.74L375,304L375.46,299.73L375.73,303.88L375.76,303.97L375.78,304L375.8,303.1L376.5,303.9L376.51,304L377.26,298.54L377.26,304L377.27,304L377.64,303.62L377.67,303.1L378.46,304L378.51,304L378.84,302.29L378.93,304L379.01,304L379.61,303.42L379.67,304L379.69,304L379.89,304L379.89,303.83L379.99,302.65L379.99,304L380.52,293.66L380.66,304L380.75,303.87L381,303.21L381.37,304L381.46,303.52L381.63,302.95L382.14,304L382.22,303.97L382.25,304L383.04,302.16L383.04,304L383.68,299.54L383.78,304L383.81,303.94L384.04,304L384.04,302.37L384.05,304L384.44,298.19L384.78,303.92L384.84,304L384.95,303.7L385.6,304L385.66,304L386.15,299.85L386.41,303.65L386.43,303.65L386.43,304L386.86,298L387.17,304L387.2,304L387.73,303.25L387.95,303.69L387.96,304L388.45,302.37L388.62,304L388.68,303.9L389.52,304L389.52,302.89L390.23,304L390.28,302.35L390.28,304L390.43,301.73L390.9,303.4L391.04,303.18L391.68,300.89L391.69,304L391.72,299.83L391.72,304L392.29,298.84L392.4,304L392.5,304L392.83,303.39L392.86,304L392.86,303.05L392.89,304L393.1,302.75L393.61,304L393.63,304L394.14,300.72L394.34,304L394.4,303.54L394.47,304L394.51,302.43L395.05,304L395.12,304L395.51,301.93L395.84,304L395.89,304L396.54,302.9L396.66,304L396.71,304L397.09,300.74L397.43,303.13L397.5,303.81L397.5,304L397.96,281.75L398.17,304L398.26,304L398.95,303.44L399.02,304L399.04,304L399.21,303.66L399.25,302.59L399.25,304L400,304L400.02,303.99L400.16,304L400.68,303.77L400.73,304L400.78,303.89L400.79,304L401.21,301.74L401.52,303.75L401.59,299.79L402.3,304L402.35,303.3L402.36,303.99L402.39,304L403.09,302.01L403.15,304L403.38,301.82L403.61,302.97L403.64,304L404.31,302.07L404.38,303.76L404.4,304L405.19,303.07L405.19,304L405.8,304L405.8,303.16L405.98,302.38L406.57,304L406.57,304L406.62,302.57L407.26,302.52L407.33,304L407.33,301.23L407.39,300.07L408.04,304L408.11,304L408.8,303.38L408.85,304L408.89,303.33L408.89,304L409.37,301.62L409.64,304L409.65,304L409.65,300.46L410.39,304L410.42,304L410.66,303.56L410.75,303.66L410.77,300.73L410.77,304L410.8,300.61L411.49,304L411.62,304L411.96,301.07L412.35,303.89L412.38,303.94L412.39,304L412.7,302.9L413.04,303.92L413.13,304L413.8,293.81L413.88,303.8L413.92,303.72L414.08,303.33L414.5,304L414.5,302.02L414.54,304L414.57,300.51L415.25,304L415.27,303.97L415.95,304L415.95,303.24L416.1,302.36L416.71,304L416.71,304L416.8,303.97L416.81,304L417.19,303.3L417.54,303.95L417.58,303.98L418.09,302.68L418.09,303.93L418.15,303.93L418.16,304L418.65,300.14L418.89,303.52L418.9,303.99L419.53,303.25L419.57,304L419.63,304L419.98,302.71L420.32,303.91L420.35,304L420.82,296.68L421.08,304L421.15,303.98L421.22,304L421.36,299.96L421.36,292L421.36,304L422.1,304L422.13,304L422.37,301.79L422.87,304L422.89,304L423.14,303.15L423.46,304L423.47,304L423.94,303.11L424.25,303.8L424.25,304L424.42,301.85L424.96,304L425,303.97L425.35,303.67L425.35,300.24L425.35,304L426.1,304L426.11,303.97L426.22,302.57L426.22,304L426.22,302.1L426.25,304L426.66,298.13L426.84,303.75L426.89,303.92L426.93,304L427.6,303.23L427.61,304L427.64,304L427.97,304L427.97,303.62L427.98,302.78L427.98,304L428.73,303.98L428.79,304L429.54,302.99L429.55,303.89L429.57,304L429.93,300.95L430.27,303.95L430.33,304L430.44,303.62L430.56,304L430.56,300.01L430.61,304L431.31,304L431.32,304L432.06,303.33L432.06,304L432.09,303.96L432.25,304L432.6,302.32L432.83,303.63L432.83,304L433.5,301.27L433.58,303.9L433.6,304L433.7,303.78L433.7,300.4L433.7,304L434.3,294.05L434.44,303.88L434.48,304L434.68,302.36L435.22,303.88L435.26,303.95L435.36,304L435.73,303.11L436.01,304L436.04,304L436.79,302.82L436.79,304L436.82,303.95L437.18,303.15L437.22,304L437.23,302.72L437.23,304L437.72,284.98L437.93,303.86L437.99,303.99L438.06,304L438.1,301.84L438.61,304L438.67,303.85L439.19,302.57L439.3,304L439.3,300.62L440.04,304L440.04,304L440.07,303.97L441.32,304L441.32,299.77L442.06,304L442.09,304L442.85,300.99L442.85,303.16L442.85,304L442.9,301.3L443.6,304L443.61,304L444.02,302.55L444.31,303.96L444.4,303.89L444.42,304L444.89,303.48L445.12,303.79L445.16,304L445.56,300.18L445.91,303.77L445.96,303.72L446,304L446.1,299.43L446.7,303.91L446.72,303.98L446.77,304L447.4,300.36L447.46,302.82L447.49,304L447.5,300.79L448.24,304L448.27,303.89L448.29,303.31L448.3,304L449.02,303.77L449.05,303.96L449.3,303.37L449.33,303.71L449.34,302.45L449.34,304L449.6,300.22L450.07,304L450.12,303.92L450.24,301.27L450.24,304L450.83,304L450.9,304L451.35,303.99L451.37,303.02L451.39,304L451.69,299.32L452.04,303.57L452.16,303.87L452.33,303.43L452.35,304L452.35,303.96L452.35,300.74L453.07,304L453.13,304L453.52,303.53L453.55,304L453.56,303.04L454.06,301.83L454.33,304L454.33,304L454.33,300.6L454.57,295.5L455.04,304L455.11,303.96L455.12,304L455.14,302.29L455.84,304L455.87,303.7L455.87,304L455.89,301.84L456.56,304L456.77,303.99L457.11,302.5L457.17,303.77L457.17,304L458,299.98L458,303.93L458.08,304L458.65,303.77L458.74,304L458.75,304L459.5,302.68L459.51,304L459.82,301.74L460.26,303.64L460.28,304L460.73,302.56L461.03,303.99L461.04,304L461.64,301.59L461.78,304L461.82,304L462.47,303.1L462.57,304L462.57,300.3L462.58,300.26L462.58,304L463.29,303.92L463.35,304L463.68,297.13L464.06,304L464.11,304L464.11,301.03L464.86,304L464.88,303.92L464.96,302.59L464.96,304L465.6,303.91L465.67,303.97L465.72,304L466.23,299.06L466.33,304L466.42,303.99L466.67,303.06L467.05,303.79L467.08,304L467.82,302.42L467.83,303.93L467.88,304L468.26,302.15L468.63,304L468.66,304L468.72,301.11L469.41,304L469.42,304L470.06,299.51L470.13,303.98L470.18,304L470.89,301.95L470.93,303.99L470.97,304L470.98,300.98L471.46,304L471.67,304L472.37,302.27L472.4,304L472.44,304L472.53,301.94L473.14,303.68L473.21,304L473.35,303.91L473.35,302.42L473.35,304L473.55,301.06L474.09,304L474.15,302.3L474.5,292.01L474.93,304L474.97,303.61L474.97,304L475.09,302.7L475.72,303.91L475.74,303.98L475.82,304L476.25,300.96L476.45,304L476.53,304L476.76,298.02L477.25,303.97L477.29,304L477.36,298.91L478.04,304L478.05,303.94L478.12,304L478.76,301.89L478.76,304L478.87,303.79L478.87,304L479.16,301.22L479.59,304L479.63,303.99L479.68,304L479.73,294.5L480.03,303.89L480.05,303.98L480.06,304L480.72,303.61L480.75,304L480.83,304L481.39,300.33L481.56,303.99L481.59,304L482.05,303.4L482.05,304L482.05,303.22L482.45,302.43L482.82,304L482.83,303.99L482.85,304L483.31,303.27L483.32,300.48L483.32,304L483.63,299.8L484.07,303.8L484.09,303.98L484.47,304L484.51,301.86L484.51,304L484.85,300.2L485.26,303.97L485.31,303.98L485.38,304L486.04,303.31L486.04,304L486.1,304L486.9,303.23L486.91,304L486.98,304L487.21,297.38L487.67,304L487.78,303.55L488.32,302.63L488.55,304L488.57,303.84L488.57,304L489.15,302.66L489.32,303.94L489.36,304L489.78,302.68L490.11,303.91L490.12,304L490.62,296.42L490.84,299.23L490.9,304L490.91,299.84L491.64,304L491.67,303.92L492.28,304L492.28,303.83L492.33,303.39L492.96,300.47L493.07,304L493.07,303.91L493.14,303.84L493.14,304L493.45,303.37L493.89,303.95L493.9,304L494.05,303.39L494.17,304L494.23,302.42L494.23,304L494.91,300.15L494.97,303.99L494.99,304L495.7,302.91L495.76,304L495.87,304L496.12,303.28L496.56,303.92L496.68,304L496.86,301.18L497.41,304L497.44,303.92L497.46,300.47L497.47,304L498.06,304L498.11,304L498.17,303.32L498.17,282.48L498.37,304L498.9,302.95L498.97,303.92L499.8,304L499.82,297.56L499.82,304L500.01,290.33L500.57,304L500.61,304L500.81,303.88L500.81,303.03L501.16,301.02L501.54,304L501.58,303.96L501.59,303.66L502.01,303.11L502.32,304L502.32,303.92L502.38,303.71L502.64,302.84L503.12,304L503.12,303.96L503.15,304L503.81,301.92L503.92,303.85L503.96,304L504.39,303.15L504.56,304L504.58,302.71L504.58,304L504.67,302.51L505.3,303.11L505.36,302.99L505.36,304L505.63,302.12L506.08,303.99L506.12,303.96L506.14,304L506.87,297.07L506.93,304L507.11,303.08L507.17,303.93L507.24,303.94L507.49,304L507.49,302.65L507.49,304L507.72,301.99L508.22,303.92L508.29,304L508.6,303.17L508.89,303.6L508.89,304L509.46,302.47L509.68,303.55L509.7,304L510.04,303.06L510.33,303.85L510.38,303.94L510.45,304L510.68,302.45L510.7,303.61L510.7,291.9L511,304" style="vector-effect: non-scaling-stroke; fill: none; stroke: rgb(99, 110, 250); stroke-opacity: 1; stroke-width: 2px; opacity: 1;"/></g><g class="points"/><g class="text"/></g></g></g><g class="overplot"/><path class="xlines-above crisp" d="M0,0" style="fill: none;"/><path class="ylines-above crisp" d="M0,0" style="fill: none;"/><g class="overlines-above"/><g class="xaxislayer-above"><g class="xtick"><text text-anchor="middle" x="0" y="436" transform="translate(198.01,0)" style="font-family: 'Times New Roman'; font-size: 15px; fill: rgb(13, 13, 13); fill-opacity: 1; white-space: pre; opacity: 1;">1.61252×10​<tspan style="font-size:70%" dy="-0.6em">18</tspan><tspan dy="0.42em">​</tspan></text></g><g class="xtick"><text text-anchor="middle" x="0" y="436" style="font-family: 'Times New Roman'; font-size: 15px; fill: rgb(13, 13, 13); fill-opacity: 1; white-space: pre; opacity: 1;" transform="translate(299.45,0)">1.612525×10​<tspan style="font-size:70%" dy="-0.6em">18</tspan><tspan dy="0.42em">​</tspan></text></g><g class="xtick"><text text-anchor="middle" x="0" y="436" style="font-family: 'Times New Roman'; font-size: 15px; fill: rgb(13, 13, 13); fill-opacity: 1; white-space: pre; opacity: 1;" transform="translate(400.89,0)">1.61253×10​<tspan style="font-size:70%" dy="-0.6em">18</tspan><tspan dy="0.42em">​</tspan></text></g><g class="xtick"><text text-anchor="middle" x="0" y="436" style="font-family: 'Times New Roman'; font-size: 15px; fill: rgb(13, 13, 13); fill-opacity: 1; white-space: pre; opacity: 1;" transform="translate(502.33,0)">1.612535×10​<tspan style="font-size:70%" dy="-0.6em">18</tspan><tspan dy="0.42em">​</tspan></text></g><g class="xtick"><text text-anchor="middle" x="0" y="436" style="font-family: 'Times New Roman'; font-size: 15px; fill: rgb(13, 13, 13); fill-opacity: 1; white-space: pre; opacity: 1;" transform="translate(603.77,0)">1.61254×10​<tspan style="font-size:70%" dy="-0.6em">18</tspan><tspan dy="0.42em">​</tspan></text></g></g><g class="yaxislayer-above"><g class="ytick"><text text-anchor="end" x="108" y="12.25" transform="translate(0,404)" style="font-family: 'Times New Roman'; font-size: 35px; fill: rgb(13, 13, 13); fill-opacity: 1; white-space: pre; opacity: 1;">0</text></g><g class="ytick"><text text-anchor="end" x="108" y="12.25" style="font-family: 'Times New Roman'; font-size: 35px; fill: rgb(13, 13, 13); fill-opacity: 1; white-space: pre; opacity: 1;" transform="translate(0,355.95)">2k</text></g><g class="ytick"><text text-anchor="end" x="108" y="12.25" style="font-family: 'Times New Roman'; font-size: 35px; fill: rgb(13, 13, 13); fill-opacity: 1; white-space: pre; opacity: 1;" transform="translate(0,307.9)">4k</text></g><g class="ytick"><text text-anchor="end" x="108" y="12.25" style="font-family: 'Times New Roman'; font-size: 35px; fill: rgb(13, 13, 13); fill-opacity: 1; white-space: pre; opacity: 1;" transform="translate(0,259.86)">6k</text></g><g class="ytick"><text text-anchor="end" x="108" y="12.25" style="font-family: 'Times New Roman'; font-size: 35px; fill: rgb(13, 13, 13); fill-opacity: 1; white-space: pre; opacity: 1;" transform="translate(0,211.81)">8k</text></g><g class="ytick"><text text-anchor="end" x="108" y="12.25" style="font-family: 'Times New Roman'; font-size: 35px; fill: rgb(13, 13, 13); fill-opacity: 1; white-space: pre; opacity: 1;" transform="translate(0,163.76)">10k</text></g><g class="ytick"><text text-anchor="end" x="108" y="12.25" style="font-family: 'Times New Roman'; font-size: 35px; fill: rgb(13, 13, 13); fill-opacity: 1; white-space: pre; opacity: 1;" transform="translate(0,115.71000000000001)">12k</text></g></g><g class="overaxes-above"/></g></g><g class="polarlayer"/><g class="smithlayer"/><g class="ternarylayer"/><g class="geolayer"/><g class="funnelarealayer"/><g class="pielayer"/><g class="iciclelayer"/><g class="treemaplayer"/><g class="sunburstlayer"/><g class="glimages"/><defs id="topdefs-f7fde1"><g class="clips"/></defs><g class="layer-above"><g class="imagelayer"/><g class="shapelayer"/></g><g class="infolayer"><g class="g-gtitle"/><g class="g-xtitle"><text class="xtitle" x="364.5" y="463.8" text-anchor="middle" style="font-family: 'Open Sans', verdana, arial, sans-serif; font-size: 14px; fill: rgb(42, 63, 95); opacity: 1; font-weight: normal; white-space: pre;">Time Steps (ns)</text></g><g class="g-ytitle" transform="translate(23.5,0)"><text class="ytitle" transform="rotate(-90,12.5,260)" x="12.5" y="260" text-anchor="middle" style="font-family: 'Times New Roman'; font-size: 40px; fill: rgb(13, 13, 13); opacity: 1; font-weight: normal; white-space: pre;">Speed (in sec.)</text></g></g></svg>