<svg class="main-svg" xmlns="http://www.w3.org/2000/svg" xmlns:xlink="http://www.w3.org/1999/xlink" width="700" height="500" style="" viewBox="0 0 700 500"><rect x="0" y="0" width="700" height="500" style="fill: rgb(255, 255, 255); fill-opacity: 1;"/><defs id="defs-78ffec"><g class="clips"><clipPath id="clip78ffecxyplot" class="plotclip"><rect width="494" height="320"/></clipPath><clipPath class="axesclip" id="clip78ffecx"><rect x="126" y="0" width="494" height="500"/></clipPath><clipPath class="axesclip" id="clip78ffecy"><rect x="0" y="100" width="700" height="320"/></clipPath><clipPath class="axesclip" id="clip78ffecxy"><rect x="126" y="100" width="494" height="320"/></clipPath></g><g class="gradients"/><g class="patterns"/></defs><g class="bglayer"><rect class="bg" x="126" y="100" width="494" height="320" style="fill: rgb(229, 236, 246); fill-opacity: 1; stroke-width: 0;"/></g><g class="layer-below"><g class="imagelayer"/><g class="shapelayer"/></g><g class="cartesianlayer"><g class="subplot xy"><g class="layer-subplot"><g class="shapelayer"/><g class="imagelayer"/></g><g class="minor-gridlayer"><g class="x"/><g class="y"/></g><g class="gridlayer"><g class="x"><path class="xgrid crisp" transform="translate(212.20999999999998,0)" d="M0,100v320" style="stroke: rgb(255, 255, 255); stroke-opacity: 1; stroke-width: 1px;"/><path class="xgrid crisp" transform="translate(310.24,0)" d="M0,100v320" style="stroke: rgb(255, 255, 255); stroke-opacity: 1; stroke-width: 1px;"/><path class="xgrid crisp" transform="translate(408.27,0)" d="M0,100v320" style="stroke: rgb(255, 255, 255); stroke-opacity: 1; stroke-width: 1px;"/><path class="xgrid crisp" transform="translate(506.3,0)" d="M0,100v320" style="stroke: rgb(255, 255, 255); stroke-opacity: 1; stroke-width: 1px;"/><path class="xgrid crisp" transform="translate(604.3299999999999,0)" d="M0,100v320" style="stroke: rgb(255, 255, 255); stroke-opacity: 1; stroke-width: 1px;"/></g><g class="y"><path class="ygrid crisp" transform="translate(0,357.98)" d="M126,0h494" style="stroke: rgb(255, 255, 255); stroke-opacity: 1; stroke-width: 1px;"/><path class="ygrid crisp" transform="translate(0,311.96000000000004)" d="M126,0h494" style="stroke: rgb(255, 255, 255); stroke-opacity: 1; stroke-width: 1px;"/><path class="ygrid crisp" transform="translate(0,265.94)" d="M126,0h494" style="stroke: rgb(255, 255, 255); stroke-opacity: 1; stroke-width: 1px;"/><path class="ygrid crisp" transform="translate(0,219.92000000000002)" d="M126,0h494" style="stroke: rgb(255, 255, 255); stroke-opacity: 1; stroke-width: 1px;"/><path class="ygrid crisp" transform="translate(0,173.9)" d="M126,0h494" style="stroke: rgb(255, 255, 255); stroke-opacity: 1; stroke-width: 1px;"/><path class="ygrid crisp" transform="translate(0,127.88)" d="M126,0h494" style="stroke: rgb(255, 255, 255); stroke-opacity: 1; stroke-width: 1px;"/></g></g><g class="zerolinelayer"><path class="yzl zl crisp" transform="translate(0,404)" d="M126,0h494" style="stroke: rgb(255, 255, 255); stroke-opacity: 1; stroke-width: 2px;"/></g><path class="xlines-below"/><path class="ylines-below"/><g class="overlines-below"/><g class="xaxislayer-below"/><g class="yaxislayer-below"/><g class="overaxes-below"/><g class="plot" transform="translate(126,100)" clip-path="url(#clip78ffecxyplot)"><g class="scatterlayer mlayer"><g class="trace scatter trace5c501f" style="stroke-miterlimit: 2; opacity: 1;"><g class="fills"/><g class="errorbars"/><g class="lines"><path class="js-line" d="M0,304L3.33,302.8L3.33,302.8L3.37,302.79L6.2,301.54L6.2,301.54L6.22,301.53L10.98,299.32L10.98,299.32L10.98,299.31L12.6,298.67L12.74,298.67L37.03,286.79L37.03,286.79L37.03,286.78L40.94,284.98L40.94,284.97L42.99,283.81L42.99,283.8L74.07,264.27L74.16,264.27L81.35,260.04L81.35,260.02L84.9,257.8L84.9,257.8L84.9,257.79L87.91,256.01L87.91,256.01L87.93,255.98L91.1,253.72L91.17,253.72L98.67,248.91L98.67,248.91L98.72,248.9L107.26,244.13L107.26,244.13L107.28,244.13L111.63,241.48L111.63,241.48L111.79,241.48L115.64,238.89L115.64,238.88L118.99,237.28L118.99,237.28L119.05,237.28L122.5,235.24L122.5,235.24L122.61,235.24L125.64,233.57L125.64,233.56L127.1,232.74L127.1,232.74L127.12,232.73L137.87,226.63L137.93,226.63L139.43,225.78L139.53,225.78L152.7,217.13L152.71,217.11L154.36,215.89L154.36,215.87L157.36,214.45L157.36,214.45L157.4,214.45L182.99,199.14L182.99,199.14L182.99,199.13L188.21,196.51L188.29,196.51L195.94,192.04L195.94,192.04L196.04,192.03L219.15,178.16L219.15,178.16L219.18,178.16L222.55,176.41L222.55,176.41L222.57,176.41L224.18,175.21L224.18,175.19L226.58,173.9L226.58,173.9L226.59,173.89L259.12,157.23L259.12,157.23L259.18,157.23L264.71,154.8L264.71,154.78L276.95,147.91L276.95,147.91L277.01,147.9L279.63,146.29L279.69,146.29L282.01,144.76L282.01,144.76L282.08,144.75L287.66,142.16L287.66,142.16L287.72,142.16L289.52,140.99L289.52,140.99L289.52,140.98L292.53,138.47L292.53,138.47L292.77,138.46L294.55,137.18L294.6,137.18L301.8,132.64L301.8,132.64L301.85,132.64L308.02,128.79L308.09,128.78L310.21,127.28L310.21,127.28L310.29,127.27L320.85,120.68L320.85,120.68L320.94,120.67L326.06,117.96L326.06,117.96L326.11,117.95L328.86,116.46L328.86,116.45L340.83,109.68L340.83,109.68L340.83,109.66L342.02,108.99L342.02,108.99L342.08,108.99L349.44,104.2L349.44,104.2L349.49,104.19L354.44,101.75L354.44,101.74L381.45,85.63L381.45,85.63L381.52,85.62L386.26,82.48L386.29,82.48L388.54,81.04L388.54,81.04L388.57,81.04L391.53,79.13L391.53,79.13L391.55,79.11L394.18,78.01L394.19,78L395.1,77.38L395.11,77.37L398.06,75.46L398.06,75.46L398.13,75.46L399.93,74.29L400.03,74.29L404.45,71.24L404.45,71.24L404.49,71.23L408.61,68.7L408.67,68.7L411.42,66.5L411.42,66.48L418.09,63.07L418.11,63.07L420.06,61.96L420.06,61.96L420.06,61.94L428.73,56.19L428.73,56.19L428.76,56.18L431.74,54.29L431.74,54.29L431.74,54.28L432.89,53.34L432.89,53.34L432.89,53.33L438.86,49.73L438.86,49.71L443.48,46.92L443.48,46.92L443.48,46.91L448.3,43.72L448.3,43.72L448.3,43.68L452.21,41.43L452.21,41.4L461.91,34.73L461.91,34.72L470.72,30.15L470.72,30.15L470.72,30.14L472.85,29.1L472.85,29.1L472.85,29.09L474.81,27.84L474.81,27.83L479.18,25.26L479.18,25.26L479.23,25.26L481.59,23.7L481.59,23.67L493.55,16.09L493.55,16.09L493.77,16.09L494,16" style="vector-effect: non-scaling-stroke; fill: none; stroke: rgb(1, 102, 30); stroke-opacity: 1; stroke-width: 2px; opacity: 1;"/></g><g class="points"/><g class="text"/></g></g></g><g class="overplot"/><path class="xlines-above crisp" d="M0,0" style="fill: none;"/><path class="ylines-above crisp" d="M0,0" style="fill: none;"/><g class="overlines-above"/><g class="xaxislayer-above"><g class="xtick"><text text-anchor="middle" x="0" y="436" transform="translate(212.20999999999998,0)" style="font-family: 'Times New Roman'; font-size: 15px; fill: rgb(13, 13, 13); fill-opacity: 1; white-space: pre; opacity: 1;">1.61252×10​<tspan style="font-size:70%" dy="-0.6em">18</tspan><tspan dy="0.42em">​</tspan></text></g><g class="xtick"><text text-anchor="middle" x="0" y="436" style="font-family: 'Times New Roman'; font-size: 15px; fill: rgb(13, 13, 13); fill-opacity: 1; white-space: pre; opacity: 1;" transform="translate(310.24,0)">1.612525×10​<tspan style="font-size:70%" dy="-0.6em">18</tspan><tspan dy="0.42em">​</tspan></text></g><g class="xtick"><text text-anchor="middle" x="0" y="436" style="font-family: 'Times New Roman'; font-size: 15px; fill: rgb(13, 13, 13); fill-opacity: 1; white-space: pre; opacity: 1;" transform="translate(408.27,0)">1.61253×10​<tspan style="font-size:70%" dy="-0.6em">18</tspan><tspan dy="0.42em">​</tspan></text></g><g class="xtick"><text text-anchor="middle" x="0" y="436" style="font-family: 'Times New Roman'; font-size: 15px; fill: rgb(13, 13, 13); fill-opacity: 1; white-space: pre; opacity: 1;" transform="translate(506.3,0)">1.612535×10​<tspan style="font-size:70%" dy="-0.6em">18</tspan><tspan dy="0.42em">​</tspan></text></g><g class="xtick"><text text-anchor="middle" x="0" y="436" style="font-family: 'Times New Roman'; font-size: 15px; fill: rgb(13, 13, 13); fill-opacity: 1; white-space: pre; opacity: 1;" transform="translate(604.3299999999999,0)">1.61254×10​<tspan style="font-size:70%" dy="-0.6em">18</tspan><tspan dy="0.42em">​</tspan></text></g></g><g class="yaxislayer-above"><g class="ytick"><text text-anchor="end" x="125" y="12.25" transform="translate(0,404)" style="font-family: 'Times New Roman'; font-size: 35px; fill: rgb(13, 13, 13); fill-opacity: 1; white-space: pre; opacity: 1;">0</text></g><g class="ytick"><text text-anchor="end" x="125" y="12.25" style="font-family: 'Times New Roman'; font-size: 35px; fill: rgb(13, 13, 13); fill-opacity: 1; white-space: pre; opacity: 1;" transform="translate(0,357.98)">100k</text></g><g class="ytick"><text text-anchor="end" x="125" y="12.25" style="font-family: 'Times New Roman'; font-size: 35px; fill: rgb(13, 13, 13); fill-opacity: 1; white-space: pre; opacity: 1;" transform="translate(0,311.96000000000004)">200k</text></g><g class="ytick"><text text-anchor="end" x="125" y="12.25" style="font-family: 'Times New Roman'; font-size: 35px; fill: rgb(13, 13, 13); fill-opacity: 1; white-space: pre; opacity: 1;" transform="translate(0,265.94)">300k</text></g><g class="ytick"><text text-anchor="end" x="125" y="12.25" style="font-family: 'Times New Roman'; font-size: 35px; fill: rgb(13, 13, 13); fill-opacity: 1; white-space: pre; opacity: 1;" transform="translate(0,219.92000000000002)">400k</text></g><g class="ytick"><text text-anchor="end" x="125" y="12.25" style="font-family: 'Times New Roman'; font-size: 35px; fill: rgb(13, 13, 13); fill-opacity: 1; white-space: pre; opacity: 1;" transform="translate(0,173.9)">500k</text></g><g class="ytick"><text text-anchor="end" x="125" y="12.25" style="font-family: 'Times New Roman'; font-size: 35px; fill: rgb(13, 13, 13); fill-opacity: 1; white-space: pre; opacity: 1;" transform="translate(0,127.88)">600k</text></g></g><g class="overaxes-above"/></g></g><g class="polarlayer"/><g class="smithlayer"/><g class="ternarylayer"/><g class="geolayer"/><g class="funnelarealayer"/><g class="pielayer"/><g class="iciclelayer"/><g class="treemaplayer"/><g class="sunburstlayer"/><g class="glimages"/><defs id="topdefs-78ffec"><g class="clips"/></defs><g class="layer-above"><g class="imagelayer"/><g class="shapelayer"/></g><g class="infolayer"><g class="g-gtitle"/><g class="g-xtitle"><text class="xtitle" x="373" y="463.8" text-anchor="middle" style="font-family: 'Open Sans', verdana, arial, sans-serif; font-size: 14px; fill: rgb(42, 63, 95); opacity: 1; font-weight: normal; white-space: pre;">Time Steps (ns)</text></g><g class="g-ytitle" transform="translate(24,0)"><text class="ytitle" transform="rotate(-90,12,260)" x="12" y="260" text-anchor="middle" style="font-family: 'Times New Roman'; font-size: 40px; fill: rgb(13, 13, 13); opacity: 1; font-weight: normal; white-space: pre;">Turnaround (in $)</text></g></g></svg>