<svg class="main-svg" xmlns="http://www.w3.org/2000/svg" xmlns:xlink="http://www.w3.org/1999/xlink" width="700" height="500" style="" viewBox="0 0 700 500"><rect x="0" y="0" width="700" height="500" style="fill: rgb(255, 255, 255); fill-opacity: 1;"/><defs id="defs-4066e3"><g class="clips"><clipPath id="clip4066e3xyplot" class="plotclip"><rect width="399" height="300"/></clipPath><clipPath class="axesclip" id="clip4066e3x"><rect x="137" y="0" width="399" height="500"/></clipPath><clipPath class="axesclip" id="clip4066e3y"><rect x="0" y="100" width="700" height="300"/></clipPath><clipPath class="axesclip" id="clip4066e3xy"><rect x="137" y="100" width="399" height="300"/></clipPath></g><g class="gradients"/><g class="patterns"/></defs><g class="bglayer"><rect class="bg" x="137" y="100" width="399" height="300" style="fill: rgb(229, 236, 246); fill-opacity: 1; stroke-width: 0;"/></g><g class="layer-below"><g class="imagelayer"/><g class="shapelayer"/></g><g class="cartesianlayer"><g class="subplot xy"><g class="layer-subplot"><g class="shapelayer"/><g class="imagelayer"/></g><g class="minor-gridlayer"><g class="x"/><g class="y"/></g><g class="gridlayer"><g class="x"><path class="xgrid crisp" transform="translate(206.64,0)" d="M0,100v300" style="stroke: rgb(255, 255, 255); stroke-opacity: 1; stroke-width: 1px;"/><path class="xgrid crisp" transform="translate(285.82,0)" d="M0,100v300" style="stroke: rgb(255, 255, 255); stroke-opacity: 1; stroke-width: 1px;"/><path class="xgrid crisp" transform="translate(364.99,0)" d="M0,100v300" style="stroke: rgb(255, 255, 255); stroke-opacity: 1; stroke-width: 1px;"/><path class="xgrid crisp" transform="translate(444.17,0)" d="M0,100v300" style="stroke: rgb(255, 255, 255); stroke-opacity: 1; stroke-width: 1px;"/><path class="xgrid crisp" transform="translate(523.3399999999999,0)" d="M0,100v300" style="stroke: rgb(255, 255, 255); stroke-opacity: 1; stroke-width: 1px;"/></g><g class="y"><path class="ygrid crisp" transform="translate(0,350.02)" d="M137,0h399" style="stroke: rgb(255, 255, 255); stroke-opacity: 1; stroke-width: 1px;"/><path class="ygrid crisp" transform="translate(0,300.01)" d="M137,0h399" style="stroke: rgb(255, 255, 255); stroke-opacity: 1; stroke-width: 1px;"/><path class="ygrid crisp" transform="translate(0,199.99)" d="M137,0h399" style="stroke: rgb(255, 255, 255); stroke-opacity: 1; stroke-width: 1px;"/><path class="ygrid crisp" transform="translate(0,149.99)" d="M137,0h399" style="stroke: rgb(255, 255, 255); stroke-opacity: 1; stroke-width: 1px;"/></g></g><g class="zerolinelayer"><path class="yzl zl crisp" transform="translate(0,250)" d="M137,0h399" style="stroke: rgb(255, 255, 255); stroke-opacity: 1; stroke-width: 2px;"/></g><path class="xlines-below"/><path class="ylines-below"/><g class="overlines-below"/><g class="xaxislayer-below"/><g class="yaxislayer-below"/><g class="overaxes-below"/><g class="plot" transform="translate(137,100)" clip-path="url(#clip4066e3xyplot)"><g class="scatterlayer mlayer"><g class="trace scatter trace5b0d61" style="stroke-miterlimit: 2; opacity: 1;"><g class="fills"/><g class="errorbars"/><g class="lines"><path class="js-line" d="M0,229.99L0.14,15L0.74,177.5L0.84,152.5L1.08,162.5L1.16,119.99L1.24,134.99L1.37,180.01L1.41,122.49L2.12,132.5L2.18,135L2.33,130L2.49,182.5L2.94,147.5L3.02,147.5L3.17,185L3.48,120.01L3.72,179.99L3.78,142.5L3.8,115L3.9,170L4.47,145L4.53,167.5L4.9,135L5.22,172.5L5.28,170L5.31,165L5.32,125L6.04,172.5L6.19,150L6.23,122.5L6.24,175L6.89,160L6.97,147.5L7.33,119.99L7.41,172.51L7.72,150L7.74,150L7.79,192.5L8.28,112.5L8.35,182.5L8.54,155L8.61,172.5L8.84,127.5L9.28,160L9.32,160L9.7,177.49L9.71,117.5L10.04,150L10.11,150L10.74,180L10.79,125L10.87,135L10.88,160L11.34,197.5L11.41,122.5L11.48,147.5L11.5,117.5L11.74,187.49L12.25,155L12.28,152.5L12.39,135L12.47,174.99L13.03,162.5L13.07,137.5L13.84,179.99L13.88,165L13.9,110.01L13.9,107.51L13.93,194.99L14.65,152.5L14.66,120.01L15.22,174.99L15.42,142.5L15.42,132.51L15.6,117.5L15.65,209.98L16.08,162.5L16.23,150L16.33,132.5L16.34,172.49L16.92,160L16.92,147.5L16.99,132.5L17.22,182.49L17.23,117.51L17.87,167.5L18.08,150L18.08,145L18.14,130L18.21,172.49L18.64,152.5L18.67,152.5L19.26,170L19.35,122.51L19.35,169.99L19.77,184.98L19.81,117.51L20.06,135.01L20.12,155L20.27,192.49L20.27,115.01L20.8,147.5L20.81,162.5L21.05,169.99L21.13,127.51L21.59,147.5L21.59,192.49L21.9,194.99L22.22,112.5L22.32,189.99L22.46,140L22.52,165L22.63,135L22.97,160L22.97,125.01L23.04,192.49L23.72,155L23.72,132.5L24.37,189.99L24.42,112.51L24.47,187.49L24.5,170L24.65,120.01L24.82,177.49L25.25,155L25.31,150L25.61,120.01L25.61,179.99L25.96,137.5L26.08,162.5L26.41,107.51L26.83,174.99L26.84,174.99L27,194.99L27.4,120.01L27.63,147.5L27.68,150L27.8,122.51L28.23,174.99L28.43,172.49L28.45,162.5L29.08,187.48L29.08,112.52L29.18,145L29.21,147.5L29.53,132.51L29.58,167.49L29.7,147.5L29.7,132.51L30.18,117.51L30.19,187.49L30.45,162.5L30.46,162.5L30.84,107.51L30.86,184.99L31.21,125.01L31.25,150L31.38,172.49L31.55,135L31.76,157.5L31.76,127.51L32.24,125.01L32.28,177.49L32.51,172.49L32.54,137.5L32.74,125.01L32.77,179.99L33.27,142.5L33.28,164.99L33.4,174.99L33.41,125.01L34.02,127.5L34.03,147.5L34.36,184.99L34.47,122.51L34.75,132.51L34.8,142.5L34.83,120.01L34.87,182.49L35.54,145L35.56,135L35.57,177.49L35.72,125.01L36.3,132.5L36.32,147.5L36.32,107.5L36.51,187.49L37.05,150L37.1,157.5L37.12,102.5L37.67,192.49L37.71,147.5L37.73,130L37.94,197.49L38.12,102.5L38.48,162.5L38.56,160L38.79,120L38.8,200L39.28,162.5L39.33,157.5L39.43,207.48L39.47,97.51L40.07,157.5L40.12,155L40.75,100.01L40.8,192.49L40.86,147.5L40.91,150L41.09,184.99L41.29,115.01L41.6,145L41.62,169.99L42.14,107.51L42.25,177.49L42.36,140L42.44,160L42.79,172.49L42.95,112.51L43.02,132.5L43.05,172.49L43.49,115.01L43.55,179.99L43.8,157.5L43.8,169.99L44.2,214.98L44.25,87.52L44.54,152.5L44.57,142.5L44.78,117.51L44.87,179.99L44.93,162.5L44.94,117.51L45.18,177.49L45.23,105.01L45.72,157.5L45.74,142.5L45.78,120L45.85,174.99L46.48,125L46.5,165L46.67,122.51L46.68,179.99L47.08,147.5L47.08,157.5L47.32,202.49L47.35,97.5L47.79,147.5L47.8,127.51L47.81,172.49L48.54,145L48.56,147.5L48.89,189.99L49.21,105.01L49.27,187.49L49.34,122.51L50.01,177.49L50.09,150L50.12,127.5L50.14,172.49L50.79,95.01L50.82,95.01L50.83,90.01L50.93,184.99L51.57,165L51.58,150L51.97,107.51L51.99,189.99L52.28,184.99L52.34,112.51L52.34,187.49L53.09,160L53.11,132.5L53.53,105.01L53.63,197.49L53.86,132.51L53.89,164.99L54.58,184.99L54.64,117.51L54.66,137.51L54.66,162.49L55.05,182.49L55.06,115.01L55.42,150L55.42,164.99L55.56,80.02L55.59,174.99L56.17,112.51L56.19,140.01L56.26,177.48L56.87,127.51L56.91,147.5L56.92,115.01L56.93,189.99L57.63,162.49L57.68,142.5L57.92,110.03L57.93,184.97L58.21,152.5L58.22,174.98L58.31,179.98L58.6,117.52L59,155L59,162.49L59.23,177.49L59.61,102.53L59.75,135.01L59.77,120.01L59.82,182.48L60.49,145L60.51,140.01L60.72,120.02L61.13,184.97L61.23,137.51L61.26,137.51L61.43,125.01L61.56,164.99L62,164.99L62.05,150L62.24,127.51L62.26,174.99L62.72,155L62.84,152.5L63.36,164.99L63.46,127.51L63.51,157.5L63.52,157.5L63.55,127.51L63.89,177.48L63.89,172.48L63.93,179.98L64.24,112.53L64.64,189.97L64.67,147.5L64.76,152.5L64.81,130.01L64.82,169.99L65.34,147.5L65.34,162.49L65.83,115.02L65.83,184.98L66.08,140.01L66.11,155L66.75,100.03L66.79,194.97L66.83,194.97L66.87,194.97L67.03,97.54L67.04,202.46L67.6,179.98L67.68,177.48L68.13,182.47L68.25,112.53L68.47,135.01L68.48,152.5L68.61,174.98L68.83,117.53L69.22,162.49L69.26,147.5L69.57,189.97L69.78,112.52L69.86,177.48L69.87,97.54L70.43,197.47L70.61,150L70.62,150L70.85,112.53L70.92,197.47L71.27,135.01L71.3,157.49L71.57,162.49L71.72,117.52L71.8,172.49L71.82,192.47L72.13,127.51L72.52,152.5L72.57,147.5L72.64,172.49L73.04,120.02L73.31,162.49L73.36,152.5L73.85,105.03L73.92,209.96L74.08,135.01L74.11,169.99L74.3,125.02L74.37,179.98L74.39,152.5L74.39,127.52L74.95,117.52L75.12,174.98L75.18,172.48L75.2,164.99L75.66,177.48L75.84,122.51L75.94,147.5L75.96,147.5L76.09,105.02L76.11,197.47L76.67,132.51L76.73,115.02L77.47,237.38L77.51,137.51L77.87,164.99L78.13,117.52L78.15,159.99L78.22,194.96L78.68,194.97L78.7,87.55L78.92,159.99L79.04,162.49L79.45,169.99L79.48,125.02L79.67,155L79.67,187.47L80.12,117.52L80.38,197.47L80.42,152.5L80.44,155L80.64,179.98L81.02,107.52L81.12,164.99L81.14,169.98L81.29,177.48L81.68,122.52L81.86,164.99L81.93,140.01L81.93,112.53L81.98,172.48L82.63,152.5L82.69,155L82.77,137.51L83.12,167.49L83.38,142.51L83.39,157.49L83.41,130.01L83.75,177.48L83.85,132.51L83.92,174.98L84.22,117.53L84.22,182.47L84.67,125.02L84.69,174.98L84.73,125.02L84.92,182.47L85.45,132.51L85.51,145L85.99,107.53L86.15,174.98L86.19,137.51L86.19,132.51L86.32,169.99L86.42,127.51L86.75,157.49L86.79,137.51L87.01,115.03L87.33,182.48L87.57,152.5L87.57,150L88.17,194.96L88.19,107.53L88.27,147.5L88.32,147.5L88.72,135.01L88.92,164.99L89.06,150L89.06,137.51L89.44,130.02L89.51,217.45L89.8,147.5L89.84,130.02L90.38,184.97L90.42,122.52L90.52,147.5L90.55,127.52L91.12,202.45L91.15,97.55L91.33,155L91.35,145L91.45,142.51L91.61,164.99L91.61,159.99L91.62,135.01L91.78,102.54L91.79,197.46L92.36,187.47L92.48,122.52L92.48,112.53L92.49,192.46L93.13,125.03L93.25,107.55L93.39,107.54L93.41,187.46L93.95,140.01L94.01,132.52L94.01,120.03L94.6,174.97L94.75,147.5L94.8,154.99L94.8,117.54L94.89,172.47L95.55,142.51L95.64,147.5L96.17,184.97L96.3,105.04L96.3,115.03L96.3,187.47L96.68,115.03L97.03,167.48L97.07,167.48L97.23,169.98L97.86,127.52L97.86,132.52L97.88,140.01L98.16,125.03L98.43,172.48L98.63,162.49L98.65,145.01L98.66,192.45L98.67,87.56L99.38,137.51L99.44,132.51L99.5,120.03L99.52,179.97L100.18,164.99L100.26,145.01L100.9,179.97L100.9,117.53L101.03,154.99L101.04,145.01L101.32,179.97L101.42,120.03L101.78,140.01L101.81,152.5L101.96,172.48L102.51,125.02L102.51,167.48L102.53,172.48L103.11,182.47L103.26,115.03L103.31,115.03L103.75,179.97L103.9,107.54L104.08,147.5L104.11,122.52L104.21,184.97L104.24,115.03L104.84,157.49L104.87,147.5L104.87,132.51L105,194.96L105.6,164.99L105.64,145L105.95,172.48L106.27,132.52L106.29,169.98L106.86,122.52L106.86,174.98L107.04,127.52L107.05,147.5L107.58,182.48L107.59,110.03L107.8,159.99L107.82,162.49L107.82,120.02L107.86,179.98L108.54,140.01L108.62,157.49L109.06,179.97L109.06,117.53L109.37,162.49L109.4,152.5L109.6,112.53L109.63,187.47L110.15,132.52L110.17,137.51L110.3,197.46L110.48,117.53L110.9,142.51L110.93,152.5L111.05,125.02L111.14,177.48L111.49,152.5L111.49,162.49L111.65,189.96L111.69,105.04L112.21,142.51L112.25,137.51L112.47,115.03L112.76,187.47L113,147.5L113.01,150L113.29,105.04L113.35,192.46L113.75,152.5L113.77,140.01L114.1,115.02L114.1,182.48L114.46,145L114.51,140.01L114.74,167.49L114.77,120.02L115.24,150L115.27,147.5L115.28,174.98L115.75,115.03L116.02,130.01L116.04,150L116.07,197.47L116.77,107.54L116.77,192.46L116.81,147.5L116.9,97.53L116.9,189.97L117.39,125.01L117.46,152.5L117.77,174.98L118.1,112.52L118.18,145L118.18,164.99L118.56,122.52L118.83,167.49L118.96,132.51L118.98,162.49L119.1,120.02L119.29,187.47L119.71,172.49L119.76,140.01L119.89,164.99L120.15,125.02L120.22,145L120.24,174.98L120.33,125.02L120.77,179.98L120.98,155L121.01,189.98L121.41,125.01L121.84,130.01L121.89,167.49L122.01,110.02L122.03,194.98L122.62,162.49L122.68,147.5L122.92,187.48L123.15,110.02L123.38,135.01L123.44,164.99L124.03,120.01L124.06,184.98L124.19,147.5L124.24,150L124.29,184.98L124.3,115.02L124.96,159.99L124.96,155L125.31,115.02L125.32,184.98L125.71,162.49L125.72,130.02L126.03,177.48L126.37,110.03L126.47,147.5L126.48,155L126.6,194.97L126.94,122.52L127.21,147.5L127.25,174.98L127.26,194.97L127.29,107.53L127.96,177.48L128.03,112.53L128.04,187.47L128.76,137.51L128.8,152.5L128.97,172.49L129.17,120.02L129.41,132.51L129.41,122.51L129.54,117.52L129.62,187.48L130.15,147.5L130.17,132.51L130.21,182.47L130.84,117.52L130.88,167.49L130.94,152.5L131.03,105.02L131.27,179.98L131.66,142.5L131.75,152.5L132.22,174.99L132.24,125.01L132.24,127.51L132.24,122.52L132.88,169.99L132.92,117.52L132.93,122.52L132.93,102.53L133.39,194.98L133.42,100.01L133.62,130L133.71,155L133.72,110L134.15,177.49L134.44,145L134.47,132.51L134.47,177.49L134.74,117.51L135.22,169.99L135.23,147.5L135.42,169.99L135.51,127.51L135.93,152.5L135.99,155L136.18,125L136.19,175L136.73,155L136.75,155L136.98,177.49L137.32,117.51L137.5,125.01L137.56,160L137.58,127.5L137.88,187.49L138.31,150L138.32,150L138.53,132.51L139.04,169.99L139.09,130.01L139.1,122.51L139.22,184.98L139.84,165L139.87,147.5L140.11,95.01L140.19,197.49L140.6,157.5L140.63,165L140.64,174.99L140.89,137.5L141.38,155L141.4,155L141.72,177.49L141.91,127.51L142.09,147.5L142.09,130.01L142.4,182.49L142.66,112.51L142.84,140L142.87,160L143.21,184.99L143.62,112.51L143.67,112.51L143.67,102.51L144.08,177.49L144.42,157.5L144.45,150L144.59,122.51L144.66,177.5L145,152.5L145,135L145.05,110.01L145.08,189.99L145.74,145L145.75,132.5L146.2,182.5L146.27,120L146.44,142.5L146.45,175L146.46,117.5L146.5,177.5L147.2,122.5L147.3,162.5L147.3,180L147.57,115L148.04,150L148.07,152.5L148.29,122.5L148.56,172.49L148.8,155L148.86,145L148.95,170L149,127.5L149.09,137.5L149.1,127.5L149.12,172.5L149.19,122.51L149.86,157.5L149.88,142.5L150.31,182.5L150.34,120L150.55,170L150.61,135L150.85,170L150.86,125L151.35,160L151.43,160L152,187.49L152.03,112.51L152.13,147.5L152.17,184.99L152.17,189.99L152.25,120.01L152.9,145L152.94,145L152.99,180L153.16,112.5L153.68,142.5L153.71,147.5L154.01,174.99L154.38,132.5L154.44,142.5L154.45,132.5L155.17,110L155.18,204.99L155.22,172.5L155.25,150L155.55,117.5L155.79,180L155.79,125L155.79,117.5L156.15,182.49L156.42,100.01L156.59,137.5L156.63,187.48L157.08,110.01L157.32,147.5L157.36,147.5L157.97,110.01L158.08,184.98L158.11,152.5L158.12,147.5L158.62,179.99L158.69,115.01L158.83,122.51L158.93,145L159.26,95.01L159.49,194.98L159.65,140L159.71,160L159.74,179.99L159.99,92.52L160.48,142.5L160.48,174.99L160.62,182.49L161.13,117.51L161.22,162.5L161.24,137.5L161.37,115.01L162.01,184.99L162.04,164.99L162.1,177.49L162.74,125.01L162.74,140L162.82,174.99L163.62,130.01L163.62,130.01L163.63,164.99L164.06,197.47L164.24,122.51L164.3,167.49L164.4,132.51L164.73,125.01L164.92,187.48L165.16,147.5L165.18,147.5L165.67,110.02L165.91,207.46L165.92,135.01L166.59,182.48L166.65,155L166.69,177.49L166.81,179.98L166.92,112.53L167.41,137.51L167.46,162.49L167.59,182.48L167.81,100.04L168.15,145L168.17,177.47L168.24,120.02L168.66,194.96L168.9,167.48L168.93,137.51L169.14,115.03L169.16,182.47L169.63,145L169.68,145L169.78,120.02L169.98,184.97L170.42,145L170.49,150L170.66,127.52L171.01,162.49L171.24,145L171.31,159.99L171.69,177.48L171.88,117.52L172.05,155L172.07,162.49L172.52,169.99L172.55,122.51L172.82,167.49L172.83,152.5L172.83,187.47L173.32,125.02L173.55,155L173.61,132.51L173.62,130.01L173.98,179.98L174.19,174.98L174.23,169.99L174.24,127.52L174.97,147.5L175,152.5L175.07,132.51L175.57,172.49L175.74,157.49L175.77,157.49L175.99,127.51L176.31,197.46L176.52,140.01L176.53,159.99L177.1,192.46L177.14,125.02L177.16,182.47L177.21,179.97L177.33,127.52L177.93,155L177.98,162.49L178.05,127.52L178.26,174.98L178.71,167.48L178.74,145.01L178.78,127.52L179.4,174.98L179.48,172.48L179.54,130.02L179.7,122.53L179.72,177.47L180.28,172.47L180.31,159.99L180.42,172.48L180.57,120.03L181.05,147.5L181.12,142.51L181.22,115.03L181.29,182.47L181.85,162.49L181.95,142.51L182.39,125.03L182.42,172.48L182.67,152.5L182.71,147.5L183.17,117.53L183.18,189.96L183.29,117.53L183.29,97.55L183.31,202.45L184.04,125.02L184.06,192.46L184.15,100.04L184.82,120.03L184.83,172.48L185.06,120.03L185.16,199.95L185.52,154.99L185.54,147.5L186.08,110.04L186.09,187.46L186.28,152.5L186.29,127.52L186.38,194.95L186.4,120.04L187.04,154.99L187.11,152.5L187.32,164.98L187.35,127.53L187.57,132.52L187.58,169.98L188.27,174.97L188.28,125.03L188.32,154.99L188.37,150L188.79,110.06L188.82,189.94L189.09,137.52L189.1,162.48L189.1,182.46L189.82,107.55L189.9,162.49L190.23,177.46L190.43,127.52L190.55,135.02L190.55,172.48L190.57,127.52L191.21,174.97L191.27,145L191.36,152.5L191.6,174.97L191.75,125.02L192.11,164.99L192.13,167.48L192.18,112.53L192.23,187.46L192.88,152.5L192.89,152.5L193.15,177.47L193.54,125.02L193.63,155L193.63,159.99L193.7,130.02L193.76,199.95L194.37,147.5L194.4,150L194.59,137.51L194.93,167.48L194.93,127.52L195.09,192.46L195.4,110.04L195.64,157.49L195.78,154.99L196.11,199.95L196.25,115.04L196.52,137.51L196.56,140.01L197,169.98L197.04,122.53L197.3,147.5L197.36,147.5L197.68,130.02L197.69,172.48L198.05,147.5L198.09,157.49L198.37,80.09L198.64,184.95L198.83,125.04L198.87,145.01L198.87,194.94L199.51,110.05L199.6,137.51L199.65,152.5L199.93,125.03L200.07,194.95L200.23,172.47L200.23,132.52L200.26,172.47L200.97,97.55L200.99,232.41L201.23,102.54L201.44,237.41L201.72,162.48L201.79,152.5L202.04,117.54L202.09,182.46L202.51,155L202.55,155L203.24,110.04L203.28,179.97L203.31,187.47L203.31,192.46L204,115.04L204,125.03L204.08,130.02L204.18,199.95L204.55,115.04L204.8,159.99L204.85,145.01L205.35,209.92L205.5,125.03L205.57,162.49L205.61,152.5L205.92,232.39L205.96,87.58L206.35,169.98L206.37,169.98L206.47,187.46L206.6,115.03L207.09,130.02L207.13,167.48L207.21,174.97L207.31,112.54L207.86,159.99L207.9,140.01L208.19,130.02L208.38,179.97L208.38,120.03L208.71,217.41L208.83,112.54L209.15,172.47L209.15,137.51L209.21,120.03L209.29,179.96L209.86,157.49L209.91,157.49L210.47,125.03L210.53,174.97L210.64,172.48L210.68,172.47L210.84,127.52L211.32,179.97L211.35,169.98L211.44,192.46L211.81,95.05L212.2,159.99L212.22,159.99L212.59,204.94L212.65,110.04L212.96,147.5L213,162.49L213.13,125.02L213.13,125.02L213.14,174.98L213.21,187.47L213.29,115.02L213.89,137.51L213.9,155L214.24,97.54L214.5,184.97L214.63,142.51L214.63,132.51L214.81,102.54L215.34,207.46L215.4,92.54L215.55,80.05L215.6,115.02L215.6,115.02L215.63,177.48L215.7,199.96L215.7,80.05L216.36,117.52L216.43,147.5L216.68,162.49L216.69,145L216.69,132.51L216.99,169.98L217.35,122.53L217.39,152.5L217.45,122.53L217.64,107.54L218.07,179.97L218.22,155L218.23,127.52L218.44,105.04L218.52,189.97L219.05,177.47L219.07,145L219.57,127.52L219.59,174.98L219.81,145L219.91,147.5L220.25,92.55L220.66,182.47L220.66,167.48L220.69,117.53L221.35,164.99L221.46,147.5L221.53,147.5L221.55,105.04L221.85,189.97L222.27,164.98L222.29,140.01L222.87,174.98L222.87,125.02L223,164.99L223,125.02L223.29,117.53L223.41,182.47L223.74,137.51L223.77,112.55L223.99,182.46L224.56,154.99L224.57,145.01L225.13,105.05L225.25,204.93L225.32,130.02L225.33,120.03L225.84,174.97L226.03,125.03L226.14,174.97L226.62,120.04L226.79,147.5L226.82,157.49L227.24,172.48L227.33,127.52L227.46,137.51L227.47,177.47L227.93,122.53L228.21,174.97L228.27,140.01L228.89,92.54L228.91,179.97L229.01,159.99L229.04,140.01L229.58,179.96L229.77,110.05L229.87,157.49L229.87,202.42L229.87,87.59L230.62,152.5L230.63,150L231.12,120.04L231.21,184.95L231.3,174.97L231.41,174.97L232.21,105.05L232.22,152.5L232.3,145.01L232.31,194.94L232.38,100.05L232.99,152.5L233.04,147.5L233.25,179.96L233.47,110.05L233.79,174.98L233.81,152.5L234.04,125.03L234.36,179.97L234.54,137.51L234.6,150L234.88,187.45L235.15,112.55L235.28,122.54L235.41,154.99L235.83,192.44L235.87,117.55L236.16,147.5L236.17,147.5L236.37,204.93L236.38,85.08L236.91,154.99L236.91,135.02L236.92,174.97L237.26,125.04L237.66,154.99L237.67,145.01L238.27,107.56L238.35,192.44L238.45,182.45L238.47,142.51L238.61,112.55L238.62,187.45L239.11,159.99L239.14,159.99L239.17,182.46L239.82,122.54L239.9,159.99L240.55,90.09L240.61,212.4L240.65,142.51L240.66,162.48L240.66,194.92L240.72,132.53L241.41,140.02L241.44,145.01L241.87,120.05L242.06,179.95L242.14,120.05L242.15,169.97L242.83,137.52L242.93,147.5L243.1,192.44L243.11,107.56L243.46,152.5L243.46,137.52L243.76,122.54L244.12,174.97L244.17,102.56L244.18,197.44L244.92,159.99L244.93,167.47L244.96,169.97L245.58,122.54L245.68,164.98L245.69,117.54L245.72,182.46L246.44,127.53L246.45,117.54L246.45,110.05L246.47,184.95L247.18,179.96L247.21,142.51L247.38,120.04L247.39,179.96L247.9,135.02L247.91,164.98L248.1,107.56L248.14,212.41L248.67,135.02L248.67,162.48L249.11,127.53L249.13,169.97L249.42,157.49L249.45,147.5L249.75,115.05L250.2,182.45L250.22,122.54L250.26,177.46L250.65,105.06L250.66,189.95L250.69,199.93L250.87,115.04L251.24,147.5L251.24,127.53L251.88,167.48L251.98,162.48L252,137.52L252.35,187.44L252.52,117.55L252.74,162.48L252.77,152.5L253.17,112.56L253.28,172.46L253.49,154.99L253.53,125.04L253.99,110.05L254.05,192.43L254.27,157.49L254.3,154.99L254.77,182.46L254.96,117.54L255,157.49L255.06,152.5L255.55,120.05L255.74,189.94L255.77,152.5L255.81,112.55L255.88,199.93L256.56,177.46L256.62,167.48L257.05,117.54L257.08,187.45L257.34,140.01L257.4,152.5L257.47,115.05L257.93,212.41L258.13,169.98L258.17,145.01L258.45,184.95L258.62,115.05L258.92,152.5L258.94,135.02L258.98,120.04L259.43,182.45L259.69,150L259.7,162.48L260.13,177.46L260.2,112.55L260.42,147.5L260.48,147.5L260.7,120.05L261.12,192.44L261.21,142.51L261.23,115.05L261.72,192.44L262,164.98L262.01,122.54L262.71,117.54L262.73,182.46L262.8,179.96L262.88,187.46L262.95,115.04L262.97,105.05L263.18,184.96L263.72,147.5L263.75,140.01L263.93,117.54L264.35,194.94L264.47,140.01L264.51,145.01L264.59,187.46L264.88,115.03L265.25,145.01L265.27,147.5L265.35,172.48L265.44,112.53L265.92,164.99L265.94,130.02L266.05,179.97L266.1,117.53L266.69,167.48L266.7,167.48L267.09,187.45L267.11,112.55L267.45,152.5L267.47,147.5L267.58,167.48L267.58,132.52L268.22,147.5L268.22,142.51L268.83,174.98L268.85,125.02L268.97,125.02L268.98,125.02L269.34,187.47L269.35,107.53L269.72,182.47L269.77,150L270.27,182.47L270.41,117.53L270.44,117.53L270.55,177.47L270.79,127.52L271.29,164.98L271.32,157.49L271.32,172.48L271.78,127.52L272.06,152.5L272.12,152.5L272.31,179.97L272.32,110.04L272.92,125.03L272.92,142.51L272.94,120.03L273.33,187.46L273.67,140.01L273.75,140.01L274.28,120.03L274.28,179.97L274.51,147.5L274.54,147.5L274.79,120.03L275.09,184.96L275.18,140.01L275.2,132.52L275.25,174.97L275.59,125.03L275.95,150L275.98,157.49L276.47,115.04L276.57,177.47L276.71,172.48L276.72,177.47L276.74,107.54L277.47,150L277.51,152.5L277.86,207.43L277.92,107.55L278.2,145.01L278.28,150L278.31,132.52L278.78,182.46L279,152.5L279.11,140.01L279.19,172.47L279.19,120.04L279.69,142.51L279.7,154.99L280.18,197.45L280.33,95.06L280.35,105.05L280.4,125.03L280.43,212.43L280.86,115.04L281.12,154.99L281.16,169.98L281.17,122.53L281.85,179.96L281.91,130.02L281.92,164.98L282.07,194.94L282.1,87.57L282.68,135.02L282.69,169.98L283.25,199.94L283.4,112.55L283.43,125.03L283.45,172.47L284.13,184.96L284.17,117.53L284.2,142.51L284.23,117.54L284.41,192.44L285.03,159.99L285.08,157.49L285.35,127.53L285.55,174.97L285.72,174.97L285.73,174.97L286.3,187.45L286.5,122.53L286.5,122.53L286.58,127.53L287.03,110.05L287.08,184.96L287.35,152.5L287.36,152.5L287.62,132.52L287.98,192.45L288.11,132.52L288.12,164.98L288.19,184.95L288.75,117.54L288.85,179.96L288.92,152.5L289.65,179.97L289.65,120.03L289.65,125.03L289.78,184.96L289.8,189.95L290.29,112.54L290.35,187.45L290.35,217.42L290.36,82.58L291.05,154.99L291.12,199.93L291.12,115.04L291.86,152.5L291.91,174.96L292.35,187.45L292.67,100.06L292.68,179.96L292.99,117.54L293.16,182.46L293.4,140.01L293.4,169.98L293.48,187.45L293.5,112.55L293.81,177.46L293.85,177.46L294.59,125.03L294.68,147.5L294.94,177.47L295.03,127.53L295.41,154.99L295.45,154.99L295.58,172.47L295.92,132.52L295.97,152.5L295.99,197.43L296.25,115.05L296.73,135.02L296.82,145.01L297.01,174.96L297.02,132.52L297.2,164.98L297.2,135.02L297.29,194.94L297.47,132.52L297.69,147.5L297.69,127.53L298.37,115.05L298.4,184.95L298.47,164.98L298.49,162.48L298.78,187.44L298.86,122.54L299.24,142.51L299.26,152.5L299.81,107.58L299.83,192.42L300,135.02L300.04,162.48L300.05,117.55L300.09,174.96L300.79,147.5L300.8,147.5L301.45,169.97L301.48,120.05L301.59,167.47L301.8,182.45L302.31,117.55L302.31,122.54L302.39,117.55L302.7,174.96L303.25,152.5L303.27,132.52L303.35,125.03L304.03,219.92L304.04,72.56L304.51,167.48L304.77,164.98L304.8,154.99L305.22,127.52L305.26,169.98L305.56,159.99L305.56,132.52L305.85,179.97L306.3,154.99L306.34,125.03L306.53,202.43L306.84,107.55L307.01,174.97L307.1,152.5L307.36,187.44L307.47,97.57L307.84,159.99L307.84,204.92L307.87,82.59L307.94,207.42L308.56,147.5L308.66,110.05L308.96,214.91L309.05,95.07L309.41,125.03L309.5,172.47L309.78,100.07L309.8,197.43L310.21,140.01L310.27,159.98L310.6,177.46L310.9,122.54L311.01,122.54L311.03,179.96L311.63,184.95L311.64,105.06L311.7,184.95L311.83,112.55L312.34,197.44L312.61,177.47L312.65,107.55L312.82,192.45L313.39,152.5L313.4,137.51L313.95,222.45L314,80.04L314.15,152.5L314.17,147.5L314.37,120.02L314.37,174.98L314.9,137.51L314.94,152.5L315.47,100.04L315.54,194.95L315.69,167.48L315.75,137.52L316.29,172.47L316.33,105.06L316.46,164.98L316.58,159.99L316.91,122.53L317.31,172.48L317.36,157.49L317.49,110.04L317.71,199.94L318.08,137.51L318.12,147.5L318.54,197.44L318.59,107.54L318.87,130.02L318.89,169.98L319.14,177.47L319.58,110.04L319.61,115.04L319.72,125.03L319.72,120.03L319.81,177.47L320.45,152.5L320.48,147.5L320.51,127.52L320.61,167.48L321.2,145L321.25,145L321.48,172.48L321.64,127.52L321.9,162.49L322.04,140.01L322.09,117.53L322.18,184.97L322.72,169.98L322.78,130.02L323.36,189.96L323.45,107.54L323.52,155L323.54,142.51L324.19,189.96L324.2,90.06L324.28,167.48L324.28,127.52L324.29,184.96L324.3,105.05L325.03,142.51L325.04,127.52L325.1,172.48L325.46,102.55L325.75,145L325.84,145L326.53,137.51L326.56,167.49L326.58,132.51L326.64,187.47L327.21,122.53L327.29,145L327.33,152.5L327.93,164.99L327.94,135.01L327.95,159.99L327.95,197.47L328.42,112.52L328.68,137.51L328.71,162.49L328.98,130.02L329.26,169.98L329.44,132.51L329.5,157.49L329.51,125.02L330.14,174.98L330.24,157.49L330.25,169.99L330.33,110.03L330.64,189.97L330.97,135.01L331.01,140.01L331.03,174.98L331.09,120.02L331.75,150L331.82,147.5L331.97,169.98L332,132.51L332.54,145L332.58,152.5L332.94,115.03L333.07,179.97L333.33,159.99L333.34,159.99L334.01,174.98L334.03,125.02L334.15,127.51L334.15,137.51L334.74,182.47L334.74,117.53L334.9,159.99L334.94,152.5L335.01,199.95L335.09,80.05L335.69,152.5L335.7,147.5L335.91,125.02L336.12,184.97L336.21,142.51L336.23,132.52L336.86,184.97L336.88,115.03L336.92,115.03L336.96,120.02L337.34,172.48L337.61,87.57L337.69,157.49L337.72,184.96L337.73,105.05L338.32,184.97L338.46,172.48L338.49,159.99L339.12,177.47L339.18,112.53L339.25,132.52L339.27,142.51L339.7,174.98L339.76,120.02L340,152.5L340.03,150L340.17,112.52L340.38,199.96L340.78,145L340.79,147.5L341.3,174.98L341.38,105.05L341.52,140.01L341.59,152.5L341.7,184.97L341.71,97.55L342.2,135.01L342.24,105.05L342.97,187.45L343.08,140.01L343.1,97.56L343.1,202.44L343.82,127.52L343.82,172.48L344.07,189.96L344.48,120.03L344.55,164.98L344.6,154.99L344.92,115.03L345.2,192.45L345.34,159.99L345.36,167.48L345.38,182.47L345.39,125.02L346.04,162.49L346.1,150L346.19,177.47L346.82,117.53L346.83,157.49L346.87,142.51L347.15,197.44L347.3,110.04L347.57,157.49L347.57,127.53L348.08,125.03L348.14,194.94L348.29,172.47L348.35,152.5L348.54,115.04L348.64,179.96L349.06,125.03L349.12,152.5L349.16,130.02L349.68,187.45L349.8,145.01L349.81,187.44L350.56,117.54L350.58,122.53L351.11,187.45L351.16,100.06L351.33,150L351.38,152.5L351.56,164.98L351.97,120.04L352.08,152.5L352.11,172.47L352.14,120.04L352.15,179.96L352.83,162.48L352.84,162.48L352.92,117.55L353.58,137.52L353.63,137.52L354.16,132.52L354.18,174.97L354.34,147.5L354.41,150L354.71,125.03L354.77,167.48L355.12,152.5L355.16,147.5L355.3,192.45L355.46,117.53L355.91,162.49L355.95,162.49L356.48,177.47L356.62,120.03L356.69,137.51L356.71,145.01L356.94,122.53L356.94,177.47L357.45,147.5L357.5,152.5L358.13,189.96L358.14,107.55L358.25,152.5L358.31,152.5L358.34,199.95L358.37,100.05L358.97,169.98L359.02,154.99L359.06,174.97L359.06,120.03L359.75,132.52L359.81,137.51L360.47,130.02L360.56,174.97L360.62,172.47L361.34,130.02L361.37,174.97L361.38,174.97L361.41,120.03L361.43,187.46L362.13,159.99L362.15,159.99L362.36,120.03L362.37,174.97L362.59,159.99L362.59,164.98L362.85,192.45L363.16,107.55L363.32,142.51L363.35,137.51L363.36,184.96L364.07,115.04L364.09,155L364.11,155L364.2,97.55L364.25,197.45L364.83,172.48L364.85,127.52L364.95,107.54L365.51,207.45L365.59,157.49L365.61,137.51L365.83,199.96L366.1,122.52L366.36,140.01L366.42,142.51L366.63,132.52L366.76,162.49L366.96,140.01L366.96,164.98L367.04,177.47L367.23,117.53L367.31,120.03L367.33,179.97L367.65,110.03L367.78,197.46L368.05,142.51L368.1,152.5L368.25,174.98L368.36,122.52L368.46,155L368.49,169.99L368.82,184.97L368.85,105.04L369.23,155L369.26,140.01L369.38,189.97L369.46,110.03L370.01,162.49L370.02,137.51L370.5,174.98L370.57,110.03L370.71,132.51L370.76,132.51L370.77,189.97L371.43,122.52L371.5,145L371.55,132.52L372.05,112.54L372.05,192.46L372.3,147.5L372.31,130.02L372.55,117.53L373.03,182.47L373.04,177.48L373.06,115.03L373.07,189.97L373.1,110.03L373.81,157.49L373.82,150L373.98,130.01L374.2,172.48L374.2,155L374.21,127.51L374.57,172.48L374.92,115.03L374.94,159.99L374.99,159.99L375.65,192.46L375.69,122.52L375.74,150L375.75,147.5L375.81,182.47L376.07,110.03L376.34,142.51L376.41,140.01L376.63,125.02L376.88,172.48L377.12,152.5L377.19,145L377.27,172.48L377.28,125.02L377.75,147.5L377.76,137.51L378.21,174.98L378.35,117.53L378.51,145L378.53,145L379.13,120.03L379.13,179.97L379.28,147.5L379.29,152.5L379.41,174.98L379.42,115.03L380.05,147.5L380.06,150L380.18,130.02L380.42,177.48L380.8,164.99L380.82,147.5L381.09,95.04L381.52,184.97L381.57,140.01L381.58,169.98L381.69,184.98L382.14,110.03L382.32,145L382.36,147.5L382.43,97.53L382.48,182.48L383.01,130.01L383.04,130.01L383.3,102.55L383.41,177.47L383.79,145L383.8,147.5L383.98,189.97L384.38,117.53L384.55,147.5L384.58,159.99L384.67,202.46L384.81,92.54L385.31,137.51L385.35,140.01L385.58,172.48L385.68,112.52L386.09,162.49L386.11,147.5L386.18,120.03L386.21,167.49L386.21,164.99L386.22,194.96L386.62,107.54L386.97,152.5L386.98,145L387.52,182.47L387.56,117.53L387.73,117.53L387.74,182.47L388.14,107.54L388.47,192.46L388.47,147.5L388.49,192.45L388.53,130.02L388.67,192.46L389.22,162.49L389.36,145.01L389.56,217.43L390.08,77.56L390.13,117.53L390.3,202.44L390.39,112.54L390.89,164.99L390.91,105.04L390.99,197.45L391.58,155L391.6,132.52L391.95,117.53L391.98,182.47L392.35,142.51L392.37,145L392.96,125.02L393.03,177.47L393.12,164.98L393.14,164.98L393.46,174.98L393.53,125.02L393.91,145L393.91,155L394.33,179.97L394.44,120.03L394.66,152.5L394.73,127.52L395.34,174.97L395.48,162.48L395.49,117.54L395.83,182.47L395.97,112.54L396.23,147.5L396.25,152.5L396.46,127.52L396.68,184.96L396.98,157.49L397.05,137.51L397.48,110.04L397.55,194.95L397.8,152.5L397.82,147.5L398.09,122.53L398.18,192.46L398.26,135.01L398.31,135.01L398.81,127.52L398.84,179.97L399,147.5" style="vector-effect: non-scaling-stroke; fill: none; stroke: rgb(99, 110, 250); stroke-opacity: 1; stroke-width: 2px; opacity: 1;"/></g><g class="points"/><g class="text"/></g><g class="trace scatter trace4921bb" style="stroke-miterlimit: 2; opacity: 1;"><g class="fills"/><g class="errorbars"/><g class="lines"><path class="js-line" d="M0,70.01L0.14,285L0.74,162.5L0.84,147.5L1.08,137.5L1.16,180.01L1.24,142.5L1.37,119.99L1.41,180.01L2.12,167.5L2.18,167.5L2.29,177.5L2.49,117.5L2.92,152.5L2.94,152.5L3.12,172.5L3.12,172.5L3.14,127.5L3.17,115L3.48,179.99L3.61,135L3.66,172.5L3.72,120.01L4.41,160L4.46,157.5L4.57,137.5L4.9,165L5.2,155L5.22,147.5L5.22,127.5L5.32,175L5.96,160L6.04,160L6.23,125L6.75,180L6.79,140L6.81,140L7.32,130L7.37,180.01L7.38,147.5L7.41,117.49L7.75,180L7.79,107.5L8.14,145L8.18,130L8.28,187.5L8.35,117.5L8.91,145L8.95,152.5L9.44,167.5L9.48,132.5L9.6,137.5L9.64,165L9.7,122.51L9.71,177.49L10.39,160L10.4,140L10.79,177.5L11.07,125L11.14,155L11.23,137.5L11.34,102.5L11.41,190L11.98,142.5L12,142.5L12.37,135L12.44,165L12.7,152.5L12.74,135L12.82,174.99L13.41,135L13.53,145L13.9,192.49L14.23,97.51L14.28,157.5L14.32,142.5L15.01,174.99L15.05,130L15.07,145L15.16,155L15.22,125.01L15.39,169.99L15.58,165L15.58,174.99L15.58,187.49L15.65,90.02L16.33,142.5L16.34,155L16.66,132.51L16.99,167.5L17.11,145L17.21,160L17.22,117.51L17.23,182.49L17.96,155L18.04,145L18.14,170L18.18,135L18.71,147.5L18.77,147.5L18.92,174.99L19.26,125.01L19.5,160L19.53,145L19.88,107.51L20.27,194.99L20.29,140L20.35,172.5L20.38,125L21.04,160L21.05,140L21.63,187.5L21.79,115.01L21.85,147.5L21.86,187.49L22.32,110.01L22.52,135L22.63,137.5L22.97,174.99L23.04,107.51L23.36,125.01L23.41,157.5L23.6,172.5L24.06,117.51L24.13,127.5L24.15,169.99L24.38,110.01L24.42,187.49L24.91,145L24.96,147.5L25.61,179.99L25.61,120.01L25.68,160L25.74,155L26.41,132.5L26.41,192.49L26.44,135L26.52,155L27,105.01L27.17,167.49L27.32,137.5L27.32,162.5L27.4,179.99L27.75,137.5L28.09,142.5L28.15,152.5L28.23,125.01L28.31,177.49L28.9,140L28.98,140L29.08,112.52L29.08,187.48L29.71,145L29.74,145L30.18,182.49L30.19,112.51L30.49,147.5L30.52,152.5L30.84,192.49L30.86,107.51L31.21,152.5L31.21,174.99L31.99,122.51L32.01,167.49L32.5,174.99L32.78,120.01L32.78,120.01L32.8,147.5L32.86,115.01L33.41,174.99L33.55,174.99L33.6,155L33.9,174.99L34.35,117.51L34.36,117.51L34.36,115.01L34.83,179.99L35.09,152.5L35.17,165L35.25,117.51L35.26,179.99L35.92,152.5L35.94,152.5L36.24,127.5L36.34,197.5L36.45,175L36.5,125L36.5,187.49L36.66,100L37.25,145L37.26,177.5L37.94,102.51L37.95,197.49L38.01,165L38.02,165L38.04,102.5L38.12,197.5L38.77,122.5L38.78,167.5L39.43,92.52L39.46,207.48L39.53,179.99L39.54,152.5L39.61,175L40.25,127.5L40.29,152.5L40.29,165L40.75,199.99L40.8,107.51L41.02,162.5L41.06,132.51L41.29,184.99L41.49,132.5L41.8,155L41.85,137.5L42.14,192.49L42.25,122.51L42.56,137.5L42.56,132.51L42.95,187.49L43.07,127.5L43.26,145L43.33,152.5L43.8,117.51L43.83,192.48L43.99,152.5L44.01,182.49L44.25,85.02L44.25,214.98L44.73,152.5L44.78,147.5L44.87,120.01L45.23,194.99L45.52,175L45.54,175L45.54,184.99L45.82,112.5L46.29,157.5L46.3,157.5L46.68,120.01L46.72,179.99L46.91,135L47.07,155L47.32,97.51L47.35,204.99L47.8,147.5L47.81,152.5L47.86,169.99L47.86,130.01L48.56,155L48.57,152.5L48.89,105.01L49.21,194.99L49.27,112.51L49.34,177.49L50.01,122.51L50.09,152.5L50.12,145L50.43,132.5L50.82,209.98L50.91,199.99L50.93,115.01L50.95,184.99L51.62,110.01L51.64,142.5L51.71,155L51.99,107.51L52.06,192.49L52.34,187.49L52.34,112.51L52.99,179.99L53.11,177.5L53.13,105.01L53.53,194.99L53.63,102.51L53.86,172.49L53.89,132.51L54.58,115.01L54.64,184.99L54.66,162.49L54.66,137.51L55,194.98L55.05,117.51L55.4,135L55.42,135L55.45,179.99L55.56,120L56.14,167.49L56.17,135.01L56.19,115.02L56.56,174.99L56.89,152.5L56.91,164.99L56.93,110.01L57.48,169.99L57.63,137.51L57.68,147.5L57.84,184.97L57.9,120.02L58.43,152.5L58.43,135.01L58.48,125.02L58.53,197.47L59,132.51L59.03,167.49L59.61,197.47L59.82,117.52L59.88,122.52L59.88,177.48L60.63,137.51L60.66,147.5L60.75,120.02L60.77,179.98L60.83,177.48L60.86,117.52L61.07,110.02L61.26,182.48L61.63,140.01L61.64,137.51L62.11,130.01L62.24,172.49L62.26,160L62.31,130.01L62.52,125.02L62.56,172.49L63.02,140.01L63.07,159.99L63.47,174.98L63.58,125.02L63.81,147.5L63.83,152.5L64.24,187.47L64.25,112.53L64.55,137.51L64.59,140.01L64.64,107.53L64.81,169.99L65.1,155L65.11,155L65.83,184.98L65.83,115.02L65.86,115.02L65.88,142.5L66.01,120.02L66.41,184.97L66.61,132.51L66.71,177.48L67.03,202.46L67.04,97.54L67.44,147.5L67.48,152.5L68.12,184.97L68.13,115.03L68.21,140.01L68.24,130.02L68.54,122.52L68.83,182.47L68.95,159.99L68.99,130.01L69.57,110.03L69.72,194.97L69.73,157.5L69.78,142.5L69.87,202.46L70.43,102.53L70.45,162.49L70.46,162.49L70.85,187.47L70.96,102.53L71.23,147.5L71.23,152.5L71.72,182.48L71.82,107.53L71.98,130.02L72.02,145L72.16,120.02L72.63,172.48L72.74,147.5L72.74,127.51L73.04,179.98L73.07,120.02L73.51,155L73.58,145L73.85,194.97L73.92,90.04L74.26,122.52L74.27,174.98L74.37,120.02L74.95,192.47L75,140.01L75.01,174.98L75.16,122.52L75.78,145L75.8,147.5L76.06,194.97L76.11,97.53L76.48,142.51L76.48,137.51L76.73,187.48L76.86,117.52L77.2,137.51L77.29,159.99L77.38,182.47L77.44,70.09L78.01,152.5L78.05,152.5L78.13,182.48L78.15,117.52L78.67,147.5L78.68,105.03L78.7,212.45L79.41,137.51L79.45,130.01L79.69,110.04L80.12,182.48L80.15,142.5L80.17,112.52L80.38,102.53L80.97,174.99L81.02,132.51L81.02,122.52L81.08,177.48L81.72,169.98L81.78,169.98L81.93,187.47L81.98,125.02L82.48,132.51L82.58,135.01L82.63,167.49L82.63,132.51L83.35,159.99L83.37,159.99L83.75,122.52L83.75,177.48L84.16,125.02L84.22,162.49L84.22,182.47L84.22,117.53L84.94,145L84.98,142.51L85.69,125.02L85.72,177.48L85.74,147.5L86.03,127.52L86.07,179.98L86.42,159.99L86.42,169.99L86.52,127.51L87.01,184.97L87.17,152.5L87.21,145L87.33,117.52L87.78,182.48L87.97,159.99L88.06,147.5L88.17,105.04L88.19,194.96L88.81,162.49L88.87,162.49L89.44,169.98L89.51,100.03L89.66,127.52L89.84,169.98L90.38,135.01L90.38,120.02L90.42,184.97L91.12,97.55L91.15,202.45L91.79,102.54L91.86,115.03L91.94,189.96L92.17,194.96L92.26,100.05L92.74,142.51L92.76,140.01L93.13,87.57L93.26,202.43L93.48,154.99L93.51,145.01L93.55,117.53L94.01,187.46L94.25,169.98L94.29,162.49L94.6,117.54L94.8,182.46L95.03,125.02L95.08,145L95.18,130.02L95.22,169.98L95.82,142.51L95.82,120.03L96.3,194.96L96.3,105.04L96.58,155L96.61,147.5L96.63,112.53L96.68,184.97L97.23,142.51L97.23,130.02L97.86,172.48L98.03,152.5L98.08,152.5L98.66,107.55L98.67,212.44L98.8,145L98.81,169.98L98.87,212.44L99.52,120.03L99.56,120.03L99.59,152.5L100,177.47L100.01,122.53L100.36,142.51L100.39,142.51L100.83,117.53L100.9,182.47L101.12,152.5L101.16,147.5L101.32,120.03L101.42,179.97L101.91,145.01L101.91,157.49L102.51,174.98L102.53,127.52L102.66,152.5L102.69,162.49L103.11,117.53L103.26,184.97L103.44,155L103.46,137.51L103.9,192.46L104.11,115.03L104.21,115.03L104.23,115.03L104.24,184.97L104.96,127.52L104.99,142.51L105,105.04L105.74,164.99L105.75,135.01L105.95,127.52L106.43,179.97L106.47,145L106.5,147.5L106.86,177.48L106.86,122.52L107.24,147.5L107.26,147.5L107.39,122.52L107.53,179.98L107.54,120.02L107.58,117.52L107.58,182.48L108.29,162.49L108.33,162.49L108.41,135.01L109.06,182.47L109.07,142.51L109.1,157.49L109.6,187.47L109.63,112.53L109.83,157.49L109.88,142.51L110.3,102.54L110.48,182.47L110.6,162.49L110.64,157.49L110.84,115.03L111.05,177.48L111.4,142.51L111.42,157.49L111.65,110.04L111.69,194.96L112.17,127.52L112.21,142.51L112.47,184.97L112.76,112.53L112.89,132.52L112.97,147.5L113.29,194.96L113.3,105.04L113.44,162.49L113.63,162.49L114.1,117.52L114.15,187.48L114.38,164.99L114.39,140.01L114.52,125.01L114.92,179.98L115.1,157.49L115.16,152.5L115.38,184.98L115.77,115.03L115.88,169.98L115.96,157.49L116.04,189.97L116.38,115.02L116.74,145L116.77,174.98L116.9,202.47L116.9,97.53L117.49,140.01L117.65,155L117.77,120.02L118.1,187.48L118.4,152.5L118.44,152.5L118.56,177.48L118.98,132.51L119.15,145L119.2,147.5L119.29,112.53L119.3,187.47L119.89,135.01L119.94,164.99L120.15,174.98L120.69,120.02L120.69,132.51L120.71,157.49L121.05,122.51L121.41,174.99L121.47,137.51L121.47,164.99L122.01,189.98L122.03,100.03L122.24,145L122.3,155L122.78,177.48L122.92,112.52L123.03,142.5L123.04,167.49L123.12,130.01L123.15,189.98L123.79,135.01L123.8,142.5L124.06,115.02L124.3,194.97L124.55,160L124.58,145L124.92,122.52L125.02,177.48L125.11,157.49L125.17,125.02L125.31,184.98L125.32,115.02L125.91,137.51L125.95,132.51L126.37,192.47L126.64,122.51L126.69,147.5L126.72,169.99L127.26,105.03L127.29,192.47L127.47,162.49L127.54,162.49L127.96,112.53L128.03,187.47L128.26,162.49L128.32,162.49L128.38,167.48L128.48,122.52L128.51,177.48L128.97,127.51L129.17,179.98L129.27,132.51L129.33,157.49L129.62,112.52L129.63,187.48L130.03,152.5L130.08,147.5L130.17,169.99L130.2,125.02L130.74,130.01L130.75,162.49L131.05,117.52L131.11,187.47L131.48,157.5L131.53,152.5L131.56,167.49L131.59,127.51L132.12,157.5L132.13,140.01L132.14,125.01L132.24,177.48L132.88,130.01L132.91,169.99L132.96,107.52L133.42,199.99L133.62,170L133.71,170L133.79,122.5L134.39,172.49L134.47,122.51L134.49,155L134.61,130.01L134.77,187.49L135.23,157.5L135.27,140L135.34,132.51L135.67,179.99L136.02,145L136.05,145L136.12,177.5L136.19,125L136.81,172.49L136.83,152.5L136.98,122.51L137,177.49L137.3,132.51L137.32,167.49L137.32,182.49L137.88,112.51L138.07,155L138.09,147.5L138.14,172.49L138.78,127.51L138.84,155L138.86,152.5L139.09,122.51L139.1,177.49L139.61,137.5L139.66,142.5L140.11,204.99L140.19,95.01L140.36,177.49L140.42,167.5L140.44,175L140.64,125.01L141.12,155L141.14,155L141.72,122.51L141.79,169.99L141.87,165L141.91,147.5L142.4,117.51L142.41,179.99L142.66,147.5L142.71,130.01L143.21,115.01L143.23,184.99L143.47,157.5L143.51,142.5L143.67,197.49L144.08,122.51L144.12,177.49L144.33,112.51L144.6,182.49L144.88,157.5L144.92,157.5L145.05,189.99L145.08,110.01L145.67,135L145.73,152.5L146.06,185L146.2,117.5L146.45,157.5L146.46,182.5L146.55,120L147.2,155L147.2,177.5L147.57,185L147.59,120L147.98,142.5L148.01,157.5L148.27,179.99L148.56,127.51L148.74,155L148.77,157.5L149.13,127.5L149.19,177.49L149.48,152.5L149.55,132.5L150.11,122.51L150.19,177.49L150.31,167.5L150.31,132.5L150.31,117.5L150.31,182.5L151.03,142.5L151.07,155L151.52,190L151.78,115L151.8,152.5L151.86,152.5L152.03,187.49L152.17,110.01L152.53,140L152.64,157.5L152.99,120L153.16,187.5L153.37,137.5L153.39,162.5L153.65,125L154.09,155L154.12,165L154.31,125L154.74,172.5L154.74,170L154.75,172.5L155.17,197.49L155.18,95.01L155.46,175L155.55,182.5L155.79,187.5L156.09,110L156.3,135L156.35,165L156.42,199.99L156.63,112.52L157.09,179.99L157.12,179.99L157.92,122.51L157.93,162.49L157.97,189.99L158.05,110.01L158.62,152.5L158.69,184.99L159,107.51L159.24,207.49L159.44,110.01L159.45,189.99L159.48,117.51L159.99,207.48L160.21,152.5L160.24,125.01L160.59,174.99L160.99,155L161.02,137.51L161.39,184.99L161.72,117.51L161.75,117.51L161.79,182.49L162.01,115.01L162.55,142.5L162.59,157.5L162.74,174.99L162.82,125.01L163.29,142.5L163.35,147.5L163.63,125.01L163.88,172.49L164.06,157.5L164.08,115.02L164.2,174.99L164.83,147.5L164.91,152.5L165.1,174.99L165.64,107.52L165.66,152.5L165.67,187.48L165.67,189.98L165.82,95.03L166.37,152.5L166.46,147.5L166.72,117.51L166.92,187.47L167.2,145L167.21,135.01L167.59,117.52L167.81,199.96L167.95,147.5L167.97,147.5L168.03,182.47L168.66,102.54L168.69,125.02L168.77,147.5L169.14,184.97L169.15,115.03L169.51,155L169.55,155L169.75,169.99L169.98,115.03L170.29,147.5L170.31,159.99L170.66,172.48L171.01,137.51L171.04,147.5L171.07,137.51L171.42,164.99L171.45,135.01L171.66,147.5L171.67,125.02L171.69,122.52L171.88,184.98L172.38,137.51L172.47,152.5L172.55,177.49L172.83,112.53L173.22,164.99L173.23,135.01L173.32,174.98L173.33,125.02L173.98,152.5L174.05,159.99L174.19,125.02L174.61,174.98L174.79,140.01L174.82,159.99L175.07,167.49L175.57,127.51L175.61,135.01L175.88,177.48L176.07,137.51L176.1,120.02L176.24,182.47L176.31,102.54L176.82,172.48L176.87,127.52L177.1,107.54L177.33,172.48L177.62,164.98L177.68,142.51L178.05,172.48L178.26,125.02L178.41,152.5L178.43,140.01L178.56,130.02L178.78,172.48L179.17,142.51L179.21,125.02L179.7,177.47L179.72,122.53L179.96,147.5L180,152.5L180.42,127.52L180.52,184.96L180.69,127.52L180.78,159.99L181.22,184.97L181.24,115.03L181.49,140.01L181.51,164.98L181.58,120.03L181.61,179.97L182.24,140.01L182.28,140.01L182.42,125.03L182.92,177.47L183.01,155L183.05,145L183.29,202.45L183.31,92.56L183.78,182.47L183.81,125.02L183.88,117.53L183.89,184.97L183.99,172.48L184.03,182.47L184.06,105.04L184.1,207.45L184.78,174.98L184.8,125.02L184.86,112.54L185.06,179.97L185.54,154.99L185.56,147.5L185.77,169.98L186.08,120.03L186.08,179.97L186.38,105.05L186.4,207.43L186.83,162.49L186.89,147.5L187.02,145.01L187.03,157.49L187.03,157.49L187.03,142.51L187.35,172.47L187.58,130.02L187.78,145.01L187.79,154.99L188.28,174.97L188.29,125.03L188.56,145.01L188.56,154.99L188.79,189.94L188.83,110.06L189.23,147.5L189.32,152.5L189.48,164.98L189.54,147.5L189.69,164.98L189.69,135.02L189.82,192.45L190.06,125.03L190.22,132.52L190.23,162.48L190.55,125.03L190.57,177.47L190.88,145L191.01,147.5L191.21,125.03L191.26,157.49L191.6,127.52L191.6,125.03L191.75,174.98L192.18,110.04L192.35,147.5L192.36,140.01L192.46,127.52L192.47,172.48L192.86,152.5L192.88,147.5L193.04,127.52L193.2,174.98L193.38,135.01L193.39,125.02L193.46,179.97L193.76,100.05L194.14,147.5L194.18,152.5L194.59,162.49L194.61,132.52L194.88,147.5L194.91,147.5L195.09,107.54L195.4,189.96L195.46,110.04L195.46,105.04L195.81,162.49L196.21,137.51L196.23,125.03L196.25,184.96L196.92,147.5L196.98,152.5L197.04,177.47L197.04,122.53L197.66,147.5L197.68,167.48L198.12,187.45L198.17,122.53L198.37,130.03L198.47,142.51L198.63,184.95L198.71,92.57L199.13,147.5L199.18,159.99L199.39,127.53L199.51,189.95L199.93,142.51L199.94,135.02L200.07,105.05L200.57,177.47L200.66,147.5L200.7,152.5L200.93,212.43L201.44,62.59L201.52,92.57L201.53,152.5L201.6,115.04L201.94,182.46L202.25,137.51L202.3,142.51L202.85,125.02L202.94,174.98L202.95,142.51L202.96,125.02L203.24,189.96L203.31,107.54L203.71,145L203.74,145.01L204.17,192.46L204.18,100.05L204.37,152.5L204.41,110.04L204.55,192.46L205.01,105.05L205.15,152.5L205.2,145.01L205.32,90.06L205.79,187.46L205.91,130.02L205.92,122.53L205.92,67.61L205.96,212.42L206.66,167.48L206.69,130.02L207.21,125.03L207.31,187.46L207.43,169.98L207.53,130.02L207.6,179.97L208.25,127.52L208.25,127.52L208.34,162.49L208.6,102.55L208.83,192.45L209.08,142.51L209.11,147.5L209.29,120.04L209.31,179.96L209.86,140.01L209.91,152.5L210.47,174.97L210.53,125.03L210.64,125.03L210.68,152.5L210.93,135.02L210.97,164.98L211.31,140.01L211.31,135.02L211.8,107.54L211.81,204.95L211.97,152.5L212,164.99L212.61,112.54L212.65,189.96L212.74,169.98L212.78,140.01L213.21,112.53L213.28,197.46L213.49,162.49L213.54,152.5L213.74,115.03L214.25,202.45L214.29,167.49L214.34,167.49L214.45,140.01L214.45,125.02L214.52,202.45L214.69,115.02L215.19,169.98L215.32,137.51L215.34,92.54L215.7,219.95L215.96,159.99L216.1,140.01L216.17,132.51L216.35,179.98L216.82,167.49L216.87,147.5L216.99,130.02L217.45,177.47L217.57,145L217.58,135.01L217.64,192.46L218.07,120.03L218.36,189.97L218.41,189.97L218.44,194.96L218.52,110.03L219.16,140.01L219.19,132.51L219.57,174.98L219.58,122.53L219.93,159.99L219.95,140.01L220.24,207.45L220.66,117.53L220.69,182.47L220.73,137.51L221.3,164.99L221.35,135.01L221.46,152.5L221.53,147.5L221.55,194.96L221.85,102.54L222.27,135.02L222.29,164.98L222.87,125.02L222.87,174.98L223.03,127.52L223.03,172.48L223.41,117.53L223.77,187.45L223.8,187.45L224.23,117.53L224.25,189.96L224.56,145.01L224.57,154.99L225.08,102.55L225.16,199.94L225.25,152.5L225.27,112.54L225.33,179.97L226,147.5L226.03,174.97L226.14,125.03L226.62,179.96L226.84,142.51L226.85,157.49L227,179.96L227.24,127.52L227.6,157.49L227.63,142.51L227.92,179.97L228.11,122.53L228.37,147.5L228.37,135.01L228.39,115.04L228.68,197.45L228.85,152.5L228.88,182.47L228.88,192.46L228.91,120.03L229.62,140.01L229.65,162.48L229.87,214.91L230.16,105.06L230.38,162.48L230.42,162.48L230.69,177.47L231.11,125.03L231.12,179.96L231.13,110.05L231.87,157.49L231.89,159.99L232.31,102.56L232.37,187.45L232.61,152.5L232.65,140.01L232.85,182.46L232.93,117.54L233.25,179.96L233.28,125.03L233.41,117.54L233.47,172.47L233.47,189.95L233.84,122.53L234.24,132.52L234.26,152.5L234.84,187.45L234.88,112.55L235,132.52L235.02,167.48L235.26,125.04L235.28,177.46L235.77,162.48L235.79,132.53L236.37,90.08L236.38,214.92L236.51,137.52L236.53,142.51L236.65,115.05L236.75,169.97L237,147.5L237,169.98L237.26,174.96L237.31,122.54L237.74,142.51L237.78,164.98L238.27,192.44L238.35,107.56L238.47,167.48L238.54,174.97L238.61,187.45L239.17,102.56L239.23,164.98L239.32,159.99L239.82,177.46L239.98,127.53L240.06,130.03L240.09,152.5L240.47,204.91L240.61,87.6L240.83,130.04L240.86,157.49L241.04,117.56L241.57,172.46L241.59,127.54L241.6,167.47L241.87,179.95L242.15,120.05L242.35,164.98L242.4,142.51L243.06,182.45L243.1,107.56L243.11,112.55L243.11,192.44L243.22,110.06L243.92,142.51L243.93,164.98L244.17,197.44L244.18,102.56L244.68,164.98L244.69,135.02L244.79,127.53L244.93,172.47L245.4,145.01L245.46,154.99L245.69,182.46L245.72,117.54L246.2,152.5L246.25,167.48L246.45,189.95L246.48,110.05L247,147.5L247.01,152.5L247.17,120.04L247.21,179.96L247.74,127.53L247.77,152.5L248.09,192.44L248.12,107.56L248.14,87.59L248.39,179.96L248.97,154.99L248.99,145.01L249.11,172.47L249.13,120.05L249.74,167.47L249.75,167.47L249.75,184.95L250.26,115.05L250.5,152.5L250.51,145.01L250.65,194.94L250.69,100.07L251.21,154.99L251.21,159.99L251.26,177.46L251.88,130.03L251.98,137.52L252,162.48L252.34,112.56L252.51,174.96L252.74,137.52L252.77,145.01L252.79,174.96L253.17,120.05L253.49,145.01L253.53,177.46L253.97,184.95L254.01,122.54L254.27,142.51L254.3,142.51L254.77,117.54L254.96,182.46L255,137.52L255.06,145.01L255.55,179.95L255.57,117.55L255.74,152.5L255.77,147.5L255.87,184.95L255.88,100.07L256.48,132.52L256.5,167.47L256.53,179.96L257.08,112.55L257.24,137.52L257.26,152.5L257.47,184.95L257.93,80.1L258,95.07L258.01,159.99L258.45,105.07L258.55,179.96L258.56,115.05L258.66,184.95L259.35,164.98L259.38,164.98L259.56,125.03L259.93,169.97L260.13,152.5L260.14,157.49L260.2,187.45L260.65,127.53L260.86,147.5L260.91,147.5L261.12,107.56L261.58,189.93L261.59,135.02L261.6,130.03L261.72,107.56L261.83,179.96L262.31,164.98L262.38,157.49L262.97,194.95L262.99,105.05L263.12,145.01L263.14,145.01L263.2,125.03L263.4,172.47L263.88,154.99L263.9,145.01L264.04,189.96L264.08,90.06L264.6,184.97L264.72,159.99L264.78,122.52L265.23,182.47L265.44,142.51L265.48,179.97L265.5,182.47L265.71,125.02L266.02,159.99L266.04,140.01L266.04,120.03L266.1,182.47L266.78,147.5L266.8,152.5L267.11,187.45L267.12,112.55L267.5,152.5L267.52,154.99L267.58,132.52L267.58,167.48L268.22,137.51L268.26,162.49L268.38,135.01L268.63,167.48L268.8,159.99L268.81,135.01L269.02,112.54L269.26,194.96L269.54,155L269.63,140.01L269.72,117.53L270.2,179.97L270.25,157.49L270.27,117.53L270.38,122.53L270.38,120.03L270.41,162.49L270.41,182.47L270.55,122.53L271.14,155L271.17,145L271.32,127.52L271.37,169.98L271.74,132.52L271.74,127.52L272.32,189.96L272.5,152.5L272.51,147.5L272.92,179.97L273.03,120.03L273.26,142.51L273.31,152.5L273.33,112.54L273.9,182.46L274.06,159.99L274.07,187.45L274.28,120.03L274.79,179.97L274.86,122.53L275.09,112.54L275.6,174.97L275.6,174.97L275.64,154.99L276.26,122.53L276.29,177.47L276.36,154.99L276.37,142.51L276.57,122.53L276.72,194.95L277.11,157.49L277.15,147.5L277.18,184.96L277.86,87.58L277.89,107.55L277.92,192.45L278.03,107.55L278.68,137.51L278.71,157.49L278.78,117.54L279.19,179.96L279.46,142.51L279.54,152.5L279.9,122.53L280.09,174.97L280.24,145.01L280.25,137.51L280.33,204.94L280.43,87.57L280.96,157.49L280.96,140.01L281.16,130.02L281.17,177.47L281.62,154.99L281.64,122.53L282.06,87.57L282.1,214.92L282.4,177.47L282.41,122.53L282.54,110.05L283.08,179.96L283.14,145.01L283.21,154.99L283.28,100.06L283.41,192.45L283.9,125.03L283.92,159.99L284.13,115.04L284.14,184.96L284.67,137.52L284.68,157.49L284.79,130.03L285.35,172.47L285.38,140.01L285.44,164.98L285.76,174.97L285.81,125.03L286.16,147.5L286.21,147.5L286.3,112.55L286.5,182.46L286.8,140.01L286.91,117.54L286.97,122.53L287,115.04L287.03,184.96L287.03,189.95L287.08,110.05L287.77,145.01L287.81,145.01L287.98,105.06L288.21,177.46L288.57,174.97L288.57,157.49L288.75,182.46L288.85,117.54L289.29,140.01L289.31,154.99L289.65,179.97L289.8,110.05L290.03,115.04L290.07,115.04L290.35,82.58L290.36,217.42L290.77,167.48L290.83,147.5L290.97,97.57L291.12,189.95L291.46,135.02L291.46,159.99L291.71,117.54L291.74,174.97L292.17,135.02L292.18,172.47L292.35,112.55L292.38,192.44L292.62,147.5L292.62,179.96L292.62,182.46L293.16,117.54L293.37,164.98L293.4,145.01L293.48,112.55L293.5,187.45L294.15,140.01L294.2,147.5L294.59,174.97L294.78,122.53L294.88,154.99L294.88,169.98L295.13,177.46L295.2,122.54L295.41,154.99L295.45,135.02L295.92,172.47L295.96,122.53L296.2,137.52L296.24,127.53L296.25,184.95L296.52,112.55L296.96,152.5L297.01,152.5L297.29,105.06L297.47,179.96L297.75,167.48L297.76,125.03L298.37,115.05L298.37,184.95L298.5,147.5L298.58,145.01L298.78,112.56L298.84,177.46L299.32,147.5L299.34,147.5L299.81,192.42L299.83,107.58L300.09,152.5L300.15,145.01L300.33,142.51L300.42,177.46L300.52,162.48L300.56,130.03L300.56,125.03L301.08,177.45L301.21,147.5L301.32,154.99L301.48,179.95L301.65,120.05L302.02,125.04L302.07,174.96L302.29,120.04L302.31,182.45L302.84,137.52L302.86,162.48L303.02,174.97L303.07,122.53L303.61,132.52L303.67,157.49L304.04,237.41L304.05,117.52L304.41,147.5L304.46,147.5L304.52,177.47L305.04,132.52L305.19,132.52L305.22,169.98L305.38,174.97L305.85,120.03L305.94,142.51L306.03,137.51L306.53,97.57L306.56,202.43L306.76,145.01L306.84,132.52L307.4,115.05L307.47,202.43L307.59,140.01L307.65,142.51L307.87,217.41L307.94,92.58L308.4,174.97L308.42,112.55L308.96,85.09L309.05,204.93L309.1,177.47L309.18,152.5L309.78,199.93L309.8,100.07L309.93,127.53L309.96,145.01L310.01,117.55L310.47,169.97L310.69,147.5L310.72,147.5L311.03,117.55L311.04,172.47L311.41,152.5L311.45,177.46L311.63,110.05L311.64,194.94L312.17,142.51L312.21,167.48L312.65,192.45L312.75,107.55L312.95,120.03L313.03,154.99L313.23,117.54L313.73,177.47L313.77,125.02L313.8,125.02L313.95,77.55L313.98,222.45L314.58,162.49L314.61,137.51L315.16,115.04L315.3,197.45L315.35,164.98L315.4,135.02L315.47,189.96L315.54,105.05L316.13,137.51L316.16,137.51L316.29,127.53L316.33,194.94L316.88,154.99L316.91,145.01L317.46,122.52L317.49,189.96L317.63,145.01L317.67,145.01L317.71,100.06L317.98,187.45L318.41,147.5L318.43,174.98L318.54,102.56L318.57,197.44L319.14,122.53L319.21,137.51L319.58,189.96L319.74,120.03L319.94,145.01L319.97,135.02L320.53,172.48L320.58,130.02L320.72,162.49L320.76,155L321.48,127.52L321.48,172.48L321.51,159.99L321.53,162.49L322.09,182.47L322.18,115.03L322.27,164.99L322.3,164.99L322.86,112.53L322.88,184.97L323.05,157.49L323.08,147.5L323.36,110.04L323.47,192.46L323.83,172.48L323.89,155L324.2,209.94L324.29,115.04L324.64,157.49L324.65,159.99L324.95,179.97L325.16,127.52L325.36,157.49L325.43,142.51L325.46,132.52L325.49,192.45L326.14,145L326.18,159.99L326.63,177.48L326.64,112.53L326.91,167.48L326.92,167.48L327.08,117.53L327.09,182.47L327.61,145L327.62,152.5L327.92,132.51L327.94,164.99L327.95,164.99L327.95,102.53L328.42,187.48L328.68,162.49L328.71,137.51L329.23,130.02L329.51,174.98L329.53,162.49L329.53,157.49L329.85,122.52L329.92,164.99L330.06,137.51L330.1,162.49L330.64,110.03L330.67,189.97L330.82,140.01L330.91,145L331.03,125.02L331.09,179.98L331.63,164.99L331.71,164.99L331.97,130.02L332,169.98L332.53,142.51L332.54,155L332.94,184.97L333.07,120.03L333.21,155L333.24,169.98L333.51,174.98L333.52,125.02L333.83,127.52L333.84,172.48L334.01,125.02L334.02,174.98L334.59,135.01L334.59,164.99L335.01,100.05L335.04,229.93L335.35,135.01L335.37,164.99L335.48,117.53L335.83,142.51L335.83,157.49L336.12,115.03L336.12,184.97L336.25,167.48L336.3,177.47L336.77,184.97L336.86,115.03L337.05,135.01L337.13,135.01L337.61,212.43L337.73,110.04L337.83,177.47L337.91,164.98L338.29,184.97L338.32,115.03L338.66,142.51L338.71,147.5L339.11,127.52L339.18,187.47L339.44,152.5L339.49,155L339.76,197.47L340.12,122.51L340.23,155L340.24,145L340.38,100.04L340.63,179.96L340.99,157.49L341.01,152.5L341.38,194.95L341.71,115.03L341.75,115.04L341.79,199.93L342.54,125.03L342.55,147.5L342.58,162.48L343.1,202.44L343.1,97.56L343.33,145.01L343.34,147.5L343.82,172.48L344.07,110.04L344.07,110.04L344.1,167.48L344.11,110.04L344.2,199.94L344.85,167.48L344.85,172.48L344.85,187.46L345.19,115.03L345.56,154.99L345.63,152.5L345.83,130.02L346.1,167.48L346.16,145.01L346.16,125.03L346.19,122.53L346.22,177.47L346.53,152.5L346.61,152.5L346.66,154.99L346.66,122.53L346.72,137.51L346.73,164.98L347.13,102.55L347.3,189.96L347.37,132.52L347.41,132.52L347.87,115.04L348.08,174.97L348.14,115.05L348.14,105.06L348.46,182.46L348.93,172.47L348.95,154.99L349.03,174.97L349.68,107.56L349.7,145.01L349.71,154.99L349.82,110.05L350.29,174.96L350.39,145.01L350.4,135.02L350.59,197.44L351.11,112.55L351.16,112.55L351.16,209.93L351.9,154.99L351.94,154.99L351.97,179.96L352.15,120.04L352.68,147.5L352.73,152.5L352.83,130.03L352.92,182.45L353.27,147.5L353.29,157.49L353.53,169.97L353.98,125.03L354.03,157.49L354.03,169.97L354.18,120.03L354.71,174.97L354.77,169.98L354.79,152.5L355.06,174.97L355.38,107.55L355.46,169.98L355.46,179.97L355.46,182.47L355.61,127.52L356.21,157.49L356.24,142.51L356.48,122.53L356.62,179.97L356.94,177.47L356.94,122.53L357.64,172.48L357.71,152.5L357.72,147.5L358.14,192.45L358.34,100.05L358.37,157.49L358.37,199.95L358.42,100.05L359.1,130.02L359.13,130.02L359.23,169.98L359.89,142.51L359.91,140.01L360.23,125.03L360.54,164.98L360.64,142.51L360.67,132.52L361.38,120.03L361.41,179.97L361.43,112.54L361.84,179.97L362.18,142.51L362.2,142.51L362.85,107.55L362.91,197.45L362.94,122.53L363.16,192.45L363.17,107.55L363.67,145.01L363.73,154.99L364.2,202.45L364.24,102.55L364.48,162.49L364.54,169.98L364.95,192.46L365.16,117.53L365.25,137.51L365.29,169.98L365.45,187.47L365.51,92.55L366.03,152.5L366.1,147.5L366.12,174.98L366.6,130.02L366.82,147.5L366.85,162.49L366.96,135.02L367.03,164.98L367.04,122.53L367.65,189.97L367.66,102.54L367.78,152.5L367.87,159.99L368.35,125.02L368.36,177.48L368.62,152.5L368.66,147.5L368.85,194.96L369.38,110.03L369.4,110.03L369.44,184.97L369.5,189.97L369.58,130.02L369.98,155L370,135.01L370.31,187.47L370.5,125.02L370.71,167.49L370.76,167.49L370.77,105.04L371.43,189.97L371.5,162.49L371.55,167.48L372.06,107.54L372.06,192.46L372.3,152.5L372.31,147.5L372.55,182.47L372.58,117.53L372.98,122.52L372.99,177.47L373.07,110.03L373.1,189.97L373.73,152.5L373.76,169.99L374.38,172.48L374.57,127.52L374.57,127.52L374.59,145L374.92,184.97L375.14,125.02L375.26,127.52L375.35,132.52L375.46,115.03L376.07,192.47L376.1,147.5L376.13,147.5L376.16,192.47L376.53,127.52L376.86,147.5L376.88,130.01L376.88,117.52L377.28,177.47L377.62,157.49L377.64,157.49L377.96,127.52L378.05,164.99L378.11,152.5L378.11,164.99L378.21,125.02L378.35,182.47L378.88,130.02L378.89,147.5L379.13,120.03L379.42,184.97L379.6,169.98L379.7,169.98L380.17,125.02L380.18,174.98L380.43,147.5L380.5,147.5L380.92,127.52L381.09,207.46L381.23,147.5L381.23,125.02L381.61,189.97L381.69,110.02L382.03,159.99L382.05,159.99L382.43,202.47L382.48,107.53L382.79,147.5L382.86,152.5L383.28,112.53L383.32,194.94L383.59,135.01L383.64,132.51L383.98,107.54L384.24,177.47L384.41,164.99L384.45,152.5L384.67,95.05L384.81,207.46L385.18,155L385.21,145L385.58,127.52L385.79,187.47L385.99,172.48L385.99,127.52L386.3,115.04L386.69,187.46L386.74,112.54L386.95,177.48L387.49,147.5L387.5,147.5L387.56,182.47L387.74,117.53L388.14,147.5L388.19,192.46L388.47,105.05L388.94,142.51L388.98,142.51L389.56,202.45L389.56,97.55L389.56,85.07L389.56,82.57L389.62,214.93L390.3,97.56L390.34,120.03L390.34,97.56L390.39,187.46L391.08,152.5L391.11,120.03L391.11,117.53L391.55,179.97L391.84,142.51L391.88,145L391.95,182.47L391.98,117.53L392.54,154.99L392.57,159.99L392.62,162.49L392.72,130.02L392.73,172.48L392.96,174.98L392.96,125.02L393.46,132.52L393.51,145L393.53,174.98L393.64,130.02L394.14,142.51L394.17,140.01L394.33,120.03L394.44,179.97L394.9,154.99L394.96,152.5L395.47,125.03L395.57,182.46L395.69,130.02L395.74,162.49L395.97,187.46L395.98,112.54L396.39,169.98L396.46,147.5L396.68,115.04L397.08,172.48L397.21,140.01L397.21,159.99L397.48,192.45L397.55,105.05L397.96,145.01L397.98,152.5L398.09,177.47L398.18,107.54L398.71,152.5L398.78,125.02L398.81,177.47L398.84,120.03L399,172.48" style="vector-effect: non-scaling-stroke; fill: none; stroke: rgb(239, 85, 59); stroke-opacity: 1; stroke-width: 2px; opacity: 1;"/></g><g class="points"/><g class="text"/></g><g class="trace scatter trace9fc267" style="stroke-miterlimit: 2; opacity: 1;"><g class="fills"/><g class="errorbars"/><g class="lines"><path class="js-line" d="M0,70.01L0.14,15L0.19,120L0.42,140L0.45,82.49L0.89,147.5L1.24,142.5L1.37,119.99L1.61,147.5L2.12,132.5L2.18,132.5L2.49,117.5L2.94,147.5L3.02,147.5L3.17,115L3.72,120.01L3.78,140L3.9,130L3.93,147.5L4.47,142.5L4.53,147.5L5.22,127.5L5.28,130L5.31,130L5.32,125L5.93,147.5L6.04,135L6.19,142.5L6.33,147.5L6.75,120L6.89,140L6.97,147.5L7.41,117.49L7.7,147.5L7.71,147.5L7.79,107.5L8.06,145L8.12,147.5L8.28,112.5L8.71,127.5L8.78,147.5L8.84,125L9.5,137.5L9.59,137.5L9.6,147.5L9.7,122.51L10.33,147.5L10.36,145L10.39,147.5L10.79,122.5L11.07,125L11.14,145L11.27,147.5L11.36,102.5L11.64,135L11.66,140L11.72,147.5L11.74,112.51L12.39,135L12.42,135L12.7,147.5L12.82,125.01L13.17,137.5L13.23,147.5L13.97,105.01L14.01,142.5L14.17,140L14.23,97.51L14.65,147.5L14.69,140L14.8,145L15.22,147.5L15.22,125.01L15.34,132.51L15.35,147.5L15.65,90.02L16.08,145L16.23,147.5L16.67,132.51L16.92,137.5L16.92,147.5L17.28,117.51L17.67,145L17.75,147.5L18.14,130L18.28,147.5L18.38,147.5L18.92,137.5L18.92,137.5L18.92,125.01L19.74,147.5L19.74,147.5L19.77,147.5L20.27,105.01L20.52,147.5L20.53,145L20.59,147.5L20.61,127.51L21.26,132.51L21.29,135L21.52,147.5L21.63,112.5L22.02,135L22.05,135L22.32,110.01L22.52,147.5L22.67,140L22.87,137.5L22.91,147.5L23.04,107.51L23.61,127.5L23.67,135L24.06,117.51L24.37,147.5L24.37,112.51L24.37,110.01L24.66,147.5L25.11,147.5L25.13,147.5L25.61,120.01L25.86,147.5L25.89,147.5L26.41,107.51L26.58,147.5L26.68,147.5L27,105.01L27.4,120.01L27.44,127.51L27.5,122.51L28.15,147.5L28.23,145L28.23,142.5L28.26,147.5L28.31,122.51L28.98,147.5L29,145L29.08,112.52L29.17,147.5L29.58,132.51L29.7,140L29.74,147.5L30.19,112.51L30.45,137.5L30.46,137.5L30.84,107.51L31.21,147.5L31.21,125.01L31.98,147.5L31.98,127.51L32.16,147.5L32.28,122.51L32.67,145L32.74,130.01L32.8,147.5L32.86,115.01L33.46,145L33.51,147.5L34.25,122.51L34.29,135L34.36,115.01L34.42,145L34.91,117.51L34.97,142.5L35,147.5L35.25,117.51L35.72,127.51L35.73,125.01L36.32,147.5L36.34,102.5L36.45,125L36.5,125L36.66,100L36.8,147.5L37.25,145L37.26,122.5L37.29,147.5L37.94,102.51L38.01,135L38.02,135L38.12,102.5L38.21,147.5L38.73,137.5L38.77,145L38.97,147.5L39.43,92.52L39.47,145L39.53,142.5L39.53,120.01L39.54,147.5L40.25,127.5L40.29,147.5L40.75,100.01L41.02,137.5L41.06,132.51L41.29,115.01L41.78,147.5L41.8,145L41.85,137.5L42.14,107.51L42.6,147.5L42.61,140L42.61,137.5L42.93,130L42.94,147.5L42.95,132.51L42.95,112.51L43.48,147.5L43.65,145L43.71,132.51L44.2,85.02L44.33,147.5L44.45,135L44.47,140L44.8,120.01L45.14,147.5L45.16,137.5L45.17,132.5L45.23,105.01L45.33,147.5L45.92,122.5L45.95,145L46.06,147.5L46.68,120.01L46.72,120.01L47.35,95.01L47.44,147.5L47.45,130.01L47.45,112.51L48.23,147.5L48.31,147.5L48.89,105.01L49.06,145L49.08,147.5L49.21,105.01L49.75,147.5L49.8,147.5L50.01,122.51L50.04,145L50.09,147.5L50.79,95.01L50.82,90.02L50.82,147.5L51.57,130L51.58,125.01L51.97,107.51L52.24,147.5L52.28,137.5L52.34,112.51L52.88,147.5L53.09,135L53.11,127.5L53.2,147.5L53.63,102.51L53.86,127.51L53.89,132.51L54.54,147.5L54.58,115.01L54.62,135.01L54.64,115.01L54.64,147.5L55,105.02L55.35,135L55.4,135L55.53,147.5L55.56,120L56,135L56.06,145L56.19,115.02L56.59,147.5L56.8,135.01L56.81,147.5L56.99,110.01L57.56,145L57.57,147.5L57.84,115.03L58.31,120.02L58.34,120.02L58.53,102.53L59.07,147.5L59.12,132.51L59.61,102.53L59.75,147.5L59.82,117.52L59.88,122.52L60.08,147.5L60.4,135.01L60.45,132.51L60.66,147.5L61.07,110.02L61.18,140.01L61.23,140.01L61.26,117.52L61.31,147.5L61.92,147.5L61.99,147.5L62.52,125.02L62.72,145L62.84,147.5L62.99,135.01L63.19,145L63.22,147.5L63.84,125.02L63.87,147.5L64.64,107.53L64.64,147.5L64.81,147.5L64.81,147.5L64.81,130.01L65.32,147.5L65.34,137.51L65.35,132.51L65.5,147.5L65.83,115.02L66.08,140.01L66.11,147.5L66.75,100.03L66.83,102.53L66.87,147.5L67.04,97.54L67.6,120.02L67.68,147.5L67.79,122.52L67.88,140.01L67.92,142.51L68.1,147.5L68.1,125.02L68.11,125.02L68.12,115.03L68.16,147.5L68.83,117.53L68.89,135.01L69.29,147.5L69.34,105.04L69.59,132.51L69.6,110.03L69.87,97.54L70.36,147.5L70.37,145L70.42,125.01L70.61,147.5L70.96,102.53L71.14,147.5L71.16,147.5L71.72,132.51L71.72,132.51L71.72,117.52L71.85,107.53L71.87,147.5L72.2,137.51L72.22,142.51L72.27,147.5L72.47,120.02L72.96,135.01L72.99,147.5L73.07,120.02L73.7,147.5L73.73,147.5L73.92,90.04L74.47,125.02L74.5,147.5L74.95,107.53L75.21,130.01L75.23,147.5L75.88,122.52L75.97,140.01L76,147.5L76.11,97.53L76.73,112.52L76.76,147.5L77.44,70.09L77.51,127.52L77.55,125.02L77.69,147.5L78.13,117.52L78.3,127.51L78.31,127.51L78.7,87.55L78.78,147.5L79.04,135.01L79.09,142.51L79.18,147.5L79.48,130.01L79.61,145L79.67,145L80.35,147.5L80.38,102.53L80.42,147.5L80.44,145L80.63,115.02L80.9,147.5L81.02,142.5L81.02,122.52L81.62,147.5L81.78,130.02L81.81,130.02L81.93,112.53L82.26,147.5L82.48,132.51L82.58,135.01L82.63,132.51L83.24,147.5L83.3,140.01L83.35,140.01L83.5,147.5L83.75,122.52L83.92,125.02L83.95,125.02L84.08,147.5L84.22,117.53L84.69,125.02L84.73,125.02L85.4,147.5L85.45,132.51L85.51,132.51L86.07,120.02L86.26,147.5L86.29,132.51L86.66,147.5L87.01,115.03L87.05,145L87.16,147.5L87.36,117.52L87.64,145L87.66,147.5L88.17,105.04L88.36,147.5L88.45,145L88.72,135.01L88.79,147.5L88.87,137.51L88.87,135.01L88.97,147.5L89.15,120.02L89.25,135.01L89.26,147.5L89.51,100.03L90.01,137.51L90.03,137.51L90.38,115.03L90.83,147.5L90.83,140.01L90.91,147.5L91.12,97.55L91.56,142.51L91.61,142.51L92.11,147.5L92.26,100.05L92.36,112.53L92.48,117.53L92.62,147.5L93.13,87.57L93.25,145.01L93.26,97.57L93.52,147.5L93.95,112.54L94.01,122.53L94.01,112.54L94.15,147.5L94.75,145.01L94.8,137.51L94.8,117.54L94.93,147.5L95.55,142.51L95.64,147.5L96.3,105.04L96.37,147.5L96.4,145.01L96.51,130.02L96.63,147.5L96.63,112.53L97.35,145.01L97.41,132.52L97.86,127.52L98.13,147.5L98.16,132.52L98.16,127.52L98.22,147.5L98.67,87.56L98.88,127.52L98.96,132.52L98.98,105.05L99.04,147.5L99.66,147.5L99.72,142.51L100.01,122.53L100.42,147.5L100.43,147.5L100.46,147.5L100.9,117.53L101.28,135.02L101.32,135.02L101.32,120.03L101.4,147.5L102.01,145L102.09,147.5L102.51,125.02L102.71,130.02L102.77,147.5L103.31,115.03L103.51,135.02L103.52,135.02L103.58,147.5L103.9,107.54L104.27,132.52L104.28,140.01L104.28,147.5L105,105.04L105.07,125.02L105.08,122.52L105.86,147.5L105.91,147.5L106.43,120.03L106.63,140.01L106.74,140.01L106.86,122.52L106.87,147.5L107.47,145L107.51,147.5L107.58,117.52L108.26,147.5L108.27,147.5L108.27,125.02L109.02,145L109.05,147.5L109.63,112.53L109.78,130.02L109.83,142.51L110.29,147.5L110.3,122.52L110.3,102.54L111.06,147.5L111.08,147.5L111.14,120.02L111.35,132.51L111.4,145L111.48,147.5L111.69,105.04L112.15,127.52L112.17,127.52L112.76,112.53L112.97,147.5L112.97,147.5L112.98,145L113,147.5L113.29,105.04L113.67,147.5L113.75,135.01L114.15,112.52L114.15,147.5L114.51,140.01L114.52,140.01L114.63,147.5L114.77,120.02L115.27,142.51L115.28,142.51L115.38,115.02L115.43,147.5L116.02,140.01L116.04,130.01L116.16,147.5L116.77,107.54L116.77,107.54L116.81,137.51L116.86,140.01L116.9,97.53L116.9,97.53L116.94,147.5L117.39,125.01L117.66,145L117.7,145L118.1,147.5L118.1,112.52L118.45,147.5L118.46,147.5L118.56,122.52L119.15,125.02L119.15,145L119.21,137.51L119.27,147.5L119.28,142.51L119.29,112.53L119.56,147.5L120.03,142.5L120.12,145L120.65,147.5L120.69,120.02L120.74,135.01L120.77,147.5L121.05,122.51L121.52,125.01L121.53,147.5L122.03,100.03L122.24,145L122.3,145L122.43,147.5L122.92,112.52L123.03,145L123.15,110.02L123.37,147.5L123.78,130.01L123.79,135.01L124.3,105.03L124.45,147.5L124.54,140L124.55,140L124.92,122.52L125.25,147.5L125.27,132.51L125.31,115.02L125.43,147.5L126,145L126.03,135.01L126.03,147.5L126.37,107.53L126.75,140L126.79,140L127.26,105.03L127.45,147.5L127.47,137.51L127.54,137.51L127.8,147.5L127.83,130.02L127.83,130.02L127.92,130.02L127.96,112.53L128.38,147.5L128.66,142.51L128.68,142.51L128.72,147.5L129.19,120.02L129.43,132.51L129.49,145L129.63,112.52L129.66,147.5L129.68,147.5L130.2,125.02L130.42,137.51L130.45,145L130.62,145L130.62,147.5L131.11,112.53L131.33,140.01L131.39,147.5L131.59,127.51L132.05,142.5L132.1,142.5L132.24,122.52L132.73,147.5L132.84,142.5L132.84,132.51L133.42,100.01L133.51,147.5L133.57,142.5L133.62,130L133.79,122.5L134.16,147.5L134.38,132.51L134.39,127.51L134.77,112.51L135.07,147.5L135.14,140L135.18,140L135.51,127.51L135.65,147.5L135.67,137.5L135.67,120.01L135.68,147.5L136.42,145L136.43,145L136.54,147.5L136.81,127.51L136.88,147.5L136.9,147.5L137.35,117.51L137.46,130.01L137.5,147.5L137.88,112.51L138.25,135L138.28,147.5L139.14,122.51L139.15,142.5L139.29,125.01L139.31,147.5L139.87,147.5L139.94,147.5L140.21,95.01L140.69,145L140.72,145L140.89,137.5L141.2,147.5L141.23,140L141.27,147.5L141.72,122.51L141.98,135L142.02,142.5L142.4,117.51L142.66,147.5L142.77,142.5L142.82,130.01L142.82,147.5L143.21,115.01L143.51,142.5L143.58,142.5L143.6,147.5L143.67,102.51L144.33,132.51L144.34,120.01L144.55,147.5L145.05,110.01L145.09,127.51L145.1,110.01L145.85,147.5L145.88,135L146.06,115L146.55,147.5L146.63,140L146.72,140L146.91,147.5L147.3,120L147.47,142.5L147.49,145L147.57,115L148.15,147.5L148.16,140L148.17,140L148.27,120.01L148.28,147.5L148.86,142.5L148.9,147.5L149.2,122.51L149.65,140L149.68,142.5L149.93,147.5L150.11,122.51L150.18,127.51L150.19,122.51L150.31,117.5L150.78,147.5L150.97,142.5L150.99,142.5L151.21,135L151.32,147.5L151.33,135L151.35,125L151.52,110L151.91,147.5L152.13,135L152.13,132.5L152.17,110.01L152.48,147.5L152.84,130L152.86,147.5L153.16,112.5L153.53,135L153.65,135L153.65,125L153.71,147.5L154.39,137.5L154.41,132.5L154.75,115L155.15,147.5L155.17,102.51L155.18,95.01L155.42,147.5L155.84,135L155.91,135L156.42,100.01L156.59,147.5L156.63,112.52L156.64,145L156.68,147.5L156.82,122.51L156.91,122.51L156.91,100.02L157.05,147.5L157.63,145L157.67,145L157.78,147.5L157.97,110.01L158.39,145L158.43,142.5L158.43,147.5L159,107.51L159.17,137.5L159.21,135.01L159.24,92.51L159.26,147.5L159.95,137.51L159.99,115.01L159.99,92.52L160.17,147.5L160.71,132.5L160.8,147.5L161.39,115.01L161.54,147.5L161.56,147.5L162.01,115.01L162.1,147.5L162.13,147.5L162.86,125.01L162.86,125.01L162.89,142.5L163.04,125.01L163.05,147.5L163.25,142.5L163.25,147.5L163.63,125.01L163.98,145L164.01,145L164.05,147.5L164.08,115.02L164.76,142.5L164.77,142.5L164.92,112.52L165.41,147.5L165.46,137.51L165.82,95.03L166.24,147.5L166.26,147.5L166.51,147.5L166.51,145L166.51,147.5L166.92,112.53L167.24,140.01L167.3,147.5L167.81,100.04L168.05,147.5L168.14,145L168.2,147.5L168.66,102.54L168.87,137.51L168.89,140.01L168.93,147.5L169.15,115.03L169.59,145L169.61,145L169.73,147.5L169.73,147.5L169.75,130.01L169.91,147.5L169.98,115.03L170.49,145L170.52,145L170.66,127.52L171.24,147.5L171.31,140.01L171.68,122.52L171.81,147.5L171.85,137.51L171.88,115.02L172.53,147.5L172.64,140.01L172.67,145L172.69,147.5L172.93,112.53L173.39,125.02L173.43,147.5L173.9,125.02L174.15,137.51L174.17,147.5L174.61,125.02L174.92,145L174.97,147.5L175.71,122.52L175.74,137.51L175.77,140.01L175.98,147.5L176.31,102.54L176.52,140.01L176.53,140.01L176.87,127.52L176.89,147.5L177.03,147.5L177.04,147.5L177.1,107.54L177.78,145L177.81,137.51L178.26,125.02L178.41,147.5L178.51,145L178.56,130.02L179.21,125.02L179.4,147.5L179.4,147.5L179.4,125.02L179.7,122.53L180.27,147.5L180.27,145.01L180.27,135.02L180.52,115.04L180.99,147.5L181.01,145.01L181.05,142.51L181.22,115.03L181.26,147.5L181.78,147.5L181.81,147.5L182.39,125.03L182.55,140.01L182.57,137.51L182.61,147.5L183.31,92.56L183.32,145.01L183.33,145.01L183.49,147.5L184.1,92.55L184.11,140.01L184.24,147.5L184.24,137.51L184.26,112.53L184.26,110.04L184.29,147.5L184.99,135.02L185.03,137.51L185.13,147.5L185.19,117.53L185.56,147.5L185.59,147.5L186.4,92.57L186.48,130.02L186.76,117.54L187.24,147.5L187.32,135.02L187.35,127.53L187.5,147.5L188.03,135.02L188.1,135.02L188.76,147.5L188.79,120.05L188.79,110.06L189.54,147.5L189.62,142.51L189.72,130.02L189.76,147.5L189.81,140.01L189.82,107.55L190.56,147.5L190.64,135.01L190.7,145L190.76,147.5L191.21,125.03L191.43,147.5L191.47,147.5L192.18,110.04L192.21,147.5L192.22,147.5L192.49,127.52L192.94,147.5L192.98,147.5L193.46,120.03L193.7,130.02L193.76,130.02L193.76,100.05L194.14,147.5L194.47,147.5L194.56,145.01L194.72,147.5L195.09,107.54L195.27,127.52L195.32,142.51L195.46,105.04L195.47,147.5L196.07,140.01L196.11,147.5L196.25,115.04L196.85,145.01L196.89,147.5L197.04,122.53L197.56,147.5L197.59,147.5L198.12,112.55L198.34,125.03L198.35,125.03L198.71,92.57L199.13,147.5L199.18,140.01L199.28,147.5L199.51,110.05L199.93,142.51L199.94,135.02L200.08,105.05L200.23,147.5L200.51,127.53L200.52,147.5L200.99,67.59L201.27,97.55L201.32,72.58L201.44,62.59L201.89,147.5L202.09,117.54L202.12,147.5L202.84,125.02L202.86,125.02L202.92,125.02L202.98,147.5L203.31,107.54L203.62,132.52L203.69,127.52L203.69,147.5L204.18,100.05L204.44,147.5L204.48,147.5L204.55,107.54L204.86,112.54L204.91,145.01L205.01,105.05L205.15,147.5L205.31,120.03L205.32,90.06L205.92,67.61L206.02,147.5L206.08,120.04L206.12,140.01L206.17,107.56L206.28,147.5L206.72,140.01L206.79,147.5L207.31,112.54L207.56,127.52L207.59,137.51L207.6,120.03L208.09,147.5L208.34,127.52L208.38,135.02L208.56,147.5L208.6,102.55L209.13,145.01L209.14,147.5L209.29,120.04L209.86,140.01L209.91,147.5L210.47,125.03L210.64,125.03L210.68,147.5L211.32,120.03L211.35,147.5L211.44,147.5L211.81,95.05L212.2,127.52L212.22,137.51L212.4,147.5L212.65,110.04L212.96,142.51L213,147.5L213.28,102.54L213.43,130.01L213.44,147.5L213.77,107.54L214.17,147.5L214.22,145L214.44,147.5L214.52,97.55L214.92,147.5L214.99,147.5L215.7,80.05L215.73,122.52L215.82,142.51L216.2,147.5L216.35,120.02L216.52,145L216.56,147.5L217.01,130.02L217.06,132.52L217.16,147.5L217.64,107.54L217.69,147.5L217.71,147.5L218.41,110.03L218.41,145L218.42,145L218.47,105.04L218.51,147.5L219.16,140.01L219.19,132.51L219.43,147.5L219.58,122.53L219.93,140.01L219.95,140.01L220.02,147.5L220.24,92.55L220.69,117.53L220.73,137.51L220.93,147.5L221.3,135.01L221.46,147.5L221.53,147.5L221.85,102.54L222.27,135.02L222.29,135.02L222.87,125.02L223,147.5L223,125.02L223.03,127.52L223.31,147.5L223.8,112.55L223.81,140.01L224.19,147.5L224.25,110.04L224.42,140.01L224.46,147.5L224.61,132.52L224.82,142.51L224.84,120.04L225.16,100.06L225.24,147.5L225.59,145L225.61,145L225.83,147.5L226.14,125.03L226.34,137.52L226.37,142.51L226.6,147.5L226.62,120.04L226.99,142.51L227,120.04L227.72,147.5L227.72,127.52L227.79,147.5L228.39,115.04L228.46,130.02L228.49,147.5L228.68,102.55L229.21,132.52L229.26,132.52L229.33,147.5L229.87,85.09L230.01,122.54L230.11,122.54L230.16,105.06L230.72,147.5L230.87,145.01L230.91,132.52L231.13,110.05L231.46,147.5L231.67,145.01L231.68,145.01L231.83,147.5L231.89,132.52L231.99,135.02L231.99,117.54L232.31,102.56L232.72,147.5L232.78,137.52L232.81,135.02L232.82,147.5L233.47,110.05L233.55,140.01L233.58,142.51L233.73,140.01L233.74,145.01L233.78,122.53L234.36,120.03L234.54,147.5L234.54,137.51L234.6,147.5L234.84,112.55L235.28,122.54L235.41,137.52L235.66,147.5L235.83,107.56L236.16,147.5L236.17,147.5L236.38,85.08L236.88,147.5L236.89,147.5L237.31,122.54L237.52,137.52L237.53,142.51L237.63,147.5L238.27,107.56L238.32,107.56L239.14,147.5L239.15,135.02L239.17,102.56L239.61,147.5L239.82,122.54L239.9,140.01L240.09,147.5L240.12,120.04L240.41,137.52L240.45,147.5L240.64,87.6L241.19,137.52L241.26,147.5L241.89,120.05L242.01,140.02L242.03,140.02L242.06,120.05L242.67,147.5L242.69,145.01L242.8,147.5L243.11,107.56L243.26,140.01L243.27,147.5L243.76,122.54L244,130.03L244.05,135.02L244.17,102.56L244.22,147.5L244.8,127.53L244.83,127.53L245.36,147.5L245.57,135.02L245.58,135.02L245.65,147.5L245.69,117.54L246.3,145.01L246.34,142.51L246.45,110.05L247.01,147.5L247.01,147.5L247.01,130.02L247.17,120.04L247.74,147.5L247.74,127.53L248.14,87.59L248.52,147.5L248.52,147.5L248.53,120.04L249.08,147.5L249.29,132.53L249.34,132.53L249.75,115.05L250.05,147.5L250.05,132.52L250.1,130.03L250.5,147.5L250.69,100.07L250.76,142.51L250.82,105.06L251.51,147.5L251.52,140.01L251.52,127.53L252.28,147.5L252.28,137.52L252.31,137.52L252.34,112.56L252.38,147.5L253.06,147.5L253.1,142.51L253.1,147.5L253.17,120.05L253.85,137.52L253.87,145.01L253.94,147.5L253.97,115.05L254.61,142.51L254.63,145.01L254.69,147.5L254.77,120.04L254.77,117.54L255.45,147.5L255.55,132.53L255.55,120.05L255.59,147.5L255.86,100.07L256.3,147.5L256.33,145.01L256.47,147.5L257.08,112.55L257.11,142.51L257.26,147.5L257.71,102.56L257.83,140.02L257.89,140.02L257.93,80.1L258.37,147.5L258.64,147.5L258.66,147.5L258.66,115.05L259.38,135.02L259.43,145.01L259.56,125.03L259.62,142.51L259.69,147.5L259.7,127.53L259.93,130.03L260,147.5L260.2,112.55L260.74,142.51L260.76,142.51L260.81,147.5L261.12,107.56L261.51,147.5L261.52,147.5L261.72,107.56L262.18,142.51L262.24,142.51L262.57,147.5L262.97,105.05L262.99,105.05L263.01,132.52L263.2,125.03L263.75,147.5L263.79,145.01L263.8,145.01L263.93,147.5L263.93,135.02L263.95,122.53L264.08,90.06L264.18,147.5L264.6,115.03L264.72,140.01L264.94,147.5L265.23,117.53L265.44,142.51L265.48,120.03L265.5,117.53L265.63,147.5L266.04,120.03L266.05,147.5L266.1,117.53L266.8,147.5L266.82,147.5L267.08,112.55L267.56,145.01L267.58,140.01L267.58,132.52L267.62,147.5L268.33,142.51L268.38,135.01L268.94,147.5L269.02,112.54L269.06,112.54L269.26,105.04L269.79,147.5L269.9,135.02L270.27,117.53L270.58,147.5L270.64,145.01L270.67,130.02L270.79,127.52L271.43,147.5L271.43,147.5L271.47,142.51L271.57,147.5L272.25,110.04L272.31,145.01L272.32,110.04L272.43,147.5L273.03,137.51L273.09,145L273.09,147.5L273.33,112.54L273.84,137.52L273.86,137.52L274.07,112.55L274.24,147.5L274.59,140.01L274.62,140.01L274.73,147.5L275.09,112.54L275.28,140.01L275.34,147.5L275.6,125.03L275.89,135.02L275.95,147.5L276.72,105.05L276.73,147.5L276.84,145.01L276.85,127.52L277.05,147.5L277.18,115.04L277.55,120.04L277.56,147.5L277.86,87.58L278.13,132.52L278.16,145.01L278.28,147.5L278.78,117.54L278.89,147.5L278.9,147.5L279.2,120.04L279.57,145.01L279.64,147.5L280.43,87.57L280.5,127.53L280.55,112.54L280.81,147.5L281.17,122.53L281.19,147.5L282.01,110.05L282.04,147.5L282.1,85.08L282.75,147.5L282.89,147.5L283.25,100.06L283.58,135.02L283.68,135.02L284.13,115.04L284.3,147.5L284.33,145.01L284.39,125.03L284.39,120.04L284.41,147.5L285.14,147.5L285.19,147.5L285.92,125.03L285.92,125.03L285.94,147.5L286.67,112.55L286.72,147.5L287.08,110.05L287.17,147.5L287.18,147.5L287.84,130.03L287.84,140.01L287.95,135.02L287.98,105.06L288.02,147.5L288.69,140.01L288.7,147.5L288.85,117.54L289.43,145.01L289.49,140.01L290.03,147.5L290.11,110.05L290.22,115.04L290.25,140.01L290.35,82.58L290.83,147.5L290.98,147.5L291.01,145.01L291.12,110.05L291.16,147.5L291.74,130.03L291.82,145.01L291.86,147.5L292.38,107.56L292.51,117.54L292.56,147.5L293.16,117.54L293.29,137.52L293.34,135.02L293.48,112.55L293.66,147.5L294.09,140.01L294.15,140.01L294.78,122.53L294.86,147.5L294.88,145.01L294.88,130.02L294.94,147.5L295.2,122.54L295.55,125.03L295.55,145.01L295.65,147.5L296.25,115.05L296.31,137.52L296.36,145.01L296.52,112.55L296.55,147.5L297.09,147.5L297.2,147.5L297.29,105.06L297.95,137.52L297.97,140.01L297.98,147.5L298.37,115.05L298.7,147.5L298.73,147.5L298.78,112.56L299.1,135.02L299.14,147.5L299.83,107.58L299.92,137.52L299.96,142.51L300.09,147.5L300.42,122.54L300.7,142.51L300.72,145.01L300.79,147.5L301.08,122.55L301.47,145.01L301.48,125.04L301.77,147.5L302.22,120.04L302.28,127.53L302.59,147.5L302.6,117.55L302.99,135.02L303.02,147.5L303.07,122.53L303.75,147.5L303.79,145.01L303.95,147.5L304.04,62.59L304.11,125.02L304.22,145L304.35,147.5L304.38,142.51L304.39,107.54L305.01,147.5L305.13,132.52L305.19,132.52L305.24,147.5L305.38,125.03L305.77,132.52L305.8,147.5L305.89,120.03L306.13,145.01L306.17,147.5L306.56,97.57L306.95,127.53L306.97,127.53L307.47,97.57L307.65,147.5L307.73,137.52L307.76,140.01L307.87,82.59L308.07,147.5L308.38,130.03L308.38,142.51L308.56,147.5L308.96,85.09L309.1,122.53L309.18,147.5L309.78,100.07L309.93,127.53L309.96,145.01L309.98,147.5L310.01,117.55L310.69,147.5L310.72,147.5L311.03,117.55L311.46,122.54L311.48,147.5L311.64,105.06L312.25,117.54L312.26,140.01L312.65,107.55L312.86,147.5L312.95,120.03L313.03,145.01L313.11,147.5L313.23,117.54L313.77,125.02L313.8,125.02L313.95,77.55L314.45,147.5L314.56,137.51L314.58,137.51L315.06,147.5L315.07,142.51L315.09,125.02L315.3,102.55L315.69,147.5L315.82,142.51L315.87,147.5L316.33,105.06L316.62,140.01L316.65,130.03L316.91,122.53L317.19,147.5L317.42,145L317.42,127.52L317.54,147.5L317.71,100.06L318.16,142.51L318.2,142.51L318.41,147.5L318.57,102.56L318.59,127.52L318.59,147.5L318.66,102.56L319.31,122.54L319.39,147.5L319.58,110.04L320.14,135.02L320.16,137.51L320.21,147.5L320.51,127.52L320.89,142.51L321.02,147.5L321.53,127.52L321.78,145L321.82,145L321.86,147.5L322.18,115.03L322.56,140.01L322.63,137.51L322.67,147.5L323.36,110.04L323.37,110.04L323.41,120.03L323.45,107.54L324.09,147.5L324.19,145.01L324.19,105.04L324.2,90.06L324.28,147.5L324.91,132.52L324.95,132.52L325.26,147.5L325.49,107.55L325.7,145L325.74,145L325.74,132.52L325.87,147.5L326.49,140.01L326.51,147.5L326.64,112.53L327.24,127.52L327.28,140.01L327.95,102.53L328.01,147.5L328.01,132.51L328.07,140.01L328.08,147.5L328.42,112.52L328.82,147.5L328.83,147.5L329.51,125.02L329.54,142.51L329.59,147.5L329.85,122.52L330.36,127.52L330.39,127.52L330.64,110.03L330.91,147.5L331.09,125.02L331.09,120.02L331.88,147.5L331.92,135.01L331.97,130.02L332.5,147.5L332.63,135.01L332.7,147.5L332.94,115.03L333.45,132.52L333.51,125.02L333.92,147.5L334.24,132.51L334.29,147.5L335.04,70.07L335.09,140.01L335.21,107.54L335.42,147.5L335.5,125.03L335.57,145L335.62,147.5L336.12,115.03L336.38,117.53L336.39,147.5L336.96,115.03L337.14,145L337.17,145L337.24,147.5L337.61,87.57L337.92,135.02L337.92,147.5L338.32,115.03L338.66,142.51L338.71,147.5L339.18,112.53L339.44,147.5L339.49,145L339.55,147.5L339.76,102.53L340.24,145L340.25,145L340.34,147.5L340.38,100.04L340.99,142.51L341.01,147.5L341.79,100.07L341.8,115.04L341.84,135.02L342.24,105.05L342.55,147.5L342.58,137.52L342.58,125.04L343.1,97.56L343.34,147.5L343.38,145.01L343.42,145.01L343.49,147.5L344.11,110.04L344.14,130.02L344.2,140.01L344.2,100.06L344.48,147.5L344.95,130.02L344.97,140.01L345.01,147.5L345.19,115.03L345.7,142.51L345.74,142.51L345.78,147.5L346.22,122.53L346.46,147.5L346.52,147.5L346.66,145.01L346.66,145.01L346.66,122.53L347.13,102.55L347.19,147.5L347.41,132.52L347.44,140.01L347.45,147.5L348.14,105.06L348.18,147.5L348.2,135.02L348.22,147.5L348.59,112.55L348.93,127.53L348.95,145.01L348.98,147.5L349.68,107.56L349.7,145.01L349.71,145.01L349.82,110.05L349.89,147.5L350.35,130.03L350.39,145.01L350.44,147.5L351.16,90.07L351.2,140.01L351.54,135.02L351.85,147.5L351.86,135.02L351.88,135.02L351.94,147.5L351.97,120.04L352.63,147.5L352.68,147.5L352.92,117.55L353.43,142.51L353.44,147.5L354.18,120.03L354.19,145.01L354.22,145.01L354.29,147.5L354.71,125.03L354.96,147.5L354.99,147.5L355.3,107.55L355.68,130.02L355.75,130.02L356.36,147.5L356.48,122.53L356.55,147.5L356.62,120.03L357.3,142.51L357.31,142.51L357.64,127.52L357.98,147.5L358.01,127.53L358.01,147.5L358.34,100.05L358.69,137.51L358.77,140.01L358.96,147.5L359.06,120.03L359.52,132.52L359.55,132.52L360.23,125.03L360.3,147.5L360.31,145.01L360.35,145.01L360.62,125.03L360.62,147.5L360.91,145.01L360.95,145.01L361.2,132.52L361.37,147.5L361.38,122.53L361.43,112.54L361.45,147.5L362.13,140.01L362.15,140.01L362.36,120.03L362.56,147.5L362.64,130.02L362.67,117.53L362.91,102.55L363.19,147.5L363.36,115.04L363.46,142.51L363.46,147.5L364.2,97.55L364.24,102.55L364.91,147.5L365.08,140.01L365.14,137.51L365.32,145.01L365.51,92.55L365.88,132.52L365.92,135.01L366.12,125.02L366.6,147.5L366.61,137.51L366.63,127.52L366.69,147.5L367.23,117.53L367.38,145L367.39,145L367.66,102.54L368.13,147.5L368.13,147.5L368.16,147.5L368.85,105.04L368.9,145L368.92,145L368.95,147.5L368.95,105.04L369.65,125.02L369.68,137.51L369.77,147.5L370.31,112.53L370.42,137.51L370.44,117.53L370.77,105.04L371.22,147.5L371.25,145.01L371.43,110.03L371.58,147.5L372.01,130.02L372.04,147.5L372.06,107.54L372.78,142.51L372.79,147.5L373.07,110.03L373.5,142.51L373.57,142.51L373.58,147.5L373.76,130.01L374.29,137.51L374.35,145L374.36,147.5L374.92,115.03L375.1,147.5L375.11,147.5L375.54,115.03L375.84,130.01L375.94,147.5L376.16,107.53L376.68,125.02L376.72,145L376.86,147.5L376.88,117.52L377.38,145.01L377.42,147.5L377.96,127.52L378.06,147.5L378.11,147.5L378.35,117.53L378.86,147.5L378.88,130.02L379.42,115.03L379.56,147.5L379.6,130.02L379.7,130.02L380.17,125.02L380.43,147.5L380.5,147.5L381.09,92.54L381.23,127.51L381.23,147.5L381.69,110.02L381.98,130.02L382.03,140.01L382.43,97.53L382.79,147.5L382.79,147.5L382.86,147.5L383.32,105.06L383.59,135.01L383.64,132.51L383.98,107.54L384.38,147.5L384.4,140.01L384.41,140.01L384.45,147.5L384.81,92.54L385.15,145L385.18,145L385.22,147.5L385.41,130.02L385.52,130.02L385.52,117.52L385.79,112.53L386,147.5L386.21,125.02L386.21,117.53L386.53,147.5L386.69,112.54L386.95,142.51L386.97,142.51L386.97,147.5L387.52,117.53L387.71,125.02L387.73,117.53L388.47,105.05L388.49,147.5L388.51,125.03L388.65,147.5L388.67,105.05L389.22,137.51L389.36,142.51L389.45,147.5L389.56,82.57L390.08,147.5L390.13,127.52L390.34,97.56L390.54,147.5L390.85,147.5L390.87,147.5L390.99,102.55L391.61,130.02L391.64,147.5L392,117.53L392.33,140.01L392.35,142.51L392.45,147.5L392.96,125.02L393.01,142.51L393.03,147.5L393.53,125.02L393.75,145L393.79,145L393.95,140.01L393.98,147.5L393.98,132.52L394.03,147.5L394.33,120.03L394.73,147.5L394.82,147.5L395.57,117.54L395.6,145.01L395.97,112.54L396.08,147.5L396.12,127.53L396.17,122.53L396.49,147.5L396.68,115.04L396.95,145L396.98,147.5L397.55,105.05L397.73,147.5L397.76,147.5L398.18,110.04L398.18,110.04L398.18,107.54L398.89,147.5L398.97,142.51L398.99,142.51L399,127.52" style="vector-effect: non-scaling-stroke; fill: none; stroke: rgb(0, 204, 150); stroke-opacity: 1; stroke-width: 2px; opacity: 1;"/></g><g class="points"/><g class="text"/></g></g></g><g class="overplot"/><path class="xlines-above crisp" d="M0,0" style="fill: none;"/><path class="ylines-above crisp" d="M0,0" style="fill: none;"/><g class="overlines-above"/><g class="xaxislayer-above"><g class="xtick"><text text-anchor="start" x="0" y="416" transform="translate(206.64,0) rotate(30,0,408.5)" style="font-family: 'Times New Roman'; font-size: 15px; fill: rgb(13, 13, 13); fill-opacity: 1; white-space: pre; opacity: 1;">1.6125210<tspan style="font-size:70%" dy="-0.6em">18</tspan><tspan dy="0.42em"></tspan></text></g><g class="xtick"><text text-anchor="start" x="0" y="416" style="font-family: 'Times New Roman'; font-size: 15px; fill: rgb(13, 13, 13); fill-opacity: 1; white-space: pre; opacity: 1;" transform="translate(285.82,0) rotate(30,0,408.5)">1.61252510<tspan style="font-size:70%" dy="-0.6em">18</tspan><tspan dy="0.42em"></tspan></text></g><g class="xtick"><text text-anchor="start" x="0" y="416" style="font-family: 'Times New Roman'; font-size: 15px; fill: rgb(13, 13, 13); fill-opacity: 1; white-space: pre; opacity: 1;" transform="translate(364.99,0) rotate(30,0,408.5)">1.6125310<tspan style="font-size:70%" dy="-0.6em">18</tspan><tspan dy="0.42em"></tspan></text></g><g class="xtick"><text text-anchor="start" x="0" y="416" style="font-family: 'Times New Roman'; font-size: 15px; fill: rgb(13, 13, 13); fill-opacity: 1; white-space: pre; opacity: 1;" transform="translate(444.17,0) rotate(30,0,408.5)">1.61253510<tspan style="font-size:70%" dy="-0.6em">18</tspan><tspan dy="0.42em"></tspan></text></g><g class="xtick"><text text-anchor="start" x="0" y="416" style="font-family: 'Times New Roman'; font-size: 15px; fill: rgb(13, 13, 13); fill-opacity: 1; white-space: pre; opacity: 1;" transform="translate(523.3399999999999,0) rotate(30,0,408.5)">1.6125410<tspan style="font-size:70%" dy="-0.6em">18</tspan><tspan dy="0.42em"></tspan></text></g></g><g class="yaxislayer-above"><g class="ytick"><text text-anchor="end" x="136" y="12.25" transform="translate(0,400.02)" style="font-family: 'Times New Roman'; font-size: 35px; fill: rgb(13, 13, 13); fill-opacity: 1; white-space: pre; opacity: 1;">0.06</text></g><g class="ytick"><text text-anchor="end" x="136" y="12.25" style="font-family: 'Times New Roman'; font-size: 35px; fill: rgb(13, 13, 13); fill-opacity: 1; white-space: pre; opacity: 1;" transform="translate(0,350.02)">0.04</text></g><g class="ytick"><text text-anchor="end" x="136" y="12.25" style="font-family: 'Times New Roman'; font-size: 35px; fill: rgb(13, 13, 13); fill-opacity: 1; white-space: pre; opacity: 1;" transform="translate(0,300.01)">0.02</text></g><g class="ytick"><text text-anchor="end" x="136" y="12.25" style="font-family: 'Times New Roman'; font-size: 35px; fill: rgb(13, 13, 13); fill-opacity: 1; white-space: pre; opacity: 1;" transform="translate(0,250)">0</text></g><g class="ytick"><text text-anchor="end" x="136" y="12.25" style="font-family: 'Times New Roman'; font-size: 35px; fill: rgb(13, 13, 13); fill-opacity: 1; white-space: pre; opacity: 1;" transform="translate(0,199.99)">0.02</text></g><g class="ytick"><text text-anchor="end" x="136" y="12.25" style="font-family: 'Times New Roman'; font-size: 35px; fill: rgb(13, 13, 13); fill-opacity: 1; white-space: pre; opacity: 1;" transform="translate(0,149.99)">0.04</text></g><g class="ytick"><text text-anchor="end" x="136" y="12.25" style="font-family: 'Times New Roman'; font-size: 35px; fill: rgb(13, 13, 13); fill-opacity: 1; white-space: pre; opacity: 1;" transform="translate(0,99.98)">0.06</text></g></g><g class="overaxes-above"/></g></g><g class="polarlayer"/><g class="smithlayer"/><g class="ternarylayer"/><g class="geolayer"/><g class="funnelarealayer"/><g class="pielayer"/><g class="iciclelayer"/><g class="treemaplayer"/><g class="sunburstlayer"/><g class="glimages"/><defs id="topdefs-4066e3"><g class="clips"/><clipPath id="legend4066e3"><rect width="144" height="67" x="0" y="0"/></clipPath></defs><g class="layer-above"><g class="imagelayer"/><g class="shapelayer"/></g><g class="infolayer"><g class="legend" pointer-events="all" transform="translate(543.98,100)"><rect class="bg" shape-rendering="crispEdges" style="stroke: rgb(68, 68, 68); stroke-opacity: 1; fill: rgb(255, 255, 255); fill-opacity: 1; stroke-width: 0px;" width="144" height="67" x="0" y="0"/><g class="scrollbox" transform="" clip-path="url(#legend4066e3)"><g class="groups"><g class="traces" transform="translate(0,14.5)" style="opacity: 1;"><text class="legendtext" text-anchor="start" x="40" y="4.680000000000001" style="font-family: 'Open Sans', verdana, arial, sans-serif; font-size: 12px; fill: rgb(42, 63, 95); fill-opacity: 1; white-space: pre;">Realized (in %)</text><g class="layers" style="opacity: 1;"><g class="legendfill"/><g class="legendlines"><path class="js-line" d="M5,0h30" style="fill: none; stroke: rgb(99, 110, 250); stroke-opacity: 1; stroke-width: 2px;"/></g><g class="legendsymbols"><g class="legendpoints"/></g></g><rect class="legendtoggle" x="0" y="-9.5" width="138.71875" height="19" style="fill: rgb(0, 0, 0); fill-opacity: 0;"/></g><g class="traces" transform="translate(0,33.5)" style="opacity: 1;"><text class="legendtext" text-anchor="start" x="40" y="4.680000000000001" style="font-family: 'Open Sans', verdana, arial, sans-serif; font-size: 12px; fill: rgb(42, 63, 95); fill-opacity: 1; white-space: pre;">Effective (in %)</text><g class="layers" style="opacity: 1;"><g class="legendfill"/><g class="legendlines"><path class="js-line" d="M5,0h30" style="fill: none; stroke: rgb(239, 85, 59); stroke-opacity: 1; stroke-width: 2px;"/></g><g class="legendsymbols"><g class="legendpoints"/></g></g><rect class="legendtoggle" x="0" y="-9.5" width="138.71875" height="19" style="fill: rgb(0, 0, 0); fill-opacity: 0;"/></g><g class="traces" transform="translate(0,52.5)" style="opacity: 1;"><text class="legendtext" text-anchor="start" x="40" y="4.680000000000001" style="font-family: 'Open Sans', verdana, arial, sans-serif; font-size: 12px; fill: rgb(42, 63, 95); fill-opacity: 1; white-space: pre;">Half Quoted (in %)</text><g class="layers" style="opacity: 1;"><g class="legendfill"/><g class="legendlines"><path class="js-line" d="M5,0h30" style="fill: none; stroke: rgb(0, 204, 150); stroke-opacity: 1; stroke-width: 2px;"/></g><g class="legendsymbols"><g class="legendpoints"/></g></g><rect class="legendtoggle" x="0" y="-9.5" width="138.71875" height="19" style="fill: rgb(0, 0, 0); fill-opacity: 0;"/></g></g></g><rect class="scrollbar" rx="20" ry="3" width="0" height="0" style="fill: rgb(128, 139, 164); fill-opacity: 1;" x="0" y="0"/></g><g class="g-gtitle"/><g class="g-xtitle"><text class="xtitle" x="336.5" y="487.503125" text-anchor="middle" style="font-family: 'Open Sans', verdana, arial, sans-serif; font-size: 14px; fill: rgb(42, 63, 95); opacity: 1; font-weight: normal; white-space: pre;">Time Steps (ns)</text></g><g class="g-ytitle" transform="translate(24,0)"><text class="ytitle" transform="rotate(-90,12,250)" x="12" y="250" text-anchor="middle" style="font-family: 'Times New Roman'; font-size: 40px; fill: rgb(13, 13, 13); opacity: 1; font-weight: normal; white-space: pre;">Spreads (in %)</text></g></g></svg>