<svg class="main-svg" xmlns="http://www.w3.org/2000/svg" xmlns:xlink="http://www.w3.org/1999/xlink" width="700" height="500" style="" viewBox="0 0 700 500"><rect x="0" y="0" width="700" height="500" style="fill: rgb(255, 255, 255); fill-opacity: 1;"/><defs id="defs-4d42bb"><g class="clips"><clipPath id="clip4d42bbxyplot" class="plotclip"><rect width="511" height="320"/></clipPath><clipPath class="axesclip" id="clip4d42bbx"><rect x="109" y="0" width="511" height="500"/></clipPath><clipPath class="axesclip" id="clip4d42bby"><rect x="0" y="100" width="700" height="320"/></clipPath><clipPath class="axesclip" id="clip4d42bbxy"><rect x="109" y="100" width="511" height="320"/></clipPath></g><g class="gradients"/><g class="patterns"/></defs><g class="bglayer"><rect class="bg" x="109" y="100" width="511" height="320" style="fill: rgb(229, 236, 246); fill-opacity: 1; stroke-width: 0;"/></g><g class="layer-below"><g class="imagelayer"/><g class="shapelayer"/></g><g class="cartesianlayer"><g class="subplot xy"><g class="layer-subplot"><g class="shapelayer"/><g class="imagelayer"/></g><g class="minor-gridlayer"><g class="x"/><g class="y"/></g><g class="gridlayer"><g class="x"><path class="xgrid crisp" transform="translate(198.2,0)" d="M0,100v320" style="stroke: rgb(255, 255, 255); stroke-opacity: 1; stroke-width: 1px;"/><path class="xgrid crisp" transform="translate(299.61,0)" d="M0,100v320" style="stroke: rgb(255, 255, 255); stroke-opacity: 1; stroke-width: 1px;"/><path class="xgrid crisp" transform="translate(401.02,0)" d="M0,100v320" style="stroke: rgb(255, 255, 255); stroke-opacity: 1; stroke-width: 1px;"/><path class="xgrid crisp" transform="translate(502.43,0)" d="M0,100v320" style="stroke: rgb(255, 255, 255); stroke-opacity: 1; stroke-width: 1px;"/><path class="xgrid crisp" transform="translate(603.8299999999999,0)" d="M0,100v320" style="stroke: rgb(255, 255, 255); stroke-opacity: 1; stroke-width: 1px;"/></g><g class="y"><path class="ygrid crisp" transform="translate(0,346.69)" d="M109,0h511" style="stroke: rgb(255, 255, 255); stroke-opacity: 1; stroke-width: 1px;"/><path class="ygrid crisp" transform="translate(0,289.02)" d="M109,0h511" style="stroke: rgb(255, 255, 255); stroke-opacity: 1; stroke-width: 1px;"/><path class="ygrid crisp" transform="translate(0,231.34)" d="M109,0h511" style="stroke: rgb(255, 255, 255); stroke-opacity: 1; stroke-width: 1px;"/><path class="ygrid crisp" transform="translate(0,173.67000000000002)" d="M109,0h511" style="stroke: rgb(255, 255, 255); stroke-opacity: 1; stroke-width: 1px;"/><path class="ygrid crisp" transform="translate(0,116)" d="M109,0h511" style="stroke: rgb(255, 255, 255); stroke-opacity: 1; stroke-width: 1px;"/></g></g><g class="zerolinelayer"><path class="yzl zl crisp" transform="translate(0,404.36)" d="M109,0h511" style="stroke: rgb(255, 255, 255); stroke-opacity: 1; stroke-width: 2px;"/></g><path class="xlines-below"/><path class="ylines-below"/><g class="overlines-below"/><g class="xaxislayer-below"/><g class="yaxislayer-below"/><g class="overaxes-below"/><g class="plot" transform="translate(109,100)" clip-path="url(#clip4d42bbxyplot)"><g class="scatterlayer mlayer"><g class="trace scatter trace0193b1" style="stroke-miterlimit: 2; opacity: 1;"><g class="fills"/><g class="errorbars"/><g class="lines"><path class="js-line" d="M0,16L0.21,16L0.21,160.18L0.21,16L0.71,292.83L0.82,39.07L0.98,16L1.54,296.43L1.8,223.62L1.8,16L2.2,289.94L2.5,128.46L2.56,16L2.96,284.18L3.21,263.99L3.3,16L3.77,303.64L3.99,16L4.03,16L4.19,16L4.19,111.16L4.69,290.63L4.94,16L4.94,16L4.96,191.9L5.27,297.15L5.69,16L5.7,249.57L5.7,16L5.96,292.83L6.43,285.91L6.5,16L6.92,292.83L7.19,16L7.3,16L7.55,289.94L8.01,16L8.06,197.67L8.06,16L8.06,287.06L8.78,16L8.84,96.74L8.84,16L9.28,295.71L9.58,16L9.61,53.49L9.61,16L10.19,279.85L10.34,16L10.39,16L10.9,275.52L10.93,16L11.05,301.48L11.68,274.08L11.71,16L11.93,301.48L12.01,259.13L12.01,16L12.4,295.71L12.51,287.06L12.69,33.3L12.69,16L12.71,287.06L13.43,269.76L13.49,16L13.68,301.48L14.27,266.87L14.27,53.49L14.32,16L14.32,298.59L15.03,269.76L15.03,50.6L15.03,16L15.61,298.59L15.76,16L15.81,128.46L15.82,16L16.27,298.59L16.56,274.08L16.58,183.25L16.61,16L16.79,298.87L17.32,111.16L17.35,177.48L17.49,16L17.88,263.99L18.05,16L18.11,114.04L18.15,16L18.18,301.48L18.86,255.34L18.99,16L19.43,252.46L19.65,251.01L19.82,59.25L19.84,16L19.89,297.15L20.47,217.85L20.58,16L20.67,295.71L21.32,16L21.33,16L21.75,289.94L22.08,16L22.09,292.83L22.09,16L22.72,298.59L22.81,220.74L22.87,16L23.49,287.06L23.62,16L23.64,16L23.89,16L23.9,232.27L23.9,16L24.44,284.18L24.65,16L24.66,16L24.93,289.94L25.43,214.97L25.43,105.39L25.45,16L25.92,275.52L26.19,269.76L26.19,50.6L26.51,214.97L26.53,16L26.54,180.37L26.54,222.18L26.62,282.01L26.63,16L26.86,151.53L26.93,16L27.38,298.59L27.6,16L27.63,16L27.79,16L27.81,21.77L27.83,16L28.04,302.2L28.51,16L28.68,16L29.02,271.4L29.08,108.28L29.17,16L29.52,281.29L29.86,16L29.93,16L30.4,16L30.4,289.94L30.45,16L31.14,246.69L31.22,16L31.46,281.29L31.96,16L32.03,212.09L32.06,16L32.76,274.8L32.76,134.23L32.82,16L33.24,287.06L33.57,16L33.61,16L33.87,256.05L34.31,125.58L34.4,16L34.75,284.18L35.13,16L35.2,16L35.86,275.52L35.9,44.84L35.92,16L36.52,289.94L36.66,255.34L36.7,217.85L36.74,277.69L36.78,16L37.31,102.51L37.36,16L37.89,299.85L37.89,16L37.94,16L38.3,289.94L38.66,151.53L38.73,16L39.44,278.41L39.5,258.22L39.5,16L40.2,301.51L40.31,281.29L40.31,16L40.36,301.48L40.73,186.13L40.74,16L41.15,298.71L41.49,16L41.55,16L42.14,301.48L42.37,223.62L42.37,44.84L42.37,299.3L42.39,16L43.1,16L43.15,16L43.73,292.83L43.83,85.21L43.9,16L44,302.92L44.6,276.9L44.61,21.77L44.69,16L44.69,105.39L44.69,298.59L44.7,16L45.44,16L45.45,147.07L45.6,16L45.87,272.64L46.06,62.65L46.22,139.99L46.26,16L46.85,295.71L46.91,295.71L46.99,24.65L47.04,16L47.62,301.48L47.63,32.02L47.8,16L47.91,281.29L48.06,16L48.1,16L48.74,298.59L48.84,258.22L48.86,16L49.44,300.76L49.55,116.93L49.56,16L49.72,301.48L50.28,298.71L50.34,21.77L50.46,16L50.51,298.59L51.06,232.27L51.09,16L51.27,287.06L51.73,105.39L51.77,16L51.79,298.59L52.51,16L52.54,16L53.13,301.51L53.22,16L53.31,16L53.7,290.63L53.99,238.45L54.03,16L54.2,269.76L54.67,16L54.69,16L55.1,300.04L55.43,284.18L55.5,16L55.93,289.94L56.23,16L56.3,16L56.73,286.34L57.05,16L57.1,16L57.19,290.76L57.86,108.28L57.9,16L58.4,295.71L58.65,16L58.73,277.45L59.35,289.94L59.46,16L59.51,16L59.62,301.48L60.26,16L60.28,16L60.71,301.48L61.03,154.41L61.06,16L61.18,295.71L61.8,272.64L61.83,16L62.07,292.83L62.52,105.39L62.55,108.16L62.93,298.92L63.2,16L63.33,16L63.33,301.48L64.08,272.64L64.09,272.64L64.12,16L64.65,289.94L64.84,16L64.86,16L64.95,41.95L64.95,280.55L65.15,301.48L65.63,16L65.66,280.55L65.77,289.94L65.91,295.71L66.48,16L66.48,16L66.55,30.42L66.55,16L66.55,300.76L67.3,16L67.34,160.9L67.43,302.92L68.03,16L68.04,249.57L68.15,88.09L68.22,16L68.52,302.2L68.88,131.34L68.92,16L69.28,301.48L69.63,16L69.71,289.94L70.14,300.89L70.51,16L70.51,16L70.52,263.99L70.52,16L70.89,301.48L71.27,16L71.28,114.04L71.36,16L71.37,284.18L71.98,148.65L72,16L72.36,295.71L72.62,16L72.77,16L72.96,301.87L73.45,88.09L73.47,16L73.98,292.83L74.22,232.27L74.23,16L74.7,295.71L74.96,125.58L75,16L75.73,298.71L75.75,56.37L75.77,16L76.21,289.94L76.48,186.13L76.53,16L77.22,298.59L77.25,16L77.33,16L77.75,291.35L78.05,16L78.09,291.71L78.24,16L78.83,16L78.85,16L79.04,295.71L79.55,119.81L79.59,16L80,299.31L80,36.19L80.13,16L80.63,298.59L80.87,262.46L80.9,165.95L80.91,16L81.26,278.41L81.64,16L81.72,283.45L82.05,296.42L82.26,16L82.26,16L82.28,292.83L82.29,16L82.94,298.71L83,16L83.06,16L83.7,295.71L83.83,258.22L83.83,80.08L83.84,16L84.21,261.95L84.51,203.43L84.61,292.11L84.7,16L85.15,300.46L85.33,173.16L85.42,96.74L85.45,16L85.64,300.04L86.14,16L86.19,93.86L86.23,16L86.4,295.71L86.89,16L86.97,298.59L87.67,16L87.7,197.15L87.74,272.64L87.74,16L88.02,294.75L88.47,16L88.5,16L89.25,295.71L89.26,16L89.73,287.06L90.02,280.55L90.03,41.95L90.03,16L90.19,298.59L90.7,275.52L90.81,194.78L90.81,16L91.55,302.92L91.56,16L91.58,180.37L91.97,280.82L92.24,16L92.24,16L92.24,289.94L92.92,301.51L93.01,16L93.1,56.37L93.53,301.48L93.73,16L93.74,21.77L93.74,298.59L94.49,16L94.52,16L94.58,299.75L95.21,16L95.29,16L95.35,298.59L96.02,16L96.08,16L96.39,281.29L96.81,16L96.84,16L97.44,299.55L97.59,125.58L97.66,125.58L97.69,16L98.13,232.27L98.37,16L98.43,16L99.1,272.64L99.14,47.72L99.26,16L99.89,301.48L99.9,18.88L99.95,16L100.36,302.92L100.66,232.27L100.66,88.09L100.78,16L101.25,295.71L101.37,278.41L101.43,16L101.69,298.59L102.16,108.28L102.19,16L102.3,214.95L102.38,141.37L102.41,16L102.47,27.53L102.47,292.83L102.56,295.23L103.22,16L103.23,33.3L103.23,272.64L103.31,16L103.72,290.03L103.94,255.34L103.99,16L104.6,278.41L104.73,16L104.81,16L105.09,301.48L105.57,280.57L105.58,16L106.15,292.83L106.31,154.41L106.31,16L106.5,292.83L107.05,121.73L107.07,125.58L107.53,292.83L107.75,16L107.79,297.63L108.54,16L108.54,16L108.55,194.78L108.55,16L109.26,291.38L109.29,65.02L109.31,255.34L109.31,16L109.52,289.94L110.04,16L110.08,145.76L110.09,16L110.12,297.15L110.82,16L110.88,16L111.51,301.48L111.64,111.16L111.64,16L111.98,301.48L112.4,64.06L112.42,16L113.12,301.48L113.12,154.41L113.18,16L113.83,299.31L113.95,99.62L113.95,16L114.08,299.31L114.7,165.95L114.71,16L115.32,301.12L115.46,206.32L115.47,206.32L115.48,16L115.82,287.06L116.21,160.18L116.23,272.64L116.26,16L116.78,301.48L116.98,16L117.02,16L117.19,275.52L117.75,244.4L117.81,56.37L117.84,16L118.33,289.94L118.55,47.72L118.57,142.88L118.57,16L118.95,299.31L119.32,16L119.36,243.8L119.4,16L119.51,293.27L120.11,281.29L120.13,238.04L120.13,16L120.4,293.27L120.86,183.25L120.93,16L121.07,30.42L121.07,289.94L121.79,16L121.88,16L122.3,258.22L122.53,16L122.64,16L122.67,302.44L123.38,41.95L123.41,16L124.07,301.48L124.13,16L124.2,16L124.86,281.29L124.95,16L124.96,16L125.06,304L125.7,212.09L125.74,16L125.94,298.59L126.49,16L126.55,16L126.82,301.56L127.24,44.84L127.29,16L127.34,301.48L127.96,191.9L128.04,16L128.18,301.51L128.8,200.55L128.86,16L129.42,295.71L129.58,16L129.61,16L129.73,283L130.37,127.54L130.4,203.43L130.68,301.95L131.13,16L131.14,50.6L131.14,269.76L131.29,295.71L131.92,16L131.92,16L131.98,16L132.61,289.94L132.71,16L132.76,16L132.81,300.04L133.5,242.36L133.54,272.64L133.64,16L133.98,301.05L134.28,163.06L134.33,16L134.57,295.71L134.95,62.14L135.01,62.14L135.35,293.27L135.73,16L135.73,293.16L136.38,300.76L136.4,16L136.4,30.42L136.57,16L136.72,16L136.72,249.89L137.09,302.92L137.34,16L137.41,67.9L137.5,16L137.79,299.31L138.22,16L138.29,16L138.33,27.53L138.41,280.33L138.65,295.71L139.04,16L139.21,27.53L139.25,292.83L139.91,301.48L140,16L140.02,165.95L140.05,16L140.71,302.2L140.75,277.41L140.8,53.73L141.26,295.71L141.53,16L141.53,16L141.55,275.52L141.55,301.48L141.63,16L142.3,16L142.37,16L143.08,298.59L143.11,258.22L143.13,16L143.29,279.85L143.83,128.46L143.92,16L144.11,301.48L144.59,16L144.69,16L145.4,295.71L145.44,16L145.52,16L146.11,301.48L146.27,16L146.33,16L146.47,300.04L147.08,232.27L147.1,70.93L147.17,16L147.73,301.39L147.85,16L147.92,16L147.98,298.71L148.66,16L148.7,16L149.1,295.71L149.32,16L149.35,16L149.85,287.4L150.08,86.65L150.15,151.53L150.16,16L150.52,292.83L150.9,88.09L150.92,16L151.22,292.83L151.39,16L151.47,16L152.21,292.83L152.21,16L152.27,59.25L152.27,16L153.01,301.48L153.01,16L153.13,16L153.17,298.59L153.83,16L153.93,16L154.31,293.55L154.68,160.18L154.71,16L154.75,298.59L155.39,220.74L155.51,16L155.58,24.65L155.58,292.67L155.64,295.71L156.33,16L156.33,16L156.37,193.14L156.37,16L156.92,301.48L157.11,211.2L157.15,16L157.44,294.27L157.9,128.46L157.95,275.52L158.02,292.83L158.67,16L158.68,249.57L158.74,16L159.02,274.01L159.43,249.57L159.44,16L159.58,295.71L160.15,145.76L160.28,16L160.76,297.15L161.05,217.85L161.05,16L161.23,299.12L161.74,27.53L161.82,136.59L161.87,16L162.23,297.15L162.54,16L162.59,206.32L162.59,16L162.81,289.94L163.3,240.92L163.35,16L163.9,298.59L164.1,111.16L164.14,16L164.4,298.71L164.88,16L164.91,16L165.29,295.71L165.67,102.51L165.72,16L166.45,266.87L166.5,16L167.25,293.27L167.27,44.84L167.31,16L167.96,298.59L168.01,242.36L168.07,139.99L168.31,301.48L168.71,16L168.75,284.18L168.84,43.91L168.87,16L169.32,296.43L169.58,200.55L169.61,16L170.26,289.94L170.36,287.06L170.38,267.59L170.44,16L170.72,293.27L171.13,90.97L171.14,50.6L171.2,292.83L171.23,16L171.89,197.56L171.91,131.34L171.93,16L172.4,295.71L172.59,16L172.63,16L172.66,298.59L173.38,16L173.44,263.99L173.44,16L173.81,301.48L174.09,194.78L174.2,39.07L174.21,295.71L174.25,16L174.95,269.76L174.97,128.46L175.02,16L175.1,290.63L175.65,232.27L175.76,232.27L175.77,16L176.5,292.83L176.5,27.53L176.56,27.53L176.61,16L176.62,298.59L177.28,16L177.32,16L177.7,300.93L178.07,160.18L178.2,16L178.37,295.54L178.92,16L178.96,16L178.98,301.48L179.71,16L179.72,16L180.06,303.4L180.43,16L180.51,16L181.01,289.94L181.27,266.87L181.29,16L181.61,289.94L181.62,16L181.96,303.45L182.35,85.21L182.4,16L183.11,300.8L183.12,18.88L183.12,301.48L183.19,16L183.86,76.56L183.9,16L184.03,301.48L184.64,50.6L184.67,269.76L185.32,301.48L185.43,16L185.55,16L185.64,295.71L186.24,287.06L186.3,16L186.33,301.48L187,16L187.06,16L187.29,301.48L187.8,113.53L187.85,171.71L187.85,16L187.95,295.71L188.56,69.03L188.61,16L189.03,301.48L189.38,163.06L189.38,85.21L189.81,301.48L190.09,16L190.09,269.76L190.51,284.18L190.71,16L190.71,16L190.86,16L191.08,281.29L191.6,16L191.63,16L191.8,292.83L192.33,16L192.39,16L192.72,291.25L193.13,285.62L193.24,16L193.29,298.59L193.99,16L194.1,139.99L194.1,16L194.76,295.71L194.81,16L194.92,16L195.48,293.55L195.7,235.15L195.72,16L196.45,295.71L196.45,16L197,297.87L197.19,16L197.24,16L197.53,287.06L197.97,16L198,16L198.46,269.76L198.75,16L198.77,178.92L198.8,16L198.94,293.55L199.51,167.39L199.54,164.55L199.58,16L200.04,300.04L200.24,16L200.32,16L200.43,38.62L200.5,24.65L200.5,302.2L201.2,16L201.25,139.99L201.3,16L201.73,275.52L202.02,165.95L202.06,16L202.08,286.34L202.69,243.8L202.82,76.56L202.93,16L203.04,301.48L203.5,36.12L203.6,16L203.86,293.27L204.31,251.01L204.36,16L205.1,301.48L205.14,217.85L205.15,102.51L205.18,16L205.76,301.48L205.89,16L205.94,238.04L205.94,16L206.32,300.52L206.68,258.22L206.72,16L206.8,301.48L207.32,16L207.4,16L207.65,289.94L208.15,16L208.17,16L208.45,294.27L208.92,206.32L208.94,16L209.6,298.59L209.64,16L209.71,16L209.72,18.88L209.76,296.19L209.76,16L209.79,301.48L210.49,16L210.53,16L210.68,16L210.7,301.48L210.73,16L211.45,163.06L211.52,16L212.18,301.48L212.21,23.39L212.34,16L212.43,295.71L212.77,16L212.79,16L212.8,292.83L213.52,16L213.55,16L213.85,16L213.85,16L213.91,232.27L213.91,16L214.24,292.83L214.62,111.16L214.74,278.41L214.9,292.83L215.51,16L215.51,16L215.56,16L215.93,301.48L216.31,16L216.35,16L217.08,284.18L217.11,16L217.86,301.48L217.86,160.18L217.89,16L218.57,300.04L218.59,24.65L218.66,16L219.14,295.71L219.4,16L219.42,16L220.06,281.29L220.18,95L220.18,16L220.34,287.06L220.9,16L220.94,16L221.27,252.46L221.69,246.69L221.72,16L222.4,301.51L222.47,16L222.51,242.42L222.51,16L223.16,302.92L223.19,16L223.28,70.79L223.3,16L223.97,303.64L224.07,16L224.34,298.82L224.82,16L224.88,16L225.57,302.2L225.74,16L226.31,302.2L226.46,16L226.54,200.55L226.95,298.59L227.19,16L227.28,144.16L227.28,258.22L227.42,287.06L228,16L228.03,180.37L228.07,16L228.13,302.92L228.82,16L228.83,16L229.01,295.71L229.53,62.14L229.59,16L229.66,258.22L229.84,79.44L229.91,16L230.12,301.48L230.56,16L230.61,16L230.81,300.04L231.36,16L231.38,16L232.15,301.51L232.15,200.55L232.17,24.65L232.17,295.71L232.17,16L232.82,16L232.94,16L233.09,293.27L233.66,137.11L233.75,16L234.07,285.62L234.38,16L234.53,16L234.71,302.92L235.26,16L235.29,16L235.88,295.71L236.04,102.51L236.07,16L236.56,301.48L236.79,16L236.83,96.74L236.83,16L236.9,295.96L237.58,255.34L237.59,16L237.62,275.52L238.33,16L238.36,183.25L238.38,16L238.84,301.48L239.07,219.77L239.12,16L239.73,301.48L239.87,252.46L239.88,16L240.48,301.48L240.61,16L240.69,16L240.74,301.48L241.4,16L241.47,16L241.81,298.59L242.26,240.92L242.26,16L242.73,300.65L242.99,177.48L243.01,16L243.03,18.88L243.03,301.51L243.76,16L243.83,65.02L243.85,16L244.1,298.76L244.56,16L244.61,16L244.67,290.23L245.35,16L245.43,160.18L245.45,298.59L245.46,16L246.17,157.3L246.19,134.23L246.76,289.94L246.79,16L246.79,16L246.83,289.94L246.84,16L247.11,301.48L247.57,16L247.59,16L247.61,295.71L248.34,16L248.38,232.27L248.44,16L248.79,295.96L249.13,24.65L249.18,16L249.95,295.71L249.95,16L250.18,284.18L250.69,16L250.75,16L250.92,289.22L251.44,16L251.51,16L251.66,263.99L251.66,56.37L251.7,16L252.35,291.82L252.41,73.67L252.48,16L252.84,278.41L253.22,226.5L253.27,73.67L253.64,289.94L253.71,16L253.73,278.41L253.73,16L254.2,298.59L254.43,16L254.5,263.99L254.53,16L254.69,292.83L255.25,283L255.37,263.99L255.4,16L256.01,286.34L256.12,16L256.13,16L256.36,16L256.42,242.84L256.45,16L256.5,275.52L256.95,16L256.97,16L256.97,303.64L257.66,16L257.73,289.94L257.75,16L258.19,292.83L258.43,160.18L258.55,16L258.84,280.57L259.25,16L259.42,16L259.99,298.71L260.15,16L260.18,89.53L260.22,16L260.46,281.29L260.47,16L260.54,16L260.82,298.59L261.29,235.46L261.32,16L261.68,303.78L261.94,243.8L262.03,16L262.11,263.99L262.8,131.34L262.82,16L263.02,295.71L263.56,16L263.57,16L264.03,297.15L264.34,258.22L264.34,90.97L264.34,16L265.01,292.11L265.06,16L265.12,16L265.63,301.48L265.75,125.58L265.83,16L266.16,282.73L266.58,16L266.61,16L266.61,291.38L267.33,16L267.37,16L267.52,301.48L268.05,285.62L268.05,53.49L268.05,16L268.52,289.94L268.77,208.24L268.87,33.3L268.87,16L269.07,301.48L269.51,160.18L269.63,16L269.98,243.8L270.38,16L270.39,36.19L270.45,284.18L270.76,16L270.76,16L270.77,285.62L271.5,301.48L271.54,16L271.54,16L271.58,18.88L271.63,16L271.76,295.71L272.32,93.86L272.33,16L272.91,301.48L272.98,27.53L273.1,16L273.13,292.83L273.84,214.97L273.86,16L274.03,289.94L274.09,33.3L274.19,16L274.38,301.48L274.89,16L274.96,160.18L274.96,282.73L274.96,16L275.55,16L275.76,16L276.09,291.38L276.5,50.6L276.54,16L276.8,301.48L277.27,16L277.34,16L278.06,298.59L278.08,21.77L278.12,16L278.28,275.52L278.37,238.04L278.63,16L279.06,297.15L279.28,160.18L279.39,252.46L279.39,16L279.42,295.71L280.14,233.71L280.15,16L280.85,298.59L280.89,27.53L280.93,16L281.18,16L281.19,288.04L281.48,298.59L281.98,16L281.98,16L282.09,16L282.31,273.91L282.83,128.69L282.85,168.83L282.89,16L283.29,301.48L283.53,300.04L283.69,16L283.69,287.06L284.43,111.16L284.45,16L284.62,294.56L285.2,73.67L285.22,16L285.65,275.52L285.98,67.9L285.98,16L286.32,298.59L286.73,16L286.77,287.06L286.77,16L286.78,294.27L287.51,27.53L287.53,16L287.75,301.48L288.13,16L288.24,16L288.78,296.82L289,278.41L289,41.95L289.49,301.48L289.67,16L289.67,16L289.81,16L289.88,295.71L290.49,16L290.58,16L291.19,263.99L291.3,16L291.4,58.72L291.43,16L291.56,301.48L292.15,145L292.18,16L292.72,291.82L292.93,16L292.94,16L293.67,282.25L293.71,82.32L293.72,16L294.35,295.13L294.41,16L294.52,16L294.92,302.2L295.24,220.74L295.27,16L295.36,302.92L296.02,295.71L296.04,24.65L296.08,16L296.12,177.48L296.13,16L296.32,295.71L296.86,16L296.88,148.65L296.88,16L297.01,295.71L297.59,16L297.65,249.57L297.67,16L298.06,297.15L298.35,122.69L298.45,16L298.99,295.71L299.05,16L299.14,39.07L299.14,283L299.49,292.83L299.95,16L299.96,134.23L299.98,16L300.06,301.48L300.71,235.15L300.75,209.2L300.75,16L301,293.87L301.45,232.27L301.55,16L302.06,301.51L302.3,16L302.33,16L302.89,284.18L303.1,232.27L303.12,160.18L303.12,298.59L303.22,16L303.84,16L303.88,105.39L304.15,300.71L304.58,16L304.61,199.11L304.67,16L304.96,294.99L305.23,233.71L305.23,16L305.63,296.9L305.98,16L305.99,93.86L306.22,292.83L306.46,16L306.55,116.93L306.55,299.43L306.57,16L306.79,301.48L307.25,16L307.31,16L307.69,298.59L307.95,16L308.06,16L308.32,16L308.35,238.82L308.87,298.59L309.12,16L309.12,79.44L309.13,240.92L309.15,16L309.39,296.97L309.88,99.72L309.89,79.44L309.92,16L310.25,301.48L310.62,16L310.65,154.41L310.66,16L311.22,284.18L311.4,183.25L311.41,16L311.44,284.18L312.1,238.04L312.17,16L312.81,289.94L312.91,284.18L312.93,30.42L313.17,168.83L313.22,16L313.22,266.87L313.68,295.71L313.93,16L313.93,16L313.98,85.21L313.98,16L314.43,301.42L314.72,79.44L314.8,16L315.2,295.71L315.59,249.57L315.6,16L316.18,298.59L316.36,132.31L316.36,16L316.43,27.53L316.49,225.06L316.49,16L317.21,292.83L317.21,16L317.27,284.18L317.27,16L317.31,301.48L317.99,16L318.03,16L318.72,287.06L318.73,16L319.48,302.2L319.48,16L319.5,16L319.66,301.48L320.1,223.62L320.27,16L320.53,300.04L320.94,220.74L321.03,53.49L321.03,295.71L321.06,16L321.71,16L321.79,16L322.57,297.15L322.57,16L322.57,292.83L323.32,16L323.35,16L323.43,298.59L324.1,16L324.13,16L324.47,295.71L324.89,178.92L324.89,16L325.14,291.38L325.61,229.39L325.65,224.26L325.65,16L326.12,301.48L326.3,272.32L326.43,16L326.71,295.71L327.19,99.62L327.23,16L327.96,301.48L327.98,229.39L328.06,39.07L328.11,16L328.79,301.48L328.8,16L328.82,16L329.14,16L329.15,287.06L329.2,16L329.31,298.71L329.83,16L329.91,16L330,28.02L330,301.48L330,16L330.75,16L330.77,255.34L330.77,16L331.17,298.59L331.51,16L331.61,225.06L331.65,16L331.96,298.59L332.34,119.81L332.41,212.09L332.45,16L332.86,298.59L333.14,16L333.17,16L333.74,298.59L333.91,79.44L333.94,111.16L334.21,287.06L334.55,16L334.58,44.84L334.68,275.52L335.17,298.59L335.45,16L335.45,142.88L335.47,16L335.69,301.48L336.16,142.88L336.35,16L336.79,301.48L337.07,16L337.1,16L337.4,295.71L337.88,255.34L337.88,16L338.18,302.2L338.62,16L338.64,249.57L338.69,16L338.93,302.92L339.39,88.09L339.4,16L340.15,299.31L340.16,232.27L340.16,88.09L340.19,16L340.5,292.83L340.91,16L340.92,30.42L340.92,289.94L340.95,16L341.67,16L341.69,278.41L341.69,16L342.44,50.6L342.45,16L343.2,298.59L343.21,90.97L343.23,16L343.4,16L343.4,229.39L343.74,275.52L344.1,16L344.1,160.18L344.25,16L344.9,289.94L344.98,16L345.01,16L345.47,298.59L345.66,254.62L345.73,16L346.24,301.48L346.53,229.39L346.57,68.8L346.57,16L346.75,298.59L347.31,16L347.37,16L348.09,295.71L348.1,160.18L348.13,16L348.29,296.43L348.41,189.02L348.63,16L348.84,16L348.84,258.22L348.86,16L349.04,281.29L349.59,50.6L349.61,16L350.17,301.48L350.29,30.42L350.42,16L350.53,301.48L351.14,41.95L351.17,16L351.49,301.48L351.91,16L351.98,16L352.51,301.48L352.73,16L352.77,16L352.99,301.48L353.45,16L353.53,16L354.2,292.83L354.29,187.57L354.3,16L354.56,301.51L354.94,93.43L354.95,16L354.95,301.48L355.7,16L355.72,160.18L355.79,16L356.18,285.14L356.34,254.31L356.44,16L356.7,16L356.7,232.27L356.94,295.71L357.47,16L357.47,16L357.52,16L357.77,299.31L358.18,50.6L358.28,50.6L358.28,269.76L358.3,16L359.01,183.25L359.09,16L359.19,300.1L359.82,249.57L359.82,16L360.05,295.71L360.06,234.12L360.07,16L360.18,70.79L360.18,24.65L360.21,246.69L360.33,16L360.82,295.71L360.95,200.55L361.02,16L361.06,301.48L361.76,165.95L361.76,16L361.96,16L361.99,232.27L362.02,16L362.5,301.48L362.73,197.67L362.83,229.39L362.83,16L362.91,272.64L363.56,16L363.61,90.97L363.61,16L364.33,289.94L364.34,16L364.43,16L364.97,295.71L365.22,252.46L365.24,16L365.63,298.59L365.97,16L366.01,16L366.77,272.64L366.81,281.29L366.85,295.71L367.54,16L367.56,145.76L367.62,16L368.32,287.06L368.35,16L368.39,85.21L368.43,16L368.77,281.29L369.09,16L369.15,16L369.75,303.21L369.91,186.13L369.91,134.23L369.99,16L370.18,298.59L370.58,16L370.7,16L371.35,293.79L371.43,181.81L371.46,116.93L371.46,16L371.68,292.83L372.2,16L372.24,16L372.5,297.87L372.5,281.29L372.51,21.77L372.51,298.59L372.52,16L373.25,232.27L373.27,16L373.7,297.15L374.01,16L374.05,85.21L374.06,16L374.09,289.22L374.76,218.63L374.85,16L375.35,298.59L375.6,111.16L375.65,226.5L375.69,16L375.75,301.48L376.4,36.39L376.41,281.29L376.43,16L376.73,301.48L377.1,16L377.17,258.94L377.18,16L377.74,287.06L377.86,16L377.94,16L378.38,289.94L378.68,16L378.72,281.29L378.79,16L379.25,301.48L379.46,16L379.51,32.02L379.51,301.51L379.54,16L380.26,16L380.38,134.23L380.38,16L380.41,289.94L381.11,289.94L381.14,16L381.81,302.2L381.87,16L381.88,16L382.44,278.41L382.62,41.95L382.64,16L382.65,291.38L383.34,16L383.43,278.41L383.45,16L383.66,289.22L384.18,184.69L384.24,16L384.88,278.41L384.96,269.76L385.1,16L385.16,295.3L385.75,163.06L385.83,16L386.2,279.85L386.55,16L386.64,16L387.16,297.15L387.43,212.09L387.43,108.28L387.43,16L388.01,295.71L388.16,16L388.22,16L388.92,295.71L388.95,16L388.96,16L389.45,298.71L389.71,16L389.74,186.13L389.8,16L389.99,298.71L390.43,297.15L390.55,16L390.58,301.67L391.28,206.32L391.33,212.09L391.92,294.53L392.1,16L392.11,160.18L392.11,16L392.69,301.48L392.85,243.8L392.87,76.56L392.89,301.48L393.12,16L393.61,16L393.68,16L393.68,297.87L394.42,278.92L394.46,16L394.75,16L394.75,186.13L394.81,16L394.82,295.71L395.46,16L395.48,16L395.69,300.04L396.24,281.29L396.31,16L396.46,39.07L396.46,281.29L396.87,302.92L397.22,16L397.24,39.07L397.29,281.29L397.99,300.32L398.05,16L398.07,238.04L398.41,287.06L398.81,16L398.81,180.37L398.82,257.5L398.94,295.71L399.55,16L399.69,16L400.3,287.06L400.42,16L400.46,33.3L400.46,287.06L400.47,16L401.15,250.29L401.26,16L401.74,301.51L402.02,33.3L402.04,16L402.07,295.71L402.8,256.3L402.83,16L403.27,298.59L403.49,131.34L403.55,16L404.22,301.48L404.3,16L404.33,16L404.99,298.59L405.07,16L405.1,50.6L405.14,16L405.48,298.59L405.85,16L405.86,274.56L406.55,288.5L406.64,16L406.64,238.04L406.81,298.59L407.4,16L407.4,16L407.45,16L408.12,292.83L408.16,16L408.25,16L408.27,209.2L408.32,16L408.33,243.8L408.33,16L408.46,301.48L409.08,209.2L409.09,111.16L409.14,16L409.21,301.48L409.84,41.95L409.86,269.76L409.88,302.92L410.59,16L410.59,16L410.62,302.92L411.38,16L411.41,131.34L411.45,16L411.73,301.48L412.21,250.08L412.23,16L412.36,289.94L412.92,105.39L412.93,16L413.42,286.18L413.68,283.58L413.71,16L413.79,301.83L413.9,119.81L413.95,16L414.33,290.63L414.69,266.87L414.71,266.87L414.74,16L414.8,295.71L415.45,16L415.48,16L416.13,298.71L416.23,16L416.51,16L416.51,243.8L416.63,279.29L417.27,16L417.31,177.48L417.32,16L417.8,301.48L418.04,16L418.12,36.19L418.14,298.29L418.14,16L418.86,134.23L418.91,16L419.64,295.71L419.66,16L419.68,128.46L419.69,16L420.16,298.59L420.4,16L420.44,16L421.14,295.71L421.16,24.65L421.2,24.65L421.24,16L421.58,298.59L421.93,62.14L422.02,16L422.16,295.71L422.36,16L422.38,16L423.04,298.59L423.12,165.95L423.2,88.09L423.2,16L423.64,301.48L423.93,16L423.99,39.07L423.99,298.59L424,16L424.73,16L424.75,243.8L425.03,301.48L425.48,16L425.48,16L425.51,186.13L425.52,16L426.14,301.59L426.23,62.14L426.28,16L426.42,289.94L427.01,85.21L427.05,16L427.76,289.94L427.79,16L427.86,261.11L427.93,16L428.16,298.59L428.61,203.43L428.66,16L428.7,281.29L429.4,16L429.48,16L429.61,298.59L430.21,223.62L430.23,16L430.92,298.59L430.98,16L431,16L431.17,298.59L431.7,16L431.76,16L431.76,300.04L432.49,174.6L432.52,145.76L432.95,284.9L433.25,16L433.26,212.09L433.32,16L433.43,282.73L433.93,139.58L434.02,16L434.15,295.71L434.44,154.41L434.44,16L434.75,295.71L435.18,289.94L435.2,16L435.65,295.71L435.95,200.55L435.97,110.37L436.01,16L436.22,298.59L436.72,154.41L436.72,16L436.83,291.82L437.39,275.52L437.5,275.52L438.17,16L438.17,294.27L438.22,36.19L438.27,16L438.57,294.27L439.01,16L439.04,16L439.6,300.04L439.76,263.99L439.81,16L440.41,293.05L440.52,281.29L440.62,16L440.78,292.83L441.32,246.69L441.32,73.67L441.44,16L441.65,297.58L442.04,16L442.07,16L442.27,16L442.3,266.98L442.34,16L442.36,298.59L443.05,224.96L443.09,186.13L443.09,16L443.28,293.27L443.84,16L443.86,145.76L443.9,16L444.05,287.06L444.6,16L444.75,16L445.41,298.59L445.51,174.6L445.56,16L445.79,298.59L446.31,203.43L446.36,16L446.85,279.85L447.13,88.09L447.19,16L447.51,298.59L447.93,131.34L447.93,16L448.11,292.83L448.3,238.04L448.36,16L448.5,285.62L449.13,229.39L449.13,16L449.56,298.59L449.82,16L449.93,21.77L449.96,301.48L449.96,16L450.68,16L450.7,16L451.25,294.27L451.43,16L451.48,160.18L451.48,16L451.97,295.71L452.21,16L452.24,16L452.6,295.96L452.68,226.5L452.71,24.65L452.71,16L452.98,292.83L453.45,16L453.48,16L453.79,302.2L454.15,246.69L454.24,16L454.61,303.64L454.97,183.25L455.04,16L455.14,302.2L455.79,288.04L455.8,16L456.42,291.38L456.45,278.41L456.58,16L457.16,297.15L457.33,16L457.34,30.42L457.35,16L457.84,298.18L458.09,245.25L458.12,252.46L458.12,16L458.25,278.41L458.85,16L458.9,16L459.47,295.71L459.62,16L459.71,261.11L459.71,16L459.98,298.59L460.46,16L460.47,16L461.14,301.48L461.23,259.66L461.24,16L461.25,18.88L461.25,16L461.27,302.92L462.01,16L462.01,16L462.08,16L462.46,295.71L462.81,128.46L462.82,16L463.18,298.59L463.57,16L463.63,27.53L463.84,287.06L464.15,16L464.2,301.48L464.21,16L464.91,16L464.96,203.43L464.97,16L465.23,287.6L465.7,16L465.73,16L466.36,275.52L466.48,108.28L466.5,16L467,297.15L467.07,209.33L467.16,16L467.74,292.59L467.91,196.23L467.93,16L468.41,301.77L468.53,232.27L468.6,16L469.33,285.5L469.37,197.67L469.42,16L470.11,292.83L470.13,16L470.18,27.53L470.19,298.59L470.48,16L470.5,252.46L470.52,301.48L470.52,16L471.23,16L471.3,53.49L471.32,16L471.88,301.48L472.04,16L472.14,292.83L472.17,16L472.61,303.64L472.89,16L472.92,16L472.93,303.64L473.66,16L473.69,16L473.84,289.94L474.19,238.04L474.3,49.16L474.35,255.34L474.87,16L474.87,160.18L474.91,255.34L474.91,16L475.04,301.48L475.65,269.76L475.68,50.6L475.69,16L475.86,287.06L476.35,16L476.45,16L476.98,275.52L477.19,109.96L477.22,16L477.82,287.06L477.97,16L478,18.88L478.03,16L478.06,301.48L478.75,73.67L478.76,245.21L479.31,298.59L479.47,16L479.56,16L480.17,298.59L480.32,292.83L480.33,16L480.81,301.48L481.05,16L481.13,16L481.7,298.71L481.82,16L481.87,41.95L481.92,16L482.29,301.71L482.6,16L482.64,50.6L482.91,301.48L483.28,16L483.3,209.2L483.86,287.06L484.03,16L484.04,145.76L484.07,16L484.78,300.76L484.81,16L484.84,16L484.99,301.48L485.56,254.31L485.61,76.56L485.64,16L485.96,301.48L486.34,165.95L486.38,16L486.4,21.77L486.42,16L486.42,300.04L487.03,16L487.2,258.22L487.23,16L487.78,301.48L487.95,194.78L488,125.58L488.63,16L488.63,295.71L488.75,115L488.75,200.55L488.77,16L489.41,295.96L489.5,160.18L489.51,16L489.93,301.61L490.26,137.11L490.27,16L490.45,295.71L491.01,294.99L491.03,226.5L491.46,300.76L491.76,16L491.76,302.92L491.82,16L492.51,102.51L492.53,235.4L492.75,298.59L493.27,16L493.32,261.11L493.51,298.59L494.09,16L494.09,252.46L494.09,16L494.56,302.2L494.81,189.02L494.9,189.02L494.9,16L495.1,301.48L495.58,16L495.66,218.81L495.66,16L496.05,288.5L496.41,93.86L496.43,16L496.52,301.48L497.15,16L497.19,189.02L497.21,284.9L497.33,16L497.84,16L497.97,16L498.29,289.94L498.41,16L498.48,16L498.84,301.48L499.2,270.62L499.24,177.48L499.25,16L499.44,288.91L499.99,16L500.07,261.11L500.21,295.71L500.82,16L500.94,248.85L500.95,16L501.66,295.71L501.67,24.65L501.74,246.69L502.04,301.59L502.48,16L502.48,16L502.52,16L503.05,293.27L503.07,16L503.19,16L503.36,16L503.42,189.02L503.44,16L503.73,292.83L504.17,16L504.18,301.48L504.24,16L504.92,16L504.94,47.72L505,16L505.55,298.59L505.68,232.27L505.75,16L506.35,301.48L506.48,16L506.5,16L506.98,295.71L507.14,16L507.26,16L507.71,301.48L508,16L508.07,243.8L508.17,16L508.49,298.59L508.79,176.2L508.83,16L509.05,281.29L509.59,111.16L509.61,16L510.06,303.64L510.36,70.79L510.37,16L510.68,300.58L511,16" style="vector-effect: non-scaling-stroke; fill: none; stroke: rgb(99, 110, 250); stroke-opacity: 1; stroke-width: 2px; opacity: 1;"/></g><g class="points"/><g class="text"/></g></g></g><g class="overplot"/><path class="xlines-above crisp" d="M0,0" style="fill: none;"/><path class="ylines-above crisp" d="M0,0" style="fill: none;"/><g class="overlines-above"/><g class="xaxislayer-above"><g class="xtick"><text text-anchor="middle" x="0" y="436" transform="translate(198.2,0)" style="font-family: 'Times New Roman'; font-size: 15px; fill: rgb(13, 13, 13); fill-opacity: 1; white-space: pre; opacity: 1;">1.61252×10​<tspan style="font-size:70%" dy="-0.6em">18</tspan><tspan dy="0.42em">​</tspan></text></g><g class="xtick"><text text-anchor="middle" x="0" y="436" style="font-family: 'Times New Roman'; font-size: 15px; fill: rgb(13, 13, 13); fill-opacity: 1; white-space: pre; opacity: 1;" transform="translate(299.61,0)">1.612525×10​<tspan style="font-size:70%" dy="-0.6em">18</tspan><tspan dy="0.42em">​</tspan></text></g><g class="xtick"><text text-anchor="middle" x="0" y="436" style="font-family: 'Times New Roman'; font-size: 15px; fill: rgb(13, 13, 13); fill-opacity: 1; white-space: pre; opacity: 1;" transform="translate(401.02,0)">1.61253×10​<tspan style="font-size:70%" dy="-0.6em">18</tspan><tspan dy="0.42em">​</tspan></text></g><g class="xtick"><text text-anchor="middle" x="0" y="436" style="font-family: 'Times New Roman'; font-size: 15px; fill: rgb(13, 13, 13); fill-opacity: 1; white-space: pre; opacity: 1;" transform="translate(502.43,0)">1.612535×10​<tspan style="font-size:70%" dy="-0.6em">18</tspan><tspan dy="0.42em">​</tspan></text></g><g class="xtick"><text text-anchor="middle" x="0" y="436" style="font-family: 'Times New Roman'; font-size: 15px; fill: rgb(13, 13, 13); fill-opacity: 1; white-space: pre; opacity: 1;" transform="translate(603.8299999999999,0)">1.61254×10​<tspan style="font-size:70%" dy="-0.6em">18</tspan><tspan dy="0.42em">​</tspan></text></g></g><g class="yaxislayer-above"><g class="ytick"><text text-anchor="end" x="108" y="12.25" transform="translate(0,404.36)" style="font-family: 'Times New Roman'; font-size: 35px; fill: rgb(13, 13, 13); fill-opacity: 1; white-space: pre; opacity: 1;">0</text></g><g class="ytick"><text text-anchor="end" x="108" y="12.25" style="font-family: 'Times New Roman'; font-size: 35px; fill: rgb(13, 13, 13); fill-opacity: 1; white-space: pre; opacity: 1;" transform="translate(0,346.69)">20</text></g><g class="ytick"><text text-anchor="end" x="108" y="12.25" style="font-family: 'Times New Roman'; font-size: 35px; fill: rgb(13, 13, 13); fill-opacity: 1; white-space: pre; opacity: 1;" transform="translate(0,289.02)">40</text></g><g class="ytick"><text text-anchor="end" x="108" y="12.25" style="font-family: 'Times New Roman'; font-size: 35px; fill: rgb(13, 13, 13); fill-opacity: 1; white-space: pre; opacity: 1;" transform="translate(0,231.34)">60</text></g><g class="ytick"><text text-anchor="end" x="108" y="12.25" style="font-family: 'Times New Roman'; font-size: 35px; fill: rgb(13, 13, 13); fill-opacity: 1; white-space: pre; opacity: 1;" transform="translate(0,173.67000000000002)">80</text></g><g class="ytick"><text text-anchor="end" x="108" y="12.25" style="font-family: 'Times New Roman'; font-size: 35px; fill: rgb(13, 13, 13); fill-opacity: 1; white-space: pre; opacity: 1;" transform="translate(0,116)">100</text></g></g><g class="overaxes-above"/></g></g><g class="polarlayer"/><g class="smithlayer"/><g class="ternarylayer"/><g class="geolayer"/><g class="funnelarealayer"/><g class="pielayer"/><g class="iciclelayer"/><g class="treemaplayer"/><g class="sunburstlayer"/><g class="glimages"/><defs id="topdefs-4d42bb"><g class="clips"/></defs><g class="layer-above"><g class="imagelayer"/><g class="shapelayer"/></g><g class="infolayer"><g class="g-gtitle"/><g class="g-xtitle"><text class="xtitle" x="364.5" y="463.8" text-anchor="middle" style="font-family: 'Open Sans', verdana, arial, sans-serif; font-size: 14px; fill: rgb(42, 63, 95); opacity: 1; font-weight: normal; white-space: pre;">Time Steps (ns)</text></g><g class="g-ytitle" transform="translate(23.5,0)"><text class="ytitle" transform="rotate(-90,12.5,260)" x="12.5" y="260" text-anchor="middle" style="font-family: 'Times New Roman'; font-size: 40px; fill: rgb(13, 13, 13); opacity: 1; font-weight: normal; white-space: pre;">Fill rate (in %)</text></g></g></svg>