<svg class="main-svg" xmlns="http://www.w3.org/2000/svg" xmlns:xlink="http://www.w3.org/1999/xlink" width="700" height="500" style="" viewBox="0 0 700 500"><rect x="0" y="0" width="700" height="500" style="fill: rgb(255, 255, 255); fill-opacity: 1;"/><defs id="defs-44d529"><g class="clips"><clipPath id="clip44d529xyplot" class="plotclip"><rect width="497" height="320"/></clipPath><clipPath class="axesclip" id="clip44d529x"><rect x="123" y="0" width="497" height="500"/></clipPath><clipPath class="axesclip" id="clip44d529y"><rect x="0" y="100" width="700" height="320"/></clipPath><clipPath class="axesclip" id="clip44d529xy"><rect x="123" y="100" width="497" height="320"/></clipPath></g><g class="gradients"/><g class="patterns"/></defs><g class="bglayer"><rect class="bg" x="123" y="100" width="497" height="320" style="fill: rgb(229, 236, 246); fill-opacity: 1; stroke-width: 0;"/></g><g class="layer-below"><g class="imagelayer"/><g class="shapelayer"/></g><g class="cartesianlayer"><g class="subplot xy"><g class="layer-subplot"><g class="shapelayer"/><g class="imagelayer"/></g><g class="minor-gridlayer"><g class="x"/><g class="y"/></g><g class="gridlayer"><g class="x"><path class="xgrid crisp" transform="translate(209.74,0)" d="M0,100v320" style="stroke: rgb(255, 255, 255); stroke-opacity: 1; stroke-width: 1px;"/><path class="xgrid crisp" transform="translate(308.36,0)" d="M0,100v320" style="stroke: rgb(255, 255, 255); stroke-opacity: 1; stroke-width: 1px;"/><path class="xgrid crisp" transform="translate(406.99,0)" d="M0,100v320" style="stroke: rgb(255, 255, 255); stroke-opacity: 1; stroke-width: 1px;"/><path class="xgrid crisp" transform="translate(505.61,0)" d="M0,100v320" style="stroke: rgb(255, 255, 255); stroke-opacity: 1; stroke-width: 1px;"/><path class="xgrid crisp" transform="translate(604.24,0)" d="M0,100v320" style="stroke: rgb(255, 255, 255); stroke-opacity: 1; stroke-width: 1px;"/></g><g class="y"><path class="ygrid crisp" transform="translate(0,356.35)" d="M123,0h497" style="stroke: rgb(255, 255, 255); stroke-opacity: 1; stroke-width: 1px;"/><path class="ygrid crisp" transform="translate(0,308.7)" d="M123,0h497" style="stroke: rgb(255, 255, 255); stroke-opacity: 1; stroke-width: 1px;"/><path class="ygrid crisp" transform="translate(0,261.03999999999996)" d="M123,0h497" style="stroke: rgb(255, 255, 255); stroke-opacity: 1; stroke-width: 1px;"/><path class="ygrid crisp" transform="translate(0,213.38)" d="M123,0h497" style="stroke: rgb(255, 255, 255); stroke-opacity: 1; stroke-width: 1px;"/><path class="ygrid crisp" transform="translate(0,165.73000000000002)" d="M123,0h497" style="stroke: rgb(255, 255, 255); stroke-opacity: 1; stroke-width: 1px;"/><path class="ygrid crisp" transform="translate(0,118.07)" d="M123,0h497" style="stroke: rgb(255, 255, 255); stroke-opacity: 1; stroke-width: 1px;"/></g></g><g class="zerolinelayer"><path class="yzl zl crisp" transform="translate(0,404.01)" d="M123,0h497" style="stroke: rgb(255, 255, 255); stroke-opacity: 1; stroke-width: 2px;"/></g><path class="xlines-below"/><path class="ylines-below"/><g class="overlines-below"/><g class="xaxislayer-below"/><g class="yaxislayer-below"/><g class="overaxes-below"/><g class="plot" transform="translate(123,100)" clip-path="url(#clip44d529xyplot)"><g class="scatterlayer mlayer"><g class="trace scatter trace7b6978" style="stroke-miterlimit: 2; opacity: 1;"><g class="fills"/><g class="errorbars"/><g class="lines"><path class="js-line" d="M0,304L8.5,300.42L8.5,300.41L12.39,298.63L12.39,298.62L18.42,295.69L18.42,295.68L21.92,293.98L21.92,293.98L21.92,293.97L25.52,292.36L25.52,292.35L28.67,291.18L28.67,291.18L28.67,291.16L33.6,288.73L33.6,288.72L59.85,272.74L59.85,272.73L64.4,269.97L64.4,269.97L64.4,269.96L68.86,267.28L68.86,267.28L68.86,267.27L83.21,258.83L83.21,258.82L85.95,257.12L85.95,257.11L87.81,256.02L87.81,256.02L87.86,256.02L93.41,252.44L93.41,252.44L93.41,252.43L96.92,250.48L96.92,250.48L96.92,250.47L98.45,249.36L98.48,249.36L102.1,247.11L102.1,247.1L107.43,244.22L107.43,244.22L107.52,244.21L110.89,241.9L110.89,241.89L116.26,238.66L116.26,238.66L116.26,238.65L119.26,237.09L119.26,237.09L119.28,237.08L122.65,234.96L122.65,234.96L122.7,234.95L124.3,234.1L124.3,234.09L129.21,231.29L129.26,231.29L134.83,228.03L134.87,228.02L140.48,224.71L140.53,224.71L143.1,223.18L143.14,223.18L148.06,220.26L148.06,220.26L148.06,220.25L152.23,217.81L152.23,217.8L153.9,216.73L153.91,216.72L160.62,212.8L160.62,212.8L160.68,212.8L164.81,210.36L164.81,210.36L164.81,210.35L169.49,207.77L169.59,207.76L173.46,205.62L173.5,205.62L197.54,191.62L197.54,191.62L197.59,191.62L199.49,190.46L199.57,190.46L210.63,183.6L210.73,183.59L212.37,182.35L212.37,182.35L212.47,182.35L216.94,179.87L216.94,179.87L217,179.86L229.1,173.26L229.41,173.25L235.63,169.77L235.63,169.77L235.67,169.76L237.26,168.75L237.26,168.75L237.28,168.74L239.83,167.5L239.92,167.49L251.56,160.98L251.56,160.98L251.61,160.98L253.73,159.89L253.73,159.89L253.77,159.88L259.62,156.66L259.62,156.66L259.69,156.65L277.46,147.38L277.46,147.37L284.86,143.05L284.93,143.04L292.36,139.04L292.36,139.03L295.34,136.82L295.34,136.81L297.32,135.63L297.34,135.62L301.73,132.95L301.73,132.94L303.48,131.74L303.52,131.73L305.88,130.37L305.88,130.35L314.93,124.68L314.93,124.67L345.95,106.1L345.95,106.1L345.95,106.09L351.91,102.63L351.97,102.63L354.56,101.29L354.56,101.29L354.58,101.28L356.42,100.2L356.42,100.2L356.46,100.19L383.58,84.08L383.58,84.08L383.67,84.08L386.42,82.32L386.42,82.3L392.48,78.61L392.48,78.59L395.69,76.78L395.76,76.78L400.26,74.26L400.36,74.26L405.97,70.95L405.98,70.94L407.24,70.05L407.24,70.05L407.29,70.05L414.22,65.76L414.24,65.76L416.08,64.71L416.13,64.7L419.55,62.72L419.55,62.71L422.62,60.9L422.62,60.89L430.21,56.09L430.21,56.09L430.29,56.08L432.38,54.93L432.38,54.92L447.86,45.41L447.87,45.4L452.03,42.83L452.03,42.83L452.12,42.83L453.94,41.8L453.94,41.8L453.97,41.79L460.93,37.24L460.93,37.24L461.03,37.23L481.88,24.96L481.88,24.96L481.89,24.96L497,16" style="vector-effect: non-scaling-stroke; fill: none; stroke: rgb(1, 102, 87); stroke-opacity: 1; stroke-width: 2px; opacity: 1;"/></g><g class="points"/><g class="text"/></g></g></g><g class="overplot"/><path class="xlines-above crisp" d="M0,0" style="fill: none;"/><path class="ylines-above crisp" d="M0,0" style="fill: none;"/><g class="overlines-above"/><g class="xaxislayer-above"><g class="xtick"><text text-anchor="middle" x="0" y="436" transform="translate(209.74,0)" style="font-family: 'Times New Roman'; font-size: 15px; fill: rgb(13, 13, 13); fill-opacity: 1; white-space: pre; opacity: 1;">1.61252×10​<tspan style="font-size:70%" dy="-0.6em">18</tspan><tspan dy="0.42em">​</tspan></text></g><g class="xtick"><text text-anchor="middle" x="0" y="436" style="font-family: 'Times New Roman'; font-size: 15px; fill: rgb(13, 13, 13); fill-opacity: 1; white-space: pre; opacity: 1;" transform="translate(308.36,0)">1.612525×10​<tspan style="font-size:70%" dy="-0.6em">18</tspan><tspan dy="0.42em">​</tspan></text></g><g class="xtick"><text text-anchor="middle" x="0" y="436" style="font-family: 'Times New Roman'; font-size: 15px; fill: rgb(13, 13, 13); fill-opacity: 1; white-space: pre; opacity: 1;" transform="translate(406.99,0)">1.61253×10​<tspan style="font-size:70%" dy="-0.6em">18</tspan><tspan dy="0.42em">​</tspan></text></g><g class="xtick"><text text-anchor="middle" x="0" y="436" style="font-family: 'Times New Roman'; font-size: 15px; fill: rgb(13, 13, 13); fill-opacity: 1; white-space: pre; opacity: 1;" transform="translate(505.61,0)">1.612535×10​<tspan style="font-size:70%" dy="-0.6em">18</tspan><tspan dy="0.42em">​</tspan></text></g><g class="xtick"><text text-anchor="middle" x="0" y="436" style="font-family: 'Times New Roman'; font-size: 15px; fill: rgb(13, 13, 13); fill-opacity: 1; white-space: pre; opacity: 1;" transform="translate(604.24,0)">1.61254×10​<tspan style="font-size:70%" dy="-0.6em">18</tspan><tspan dy="0.42em">​</tspan></text></g></g><g class="yaxislayer-above"><g class="ytick"><text text-anchor="end" x="122" y="12.25" transform="translate(0,404.01)" style="font-family: 'Times New Roman'; font-size: 35px; fill: rgb(13, 13, 13); fill-opacity: 1; white-space: pre; opacity: 1;">0</text></g><g class="ytick"><text text-anchor="end" x="122" y="12.25" style="font-family: 'Times New Roman'; font-size: 35px; fill: rgb(13, 13, 13); fill-opacity: 1; white-space: pre; opacity: 1;" transform="translate(0,356.35)">0.5B</text></g><g class="ytick"><text text-anchor="end" x="122" y="12.25" style="font-family: 'Times New Roman'; font-size: 35px; fill: rgb(13, 13, 13); fill-opacity: 1; white-space: pre; opacity: 1;" transform="translate(0,308.7)">1B</text></g><g class="ytick"><text text-anchor="end" x="122" y="12.25" style="font-family: 'Times New Roman'; font-size: 35px; fill: rgb(13, 13, 13); fill-opacity: 1; white-space: pre; opacity: 1;" transform="translate(0,261.03999999999996)">1.5B</text></g><g class="ytick"><text text-anchor="end" x="122" y="12.25" style="font-family: 'Times New Roman'; font-size: 35px; fill: rgb(13, 13, 13); fill-opacity: 1; white-space: pre; opacity: 1;" transform="translate(0,213.38)">2B</text></g><g class="ytick"><text text-anchor="end" x="122" y="12.25" style="font-family: 'Times New Roman'; font-size: 35px; fill: rgb(13, 13, 13); fill-opacity: 1; white-space: pre; opacity: 1;" transform="translate(0,165.73000000000002)">2.5B</text></g><g class="ytick"><text text-anchor="end" x="122" y="12.25" style="font-family: 'Times New Roman'; font-size: 35px; fill: rgb(13, 13, 13); fill-opacity: 1; white-space: pre; opacity: 1;" transform="translate(0,118.07)">3B</text></g></g><g class="overaxes-above"/></g></g><g class="polarlayer"/><g class="smithlayer"/><g class="ternarylayer"/><g class="geolayer"/><g class="funnelarealayer"/><g class="pielayer"/><g class="iciclelayer"/><g class="treemaplayer"/><g class="sunburstlayer"/><g class="glimages"/><defs id="topdefs-44d529"><g class="clips"/></defs><g class="layer-above"><g class="imagelayer"/><g class="shapelayer"/></g><g class="infolayer"><g class="g-gtitle"/><g class="g-xtitle"><text class="xtitle" x="371.5" y="463.8" text-anchor="middle" style="font-family: 'Open Sans', verdana, arial, sans-serif; font-size: 14px; fill: rgb(42, 63, 95); opacity: 1; font-weight: normal; white-space: pre;">Time Steps (ns)</text></g><g class="g-ytitle" transform="translate(24.109375,0)"><text class="ytitle" transform="rotate(-90,11.890625,260)" x="11.890625" y="260" text-anchor="middle" style="font-family: 'Times New Roman'; font-size: 40px; fill: rgb(13, 13, 13); opacity: 1; font-weight: normal; white-space: pre;">Cum. executed trading vol. (in $)</text></g></g></svg>