<svg class="main-svg" xmlns="http://www.w3.org/2000/svg" xmlns:xlink="http://www.w3.org/1999/xlink" width="700" height="500" style="" viewBox="0 0 700 500"><rect x="0" y="0" width="700" height="500" style="fill: rgb(255, 255, 255); fill-opacity: 1;"/><defs id="defs-3318fd"><g class="clips"><clipPath id="clip3318fdxyplot" class="plotclip"><rect width="497" height="320"/></clipPath><clipPath class="axesclip" id="clip3318fdx"><rect x="123" y="0" width="497" height="500"/></clipPath><clipPath class="axesclip" id="clip3318fdy"><rect x="0" y="100" width="700" height="320"/></clipPath><clipPath class="axesclip" id="clip3318fdxy"><rect x="123" y="100" width="497" height="320"/></clipPath></g><g class="gradients"/><g class="patterns"/></defs><g class="bglayer"><rect class="bg" x="123" y="100" width="497" height="320" style="fill: rgb(229, 236, 246); fill-opacity: 1; stroke-width: 0;"/></g><g class="layer-below"><g class="imagelayer"/><g class="shapelayer"/></g><g class="cartesianlayer"><g class="subplot xy"><g class="layer-subplot"><g class="shapelayer"/><g class="imagelayer"/></g><g class="minor-gridlayer"><g class="x"/><g class="y"/></g><g class="gridlayer"><g class="x"><path class="xgrid crisp" transform="translate(209.57,0)" d="M0,100v320" style="stroke: rgb(255, 255, 255); stroke-opacity: 1; stroke-width: 1px;"/><path class="xgrid crisp" transform="translate(308.23,0)" d="M0,100v320" style="stroke: rgb(255, 255, 255); stroke-opacity: 1; stroke-width: 1px;"/><path class="xgrid crisp" transform="translate(406.89,0)" d="M0,100v320" style="stroke: rgb(255, 255, 255); stroke-opacity: 1; stroke-width: 1px;"/><path class="xgrid crisp" transform="translate(505.56,0)" d="M0,100v320" style="stroke: rgb(255, 255, 255); stroke-opacity: 1; stroke-width: 1px;"/><path class="xgrid crisp" transform="translate(604.22,0)" d="M0,100v320" style="stroke: rgb(255, 255, 255); stroke-opacity: 1; stroke-width: 1px;"/></g><g class="y"><path class="ygrid crisp" transform="translate(0,355.73)" d="M123,0h497" style="stroke: rgb(255, 255, 255); stroke-opacity: 1; stroke-width: 1px;"/><path class="ygrid crisp" transform="translate(0,307.47)" d="M123,0h497" style="stroke: rgb(255, 255, 255); stroke-opacity: 1; stroke-width: 1px;"/><path class="ygrid crisp" transform="translate(0,259.2)" d="M123,0h497" style="stroke: rgb(255, 255, 255); stroke-opacity: 1; stroke-width: 1px;"/><path class="ygrid crisp" transform="translate(0,210.93)" d="M123,0h497" style="stroke: rgb(255, 255, 255); stroke-opacity: 1; stroke-width: 1px;"/><path class="ygrid crisp" transform="translate(0,162.66)" d="M123,0h497" style="stroke: rgb(255, 255, 255); stroke-opacity: 1; stroke-width: 1px;"/><path class="ygrid crisp" transform="translate(0,114.4)" d="M123,0h497" style="stroke: rgb(255, 255, 255); stroke-opacity: 1; stroke-width: 1px;"/></g></g><g class="zerolinelayer"><path class="yzl zl crisp" transform="translate(0,404)" d="M123,0h497" style="stroke: rgb(255, 255, 255); stroke-opacity: 1; stroke-width: 2px;"/></g><path class="xlines-below"/><path class="ylines-below"/><g class="overlines-below"/><g class="xaxislayer-below"/><g class="yaxislayer-below"/><g class="overaxes-below"/><g class="plot" transform="translate(123,100)" clip-path="url(#clip3318fdxyplot)"><g class="scatterlayer mlayer"><g class="trace scatter trace70aa95" style="stroke-miterlimit: 2; opacity: 1;"><g class="fills"/><g class="errorbars"/><g class="lines"><path class="js-line" d="M0,304L4.98,302.09L4.98,302.09L5,302.08L6.71,301.13L6.76,301.12L11.79,298.86L11.92,298.86L19.05,295.28L19.05,295.28L19.13,295.27L27.35,291.43L27.35,291.42L30.01,289.77L30.15,289.77L32.13,288.41L32.13,288.41L32.25,288.4L40.57,284.54L40.57,284.53L43.07,282.8L43.14,282.8L45.2,281.4L45.31,281.39L52.03,277.26L52.03,277.25L58.19,273.37L58.19,273.35L62.42,270.86L62.42,270.86L62.42,270.85L66.04,268.5L66.04,268.5L66.04,268.49L72.31,264.61L72.31,264.61L72.41,264.6L75.6,262.45L75.6,262.43L83.22,257.52L83.22,257.51L86.33,255.92L86.33,255.91L90.17,253.46L90.17,253.45L94.98,250.58L94.98,250.57L102.29,246.64L102.29,246.63L104.86,245.17L104.86,245.16L109.09,242.61L109.09,242.61L109.09,242.6L111.98,240.65L111.98,240.64L116.44,238.28L116.44,238.27L128.64,231.42L128.64,231.42L128.65,231.42L145.41,222.06L145.47,222.06L153.25,217.85L153.25,217.84L166.07,210.82L166.07,210.82L166.1,210.82L178.24,204.35L178.24,204.34L203.1,189.86L203.15,189.86L205.08,188.45L205.18,188.44L212.78,184.01L212.82,184.01L214.71,183.03L214.75,183.02L218.1,180.88L218.1,180.87L219.67,180L219.67,180L219.71,179.99L226.16,176.66L226.31,176.65L228.58,175.6L228.58,175.59L230.36,174.46L230.4,174.46L232.54,173.05L232.55,173.04L236.77,170.57L236.77,170.56L244.54,166.43L244.54,166.42L270.09,153.06L270.09,153.06L270.18,153.05L278.49,148.09L278.49,148.08L282.09,145.8L282.09,145.8L282.1,145.79L306.16,131.73L306.16,131.73L306.24,131.72L310.73,129.44L310.73,129.43L313.58,128.1L313.58,128.1L313.59,128.09L316.12,126.7L316.12,126.68L318.2,125.33L318.2,125.33L318.26,125.32L336.1,114.81L336.1,114.81L336.2,114.8L342.15,111.22L342.15,111.22L342.23,111.21L343.81,110.15L343.92,110.14L347.07,108.3L347.07,108.3L347.09,108.29L352.23,105.05L352.23,105.04L354.45,103.57L354.45,103.57L354.46,103.56L356.23,102.53L356.23,102.53L356.23,102.52L357.93,101.35L357.93,101.34L361.32,99.18L361.32,99.18L361.32,99.17L365.5,96.25L365.5,96.24L371.8,93.25L371.8,93.24L376.87,90.41L376.88,90.4L394.8,80.19L394.8,80.19L394.85,80.18L399.15,77.66L399.15,77.65L400.99,76.67L400.99,76.66L403.76,74.6L403.76,74.6L403.76,74.59L407.68,72.17L407.9,72.16L418.43,65.55L418.43,65.55L418.44,65.55L421.62,63.38L421.62,63.38L421.62,63.37L425.82,60.78L425.82,60.78L425.82,60.77L429.1,58.84L429.12,58.8L431.82,56.92L431.82,56.92L431.84,56.91L434.11,55.68L434.11,55.68L434.16,55.68L436.26,54.24L436.26,54.24L436.35,54.24L446.74,47.5L446.74,47.5L446.74,47.49L450.52,45.02L450.52,45.01L466.31,35.15L466.31,35.14L475.69,29L475.75,29L478.22,27.38L478.22,27.38L478.26,27.38L485.15,22.88L485.21,22.87L494.78,17.33L494.88,17.33L497,16" style="vector-effect: non-scaling-stroke; fill: none; stroke: rgb(1, 102, 87); stroke-opacity: 1; stroke-width: 2px; opacity: 1;"/></g><g class="points"/><g class="text"/></g></g></g><g class="overplot"/><path class="xlines-above crisp" d="M0,0" style="fill: none;"/><path class="ylines-above crisp" d="M0,0" style="fill: none;"/><g class="overlines-above"/><g class="xaxislayer-above"><g class="xtick"><text text-anchor="middle" x="0" y="436" transform="translate(209.57,0)" style="font-family: 'Times New Roman'; font-size: 15px; fill: rgb(13, 13, 13); fill-opacity: 1; white-space: pre; opacity: 1;">1.61252×10​<tspan style="font-size:70%" dy="-0.6em">18</tspan><tspan dy="0.42em">​</tspan></text></g><g class="xtick"><text text-anchor="middle" x="0" y="436" style="font-family: 'Times New Roman'; font-size: 15px; fill: rgb(13, 13, 13); fill-opacity: 1; white-space: pre; opacity: 1;" transform="translate(308.23,0)">1.612525×10​<tspan style="font-size:70%" dy="-0.6em">18</tspan><tspan dy="0.42em">​</tspan></text></g><g class="xtick"><text text-anchor="middle" x="0" y="436" style="font-family: 'Times New Roman'; font-size: 15px; fill: rgb(13, 13, 13); fill-opacity: 1; white-space: pre; opacity: 1;" transform="translate(406.89,0)">1.61253×10​<tspan style="font-size:70%" dy="-0.6em">18</tspan><tspan dy="0.42em">​</tspan></text></g><g class="xtick"><text text-anchor="middle" x="0" y="436" style="font-family: 'Times New Roman'; font-size: 15px; fill: rgb(13, 13, 13); fill-opacity: 1; white-space: pre; opacity: 1;" transform="translate(505.56,0)">1.612535×10​<tspan style="font-size:70%" dy="-0.6em">18</tspan><tspan dy="0.42em">​</tspan></text></g><g class="xtick"><text text-anchor="middle" x="0" y="436" style="font-family: 'Times New Roman'; font-size: 15px; fill: rgb(13, 13, 13); fill-opacity: 1; white-space: pre; opacity: 1;" transform="translate(604.22,0)">1.61254×10​<tspan style="font-size:70%" dy="-0.6em">18</tspan><tspan dy="0.42em">​</tspan></text></g></g><g class="yaxislayer-above"><g class="ytick"><text text-anchor="end" x="122" y="12.25" transform="translate(0,404)" style="font-family: 'Times New Roman'; font-size: 35px; fill: rgb(13, 13, 13); fill-opacity: 1; white-space: pre; opacity: 1;">0</text></g><g class="ytick"><text text-anchor="end" x="122" y="12.25" style="font-family: 'Times New Roman'; font-size: 35px; fill: rgb(13, 13, 13); fill-opacity: 1; white-space: pre; opacity: 1;" transform="translate(0,355.73)">0.5B</text></g><g class="ytick"><text text-anchor="end" x="122" y="12.25" style="font-family: 'Times New Roman'; font-size: 35px; fill: rgb(13, 13, 13); fill-opacity: 1; white-space: pre; opacity: 1;" transform="translate(0,307.47)">1B</text></g><g class="ytick"><text text-anchor="end" x="122" y="12.25" style="font-family: 'Times New Roman'; font-size: 35px; fill: rgb(13, 13, 13); fill-opacity: 1; white-space: pre; opacity: 1;" transform="translate(0,259.2)">1.5B</text></g><g class="ytick"><text text-anchor="end" x="122" y="12.25" style="font-family: 'Times New Roman'; font-size: 35px; fill: rgb(13, 13, 13); fill-opacity: 1; white-space: pre; opacity: 1;" transform="translate(0,210.93)">2B</text></g><g class="ytick"><text text-anchor="end" x="122" y="12.25" style="font-family: 'Times New Roman'; font-size: 35px; fill: rgb(13, 13, 13); fill-opacity: 1; white-space: pre; opacity: 1;" transform="translate(0,162.66)">2.5B</text></g><g class="ytick"><text text-anchor="end" x="122" y="12.25" style="font-family: 'Times New Roman'; font-size: 35px; fill: rgb(13, 13, 13); fill-opacity: 1; white-space: pre; opacity: 1;" transform="translate(0,114.4)">3B</text></g></g><g class="overaxes-above"/></g></g><g class="polarlayer"/><g class="smithlayer"/><g class="ternarylayer"/><g class="geolayer"/><g class="funnelarealayer"/><g class="pielayer"/><g class="iciclelayer"/><g class="treemaplayer"/><g class="sunburstlayer"/><g class="glimages"/><defs id="topdefs-3318fd"><g class="clips"/></defs><g class="layer-above"><g class="imagelayer"/><g class="shapelayer"/></g><g class="infolayer"><g class="g-gtitle"/><g class="g-xtitle"><text class="xtitle" x="371.5" y="463.8" text-anchor="middle" style="font-family: 'Open Sans', verdana, arial, sans-serif; font-size: 14px; fill: rgb(42, 63, 95); opacity: 1; font-weight: normal; white-space: pre;">Time Steps (ns)</text></g><g class="g-ytitle" transform="translate(24.109375,0)"><text class="ytitle" transform="rotate(-90,11.890625,260)" x="11.890625" y="260" text-anchor="middle" style="font-family: 'Times New Roman'; font-size: 40px; fill: rgb(13, 13, 13); opacity: 1; font-weight: normal; white-space: pre;">Cum. executed trading vol. (in $)</text></g></g></svg>