<svg class="main-svg" xmlns="http://www.w3.org/2000/svg" xmlns:xlink="http://www.w3.org/1999/xlink" width="700" height="500" style="" viewBox="0 0 700 500"><rect x="0" y="0" width="700" height="500" style="fill: rgb(255, 255, 255); fill-opacity: 1;"/><defs id="defs-f66481"><g class="clips"><clipPath id="clipf66481xyplot" class="plotclip"><rect width="511" height="320"/></clipPath><clipPath class="axesclip" id="clipf66481x"><rect x="109" y="0" width="511" height="500"/></clipPath><clipPath class="axesclip" id="clipf66481y"><rect x="0" y="100" width="700" height="320"/></clipPath><clipPath class="axesclip" id="clipf66481xy"><rect x="109" y="100" width="511" height="320"/></clipPath></g><g class="gradients"/><g class="patterns"/></defs><g class="bglayer"><rect class="bg" x="109" y="100" width="511" height="320" style="fill: rgb(229, 236, 246); fill-opacity: 1; stroke-width: 0;"/></g><g class="layer-below"><g class="imagelayer"/><g class="shapelayer"/></g><g class="cartesianlayer"><g class="subplot xy"><g class="layer-subplot"><g class="shapelayer"/><g class="imagelayer"/></g><g class="minor-gridlayer"><g class="x"/><g class="y"/></g><g class="gridlayer"><g class="x"><path class="xgrid crisp" transform="translate(198.01,0)" d="M0,100v320" style="stroke: rgb(255, 255, 255); stroke-opacity: 1; stroke-width: 1px;"/><path class="xgrid crisp" transform="translate(299.45,0)" d="M0,100v320" style="stroke: rgb(255, 255, 255); stroke-opacity: 1; stroke-width: 1px;"/><path class="xgrid crisp" transform="translate(400.89,0)" d="M0,100v320" style="stroke: rgb(255, 255, 255); stroke-opacity: 1; stroke-width: 1px;"/><path class="xgrid crisp" transform="translate(502.33,0)" d="M0,100v320" style="stroke: rgb(255, 255, 255); stroke-opacity: 1; stroke-width: 1px;"/><path class="xgrid crisp" transform="translate(603.77,0)" d="M0,100v320" style="stroke: rgb(255, 255, 255); stroke-opacity: 1; stroke-width: 1px;"/></g><g class="y"><path class="ygrid crisp" transform="translate(0,346.73)" d="M109,0h511" style="stroke: rgb(255, 255, 255); stroke-opacity: 1; stroke-width: 1px;"/><path class="ygrid crisp" transform="translate(0,289.05)" d="M109,0h511" style="stroke: rgb(255, 255, 255); stroke-opacity: 1; stroke-width: 1px;"/><path class="ygrid crisp" transform="translate(0,231.36)" d="M109,0h511" style="stroke: rgb(255, 255, 255); stroke-opacity: 1; stroke-width: 1px;"/><path class="ygrid crisp" transform="translate(0,173.68)" d="M109,0h511" style="stroke: rgb(255, 255, 255); stroke-opacity: 1; stroke-width: 1px;"/><path class="ygrid crisp" transform="translate(0,116)" d="M109,0h511" style="stroke: rgb(255, 255, 255); stroke-opacity: 1; stroke-width: 1px;"/></g></g><g class="zerolinelayer"><path class="yzl zl crisp" transform="translate(0,404.41)" d="M109,0h511" style="stroke: rgb(255, 255, 255); stroke-opacity: 1; stroke-width: 2px;"/></g><path class="xlines-below"/><path class="ylines-below"/><g class="overlines-below"/><g class="xaxislayer-below"/><g class="yaxislayer-below"/><g class="overaxes-below"/><g class="plot" transform="translate(109,100)" clip-path="url(#clipf66481xyplot)"><g class="scatterlayer mlayer"><g class="trace scatter trace8a5f47" style="stroke-miterlimit: 2; opacity: 1;"><g class="fills"/><g class="errorbars"/><g class="lines"><path class="js-line" d="M0,16L0.55,235.19L0.55,16L0.81,229.42L0.81,16L1.08,270.19L1.55,16L1.61,220.77L1.65,16L1.8,288.82L2.34,122.71L2.38,122.71L2.44,16L2.66,297.92L3.09,16L3.19,16L3.4,16L3.41,255.38L3.41,16L3.77,302.97L4.09,238.08L4.28,16L5.01,288.55L5.07,272.69L5.07,16L5.31,289.99L5.6,16L5.64,16L5.65,278.45L6.37,16L6.45,16L7,269.8L7.16,16L7.19,16L7.77,295.76L7.9,16L8.11,16L8.47,292.88L8.82,112.14L8.91,16L9.56,282.78L9.7,217.89L9.74,16L10.11,297.2L10.47,194.82L10.53,125.6L10.63,16L10.83,266.92L11.04,16L11.17,16L11.49,292.88L11.65,16L11.69,16L11.82,278.45L12.44,177.51L12.47,140.02L12.52,16L13.19,287.11L13.22,16L13.24,16L13.98,280.38L14.07,246.73L14.07,16L14.1,281.34L14.8,16L14.84,246.73L14.88,278.45L14.92,16L15.52,243.85L15.6,16L16.21,287.11L16.35,16L16.36,16L16.98,281.34L17.11,16L17.14,16L17.75,295.76L17.86,16L17.93,30.42L18.06,16L18.67,291.43L18.68,16L18.69,278.45L18.95,288.55L19.47,16L19.47,16L19.59,16L19.94,288.82L20.34,287.11L20.36,16L20.36,299.36L21.11,160.21L21.16,16L21.34,44.84L21.34,275.57L22.04,16L22.17,16L22.39,16L22.39,16L22.39,157.32L22.4,289.99L23.12,16L23.12,16L23.17,157L23.6,298.64L23.7,16L23.81,298.64L23.85,269.8L23.93,16L24.48,301.53L24.58,16L24.63,16L24.82,301.53L25.28,154.44L25.3,16L25.52,295.76L25.96,16L26.07,16L26.16,296.48L26.77,16L26.85,16L27.34,281.34L27.59,16L27.63,168.86L27.74,16L28.14,284.94L28.36,16L28.39,16L28.75,295.04L29.14,16L29.17,16L29.85,295.76L29.93,217.89L30.03,16L30.26,301.53L30.77,96.76L30.84,239.29L31.14,301.53L31.6,16L31.65,16L31.87,301.53L32.38,16L32.43,188.63L32.44,16L32.73,301.56L33.16,16L33.2,16L33.26,289.99L33.91,90.99L33.97,229.42L34.23,281.34L34.69,16L34.73,56.38L34.73,275.78L35.43,289.99L35.43,16L35.55,16L35.94,271.13L36.28,16L36.31,16L36.9,297.2L37.01,292.64L37.08,114.06L37.1,16L37.46,285.54L37.79,108.29L37.84,16L38.18,281.34L38.66,223.66L38.66,137.13L38.68,16L38.87,295.76L39.39,16L39.45,189.05L39.53,16L40.11,292.88L40.19,209.24L40.32,16L40.7,301.53L41.06,16L41.08,16L41.8,301.53L41.86,253.94L41.86,16L42.52,289.99L42.58,30.42L42.69,16L42.74,296.53L43.44,16L43.46,16L43.56,298.76L44.23,272.69L44.23,16L44.84,289.99L44.96,16L44.99,16L45.67,298.64L45.7,102.52L45.77,16L46.48,287.23L46.48,16L46.59,187.61L46.69,16L46.95,295.76L47.31,16L47.32,16L47.72,295.76L48.07,16L48.12,16L48.84,278.45L48.88,176.07L48.89,16L49.07,289.99L49.64,195.93L49.66,134.25L49.71,16L50.12,297.68L50.38,142.9L50.43,142.9L50.46,16L50.8,243.85L51.16,226.54L51.19,16L51.67,289.99L51.93,125.6L51.96,16L52.66,301.53L52.66,161.65L52.75,16L52.75,301.53L53.5,16L53.53,16L54.24,302.01L54.25,16L54.29,16L54.59,302.97L55.1,209.24L55.1,111.18L55.64,295.76L55.83,16L55.83,16L55.85,140.98L55.88,16L56.18,297.2L56.55,16L56.62,16L57.02,300.09L57.35,16L57.45,131.36L57.45,16L57.74,292.88L58.19,243.85L58.21,16L58.87,301.56L58.98,285.67L59.01,179.02L59.5,301.53L59.75,16L59.76,301.53L59.79,16L60.51,302.83L60.51,16L60.53,73.68L60.53,16L60.84,301.53L61.27,243.85L61.32,16L62.06,295.01L62.06,224.99L62.09,16L62.63,298.64L62.78,160.21L62.8,16L63.43,298.64L63.52,16L63.56,16L64.01,287.11L64.3,16L64.32,160.21L64.33,295.04L64.34,16L65.02,16L65.09,275.57L65.09,16L65.29,300.81L65.84,16L65.85,67.91L65.85,16L65.86,301.53L66.59,16L66.63,16L67.27,296.48L67.35,278.45L67.39,16L67.71,298.64L68.14,16L68.15,16L68.8,295.76L68.92,16L69.15,292.88L69.67,203.47L69.7,16L69.78,303.69L70.45,16L70.47,81.13L70.49,16L70.72,294.32L71.22,16L71.25,16L71.4,284.22L71.93,102.52L72,16L72.09,24.65L72.16,16L72.18,295.76L72.19,16L72.91,16L72.96,131.36L73.07,16L73.6,301.53L73.68,16L73.74,16L73.95,284.22L74.48,99.64L74.52,16L75.21,295.76L75.25,24.65L75.32,295.76L75.39,16L75.7,301.53L76.04,16L76.09,16L76.21,298.64L76.77,223.66L76.79,16L77.37,296.82L77.52,16L77.56,16L77.96,292.88L78.31,16L78.32,16L78.37,301.53L79.06,122.71L79.11,16L79.63,295.76L79.84,232.31L79.85,16L80.37,301.53L80.52,16L80.61,16L80.63,295.76L81.36,137.13L81.38,232.31L81.47,16L82.09,295.76L82.09,274.72L82.13,16L82.68,302.25L82.85,171.74L82.89,16L83.39,295.76L83.56,171.74L83.66,148.67L83.76,295.76L83.87,16L84.37,16L84.45,261.87L85.17,292.15L85.2,16L85.2,160.21L85.21,255.38L85.34,287.11L85.98,16L86.01,92.91L86.08,16L86.62,288.09L86.76,16L86.81,70.8L86.81,301.53L86.81,16L87.55,16L87.59,16L87.97,292.88L88.32,16L88.44,16L88.59,16L88.59,266.92L88.61,16L88.94,295.76L89.33,27.54L89.35,16L89.71,272.69L90.1,16L90.15,62.15L90.17,16L90.89,295.76L90.93,16L91.28,294.32L91.63,264.03L91.69,16L91.96,302.97L92.42,157.32L92.46,16L92.63,298.64L93.21,16L93.22,16L93.76,301.53L93.92,226.54L93.98,73.68L94.19,300.09L94.58,16L94.7,168.69L94.78,16L94.9,301.53L95.44,263.31L95.46,261.15L95.57,16L95.73,295.76L96.17,258.27L96.26,16L96.64,295.76L96.99,16L97.03,16L97.14,33.3L97.14,287.11L97.51,16L97.51,16L97.51,287.11L97.84,301.53L98.26,16L98.26,16L98.3,16L98.42,232.31L99.06,183.28L99.08,183.28L99.11,16L99.59,299.36L99.79,134.25L99.86,16L100.11,269.08L100.6,16L100.62,16L101.1,289.99L101.4,183.28L101.44,137.13L101.45,16L101.9,288.55L102.17,134.25L102.25,186.16L102.29,16L102.33,281.34L103,16L103.01,175.34L103.07,16L103.26,295.76L103.71,16L103.72,16L104.33,301.53L104.47,88.1L104.5,16L104.67,292.88L105.25,90.99L105.33,16L105.78,302.49L106.07,151.55L106.19,16L106.49,284.22L106.7,116.94L106.72,16L106.76,298.64L107.48,181.18L107.52,16L107.77,301.53L108.27,16L108.28,16L108.98,278.45L109.08,16L109.38,284.22L109.52,16L109.55,16L110.25,281.34L110.28,171.74L110.37,16L110.84,302.25L111.09,264.03L111.15,264.03L111.18,16L111.4,295.76L111.88,173.32L111.93,16L112.16,287.11L112.66,196.26L112.75,16L112.9,298.64L113.12,297.2L113.17,16L113.56,300.09L113.92,269.8L113.93,235.19L114.23,297.92L114.62,16L114.65,292.88L114.69,227.5L114.73,16L115.05,301.79L115.43,53.49L115.47,266.92L115.51,16L115.67,302.97L116.15,16L116.3,16L116.54,297.2L116.93,261.15L116.93,16L117.22,275.57L117.68,16L117.69,16L118.16,300.09L118.4,246.73L118.46,16L119.05,298.64L119.14,16L119.28,16L119.33,294.32L120,212.12L120.08,16L120.5,300.81L120.81,145.79L120.88,16L120.88,301.53L121.57,111.18L121.65,266.92L121.65,16L121.87,298.28L122.38,16L122.41,232.31L122.42,16L122.79,295.76L123.16,16L123.2,16L123.89,289.99L123.94,16L124.04,16L124.3,295.76L124.79,39.07L124.82,16L125.43,292.88L125.5,16L125.58,16L125.61,298.64L126.33,16L126.37,119.83L126.37,16L126.86,292.88L127.12,16L127.13,295.04L127.96,16L127.99,206.35L128.03,16L128.13,303.84L128.7,82.33L128.78,16L128.89,272.69L129.52,16L129.57,256.82L129.83,298.64L130.34,16L130.39,235.91L130.41,16L130.88,295.76L131.09,16L131.1,16L131.14,284.22L131.26,16L131.37,16L131.69,284.22L132.07,238.08L132.08,16L132.76,295.76L132.83,26.06L132.85,16L133.38,287.11L133.58,114.06L133.62,16L134.33,292.88L134.36,16L134.38,16L134.66,294.8L135.07,235.19L135.15,16L135.62,292.88L135.9,194.82L135.92,125.6L135.92,16L136.38,302.23L136.64,16L136.72,16L136.82,298.64L137.42,288.55L137.46,16L137.9,269.08L138.16,16L138.23,16L138.61,295.76L138.96,16L139.05,16L139.18,284.22L139.68,184.83L139.77,16L140.22,298.76L140.49,189.05L140.53,16L140.6,301.53L141.3,298.64L141.3,16L141.58,277.97L142.05,114.06L142.08,16L142.72,287.11L142.83,16L142.88,16L143.44,295.76L143.63,16L143.66,41.96L143.69,16L144.3,278.45L144.4,242.88L144.42,200.58L145.07,16L145.11,289.99L145.11,27.54L145.22,16L145.55,301.53L145.89,16L145.9,16L146.09,232.31L146.13,197.7L146.31,16L146.96,277.2L146.99,16L147.07,30.42L147.24,292.88L147.5,16L147.51,67.91L147.52,264.03L148.03,298.64L148.25,16L148.25,16L148.32,16L148.46,298.64L149.06,16L149.08,16L149.78,301.53L149.83,292.88L149.89,16L149.98,41.96L149.98,278.45L150.27,301.53L150.55,16L150.56,18.88L150.57,301.53L151.32,16L151.35,65.03L151.35,206.35L151.61,292.88L152.03,16L152.06,292.88L152.11,62.15L152.16,16L152.17,298.64L152.83,30.42L152.86,16L153.28,301.53L153.65,255.38L153.66,65.03L153.74,271.24L154.06,16L154.07,280.62L154.76,292.88L154.78,16L154.83,180.81L154.83,232.31L154.88,16L155.29,302.97L155.53,16L155.56,16L156.28,301.53L156.28,16L156.33,16L157.03,298.64L157.09,142.9L157.11,16L157.35,274.13L157.9,165.97L157.94,16L158.6,298.64L158.71,54.45L158.73,16L158.92,273.41L159.49,206.35L159.49,157.32L159.52,16L159.87,294.32L160.18,56.38L160.25,16L160.58,297.92L160.98,16L161.01,16L161.39,292.88L161.76,266.92L161.8,16L162.18,301.53L162.52,16L162.56,36.19L162.63,16L163.22,298.64L163.31,16L163.33,16L163.52,16L163.52,16L163.53,142.9L163.57,16L164.01,301.53L164.28,16L164.37,16L165.1,302.97L165.1,176.79L165.21,16L165.29,301.53L165.96,24.65L165.97,16L166.28,298.64L166.73,255.38L166.73,65.03L166.78,16L166.83,295.76L167.46,284.22L167.46,16L167.63,287.11L168.19,16L168.22,16L168.38,287.11L168.82,217.89L168.84,16L168.95,300.09L169.59,288.02L169.6,30.42L169.66,16L169.67,261.15L169.67,16L169.94,298.64L170.34,16L170.45,16L171.09,281.34L171.2,267.5L171.2,62.15L171.29,16L171.59,298.64L171.78,16L171.96,240.96L171.97,16L172.49,298.64L172.69,16L172.76,16L172.92,16L172.93,70.8L172.96,16L173.26,295.76L173.66,140.02L173.7,16L173.9,295.76L174.45,16L174.51,88.1L174.59,300.09L175.29,16L175.29,16L175.31,16L175.96,298.64L176.06,266.92L176.08,137.13L176.18,16L176.55,287.11L176.81,16L176.89,102.52L177.02,16L177.07,270.48L177.63,16L177.66,295.76L178.42,16L178.42,16L178.54,16L178.9,289.99L179.26,16L179.33,16L179.42,287.11L180,16L180.03,16L180.59,275.57L180.76,16L180.81,186.16L180.85,16L180.88,292.15L181.56,16L181.72,16L182.44,294.32L182.44,16L182.51,16L182.59,39.07L182.59,281.34L182.61,16L182.95,295.76L183.34,16L183.36,16L184.04,284.22L184.16,60.86L184.16,302.97L184.16,16L184.9,287.11L184.95,16L185.49,298.64L185.5,41.96L185.51,16L185.78,289.99L186.21,197.7L186.29,16L186.34,292.88L187.02,39.07L187.08,16L187.38,295.76L187.81,65.03L187.88,16L188.32,301.53L188.63,16L188.67,16L189.23,295.76L189.39,67.91L189.43,16L189.57,295.76L190.16,16L190.23,16L190.5,303.69L190.97,16L191.09,197.7L191.1,16L191.83,301.53L191.84,16L191.87,119.83L191.91,292.88L191.98,16L192.58,16L192.6,16L192.75,16L192.75,16L192.78,165.97L192.78,16L193.02,293.32L193.52,186.16L193.55,250.33L193.55,16L193.94,301.56L194.3,284.22L194.32,16L194.33,297.2L195.07,218.61L195.11,16L195.57,301.53L195.86,151.55L195.9,281.34L195.92,16L196.39,300.09L196.61,16L196.67,16L196.68,295.76L197.14,200.58L197.16,21.77L197.16,16L197.4,298.64L197.91,16L197.92,232.31L197.92,16L198.14,301.56L198.64,16L198.75,16L199.48,300.09L199.49,261.15L199.52,160.21L199.52,16L200.09,284.22L200.26,236.16L200.29,242.4L200.33,16L200.77,296.01L200.92,275.57L200.92,44.84L201.21,292.88L201.66,16L201.72,16L202.15,301.21L202.44,215L202.55,16L203.23,301.53L203.31,284.22L203.35,36.19L203.45,298.64L204.02,16L204.04,111.18L204.09,209.24L204.13,16L204.48,301.53L204.75,16L204.88,294.32L205.19,301.53L205.62,16L205.63,19.75L205.65,235.19L206.2,264.03L206.32,16L206.35,163.09L206.43,212.12L206.43,16L207.04,295.76L207.18,16L207.22,16L207.51,301.53L207.73,16L207.83,16L208.18,278.45L208.51,236.64L208.69,16L208.95,292.15L209.39,16L209.48,16L210.25,298.87L210.26,16L210.28,298.64L210.96,16L211.07,16L211.11,302.97L211.82,181.84L211.86,16L212.37,287.11L212.38,45.84L212.44,16L213.11,284.22L213.11,140.02L213.2,140.02L213.28,16L213.69,300.09L213.88,200.58L214.01,16L214.24,293.6L214.73,160.21L214.79,82.33L214.8,16L215.44,292.88L215.51,18.88L215.63,16L215.9,301.56L216.33,31.51L216.4,50.61L216.42,16L216.68,295.76L217.14,16L217.16,16L217.31,16L217.31,16L217.35,270.52L217.42,16L217.83,301.53L218.08,16L218.13,16L218.13,302.97L218.84,16L218.9,16L219.15,304L219.61,287.11L219.72,16L220.47,301.53L220.51,18.88L220.51,301.53L220.52,16L221.26,298.64L221.28,232.31L221.32,16L221.38,301.53L222.03,16L222.07,134.25L222.32,295.76L222.81,16L222.82,287.11L223.31,301.53L223.59,16L223.6,52.05L223.6,296.09L224.3,303.69L224.33,16L224.34,217.89L224.39,102.52L224.72,298.64L225.1,16L225.11,256.62L225.46,302.97L225.8,16L225.86,144.18L225.9,16L226.15,298.64L226.67,186.16L226.67,134.25L226.78,16L227.24,301.53L227.38,16L227.9,301.53L228.14,96.76L228.15,16L228.72,269.8L228.9,16L228.92,163.09L229.38,290.95L229.59,16L229.66,223.66L229.66,16L230.26,296.48L230.41,258.99L230.42,16L231.08,292.15L231.17,273.23L231.21,16L231.28,292.88L231.97,229.42L232.06,16L232.14,281.34L232.7,16L232.84,16L233.32,298.64L233.56,180.39L233.6,16L233.76,16L233.76,140.02L233.83,16L234.31,284.22L234.51,142.9L234.52,177.51L235.25,298.64L235.28,16L235.29,16L235.6,298.64L236.02,16L236.09,287.11L236.09,16L236.1,301.53L236.76,16L236.85,16L237.4,292.88L237.59,16L237.61,287.11L237.62,16L238.19,301.53L238.34,287.11L238.37,16L238.93,291.43L239.1,16L239.25,206.35L239.25,16L240,293.32L240.01,16L240.19,285.54L240.76,194.82L240.77,125.6L240.94,16L241.15,298.64L241.46,297.2L241.53,59.26L241.53,16L241.68,289.99L242.23,16L242.3,16L242.8,281.34L242.97,238.08L243.07,16L243.16,39.07L243.22,18.88L243.22,298.64L243.44,301.53L243.97,16L243.97,44.84L243.99,240.96L244,16L244.1,302.44L244.73,102.52L244.75,16L244.86,301.53L245.5,292.88L245.52,128.48L245.52,16L245.59,297.2L246.23,16L246.31,165.97L246.4,301.53L247.05,16L247.05,16L247.13,16L247.16,294.32L247.89,180.39L247.91,140.02L247.92,16L248.07,272.69L248.6,245.29L248.73,16L249.35,258.27L249.47,246.73L249.5,16L249.5,281.34L250.24,16L250.27,16L251,287.11L251.04,16L251.66,298.64L251.77,108.29L251.89,16L252.31,288.68L252.64,168.86L252.69,65.62L252.7,16L253.4,291.3L253.46,16L253.76,284.22L254.2,16L254.23,53.49L254.23,16L254.28,302.49L254.92,21.77L255.02,16L255.5,294.32L255.68,85.22L255.8,50.61L255.81,269.8L255.82,16L256.54,16L256.61,16L256.9,295.76L257.37,281.34L257.39,39.07L257.47,16L257.7,279.9L258.06,16L258.19,16L258.61,300.11L258.87,99.64L259.02,16L259.21,284.22L259.71,16L259.72,16L260.44,258.27L260.44,62.15L260.89,301.53L261.03,16L261.07,27.54L261.07,292.88L261.79,16L261.79,293.84L261.97,16L262.4,271.97L262.73,148.67L262.78,16L263.42,302.49L263.53,70.8L263.68,16L264.09,301.53L264.39,16L264.43,16L264.58,27.54L264.64,16L264.64,301.53L264.64,16L265.35,16L265.41,16L265.91,296.48L266.14,284.22L266.17,16L266.56,298.64L266.87,168.86L266.95,190.49L266.96,16L267.17,269.8L267.69,168.86L267.71,168.86L267.78,16L268.16,287.11L268.46,16L268.47,16L268.47,295.76L269.22,186.16L269.26,209.24L269.26,16L269.75,292.88L269.99,207.79L270.04,16L270.13,296.88L270.78,93.87L270.82,16L271.06,301.53L271.58,73.68L271.66,16L272.28,301.53L272.41,16L272.42,16L273.15,287.11L273.18,16L273.64,262.59L273.77,16L273.79,16L273.82,301.53L274.52,279.18L274.55,16L274.67,302.25L275.3,16L275.34,16L275.42,295.76L276.1,168.86L276.1,16L276.7,283.47L276.79,16L276.86,16L276.93,301.53L277.51,295.76L277.66,33.3L277.67,287.11L277.7,16L278.35,16L278.44,16L279.08,301.53L279.19,16L279.26,157.32L279.26,16L279.84,300.37L280,16L280.03,76.57L280.05,16L280.34,294.32L280.76,255.38L280.82,65.03L281.31,298.64L281.49,16L281.5,258.27L281.56,16L282.09,302.25L282.24,249.61L282.32,83.78L282.92,299.36L282.93,16L282.97,290.71L283,301.53L283.6,16L283.69,180.39L283.78,16L284.14,301.53L284.47,232.31L284.57,16L284.91,301.31L285.32,295.76L285.33,24.65L285.33,295.76L285.34,16L286.07,16L286.1,165.97L286.14,16L286.3,300.09L286.84,16L286.86,16L287.25,303.69L287.61,16L287.64,294.32L287.64,16L288.32,16L288.41,128.16L288.52,16L288.61,297.2L289.11,16L289.2,24.65L289.52,301.53L289.9,16L290.02,16L290.49,292.88L290.76,281.34L290.78,16L291.31,301.53L291.52,16L291.57,16L292.16,302.97L292.31,160.21L292.35,16L292.49,301.53L293.1,16L293.2,16L293.34,296.62L293.85,183.28L293.92,16L294.16,298.64L294.64,16L294.7,16L294.77,295.76L295.41,16L295.46,85.22L295.46,16L296.19,300.09L296.19,235.19L296.3,16L296.33,295.76L296.44,160.21L296.44,16L296.6,16L296.63,98.2L296.74,296.91L297.33,16L297.38,44.84L297.38,278.89L297.74,301.86L298.19,16L298.19,16L298.24,292.76L298.24,16L298.96,167.8L299.01,251.97L299.77,16L299.79,16L300.11,281.34L300.54,16L300.58,16L300.86,300.81L301.29,122.71L301.35,222.48L301.94,298.64L301.99,16L302.08,24.65L302.12,295.76L302.79,16L302.89,16L303.24,298.64L303.63,258.27L303.66,16L303.85,256.34L304.41,16L304.42,16L304.66,295.04L305.1,134.25L305.17,16L305.6,301.53L305.92,16L305.95,16L306.29,301.53L306.7,16L306.72,24.65L306.72,300.09L306.74,16L307.47,105.41L307.48,215L307.58,16L307.63,300.81L308.21,16L308.24,16L308.31,24.65L308.31,295.76L308.94,301.53L309.02,16L309.07,30.42L309.11,289.99L309.83,16L309.87,59.26L309.89,16L310.52,295.04L310.57,243.85L310.65,16L310.96,301.53L311.36,16L311.44,16L311.91,292.88L312.18,16L312.22,16L312.7,292.88L312.95,186.16L313.04,215L313.15,292.88L313.75,16L313.81,128.48L313.81,191.93L313.89,287.11L314.51,16L314.55,284.22L314.59,16L315.3,85.22L315.32,16L315.76,281.34L316.06,266.92L316.08,16L316.21,295.76L316.82,16L316.89,16L317.41,295.76L317.62,16L317.64,16L318.32,272.69L318.36,16L318.42,16L319.09,247.45L319.11,16L319.16,16L319.45,282.06L319.89,16L319.96,229.42L320.51,301.56L320.78,16L320.81,44.84L320.83,16L321.09,292.88L321.55,16L321.58,16L322.12,294.32L322.33,16L322.34,16L322.63,298.64L323.04,16L323.16,16L323.34,302.97L323.9,16L323.92,16L324.57,284.58L324.65,195.01L324.71,148.67L325.03,287.83L325.36,16L325.36,16L325.39,232.31L325.39,16L325.97,295.76L326.11,16L326.17,65.03L326.2,16L326.45,301.53L326.89,215L326.98,217.89L326.98,16L327.17,301.53L327.71,105.41L327.78,16L328.08,16L328.08,16L328.11,128.48L328.12,16L328.57,301.88L328.81,18.88L328.99,16L329.44,293.32L329.72,16L329.76,16L330.47,301.53L330.47,18.88L330.61,16L330.62,302.97L331.29,249.89L331.37,16L331.48,293.32L332.1,16L332.16,16L332.44,301.56L332.91,215L332.96,16L333.23,301.53L333.51,16L333.64,16L334.17,289.99L334.32,16L334.34,16L334.96,278.45L335.07,16L335.12,264.03L335.26,16L335.34,300.57L335.84,235.19L335.89,85.22L335.89,16L336.21,301.53L336.64,16L336.66,212.12L336.83,16L337.1,297.2L337.39,274.05L337.48,16L337.59,281.34L337.61,16L337.67,16L337.69,295.76L338.39,278.45L338.53,41.96L338.54,16L338.6,287.11L339.28,157.32L339.29,163.09L339.39,285.67L340.02,16L340.02,223.66L340.11,200.58L340.11,16L340.25,301.53L340.82,212.12L340.93,16L341.21,16L341.3,44.84L341.38,16L341.73,298.64L342.1,275.57L342.1,16L342.44,295.76L342.81,16L342.89,16L343.23,300.09L343.57,131.36L343.65,16L343.89,292.15L344.41,265.08L344.44,59.26L344.58,16L344.71,301.53L345.17,16L345.19,16L345.42,300.81L345.96,265.08L346,16L346.65,298.64L346.75,289.99L346.77,30.42L346.79,16L347.29,298.64L347.5,177.51L347.53,142.9L348.2,301.61L348.23,16L348.23,21.77L348.32,16L348.95,299.73L349.06,189.05L349.1,16L349.29,16L349.29,217.89L349.32,16L349.61,301.53L350.04,16L350.1,236.64L350.19,16L350.55,301.53L350.84,16L350.86,16L351.03,287.11L351.39,16L351.43,16L351.51,281.34L352.18,16L352.29,258.99L352.35,16L352.57,303.69L353.04,295.76L353.11,16L353.19,33.3L353.19,288.09L353.61,289.99L353.85,16L353.85,16L353.87,297.2L353.87,16L354.61,281.34L354.64,144.18L355.05,297.2L355.31,16L355.31,272.69L355.39,16L355.9,298.64L356.04,16L356.07,16L356.16,302.97L356.82,220.77L356.85,284.22L356.85,16L356.92,301.53L357.55,16L357.62,16L358.2,302.24L358.37,16L358.48,16L358.97,295.76L359.22,16L359.25,16L359.51,301.56L359.99,16L360.02,16L360.21,16L360.21,160.21L360.67,301.53L360.86,16L360.93,59.26L360.98,261.15L361.19,295.04L361.73,16L361.73,210.68L361.76,203.47L361.9,16L362.26,300.85L362.51,183.28L362.53,30.42L362.57,16L362.58,297.2L363.22,16L363.45,16L363.92,295.76L364.2,220.77L364.26,99.64L364.31,16L364.4,296.01L364.93,73.68L365.03,16L365.71,298.64L365.78,266.92L365.8,16L366.34,298.64L366.56,215L366.57,16L367.28,301.53L367.31,67.91L367.32,16L367.68,289.99L368.09,288.09L368.15,16L368.24,278.45L368.68,59.26L368.68,16L369.09,299.44L369.17,65.73L369.21,16L369.42,286.03L369.95,278.45L369.95,41.96L369.98,16L370.16,275.57L370.58,105.79L370.71,16L370.9,295.76L371.46,16L371.47,258.27L371.5,266.79L371.5,16L371.67,301.53L372.15,41.96L372.32,16L372.88,298.64L373.07,16L373.1,295.76L373.12,16L373.84,284.22L373.88,36.19L373.89,16L374.51,292.88L374.63,88.1L374.67,277.01L374.67,16L375.4,16L375.44,76.57L375.46,264.03L376.01,16L376.07,123.62L376.07,232.31L376.08,293.6L376.81,16L376.85,262.59L376.87,298.64L376.94,16L377.38,16L377.43,16L378.14,252.5L378.15,212.12L378.2,16L378.2,292.88L378.93,16L379.01,16L379.13,292.88L379.75,251.06L379.89,197.7L379.99,295.76L380.03,16L380.64,16L380.66,16L380.75,264.03L381.46,243.12L381.49,16L381.92,292.88L382.22,189.05L382.25,16L382.58,286.39L382.87,16L382.91,16L382.94,301.53L383.66,189.05L383.68,41.96L383.69,16L383.77,281.92L384.42,16L384.44,56.38L384.44,301.53L384.49,16L385.19,200.58L385.28,119.83L385.5,292.88L386.08,16L386.08,16L386.15,191.93L386.15,16L386.64,298.64L386.88,16L386.91,27.54L386.91,292.88L386.92,16L387.66,255.38L387.71,241.32L387.83,301.53L388.44,16L388.45,209.24L388.46,298.64L389.21,16L389.3,16L390.08,281.34L390.08,16L390.57,289.99L390.77,56.38L390.77,16L390.8,301.1L391.52,177.51L391.55,33.3L391.56,16L392.29,302.97L392.33,16L393.02,303.69L393.08,275.57L393.1,59.81L393.16,16L393.29,301.53L393.82,292.88L393.86,16L394.34,289.99L394.51,278.45L394.66,16L394.7,298.64L395.39,16L395.43,16L396.13,278.45L396.14,16L396.72,302.25L396.9,290.68L396.9,28.43L396.92,16L396.98,290.68L397.62,16L397.66,16L397.91,297.2L398.36,16L398.47,16L398.76,285.67L399.21,47.73L399.25,289.99L399.26,16L399.74,301.53L400,16L400.02,16L400.48,209.24L400.73,16L400.78,186.16L400.79,16L401.47,303.69L401.52,16L401.59,151.55L402.3,16L402.3,271.24L402.3,82.33L402.35,198.66L402.49,298.64L403.01,16L403.09,116.94L403.15,16L403.3,16L403.3,208.27L403.3,16L403.79,301.53L404.05,160.21L404.08,160.21L404.45,302.97L404.86,16L404.95,43.04L404.95,266.92L404.96,16L405.65,16L405.73,16L406.23,271.24L406.4,264.03L406.49,16L407.08,284.22L407.21,16L407.26,174.63L407.27,16L407.6,292.88L407.99,16L408.02,16L408.17,301.56L408.76,16L408.79,16L409.45,295.76L409.53,16L409.58,16L410.04,302.97L410.33,16L410.35,44.84L410.38,284.22L411.11,16L411.14,243.85L411.23,16L411.7,284.22L411.86,16L411.92,16L412.1,292.88L412.66,16L412.7,62.15L412.78,16L413.13,298.64L413.48,272.69L413.48,16L413.88,300.81L414.21,203.08L414.24,154.44L414.3,16L414.9,303.44L414.99,47.73L415.01,272.69L415.01,16L415.25,283.63L415.76,16L415.82,16L416.02,301.53L416.53,255.38L416.58,65.03L416.61,16L416.71,285.67L417.32,16L417.38,144.34L417.39,16L417.62,298.64L418.09,125.6L418.15,281.34L418.87,16L418.89,256.1L418.9,209.24L418.96,215L419.63,16L419.63,16L419.66,232.31L419.71,16L419.75,269.8L420.4,105.41L420.42,301.53L421.15,16L421.15,16L421.18,259.71L421.36,301.53L421.96,16L422.02,16L422.41,302.97L422.81,275.57L422.85,275.57L422.87,16L423.14,289.99L423.53,16L423.61,16L423.99,301.53L424.36,16L424.42,16L424.92,302.97L425.13,194.82L425.18,16L425.72,285.18L425.88,16L425.91,16L426.66,287.59L426.66,114.06L426.66,16L426.83,297.26L427.41,41.96L427.42,16L428.03,287.11L428.05,16L428.1,16L428.71,301.53L428.84,160.21L428.88,70.42L429.16,278.45L429.52,16L429.54,220.77L429.54,16L429.93,297.2L430.27,116.94L430.33,16L430.82,301.53L431.08,70.8L431.14,249.61L431.19,16L431.37,287.11L431.86,272.69L431.91,16L432.12,298.64L432.65,16L432.68,41.96L432.7,16L433.17,298.64L433.42,82.33L433.45,238.08L433.48,16L433.7,299.36L434.2,16L434.21,16L434.85,298.64L434.96,278.45L434.97,16L435.59,296.55L435.64,70.8L435.73,16L436.04,289.27L436.4,16L436.43,16L436.96,299.61L437.18,272.69L437.2,16L437.46,279.18L437.93,264.03L437.99,16L438.35,287.11L438.73,171.74L438.75,148.67L438.81,284.22L439.43,16L439.47,88.1L439.49,232.31L439.89,275.57L440.26,16L440.3,16L440.62,287.11L440.96,108.29L441,16L441.26,294.32L441.74,16L441.77,16L442.2,298.92L442.51,16L442.53,16L442.76,301.53L443.07,90.99L443.11,16L443.56,302.1L443.85,122.71L443.88,16L444.58,301.56L444.61,16L444.64,36.19L444.68,16L445.09,298.14L445.36,16L445.39,16L445.74,285.67L446.14,266.92L446.18,16L446.63,295.76L446.93,16L446.94,16L447.54,301.53L447.68,16L447.79,16L448.06,302.97L448.55,255.38L448.55,16L448.74,120.15L448.74,264.03L448.8,16L449.01,303.48L449.49,16L449.5,252.5L449.5,16L450.24,296.48L450.24,16L450.35,105.41L450.38,16L450.71,281.34L451.09,260.42L451.11,301.53L451.15,16L451.37,301.56L451.84,295.76L451.95,16L452.56,301.56L452.68,16L452.71,16L452.94,302.97L453.45,16L453.52,174.63L453.81,297.29L454.23,16L454.26,264.03L454.29,16L454.59,289.99L455.01,186.16L455.03,48.45L455.04,16L455.43,300.81L455.73,16L455.78,16L455.84,30.42L455.84,289.99L455.87,16L456.17,301.1L456.56,266.96L456.77,16L457.36,295.76L457.42,16L457.44,16L457.9,287.83L458.19,116.94L458.3,16L458.93,269.14L459.05,102.52L459.07,16L459.33,298.64L459.82,111.18L459.85,16L459.88,21.77L459.94,16L459.95,176.07L459.95,16L460.23,298.64L460.67,16L460.72,219.33L461.17,295.76L461.35,16L461.45,88.1L461.56,232.31L461.63,16L461.64,303.69L462.3,70.8L462.35,16L463.02,301.53L463.06,114.06L463.06,16L463.22,289.99L463.81,16L463.84,16L464.36,296.33L464.44,284.22L464.47,16L464.96,295.76L465.22,16L465.29,201.41L465.29,16L465.37,301.53L465.98,261.15L466.08,16L466.23,267.65L466.83,16L466.86,16L467.25,298.64L467.57,232.31L467.6,16L467.94,294.32L468.33,16L468.4,271.24L468.47,16L468.72,281.34L469.13,16L469.16,50.61L469.18,281.34L469.19,16L469.91,210.68L469.99,16L470.09,288.74L470.3,226.54L470.35,16L470.54,278.45L471.08,275.57L471.1,16L471.46,298.64L471.81,16L471.86,16L471.97,301.56L472.57,174.63L472.6,16L472.87,275.57L473.35,269.08L473.37,16L474.01,298.64L474.09,16L474.15,171.74L474.75,292.88L474.86,16L474.91,58.06L474.91,142.9L474.97,292.88L474.97,16L475.65,191.93L475.67,73.68L475.71,16L475.82,295.76L476.34,176.07L476.44,16L476.76,300.09L477.19,16L477.2,16L477.61,298.64L477.93,16L477.98,16L478.69,292.88L478.69,27.54L478.76,16L479.48,300.81L479.55,261.15L479.55,61.69L479.63,16L479.97,301.56L480.28,16L480.35,16L480.83,301.53L481.04,62.15L481.24,16L481.29,281.34L481.94,16L482.01,16L482.65,298.76L482.76,16L482.77,16L483.31,298.76L483.5,290.57L483.54,16L483.9,302.97L484.26,16L484.31,16L484.9,287.11L485.08,178.95L485.09,16L485.82,296.01L485.84,296.01L485.85,108.29L485.93,16L486.51,301.53L486.6,292.88L486.61,27.54L486.66,16L486.8,301.53L487.35,16L487.4,16L487.87,301.53L488.08,16L488.2,99.64L488.23,16L488.32,301.53L488.93,278.45L488.93,16L489.36,298.64L489.66,16L489.72,16L489.78,295.76L490.47,16L490.52,16L490.97,298.64L491.25,280.62L491.3,36.19L491.31,284.22L491.4,16L492.04,16L492.1,16L492.17,27.54L492.18,292.88L492.39,295.76L492.96,16L493,16L493.75,266.92L493.76,53.49L493.76,16L494.07,295.76L494.49,24.65L494.58,259.27L494.6,16L494.95,298.64L495.32,178.95L495.34,53.49L495.37,16L495.52,300.09L496.09,62.15L496.12,16L496.37,301.53L496.87,189.05L496.89,16L497.44,292.88L497.63,16L497.69,59.26L497.71,16L498.17,301.53L498.43,238.08L498.5,16L498.56,288.09L499.03,16L499.16,16L499.28,47.73L499.28,16L499.28,295.76L499.32,16L500.02,266.92L500.04,53.49L500.08,16L500.77,298.64L500.78,16L500.81,21.77L500.81,16L501.23,301.84L501.54,62.15L501.58,258.27L501.62,289.99L502.32,16L502.38,116.61L502.44,16L502.63,278.45L503.08,189.05L503.12,16L503.53,301.56L503.92,140.02L503.96,16L504.08,291.43L504.58,56.75L504.67,16L505.17,297.2L505.39,16L505.44,16L506.07,285.67L506.19,249.61L506.2,16L506.8,284.22L506.93,16L507.06,16L507.11,296.48L507.81,16L507.83,41.96L508.2,291.91L508.39,16L508.42,266.92L508.54,194.82L508.89,301.53L509.27,16L509.27,16L509.29,281.34L509.88,292.88L510.04,16L510.04,297.92L510.6,298.64L510.7,16L510.74,217.89L510.84,16L510.9,289.99L511,16" style="vector-effect: non-scaling-stroke; fill: none; stroke: rgb(99, 110, 250); stroke-opacity: 1; stroke-width: 2px; opacity: 1;"/></g><g class="points"/><g class="text"/></g></g></g><g class="overplot"/><path class="xlines-above crisp" d="M0,0" style="fill: none;"/><path class="ylines-above crisp" d="M0,0" style="fill: none;"/><g class="overlines-above"/><g class="xaxislayer-above"><g class="xtick"><text text-anchor="middle" x="0" y="436" transform="translate(198.01,0)" style="font-family: 'Times New Roman'; font-size: 15px; fill: rgb(13, 13, 13); fill-opacity: 1; white-space: pre; opacity: 1;">1.61252×10​<tspan style="font-size:70%" dy="-0.6em">18</tspan><tspan dy="0.42em">​</tspan></text></g><g class="xtick"><text text-anchor="middle" x="0" y="436" style="font-family: 'Times New Roman'; font-size: 15px; fill: rgb(13, 13, 13); fill-opacity: 1; white-space: pre; opacity: 1;" transform="translate(299.45,0)">1.612525×10​<tspan style="font-size:70%" dy="-0.6em">18</tspan><tspan dy="0.42em">​</tspan></text></g><g class="xtick"><text text-anchor="middle" x="0" y="436" style="font-family: 'Times New Roman'; font-size: 15px; fill: rgb(13, 13, 13); fill-opacity: 1; white-space: pre; opacity: 1;" transform="translate(400.89,0)">1.61253×10​<tspan style="font-size:70%" dy="-0.6em">18</tspan><tspan dy="0.42em">​</tspan></text></g><g class="xtick"><text text-anchor="middle" x="0" y="436" style="font-family: 'Times New Roman'; font-size: 15px; fill: rgb(13, 13, 13); fill-opacity: 1; white-space: pre; opacity: 1;" transform="translate(502.33,0)">1.612535×10​<tspan style="font-size:70%" dy="-0.6em">18</tspan><tspan dy="0.42em">​</tspan></text></g><g class="xtick"><text text-anchor="middle" x="0" y="436" style="font-family: 'Times New Roman'; font-size: 15px; fill: rgb(13, 13, 13); fill-opacity: 1; white-space: pre; opacity: 1;" transform="translate(603.77,0)">1.61254×10​<tspan style="font-size:70%" dy="-0.6em">18</tspan><tspan dy="0.42em">​</tspan></text></g></g><g class="yaxislayer-above"><g class="ytick"><text text-anchor="end" x="108" y="12.25" transform="translate(0,404.41)" style="font-family: 'Times New Roman'; font-size: 35px; fill: rgb(13, 13, 13); fill-opacity: 1; white-space: pre; opacity: 1;">0</text></g><g class="ytick"><text text-anchor="end" x="108" y="12.25" style="font-family: 'Times New Roman'; font-size: 35px; fill: rgb(13, 13, 13); fill-opacity: 1; white-space: pre; opacity: 1;" transform="translate(0,346.73)">20</text></g><g class="ytick"><text text-anchor="end" x="108" y="12.25" style="font-family: 'Times New Roman'; font-size: 35px; fill: rgb(13, 13, 13); fill-opacity: 1; white-space: pre; opacity: 1;" transform="translate(0,289.05)">40</text></g><g class="ytick"><text text-anchor="end" x="108" y="12.25" style="font-family: 'Times New Roman'; font-size: 35px; fill: rgb(13, 13, 13); fill-opacity: 1; white-space: pre; opacity: 1;" transform="translate(0,231.36)">60</text></g><g class="ytick"><text text-anchor="end" x="108" y="12.25" style="font-family: 'Times New Roman'; font-size: 35px; fill: rgb(13, 13, 13); fill-opacity: 1; white-space: pre; opacity: 1;" transform="translate(0,173.68)">80</text></g><g class="ytick"><text text-anchor="end" x="108" y="12.25" style="font-family: 'Times New Roman'; font-size: 35px; fill: rgb(13, 13, 13); fill-opacity: 1; white-space: pre; opacity: 1;" transform="translate(0,116)">100</text></g></g><g class="overaxes-above"/></g></g><g class="polarlayer"/><g class="smithlayer"/><g class="ternarylayer"/><g class="geolayer"/><g class="funnelarealayer"/><g class="pielayer"/><g class="iciclelayer"/><g class="treemaplayer"/><g class="sunburstlayer"/><g class="glimages"/><defs id="topdefs-f66481"><g class="clips"/></defs><g class="layer-above"><g class="imagelayer"/><g class="shapelayer"/></g><g class="infolayer"><g class="g-gtitle"/><g class="g-xtitle"><text class="xtitle" x="364.5" y="463.8" text-anchor="middle" style="font-family: 'Open Sans', verdana, arial, sans-serif; font-size: 14px; fill: rgb(42, 63, 95); opacity: 1; font-weight: normal; white-space: pre;">Time Steps (ns)</text></g><g class="g-ytitle" transform="translate(23.5,0)"><text class="ytitle" transform="rotate(-90,12.5,260)" x="12.5" y="260" text-anchor="middle" style="font-family: 'Times New Roman'; font-size: 40px; fill: rgb(13, 13, 13); opacity: 1; font-weight: normal; white-space: pre;">Fill rate (in %)</text></g></g></svg>