<svg class="main-svg" xmlns="http://www.w3.org/2000/svg" xmlns:xlink="http://www.w3.org/1999/xlink" width="700" height="500" style="" viewBox="0 0 700 500"><rect x="0" y="0" width="700" height="500" style="fill: rgb(255, 255, 255); fill-opacity: 1;"/><defs id="defs-4212a4"><g class="clips"><clipPath id="clip4212a4xyplot" class="plotclip"><rect width="494" height="320"/></clipPath><clipPath class="axesclip" id="clip4212a4x"><rect x="126" y="0" width="494" height="500"/></clipPath><clipPath class="axesclip" id="clip4212a4y"><rect x="0" y="100" width="700" height="320"/></clipPath><clipPath class="axesclip" id="clip4212a4xy"><rect x="126" y="100" width="494" height="320"/></clipPath></g><g class="gradients"/><g class="patterns"/></defs><g class="bglayer"><rect class="bg" x="126" y="100" width="494" height="320" style="fill: rgb(229, 236, 246); fill-opacity: 1; stroke-width: 0;"/></g><g class="layer-below"><g class="imagelayer"/><g class="shapelayer"/></g><g class="cartesianlayer"><g class="subplot xy"><g class="layer-subplot"><g class="shapelayer"/><g class="imagelayer"/></g><g class="minor-gridlayer"><g class="x"/><g class="y"/></g><g class="gridlayer"><g class="x"><path class="xgrid crisp" transform="translate(212.23000000000002,0)" d="M0,100v320" style="stroke: rgb(255, 255, 255); stroke-opacity: 1; stroke-width: 1px;"/><path class="xgrid crisp" transform="translate(310.27,0)" d="M0,100v320" style="stroke: rgb(255, 255, 255); stroke-opacity: 1; stroke-width: 1px;"/><path class="xgrid crisp" transform="translate(408.3,0)" d="M0,100v320" style="stroke: rgb(255, 255, 255); stroke-opacity: 1; stroke-width: 1px;"/><path class="xgrid crisp" transform="translate(506.34,0)" d="M0,100v320" style="stroke: rgb(255, 255, 255); stroke-opacity: 1; stroke-width: 1px;"/><path class="xgrid crisp" transform="translate(604.37,0)" d="M0,100v320" style="stroke: rgb(255, 255, 255); stroke-opacity: 1; stroke-width: 1px;"/></g><g class="y"><path class="ygrid crisp" transform="translate(0,358.11)" d="M126,0h494" style="stroke: rgb(255, 255, 255); stroke-opacity: 1; stroke-width: 1px;"/><path class="ygrid crisp" transform="translate(0,312.22)" d="M126,0h494" style="stroke: rgb(255, 255, 255); stroke-opacity: 1; stroke-width: 1px;"/><path class="ygrid crisp" transform="translate(0,266.33000000000004)" d="M126,0h494" style="stroke: rgb(255, 255, 255); stroke-opacity: 1; stroke-width: 1px;"/><path class="ygrid crisp" transform="translate(0,220.43)" d="M126,0h494" style="stroke: rgb(255, 255, 255); stroke-opacity: 1; stroke-width: 1px;"/><path class="ygrid crisp" transform="translate(0,174.54000000000002)" d="M126,0h494" style="stroke: rgb(255, 255, 255); stroke-opacity: 1; stroke-width: 1px;"/><path class="ygrid crisp" transform="translate(0,128.65)" d="M126,0h494" style="stroke: rgb(255, 255, 255); stroke-opacity: 1; stroke-width: 1px;"/></g></g><g class="zerolinelayer"><path class="yzl zl crisp" transform="translate(0,404)" d="M126,0h494" style="stroke: rgb(255, 255, 255); stroke-opacity: 1; stroke-width: 2px;"/></g><path class="xlines-below"/><path class="ylines-below"/><g class="overlines-below"/><g class="xaxislayer-below"/><g class="yaxislayer-below"/><g class="overaxes-below"/><g class="plot" transform="translate(126,100)" clip-path="url(#clip4212a4xyplot)"><g class="scatterlayer mlayer"><g class="trace scatter traced98490" style="stroke-miterlimit: 2; opacity: 1;"><g class="fills"/><g class="errorbars"/><g class="lines"><path class="js-line" d="M0,304L1.91,303.16L1.91,303.16L1.97,303.15L5.72,301.64L5.72,301.63L16.23,296.51L16.23,296.49L17.59,295.69L17.59,295.69L17.81,295.68L35.72,287.28L35.72,287.28L35.72,287.27L77.28,261.49L77.28,261.49L77.28,261.48L105.95,244.55L106.01,244.55L108.12,243.11L108.12,243.11L108.13,243.1L114.32,239.29L114.32,239.25L115.53,238.44L115.65,238.44L120.9,235.49L120.9,235.49L120.9,235.48L122.41,234.52L122.41,234.51L124.73,233.09L124.73,233.08L133.69,227.5L133.69,227.5L133.73,227.49L135.3,226.43L135.3,226.43L135.32,226.4L141.41,223.17L141.46,223.17L142.21,222.38L142.21,222.38L142.27,222.37L146.21,219.87L146.21,219.86L149.49,218.25L149.49,218.24L154.82,215.39L154.95,215.39L162.2,210.93L162.2,210.92L163.91,209.85L163.91,209.85L163.91,209.83L168.69,207.08L168.69,207.08L168.73,207.08L172.39,205.12L172.39,205.12L172.39,205.08L176.28,202.78L176.28,202.78L176.34,202.78L179.53,201.02L179.53,201.02L179.69,201.02L183.13,199.09L183.13,199.07L187.85,196.63L187.85,196.63L187.85,196.62L192.3,194.11L192.3,194.11L192.32,194.09L194.51,192.92L194.51,192.92L194.55,192.91L196.73,191.87L196.73,191.87L196.73,191.86L199.58,190.52L199.58,190.51L208.14,185.77L208.14,185.77L208.29,185.77L210.94,184.1L210.94,184.1L210.94,184.09L221.73,178.3L221.73,178.3L221.79,178.29L224.44,176.87L224.44,176.86L234.66,171L234.66,170.98L235.57,170.49L235.62,170.49L238.68,168.4L238.68,168.4L238.68,168.39L262.73,154.3L262.73,154.3L262.87,154.29L270.71,150.42L270.71,150.4L272.76,149.18L272.76,149.18L272.82,149.17L288.1,140.93L288.1,140.89L289.05,140.16L289.11,140.16L290.31,139.11L290.31,139.11L290.31,139.09L292.24,138.2L292.27,138.2L305.02,131.47L305.02,131.47L305.09,131.46L310.13,128.59L310.16,128.59L310.96,128.16L311.01,128.16L313.03,127.02L313.03,127.01L315.89,125.16L315.89,125.16L315.96,125.15L317.6,124.28L317.6,124.28L317.64,124.27L324.15,120.46L324.29,120.45L326.2,119.58L326.2,119.58L326.26,119.57L328.34,117.88L328.34,117.88L328.34,117.87L333.21,114.87L333.32,114.87L334.78,113.77L334.83,113.77L337.88,112.05L337.88,112.03L343.27,109.02L343.31,109.02L344.49,108.1L344.49,108.1L344.49,108.08L347.44,106.55L347.44,106.54L354.39,102.76L354.39,102.75L359.16,100.49L359.16,100.48L375,90.79L375.05,90.79L383.27,85.9L383.32,85.9L385.85,84.02L385.85,84.02L385.91,84.01L388.29,82.74L388.29,82.74L388.3,82.73L392.08,80.46L392.08,80.46L392.11,80.45L396.93,77.63L396.93,77.63L396.93,77.62L400.91,74.99L400.91,74.98L407.13,71.57L407.13,71.57L407.15,71.57L410.48,69.65L410.48,69.65L410.5,69.65L412.44,68.03L412.44,68.03L412.49,68.02L418.21,64.79L418.26,64.79L423.57,61L423.57,60.99L426.66,59.35L426.66,59.35L426.75,59.34L435.21,54.58L435.21,54.58L435.22,54.57L438.46,52.37L438.46,52.37L438.46,52.36L455.2,41.64L455.2,41.63L471.72,31L471.72,31L471.77,31L482.56,24.78L482.56,24.76L494,16L494,16" style="vector-effect: non-scaling-stroke; fill: none; stroke: rgb(1, 102, 30); stroke-opacity: 1; stroke-width: 2px; opacity: 1;"/></g><g class="points"/><g class="text"/></g></g></g><g class="overplot"/><path class="xlines-above crisp" d="M0,0" style="fill: none;"/><path class="ylines-above crisp" d="M0,0" style="fill: none;"/><g class="overlines-above"/><g class="xaxislayer-above"><g class="xtick"><text text-anchor="middle" x="0" y="436" transform="translate(212.23000000000002,0)" style="font-family: 'Times New Roman'; font-size: 15px; fill: rgb(13, 13, 13); fill-opacity: 1; white-space: pre; opacity: 1;">1.61252×10​<tspan style="font-size:70%" dy="-0.6em">18</tspan><tspan dy="0.42em">​</tspan></text></g><g class="xtick"><text text-anchor="middle" x="0" y="436" style="font-family: 'Times New Roman'; font-size: 15px; fill: rgb(13, 13, 13); fill-opacity: 1; white-space: pre; opacity: 1;" transform="translate(310.27,0)">1.612525×10​<tspan style="font-size:70%" dy="-0.6em">18</tspan><tspan dy="0.42em">​</tspan></text></g><g class="xtick"><text text-anchor="middle" x="0" y="436" style="font-family: 'Times New Roman'; font-size: 15px; fill: rgb(13, 13, 13); fill-opacity: 1; white-space: pre; opacity: 1;" transform="translate(408.3,0)">1.61253×10​<tspan style="font-size:70%" dy="-0.6em">18</tspan><tspan dy="0.42em">​</tspan></text></g><g class="xtick"><text text-anchor="middle" x="0" y="436" style="font-family: 'Times New Roman'; font-size: 15px; fill: rgb(13, 13, 13); fill-opacity: 1; white-space: pre; opacity: 1;" transform="translate(506.34,0)">1.612535×10​<tspan style="font-size:70%" dy="-0.6em">18</tspan><tspan dy="0.42em">​</tspan></text></g><g class="xtick"><text text-anchor="middle" x="0" y="436" style="font-family: 'Times New Roman'; font-size: 15px; fill: rgb(13, 13, 13); fill-opacity: 1; white-space: pre; opacity: 1;" transform="translate(604.37,0)">1.61254×10​<tspan style="font-size:70%" dy="-0.6em">18</tspan><tspan dy="0.42em">​</tspan></text></g></g><g class="yaxislayer-above"><g class="ytick"><text text-anchor="end" x="125" y="12.25" transform="translate(0,404)" style="font-family: 'Times New Roman'; font-size: 35px; fill: rgb(13, 13, 13); fill-opacity: 1; white-space: pre; opacity: 1;">0</text></g><g class="ytick"><text text-anchor="end" x="125" y="12.25" style="font-family: 'Times New Roman'; font-size: 35px; fill: rgb(13, 13, 13); fill-opacity: 1; white-space: pre; opacity: 1;" transform="translate(0,358.11)">100k</text></g><g class="ytick"><text text-anchor="end" x="125" y="12.25" style="font-family: 'Times New Roman'; font-size: 35px; fill: rgb(13, 13, 13); fill-opacity: 1; white-space: pre; opacity: 1;" transform="translate(0,312.22)">200k</text></g><g class="ytick"><text text-anchor="end" x="125" y="12.25" style="font-family: 'Times New Roman'; font-size: 35px; fill: rgb(13, 13, 13); fill-opacity: 1; white-space: pre; opacity: 1;" transform="translate(0,266.33000000000004)">300k</text></g><g class="ytick"><text text-anchor="end" x="125" y="12.25" style="font-family: 'Times New Roman'; font-size: 35px; fill: rgb(13, 13, 13); fill-opacity: 1; white-space: pre; opacity: 1;" transform="translate(0,220.43)">400k</text></g><g class="ytick"><text text-anchor="end" x="125" y="12.25" style="font-family: 'Times New Roman'; font-size: 35px; fill: rgb(13, 13, 13); fill-opacity: 1; white-space: pre; opacity: 1;" transform="translate(0,174.54000000000002)">500k</text></g><g class="ytick"><text text-anchor="end" x="125" y="12.25" style="font-family: 'Times New Roman'; font-size: 35px; fill: rgb(13, 13, 13); fill-opacity: 1; white-space: pre; opacity: 1;" transform="translate(0,128.65)">600k</text></g></g><g class="overaxes-above"/></g></g><g class="polarlayer"/><g class="smithlayer"/><g class="ternarylayer"/><g class="geolayer"/><g class="funnelarealayer"/><g class="pielayer"/><g class="iciclelayer"/><g class="treemaplayer"/><g class="sunburstlayer"/><g class="glimages"/><defs id="topdefs-4212a4"><g class="clips"/></defs><g class="layer-above"><g class="imagelayer"/><g class="shapelayer"/></g><g class="infolayer"><g class="g-gtitle"/><g class="g-xtitle"><text class="xtitle" x="373" y="463.8" text-anchor="middle" style="font-family: 'Open Sans', verdana, arial, sans-serif; font-size: 14px; fill: rgb(42, 63, 95); opacity: 1; font-weight: normal; white-space: pre;">Time Steps (ns)</text></g><g class="g-ytitle" transform="translate(24,0)"><text class="ytitle" transform="rotate(-90,12,260)" x="12" y="260" text-anchor="middle" style="font-family: 'Times New Roman'; font-size: 40px; fill: rgb(13, 13, 13); opacity: 1; font-weight: normal; white-space: pre;">Turnaround (in $)</text></g></g></svg>