<svg class="main-svg" xmlns="http://www.w3.org/2000/svg" xmlns:xlink="http://www.w3.org/1999/xlink" width="700" height="500" style="" viewBox="0 0 700 500"><rect x="0" y="0" width="700" height="500" style="fill: rgb(255, 255, 255); fill-opacity: 1;"/><defs id="defs-0552e6"><g class="clips"><clipPath id="clip0552e6xyplot" class="plotclip"><rect width="399" height="300"/></clipPath><clipPath class="axesclip" id="clip0552e6x"><rect x="137" y="0" width="399" height="500"/></clipPath><clipPath class="axesclip" id="clip0552e6y"><rect x="0" y="100" width="700" height="300"/></clipPath><clipPath class="axesclip" id="clip0552e6xy"><rect x="137" y="100" width="399" height="300"/></clipPath></g><g class="gradients"/><g class="patterns"/></defs><g class="bglayer"><rect class="bg" x="137" y="100" width="399" height="300" style="fill: rgb(229, 236, 246); fill-opacity: 1; stroke-width: 0;"/></g><g class="layer-below"><g class="imagelayer"/><g class="shapelayer"/></g><g class="cartesianlayer"><g class="subplot xy"><g class="layer-subplot"><g class="shapelayer"/><g class="imagelayer"/></g><g class="minor-gridlayer"><g class="x"/><g class="y"/></g><g class="gridlayer"><g class="x"><path class="xgrid crisp" transform="translate(206.05,0)" d="M0,100v300" style="stroke: rgb(255, 255, 255); stroke-opacity: 1; stroke-width: 1px;"/><path class="xgrid crisp" transform="translate(285.37,0)" d="M0,100v300" style="stroke: rgb(255, 255, 255); stroke-opacity: 1; stroke-width: 1px;"/><path class="xgrid crisp" transform="translate(364.7,0)" d="M0,100v300" style="stroke: rgb(255, 255, 255); stroke-opacity: 1; stroke-width: 1px;"/><path class="xgrid crisp" transform="translate(444.02,0)" d="M0,100v300" style="stroke: rgb(255, 255, 255); stroke-opacity: 1; stroke-width: 1px;"/><path class="xgrid crisp" transform="translate(523.3399999999999,0)" d="M0,100v300" style="stroke: rgb(255, 255, 255); stroke-opacity: 1; stroke-width: 1px;"/></g><g class="y"><path class="ygrid crisp" transform="translate(0,330.4)" d="M137,0h399" style="stroke: rgb(255, 255, 255); stroke-opacity: 1; stroke-width: 1px;"/><path class="ygrid crisp" transform="translate(0,169.6)" d="M137,0h399" style="stroke: rgb(255, 255, 255); stroke-opacity: 1; stroke-width: 1px;"/></g></g><g class="zerolinelayer"><path class="yzl zl crisp" transform="translate(0,250)" d="M137,0h399" style="stroke: rgb(255, 255, 255); stroke-opacity: 1; stroke-width: 2px;"/></g><path class="xlines-below"/><path class="ylines-below"/><g class="overlines-below"/><g class="xaxislayer-below"/><g class="yaxislayer-below"/><g class="overaxes-below"/><g class="plot" transform="translate(137,100)" clip-path="url(#clip0552e6xyplot)"><g class="scatterlayer mlayer"><g class="trace scatter tracecc81f5" style="stroke-miterlimit: 2; opacity: 1;"><g class="fills"/><g class="errorbars"/><g class="lines"><path class="js-line" d="M0,153.22L0.6,141.96L0.67,158.04L0.75,145.18L0.79,141.96L0.84,56.74L0.98,169.29L1.55,164.47L1.57,158.04L1.68,133.92L2.27,166.08L2.33,137.13L2.34,162.87L2.68,166.08L2.93,133.92L3.14,141.96L3.14,158.04L3.25,164.47L3.28,129.1L3.8,143.57L3.8,159.65L4.01,133.92L4.54,178.95L4.54,146.78L4.59,148.39L4.93,167.69L5.03,132.31L5.3,161.26L5.35,146.78L5.35,130.7L5.55,183.77L6.09,156.43L6.22,154.82L6.37,129.1L6.5,174.12L6.82,148.39L7.04,151.61L7.23,164.47L7.25,135.52L7.65,141.96L7.74,141.96L8.31,132.31L8.4,164.47L8.49,154.83L8.52,148.39L8.81,129.09L8.83,170.91L9.23,148.39L9.3,153.22L9.36,156.43L9.82,145.17L9.86,148.39L9.87,161.26L10.38,169.3L10.39,122.66L10.58,145.17L10.7,148.39L10.75,129.09L11.03,164.48L11.42,164.47L11.53,148.39L11.94,143.57L12.02,156.43L12.02,140.35L12.35,116.23L12.52,183.77L12.73,159.65L12.81,154.82L13.04,162.86L13.34,114.62L13.45,151.61L13.46,174.12L13.97,133.92L14.23,145.18L14.31,153.22L14.45,129.09L14.98,175.73L14.99,154.82L15.03,146.78L15.17,130.7L15.3,162.87L15.7,135.52L15.74,172.52L16.39,125.87L16.45,178.95L16.49,159.65L16.51,178.96L16.61,137.13L17.29,145.18L17.36,145.18L17.58,121.05L17.73,183.77L17.82,121.06L18.4,169.3L18.61,150L18.63,153.22L18.82,140.35L18.94,169.3L19.12,167.69L19.41,153.22L19.44,132.31L20.03,167.69L20.11,135.52L20.15,140.35L20.27,130.7L20.34,175.74L20.86,135.52L20.88,135.52L21.35,162.87L21.62,133.92L21.69,151.61L21.69,145.17L21.95,162.87L22.08,133.92L22.43,154.82L22.46,148.39L22.67,129.09L23.06,162.87L23.21,156.43L23.23,156.43L23.51,178.95L23.53,137.13L23.79,145.18L23.83,154.82L23.99,161.26L24.13,125.87L24.2,121.05L24.33,177.34L24.96,150L25.01,146.78L25.54,129.09L25.61,169.3L25.75,158.04L25.75,138.74L25.8,130.7L25.8,140.35L25.8,140.35L25.81,169.3L26.02,124.27L26.56,137.13L26.58,162.87L27.29,125.88L27.32,158.04L27.37,151.61L27.9,130.7L27.91,166.08L28.1,153.22L28.14,159.65L28.45,191.83L28.45,108.17L28.86,137.13L28.9,162.87L29.27,172.51L29.55,117.84L29.56,180.55L29.56,104.98L30.3,145.18L30.32,154.82L30.38,169.3L30.42,119.44L30.95,153.22L30.96,153.22L31.51,191.81L31.51,108.19L31.7,141.96L31.73,146.78L32.05,114.62L32.18,183.76L32.48,153.22L32.52,153.22L32.89,127.48L33.24,214.33L33.31,146.78L33.31,92.1L33.51,188.59L34.06,141.96L34.08,154.82L34.22,177.33L34.36,114.62L34.83,148.39L34.86,151.61L35,195.02L35.4,121.05L35.53,140.35L35.54,162.86L35.68,175.73L36.16,125.88L36.16,145.18L36.18,169.29L36.37,175.73L36.75,130.7L36.93,137.14L36.95,164.47L37,169.3L37.22,135.53L37.64,161.25L37.73,154.82L37.81,140.35L37.93,153.22L37.95,167.68L38.1,121.06L38.13,182.16L38.69,150L38.74,150L38.78,182.16L39.22,129.1L39.49,156.43L39.51,138.74L39.7,174.12L40.14,113L40.31,161.26L40.32,143.57L40.5,180.56L40.64,127.48L41.05,161.26L41.09,162.87L41.27,169.3L41.48,130.7L41.86,150L41.87,150L42.06,162.86L42.25,130.7L42.6,146.78L42.66,146.78L42.8,167.69L42.85,130.7L42.88,151.61L42.92,180.55L43.1,182.16L43.65,125.87L43.68,143.57L43.73,156.43L43.75,188.59L44.21,127.49L44.45,161.26L44.48,148.39L44.69,113.02L44.69,185.37L45.23,169.29L45.26,159.65L45.36,169.29L45.89,132.31L45.99,140.35L46.03,159.65L46.18,117.84L46.64,186.98L46.75,162.87L46.79,138.74L47.22,130.7L47.4,172.51L47.54,148.39L47.56,143.57L48,125.88L48.14,186.98L48.24,151.61L48.25,137.14L48.25,166.08L48.67,132.31L48.99,151.61L49.01,146.78L49.53,182.17L49.56,125.87L49.76,154.82L49.78,154.82L49.85,172.51L49.99,121.05L50.54,145.18L50.56,140.35L51.12,109.79L51.15,188.6L51.31,153.22L51.33,167.7L51.67,174.13L51.73,132.3L52.05,151.61L52.06,172.52L52.19,125.87L52.36,185.39L52.83,151.61L52.84,143.57L52.92,125.87L53.03,177.34L53.1,153.22L53.11,174.12L53.43,124.26L53.67,175.74L53.82,153.22L53.86,182.17L53.93,124.26L54.63,145.17L54.67,145.17L54.98,104.96L55,198.26L55.41,161.26L55.43,146.78L55.88,130.7L56.03,170.91L56.12,166.09L56.22,156.43L56.32,190.22L56.84,93.68L56.97,183.78L56.99,135.52L57.01,112.99L57.41,166.09L57.71,130.69L57.73,148.39L57.73,132.3L58.26,172.52L58.48,148.39L58.5,148.39L58.6,172.52L58.75,132.3L59.22,145.17L59.27,151.61L59.83,143.56L60,159.65L60,159.65L60.01,159.65L60.19,166.09L60.72,137.13L60.74,146.78L60.79,145.17L61.1,166.09L61.25,133.91L61.52,151.61L61.53,133.91L61.6,166.09L61.62,132.31L62.28,158.04L62.36,150L62.97,127.48L62.97,172.52L63.11,148.39L63.13,148.39L63.38,204.74L63.62,108.15L63.88,162.87L63.89,137.13L64.01,174.14L64.09,125.86L64.64,167.7L64.65,132.3L64.69,175.75L64.71,127.47L65.36,145.17L65.38,146.78L65.48,141.96L66.14,166.09L66.14,166.09L66.14,137.13L66.24,133.91L66.25,166.09L66.27,153.22L66.3,114.6L66.3,185.4L67.03,137.13L67.08,166.09L67.61,124.26L67.66,175.74L67.82,151.61L67.87,151.61L68.37,130.7L68.57,169.3L68.63,162.87L68.64,151.61L69.09,127.48L69.28,174.13L69.32,164.48L69.33,135.52L69.48,169.31L69.63,130.69L70.08,143.56L70.09,150L70.48,122.64L70.73,178.97L70.83,158.04L70.88,156.43L71.12,178.96L71.64,111.38L71.66,117.82L71.67,166.09L71.67,182.18L71.84,121.03L72.39,158.04L72.43,148.39L72.51,162.87L72.75,135.52L72.79,148.39L72.8,164.48L72.81,167.7L72.84,127.47L73.51,164.48L73.58,135.52L74.11,178.96L74.27,130.69L74.31,158.04L74.37,170.92L74.41,122.65L74.41,177.35L75.11,127.48L75.24,150L75.5,124.25L75.68,161.26L75.94,145.17L75.97,169.31L76.01,125.86L76.02,174.14L76.72,148.39L76.74,148.39L77,164.48L77.15,135.52L77.18,148.39L77.24,177.35L77.38,135.52L77.95,148.39L78.03,140.35L78.09,135.52L78.53,164.48L78.79,161.26L78.79,135.52L79.37,133.91L79.53,162.87L79.53,161.26L79.58,153.22L79.65,121.04L79.7,174.13L80.32,153.22L80.38,151.61L80.4,113.01L80.59,170.91L81.13,151.61L81.14,119.43L81.15,182.17L81.58,111.4L81.89,148.39L81.92,148.39L82.27,127.48L82.51,183.77L82.62,129.09L82.7,158.04L82.73,130.7L82.98,177.34L83.41,141.96L83.46,153.22L83.96,162.86L84.12,121.05L84.16,164.47L84.77,169.3L84.86,122.66L84.91,151.61L84.93,151.61L85.53,133.92L85.55,166.08L85.66,148.39L85.7,164.47L85.9,161.26L85.91,143.57L86.46,129.09L86.48,170.91L86.67,153.22L86.68,145.18L86.96,166.08L86.98,133.92L87.42,151.61L87.45,145.18L87.81,193.42L87.84,117.84L88.16,138.74L88.21,138.74L88.48,129.09L88.49,170.91L88.99,154.82L88.99,153.22L89.26,162.86L89.69,130.7L89.76,150L89.76,182.16L90.28,132.3L90.51,150L90.52,156.43L90.62,167.69L90.78,132.31L91.26,150L91.28,156.43L91.47,132.31L91.78,162.86L91.87,159.65L91.89,159.65L92.58,130.7L92.62,166.08L92.65,141.96L93.16,164.47L93.33,127.49L93.4,150L93.42,151.61L93.59,135.53L93.76,170.9L94.01,145.18L94.01,164.47L94.12,129.1L94.3,174.12L94.32,174.12L94.44,124.27L95.07,161.25L95.13,141.96L95.47,125.88L95.49,177.33L95.86,151.61L95.87,145.18L96.39,119.45L96.41,174.12L96.55,164.47L96.63,141.96L96.67,133.92L96.91,177.34L97.36,150L97.42,150L97.66,132.31L97.67,167.69L97.68,158.04L97.68,132.31L98.22,174.12L98.32,124.27L98.46,153.22L98.48,146.78L98.79,174.12L98.9,124.27L99.11,150L99.15,137.14L99.45,127.49L99.48,174.12L99.9,167.69L99.91,161.26L100.31,166.08L100.5,132.31L100.67,141.96L100.68,158.04L100.81,170.9L101.42,129.1L101.48,161.26L102.02,116.24L102.03,182.16L102.21,135.53L102.23,167.69L102.51,117.84L102.52,185.37L102.97,145.18L103.08,141.96L103.6,132.32L103.81,172.51L103.83,159.65L103.89,153.22L104.38,167.69L104.62,132.31L104.65,135.53L104.73,161.26L104.73,164.47L105.06,127.49L105.46,138.75L105.52,145.18L105.56,186.97L105.57,113.03L106.27,183.76L106.3,183.76L106.74,117.84L106.75,185.37L107.16,130.71L107.5,148.39L107.51,151.61L107.6,132.31L107.81,172.51L108.27,145.18L108.35,151.61L108.85,174.12L108.88,121.06L109.14,141.96L109.14,145.18L109.49,174.12L109.73,127.49L109.94,172.51L109.97,146.78L110.19,178.95L110.63,122.66L110.72,151.61L110.74,166.08L110.88,170.9L111.36,130.7L111.51,137.14L111.52,162.86L111.77,125.88L111.79,183.76L112.1,161.26L112.11,198.26L112.11,207.92L112.82,122.66L112.84,183.77L112.87,148.39L112.87,109.8L112.89,178.94L113.61,135.53L113.64,137.14L113.93,203.07L114.38,130.7L114.41,169.3L114.42,170.91L114.48,129.09L114.96,137.13L114.96,130.7L115.47,178.95L115.7,138.74L115.78,138.74L115.94,166.08L116.46,130.7L116.54,137.14L116.54,169.3L117.29,133.92L117.36,164.47L117.4,169.29L117.54,137.14L117.69,145.18L117.69,161.25L117.7,172.5L118.23,132.31L118.39,141.96L118.44,175.72L118.74,130.71L119.04,135.53L119.11,180.54L119.45,186.98L119.49,114.63L119.86,145.18L119.87,153.22L120.26,162.86L120.38,116.24L120.59,153.22L120.59,167.68L120.6,180.55L121.18,116.23L121.3,156.43L121.36,153.22L121.53,127.49L121.71,169.29L121.75,151.61L121.76,177.33L121.98,95.33L122.22,182.16L122.53,154.82L122.62,145.18L123.01,117.84L123.14,186.97L123.18,164.47L123.25,141.96L123.33,145.18L123.39,132.32L123.44,114.63L123.44,104.99L124.05,180.55L124.16,159.65L124.21,151.61L124.84,133.92L124.88,167.68L124.94,135.53L124.99,148.39L125.37,129.1L125.55,174.11L125.72,156.43L125.78,138.75L126.39,121.07L126.41,178.93L126.5,154.82L126.56,137.14L127.12,178.93L127.12,122.68L127.16,122.67L127.19,121.07L127.28,154.82L127.32,153.21L127.32,156.43L127.49,183.76L127.67,133.92L128.08,140.36L128.13,154.82L128.29,167.68L128.3,132.32L128.88,154.82L128.89,148.39L129.53,117.84L129.54,183.76L129.63,138.75L129.66,158.04L129.77,180.54L130.24,122.67L130.4,151.61L130.42,148.39L130.85,116.24L130.86,178.94L131.17,135.53L131.24,137.14L131.53,191.8L131.56,114.62L132,148.39L132.02,148.39L132.08,137.14L132.12,180.55L132.13,130.7L132.8,121.07L132.84,182.15L132.9,174.12L132.95,125.88L133.25,121.06L133.65,174.12L133.7,172.51L133.73,148.39L133.94,172.51L133.95,124.28L134.48,167.68L134.55,151.61L134.72,158.04L135.09,132.32L135.27,137.14L135.35,151.61L135.93,127.49L135.93,178.94L136.1,175.72L136.15,167.68L136.4,125.89L136.45,170.89L136.89,137.14L136.92,141.96L137.46,135.53L137.52,167.68L137.55,164.47L137.63,130.71L137.98,174.11L138.23,124.28L138.32,146.78L138.39,135.53L138.97,180.54L139.01,129.1L139.14,161.25L139.17,138.75L139.7,190.19L139.7,114.63L139.86,153.22L139.92,137.14L140.12,175.72L140.14,133.92L140.66,156.43L140.69,137.14L141.08,125.88L141.33,178.94L141.43,137.14L141.45,143.57L141.59,116.24L141.68,193.4L142.2,135.53L142.23,145.18L142.32,170.9L142.56,116.23L142.9,138.74L142.92,162.86L143.35,108.19L143.53,172.53L143.67,141.96L143.69,158.04L143.77,164.48L143.93,111.4L144.44,151.61L144.45,151.61L144.47,127.48L145.18,162.87L145.19,137.13L145.24,145.17L145.43,140.35L145.74,174.13L145.98,158.04L145.99,141.96L146.07,166.09L146.44,135.52L146.74,151.61L146.75,145.17L147.08,133.92L147.17,169.3L147.5,141.96L147.51,167.69L148.11,170.91L148.21,141.96L148.27,148.39L148.28,146.78L148.61,167.69L148.77,124.26L148.93,156.43L148.93,175.73L149,127.48L149.68,166.08L149.71,185.39L150.14,125.87L150.55,140.35L150.59,164.47L150.89,117.83L151.02,170.91L151.35,151.61L151.36,148.39L151.65,121.05L151.78,182.16L152.11,148.39L152.13,143.57L152.35,164.48L152.67,133.92L152.85,146.78L152.9,146.78L152.9,167.69L153.17,127.48L153.65,146.78L153.66,151.61L154.16,166.08L154.22,124.27L154.24,172.51L154.58,135.52L155.01,146.78L155.02,156.43L155.6,116.23L155.62,175.73L155.76,141.96L155.8,138.74L155.83,170.9L156.45,125.88L156.55,153.22L156.58,162.86L156.61,129.09L156.72,167.69L157.32,154.82L157.37,154.83L157.58,130.7L157.68,166.08L158,141.96L158,158.04L158.05,132.31L158.4,166.08L158.44,135.53L158.52,135.53L158.74,164.47L158.77,132.31L159.2,140.35L159.2,137.13L159.44,175.73L159.47,124.27L159.95,183.78L159.95,116.22L160.26,153.22L160.31,141.96L160.81,172.51L160.94,130.7L161.04,153.22L161.07,146.78L161.17,132.31L161.55,164.47L161.77,145.18L161.77,137.13L162.35,180.56L162.39,124.26L162.52,148.39L162.53,145.17L162.87,175.73L163.13,129.09L163.3,164.48L163.34,140.35L163.96,185.39L163.97,114.61L164.09,169.3L164.14,153.22L164.67,117.82L164.83,167.7L164.88,133.91L164.91,145.17L165.32,127.48L165.53,174.13L165.61,141.96L165.61,113L166.14,164.47L166.39,148.39L166.4,148.39L166.4,167.69L166.46,125.87L167.12,153.22L167.18,153.22L167.47,166.09L167.58,117.83L167.58,104.96L167.58,98.53L167.58,201.47L168.31,135.52L168.34,159.65L168.72,133.91L168.83,164.48L169.09,153.22L169.1,141.96L169.15,124.26L169.68,170.91L169.86,158.04L169.87,162.87L170.06,178.96L170.1,111.38L170.62,153.22L170.66,150L170.96,162.87L171.09,133.91L171.09,162.87L171.33,167.7L171.81,130.7L171.87,130.7L171.93,169.3L172.41,127.48L172.63,140.35L172.63,137.13L172.79,130.69L173.32,164.48L173.38,153.22L173.45,130.68L174.06,116.2L174.1,180.58L174.19,146.78L174.24,140.34L174.28,121.03L174.59,183.78L174.99,133.91L175.04,143.56L175.3,170.92L175.38,124.25L175.78,169.31L175.8,130.69L176.39,162.87L176.55,150L176.61,150L176.77,133.91L176.92,164.48L177.36,143.56L177.4,148.39L177.9,133.91L177.92,166.09L178.05,148.39L178.08,161.26L178.33,166.09L178.73,133.91L178.82,137.13L178.83,153.22L178.88,166.09L179.19,133.91L179.52,148.39L179.58,138.74L179.58,164.48L179.95,132.3L180.31,137.13L180.37,156.44L180.64,137.13L180.89,164.48L181.15,140.35L181.15,162.87L181.43,167.7L181.93,135.52L181.97,159.65L181.97,130.7L181.99,169.3L182.68,141.96L182.74,145.17L183.13,167.7L183.3,135.52L183.48,159.65L183.54,143.56L183.97,172.52L184.1,129.08L184.29,153.22L184.3,143.56L184.37,167.7L184.68,137.13L184.99,150L185.03,150L185.41,177.35L185.63,129.08L185.77,146.78L185.8,150L186.13,183.79L186.17,116.21L186.52,127.48L186.6,154.83L187.15,178.96L187.2,122.65L187.35,125.87L187.48,148.39L187.96,177.35L188.06,130.69L188.21,140.35L188.27,146.78L188.47,175.74L188.75,125.87L189.02,153.22L189.03,146.78L189.17,121.04L189.75,169.31L189.79,159.65L189.8,159.65L189.88,127.47L190.25,166.09L190.54,135.52L190.58,153.22L190.95,215.94L190.96,92.08L191.31,140.35L191.34,140.35L192.02,183.77L192.02,117.84L192.06,130.7L192.06,172.52L192.09,119.44L192.11,180.56L192.79,169.3L192.86,145.17L193.26,178.95L193.3,125.88L193.57,151.61L193.62,151.61L193.7,135.52L193.8,166.08L194.37,151.61L194.42,141.96L194.73,137.13L195.15,166.09L195.16,140.35L195.21,137.13L195.4,127.48L195.45,178.95L195.91,159.65L195.93,153.22L196.54,166.08L196.61,129.09L196.64,143.57L196.7,151.61L197.11,172.52L197.17,132.31L197.46,164.47L198.01,180.56L198.03,132.31L198.19,166.08L198.23,153.22L198.4,169.3L198.43,130.7L198.96,148.39L198.96,145.18L199.3,125.87L199.56,167.69L199.73,156.43L199.74,145.18L200.04,127.49L200.2,185.38L200.49,146.78L200.53,156.43L200.59,132.31L200.97,169.3L201.28,151.61L201.3,151.61L201.39,186.99L201.46,116.22L201.99,140.35L202.09,153.22L202.23,162.87L202.31,125.88L202.8,148.39L202.82,161.26L202.85,162.87L202.88,140.35L203.15,145.18L203.19,166.08L203.8,172.51L203.85,130.7L204,146.78L204.02,148.39L204.18,158.04L204.21,138.74L204.25,153.22L204.25,122.66L204.28,116.23L204.35,167.69L204.84,148.39L204.92,148.39L205.26,127.49L205.57,175.73L205.62,141.96L205.65,141.96L205.67,172.51L205.81,130.7L206.4,151.61L206.43,146.78L206.57,119.45L206.92,177.34L207.16,166.08L207.24,159.65L207.41,125.87L207.42,193.42L207.98,140.35L208,158.04L208.22,132.31L208.68,170.91L208.75,143.57L208.8,170.9L209.16,133.92L209.28,175.73L209.52,138.74L209.53,159.65L209.58,166.08L209.59,116.23L210.27,138.74L210.3,153.22L210.49,180.56L210.5,119.44L210.97,137.13L211.11,151.61L211.24,133.92L211.65,166.08L211.8,162.86L211.86,143.57L212.23,125.87L212.58,169.3L212.64,169.3L213.17,178.95L213.37,117.84L213.39,145.18L213.43,153.22L213.49,141.96L213.51,146.78L213.51,169.3L213.55,182.16L214.04,133.92L214.12,153.22L214.2,140.35L214.4,166.08L214.77,129.09L214.94,133.92L214.96,159.65L215.56,164.47L215.72,130.7L215.75,172.51L216.34,185.38L216.39,114.62L216.51,117.83L216.61,133.92L217.01,180.55L217.03,161.26L217.06,141.96L217.17,164.47L217.56,135.52L217.6,140.35L217.61,150L217.66,166.08L217.68,140.35L217.73,151.61L217.73,133.91L217.97,125.87L218.08,172.52L218.49,151.61L218.54,146.78L218.7,125.87L218.76,172.52L219.12,151.61L219.12,135.52L219.28,170.91L219.87,158.04L219.91,156.43L220.11,162.87L220.14,133.91L220.64,148.39L220.67,148.39L221.06,137.13L221.06,166.08L221.41,140.35L221.45,143.57L221.68,127.49L221.7,175.73L222.15,133.92L222.21,158.04L222.46,164.47L222.48,133.92L222.95,162.86L222.99,145.18L223.27,170.9L223.28,124.27L223.73,143.57L223.75,146.78L224.15,180.55L224.16,117.84L224.44,140.35L224.48,137.14L224.58,167.69L225.14,109.81L225.26,148.39L225.51,174.12L225.88,132.32L226.01,145.18L226.02,141.96L226.54,182.16L226.55,103.37L226.76,151.61L226.78,135.53L227.46,130.7L227.46,174.12L227.56,151.61L227.57,135.53L228.1,130.7L228.16,190.21L228.28,150L228.35,166.08L228.4,129.09L228.87,170.91L228.98,137.13L228.99,162.87L229.01,180.56L229.5,129.09L229.71,148.39L229.73,124.27L230.14,178.94L230.34,140.35L230.37,133.92L230.42,119.45L231.02,178.94L231.06,130.71L231.13,143.57L231.14,127.49L231.23,167.69L231.88,143.57L231.88,164.47L231.93,167.69L232.04,133.92L232.61,143.57L232.66,154.82L233.02,175.72L233.37,133.92L233.39,166.08L233.41,164.47L233.5,172.51L233.5,121.06L234.16,140.35L234.18,159.65L234.31,185.37L234.82,132.31L234.9,161.25L234.91,162.86L235.12,82.49L235.17,170.9L235.57,129.1L235.63,172.5L235.96,119.45L236.31,178.93L236.44,130.71L236.49,141.96L236.97,119.45L236.99,188.59L237.21,153.21L237.3,148.39L237.38,135.53L237.43,206.27L238.05,151.61L238.07,132.32L238.76,182.15L238.79,130.71L238.84,166.08L238.91,166.08L239.04,135.53L239.64,135.53L239.7,158.04L239.83,125.88L239.86,172.51L240.43,141.96L240.46,143.57L241.13,111.41L241.13,186.98L241.2,164.47L241.2,135.53L241.3,140.35L241.33,178.94L241.4,183.76L241.43,137.14L241.47,143.57L241.47,133.92L241.88,175.72L241.88,121.06L242.22,150L242.23,140.35L242.64,178.94L242.75,121.06L242.97,154.82L243.01,146.78L243.27,164.47L243.68,137.14L243.74,148.39L243.75,162.86L243.78,164.47L244.13,130.7L244.47,158.04L244.51,158.04L245.06,169.3L245.21,121.05L245.26,151.61L245.51,169.29L246.01,119.45L246.02,183.77L246.03,191.8L246.47,121.06L246.76,121.06L246.78,122.66L246.88,175.73L247.32,114.62L247.51,167.69L247.62,146.78L248.19,178.94L248.26,121.06L248.37,145.18L248.39,178.94L249.03,43.93L249.04,111.43L249.06,252.82L249.18,285L249.22,15L249.83,145.18L249.85,182.14L250.08,182.15L250.58,122.67L250.64,143.57L250.65,150L251.11,124.27L251.29,167.69L251.4,151.61L251.42,151.61L251.43,119.44L251.72,182.14L252.16,151.61L252.18,161.25L252.82,124.27L252.86,169.3L252.92,156.43L252.94,119.44L253.42,116.23L253.43,183.77L253.7,148.39L253.74,151.61L254.09,133.92L254.1,169.3L254.34,167.69L254.38,170.9L254.96,129.1L254.98,175.72L255.16,153.21L255.17,153.21L255.36,119.46L255.73,178.94L255.78,172.51L255.81,129.1L256.04,177.33L256.52,153.22L256.55,145.18L256.95,124.28L257.07,167.68L257.28,146.78L257.31,153.22L257.44,151.61L257.45,133.92L257.95,183.76L258.03,130.71L258.15,138.75L258.23,143.57L258.51,178.94L258.98,129.1L258.99,119.45L259.4,167.69L259.76,141.96L259.78,141.96L259.83,180.55L260.06,130.7L260.54,154.82L260.56,164.47L260.62,124.28L261.05,186.98L261.29,169.29L261.29,148.39L261.36,177.33L261.47,135.53L261.92,158.04L261.96,158.04L262.52,170.9L262.59,127.49L262.59,166.08L262.6,166.08L263.14,140.35L263.33,175.72L263.34,159.65L263.46,138.75L263.88,130.71L264.06,186.97L264.07,175.72L264.11,175.71L264.3,138.75L264.41,182.15L264.83,159.65L264.89,143.57L265.52,119.45L265.58,180.55L265.64,143.57L265.66,135.53L266.03,183.77L266.4,146.78L266.43,148.39L266.78,121.06L267.06,180.55L267.18,151.61L267.26,151.61L267.77,178.95L267.88,127.49L268,156.43L268.04,161.26L268.1,159.65L268.1,162.86L268.13,137.14L268.65,130.7L268.78,174.12L268.89,150L268.89,146.78L269.06,119.44L269.27,185.38L269.57,169.3L269.63,170.9L270.04,178.95L270.12,119.44L270.34,177.34L270.4,145.18L270.61,132.31L270.76,169.3L271.07,141.96L271.2,141.96L271.26,129.09L271.3,170.91L271.82,159.65L271.88,158.04L272.62,121.05L272.62,127.48L272.67,162.87L273.13,178.95L273.21,122.66L273.41,146.78L273.45,153.22L273.74,185.38L273.77,113L274.11,162.87L274.15,166.08L274.3,109.79L274.86,169.3L274.92,137.13L274.93,140.35L274.98,125.88L275.06,175.73L275.66,145.18L275.7,146.78L275.88,161.26L275.93,132.31L276.08,151.61L276.09,129.1L276.36,127.49L276.83,175.73L276.83,169.3L276.86,133.92L277.51,130.7L277.53,186.98L277.56,148.39L277.59,124.27L277.69,164.47L278.32,140.35L278.38,153.22L278.4,130.7L278.68,172.51L279.1,150L279.1,174.12L279.15,125.87L279.79,141.96L279.87,146.78L280.34,182.16L280.35,121.06L280.61,172.51L280.65,140.35L280.8,135.53L280.9,178.94L281.29,140.35L281.44,145.18L281.59,162.86L281.6,135.53L282.18,146.78L282.2,146.78L282.83,167.69L282.84,133.92L282.94,146.78L282.95,150L283.4,172.51L283.4,127.49L283.69,156.43L283.75,146.78L283.82,130.7L283.85,169.3L284.46,145.18L284.52,145.18L284.58,172.51L285.06,124.28L285.24,140.35L285.31,143.57L285.7,130.71L286.08,177.33L286.14,127.49L286.14,121.06L286.45,170.9L286.89,150L286.9,148.39L287.29,174.12L287.47,133.92L287.58,151.61L287.63,148.39L288.03,170.9L288.12,132.31L288.37,132.31L288.4,132.31L288.67,124.28L288.89,175.72L289.14,164.47L289.22,153.22L289.34,159.65L289.36,158.04L289.36,138.75L289.69,162.86L289.7,137.14L289.84,154.82L289.91,125.88L290.46,114.63L290.47,185.37L290.62,156.43L290.68,146.78L291.23,119.45L291.23,175.72L291.39,137.14L291.47,143.57L292.03,137.14L292.07,162.86L292.12,151.61L292.14,130.71L292.52,125.88L292.94,175.72L293,143.57L293.41,137.14L293.5,175.72L293.58,124.28L293.8,172.51L294.34,162.86L294.37,137.14L294.44,169.29L294.47,132.31L295.1,158.04L295.14,148.39L295.44,162.86L295.55,132.31L295.87,137.14L295.92,148.39L296.37,129.1L296.66,174.12L296.76,174.12L297.25,138.74L297.5,148.39L297.58,154.82L298,172.5L298.26,127.49L298.34,137.14L298.4,162.86L298.4,132.32L298.56,166.08L299.14,156.43L299.18,145.18L299.44,129.1L299.63,170.9L299.91,164.47L299.94,153.21L300.37,174.11L300.52,135.53L300.67,159.65L300.71,151.61L300.76,133.92L301.45,167.68L301.46,138.75L301.48,167.68L302.02,130.71L302.25,151.61L302.3,166.07L302.96,117.85L302.99,183.76L303.04,138.75L303.05,174.11L303.64,175.72L303.72,113.02L303.75,167.68L303.81,141.96L303.99,127.49L304.19,172.51L304.57,151.61L304.57,140.36L305.28,127.49L305.29,167.68L305.32,129.1L305.33,162.86L305.57,174.12L306.1,122.67L306.15,129.1L306.19,172.5L306.29,122.67L306.96,138.75L306.97,166.07L307.44,175.72L307.74,132.32L307.78,138.75L308.03,130.71L308.12,174.11L308.52,138.75L308.55,143.57L308.64,137.14L308.67,175.72L309.3,151.61L309.31,151.61L309.89,161.25L309.96,135.53L310,161.25L310.45,172.51L310.71,133.92L310.74,143.57L310.77,148.39L311.31,119.45L311.32,180.55L311.49,146.78L311.5,137.14L312.07,127.49L312.07,172.51L312.23,143.57L312.31,132.32L312.32,167.68L313.06,140.36L313.1,174.11L313.65,183.76L313.85,119.45L313.87,159.65L314.12,125.89L314.13,170.9L314.62,156.43L314.67,153.22L315,122.67L315.2,180.55L315.4,169.29L315.45,175.72L315.65,119.45L315.67,186.98L316.2,161.25L316.23,145.18L316.53,121.06L316.63,166.08L316.98,153.21L317.08,159.64L317.16,166.07L317.71,121.07L317.84,141.96L317.85,158.04L318.24,124.28L318.4,162.86L318.59,154.82L318.61,166.07L318.88,129.1L318.9,178.94L319.34,143.57L319.37,156.43L320.03,132.32L320.03,167.68L320.12,146.78L320.14,135.53L320.45,114.64L320.53,177.33L320.88,148.39L320.91,151.61L321,129.11L321.44,175.72L321.63,169.29L321.67,143.57L321.74,124.28L322.32,183.75L322.39,132.32L322.6,125.89L322.85,174.11L323.11,151.61L323.17,151.61L323.24,138.75L323.59,170.9L323.92,162.86L323.93,148.39L324.39,116.24L324.63,169.29L324.77,146.78L324.98,178.94L325.3,127.49L325.52,174.11L325.54,138.75L325.61,133.92L325.63,178.93L325.64,116.24L325.65,183.76L326.38,151.61L326.43,145.18L326.7,121.07L326.91,166.08L327.18,127.49L327.22,159.64L327.24,172.51L327.86,130.71L327.92,140.35L327.98,151.61L328.15,129.1L328.17,180.54L328.73,130.71L328.79,166.07L328.79,172.51L329.09,125.88L329.53,143.57L329.58,146.78L329.65,127.49L329.71,167.68L330.33,141.96L330.35,141.96L330.35,125.89L330.58,177.33L331.09,162.86L331.13,158.04L331.43,119.46L331.62,220.66L331.89,141.96L331.91,154.82L332.22,106.61L332.22,191.78L332.59,129.11L332.66,154.82L332.68,206.23L332.86,109.82L333.41,162.86L333.48,148.39L333.49,119.46L333.71,178.93L334.22,151.61L334.25,154.82L334.54,122.67L334.64,185.36L335,145.18L335.03,154.82L335.06,167.68L335.5,133.93L335.77,143.57L335.78,156.43L336.12,127.5L336.14,177.32L336.55,137.14L336.55,161.25L336.61,164.47L337.17,135.53L337.23,148.39L337.25,161.25L337.81,178.93L337.82,121.07L337.99,143.57L338.01,156.43L338.26,122.68L338.37,175.71L338.74,154.82L338.77,161.25L338.86,140.36L338.9,143.57L338.94,137.14L338.98,133.93L339.13,166.07L339.68,164.47L339.73,150L340.04,122.67L340.04,177.33L340.48,177.33L340.49,137.14L340.58,129.1L340.63,169.29L341.2,156.43L341.22,148.39L341.28,108.2L341.35,186.98L341.96,141.96L342.01,150L342.49,101.77L342.5,198.23L342.7,172.5L342.73,148.39L343.23,188.57L343.24,109.81L343.46,150L343.52,148.39L343.58,166.08L344.26,137.14L344.26,164.47L344.32,166.07L344.38,150L344.38,146.78L344.67,177.32L344.9,122.68L345.12,151.61L345.14,175.71L345.5,124.28L345.5,175.72L345.88,145.18L345.91,135.53L346.05,195.03L346.29,117.84L346.66,166.07L346.67,151.61L346.9,104.98L346.98,193.41L347.4,146.78L347.41,154.82L347.48,177.33L347.8,119.44L348.19,141.96L348.2,146.78L348.32,175.73L348.63,122.67L348.89,153.22L348.89,156.43L349.04,174.11L349.62,122.67L349.67,177.33L350.08,122.66L350.24,178.94L350.39,174.12L350.45,138.75L351.11,169.29L351.16,129.1L351.17,129.1L351.82,177.33L351.82,119.45L351.95,158.04L351.96,153.22L352,161.26L352.05,132.31L352.67,158.04L352.68,141.96L353.37,159.65L353.4,140.35L353.45,148.39L353.51,140.35L353.66,130.71L354.23,170.9L354.26,148.39L354.28,154.82L354.37,137.14L354.37,162.86L355.04,145.18L355.05,154.82L355.18,129.1L355.28,161.25L355.28,183.75L356.09,133.92L356.13,162.86L356.48,170.9L356.5,129.1L356.86,140.35L356.89,151.61L357.19,182.15L357.51,130.71L357.62,154.82L357.65,137.14L357.74,135.53L357.78,177.33L357.78,154.82L357.8,90.49L357.92,207.89L358.56,122.67L358.6,145.18L358.73,124.27L359.1,159.65L359.14,151.61L359.16,138.75L359.22,129.1L359.31,188.59L359.97,175.72L359.98,172.51L360.24,180.55L360.25,121.06L360.72,151.61L360.73,177.33L360.88,106.58L361.46,146.78L361.52,153.22L362.08,175.72L362.12,125.88L362.25,129.1L362.26,170.9L362.63,130.71L362.96,172.5L362.96,156.43L363.04,161.25L363.48,178.94L363.52,119.45L363.8,154.82L363.8,158.04L363.8,137.13L363.83,164.47L364.53,154.82L364.56,153.22L364.89,177.33L365.13,117.85L365.25,154.82L365.51,190.18L365.61,104.99L365.99,185.37L365.99,116.24L366.06,116.23L366.1,175.72L366.7,153.22L366.78,140.35L366.86,127.49L366.92,166.08L367.53,151.61L367.54,133.92L368.02,182.15L368.07,130.71L368.28,143.57L368.35,108.2L368.9,193.4L369.09,153.22L369.18,148.39L369.25,133.92L369.32,185.37L369.93,146.78L369.95,146.78L369.97,119.46L370.05,183.75L370.69,132.32L370.72,146.78L370.82,167.68L371.09,124.28L371.42,140.35L371.49,164.47L371.92,122.67L372.18,172.5L372.21,148.39L372.23,174.1L372.33,125.9L372.99,154.82L373.02,148.39L373.03,169.28L373.59,68.05L373.77,153.21L373.78,167.67L373.86,84.12L373.86,219.08L374.46,113.05L374.54,183.73L374.61,190.16L374.97,117.86L375.16,156.43L375.16,137.14L375.48,127.5L375.91,191.79L375.92,169.29L376.07,185.36L376.12,206.25L376.19,96.97L376.69,158.03L376.75,159.64L376.75,130.72L377.13,185.35L377.48,133.93L377.52,164.46L377.58,132.32L377.61,167.68L378.27,151.61L378.28,154.82L378.56,127.51L378.6,175.71L378.99,146.79L379.05,148.39L379.55,177.32L379.55,122.68L379.78,158.04L379.8,130.72L379.81,127.5L380.22,175.71L380.49,143.57L380.51,156.43L380.69,174.1L380.74,125.9L381.25,145.18L381.28,146.79L381.51,132.32L381.94,162.86L382.03,150L382.07,140.36L382.71,116.25L382.78,188.57L382.78,188.57L382.8,114.64L383.24,162.86L383.63,150L383.68,148.39L383.86,130.71L383.94,170.89L384.37,138.75L384.43,151.61L384.53,167.68L385.08,138.75L385.13,151.61L385.16,162.86L385.19,166.07L385.6,132.32L385.89,151.61L386,148.39L386.14,162.85L386.21,116.25L386.35,127.5L386.36,175.71L386.39,111.43L386.4,188.57L387.11,145.18L387.14,158.04L387.15,132.32L387.67,164.46L387.85,148.39L387.9,148.39L387.95,162.86L388.24,129.11L388.24,135.54L388.27,125.89L388.36,188.57L388.83,122.69L389,137.15L389.05,137.15L389.31,178.92L389.77,122.69L389.8,145.18L389.82,151.61L389.95,116.25L390.33,185.34L390.57,159.64L390.6,145.18L390.91,167.68L391.1,135.54L391.32,140.36L391.34,161.25L391.35,129.11L391.73,182.14L392.04,138.75L392.1,156.43L392.1,129.11L392.43,164.46L392.84,146.79L392.88,146.79L392.92,148.39L393,140.36L393,170.89L393.18,119.47L393.68,135.54L393.76,146.79L393.94,182.14L393.99,121.07L394.39,164.46L394.39,143.57L394.54,129.11L394.61,170.89L395.11,137.15L395.13,137.15L395.72,166.06L395.83,100.21L395.85,119.48L395.87,119.48L396.06,177.31L396.31,117.88L396.61,158.03L396.64,132.33L396.79,127.51L396.8,172.49L397.33,159.64L397.38,146.79L397.4,133.93L397.95,162.85L398.06,161.25L398.13,154.82L398.27,159.64L398.48,141.97L398.56,158.03L398.56,161.25L398.79,135.54L398.92,170.88L399,166.06" style="vector-effect: non-scaling-stroke; fill: none; stroke: rgb(99, 110, 250); stroke-opacity: 1; stroke-width: 2px; opacity: 1;"/></g><g class="points"/><g class="text"/></g><g class="trace scatter trace30b0f6" style="stroke-miterlimit: 2; opacity: 1;"><g class="fills"/><g class="errorbars"/><g class="lines"><path class="js-line" d="M0,145.18L0.6,158.04L0.67,141.96L0.75,156.43L0.79,158.04L0.88,191.79L1.55,135.53L1.57,138.74L1.68,166.08L1.73,135.53L2.27,156.43L2.33,162.87L2.69,133.92L2.93,166.08L3.06,164.47L3.14,148.39L3.25,135.53L3.28,170.9L3.89,156.43L3.91,156.43L4.01,167.69L4.59,127.48L4.63,146.78L4.68,151.61L5.03,167.69L5.05,132.31L5.35,161.26L5.35,169.3L5.52,114.62L5.81,172.52L6.09,143.57L6.22,143.57L6.47,172.51L6.5,121.05L6.82,137.13L7.04,151.61L7.19,159.65L7.22,135.53L7.76,141.96L7.82,158.04L8.2,133.92L8.31,167.69L8.57,159.65L8.58,146.78L8.82,129.09L8.89,180.55L9.3,146.78L9.35,146.78L9.5,156.43L9.87,133.92L10.1,148.39L10.11,148.39L10.45,177.34L10.58,130.69L10.83,174.13L10.89,137.13L10.91,166.08L11.03,135.52L11.61,148.39L11.66,153.22L12.02,159.65L12.28,132.31L12.31,146.78L12.31,166.08L12.35,183.77L12.52,116.23L13.04,156.43L13.07,162.87L13.13,166.08L13.13,166.08L13.14,133.92L13.34,185.38L13.46,125.88L13.86,137.14L13.9,151.61L14.14,137.14L14.35,158.04L14.45,158.04L14.45,166.08L14.45,170.91L14.89,122.66L15.17,169.3L15.21,141.96L15.82,125.87L15.91,185.38L15.93,133.91L15.95,183.78L16.51,108.17L16.61,162.87L16.69,145.17L16.87,141.96L17.09,158.04L17.44,145.18L17.45,154.82L17.66,177.34L17.73,116.23L17.82,178.94L18.4,122.66L18.51,143.57L18.61,148.39L18.82,143.57L18.82,159.65L19.12,151.61L19.41,158.04L19.44,169.3L20.03,132.31L20.15,159.65L20.23,140.35L20.34,172.52L20.34,101.74L20.98,159.65L21.01,153.22L21.22,137.13L21.31,162.87L21.76,162.87L21.86,146.78L22.33,132.31L22.61,172.52L22.67,148.39L22.91,167.69L23.21,133.92L23.35,153.22L23.37,159.65L23.93,133.92L24,167.69L24.12,148.39L24.13,169.3L24.13,174.13L24.3,119.45L24.87,148.39L24.9,146.78L25.22,138.74L25.41,164.47L25.7,161.26L25.75,151.61L25.81,130.7L26.02,175.73L26.5,162.87L26.54,154.82L26.58,166.08L27.26,137.13L27.29,137.14L27.29,162.86L27.29,177.34L27.91,130.7L28.04,156.43L28.06,148.39L28.37,137.13L28.39,170.91L28.45,108.17L28.45,191.83L29.18,138.74L29.25,151.61L29.61,101.77L29.66,186.97L29.95,161.25L30.09,154.82L30.38,130.7L30.42,180.56L30.82,158.04L30.84,164.48L31.45,172.51L31.51,108.19L31.51,114.62L31.51,191.81L32.06,114.62L32.28,151.61L32.3,151.61L32.58,175.72L32.93,127.48L33.04,133.91L33.06,148.39L33.24,85.67L33.83,167.68L33.83,162.86L33.83,137.14L34.49,124.27L34.71,183.77L34.73,145.18L35,104.98L35.4,178.95L35.46,145.18L35.48,143.57L35.74,166.08L35.82,137.13L35.9,161.26L35.9,167.69L36.04,121.05L36.16,174.12L36.35,161.26L36.36,122.66L36.88,169.29L36.96,148.39L37,130.7L37.22,164.47L37.73,145.18L37.77,145.18L38.1,178.94L38.13,117.84L38.48,135.53L38.53,138.74L38.78,117.84L39.22,170.9L39.26,141.96L39.3,146.78L39.8,116.22L39.9,170.91L40.01,156.43L40.06,145.17L40.13,186.99L40.5,119.44L40.79,127.48L40.83,148.39L41.27,130.7L41.48,169.3L41.5,130.7L42.17,167.69L42.25,148.39L42.26,143.57L42.4,135.53L42.66,162.86L42.71,154.82L42.74,145.18L42.85,169.3L42.99,129.09L43.49,133.92L43.53,148.39L43.65,174.13L43.8,114.62L44.28,148.39L44.3,151.61L44.37,135.53L44.39,164.47L44.48,143.57L44.48,135.53L44.69,186.98L44.69,113.02L45.23,130.71L45.26,140.35L45.36,130.71L45.5,162.86L45.54,135.53L45.61,135.53L46.12,116.23L46.2,183.77L46.35,174.12L46.37,133.92L46.59,177.34L46.63,122.66L47.12,143.57L47.12,130.7L47.32,169.3L47.39,129.1L47.87,138.74L47.88,148.39L48.05,174.12L48.06,114.63L48.61,141.96L48.66,141.96L48.67,167.69L48.7,132.31L49.4,166.08L49.43,151.61L49.53,164.47L49.53,117.83L49.72,148.39L49.74,162.87L49.85,127.49L49.99,182.16L50.45,161.26L50.52,162.87L50.96,121.05L51.12,190.21L51.27,145.17L51.28,148.39L51.67,122.65L51.73,172.52L52.01,148.39L52.05,148.39L52.36,114.61L52.39,174.13L52.81,153.22L52.82,151.61L53.43,175.74L53.44,124.26L53.54,138.74L53.56,161.26L53.67,114.61L53.93,175.74L54.31,138.74L54.33,151.61L54.98,195.04L55,101.74L55.07,153.22L55.14,182.18L55.15,114.61L55.21,185.39L55.89,169.3L55.9,169.3L56.32,108.17L56.52,203.09L56.64,161.26L56.75,156.43L56.79,193.44L57.41,133.91L57.48,140.35L57.5,137.13L57.58,135.52L57.67,169.31L58.25,154.83L58.26,130.69L58.88,162.87L59.01,151.61L59.02,137.13L59.02,162.87L59.75,154.83L59.78,154.83L60.19,133.91L60.23,166.09L60.54,141.96L60.59,146.78L60.73,166.09L60.85,135.52L61.34,148.39L61.36,153.22L61.57,132.31L61.79,167.7L62.08,161.26L62.11,154.83L62.28,135.52L62.51,167.69L62.63,141.96L62.65,164.48L63.18,175.74L63.36,98.5L63.38,201.5L63.38,95.26L64.12,170.92L64.18,154.83L64.65,167.7L64.69,124.25L64.71,174.14L65.16,125.87L65.47,143.56L65.48,156.44L66.14,133.91L66.21,166.09L66.24,166.09L66.3,185.4L66.3,114.6L66.97,151.61L67.01,148.39L67.61,175.74L67.66,124.26L67.76,156.43L67.78,129.09L68.37,169.3L68.5,148.39L68.52,151.61L68.6,164.48L68.9,135.52L68.95,140.35L68.97,130.69L69.09,175.74L69.28,125.87L69.76,153.22L69.77,151.61L70.11,166.09L70.14,130.69L70.47,135.52L70.47,174.14L70.73,112.99L71.02,178.96L71.22,133.91L71.23,148.39L71.54,137.13L71.64,188.62L71.66,182.18L71.67,125.86L71.67,117.82L71.67,182.18L72.39,140.35L72.43,156.44L72.81,132.3L72.81,167.7L72.84,172.53L72.97,137.13L73.19,153.22L73.21,166.09L73.91,133.91L73.91,169.31L74.11,121.04L74.41,177.35L74.58,164.48L74.67,145.17L75.06,140.35L75.26,175.74L75.35,141.95L75.39,141.95L75.98,174.14L76.02,125.86L76.13,145.17L76.15,158.04L76.26,161.26L76.42,137.13L76.85,158.05L76.93,141.95L77.15,166.09L77.24,122.65L77.63,141.96L77.69,141.96L78.05,135.52L78.09,164.48L78.46,153.22L78.47,153.22L78.53,133.91L78.8,170.91L79.16,159.65L79.22,143.57L79.65,178.96L79.68,121.04L79.95,143.57L79.99,146.78L80.01,172.52L80.59,129.09L80.71,170.91L80.79,161.26L81.15,117.83L81.16,183.78L81.49,159.65L81.54,140.35L81.56,186.99L82.17,129.09L82.27,162.87L82.27,148.39L82.62,172.52L82.99,122.66L83.06,141.96L83.08,125.88L83.49,172.51L83.59,162.86L83.65,162.86L84.12,178.95L84.16,132.31L84.41,151.61L84.49,151.61L84.77,127.48L84.86,177.34L85.19,141.96L85.2,159.65L85.53,166.08L85.55,133.92L85.93,137.14L85.98,148.39L86.04,164.47L86.27,138.74L86.4,146.78L86.41,138.74L86.46,170.91L86.47,129.09L87.13,162.87L87.17,145.18L87.28,159.65L87.46,133.92L87.5,162.87L87.81,106.58L87.84,182.16L88.25,129.09L88.26,159.65L88.48,170.91L88.49,129.09L89,146.78L89.04,151.61L89.69,169.3L89.77,124.27L89.81,129.09L89.83,170.91L89.83,175.73L89.88,119.44L90.58,167.69L90.59,130.7L90.78,167.69L91.28,133.92L91.38,151.61L91.67,164.47L91.82,137.14L92.03,154.82L92.06,154.82L92.58,169.3L92.6,130.7L92.81,145.18L92.85,146.78L93.11,135.53L93.37,174.12L93.59,138.74L93.65,148.39L94.1,167.69L94.32,125.88L94.39,146.78L94.41,175.73L94.5,137.14L95.16,138.75L95.21,146.78L95.46,170.9L95.49,122.67L95.9,145.18L95.97,145.18L96.41,125.88L96.68,167.69L96.69,125.88L96.75,159.65L96.78,166.08L96.97,122.66L97.48,153.22L97.52,154.82L98.22,174.12L98.22,125.88L98.27,137.14L98.31,135.53L98.32,177.34L98.83,124.27L99.05,158.04L99.1,154.82L99.45,175.73L99.48,124.27L99.81,166.08L99.84,166.08L99.91,132.31L100.59,146.78L100.6,158.04L100.83,170.9L101.3,129.1L101.38,133.92L101.39,153.22L102.02,183.76L102.03,116.24L102.13,153.22L102.15,158.04L102.49,175.73L102.53,114.63L102.88,138.74L102.93,146.78L103.09,132.32L103.11,166.07L103.6,167.68L103.82,130.7L103.94,146.78L103.95,159.64L104.3,129.09L104.36,169.29L104.53,161.26L104.53,138.74L104.59,133.92L104.62,167.69L105.21,140.35L105.29,140.35L105.56,113.03L105.57,186.97L106.04,141.96L106.06,148.39L106.23,138.75L106.24,185.37L106.25,114.63L106.74,182.16L106.98,164.47L107.07,156.43L107.29,124.28L107.59,172.51L107.81,133.92L107.85,140.35L108.16,132.32L108.2,167.68L108.59,137.14L108.64,153.22L108.85,124.28L108.88,177.33L109.37,170.91L109.38,146.78L109.99,124.27L110.12,175.73L110.17,175.73L110.19,121.05L110.2,178.95L110.88,137.14L110.93,156.43L111.09,129.1L111.36,169.3L111.69,138.74L111.69,140.35L111.8,178.94L112.11,92.08L112.38,135.53L112.46,159.65L112.82,177.34L112.84,116.23L113.19,161.26L113.24,138.74L113.28,132.31L113.68,166.08L113.93,151.61L114.12,148.39L114.38,169.3L114.41,130.7L114.42,129.09L114.48,170.91L115.19,145.18L115.2,143.57L115.47,121.05L115.58,169.3L115.95,143.57L115.96,159.65L116.46,169.3L116.54,130.7L116.63,154.82L116.75,148.39L117.29,166.08L117.4,130.71L117.43,159.65L117.53,146.78L117.7,127.5L118.03,167.69L118.27,156.43L118.34,146.78L118.77,166.08L118.93,132.31L119.04,164.47L119.11,151.61L119.48,113.02L119.48,186.98L119.79,154.82L119.86,153.22L120.38,183.76L120.6,119.45L120.64,140.35L120.88,122.67L121.18,183.77L121.39,156.43L121.41,143.57L121.71,122.67L121.98,204.67L122.13,141.96L122.17,143.57L122.9,113.02L122.9,188.58L122.93,137.14L123.07,113.02L123.44,195.01L123.66,130.71L123.7,130.71L123.72,172.51L124.09,119.45L124.33,154.82L124.48,148.39L124.84,166.08L124.88,124.28L124.91,146.79L124.93,162.86L125.37,170.9L125.55,125.89L125.68,148.39L125.72,161.25L125.88,133.92L125.95,169.29L125.96,130.71L126.39,178.93L126.41,121.07L126.7,129.11L126.72,137.14L127.12,121.07L127.12,178.93L127.47,151.61L127.48,143.57L127.49,116.24L127.67,166.08L128.2,135.53L128.27,162.86L128.29,132.32L128.3,167.68L129.01,151.61L129.05,146.78L129.32,172.51L129.54,116.24L129.79,132.32L129.82,132.32L130.24,177.33L130.25,122.67L130.53,148.39L130.57,130.71L130.85,183.76L130.86,116.24L131.26,135.53L131.28,158.04L131.32,170.9L131.58,111.41L132.02,151.61L132.07,148.39L132.66,172.51L132.72,127.49L132.8,180.54L132.84,117.85L133.56,148.39L133.57,151.61L133.65,125.88L133.95,175.72L134.32,148.39L134.44,130.71L135.09,172.51L135.17,138.75L135.26,141.96L135.88,167.68L135.93,121.06L135.95,141.96L136.02,158.04L136.15,124.28L136.4,174.11L136.76,137.14L136.83,151.61L137.46,164.47L137.52,132.32L137.55,151.61L137.63,132.32L137.97,169.29L137.98,125.89L138.39,164.47L138.39,132.32L139,129.1L139.01,170.9L139.14,138.75L139.17,161.25L139.67,113.02L139.7,185.37L139.93,125.89L139.94,141.96L140.12,124.28L140.14,175.72L140.69,156.43L140.69,137.14L140.99,172.51L141.09,122.66L141.43,162.86L141.45,137.14L141.59,183.76L141.68,106.6L142.2,143.57L142.23,146.78L142.3,117.84L142.56,183.77L142.97,156.43L143,146.78L143.19,130.7L143.35,191.81L143.73,141.96L143.77,148.39L144.26,167.69L144.27,130.7L144.47,146.78L144.53,148.39L144.84,133.91L144.84,169.3L145.18,156.43L145.18,137.13L145.74,182.18L145.74,116.21L145.92,151.61L145.95,148.39L146.07,133.91L146.44,164.48L146.7,151.61L146.73,148.39L147.11,172.51L147.17,127.49L147.44,135.53L147.47,161.26L147.5,164.47L147.84,133.92L148.08,156.43L148.09,140.35L148.13,127.48L148.69,175.73L148.83,151.61L148.85,137.13L148.93,124.27L148.96,175.73L149.6,164.48L149.63,146.78L149.71,114.61L150.14,175.73L150.34,141.96L150.39,141.96L150.52,129.09L150.89,182.17L151.16,166.08L151.23,156.43L151.65,178.95L151.84,119.44L151.94,156.43L152.03,146.78L152.67,166.08L152.67,133.92L152.77,148.39L152.77,143.57L152.9,132.31L153.17,175.73L153.55,156.43L153.59,141.96L154.16,133.92L154.22,175.73L154.33,143.57L154.35,156.43L154.56,164.48L154.56,135.52L155.02,156.43L155.02,169.3L155.6,183.77L155.62,122.66L155.76,143.57L155.8,164.47L156.45,130.7L156.45,174.12L156.55,146.78L156.58,153.22L156.61,170.91L157.27,135.52L157.32,158.04L157.37,137.13L157.61,169.3L157.68,133.92L158.14,166.08L158.18,146.78L158.21,169.3L158.4,133.92L158.92,148.39L158.95,151.61L159.44,124.27L159.47,175.73L159.68,174.13L159.72,124.27L159.95,116.22L159.96,183.78L160.5,141.96L160.55,141.96L160.81,127.49L160.96,172.52L161.3,145.17L161.36,148.39L161.77,166.08L162.08,125.87L162.13,174.13L162.35,119.44L162.35,180.56L162.91,158.04L162.91,166.08L162.96,129.09L163.13,170.91L163.65,140.35L163.71,159.65L163.81,129.09L163.84,170.91L163.92,169.3L163.92,182.17L163.97,185.39L163.98,114.61L164.6,177.35L164.6,182.18L164.61,183.79L164.77,143.56L165.16,153.22L165.18,146.78L165.51,125.87L165.61,182.17L165.93,153.22L165.95,156.43L166.14,135.53L166.46,174.13L166.71,140.35L166.75,146.78L167.05,162.87L167.47,135.52L167.47,156.43L167.51,158.04L167.58,201.47L167.58,98.53L168.22,140.35L168.28,158.04L168.59,169.3L168.83,135.52L169.02,146.78L169.03,151.61L169.08,177.35L169.16,127.48L169.77,146.78L169.79,154.83L170.1,195.06L170.11,98.5L170.49,151.61L170.55,153.22L170.86,166.09L171.31,132.3L171.33,151.61L171.81,169.3L171.93,130.7L172.06,156.43L172.13,156.43L172.41,174.13L172.82,133.91L172.86,166.09L172.89,140.34L173.3,135.52L173.48,169.32L173.65,146.78L173.65,138.74L174.1,119.42L174.1,180.58L174.38,154.83L174.41,145.17L174.89,121.04L174.99,178.96L175.13,133.91L175.16,140.35L175.39,175.75L175.78,130.69L175.88,151.61L175.88,143.56L176.22,137.13L176.33,162.87L176.52,148.39L176.53,138.74L176.78,133.91L177.28,166.09L177.33,151.61L177.92,133.91L177.95,166.09L178.08,154.83L178.13,166.09L178.68,170.92L178.76,133.91L178.76,162.87L178.82,162.87L178.88,133.91L178.89,166.09L179.58,135.52L179.58,164.48L179.6,135.52L179.95,167.7L180.31,146.78L180.37,143.56L180.52,138.74L180.91,164.48L181.07,159.65L181.13,148.39L181.18,162.87L181.43,129.08L181.89,141.96L181.89,143.56L181.97,169.3L181.99,130.7L182.54,158.04L182.56,158.04L183.13,132.3L183.3,166.09L183.32,148.39L183.42,159.65L183.95,132.3L184.08,151.61L184.1,148.39L184.37,132.3L184.38,167.7L184.82,148.39L184.9,141.95L185.41,122.65L185.63,170.92L185.64,129.08L186.13,116.21L186.17,183.79L186.41,151.61L186.42,146.78L187.15,121.04L187.16,178.96L187.17,153.22L187.2,148.39L187.34,175.74L187.72,130.7L187.9,151.61L187.9,162.87L188.11,172.52L188.47,124.26L188.62,153.22L188.69,141.96L188.7,137.13L189.17,180.57L189.4,156.44L189.48,161.26L189.75,130.69L189.88,174.13L190.19,156.44L190.19,162.87L190.92,207.91L190.95,92.09L190.95,156.43L191.07,122.66L191.61,175.74L191.69,132.31L191.72,180.55L192.02,116.23L192.06,195.03L192.48,167.69L192.53,146.78L192.86,129.09L193.2,169.3L193.25,161.26L193.26,122.66L193.26,121.05L193.3,174.12L193.96,145.17L194.07,148.39L194.73,162.87L194.77,137.13L194.83,140.35L195.37,121.05L195.4,175.74L195.45,121.05L195.48,121.05L195.76,162.87L196.22,145.17L196.24,148.39L196.54,133.92L196.61,170.91L196.93,158.04L196.93,162.87L196.97,164.48L197.11,127.48L197.68,146.78L197.73,146.78L198.01,119.44L198.03,167.69L198.4,146.78L198.4,130.7L199.15,172.52L199.16,133.92L199.2,166.08L199.56,132.31L199.91,164.47L199.99,151.61L200.04,172.51L200.11,127.49L200.63,164.47L200.67,141.96L201.39,113.01L201.39,186.99L201.42,145.17L201.46,148.39L201.54,114.62L201.7,177.34L202.2,151.61L202.21,151.61L202.23,135.52L202.42,170.91L202.95,151.61L203,148.39L203.71,130.7L203.71,169.3L203.72,159.65L203.76,146.78L204.28,183.77L204.35,124.27L204.51,145.18L204.53,141.96L204.69,137.14L205.26,172.51L205.26,127.49L205.57,124.27L205.79,167.69L206.01,146.78L206.05,140.35L206.49,129.1L206.57,180.55L206.74,129.1L206.82,130.7L206.83,180.55L207.42,106.58L207.56,137.14L207.64,137.14L207.76,132.31L208.22,167.69L208.38,161.26L208.44,153.22L208.68,127.49L209.05,159.65L209.16,145.18L209.22,158.04L209.28,124.27L209.59,183.77L209.96,161.26L210.02,138.74L210.49,119.44L210.52,180.56L210.78,158.04L210.79,148.39L211.16,133.92L211.26,166.08L211.48,148.39L211.55,151.61L212.23,170.91L212.28,132.31L212.34,159.65L212.64,129.09L212.73,161.26L213.11,141.96L213.12,161.26L213.37,182.16L213.37,117.84L213.78,153.22L213.8,141.96L214.4,167.69L214.4,132.31L214.51,148.39L214.61,148.39L214.77,170.91L214.86,133.92L215.32,154.82L215.36,143.57L215.56,135.53L215.71,172.51L215.72,145.18L215.75,125.88L216.33,185.38L216.34,114.62L216.39,185.38L216.51,148.39L216.92,166.08L217.01,119.45L217.24,153.22L217.26,146.78L217.97,174.13L217.99,125.87L218.01,151.61L218.05,151.61L218.33,167.7L218.44,127.47L218.7,135.52L218.72,132.3L218.76,127.48L218.83,170.91L219.45,130.7L219.48,130.7L220.16,166.08L220.28,151.61L220.31,148.39L220.73,140.35L220.96,159.65L221.06,148.39L221.06,133.92L221.68,172.51L221.7,124.27L221.82,148.39L221.85,129.1L221.99,172.51L222.6,154.82L222.62,154.82L222.76,159.65L223.18,130.7L223.21,164.47L223.27,125.88L223.28,177.34L223.96,148.39L223.97,148.39L224.16,182.16L224.19,117.84L224.72,141.96L224.74,158.04L224.82,164.47L225.12,121.06L225.48,153.22L225.51,121.06L226.02,174.12L226.28,153.22L226.36,156.43L226.54,117.84L226.55,196.63L227.1,158.04L227.16,153.22L227.25,145.18L227.25,145.18L227.25,135.53L227.46,169.3L227.46,125.88L227.98,141.96L228.03,162.86L228.18,113L228.38,170.91L228.78,146.78L228.82,146.78L228.87,169.3L229.01,117.84L229.57,148.39L229.61,153.22L230.27,161.25L230.29,127.49L230.29,138.75L230.34,164.47L230.38,175.73L230.43,124.27L230.92,156.43L230.94,143.57L231.02,121.06L231.14,172.51L231.6,159.65L231.68,140.35L231.88,127.49L231.99,170.91L232.24,154.82L232.26,125.88L233.02,158.04L233.11,146.78L233.2,141.96L233.33,161.26L233.33,166.08L233.5,127.49L233.5,178.94L234.08,151.61L234.12,135.53L234.15,172.51L234.15,127.49L234.88,154.82L234.89,145.18L235.48,172.51L235.63,125.89L235.7,151.61L235.93,177.33L235.97,129.1L236.07,161.25L236.11,127.49L236.25,121.07L236.61,175.72L236.84,153.22L236.88,124.28L236.93,175.72L237.42,104.98L237.43,104.98L237.43,93.73L237.5,169.29L238.19,156.43L238.2,140.35L238.73,170.9L238.76,117.85L238.92,145.18L238.95,137.14L239.64,164.47L239.72,154.82L239.76,145.18L239.83,174.12L240.32,125.88L240.46,143.57L240.48,169.29L241.13,188.59L241.13,111.41L241.21,164.47L241.3,159.65L241.4,116.24L241.88,178.94L242.05,140.35L242.06,161.26L242.64,121.06L242.75,178.94L242.86,148.39L243.05,137.14L243.47,164.47L243.58,146.78L243.64,151.61L243.77,164.47L243.93,135.53L244.31,156.43L244.32,159.65L245.06,130.7L245.06,169.3L245.07,167.69L245.1,167.69L245.17,180.55L245.51,130.71L245.83,156.43L245.86,143.57L246.01,180.55L246.03,108.2L246.61,159.65L246.63,153.22L246.78,180.55L246.88,119.45L246.93,156.43L246.98,180.55L247.32,185.38L247.66,122.66L247.71,141.96L247.79,143.57L248.19,121.06L248.26,178.94L248.54,141.96L248.55,141.96L249.18,15L249.22,285L249.3,148.39L249.31,145.18L249.77,105L249.85,177.32L250.02,133.93L250.07,162.86L250.42,121.06L250.58,177.33L250.8,137.14L250.84,151.61L251.09,185.37L251.29,132.31L251.52,145.18L251.54,172.51L251.63,124.28L252.29,158.04L252.34,148.39L252.82,175.73L252.95,129.09L253.09,148.39L253.1,151.61L253.42,183.77L253.43,116.23L253.78,148.39L253.82,151.61L253.91,166.08L254.38,129.1L254.57,145.18L254.58,154.82L254.98,124.28L255,175.72L255.33,130.71L255.33,156.43L255.36,183.76L255.73,121.06L256.04,125.88L256.05,122.67L256.77,167.68L256.84,145.18L256.95,175.72L257.07,132.32L257.54,145.18L257.54,135.53L257.95,116.24L257.95,183.76L258.15,161.25L258.23,158.04L258.51,121.06L258.53,178.94L258.98,141.96L258.99,186.98L259.04,129.1L259.76,158.04L259.78,158.04L259.84,119.45L260.16,166.08L260.52,162.86L260.52,167.69L260.62,175.72L260.91,106.59L261.29,130.71L261.3,170.9L261.37,127.49L262,156.43L262.07,156.43L262.12,166.08L262.18,133.92L262.48,148.39L262.48,137.14L262.59,172.51L262.59,127.49L263.25,156.43L263.27,148.39L263.67,127.5L263.88,170.9L263.96,129.1L264.03,129.1L264.06,113.03L264.43,169.29L264.76,141.96L264.79,145.18L265.47,119.45L265.52,180.55L265.56,127.49L265.66,164.47L266.03,116.23L266.23,143.57L266.25,156.43L266.35,127.49L266.9,170.9L266.94,154.82L267.02,153.22L267.06,119.45L267.07,180.55L267.63,137.13L267.63,162.87L267.77,121.05L267.88,172.51L268.2,138.74L268.2,135.53L268.65,169.3L268.78,125.88L268.93,145.18L268.96,143.57L269.06,180.56L269.27,114.62L269.68,140.35L269.72,148.39L270.04,121.05L270.12,180.56L270.23,138.74L270.23,129.09L270.34,119.44L270.61,167.69L270.94,135.53L270.96,164.47L271.07,159.65L271.26,170.91L271.26,166.08L271.3,129.09L271.34,170.91L272.02,151.61L272.1,146.78L272.62,178.95L272.78,138.74L272.84,154.83L272.9,153.22L273.09,121.05L273.13,178.95L273.59,167.69L273.6,132.31L273.69,119.44L274.3,190.21L274.35,145.17L274.37,153.22L274.72,167.69L274.86,130.7L274.98,141.96L275.06,127.49L275.06,124.27L275.52,164.47L275.81,154.82L275.84,154.82L276.23,127.49L276.33,174.12L276.58,161.26L276.68,154.82L276.83,124.27L276.86,167.69L277.34,161.26L277.35,125.88L277.59,180.55L278.09,141.96L278.12,159.65L278.15,174.12L278.68,127.49L278.84,158.04L278.91,148.39L279.11,175.73L279.5,132.31L279.65,146.78L279.67,145.18L279.7,135.53L280.03,167.69L280.34,166.08L280.34,129.09L280.34,117.84L280.35,182.16L280.9,121.06L281.12,154.82L281.44,138.75L281.6,164.47L281.8,154.82L281.83,141.96L282.29,135.53L282.58,164.47L282.58,164.47L282.63,159.65L282.83,132.31L282.84,167.69L283.35,156.43L283.38,158.04L283.4,127.49L283.4,172.51L284.11,143.57L284.17,156.43L284.58,127.49L284.58,172.51L284.9,151.61L284.95,166.08L285.06,180.55L285.14,127.49L285.69,130.71L285.7,169.29L286.08,122.67L286.14,178.94L286.5,146.78L286.57,151.61L287.12,164.47L287.38,125.88L287.39,161.25L288.02,175.72L288.1,129.1L288.12,180.55L288.63,125.88L288.88,161.25L288.88,175.72L289.01,124.28L289.63,151.61L289.64,151.61L289.94,122.67L290.24,167.69L290.39,138.75L290.43,146.78L290.46,185.37L290.47,114.63L291.18,146.78L291.19,148.39L291.26,124.28L291.31,175.72L291.6,145.18L291.61,154.82L291.82,137.14L292.18,167.68L292.36,140.35L292.37,159.65L292.52,174.12L292.87,121.07L293.11,159.64L293.13,159.64L293.5,124.28L293.58,175.72L293.86,153.22L293.9,154.82L294.44,130.71L294.47,169.29L294.66,141.96L294.68,141.96L294.98,132.31L295.2,164.47L295.44,148.39L295.44,137.14L295.95,166.08L295.97,133.92L296.19,141.96L296.27,148.39L296.37,170.9L296.61,133.92L296.66,140.35L296.66,125.88L297.16,162.86L297.5,153.22L297.58,145.18L298,127.5L298.09,175.72L298.34,162.86L298.4,137.14L298.4,167.68L298.4,132.32L299.14,143.57L299.18,148.39L299.44,170.9L299.63,129.1L299.91,135.53L299.94,146.79L300.37,125.89L300.52,164.47L300.67,140.35L300.71,148.39L300.76,166.08L301.45,132.32L301.46,146.78L301.48,132.32L302.02,169.29L302.05,130.71L302.25,148.39L302.3,151.61L302.37,129.1L302.77,174.11L302.99,140.35L302.99,114.63L303.05,185.37L303.72,148.39L303.75,129.1L303.93,174.11L304.17,127.49L304.57,169.29L304.6,154.82L304.64,174.11L305.33,119.46L305.33,167.68L305.42,133.93L305.44,182.14L305.59,121.07L306.15,143.57L306.19,125.89L306.53,170.89L306.96,164.46L306.97,132.32L307.45,129.1L307.78,167.68L307.79,161.25L307.8,129.1L308.03,169.29L308.12,125.89L308.55,143.57L308.57,130.71L308.64,169.29L308.67,124.28L309.35,153.21L309.36,153.21L309.89,137.14L309.96,164.47L310.08,143.57L310.22,148.39L310.66,125.88L310.71,172.51L310.8,140.35L310.85,140.35L311.29,119.45L311.31,180.55L311.6,156.43L311.61,156.43L312.07,172.51L312.07,127.49L312.34,145.18L312.37,145.18L312.86,132.32L312.93,158.04L312.93,158.04L312.97,159.64L313.65,116.24L313.67,178.94L313.78,148.39L314.12,174.11L314.13,125.89L314.51,148.39L314.54,151.61L315,177.33L315.04,116.24L315.28,148.39L315.32,159.64L315.61,185.37L315.67,111.41L316.06,117.85L316.09,127.5L316.53,178.94L316.63,127.49L316.75,148.39L316.83,133.93L317.15,132.32L317.17,167.68L317.59,154.82L317.59,135.53L317.7,133.93L317.71,178.93L318.35,148.39L318.39,146.79L318.88,170.9L318.92,121.06L319.14,143.57L319.15,138.75L319.49,132.32L319.77,164.47L319.88,151.61L319.95,138.75L320.45,185.36L320.53,122.67L320.68,164.47L320.71,145.18L321,170.89L321.44,124.28L321.54,138.75L322.04,119.46L322.15,177.33L322.29,162.86L322.3,137.14L322.31,119.46L322.39,167.68L322.94,159.64L323.1,153.21L323.38,162.86L323.55,125.89L323.84,138.75L323.9,135.53L324.39,183.76L324.63,130.71L324.77,154.82L324.93,169.29L325.39,122.67L325.52,151.61L325.54,161.25L325.64,183.76L325.65,116.24L326.28,162.86L326.36,154.82L326.7,178.93L326.89,132.32L326.99,162.86L327.06,137.14L327.18,172.51L327.24,127.49L327.79,148.39L327.83,140.35L328.15,172.51L328.17,119.46L328.54,153.21L328.59,127.49L329.09,174.12L329.32,140.35L329.35,140.35L329.58,172.51L329.71,132.32L330.09,159.64L330.12,159.64L330.37,125.89L330.5,177.33L330.85,146.79L330.92,140.36L331.57,76.11L331.64,182.13L331.65,132.33L331.7,145.18L332.22,193.39L332.22,100.18L332.45,154.82L332.59,140.36L332.81,191.78L332.93,119.47L333.32,138.75L333.37,151.61L333.49,180.54L333.71,121.07L334.1,148.39L334.1,151.61L334.64,114.64L334.64,185.36L334.79,135.53L334.83,145.18L334.85,127.5L335.5,166.07L335.57,148.39L335.62,148.39L336.12,172.5L336.14,122.68L336.36,140.36L336.39,151.61L336.47,166.07L336.47,133.93L337.14,145.18L337.15,148.39L337.33,166.07L337.81,121.07L337.81,127.5L337.82,178.93L338.37,119.47L338.45,185.35L338.57,151.61L338.59,161.25L338.6,177.32L338.74,133.93L339.31,153.21L339.33,153.21L340.04,177.33L340.04,122.67L340.08,151.61L340.16,135.53L340.36,122.67L340.37,177.33L340.79,167.69L340.86,141.96L341.35,108.2L341.36,196.62L341.55,158.04L341.56,113.02L342.06,185.37L342.32,148.39L342.35,141.96L342.37,101.77L342.49,198.23L343.09,151.61L343.14,153.21L343.32,191.79L343.33,122.67L343.89,158.04L343.94,143.57L344.22,164.47L344.26,133.93L344.51,148.39L344.51,135.53L345.09,119.46L345.15,180.54L345.27,151.61L345.28,156.43L345.5,124.28L346.03,188.59L346.04,143.57L346.7,122.67L346.78,193.41L346.85,127.49L346.9,195.02L347.04,117.84L347.62,182.16L347.62,159.65L347.71,183.77L347.83,130.7L348.35,133.92L348.44,146.78L348.63,177.33L349.04,125.89L349.17,161.25L349.25,161.25L349.62,177.33L349.67,122.67L349.99,130.71L350.03,158.04L350.04,175.73L350.2,121.06L350.78,164.47L350.8,153.22L351.16,170.9L351.48,135.53L351.51,153.22L351.53,151.61L351.82,180.55L351.85,129.1L352.28,148.39L352.32,151.61L352.58,138.75L352.68,158.04L353.06,151.61L353.11,151.61L353.6,133.92L353.66,169.29L353.85,140.35L353.86,159.65L353.93,129.1L354.23,170.9L354.5,146.79L354.52,145.18L354.85,138.75L355,169.29L355.2,161.25L355.21,138.75L355.23,174.11L355.28,116.25L355.8,148.39L355.85,151.61L356.02,167.69L356.18,135.53L356.46,154.82L356.48,143.57L357.19,117.85L357.2,182.15L357.23,162.86L357.41,146.78L357.8,209.51L357.89,90.49L358.15,148.39L358.17,143.57L358.43,101.77L358.56,182.16L358.92,156.43L358.94,151.61L359.1,130.71L359.22,177.33L359.28,135.53L359.3,122.67L359.3,111.41L359.7,170.9L360.01,151.61L360.06,151.61L360.24,114.63L360.75,195.02L360.78,151.61L360.83,158.04L360.89,180.55L360.98,124.28L361.53,153.22L361.54,148.39L362.08,124.28L362.11,175.72L362.16,151.61L362.19,130.71L362.44,172.51L362.76,125.89L362.91,161.25L362.96,151.61L363.46,132.31L363.52,180.55L363.71,166.08L363.75,148.39L363.84,135.53L364.05,159.65L364.45,153.22L364.51,148.39L364.89,122.67L365.11,182.15L365.25,156.43L365.28,132.31L365.48,106.59L365.61,195.01L365.82,153.21L365.84,164.47L365.88,175.72L365.91,158.04L365.92,140.35L365.99,114.63L365.99,185.37L366.61,164.47L366.7,143.57L366.88,172.51L366.91,129.1L367.4,158.04L367.43,137.14L368.02,117.85L368.09,185.36L368.15,156.43L368.23,148.39L368.36,111.43L368.85,191.79L368.9,138.75L368.9,106.6L368.92,193.4L369.65,172.51L369.66,138.75L369.92,169.29L370.05,116.25L370.42,159.64L370.44,146.79L370.53,177.32L371.17,129.11L371.19,151.61L371.27,159.64L371.78,178.93L371.92,121.07L372.02,132.32L372.07,148.39L372.18,124.28L372.37,174.1L372.8,145.18L372.84,154.82L373.03,130.72L373.11,158.04L373.59,146.79L373.63,235.14L373.86,80.92L374.36,96.99L374.39,161.25L374.56,109.84L374.97,182.14L375.14,151.61L375.16,153.21L375.48,172.5L375.91,108.21L375.92,119.46L376.07,111.43L376.1,124.29L376.1,124.29L376.11,190.18L376.14,93.75L376.19,207.86L376.85,151.61L376.87,148.39L377.05,169.28L377.13,114.65L377.62,133.93L377.63,148.39L377.73,169.28L377.84,141.96L378.01,148.39L378.01,132.32L378.56,172.49L378.6,124.29L378.76,161.25L378.86,148.39L379.19,166.07L379.55,122.68L379.55,177.32L379.56,122.68L380.25,124.29L380.32,148.39L380.54,124.29L380.74,174.1L381.04,159.64L381.1,159.64L381.51,167.68L381.8,137.14L381.86,138.75L381.86,167.68L382.57,178.93L382.63,119.47L382.65,141.96L382.65,161.25L382.71,183.75L382.78,111.43L383.35,159.64L383.42,140.36L383.86,169.29L383.94,129.11L384.17,161.25L384.17,138.75L384.33,166.07L384.53,127.5L384.91,161.25L384.95,138.75L385.19,133.93L385.59,166.07L385.69,148.39L385.76,153.21L386.39,188.57L386.4,111.43L386.51,151.61L386.55,148.39L386.95,122.68L386.98,167.68L387.28,138.75L387.32,153.21L387.69,167.68L387.95,137.14L388.07,146.79L388.12,151.61L388.24,177.32L388.36,111.43L388.84,117.88L388.9,154.82L389.31,121.08L389.51,177.31L389.64,140.36L389.65,159.64L389.77,177.31L390.02,119.47L390.4,140.36L390.41,159.64L390.49,164.46L390.91,132.32L391.14,135.54L391.23,151.61L391.35,170.89L391.73,117.86L391.96,164.46L391.98,164.46L392.01,132.32L392.12,177.32L392.72,141.97L392.74,158.03L393.01,125.9L393.17,167.67L393.49,156.43L393.49,159.64L393.62,167.67L393.94,117.86L394.23,133.93L394.26,146.79L394.54,170.89L394.61,129.11L394.92,159.64L394.94,137.15L395.61,135.54L395.68,167.67L395.7,158.03L395.78,116.28L395.83,209.42L396.41,122.69L396.52,133.94L396.59,177.31L396.8,127.51L397.27,135.54L397.28,137.15L397.4,167.67L397.96,137.15L398.06,138.75L398.59,162.85L398.59,162.85L398.59,137.15L398.79,164.46L398.92,129.12L399,154.82" style="vector-effect: non-scaling-stroke; fill: none; stroke: rgb(239, 85, 59); stroke-opacity: 1; stroke-width: 2px; opacity: 1;"/></g><g class="points"/><g class="text"/></g><g class="trace scatter trace2f125f" style="stroke-miterlimit: 2; opacity: 1;"><g class="fills"/><g class="errorbars"/><g class="lines"><path class="js-line" d="M0,145.18L0.35,148.39L0.6,141.96L0.75,143.57L0.79,141.96L0.88,108.21L0.98,148.39L1.4,143.57L1.44,146.78L1.65,148.39L1.7,133.92L1.84,138.75L2.01,146.78L2.11,148.39L2.68,133.92L2.74,143.57L2.79,146.78L3.06,148.39L3.28,129.1L3.51,138.74L3.54,148.39L4.01,132.31L4.27,148.39L4.32,148.39L4.59,127.48L5.05,132.31L5.12,146.78L5.14,148.39L5.5,114.62L5.86,121.05L5.95,146.78L6.06,148.39L6.5,121.05L6.59,145.17L6.72,148.39L7.22,135.53L7.46,145.18L7.48,145.18L8.12,135.53L8.16,148.39L8.89,119.45L8.98,148.39L9.01,137.13L9.72,146.78L9.74,146.78L10.08,148.39L10.45,122.66L10.58,130.69L10.58,137.13L10.83,125.87L11.31,148.39L11.33,137.13L11.42,138.74L11.42,135.53L11.58,148.39L12.16,146.78L12.27,146.78L12.35,116.23L12.57,148.39L12.98,140.35L13.03,140.35L13.34,114.62L13.79,148.39L13.81,148.39L14.45,129.09L14.49,138.74L14.58,148.39L14.9,122.66L15.31,135.53L15.35,145.18L15.51,148.39L15.91,114.62L16.07,138.74L16.15,138.74L16.45,148.39L16.51,108.17L16.9,146.78L16.94,143.57L16.94,148.39L17.66,122.66L17.68,140.35L17.7,119.45L17.7,116.23L18.32,148.39L18.4,122.66L18.47,148.39L18.82,140.35L19.12,148.39L19.41,141.96L19.44,130.7L19.85,148.39L20.15,140.35L20.23,140.35L20.34,101.74L20.52,148.39L20.88,148.39L20.97,141.96L21.01,148.39L21.5,137.13L21.65,148.39L21.69,148.39L22.33,132.31L22.43,145.18L22.46,145.18L22.57,148.39L22.61,127.48L23.21,133.92L23.23,143.57L23.39,148.39L23.93,133.92L23.96,145.18L23.99,145.18L24.06,148.39L24.3,119.45L24.73,135.53L24.76,135.53L24.76,132.31L24.82,148.39L25.48,143.57L25.54,141.96L26.02,124.27L26.3,148.39L26.3,148.39L26.3,138.74L26.48,133.92L26.74,148.39L26.9,143.57L27,133.92L27,148.39L27.29,122.66L27.74,148.39L27.77,148.39L28.45,108.17L28.53,132.3L28.53,145.17L28.56,132.3L28.97,148.39L29.27,145.18L29.3,141.96L29.61,101.77L29.76,148.39L29.95,138.75L30.09,145.18L30.13,148.39L30.42,119.44L30.84,135.52L30.9,145.18L31.05,148.39L31.51,108.19L31.61,122.66L31.7,140.35L32.05,114.62L32.37,148.39L32.43,137.14L32.46,137.14L33.07,148.39L33.13,95.32L33.14,95.32L33.24,85.67L33.33,148.39L33.34,143.57L33.38,146.78L33.5,148.39L33.51,108.19L34.13,145.18L34.14,145.18L34.71,116.23L34.83,148.39L34.88,125.88L34.92,130.7L34.97,148.39L35,104.98L35.66,148.39L35.68,148.39L36.04,121.05L36.38,143.57L36.45,146.78L36.75,148.39L37.02,130.7L37.18,148.39L37.2,148.39L37.43,130.71L37.96,138.75L38.02,141.96L38.04,148.39L38.13,117.84L38.74,145.18L38.74,148.39L38.78,117.84L39.45,130.7L39.46,146.78L39.66,148.39L40.13,113.01L40.17,148.39L40.21,148.39L40.58,119.44L40.9,146.78L40.97,141.96L41.21,148.39L41.5,130.7L41.75,137.14L41.82,143.57L42.17,132.31L42.3,148.39L42.57,145.18L42.6,145.18L42.99,129.09L43.07,148.39L43.3,148.39L43.41,143.57L43.45,148.39L43.8,114.62L44.16,148.39L44.17,148.39L44.69,113.02L44.92,141.96L44.94,141.96L45.17,148.39L45.23,130.71L45.54,135.53L45.61,135.53L45.73,148.39L46.2,116.23L46.21,148.39L46.23,148.39L46.63,122.66L46.86,137.13L46.87,145.18L46.92,148.39L46.97,129.09L47.61,146.78L47.65,138.74L47.89,148.39L48.06,116.23L48.06,114.63L48.06,148.39L48.76,135.53L48.85,146.78L49.04,148.39L49.53,117.83L49.56,146.78L49.63,148.39L49.99,117.84L50.34,135.53L50.41,148.39L51.12,109.79L51.15,148.39L51.18,145.17L51.38,130.7L51.52,148.39L51.67,130.7L51.67,122.65L52.22,148.39L52.36,114.61L52.43,138.74L52.44,141.96L52.54,148.39L52.92,124.27L53.18,135.52L53.21,133.92L53.35,148.39L53.43,124.26L53.67,130.7L53.67,114.61L54.34,148.39L54.44,146.78L54.46,148.39L55,101.74L55.21,114.61L55.24,146.78L55.31,117.82L55.57,148.39L55.92,130.7L56.03,130.7L56.3,148.39L56.52,96.91L56.78,143.57L56.79,106.56L56.84,148.39L57.54,148.39L57.55,148.39L58.26,130.69L58.26,148.39L58.33,146.78L58.48,148.39L58.57,133.91L59.06,146.78L59.09,146.78L59.17,141.96L59.73,148.39L59.8,145.17L59.83,143.56L60.17,148.39L60.19,133.91L60.59,146.78L60.59,140.35L60.73,133.91L61.34,148.39L61.36,146.78L61.52,148.39L61.89,132.3L62.08,138.74L62.11,145.17L62.51,132.31L62.7,148.39L62.71,132.3L63.23,148.39L63.38,95.26L63.44,124.24L63.46,121.02L63.62,108.15L64.07,148.39L64.18,145.17L64.25,148.39L64.69,124.25L64.94,141.96L64.97,146.78L65.17,125.87L65.36,148.39L65.66,148.39L65.72,148.39L66.01,141.96L66.14,148.39L66.14,133.91L66.14,148.39L66.3,114.6L66.89,143.56L66.9,148.39L67.12,125.87L67.5,145.17L67.53,145.17L67.61,124.26L68.2,148.39L68.2,148.39L68.22,140.35L68.32,148.39L68.37,130.7L68.87,137.13L68.89,148.39L69.09,124.26L69.64,132.3L69.68,141.96L70.14,130.69L70.38,148.39L70.42,146.78L70.47,140.34L70.53,148.39L70.73,112.99L71.22,133.91L71.23,148.39L71.64,111.38L72,137.13L72.04,143.56L72.3,148.39L72.32,135.52L72.76,148.39L72.79,148.39L72.84,127.47L73.51,148.39L73.58,135.52L73.65,148.39L74.11,121.04L74.13,125.86L74.16,146.78L74.18,148.39L74.41,122.65L74.89,143.56L74.92,143.56L75.26,124.26L75.63,148.39L75.63,132.3L75.98,125.86L76.25,148.39L76.42,141.95L76.42,137.13L76.46,148.39L77,130.69L77.16,138.74L77.18,135.52L77.24,122.65L77.32,148.39L77.84,146.78L77.88,146.78L78.05,135.52L78.36,148.39L78.47,146.78L78.48,138.74L78.72,148.39L78.79,132.31L78.8,143.57L78.8,129.09L79.03,148.39L79.53,145.18L79.58,145.17L79.61,148.39L79.68,121.04L80.22,146.78L80.27,146.78L80.4,148.39L80.4,141.96L80.47,148.39L80.48,133.92L80.54,129.09L81.14,148.39L81.15,117.83L81.3,148.39L81.56,113.01L81.89,145.18L81.92,146.78L82.11,148.39L82.52,127.48L82.62,148.39L82.7,127.48L82.97,122.66L83.41,148.39L83.46,146.78L83.48,146.78L83.49,148.39L84.12,121.05L84.22,130.7L84.31,137.13L84.34,148.39L84.86,122.66L85.05,145.18L85.1,145.18L85.22,148.39L85.62,133.92L85.87,137.14L85.9,148.39L86.48,129.09L86.64,146.78L86.67,143.57L86.95,133.92L87.42,148.39L87.42,143.57L87.45,146.78L87.6,148.39L87.81,106.58L88.16,137.13L88.21,148.39L88.49,129.09L88.96,143.57L88.99,148.39L89.69,130.7L89.76,148.39L89.88,119.44L90.51,146.78L90.52,143.57L90.59,130.7L91.25,148.39L91.26,133.92L91.87,148.39L92.06,140.35L92.06,138.75L92.58,130.7L92.72,148.39L92.81,145.18L92.85,146.78L92.86,148.39L93.37,125.88L93.59,138.74L93.65,148.39L94.41,124.27L94.41,125.88L94.44,124.27L94.7,148.39L95.16,138.75L95.21,146.78L95.21,148.39L95.49,122.67L95.9,145.18L95.97,145.18L96.26,148.39L96.41,125.88L96.69,125.88L96.75,140.35L96.9,122.66L97.46,148.39L97.52,145.18L97.52,140.35L97.56,148.39L98.22,125.88L98.27,137.14L98.31,135.53L98.32,122.66L99.04,148.39L99.05,141.96L99.45,124.27L99.76,148.39L99.76,138.74L99.89,132.31L100.5,148.39L100.51,145.18L100.58,148.39L101.3,129.1L101.34,148.39L102.03,116.24L102.12,129.1L102.12,146.78L102.33,148.39L102.53,114.63L102.85,132.31L102.88,146.78L103.09,132.32L103.61,132.32L103.64,143.57L103.66,148.39L104.3,129.09L104.39,132.31L104.45,146.78L104.62,132.31L105.06,148.39L105.06,137.14L105.56,113.03L105.67,148.39L105.84,146.78L105.86,140.35L106.24,114.63L106.55,148.39L106.61,143.57L106.63,145.18L106.69,148.39L106.75,114.63L107.38,146.79L107.39,148.39L107.54,146.79L107.55,148.39L107.55,133.92L107.59,127.49L108.19,148.39L108.27,141.96L108.35,146.78L108.59,148.39L108.76,129.1L108.81,130.71L108.86,148.39L108.88,122.67L109.53,138.74L109.62,148.39L110.2,121.05L110.36,143.57L110.39,146.78L110.63,122.66L110.72,148.39L111.16,135.53L111.2,138.74L111.8,121.06L111.97,148.39L111.97,148.39L112.01,148.39L112.1,130.7L112.11,133.91L112.11,92.08L112.92,148.39L112.96,132.31L113.09,135.53L113.28,132.31L113.86,148.39L113.87,143.57L113.87,135.53L114.2,148.39L114.42,129.09L114.48,129.09L115.28,148.39L115.3,148.39L115.47,121.05L116.01,143.57L116.06,146.78L116.46,130.7L116.75,148.39L116.75,138.74L117.4,130.71L117.53,148.39L117.53,133.92L117.7,127.5L118.05,148.39L118.27,143.57L118.34,146.78L118.44,148.39L118.95,132.31L119.04,135.53L119.11,148.39L119.48,113.02L119.86,145.18L119.87,145.18L119.98,148.39L120.38,116.24L120.55,145.18L120.59,145.18L121,148.39L121.18,116.23L121.3,143.57L121.36,145.18L121.71,122.67L121.8,148.39L121.88,125.88L121.91,111.41L121.98,95.33L122.28,148.39L122.63,145.18L122.68,145.18L122.86,148.39L122.9,111.42L123.1,137.14L123.11,145.18L123.44,104.99L123.65,148.39L123.85,133.92L123.87,138.75L123.96,148.39L124.09,119.45L124.6,143.57L124.63,143.57L124.88,124.28L125.3,148.39L125.37,135.53L125.49,148.39L125.55,125.89L126.12,143.57L126.22,148.39L126.39,121.07L126.96,145.18L127.01,141.96L127.16,148.39L127.49,116.24L127.67,133.92L127.74,143.57L128.29,132.32L128.44,148.39L128.47,145.18L128.5,135.53L128.69,148.39L129.16,132.31L129.19,141.96L129.26,141.96L129.37,148.39L129.77,116.24L129.94,135.53L129.96,146.79L130.24,122.67L130.53,148.39L130.57,130.71L130.62,117.86L130.85,116.24L130.94,148.39L131.37,138.75L131.38,135.53L131.58,111.41L132.12,148.39L132.13,130.7L132.65,148.39L132.66,127.49L132.72,127.49L132.8,119.46L132.84,117.85L132.86,148.39L132.95,125.88L133.62,135.53L133.64,145.18L133.73,148.39L133.95,124.28L134.32,148.39L134.44,130.71L134.74,148.39L135.09,127.49L135.17,138.75L135.26,141.96L135.81,148.39L135.93,121.06L135.95,141.96L136.02,141.96L136.09,124.28L136.74,148.39L136.74,138.75L136.76,137.14L137.44,148.39L137.46,135.53L137.48,135.53L137.5,135.53L137.55,148.39L138.01,125.89L138.15,148.39L138.23,146.79L138.7,148.39L138.92,132.31L138.93,148.39L138.97,148.39L139.67,113.02L139.71,132.32L139.77,143.57L139.93,125.89L139.94,141.96L140.12,124.28L140.4,148.39L140.66,143.57L140.69,137.14L140.94,148.39L141.09,122.66L141.43,137.14L141.45,137.14L141.68,106.6L141.8,148.39L142.2,143.57L142.23,146.78L142.49,148.39L142.56,116.23L142.97,143.57L143,146.78L143.15,148.39L143.35,108.19L143.73,141.96L143.77,148.39L144.27,130.7L144.47,146.78L144.53,148.39L144.84,130.7L145.24,145.17L145.28,148.39L145.43,140.35L145.73,141.96L145.74,117.82L145.74,116.21L145.77,148.39L146.49,145.17L146.57,135.52L146.63,148.39L147.11,127.49L147.31,143.57L147.38,143.57L147.84,133.92L148.11,148.39L148.13,127.48L148.69,124.27L148.83,148.39L148.89,141.96L148.91,141.96L148.96,124.27L149.06,148.39L149.6,135.52L149.63,146.78L149.71,114.61L149.87,148.39L150.34,141.96L150.39,141.96L150.45,148.39L150.89,117.83L151.02,129.09L151.05,148.39L151.65,121.05L151.78,148.39L151.81,143.57L151.84,119.44L152.45,148.39L152.52,146.78L152.58,146.78L152.76,148.39L153.17,124.27L153.26,138.74L153.26,148.39L153.91,125.88L153.97,138.74L154.07,148.39L154.22,124.27L154.8,145.18L154.82,148.39L155.32,127.49L155.53,129.09L155.6,116.23L155.63,148.39L156.35,148.39L156.36,133.92L156.45,125.88L156.95,148.39L157.09,137.13L157.18,138.74L157.27,148.39L157.61,130.7L157.91,138.74L157.98,137.13L157.98,148.39L158.21,130.7L158.71,146.78L158.74,148.39L158.8,132.31L159.32,148.39L159.33,148.39L159.95,116.22L160.08,146.78L160.1,146.78L160.19,148.39L160.19,127.48L160.85,145.18L160.88,138.74L160.88,148.39L160.96,127.48L161.63,141.96L161.66,143.57L161.77,133.92L162.05,148.39L162.08,141.96L162.08,129.09L162.24,148.39L162.35,119.44L162.81,148.39L162.84,141.96L162.84,148.39L162.96,129.09L163.58,137.13L163.62,137.13L163.96,114.61L164.25,148.39L164.34,143.56L164.38,137.13L164.61,116.21L164.62,148.39L165.04,148.39L165.07,148.39L165.61,117.83L165.77,145.17L165.83,124.27L166.57,148.39L166.59,146.78L166.59,145.17L166.67,148.39L167.05,137.13L167.33,145.17L167.34,146.78L167.34,148.39L167.58,98.53L168.07,148.39L168.11,148.39L168.59,130.7L168.87,133.91L168.93,146.78L168.94,148.39L169.08,122.65L169.68,129.09L169.71,146.78L170,148.39L170.06,121.04L170.08,121.04L170.1,104.94L170.11,98.5L170.26,148.39L170.79,140.35L170.8,140.35L171.31,132.3L171.47,148.39L171.55,141.96L171.61,140.35L171.8,148.39L171.81,130.7L172.18,135.52L172.37,132.3L172.41,125.87L172.41,148.39L173.06,146.78L173.08,146.78L173.1,148.39L173.45,130.68L173.8,145.17L173.86,141.95L174.1,119.42L174.24,148.39L174.59,148.39L174.64,133.91L174.89,121.04L175.23,146.78L175.3,143.56L175.38,124.25L175.59,148.39L176.04,141.95L176.17,145.17L176.31,148.39L176.78,133.91L176.79,138.74L176.84,148.39L177.28,133.91L177.59,145.17L177.6,148.39L178.34,133.91L178.45,135.52L178.45,148.39L178.68,129.08L179.19,133.91L179.21,141.95L179.28,148.39L179.95,132.3L179.96,146.78L179.97,146.78L179.99,148.39L180.12,133.91L180.71,140.35L180.76,148.39L180.91,135.52L181.28,138.74L181.31,148.39L181.43,129.08L182.06,145.17L182.23,145.17L182.74,148.39L182.86,137.13L182.99,140.35L183.04,140.35L183.13,132.3L183.19,143.56L183.2,138.74L183.21,148.39L183.95,132.3L183.95,148.39L183.97,148.39L184.38,132.3L184.77,138.74L184.82,148.39L185.41,122.65L185.64,129.08L185.68,148.39L186.17,116.21L186.39,140.35L186.4,148.39L186.52,122.65L187.11,146.78L187.12,146.78L187.16,121.04L187.2,148.39L187.81,148.39L187.85,148.39L188.47,124.26L188.55,138.74L188.62,146.78L188.74,148.39L189.17,119.43L189.23,148.39L189.31,148.39L189.88,125.87L189.92,140.35L190.01,148.39L190.3,133.91L190.76,141.96L190.78,141.96L190.95,92.09L191.24,148.39L191.46,148.39L191.53,148.39L192.06,104.97L192.19,145.17L192.28,138.74L192.34,148.39L192.87,129.09L192.9,138.74L193.07,146.78L193.26,121.05L193.62,148.39L193.8,133.92L193.88,140.35L194.48,138.74L194.62,148.39L194.64,146.78L194.65,148.39L195.31,122.65L195.35,148.39L195.48,121.05L196.06,140.35L196.1,145.17L196.61,129.09L196.86,148.39L196.87,148.39L197.11,127.48L197.58,138.74L197.63,146.78L197.78,146.78L197.78,146.78L197.78,145.17L198.01,119.44L198.37,148.39L198.53,146.78L198.55,146.78L198.8,148.39L199.03,132.31L199.06,148.39L199.15,127.48L199.81,137.14L199.87,137.14L199.99,148.39L200.11,127.49L200.38,140.35L200.4,146.78L200.54,148.39L200.97,129.09L201.15,133.92L201.16,148.39L201.39,113.01L201.7,122.66L201.72,146.78L201.86,148.39L202.42,129.09L202.44,141.96L202.53,145.18L202.88,148.39L203.22,133.92L203.26,146.78L203.28,146.78L203.53,148.39L203.8,127.49L204.02,148.39L204.08,148.39L204.28,116.23L204.36,141.96L204.37,143.57L204.62,137.14L205.06,148.39L205.08,138.74L205.12,137.14L205.47,148.39L205.57,124.27L205.9,140.35L205.91,140.35L206.2,148.39L206.49,129.1L206.57,129.1L206.57,119.45L207.33,148.39L207.34,148.39L207.42,106.58L208.1,132.31L208.22,132.31L208.68,127.49L208.86,148.39L208.94,137.13L209,141.96L209.16,145.18L209.28,124.27L209.3,141.96L209.32,148.39L209.59,116.23L210.06,138.74L210.1,148.39L210.52,119.44L210.85,141.96L210.86,148.39L211.26,133.92L211.47,135.53L211.48,148.39L212.23,129.09L212.23,146.78L212.55,148.39L212.64,129.09L212.98,133.92L213,145.18L213.13,148.39L213.17,135.53L213.17,121.05L213.37,117.84L213.97,148.39L213.97,143.57L214.4,132.31L214.73,148.39L214.73,145.18L214.75,141.96L214.77,129.09L215.17,148.39L215.5,141.96L215.53,148.39L216.34,114.62L216.36,114.62L216.93,148.39L217.24,146.78L217.26,146.78L217.28,148.39L217.97,125.87L218.01,148.39L218.05,148.39L218.44,127.47L218.83,129.09L218.88,148.39L218.95,129.09L219.6,143.57L219.65,143.57L220.16,148.39L220.16,133.92L220.33,148.39L220.36,148.39L220.75,140.35L220.82,143.57L220.86,148.39L221.63,127.49L221.68,127.49L221.7,124.27L221.8,148.39L222.29,143.57L222.32,148.39L223,130.7L223.07,148.39L223.08,148.39L223.76,122.66L223.86,146.78L223.96,148.39L224.19,117.84L224.65,141.96L224.72,141.96L224.79,148.39L225.12,121.06L225.44,145.18L225.48,146.78L225.51,121.06L225.64,148.39L226.16,146.78L226.23,148.39L226.55,103.37L226.96,143.57L226.99,141.96L227.1,148.39L227.46,125.88L227.67,140.35L227.78,140.35L228.11,148.39L228.18,113L228.47,138.74L228.56,148.39L229.01,117.84L229.22,146.78L229.25,146.78L229.3,148.39L229.34,125.88L229.38,148.39L229.39,148.39L229.77,132.31L230.08,148.39L230.11,146.78L230.11,148.39L230.38,124.27L230.86,145.18L230.9,148.39L231.02,121.06L231.6,140.35L231.68,140.35L231.88,127.49L232.16,148.39L232.24,145.18L232.26,125.88L233.02,148.39L233.02,141.96L233.11,146.78L233.5,121.06L233.65,127.49L233.65,146.78L233.96,148.39L234.37,127.49L234.39,145.18L234.43,141.96L234.6,148.39L234.81,129.1L235.17,143.57L235.19,130.71L235.63,125.89L235.76,148.39L235.93,129.1L235.93,122.67L236.25,121.07L236.28,148.39L236.68,138.75L236.7,127.49L236.93,109.8L237.35,148.39L237.42,122.67L237.42,104.98L237.45,93.73L237.61,148.39L238.07,148.39L238.16,129.1L238.16,148.39L238.76,117.85L238.91,145.18L238.92,145.18L239.02,148.39L239.64,135.53L239.7,148.39L239.83,125.88L240.43,140.35L240.46,143.57L240.62,148.39L241.13,111.41L241.21,135.53L241.3,140.35L241.4,116.24L241.62,148.39L242.02,146.78L242.03,148.39L242.75,121.06L242.86,148.39L243.47,135.53L243.58,146.78L243.64,148.39L243.99,135.53L244.36,148.39L244.37,148.39L245.06,130.7L245.11,135.53L245.13,132.31L245.17,119.45L245.8,148.39L245.89,138.75L245.89,127.49L245.93,140.35L246.03,108.2L246.12,121.06L246.13,146.78L246.26,148.39L246.88,119.45L246.91,135.53L246.93,143.57L247.03,148.39L247.32,114.62L247.66,122.66L247.7,141.96L247.98,138.74L248.04,148.39L248.12,146.78L248.12,133.92L248.19,121.06L248.86,148.39L248.93,146.78L248.93,140.35L249.17,148.39L249.18,15L249.66,148.39L249.71,148.39L249.77,105L250.29,137.14L250.39,129.1L250.47,148.39L251.09,114.63L251.11,135.53L251.16,135.53L251.16,148.39L251.63,124.28L251.9,148.39L251.92,140.35L251.92,125.88L251.98,148.39L252.66,146.78L252.73,148.39L253.43,116.23L253.47,138.74L253.54,138.74L254.1,130.7L254.32,148.39L254.34,145.18L254.34,135.53L254.7,148.39L254.98,124.28L255.07,130.71L255.14,146.79L255.25,138.75L255.28,145.18L255.29,132.32L255.36,116.24L255.81,148.39L256.02,137.14L256.04,122.67L256.47,148.39L256.77,132.32L256.84,145.18L256.95,124.28L257.07,148.39L257.08,140.35L257.12,148.39L257.95,116.24L258.05,138.75L258.09,138.75L258.27,141.96L258.32,132.31L258.33,124.28L258.43,148.39L258.99,113.02L259.06,132.31L259.1,141.96L259.26,148.39L259.84,119.45L259.84,148.39L259.95,132.31L260.16,133.92L260.17,146.78L260.2,148.39L260.91,106.59L261.05,148.39L261.05,113.02L261.79,141.96L261.81,141.96L261.88,148.39L262.59,127.49L262.59,127.49L262.6,143.57L262.81,148.39L263.14,130.71L263.34,140.35L263.46,146.78L263.53,148.39L264.07,113.03L264.21,119.46L264.3,138.75L264.41,117.85L264.99,148.39L265.04,140.35L265.12,146.79L265.28,148.39L265.59,119.45L265.87,130.7L265.92,148.39L266.03,116.23L266.54,146.78L266.58,146.78L266.83,148.39L266.9,132.31L266.9,129.1L267.06,119.45L267.4,148.39L267.64,133.92L267.68,140.35L267.72,148.39L267.77,121.05L268.41,146.78L268.46,148.39L268.78,125.88L268.82,132.31L268.88,148.39L269.27,114.62L269.63,125.88L269.64,148.39L270.12,119.44L270.34,146.78L270.4,140.35L270.5,148.39L270.72,125.88L271.07,140.35L271.2,138.74L271.34,129.09L271.45,148.39L271.88,140.35L271.88,145.17L271.88,148.39L272.62,121.05L272.62,124.27L272.67,141.96L273.09,121.05L273.21,148.39L273.39,145.18L273.39,135.53L273.47,148.39L273.77,113L273.93,145.17L274.02,148.39L274.3,109.79L274.77,148.39L274.78,148.39L275.07,124.27L275.53,140.35L275.55,140.35L276.09,129.1L276.19,148.39L276.2,129.1L276.22,129.1L276.29,148.39L276.83,124.27L276.86,132.31L276.92,148.39L277.59,119.45L277.66,148.39L277.68,148.39L277.78,125.88L277.86,145.18L277.88,148.39L278.15,125.88L278.16,146.78L278.27,148.39L278.68,127.49L278.84,141.96L278.91,148.39L279.11,124.27L279.65,146.78L279.67,145.18L280.02,132.31L280.25,148.39L280.34,133.92L280.34,129.09L280.34,117.84L280.45,148.39L280.9,121.06L281.12,145.18L281.16,148.39L281.6,135.53L281.85,146.78L281.93,143.57L282.29,135.53L282.56,148.39L282.65,140.35L282.65,133.92L282.83,132.31L283.18,148.39L283.38,141.96L283.4,127.49L283.75,148.39L284.17,143.57L284.2,148.39L284.58,127.49L284.95,133.92L284.97,145.18L285.06,119.45L285.65,148.39L285.68,140.35L285.69,140.35L285.75,148.39L286.14,121.06L286.44,133.92L286.45,127.49L287.21,148.39L287.26,145.18L287.29,125.88L287.95,148.39L287.98,135.53L288.12,119.45L288.25,148.39L288.77,146.78L288.78,133.92L288.88,124.28L289.47,148.39L289.52,145.18L289.55,145.18L289.63,148.39L289.94,122.67L290.28,148.39L290.31,148.39L290.46,114.63L291.04,140.35L291.11,145.18L291.23,148.39L291.23,145.18L291.23,124.28L292.04,148.39L292.06,137.14L292.52,125.88L292.8,148.39L292.82,141.96L292.86,141.96L292.87,121.07L293.16,148.39L293.6,124.28L293.62,146.79L293.85,148.39L294.28,132.32L294.32,141.96L294.33,148.39L294.44,130.71L295.07,145.18L295.09,145.18L295.2,135.53L295.55,148.39L295.7,141.96L295.7,138.75L295.86,148.39L296.37,129.1L296.44,146.78L296.46,141.96L296.66,125.88L297.05,148.39L297.16,145.18L297.16,137.14L297.25,135.53L297.92,148.39L297.92,129.1L298.02,127.5L298.05,143.57L298.09,124.28L298.26,148.39L298.79,143.57L298.8,145.18L298.82,148.39L299.44,129.1L299.54,148.39L299.56,148.39L299.63,129.1L300.33,140.35L300.36,135.53L300.37,125.89L300.88,148.39L301.11,141.96L301.14,141.96L301.18,148.39L301.83,132.32L301.88,148.39L302.37,129.1L302.59,140.35L302.61,148.39L303.05,114.63L303.34,140.36L303.37,148.39L303.7,121.07L304.11,146.78L304.15,140.35L304.24,148.39L304.64,124.28L304.89,146.79L304.91,146.79L305.07,148.39L305.44,117.86L305.59,121.07L305.67,143.57L305.8,148.39L306.14,122.67L306.35,129.11L306.42,148.39L306.73,127.5L307.15,146.79L307.18,143.57L307.18,148.39L307.45,129.1L307.93,143.57L307.95,143.57L308.34,148.39L308.67,124.28L308.7,145.18L308.76,145.18L309.04,148.39L309.09,133.93L309.5,145.18L309.5,148.39L309.96,135.53L310.28,137.14L310.28,143.57L310.44,148.39L310.66,125.88L311.01,132.31L311.04,138.75L311.12,148.39L311.29,119.45L311.79,143.57L311.84,148.39L312.07,127.49L312.59,145.18L312.63,146.79L312.73,148.39L312.86,140.36L312.86,132.32L313.13,124.28L313.63,148.39L313.63,135.53L313.65,116.24L313.78,148.39L314.36,133.92L314.38,133.92L314.47,148.39L315.04,116.24L315.11,119.45L315.19,140.35L315.28,148.39L315.67,111.41L315.92,135.53L315.94,146.79L315.98,148.39L316.01,127.49L316.06,127.49L316.06,119.46L316.06,117.85L316.35,148.39L316.75,148.39L316.83,133.93L317.15,132.32L317.41,148.39L317.59,145.18L317.59,135.53L317.71,121.07L318.35,148.39L318.35,148.39L318.39,146.79L318.4,148.39L318.92,121.06L319.14,143.57L319.15,138.75L319.49,132.32L319.88,148.39L319.95,138.75L319.99,148.39L320.45,114.64L320.64,143.57L320.66,146.79L321,129.11L321.26,148.39L321.34,138.75L321.34,135.53L321.99,148.39L322.04,119.46L322.08,145.18L322.15,122.67L322.31,119.46L322.59,148.39L322.88,148.39L322.94,140.36L323.3,132.32L323.44,148.39L323.55,140.35L323.55,127.49L323.55,125.89L323.68,148.39L324.25,137.14L324.36,145.18L324.39,116.24L324.87,148.39L325.09,138.75L325.12,138.75L325.52,148.39L325.64,116.24L325.88,141.96L325.92,141.96L325.97,148.39L326.16,116.25L326.64,141.96L326.68,127.5L326.7,121.07L326.75,148.39L327.39,132.32L327.45,141.96L327.5,148.39L327.61,129.1L328.1,141.96L328.14,145.18L328.17,119.46L328.34,148.39L328.84,138.75L328.93,140.35L329.07,143.57L329.09,127.49L329.09,125.88L329.71,148.39L329.81,133.93L329.87,135.53L330.5,122.67L330.62,148.39L330.62,148.39L330.64,135.53L330.72,148.39L330.72,127.5L331.38,146.79L331.41,148.39L331.57,76.11L332.03,130.72L332.11,140.36L332.22,100.18L332.86,148.39L332.86,121.07L332.93,119.47L332.97,146.79L333.17,135.54L333.22,145.18L333.37,148.39L333.49,119.46L333.79,130.71L333.8,148.39L334.54,122.67L334.55,122.67L334.59,135.53L334.64,114.64L335.28,148.39L335.37,143.57L335.5,148.39L336.14,122.68L336.25,146.79L336.29,148.39L336.49,133.93L337.03,143.57L337.06,148.39L337.33,133.93L337.73,143.57L337.79,148.39L338.45,114.65L338.54,148.39L338.56,124.29L338.56,148.39L338.6,122.68L339.31,146.79L339.33,146.79L339.5,148.39L340.04,122.67L340.08,148.39L340.16,135.53L340.36,122.67L340.94,148.39L340.97,141.96L341.04,148.39L341.36,103.38L341.69,145.18L341.74,148.39L342.5,101.77L342.61,148.39L343.24,109.81L343.28,148.39L343.3,148.39L343.32,108.21L344.05,146.79L344.07,148.39L344.67,122.68L344.85,138.75L344.88,141.96L345.12,148.39L345.15,119.46L345.6,141.96L345.65,140.35L345.74,148.39L346.03,111.41L346.39,143.57L346.41,148.39L346.9,104.98L347.14,127.49L347.2,137.13L347.22,148.39L347.71,116.23L347.92,141.96L347.99,146.78L347.99,122.66L348.34,148.39L348.74,148.39L348.77,148.39L349.05,125.89L349.52,141.96L349.56,146.78L350.08,148.39L350.2,121.06L350.28,148.39L350.36,148.39L350.39,122.67L351.11,137.14L351.16,133.92L351.2,148.39L351.82,119.45L351.88,130.71L351.92,130.71L352.7,148.39L352.71,148.39L353.51,137.14L353.51,138.75L353.51,145.18L353.51,148.39L353.93,129.1L354.26,148.39L354.28,148.39L355,130.71L355.04,145.18L355.18,148.39L355.22,137.14L355.23,138.75L355.23,125.89L355.28,116.25L355.8,148.39L355.98,146.78L356,146.78L356.07,148.39L356.48,129.1L356.75,146.78L356.76,146.78L356.99,148.39L357.2,117.85L357.51,146.78L357.52,145.18L357.54,146.79L357.56,121.06L357.78,122.66L357.8,90.49L358.35,148.39L358.56,117.84L358.6,145.18L358.76,129.1L358.94,148.39L359.1,140.35L359.1,130.71L359.3,111.41L359.63,148.39L359.82,135.53L359.86,130.7L360.01,148.39L360.24,114.63L360.6,146.78L360.69,132.32L360.75,104.98L360.75,148.39L361.42,135.53L361.46,146.78L361.56,148.39L361.56,133.92L361.58,133.92L361.68,148.39L362.11,124.28L362.12,148.39L362.76,125.89L362.86,145.18L362.87,145.18L362.91,138.75L363.3,148.39L363.45,138.75L363.45,132.31L363.52,119.45L364.22,148.39L364.23,140.35L364.62,122.67L364.87,148.39L364.89,122.67L364.95,122.67L365.47,148.39L365.61,104.99L365.75,138.75L365.75,137.14L365.99,114.63L366.06,148.39L366.45,145.18L366.46,146.79L366.55,148.39L366.57,145.18L366.57,145.18L366.58,125.89L366.89,148.39L367.33,145.18L367.35,146.79L367.53,148.39L368.09,114.64L368.13,143.57L368.26,148.39L368.35,143.57L368.36,111.43L368.9,106.6L369.2,148.39L369.22,148.39L369.32,114.63L369.97,146.78L370.01,140.36L370.08,116.25L370.15,148.39L370.72,146.78L370.75,146.78L371.01,148.39L371.09,124.28L371.49,135.53L371.51,141.96L371.51,148.39L371.78,121.07L372.23,125.9L372.29,145.18L372.37,125.9L372.45,148.39L373.05,132.32L373.09,148.39L373.63,64.86L373.79,124.29L373.85,148.39L373.86,80.92L374.56,109.84L374.61,109.84L375.32,148.39L375.32,133.93L375.4,146.79L375.73,148.39L376.19,92.14L376.19,145.18L376.2,106.61L376.2,148.39L376.69,141.97L376.75,145.18L376.85,148.39L377.13,114.65L377.48,132.32L377.52,148.39L377.73,130.72L378.27,141.97L378.28,140.36L378.6,124.29L378.86,148.39L379.05,146.79L379.06,141.97L379.12,148.39L379.56,122.68L379.69,129.11L379.7,148.39L380.25,124.29L380.45,143.57L380.49,143.57L380.54,124.29L381.15,148.39L381.25,145.18L381.28,145.18L381.29,148.39L381.51,132.32L382.03,145.18L382.07,140.36L382.34,148.39L382.7,116.25L382.71,116.25L382.73,116.25L382.78,111.43L383.34,148.39L383.48,140.36L383.52,145.18L383.55,148.39L384.01,129.11L384.22,141.96L384.27,148.39L384.53,127.5L384.6,141.96L384.72,148.39L385.19,133.93L385.38,148.39L385.4,148.39L386.15,124.29L386.17,148.39L386.39,111.43L386.9,143.57L386.93,129.11L386.95,122.68L387.14,148.39L387.58,148.39L387.63,148.39L388.36,111.43L388.36,111.43L388.41,148.39L388.84,117.88L389.16,140.36L389.16,146.79L389.31,121.08L389.36,148.39L389.9,148.39L389.95,145.18L390.03,148.39L390.11,119.47L390.7,141.97L390.75,141.97L391.32,148.39L391.35,129.11L391.43,146.79L391.44,132.33L391.73,117.86L392.17,148.39L392.2,140.36L392.28,141.97L392.38,148.39L393.01,125.9L393.03,145.18L393.16,132.33L393.18,148.39L393.76,146.79L393.81,146.79L393.92,148.39L393.94,117.86L394.5,148.39L394.53,148.39L394.64,129.11L395.28,141.97L395.31,141.97L395.58,148.39L395.83,90.58L396.06,122.69L396.08,122.69L396.31,117.88L396.58,148.39L396.8,127.51L396.85,146.79L396.95,148.39L397.01,137.15L397.1,148.39L397.14,148.39L397.4,132.33L397.85,148.39L397.9,148.39L397.95,137.15L398.64,137.15L398.66,135.54L398.74,148.39L398.92,129.12L399,145.18" style="vector-effect: non-scaling-stroke; fill: none; stroke: rgb(0, 204, 150); stroke-opacity: 1; stroke-width: 2px; opacity: 1;"/></g><g class="points"/><g class="text"/></g></g></g><g class="overplot"/><path class="xlines-above crisp" d="M0,0" style="fill: none;"/><path class="ylines-above crisp" d="M0,0" style="fill: none;"/><g class="overlines-above"/><g class="xaxislayer-above"><g class="xtick"><text text-anchor="start" x="0" y="416" transform="translate(206.05,0) rotate(30,0,408.5)" style="font-family: 'Times New Roman'; font-size: 15px; fill: rgb(13, 13, 13); fill-opacity: 1; white-space: pre; opacity: 1;">1.6125210<tspan style="font-size:70%" dy="-0.6em">18</tspan><tspan dy="0.42em"></tspan></text></g><g class="xtick"><text text-anchor="start" x="0" y="416" style="font-family: 'Times New Roman'; font-size: 15px; fill: rgb(13, 13, 13); fill-opacity: 1; white-space: pre; opacity: 1;" transform="translate(285.37,0) rotate(30,0,408.5)">1.61252510<tspan style="font-size:70%" dy="-0.6em">18</tspan><tspan dy="0.42em"></tspan></text></g><g class="xtick"><text text-anchor="start" x="0" y="416" style="font-family: 'Times New Roman'; font-size: 15px; fill: rgb(13, 13, 13); fill-opacity: 1; white-space: pre; opacity: 1;" transform="translate(364.7,0) rotate(30,0,408.5)">1.6125310<tspan style="font-size:70%" dy="-0.6em">18</tspan><tspan dy="0.42em"></tspan></text></g><g class="xtick"><text text-anchor="start" x="0" y="416" style="font-family: 'Times New Roman'; font-size: 15px; fill: rgb(13, 13, 13); fill-opacity: 1; white-space: pre; opacity: 1;" transform="translate(444.02,0) rotate(30,0,408.5)">1.61253510<tspan style="font-size:70%" dy="-0.6em">18</tspan><tspan dy="0.42em"></tspan></text></g><g class="xtick"><text text-anchor="start" x="0" y="416" style="font-family: 'Times New Roman'; font-size: 15px; fill: rgb(13, 13, 13); fill-opacity: 1; white-space: pre; opacity: 1;" transform="translate(523.3399999999999,0) rotate(30,0,408.5)">1.6125410<tspan style="font-size:70%" dy="-0.6em">18</tspan><tspan dy="0.42em"></tspan></text></g></g><g class="yaxislayer-above"><g class="ytick"><text text-anchor="end" x="136" y="12.25" transform="translate(0,330.4)" style="font-family: 'Times New Roman'; font-size: 35px; fill: rgb(13, 13, 13); fill-opacity: 1; white-space: pre; opacity: 1;">0.05</text></g><g class="ytick"><text text-anchor="end" x="136" y="12.25" style="font-family: 'Times New Roman'; font-size: 35px; fill: rgb(13, 13, 13); fill-opacity: 1; white-space: pre; opacity: 1;" transform="translate(0,250)">0</text></g><g class="ytick"><text text-anchor="end" x="136" y="12.25" style="font-family: 'Times New Roman'; font-size: 35px; fill: rgb(13, 13, 13); fill-opacity: 1; white-space: pre; opacity: 1;" transform="translate(0,169.6)">0.05</text></g></g><g class="overaxes-above"/></g></g><g class="polarlayer"/><g class="smithlayer"/><g class="ternarylayer"/><g class="geolayer"/><g class="funnelarealayer"/><g class="pielayer"/><g class="iciclelayer"/><g class="treemaplayer"/><g class="sunburstlayer"/><g class="glimages"/><defs id="topdefs-0552e6"><g class="clips"/><clipPath id="legend0552e6"><rect width="144" height="67" x="0" y="0"/></clipPath></defs><g class="layer-above"><g class="imagelayer"/><g class="shapelayer"/></g><g class="infolayer"><g class="legend" pointer-events="all" transform="translate(543.98,100)"><rect class="bg" shape-rendering="crispEdges" style="stroke: rgb(68, 68, 68); stroke-opacity: 1; fill: rgb(255, 255, 255); fill-opacity: 1; stroke-width: 0px;" width="144" height="67" x="0" y="0"/><g class="scrollbox" transform="" clip-path="url(#legend0552e6)"><g class="groups"><g class="traces" transform="translate(0,14.5)" style="opacity: 1;"><text class="legendtext" text-anchor="start" x="40" y="4.680000000000001" style="font-family: 'Open Sans', verdana, arial, sans-serif; font-size: 12px; fill: rgb(42, 63, 95); fill-opacity: 1; white-space: pre;">Realized (in %)</text><g class="layers" style="opacity: 1;"><g class="legendfill"/><g class="legendlines"><path class="js-line" d="M5,0h30" style="fill: none; stroke: rgb(99, 110, 250); stroke-opacity: 1; stroke-width: 2px;"/></g><g class="legendsymbols"><g class="legendpoints"/></g></g><rect class="legendtoggle" x="0" y="-9.5" width="138.71875" height="19" style="fill: rgb(0, 0, 0); fill-opacity: 0;"/></g><g class="traces" transform="translate(0,33.5)" style="opacity: 1;"><text class="legendtext" text-anchor="start" x="40" y="4.680000000000001" style="font-family: 'Open Sans', verdana, arial, sans-serif; font-size: 12px; fill: rgb(42, 63, 95); fill-opacity: 1; white-space: pre;">Effective (in %)</text><g class="layers" style="opacity: 1;"><g class="legendfill"/><g class="legendlines"><path class="js-line" d="M5,0h30" style="fill: none; stroke: rgb(239, 85, 59); stroke-opacity: 1; stroke-width: 2px;"/></g><g class="legendsymbols"><g class="legendpoints"/></g></g><rect class="legendtoggle" x="0" y="-9.5" width="138.71875" height="19" style="fill: rgb(0, 0, 0); fill-opacity: 0;"/></g><g class="traces" transform="translate(0,52.5)" style="opacity: 1;"><text class="legendtext" text-anchor="start" x="40" y="4.680000000000001" style="font-family: 'Open Sans', verdana, arial, sans-serif; font-size: 12px; fill: rgb(42, 63, 95); fill-opacity: 1; white-space: pre;">Half Quoted (in %)</text><g class="layers" style="opacity: 1;"><g class="legendfill"/><g class="legendlines"><path class="js-line" d="M5,0h30" style="fill: none; stroke: rgb(0, 204, 150); stroke-opacity: 1; stroke-width: 2px;"/></g><g class="legendsymbols"><g class="legendpoints"/></g></g><rect class="legendtoggle" x="0" y="-9.5" width="138.71875" height="19" style="fill: rgb(0, 0, 0); fill-opacity: 0;"/></g></g></g><rect class="scrollbar" rx="20" ry="3" width="0" height="0" style="fill: rgb(128, 139, 164); fill-opacity: 1;" x="0" y="0"/></g><g class="g-gtitle"/><g class="g-xtitle"><text class="xtitle" x="336.5" y="487.503125" text-anchor="middle" style="font-family: 'Open Sans', verdana, arial, sans-serif; font-size: 14px; fill: rgb(42, 63, 95); opacity: 1; font-weight: normal; white-space: pre;">Time Steps (ns)</text></g><g class="g-ytitle" transform="translate(24,0)"><text class="ytitle" transform="rotate(-90,12,250)" x="12" y="250" text-anchor="middle" style="font-family: 'Times New Roman'; font-size: 40px; fill: rgb(13, 13, 13); opacity: 1; font-weight: normal; white-space: pre;">Spreads (in %)</text></g></g></svg>