<svg class="main-svg" xmlns="http://www.w3.org/2000/svg" xmlns:xlink="http://www.w3.org/1999/xlink" width="700" height="500" style="" viewBox="0 0 700 500"><rect x="0" y="0" width="700" height="500" style="fill: rgb(255, 255, 255); fill-opacity: 1;"/><defs id="defs-a6c040"><g class="clips"><clipPath id="clipa6c040xyplot" class="plotclip"><rect width="511" height="320"/></clipPath><clipPath class="axesclip" id="clipa6c040x"><rect x="109" y="0" width="511" height="500"/></clipPath><clipPath class="axesclip" id="clipa6c040y"><rect x="0" y="100" width="700" height="320"/></clipPath><clipPath class="axesclip" id="clipa6c040xy"><rect x="109" y="100" width="511" height="320"/></clipPath></g><g class="gradients"/><g class="patterns"/></defs><g class="bglayer"><rect class="bg" x="109" y="100" width="511" height="320" style="fill: rgb(229, 236, 246); fill-opacity: 1; stroke-width: 0;"/></g><g class="layer-below"><g class="imagelayer"/><g class="shapelayer"/></g><g class="cartesianlayer"><g class="subplot xy"><g class="layer-subplot"><g class="shapelayer"/><g class="imagelayer"/></g><g class="minor-gridlayer"><g class="x"/><g class="y"/></g><g class="gridlayer"><g class="x"><path class="xgrid crisp" transform="translate(198.19,0)" d="M0,100v320" style="stroke: rgb(255, 255, 255); stroke-opacity: 1; stroke-width: 1px;"/><path class="xgrid crisp" transform="translate(299.59000000000003,0)" d="M0,100v320" style="stroke: rgb(255, 255, 255); stroke-opacity: 1; stroke-width: 1px;"/><path class="xgrid crisp" transform="translate(400.99,0)" d="M0,100v320" style="stroke: rgb(255, 255, 255); stroke-opacity: 1; stroke-width: 1px;"/><path class="xgrid crisp" transform="translate(502.39,0)" d="M0,100v320" style="stroke: rgb(255, 255, 255); stroke-opacity: 1; stroke-width: 1px;"/><path class="xgrid crisp" transform="translate(603.79,0)" d="M0,100v320" style="stroke: rgb(255, 255, 255); stroke-opacity: 1; stroke-width: 1px;"/></g><g class="y"><path class="ygrid crisp" transform="translate(0,347.6)" d="M109,0h511" style="stroke: rgb(255, 255, 255); stroke-opacity: 1; stroke-width: 1px;"/><path class="ygrid crisp" transform="translate(0,291.2)" d="M109,0h511" style="stroke: rgb(255, 255, 255); stroke-opacity: 1; stroke-width: 1px;"/><path class="ygrid crisp" transform="translate(0,234.8)" d="M109,0h511" style="stroke: rgb(255, 255, 255); stroke-opacity: 1; stroke-width: 1px;"/><path class="ygrid crisp" transform="translate(0,178.39)" d="M109,0h511" style="stroke: rgb(255, 255, 255); stroke-opacity: 1; stroke-width: 1px;"/><path class="ygrid crisp" transform="translate(0,121.99)" d="M109,0h511" style="stroke: rgb(255, 255, 255); stroke-opacity: 1; stroke-width: 1px;"/></g></g><g class="zerolinelayer"><path class="yzl zl crisp" transform="translate(0,404.01)" d="M109,0h511" style="stroke: rgb(255, 255, 255); stroke-opacity: 1; stroke-width: 2px;"/></g><path class="xlines-below"/><path class="ylines-below"/><g class="overlines-below"/><g class="xaxislayer-below"/><g class="yaxislayer-below"/><g class="overaxes-below"/><g class="plot" transform="translate(109,100)" clip-path="url(#clipa6c040xyplot)"><g class="scatterlayer mlayer"><g class="trace scatter tracebacde3" style="stroke-miterlimit: 2; opacity: 1;"><g class="fills"/><g class="errorbars"/><g class="lines"><path class="js-line" d="M0,304L8.65,300.69L8.65,300.69L8.65,300.68L11.71,299.52L11.71,299.52L11.78,299.51L14.26,298.04L14.26,298.04L14.38,298.03L17.55,296.71L17.55,296.71L17.68,296.7L20.1,295.38L20.1,295.38L20.2,295.37L21.91,294.44L22.04,294.43L43.42,284.2L43.42,284.2L43.42,284.19L46.54,282.2L46.66,282.19L54.26,277.82L54.35,277.82L66.81,269.71L66.87,269.71L88.8,257.93L88.8,257.92L91.47,256.45L91.47,256.45L91.47,256.44L94.39,254.74L94.39,254.73L99.32,251.71L99.32,251.71L99.5,251.7L107.26,247.56L107.26,247.56L107.26,247.55L119.57,240.83L119.61,240.83L162.12,217.43L162.12,217.43L162.12,217.42L163.88,216.42L163.97,216.42L166.53,214.89L166.53,214.89L166.6,214.88L168.76,213.7L168.86,213.7L173.02,211.35L173.02,211.35L173.02,211.34L186.38,203.85L186.38,203.84L187.68,202.95L187.68,202.94L193.57,199.6L193.57,199.59L197.48,197.58L197.5,197.58L215.59,187.18L215.59,187.18L215.59,187.17L219.09,185.3L219.09,185.29L222.6,183.48L222.6,183.48L222.6,183.47L225.31,182.06L225.38,182.06L227.46,180.73L227.46,180.73L227.46,180.72L230.95,178.88L230.95,178.88L230.95,178.87L234.73,176.82L234.73,176.82L234.75,176.81L245.55,170.62L245.55,170.62L245.55,170.61L250.56,167.85L250.56,167.85L250.73,167.84L254.85,165.77L254.85,165.76L266.49,159.46L266.49,159.46L266.51,159.45L272.15,156.27L272.15,156.26L281.98,151.24L281.98,151.24L281.98,151.23L283.44,150.37L283.48,150.37L289.62,146.88L289.62,146.88L289.68,146.87L290.94,146.23L291.01,146.23L293.77,144.32L293.77,144.32L293.79,144.31L303.21,139.08L303.31,139.08L306.38,137L306.38,137L306.49,136.99L312.4,133.82L312.4,133.81L313.77,132.98L313.79,132.97L328.8,123.8L328.8,123.8L328.92,123.79L341.14,117.02L341.14,117.02L341.18,117.01L344.44,114.83L344.44,114.82L360.5,105.61L360.5,105.61L360.5,105.6L363.34,103.8L363.34,103.8L363.38,103.79L373.32,98.72L373.32,98.72L373.32,98.71L375.72,97.44L375.72,97.43L381.44,94.17L381.44,94.16L399.5,84.56L399.57,84.56L401.45,83.45L401.45,83.45L401.48,83.44L403.59,82.26L403.59,82.25L406.1,80.74L406.18,80.73L476.34,38.2L476.34,38.19L482.25,34.5L482.32,34.49L485.84,31.91L485.84,31.91L485.84,31.9L487.73,30.59L487.73,30.59L487.79,30.58L496.61,25.1L496.61,25.1L496.61,25.09L511,16" style="vector-effect: non-scaling-stroke; fill: none; stroke: rgb(168, 0, 173); stroke-opacity: 1; stroke-width: 2px; opacity: 1;"/></g><g class="points"/><g class="text"/></g></g></g><g class="overplot"/><path class="xlines-above crisp" d="M0,0" style="fill: none;"/><path class="ylines-above crisp" d="M0,0" style="fill: none;"/><g class="overlines-above"/><g class="xaxislayer-above"><g class="xtick"><text text-anchor="middle" x="0" y="436" transform="translate(198.19,0)" style="font-family: 'Times New Roman'; font-size: 15px; fill: rgb(13, 13, 13); fill-opacity: 1; white-space: pre; opacity: 1;">1.61252×10​<tspan style="font-size:70%" dy="-0.6em">18</tspan><tspan dy="0.42em">​</tspan></text></g><g class="xtick"><text text-anchor="middle" x="0" y="436" style="font-family: 'Times New Roman'; font-size: 15px; fill: rgb(13, 13, 13); fill-opacity: 1; white-space: pre; opacity: 1;" transform="translate(299.59000000000003,0)">1.612525×10​<tspan style="font-size:70%" dy="-0.6em">18</tspan><tspan dy="0.42em">​</tspan></text></g><g class="xtick"><text text-anchor="middle" x="0" y="436" style="font-family: 'Times New Roman'; font-size: 15px; fill: rgb(13, 13, 13); fill-opacity: 1; white-space: pre; opacity: 1;" transform="translate(400.99,0)">1.61253×10​<tspan style="font-size:70%" dy="-0.6em">18</tspan><tspan dy="0.42em">​</tspan></text></g><g class="xtick"><text text-anchor="middle" x="0" y="436" style="font-family: 'Times New Roman'; font-size: 15px; fill: rgb(13, 13, 13); fill-opacity: 1; white-space: pre; opacity: 1;" transform="translate(502.39,0)">1.612535×10​<tspan style="font-size:70%" dy="-0.6em">18</tspan><tspan dy="0.42em">​</tspan></text></g><g class="xtick"><text text-anchor="middle" x="0" y="436" style="font-family: 'Times New Roman'; font-size: 15px; fill: rgb(13, 13, 13); fill-opacity: 1; white-space: pre; opacity: 1;" transform="translate(603.79,0)">1.61254×10​<tspan style="font-size:70%" dy="-0.6em">18</tspan><tspan dy="0.42em">​</tspan></text></g></g><g class="yaxislayer-above"><g class="ytick"><text text-anchor="end" x="108" y="12.25" transform="translate(0,404.01)" style="font-family: 'Times New Roman'; font-size: 35px; fill: rgb(13, 13, 13); fill-opacity: 1; white-space: pre; opacity: 1;">0</text></g><g class="ytick"><text text-anchor="end" x="108" y="12.25" style="font-family: 'Times New Roman'; font-size: 35px; fill: rgb(13, 13, 13); fill-opacity: 1; white-space: pre; opacity: 1;" transform="translate(0,347.6)">10k</text></g><g class="ytick"><text text-anchor="end" x="108" y="12.25" style="font-family: 'Times New Roman'; font-size: 35px; fill: rgb(13, 13, 13); fill-opacity: 1; white-space: pre; opacity: 1;" transform="translate(0,291.2)">20k</text></g><g class="ytick"><text text-anchor="end" x="108" y="12.25" style="font-family: 'Times New Roman'; font-size: 35px; fill: rgb(13, 13, 13); fill-opacity: 1; white-space: pre; opacity: 1;" transform="translate(0,234.8)">30k</text></g><g class="ytick"><text text-anchor="end" x="108" y="12.25" style="font-family: 'Times New Roman'; font-size: 35px; fill: rgb(13, 13, 13); fill-opacity: 1; white-space: pre; opacity: 1;" transform="translate(0,178.39)">40k</text></g><g class="ytick"><text text-anchor="end" x="108" y="12.25" style="font-family: 'Times New Roman'; font-size: 35px; fill: rgb(13, 13, 13); fill-opacity: 1; white-space: pre; opacity: 1;" transform="translate(0,121.99)">50k</text></g></g><g class="overaxes-above"/></g></g><g class="polarlayer"/><g class="smithlayer"/><g class="ternarylayer"/><g class="geolayer"/><g class="funnelarealayer"/><g class="pielayer"/><g class="iciclelayer"/><g class="treemaplayer"/><g class="sunburstlayer"/><g class="glimages"/><defs id="topdefs-a6c040"><g class="clips"/></defs><g class="layer-above"><g class="imagelayer"/><g class="shapelayer"/></g><g class="infolayer"><g class="g-gtitle"/><g class="g-xtitle"><text class="xtitle" x="364.5" y="463.8" text-anchor="middle" style="font-family: 'Open Sans', verdana, arial, sans-serif; font-size: 14px; fill: rgb(42, 63, 95); opacity: 1; font-weight: normal; white-space: pre;">Time Steps (ns)</text></g><g class="g-ytitle" transform="translate(23.5,0)"><text class="ytitle" transform="rotate(-90,12.5,260)" x="12.5" y="260" text-anchor="middle" style="font-family: 'Times New Roman'; font-size: 40px; fill: rgb(13, 13, 13); opacity: 1; font-weight: normal; white-space: pre;">Cum. qty. executed orders</text></g></g></svg>