<svg class="main-svg" xmlns="http://www.w3.org/2000/svg" xmlns:xlink="http://www.w3.org/1999/xlink" width="700" height="500" style="" viewBox="0 0 700 500"><rect x="0" y="0" width="700" height="500" style="fill: rgb(255, 255, 255); fill-opacity: 1;"/><defs id="defs-658062"><g class="clips"><clipPath id="clip658062xyplot" class="plotclip"><rect width="489" height="320"/></clipPath><clipPath class="axesclip" id="clip658062x"><rect x="131" y="0" width="489" height="500"/></clipPath><clipPath class="axesclip" id="clip658062y"><rect x="0" y="100" width="700" height="320"/></clipPath><clipPath class="axesclip" id="clip658062xy"><rect x="131" y="100" width="489" height="320"/></clipPath></g><g class="gradients"/><g class="patterns"/></defs><g class="bglayer"><rect class="bg" x="131" y="100" width="489" height="320" style="fill: rgb(229, 236, 246); fill-opacity: 1; stroke-width: 0;"/></g><g class="layer-below"><g class="imagelayer"/><g class="shapelayer"/></g><g class="cartesianlayer"><g class="subplot xy"><g class="layer-subplot"><g class="shapelayer"/><g class="imagelayer"/></g><g class="minor-gridlayer"><g class="x"/><g class="y"/></g><g class="gridlayer"><g class="x"><path class="xgrid crisp" transform="translate(216.36,0)" d="M0,100v320" style="stroke: rgb(255, 255, 255); stroke-opacity: 1; stroke-width: 1px;"/><path class="xgrid crisp" transform="translate(313.4,0)" d="M0,100v320" style="stroke: rgb(255, 255, 255); stroke-opacity: 1; stroke-width: 1px;"/><path class="xgrid crisp" transform="translate(410.44,0)" d="M0,100v320" style="stroke: rgb(255, 255, 255); stroke-opacity: 1; stroke-width: 1px;"/><path class="xgrid crisp" transform="translate(507.49,0)" d="M0,100v320" style="stroke: rgb(255, 255, 255); stroke-opacity: 1; stroke-width: 1px;"/><path class="xgrid crisp" transform="translate(604.53,0)" d="M0,100v320" style="stroke: rgb(255, 255, 255); stroke-opacity: 1; stroke-width: 1px;"/></g><g class="y"><path class="ygrid crisp" transform="translate(0,356.33)" d="M131,0h489" style="stroke: rgb(255, 255, 255); stroke-opacity: 1; stroke-width: 1px;"/><path class="ygrid crisp" transform="translate(0,308.64)" d="M131,0h489" style="stroke: rgb(255, 255, 255); stroke-opacity: 1; stroke-width: 1px;"/><path class="ygrid crisp" transform="translate(0,260.96000000000004)" d="M131,0h489" style="stroke: rgb(255, 255, 255); stroke-opacity: 1; stroke-width: 1px;"/><path class="ygrid crisp" transform="translate(0,213.28)" d="M131,0h489" style="stroke: rgb(255, 255, 255); stroke-opacity: 1; stroke-width: 1px;"/><path class="ygrid crisp" transform="translate(0,165.59)" d="M131,0h489" style="stroke: rgb(255, 255, 255); stroke-opacity: 1; stroke-width: 1px;"/><path class="ygrid crisp" transform="translate(0,117.91)" d="M131,0h489" style="stroke: rgb(255, 255, 255); stroke-opacity: 1; stroke-width: 1px;"/></g></g><g class="zerolinelayer"><path class="yzl zl crisp" transform="translate(0,404.01)" d="M131,0h489" style="stroke: rgb(255, 255, 255); stroke-opacity: 1; stroke-width: 2px;"/></g><path class="xlines-below"/><path class="ylines-below"/><g class="overlines-below"/><g class="xaxislayer-below"/><g class="yaxislayer-below"/><g class="overaxes-below"/><g class="plot" transform="translate(131,100)" clip-path="url(#clip658062xyplot)"><g class="scatterlayer mlayer"><g class="trace scatter traceb1a07a" style="stroke-miterlimit: 2; opacity: 1;"><g class="fills"/><g class="errorbars"/><g class="lines"><path class="js-line" d="M0,304L2.23,303.03L2.23,303.02L9.2,299.78L9.2,299.78L9.2,299.77L20.02,294.43L20.02,294.43L20.02,294.42L22.61,293.26L22.61,293.26L22.62,293.25L39.12,285.22L39.12,285.21L42.95,282.85L43.01,282.85L75.78,262.57L75.78,262.56L137.78,224.92L137.91,224.92L202.57,188.26L202.62,188.26L204.72,186.93L204.72,186.92L210.02,183.79L210.03,183.78L212.93,182.11L212.93,182.11L212.93,182.1L214.91,180.86L214.91,180.85L216.25,180.03L216.25,180.03L216.33,180.02L218.52,178.83L218.52,178.83L218.59,178.83L220.07,178L220.07,178L220.15,178L222.75,176.44L222.8,176.43L225.6,174.8L225.6,174.8L225.6,174.79L232.28,171.06L232.28,171.05L234.25,169.81L234.28,169.81L237.17,168.04L237.17,168.03L239.9,166.58L239.9,166.57L244.55,163.77L244.57,163.76L247.3,162.04L247.3,162.04L247.41,162.03L261.2,153.77L261.2,153.77L261.23,153.76L263.12,152.76L263.12,152.75L267.7,150.4L267.83,150.4L270.21,148.95L270.21,148.95L270.37,148.94L274.29,146.95L274.3,146.94L278.07,144.97L278.07,144.97L278.2,144.97L307.93,127.57L308,127.57L310.73,125.73L310.73,125.73L310.73,125.72L316.02,122.61L316.09,122.6L319.1,120.83L319.1,120.83L319.14,120.82L336.51,110.54L336.63,110.53L343.23,106.32L343.37,106.32L349.68,102.73L349.68,102.72L353.65,100.61L353.65,100.6L356.97,98.38L356.97,98.38L356.97,98.37L364.13,93.99L364.21,93.99L382.27,83.14L382.33,83.13L384.36,81.96L384.37,81.95L385.87,80.91L385.91,80.91L394.22,76.01L394.22,76.01L394.32,76L398.69,73.16L398.69,73.16L398.8,73.16L401.43,71.61L401.43,71.61L401.43,71.6L406.14,68.5L406.14,68.5L406.19,68.5L429.06,54.34L429.06,54.34L429.13,54.34L430.91,53.13L430.91,53.13L431.02,53.12L433.25,51.57L433.25,51.57L433.34,51.57L446.45,43.25L446.45,43.24L450.4,40.28L450.45,40.27L472.1,27.11L472.1,27.11L472.14,27.1L475.36,25.3L475.36,25.3L475.38,25.29L489,16" style="vector-effect: non-scaling-stroke; fill: none; stroke: rgb(173, 0, 0); stroke-opacity: 1; stroke-width: 2px; opacity: 1;"/></g><g class="points"/><g class="text"/></g></g></g><g class="overplot"/><path class="xlines-above crisp" d="M0,0" style="fill: none;"/><path class="ylines-above crisp" d="M0,0" style="fill: none;"/><g class="overlines-above"/><g class="xaxislayer-above"><g class="xtick"><text text-anchor="middle" x="0" y="436" transform="translate(216.36,0)" style="font-family: 'Times New Roman'; font-size: 15px; fill: rgb(13, 13, 13); fill-opacity: 1; white-space: pre; opacity: 1;">1.61252×10​<tspan style="font-size:70%" dy="-0.6em">18</tspan><tspan dy="0.42em">​</tspan></text></g><g class="xtick"><text text-anchor="middle" x="0" y="436" style="font-family: 'Times New Roman'; font-size: 15px; fill: rgb(13, 13, 13); fill-opacity: 1; white-space: pre; opacity: 1;" transform="translate(313.4,0)">1.612525×10​<tspan style="font-size:70%" dy="-0.6em">18</tspan><tspan dy="0.42em">​</tspan></text></g><g class="xtick"><text text-anchor="middle" x="0" y="436" style="font-family: 'Times New Roman'; font-size: 15px; fill: rgb(13, 13, 13); fill-opacity: 1; white-space: pre; opacity: 1;" transform="translate(410.44,0)">1.61253×10​<tspan style="font-size:70%" dy="-0.6em">18</tspan><tspan dy="0.42em">​</tspan></text></g><g class="xtick"><text text-anchor="middle" x="0" y="436" style="font-family: 'Times New Roman'; font-size: 15px; fill: rgb(13, 13, 13); fill-opacity: 1; white-space: pre; opacity: 1;" transform="translate(507.49,0)">1.612535×10​<tspan style="font-size:70%" dy="-0.6em">18</tspan><tspan dy="0.42em">​</tspan></text></g><g class="xtick"><text text-anchor="middle" x="0" y="436" style="font-family: 'Times New Roman'; font-size: 15px; fill: rgb(13, 13, 13); fill-opacity: 1; white-space: pre; opacity: 1;" transform="translate(604.53,0)">1.61254×10​<tspan style="font-size:70%" dy="-0.6em">18</tspan><tspan dy="0.42em">​</tspan></text></g></g><g class="yaxislayer-above"><g class="ytick"><text text-anchor="end" x="130" y="12.25" transform="translate(0,404.01)" style="font-family: 'Times New Roman'; font-size: 35px; fill: rgb(13, 13, 13); fill-opacity: 1; white-space: pre; opacity: 1;">0</text></g><g class="ytick"><text text-anchor="end" x="130" y="12.25" style="font-family: 'Times New Roman'; font-size: 35px; fill: rgb(13, 13, 13); fill-opacity: 1; white-space: pre; opacity: 1;" transform="translate(0,356.33)">0.5M</text></g><g class="ytick"><text text-anchor="end" x="130" y="12.25" style="font-family: 'Times New Roman'; font-size: 35px; fill: rgb(13, 13, 13); fill-opacity: 1; white-space: pre; opacity: 1;" transform="translate(0,308.64)">1M</text></g><g class="ytick"><text text-anchor="end" x="130" y="12.25" style="font-family: 'Times New Roman'; font-size: 35px; fill: rgb(13, 13, 13); fill-opacity: 1; white-space: pre; opacity: 1;" transform="translate(0,260.96000000000004)">1.5M</text></g><g class="ytick"><text text-anchor="end" x="130" y="12.25" style="font-family: 'Times New Roman'; font-size: 35px; fill: rgb(13, 13, 13); fill-opacity: 1; white-space: pre; opacity: 1;" transform="translate(0,213.28)">2M</text></g><g class="ytick"><text text-anchor="end" x="130" y="12.25" style="font-family: 'Times New Roman'; font-size: 35px; fill: rgb(13, 13, 13); fill-opacity: 1; white-space: pre; opacity: 1;" transform="translate(0,165.59)">2.5M</text></g><g class="ytick"><text text-anchor="end" x="130" y="12.25" style="font-family: 'Times New Roman'; font-size: 35px; fill: rgb(13, 13, 13); fill-opacity: 1; white-space: pre; opacity: 1;" transform="translate(0,117.91)">3M</text></g></g><g class="overaxes-above"/></g></g><g class="polarlayer"/><g class="smithlayer"/><g class="ternarylayer"/><g class="geolayer"/><g class="funnelarealayer"/><g class="pielayer"/><g class="iciclelayer"/><g class="treemaplayer"/><g class="sunburstlayer"/><g class="glimages"/><defs id="topdefs-658062"><g class="clips"/></defs><g class="layer-above"><g class="imagelayer"/><g class="shapelayer"/></g><g class="infolayer"><g class="g-gtitle"/><g class="g-xtitle"><text class="xtitle" x="375.5" y="463.8" text-anchor="middle" style="font-family: 'Open Sans', verdana, arial, sans-serif; font-size: 14px; fill: rgb(42, 63, 95); opacity: 1; font-weight: normal; white-space: pre;">Time Steps (ns)</text></g><g class="g-ytitle" transform="translate(23.875,0)"><text class="ytitle" transform="rotate(-90,12.125,260)" x="12.125" y="260" text-anchor="middle" style="font-family: 'Times New Roman'; font-size: 40px; fill: rgb(13, 13, 13); opacity: 1; font-weight: normal; white-space: pre;">Cum. qty. executed securites</text></g></g></svg>