<svg class="main-svg" xmlns="http://www.w3.org/2000/svg" xmlns:xlink="http://www.w3.org/1999/xlink" width="700" height="500" style="" viewBox="0 0 700 500"><rect x="0" y="0" width="700" height="500" style="fill: rgb(255, 255, 255); fill-opacity: 1;"/><defs id="defs-fb4680"><g class="clips"><clipPath id="clipfb4680xyplot" class="plotclip"><rect width="494" height="320"/></clipPath><clipPath class="axesclip" id="clipfb4680x"><rect x="126" y="0" width="494" height="500"/></clipPath><clipPath class="axesclip" id="clipfb4680y"><rect x="0" y="100" width="700" height="320"/></clipPath><clipPath class="axesclip" id="clipfb4680xy"><rect x="126" y="100" width="494" height="320"/></clipPath></g><g class="gradients"/><g class="patterns"/></defs><g class="bglayer"><rect class="bg" x="126" y="100" width="494" height="320" style="fill: rgb(229, 236, 246); fill-opacity: 1; stroke-width: 0;"/></g><g class="layer-below"><g class="imagelayer"/><g class="shapelayer"/></g><g class="cartesianlayer"><g class="subplot xy"><g class="layer-subplot"><g class="shapelayer"/><g class="imagelayer"/></g><g class="minor-gridlayer"><g class="x"/><g class="y"/></g><g class="gridlayer"><g class="x"><path class="xgrid crisp" transform="translate(212.22,0)" d="M0,100v320" style="stroke: rgb(255, 255, 255); stroke-opacity: 1; stroke-width: 1px;"/><path class="xgrid crisp" transform="translate(310.25,0)" d="M0,100v320" style="stroke: rgb(255, 255, 255); stroke-opacity: 1; stroke-width: 1px;"/><path class="xgrid crisp" transform="translate(408.28,0)" d="M0,100v320" style="stroke: rgb(255, 255, 255); stroke-opacity: 1; stroke-width: 1px;"/><path class="xgrid crisp" transform="translate(506.3,0)" d="M0,100v320" style="stroke: rgb(255, 255, 255); stroke-opacity: 1; stroke-width: 1px;"/><path class="xgrid crisp" transform="translate(604.3299999999999,0)" d="M0,100v320" style="stroke: rgb(255, 255, 255); stroke-opacity: 1; stroke-width: 1px;"/></g><g class="y"><path class="ygrid crisp" transform="translate(0,357.38)" d="M126,0h494" style="stroke: rgb(255, 255, 255); stroke-opacity: 1; stroke-width: 1px;"/><path class="ygrid crisp" transform="translate(0,310.75)" d="M126,0h494" style="stroke: rgb(255, 255, 255); stroke-opacity: 1; stroke-width: 1px;"/><path class="ygrid crisp" transform="translate(0,264.13)" d="M126,0h494" style="stroke: rgb(255, 255, 255); stroke-opacity: 1; stroke-width: 1px;"/><path class="ygrid crisp" transform="translate(0,217.5)" d="M126,0h494" style="stroke: rgb(255, 255, 255); stroke-opacity: 1; stroke-width: 1px;"/><path class="ygrid crisp" transform="translate(0,170.88)" d="M126,0h494" style="stroke: rgb(255, 255, 255); stroke-opacity: 1; stroke-width: 1px;"/><path class="ygrid crisp" transform="translate(0,124.25)" d="M126,0h494" style="stroke: rgb(255, 255, 255); stroke-opacity: 1; stroke-width: 1px;"/></g></g><g class="zerolinelayer"><path class="yzl zl crisp" transform="translate(0,404)" d="M126,0h494" style="stroke: rgb(255, 255, 255); stroke-opacity: 1; stroke-width: 2px;"/></g><path class="xlines-below"/><path class="ylines-below"/><g class="overlines-below"/><g class="xaxislayer-below"/><g class="yaxislayer-below"/><g class="overaxes-below"/><g class="plot" transform="translate(126,100)" clip-path="url(#clipfb4680xyplot)"><g class="scatterlayer mlayer"><g class="trace scatter tracea28300" style="stroke-miterlimit: 2; opacity: 1;"><g class="fills"/><g class="errorbars"/><g class="lines"><path class="js-line" d="M0,304L8.41,300.01L8.41,300.01L8.41,299.99L13.79,297.48L13.79,297.48L13.9,297.47L31.39,289.29L31.39,289.27L34.3,287.92L34.3,287.92L34.35,287.92L37.44,286.4L37.44,286.4L37.51,286.4L38.69,285.6L38.69,285.6L38.82,285.59L42.66,283.26L42.66,283.25L50.22,278.72L50.22,278.72L50.22,278.7L55.8,274.85L55.8,274.85L55.81,274.83L57.57,273.85L57.57,273.85L57.63,273.84L60.42,272.12L60.42,272.11L81.45,259.45L81.45,259.45L81.5,259.45L86.03,257.03L86.03,257.03L86.09,257.03L89.93,254.7L89.93,254.7L89.93,254.68L91.99,253.58L91.99,253.58L91.99,253.57L94.23,252.38L94.23,252.38L94.28,252.37L102.92,248.13L102.92,248.12L105.17,246.88L105.21,246.87L108.68,245.11L108.71,245.11L120.83,238.65L120.9,238.65L126.94,235.25L126.94,235.25L126.94,235.24L128.8,234.11L128.8,234.11L128.8,234.1L134.05,231.08L134.05,231.07L144.42,225.96L144.42,225.96L144.46,225.96L148.71,223.69L148.74,223.69L149.53,223.14L149.53,223.14L149.61,223.13L155,219.95L155,219.95L155.07,219.94L159.84,217.25L159.84,217.25L159.9,217.24L162.23,215.79L162.23,215.79L162.25,215.78L168.41,212.04L168.41,212L174.07,208.54L174.11,208.54L176.03,207.4L176.03,207.4L176.1,207.39L181.42,204.38L181.42,204.36L187.48,200.22L187.48,200.22L187.49,200.22L195.97,195.24L196.04,195.23L200.67,192.67L200.7,192.67L205.6,189.93L205.6,189.93L205.6,189.91L207.02,188.89L207.02,188.89L207.02,188.88L210.17,186.78L210.18,186.77L213.99,184.63L213.99,184.62L222.11,180.05L222.11,180.04L228.73,176.51L228.73,176.49L230.89,175.05L230.89,175.05L230.91,175.05L234.96,172.51L234.98,172.47L240.3,169.13L240.3,169.13L240.36,169.13L250.37,164.13L250.37,164.11L255.39,161.25L255.39,161.25L255.46,161.25L256.73,160.36L256.77,160.36L264.27,156.56L264.27,156.56L264.28,156.54L266.1,155.47L266.18,155.47L269.84,153.98L269.84,153.97L274.67,151.25L274.67,151.25L274.67,151.23L275.51,150.65L275.53,150.65L277.38,149.43L277.38,149.43L277.49,149.42L280.67,147.64L280.67,147.64L280.79,147.63L309.58,130.24L309.58,130.23L349.03,107.17L349.03,107.17L349.04,107.16L374.56,92.36L374.56,92.36L374.63,92.35L377.4,90.58L377.4,90.58L377.45,90.58L386.35,86.35L386.35,86.35L386.35,86.32L400.7,76.97L400.7,76.95L401.88,76.22L401.92,76.22L404.03,75.05L404.03,75.05L404.07,75.05L414.78,68.58L414.78,68.57L417.85,66.77L417.85,66.75L419.72,65.57L419.72,65.57L419.82,65.57L423.93,63.05L423.93,63.05L423.97,63.05L430.67,58.73L430.67,58.73L430.69,58.73L433.72,56.5L433.72,56.49L437.23,54.61L437.24,54.6L441.24,51.92L441.24,51.92L441.24,51.91L443.32,50.29L443.32,50.28L445.41,48.66L445.41,48.66L445.47,48.66L450.75,45.15L450.75,45.15L450.78,45.15L463.8,35.99L463.88,35.99L474.2,29.64L474.23,29.64L481.75,24.2L481.75,24.2L481.75,24.19L483.23,23.2L483.23,23.19L492.09,17.4L492.09,17.4L492.09,17.39L493.3,16.43L493.3,16.43L493.38,16.41L494,16L494,16" style="vector-effect: non-scaling-stroke; fill: none; stroke: rgb(1, 102, 30); stroke-opacity: 1; stroke-width: 2px; opacity: 1;"/></g><g class="points"/><g class="text"/></g></g></g><g class="overplot"/><path class="xlines-above crisp" d="M0,0" style="fill: none;"/><path class="ylines-above crisp" d="M0,0" style="fill: none;"/><g class="overlines-above"/><g class="xaxislayer-above"><g class="xtick"><text text-anchor="middle" x="0" y="436" transform="translate(212.22,0)" style="font-family: 'Times New Roman'; font-size: 15px; fill: rgb(13, 13, 13); fill-opacity: 1; white-space: pre; opacity: 1;">1.61252×10​<tspan style="font-size:70%" dy="-0.6em">18</tspan><tspan dy="0.42em">​</tspan></text></g><g class="xtick"><text text-anchor="middle" x="0" y="436" style="font-family: 'Times New Roman'; font-size: 15px; fill: rgb(13, 13, 13); fill-opacity: 1; white-space: pre; opacity: 1;" transform="translate(310.25,0)">1.612525×10​<tspan style="font-size:70%" dy="-0.6em">18</tspan><tspan dy="0.42em">​</tspan></text></g><g class="xtick"><text text-anchor="middle" x="0" y="436" style="font-family: 'Times New Roman'; font-size: 15px; fill: rgb(13, 13, 13); fill-opacity: 1; white-space: pre; opacity: 1;" transform="translate(408.28,0)">1.61253×10​<tspan style="font-size:70%" dy="-0.6em">18</tspan><tspan dy="0.42em">​</tspan></text></g><g class="xtick"><text text-anchor="middle" x="0" y="436" style="font-family: 'Times New Roman'; font-size: 15px; fill: rgb(13, 13, 13); fill-opacity: 1; white-space: pre; opacity: 1;" transform="translate(506.3,0)">1.612535×10​<tspan style="font-size:70%" dy="-0.6em">18</tspan><tspan dy="0.42em">​</tspan></text></g><g class="xtick"><text text-anchor="middle" x="0" y="436" style="font-family: 'Times New Roman'; font-size: 15px; fill: rgb(13, 13, 13); fill-opacity: 1; white-space: pre; opacity: 1;" transform="translate(604.3299999999999,0)">1.61254×10​<tspan style="font-size:70%" dy="-0.6em">18</tspan><tspan dy="0.42em">​</tspan></text></g></g><g class="yaxislayer-above"><g class="ytick"><text text-anchor="end" x="125" y="12.25" transform="translate(0,404)" style="font-family: 'Times New Roman'; font-size: 35px; fill: rgb(13, 13, 13); fill-opacity: 1; white-space: pre; opacity: 1;">0</text></g><g class="ytick"><text text-anchor="end" x="125" y="12.25" style="font-family: 'Times New Roman'; font-size: 35px; fill: rgb(13, 13, 13); fill-opacity: 1; white-space: pre; opacity: 1;" transform="translate(0,357.38)">100k</text></g><g class="ytick"><text text-anchor="end" x="125" y="12.25" style="font-family: 'Times New Roman'; font-size: 35px; fill: rgb(13, 13, 13); fill-opacity: 1; white-space: pre; opacity: 1;" transform="translate(0,310.75)">200k</text></g><g class="ytick"><text text-anchor="end" x="125" y="12.25" style="font-family: 'Times New Roman'; font-size: 35px; fill: rgb(13, 13, 13); fill-opacity: 1; white-space: pre; opacity: 1;" transform="translate(0,264.13)">300k</text></g><g class="ytick"><text text-anchor="end" x="125" y="12.25" style="font-family: 'Times New Roman'; font-size: 35px; fill: rgb(13, 13, 13); fill-opacity: 1; white-space: pre; opacity: 1;" transform="translate(0,217.5)">400k</text></g><g class="ytick"><text text-anchor="end" x="125" y="12.25" style="font-family: 'Times New Roman'; font-size: 35px; fill: rgb(13, 13, 13); fill-opacity: 1; white-space: pre; opacity: 1;" transform="translate(0,170.88)">500k</text></g><g class="ytick"><text text-anchor="end" x="125" y="12.25" style="font-family: 'Times New Roman'; font-size: 35px; fill: rgb(13, 13, 13); fill-opacity: 1; white-space: pre; opacity: 1;" transform="translate(0,124.25)">600k</text></g></g><g class="overaxes-above"/></g></g><g class="polarlayer"/><g class="smithlayer"/><g class="ternarylayer"/><g class="geolayer"/><g class="funnelarealayer"/><g class="pielayer"/><g class="iciclelayer"/><g class="treemaplayer"/><g class="sunburstlayer"/><g class="glimages"/><defs id="topdefs-fb4680"><g class="clips"/></defs><g class="layer-above"><g class="imagelayer"/><g class="shapelayer"/></g><g class="infolayer"><g class="g-gtitle"/><g class="g-xtitle"><text class="xtitle" x="373" y="463.8" text-anchor="middle" style="font-family: 'Open Sans', verdana, arial, sans-serif; font-size: 14px; fill: rgb(42, 63, 95); opacity: 1; font-weight: normal; white-space: pre;">Time Steps (ns)</text></g><g class="g-ytitle" transform="translate(24,0)"><text class="ytitle" transform="rotate(-90,12,260)" x="12" y="260" text-anchor="middle" style="font-family: 'Times New Roman'; font-size: 40px; fill: rgb(13, 13, 13); opacity: 1; font-weight: normal; white-space: pre;">Turnaround (in $)</text></g></g></svg>