<svg class="main-svg" xmlns="http://www.w3.org/2000/svg" xmlns:xlink="http://www.w3.org/1999/xlink" width="700" height="500" style="" viewBox="0 0 700 500"><rect x="0" y="0" width="700" height="500" style="fill: rgb(255, 255, 255); fill-opacity: 1;"/><defs id="defs-6ac207"><g class="clips"><clipPath id="clip6ac207xyplot" class="plotclip"><rect width="494" height="320"/></clipPath><clipPath class="axesclip" id="clip6ac207x"><rect x="126" y="0" width="494" height="500"/></clipPath><clipPath class="axesclip" id="clip6ac207y"><rect x="0" y="100" width="700" height="320"/></clipPath><clipPath class="axesclip" id="clip6ac207xy"><rect x="126" y="100" width="494" height="320"/></clipPath></g><g class="gradients"/><g class="patterns"/></defs><g class="bglayer"><rect class="bg" x="126" y="100" width="494" height="320" style="fill: rgb(229, 236, 246); fill-opacity: 1; stroke-width: 0;"/></g><g class="layer-below"><g class="imagelayer"/><g class="shapelayer"/></g><g class="cartesianlayer"><g class="subplot xy"><g class="layer-subplot"><g class="shapelayer"/><g class="imagelayer"/></g><g class="minor-gridlayer"><g class="x"/><g class="y"/></g><g class="gridlayer"><g class="x"><path class="xgrid crisp" transform="translate(212.18,0)" d="M0,100v320" style="stroke: rgb(255, 255, 255); stroke-opacity: 1; stroke-width: 1px;"/><path class="xgrid crisp" transform="translate(310.22,0)" d="M0,100v320" style="stroke: rgb(255, 255, 255); stroke-opacity: 1; stroke-width: 1px;"/><path class="xgrid crisp" transform="translate(408.27,0)" d="M0,100v320" style="stroke: rgb(255, 255, 255); stroke-opacity: 1; stroke-width: 1px;"/><path class="xgrid crisp" transform="translate(506.31,0)" d="M0,100v320" style="stroke: rgb(255, 255, 255); stroke-opacity: 1; stroke-width: 1px;"/><path class="xgrid crisp" transform="translate(604.35,0)" d="M0,100v320" style="stroke: rgb(255, 255, 255); stroke-opacity: 1; stroke-width: 1px;"/></g><g class="y"><path class="ygrid crisp" transform="translate(0,366.69)" d="M126,0h494" style="stroke: rgb(255, 255, 255); stroke-opacity: 1; stroke-width: 1px;"/><path class="ygrid crisp" transform="translate(0,329.38)" d="M126,0h494" style="stroke: rgb(255, 255, 255); stroke-opacity: 1; stroke-width: 1px;"/><path class="ygrid crisp" transform="translate(0,292.07)" d="M126,0h494" style="stroke: rgb(255, 255, 255); stroke-opacity: 1; stroke-width: 1px;"/><path class="ygrid crisp" transform="translate(0,254.76)" d="M126,0h494" style="stroke: rgb(255, 255, 255); stroke-opacity: 1; stroke-width: 1px;"/><path class="ygrid crisp" transform="translate(0,217.45)" d="M126,0h494" style="stroke: rgb(255, 255, 255); stroke-opacity: 1; stroke-width: 1px;"/><path class="ygrid crisp" transform="translate(0,180.14)" d="M126,0h494" style="stroke: rgb(255, 255, 255); stroke-opacity: 1; stroke-width: 1px;"/><path class="ygrid crisp" transform="translate(0,142.82999999999998)" d="M126,0h494" style="stroke: rgb(255, 255, 255); stroke-opacity: 1; stroke-width: 1px;"/><path class="ygrid crisp" transform="translate(0,105.52)" d="M126,0h494" style="stroke: rgb(255, 255, 255); stroke-opacity: 1; stroke-width: 1px;"/></g></g><g class="zerolinelayer"><path class="yzl zl crisp" transform="translate(0,404)" d="M126,0h494" style="stroke: rgb(255, 255, 255); stroke-opacity: 1; stroke-width: 2px;"/></g><path class="xlines-below"/><path class="ylines-below"/><g class="overlines-below"/><g class="xaxislayer-below"/><g class="yaxislayer-below"/><g class="overaxes-below"/><g class="plot" transform="translate(126,100)" clip-path="url(#clip6ac207xyplot)"><g class="scatterlayer mlayer"><g class="trace scatter trace6a606b" style="stroke-miterlimit: 2; opacity: 1;"><g class="fills"/><g class="errorbars"/><g class="lines"><path class="js-line" d="M0,303.97L0.18,304L0.72,302.09L0.83,304L1.57,302.43L1.57,303.7L1.62,304L1.81,304L1.81,301.91L2.29,301.53L2.55,304L2.55,304L2.57,303.49L2.67,304L2.91,300.05L2.94,303.96L2.94,293.26L2.94,292.75L3.03,304L3.64,301.47L3.71,304L3.84,303.88L3.88,304L3.98,302.72L3.98,304L4.22,301.61L4.71,304L4.81,303.2L4.81,304L5.17,299.98L5.55,304L5.58,302.68L5.8,281.85L6.19,304L6.19,295.6L6.45,288.71L6.95,304L7.04,301.38L7.04,304L7.16,298.78L7.73,303.86L7.81,304L8.36,289.82L8.54,303.97L8.56,304L9.2,302.84L9.26,303.81L9.53,303.13L9.91,299.97L10.29,304L10.4,304L11.11,298.55L11.16,303.92L11.22,303.75L11.28,297.9L12.04,304L12.04,303.93L12.14,302.81L12.14,304L12.87,303.72L12.9,303.9L12.94,304L13.55,296.01L13.63,304L13.66,303.63L13.68,280.99L14.32,304L14.32,303.68L14.47,304L14.95,294.21L15.19,304L15.24,303.58L15.51,300.91L15.85,304L15.87,303.63L15.87,302.23L15.87,304L16.4,260.18L16.57,303.62L16.67,303.64L16.94,302.99L17.22,304L17.22,301.66L17.28,298.35L17.96,304L18.02,304L18.72,294.73L18.74,304L18.85,304L19.51,301.51L19.55,304L20,303.35L20.21,304L20.21,297.64L20.21,288.02L20.24,304L20.95,303.87L20.98,303.89L21.09,304L21.13,300.13L21.69,304L21.7,304L22.03,294.39L22.3,304L22.4,304L23.12,298.8L23.13,304L23.21,303.8L23.49,302.93L23.55,304L23.55,304L23.55,302.2L23.83,300.91L24.18,304L24.24,302.98L24.45,304L25.12,301.39L25.18,304L25.22,304L25.67,295.04L25.74,304L25.84,304L25.88,293.96L25.88,304L25.96,303.97L25.98,298.6L25.98,304L26.31,303.26L26.31,304L26.54,300.58L26.54,299.38L27.12,287.86L27.25,304L27.41,301.88L27.58,300.45L28.18,304L28.24,303.26L28.24,304L28.91,297.26L28.95,304L29,304L29.59,301.49L29.74,303.9L29.84,303.27L29.84,304L30.51,294.17L30.57,304L30.64,304L30.66,288.53L31.07,303.51L31.11,304L31.28,302.54L31.69,303.29L31.75,304L32,301.95L32.49,303.65L32.59,304L32.85,296.18L33.27,304L33.33,304L33.34,300.44L34.08,304L34.09,302L34.09,304L34.55,300.28L34.81,304L34.94,304L35.08,302.08L35.13,304L35.16,295.03L35.16,304L35.91,304L35.92,304L35.92,284.13L36.67,304L36.7,300.68L37.16,296.76L37.36,304L37.37,283.99L37.37,304L38.12,304L38.18,304L38.43,298.83L38.43,298.73L38.47,297.9L39.11,304L39.19,303L39.21,302.59L39.78,299.89L39.91,304L39.91,303.39L40.02,303.63L40.06,304L40.06,295.94L40.1,304L40.78,303.36L40.84,303.77L41.04,301.6L41.45,304L41.49,297.7L41.49,304L41.61,293.47L42.24,304L42.25,303.28L42.31,304L42.34,299.3L42.79,304L42.83,304L43.13,300.77L43.57,303.85L43.67,304L44.02,300.62L44.34,304L44.43,303.88L44.53,304L44.53,303.99L44.53,301.79L44.96,299.78L45.26,304L45.26,297.86L45.26,304L45.99,303.95L46.06,303.42L46.14,304L46.4,301.44L46.71,303.8L46.78,303.72L47.11,304L47.11,298.42L47.11,287.4L47.11,304L47.19,287.14L47.85,304L47.92,303.73L47.92,304L48.38,295.19L48.65,303.91L48.71,303.77L48.77,300.24L49.44,304L49.44,303.77L49.46,303.07L49.9,301.11L50.15,304L50.27,303.73L50.44,298.56L50.92,304L50.99,303.12L50.99,304L51.67,300.15L51.68,304L51.77,303.91L51.84,304L52.24,295.93L52.4,303.6L52.43,304L53.04,300.24L53.15,304L53.2,304L53.24,289.18L53.73,303.35L53.75,304L53.97,300.5L54.17,304L54.21,304L54.29,295.65L54.64,303.31L54.72,304L55.4,298.23L55.46,304L55.48,302.56L55.48,304L56.09,252.85L56.19,303.63L56.28,304L56.68,301.28L56.93,304L57.07,304L57.26,304L57.26,304L57.28,303.16L57.28,304L58.01,297.52L58.04,303.68L58.04,304L58.23,298.54L58.79,303.91L58.83,304L59.07,302.46L59.13,304L59.13,290.78L59.2,304L59.87,304L59.92,304L60.29,289.57L60.63,303.93L60.68,302.72L60.86,301.98L60.92,304L60.97,287.51L60.97,304L61.64,301.82L61.79,304L62.42,302.01L62.54,304L62.55,304L62.64,302.06L63.06,302.59L63.14,303.98L63.27,304L63.55,298.48L63.9,303.14L63.9,304L63.99,302.62L64.02,304L64.02,296.62L64.05,296.4L64.05,304L64.05,296.38L64.77,303.99L64.81,304L65.59,302.05L65.6,303.95L65.65,304L66.25,298.36L66.33,304L66.35,304L66.79,300.01L67.08,303.36L67.12,304L67.49,293.34L67.86,303.99L67.88,303.14L67.88,304L68.42,301.1L68.61,304L68.67,303.94L68.68,304L69.35,297.56L69.4,304L69.45,304L70.14,299.22L70.2,303.77L70.32,303.52L70.32,304L71.03,297.91L71.07,304L71.08,303.78L71.37,302.9L71.79,304L71.79,303.49L71.79,302.94L71.87,304L72.16,298.53L72.51,303.95L72.54,303.7L72.55,304L72.8,301.13L73.28,303.95L73.29,304L73.83,295.92L74.03,304L74.1,303.58L74.11,295.86L74.81,304L74.85,303.15L75.02,300.45L75.54,304L75.54,303.31L75.55,294.55L76.3,304L76.3,303.47L76.36,303.22L76.36,304L76.94,301.37L77.01,304L77.12,302.56L77.6,290.05L77.8,304L77.81,302.49L77.91,303.86L77.97,304L78.58,291.31L78.66,303.21L78.66,304L79.11,277.82L79.41,304L79.43,304L79.95,300.58L80.16,303.9L80.25,304L80.73,297L80.97,304L81.03,304L81.14,302.63L81.77,304L81.86,304L82.22,300.94L82.52,303.93L82.58,304L82.8,298.18L83.31,304L83.35,304L83.42,298.22L84.09,304L84.11,303.38L84.12,303.17L84.66,304L84.66,303.87L84.66,290.68L84.86,280.76L85.39,304L85.4,278.39L85.4,304L86.15,304L86.19,303.6L86.45,296.5L86.89,304L86.91,303.6L86.96,303.57L86.98,304L87.33,286.92L87.71,303.53L87.72,303.22L88.38,297.17L88.45,304L88.45,303.9L88.52,304L88.88,292.77L88.93,296.23L88.95,303.94L89.03,304L89.41,301.19L89.71,301.83L89.71,304L90.08,302.27L90.46,303.23L90.46,304L91.1,299.61L91.17,303.78L91.23,303.71L91.6,302.12L91.6,304L91.62,303.72L91.62,299.29L91.66,304L92.36,303.95L92.39,303.72L92.39,304L92.66,292.49L93.12,303.59L93.18,304L93.89,301.82L93.92,304L93.94,303.84L94.07,297.66L94.53,304L94.6,303.11L94.6,300.08L95.3,304L95.34,303.8L95.38,303.86L95.63,303.03L95.8,304L95.8,302.45L96.09,298.4L96.49,304L96.49,303.96L96.56,303.77L96.56,304L97.31,226.61L97.36,304L97.48,203.26L98.09,303.94L98.12,303.88L98.15,304L98.43,296.17L98.48,303.85L98.51,304L98.77,301.95L99.07,303.95L99.08,303.96L99.12,304L99.14,299.72L99.82,303.78L99.85,303.87L99.98,304L100.11,300.96L100.6,302.54L100.69,303.73L100.69,304L101.06,294.94L101.44,300.77L101.45,304L101.75,299.54L102.21,300.88L102.21,304L102.51,299.36L102.88,304L102.91,303.9L103.06,304L103.08,302.27L103.41,302.46L103.49,304L104.06,295.1L104.24,304L104.3,304L105.05,297.58L105.08,303.89L105.11,298.91L105.11,304L105.82,304L105.95,304L106.06,302.81L106.08,303.02L106.08,298.52L106.1,297.76L106.72,304L106.76,303.65L106.95,304L107.37,297.96L107.67,304L107.7,304L108.2,302.42L108.44,304L108.46,304L108.93,301.88L108.93,297.1L108.93,304L109.07,291.47L109.68,303.42L109.73,304L110.37,277.49L110.47,303.5L110.5,303.65L110.5,304L110.91,287.66L111.25,304L111.26,304L111.29,301.51L111.98,303.96L112.03,304L112.33,299.09L112.64,303.66L112.67,303.94L112.7,304L112.8,296.66L113.41,303.91L113.45,303.86L113.59,304L113.84,299.44L114.07,304L114.08,304L114.38,302.35L114.41,304L114.41,82.43L114.47,304L115.15,304L115.18,303.54L115.25,304L115.27,296.64L115.92,298.76L115.94,304L115.97,298.48L116.52,302.96L116.59,304L116.7,303.3L116.71,304L116.71,300.94L117.45,304L117.45,303.98L117.5,303.69L117.53,304L118.12,283.14L118.22,304L118.25,304L118.91,291.92L118.91,304L119.48,288.59L119.61,303.84L119.73,304L120.45,284.72L120.46,303.98L120.5,303.69L120.76,302.47L120.77,304L120.78,302.19L120.81,304L121.16,294.48L121.53,303.82L121.54,304L122.13,298.66L122.13,301.71L122.13,304L122.34,303.75L122.35,300.86L122.37,304L122.38,297.57L123.08,303.3L123.14,304L123.34,303.99L123.38,303.15L123.41,304L123.75,301.36L124.09,303.43L124.14,302.88L124.14,304L124.78,297.17L124.81,300.02L124.92,303.92L124.98,304L125.43,291.52L125.67,298.67L125.68,304L125.68,289.53L126.42,304L126.49,303.71L126.6,301.13L126.93,304L126.93,303.78L126.94,301.81L126.94,304L127.62,293.59L127.67,303.95L127.71,304L127.77,302.27L128.44,304L128.49,303.89L128.57,304L128.94,301.34L128.94,303.78L128.94,304L129.03,303.77L129.05,304L129.05,300.41L129.66,286.53L129.76,304L129.8,303.87L129.83,303.89L129.85,304L130.03,296.23L130.52,304L130.59,304L131.31,294.19L131.32,304L131.35,304L131.59,302.46L131.96,303.77L132.03,304L132.4,297.65L132.78,302.2L132.79,303.93L132.8,304L133.5,298.61L133.54,299.2L133.56,303.92L133.64,304L133.81,301.28L134.27,304L134.35,303.25L134.86,296.04L135.05,304L135.05,303.83L135.12,304L135.64,293L135.86,302.96L135.91,291.98L135.91,304L136.13,281.01L136.65,303.99L136.72,304L137.15,298.88L137.47,303.69L137.49,303.94L137.54,304L137.56,298.61L138.23,304L138.28,303.87L138.33,304L138.42,302.73L138.47,302.84L138.48,300.7L138.48,304L138.93,290.85L139.23,304L139.28,304L139.38,301.74L139.39,248.93L140.15,304L140.18,303.95L140.25,304L140.36,283.14L140.4,303.86L140.41,303.89L140.71,302.75L140.74,304L140.81,302.16L141.23,303.81L141.26,304L141.64,300.76L141.66,303.26L141.88,304L142.41,302.08L142.62,303.69L142.62,304L143.22,297.01L143.35,303.47L143.39,304L143.5,302.97L144.03,304L144.1,304L144.15,302.27L144.78,303.97L144.87,304L145.58,287.1L145.62,304L145.68,304L146.3,301.41L146.39,304L146.44,304L146.52,298.75L147.17,302.86L147.22,303.8L147.51,302.42L147.67,304L147.68,303.85L147.71,302.35L147.71,304L148.46,297.95L148.47,303.93L148.48,304L148.79,292.65L149.09,303.82L149.13,304L149.4,300.73L149.88,303.6L149.89,304L150.03,302.66L150.03,300.54L150.03,304L150.67,279.29L150.76,304L150.84,303.19L151.31,298.39L151.48,304L151.51,302.43L151.52,299.24L151.52,304L151.67,285.72L152.21,300.55L152.28,303.94L152.53,304L152.62,302.34L152.62,304L153.03,284.9L153.35,303.14L153.4,304L153.96,300.25L154.14,303.96L154.16,304L154.41,298.35L154.91,303.9L154.96,304L155.04,303.77L155.04,304L155.04,301.02L155.22,298.87L155.8,304L155.8,303.65L155.87,303.75L156.01,301.83L156.52,304L156.52,303.98L156.52,299.27L156.58,304L157.27,303.4L157.3,304L157.42,295.8L157.68,304L157.73,304L158.2,300.84L158.47,304L158.52,304L158.63,295.32L159.27,303.3L159.29,303.93L159.4,304L159.77,302.91L159.77,304L160.14,299.96L160.14,304L160.14,291.24L160.16,289.43L160.16,304L160.74,304L160.79,304L161.46,294.48L161.53,303.99L161.56,304L161.76,302.06L162.04,303.68L162.04,304L162.57,297.47L162.79,303.88L162.91,303.38L162.91,304L163.38,276.77L163.63,303.89L163.72,303.68L163.72,304L164.09,301.18L164.43,303.76L164.52,303.49L164.52,304L164.88,297.87L165.27,303.97L165.28,303.95L165.37,304L165.4,301.52L166.02,304L166.03,304L166.39,300.88L166.72,303.93L166.79,303.6L166.81,304L167,299.15L167.53,302.68L167.55,303.94L167.58,304L167.8,300.14L168.29,303.97L168.37,303.68L168.37,304L169.11,296.11L169.11,301.12L169.15,278.15L169.85,304L169.87,303.9L169.95,304L170.7,301.99L170.71,303.83L170.71,304L170.94,299.98L171.41,304L171.5,304L172.18,278.41L172.22,303.84L172.26,304L172.54,302.23L173,303.96L173.07,303.4L173.08,304L173.8,296.93L173.8,304L173.84,303.82L173.84,304L174.05,302.51L174.56,304L174.61,304L175.19,297.11L175.32,303.18L175.4,304L175.44,291.07L176.03,304L176.1,303.65L176.33,304L176.33,302.18L176.33,300.19L176.39,304L176.55,298.94L176.97,304L177.04,302.91L177.04,304L177.48,300.62L177.78,303.55L177.82,304L178.02,299.91L178.17,304L178.18,156.74L178.85,304L178.85,303.78L178.96,303.98L179.01,300.01L179.11,304L179.7,304L179.73,302.71L179.73,304L180.48,303.66L180.5,303.86L180.65,302.94L180.74,304L180.74,304L180.74,302.35L180.88,294.85L181.39,304L181.48,302.05L181.5,302.84L181.82,300.33L182.16,304L182.19,298.62L182.76,290.18L182.91,304L182.91,303.73L183,303.31L183.05,288.91L183.7,304L183.8,303.12L184.1,296.9L184.4,304L184.4,303.53L184.4,295.57L184.4,304L185.13,303.27L185.19,303.82L185.19,304L185.69,301.35L185.87,304L186.01,303.83L186.01,304L186.1,302.19L186.72,303.54L186.79,304L187.53,301.77L187.53,304L187.55,303.91L187.57,304L188.1,296.4L188.27,304L188.41,303.08L188.41,304L189.1,302.63L189.16,303.28L189.17,304L189.95,298.36L189.95,304L190.41,296.94L190.69,304L190.71,304L190.71,293.17L191.45,304L191.47,303.95L191.56,304L191.66,301.05L192.17,303.98L192.19,303.93L192.21,304L192.57,280.5L192.93,302.18L192.99,304L193.15,300.22L193.49,304L193.51,304L194.05,242.77L194.24,303.96L194.31,304L194.89,301.99L195,304L195.11,303.79L195.11,304L195.82,279.25L195.84,303.7L195.87,304L195.98,303.49L196,304L196.01,298.66L196.27,296.44L196.85,304L196.91,303.45L196.98,300.67L197.49,304L197.52,303.48L197.61,302.67L197.61,304L197.77,297.66L198.35,304L198.38,303.9L198.41,293.19L198.45,304L199.11,303.97L199.18,304L199.6,300.96L199.6,302.1L199.6,283.48L199.6,304L200.35,303.51L200.38,302.62L200.38,304L201.13,294.85L201.13,299.97L201.16,303.9L201.37,304L201.68,302.27L201.72,304L201.8,304L202.1,298.42L202.51,304L202.61,304L202.75,302.05L203.25,302.14L203.26,303.97L203.31,304L203.89,294.1L204.01,298.96L204.01,304L204.02,293.27L204.72,304L204.79,303.45L204.79,304L205.02,298.75L205.53,303.98L205.58,303.86L206.01,303.21L206.13,304L206.16,288.8L206.89,304L206.89,303.6L206.94,302.55L207.28,292.97L207.67,304L207.67,303.99L207.71,302.09L207.71,304L207.95,300.77L208.46,303.02L208.47,300.49L208.47,304L208.57,299.24L209.22,303.93L209.28,303.48L209.29,304L209.81,300.29L209.99,304L210.04,303.49L210.04,296.71L210.13,304L210.78,304L210.8,303.63L211.05,300.73L211.56,304L211.56,303.91L211.63,303.75L211.67,304L211.72,304L211.78,301.76L212.14,299.06L212.55,304L212.58,303.48L212.6,304L212.99,294.56L213.33,302.51L213.34,304L214.16,293.84L214.17,303.97L214.28,304L214.41,291.58L214.92,303.77L214.94,303.9L215.02,304L215.26,296.79L215.39,303.02L215.41,304L215.98,301.66L216.13,304L216.19,304L216.58,293.93L216.92,304L216.96,304L217.23,300.34L217.67,303.8L217.73,304L217.83,297.87L218.43,303.96L218.58,304L219.02,298.16L219.12,303.74L219.12,304L219.51,293.27L219.82,303.5L219.95,302.64L220.05,301.28L220.1,304L220.52,303.39L220.68,303.69L220.68,304L221.01,295.84L221.41,304L221.44,303.41L221.44,304L221.96,289.79L222.17,303.85L222.22,304L222.9,298.65L222.95,304L222.97,304L223.47,299.91L223.7,303.78L223.77,304L223.79,293.99L224.43,301.26L224.46,304L224.9,302.16L225.08,303.45L225.08,288.28L225.27,304L225.66,282.28L225.81,304L225.87,303.79L225.87,304L226.62,300.08L226.62,304L226.7,303.95L226.77,304L227.26,299.81L227.43,303.2L227.46,304L227.54,300.82L227.82,303.63L227.85,304L228.07,298.82L228.54,303.82L228.62,304L228.85,290.6L229.37,304L229.39,304L230.13,295.53L230.15,303.44L230.15,304L230.48,301.99L230.48,302.04L230.48,304L230.64,281.12L231,304L231.08,304L231.31,300.39L231.68,304L231.76,304L231.97,302.5L232.01,304L232.08,296.37L232.1,304L232.3,279.08L232.83,303.78L232.86,302.71L232.86,304L233.34,299.73L233.6,304L233.63,304L233.72,303.55L233.74,304L233.74,297.5L234.49,304L234.49,303.53L234.5,303.62L234.56,304L235.03,291.64L235.21,303.83L235.26,304L235.52,288.98L235.98,302.96L236.05,304L236.69,188.59L236.78,304L236.81,304L237,303.43L237.49,304L237.57,303.42L237.63,304L237.9,137.26L238.29,304L238.36,303.9L238.52,304L238.52,303.74L238.57,302.69L238.57,304L239.22,300.47L239.26,303.85L239.47,304L240.16,300.11L240.22,304L240.24,303.66L240.27,304L240.7,303.12L240.99,303.27L241.02,303.57L241.02,304L241.27,299.85L241.77,303.46L241.8,303.7L241.8,304L242.01,292.97L242.55,303.8L242.6,304L242.97,304L242.97,303.2L243.39,298.74L243.6,304L243.6,289.92L243.75,288.89L244.35,304L244.35,303.99L244.39,304L244.46,301.73L245.02,304L245.05,304L245.27,304L245.27,302.93L245.68,295.32L246.02,304L246.02,303.99L246.05,303.77L246.56,301.27L246.77,304L246.77,303.47L246.78,301.38L246.78,304L247.03,294.71L247.5,303.94L247.54,303.78L247.54,304L247.7,271.98L248.28,299.76L248.35,303.98L248.48,304L248.98,300.96L249.1,303.98L249.18,304L249.68,301.45L249.84,303.66L249.94,304L249.94,300.4L250.63,304L250.75,304L251.42,302.75L251.5,304L251.52,304L252.02,287.76L252.22,304L252.28,304L252.85,299.95L253.01,304L253.07,304L253.32,301.99L253.44,304L253.44,16L254.14,304L254.14,303.51L254.23,303.02L254.37,301.47L254.97,304L254.98,301.38L254.98,304L255.58,295.96L255.7,303.46L255.75,303.9L255.86,304L256.47,298.52L256.48,304L256.56,304L256.99,303.79L257.02,304L257.05,301.95L257.05,304L257.06,281.13L257.74,304L257.81,303.81L257.81,304L258.05,295.34L258.53,303.95L258.59,303.25L258.6,304L259.07,296.85L259.33,303.08L259.36,302.42L259.55,301.35L260.05,304L260.05,297.34L260.8,304L260.84,303.59L260.84,304L261.15,301.7L261.59,303.53L261.6,303.58L261.8,304L261.8,301.82L261.84,304L262.31,299.21L262.31,300.72L262.33,304L262.62,301.2L262.92,301.8L262.99,304L263.15,288.56L263.73,303.95L263.76,304L264.48,242.61L264.51,303.38L264.54,303.97L264.56,304L264.56,288.74L265.24,304L265.28,304L265.36,300.65L265.97,304L266.09,304L266.21,298.58L266.82,304L266.86,304L267.5,298.48L267.55,303.67L267.63,304L268.02,296.48L268.1,303.98L268.22,303.45L268.22,304L268.66,292.1L268.96,303.95L268.99,303.89L269,304L269.06,300.32L269.71,301.75L269.74,304L269.74,287.36L270.48,304L270.51,224.05L271.22,304L271.28,304L271.39,303.33L271.45,303.92L271.46,299.9L272.2,304L272.2,303.82L272.22,303.64L272.22,304L272.6,294.32L272.95,304L272.99,304L273.66,287.76L273.75,303.6L273.75,304L274.32,279.23L274.49,304L274.55,303.66L274.55,304L274.85,251.31L275.27,304L275.34,304L275.41,299.71L275.72,303.86L275.74,304L275.77,300.72L275.82,304L275.83,272.22L275.88,271.87L276.61,304L276.62,303.8L276.63,303.97L276.73,303.61L276.73,297.18L277.37,291.62L277.41,304L277.41,304L277.52,303.82L277.52,304L278.07,294.39L278.24,303.95L278.3,303.79L278.3,304L278.38,300.54L279.04,303.94L279.06,304L279.08,300.03L279.79,304L279.84,304L280.19,299.37L280.52,304L280.61,302.83L280.61,304L281.19,299.63L281.36,304L281.39,304L281.7,291.36L282.1,304L282.11,304L282.41,299.5L282.69,304L282.74,304L282.83,288.46L283.48,303.08L283.51,304L283.72,300.41L283.76,303.87L283.85,304L284,299.18L284.58,304L284.64,304L284.84,302.06L285.37,302.81L285.44,304L285.47,298.5L286.18,303.53L286.22,304L286.37,296.21L286.95,304L286.98,303.54L287.36,299.51L287.51,304L287.56,303.54L287.58,298.62L288.34,304L288.4,303.81L288.4,304L288.84,300.66L289.1,304L289.18,302.74L289.18,304L289.23,290.96L289.92,304L289.96,304L290.03,302.53L290.24,304L290.24,301.54L290.25,300.34L290.25,304L290.95,304L291.01,298.37L291.06,304L291.24,282.92L291.73,304L291.77,303.59L291.77,304L291.89,300.99L292.5,303.76L292.59,303.56L292.62,301.26L292.7,304L293.29,301.97L293.35,303.78L293.88,302.31L293.95,304L293.95,303.49L293.95,301.98L294.24,299.93L294.69,304L294.71,303.95L294.73,303.92L294.77,287.94L294.79,304L295.2,302.11L295.21,303.96L295.28,304L295.58,301.28L295.96,303.94L295.96,303.99L296.58,301.99L296.7,303.99L296.73,303.95L296.94,302.71L296.95,303.96L296.98,304L297.34,278.12L297.71,304L297.77,304L298.43,298.74L298.44,302.54L298.45,292.05L298.45,304L299.12,303.06L299.21,304L299.3,300.17L299.96,304L299.97,303.8L300.47,302.55L300.56,304L300.6,303.24L300.6,302.72L300.6,304L300.8,297.63L301.35,301.92L301.38,304L302.08,300.29L302.08,304L302.45,235.66L302.53,303.71L302.58,304L302.99,300.19L303.3,304L303.34,304L303.57,301.41L303.73,304L303.73,300.01L303.73,304L304.39,293L304.47,302.2L304.51,304L304.84,301.22L304.91,304L304.92,304L305.37,293.16L305.67,303.78L305.69,304L306.25,300.86L306.33,304L306.33,295.51L306.36,294.27L307.1,304L307.1,303.4L307.12,304L307.81,297.22L307.85,303.68L307.9,304L308.52,301.34L308.53,304L308.6,292.74L309.36,304L309.38,303.68L309.41,303.9L309.49,301.9L309.52,304L310.13,303.88L310.19,304L310.35,303.73L310.41,303.91L310.48,299.92L310.81,297.39L311.17,304L311.2,302.55L311.2,292.69L311.56,289.4L311.75,304L311.94,303.45L311.96,303.93L312.12,304L312.57,302.17L312.67,303.95L312.72,304L313.36,191.31L313.47,303.57L313.48,303.25L313.81,302.72L314.26,304L314.3,304L314.36,301.17L315.05,304L315.17,304L315.57,290.3L315.92,303.94L315.96,304L316.46,301.48L316.65,304L316.78,303.18L316.78,304L317.28,296.66L317.53,303.19L317.55,303.91L317.66,304L318.11,302.08L318.11,304L318.14,304L318.57,295.3L318.87,304L318.96,304L319.05,300.25L319.23,303.4L319.23,304L319.27,288.52L319.91,304L320,302.93L320,304L320.52,287.95L320.74,302.67L320.78,304L321.46,297.23L321.53,303.94L321.55,304L321.99,300.71L322.26,303.49L322.27,304L322.95,294.83L323.02,303.93L323.04,303.95L323.25,302.89L323.26,304L323.77,303.26L323.79,304L324.39,300.7L324.54,303.25L324.56,304L324.62,299.83L325.31,304L325.37,304L326.06,300.59L326.06,304L326.69,291L326.78,302.7L326.84,304L327.18,302.33L327.2,288.39L327.2,304L327.2,288.24L327.94,304L327.98,304L328.36,301.53L328.7,302.69L328.7,304L329.42,272.63L329.45,303.99L329.51,303.62L329.84,301.31L330.25,304L330.28,303.71L330.33,304L330.63,299.52L331,304L331.04,304L331.73,301.55L331.78,303.8L331.8,303.66L331.8,304L332.03,300.4L332.49,304L332.58,303.12L332.58,304L332.59,297.03L333.31,304L333.39,304L333.4,297.46L334.14,303.83L334.16,298.85L334.8,298.19L334.91,304L334.91,304L334.97,302.65L335.08,304L335.27,300.59L335.71,303.16L335.75,303.7L335.75,304L336.21,299.37L336.47,304L336.53,296.07L336.53,304L337.28,304L337.32,303.39L337.32,304L337.54,301.49L338.07,303.77L338.14,303.88L338.16,304L338.29,286.43L338.89,303.53L338.94,304L339.02,292.31L339.69,304L339.7,303.66L339.7,304L339.87,42.48L340.45,303.86L340.47,303.99L340.51,304L340.72,299.1L340.83,304L340.88,278.77L341.33,276.23L341.6,304L341.68,303.88L341.71,304L342.22,299.21L342.42,304L342.48,304L343,301.94L343.11,303.97L343.12,294.79L343.9,304L343.9,303.92L343.95,304L344.3,300.24L344.59,303.99L344.63,304L345.28,298.71L345.28,303.8L345.4,304L345.66,301.4L345.8,302.77L345.81,283.9L346.56,304L346.64,304L347.34,296.57L347.35,304L347.43,304L347.94,288.48L348.02,304L348.3,304L348.7,302.19L349.05,304L349.08,303.82L349.08,304L349.12,299.92L349.82,303.93L349.89,304L350.45,294.34L350.63,304L350.65,303.9L350.81,303.21L350.86,303.95L350.87,292.11L350.87,304L351.21,281.77L351.55,303.62L351.63,304L352.11,298L352.36,303.95L352.42,303.78L352.5,304L352.55,295.86L353.17,301.94L353.23,304L353.87,301.76L353.95,303.47L353.95,304L354.59,299.42L354.6,303.66L354.77,303.32L354.88,301.91L355.57,304L355.57,304L355.57,303.63L355.71,303.04L355.9,304L355.9,299.66L356.35,291.57L356.66,304L356.66,303.8L356.84,304L357.3,285.48L357.4,304L357.47,302.41L357.52,304L358.05,299.01L358.21,303.51L358.31,303.86L358.46,303.49L358.48,304L358.48,303.93L358.52,302.33L358.52,304L358.92,301.17L359.27,303.75L359.31,304L359.62,302.27L359.81,304L359.81,295.31L359.81,304L359.88,294.34L360.56,304L360.65,304L360.8,303.31L360.8,304L360.8,293.91L360.82,293.86L361.53,304L361.53,303.16L361.58,304L361.77,299.9L362.05,304L362.13,304L362.82,297.89L362.91,303.66L363.1,304L363.3,301.78L363.58,303.87L363.58,304L363.98,298.24L364.12,303.7L364.14,304L364.68,301.47L364.88,304L364.94,304L365.41,301.5L365.64,303.73L365.7,304L365.82,283.26L366.45,304L366.47,303.49L366.61,302.62L367.26,304L367.27,304L367.27,283.24L368,304L368.03,304L368.78,300.94L368.8,302.78L368.8,304L368.82,287.05L369.53,303.95L369.59,304L370.15,299.41L370.28,304L370.37,304L370.57,301.44L371.12,304L371.13,303.43L371.17,304L371.49,297.15L371.84,304L371.9,303.89L371.96,304L372.58,297.88L372.6,304L372.67,304L372.85,303.52L372.91,304L372.91,283.2L373.7,304L373.7,302.16L373.74,303.13L373.76,286.75L374.48,304L374.48,303.59L374.53,299.95L374.53,304L375.21,295.89L375.27,303.79L375.29,303.51L375.33,304L375.39,291.38L376.03,304L376.05,303.57L376.05,304L376.21,301.73L376.78,304L376.81,304L377.2,299.92L377.54,303.92L377.58,303.64L377.61,297.89L377.93,304L377.93,304L377.93,296.83L377.94,304L378.22,289.21L378.64,303.66L378.7,303.32L378.75,298.88L379.43,304L379.43,303.98L379.48,303.82L379.58,304L380.13,298.42L380.23,304L380.24,303.84L380.24,304L380.92,299.85L380.95,303.87L381.07,303.57L381.07,304L381.27,296.12L381.78,304L381.83,304L382.58,296.15L382.62,296.59L382.62,304L383.19,300.84L383.36,304L383.38,303.75L383.38,304L383.92,300.15L384.1,303.5L384.27,304L384.85,258.75L384.98,304L385.04,303.3L385.59,299.71L385.8,304L385.82,303.92L385.86,304L386.5,301.9L386.53,304L386.55,303.74L386.64,303.88L386.69,295.33L387.08,293.04L387.37,304L387.37,303.06L387.49,304L387.74,277.73L388.16,302.62L388.26,304L388.84,294.78L389.01,304L389.07,304L389.61,291.01L389.81,303.96L389.84,303.82L389.84,304L390.18,286.11L390.59,304L390.65,304L390.79,292.59L391.34,304L391.38,303.81L391.38,304L391.55,289.5L392.13,303.86L392.18,209.47L392.18,304L392.92,302.75L393,303.82L393,304L393.26,300.42L393.74,304L393.76,304L394.18,301.03L394.5,304L394.57,304L394.78,298.66L394.86,304L394.92,303.89L394.95,304L394.97,293.57L395.2,304L395.29,304L396.03,298.33L396.03,304L396.07,303.7L396.07,304L396.69,292.96L396.82,304L396.83,304L396.85,297.64L397.55,303.92L397.59,304L398.06,295.25L398.33,304L398.35,303.51L398.35,304L399.03,300.33L399.14,303.57L399.14,304L399.18,290.56L399.88,303.86L399.91,303.86L400.27,303.3L400.36,304L400.36,302.21L400.95,296.94L401.08,304L401.09,282.49L401.09,304L401.84,303.92L401.87,304L402.51,295.91L402.58,303.96L402.64,304L403.27,300.87L403.37,304L403.37,293.2L403.38,304L403.83,279.3L404.12,304L404.22,303.63L404.81,298.21L404.96,304L404.99,303.57L404.99,304L405.74,301.12L405.74,304L405.76,303.04L405.76,304L406.43,297.17L406.51,304L406.52,304L406.81,298.24L407.25,304L407.28,304L407.57,303.65L407.59,302.3L407.59,304L407.65,285.66L408.28,304L408.35,304L408.45,292.8L409.08,304L409.12,303.34L409.18,301.33L409.77,304L409.77,303.03L409.86,303.04L409.86,304L410.49,277.7L410.6,303.88L410.66,301.65L411.05,301.38L411.46,304L411.46,302.88L411.5,304L412.21,299.96L412.22,299.95L412.22,304L412.93,303.26L413.02,302.49L413.02,304L413.52,299.09L413.73,303.98L413.78,304L414.35,288.41L414.39,304L414.69,301.89L414.98,303.27L415.01,297.91L415.67,304L415.68,302.35L415.79,304L416.38,300.9L416.5,304L416.55,303.27L416.55,304L416.92,301L417.27,304L417.31,303.37L417.32,304L417.9,286.31L418.05,300.34L418.1,304L418.35,301.82L418.76,303.96L418.86,304L419.42,296.88L419.56,304L419.63,304L420.29,302.36L420.33,303.54L420.36,304L420.75,287.92L421.02,304L421.12,304L421.12,278.52L421.86,303.31L421.9,302.84L421.9,304L422.27,301.73L422.61,301.88L422.66,303.74L422.66,304L423.17,298.87L423.41,303.94L423.44,304L423.83,301.67L423.93,303.02L423.93,291.81L423.93,304L424.68,304L424.69,302.84L424.81,297.81L425.44,304L425.44,304L425.46,303.66L425.46,304L425.59,297.35L426.21,304L426.22,302.64L426.84,296.4L426.96,304L426.96,303.54L426.98,303.26L427.37,301.99L427.56,304L427.58,303.48L427.6,301.83L427.6,304L428.08,286.07L428.34,303.91L428.38,303.63L428.38,304L428.53,282.08L429.07,303.64L429.14,303.73L429.14,304L429.2,299.34L429.89,303.86L429.9,303.97L429.99,304L430.1,301.15L430.24,303.47L430.28,304L430.75,296.43L431.02,304L431.04,304L431.8,297.98L431.81,304L431.94,294.03L432.51,303.99L432.58,304L433.31,297.34L433.33,303.82L433.35,304L433.47,296.86L433.53,303.84L433.6,304L434.28,298.67L434.31,304L434.39,304L434.97,300.04L435.03,303.92L435.19,303.4L435.21,304L435.57,301.41L435.91,304L435.97,303.47L436.43,297.79L436.73,304L436.75,304L437.34,302.99L437.5,303.38L437.51,304L438.01,296.09L438.23,304L438.27,304L438.99,300.1L439.02,277.93L439.02,304L439.42,276.74L439.73,304L439.8,304L439.96,301.88L440.53,303.92L440.59,304L440.88,276.04L441.33,303.7L441.37,304L441.85,300.95L442.11,304L442.13,303.3L442.13,304L442.24,295.87L442.86,303.94L442.89,303.8L442.96,304L443.18,292.28L443.6,304L443.63,304L444.07,301.84L444.37,303.57L444.4,304L444.84,300.41L444.91,303.75L444.94,304L445.02,299.52L445.69,304L445.7,303.71L445.77,304L446.09,301.14L446.45,304L446.46,303.62L446.84,291.25L447.21,304L447.21,303.62L447.22,303.48L447.78,300.44L447.94,304L447.98,303.72L447.98,304L448.44,291.07L448.72,303.91L448.76,304L449.29,282.09L449.46,304L449.56,304L450.09,300.24L450.15,303.95L450.19,295.59L450.95,304L450.95,303.86L450.97,304L451.43,298.45L451.51,303.83L451.56,303.82L451.74,301.39L452.06,304L452.1,303.99L452.11,299.98L452.52,297.74L452.87,304L452.91,303.34L452.91,304L452.97,295.42L453.65,303.74L453.68,300.51L453.72,304L454.38,299.73L454.39,303.71L454.52,303.51L454.9,299.67L455.29,304L455.32,304L455.71,296.31L455.86,303.75L455.86,304L456.54,301.14L456.67,303.14L456.68,304L456.85,300.95L456.85,294.67L457.62,304L457.62,303.22L457.64,304L458.26,301.52L458.38,303.67L458.41,304L458.47,300.7L458.82,302.17L458.9,304L459.35,299.34L459.62,304L459.73,303.01L459.73,304L459.9,292.53L460.47,303.82L460.53,303.8L460.62,304L460.89,294.79L461.26,303.96L461.39,304L461.93,301.09L462.01,303.87L462.08,303.71L462.08,304L462.83,301.37L462.84,303.85L462.93,304L463,303.71L463.01,300.67L463.08,299.6L463.08,304L463.67,304L463.77,303.65L463.77,304L464.46,293.94L464.5,304L464.53,303.68L464.53,304L464.55,293.42L465.26,304L465.29,303.88L465.32,289.69L465.33,304L465.96,303.87L466.03,303.85L466.22,302.77L466.42,304L466.42,303.52L466.42,302.23L466.42,304L466.72,294.34L467.16,304L467.25,304L467.89,298.94L467.96,303.7L468.06,303.35L468.11,304L468.54,297.18L468.81,301.12L468.84,304L468.98,295.5L469.59,303.81L469.61,300.73L470.4,304L470.47,304L470.58,297.03L471.19,302.98L471.25,302.48L471.25,304L471.43,299.02L471.93,304L472.02,304L472.3,292.04L472.38,304L472.5,304L473.25,298.73L473.25,304L473.39,302.78L473.39,302.91L473.4,297.81L473.4,304L473.95,294.24L474.14,303.71L474.2,304L474.32,302.58L474.39,303.94L474.43,279.24L474.45,304L474.58,250.29L475.08,304L475.19,304L475.26,303.74L475.26,304L475.27,300.71L475.27,304L475.67,244.92L475.99,303.74L476.08,303.38L476.11,304L476.11,295.87L476.74,304L476.75,303.75L476.89,299.83L477.37,304L477.37,299.71L477.4,304L477.41,299.08L477.43,303.93L477.44,303.98L477.5,304L477.55,288.43L478.19,300.81L478.19,304L478.79,300.54L478.91,304L478.95,304L478.98,301.96L479.66,304L479.76,303.26L480.19,292.32L480.47,304L480.49,303.93L480.55,303.98L480.56,304L480.91,267.47L481.3,303.21L481.31,303.93L481.35,304L481.95,299.81L481.98,303.9L482.02,304L482.38,298.31L482.53,303.27L482.58,303.8L482.58,304L482.66,297.4L483.33,303.95L483.38,304L483.48,291.58L483.96,304L484,304L484.17,304L484.19,303L484.48,300.8L484.84,304L484.84,303.89L484.85,298.21L485.59,304L485.6,303.61L485.7,303.98L485.74,304L486.02,293.63L486.22,303.27L486.23,304L486.79,300.77L486.95,304L486.99,303.91L487.02,304L487.19,303.37L487.22,303.93L487.25,288.31L487.99,304L488.05,303.43L488.06,304L488.57,299.09L488.75,303.57L488.82,304L488.85,303.08L489.02,304L489.05,276.08L489.05,304L489.13,275.78L489.8,302.36L489.82,303.94L489.92,303.52L489.93,303.88L489.95,301.22L489.95,304L490.67,303.86L490.74,303.72L490.74,304L491.25,294.71L491.49,304L491.53,303.72L491.54,294.2L492.25,304L492.28,303.44L492.66,288.76L493.03,304L493.06,304L493.77,297.18L493.77,304L493.83,303.84L493.83,304L493.89,302.73L494,303.94" style="vector-effect: non-scaling-stroke; fill: none; stroke: rgb(99, 110, 250); stroke-opacity: 1; stroke-width: 2px; opacity: 1;"/></g><g class="points"/><g class="text"/></g></g></g><g class="overplot"/><path class="xlines-above crisp" d="M0,0" style="fill: none;"/><path class="ylines-above crisp" d="M0,0" style="fill: none;"/><g class="overlines-above"/><g class="xaxislayer-above"><g class="xtick"><text text-anchor="middle" x="0" y="436" transform="translate(212.18,0)" style="font-family: 'Times New Roman'; font-size: 15px; fill: rgb(13, 13, 13); fill-opacity: 1; white-space: pre; opacity: 1;">1.61252×10​<tspan style="font-size:70%" dy="-0.6em">18</tspan><tspan dy="0.42em">​</tspan></text></g><g class="xtick"><text text-anchor="middle" x="0" y="436" style="font-family: 'Times New Roman'; font-size: 15px; fill: rgb(13, 13, 13); fill-opacity: 1; white-space: pre; opacity: 1;" transform="translate(310.22,0)">1.612525×10​<tspan style="font-size:70%" dy="-0.6em">18</tspan><tspan dy="0.42em">​</tspan></text></g><g class="xtick"><text text-anchor="middle" x="0" y="436" style="font-family: 'Times New Roman'; font-size: 15px; fill: rgb(13, 13, 13); fill-opacity: 1; white-space: pre; opacity: 1;" transform="translate(408.27,0)">1.61253×10​<tspan style="font-size:70%" dy="-0.6em">18</tspan><tspan dy="0.42em">​</tspan></text></g><g class="xtick"><text text-anchor="middle" x="0" y="436" style="font-family: 'Times New Roman'; font-size: 15px; fill: rgb(13, 13, 13); fill-opacity: 1; white-space: pre; opacity: 1;" transform="translate(506.31,0)">1.612535×10​<tspan style="font-size:70%" dy="-0.6em">18</tspan><tspan dy="0.42em">​</tspan></text></g><g class="xtick"><text text-anchor="middle" x="0" y="436" style="font-family: 'Times New Roman'; font-size: 15px; fill: rgb(13, 13, 13); fill-opacity: 1; white-space: pre; opacity: 1;" transform="translate(604.35,0)">1.61254×10​<tspan style="font-size:70%" dy="-0.6em">18</tspan><tspan dy="0.42em">​</tspan></text></g></g><g class="yaxislayer-above"><g class="ytick"><text text-anchor="end" x="125" y="12.25" transform="translate(0,404)" style="font-family: 'Times New Roman'; font-size: 35px; fill: rgb(13, 13, 13); fill-opacity: 1; white-space: pre; opacity: 1;">0</text></g><g class="ytick"><text text-anchor="end" x="125" y="12.25" style="font-family: 'Times New Roman'; font-size: 35px; fill: rgb(13, 13, 13); fill-opacity: 1; white-space: pre; opacity: 1;" transform="translate(0,366.69)">500</text></g><g class="ytick"><text text-anchor="end" x="125" y="12.25" style="font-family: 'Times New Roman'; font-size: 35px; fill: rgb(13, 13, 13); fill-opacity: 1; white-space: pre; opacity: 1;" transform="translate(0,329.38)">1000</text></g><g class="ytick"><text text-anchor="end" x="125" y="12.25" style="font-family: 'Times New Roman'; font-size: 35px; fill: rgb(13, 13, 13); fill-opacity: 1; white-space: pre; opacity: 1;" transform="translate(0,292.07)">1500</text></g><g class="ytick"><text text-anchor="end" x="125" y="12.25" style="font-family: 'Times New Roman'; font-size: 35px; fill: rgb(13, 13, 13); fill-opacity: 1; white-space: pre; opacity: 1;" transform="translate(0,254.76)">2000</text></g><g class="ytick"><text text-anchor="end" x="125" y="12.25" style="font-family: 'Times New Roman'; font-size: 35px; fill: rgb(13, 13, 13); fill-opacity: 1; white-space: pre; opacity: 1;" transform="translate(0,217.45)">2500</text></g><g class="ytick"><text text-anchor="end" x="125" y="12.25" style="font-family: 'Times New Roman'; font-size: 35px; fill: rgb(13, 13, 13); fill-opacity: 1; white-space: pre; opacity: 1;" transform="translate(0,180.14)">3000</text></g><g class="ytick"><text text-anchor="end" x="125" y="12.25" style="font-family: 'Times New Roman'; font-size: 35px; fill: rgb(13, 13, 13); fill-opacity: 1; white-space: pre; opacity: 1;" transform="translate(0,142.82999999999998)">3500</text></g><g class="ytick"><text text-anchor="end" x="125" y="12.25" style="font-family: 'Times New Roman'; font-size: 35px; fill: rgb(13, 13, 13); fill-opacity: 1; white-space: pre; opacity: 1;" transform="translate(0,105.52)">4000</text></g></g><g class="overaxes-above"/></g></g><g class="polarlayer"/><g class="smithlayer"/><g class="ternarylayer"/><g class="geolayer"/><g class="funnelarealayer"/><g class="pielayer"/><g class="iciclelayer"/><g class="treemaplayer"/><g class="sunburstlayer"/><g class="glimages"/><defs id="topdefs-6ac207"><g class="clips"/></defs><g class="layer-above"><g class="imagelayer"/><g class="shapelayer"/></g><g class="infolayer"><g class="g-gtitle"/><g class="g-xtitle"><text class="xtitle" x="373" y="463.8" text-anchor="middle" style="font-family: 'Open Sans', verdana, arial, sans-serif; font-size: 14px; fill: rgb(42, 63, 95); opacity: 1; font-weight: normal; white-space: pre;">Time Steps (ns)</text></g><g class="g-ytitle" transform="translate(24,0)"><text class="ytitle" transform="rotate(-90,12,260)" x="12" y="260" text-anchor="middle" style="font-family: 'Times New Roman'; font-size: 40px; fill: rgb(13, 13, 13); opacity: 1; font-weight: normal; white-space: pre;">Speed (in sec.)</text></g></g></svg>