<svg class="main-svg" xmlns="http://www.w3.org/2000/svg" xmlns:xlink="http://www.w3.org/1999/xlink" width="700" height="500" style="" viewBox="0 0 700 500"><rect x="0" y="0" width="700" height="500" style="fill: rgb(255, 255, 255); fill-opacity: 1;"/><defs id="defs-4942ff"><g class="clips"><clipPath id="clip4942ffxyplot" class="plotclip"><rect width="511" height="320"/></clipPath><clipPath class="axesclip" id="clip4942ffx"><rect x="109" y="0" width="511" height="500"/></clipPath><clipPath class="axesclip" id="clip4942ffy"><rect x="0" y="100" width="700" height="320"/></clipPath><clipPath class="axesclip" id="clip4942ffxy"><rect x="109" y="100" width="511" height="320"/></clipPath></g><g class="gradients"/><g class="patterns"/></defs><g class="bglayer"><rect class="bg" x="109" y="100" width="511" height="320" style="fill: rgb(229, 236, 246); fill-opacity: 1; stroke-width: 0;"/></g><g class="layer-below"><g class="imagelayer"/><g class="shapelayer"/></g><g class="cartesianlayer"><g class="subplot xy"><g class="layer-subplot"><g class="shapelayer"/><g class="imagelayer"/></g><g class="minor-gridlayer"><g class="x"/><g class="y"/></g><g class="gridlayer"><g class="x"><path class="xgrid crisp" transform="translate(198.18,0)" d="M0,100v320" style="stroke: rgb(255, 255, 255); stroke-opacity: 1; stroke-width: 1px;"/><path class="xgrid crisp" transform="translate(299.58000000000004,0)" d="M0,100v320" style="stroke: rgb(255, 255, 255); stroke-opacity: 1; stroke-width: 1px;"/><path class="xgrid crisp" transform="translate(400.99,0)" d="M0,100v320" style="stroke: rgb(255, 255, 255); stroke-opacity: 1; stroke-width: 1px;"/><path class="xgrid crisp" transform="translate(502.39,0)" d="M0,100v320" style="stroke: rgb(255, 255, 255); stroke-opacity: 1; stroke-width: 1px;"/><path class="xgrid crisp" transform="translate(603.79,0)" d="M0,100v320" style="stroke: rgb(255, 255, 255); stroke-opacity: 1; stroke-width: 1px;"/></g><g class="y"><path class="ygrid crisp" transform="translate(0,346.73)" d="M109,0h511" style="stroke: rgb(255, 255, 255); stroke-opacity: 1; stroke-width: 1px;"/><path class="ygrid crisp" transform="translate(0,289.05)" d="M109,0h511" style="stroke: rgb(255, 255, 255); stroke-opacity: 1; stroke-width: 1px;"/><path class="ygrid crisp" transform="translate(0,231.36)" d="M109,0h511" style="stroke: rgb(255, 255, 255); stroke-opacity: 1; stroke-width: 1px;"/><path class="ygrid crisp" transform="translate(0,173.68)" d="M109,0h511" style="stroke: rgb(255, 255, 255); stroke-opacity: 1; stroke-width: 1px;"/><path class="ygrid crisp" transform="translate(0,116)" d="M109,0h511" style="stroke: rgb(255, 255, 255); stroke-opacity: 1; stroke-width: 1px;"/></g></g><g class="zerolinelayer"><path class="yzl zl crisp" transform="translate(0,404.41)" d="M109,0h511" style="stroke: rgb(255, 255, 255); stroke-opacity: 1; stroke-width: 2px;"/></g><path class="xlines-below"/><path class="ylines-below"/><g class="overlines-below"/><g class="xaxislayer-below"/><g class="yaxislayer-below"/><g class="overaxes-below"/><g class="plot" transform="translate(109,100)" clip-path="url(#clip4942ffxyplot)"><g class="scatterlayer mlayer"><g class="trace scatter trace2a2e3e" style="stroke-miterlimit: 2; opacity: 1;"><g class="fills"/><g class="errorbars"/><g class="lines"><path class="js-line" d="M0,16L0.47,298.64L0.5,21.77L0.75,16L1.05,298.64L1.48,16L1.51,16L2.18,289.99L2.26,160.21L2.28,16L2.43,30.42L2.48,16L2.48,186.16L2.65,301.53L3.06,16L3.06,275.57L3.12,289.99L3.16,16L3.81,16L3.84,50.61L3.87,16L4.15,284.22L4.59,16L4.63,206.35L4.7,292.88L5.37,16L5.37,232.31L5.41,88.1L5.44,16L5.6,292.88L6.1,16L6.21,16L6.32,278.45L6.97,209.24L6.97,16L7.61,292.88L7.75,223.66L7.79,96.76L8.09,16L8.09,284.1L8.54,161.66L8.6,16L8.68,298.64L9.34,16L9.36,16L9.81,289.99L10.1,285.67L10.2,16L10.33,274.42L10.93,16L10.99,154.44L11.03,16L11.71,272.87L11.72,47.73L11.81,16L12.01,298.64L12.37,16L12.4,16L12.63,16L12.64,232.31L12.64,16L13.03,284.22L13.37,16L13.46,16L13.81,297.2L14.17,16L14.33,302.35L15.01,16L15.03,171.74L15.12,281.34L15.14,16L15.53,292.88L15.87,16L15.95,73.68L16.08,16L16.63,258.27L16.65,67.91L16.71,16L16.77,281.34L17.46,16L17.49,88.1L17.77,272.69L18.13,16L18.16,298.64L18.19,16L18.9,300.09L18.9,65.03L18.92,242.39L18.94,16L19.1,298.64L19.67,16L19.7,270.52L19.79,298.64L20.38,16L20.46,125.6L20.48,217.89L20.75,292.88L21.21,16L21.21,249.61L21.3,257.55L21.93,295.76L21.97,16L21.97,16L22.1,93.87L22.31,292.88L22.82,16L22.88,145.79L22.89,16L23,277.65L23.62,16L23.7,114.06L23.71,16L23.93,292.88L24.4,16L24.53,79.45L24.59,266.92L25.04,16L25.17,82.33L25.17,271.24L25.83,16L25.92,212.12L25.93,272.69L26.55,298.64L26.7,16L26.7,16L26.74,240.96L27.42,284.22L27.42,16L27.5,36.19L27.5,284.22L27.5,16L28.2,16L28.27,16L28.96,299.26L29.01,16L29.08,16L29.18,287.11L29.79,16L29.85,16L30.15,298.64L30.61,176.07L30.62,82.33L30.62,16L30.78,275.57L31.33,16L31.5,16L31.93,295.76L32.24,240.96L32.41,16L32.62,266.92L33.18,168.86L33.18,151.55L33.82,295.76L33.92,16L33.92,258.27L33.94,16L34.42,295.76L34.67,16L34.71,16L35.34,296.01L35.44,174.63L35.48,16L35.59,289.99L36.05,16L36.08,16L36.08,288.55L36.82,16L36.85,16L37.55,292.88L37.59,16L37.64,206.35L37.69,16L37.88,292.88L38.39,16L38.46,16L38.68,301.53L39.16,272.69L39.16,47.73L39.19,16L39.3,300.09L39.9,261.15L40.07,291.43L40.07,16L40.8,16L40.83,67.91L40.86,16L41.22,301.53L41.58,73.68L41.58,16L41.67,301.53L42.35,269.8L42.35,16L42.75,16L42.76,230.39L42.77,16L42.8,298.64L43.45,148.67L43.53,16L44.18,296.62L44.31,243.85L44.31,76.57L44.62,296.48L44.94,16L44.94,70.8L44.97,278.49L45.17,303.69L45.65,16L45.7,289.99L45.73,30.42L45.86,16L45.86,16L45.89,275.57L45.94,16L46.39,298.76L46.64,88.1L46.67,262.59L46.74,16L46.92,298.64L47.39,157.32L47.51,16L47.97,284.22L48.25,16L48.27,16L48.73,292.39L49.01,16L49.07,16L49.79,295.76L49.83,284.22L49.83,36.19L50.27,295.76L50.46,16L50.5,232.31L50.55,16L50.8,301.53L51.23,16L51.26,16L51.76,301.53L51.98,256.1L52.03,209.24L52.13,16L52.26,300.09L52.67,16L52.8,16L53.17,287.11L53.45,16L53.58,16L54.23,295.76L54.3,203.47L54.36,203.47L54.36,16L55.07,295.76L55.11,137.13L55.13,16L55.43,296.01L55.88,207.79L55.89,16L56.42,298.64L56.62,16L56.65,16L57.28,288.55L57.35,47.73L57.47,272.69L57.69,297.2L58.1,16L58.1,258.27L58.52,301.53L58.83,16L58.85,39.07L58.87,131.36L58.87,16L59.47,298.76L59.59,298.76L59.66,16L59.9,281.34L60.41,259.71L60.46,142.9L60.55,16L60.88,289.99L61.19,16L61.22,194.82L61.84,301.53L61.99,16L62.03,16L62.17,279.11L62.19,44.84L62.2,16L62.55,296.48L62.78,229.54L62.78,16L63.26,295.76L63.53,281.34L63.55,16L64.31,296.48L64.31,47.73L64.32,16L64.43,293.42L65.02,16L65.15,16L65.84,295.76L65.9,16L65.93,284.22L66.16,301.53L66.65,16L66.71,255.38L66.72,16L66.83,301.53L67.46,16L67.48,177.51L67.94,299.22L68.1,16L68.16,33.3L68.22,300.09L68.88,16L68.94,226.54L69,16L69.54,301.53L69.69,16L69.76,16L70.33,300.98L70.47,16L70.52,16L70.8,302.97L71.26,16L71.34,16L71.61,298.64L72.09,243.85L72.1,16L72.76,281.34L72.85,16L72.88,168.86L73.52,16L73.53,295.76L73.56,243.85L73.58,260.45L73.61,16L73.71,295.76L74.26,16L74.37,16L75.11,287.11L75.11,33.3L75.18,16L75.81,298.64L75.85,16L75.91,16L75.98,295.76L76.62,16L76.72,16L77.12,301.53L77.47,16L77.53,16L77.95,295.76L78.25,16L78.29,16L78.94,300.46L79.02,16L79.27,301.53L79.77,16L79.78,62.15L79.83,301.53L80.53,16L80.56,16L80.8,16L80.8,222.21L80.8,295.76L80.8,16L81.53,16L81.59,281.34L81.66,16L81.77,283.5L82.31,16L82.35,16L83.03,298.64L83.1,186.16L83.13,16L83.24,295.76L83.89,134.25L83.94,187.61L84,16L84.48,297.2L84.69,33.3L84.73,273.51L85.36,297.2L85.43,16L85.46,238.08L85.51,16L86.26,284.22L86.26,36.19L86.6,288.09L86.78,16L86.78,90.99L86.79,288.55L86.92,16L87.43,294.8L87.52,41.96L87.57,16L88.07,284.22L88.3,238.08L88.36,16L88.55,298.76L89.09,16L89.16,24.65L89.19,16L89.2,295.76L89.96,16L89.96,16L89.96,160.21L90.68,16L90.7,289.99L90.76,114.06L91.17,300.09L91.47,16L91.49,128.48L91.55,160.21L91.55,16L91.95,295.76L92.26,16L92.31,16L92.51,16L92.51,16L92.51,62.15L92.57,16L93.02,265.19L93.25,93.87L93.27,226.54L93.82,16L93.87,295.04L93.88,266.92L94.06,16L94.74,292.88L94.82,252.5L94.83,16L95.15,295.76L95.54,16L95.58,16L96.25,297.68L96.29,16L96.35,16L96.79,240.96L97.12,229.42L97.12,90.99L97.75,266.92L97.85,16L97.85,16L97.86,295.76L97.88,16L98.57,16L98.75,16L98.93,301.53L99.49,16L99.53,16L99.65,300.09L100.27,243.1L100.3,16L100.65,283.05L100.97,191.93L101.03,118.26L101.04,16L101.4,295.76L101.72,287.11L101.79,16L101.87,292.88L102.53,59.26L102.59,16L102.74,295.76L103.33,178.95L103.35,16L103.56,298.64L104.08,16L104.13,16L104.41,295.76L104.86,16L104.87,16L105.32,285.67L105.53,16L105.66,16L105.91,301.53L106.43,264.03L106.45,16L106.65,303.69L106.84,151.55L106.84,16L107.28,301.53L107.56,16L107.65,16L107.97,298.64L108.39,249.61L108.4,70.8L108.43,16L108.96,298.64L109.15,151.55L109.17,16L109.73,287.83L109.92,16L109.95,16L110.63,278.45L110.63,16L110.74,16L110.98,295.76L111.49,209.24L111.5,215L111.5,16L112.03,301.53L112.18,62.15L112.27,16L112.42,16L112.42,16L112.44,171.74L112.47,16L113.17,287.11L113.19,16L113.2,168.86L113.31,16L113.91,303.69L113.94,247.69L113.97,134.25L114,16L114.12,272.69L114.71,165.97L114.77,154.44L115.18,281.4L115.45,16L115.47,275.57L115.64,16L116.12,301.53L116.31,140.02L116.31,16L116.48,160.21L116.48,125.6L116.48,277.01L116.56,302.97L116.93,16L116.93,273.41L117.42,301.53L117.62,16L117.68,76.57L117.7,165.97L117.81,298.64L118,16L118,27.54L118.04,298.64L118.16,301.56L118.84,16L118.85,73.68L118.93,16L119.35,284.22L119.57,16L119.61,16L120.23,303.69L120.37,292.88L120.37,16L120.79,289.99L121.05,284.22L121.14,16L121.4,284.22L121.92,168.86L121.92,26.49L121.92,16L122.4,301.53L122.66,145.79L122.68,174.63L123.28,285.67L123.4,16L123.41,223.66L123.47,96.76L123.5,291.59L124.21,16L124.21,16L124.26,252.5L124.26,16L124.75,284.22L125,160.21L125.05,16L125.08,302.97L125.8,16L125.81,41.96L125.85,16L125.86,302.97L126.55,255.38L126.71,16L127.32,289.99L127.48,212.12L127.5,62.15L127.63,16L128.17,289.99L128.23,16L128.27,16L129,264.03L129.05,227.5L129.06,16L129.4,280.6L129.81,278.45L129.82,16L129.95,295.76L130.56,53.49L130.6,266.92L130.6,16L130.89,299.36L131.33,212.12L131.36,16L131.38,300.67L131.95,16L132.13,16L132.55,302.97L132.85,16L132.9,212.12L132.98,16L133.36,266.92L133.65,160.21L133.69,16L134.13,292.88L134.33,235.19L134.43,16L135.07,295.76L135.1,217.89L135.2,16L135.7,295.76L135.91,194.82L136.01,125.6L136.04,16L136.68,268.36L136.69,108.29L136.74,16L136.86,292.88L137.46,16L137.5,16L138.22,298.76L138.24,75.38L138.28,255.44L138.37,16L138.83,298.64L139.03,16L139.08,16L139.79,298.64L139.8,16L139.87,21.77L139.89,302.97L140.18,16L140.23,232.31L140.24,301.53L140.25,16L140.94,264.03L141,56.38L141.16,87.15L141.2,16L141.2,16L141.2,262.59L141.39,16L141.74,295.76L141.94,229.42L141.98,298.64L142.74,16L142.74,16L142.75,165.97L142.86,16L143.05,298.64L143.47,246.73L143.52,16L144.14,278.45L144.22,16L144.33,16L144.66,295.04L145.05,186.16L145.14,186.16L145.23,16L145.29,301.53L145.87,128.48L145.91,16L146.08,299.59L146.66,16L146.67,277.73L146.67,16L146.9,292.88L147.39,242.84L147.44,16L147.54,289.99L148.16,206.35L148.22,16L148.27,298.64L148.95,16L148.99,82.33L148.99,16L149.01,274.13L149.73,157.32L149.85,16L150.47,292.23L150.58,16L150.61,16L151.21,278.45L151.28,128.48L151.33,16L151.81,301.53L152.02,16L152.1,16L152.62,295.67L152.77,16L152.89,16L153.19,294.32L153.66,131.36L153.71,16L154.18,252.5L154.43,16L154.49,16L155.03,289.99L155.24,16L155.25,16L155.89,298.64L156,16L156.02,16L156.34,297.92L156.76,16L156.79,16L157.42,298.64L157.54,183.28L157.67,16L157.95,275.57L158.42,88.1L158.44,16L158.97,293.32L159.22,163.09L159.22,16L159.41,16L159.42,160.21L159.42,16L159.65,301.53L160.17,266.92L160.18,16L160.6,285.5L160.89,90.99L160.94,229.42L161.17,295.76L161.66,16L161.66,16L161.74,16L162.51,293.32L162.52,212.12L162.54,108.29L162.58,16L162.83,301.53L163.19,16L163.22,16L163.73,288.39L163.97,76.57L163.99,16L164.07,285.67L164.7,16L164.75,50.61L164.82,16L164.9,298.76L165.42,148.67L165.53,242.4L166.03,275.57L166.36,16L166.36,295.76L166.49,16L166.87,301.53L167.1,275.57L167.14,289.99L167.88,290.68L167.92,16L167.93,16L168.21,301.53L168.67,16L168.69,16L168.85,16L168.85,16L168.88,200.58L168.94,16L168.96,298.64L169.61,16L169.65,16L169.95,301.53L170.19,21.77L170.27,16L170.32,26.68L170.32,298.64L171.04,16L171.08,128.48L171.14,16L171.15,266.92L171.88,16L171.91,278.45L171.96,16L172.4,279.9L172.65,16L172.67,243.85L172.71,255.38L172.78,16L173.22,298.64L173.28,16L173.29,16L173.41,298.64L174.03,16L174.04,16L174.76,294.32L174.77,16L174.81,16L175.22,289.99L175.34,180.39L175.4,30.71L175.43,298.64L175.43,16L176.11,16L176.24,16L176.92,289.99L177.01,174.63L177.03,142.9L177.16,16L177.5,301.53L177.5,16L177.59,298.64L178.24,16L178.3,160.21L178.74,301.53L179.04,16L179.04,208.27L179.06,16L179.32,271.97L179.46,16L179.51,16L179.7,291.72L180.29,190.49L180.31,16L180.99,301.53L181.01,16L181.29,302.97L181.67,284.1L181.68,16L182.39,293.32L182.42,16L182.46,16L182.59,36.19L182.59,284.22L183.35,16L183.35,16L183.35,226.54L183.35,16L183.64,275.57L184.09,16L184.12,269.8L184.15,16L184.51,294.5L184.86,200.58L184.9,119.83L185.01,16L185.2,289.99L185.59,189.05L185.61,16L186.33,291.43L186.33,67.91L186.35,16L186.39,295.76L187.11,291.43L187.15,16L187.58,289.99L187.91,171.74L187.92,148.67L187.92,16L187.98,292.88L188.66,30.42L188.71,16L188.76,301.56L189.44,16L189.47,36.19L189.58,16L189.64,272.69L189.74,16L190.04,298.76L190.39,16L190.5,33.3L190.5,16L190.53,298.64L191.24,160.21L191.31,16L191.37,268.36L191.99,16L192.07,16L192.25,285.5L192.81,16L192.84,16L193.46,301.53L193.52,287.11L193.57,16L193.83,278.45L194.05,16L194.12,41.96L194.16,16L194.51,289.99L194.82,16L194.88,16L194.96,301.53L195.6,16L195.64,27.54L196.16,268.36L196.19,16L196.23,293.6L196.28,16L196.73,299.61L196.93,16L197.01,16L197.57,295.76L197.72,16L197.77,16L197.96,291.43L198.46,16L198.53,16L198.55,300.09L199.27,125.6L199.31,59.26L199.34,16L199.68,301.53L200.02,16L200.11,287.11L200.12,16L200.21,299.61L200.85,253.22L200.87,220.77L200.99,264.03L201.63,16L201.63,16L201.67,67.91L201.69,16L202.34,301.53L202.43,258.27L202.49,16L202.54,298.64L203.17,275.57L203.19,243.85L203.2,16L203.38,271.24L203.91,249.61L203.96,16L204.2,249.61L204.46,16L204.53,16L205.23,298.64L205.24,16L205.3,66.71L205.44,301.53L205.97,16L206.02,79.45L206.02,288.55L206.24,298.64L206.55,16L206.55,16L206.55,298.64L206.62,16L207.29,16L207.32,16L207.43,300.09L208.09,287.11L208.09,33.3L208.14,284.22L208.41,16L208.42,254.46L208.47,16L208.88,288.55L209.17,16L209.18,273.51L209.18,16L209.27,298.76L209.85,24.65L209.95,146.6L209.98,16L210.13,301.53L210.63,142.18L210.81,171.74L210.81,16L211.31,298.64L211.55,229.42L211.58,53.49L211.6,285.8L212.31,16L212.32,145.14L212.34,16L212.87,302.4L213.07,289.99L213.13,30.42L213.21,16L213.74,298.64L213.82,62.15L213.9,16L214.52,292.88L214.64,16L214.67,16L215.21,298.07L215.39,67.91L215.45,67.91L215.53,16L215.96,298.64L216.2,174.63L216.22,145.79L216.32,16L216.79,299.36L216.97,16L216.99,111.18L216.99,16L217.25,284.22L217.74,228.61L217.77,16L217.93,298.76L218.48,16L218.53,151.55L218.53,16L218.69,295.76L219.28,122.71L219.3,16L219.5,295.4L220.03,65.03L220.15,16L220.55,303.9L220.85,157.32L220.96,16L221.02,295.76L221.67,266.92L221.75,289.99L222.03,300.81L222.49,16L222.53,16L223.25,301.74L223.27,283.05L223.29,16L223.33,301.53L224.03,16L224.08,16L224.4,298.64L224.81,16L224.89,16L225.16,289.99L225.2,131.36L225.21,16L225.6,292.88L225.92,16L225.97,16L226.54,298.64L226.69,281.34L226.73,27.54L226.73,16L226.73,298.64L227.42,65.03L227.51,255.38L228.17,289.99L228.26,16L228.26,16L228.32,255.38L228.32,16L228.54,295.76L229.04,16L229.08,16L229.4,274.85L229.74,16L229.85,16L230.07,296.48L230.6,258.27L230.61,245.29L230.61,16L231.33,269.8L231.33,119.83L231.4,16L231.5,41.96L231.5,277.09L231.59,298.64L232.21,16L232.25,177.51L232.31,111.18L232.31,16L232.84,278.45L233.05,16L233.15,16L233.45,301.53L233.7,289.99L233.71,16L234.39,281.34L234.44,16L234.48,16L234.86,289.27L235.25,281.34L235.25,39.07L235.39,284.22L235.88,16L235.88,16L235.88,289.99L235.88,16L236.18,301.53L236.6,16L236.65,16L236.65,295.76L237.36,16L237.49,261.15L237.5,16L237.76,289.99L238.21,232.31L238.27,88.1L238.31,298.64L238.31,16L239,16L239.03,16L239.67,298.64L239.77,269.8L239.8,16L240.1,298.76L240.56,160.21L240.58,160.21L240.87,301.56L241.3,16L241.3,16L241.34,292.88L242.04,16L242.08,243.85L242.13,16L242.62,298.64L242.74,116.94L242.79,41.96L242.79,16L243.39,292.88L243.54,82.33L243.55,16L244.03,292.88L244.24,16L244.31,16L245.05,298.64L245.07,226.54L245.08,121.23L245.53,275.57L245.73,16L245.8,59.26L245.8,261.15L246.28,279.18L246.54,16L246.59,16L247.19,300.09L247.33,36.19L247.4,16L247.41,288.68L248.14,16L248.22,16L248.23,275.57L248.78,16L248.94,16L249.6,296.48L249.66,73.68L249.7,16L249.86,289.99L250.47,238.08L250.47,148.67L250.67,268.99L251.18,16L251.22,253.94L251.24,16L251.79,295.76L251.97,16L251.98,183.28L252.04,16L252.46,246.73L252.55,16L252.6,16L252.8,16L252.8,219.33L253.49,264.63L253.57,16L253.57,16L253.61,111.18L253.64,16L254.34,275.57L254.37,44.84L254.37,16L254.72,298.64L255.12,16L255.19,200.58L255.66,261.15L255.83,16L255.86,59.26L255.86,261.15L255.91,289.99L256.55,16L256.62,223.66L256.62,16L256.8,301.53L257.36,261.15L257.45,16L257.89,289.99L258.23,189.05L258.23,131.36L258.23,16L258.43,292.88L258.98,16L259.02,16L259.69,284.22L259.71,220.77L259.74,16L260.45,264.03L260.49,16L260.52,301.53L261.28,16L261.28,16L261.3,82.33L261.35,16L261.86,287.11L262.02,44.84L262.13,16L262.85,289.99L262.87,16L263.06,273.51L263.62,16L263.73,163.09L263.82,16L264.29,286.39L264.44,16L264.5,16L264.97,301.53L265.24,16L265.28,30.42L265.37,281.34L265.76,16L265.8,287.11L265.89,16L266,302.49L266.55,102.52L266.66,16L266.74,292.88L267.4,16L267.46,16L267.79,295.76L268.19,137.13L268.21,16L268.36,288.39L268.36,16L268.74,292.88L269.09,16L269.12,16L269.15,284.22L269.88,252.5L269.96,16L270.32,282.78L270.69,50.61L270.71,16L271.19,289.99L271.34,261.15L271.51,16L271.9,292.88L272.1,223.66L272.31,16L272.92,295.04L273.08,16L273.56,291.43L273.86,284.29L273.86,16L274.02,298.64L274.6,142.55L274.66,16L274.8,59.95L274.82,47.73L274.82,288.55L274.82,16L275.5,16L275.61,16L276.25,280.38L276.34,16L276.36,16L276.66,122.71L276.66,277.73L277.13,289.99L277.43,16L277.44,264.03L277.45,16L277.71,291.43L278.18,125.6L278.22,265.96L278.22,16L278.61,298.64L278.97,16L279.02,16L279.04,300.81L279.72,16L279.78,73.68L279.79,16L279.94,289.99L280.52,16L280.56,16L280.99,298.64L281.31,16L281.33,16L281.63,287.11L281.99,240.96L282.03,16L282.11,298.64L282.41,127.43L282.44,16L282.68,289.99L283.19,189.05L283.37,16L283.93,275.57L284.12,16L284.16,16L284.24,295.76L284.92,271.23L284.95,16L285.67,298L285.67,281.34L285.71,33.3L285.71,16L285.95,297.2L286.35,88.1L286.47,16L287.1,295.04L287.24,259.55L287.24,56.38L287.24,16L287.44,288.61L287.99,281.34L288,39.07L288.32,301.53L288.64,16L288.64,16L288.74,157.32L289.05,292.88L289.47,16L289.49,163.09L289.53,157.32L289.56,16L289.56,298.64L290.29,16L290.34,238.08L290.36,16L291.07,279.18L291.1,16L291.82,275.57L291.85,16L292.6,271.97L292.6,16L292.7,189.35L292.75,287.11L293.43,16L293.54,284.22L293.55,16L293.75,287.11L294.29,249.61L294.35,16L294.71,281.34L294.98,16L295.12,16L295.2,301.53L295.84,16L295.9,16L296.5,289.99L296.65,119.83L296.66,16L297.12,256.1L297.41,234.47L297.42,24.65L297.56,16L298.04,302.27L298.17,186.16L298.19,186.91L298.22,16L298.45,298.64L298.93,16L298.98,16L299.7,272.69L299.75,16L300.36,285.92L300.49,261.15L300.53,59.26L300.54,16L301.03,294.32L301.28,16L301.33,16L301.46,302.49L302.08,16L302.09,16L302.49,298.64L302.84,16L302.85,302.97L302.85,16L303.59,90.99L303.62,16L304.29,275.57L304.37,16L304.4,186.16L304.4,16L304.99,294.38L305.15,85.22L305.16,16L305.63,302.97L305.9,16L305.97,16L306.36,298.64L306.72,16L306.76,16L307.36,301.53L307.48,233.75L307.54,16L307.74,298.64L308.27,90.99L308.3,16L308.42,32.97L308.42,298.64L309.15,16L309.23,16L309.98,301.53L310.01,260.04L310.03,16L310.09,298.64L310.75,16L310.78,292.88L311.44,16L311.5,47.73L311.56,210.68L311.61,16L311.96,295.76L312.3,16L312.33,16L312.48,16L312.49,160.21L312.49,16L312.89,284.22L313.24,16L313.25,223.66L313.25,301.56L313.3,16L313.99,213.56L314.03,197.7L314.6,289.99L314.82,16L314.91,263.31L314.94,16L315.37,302.68L315.64,275.57L315.69,16L315.92,288.55L316.4,261.15L316.45,16L316.7,284.22L317.18,194.82L317.23,16L317.75,297.68L317.92,30.42L317.95,16L318.04,297.2L318.19,16L318.21,16L318.29,39.07L318.32,36.19L318.32,284.22L318.95,300.09L318.99,16L319.03,68.44L319.03,298.64L319.63,16L319.74,189.05L319.74,278.45L320.37,295.76L320.47,16L320.48,112.14L320.52,232.31L320.52,16L321.1,298.64L321.27,67.91L321.28,18.88L321.37,16L321.93,302.97L322.03,171.74L322.04,16L322.51,301.56L322.78,301.53L322.83,16L322.96,292.88L323.58,16L323.59,16L323.59,298.64L324.3,252.5L324.35,108.29L324.46,292.88L324.46,16L325.1,16L325.15,16L325.51,301.53L325.75,16L325.79,16L325.9,301.56L326.53,16L326.58,16L326.7,298.76L327.33,151.55L327.34,16L327.9,304L328.1,287.11L328.1,33.3L328.15,16L328.4,289.99L328.83,16L328.85,16L328.86,301.53L329.49,50.61L329.68,16L329.72,297.2L330.06,173.18L330.12,16L330.15,297.2L330.87,16L330.89,275.57L330.89,298.64L330.89,16L331.57,79.45L331.73,24.65L331.73,295.76L331.82,16L332.45,128.48L332.49,16L333.02,258.27L333.23,200.58L333.27,16L333.5,281.34L333.63,67.91L333.73,16L333.99,295.76L334.48,16L334.52,16L334.84,287.11L335.24,255.38L335.28,16L335.99,289.99L335.99,275.57L336.07,275.57L336.18,16L336.74,292.88L336.81,16L336.87,16L337.07,16L337.1,47.73L337.29,284.22L337.84,16L337.84,16L337.87,85.62L338.04,292.88L338.57,16L338.57,16L338.6,272.03L339.12,301.53L339.25,16L339.33,183.28L339.39,16L340.11,292.15L340.13,16L340.17,192.08L340.19,16L340.62,300.09L340.88,44.84L340.96,16L341.44,289.99L341.61,253.94L341.77,116.94L342.3,302.97L342.45,16L342.45,16L342.51,287.11L342.51,16L343.01,302.25L343.25,226.54L343.28,278.45L343.28,16L343.62,301.56L344,16L344.07,16L344.66,291.43L344.84,255.38L344.9,16L345.33,287.11L345.63,16L345.66,235.19L345.66,16L346.02,281.34L346.41,183.28L346.47,137.13L346.54,16L346.77,292.88L347.19,16L347.27,258.27L347.31,16L347.38,264.03L348,16L348.03,206.35L348.09,16L348.2,289.99L348.74,16L348.8,16L349.19,298.64L349.51,153.07L349.56,16L350.25,282.78L350.29,174.63L350.33,16L350.36,293.42L351.06,212.12L351.12,143.44L351.18,16L351.57,298.64L351.87,16L351.93,160.21L351.93,16L352.56,303.69L352.68,249.61L352.69,249.61L353.2,301.53L353.46,16L353.46,16L353.48,16L353.59,301.53L354.22,145.79L354.24,232.31L354.29,16L354.33,302.97L354.93,229.42L355.01,232.31L355.04,16L355.63,301.53L355.75,16L355.77,73.68L355.77,16L356.06,297.92L356.52,16L356.53,16L356.95,284.22L357.06,206.35L357.14,16L357.31,278.45L357.86,226.54L357.9,16L358.03,296.08L358.64,16L358.68,16L359.17,301.53L359.41,140.02L359.49,16L359.78,295.76L360.22,191.21L360.24,16L360.98,292.88L360.99,27.54L361.06,16L361.73,298.64L361.77,16L361.82,16L362.16,295.76L362.56,165.97L362.58,16L362.91,295.76L363.34,255.38L363.42,16L363.58,301.53L364.12,209.24L364.25,238.08L364.25,16L364.65,295.76L364.99,114.06L365.02,16L365.73,298.64L365.76,296.72L365.8,16L366.24,302.97L366.55,112.14L366.6,16L366.89,295.76L367.34,16L367.37,36.19L367.42,16L367.46,302.97L368.12,134.25L368.14,186.16L368.64,295.04L368.89,16L368.91,284.22L368.99,16L369.29,302.97L369.64,16L369.71,275.57L369.78,16L370.43,295.04L370.51,16L370.63,266.79L370.68,142.9L370.7,16L370.8,283.05L370.8,302.25L371.56,16L371.59,291.91L372.32,298.76L372.35,16L372.38,194.82L372.47,302.49L373.07,16L373.12,67.91L373.16,298.76L373.84,16L373.92,275.57L374.66,16L374.66,16L374.69,119.83L374.7,16L375.28,294.32L375.41,16L375.45,16L375.74,284.22L376.06,73.68L376.06,16L376.59,267.64L376.76,16L376.83,16L377.27,302.97L377.56,16L377.6,16L377.83,303.69L378.34,16L378.36,215L378.43,16L379.02,278.45L379.09,16L379.14,156.09L379.43,298.64L379.83,16L379.88,177.51L379.89,200.58L379.91,16L380.2,297.92L380.62,16L380.68,281.34L380.71,297.2L380.71,16L381.41,269.8L381.46,269.8L381.46,16L382,287.11L382.18,268.36L382.23,16L382.41,273L382.98,191.93L382.99,16L383.42,289.27L383.74,279.69L383.76,24.65L383.8,295.76L384.3,16L384.3,16L384.32,278.45L384.32,16L384.78,301.53L385.07,41.96L385.08,278.45L385.5,295.76L385.75,16L385.82,105.41L385.94,16L386.23,266.92L386.52,264.03L386.59,16L387,302.25L387.33,30.42L387.37,127.64L387.45,16L387.6,289.99L388,16L388.02,16L388.36,295.76L388.75,16L388.79,16L389.3,298.64L389.54,16L389.55,16L390.11,301.53L390.29,16L390.36,16L390.66,301.56L391.05,289.99L391.09,16L391.29,16L391.34,227.98L391.65,287.11L392.02,16L392.1,76.57L392.11,243.85L392.14,16L392.59,300.09L392.84,16L392.89,16L393.5,298.64L393.66,217.89L393.69,16L393.97,301.53L394.39,191.93L394.47,16L395.21,292.88L395.23,16L395.46,298.64L395.98,16L395.99,16L396.29,275.57L396.73,16L396.76,39.07L396.76,16L397.28,284.22L397.38,203.47L397.54,16L397.94,297.2L398.27,145.79L398.31,16L398.59,292.88L399.04,16L399.08,16L399.69,293.32L399.82,270.19L399.85,16L400.5,301.56L400.5,28.02L400.57,246.73L400.78,16L400.83,287.11L400.84,16L401.44,292.88L401.55,16L401.62,266.92L401.71,16L401.71,288.26L402.32,16L402.39,16L403.08,295.76L403.14,24.65L403.17,16L403.23,295.76L403.91,16L403.98,243.85L404,16L404.63,301.53L404.68,16L404.79,16L405.26,295.76L405.49,16L405.56,16L406.28,295.76L406.3,96.9L406.33,16L406.92,298.64L407.14,269.8L407.17,16L407.24,33.3L407.26,16L407.37,235.19L407.5,16L407.77,302.97L408.06,16L408.18,223.66L408.81,235.19L408.9,16L408.93,102.52L408.96,217.89L408.99,292.88L409.67,16L409.73,277.49L409.8,16L410.04,294.32L410.48,79.45L410.5,223.66L410.5,16L411.19,301.28L411.23,16L411.28,16L411.3,301.53L412.01,16L412.04,16L412.13,30.42L412.13,16L412.17,289.99L412.2,16L412.74,301.53L412.92,36.19L412.94,204.91L413.06,16L413.2,293.06L413.69,125.6L413.79,16L414.28,289.99L414.51,16L414.54,16L415,272.69L415.2,16L415.3,16L415.74,288.68L415.87,195.28L415.89,37.9L416.02,284.22L416.48,16L416.55,243.85L417.14,302.25L417.28,16L417.28,16L417.32,145.79L417.32,16L417.33,300.09L418.06,16L418.16,98.03L418.58,298.64L418.81,16L418.82,176.07L418.82,272.69L419.22,278.45L419.37,16L419.38,277.01L419.48,298.64L420.11,16L420.13,272.69L420.15,99.64L420.17,16L420.89,271.73L420.9,16L420.91,16L421.28,301.56L421.61,16L421.69,16L421.72,298.64L422.43,72.22L422.45,67.91L423,301.53L423.15,16L423.17,189.05L423.31,16L423.89,301.53L424.04,16L424.09,16L424.84,302.68L424.85,206.35L424.86,16L425.04,290.71L425.62,275.57L425.63,16L425.94,295.76L426.08,16L426.16,16L426.71,301.53L426.9,148.67L426.92,16L427.07,301.53L427.65,284.22L427.7,246.73L428.4,297.2L428.47,16L428.47,160.21L428.69,284.22L429.22,16L429.22,99.84L429.22,203.16L429.23,203.47L429.23,116.94L429.54,281.34L429.95,16L429.97,189.05L430.01,16L430.69,298.64L430.7,16L430.81,16L431.31,301.53L431.55,16L431.56,16L431.84,298.64L432.29,16L432.32,284.22L432.36,16L433.07,298.64L433.07,16L433.15,16L433.65,298.64L433.9,240.96L433.91,16L434.14,289.99L434.69,258.27L434.7,62.15L434.78,16L434.82,303.69L435.45,186.16L435.52,134.25L435.52,16L435.62,299.36L436.25,16L436.3,16L436.59,301.56L437.05,16L437.1,16L437.7,284.22L437.7,232.31L437.7,16L438.15,295.76L438.45,178.95L438.46,16L438.61,298.76L439.2,16L439.36,16L439.72,298.64L440.07,16L440.16,16L440.3,301.53L440.89,16L440.93,16L441.18,298.76L441.68,21.77L441.72,16L441.99,298.64L442.45,16L442.55,16L442.82,284.94L443.21,16L443.23,16L443.51,16L443.54,203.47L443.54,16L444.05,295.76L444.28,16L444.32,16L444.52,279.9L445.11,203.47L445.11,16L445.77,295.76L445.82,73.68L445.92,16L446.14,300.81L446.61,16L446.73,16L447.09,295.76L447.2,67.91L447.21,16L447.3,295.76L447.94,59.26L448,281.34L448.67,288.55L448.71,16L448.77,295.76L448.79,16L449.52,249.61L449.57,16L450.11,295.76L450.31,16L450.34,16L450.51,295.76L450.98,16L451.1,16L451.13,292.46L451.85,16L451.88,16L452.32,300.94L452.61,16L452.65,16L452.78,301.53L453.41,145.79L453.41,16L453.55,289.99L454.17,277.01L454.21,16L454.46,301.53L454.96,16L454.97,16L455.04,18.88L455.04,301.56L455.8,16L455.8,16L455.88,16L456.5,298.64L456.54,60.37L456.82,261.87L457.06,16L457.06,284.22L457.37,301.53L457.79,16L457.79,16L457.91,16L458.53,301.56L458.64,16L458.73,16L458.99,301.56L459.47,16L459.52,102.52L459.58,16L460.06,298.64L460.26,27.54L460.31,292.88L460.34,16L460.62,295.76L461.01,53.49L461.1,16L461.8,295.76L461.89,284.22L461.89,16L462.04,296.01L462.63,16L462.67,229.03L462.7,16L462.9,292.88L463.39,261.15L463.48,102.52L463.81,284.8L464.2,16L464.2,16L464.3,174.63L464.92,298.34L464.95,16L465.03,145.79L465.11,174.63L465.16,301.53L465.17,16L465.86,298.64L465.91,168.86L466.08,292.88L466.67,16L466.67,16L466.73,301.53L467.32,16L467.39,76.57L467.5,243.85L467.7,292.88L468.22,16L468.27,16L468.8,298.64L468.98,16L469.05,56.38L469.08,16L469.64,295.76L469.79,160.21L469.82,73.68L469.89,16L470.45,287.11L470.55,16L470.58,16L471.29,302.97L471.33,301.53L471.35,18.88L471.38,16L471.38,16L471.4,301.53L471.4,16L472.15,272.69L472.21,150.59L472.23,16L472.83,302.97L472.94,174.63L473,275.57L473.03,16L473.37,284.22L473.73,145.79L473.88,16L474.61,301.53L474.62,16L475.09,302.68L475.38,212.12L475.38,16L476.02,298.64L476.13,62.15L476.16,62.15L476.22,16L476.52,281.34L476.65,81.83L476.66,16L476.77,294.32L477.41,114.06L477.47,16L477.5,284.22L478,248.89L478,16L478.68,278.45L478.76,252.5L478.79,73.68L478.93,16L479.32,295.76L479.47,16L479.56,251.21L479.66,16L479.83,299.8L480.28,240.32L480.36,27.54L480.45,16L480.79,295.76L481.12,160.21L481.12,16L481.82,287.93L481.85,16L481.91,16L482.23,298.76L482.31,16L482.38,16L482.92,275.57L483.12,16L483.19,280.62L483.86,16L483.87,297.2L483.91,246.73L484.44,292.88L484.67,16L484.68,264.03L484.69,16L485.28,301.53L485.4,240.32L485.45,79.45L485.45,16L485.49,289.99L486.19,160.21L486.27,16L486.3,295.76L486.96,96.76L487.06,16L487.79,290.51L487.81,16L487.94,16L488.41,283.05L488.65,264.03L488.72,16L488.94,284.22L489.38,16L489.49,16L489.85,300.09L490.19,209.24L490.25,16L490.8,298.64L491,174.63L491.06,16L491.22,281.34L491.81,16L491.89,16L492.03,289.27L492.62,140.02L492.69,272.69L492.69,16L492.97,301.53L493.44,16L493.45,249.61L493.45,16L493.77,300.09L494.2,16L494.28,16L494.86,297.2L495.02,266.92L495.08,16L495.6,240.96L495.79,16L495.91,133.5L495.97,16L496.5,295.76L496.65,249.61L496.67,292.88L496.71,16L497.42,151.55L497.44,108.29L497.45,298.64L498.18,16L498.24,16L498.98,298.64L498.99,16L499,16L499.6,291.42L499.72,287.11L499.76,30.42L499.76,16L499.89,301.53L500.49,16L500.57,275.57L500.57,16L500.66,301.53L501.3,16L501.33,16L501.49,292.15L501.99,16L502.1,16L502.8,295.76L502.85,289.99L502.86,30.42L502.91,16L503.52,295.76L503.6,73.68L503.63,191.93L503.64,16L504.31,287.11L504.38,82.33L504.4,137.13L504.47,16L504.79,298.64L505.14,108.29L505.18,140.02L505.19,16L505.72,275.57L505.92,83.3L505.95,171.74L505.97,16L506.21,298.64L506.67,183.28L506.73,16L506.76,296.05L507.29,67.91L507.46,16L507.47,298.64L508.19,16L508.29,16L508.44,301.53L509.04,240.96L509.13,67.91L509.18,16L509.26,301.56L509.87,232.31L509.92,16L510.46,298.64L510.54,82.33L510.76,238.08L511,16" style="vector-effect: non-scaling-stroke; fill: none; stroke: rgb(99, 110, 250); stroke-opacity: 1; stroke-width: 2px; opacity: 1;"/></g><g class="points"/><g class="text"/></g></g></g><g class="overplot"/><path class="xlines-above crisp" d="M0,0" style="fill: none;"/><path class="ylines-above crisp" d="M0,0" style="fill: none;"/><g class="overlines-above"/><g class="xaxislayer-above"><g class="xtick"><text text-anchor="middle" x="0" y="436" transform="translate(198.18,0)" style="font-family: 'Times New Roman'; font-size: 15px; fill: rgb(13, 13, 13); fill-opacity: 1; white-space: pre; opacity: 1;">1.61252×10​<tspan style="font-size:70%" dy="-0.6em">18</tspan><tspan dy="0.42em">​</tspan></text></g><g class="xtick"><text text-anchor="middle" x="0" y="436" style="font-family: 'Times New Roman'; font-size: 15px; fill: rgb(13, 13, 13); fill-opacity: 1; white-space: pre; opacity: 1;" transform="translate(299.58000000000004,0)">1.612525×10​<tspan style="font-size:70%" dy="-0.6em">18</tspan><tspan dy="0.42em">​</tspan></text></g><g class="xtick"><text text-anchor="middle" x="0" y="436" style="font-family: 'Times New Roman'; font-size: 15px; fill: rgb(13, 13, 13); fill-opacity: 1; white-space: pre; opacity: 1;" transform="translate(400.99,0)">1.61253×10​<tspan style="font-size:70%" dy="-0.6em">18</tspan><tspan dy="0.42em">​</tspan></text></g><g class="xtick"><text text-anchor="middle" x="0" y="436" style="font-family: 'Times New Roman'; font-size: 15px; fill: rgb(13, 13, 13); fill-opacity: 1; white-space: pre; opacity: 1;" transform="translate(502.39,0)">1.612535×10​<tspan style="font-size:70%" dy="-0.6em">18</tspan><tspan dy="0.42em">​</tspan></text></g><g class="xtick"><text text-anchor="middle" x="0" y="436" style="font-family: 'Times New Roman'; font-size: 15px; fill: rgb(13, 13, 13); fill-opacity: 1; white-space: pre; opacity: 1;" transform="translate(603.79,0)">1.61254×10​<tspan style="font-size:70%" dy="-0.6em">18</tspan><tspan dy="0.42em">​</tspan></text></g></g><g class="yaxislayer-above"><g class="ytick"><text text-anchor="end" x="108" y="12.25" transform="translate(0,404.41)" style="font-family: 'Times New Roman'; font-size: 35px; fill: rgb(13, 13, 13); fill-opacity: 1; white-space: pre; opacity: 1;">0</text></g><g class="ytick"><text text-anchor="end" x="108" y="12.25" style="font-family: 'Times New Roman'; font-size: 35px; fill: rgb(13, 13, 13); fill-opacity: 1; white-space: pre; opacity: 1;" transform="translate(0,346.73)">20</text></g><g class="ytick"><text text-anchor="end" x="108" y="12.25" style="font-family: 'Times New Roman'; font-size: 35px; fill: rgb(13, 13, 13); fill-opacity: 1; white-space: pre; opacity: 1;" transform="translate(0,289.05)">40</text></g><g class="ytick"><text text-anchor="end" x="108" y="12.25" style="font-family: 'Times New Roman'; font-size: 35px; fill: rgb(13, 13, 13); fill-opacity: 1; white-space: pre; opacity: 1;" transform="translate(0,231.36)">60</text></g><g class="ytick"><text text-anchor="end" x="108" y="12.25" style="font-family: 'Times New Roman'; font-size: 35px; fill: rgb(13, 13, 13); fill-opacity: 1; white-space: pre; opacity: 1;" transform="translate(0,173.68)">80</text></g><g class="ytick"><text text-anchor="end" x="108" y="12.25" style="font-family: 'Times New Roman'; font-size: 35px; fill: rgb(13, 13, 13); fill-opacity: 1; white-space: pre; opacity: 1;" transform="translate(0,116)">100</text></g></g><g class="overaxes-above"/></g></g><g class="polarlayer"/><g class="smithlayer"/><g class="ternarylayer"/><g class="geolayer"/><g class="funnelarealayer"/><g class="pielayer"/><g class="iciclelayer"/><g class="treemaplayer"/><g class="sunburstlayer"/><g class="glimages"/><defs id="topdefs-4942ff"><g class="clips"/></defs><g class="layer-above"><g class="imagelayer"/><g class="shapelayer"/></g><g class="infolayer"><g class="g-gtitle"/><g class="g-xtitle"><text class="xtitle" x="364.5" y="463.8" text-anchor="middle" style="font-family: 'Open Sans', verdana, arial, sans-serif; font-size: 14px; fill: rgb(42, 63, 95); opacity: 1; font-weight: normal; white-space: pre;">Time Steps (ns)</text></g><g class="g-ytitle" transform="translate(23.5,0)"><text class="ytitle" transform="rotate(-90,12.5,260)" x="12.5" y="260" text-anchor="middle" style="font-family: 'Times New Roman'; font-size: 40px; fill: rgb(13, 13, 13); opacity: 1; font-weight: normal; white-space: pre;">Fill rate (in %)</text></g></g></svg>