<svg class="main-svg" xmlns="http://www.w3.org/2000/svg" xmlns:xlink="http://www.w3.org/1999/xlink" width="700" height="500" style="" viewBox="0 0 700 500"><rect x="0" y="0" width="700" height="500" style="fill: rgb(255, 255, 255); fill-opacity: 1;"/><defs id="defs-cab4db"><g class="clips"><clipPath id="clipcab4dbxyplot" class="plotclip"><rect width="399" height="300"/></clipPath><clipPath class="axesclip" id="clipcab4dbx"><rect x="137" y="0" width="399" height="500"/></clipPath><clipPath class="axesclip" id="clipcab4dby"><rect x="0" y="100" width="700" height="300"/></clipPath><clipPath class="axesclip" id="clipcab4dbxy"><rect x="137" y="100" width="399" height="300"/></clipPath></g><g class="gradients"/><g class="patterns"/></defs><g class="bglayer"><rect class="bg" x="137" y="100" width="399" height="300" style="fill: rgb(229, 236, 246); fill-opacity: 1; stroke-width: 0;"/></g><g class="layer-below"><g class="imagelayer"/><g class="shapelayer"/></g><g class="cartesianlayer"><g class="subplot xy"><g class="layer-subplot"><g class="shapelayer"/><g class="imagelayer"/></g><g class="minor-gridlayer"><g class="x"/><g class="y"/></g><g class="gridlayer"><g class="x"><path class="xgrid crisp" transform="translate(206.5,0)" d="M0,100v300" style="stroke: rgb(255, 255, 255); stroke-opacity: 1; stroke-width: 1px;"/><path class="xgrid crisp" transform="translate(285.71000000000004,0)" d="M0,100v300" style="stroke: rgb(255, 255, 255); stroke-opacity: 1; stroke-width: 1px;"/><path class="xgrid crisp" transform="translate(364.91999999999996,0)" d="M0,100v300" style="stroke: rgb(255, 255, 255); stroke-opacity: 1; stroke-width: 1px;"/><path class="xgrid crisp" transform="translate(444.12,0)" d="M0,100v300" style="stroke: rgb(255, 255, 255); stroke-opacity: 1; stroke-width: 1px;"/><path class="xgrid crisp" transform="translate(523.3299999999999,0)" d="M0,100v300" style="stroke: rgb(255, 255, 255); stroke-opacity: 1; stroke-width: 1px;"/></g><g class="y"><path class="ygrid crisp" transform="translate(0,365.97)" d="M137,0h399" style="stroke: rgb(255, 255, 255); stroke-opacity: 1; stroke-width: 1px;"/><path class="ygrid crisp" transform="translate(0,327.96000000000004)" d="M137,0h399" style="stroke: rgb(255, 255, 255); stroke-opacity: 1; stroke-width: 1px;"/><path class="ygrid crisp" transform="translate(0,289.94)" d="M137,0h399" style="stroke: rgb(255, 255, 255); stroke-opacity: 1; stroke-width: 1px;"/><path class="ygrid crisp" transform="translate(0,213.9)" d="M137,0h399" style="stroke: rgb(255, 255, 255); stroke-opacity: 1; stroke-width: 1px;"/><path class="ygrid crisp" transform="translate(0,175.89)" d="M137,0h399" style="stroke: rgb(255, 255, 255); stroke-opacity: 1; stroke-width: 1px;"/><path class="ygrid crisp" transform="translate(0,137.87)" d="M137,0h399" style="stroke: rgb(255, 255, 255); stroke-opacity: 1; stroke-width: 1px;"/></g></g><g class="zerolinelayer"><path class="yzl zl crisp" transform="translate(0,251.92)" d="M137,0h399" style="stroke: rgb(255, 255, 255); stroke-opacity: 1; stroke-width: 2px;"/></g><path class="xlines-below"/><path class="ylines-below"/><g class="overlines-below"/><g class="xaxislayer-below"/><g class="yaxislayer-below"/><g class="overaxes-below"/><g class="plot" transform="translate(137,100)" clip-path="url(#clipcab4dbxyplot)"><g class="scatterlayer mlayer"><g class="trace scatter tracebeddf6" style="stroke-miterlimit: 2; opacity: 1;"><g class="fills"/><g class="errorbars"/><g class="lines"><path class="js-line" d="M0,121.52L0.63,220.36L0.68,144.32L0.81,129.11L1.47,182.34L1.63,155.72L1.64,148.12L1.64,113.9L1.72,197.55L2.34,151.92L2.39,148.12L2.96,193.74L2.99,110.1L3.06,174.73L3.15,121.51L3.91,163.33L3.96,148.12L3.99,140.52L4.11,102.49L4.43,186.14L4.74,163.33L4.78,163.33L5.16,186.14L5.25,125.31L5.53,125.31L5.59,148.12L5.93,182.34L6.13,113.9L6.33,155.72L6.33,148.12L6.81,178.54L6.85,94.89L7.07,129.11L7.14,178.54L7.14,110.09L7.82,186.15L7.89,155.72L7.93,182.34L8.01,178.54L8.01,201.35L8.12,151.92L8.46,113.89L8.82,201.36L8.86,167.14L8.88,167.14L8.97,197.57L9.23,113.88L9.62,129.1L9.64,159.53L10.24,189.95L10.3,125.3L10.36,178.54L10.47,155.73L10.62,186.15L10.77,72.07L11.06,121.5L11.16,178.54L11.53,201.36L11.56,117.69L11.89,148.12L11.93,155.73L12.57,174.74L12.59,129.11L12.67,140.51L12.7,151.92L12.92,121.5L12.97,182.35L13.46,144.32L13.47,159.53L13.53,136.71L14.1,178.54L14.2,163.33L14.21,129.11L14.26,220.37L14.28,83.48L14.91,151.92L14.99,159.53L15.16,94.87L15.21,178.54L15.68,136.71L15.77,167.13L15.88,117.69L15.93,197.55L16.52,163.33L16.55,140.51L16.84,193.76L17.07,87.26L17.21,178.54L17.31,136.71L17.49,121.5L17.91,189.95L18.05,155.72L18.09,140.52L18.26,117.7L18.27,186.15L18.35,125.3L18.35,117.7L18.62,106.29L18.7,224.15L19.09,148.12L19.12,148.12L19.67,94.88L19.79,216.57L19.87,144.32L19.9,140.51L20.24,113.89L20.27,189.95L20.65,155.72L20.72,178.54L20.88,98.68L21.31,193.75L21.42,186.15L21.51,167.13L21.51,132.91L21.97,178.54L22.19,148.12L22.28,140.51L22.92,113.9L22.98,205.16L23.04,167.13L23.09,186.15L23.28,106.29L23.75,132.91L23.81,140.51L23.93,110.09L24.08,182.34L24.58,159.53L24.58,144.32L25.14,197.55L25.15,102.49L25.33,159.53L25.35,159.53L25.71,102.49L25.73,216.57L26.11,106.3L26.13,155.72L26.47,227.97L26.48,83.47L26.84,110.1L26.9,182.34L26.91,189.94L27.45,121.5L27.59,178.54L27.65,159.53L28.02,201.35L28.24,117.7L28.36,170.94L28.36,178.54L28.55,110.09L28.57,205.15L29.1,182.34L29.1,189.95L29.12,235.58L29.51,68.27L29.82,167.13L29.84,167.13L29.84,205.16L30.1,102.48L30.5,167.13L30.6,125.31L30.85,110.1L30.86,208.95L31.34,110.1L31.38,106.3L31.88,189.94L32.12,125.31L32.13,201.35L32.13,216.55L32.59,94.89L32.88,148.12L32.91,159.53L33.09,121.51L33.22,193.74L33.57,151.92L33.64,106.3L33.68,102.5L34.01,201.34L34.39,117.71L34.39,87.29L35.03,224.16L35.13,151.92L35.2,167.13L35.29,68.26L35.3,227.98L35.74,178.53L35.74,186.14L35.97,250.79L35.98,83.47L36.46,193.74L36.5,144.32L37.22,189.94L37.22,102.49L37.26,129.11L37.59,201.34L37.78,91.1L37.99,155.72L38.03,136.72L38.05,121.51L38.11,178.53L38.77,163.33L38.8,140.52L39.46,79.69L39.49,250.77L39.55,144.32L39.58,159.52L39.74,193.74L40.09,102.5L40.35,151.92L40.35,159.53L40.71,201.35L40.75,83.49L41.12,102.5L41.12,212.75L41.12,220.35L41.22,83.49L41.86,132.92L41.88,151.92L41.98,113.92L42.03,186.13L42.62,163.33L42.64,140.52L42.66,113.9L43.27,208.95L43.39,189.93L43.4,182.33L43.69,197.54L44.13,98.7L44.14,159.52L44.15,186.13L44.75,125.31L44.86,197.55L44.9,178.54L44.91,144.32L45.08,201.35L45.32,117.71L45.65,155.72L45.7,155.72L45.96,182.34L46.42,106.29L46.43,148.12L46.46,151.92L46.74,98.7L46.85,224.16L47.21,121.5L47.25,186.15L47.72,220.37L47.73,83.47L48,178.55L48.02,178.55L48.11,212.76L48.29,75.87L48.76,170.93L48.8,155.72L48.92,125.31L49.08,178.54L49.36,155.72L49.49,163.33L49.69,205.15L50.01,102.49L50.18,117.7L50.21,155.72L50.23,186.15L50.45,110.09L50.94,129.11L50.95,129.11L51.05,212.76L51.07,72.06L51.69,132.91L51.7,106.29L51.74,227.97L52.07,83.46L52.29,113.89L52.35,106.28L52.94,98.68L53.02,208.97L53.02,208.97L53.04,94.87L53.37,91.08L53.7,197.56L53.72,140.51L53.81,151.92L53.83,94.88L53.86,205.16L54.55,121.49L54.57,121.49L54.66,72.04L54.67,228L55.25,136.7L55.37,148.12L55.74,269.83L55.76,22.61L56.1,186.16L56.14,155.73L56.63,102.46L56.79,220.4L56.87,174.75L56.87,75.83L56.92,231.81L57.62,178.55L57.7,140.51L57.89,83.44L58.01,224.2L58.45,167.14L58.46,121.49L58.51,113.88L58.65,174.75L58.81,144.31L58.81,193.77L59.15,110.07L59.46,201.38L59.55,167.14L59.6,132.9L60.05,197.57L60.06,106.27L60.35,182.35L60.37,182.35L60.51,208.98L60.81,98.67L61.11,170.94L61.13,163.34L61.24,228L61.8,79.64L61.88,148.12L61.89,148.12L61.92,208.98L61.98,102.46L62.63,178.55L62.66,136.71L62.77,98.66L63.36,216.59L63.42,148.12L63.43,132.9L63.53,212.78L63.55,83.45L64.19,178.55L64.19,125.29L64.74,205.17L64.75,98.67L64.93,136.71L64.94,132.91L65.33,216.58L65.49,72.06L65.68,148.12L65.73,148.12L66.23,102.48L66.3,193.75L66.48,155.73L66.5,155.73L66.69,87.28L66.78,216.56L67.05,167.13L67.06,174.74L67.41,98.68L67.78,205.16L67.81,174.74L67.82,98.69L67.92,87.28L68.25,239.39L68.58,170.94L68.58,117.69L68.64,106.28L69.06,189.95L69.33,144.32L69.36,155.72L69.62,110.09L69.7,201.36L70.11,144.32L70.12,144.32L70.5,182.34L70.53,106.29L70.75,159.53L70.76,91.07L70.77,60.65L70.78,235.58L71.48,159.53L71.49,155.72L71.79,193.75L72.1,102.5L72.19,163.33L72.22,170.94L72.55,178.54L72.82,125.3L72.98,129.11L72.99,148.12L73.31,110.09L73.38,189.95L73.72,155.72L73.78,155.72L74.11,98.69L74.11,212.75L74.52,155.72L74.52,186.14L74.54,208.95L74.58,102.49L75.25,174.74L75.28,144.32L75.46,212.76L75.56,91.08L75.98,167.13L75.98,189.94L76.4,87.29L76.44,216.56L76.72,132.91L76.76,178.54L76.78,224.16L77.3,91.09L77.49,144.32L77.53,167.13L78.12,113.9L78.26,224.16L78.28,220.35L78.39,155.72L78.68,201.34L79.05,106.3L79.18,136.71L79.33,189.94L79.61,98.7L79.76,140.52L79.76,163.33L79.9,79.69L80.03,220.35L80.54,129.11L80.54,174.74L80.75,201.35L80.8,113.9L81.29,121.5L81.35,178.54L81.36,106.29L81.85,193.75L82.09,186.14L82.1,186.14L82.63,75.85L82.72,231.8L82.82,205.17L82.92,140.51L82.97,224.18L83.46,83.47L83.66,201.36L83.7,201.36L83.7,208.96L83.71,94.88L84.45,151.92L84.46,151.92L84.88,56.84L84.89,247.01L85.09,186.15L85.17,110.08L85.41,106.28L85.47,216.57L85.92,178.55L85.93,110.08L86.02,178.55L86.65,163.33L86.72,144.32L86.98,186.15L87.02,132.91L87.45,148.12L87.49,170.94L87.57,110.08L87.57,197.56L88.19,148.12L88.22,155.73L88.61,113.89L88.81,201.36L88.94,170.94L88.95,148.12L89.46,227.99L89.47,83.46L89.7,178.55L89.72,197.57L89.92,83.45L90.43,178.55L90.48,144.31L90.52,132.9L90.55,212.78L90.55,144.31L90.58,98.67L90.58,83.45L91.24,193.76L91.33,182.36L91.38,125.29L91.7,113.87L91.97,201.38L92.13,151.92L92.14,144.31L92.36,182.36L92.36,106.27L92.75,167.14L92.76,94.85L92.98,193.77L93.52,121.48L93.53,125.29L93.67,209L93.86,106.26L94.25,140.51L94.29,144.31L94.41,113.87L94.65,193.78L95.02,144.31L95.04,144.31L95.14,113.87L95.16,216.6L95.79,174.76L95.85,132.89L96.09,243.25L96.26,91.03L96.61,167.14L96.61,136.7L96.67,220.42L97.03,94.85L97.35,144.31L97.37,197.58L97.62,205.19L98.13,110.07L98.16,121.48L98.2,155.73L98.5,83.45L98.52,228L98.82,163.34L98.88,125.28L99.27,71.99L99.33,239.45L99.59,155.73L99.68,151.92L99.76,113.86L99.91,209.01L100.42,159.53L100.42,129.09L100.44,102.45L100.82,189.97L101.17,170.95L101.2,197.59L101.22,98.65L101.56,216.61L101.94,113.88L102.01,189.97L102.69,239.45L102.69,64.4L102.79,68.2L102.92,231.82L103.53,125.29L103.55,125.29L103.66,94.84L103.67,209L104.33,174.75L104.35,121.48L104.85,113.86L104.99,189.98L105.07,140.51L105.12,140.51L105.3,186.17L105.66,125.29L105.85,155.73L105.9,159.53L106.12,113.87L106.13,186.17L106.61,132.89L106.67,148.12L106.87,212.81L107.14,113.87L107.34,136.7L107.41,167.14L107.41,113.86L107.58,189.98L108.13,144.31L108.17,167.15L108.23,193.79L108.71,91.03L108.92,151.92L108.97,167.14L109.5,189.97L109.64,110.07L109.7,140.51L109.73,159.53L110.21,60.57L110.22,239.46L110.41,151.92L110.44,174.75L110.52,243.27L110.55,79.6L110.94,148.12L110.97,132.89L111.02,106.26L111.44,212.81L111.68,163.34L111.69,140.51L112.15,117.68L112.22,193.77L112.42,163.34L112.44,144.31L112.94,193.78L113.16,98.65L113.21,125.28L113.48,87.23L113.89,197.58L113.93,148.12L113.98,140.5L114.29,110.06L114.43,186.17L114.73,159.53L114.75,140.51L115.02,231.83L115.45,94.84L115.58,106.26L116.06,209L116.09,94.85L116.34,136.7L116.39,148.12L116.81,178.56L116.95,83.44L116.99,129.1L116.99,224.19L117.56,228.01L117.66,72.02L117.72,159.53L117.89,178.55L118.52,91.07L118.61,250.79L118.62,205.17L118.69,144.32L118.77,75.85L119.42,208.98L119.5,110.08L119.87,193.76L120.27,136.71L120.29,136.71L120.89,113.89L120.98,208.96L120.99,113.89L121,75.85L121.01,254.6L121.72,167.13L121.79,186.15L121.85,121.49L121.97,197.56L122.53,155.73L122.56,170.94L122.86,87.26L123.23,231.79L123.29,144.31L123.32,148.12L123.65,193.76L123.71,117.69L124.05,148.12L124.06,148.12L124.18,125.3L124.2,178.55L124.79,159.53L124.82,136.71L124.85,216.57L125.56,106.28L125.58,193.75L125.95,94.89L126.34,117.69L126.37,163.33L126.66,212.76L127.03,79.67L127.04,155.72L127.07,186.15L127.44,121.5L127.47,189.95L127.83,148.12L127.88,151.92L128.47,91.08L128.5,201.36L128.53,155.72L128.65,148.12L129.12,117.7L129.3,212.76L129.42,182.34L129.42,113.9L129.44,189.95L129.63,102.48L130.16,136.71L130.19,167.13L130.65,186.15L130.77,121.5L130.91,151.92L130.91,189.95L130.92,113.89L131.66,148.12L131.68,144.32L132.18,186.15L132.42,102.49L132.43,170.93L132.48,144.32L132.93,102.5L133.01,201.35L133.18,163.33L133.25,117.7L133.32,110.1L133.35,193.75L134.02,151.92L134.06,148.12L134.46,106.28L134.65,216.57L134.79,182.34L134.8,132.91L135.34,79.64L135.39,224.2L135.53,129.1L135.56,178.55L136.16,208.97L136.22,94.88L136.33,110.09L136.35,163.33L136.56,94.87L136.6,197.56L137.07,178.55L137.2,155.73L137.49,121.49L137.66,228.01L137.93,132.9L137.94,174.75L138.18,106.27L138.66,197.56L138.68,174.74L138.7,140.51L139.18,224.19L139.24,117.69L139.43,144.32L139.47,144.32L139.69,110.09L139.72,205.17L140.18,155.73L140.22,163.33L140.24,83.47L140.75,201.36L140.89,170.94L140.98,155.73L141.08,231.79L141.14,79.66L141.7,220.39L141.76,220.39L141.92,87.26L142.45,121.49L142.51,182.35L143.06,79.64L143.12,224.2L143.27,98.66L143.29,167.14L143.96,224.22L144,113.87L144.05,129.09L144.05,98.65L144.58,205.18L144.8,98.67L144.83,201.37L144.83,98.67L145.56,167.14L145.63,140.51L145.66,68.23L145.91,189.96L146.38,106.27L146.53,170.94L147.04,117.69L147.24,189.96L147.29,129.1L147.35,182.36L147.74,117.68L147.88,163.33L147.88,125.29L148.06,94.86L148.13,208.98L148.63,148.12L148.65,148.12L148.74,117.68L148.76,186.16L149.39,167.14L149.41,136.7L149.46,186.16L149.81,110.08L150.16,174.74L150.18,148.12L150.23,121.49L150.36,193.77L150.92,136.7L150.94,140.51L151.26,102.46L151.31,201.38L151.53,148.12L151.56,106.26L152.15,201.38L152.35,155.73L152.36,129.1L152.77,201.37L153.1,106.28L153.11,106.28L153.16,83.47L153.93,178.55L153.93,178.55L153.94,125.3L154.33,208.98L154.51,87.24L154.69,132.9L154.7,144.31L154.79,174.75L155.11,129.1L155.41,144.31L155.41,189.96L155.54,201.36L156.01,110.09L156.16,125.3L156.21,155.73L156.35,102.48L156.52,197.56L156.94,132.91L157,129.1L157.11,121.5L157.73,182.35L157.75,167.13L157.76,121.5L158.36,83.48L158.43,201.36L158.53,148.12L158.55,148.12L158.75,113.89L159.01,174.74L159.03,159.53L159.03,113.89L159.06,98.68L159.66,208.96L159.73,144.32L159.82,155.73L159.87,68.28L160.03,212.75L160.56,136.71L160.58,170.93L160.64,201.35L160.88,98.69L161.3,186.14L161.32,140.52L161.89,64.47L161.9,235.58L161.98,83.47L162,227.97L162.76,117.7L162.77,216.55L162.81,83.49L163.5,167.13L163.56,140.52L163.7,174.74L163.75,106.29L164.12,151.92L164.13,98.69L164.19,186.14L164.86,151.92L164.94,140.51L164.94,113.89L165.04,208.98L165.66,170.93L165.74,132.91L165.76,212.76L165.78,98.7L166.47,132.91L166.53,155.72L166.94,197.54L167.28,102.49L167.28,102.49L167.33,201.35L167.38,102.49L167.73,205.15L168.05,125.31L168.12,178.53L168.17,193.74L168.48,102.5L168.87,121.51L168.87,182.33L169.41,102.5L169.45,208.95L169.56,121.51L169.66,174.73L170.1,197.54L170.32,98.69L170.42,155.72L170.44,151.92L170.52,106.29L170.65,227.97L171.19,182.34L171.2,151.92L171.68,235.57L171.75,102.48L171.85,178.54L171.86,98.68L171.96,201.36L172.56,178.53L172.62,167.13L173.05,87.28L173.05,208.96L173.37,193.75L173.39,189.95L173.9,75.86L173.92,208.97L174.14,129.11L174.16,178.54L174.53,117.7L174.92,151.92L174.97,151.92L175.17,170.93L175.2,110.09L175.28,102.49L175.29,205.15L175.34,98.69L176.03,174.74L176.04,148.12L176.04,186.14L176.59,102.49L176.79,151.92L176.8,155.72L176.99,174.73L177.43,129.11L177.54,144.32L177.57,159.53L178.07,189.94L178.26,87.28L178.3,129.11L178.34,170.93L178.59,110.1L178.75,197.54L179.03,197.54L179.1,189.94L179.25,106.3L179.89,163.33L179.91,163.33L179.96,106.29L180.66,212.75L180.66,151.92L180.67,212.75L180.87,94.89L181.41,148.12L181.44,148.12L181.82,106.32L181.87,189.92L182.14,140.52L182.18,140.52L182.18,110.11L182.68,201.34L182.9,129.12L182.94,174.73L183.27,208.94L183.6,117.7L183.69,144.32L183.71,159.53L183.73,189.94L184.16,129.11L184.41,151.92L184.41,110.09L184.48,49.24L184.5,262.2L185.16,186.14L185.17,186.14L185.17,83.48L185.18,254.59L185.91,174.74L185.95,121.5L185.99,117.7L186.04,201.35L186.1,189.94L186.1,235.56L186.66,254.56L186.69,91.1L186.85,125.31L186.88,178.53L187.04,94.91L187.61,193.74L187.66,170.93L187.85,197.54L187.98,110.11L188.35,159.53L188.37,140.52L188.71,94.9L189.1,205.14L189.14,193.73L189.43,216.54L189.71,117.71L189.89,163.32L189.9,117.72L189.96,106.32L190.09,197.52L190.6,140.52L190.66,148.12L191.23,113.91L191.3,212.74L191.4,182.33L191.43,182.33L191.49,235.54L191.98,83.5L192.18,178.52L192.22,151.92L192.33,106.31L192.54,197.53L192.91,155.72L192.97,159.52L193.6,102.5L193.76,201.34L193.82,125.31L193.83,227.94L194.03,75.89L194.54,106.31L194.61,178.53L195.28,110.11L195.36,155.72L195.37,178.53L195.39,227.94L195.7,94.91L196.1,159.52L196.16,159.52L196.39,193.73L196.52,129.12L196.73,144.32L196.73,186.13L197.02,91.1L197.03,208.94L197.48,174.72L197.49,129.12L197.55,121.52L197.94,182.32L198.2,155.72L198.26,159.52L198.55,113.92L198.62,193.73L199.01,129.12L199.04,144.32L199.64,117.72L199.75,186.13L199.78,159.52L199.83,144.32L199.97,98.72L199.98,197.52L200.58,148.12L200.58,132.92L200.6,68.32L201.08,227.93L201.34,201.33L201.38,174.72L201.88,193.72L202.08,102.52L202.13,174.72L202.27,106.32L202.34,208.92L202.78,136.73L202.79,163.32L203.15,113.93L203.28,189.92L203.54,174.72L203.57,159.52L204,186.12L204.26,106.32L204.32,174.72L204.34,113.92L204.41,189.92L205.07,113.93L205.08,189.92L205.19,102.54L205.44,193.72L205.77,136.72L205.89,140.52L205.91,106.32L205.99,201.32L206.59,121.52L206.63,159.52L206.81,117.72L206.94,186.12L207.37,129.12L207.39,155.72L207.65,117.71L207.66,205.13L208.14,178.52L208.18,117.72L208.19,189.92L208.92,155.72L208.94,151.92L209.55,113.92L209.6,186.12L209.62,174.72L209.62,113.92L209.63,106.32L209.63,197.52L210.35,178.53L210.4,186.13L211.01,129.12L211.11,159.52L211.11,174.72L211.43,201.32L211.67,113.92L211.86,148.12L211.89,148.12L211.91,98.72L211.96,193.72L212.54,140.52L212.6,148.12L212.9,117.72L212.98,197.52L213.34,132.92L213.38,148.12L213.53,197.53L213.88,113.92L214.05,155.72L214.07,174.72L214.65,224.11L214.73,56.93L214.82,132.92L214.87,163.32L215.29,216.51L215.35,121.52L215.59,144.32L215.59,136.72L216.09,79.72L216.34,205.13L216.44,106.32L216.44,91.12L216.47,224.13L217.16,129.12L217.2,170.93L217.24,254.54L217.51,60.69L217.94,174.72L217.99,129.12L218.06,235.52L218.51,113.92L218.71,155.72L218.79,148.12L218.9,110.11L219.07,186.13L219.15,178.53L219.15,201.33L219.7,98.71L219.88,163.32L219.93,163.32L220.26,110.11L220.64,216.53L220.7,182.33L221.29,197.53L221.34,79.7L221.44,163.33L221.46,113.9L221.48,91.09L222.12,208.94L222.2,125.31L222.29,129.11L222.47,212.74L222.5,91.1L223.03,148.12L223.05,129.12L223.59,113.91L223.77,197.53L223.78,113.91L223.82,113.91L224.29,250.73L224.3,34.09L224.57,167.13L224.6,148.12L224.62,201.34L225.09,94.9L225.35,151.92L225.37,144.32L225.48,201.34L225.6,121.51L226.01,159.53L226.01,182.33L226.15,208.94L226.72,87.29L226.74,129.11L226.77,159.53L226.84,231.78L226.87,117.7L227.11,167.13L227.19,208.95L227.23,216.56L227.35,117.7L227.35,87.28L227.88,197.54L228.13,155.72L228.14,155.72L228.52,106.29L228.54,197.55L228.78,167.13L228.78,106.29L229.28,186.15L229.54,144.32L229.55,159.53L229.69,212.76L229.74,91.08L230.3,148.12L230.32,155.72L230.54,189.95L230.57,98.68L231.01,132.9L231.01,182.35L231.21,121.49L231.38,227.99L231.75,155.73L231.78,129.1L231.83,227.99L232.01,53.03L232.49,155.72L232.54,129.11L232.7,224.17L232.72,87.28L233.27,167.13L233.32,144.32L233.73,212.76L234.02,106.29L234.07,136.71L234.08,136.71L234.46,125.31L234.74,189.95L234.82,136.71L234.86,167.13L235.19,205.15L235.25,98.68L235.61,132.91L235.63,148.12L235.91,208.96L235.93,94.88L236.35,174.74L236.37,136.71L236.38,212.76L236.57,113.89L237.12,132.91L237.13,159.53L237.21,117.7L237.32,178.54L237.88,174.74L237.9,170.94L237.9,197.55L238.02,102.49L238.64,182.34L238.66,182.34L238.66,113.9L239.34,197.54L239.4,140.52L239.42,125.31L240.01,106.29L240.16,205.15L240.2,201.35L240.21,98.69L240.79,186.15L240.95,148.12L240.99,144.32L241.22,125.3L241.29,266.02L241.29,56.82L241.58,235.61L242.08,174.75L242.09,125.29L242.41,113.89L242.47,186.15L242.82,144.32L242.85,129.11L243.54,193.74L243.6,102.49L243.61,102.49L243.96,201.35L244.18,94.88L244.35,159.53L244.36,117.69L244.43,91.07L244.71,186.15L245.1,125.3L245.12,163.33L245.79,220.38L245.85,83.47L245.88,102.48L245.97,94.87L246.41,178.55L246.69,155.72L246.7,148.12L246.72,186.14L246.98,117.7L247.43,163.33L247.47,163.33L248.11,102.49L248.17,231.76L248.25,155.72L248.42,220.36L248.44,87.28L248.91,140.52L248.92,254.58L248.96,68.25L249.63,148.12L249.69,98.68L249.73,205.16L250.45,148.12L250.47,155.72L250.69,224.16L250.72,45.45L251.13,155.72L251.14,83.47L251.75,212.77L251.94,193.75L252.05,140.52L252.36,201.35L252.58,102.48L252.75,159.53L252.76,102.48L252.99,91.09L253.2,189.94L253.5,163.33L253.54,178.54L253.87,193.75L254.07,68.26L254.1,189.95L254.13,216.57L254.82,227.98L254.87,72.06L254.88,178.54L254.9,75.87L254.9,64.46L255.6,277.35L255.66,129.11L255.75,79.68L256.2,208.95L256.29,121.5L256.36,178.54L256.47,98.7L256.88,205.14L257.08,148.12L257.13,140.52L257.24,239.34L257.75,94.9L257.87,148.12L257.9,151.92L258.43,231.74L258.48,60.7L258.64,125.31L258.66,163.33L258.74,208.94L259.31,98.71L259.39,167.12L259.42,151.92L259.49,113.92L259.94,189.93L260.12,155.72L260.12,148.12L260.2,182.32L260.32,110.12L260.41,129.12L260.51,125.32L260.88,189.91L260.93,91.13L261.22,148.12L261.3,148.12L261.67,110.11L262.02,201.33L262.06,155.72L262.09,121.52L262.22,106.32L262.28,205.13L262.83,136.72L262.86,186.13L263.27,75.89L263.42,205.14L263.57,170.92L263.59,144.32L263.66,75.91L263.66,212.73L264.34,201.33L264.36,201.33L264.36,79.71L265.1,136.72L265.12,155.72L265.45,102.52L265.84,186.13L265.86,155.72L265.88,117.71L266.24,197.54L266.41,106.31L266.63,155.72L266.64,151.92L266.82,174.73L267.38,106.3L267.43,159.53L267.5,91.1L267.54,189.94L268.07,91.11L268.09,182.32L268.26,87.32L268.64,216.53L268.83,148.12L268.88,155.72L269,197.53L269.06,106.32L269.62,155.72L269.63,159.52L269.79,102.52L269.83,201.33L270.36,148.12L270.4,178.53L270.68,106.31L270.84,205.13L271.15,148.12L271.16,151.92L271.39,102.52L271.5,201.33L271.66,159.52L271.66,189.93L271.77,106.31L271.98,193.73L272,186.13L272.03,201.34L272.29,125.31L272.75,212.73L272.81,148.12L273.25,193.73L273.27,110.11L273.56,155.72L273.57,155.72L273.73,121.52L273.73,174.73L274.17,132.92L274.21,174.72L274.53,94.93L274.61,189.92L274.93,186.12L274.96,186.12L275.3,129.12L275.3,155.72L275.31,178.52L275.38,208.9L275.66,79.74L276.02,163.32L276.11,132.92L276.18,106.32L276.21,197.52L276.84,174.72L276.88,174.72L276.92,117.72L277.61,151.92L277.65,159.52L278.18,117.72L278.35,189.93L278.37,170.93L278.37,208.93L278.92,83.5L279.02,212.74L279.16,148.12L279.19,182.33L279.52,79.69L279.69,227.94L279.94,193.74L279.98,155.72L280.12,106.3L280.54,216.54L280.72,155.72L280.74,155.72L281.08,98.7L281.09,208.94L281.49,132.92L281.51,170.93L281.77,197.53L282.1,102.51L282.24,132.92L282.27,170.93L282.36,79.69L282.38,212.74L283,98.7L283.02,216.54L283.47,72.1L283.61,159.52L283.79,144.32L284.14,125.31L284.44,197.54L284.46,186.13L284.46,125.31L284.95,94.9L285.04,186.14L285.2,144.32L285.22,144.32L285.24,189.93L285.27,94.9L285.97,163.33L285.98,182.34L286.25,87.3L286.29,201.34L286.68,155.72L286.69,136.72L286.94,72.09L286.96,201.34L287.41,159.52L287.46,151.92L287.64,231.73L287.67,64.5L288.09,170.93L288.1,174.73L288.46,182.34L288.52,117.7L288.78,155.72L288.86,155.72L289.16,193.74L289.55,102.49L289.6,113.9L289.63,136.71L289.7,94.89L290.05,208.95L290.36,178.54L290.4,186.14L290.58,193.75L291.07,102.49L291.16,148.12L291.18,148.12L291.88,205.14L291.9,102.5L291.93,170.93L291.94,155.72L292.02,91.09L292.03,197.54L292.67,110.1L292.71,110.1L292.79,113.9L292.79,106.3L292.8,106.3L292.81,193.74L292.9,117.7L293.08,205.15L293.52,170.93L293.59,159.52L294.27,201.34L294.29,98.7L294.33,136.71L294.35,136.71L294.81,186.14L294.83,102.5L295.08,151.92L295.19,167.13L295.32,94.9L295.46,189.93L295.94,140.52L296,155.72L296.03,113.91L296.33,186.13L296.73,136.72L296.73,167.13L297.12,98.69L297.23,231.78L297.47,170.93L297.49,167.13L297.99,189.95L298.21,113.9L298.21,113.9L298.26,144.32L298.35,136.71L298.55,182.34L298.55,113.9L298.59,189.95L299.3,155.72L299.32,148.12L300.03,216.55L300.04,79.69L300.07,148.12L300.09,155.72L300.1,79.68L300.18,212.75L300.84,144.32L300.88,148.12L301.33,193.74L301.51,113.9L301.62,148.12L301.65,148.12L301.74,186.14L301.89,125.31L301.96,132.91L301.97,98.69L301.97,91.09L302.45,186.14L302.69,132.91L302.73,102.5L302.91,83.49L303.49,208.96L303.59,110.1L303.88,201.35L303.89,102.49L304.35,148.12L304.38,151.92L304.96,205.17L305.13,106.28L305.14,125.3L305.18,216.57L305.83,98.69L305.86,189.94L305.91,167.13L306.14,193.75L306.48,106.3L306.65,159.53L306.71,170.93L307,197.54L307.27,117.7L307.47,148.12L307.47,170.94L307.58,193.75L307.6,110.09L308.02,151.92L308.02,174.73L308.04,189.94L308.19,117.7L308.8,148.12L308.8,170.93L308.82,216.54L309.08,102.5L309.52,121.51L309.59,136.71L309.63,197.54L310.07,110.1L310.22,140.52L310.22,132.91L310.87,91.09L310.88,205.15L310.9,140.52L310.97,140.52L311.04,224.16L311.05,83.49L311.37,186.13L311.38,45.48L311.96,239.36L312.15,227.96L312.19,235.55L312.62,129.11L312.94,155.72L312.95,155.72L313.24,208.94L313.27,117.71L313.27,201.34L313.27,102.51L313.27,205.14L313.94,136.72L314.06,144.32L314.38,220.33L314.74,94.91L314.79,125.32L314.85,178.53L315.17,106.32L315.48,201.33L315.59,151.92L315.68,208.9L315.69,231.69L315.97,72.12L316.38,227.91L316.53,148.12L316.81,174.72L316.95,117.72L317.28,148.12L317.31,117.72L317.31,193.72L317.33,91.13L318.06,106.32L318.08,186.12L318.71,121.52L318.82,132.92L318.85,170.92L319.09,129.12L319.13,151.92L319.13,174.72L319.71,106.32L319.77,189.92L319.87,163.32L319.9,140.52L319.97,227.91L320.36,75.93L320.64,140.52L320.65,148.12L320.75,121.52L320.76,212.73L321.3,144.32L321.4,178.53L321.49,87.32L321.49,224.12L322.13,129.12L322.19,174.72L322.58,106.32L322.75,193.72L322.94,151.92L322.97,155.72L323.1,186.11L323.45,117.72L323.71,151.92L323.74,155.72L323.83,186.12L323.97,117.72L324.49,148.12L324.51,151.92L324.9,94.92L324.95,167.12L325.11,113.92L325.12,113.92L325.29,189.92L325.85,148.12L325.9,155.72L326.51,193.72L326.57,117.72L326.57,163.32L326.66,155.72L327.01,68.33L327.29,262.1L327.47,170.92L327.53,193.72L327.93,110.12L328.22,159.52L328.23,144.32L328.27,182.32L328.28,121.52L328.94,148.12L329,155.72L329.24,102.51L329.67,212.72L329.72,163.32L329.78,148.12L329.8,189.92L330.33,94.92L330.48,167.12L330.54,159.52L331.18,189.92L331.26,102.52L331.27,148.12L331.28,155.72L331.3,117.72L331.4,197.52L332,121.52L332.09,170.92L332.11,189.92L332.8,98.72L332.83,113.92L332.85,174.72L333.26,72.1L333.28,220.33L333.57,170.92L333.69,155.72L333.77,189.92L334.33,102.52L334.37,186.12L334.61,205.12L334.71,94.92L335.1,151.92L335.19,144.32L335.22,197.52L335.42,106.32L335.93,144.32L335.97,113.92L336.33,102.51L336.64,246.94L336.73,148.12L336.73,117.72L336.86,193.73L337.46,132.92L337.51,170.92L337.6,201.32L338.24,72.11L338.32,201.33L338.48,224.12L338.6,79.72L339.08,121.52L339.09,159.52L339.46,98.72L339.54,254.53L339.83,121.52L339.86,121.52L339.86,87.31L340.59,216.53L340.6,216.53L340.74,155.72L341.19,83.52L341.28,220.33L341.42,106.31L341.52,140.52L341.78,106.31L341.88,216.53L342.25,163.32L342.26,132.92L342.82,75.9L343.01,220.34L343.02,110.1L343.02,79.69L343.47,208.94L343.76,129.12L343.8,144.32L344.05,246.95L344.31,53.08L344.52,170.93L344.52,106.3L344.98,231.76L345.17,41.67L345.27,155.72L345.28,129.11L345.78,201.33L346.01,102.52L346.04,140.52L346.55,102.51L346.56,208.93L346.75,121.51L346.78,167.13L346.79,110.11L346.92,178.52L347.53,132.92L347.56,132.92L347.63,174.73L347.69,129.12L348.32,155.72L348.33,136.71L348.42,201.34L348.44,110.1L349.04,121.51L349.06,121.51L349.42,224.13L349.42,106.31L349.83,151.92L349.83,144.32L350.04,110.11L350.24,182.33L350.58,167.13L350.58,136.72L350.85,205.13L350.86,98.71L351.33,113.91L351.37,197.53L351.46,94.9L351.77,220.34L352.12,155.72L352.21,148.12L352.46,113.91L352.69,193.73L352.96,113.92L353.05,129.12L353.66,117.72L353.68,186.12L353.77,167.12L353.81,136.72L354.18,193.72L354.23,94.92L354.54,136.72L354.57,170.92L354.75,212.74L354.75,94.9L355.31,125.32L355.34,182.32L355.38,110.12L355.97,212.71L356.01,155.72L356.1,167.12L356.3,201.32L356.49,94.92L356.83,170.92L356.88,151.92L356.92,94.92L357.12,205.12L357.63,155.72L357.65,151.92L357.65,212.74L357.67,94.89L358.36,140.52L358.41,151.92L358.65,94.9L358.71,208.95L359.14,110.11L359.15,170.93L359.76,193.72L359.84,87.31L359.92,174.72L360.41,189.92L360.47,75.9L360.66,159.52L360.69,163.32L361.19,106.3L361.34,186.14L361.42,163.33L361.52,155.72L362.1,68.31L362.11,231.73L362.27,163.32L362.28,163.32L362.35,231.73L362.44,110.11L363.01,144.32L363.05,174.72L363.55,186.13L363.68,106.31L363.8,151.92L363.81,189.92L363.97,212.73L364,117.72L364.56,167.13L364.57,140.52L364.89,110.11L365.13,216.53L365.29,129.12L365.33,140.52L365.73,110.11L365.96,197.53L366.05,170.92L366.1,117.72L366.26,220.33L366.33,75.9L366.84,129.12L366.86,125.32L367.09,72.11L367.13,201.32L367.6,163.32L367.62,140.52L367.62,216.53L367.68,98.71L368.37,121.52L368.39,193.73L368.49,79.71L368.91,262.15L369.14,167.13L369.16,87.3L369.96,224.14L369.99,132.92L370.5,106.3L370.52,197.54L370.73,148.12L370.78,144.32L370.83,125.31L371.12,193.74L371.14,110.11L371.66,94.9L371.67,216.55L371.91,159.52L371.92,144.32L372.08,94.91L372.23,212.75L372.23,189.94L372.27,68.27L372.29,235.57L373.01,174.73L373.03,170.93L373.5,208.94L373.61,75.88L373.77,144.32L373.83,140.52L373.94,117.7L373.97,186.14L373.98,129.11L373.98,106.3L374.58,227.96L374.6,34.03L374.67,94.89L374.67,53.06L375.44,178.54L375.49,148.12L375.55,68.27L375.88,224.15L376.23,148.12L376.28,148.12L376.43,87.29L376.72,189.95L377.02,148.12L377.04,151.92L377.46,189.94L377.47,113.9L377.76,129.1L377.8,151.92L378.01,186.14L378.12,117.7L378.24,129.11L378.29,174.74L378.29,208.95L378.77,125.31L379,159.52L379.06,144.32L379.47,224.15L379.66,87.29L379.79,132.91L379.85,144.32L379.98,113.9L380.11,189.94L380.45,182.33L380.52,117.71L381.1,212.74L381.2,94.9L381.22,94.9L381.76,227.94L381.78,64.49L381.97,148.12L381.99,155.72L382.34,189.93L382.5,56.89L382.65,144.32L382.68,144.32L382.79,83.49L382.96,216.56L383.37,151.92L383.43,159.53L383.71,227.97L383.8,64.46L384.18,167.13L384.18,129.11L384.7,87.3L384.77,208.95L385,178.53L385.06,140.52L385.07,201.33L385.6,94.9L385.8,121.51L385.82,121.51L386.07,60.68L386.53,189.94L386.59,178.54L386.64,144.32L386.79,117.7L386.91,189.94L387.35,170.93L387.35,117.7L387.72,94.88L388.05,208.96L388.12,182.34L388.12,136.71L388.67,113.9L388.72,205.15L388.78,170.94L388.78,83.47L388.84,18.84L389.24,243.22L389.49,170.94L389.54,170.94L389.56,22.62L389.62,208.97L390.27,155.72L390.28,151.92L390.56,205.13L390.63,94.91L390.89,155.72L390.9,121.51L391.17,220.35L391.52,79.68L391.65,136.71L391.66,151.92L391.7,235.56L391.99,79.66L392.41,163.33L392.42,140.51L392.5,125.31L392.65,182.34L393.01,151.92L393.01,182.34L393.14,193.75L393.5,110.09L393.75,140.51L393.77,159.53L394.33,186.14L394.34,102.5L394.51,174.73L394.55,136.71L394.62,113.9L395.26,197.55L395.29,182.34L395.33,113.9L395.72,91.09L395.78,212.75L395.96,189.94L395.96,117.71L396.43,106.29L396.52,205.15L396.76,159.53L396.77,151.92L396.83,94.89L397.1,182.34L397.48,155.72L397.55,136.71L397.99,94.89L398.09,208.95L398.3,140.52L398.33,144.32L398.79,91.1L398.8,216.55L399,140.52" style="vector-effect: non-scaling-stroke; fill: none; stroke: rgb(99, 110, 250); stroke-opacity: 1; stroke-width: 2px; opacity: 1;"/></g><g class="points"/><g class="text"/></g><g class="trace scatter tracecc1c60" style="stroke-miterlimit: 2; opacity: 1;"><g class="fills"/><g class="errorbars"/><g class="lines"><path class="js-line" d="M0,182.32L0.68,193.75L0.81,148.12L0.85,178.54L1.47,121.51L1.63,148.12L1.64,155.72L1.64,189.94L1.72,106.3L2.34,155.72L2.39,155.72L2.96,110.1L2.99,193.74L3.15,182.34L3.19,178.54L3.91,140.52L3.99,170.93L3.99,178.54L4.09,197.55L4.46,117.71L4.74,140.52L4.78,140.52L5.16,117.7L5.25,178.54L5.53,178.54L5.59,155.72L5.93,121.5L6.07,189.94L6.33,140.52L6.35,163.33L6.81,121.5L6.89,208.96L7.01,140.51L7.05,132.91L7.24,178.54L7.62,113.9L7.79,167.13L7.82,167.13L8.01,102.49L8.46,189.95L8.49,189.95L8.91,201.37L8.96,110.08L9.28,148.12L9.3,159.53L9.57,121.49L9.76,182.35L10.05,148.12L10.07,155.73L10.3,178.54L10.62,110.09L10.77,140.52L10.89,170.93L10.98,174.74L11,129.11L11.53,102.48L11.56,201.36L11.73,170.94L11.75,132.91L11.75,182.35L12.5,163.33L12.53,163.33L12.92,182.35L12.97,121.5L13.26,144.32L13.31,144.32L13.82,129.11L13.94,167.13L14,148.12L14,132.91L14.1,125.3L14.2,159.53L14.21,174.74L14.26,83.48L14.28,220.37L14.91,148.12L14.99,144.32L15.16,208.97L15.41,132.91L15.68,167.13L15.77,136.71L15.92,106.29L15.94,212.77L16.52,136.71L16.55,170.94L16.84,110.08L16.96,197.56L17.21,125.3L17.31,174.74L17.91,113.9L18.05,140.51L18.09,170.93L18.27,113.9L18.62,189.94L18.62,197.55L18.69,83.48L19.38,178.54L19.38,186.14L19.67,208.96L19.79,68.26L20.12,129.11L20.15,140.51L20.24,189.95L20.27,113.89L20.89,178.54L20.91,125.3L20.97,178.54L21.38,117.7L21.66,159.53L21.72,159.53L22.28,178.54L22.36,125.31L22.4,178.54L22.92,189.95L22.98,98.69L23.12,178.54L23.22,140.52L23.3,197.55L23.37,113.89L23.93,193.75L23.98,117.7L24.73,186.15L24.73,155.72L24.76,186.15L24.78,121.5L25.15,201.36L25.49,132.91L25.52,132.91L25.71,201.36L25.79,83.47L26.26,170.93L26.33,155.72L26.43,148.12L26.44,155.72L26.47,75.87L26.48,227.97L27.2,144.32L27.24,163.33L27.55,182.34L27.96,106.29L27.96,136.71L28.01,129.11L28.07,201.35L28.57,98.69L28.74,167.13L28.81,155.72L29.12,53.06L29.51,235.58L29.54,106.29L29.58,178.54L29.69,235.58L29.84,98.68L30.29,178.54L30.3,125.3L30.85,193.75L30.86,94.89L31.03,159.53L31.08,170.93L31.38,197.55L31.68,117.7L31.82,144.32L31.86,155.72L32.13,87.29L32.26,186.14L32.59,148.12L32.62,136.72L32.7,110.1L33.24,193.74L33.33,125.31L33.37,189.94L33.57,197.54L33.66,106.3L34.09,113.9L34.14,170.93L34.39,216.55L34.43,87.29L34.85,125.31L34.91,125.31L35.29,235.58L35.3,68.26L35.65,155.72L35.66,136.72L35.74,174.73L35.97,53.05L36.4,110.1L36.45,167.13L36.46,110.1L36.66,182.34L37.17,144.32L37.21,148.12L37.78,212.74L37.79,91.1L37.89,186.13L37.96,167.13L38.05,182.33L38.11,125.31L38.69,140.52L38.73,136.71L39.3,110.1L39.39,220.36L39.4,83.49L39.46,239.36L39.49,49.27L40.18,163.33L40.2,155.72L40.73,201.35L40.73,102.5L40.74,201.35L40.75,201.35L40.75,220.36L41.12,83.49L41.48,163.33L41.51,140.52L41.77,113.91L41.99,189.93L42.24,155.72L42.28,144.32L42.39,193.73L42.91,102.5L43.02,170.93L43.06,132.91L43.07,178.54L43.27,94.9L43.81,159.53L43.83,159.53L44.03,125.31L44.11,189.94L44.6,140.52L44.64,159.53L45.08,102.5L45.32,186.14L45.38,117.71L45.44,170.93L45.85,186.14L45.85,117.7L46.18,136.71L46.2,170.93L46.74,205.15L46.85,79.69L46.95,155.72L46.96,159.53L47.39,224.17L47.55,106.29L47.71,155.72L47.72,186.14L47.72,83.47L48.29,227.97L48.46,125.31L48.48,155.72L48.92,117.7L49.04,182.34L49.17,125.31L49.23,148.12L49.67,197.55L49.69,98.69L49.94,182.34L49.96,129.1L49.99,102.49L50.45,201.36L50.64,132.91L50.66,205.16L50.99,87.27L51.07,231.79L51.42,129.11L51.42,163.33L51.76,98.68L52.07,220.38L52.15,144.31L52.18,155.73L52.35,197.56L52.52,102.48L52.9,178.55L52.9,132.9L53.02,94.87L53.37,212.77L53.65,170.94L53.69,170.94L53.83,208.97L53.84,94.88L54.42,121.49L54.44,148.12L54.67,72.04L54.86,239.41L54.94,121.49L54.97,121.49L55.5,110.07L55.6,186.16L55.65,113.88L55.74,15L55.76,281.24L56.49,148.12L56.51,140.51L56.88,75.83L56.93,273.68L57.25,159.53L57.36,155.73L57.6,117.68L57.87,205.18L57.88,205.18L57.89,224.2L58.01,79.64L58.05,231.81L58.66,174.75L58.7,148.12L58.82,102.46L58.97,193.77L59.43,155.73L59.46,155.73L60.05,106.27L60.06,197.57L60.21,155.73L60.23,155.73L60.51,94.86L60.52,208.98L60.78,132.9L60.81,205.18L61.24,75.85L61.25,228L61.53,148.12L61.57,155.73L61.61,79.64L61.8,224.2L62.31,148.12L62.34,148.12L62.76,98.66L62.77,205.18L63.01,144.31L63.07,155.73L63.36,87.26L63.55,220.39L63.79,167.14L63.82,186.16L64.25,102.47L64.25,201.37L64.56,148.12L64.58,155.73L64.74,98.67L64.75,205.17L65.17,121.49L65.18,182.35L65.25,110.08L65.49,231.78L65.96,140.51L66.02,140.51L66.3,110.09L66.75,216.56L66.77,159.53L66.78,182.34L66.78,87.29L66.79,216.56L67.53,125.3L67.55,125.3L68.04,83.48L68.07,220.37L68.22,174.74L68.25,87.27L68.25,64.46L68.64,201.36L68.96,189.95L69.05,163.33L69.62,193.76L69.69,110.09L69.79,125.3L69.85,148.12L69.92,129.11L70.53,224.17L70.53,193.76L70.61,140.51L70.77,243.19L70.8,75.86L71.36,170.93L71.42,155.72L71.8,110.09L71.92,193.75L72.01,155.72L72.02,186.14L72.04,113.9L72.1,216.56L72.74,174.74L72.78,163.33L73.31,193.75L73.32,110.09L73.52,155.72L73.54,132.91L74.1,197.54L74.11,91.09L74.24,132.91L74.33,136.71L74.52,102.49L74.59,201.35L75.09,174.74L75.16,132.91L75.46,91.08L75.56,212.76L75.9,148.12L75.94,155.72L76.4,216.56L76.44,87.29L76.66,110.09L76.72,140.51L76.78,68.27L77.1,205.16L77.26,132.91L77.3,212.75L77.3,91.09L78.02,163.33L78.06,140.52L78.26,79.69L78.7,178.54L78.81,163.33L78.83,140.52L79.23,201.35L79.33,102.5L79.52,159.52L79.52,182.33L79.9,224.15L80.03,79.69L80.24,159.52L80.3,144.32L80.33,205.15L80.75,102.49L81.02,155.72L81.1,159.53L81.28,121.5L81.36,208.97L81.56,148.12L81.57,113.89L82.14,212.76L82.15,91.08L82.32,182.34L82.38,159.53L82.63,227.99L82.82,64.44L83.16,102.48L83.19,155.72L83.41,182.34L83.45,106.28L83.45,83.47L83.46,220.38L84.19,170.94L84.21,144.32L84.73,197.56L84.75,106.28L84.77,68.25L84.88,247.01L84.89,56.84L85.55,148.12L85.57,155.73L85.92,110.08L85.93,193.76L86.31,167.14L86.33,167.14L86.46,170.94L87.01,117.69L87.08,136.71L87.15,167.13L87.51,106.28L87.52,197.56L87.82,155.73L87.92,132.9L87.92,189.96L87.96,113.89L88.67,159.53L88.72,144.32L88.81,102.48L88.96,186.15L89.3,170.94L89.3,132.9L89.46,75.85L89.47,227.99L90.05,144.31L90.08,174.74L90.55,91.06L90.58,220.39L90.69,125.3L90.81,159.53L91.24,193.76L91.24,110.08L91.49,182.36L91.49,189.97L91.5,113.88L92.24,144.31L92.26,144.31L92.36,197.57L92.96,110.07L92.99,193.77L93.03,197.58L93.67,94.85L93.7,209L93.76,182.37L93.83,163.34L94.25,117.67L94.41,193.78L94.56,121.48L94.59,174.75L95.14,197.58L95.15,83.43L95.33,170.95L95.38,167.14L95.94,205.2L95.95,94.84L96.04,155.73L96.07,189.97L96.09,60.6L96.13,209L96.78,140.51L96.85,155.73L97.03,208.99L97.06,94.85L97.5,186.17L97.52,121.48L97.52,79.63L98.13,193.78L98.22,140.51L98.29,140.51L98.52,75.84L98.56,228L99.04,140.51L99.05,163.34L99.33,64.39L99.38,239.45L99.79,148.12L99.79,129.08L99.91,94.83L100.2,186.16L100.42,136.7L100.42,174.75L100.44,201.39L100.57,110.06L101.13,178.56L101.17,178.56L101.22,205.2L101.33,98.64L101.93,113.88L101.94,189.97L102.36,216.61L102.69,64.4L102.69,239.45L102.91,75.82L103.49,132.89L103.52,144.31L103.66,209L103.67,94.84L104.27,125.28L104.28,125.28L104.86,189.98L105.05,170.95L105.06,148.12L105.3,117.67L105.77,178.56L105.85,155.73L106.25,186.17L106.47,117.67L106.58,125.28L106.6,178.56L106.87,91.04L106.87,201.39L107.34,167.14L107.41,163.34L107.41,189.98L107.58,106.25L108.13,163.34L108.17,155.73L108.23,110.06L108.71,220.43L108.86,186.17L108.88,121.47L109.22,113.87L109.64,193.78L109.64,193.78L109.68,167.14L109.8,102.45L109.83,189.98L110.08,189.98L110.11,189.99L110.21,243.27L110.22,60.57L110.85,178.56L110.87,125.28L111.44,91.04L111.56,201.39L111.59,148.12L111.62,121.48L111.66,110.07L112.23,193.77L112.4,163.34L112.42,140.51L112.94,110.06L113.16,205.2L113.21,182.37L113.48,216.61L113.75,110.06L113.93,159.53L113.98,163.34L114.32,201.39L114.54,121.47L114.77,125.29L114.83,178.56L115.03,72.02L115.18,163.34L115.18,197.59L115.7,212.8L115.83,94.84L115.92,182.37L115.95,140.5L116.02,170.95L116.04,121.48L116.06,155.73L116.06,98.65L116.06,94.85L116.09,209L116.81,125.29L116.86,163.34L116.98,83.45L117.06,212.79L117.34,140.51L117.37,193.77L117.56,72.03L117.65,235.62L117.99,140.51L118,189.95L118.54,64.45L118.55,224.17L118.73,193.75L118.73,235.59L119.42,94.87L119.5,193.76L119.63,102.47L120.27,167.14L120.29,167.14L120.89,189.95L120.91,113.89L120.98,159.53L120.99,224.18L121.01,49.25L121.72,136.71L121.79,167.13L121.85,182.35L121.97,106.28L122.43,159.53L122.44,144.32L123.03,201.37L123.13,64.44L123.19,136.71L123.23,87.26L123.43,189.96L123.94,148.12L123.95,155.73L124.18,178.55L124.2,125.3L124.62,140.51L124.66,140.51L124.82,167.14L124.83,98.68L124.83,178.54L125.06,87.27L125.22,212.76L125.58,106.29L125.64,155.72L125.91,212.75L126.02,121.5L126.4,140.52L126.44,144.32L126.66,91.08L127.03,224.17L127.21,163.33L127.23,163.33L127.44,182.35L127.47,113.89L127.93,155.72L128.01,155.72L128.07,140.51L128.14,167.13L128.17,144.32L128.2,110.09L128.47,212.76L128.5,91.08L128.91,125.31L129,136.71L129.18,87.28L129.63,201.36L129.74,144.32L129.76,148.12L130.22,178.54L130.28,129.1L130.46,163.33L130.52,140.51L130.8,117.69L130.94,189.95L131.23,182.35L131.24,121.5L131.47,186.15L131.94,163.33L131.99,144.32L132.03,178.54L132.18,117.7L132.71,148.12L132.75,189.94L132.93,201.35L133.01,102.5L133.52,132.91L133.53,189.94L133.59,117.7L134.13,193.75L134.28,144.32L134.35,159.53L134.65,75.86L134.84,220.37L135.08,94.88L135.11,91.08L135.34,224.2L135.39,79.64L135.82,140.51L135.87,159.53L136.16,208.97L136.6,94.87L136.61,106.28L136.63,106.28L136.96,205.16L137.37,148.12L137.39,148.12L137.49,182.35L137.66,64.42L138.06,144.31L138.12,159.53L138.22,106.27L138.57,193.75L138.66,155.73L138.68,129.1L138.96,193.76L139.18,79.66L139.43,174.74L139.47,148.12L139.71,193.75L139.72,98.67L140.18,144.32L140.22,140.51L140.24,220.38L140.75,94.88L140.89,106.28L140.98,125.3L140.98,201.36L141.08,68.25L141.7,83.45L141.76,83.45L141.92,216.59L142.56,136.71L142.57,136.71L142.91,94.86L143.07,224.2L143.29,178.55L143.3,125.29L143.96,79.63L144.05,205.19L144.07,98.65L144.5,220.4L144.8,205.18L144.83,98.67L144.83,205.18L145.56,136.7L145.63,167.14L145.66,235.61L145.99,113.88L146.36,132.9L146.38,140.51L146.53,117.69L146.56,189.96L146.83,163.34L146.86,163.34L147.04,186.16L147.24,113.88L147.61,132.9L147.62,170.94L148.06,208.98L148.13,94.86L148.4,132.9L148.41,178.55L148.74,186.16L148.76,117.68L149.12,159.53L149.21,140.51L149.32,117.68L149.85,189.95L149.93,125.3L149.98,163.33L150,189.95L150.36,110.08L150.73,144.31L150.83,167.14L151.26,201.38L151.31,102.46L151.56,148.12L151.66,155.73L152.15,94.86L152.17,189.96L152.41,155.73L152.43,148.12L152.74,110.08L153.11,197.56L153.18,148.12L153.22,155.72L153.57,125.3L153.94,178.55L153.94,178.55L153.97,117.69L154.35,212.79L154.55,102.47L154.63,140.51L154.69,178.55L155.41,106.28L155.43,170.94L155.49,132.9L155.54,102.48L155.85,193.76L155.98,193.76L156.01,193.76L156.35,201.37L156.52,106.28L156.75,167.13L156.77,167.13L156.84,178.54L157.04,125.3L157.46,132.91L157.5,159.53L157.73,121.5L157.87,182.35L158.23,182.34L158.27,163.33L158.36,102.48L158.4,243.18L158.7,140.51L158.75,140.51L159.06,205.16L159.39,94.88L159.44,129.11L159.52,129.11L159.66,193.75L159.84,87.27L160.27,144.32L160.35,163.33L160.61,98.68L160.88,205.16L161.1,125.31L161.12,110.1L161.77,87.28L161.89,239.38L161.9,64.47L162.6,186.14L162.63,117.7L162.66,117.71L162.71,87.29L162.81,220.36L163.44,148.12L163.48,148.12L163.64,201.35L164.15,113.9L164.22,167.13L164.25,174.74L164.94,189.95L164.96,117.69L164.99,155.73L165.02,98.67L165.04,64.44L165.17,170.93L165.2,121.51L165.2,186.14L165.48,189.95L165.76,83.48L165.89,148.12L165.98,155.72L166.14,113.91L166.25,155.72L166.25,182.33L166.85,186.14L166.94,106.3L166.96,110.1L167,193.74L167.2,201.35L167.73,98.7L167.77,98.7L168.48,201.34L168.54,178.53L168.54,125.31L168.88,113.91L169.13,189.94L169.28,178.54L169.31,132.91L169.45,94.9L169.52,201.34L169.94,140.52L170,148.12L170.1,102.5L170.32,205.15L170.52,197.55L170.52,106.29L170.65,75.87L171.07,189.94L171.36,148.12L171.41,110.09L171.72,94.88L171.86,208.97L172.15,140.52L172.18,159.53L172.41,106.3L172.69,186.14L172.9,186.14L172.96,148.12L173.05,216.56L173.05,87.28L173.69,163.33L173.69,174.74L173.9,227.98L173.92,87.27L174.41,189.95L174.47,121.5L175.15,113.9L175.28,201.35L175.29,102.49L175.29,98.69L175.34,205.15L176.04,113.9L176.06,148.12L176.36,121.51L176.42,186.14L176.8,159.53L176.82,144.32L177.42,129.11L177.43,174.73L177.57,136.71L177.6,144.32L178.07,113.9L178.23,186.14L178.3,144.32L178.34,132.91L178.6,193.74L178.75,102.5L179.03,106.3L179.1,106.3L179.27,102.5L179.7,186.14L179.89,140.51L179.91,140.51L179.94,113.9L179.95,193.75L180.65,182.34L180.66,91.09L180.85,212.75L181.41,148.12L181.44,144.32L181.49,121.52L181.81,201.32L182.14,163.33L182.18,163.33L182.18,197.54L182.68,102.5L182.9,174.73L182.94,129.12L183.27,94.9L183.61,186.14L183.69,163.33L183.71,144.32L183.73,113.9L184.41,193.75L184.41,163.33L184.44,110.09L184.5,41.65L184.62,262.2L185.17,220.37L185.18,83.48L185.18,49.26L185.85,193.74L185.91,129.11L185.95,129.11L186.66,49.28L186.69,231.75L186.69,170.93L186.81,174.73L187.04,208.94L187.42,83.49L187.55,148.12L187.57,148.12L187.85,106.3L187.98,193.74L188.2,159.52L188.29,159.52L188.71,208.94L188.98,102.51L189.08,113.91L189.08,189.93L189.43,87.3L189.8,117.71L189.84,144.32L189.87,106.31L189.96,197.52L190.54,186.12L190.58,159.52L190.84,110.11L191.15,189.93L191.26,178.53L191.29,125.31L191.88,68.3L191.95,220.34L192.03,155.72L192.06,117.71L192.33,197.53L192.36,106.31L192.76,144.32L192.82,155.72L193.02,174.73L193.35,117.72L193.35,117.72L193.37,186.13L193.68,68.3L193.83,227.94L194.11,125.31L194.22,155.72L194.26,94.91L194.54,197.53L194.96,148.12L194.99,148.12L195.25,113.91L195.38,193.73L195.39,79.7L195.39,75.9L195.7,208.94L196.1,144.32L196.16,144.32L196.39,110.11L196.59,182.33L196.73,125.31L196.73,117.72L197.02,212.74L197.03,91.1L197.49,174.72L197.51,129.12L197.55,182.33L197.57,121.52L198.26,159.52L198.27,136.72L198.55,189.93L198.62,106.31L198.97,155.72L198.99,174.73L199.64,186.13L199.75,117.72L199.78,144.32L199.97,205.12L199.98,98.72L200.53,163.32L200.54,148.12L200.6,235.53L200.65,121.52L201.05,140.52L201.08,182.33L201.08,75.92L201.64,193.72L201.83,170.92L201.85,178.52L202.08,201.32L202.34,91.13L202.6,148.12L202.61,140.52L203.15,189.92L203.28,113.93L203.33,113.93L204,102.53L204.03,193.72L204.08,178.52L204.13,170.92L204.13,182.32L204.32,113.93L204.88,167.12L204.89,148.12L205.19,201.31L205.58,110.13L205.64,125.33L205.64,148.12L205.91,197.52L205.99,102.52L206.39,155.72L206.41,148.12L206.71,117.71L206.77,189.93L207.19,163.32L207.24,136.72L207.63,193.73L207.65,110.11L207.85,155.72L207.85,167.12L208.19,113.92L208.33,178.52L208.35,125.32L208.61,186.12L208.66,117.72L209.09,174.72L209.12,148.12L209.63,197.52L209.63,106.32L209.75,193.72L209.77,193.72L209.84,110.12L210.46,136.72L210.49,167.12L210.74,178.52L210.89,113.92L211.31,140.52L211.32,159.52L211.43,102.52L211.98,193.72L212.05,163.32L212.11,167.12L212.22,189.92L212.71,121.52L212.83,163.32L212.83,193.72L212.88,197.52L213.53,106.32L213.59,186.12L214.24,110.12L214.24,220.32L214.41,132.92L214.42,132.92L214.65,68.33L214.73,246.91L215.12,159.52L215.13,110.13L215.22,132.93L215.29,87.34L215.3,216.51L216.07,110.12L216.09,224.12L216.18,224.13L216.47,79.72L216.83,182.32L216.9,155.72L217.22,231.74L217.33,37.9L217.6,189.93L217.65,148.12L217.68,60.71L218.14,178.53L218.36,140.52L218.43,174.72L218.54,113.92L218.91,193.73L218.96,140.52L218.98,125.32L219.3,98.72L219.7,208.93L219.71,155.72L219.75,155.72L220.36,193.73L220.37,83.5L220.48,155.72L220.54,148.12L221.26,201.33L221.29,102.51L221.3,155.72L221.34,224.14L221.49,91.09L222.01,148.12L222.05,106.3L222.12,94.9L222.29,182.33L222.42,117.71L222.42,189.93L222.47,91.1L222.5,212.74L223.16,121.51L223.2,125.32L223.71,201.33L223.87,113.91L223.95,148.12L223.97,159.52L224.04,64.5L224.3,269.75L224.7,144.32L224.73,148.12L224.93,110.11L225.09,212.74L225.48,155.72L225.57,167.13L226.15,94.91L226.29,197.53L226.3,155.72L226.34,208.94L226.72,216.55L226.84,72.06L227.06,170.93L227.11,155.72L227.23,87.28L227.35,216.56L227.86,144.32L227.88,159.53L228.31,117.7L228.39,186.14L228.48,174.74L228.48,129.11L228.54,106.29L228.79,197.55L229.21,140.51L229.27,182.34L229.74,91.08L229.74,212.76L229.99,163.33L230.05,121.5L230.06,208.95L230.55,98.68L230.8,140.51L230.81,140.51L231.21,189.96L231.38,75.85L231.51,178.55L231.59,178.55L232,68.25L232.01,250.81L232.28,159.53L232.36,167.13L232.7,79.67L232.72,220.37L233.09,205.16L233.11,193.75L233.73,91.08L233.82,159.53L233.9,136.71L233.93,197.55L233.98,121.5L234.59,178.54L234.67,163.33L234.74,113.9L234.77,186.14L234.96,140.51L234.97,197.55L235.19,98.69L235.19,205.15L235.76,155.72L235.76,163.33L235.9,178.54L235.91,94.88L235.92,129.11L235.93,208.96L236.38,91.08L236.7,110.09L236.71,163.33L236.84,106.3L237.13,197.55L237.44,174.74L237.56,148.12L237.9,106.29L238.04,201.36L238.28,170.93L238.29,132.91L238.74,113.9L238.99,189.94L239.04,178.53L239.11,148.12L239.63,117.7L239.73,186.14L239.8,155.72L239.87,148.12L239.88,98.69L240,205.15L240.61,170.93L240.66,155.72L241.22,193.75L241.23,91.08L241.29,167.14L241.29,247.03L241.58,68.23L242.08,125.29L242.09,148.12L242.15,125.29L242.56,186.15L242.82,159.53L242.85,144.32L243.37,186.14L243.54,113.9L243.58,148.12L243.6,205.15L243.95,117.7L244.18,208.96L244.35,144.32L244.36,186.15L244.71,117.7L245.1,178.54L245.12,125.3L245.79,83.47L245.85,220.38L245.88,208.97L246.54,113.89L246.66,148.12L246.67,155.72L246.73,186.14L247.1,117.7L247.29,159.53L247.37,155.72L248.11,201.35L248.11,102.49L248.13,148.12L248.42,83.48L248.44,220.36L248.63,159.53L248.7,113.89L248.96,235.59L249.09,64.45L249.43,136.71L249.46,167.14L249.58,170.94L249.58,125.3L249.69,140.51L249.72,75.86L250.07,201.35L250.47,148.12L250.5,155.72L250.72,258.39L250.97,102.48L251.18,174.73L251.27,155.72L251.74,212.77L251.75,91.08L251.94,102.49L252.05,163.33L252.42,129.11L252.58,216.57L252.76,136.71L252.91,148.12L253.2,113.9L253.23,189.94L253.64,155.72L253.7,155.72L254.07,235.58L254.14,87.27L254.42,140.51L254.47,163.33L254.82,75.87L254.9,239.39L255.24,148.12L255.24,155.72L255.84,193.74L255.96,60.69L255.99,155.72L256.02,148.12L256.2,94.9L256.47,205.14L256.74,144.32L256.88,117.71L256.92,189.94L257.24,64.5L257.59,178.52L257.7,182.33L258.03,201.34L258.46,72.11L258.48,231.74L258.48,243.14L258.74,94.9L259.22,94.91L259.25,170.92L259.31,205.13L259.31,98.71L260,148.12L260.04,155.72L260.32,193.72L260.53,117.72L260.79,140.52L260.8,132.92L260.88,113.93L260.93,212.71L261.53,144.32L261.54,140.52L262.22,197.52L262.28,98.72L262.35,148.12L262.52,102.51L262.94,193.73L263.04,125.31L263.11,125.31L263.66,227.94L263.66,75.91L263.83,113.92L263.84,91.11L264.34,79.71L264.36,224.14L264.55,178.52L264.57,98.71L264.67,186.12L265.21,140.52L265.26,140.52L265.45,201.33L265.81,117.71L265.88,148.12L265.88,193.73L266.24,106.31L266.41,197.54L266.63,148.12L266.64,148.12L266.83,140.52L267.32,189.94L267.38,144.32L267.43,178.53L267.5,212.75L267.54,91.1L268.15,140.52L268.22,136.72L268.26,216.52L268.64,87.31L268.95,174.72L268.98,174.72L269,106.32L269.06,197.53L269.73,136.72L269.79,201.33L269.83,102.52L270.51,140.52L270.58,148.12L270.68,197.53L270.84,98.72L271.16,148.12L271.18,159.52L271.39,201.33L271.5,98.72L271.9,189.93L271.98,110.11L272,193.73L272.03,102.51L272.73,117.71L272.75,91.12L273.27,193.73L273.54,148.12L273.56,148.12L273.73,182.33L273.92,129.12L274.17,174.72L274.21,125.32L274.53,208.91L274.61,110.13L274.93,117.72L274.96,117.72L275.08,121.52L275.08,117.72L275.1,163.32L275.37,91.14L275.66,224.1L275.83,186.12L275.87,140.52L276.18,197.52L276.21,106.32L276.6,136.72L276.65,144.32L276.72,186.12L276.88,117.72L277.39,155.72L277.4,159.52L277.7,186.13L277.92,117.72L278.12,129.12L278.16,174.72L278.37,94.91L278.49,201.33L278.91,117.71L278.92,186.13L279.52,224.15L279.54,79.69L279.66,98.7L279.69,155.72L279.74,197.54L279.82,87.3L280.44,113.9L280.45,113.9L280.53,79.7L280.59,189.94L281.11,121.51L281.21,117.71L281.31,189.93L281.33,113.91L281.63,125.32L281.73,163.32L281.8,197.53L282.38,91.11L282.45,136.72L282.47,189.93L283.02,83.51L283.07,220.34L283.22,182.33L283.24,121.51L283.38,87.3L283.47,231.75L283.99,136.72L284,167.13L284.13,182.33L284.44,106.31L284.51,178.53L284.51,182.33L284.95,208.95L285.22,91.1L285.24,174.73L285.27,208.95L285.99,113.91L286.02,189.94L286.04,189.94L286.25,216.54L286.29,102.5L286.79,148.12L286.8,144.32L286.94,231.75L287.17,106.31L287.53,167.13L287.56,132.92L287.59,121.52L287.67,243.14L288.29,159.53L288.33,155.72L288.47,189.94L288.95,121.51L289.08,186.14L289.12,159.53L289.16,110.1L289.7,216.56L289.78,136.71L289.87,144.32L290.05,94.89L290.23,212.75L290.58,110.1L290.71,140.52L290.92,110.1L290.93,193.74L291.46,125.31L291.5,197.54L291.88,98.7L292.02,212.75L292.21,125.31L292.25,167.13L292.79,197.55L292.81,102.5L293,148.12L293.02,155.72L293.15,186.14L293.43,110.1L293.77,159.53L293.79,155.72L294.03,197.54L294.27,102.5L294.29,201.34L294.29,205.14L294.81,117.71L294.97,167.13L295.05,155.72L295.19,129.11L295.73,197.54L295.8,178.54L295.81,178.54L296.06,113.91L296.35,186.13L296.51,163.33L296.63,132.91L297.21,212.76L297.23,72.06L297.29,72.06L297.77,186.14L298.04,163.33L298.06,144.32L298.19,113.9L298.21,189.95L298.8,144.32L298.83,148.12L299.32,129.11L299.56,178.54L299.57,117.7L300.04,227.96L300.18,91.1L300.28,159.53L300.34,144.32L300.4,117.71L300.41,189.94L301.07,148.12L301.08,155.72L301.33,110.1L301.4,182.34L301.46,121.5L301.51,193.75L301.74,117.7L301.97,212.76L302.27,148.12L302.31,155.72L302.69,102.49L302.83,193.74L302.91,144.32L302.91,227.95L303.49,94.89L303.65,144.32L303.69,144.32L303.88,102.49L303.91,201.35L304.46,163.33L304.5,148.12L304.67,197.55L304.97,91.07L304.97,113.89L305.01,178.54L305.13,212.78L305.22,87.27L305.79,121.5L305.79,182.34L305.83,205.16L305.83,94.89L306.48,197.55L306.53,178.54L306.8,106.29L307.27,189.94L307.28,155.72L307.31,129.11L307.58,186.14L307.58,110.09L307.6,193.75L308.16,113.9L308.33,129.11L308.4,155.72L308.82,87.3L308.83,216.54L309.13,197.54L309.19,148.12L309.31,186.14L309.63,110.1L309.92,148.12L309.97,159.53L310.45,208.95L310.45,94.89L310.69,144.32L310.74,140.52L311.04,79.68L311.38,258.36L311.45,193.73L311.48,94.9L311.91,243.16L312.15,53.08L312.19,91.09L312.25,163.33L312.35,98.7L312.62,178.53L312.98,144.32L312.98,159.53L313.24,94.9L313.27,201.34L313.72,148.12L313.74,148.12L314.13,193.73L314.16,110.12L314.35,140.52L314.38,110.12L314.38,83.52L314.74,208.94L315.09,121.51L315.15,140.52L315.17,197.53L315.59,72.14L315.68,83.55L315.69,72.16L315.87,227.91L316.38,75.94L316.53,159.52L316.81,129.13L316.95,186.12L317.28,148.12L317.31,140.52L317.31,106.33L317.33,212.72L318.06,136.72L318.08,98.72L318.71,182.32L318.82,170.92L318.85,132.92L318.98,136.72L319.02,170.92L319.71,189.92L319.77,94.93L319.81,106.32L319.82,159.52L319.97,75.93L320.36,227.92L320.41,136.72L320.44,224.12L320.79,83.51L321.21,98.72L321.28,159.52L321.49,79.73L321.52,197.52L321.92,113.93L321.95,174.72L321.97,201.32L322,102.52L322.71,113.92L322.72,155.72L322.76,110.12L323.07,186.11L323.45,178.52L323.45,186.12L323.99,117.72L324.24,125.33L324.25,178.52L324.9,208.92L324.95,129.12L325,155.72L325.02,155.72L325.11,189.92L325.21,113.92L325.78,140.52L325.81,163.32L326.45,189.92L326.51,110.12L326.57,148.12L326.57,167.12L326.92,239.3L327.1,91.13L327.19,121.52L327.2,189.92L327.2,220.31L327.29,37.94L327.93,193.72L328.02,110.12L328.1,193.72L328.76,174.72L328.76,129.12L329.01,163.32L329.01,178.52L329.24,205.14L329.67,91.12L329.72,140.52L329.78,140.52L329.8,113.92L330.33,208.93L330.48,136.72L330.54,140.52L331.18,113.92L331.26,201.32L331.28,170.92L331.28,125.32L331.4,106.32L331.89,186.12L332,182.32L332.09,132.92L332.11,110.12L332.17,212.71L332.83,189.92L332.85,113.92L333.14,220.33L333.28,75.91L333.57,132.92L333.69,144.32L333.77,113.92L334.21,189.92L334.33,140.52L334.37,113.92L334.61,98.72L334.71,208.92L335.1,174.72L335.19,159.52L335.22,113.92L335.42,197.52L335.93,163.32L335.97,148.12L336.3,208.93L336.41,72.11L336.54,144.32L336.6,163.32L336.66,56.91L336.85,182.32L337.31,159.52L337.36,144.32L337.62,189.93L337.62,113.92L338.09,148.12L338.12,163.32L338.24,231.74L338.48,79.72L338.86,178.52L338.89,148.12L339.04,113.93L339.12,212.71L339.54,174.72L339.54,87.31L339.54,49.31L339.86,216.53L340.28,170.92L340.3,170.92L340.55,197.53L340.6,87.32L341.05,106.32L341.08,182.32L341.19,220.33L341.28,83.52L341.83,132.92L341.86,132.92L342.01,197.53L342.08,98.72L342.6,159.52L342.62,159.52L342.9,113.92L343.02,224.16L343.33,193.73L343.38,148.12L343.6,220.33L344.05,41.69L344.14,159.52L344.31,250.76L344.89,79.69L344.92,79.69L344.98,72.08L345.17,262.17L345.68,140.52L345.68,125.32L345.78,102.52L346.01,201.33L346.42,167.13L346.44,136.72L346.57,91.11L346.93,216.53L347.18,132.92L347.2,155.72L347.26,174.73L347.63,129.12L347.92,155.72L348,155.72L348.42,102.5L348.44,201.34L348.71,159.52L348.71,186.13L349.34,94.91L349.38,163.32L349.39,193.73L349.42,94.91L349.42,201.34L350.13,155.72L350.17,148.12L350.85,98.71L350.87,205.13L350.93,170.93L350.96,170.93L350.98,98.71L351.41,212.74L351.71,167.13L351.72,189.93L351.77,83.5L352.47,189.93L352.48,174.73L352.73,110.12L352.75,193.73L353.22,155.72L353.23,182.32L353.66,186.12L353.82,113.92L353.99,170.92L354.04,132.92L354.18,110.12L354.25,208.92L354.68,167.13L354.7,148.12L354.75,91.1L354.75,212.74L355.45,102.52L355.48,163.32L355.99,189.92L356.19,102.52L356.19,155.72L356.26,189.92L356.3,102.52L356.49,208.92L357,121.52L357.04,216.52L357.12,94.92L357.66,216.54L357.76,163.33L357.85,163.33L357.87,182.33L357.9,132.92L358.59,155.72L358.62,163.33L358.65,208.95L358.71,94.9L359.37,163.32L359.38,163.32L359.83,220.33L360,110.11L360.11,132.92L360.12,132.92L360.4,98.71L360.44,208.93L360.83,159.52L360.83,144.32L361.19,197.54L361.34,117.71L361.57,132.92L361.61,132.92L362.1,235.53L362.11,68.31L362.35,159.52L362.35,64.51L362.57,193.73L363.13,163.32L363.22,155.72L363.55,117.72L363.69,197.53L363.8,140.52L363.8,129.12L363.85,189.92L363.97,91.12L364.53,136.72L364.56,167.13L364.89,193.73L365.13,87.31L365.29,174.72L365.33,163.32L365.95,220.33L365.97,106.31L366.05,132.92L366.1,186.12L366.31,235.54L366.78,91.12L366.84,201.32L366.86,178.52L367.07,235.52L367.13,102.52L367.6,182.32L367.62,163.32L367.66,110.11L367.68,205.14L368.34,144.32L368.36,140.52L368.51,224.14L368.91,37.9L369.1,159.52L369.14,144.32L369.23,102.51L369.65,205.14L369.86,129.12L369.91,148.12L369.96,79.7L370.5,197.54L370.5,197.54L370.52,106.3L371.16,193.74L371.26,121.51L371.32,113.91L371.66,208.95L371.66,87.3L372.02,110.11L372.08,193.73L372.27,235.57L372.29,68.27L372.8,186.12L372.88,186.12L373.5,94.9L373.62,216.54L373.68,167.13L373.74,224.15L373.77,94.89L374.41,155.72L374.44,148.12L374.53,79.68L374.67,277.4L375.14,159.53L375.18,159.53L375.44,125.3L375.53,208.95L375.53,174.73L375.55,235.57L375.88,75.89L376.3,159.53L376.31,144.32L376.42,178.54L376.43,113.9L376.43,216.56L376.49,91.08L377.18,163.33L377.19,170.93L377.46,113.9L377.53,189.94L377.9,155.72L377.91,117.7L378.09,186.14L378.29,94.89L378.64,174.73L378.72,167.13L378.77,178.53L378.97,110.1L379.06,167.13L379.07,193.74L379.35,102.5L379.35,201.35L379.85,136.71L379.87,159.53L379.98,189.94L380.09,113.9L380.61,144.32L380.63,159.52L380.69,170.93L380.75,110.1L380.75,121.51L380.79,193.74L381.2,212.74L381.22,91.1L381.57,159.52L381.64,163.32L381.76,75.9L382.07,239.35L382.32,178.53L382.33,125.31L382.5,246.95L382.71,83.49L383.08,155.72L383.09,155.72L383.51,205.16L383.71,75.87L383.78,227.97L383.8,239.38L383.84,64.46L384.43,155.72L384.43,148.12L384.7,91.1L384.7,224.14L385.16,136.72L385.22,159.52L385.6,208.94L385.94,113.91L385.95,155.72L385.96,197.54L386.07,243.16L386.2,113.9L386.71,182.34L386.73,113.9L386.79,186.14L387.46,159.53L387.49,144.32L387.67,216.56L388.05,94.88L388.18,174.74L388.19,121.5L388.8,94.89L388.87,285L388.95,155.72L388.96,159.53L389.24,60.63L389.61,285L389.65,98.68L389.75,201.36L389.87,269.79L390.04,75.88L390.53,113.91L390.56,155.72L391.17,83.5L391.32,220.38L391.35,144.31L391.53,235.56L391.7,68.28L392.1,159.53L392.13,163.33L392.47,117.7L392.5,178.53L392.87,148.12L392.9,148.12L393.17,186.14L393.47,110.09L393.5,193.75L394.06,117.71L394.24,129.11L394.28,159.53L394.34,201.35L394.42,110.1L394.92,121.5L394.95,121.5L395.6,102.5L395.73,212.75L395.78,91.09L396.44,205.16L396.54,129.11L396.58,129.11L396.64,125.31L396.64,140.51L396.65,178.54L396.83,208.95L397.1,121.5L397.4,155.72L397.42,174.74L397.99,208.95L398.13,94.89L398.16,117.71L398.17,186.14L398.79,212.75L398.8,87.3L398.92,182.34L398.93,167.13L398.94,117.7L398.95,186.14L399,163.33" style="vector-effect: non-scaling-stroke; fill: none; stroke: rgb(239, 85, 59); stroke-opacity: 1; stroke-width: 2px; opacity: 1;"/></g><g class="points"/><g class="text"/></g><g class="trace scatter trace65c924" style="stroke-miterlimit: 2; opacity: 1;"><g class="fills"/><g class="errorbars"/><g class="lines"><path class="js-line" d="M0,121.52L0.68,110.1L0.81,148.12L0.85,125.31L1.32,121.51L1.63,148.12L1.64,148.12L1.72,106.3L2.34,148.12L2.39,148.12L2.99,110.1L3.15,121.51L3.19,125.31L3.75,148.12L3.96,144.32L3.99,132.91L4.02,148.12L4.09,106.3L4.74,140.52L4.78,140.52L5.16,117.7L5.39,148.12L5.47,132.91L5.53,132.91L5.59,148.12L6.07,113.9L6.17,113.9L6.33,148.12L6.85,94.89L7.07,129.11L7.14,129.11L7.89,110.09L7.89,148.12L7.89,148.12L7.93,148.12L8.01,102.49L8.62,144.32L8.72,144.32L8.82,148.12L8.88,125.3L8.91,129.1L8.91,102.48L9.68,148.12L9.68,140.51L9.69,140.51L10.04,148.12L10.24,113.89L10.36,125.3L10.47,148.12L10.6,144.32L10.62,110.09L10.65,148.12L11.34,148.12L11.39,148.12L11.53,102.48L12.12,148.12L12.18,148.12L12.92,121.5L12.92,140.51L12.97,132.91L12.97,121.5L13.03,148.12L13.71,144.32L13.73,140.51L13.82,148.12L14.26,83.48L14.46,129.11L14.51,140.51L14.55,148.12L15.16,94.87L15.21,136.71L15.29,140.51L15.65,148.12L15.94,91.08L16,148.12L16.72,121.49L16.78,144.31L16.92,148.12L16.96,106.29L17.31,129.11L17.4,121.5L17.91,113.9L18.19,148.12L18.25,148.12L18.69,83.48L18.97,136.71L19.02,148.12L19.67,94.88L19.7,106.29L19.72,136.71L19.74,148.12L19.79,68.26L20.42,148.12L20.48,148.12L20.59,113.89L21.11,144.32L21.25,144.32L21.3,148.12L21.52,117.7L21.87,144.32L21.93,144.32L22.47,121.5L22.64,148.12L22.64,148.12L22.65,117.7L22.75,148.12L22.98,98.69L23.37,113.89L23.44,129.11L23.46,148.12L23.93,110.09L24.09,148.12L24.2,144.32L24.26,148.12L24.76,113.9L24.93,125.31L24.98,144.32L25.01,148.12L25.73,87.28L25.73,87.28L25.78,129.11L26.13,148.12L26.48,75.87L26.52,113.89L26.54,106.29L26.73,94.89L27.08,148.12L27.35,136.71L27.37,132.91L27.75,148.12L28.07,102.49L28.11,125.3L28.13,144.32L28.35,148.12L28.57,98.69L28.87,140.51L28.9,140.51L29.12,53.06L29.14,148.12L29.59,113.9L29.69,68.27L30.1,148.12L30.44,132.91L30.47,129.11L30.47,148.12L30.86,94.89L31.2,148.12L31.25,148.12L31.88,106.3L32.02,129.11L32.06,129.11L32.13,87.29L32.42,148.12L32.7,113.91L32.75,136.72L32.78,148.12L33.22,110.11L33.5,132.91L33.54,125.31L33.55,106.3L33.81,148.12L34.22,121.51L34.32,121.51L34.64,148.12L35.03,72.08L35.07,129.11L35.11,140.52L35.3,68.26L35.36,148.12L35.8,132.91L35.8,148.12L35.97,53.05L36.52,144.32L36.55,129.11L37.11,117.7L37.22,148.12L37.22,113.9L37.32,148.12L37.78,91.1L37.97,132.92L37.99,148.12L38.05,121.51L38.74,136.71L38.76,136.71L39.03,148.12L39.39,83.49L39.43,91.09L39.46,64.48L39.49,49.27L39.52,148.12L40.06,94.9L40.07,136.71L40.46,148.12L40.75,98.7L40.75,83.49L41.52,148.12L41.53,136.71L41.55,136.71L41.77,113.91L42.24,148.12L42.28,144.32L42.3,132.92L42.91,102.5L42.93,148.12L42.97,102.5L43.27,94.9L43.71,148.12L43.72,110.11L43.77,144.32L44.11,113.91L44.44,148.12L44.44,136.71L45.08,102.5L45.2,148.12L45.2,148.12L45.22,125.31L45.22,113.9L45.23,148.12L45.97,121.51L45.99,125.31L46.42,102.49L46.64,148.12L46.69,121.51L46.71,106.3L46.88,79.69L46.94,148.12L47.34,148.12L47.36,148.12L47.39,79.67L48.11,87.28L48.13,110.09L48.29,75.87L48.92,148.12L48.92,117.7L49.53,148.12L49.66,136.72L49.67,106.3L49.69,98.69L49.76,148.12L50.42,132.91L50.45,132.91L50.53,148.12L51.07,72.06L51.19,87.27L51.25,87.27L52,148.12L52.02,140.51L52.1,83.46L52.18,148.12L52.69,140.51L52.75,144.32L52.87,148.12L52.9,125.3L52.92,136.71L52.94,98.68L53.04,94.87L53.05,113.89L53.09,140.51L53.35,148.12L53.37,117.7L53.37,91.08L53.86,148.12L54.14,136.71L54.17,136.71L54.25,148.12L54.81,64.44L54.9,117.68L54.94,121.49L55.5,110.07L55.65,148.12L55.65,113.88L55.74,15L56.49,148.12L56.49,148.12L56.51,140.51L56.51,148.12L56.93,30.16L57.25,144.31L57.36,148.12L58.05,72.03L58.16,110.08L58.19,148.12L58.82,102.46L59.03,110.07L59.09,148.12L59.63,110.07L59.63,148.12L59.67,148.12L60.06,106.27L60.42,121.49L60.44,148.12L61.24,75.85L61.25,75.85L61.35,148.12L61.98,102.46L62.02,102.46L62.6,148.12L62.76,98.66L62.77,98.66L63.36,87.26L63.46,148.12L63.53,121.49L63.53,102.47L63.55,83.45L64,148.12L64.28,148.12L64.3,102.47L64.74,98.67L65.11,148.12L65.11,148.12L65.11,129.1L65.21,148.12L65.49,72.06L65.66,132.9L65.68,148.12L66.31,110.09L66.43,144.32L66.45,144.32L66.75,87.29L67.21,148.12L67.21,148.12L67.23,125.3L67.34,148.12L67.92,83.48L67.97,125.3L68,117.7L68.02,148.12L68.25,64.46L68.64,102.48L68.64,148.12L69.06,113.9L69.36,140.51L69.42,140.51L69.45,148.12L69.62,110.09L70.17,140.51L70.18,140.51L70.42,148.12L70.77,60.65L70.92,110.09L70.97,125.3L70.97,106.29L71.04,148.12L71.68,117.7L71.73,148.12L72.1,87.29L72.42,148.12L72.49,132.91L72.55,125.3L73.2,148.12L73.21,125.3L73.21,121.5L73.32,110.09L73.38,148.12L73.59,117.7L73.62,148.12L74.11,91.09L74.35,132.91L74.39,144.32L74.51,148.12L74.59,102.49L74.95,132.91L74.95,148.12L75.67,91.08L75.7,132.91L75.71,132.91L75.98,102.49L76.2,148.12L76.26,132.91L76.26,110.1L76.78,68.27L76.84,148.12L77,140.51L77.03,140.51L77.22,148.12L77.3,91.09L77.77,140.52L77.8,140.52L77.84,148.12L78.26,79.69L78.55,144.32L78.57,136.72L79.2,148.12L79.23,102.5L79.28,144.32L79.33,102.5L79.9,79.69L80.1,148.12L80.14,144.32L80.16,144.32L80.3,136.72L80.33,140.52L80.33,98.7L81.02,148.12L81.14,144.32L81.2,132.91L81.35,148.12L81.36,94.88L81.86,110.1L81.87,144.32L82.14,91.08L82.45,148.12L82.46,113.89L82.82,64.44L83.19,148.12L83.24,140.51L83.24,136.71L83.37,148.12L83.47,83.47L83.73,94.88L83.9,144.32L83.96,113.89L84.13,148.12L84.55,129.1L84.57,148.12L84.89,56.84L85.31,136.71L85.35,136.71L85.41,106.28L85.47,148.12L86.08,140.51L86.11,140.51L86.44,129.1L86.65,148.12L86.85,140.51L86.88,140.51L87.43,148.12L87.52,106.28L87.54,148.12L87.57,106.28L88.29,140.51L88.33,121.5L88.81,102.48L89.05,148.12L89.15,140.51L89.46,75.85L89.81,148.12L89.86,132.9L89.88,132.9L89.92,148.12L90.61,83.45L90.62,87.26L90.69,125.3L91.24,110.08L91.29,148.12L91.39,121.49L91.39,113.88L92.11,148.12L92.17,144.31L92.17,136.7L92.31,148.12L92.37,106.27L92.61,132.9L92.74,144.31L92.95,148.12L93.03,106.26L93.52,121.48L93.53,121.48L93.67,94.85L93.93,148.12L94.25,117.67L94.29,144.31L94.4,148.12L94.65,110.06L94.7,129.09L94.72,144.31L94.89,117.68L94.89,121.48L94.91,144.31L95.15,83.43L95.22,148.12L95.65,140.51L95.68,140.51L95.87,148.12L96.09,60.6L96.41,132.89L96.44,148.12L96.67,83.43L97.18,144.31L97.2,148.12L97.52,79.63L97.76,140.51L97.77,148.12L98.56,75.84L98.63,98.65L98.64,117.68L98.67,148.12L99.36,64.39L99.37,144.31L99.38,64.39L99.79,148.12L100.11,148.12L100.2,117.68L100.44,102.45L100.81,148.12L100.96,140.51L101.03,132.9L101.03,148.12L101.28,98.64L101.77,125.29L101.81,125.29L102.36,87.23L102.4,148.12L102.49,136.7L102.57,132.89L102.69,64.4L103.19,148.12L103.3,136.7L103.36,140.51L103.66,94.84L103.73,148.12L104.1,136.7L104.14,148.12L104.86,113.86L104.89,148.12L104.91,148.12L105.33,117.67L105.69,140.51L105.7,148.12L106.13,117.67L106.41,132.9L106.46,148.12L106.87,91.04L107.17,136.7L107.24,148.12L107.58,106.25L108,121.47L108.01,148.12L108.71,83.42L108.75,144.31L108.77,144.31L108.92,148.12L109.22,113.87L109.3,121.48L109.4,148.12L109.8,102.45L110.03,121.47L110.07,144.31L110.07,148.12L110.21,60.57L110.82,148.12L110.83,148.12L111.44,91.04L111.57,136.7L111.59,132.89L111.59,148.12L111.66,110.07L112.31,140.51L112.4,140.51L112.51,148.12L113.16,98.65L113.21,121.48L113.25,148.12L113.48,87.23L113.98,140.5L114.03,140.5L114.32,102.45L114.37,148.12L114.77,125.29L114.83,125.29L115.02,72.02L115.43,148.12L115.45,136.7L115.45,94.84L115.7,91.05L115.83,148.12L115.83,94.84L115.86,148.12L116.58,144.31L116.67,148.12L116.98,83.45L117.09,91.05L117.11,136.7L117.15,148.12L117.65,68.23L117.72,106.27L117.89,113.88L118.1,148.12L118.54,64.45L118.62,68.25L118.69,132.91L118.73,68.25L118.98,148.12L119.34,148.12L119.36,140.51L119.42,94.87L119.76,148.12L120.11,125.3L120.13,125.3L120.81,113.89L120.84,148.12L120.88,144.32L120.89,125.3L120.93,148.12L121.01,49.25L121.64,148.12L121.68,140.51L121.97,106.28L122.23,148.12L122.43,144.32L122.44,144.32L122.45,148.12L123.13,64.44L123.19,129.1L123.22,144.32L123.23,87.26L123.25,148.12L123.96,125.3L123.98,129.1L124.18,125.3L124.79,148.12L124.79,148.12L124.82,136.71L124.82,148.12L124.85,87.27L125.56,121.5L125.58,106.29L125.91,91.09L126.38,148.12L126.38,148.12L126.4,140.52L126.57,148.12L126.64,106.29L126.64,91.08L126.81,148.12L127.03,79.67L127.39,140.51L127.41,148.12L127.47,113.89L128.14,136.71L128.17,144.32L128.2,148.12L128.5,91.08L128.91,125.31L129,136.71L129.02,148.12L129.18,87.28L129.64,102.48L129.7,136.71L130.22,125.3L130.41,148.12L130.46,140.51L130.52,140.51L130.92,113.89L131.21,148.12L131.23,136.71L131.23,121.5L131.47,117.69L132,148.12L132.03,148.12L132.75,113.9L132.8,148.12L133.01,102.5L133.53,113.91L133.55,148.12L134.13,110.09L134.28,144.32L134.35,144.32L134.37,148.12L134.65,75.86L135.08,94.88L135.11,91.08L135.34,79.64L135.79,148.12L135.88,136.71L135.92,136.71L136.01,148.12L136.16,94.88L136.49,113.89L136.53,102.48L136.53,94.87L136.64,148.12L137.28,148.12L137.31,148.12L137.66,64.42L138.06,144.31L138.12,144.31L138.18,148.12L138.22,106.27L138.77,129.1L138.83,140.51L139.14,148.12L139.26,79.66L139.55,140.51L139.58,144.32L139.72,98.67L139.91,148.12L140.1,117.69L140.17,144.32L140.24,83.47L140.31,144.32L140.43,148.12L141.08,68.25L141.13,144.32L141.26,148.12L141.26,106.28L141.53,132.9L141.6,106.28L141.7,83.45L142.38,148.12L142.41,140.51L142.45,144.31L142.78,148.12L143.06,79.64L143.2,121.49L143.21,144.31L143.34,113.88L143.88,148.12L143.89,129.09L143.92,148.12L143.96,79.63L144.63,98.66L144.68,148.12L144.84,98.67L145.4,148.12L145.46,125.29L145.66,68.23L146.26,148.12L146.26,144.31L146.27,144.31L146.56,113.88L146.96,148.12L146.97,144.31L146.98,129.1L147.24,113.88L147.72,148.12L147.73,129.1L147.74,117.68L147.95,148.12L148.04,94.86L148.48,132.9L148.54,148.12L148.76,117.68L149.28,129.1L149.32,129.1L149.46,148.12L149.85,113.89L150.04,121.49L150.08,121.49L150.11,148.12L150.36,110.08L150.83,136.71L150.85,136.71L150.96,148.12L151.33,102.46L151.56,148.12L151.66,148.12L152.15,94.86L152.4,140.51L152.4,148.12L153.11,106.28L153.16,125.3L153.18,148.12L153.98,113.89L153.98,148.12L154.35,91.06L154.73,148.12L154.76,148.12L155.41,106.28L155.49,132.9L155.54,117.69L155.54,102.48L155.59,148.12L156.27,136.71L156.3,136.71L156.35,102.48L156.51,148.12L156.9,148.12L156.94,148.12L157.56,121.5L157.67,140.51L157.69,148.12L158.4,60.67L158.43,102.48L158.45,102.48L158.69,148.12L159.06,98.68L159.19,121.5L159.26,140.51L159.84,87.27L159.86,148.12L159.87,102.5L159.98,125.31L160.03,91.09L160.09,148.12L160.73,140.51L160.74,140.51L160.81,148.12L160.88,98.69L161.49,136.72L161.51,148.12L161.89,64.47L162.2,144.32L162.28,148.12L162.81,83.49L162.99,132.91L163.02,148.12L163.64,102.5L163.75,148.12L163.83,140.51L163.83,148.12L164.15,113.9L164.55,132.91L164.6,148.12L165.04,94.87L165.04,64.44L165.83,148.12L165.88,148.12L166.06,148.12L166.1,113.91L166.54,148.12L166.72,113.9L166.85,117.7L166.9,121.5L167,148.12L167.2,102.49L167.65,148.12L167.67,148.12L167.89,98.7L168.22,110.1L168.27,148.12L168.46,144.32L168.47,113.91L168.48,102.5L168.69,148.12L169.2,129.11L169.28,125.31L169.45,94.9L170.04,148.12L170.08,140.52L170.08,106.3L170.11,148.12L170.65,75.87L170.73,121.5L170.74,144.32L170.8,148.12L171.41,110.09L171.48,144.32L171.56,148.12L171.72,94.88L172.26,129.11L172.36,121.5L173.05,87.28L173.09,148.12L173.11,125.31L173.13,140.52L173.42,148.12L173.9,75.86L173.92,87.27L173.95,144.32L174.41,113.89L174.72,148.12L174.72,148.12L174.72,144.32L175.07,148.12L175.14,113.9L175.2,144.32L175.28,102.49L175.34,98.69L175.51,148.12L175.91,117.7L175.95,144.32L176.04,148.12L176.04,113.9L176.71,132.91L176.74,125.31L177.41,148.12L177.43,129.11L177.54,144.32L177.97,148.12L178.11,113.9L178.26,148.12L178.3,144.32L178.35,148.12L178.75,102.5L179.1,106.3L179.17,148.12L179.27,102.5L179.95,110.1L179.96,148.12L180.67,91.09L180.7,125.31L180.73,148.12L180.85,91.09L181.49,121.52L181.54,136.72L181.69,136.72L181.7,129.12L181.81,102.52L181.96,148.12L182.37,140.52L182.4,144.32L182.56,148.12L182.67,125.31L182.68,136.72L182.68,102.5L183.27,94.9L183.41,148.12L183.43,113.91L183.51,129.11L183.54,148.12L183.73,113.9L184.25,144.32L184.27,144.32L184.41,148.12L184.47,45.45L184.48,144.32L184.5,41.65L185.28,148.12L185.32,148.12L185.72,87.29L185.85,110.1L185.87,148.12L186.51,64.49L186.63,83.49L186.66,148.12L186.66,49.28L187.41,121.51L187.42,83.49L188.17,148.12L188.18,144.32L188.2,144.32L188.34,148.12L188.71,94.9L188.9,129.11L188.92,144.32L189.43,87.3L189.63,148.12L189.66,148.12L189.71,117.71L189.71,148.12L189.87,106.31L190.42,125.32L190.5,140.52L190.69,148.12L190.84,110.11L191.15,113.91L191.15,148.12L191.88,68.3L191.95,83.51L192.02,75.91L192.64,148.12L192.71,117.71L192.74,121.51L192.82,148.12L193.35,117.72L193.44,144.32L193.5,144.32L193.68,68.3L194.22,148.12L194.23,121.51L194.26,94.91L194.99,148.12L195.05,148.12L195.42,75.9L195.8,117.71L195.81,148.12L195.83,106.31L196.56,140.52L196.58,125.32L196.58,148.12L197.02,91.1L197.32,129.12L197.34,129.12L197.41,117.72L198.09,148.12L198.09,148.12L198.1,129.12L198.62,106.31L198.7,148.12L198.87,132.92L198.89,132.92L199.44,117.72L199.62,148.12L199.63,144.32L199.64,125.32L199.97,98.72L200.37,148.12L200.39,144.32L200.5,144.32L200.54,148.12L200.6,68.32L200.8,136.72L200.85,132.92L201.08,75.92L201.25,148.12L201.6,132.92L201.63,132.92L201.66,148.12L202.34,91.13L202.38,132.92L202.39,117.73L202.4,106.33L202.56,148.12L203.11,148.12L203.15,117.73L203.15,113.93L203.25,148.12L203.9,144.32L203.91,144.32L203.93,148.12L204,102.53L204.66,144.32L204.69,144.32L204.84,148.12L204.91,132.93L204.91,110.13L205.19,102.54L205.64,148.12L205.68,129.13L205.99,102.52L206.44,148.12L206.47,148.12L206.59,136.72L206.59,113.92L207.35,148.12L207.37,136.72L207.37,129.12L207.63,110.11L207.85,148.12L208.13,144.32L208.14,144.32L208.19,113.92L208.45,148.12L208.61,117.72L208.66,117.72L209.38,148.12L209.42,125.32L209.43,125.32L209.63,106.32L210.08,148.12L210.15,144.32L210.2,121.52L210.2,148.12L210.89,113.92L210.93,132.92L210.97,148.12L211.65,102.52L211.72,110.13L211.81,129.12L211.96,110.12L212.54,148.12L212.6,144.32L212.6,140.52L212.87,148.12L212.88,106.32L213.34,132.92L213.38,144.32L213.48,148.12L213.53,106.32L213.59,117.72L213.64,148.12L214.24,83.52L214.42,132.92L214.43,132.92L214.73,56.93L215.08,148.12L215.13,110.13L215.18,117.73L215.29,87.34L215.93,148.12L215.93,144.32L215.93,113.92L216.18,79.71L216.26,148.12L216.69,125.32L216.81,136.72L216.9,148.12L217.33,37.9L217.56,72.11L217.59,72.11L217.68,60.71L218.06,148.12L218.33,144.32L218.36,140.52L218.65,148.12L218.91,110.11L219.06,117.72L219.06,148.12L219.7,94.91L219.8,121.51L219.85,136.72L220.37,83.5L220.54,148.12L220.57,125.32L220.58,125.32L220.63,148.12L221.26,102.51L221.3,148.12L221.34,102.51L221.34,79.7L221.35,148.12L222.05,106.3L222.1,106.3L222.36,148.12L222.5,91.1L222.78,140.52L222.78,148.12L222.96,113.92L223.55,129.12L223.56,129.12L223.88,148.12L224.3,34.09L224.35,148.12L224.68,102.51L224.78,117.71L224.78,148.12L225.09,91.1L225.12,148.12L225.71,121.51L225.91,125.31L225.92,148.12L226.34,94.91L226.67,140.52L226.72,121.51L226.81,148.12L226.84,72.06L227.46,136.71L227.48,136.71L227.52,125.31L227.57,148.12L228.18,148.12L228.2,148.12L228.79,106.29L228.95,148.12L228.96,148.12L229.69,91.08L229.74,113.89L229.74,91.08L229.85,148.12L230.48,129.11L230.52,136.71L230.73,148.12L231.27,79.66L231.27,110.08L231.35,129.1L231.47,148.12L232.01,53.03L232.12,136.71L232.2,148.12L232.7,79.67L232.87,98.69L232.94,98.69L233.32,148.12L233.71,144.32L233.73,117.7L233.73,91.08L234.23,148.12L234.46,125.31L234.49,125.31L234.97,106.3L235.15,148.12L235.19,113.9L235.19,98.69L235.85,148.12L235.91,94.88L235.93,94.88L235.97,121.5L236.27,148.12L236.38,113.89L236.38,91.08L237.11,148.12L237.2,136.71L237.21,136.71L237.26,148.12L238,106.29L238,106.29L238.01,136.71L238.04,102.49L238.18,148.12L238.76,132.91L238.8,148.12L238.99,113.91L239.55,140.52L239.57,144.32L239.64,148.12L239.88,98.69L240.28,98.69L240.34,125.3L240.79,106.29L241.02,148.12L241.03,129.1L241.12,144.32L241.29,56.82L241.62,148.12L241.87,125.29L241.9,110.07L242.5,148.12L242.56,117.69L243.29,148.12L243.31,121.5L243.32,121.5L243.6,98.69L244.01,148.12L244.09,140.51L244.1,140.51L244.25,94.88L244.26,148.12L244.85,132.91L244.89,136.71L245.19,102.48L245.61,148.12L245.61,144.32L245.61,132.91L245.79,83.47L246.19,148.12L246.21,125.3L246.3,121.5L246.3,148.12L246.54,113.89L247.05,121.5L247.07,148.12L247.63,106.3L247.81,132.91L247.84,136.71L248.13,148.12L248.42,83.48L248.58,148.12L248.63,144.32L248.78,148.12L249.09,64.45L249.31,121.49L249.34,148.12L249.72,75.86L250.09,144.32L250.12,144.32L250.26,148.12L250.72,45.45L250.82,136.71L250.93,125.3L251.02,102.48L251.27,148.12L251.56,136.71L251.66,144.32L251.75,91.08L252.17,148.12L252.42,129.11L252.43,129.11L252.58,87.27L252.67,148.12L253.16,148.12L253.18,148.12L253.23,113.9L253.93,136.71L253.95,136.71L254.07,68.26L254.59,148.12L254.61,129.11L254.63,110.09L254.97,64.46L254.98,148.12L255.15,117.7L255.18,136.71L255.5,91.1L255.75,148.12L255.81,117.7L255.84,110.1L255.96,60.69L256.57,148.12L256.63,140.52L256.64,140.52L256.88,91.1L257.13,148.12L257.23,102.51L257.23,79.7L257.36,64.5L257.4,148.12L257.92,144.32L257.94,144.32L258.17,148.12L258.48,60.7L258.61,125.32L258.61,136.72L258.63,148.12L258.74,94.9L259.36,129.12L259.37,129.12L259.94,106.31L260.12,148.12L260.12,148.12L260.14,148.12L260.32,110.12L260.8,132.92L260.82,148.12L260.93,91.13L261.56,132.92L261.59,132.92L262.02,102.51L262.14,148.12L262.27,140.52L262.28,98.72L263,148.12L263.04,125.31L263.11,125.31L263.44,148.12L263.66,75.91L263.83,113.92L263.84,91.11L264.33,79.71L264.55,148.12L264.57,98.71L264.64,117.72L265.05,148.12L265.44,140.52L265.44,125.32L265.45,102.52L265.57,148.12L266.12,148.12L266.21,117.71L266.24,106.31L266.97,148.12L266.98,148.12L267.2,148.12L267.2,144.32L267.31,117.71L267.32,148.12L267.32,132.91L267.32,113.91L267.5,91.1L267.99,148.12L268.07,144.32L268.09,117.72L268.64,87.31L268.83,148.12L268.88,148.12L269.08,106.32L269.67,125.32L269.68,136.72L269.91,102.52L269.98,148.12L270.4,110.11L270.42,129.12L270.84,98.72L271.16,148.12L271.19,136.72L271.24,117.72L271.36,148.12L271.5,98.72L271.98,110.11L272,117.71L272.32,148.12L272.75,91.12L272.81,144.32L272.84,148.12L273.25,110.11L273.56,148.12L273.57,148.12L273.73,121.52L273.92,132.92L273.92,148.12L274.53,94.93L274.65,106.33L274.68,144.32L274.79,148.12L274.8,132.92L274.82,136.72L274.82,117.72L275.37,91.14L275.63,148.12L275.64,102.53L275.66,79.74L275.78,148.12L276.21,106.32L276.29,136.72L276.49,110.12L277.05,148.12L277.06,148.12L277.82,117.72L277.86,148.12L278.37,94.91L278.6,136.72L278.61,140.52L278.92,83.5L278.95,148.12L279.33,94.9L279.42,148.12L279.63,79.69L280.03,148.12L280.08,148.12L280.51,79.7L280.8,110.1L280.85,132.91L280.89,148.12L281.09,94.91L281.58,144.32L281.59,144.32L281.6,148.12L282.3,106.31L282.33,106.31L282.36,144.32L282.61,148.12L283.07,83.5L283.11,113.91L283.12,117.71L283.47,72.1L283.88,148.12L283.88,148.12L283.91,148.12L284.44,106.31L284.72,136.71L284.72,144.32L285.03,148.12L285.22,91.1L285.47,129.12L285.48,136.72L285.58,148.12L285.85,113.9L286.23,121.51L286.25,121.51L286.34,148.12L286.94,72.09L287,94.9L287.03,148.12L287.67,60.7L287.75,144.32L287.77,144.32L287.87,113.9L288.37,148.12L288.46,144.32L288.47,113.9L289.15,110.1L289.24,148.12L289.24,117.71L289.5,148.12L289.7,87.29L289.98,121.5L290.02,129.11L290.07,148.12L290.23,91.09L290.77,144.32L290.78,144.32L290.92,110.1L291.37,148.12L291.46,125.31L291.5,106.3L292.02,91.09L292.3,148.12L292.3,121.51L292.3,148.12L292.81,102.5L293.04,129.11L293.07,129.11L293.43,110.1L293.83,148.12L293.83,148.12L293.85,148.12L294.31,98.7L294.47,144.32L294.52,148.12L294.83,102.5L295.27,132.91L295.31,144.32L295.73,106.3L295.8,148.12L296.03,144.32L296.05,132.92L296.06,113.91L296.22,148.12L296.79,148.12L296.8,144.32L296.83,148.12L297.23,72.06L297.54,129.11L297.57,117.7L298.19,113.9L298.36,148.12L298.39,144.32L298.42,148.12L298.59,113.9L299.09,148.12L299.17,144.32L299.42,148.12L299.42,125.31L299.56,125.31L299.57,117.7L299.75,148.12L300.04,75.88L300.28,144.32L300.34,144.32L300.41,113.9L300.41,148.12L301.08,148.12L301.13,148.12L301.33,125.31L301.33,125.31L301.33,110.1L301.97,91.09L302.11,148.12L302.11,140.51L302.11,129.11L302.69,102.49L302.86,148.12L302.87,144.32L302.9,144.32L302.91,75.89L303.11,148.12L303.65,144.32L303.69,144.32L303.78,148.12L303.91,102.49L304.4,144.32L304.4,148.12L304.97,91.07L305.15,125.3L305.18,148.12L305.18,87.27L305.91,125.31L305.99,129.11L306.12,148.12L306.35,102.49L306.65,140.52L306.71,132.91L306.8,106.29L307.47,148.12L307.47,144.32L307.47,132.91L307.58,110.09L308.19,148.12L308.22,136.71L308.33,136.71L308.4,148.12L308.82,87.3L309.08,102.5L309.12,121.51L309.13,106.3L309.19,148.12L309.85,148.12L309.9,148.12L310.07,110.1L310.23,121.51L310.28,140.52L310.83,148.12L310.87,91.09L311,132.91L311.01,132.91L311.38,45.48L311.61,148.12L311.71,94.89L311.75,136.72L311.86,148.12L312.15,53.08L312.45,144.32L312.62,125.31L313.24,94.9L313.37,148.12L313.38,136.72L313.4,136.72L313.47,148.12L314.16,110.12L314.17,148.12L314.38,83.52L314.85,121.52L314.9,148.12L315.59,72.14L315.69,72.16L315.71,110.15L315.87,75.93L316.19,148.12L316.38,75.94L316.53,144.32L316.63,148.12L316.95,117.72L317.28,148.12L317.31,140.52L317.33,91.13L317.4,148.12L318.06,136.72L318.08,98.72L318.09,148.12L318.82,132.92L318.85,132.92L319.09,129.12L319.2,148.12L319.2,129.12L319.2,125.32L319.56,148.12L319.77,94.93L319.91,140.52L319.95,83.53L320.29,148.12L320.37,75.93L320.5,136.72L320.57,140.52L320.79,83.51L320.96,148.12L321.3,144.32L321.4,125.32L321.49,79.73L321.91,148.12L321.91,148.12L321.92,113.93L321.97,102.52L322.66,148.12L322.68,129.12L322.69,121.52L322.72,148.12L322.76,110.12L323.42,125.32L323.45,125.32L323.45,117.72L323.49,148.12L324.2,148.12L324.23,148.12L324.9,94.92L324.98,148.12L324.99,148.12L325.21,113.92L325.21,113.92L325.23,144.32L325.38,117.72L325.91,148.12L325.92,140.52L325.92,136.72L326.41,117.72L326.45,148.12L326.45,113.92L326.92,64.54L327.01,148.12L327.2,113.93L327.2,83.53L327.29,37.94L327.78,148.12L327.93,110.12L328.02,110.12L328.75,148.12L328.79,129.12L328.84,132.92L329,148.12L329.02,94.91L329.33,140.52L329.34,148.12L329.67,91.12L330.09,148.12L330.14,140.52L330.19,148.12L330.33,94.92L330.8,148.12L330.9,148.12L331.26,102.52L331.66,125.32L331.66,144.32L332.11,110.12L332.12,148.12L332.17,117.73L332.17,91.14L332.87,148.12L332.87,129.12L332.93,129.12L332.95,148.12L333.28,75.91L333.57,132.92L333.69,144.32L333.77,113.92L334.2,148.12L334.33,140.52L334.37,113.92L334.71,94.92L334.88,148.12L335.1,129.12L335.19,144.32L335.42,106.32L335.73,148.12L335.93,140.52L335.97,148.12L336.66,56.91L336.68,148.12L336.86,110.12L337.31,144.32L337.36,144.32L337.54,148.12L337.62,113.92L338.09,148.12L338.12,140.52L338.12,148.12L338.24,72.11L338.86,125.32L338.89,148.12L339.54,49.31L339.7,110.12L339.79,117.72L339.86,87.31L340.35,148.12L340.52,129.12L340.55,106.32L340.58,148.12L341.19,83.52L341.28,83.52L341.31,83.52L342.05,148.12L342.06,125.32L342.08,125.32L342.08,98.72L342.35,148.12L342.83,144.32L342.85,129.12L342.95,148.12L343.02,79.69L343.6,113.92L343.61,148.12L344.05,41.69L344.37,136.71L344.42,148.12L345.17,41.67L345.19,110.11L345.2,94.89L345.23,148.12L345.83,129.12L345.84,140.52L345.96,148.12L346.01,102.52L346.2,136.72L346.24,148.12L346.93,87.31L346.99,148.12L347,148.12L347.69,129.12L347.75,148.12L347.77,144.32L347.81,148.12L348.44,102.5L348.51,144.32L348.55,144.32L348.58,148.12L348.83,110.11L349.18,148.12L349.22,148.12L349.34,94.91L349.96,144.32L350,148.12L350.05,110.11L350.63,121.51L350.65,148.12L350.85,98.71L351.4,140.52L351.41,91.11L351.77,83.5L352.12,148.12L352.21,148.12L352.75,110.12L352.96,113.92L353.05,144.32L353.19,148.12L353.66,117.72L353.77,136.72L353.81,136.72L354.12,148.12L354.25,94.92L354.54,136.72L354.57,140.52L354.75,91.1L355.24,148.12L355.26,117.72L355.28,117.72L355.3,148.12L355.38,94.92L356.01,121.52L356.1,125.32L356.1,148.12L356.49,94.92L356.83,140.52L356.88,140.52L357.04,87.32L357.13,148.12L357.63,148.12L357.65,148.12L357.66,87.3L358.36,136.72L358.41,148.12L358.71,94.9L359.16,136.72L359.27,144.32L359.27,148.12L359.83,83.51L360,110.11L360.04,98.72L360.23,94.91L360.64,148.12L360.78,129.12L360.83,144.32L360.83,148.12L361.19,106.3L361.57,132.92L361.61,132.92L361.69,148.12L362.11,68.31L362.31,98.71L362.32,144.32L362.35,64.51L362.67,148.12L363.06,125.32L363.09,148.12L363.68,106.31L363.81,132.92L363.85,113.92L363.97,91.12L364.59,148.12L364.66,144.32L364.68,136.72L365.09,148.12L365.13,87.31L365.44,140.52L365.44,117.71L365.5,148.12L365.95,83.51L366.19,144.32L366.21,113.91L366.26,148.12L366.31,68.3L366.91,117.72L366.97,110.12L367.07,68.32L367.09,148.12L367.68,98.71L367.84,144.32L367.89,136.72L367.89,148.12L368.49,79.71L368.64,148.12L368.65,144.32L368.79,148.12L368.91,37.9L369.39,110.12L369.43,110.12L369.6,148.12L369.96,79.7L370.11,132.92L370.11,140.52L370.52,106.3L370.61,148.12L370.84,140.52L370.87,140.52L370.96,148.12L371.54,98.7L371.6,144.32L371.65,144.32L372.01,148.12L372.29,68.27L372.36,136.72L372.41,121.51L372.68,148.12L372.74,94.92L373.11,125.32L373.17,140.52L373.39,117.71L373.48,148.12L373.5,94.9L373.74,79.7L374.25,148.12L374.25,132.91L374.27,132.91L374.67,26.44L374.8,148.12L374.84,132.91L374.85,64.47L375.49,148.12L375.61,83.48L375.77,102.49L375.88,75.89L376.37,148.12L376.52,121.51L376.58,136.71L376.72,110.09L377.07,148.12L377.27,136.71L377.37,129.11L377.46,113.9L377.96,148.12L378.09,117.7L378.12,117.7L378.29,94.89L378.9,148.12L378.94,148.12L379.38,102.5L379.46,106.3L379.47,148.12L379.73,110.1L379.97,125.31L379.98,144.32L379.98,113.9L380.12,148.12L380.73,144.32L380.74,140.52L380.9,148.12L381.1,91.1L381.49,144.32L381.51,148.12L382.07,64.49L382.28,117.71L382.31,148.12L382.5,56.89L383.04,148.12L383.08,148.12L383.8,64.46L383.82,132.91L383.83,148.12L383.84,64.46L384.48,125.31L384.58,148.12L384.7,79.7L385.3,113.91L385.34,140.52L385.39,148.12L386.08,60.68L386.09,148.12L386.27,113.9L386.28,148.12L386.91,113.9L386.99,117.7L387.04,148.12L387.67,87.28L387.82,98.69L387.82,106.3L388.05,94.88L388.47,148.12L388.56,125.3L388.61,140.51L388.69,148.12L388.84,18.84L389.36,91.06L389.42,148.12L389.61,18.84L390.17,144.32L390.22,144.32L390.42,102.51L390.56,148.12L390.63,102.51L390.63,94.91L391.32,83.47L391.37,148.12L391.37,148.12L391.39,79.66L391.53,68.28L392.05,148.12L392.15,140.51L392.17,140.51L392.47,117.7L392.95,148.12L392.96,140.52L392.98,148.12L393.47,110.09L393.68,140.51L393.73,148.12L394.34,102.5L394.5,136.71L394.51,148.12L395.26,106.29L395.26,121.51L395.27,144.32L395.53,148.12L395.72,91.09L395.73,91.09L395.78,91.09L396.52,148.12L396.58,129.11L396.64,125.31L396.71,148.12L396.83,94.89L397.35,148.12L397.4,148.12L398.13,94.89L398.13,94.89L398.16,148.12L398.8,87.3L398.9,132.91L398.92,132.91L398.94,117.7L399,140.52" style="vector-effect: non-scaling-stroke; fill: none; stroke: rgb(0, 204, 150); stroke-opacity: 1; stroke-width: 2px; opacity: 1;"/></g><g class="points"/><g class="text"/></g></g></g><g class="overplot"/><path class="xlines-above crisp" d="M0,0" style="fill: none;"/><path class="ylines-above crisp" d="M0,0" style="fill: none;"/><g class="overlines-above"/><g class="xaxislayer-above"><g class="xtick"><text text-anchor="start" x="0" y="416" transform="translate(206.5,0) rotate(30,0,408.5)" style="font-family: 'Times New Roman'; font-size: 15px; fill: rgb(13, 13, 13); fill-opacity: 1; white-space: pre; opacity: 1;">1.6125210<tspan style="font-size:70%" dy="-0.6em">18</tspan><tspan dy="0.42em"></tspan></text></g><g class="xtick"><text text-anchor="start" x="0" y="416" style="font-family: 'Times New Roman'; font-size: 15px; fill: rgb(13, 13, 13); fill-opacity: 1; white-space: pre; opacity: 1;" transform="translate(285.71000000000004,0) rotate(30,0,408.5)">1.61252510<tspan style="font-size:70%" dy="-0.6em">18</tspan><tspan dy="0.42em"></tspan></text></g><g class="xtick"><text text-anchor="start" x="0" y="416" style="font-family: 'Times New Roman'; font-size: 15px; fill: rgb(13, 13, 13); fill-opacity: 1; white-space: pre; opacity: 1;" transform="translate(364.91999999999996,0) rotate(30,0,408.5)">1.6125310<tspan style="font-size:70%" dy="-0.6em">18</tspan><tspan dy="0.42em"></tspan></text></g><g class="xtick"><text text-anchor="start" x="0" y="416" style="font-family: 'Times New Roman'; font-size: 15px; fill: rgb(13, 13, 13); fill-opacity: 1; white-space: pre; opacity: 1;" transform="translate(444.12,0) rotate(30,0,408.5)">1.61253510<tspan style="font-size:70%" dy="-0.6em">18</tspan><tspan dy="0.42em"></tspan></text></g><g class="xtick"><text text-anchor="start" x="0" y="416" style="font-family: 'Times New Roman'; font-size: 15px; fill: rgb(13, 13, 13); fill-opacity: 1; white-space: pre; opacity: 1;" transform="translate(523.3299999999999,0) rotate(30,0,408.5)">1.6125410<tspan style="font-size:70%" dy="-0.6em">18</tspan><tspan dy="0.42em"></tspan></text></g></g><g class="yaxislayer-above"><g class="ytick"><text text-anchor="end" x="136" y="12.25" transform="translate(0,365.97)" style="font-family: 'Times New Roman'; font-size: 35px; fill: rgb(13, 13, 13); fill-opacity: 1; white-space: pre; opacity: 1;">0.03</text></g><g class="ytick"><text text-anchor="end" x="136" y="12.25" style="font-family: 'Times New Roman'; font-size: 35px; fill: rgb(13, 13, 13); fill-opacity: 1; white-space: pre; opacity: 1;" transform="translate(0,327.96000000000004)">0.02</text></g><g class="ytick"><text text-anchor="end" x="136" y="12.25" style="font-family: 'Times New Roman'; font-size: 35px; fill: rgb(13, 13, 13); fill-opacity: 1; white-space: pre; opacity: 1;" transform="translate(0,289.94)">0.01</text></g><g class="ytick"><text text-anchor="end" x="136" y="12.25" style="font-family: 'Times New Roman'; font-size: 35px; fill: rgb(13, 13, 13); fill-opacity: 1; white-space: pre; opacity: 1;" transform="translate(0,251.92)">0</text></g><g class="ytick"><text text-anchor="end" x="136" y="12.25" style="font-family: 'Times New Roman'; font-size: 35px; fill: rgb(13, 13, 13); fill-opacity: 1; white-space: pre; opacity: 1;" transform="translate(0,213.9)">0.01</text></g><g class="ytick"><text text-anchor="end" x="136" y="12.25" style="font-family: 'Times New Roman'; font-size: 35px; fill: rgb(13, 13, 13); fill-opacity: 1; white-space: pre; opacity: 1;" transform="translate(0,175.89)">0.02</text></g><g class="ytick"><text text-anchor="end" x="136" y="12.25" style="font-family: 'Times New Roman'; font-size: 35px; fill: rgb(13, 13, 13); fill-opacity: 1; white-space: pre; opacity: 1;" transform="translate(0,137.87)">0.03</text></g></g><g class="overaxes-above"/></g></g><g class="polarlayer"/><g class="smithlayer"/><g class="ternarylayer"/><g class="geolayer"/><g class="funnelarealayer"/><g class="pielayer"/><g class="iciclelayer"/><g class="treemaplayer"/><g class="sunburstlayer"/><g class="glimages"/><defs id="topdefs-cab4db"><g class="clips"/><clipPath id="legendcab4db"><rect width="144" height="67" x="0" y="0"/></clipPath></defs><g class="layer-above"><g class="imagelayer"/><g class="shapelayer"/></g><g class="infolayer"><g class="legend" pointer-events="all" transform="translate(543.98,100)"><rect class="bg" shape-rendering="crispEdges" style="stroke: rgb(68, 68, 68); stroke-opacity: 1; fill: rgb(255, 255, 255); fill-opacity: 1; stroke-width: 0px;" width="144" height="67" x="0" y="0"/><g class="scrollbox" transform="" clip-path="url(#legendcab4db)"><g class="groups"><g class="traces" transform="translate(0,14.5)" style="opacity: 1;"><text class="legendtext" text-anchor="start" x="40" y="4.680000000000001" style="font-family: 'Open Sans', verdana, arial, sans-serif; font-size: 12px; fill: rgb(42, 63, 95); fill-opacity: 1; white-space: pre;">Realized (in %)</text><g class="layers" style="opacity: 1;"><g class="legendfill"/><g class="legendlines"><path class="js-line" d="M5,0h30" style="fill: none; stroke: rgb(99, 110, 250); stroke-opacity: 1; stroke-width: 2px;"/></g><g class="legendsymbols"><g class="legendpoints"/></g></g><rect class="legendtoggle" x="0" y="-9.5" width="138.71875" height="19" style="fill: rgb(0, 0, 0); fill-opacity: 0;"/></g><g class="traces" transform="translate(0,33.5)" style="opacity: 1;"><text class="legendtext" text-anchor="start" x="40" y="4.680000000000001" style="font-family: 'Open Sans', verdana, arial, sans-serif; font-size: 12px; fill: rgb(42, 63, 95); fill-opacity: 1; white-space: pre;">Effective (in %)</text><g class="layers" style="opacity: 1;"><g class="legendfill"/><g class="legendlines"><path class="js-line" d="M5,0h30" style="fill: none; stroke: rgb(239, 85, 59); stroke-opacity: 1; stroke-width: 2px;"/></g><g class="legendsymbols"><g class="legendpoints"/></g></g><rect class="legendtoggle" x="0" y="-9.5" width="138.71875" height="19" style="fill: rgb(0, 0, 0); fill-opacity: 0;"/></g><g class="traces" transform="translate(0,52.5)" style="opacity: 1;"><text class="legendtext" text-anchor="start" x="40" y="4.680000000000001" style="font-family: 'Open Sans', verdana, arial, sans-serif; font-size: 12px; fill: rgb(42, 63, 95); fill-opacity: 1; white-space: pre;">Half Quoted (in %)</text><g class="layers" style="opacity: 1;"><g class="legendfill"/><g class="legendlines"><path class="js-line" d="M5,0h30" style="fill: none; stroke: rgb(0, 204, 150); stroke-opacity: 1; stroke-width: 2px;"/></g><g class="legendsymbols"><g class="legendpoints"/></g></g><rect class="legendtoggle" x="0" y="-9.5" width="138.71875" height="19" style="fill: rgb(0, 0, 0); fill-opacity: 0;"/></g></g></g><rect class="scrollbar" rx="20" ry="3" width="0" height="0" style="fill: rgb(128, 139, 164); fill-opacity: 1;" x="0" y="0"/></g><g class="g-gtitle"/><g class="g-xtitle"><text class="xtitle" x="336.5" y="487.503125" text-anchor="middle" style="font-family: 'Open Sans', verdana, arial, sans-serif; font-size: 14px; fill: rgb(42, 63, 95); opacity: 1; font-weight: normal; white-space: pre;">Time Steps (ns)</text></g><g class="g-ytitle" transform="translate(24,0)"><text class="ytitle" transform="rotate(-90,12,250)" x="12" y="250" text-anchor="middle" style="font-family: 'Times New Roman'; font-size: 40px; fill: rgb(13, 13, 13); opacity: 1; font-weight: normal; white-space: pre;">Spreads (in %)</text></g></g></svg>