<svg class="main-svg" xmlns="http://www.w3.org/2000/svg" xmlns:xlink="http://www.w3.org/1999/xlink" width="700" height="500" style="" viewBox="0 0 700 500"><rect x="0" y="0" width="700" height="500" style="fill: rgb(255, 255, 255); fill-opacity: 1;"/><defs id="defs-da99c0"><g class="clips"><clipPath id="clipda99c0xyplot" class="plotclip"><rect width="494" height="320"/></clipPath><clipPath class="axesclip" id="clipda99c0x"><rect x="126" y="0" width="494" height="500"/></clipPath><clipPath class="axesclip" id="clipda99c0y"><rect x="0" y="100" width="700" height="320"/></clipPath><clipPath class="axesclip" id="clipda99c0xy"><rect x="126" y="100" width="494" height="320"/></clipPath></g><g class="gradients"/><g class="patterns"/></defs><g class="bglayer"><rect class="bg" x="126" y="100" width="494" height="320" style="fill: rgb(229, 236, 246); fill-opacity: 1; stroke-width: 0;"/></g><g class="layer-below"><g class="imagelayer"/><g class="shapelayer"/></g><g class="cartesianlayer"><g class="subplot xy"><g class="layer-subplot"><g class="shapelayer"/><g class="imagelayer"/></g><g class="minor-gridlayer"><g class="x"/><g class="y"/></g><g class="gridlayer"><g class="x"><path class="xgrid crisp" transform="translate(212.18,0)" d="M0,100v320" style="stroke: rgb(255, 255, 255); stroke-opacity: 1; stroke-width: 1px;"/><path class="xgrid crisp" transform="translate(310.22,0)" d="M0,100v320" style="stroke: rgb(255, 255, 255); stroke-opacity: 1; stroke-width: 1px;"/><path class="xgrid crisp" transform="translate(408.27,0)" d="M0,100v320" style="stroke: rgb(255, 255, 255); stroke-opacity: 1; stroke-width: 1px;"/><path class="xgrid crisp" transform="translate(506.31,0)" d="M0,100v320" style="stroke: rgb(255, 255, 255); stroke-opacity: 1; stroke-width: 1px;"/><path class="xgrid crisp" transform="translate(604.35,0)" d="M0,100v320" style="stroke: rgb(255, 255, 255); stroke-opacity: 1; stroke-width: 1px;"/></g><g class="y"><path class="ygrid crisp" transform="translate(0,355.53999999999996)" d="M126,0h494" style="stroke: rgb(255, 255, 255); stroke-opacity: 1; stroke-width: 1px;"/><path class="ygrid crisp" transform="translate(0,307.08000000000004)" d="M126,0h494" style="stroke: rgb(255, 255, 255); stroke-opacity: 1; stroke-width: 1px;"/><path class="ygrid crisp" transform="translate(0,258.62)" d="M126,0h494" style="stroke: rgb(255, 255, 255); stroke-opacity: 1; stroke-width: 1px;"/><path class="ygrid crisp" transform="translate(0,210.17000000000002)" d="M126,0h494" style="stroke: rgb(255, 255, 255); stroke-opacity: 1; stroke-width: 1px;"/><path class="ygrid crisp" transform="translate(0,161.71)" d="M126,0h494" style="stroke: rgb(255, 255, 255); stroke-opacity: 1; stroke-width: 1px;"/><path class="ygrid crisp" transform="translate(0,113.25)" d="M126,0h494" style="stroke: rgb(255, 255, 255); stroke-opacity: 1; stroke-width: 1px;"/></g></g><g class="zerolinelayer"><path class="yzl zl crisp" transform="translate(0,404)" d="M126,0h494" style="stroke: rgb(255, 255, 255); stroke-opacity: 1; stroke-width: 2px;"/></g><path class="xlines-below"/><path class="ylines-below"/><g class="overlines-below"/><g class="xaxislayer-below"/><g class="yaxislayer-below"/><g class="overaxes-below"/><g class="plot" transform="translate(126,100)" clip-path="url(#clipda99c0xyplot)"><g class="scatterlayer mlayer"><g class="trace scatter trace71d690" style="stroke-miterlimit: 2; opacity: 1;"><g class="fills"/><g class="errorbars"/><g class="lines"><path class="js-line" d="M0,304L7.64,300.74L7.64,300.74L7.66,300.73L10.05,299.67L10.05,299.63L12.04,298.47L12.14,298.47L14.7,297.31L14.7,297.29L16.73,296.25L16.8,296.25L20.21,294.58L20.21,294.57L22.56,293.11L22.56,293.09L27.73,291.11L27.73,291.11L27.85,291.11L38.57,285.82L38.57,285.8L46.91,281.41L46.91,281.41L46.91,281.4L58.18,274.32L58.18,274.3L62.69,271.45L62.69,271.45L62.72,271.45L64.59,270.21L64.59,270.21L64.59,270.2L73.94,264.76L73.94,264.74L75.73,263.46L75.73,263.46L75.74,263.46L100.51,248.58L100.6,248.58L106.25,245.12L106.25,245.12L106.25,245.11L110.71,242.86L110.71,242.84L113.03,241.38L113.08,241.37L127.87,232.69L127.95,232.69L136.46,228.25L136.46,228.25L136.46,228.24L138.14,227.39L138.14,227.36L139.55,226.24L139.55,226.23L142.4,224.72L142.4,224.72L142.41,224.7L156.23,216.76L156.3,216.75L159.45,214.84L159.45,214.84L159.59,214.82L162.75,212.79L162.75,212.79L162.75,212.78L165.73,211.07L165.73,211.07L165.73,211.06L167.17,210.07L167.21,210.07L170.22,208.58L170.22,208.58L170.35,208.57L171.93,207.64L171.93,207.64L171.99,207.63L173.99,206.23L174.03,206.21L178.02,203.93L178.02,203.92L182.91,201.19L182.91,201.19L183,201.19L186.71,199.4L186.71,199.4L186.79,199.39L188.63,198.52L188.63,198.52L188.75,198.51L194.9,195.17L194.9,195.15L196.01,194.08L196.01,194.08L196.1,194.07L196.98,193.44L196.98,193.44L197,193.43L207.12,187.54L207.12,187.54L207.12,187.53L211,185.49L211,185.49L211.01,185.49L217.23,181.17L217.23,181.17L217.3,181.16L222.31,178.57L222.31,178.56L224.77,177.08L224.77,177.08L224.88,177.07L231.13,173.15L231.13,173.15L231.21,173.14L233.43,171.97L233.43,171.97L233.46,171.96L244.35,165.81L244.35,165.81L244.35,165.8L246.78,164.12L246.78,164.11L250.63,162.08L250.75,162.08L273.51,149.12L273.51,149.1L279.94,145.08L279.95,145.04L285.06,142L285.11,142L289.64,139.75L289.64,139.75L289.72,139.74L298.07,134.5L298.1,134.5L300.06,132.92L300.06,132.92L300.06,132.9L305.47,129.78L305.47,129.78L305.47,129.77L307.01,128.99L307.01,128.99L307.1,128.99L357.47,99.65L357.47,99.6L358.73,98.57L358.82,98.57L360.23,97.78L360.23,97.78L360.36,97.77L362.39,96.36L362.39,96.35L369.96,91.5L370.02,91.5L386.36,81.97L386.43,81.97L388.16,80.83L388.16,80.83L388.26,80.83L392.63,78.39L392.75,78.39L394.22,77.46L394.27,77.45L397.37,75.38L397.37,75.38L397.44,75.38L403.46,72.13L403.46,72.13L403.58,72.12L408.13,69.58L408.13,69.58L408.2,69.57L409.41,68.87L409.44,68.86L414.93,66.01L414.93,66L416.05,65.49L416.21,65.49L419.05,63.51L419.05,63.5L423.86,60.63L423.86,60.62L430.22,56.9L430.24,56.88L431.99,55.91L431.99,55.89L434.42,54.47L434.48,54.47L440.03,50.37L440.03,50.37L440.09,50.36L441.79,49.4L441.79,49.4L441.8,49.39L444.83,47.83L444.83,47.81L447.19,46.5L447.21,46.5L450.91,44.33L450.95,44.33L453.47,42.82L453.56,42.82L463.95,35.65L463.95,35.65L464,35.64L465.47,34.75L465.66,34.75L468.95,32.64L468.95,32.64L468.97,32.62L471.7,31.12L471.7,31.08L478.97,25.64L478.97,25.64L478.98,25.6L484.19,22.21L484.19,22.21L484.23,22.21L494,16" style="vector-effect: non-scaling-stroke; fill: none; stroke: rgb(1, 102, 30); stroke-opacity: 1; stroke-width: 2px; opacity: 1;"/></g><g class="points"/><g class="text"/></g></g></g><g class="overplot"/><path class="xlines-above crisp" d="M0,0" style="fill: none;"/><path class="ylines-above crisp" d="M0,0" style="fill: none;"/><g class="overlines-above"/><g class="xaxislayer-above"><g class="xtick"><text text-anchor="middle" x="0" y="436" transform="translate(212.18,0)" style="font-family: 'Times New Roman'; font-size: 15px; fill: rgb(13, 13, 13); fill-opacity: 1; white-space: pre; opacity: 1;">1.61252×10​<tspan style="font-size:70%" dy="-0.6em">18</tspan><tspan dy="0.42em">​</tspan></text></g><g class="xtick"><text text-anchor="middle" x="0" y="436" style="font-family: 'Times New Roman'; font-size: 15px; fill: rgb(13, 13, 13); fill-opacity: 1; white-space: pre; opacity: 1;" transform="translate(310.22,0)">1.612525×10​<tspan style="font-size:70%" dy="-0.6em">18</tspan><tspan dy="0.42em">​</tspan></text></g><g class="xtick"><text text-anchor="middle" x="0" y="436" style="font-family: 'Times New Roman'; font-size: 15px; fill: rgb(13, 13, 13); fill-opacity: 1; white-space: pre; opacity: 1;" transform="translate(408.27,0)">1.61253×10​<tspan style="font-size:70%" dy="-0.6em">18</tspan><tspan dy="0.42em">​</tspan></text></g><g class="xtick"><text text-anchor="middle" x="0" y="436" style="font-family: 'Times New Roman'; font-size: 15px; fill: rgb(13, 13, 13); fill-opacity: 1; white-space: pre; opacity: 1;" transform="translate(506.31,0)">1.612535×10​<tspan style="font-size:70%" dy="-0.6em">18</tspan><tspan dy="0.42em">​</tspan></text></g><g class="xtick"><text text-anchor="middle" x="0" y="436" style="font-family: 'Times New Roman'; font-size: 15px; fill: rgb(13, 13, 13); fill-opacity: 1; white-space: pre; opacity: 1;" transform="translate(604.35,0)">1.61254×10​<tspan style="font-size:70%" dy="-0.6em">18</tspan><tspan dy="0.42em">​</tspan></text></g></g><g class="yaxislayer-above"><g class="ytick"><text text-anchor="end" x="125" y="12.25" transform="translate(0,404)" style="font-family: 'Times New Roman'; font-size: 35px; fill: rgb(13, 13, 13); fill-opacity: 1; white-space: pre; opacity: 1;">0</text></g><g class="ytick"><text text-anchor="end" x="125" y="12.25" style="font-family: 'Times New Roman'; font-size: 35px; fill: rgb(13, 13, 13); fill-opacity: 1; white-space: pre; opacity: 1;" transform="translate(0,355.53999999999996)">100k</text></g><g class="ytick"><text text-anchor="end" x="125" y="12.25" style="font-family: 'Times New Roman'; font-size: 35px; fill: rgb(13, 13, 13); fill-opacity: 1; white-space: pre; opacity: 1;" transform="translate(0,307.08000000000004)">200k</text></g><g class="ytick"><text text-anchor="end" x="125" y="12.25" style="font-family: 'Times New Roman'; font-size: 35px; fill: rgb(13, 13, 13); fill-opacity: 1; white-space: pre; opacity: 1;" transform="translate(0,258.62)">300k</text></g><g class="ytick"><text text-anchor="end" x="125" y="12.25" style="font-family: 'Times New Roman'; font-size: 35px; fill: rgb(13, 13, 13); fill-opacity: 1; white-space: pre; opacity: 1;" transform="translate(0,210.17000000000002)">400k</text></g><g class="ytick"><text text-anchor="end" x="125" y="12.25" style="font-family: 'Times New Roman'; font-size: 35px; fill: rgb(13, 13, 13); fill-opacity: 1; white-space: pre; opacity: 1;" transform="translate(0,161.71)">500k</text></g><g class="ytick"><text text-anchor="end" x="125" y="12.25" style="font-family: 'Times New Roman'; font-size: 35px; fill: rgb(13, 13, 13); fill-opacity: 1; white-space: pre; opacity: 1;" transform="translate(0,113.25)">600k</text></g></g><g class="overaxes-above"/></g></g><g class="polarlayer"/><g class="smithlayer"/><g class="ternarylayer"/><g class="geolayer"/><g class="funnelarealayer"/><g class="pielayer"/><g class="iciclelayer"/><g class="treemaplayer"/><g class="sunburstlayer"/><g class="glimages"/><defs id="topdefs-da99c0"><g class="clips"/></defs><g class="layer-above"><g class="imagelayer"/><g class="shapelayer"/></g><g class="infolayer"><g class="g-gtitle"/><g class="g-xtitle"><text class="xtitle" x="373" y="463.8" text-anchor="middle" style="font-family: 'Open Sans', verdana, arial, sans-serif; font-size: 14px; fill: rgb(42, 63, 95); opacity: 1; font-weight: normal; white-space: pre;">Time Steps (ns)</text></g><g class="g-ytitle" transform="translate(24,0)"><text class="ytitle" transform="rotate(-90,12,260)" x="12" y="260" text-anchor="middle" style="font-family: 'Times New Roman'; font-size: 40px; fill: rgb(13, 13, 13); opacity: 1; font-weight: normal; white-space: pre;">Turnaround (in $)</text></g></g></svg>