<svg class="main-svg" xmlns="http://www.w3.org/2000/svg" xmlns:xlink="http://www.w3.org/1999/xlink" width="700" height="500" style="" viewBox="0 0 700 500"><rect x="0" y="0" width="700" height="500" style="fill: rgb(255, 255, 255); fill-opacity: 1;"/><defs id="defs-81be11"><g class="clips"><clipPath id="clip81be11xyplot" class="plotclip"><rect width="511" height="320"/></clipPath><clipPath class="axesclip" id="clip81be11x"><rect x="109" y="0" width="511" height="500"/></clipPath><clipPath class="axesclip" id="clip81be11y"><rect x="0" y="100" width="700" height="320"/></clipPath><clipPath class="axesclip" id="clip81be11xy"><rect x="109" y="100" width="511" height="320"/></clipPath></g><g class="gradients"/><g class="patterns"/></defs><g class="bglayer"><rect class="bg" x="109" y="100" width="511" height="320" style="fill: rgb(229, 236, 246); fill-opacity: 1; stroke-width: 0;"/></g><g class="layer-below"><g class="imagelayer"/><g class="shapelayer"/></g><g class="cartesianlayer"><g class="subplot xy"><g class="layer-subplot"><g class="shapelayer"/><g class="imagelayer"/></g><g class="minor-gridlayer"><g class="x"/><g class="y"/></g><g class="gridlayer"><g class="x"><path class="xgrid crisp" transform="translate(198.15,0)" d="M0,100v320" style="stroke: rgb(255, 255, 255); stroke-opacity: 1; stroke-width: 1px;"/><path class="xgrid crisp" transform="translate(299.58000000000004,0)" d="M0,100v320" style="stroke: rgb(255, 255, 255); stroke-opacity: 1; stroke-width: 1px;"/><path class="xgrid crisp" transform="translate(401,0)" d="M0,100v320" style="stroke: rgb(255, 255, 255); stroke-opacity: 1; stroke-width: 1px;"/><path class="xgrid crisp" transform="translate(502.42,0)" d="M0,100v320" style="stroke: rgb(255, 255, 255); stroke-opacity: 1; stroke-width: 1px;"/><path class="xgrid crisp" transform="translate(603.85,0)" d="M0,100v320" style="stroke: rgb(255, 255, 255); stroke-opacity: 1; stroke-width: 1px;"/></g><g class="y"><path class="ygrid crisp" transform="translate(0,363.79)" d="M109,0h511" style="stroke: rgb(255, 255, 255); stroke-opacity: 1; stroke-width: 1px;"/><path class="ygrid crisp" transform="translate(0,323.57)" d="M109,0h511" style="stroke: rgb(255, 255, 255); stroke-opacity: 1; stroke-width: 1px;"/><path class="ygrid crisp" transform="translate(0,283.36)" d="M109,0h511" style="stroke: rgb(255, 255, 255); stroke-opacity: 1; stroke-width: 1px;"/><path class="ygrid crisp" transform="translate(0,243.15)" d="M109,0h511" style="stroke: rgb(255, 255, 255); stroke-opacity: 1; stroke-width: 1px;"/><path class="ygrid crisp" transform="translate(0,202.93)" d="M109,0h511" style="stroke: rgb(255, 255, 255); stroke-opacity: 1; stroke-width: 1px;"/><path class="ygrid crisp" transform="translate(0,162.72)" d="M109,0h511" style="stroke: rgb(255, 255, 255); stroke-opacity: 1; stroke-width: 1px;"/><path class="ygrid crisp" transform="translate(0,122.5)" d="M109,0h511" style="stroke: rgb(255, 255, 255); stroke-opacity: 1; stroke-width: 1px;"/></g></g><g class="zerolinelayer"><path class="yzl zl crisp" transform="translate(0,404)" d="M109,0h511" style="stroke: rgb(255, 255, 255); stroke-opacity: 1; stroke-width: 2px;"/></g><path class="xlines-below"/><path class="ylines-below"/><g class="overlines-below"/><g class="xaxislayer-below"/><g class="yaxislayer-below"/><g class="overaxes-below"/><g class="plot" transform="translate(109,100)" clip-path="url(#clip81be11xyplot)"><g class="scatterlayer mlayer"><g class="trace scatter trace30d493" style="stroke-miterlimit: 2; opacity: 1;"><g class="fills"/><g class="errorbars"/><g class="lines"><path class="js-line" d="M0,303.99L1.02,303.86L1.05,303.28L1.05,304L1.68,303.98L1.81,304L2.12,303.23L2.43,304L2.43,302.44L3.04,304L3.05,303.98L3.22,303.83L3.22,304L3.48,303.39L3.97,303.84L3.98,304L4.26,303.29L4.4,303.97L4.51,301.48L4.51,304L4.76,301.03L5.24,304L5.28,303.8L5.28,304L5.8,303.23L6.03,303.8L6.08,303.95L6.27,303.86L6.32,304L6.32,302.74L6.4,304L7.03,304L7.08,303.76L7.08,304L7.76,301.94L7.84,304L7.97,300.55L8.53,304L8.6,303.93L8.69,304L9.11,303.16L9.31,303.95L9.41,304L9.8,303.29L9.88,302.27L10.53,304L10.63,303.97L10.71,303.92L10.86,304L11.44,303.04L11.48,304L11.53,304L12.15,301.63L12.22,303.79L12.3,304L12.69,304L12.69,301.06L12.83,300.94L13.45,304L13.52,303.96L13.58,299.07L13.58,298.86L13.58,304L14.3,303.92L14.35,303.59L14.35,304L14.87,293.52L15.03,304L15.2,303.81L15.2,304L15.38,302.24L15.94,303.33L15.96,303.67L15.96,304L16.7,302.81L16.8,303.9L16.98,304L16.98,302.52L17.01,304L17.69,304L17.76,304L18.29,302.35L18.55,303.7L18.55,304L19.4,303.5L19.41,304L19.46,304L19.57,302.43L20.1,304L20.28,304L20.54,300.61L20.97,304L21.06,303.64L21.06,304L21.3,301.89L21.81,304L21.82,303.98L23.54,304L23.54,303.12L23.67,302.52L24.36,304L24.46,304L24.71,302.64L25.21,304L25.26,304L25.94,300.61L26.07,303.91L26.12,303.22L26.12,304L26.72,303.89L26.89,303.33L26.89,304L27.43,301.66L27.64,303.9L27.71,303.87L27.88,304L27.88,299.03L28.61,304L28.73,304L29.23,303.53L29.48,303.93L29.55,304L29.67,302.9L30.23,303.46L30.3,304L30.5,304L30.5,302.93L30.55,301.85L31.25,304L31.3,304L31.94,303.11L32.05,304L32.15,303.76L32.15,304L32.78,302.13L32.88,303.4L32.94,303.89L32.95,304L33.44,301.72L33.68,303.97L33.7,303.98L33.78,304L34.31,302.92L34.46,303.92L34.47,303.99L36.01,303.96L36.08,303.33L36.08,304L36.79,302.63L36.79,304L36.85,304L37.44,303.04L37.56,304L37.63,304L38.18,301.25L38.35,302.26L38.4,303.84L38.4,304L38.62,301.43L39.1,304L39.19,303.68L39.19,304L39.7,303.2L39.93,303.59L39.96,304L40.6,302.1L40.66,304L40.82,304L41.5,300.7L41.57,303.97L41.58,304L42.34,303.28L42.34,304L42.36,304L42.56,303.06L43.1,303.85L43.12,304L43.71,302.89L43.87,303.83L43.87,304L44.51,303.35L44.54,304L44.62,304L44.94,303.5L45.23,304L45.23,302.45L45.97,304L45.98,303.93L46.02,304L46.16,303.31L46.79,303.85L46.84,304L47.55,302.22L47.59,303.55L47.7,304L48.37,301.36L48.43,303.9L48.46,304L48.59,297.77L49.21,304L49.26,303.93L49.28,303.28L49.28,304L49.99,304L50.03,304L50.3,301.69L50.77,303.91L50.83,304L51.19,302.56L51.21,304L51.25,304L52,302.79L52.03,302.92L52.03,304L52.49,301.93L52.49,304L52.74,303.73L52.88,304L52.88,299.36L53.51,294.73L53.64,304L53.72,303.85L54.38,303.71L54.39,304L54.4,303.91L54.44,303.36L54.58,302.89L55.26,303.98L55.36,304L55.51,303.94L55.54,302.91L56.28,304L56.35,303.43L56.35,304L56.93,301.94L57.04,303.82L57.15,304L57.74,300.88L57.86,304L57.91,303.83L57.91,304L58.53,299.25L58.62,303.53L58.69,304L58.95,303.11L59.44,304L59.46,304L59.69,302.57L59.91,303.99L60,304L60.72,303.27L60.75,303.97L60.76,304L60.82,302.66L61.49,304L61.52,303.93L61.62,304L61.85,301.98L62.16,303.87L62.31,304L63.09,303.44L63.1,304L63.13,304L63.59,301.39L63.88,304L63.94,304L64,299.98L64.67,304L64.7,303.92L64.82,304L65.51,302.7L65.51,304L65.58,295.22L66.26,303.99L66.33,303.93L66.78,303.99L66.79,303.88L66.79,303.24L66.89,293.1L67.51,304L67.56,303.96L67.61,304L67.63,303.45L68.28,303.98L68.39,304L68.91,301.88L69.12,304L69.16,304L69.69,303.43L69.9,304L69.95,303.89L70.07,304L70.62,298.67L70.66,304L70.71,304L71.11,296.94L71.46,304L71.47,303.63L71.52,304L71.78,302.26L72.08,304L72.16,303.98L72.2,304L72.66,302.98L72.84,304L72.98,303.69L72.98,304L73.13,302.25L73.72,304L73.76,304L74.21,303.03L74.52,303.95L74.53,303.99L75.3,303.03L75.3,303.75L75.34,304L75.55,303.73L75.62,304L75.66,302.59L75.66,304L76.27,290.26L76.39,303.99L76.42,303.83L76.79,303.66L77.17,304L77.24,304L77.38,286.52L77.98,304L78,303.86L78.05,304L78.64,303.35L78.76,303.96L78.76,304L79.41,277.58L79.51,303.87L79.57,303.74L79.57,304L80.29,300.82L80.3,304L80.44,303.21L80.51,303L81.2,304L81.2,303.97L81.25,303.96L82.06,302.71L82.11,304L82.34,303.88L82.34,304L82.37,301.16L82.37,304L82.73,300.7L83.12,303.92L83.13,303.94L83.14,304L83.7,272.32L83.72,304L83.76,272.09L84.44,303.95L84.49,304L85.17,253.76L85.21,304L85.25,303.94L86.09,304L86.12,303.31L86.12,304L86.79,301.73L86.84,304L86.9,303.91L87.17,303.74L87.2,304L87.2,300.72L87.96,304L87.96,303.9L88.08,304L88.43,301.83L88.44,301.86L88.54,304L88.96,301.26L89.26,304L89.31,303.9L89.98,304L90,303.15L90,304L90.09,299.57L90.66,303.71L90.76,304L90.89,302.8L91.24,303.74L91.31,304L91.32,301.36L92.02,303.99L92.07,303.88L92.11,304L92.79,303.53L92.79,304L92.84,304L93.38,303.52L93.62,303.71L93.63,304L94.12,302.36L94.29,302.63L94.29,304L94.35,302.65L95.03,303.88L95.09,304L95.43,303.35L95.83,303.92L95.86,304L96.22,296.3L96.55,303.98L96.63,304L96.79,302.21L97,303.88L97,304L97.52,303.62L97.59,303.99L97.59,293.71L97.61,290.27L97.69,304L98.24,303.94L98.31,303.93L98.32,304L98.93,288.9L99.05,304L99.12,303.89L99.75,303.99L99.81,303.19L100.05,302.89L100.54,304L100.54,303.83L100.58,303.74L100.58,304L101.04,302.72L101.31,303.97L101.34,303.98L101.57,302.14L101.59,304L101.64,304L102.05,303.39L102.1,303.79L102.12,300.64L102.12,304L102.56,299L102.87,303.27L102.94,297.38L102.94,304L103.04,295.08L103.69,304L103.7,303.96L103.78,304L104.32,303.14L104.47,304L104.52,304L104.95,303.38L105.25,304L105.28,304L105.57,302.89L105.79,303.95L105.8,304L105.97,304L105.97,301.97L106.08,301.91L106.72,304L106.8,304L107.17,303.72L107.23,303.97L107.25,301.74L107.25,304L107.94,303.95L108.01,303.99L108.04,302.47L108.04,304L108.75,302.98L108.77,303.66L108.88,304L108.95,301.66L109.45,302.55L109.54,304L110.15,298.42L110.29,303.97L110.32,304L111.06,303.03L111.06,303.44L111.13,304L111.76,303.34L111.9,303.8L111.93,304L111.96,302.13L112.56,304L112.59,304L112.97,303.26L113.3,304L113.38,304L113.46,303.41L114.13,304L114.17,303.89L114.24,304L114.75,298.6L114.9,304L114.95,304L115.55,297.52L115.73,303.82L115.73,304L116.47,303.04L116.51,304L117.1,301.91L117.25,303.98L117.27,303.98L117.66,304L117.7,301.75L117.7,304L117.77,301.73L118.44,303.95L118.47,304L118.47,303.41L119.09,303.67L119.23,304L119.45,300.17L119.9,300.66L120,304L120.2,303.75L120.2,303.85L120.21,300.35L120.23,304L120.26,300.3L120.93,303.85L121.03,304L121.54,302.69L121.75,303.55L121.79,303.59L121.79,304L122.23,302.3L122.54,304L122.55,303.92L122.65,303.6L122.69,304L122.73,304L122.76,210.02L123.49,304L123.55,304L124.52,303.44L124.52,304L124.54,301.94L125.23,303.98L125.29,303.85L125.46,303.45L125.96,304L125.97,303.36L126.53,302.99L126.7,304L126.7,303.99L126.72,302.07L126.73,301.92L127.48,304L127.51,303.1L127.51,304L127.6,301.47L128.26,304L128.29,304L128.45,304L128.45,302.7L128.45,304L129.2,303.48L129.21,304L129.28,301.64L129.86,303.92L129.88,304L130.55,303.65L130.6,304L130.63,304L130.66,302.55L131.37,304L131.4,304L132.15,193.62L132.17,296.48L132.17,304L132.91,303.98L132.94,304L133.67,302.77L133.74,303.15L133.74,304L134.07,302.26L134.38,304L134.5,303.78L134.83,303.45L135.22,304L135.23,303.67L135.29,304L135.84,300.39L136.04,303.62L136.05,304L136.66,302.98L136.8,304L136.82,303.17L136.82,304L136.82,299.29L137.56,303.59L137.58,303.28L137.58,304L138.33,299.71L138.34,299.71L138.34,304L138.47,298.44L139.06,303.76L139.12,303.91L139.3,303.46L139.82,304L139.82,302.95L139.89,302.23L140.56,304L140.59,304L140.66,302.67L141.31,303.94L141.38,304L141.55,165.35L142.08,303.89L142.17,303.9L143.11,304L143.11,302.39L143.11,304L143.86,301.34L143.86,304L143.9,303.8L143.9,304L144.57,303.34L144.58,303.98L144.66,303.91L145.03,304L145.06,302.83L145.06,304L145.76,302.15L145.84,303.95L145.95,304L146.09,298.97L146.3,304L146.33,303.96L146.73,303.26L146.98,303.42L146.99,301.46L146.99,304L147.44,300.1L147.73,303.76L147.75,303.88L147.76,304L147.97,298.94L148.32,304L148.49,303.79L148.49,304L149.14,302.03L149.21,304L149.25,303.95L149.28,304L149.65,301.36L149.99,304L150.03,303.9L150.19,304L150.28,302.71L150.76,303.92L150.8,304L151.17,301.68L151.37,303.95L151.59,304L152.22,300.17L152.33,304L152.36,304L153.62,304L153.62,301.75L153.64,304L154.33,303.89L154.38,303.96L154.45,304L154.69,297.6L155.09,304L155.15,303.92L155.27,304L155.51,303.63L155.58,303.69L155.64,300.33L156.31,304L156.38,303.91L156.45,304L157.07,303.12L157.17,304L157.24,304L157.94,302.02L157.96,302.23L158.02,304L158.46,302.56L158.76,304L158.79,304L159.3,303.51L159.49,303.9L159.55,303.99L160.32,303.12L160.32,303.5L160.32,304L161.03,301.82L161.05,304L161.12,304L161.19,301.31L161.87,304L161.97,304L162.68,302.55L162.7,302.86L162.73,303.98L162.76,302.5L162.92,304L163.46,303.98L163.48,304L164.05,297.96L164.15,298.09L164.24,304L164.91,294.68L164.93,304L165.01,304L165.49,293.17L165.68,304L165.78,304L165.97,303.58L166.12,303.92L166.12,292.49L166.12,304L166.82,303.99L166.89,304L166.95,303.55L167.16,303.66L167.16,287.02L167.75,276.91L167.86,304L167.99,304L168.09,303.69L168.09,276.36L168.09,304L168.79,303.91L168.85,303.25L169.42,302.79L169.58,304L169.64,302.77L169.64,304L170.15,263.25L170.32,303.99L170.46,262.93L171.17,304L171.21,303.9L171.33,304L171.34,302.75L172.06,304L172.16,304L172.16,303L172.91,303.34L172.95,304L173.14,300.99L173.7,303.74L173.77,303.81L173.85,304L174.03,299.88L174.45,304L174.52,304L174.82,304L174.83,298.41L174.83,304L175.56,304L175.61,304L176.02,302.42L176.36,303.36L176.37,303.63L177,299.46L177.05,304L177.06,302.7L177.06,298.5L177.1,297.64L177.11,251.18L177.35,249.78L177.84,304L177.92,303.85L178.13,303.68L178.61,304L178.77,303.79L178.77,302.97L178.86,304L179.52,304L179.53,303.9L179.53,304L179.78,302.9L180.27,303.95L180.3,304L180.92,302.96L180.96,304L181.06,304L181.19,302.71L181.81,303.6L181.83,304L181.91,302.87L181.98,304L182.02,244.17L182.02,304L182.62,242.12L182.77,303.83L182.78,304L182.96,303.61L183,304L183,241.72L183.05,304L183.74,304L183.77,303.96L184.39,303.72L184.43,304L184.47,239.19L185.16,222.81L185.23,304L185.24,303.87L185.41,303.04L186.19,304L186.19,303.92L186.23,304L186.73,301.53L186.91,303.97L186.94,303.98L187.37,304L187.43,302.95L187.43,304L188.17,302.11L188.18,303.76L188.21,303.95L188.53,303.77L188.6,304L188.6,301.23L188.75,301.22L189.41,304L189.42,303.82L189.45,303.63L189.45,304L189.68,303.12L190.2,304L190.21,302.59L190.21,304L190.64,298.73L190.95,303.95L190.99,304L191.46,303.55L191.46,303.13L191.46,304L192.13,302.15L192.17,304L192.24,304L192.31,301.99L192.95,303.93L193.04,304L193.33,302.51L193.78,303.94L193.81,303.97L193.92,304L194.23,299.87L194.37,303.72L194.43,304L194.99,298.44L195.18,303.95L195.38,304L195.57,303.19L196.11,304L196.15,304L196.43,303.36L196.86,304L196.97,304L197.52,299.94L197.72,303.99L197.73,303.85L197.88,304L197.96,210.07L198.27,303.86L198.28,303.99L198.77,302.97L199.04,303.99L199.07,304L199.1,302.64L199.82,303.91L199.83,303.92L199.89,304L199.89,303.13L200.48,304L200.6,303.83L200.84,300.29L201.28,304L201.34,303.84L201.38,303.96L201.42,304L201.8,302.81L202.12,303.83L202.15,303.89L202.18,301.68L202.19,304L202.88,303.88L202.93,303.95L202.97,304L203.45,303.3L203.65,303.78L203.69,304L203.73,301.84L204.38,303.76L204.44,303.94L204.48,304L204.73,302.89L205.23,303.26L205.23,304L205.63,301.9L205.64,304L205.64,298.18L205.64,304L206.38,304L206.55,304L207.16,302.14L207.27,303.97L207.35,304L207.78,303.5L207.88,304L207.88,299.91L208,292.5L208.56,304L208.57,303.92L208.66,303.91L209.24,304L209.25,302.58L209.25,304L209.85,300.32L209.93,303.87L210.01,303.81L210.01,304L210.13,293.43L210.76,304L210.86,303.89L210.94,304L211.33,302.73L211.46,303.37L211.61,303.89L211.72,303.44L211.74,304L211.77,304L211.81,302.01L211.81,304L212.52,300.9L212.52,304L212.57,300.38L212.57,300.32L212.57,304L213.32,303.92L213.36,303.87L213.55,303.48L213.56,304L213.56,303.03L213.63,302.98L214.37,304L214.37,303.44L214.89,302.97L215.03,304L215.04,302.28L215.08,301.19L215.08,304L215.68,303.86L215.69,192.33L216.32,191.69L216.45,304L216.53,304L217.32,302.99L217.32,302.79L218.04,304L218.12,303.8L218.31,304L218.41,188.74L218.84,304L218.91,304L219.59,302.03L219.59,187.54L220.39,304L220.39,303.52L220.39,304L220.81,302.8L221.13,303.69L221.15,303.98L221.85,300.52L221.86,303.95L221.95,303.8L221.95,304L222.24,303.62L222.7,304L222.73,303.97L222.74,303.21L222.84,304L223.46,303.99L223.48,304L223.88,304L223.93,301.65L223.93,304L224.67,303.96L224.72,304L224.93,303.43L225,303.97L225.03,301.32L225.03,304L225.74,162.94L225.81,303.93L226.67,303.46L226.75,304L227.45,302.29L227.5,303.96L227.51,303.98L227.58,304L227.85,302.46L228.23,304L228.27,304L228.96,300.76L229.04,303.92L229.04,304L229.27,303.86L229.35,304L229.38,302.54L229.38,304L230.1,292.28L230.1,303.96L230.14,303.96L230.21,300.79L230.21,304L230.89,303.94L230.89,304L231.57,302.31L231.64,303.93L231.68,303.95L231.78,304L232.37,302.2L232.45,304L232.47,304L232.87,303.1L232.88,304L232.89,289.36L232.89,304L232.97,289.28L233.62,304L233.72,303.41L233.72,304L234.44,301.2L234.46,301.54L234.49,304L234.62,299.1L235.24,303.96L235.25,304L235.55,297.73L235.99,303.77L236.19,304L236.19,296.13L236.94,304L237,303.9L237.12,303.74L237.28,304L237.28,302.38L238.05,304L238.07,303.97L238.12,304L238.96,303.99L238.96,304L238.97,303.11L239.34,302.86L239.73,304L239.73,303.85L239.85,303.74L239.85,304L240.13,302.83L240.6,304L240.66,303.4L241.25,302.28L241.38,304L241.41,303.32L241.41,304L241.89,303L242.16,304L242.2,304L242.64,301.94L242.94,304L242.96,302.71L243.66,304L243.69,303.93L243.8,303.88L243.94,298.44L243.97,304L244.54,304L244.55,303.97L245.28,303.21L245.34,303.91L245.34,304L245.78,302.67L246.08,303.92L246.12,304L246.35,302.03L246.87,304L246.88,303.25L246.9,304L246.97,301.1L247.52,303.98L247.65,303.88L247.98,303.33L248.08,304L248.09,303.66L248.09,302.83L248.87,304L248.87,303.61L249.07,299.22L249.4,304L249.63,303.86L249.63,303.65L249.87,300.75L250.37,304L250.37,302.72L250.37,304L251.09,296.85L251.09,304L251.13,304L251.47,303.57L251.88,303.91L251.91,304L252.01,295.21L252.27,303.99L252.33,303.95L252.57,303L252.87,303.95L252.97,304L253.73,302.94L253.75,303.98L253.89,304L253.89,302.84L254.1,304L254.11,285.42L254.87,304L254.87,303.81L254.94,304L255.63,303.97L255.64,300.69L255.64,304L255.69,300.65L256.35,304L256.4,303.9L256.46,304L256.91,301.83L257.14,304L257.15,304L257.82,300.61L257.89,303.07L257.92,304L258.33,300.05L258.65,303.77L258.7,304L259.47,298.76L259.47,304L260.2,301.29L260.21,304L260.25,304L260.6,297.61L260.94,304L261.02,304L261.56,302.91L261.84,304L261.86,304L262.15,302.3L262.28,303.98L262.29,304L262.56,301.74L263,304L263.05,304L263.78,302.28L263.79,303.97L263.82,304L264.38,272.87L264.52,303.76L264.58,303.93L264.75,303.97L264.82,303.78L264.83,257.45L264.87,255.59L264.91,303.98L264.96,303.64L264.96,303.99L265.41,304L265.41,223.11L266.12,304L266.13,303.88L266.18,303.75L266.51,303.36L266.78,304L266.78,304L266.79,302.41L266.91,304L267.49,301.41L267.59,303.99L268.51,303.42L268.57,304L268.57,303.22L269.32,304L269.33,303.99L269.89,304L269.89,302.94L270.52,302.05L270.58,304L270.58,304L270.58,301.99L271.07,298.63L271.31,304L271.31,303.89L271.39,304L271.96,303.58L272.1,304L272.12,304L272.58,302.33L272.86,304L272.91,304L273.53,301.29L273.66,304L273.71,304L273.89,302.92L274.03,304L274.03,298.35L274.81,304L274.85,303.48L274.85,304L275.33,293.59L275.6,304L275.62,304L275.99,302.84L276.37,304L276.39,304L276.73,301.3L277.14,303.81L277.15,303.81L277.15,304L277.19,303.49L277.89,303.79L277.91,304L278.53,302.69L278.62,303.37L278.67,303.93L279.11,304L279.12,301.56L279.15,304L279.22,300.23L279.87,303.97L279.88,304L280.03,303.2L280.57,304L280.66,303.87L280.77,304L281.21,300.73L281.37,304L281.44,304L281.92,302.94L282.19,304L282.24,304L282.95,302.22L282.95,304L282.95,294.89L283.58,304L283.58,204.83L283.58,204.62L283.6,304L284.25,304L284.37,303.95L285.09,303.13L285.19,304L285.22,304L285.85,301.92L285.96,304L286.04,303.92L286.1,304L286.11,303.09L286.17,304L286.17,198.26L286.46,196.2L286.91,304L286.92,303.93L286.99,303.98L287.58,303.33L287.62,304L287.68,303.99L287.69,303.23L287.7,303.76L287.7,194.33L288.18,193.47L288.44,304L288.47,303.99L289.12,303.17L289.13,303.89L289.16,304L289.78,302.37L289.91,303.99L289.96,304L290.32,301.51L290.7,303.94L290.72,304L291.43,303.56L291.54,303.79L291.54,304L291.84,303.98L291.86,301.9L292.27,300.46L292.58,304L292.65,304L293.44,302.42L293.44,304L293.46,304L294.19,298.59L294.19,304L294.23,303.9L294.28,304L294.61,301.26L294.89,304L294.92,304L295.18,300.22L295.63,304L295.68,304L296.21,303.14L296.43,304L296.45,303.96L296.62,304L297.08,303.12L297.19,304L297.21,303.98L297.44,304L297.44,303.96L297.44,302.86L297.44,304L297.85,293.24L298.17,302.94L298.21,303.95L299.2,303.91L299.22,303.29L299.22,304L299.86,303.15L299.97,304L299.98,304L300.39,302.29L300.47,303.99L300.47,304L300.67,304L300.67,301.37L301.42,304L301.46,303.77L301.46,304L301.75,301.85L302.18,303.94L302.29,304L303,302L303.03,304L303.08,304L303.1,302.07L303.82,303.75L303.93,304L304.23,303.02L304.68,304L304.78,302.56L304.78,304L305.02,301.65L305.44,303.9L305.54,304L305.89,284.56L306.25,303.81L306.32,304L306.45,303.82L306.51,303.88L306.57,283.72L306.57,304L307.3,304L307.33,303.69L307.33,304L307.99,282.31L307.99,302.41L308.09,304L308.15,281.28L308.55,304L308.6,303.86L308.67,304L308.72,303.43L309.33,303.79L309.34,304L309.74,303.02L309.76,303.99L309.9,304L310.47,302.62L310.6,304L310.68,304L310.88,302.04L310.88,276.74L311.26,273.76L311.61,304L311.66,304L311.9,303.6L311.94,304L311.98,272.96L312.6,304L312.68,271.56L312.76,304L313.27,304L313.27,304L313.28,302.23L313.33,304L314.01,254.22L314.03,304L314.04,303.96L314.16,304L314.19,253.96L314.77,304L314.81,304L314.94,302.91L315.56,303.75L315.56,304L315.96,301.81L316.31,303.92L316.4,304L316.4,303.29L317.13,304L317.21,304L317.21,303.26L317.9,304L318.1,303.64L318.16,301.15L318.86,304L318.86,301.64L319.31,297.43L319.58,304L319.6,301.94L319.63,301.91L320.34,304L320.44,303.93L321.1,304L321.11,303.12L321.11,304L321.78,302.71L321.9,303.73L321.9,304L322.04,301.71L322.61,304L322.67,303.95L322.69,303L322.71,304L323.41,304L323.45,304L323.83,302.42L324.19,304L324.23,304L324.72,302.88L324.97,303.83L324.99,303.99L325.07,302.58L325.1,304L325.74,303.92L325.78,304L326.34,302.67L326.56,302.88L326.64,297.03L326.69,304L327.37,303.89L327.46,304L327.99,290.42L328.22,302.48L328.23,304L329.85,303.91L329.88,303.22L330.72,304L330.78,303.63L330.78,304L331.19,302.88L331.53,304L331.56,303.96L331.65,302.24L331.65,304L332.3,304L332.33,303.73L332.33,304L332.76,303.41L333.04,303.99L333.13,303.97L333.22,304L333.23,302.73L333.69,304L333.73,304L334.23,303.2L334.48,303.93L334.49,304L334.69,303.77L334.79,304L334.84,299.06L335.56,304L335.6,303.97L335.62,303.86L335.86,303.07L336.14,304L336.16,302.72L336.95,304L336.97,304L337.19,295.67L337.69,303.99L337.75,304L338.12,294.16L338.12,304L338.35,303.51L338.57,303.96L338.57,302.54L338.57,304L339.28,303L339.33,303.9L339.54,303.4L340.08,304L340.08,303.15L340.72,302.15L340.84,304L340.86,302.05L340.86,304L341.6,303.99L341.65,303.91L341.69,304L341.86,298.2L342.36,304L342.42,304L343,302.96L343.22,303.87L343.23,303.99L343.98,301.5L344.01,303.73L344.06,304L344.89,303.82L344.89,304L345.08,303.99L345.08,304L345.1,302.99L345.1,304L345.77,296.54L345.81,304L345.9,303.03L345.95,296.36L346.64,304L346.73,304L347.3,300.96L347.47,304L347.49,304L347.66,304L347.66,300.16L347.76,298.79L348.42,304L348.42,303.95L348.44,303.98L349.05,304L349.11,303.38L349.11,302.94L349.14,304L349.7,301.57L349.84,303.99L349.9,304L350.54,302.29L350.65,303.99L350.67,303.98L350.72,304L350.77,303.22L351.4,303.94L351.49,303.59L351.49,304L351.89,299.57L352.23,304L352.3,304L352.49,303.25L352.76,303.94L352.79,298.23L352.79,304L353.48,304L353.56,304L353.72,301.9L353.77,303.9L353.86,304L354.13,302.58L354.61,303.91L354.67,304L354.89,302.28L355.42,303.99L355.43,303.98L355.47,304L355.8,303.32L356.16,303.95L356.2,304L356.61,302.91L356.95,303.86L357.03,304L357.2,301.89L357.62,304L357.64,304L358.16,302.65L358.23,304L358.37,304L359.07,302.97L359.17,303.89L359.2,303.97L359.27,304L359.6,300.17L359.93,303.98L359.95,304L360.22,303.91L360.27,304L360.28,302.33L360.28,304L361.01,304L361.11,303.86L361.13,302.57L361.13,304L361.78,304L361.87,304L362.3,303.15L362.69,304L362.78,304L363.62,304L363.62,291.52L363.65,304L364.31,303.99L364.39,303.92L364.46,302.17L364.5,304L364.51,16L364.51,304L365.26,304L365.29,303.88L365.42,304L366.01,303.14L366.05,303.91L366.17,303.85L367.1,303.12L367.16,303.83L367.16,304L367.35,302.96L367.91,304L367.97,304L368.69,302.99L368.69,304L368.73,303.95L368.86,304L369.19,302.61L369.47,304L369.54,303.75L370.11,303.12L370.27,304L370.27,303.99L370.31,303.96L370.36,303.15L370.36,304L371.03,304L371.09,303.8L371.09,304L371.8,299.71L371.8,304L371.91,303.97L371.96,304L372.14,302.97L372.63,304L372.67,303.97L372.85,303.79L372.89,304L372.9,297.33L372.9,304L373.65,304L373.67,304L374.41,302.97L374.41,303.06L374.43,302.66L374.51,304L374.92,300.27L375.15,303.93L375.23,304L375.33,299.75L375.94,304L376,303.57L376.29,304L376.29,303.26L376.75,304L376.79,304L376.92,297.6L377.53,303.96L377.58,304L378.22,302.33L378.3,303.94L378.41,304L379.14,303.43L379.21,304L379.92,294.64L379.96,304L380,304L380.02,301.03L380.65,304L380.79,304L381.57,303.5L381.62,303.94L381.64,303.97L381.67,304L381.67,303.12L382.37,304L382.41,303.95L382.54,304L383.21,302.45L383.21,302.46L383.25,303.96L383.27,304L383.75,300.13L383.99,303.97L384.04,304L384.67,298.78L384.71,304L384.83,304L384.99,298.43L385.54,303.98L385.6,304L386.21,302.89L386.29,303.93L386.36,293.63L387,291.51L387.07,304L387.09,303.9L387.17,304L387.23,303.46L387.92,303.73L387.96,303.96L388.45,303.15L388.53,303.79L388.54,304L388.9,303.33L388.93,304L388.95,289.52L388.95,304L389.38,289.05L389.7,303.88L389.72,303.98L390.38,303.98L390.39,303.24L390.39,304L391,303.13L391.11,304L391.15,277.5L391.15,304L391.88,304L391.91,304L392.36,302.69L392.67,304L392.72,304L393.47,302.65L393.47,304L393.5,303.93L393.53,303.14L393.53,304L394.24,303.82L394.26,304L394.38,300.82L394.85,303.72L394.96,304L395.38,303.5L395.44,304L395.44,273.22L395.56,304L396.19,304L396.22,304L396.27,303.85L396.27,304L396.3,272.24L396.3,304L397.03,303.57L397.14,304L397.27,303.38L397.66,304L397.66,270.25L398.01,269.44L398.38,304L398.4,303.98L398.45,304L398.65,303.44L398.78,304L398.8,264.72L398.8,304L399.54,303.69L399.56,304L400.01,301.84L400.31,303.62L400.32,304L401,303.35L401.06,304L401.13,304L401.53,302.02L401.64,303.96L401.73,304L401.98,302.67L402.31,304L402.33,304L402.58,304L402.58,302.15L403.35,304L403.35,303.32L403.53,303.12L404.01,304L404.05,303.97L404.11,303.49L404.11,304L404.46,297.2L404.76,303.98L404.91,303.91L404.93,304L404.99,303.44L405.58,304L405.66,304L406.12,297.41L406.41,304L406.42,297.12L406.42,304L407.16,304L407.24,304L407.47,225.38L407.99,304L408,304L408.54,303.06L408.55,303.97L408.63,224.22L409.39,304L409.39,303.32L409.39,304L409.66,302.35L410.13,303.95L410.21,303.92L410.45,303.22L410.83,303.94L410.83,303.02L410.85,304L411.04,300.36L411.49,303.9L411.6,303.89L411.68,304L411.71,299.58L411.85,304L412.1,303.62L412.54,304L412.65,304L413.33,301.63L413.38,303.44L413.41,303.94L413.95,303.49L414.29,303.95L414.33,303.96L415.03,303.91L415.03,303.15L415.03,304L415.34,301.45L415.73,304L415.81,303.87L416.01,304L416.26,301.95L416.29,303.85L416.29,304L416.4,303.89L416.41,304L416.41,301.92L416.94,301.27L417.13,304L417.13,303.99L417.19,304L417.73,304L417.74,303.09L417.74,304L418.2,301.86L418.48,303.98L418.53,303.95L418.56,304L419.15,302.86L419.26,303.88L419.28,304L419.58,302.83L420.01,303.81L420.05,304L420.74,300.51L420.8,304L420.83,304L422.08,303.84L422.08,304L422.1,303.11L422.28,304L422.41,303.99L422.48,209.82L423.22,304L423.24,303.99L423.31,302.98L423.47,302.82L424.02,304L424.02,304L424.14,304L424.78,299.82L424.86,304L424.91,304L425.51,304L425.51,303.21L426.07,304L426.12,303.99L426.28,303.84L426.43,304L426.96,301.35L427.03,302.61L427.03,304L427.03,302.53L427.7,303.26L427.82,300.46L427.82,304L428.47,304L428.6,304L429.03,303.23L429.33,303.76L429.33,304L429.76,302.91L429.8,304L429.82,304L429.9,303.43L429.9,297.03L429.9,304L429.99,296.75L430.62,304L430.66,303.68L430.66,304L431.1,303.13L431.4,304L431.42,303.94L431.56,304L431.56,304L431.57,302.05L431.57,304L431.98,299.39L432.32,304L432.33,304L432.37,303.82L432.53,303.89L432.53,297.18L432.63,291.94L433.26,304L433.29,303.98L433.33,303.96L433.72,303.24L434,303.74L434.11,304L434.77,301.99L434.77,287.74L435.55,304L435.55,303.75L435.85,302.9L436.3,304L436.36,303.93L436.4,302.09L436.4,304L436.4,301.68L437.12,303.83L437.22,304L437.93,297.68L437.96,303.72L438,303.96L438.18,304L438.18,297.47L438.18,304L438.93,304L438.96,303.84L438.96,304L439.61,295.75L439.71,303.99L439.74,304L440.1,302.87L440.52,304L440.57,304L440.72,302.94L440.8,304L440.8,190.9L440.82,304L441.2,190.48L441.44,304L441.56,304L442.36,302.32L442.37,304L443.21,302.98L443.21,304L443.25,304L443.3,302.54L443.96,304L444.01,304L444.74,302.36L444.75,304L444.77,304L444.77,302.81L445.51,304L445.54,304L446.21,303.48L446.29,303.93L446.32,304L446.82,301.75L447.08,303.84L447.11,303.96L447.26,303.92L447.26,301.7L447.26,304L447.4,301.61L447.99,304L448.02,304L448.64,300.38L448.75,304L448.85,304L449.32,302.92L449.35,304L449.42,304L449.56,301.97L450.16,303.96L450.18,304L450.51,304L450.51,302.64L450.75,293.72L451.2,304L451.27,303.99L451.29,303.98L451.31,304L451.52,302.04L452.03,304L452.06,303.95L452.14,301.44L452.14,304L452.49,303.98L452.51,303.99L453.12,303.45L453.21,304L453.28,304L453.64,302.98L453.79,304L453.81,177.95L454.5,304L454.5,303.71L454.59,303.82L454.59,304L454.66,177.02L455.33,303.58L455.36,303.98L455.39,304L456.02,302.73L456.11,304L456.16,304L456.8,303.11L456.82,303.9L456.83,301.78L456.83,304L457.06,300.77L457.58,304L457.65,304L457.95,303.91L457.96,303.99L457.99,299.84L457.99,304L458.12,299.67L458.7,303.95L458.79,303.95L459.09,304L459.09,303.06L459.11,304L459.62,296.95L459.82,304L459.87,304L460.79,303.88L460.79,304L461.44,303.3L461.54,303.86L461.64,303.87L461.72,304L462.14,301.9L462.38,304L462.48,303.54L462.48,304L462.93,300.5L463.18,304L463.24,303.56L463.68,299.41L463.92,304L464.01,303.81L464.01,304L464.16,298.92L464.75,304L464.78,304L465.04,297.05L465.52,304L465.54,304L465.59,303.44L466.24,304L466.3,304L466.83,302.75L467.05,304L467.11,303.9L467.17,304L467.57,303.14L467.84,304L467.87,303.97L468.02,304L468.02,302.54L468.4,302.2L468.74,304L468.77,303.96L468.8,304L469.4,303.4L469.55,304L469.58,304L469.84,303.42L470.06,303.9L470.09,161.6L470.09,304L470.29,155.91L470.81,304L470.85,304L471.32,303.57L471.32,303.96L471.35,303.23L471.35,304L471.41,302.66L472.09,303.97L472.15,303.89L472.44,304L472.47,303.04L472.71,298.84L473.2,304L473.2,303.77L473.25,304L473.91,302.53L474,304L474.03,304L474.18,303.21L474.34,303.88L474.43,304L475.1,302.82L475.18,302.89L475.23,304L475.4,303.84L475.44,303.97L475.46,302.33L475.51,304L475.77,293.83L475.99,304L476.01,303.94L477.49,304L477.49,303.71L477.55,304L477.56,303.83L477.56,291.07L477.56,304L477.63,290.85L478.3,303.88L478.41,303.73L478.41,304L478.67,288.88L479.15,304L479.18,303.45L479.18,304L479.76,303.12L479.93,304L480.03,304L480.03,301.9L480.77,303.86L480.81,304L481.25,302.42L481.25,304L481.28,304L481.9,302.38L482.03,302.57L482.07,304L482.14,298.48L482.8,304L482.83,303.96L482.89,303.8L482.93,304L482.97,304L482.97,296.81L483.24,296.29L483.64,304L483.69,303.96L483.78,304L484.42,303.26L484.42,302.32L484.42,304L484.99,300.7L485.16,304L485.18,301.69L485.18,304L485.68,281.77L485.93,303.96L485.96,304L486.51,302.96L486.67,303.91L486.73,303.48L487.12,302.87L487.52,304L487.52,303.1L487.73,302.01L488.26,304L488.26,303.56L488.33,303.92L488.48,304L488.48,278.31L488.76,304L488.81,303.77L488.81,304L489.2,302.89L489.56,304L489.57,303.89L489.91,304L489.92,303.2L489.92,303.5L489.93,303.19L489.93,304L490.24,273.95L490.62,304L490.69,304L491.46,302.71L491.48,303.98L492.12,303.27L492.35,304L492.35,302.68L492.35,304L492.46,302.59L493.1,304L493.12,303.98L493.37,304L493.38,303.86L493.43,303.15L493.43,304L493.79,300.96L494.16,304L494.21,303.82L494.21,304L494.24,302.18L494.92,304L495.03,303.41L495.03,304L495.76,302.99L495.76,304L495.82,304L495.98,299.54L496.33,304L496.37,304L496.7,303.48L497.01,303.82L497.13,304L497.55,301.89L497.82,303.88L497.9,304L498.12,299.92L498.53,303.69L498.53,304L499.57,303.83L499.57,304L499.87,303.25L500.14,304L500.18,304L500.44,303.1L500.92,304L500.94,304L501.56,299.61L501.69,303.96L501.71,303.89L501.82,304L501.82,299.24L502.32,298.34L502.58,304L502.6,304L502.97,301.66L503.34,303.89L503.37,304L504.12,302.79L504.19,303.99L505.06,303.63L505.22,303.98L505.23,303.99L505.28,304L505.81,300.44L505.94,303.95L505.99,304L506.19,301.98L506.23,303.95L506.26,304L506.45,303.03L506.99,304L507.03,303.95L507.31,304L507.43,303.53L507.46,302.02L507.46,304L507.87,300.28L508.21,304L508.22,304L508.89,303.43L508.97,304L508.99,304L509.39,302.09L509.74,304L509.76,304L510.22,302.84L510.51,303.9L510.52,304L510.67,303.05L510.76,303.94L510.76,300.61L510.76,304L510.85,300.29L511,304" style="vector-effect: non-scaling-stroke; fill: none; stroke: rgb(99, 110, 250); stroke-opacity: 1; stroke-width: 2px; opacity: 1;"/></g><g class="points"/><g class="text"/></g></g></g><g class="overplot"/><path class="xlines-above crisp" d="M0,0" style="fill: none;"/><path class="ylines-above crisp" d="M0,0" style="fill: none;"/><g class="overlines-above"/><g class="xaxislayer-above"><g class="xtick"><text text-anchor="middle" x="0" y="436" transform="translate(198.15,0)" style="font-family: 'Times New Roman'; font-size: 15px; fill: rgb(13, 13, 13); fill-opacity: 1; white-space: pre; opacity: 1;">1.61252×10​<tspan style="font-size:70%" dy="-0.6em">18</tspan><tspan dy="0.42em">​</tspan></text></g><g class="xtick"><text text-anchor="middle" x="0" y="436" style="font-family: 'Times New Roman'; font-size: 15px; fill: rgb(13, 13, 13); fill-opacity: 1; white-space: pre; opacity: 1;" transform="translate(299.58000000000004,0)">1.612525×10​<tspan style="font-size:70%" dy="-0.6em">18</tspan><tspan dy="0.42em">​</tspan></text></g><g class="xtick"><text text-anchor="middle" x="0" y="436" style="font-family: 'Times New Roman'; font-size: 15px; fill: rgb(13, 13, 13); fill-opacity: 1; white-space: pre; opacity: 1;" transform="translate(401,0)">1.61253×10​<tspan style="font-size:70%" dy="-0.6em">18</tspan><tspan dy="0.42em">​</tspan></text></g><g class="xtick"><text text-anchor="middle" x="0" y="436" style="font-family: 'Times New Roman'; font-size: 15px; fill: rgb(13, 13, 13); fill-opacity: 1; white-space: pre; opacity: 1;" transform="translate(502.42,0)">1.612535×10​<tspan style="font-size:70%" dy="-0.6em">18</tspan><tspan dy="0.42em">​</tspan></text></g><g class="xtick"><text text-anchor="middle" x="0" y="436" style="font-family: 'Times New Roman'; font-size: 15px; fill: rgb(13, 13, 13); fill-opacity: 1; white-space: pre; opacity: 1;" transform="translate(603.85,0)">1.61254×10​<tspan style="font-size:70%" dy="-0.6em">18</tspan><tspan dy="0.42em">​</tspan></text></g></g><g class="yaxislayer-above"><g class="ytick"><text text-anchor="end" x="108" y="12.25" transform="translate(0,404)" style="font-family: 'Times New Roman'; font-size: 35px; fill: rgb(13, 13, 13); fill-opacity: 1; white-space: pre; opacity: 1;">0</text></g><g class="ytick"><text text-anchor="end" x="108" y="12.25" style="font-family: 'Times New Roman'; font-size: 35px; fill: rgb(13, 13, 13); fill-opacity: 1; white-space: pre; opacity: 1;" transform="translate(0,363.79)">2k</text></g><g class="ytick"><text text-anchor="end" x="108" y="12.25" style="font-family: 'Times New Roman'; font-size: 35px; fill: rgb(13, 13, 13); fill-opacity: 1; white-space: pre; opacity: 1;" transform="translate(0,323.57)">4k</text></g><g class="ytick"><text text-anchor="end" x="108" y="12.25" style="font-family: 'Times New Roman'; font-size: 35px; fill: rgb(13, 13, 13); fill-opacity: 1; white-space: pre; opacity: 1;" transform="translate(0,283.36)">6k</text></g><g class="ytick"><text text-anchor="end" x="108" y="12.25" style="font-family: 'Times New Roman'; font-size: 35px; fill: rgb(13, 13, 13); fill-opacity: 1; white-space: pre; opacity: 1;" transform="translate(0,243.15)">8k</text></g><g class="ytick"><text text-anchor="end" x="108" y="12.25" style="font-family: 'Times New Roman'; font-size: 35px; fill: rgb(13, 13, 13); fill-opacity: 1; white-space: pre; opacity: 1;" transform="translate(0,202.93)">10k</text></g><g class="ytick"><text text-anchor="end" x="108" y="12.25" style="font-family: 'Times New Roman'; font-size: 35px; fill: rgb(13, 13, 13); fill-opacity: 1; white-space: pre; opacity: 1;" transform="translate(0,162.72)">12k</text></g><g class="ytick"><text text-anchor="end" x="108" y="12.25" style="font-family: 'Times New Roman'; font-size: 35px; fill: rgb(13, 13, 13); fill-opacity: 1; white-space: pre; opacity: 1;" transform="translate(0,122.5)">14k</text></g></g><g class="overaxes-above"/></g></g><g class="polarlayer"/><g class="smithlayer"/><g class="ternarylayer"/><g class="geolayer"/><g class="funnelarealayer"/><g class="pielayer"/><g class="iciclelayer"/><g class="treemaplayer"/><g class="sunburstlayer"/><g class="glimages"/><defs id="topdefs-81be11"><g class="clips"/></defs><g class="layer-above"><g class="imagelayer"/><g class="shapelayer"/></g><g class="infolayer"><g class="g-gtitle"/><g class="g-xtitle"><text class="xtitle" x="364.5" y="463.8" text-anchor="middle" style="font-family: 'Open Sans', verdana, arial, sans-serif; font-size: 14px; fill: rgb(42, 63, 95); opacity: 1; font-weight: normal; white-space: pre;">Time Steps (ns)</text></g><g class="g-ytitle" transform="translate(23.5,0)"><text class="ytitle" transform="rotate(-90,12.5,260)" x="12.5" y="260" text-anchor="middle" style="font-family: 'Times New Roman'; font-size: 40px; fill: rgb(13, 13, 13); opacity: 1; font-weight: normal; white-space: pre;">Speed (in sec.)</text></g></g></svg>