<svg class="main-svg" xmlns="http://www.w3.org/2000/svg" xmlns:xlink="http://www.w3.org/1999/xlink" width="700" height="500" style="" viewBox="0 0 700 500"><rect x="0" y="0" width="700" height="500" style="fill: rgb(255, 255, 255); fill-opacity: 1;"/><defs id="defs-43e35e"><g class="clips"><clipPath id="clip43e35exyplot" class="plotclip"><rect width="489" height="320"/></clipPath><clipPath class="axesclip" id="clip43e35ex"><rect x="131" y="0" width="489" height="500"/></clipPath><clipPath class="axesclip" id="clip43e35ey"><rect x="0" y="100" width="700" height="320"/></clipPath><clipPath class="axesclip" id="clip43e35exy"><rect x="131" y="100" width="489" height="320"/></clipPath></g><g class="gradients"/><g class="patterns"/></defs><g class="bglayer"><rect class="bg" x="131" y="100" width="489" height="320" style="fill: rgb(229, 236, 246); fill-opacity: 1; stroke-width: 0;"/></g><g class="layer-below"><g class="imagelayer"/><g class="shapelayer"/></g><g class="cartesianlayer"><g class="subplot xy"><g class="layer-subplot"><g class="shapelayer"/><g class="imagelayer"/></g><g class="minor-gridlayer"><g class="x"/><g class="y"/></g><g class="gridlayer"><g class="x"><path class="xgrid crisp" transform="translate(216.32999999999998,0)" d="M0,100v320" style="stroke: rgb(255, 255, 255); stroke-opacity: 1; stroke-width: 1px;"/><path class="xgrid crisp" transform="translate(313.37,0)" d="M0,100v320" style="stroke: rgb(255, 255, 255); stroke-opacity: 1; stroke-width: 1px;"/><path class="xgrid crisp" transform="translate(410.4,0)" d="M0,100v320" style="stroke: rgb(255, 255, 255); stroke-opacity: 1; stroke-width: 1px;"/><path class="xgrid crisp" transform="translate(507.44,0)" d="M0,100v320" style="stroke: rgb(255, 255, 255); stroke-opacity: 1; stroke-width: 1px;"/><path class="xgrid crisp" transform="translate(604.48,0)" d="M0,100v320" style="stroke: rgb(255, 255, 255); stroke-opacity: 1; stroke-width: 1px;"/></g><g class="y"><path class="ygrid crisp" transform="translate(0,354.33000000000004)" d="M131,0h489" style="stroke: rgb(255, 255, 255); stroke-opacity: 1; stroke-width: 1px;"/><path class="ygrid crisp" transform="translate(0,304.64)" d="M131,0h489" style="stroke: rgb(255, 255, 255); stroke-opacity: 1; stroke-width: 1px;"/><path class="ygrid crisp" transform="translate(0,254.96)" d="M131,0h489" style="stroke: rgb(255, 255, 255); stroke-opacity: 1; stroke-width: 1px;"/><path class="ygrid crisp" transform="translate(0,205.28)" d="M131,0h489" style="stroke: rgb(255, 255, 255); stroke-opacity: 1; stroke-width: 1px;"/><path class="ygrid crisp" transform="translate(0,155.6)" d="M131,0h489" style="stroke: rgb(255, 255, 255); stroke-opacity: 1; stroke-width: 1px;"/><path class="ygrid crisp" transform="translate(0,105.91)" d="M131,0h489" style="stroke: rgb(255, 255, 255); stroke-opacity: 1; stroke-width: 1px;"/></g></g><g class="zerolinelayer"><path class="yzl zl crisp" transform="translate(0,404.01)" d="M131,0h489" style="stroke: rgb(255, 255, 255); stroke-opacity: 1; stroke-width: 2px;"/></g><path class="xlines-below"/><path class="ylines-below"/><g class="overlines-below"/><g class="xaxislayer-below"/><g class="yaxislayer-below"/><g class="overaxes-below"/><g class="plot" transform="translate(131,100)" clip-path="url(#clip43e35exyplot)"><g class="scatterlayer mlayer"><g class="trace scatter tracec74c16" style="stroke-miterlimit: 2; opacity: 1;"><g class="fills"/><g class="errorbars"/><g class="lines"><path class="js-line" d="M0,304L2.36,302.94L2.36,302.94L2.36,302.93L6.38,301.23L6.38,301.23L6.38,301.22L31.91,289.65L31.91,289.64L37.43,286.69L37.43,286.68L41.07,284.56L41.16,284.54L44.97,282.25L45.01,282.25L59.96,272.79L60.02,272.78L63.97,270.42L63.97,270.42L63.99,270.42L67.78,268.25L67.78,268.25L67.78,268.24L73.2,265.07L73.2,265.06L76.36,262.91L76.36,262.9L80.96,260.59L80.97,260.58L83.41,258.95L83.41,258.95L83.41,258.94L92.53,253.65L92.53,253.65L92.67,253.65L94.56,252.31L94.63,252.3L97.99,250.05L97.99,250.04L99.85,248.63L99.85,248.62L102.9,246.63L102.9,246.63L102.9,246.62L115.54,239.53L115.54,239.53L115.54,239.52L119.07,237.64L119.07,237.64L119.08,237.63L122.67,235.33L122.71,235.32L126.99,232.55L126.99,232.52L128.46,231.76L128.51,231.76L132.73,229.87L132.73,229.86L137.21,227.32L137.21,227.32L137.28,227.31L146.92,221.03L146.92,221.03L146.92,221.02L149.97,219.22L149.97,219.21L153.52,216.91L153.52,216.91L153.58,216.91L158.23,213.95L158.23,213.95L158.26,213.95L220.65,176.83L220.65,176.82L222.36,175.86L222.36,175.86L222.38,175.85L228.41,172.45L228.41,172.44L231.75,170.33L231.75,170.32L234.5,168.6L234.5,168.6L234.52,168.6L238.49,166.27L238.49,166.26L240.51,165.1L240.51,165.09L256.68,155.52L256.81,155.51L258.58,154.47L258.58,154.47L258.74,154.46L274.01,145.97L274.01,145.97L274.09,145.96L282.46,141.76L282.46,141.76L282.48,141.76L292.21,136.47L292.21,136.46L293.71,135.26L293.71,135.26L293.75,135.25L295.53,134.26L295.53,134.26L295.57,134.25L308.3,126.88L308.3,126.88L308.36,126.87L310.05,125.79L310.05,125.78L329.49,115.24L329.49,115.22L352.85,101.57L352.85,101.57L352.95,101.56L359.18,97.66L359.18,97.66L359.26,97.65L360.81,96.71L360.93,96.7L368.76,91.99L368.76,91.96L373.39,89.19L373.39,89.19L373.39,89.17L392.56,77.56L392.56,77.56L392.56,77.55L393.76,76.79L393.9,76.78L402.94,71.78L402.94,71.77L409.51,67.67L409.51,67.66L412.52,65.59L412.52,65.59L412.6,65.59L444.93,44.96L444.93,44.95L447.69,42.94L447.69,42.93L449.22,42.09L449.22,42.08L450.46,41.26L450.46,41.26L450.46,41.25L466.78,30.39L466.78,30.38L469.24,29.13L469.24,29.12L473.89,26.32L473.89,26.31L475.58,25.15L475.58,25.15L475.68,25.15L477.86,23.24L477.86,23.23L486.86,17.37L486.86,17.37L486.88,17.37L489,16" style="vector-effect: non-scaling-stroke; fill: none; stroke: rgb(173, 0, 0); stroke-opacity: 1; stroke-width: 2px; opacity: 1;"/></g><g class="points"/><g class="text"/></g></g></g><g class="overplot"/><path class="xlines-above crisp" d="M0,0" style="fill: none;"/><path class="ylines-above crisp" d="M0,0" style="fill: none;"/><g class="overlines-above"/><g class="xaxislayer-above"><g class="xtick"><text text-anchor="middle" x="0" y="436" transform="translate(216.32999999999998,0)" style="font-family: 'Times New Roman'; font-size: 15px; fill: rgb(13, 13, 13); fill-opacity: 1; white-space: pre; opacity: 1;">1.61252×10​<tspan style="font-size:70%" dy="-0.6em">18</tspan><tspan dy="0.42em">​</tspan></text></g><g class="xtick"><text text-anchor="middle" x="0" y="436" style="font-family: 'Times New Roman'; font-size: 15px; fill: rgb(13, 13, 13); fill-opacity: 1; white-space: pre; opacity: 1;" transform="translate(313.37,0)">1.612525×10​<tspan style="font-size:70%" dy="-0.6em">18</tspan><tspan dy="0.42em">​</tspan></text></g><g class="xtick"><text text-anchor="middle" x="0" y="436" style="font-family: 'Times New Roman'; font-size: 15px; fill: rgb(13, 13, 13); fill-opacity: 1; white-space: pre; opacity: 1;" transform="translate(410.4,0)">1.61253×10​<tspan style="font-size:70%" dy="-0.6em">18</tspan><tspan dy="0.42em">​</tspan></text></g><g class="xtick"><text text-anchor="middle" x="0" y="436" style="font-family: 'Times New Roman'; font-size: 15px; fill: rgb(13, 13, 13); fill-opacity: 1; white-space: pre; opacity: 1;" transform="translate(507.44,0)">1.612535×10​<tspan style="font-size:70%" dy="-0.6em">18</tspan><tspan dy="0.42em">​</tspan></text></g><g class="xtick"><text text-anchor="middle" x="0" y="436" style="font-family: 'Times New Roman'; font-size: 15px; fill: rgb(13, 13, 13); fill-opacity: 1; white-space: pre; opacity: 1;" transform="translate(604.48,0)">1.61254×10​<tspan style="font-size:70%" dy="-0.6em">18</tspan><tspan dy="0.42em">​</tspan></text></g></g><g class="yaxislayer-above"><g class="ytick"><text text-anchor="end" x="130" y="12.25" transform="translate(0,404.01)" style="font-family: 'Times New Roman'; font-size: 35px; fill: rgb(13, 13, 13); fill-opacity: 1; white-space: pre; opacity: 1;">0</text></g><g class="ytick"><text text-anchor="end" x="130" y="12.25" style="font-family: 'Times New Roman'; font-size: 35px; fill: rgb(13, 13, 13); fill-opacity: 1; white-space: pre; opacity: 1;" transform="translate(0,354.33000000000004)">0.5M</text></g><g class="ytick"><text text-anchor="end" x="130" y="12.25" style="font-family: 'Times New Roman'; font-size: 35px; fill: rgb(13, 13, 13); fill-opacity: 1; white-space: pre; opacity: 1;" transform="translate(0,304.64)">1M</text></g><g class="ytick"><text text-anchor="end" x="130" y="12.25" style="font-family: 'Times New Roman'; font-size: 35px; fill: rgb(13, 13, 13); fill-opacity: 1; white-space: pre; opacity: 1;" transform="translate(0,254.96)">1.5M</text></g><g class="ytick"><text text-anchor="end" x="130" y="12.25" style="font-family: 'Times New Roman'; font-size: 35px; fill: rgb(13, 13, 13); fill-opacity: 1; white-space: pre; opacity: 1;" transform="translate(0,205.28)">2M</text></g><g class="ytick"><text text-anchor="end" x="130" y="12.25" style="font-family: 'Times New Roman'; font-size: 35px; fill: rgb(13, 13, 13); fill-opacity: 1; white-space: pre; opacity: 1;" transform="translate(0,155.6)">2.5M</text></g><g class="ytick"><text text-anchor="end" x="130" y="12.25" style="font-family: 'Times New Roman'; font-size: 35px; fill: rgb(13, 13, 13); fill-opacity: 1; white-space: pre; opacity: 1;" transform="translate(0,105.91)">3M</text></g></g><g class="overaxes-above"/></g></g><g class="polarlayer"/><g class="smithlayer"/><g class="ternarylayer"/><g class="geolayer"/><g class="funnelarealayer"/><g class="pielayer"/><g class="iciclelayer"/><g class="treemaplayer"/><g class="sunburstlayer"/><g class="glimages"/><defs id="topdefs-43e35e"><g class="clips"/></defs><g class="layer-above"><g class="imagelayer"/><g class="shapelayer"/></g><g class="infolayer"><g class="g-gtitle"/><g class="g-xtitle"><text class="xtitle" x="375.5" y="463.8" text-anchor="middle" style="font-family: 'Open Sans', verdana, arial, sans-serif; font-size: 14px; fill: rgb(42, 63, 95); opacity: 1; font-weight: normal; white-space: pre;">Time Steps (ns)</text></g><g class="g-ytitle" transform="translate(23.875,0)"><text class="ytitle" transform="rotate(-90,12.125,260)" x="12.125" y="260" text-anchor="middle" style="font-family: 'Times New Roman'; font-size: 40px; fill: rgb(13, 13, 13); opacity: 1; font-weight: normal; white-space: pre;">Cum. qty. executed securites</text></g></g></svg>