<svg class="main-svg" xmlns="http://www.w3.org/2000/svg" xmlns:xlink="http://www.w3.org/1999/xlink" width="700" height="500" style="" viewBox="0 0 700 500"><rect x="0" y="0" width="700" height="500" style="fill: rgb(255, 255, 255); fill-opacity: 1;"/><defs id="defs-fc07f2"><g class="clips"><clipPath id="clipfc07f2xyplot" class="plotclip"><rect width="497" height="320"/></clipPath><clipPath class="axesclip" id="clipfc07f2x"><rect x="123" y="0" width="497" height="500"/></clipPath><clipPath class="axesclip" id="clipfc07f2y"><rect x="0" y="100" width="700" height="320"/></clipPath><clipPath class="axesclip" id="clipfc07f2xy"><rect x="123" y="100" width="497" height="320"/></clipPath></g><g class="gradients"/><g class="patterns"/></defs><g class="bglayer"><rect class="bg" x="123" y="100" width="497" height="320" style="fill: rgb(229, 236, 246); fill-opacity: 1; stroke-width: 0;"/></g><g class="layer-below"><g class="imagelayer"/><g class="shapelayer"/></g><g class="cartesianlayer"><g class="subplot xy"><g class="layer-subplot"><g class="shapelayer"/><g class="imagelayer"/></g><g class="minor-gridlayer"><g class="x"/><g class="y"/></g><g class="gridlayer"><g class="x"><path class="xgrid crisp" transform="translate(209.75,0)" d="M0,100v320" style="stroke: rgb(255, 255, 255); stroke-opacity: 1; stroke-width: 1px;"/><path class="xgrid crisp" transform="translate(308.39,0)" d="M0,100v320" style="stroke: rgb(255, 255, 255); stroke-opacity: 1; stroke-width: 1px;"/><path class="xgrid crisp" transform="translate(407.02,0)" d="M0,100v320" style="stroke: rgb(255, 255, 255); stroke-opacity: 1; stroke-width: 1px;"/><path class="xgrid crisp" transform="translate(505.65,0)" d="M0,100v320" style="stroke: rgb(255, 255, 255); stroke-opacity: 1; stroke-width: 1px;"/><path class="xgrid crisp" transform="translate(604.28,0)" d="M0,100v320" style="stroke: rgb(255, 255, 255); stroke-opacity: 1; stroke-width: 1px;"/></g><g class="y"><path class="ygrid crisp" transform="translate(0,353.01)" d="M123,0h497" style="stroke: rgb(255, 255, 255); stroke-opacity: 1; stroke-width: 1px;"/><path class="ygrid crisp" transform="translate(0,302.01)" d="M123,0h497" style="stroke: rgb(255, 255, 255); stroke-opacity: 1; stroke-width: 1px;"/><path class="ygrid crisp" transform="translate(0,251)" d="M123,0h497" style="stroke: rgb(255, 255, 255); stroke-opacity: 1; stroke-width: 1px;"/><path class="ygrid crisp" transform="translate(0,200)" d="M123,0h497" style="stroke: rgb(255, 255, 255); stroke-opacity: 1; stroke-width: 1px;"/><path class="ygrid crisp" transform="translate(0,149)" d="M123,0h497" style="stroke: rgb(255, 255, 255); stroke-opacity: 1; stroke-width: 1px;"/></g></g><g class="zerolinelayer"><path class="yzl zl crisp" transform="translate(0,404.01)" d="M123,0h497" style="stroke: rgb(255, 255, 255); stroke-opacity: 1; stroke-width: 2px;"/></g><path class="xlines-below"/><path class="ylines-below"/><g class="overlines-below"/><g class="xaxislayer-below"/><g class="yaxislayer-below"/><g class="overaxes-below"/><g class="plot" transform="translate(123,100)" clip-path="url(#clipfc07f2xyplot)"><g class="scatterlayer mlayer"><g class="trace scatter trace8c9479" style="stroke-miterlimit: 2; opacity: 1;"><g class="fills"/><g class="errorbars"/><g class="lines"><path class="js-line" d="M0,304L2.32,303.02L2.32,303.02L2.36,303.01L36.7,288.08L36.7,288.07L40.48,286.03L40.48,286.02L42.75,284.65L42.75,284.64L44.98,283.55L44.98,283.55L44.98,283.54L81.76,260.24L81.76,260.22L83.45,259.15L83.45,259.14L87.39,256.83L87.39,256.82L89.85,255.24L89.85,255.24L89.89,255.24L97.59,250.62L97.75,250.61L100.51,249.11L100.51,249.11L100.51,249.1L103.6,247.41L103.6,247.41L103.6,247.4L108.37,244.7L108.37,244.7L108.44,244.7L111.53,242.95L111.53,242.95L111.53,242.94L116.8,240.41L116.85,240.41L121.32,237.92L121.32,237.92L121.39,237.92L124.73,235.75L124.73,235.75L124.73,235.74L127.89,234.14L127.89,234.12L156.36,217.34L156.45,217.34L165.39,212.02L165.45,212.02L176.71,205.55L176.71,205.55L176.73,205.55L179.58,203.89L179.6,203.89L181.92,202.22L181.98,202.22L190.49,197.12L190.58,197.12L195.26,194.27L195.26,194.27L195.26,194.26L210.64,185.42L210.64,185.41L215.61,182.6L215.61,182.6L215.68,182.59L219.73,180.04L219.73,180.03L224.2,177.53L224.2,177.52L228.87,175.01L228.87,175.01L228.87,175L230.37,174.14L230.37,174.14L230.37,174.13L234.57,171.88L234.62,171.88L243.14,167.43L243.14,167.42L246.93,165.18L246.97,165.17L247.96,164.5L247.96,164.5L248.01,164.49L262.4,156.45L262.4,156.45L262.52,156.44L266.99,153.72L266.99,153.71L269.51,152.22L269.51,152.22L269.54,152.22L272.58,150.34L272.58,150.34L272.61,150.34L280.65,145.44L280.86,145.44L292.99,138.52L293.05,138.51L295.12,137.17L295.15,137.16L297.71,135.93L297.71,135.93L297.71,135.92L300.04,134.73L300.04,134.73L300.07,134.72L303.21,133.29L303.24,133.29L306.3,131.35L306.3,131.34L310.65,128.91L310.65,128.91L310.65,128.9L313.17,127.54L313.17,127.52L338.73,112.48L338.73,112.48L338.73,112.47L340.92,111.22L340.92,111.22L340.92,111.21L343.36,109.62L343.41,109.62L346.45,107.95L346.45,107.95L346.45,107.94L350.54,105.58L350.54,105.57L364.9,97.07L364.9,97.07L364.9,97.06L380.61,88.43L380.66,88.42L383.26,86.92L383.26,86.92L383.27,86.91L398.49,78.07L398.49,78.07L398.5,78.07L400.62,76.91L400.65,76.9L406.24,73.27L406.24,73.26L409.18,71.33L409.18,71.33L409.21,71.33L417.5,66.17L417.5,66.17L417.5,66.16L436.48,54.79L436.48,54.79L436.58,54.78L438.56,53.36L438.62,53.35L451.1,45.32L451.24,45.32L467.69,35.21L467.69,35.21L467.73,35.21L471.77,32.68L471.77,32.65L473.82,31.34L473.88,31.34L488.58,21.94L488.58,21.94L488.58,21.93L492.33,19.2L492.33,19.2L492.41,19.19L493.52,18.49L493.52,18.49L493.53,18.49L497,16L497,16" style="vector-effect: non-scaling-stroke; fill: none; stroke: rgb(1, 102, 87); stroke-opacity: 1; stroke-width: 2px; opacity: 1;"/></g><g class="points"/><g class="text"/></g></g></g><g class="overplot"/><path class="xlines-above crisp" d="M0,0" style="fill: none;"/><path class="ylines-above crisp" d="M0,0" style="fill: none;"/><g class="overlines-above"/><g class="xaxislayer-above"><g class="xtick"><text text-anchor="middle" x="0" y="436" transform="translate(209.75,0)" style="font-family: 'Times New Roman'; font-size: 15px; fill: rgb(13, 13, 13); fill-opacity: 1; white-space: pre; opacity: 1;">1.61252×10​<tspan style="font-size:70%" dy="-0.6em">18</tspan><tspan dy="0.42em">​</tspan></text></g><g class="xtick"><text text-anchor="middle" x="0" y="436" style="font-family: 'Times New Roman'; font-size: 15px; fill: rgb(13, 13, 13); fill-opacity: 1; white-space: pre; opacity: 1;" transform="translate(308.39,0)">1.612525×10​<tspan style="font-size:70%" dy="-0.6em">18</tspan><tspan dy="0.42em">​</tspan></text></g><g class="xtick"><text text-anchor="middle" x="0" y="436" style="font-family: 'Times New Roman'; font-size: 15px; fill: rgb(13, 13, 13); fill-opacity: 1; white-space: pre; opacity: 1;" transform="translate(407.02,0)">1.61253×10​<tspan style="font-size:70%" dy="-0.6em">18</tspan><tspan dy="0.42em">​</tspan></text></g><g class="xtick"><text text-anchor="middle" x="0" y="436" style="font-family: 'Times New Roman'; font-size: 15px; fill: rgb(13, 13, 13); fill-opacity: 1; white-space: pre; opacity: 1;" transform="translate(505.65,0)">1.612535×10​<tspan style="font-size:70%" dy="-0.6em">18</tspan><tspan dy="0.42em">​</tspan></text></g><g class="xtick"><text text-anchor="middle" x="0" y="436" style="font-family: 'Times New Roman'; font-size: 15px; fill: rgb(13, 13, 13); fill-opacity: 1; white-space: pre; opacity: 1;" transform="translate(604.28,0)">1.61254×10​<tspan style="font-size:70%" dy="-0.6em">18</tspan><tspan dy="0.42em">​</tspan></text></g></g><g class="yaxislayer-above"><g class="ytick"><text text-anchor="end" x="122" y="12.25" transform="translate(0,404.01)" style="font-family: 'Times New Roman'; font-size: 35px; fill: rgb(13, 13, 13); fill-opacity: 1; white-space: pre; opacity: 1;">0</text></g><g class="ytick"><text text-anchor="end" x="122" y="12.25" style="font-family: 'Times New Roman'; font-size: 35px; fill: rgb(13, 13, 13); fill-opacity: 1; white-space: pre; opacity: 1;" transform="translate(0,353.01)">0.5B</text></g><g class="ytick"><text text-anchor="end" x="122" y="12.25" style="font-family: 'Times New Roman'; font-size: 35px; fill: rgb(13, 13, 13); fill-opacity: 1; white-space: pre; opacity: 1;" transform="translate(0,302.01)">1B</text></g><g class="ytick"><text text-anchor="end" x="122" y="12.25" style="font-family: 'Times New Roman'; font-size: 35px; fill: rgb(13, 13, 13); fill-opacity: 1; white-space: pre; opacity: 1;" transform="translate(0,251)">1.5B</text></g><g class="ytick"><text text-anchor="end" x="122" y="12.25" style="font-family: 'Times New Roman'; font-size: 35px; fill: rgb(13, 13, 13); fill-opacity: 1; white-space: pre; opacity: 1;" transform="translate(0,200)">2B</text></g><g class="ytick"><text text-anchor="end" x="122" y="12.25" style="font-family: 'Times New Roman'; font-size: 35px; fill: rgb(13, 13, 13); fill-opacity: 1; white-space: pre; opacity: 1;" transform="translate(0,149)">2.5B</text></g></g><g class="overaxes-above"/></g></g><g class="polarlayer"/><g class="smithlayer"/><g class="ternarylayer"/><g class="geolayer"/><g class="funnelarealayer"/><g class="pielayer"/><g class="iciclelayer"/><g class="treemaplayer"/><g class="sunburstlayer"/><g class="glimages"/><defs id="topdefs-fc07f2"><g class="clips"/></defs><g class="layer-above"><g class="imagelayer"/><g class="shapelayer"/></g><g class="infolayer"><g class="g-gtitle"/><g class="g-xtitle"><text class="xtitle" x="371.5" y="463.8" text-anchor="middle" style="font-family: 'Open Sans', verdana, arial, sans-serif; font-size: 14px; fill: rgb(42, 63, 95); opacity: 1; font-weight: normal; white-space: pre;">Time Steps (ns)</text></g><g class="g-ytitle" transform="translate(24.109375,0)"><text class="ytitle" transform="rotate(-90,11.890625,260)" x="11.890625" y="260" text-anchor="middle" style="font-family: 'Times New Roman'; font-size: 40px; fill: rgb(13, 13, 13); opacity: 1; font-weight: normal; white-space: pre;">Cum. executed trading vol. (in $)</text></g></g></svg>