<svg class="main-svg" xmlns="http://www.w3.org/2000/svg" xmlns:xlink="http://www.w3.org/1999/xlink" width="700" height="500" style="" viewBox="0 0 700 500"><rect x="0" y="0" width="700" height="500" style="fill: rgb(255, 255, 255); fill-opacity: 1;"/><defs id="defs-d5b834"><g class="clips"><clipPath id="clipd5b834xyplot" class="plotclip"><rect width="494" height="320"/></clipPath><clipPath class="axesclip" id="clipd5b834x"><rect x="126" y="0" width="494" height="500"/></clipPath><clipPath class="axesclip" id="clipd5b834y"><rect x="0" y="100" width="700" height="320"/></clipPath><clipPath class="axesclip" id="clipd5b834xy"><rect x="126" y="100" width="494" height="320"/></clipPath></g><g class="gradients"/><g class="patterns"/></defs><g class="bglayer"><rect class="bg" x="126" y="100" width="494" height="320" style="fill: rgb(229, 236, 246); fill-opacity: 1; stroke-width: 0;"/></g><g class="layer-below"><g class="imagelayer"/><g class="shapelayer"/></g><g class="cartesianlayer"><g class="subplot xy"><g class="layer-subplot"><g class="shapelayer"/><g class="imagelayer"/></g><g class="minor-gridlayer"><g class="x"/><g class="y"/></g><g class="gridlayer"><g class="x"><path class="xgrid crisp" transform="translate(212.23000000000002,0)" d="M0,100v320" style="stroke: rgb(255, 255, 255); stroke-opacity: 1; stroke-width: 1px;"/><path class="xgrid crisp" transform="translate(310.27,0)" d="M0,100v320" style="stroke: rgb(255, 255, 255); stroke-opacity: 1; stroke-width: 1px;"/><path class="xgrid crisp" transform="translate(408.3,0)" d="M0,100v320" style="stroke: rgb(255, 255, 255); stroke-opacity: 1; stroke-width: 1px;"/><path class="xgrid crisp" transform="translate(506.34,0)" d="M0,100v320" style="stroke: rgb(255, 255, 255); stroke-opacity: 1; stroke-width: 1px;"/><path class="xgrid crisp" transform="translate(604.38,0)" d="M0,100v320" style="stroke: rgb(255, 255, 255); stroke-opacity: 1; stroke-width: 1px;"/></g><g class="y"><path class="ygrid crisp" transform="translate(0,333.95)" d="M126,0h494" style="stroke: rgb(255, 255, 255); stroke-opacity: 1; stroke-width: 1px;"/><path class="ygrid crisp" transform="translate(0,263.9)" d="M126,0h494" style="stroke: rgb(255, 255, 255); stroke-opacity: 1; stroke-width: 1px;"/><path class="ygrid crisp" transform="translate(0,193.85)" d="M126,0h494" style="stroke: rgb(255, 255, 255); stroke-opacity: 1; stroke-width: 1px;"/><path class="ygrid crisp" transform="translate(0,123.8)" d="M126,0h494" style="stroke: rgb(255, 255, 255); stroke-opacity: 1; stroke-width: 1px;"/></g></g><g class="zerolinelayer"><path class="yzl zl crisp" transform="translate(0,404)" d="M126,0h494" style="stroke: rgb(255, 255, 255); stroke-opacity: 1; stroke-width: 2px;"/></g><path class="xlines-below"/><path class="ylines-below"/><g class="overlines-below"/><g class="xaxislayer-below"/><g class="yaxislayer-below"/><g class="overaxes-below"/><g class="plot" transform="translate(126,100)" clip-path="url(#clipd5b834xyplot)"><g class="scatterlayer mlayer"><g class="trace scatter traced5e9b2" style="stroke-miterlimit: 2; opacity: 1;"><g class="fills"/><g class="errorbars"/><g class="lines"><path class="js-line" d="M0,304L0.76,303.66L0.9,303.92L0.94,303.93L1.01,304L1.11,302.84L1.66,303.92L1.75,303.98L1.8,304L2.5,301.23L2.54,303.93L2.57,301.09L2.57,304L3.25,304L3.34,303.28L3.34,304L3.58,298.22L4.09,303.22L4.12,303.17L4.88,304L4.99,304L5.31,302.76L5.74,303.82L5.98,304L6.67,296.67L6.77,304L6.77,301.28L7.49,304L7.54,303.57L7.54,304L8.19,302.23L8.29,303.92L8.33,304L9.05,299.85L9.08,304L9.17,304L9.2,300.9L9.88,303.97L9.96,303.71L10.33,303.05L10.77,304L10.81,303.06L10.82,304L10.97,302.36L11.54,303.74L11.59,302.97L11.61,302.72L12.34,304L12.44,304L12.9,302.61L13.1,302.82L13.25,303.44L13.25,304L13.89,299.23L14.01,303.85L14.21,303.18L14.62,304L14.62,303.81L14.68,302.57L14.68,304L15.4,303.8L15.45,304L15.48,301.39L15.9,304L16.03,303.73L16.03,304L16.63,298.48L16.77,303.9L16.8,303.94L17.42,303.9L17.42,302.65L17.45,293.47L17.51,304L18.13,304L18.21,303.72L18.26,304L18.51,298.3L18.94,303.83L18.98,304L19.27,296.94L19.69,304L19.75,304L20.54,301.69L20.58,303.27L21,304L21.12,303.71L21.14,293.61L21.14,304L21.87,304L21.91,303.92L22.03,304L22.49,302.75L22.64,303.74L22.64,302.03L23.36,304L23.48,303.91L23.51,302.06L23.51,304L24.17,300.35L24.29,300.23L24.29,304L24.65,296.67L25.03,304L25.1,304L25.5,301.6L25.87,303.27L25.87,303.96L26.07,300.05L26.07,304L26.61,304L26.62,304L27.3,296.76L27.3,304L27.45,302.45L27.45,304L28.11,303.92L28.29,304L28.48,304L28.48,302.67L29.24,304L29.31,303.54L29.31,304L29.84,300.24L30.05,304L30.14,303.19L30.14,304L30.65,301.32L30.85,304L30.91,304L31.63,296.71L31.66,303.89L31.67,303.44L31.67,304L31.94,302.29L32.4,304L32.47,304L32.71,293.61L33.15,304L33.26,304L33.3,303.81L33.31,296.01L33.32,304L33.93,294.9L34.03,303.97L34.12,304L34.47,303.08L34.83,303.97L34.91,304L35.58,302.74L35.65,303.88L35.71,303.96L35.75,304L36.02,302.48L36.47,303.65L36.48,304L37.17,303.05L37.23,303.73L37.24,303.99L37.32,303.42L37.48,304L37.48,299.87L38.01,298.92L38.2,304L38.2,303.82L38.32,303.65L38.44,304L38.89,298.32L39.05,303.6L39.09,303.32L39.1,304L39.21,302.53L39.83,304L39.87,304L40.03,302.94L40.55,304L40.55,300.04L40.59,300.03L41.31,304L41.32,304L41.64,297.35L41.82,304L41.86,304L42.07,302.79L42.26,304L42.26,300.81L42.8,291.77L43.02,304L43.03,303.95L43.14,304L43.78,302.34L43.78,303.99L43.82,304L43.84,303.71L43.87,303.84L43.87,289.7L44.65,304L44.65,303.94L44.72,304L44.94,303.07L45.36,304L45.41,304L45.41,301.91L46.15,304L46.17,304L46.81,301.12L46.84,303.75L46.84,304L47.52,302.71L47.6,303.26L47.66,304L47.92,296.87L48.39,303.99L48.43,304L49.13,301.07L49.17,304L49.2,303.9L49.34,304L49.35,275.51L49.75,303.95L49.84,304L50.22,301.14L50.57,303.87L50.61,303.94L50.67,303.56L50.69,304L50.71,303.85L50.72,290.47L50.72,304L51.24,286.61L51.47,304L51.48,303.85L51.69,303.41L52.16,304L52.16,303.91L52.31,302.02L52.62,301.09L53.09,304L53.13,303.91L53.27,304L53.29,303.13L53.32,304L53.32,299.43L53.62,297.77L54.1,304L54.11,303.89L54.22,304L54.22,303.89L54.23,296.6L54.3,296.46L54.3,299.56L54.32,304L55.01,304L55.06,303.87L55.08,304L55.79,292.91L55.79,299.53L55.81,304L55.86,303.48L56.29,304L56.29,291.67L56.49,291.26L57.07,304L57.07,304L57.08,303.93L57.19,303.6L57.2,297.02L57.3,259.91L57.94,304L58.06,304L58.07,302.7L58.8,303.94L58.82,303.07L58.87,304L59.45,299.99L59.57,303.9L59.58,303.98L59.67,303.62L59.73,304L59.73,299.7L59.8,304L60.47,304L60.5,304L60.5,298.1L61.24,303.98L61.28,304L61.96,300.76L61.98,303.99L61.99,303.99L62.59,302.87L62.71,304L62.72,302.52L63.44,304L63.48,303.52L63.48,304L64.22,304L64.25,303.69L64.25,304L64.83,294.1L64.83,303.97L65.02,303.49L65.02,304L65.64,290.5L65.77,304L65.82,303.86L65.82,302.72L65.83,304L66.57,303.61L66.58,303.99L67.35,302.95L67.35,303.06L67.35,304L67.72,301.19L68.07,304L68.22,303.23L68.22,304L68.56,302.55L68.95,303.87L68.98,303.84L69.31,302.7L69.67,304L69.72,303.58L69.81,302.03L70.43,304L70.43,304L70.52,304L70.67,300.11L71.24,303.6L71.3,303.81L71.31,304L71.59,298.97L72.04,303.88L72.09,303.91L72.27,304L72.28,303.96L72.28,302.23L72.28,304L73.02,301.77L73.03,303.95L73.04,303.98L73.09,304L73.21,299.85L73.75,304L73.79,304L73.91,303.68L73.93,304L73.93,298.99L74.65,304L74.72,300.95L74.72,304L75.45,304L75.5,304L76.24,298.19L76.24,304L76.27,304L76.63,302.08L76.98,304L77.1,303.16L77.1,304L77.46,302.05L77.8,303.93L77.86,303.81L77.86,304L78,171.31L78.61,303.79L78.65,304L79.29,302.56L79.39,304L79.44,303.88L79.57,304L79.59,300.51L80.19,302.65L80.22,303.96L80.33,304L80.5,301.99L80.95,304L80.99,304L81.21,299.59L81.57,303.43L81.57,304L81.77,303.65L81.78,303.03L82.45,302.73L82.49,304L82.52,303.56L82.59,303.88L82.62,304L83.25,302.11L83.31,304L83.35,303.62L83.41,303.26L83.47,304L83.71,303.33L83.72,299.41L84.32,304L84.46,303.92L84.53,303.89L84.64,304L84.98,296.51L85.28,303.88L85.3,303.97L85.33,304L85.69,289L85.7,304L85.71,285.43L86.51,304L86.51,303.97L86.53,302.81L86.53,304L86.75,302.3L87.19,304L87.31,304L87.67,303.26L88.06,303.54L88.07,302.11L88.14,304L88.2,301.24L88.74,303.02L88.89,302.55L88.89,304L89.61,296.82L89.64,304L89.65,303.79L89.66,304L89.71,296.57L90.39,304L90.47,303.83L90.5,304L91.21,299.59L91.22,304L91.88,266.16L91.93,304L92.02,302.56L92.05,261.7L92.08,304L92.75,302.11L92.77,303.78L92.85,304L93.07,300.29L93.45,304L93.53,304L94.19,297.88L94.27,304L94.29,303.93L94.48,304L94.57,296.22L94.94,303.96L94.99,304L95.01,303.8L95.05,304L95.09,295.03L95.09,304L95.72,293.79L95.77,303.98L95.85,304L96.24,303.33L96.49,303.56L96.49,297.95L97.23,304L97.25,302.63L97.69,300.38L97.99,304L98.08,304L98.75,292.87L98.83,303.93L98.88,303.89L99.04,303.77L99.07,303.98L99.15,292.17L99.15,304L99.86,247L99.9,303.95L100,304L100.03,303.07L100.51,303.5L100.53,245.4L101.13,304L101.2,240.98L101.39,304L101.76,237.59L102.1,304L102.19,304L102.27,301.8L102.87,303.88L102.91,303.94L103.1,303.31L103.41,304L103.41,302.96L103.45,304L103.99,219.14L104.15,303.71L104.17,304L104.73,303.24L104.98,304L105.02,304L105.14,303.57L105.18,303.93L105.2,301.95L105.2,304L105.93,303.95L105.96,304L106.54,303.54L106.6,303.8L106.72,304L106.94,303.25L107.46,303.84L107.51,303.9L107.57,302.08L107.61,304L108.22,304L108.28,303.64L108.28,304L108.51,302.89L109.03,303.96L109.07,303.99L109.09,304L109.19,298.96L109.73,303.84L109.76,304L109.98,303.3L110.12,304L110.12,300.8L110.37,296.45L110.97,304L110.98,304L111.15,303.3L111.37,303.99L111.38,302.63L111.38,304L111.76,293.65L112.13,303.2L112.16,304L112.85,302.22L112.92,303.36L113.13,303.69L113.13,304L113.31,288.5L113.85,303.85L113.92,304L113.96,303.8L113.97,286.82L114.66,304L114.67,284.91L114.73,303.89L114.86,304L115.43,279.52L115.46,303.92L115.53,304L115.9,276.64L116.27,303.69L116.3,303.96L116.31,304L117.01,301.24L117.05,303.98L117.06,304L117.77,302.11L117.82,303.54L117.82,304L118.28,301.06L118.56,304L118.6,304L119.21,270.59L119.33,304L119.36,304L119.79,303.31L119.79,303.53L119.8,268.32L120.49,304L120.54,264.52L120.57,303.95L120.66,304L120.76,303.77L120.77,263.95L121.52,304L121.52,303.94L121.6,304L122.21,301.73L122.34,304L122.36,304L123.03,301.62L123.11,303.81L123.14,303.94L123.16,304L123.66,302.15L123.88,303.97L123.89,304L124.06,299.67L124.37,303.69L124.37,254.82L125.18,304L125.2,304L125.21,303.26L125.94,303.48L126.03,303.84L126.03,304L126.54,300.29L126.78,304L126.85,303.57L126.89,303.38L127.49,304L127.56,303.98L127.7,303.95L127.79,303.61L127.79,304L127.79,300.39L128.52,304L128.56,303.37L128.63,303.01L129.01,301.42L129.28,304L129.31,303.98L129.43,303.78L129.74,302.86L129.83,303.99L129.83,299.85L129.84,304L129.98,298.76L130.58,303.98L130.59,303.7L130.59,304L131.1,302.36L131.32,304L131.37,303.83L131.54,295.02L132.12,304L132.14,304L132.4,304L132.41,303.24L132.41,304L132.99,292.18L133.09,304L133.22,303.95L133.72,303.34L133.96,303.93L133.96,301.38L133.96,304L134.2,300.97L134.71,303.95L134.75,304L134.88,299.07L135.5,304L135.54,304L136.01,302.56L136.16,304L136.16,296.63L136.35,296.25L136.88,304L136.9,303.94L137.04,303.74L137.16,301.92L137.28,304L137.32,303.54L137.39,301.4L137.81,296.9L138.08,304L138.12,303.99L138.12,296L138.55,281.36L138.83,304L138.86,303.99L138.89,303.95L138.91,304L139.22,300.75L139.22,277.47L139.22,304L139.62,275.88L139.95,303.98L139.99,303.93L139.99,304L140.55,302.26L140.74,304L140.75,304L141.14,301.14L141.45,304L141.51,304L142.12,301.69L142.23,304L142.31,304L143.02,300.7L143.05,304L143.07,304L143.45,302.92L143.56,303.99L143.62,302.37L144.08,300.54L144.41,304L144.42,304L144.9,260.88L145.15,304L145.19,304L145.46,300.01L145.88,303.86L145.96,303.6L146.35,303.35L146.73,304L146.73,303.56L147.36,301.79L147.48,304L147.48,304L147.49,303.69L147.49,304L147.53,301.28L148.21,303.93L148.29,303.03L148.29,304L148.92,301.57L149.03,303.9L149.1,304L149.12,248.83L149.83,303.73L149.86,304L150.12,302.6L150.6,303.71L150.63,303.94L150.65,304L151.15,302.28L151.34,303.49L151.44,304L152.02,303.06L152.13,304L152.2,303.9L152.31,304L152.42,303.58L152.48,304L152.48,299.62L152.97,298.5L153.25,304L153.25,303.39L153.28,304L153.75,300.78L153.92,303.82L154.04,304L154.25,299.04L154.75,304L154.8,303.88L154.9,304L154.9,301.69L155.01,301.49L155.69,304L155.69,303.53L155.72,303.01L156.43,304L156.43,300.97L156.69,299.74L157.13,304L157.17,303.92L157.23,303.06L157.23,304L157.84,291.38L157.98,303.65L157.99,304L158.25,301.88L158.58,304L158.64,304L158.99,301.21L159.37,303.82L159.37,304L159.96,302.69L160.08,304L160.16,304L160.2,301.63L160.88,303.92L160.98,303.82L161.17,301.9L161.27,304L161.27,303.94L161.29,300.14L161.29,304L162.03,295.78L162.05,303.96L162.78,303.29L162.85,303.79L162.85,304L163.46,303.56L163.47,304L163.47,301.59L163.63,301.15L164.12,304L164.13,303.93L164.15,103.16L164.97,304L164.98,303.96L164.99,303.98L165,304L165.21,302.92L165.73,303.91L165.77,303.93L165.94,304L166.37,301.54L166.48,303.99L166.58,303.67L166.58,304L166.98,303.36L167.11,304L167.4,304L168.13,300.69L168.15,303.72L168.16,304L168.89,299.66L168.9,303.92L168.95,303.73L169.15,303.32L169.55,304L169.55,303.86L169.66,303.28L169.66,304L170.41,301.11L170.42,303.85L170.61,302.81L171,304L171.02,301.64L171.02,304L171.67,297.71L171.77,298.5L171.78,304L172.4,292.81L172.42,290.48L172.44,304L172.53,289.43L173.13,304L173.18,304L173.87,302.37L173.94,303.87L174.06,304L174.06,286.15L174.77,304L174.83,303.96L174.88,303.91L174.92,304L174.92,302.97L175.53,304L175.55,304L176.25,297.26L176.25,298.45L176.33,304L176.33,296.94L177.06,304L177.11,304L177.32,293.06L177.83,304L177.87,304L178.16,304L178.16,302.65L178.22,304L178.51,302.55L178.91,304L178.92,303.95L179.05,304L179.47,300.38L179.52,304L179.55,303.95L180.36,304L180.36,302.36L180.67,301.42L181.01,304L181.1,302.73L181.13,304L181.16,302.27L181.88,303.33L181.9,304L182.01,302.28L182.45,303.79L182.45,304L183.01,301.61L183.1,304L183.1,297.82L183.83,304L183.88,303.74L183.88,304L184,302.53L184.62,303.99L184.73,304L185.09,300.68L185.44,304L185.49,304L186.08,300.17L186.24,303.98L186.27,303.95L186.81,304L186.81,303.09L187.56,304L187.56,304L187.59,303.58L187.59,301.52L187.66,304L188.34,303.41L188.43,304L188.89,303.09L189.09,304L189.24,304L189.43,304L189.43,302.85L189.47,304L190.08,297.42L190.18,303.92L190.24,304L190.99,300.45L190.99,304L191.08,300.79L191.08,304L191.08,300.78L191.81,304L191.87,303.65L191.99,304L191.99,303.99L192.03,301.44L192.03,304L192.17,300.44L192.69,303.8L192.79,303.84L192.8,304L193.38,301.01L193.54,304L193.55,303.46L193.55,304L194.16,298.71L194.3,303.95L194.31,303.98L194.92,303.78L194.95,297.71L194.95,304L195.7,303.94L195.71,304L195.86,302.73L196.13,303.63L196.13,304L196.42,303.16L196.44,303.69L196.47,300.18L196.85,284.78L197.22,304L197.28,304L197.74,301.84L197.97,303.94L198.1,304L198.18,300.9L198.8,304L198.87,304L199.08,303.14L199.6,303.89L199.7,303.81L199.9,298.91L200.44,304L200.44,303.87L200.54,297.67L200.54,304L201.28,304L201.3,303.86L201.41,304L201.84,302.46L202.01,304L202.06,304L202.21,302.98L202.77,304L202.91,304L203.42,301.83L203.66,304L203.85,303.06L203.85,304L204.42,287.05L204.54,303.98L204.63,304L204.77,300.87L205.27,304L205.29,303.9L205.29,304L205.49,302.76L206.04,303.94L206.06,302.49L206.27,300.5L206.78,304L206.8,303.95L206.88,304L207,299.05L207.59,303.72L207.64,304L207.73,297.71L208.39,303.45L208.4,303.95L208.67,304L208.72,301.18L208.72,304L209.44,302.43L209.49,304L209.95,298.34L210.24,304L210.25,303.94L210.36,304L210.89,302.62L211.07,303.67L211.08,303.98L211.12,304L211.46,293.71L211.75,304L211.82,304L211.82,292.99L212.53,303.81L212.63,303.81L212.71,302.3L212.79,304L212.79,302.21L212.97,301.94L213.56,304L213.59,304L213.84,302.73L214.2,303.93L214.31,304L214.39,302.05L215.06,304L215.08,304L215.28,300.07L215.73,304L215.86,304L215.95,301.68L216.6,304L216.62,304L217.37,301.57L217.39,304L217.61,302.44L217.86,304L217.86,300.72L217.86,304L218.61,304L218.65,304L219.41,303.02L219.41,303.29L219.41,304L220.13,299.9L220.2,303.76L220.2,304L220.22,299.86L220.92,304L220.99,304L221.43,303.21L221.82,303.83L221.83,304L222.07,303.48L222.57,303.81L222.61,303.98L222.63,304L223.16,301.21L223.35,303.99L223.38,303.91L223.39,304L223.53,300.1L224.08,303.94L224.15,304L224.4,300.17L224.5,304L224.58,304L224.62,303.45L224.94,303.92L224.95,297.51L225.02,304L225.07,296.79L225.69,303.98L225.73,303.98L225.77,304L225.77,302.87L226.45,304L226.48,304L226.49,300.98L227.19,304L227.26,304L227.46,303.1L227.75,303.67L227.75,298.48L227.75,304L228.04,297.3L228.42,303.96L228.52,304L229.24,302.52L229.27,303.99L229.3,303.95L229.35,304L229.54,302.17L229.55,302.98L229.56,293.04L230.31,304L230.33,303.98L230.44,303.8L230.44,304L230.62,303.29L231.19,304L231.24,304L231.69,299.77L231.97,304L232.01,303.65L232.2,302.87L232.71,304L232.75,303.96L232.77,303.97L232.89,304L233,301.54L233.05,304L233.05,293.9L233.65,290.78L233.81,304L233.84,303.95L233.88,303.93L234.02,303.67L234.16,304L234.16,301.23L234.85,304L234.88,303.58L234.94,303.9L235.02,304L235.1,301.57L235.63,304L235.69,304L236.42,275.47L236.53,304L236.66,266.44L237.28,304L237.32,303.35L237.7,301.68L238.08,304L238.08,304L238.14,304L238.36,300.46L238.89,304L238.9,303.5L239.49,299.19L239.66,304L239.7,304L239.84,303.65L239.89,304L239.89,298.33L240.58,297.04L240.64,304L240.7,304L240.72,259.18L241.4,303.98L241.46,303.09L241.54,304L241.6,250.61L242.18,304L242.25,304L242.32,302.47L242.99,304L243.02,304L243.45,300.33L243.77,302.19L243.8,303.97L243.83,304L244.14,299.86L244.55,303.8L244.62,303.87L244.72,304L244.72,244.56L245.48,304L245.48,303.58L245.49,304L245.56,243L246.16,303.34L246.31,304L246.4,302.97L247,304L247.09,304L247.81,225.85L247.84,303.94L247.89,303.8L247.89,304L248.56,176.28L248.58,303.61L248.65,304L248.8,301.57L249.39,304L249.43,304L249.75,301.87L250.09,303.55L250.09,304L250.23,303.33L250.79,303.58L250.85,303.95L250.86,304L250.88,170.18L251.6,304L251.61,304L252.33,301.86L252.35,303.69L252.38,303.43L252.38,304L252.65,144.95L253.11,304L253.15,303.86L253.22,303.2L253.55,304L253.55,301.96L253.55,304L254.08,300.97L254.27,304L254.38,303.87L254.4,304L254.45,303.39L255.13,304L255.16,303.06L255.16,304L255.59,301.31L255.91,303.78L255.93,304L256.48,303.17L256.64,303.8L256.73,304L257.36,297.96L257.48,304L257.5,304L257.91,294.65L257.98,304L258,134.47L258.05,134.31L258.08,304L258.7,303.15L258.8,303.96L258.85,304L259.43,301.59L259.59,303.97L259.61,303.97L259.64,304L259.84,303.22L260.29,303.83L260.31,129.57L261.01,304L261.08,304L261.47,301.9L261.82,304L261.87,303.86L261.91,304L262.52,122.15L262.57,303.34L262.62,304L262.66,302.61L262.68,303.97L262.68,116.12L262.71,115.31L263.36,304L263.49,303.38L263.49,304L264.01,301.41L264.21,303.66L264.26,303.91L264.36,304L264.63,302.57L264.69,304L264.7,304L265.23,300.13L265.44,303.4L265.48,303.07L265.56,302.75L266.19,304L266.19,303.56L266.26,303.2L266.28,302.77L266.94,304L266.98,303.77L267.05,303.89L267.06,303.6L267.14,304L267.79,303.78L267.81,303.89L268.04,304L268.04,302L268.58,298.62L268.77,304L268.78,303.97L268.8,303.97L268.86,304L268.99,303.11L269.55,303.92L269.55,303.98L269.67,304L270.03,298.62L270.28,304L270.39,304L270.77,302.51L271.14,304L271.22,304L271.48,298.33L271.91,303.97L271.97,304L272.08,302.26L272.56,304L272.56,83.5L272.56,304L273.29,304L273.35,302.8L273.9,299.05L274.04,304L274.09,303.89L274.11,303.51L274.16,304L274.48,300.31L274.73,303.81L274.73,304L274.82,303.72L274.82,303.93L274.83,296.92L274.83,304L275.55,303.22L275.68,303.65L275.68,304L276.39,293.65L276.39,304L276.44,303.85L276.62,304L276.99,290.91L277.17,303.94L277.19,304L277.44,303.65L277.48,281.09L278.28,304L278.28,303.57L278.29,303.79L278.34,304L278.34,301.85L278.43,304L278.43,275.42L279.17,304L279.17,303.39L279.29,303.21L279.29,304L280.01,298.16L280.02,304L280.06,304L280.42,295.7L280.79,303.64L280.82,303.44L280.82,304L281.52,303.33L281.52,304L281.61,304L282.36,299.61L282.36,299.72L282.45,303.84L282.45,304L282.57,299.01L283.1,304L283.21,303.61L283.21,304L283.84,294.88L283.96,303.59L284.01,303.91L284.16,303.86L284.17,302.47L284.17,304L284.88,299.14L284.91,303.75L284.93,303.97L285.67,302.1L285.73,304L285.83,300.52L286.48,303.98L286.5,303.37L286.5,304L287.15,301.07L287.24,304L287.28,303.91L287.3,304L287.75,293.45L288,304L288.03,304L288.3,302.16L288.67,303.16L288.79,304L289.45,301.3L289.52,304L289.56,303.37L289.59,304L289.72,275.19L290.12,303.89L290.16,303.93L290.26,304L290.68,302.72L290.89,304L290.92,304L291.31,302.15L291.67,304L291.68,303.99L291.75,304L292.18,299.54L292.23,303.79L292.47,303.89L292.52,304L292.53,302.63L293.15,303.95L293.24,304L293.83,302.24L293.99,303.82L294,304L294.06,302.76L294.66,304L294.78,304L294.78,302.94L295.52,303.9L295.56,304L296.11,297.76L296.31,303.59L296.38,303.78L296.52,302.85L296.77,304L296.8,296.38L297.59,304L297.61,303.84L297.64,304L298.03,299.12L298.1,303.65L298.1,288.42L298.3,287.31L298.9,304L298.9,303.97L298.96,303.88L299.05,304L299.05,302.74L299.05,304L299.59,290.2L299.7,304L299.86,304L300.17,301.35L300.59,303.53L300.64,303.9L300.69,304L301.13,299.53L301.38,303.92L301.41,303.94L301.48,304L301.83,301.87L302.1,303.88L302.18,304L302.34,300.75L302.93,303.75L302.94,304L303.71,299.93L303.71,304L303.71,299.92L304.45,302.66L304.5,304L304.61,303.86L304.68,304L304.68,292.94L305.01,292.28L305.44,304L305.5,303.6L305.52,301.02L305.58,304L305.6,303.67L305.6,273.68L305.69,270.34L306.23,304L306.42,304L307.06,301.36L307.11,304L307.22,303.8L307.22,304L307.39,300.05L307.97,304L307.98,302.53L307.98,304L308.37,300.82L308.65,303.95L308.74,304L308.95,293.27L309.47,304L309.63,302.85L310,285.97L310.02,304L310.07,303.7L310.1,16L310.1,304L310.74,302.5L310.86,304L311.35,301.7L311.61,303.79L311.71,304L312.1,300.24L312.24,303.96L312.26,304L312.42,302.84L312.46,304L312.47,299.01L312.47,304L313.2,295.51L313.22,304L313.24,304L313.44,303.82L313.51,304L313.53,294.2L313.56,304L314.12,254.41L314.23,303.81L314.38,304L315,303.23L315.19,303.28L315.19,304L315.58,301.25L315.75,304L315.76,207.3L315.76,304L315.78,207.17L316.5,303.99L316.53,304L316.57,303.76L316.76,304L316.76,201.29L316.76,304L317.48,187.65L317.5,304L317.53,303.91L317.68,303.54L317.95,304L317.95,302.91L317.96,304L318.28,302.11L318.69,303.98L318.73,303.93L318.77,304L318.94,301.25L318.98,182.44L318.98,304L319.4,181.29L319.7,304L319.77,303.17L319.77,304L320.47,301.87L320.5,303.82L320.55,304L320.56,301.08L321.25,303.82L321.32,303.87L321.39,304L321.86,296.64L321.9,303.93L321.9,172.96L322,172.67L322.63,304L322.68,303.82L322.8,304L322.8,171.02L323.53,304L323.56,304L324.09,300.84L324.29,302.26L324.29,168.36L325.03,304L325.03,303.7L325.07,303.84L325.17,300.69L325.61,304L325.61,165.8L325.97,165.14L326.4,304L326.4,304L326.42,304L326.45,301.76L327.17,303.96L327.18,303.97L327.28,304L327.92,298.49L327.92,304L327.93,304L327.97,303.12L328.64,303.69L328.71,303.87L328.83,304L329.15,301.68L329.41,304L329.49,303.76L329.49,304L329.97,293.84L330.21,303.83L330.25,303.95L330.42,304L330.46,301.91L330.46,304L331.04,300.7L331.16,303.8L331.25,303.63L331.49,301.44L331.97,304L331.99,303.98L332.01,303.78L332.05,304L332.05,300.41L332.27,303.8L332.28,289.71L332.48,289.19L332.97,304L332.99,303.9L333.04,303.23L333.51,304L333.51,304L333.54,283.82L333.54,304L333.54,283.36L334.25,303.84L334.3,303.85L334.32,303.42L334.33,304L334.77,304L334.77,281.02L334.77,304L335.5,303.94L335.55,304L336.26,278.2L336.3,304L336.65,304L336.65,277.5L336.65,304L337.29,303.97L337.45,301.42L337.45,304L337.5,298.96L338.18,303.98L338.28,303.78L338.72,301.19L338.9,304L338.9,300.82L339.66,304L339.66,303.81L339.76,302.28L340.36,304L340.38,303.57L340.46,304L340.46,303.35L341.2,303.52L341.23,304L341.24,267.87L341.94,304L341.99,303.68L341.99,304L342.22,262.05L342.71,304L342.8,304L342.8,260.83L343.5,304L343.57,304L343.83,296.36L344.31,303.47L344.36,303.38L344.36,304L344.59,302.67L345.08,303.94L345.14,304L345.36,302.8L345.88,304L345.9,304L346.26,302.15L346.42,304L346.45,303.95L346.46,304L346.67,301.01L347.19,304L347.21,303.85L347.23,304L347.9,301.71L347.93,301.86L347.98,303.91L348.06,304L348.59,299.73L348.67,302.56L348.73,304L348.73,299.26L349.4,304L349.5,303.87L349.88,303.96L349.88,303L349.95,304L350.6,298.87L350.62,303.98L350.65,304L350.65,301.28L351.4,303.75L351.42,304L351.92,303.04L352.13,304L352.19,304L352.6,303.15L352.97,303.86L352.98,304L353.05,302.24L353.08,304L353.17,304L353.24,303.55L353.25,297.97L353.3,304L353.71,296.47L353.74,304L353.76,296.69L354.49,303.64L354.55,303.61L354.55,304L355.05,301.33L355.3,304L355.31,303.49L355.31,304L355.94,299.98L355.99,304L356.07,304L356.1,300.09L356.8,303.56L356.88,303.71L356.91,304L357.08,297.82L357.14,303.81L357.22,304L357.8,301.71L358,303.6L358.07,304L358.61,301.18L358.72,303.99L358.96,303.92L358.98,304L359.6,302.87L359.7,304L359.71,304L360.07,303.08L360.07,303.87L360.07,301.55L360.07,304L360.23,300.62L360.74,304L360.91,302.49L361.1,298.45L361.69,304L361.71,303.68L361.73,303.11L361.77,304L362.33,302.61L362.47,303.2L362.5,303.79L362.5,304L362.7,299.1L363.24,303.86L363.31,303.89L363.43,304L363.53,300.92L364.05,303.49L364.05,304L364.47,294.99L364.57,303.93L364.59,303.98L364.82,304L365.01,275.09L365.33,303.99L365.34,304L365.88,303.39L366.08,303.81L366.09,304L366.37,302.14L366.7,304L366.7,271.79L367.31,269.18L367.48,304L367.49,304L367.71,302.88L368.12,303.64L368.12,304L368.54,301.16L368.64,303.84L368.65,304L369.29,302.69L369.38,304L369.53,303.05L369.53,304L370.1,300.54L370.24,304L370.33,304L370.51,299.2L370.75,303.9L370.79,303.94L370.83,304L371.15,301.15L371.5,303.94L371.54,304L371.96,301.36L372.29,303.85L372.31,304L372.92,258.57L373,303.93L373.08,253.5L373.09,304L373.74,303.86L373.84,304L373.98,294.28L374.57,303.99L374.66,303.8L375.18,303.07L375.48,304L375.49,304L376.16,302.97L376.2,303.83L376.26,304L376.37,303.65L376.47,304L376.5,300.56L376.65,304L377.24,303.98L377.29,304L377.55,298.49L378.04,303.38L378.08,304L378.79,300.85L378.8,303.99L378.86,304L379.4,303.08L379.55,303.5L379.64,303.95L379.7,304L379.74,302.47L380.31,303.45L380.33,67.07L381.09,304L381.09,303.92L381.12,303.95L381.14,304L381.72,300.97L381.87,303.9L381.87,304L382.01,303.44L382.35,303.72L382.38,299.67L382.38,304L383.08,304L383.19,303.77L383.19,304L383.47,302.08L383.91,304L384.01,304L384.34,302.63L384.72,304L384.78,304L385.19,302.21L385.54,303.48L385.54,304L385.57,301.61L386.28,303.87L386.34,303.71L386.34,304L386.57,301.38L387.09,303.97L387.22,304L387.72,301.25L387.96,304L387.99,304L388.12,303.17L388.15,304L388.15,298.36L388.58,287.84L388.98,304L388.98,302.62L389.51,294.17L389.51,304L389.53,303.97L389.59,290.22L389.87,288.59L390.32,304L390.39,303.81L390.85,302.61L391.1,304L391.18,304L391.8,301.34L391.91,303.76L391.95,303.94L392.1,304L392.61,299.43L392.71,303.79L392.72,303.98L392.77,304L393.31,297.39L393.44,303.92L393.5,304L393.96,295.79L394.07,303.92L394.08,304L394.48,294.82L394.63,303.76L394.66,303.89L394.67,301.43L394.72,304L395.4,304L395.44,304L395.53,303.46L395.6,304L395.6,291.3L395.99,273.95L396.32,304L396.35,298.42L396.41,303.9L396.47,303.46L396.48,304L396.48,298.19L397.23,304L397.3,304L397.68,301.57L397.68,304L398.23,302.82L398.39,303.9L398.45,304L398.96,300.8L399.2,303.28L399.27,304L399.55,300.8L399.55,304L399.62,304L399.75,301.4L400.18,303.76L400.22,303.9L400.32,304L400.66,302.85L400.96,304L400.96,294.89L401.36,294.11L401.84,304L401.84,303.93L401.86,303.96L401.96,304L402.37,293.67L402.59,303.76L402.6,259.23L402.61,304L403.31,303.8L403.45,304L403.84,300.4L404.2,302.98L404.21,303.98L404.42,302.59L404.47,303.92L404.51,304L404.7,301.51L404.73,303.97L404.75,303.98L404.83,304L405.22,299.62L405.45,303.79L405.45,252.51L405.94,249.21L406.25,304L406.25,303.76L406.28,303.8L406.34,304L406.99,300.29L407.02,303.72L407.15,304L407.25,302.4L407.89,303.91L407.93,304L408.32,301.76L408.67,304L408.7,304L408.91,303.3L409.43,304L409.47,304L409.65,301.6L410.06,304L410.19,304L410.77,301.13L410.92,303.98L410.95,304L411.42,298.83L411.42,304L411.52,301.92L412.09,303.99L412.14,304L412.17,302.78L412.88,303.64L412.94,304L413.58,302.68L413.69,304L413.76,304L414.5,300.7L414.5,304L414.58,304L415.01,302.41L415.3,303.71L415.36,304L415.53,302.75L416.03,304L416.04,304L416.21,297.4L416.79,303.92L416.88,303.87L417.03,303.08L417.45,303.91L417.45,294.83L417.55,304L418.2,303.99L418.22,303.96L418.35,304L418.94,302.75L418.97,302.99L418.97,304L419.28,297.81L419.72,303.95L419.73,303.99L419.78,304L419.78,298.98L419.89,303.75L420.04,304L420.35,304L420.37,303.19L420.37,304L420.79,301.36L421.12,304L421.16,303.84L421.16,304L421.85,302.81L421.89,303.84L421.94,304L422.62,298.06L422.68,304L422.71,304L422.83,303.58L423.06,304L423.06,297.08L423.17,304L423.2,296.71L423.77,303.92L423.86,303.64L424.31,299.57L424.6,304L424.7,304L424.84,302.23L425.45,304L425.48,304L425.83,302.29L426.23,303.67L426.29,303.9L426.33,304L426.94,303.31L427.01,304L427.06,304L427.34,302.12L427.81,303.98L427.83,303.96L427.96,304L428.18,295.12L428.56,304L428.59,304L428.66,303.46L428.83,304L428.83,284.59L429.13,283.5L429.57,304L429.63,303.44L430.06,302.39L430.35,304L430.35,303.88L430.36,281.14L430.36,304L430.56,280.66L431.08,304L431.13,303.6L431.13,304L431.72,300.14L431.84,304L431.9,304L432.57,295.8L432.59,295.88L432.66,295.97L432.66,304L432.79,295.15L433.36,304L433.42,303.73L433.42,304L433.49,293.17L434.14,303.95L434.19,304L434.88,303L434.96,303.55L434.96,304L435.21,303.9L435.21,303.96L435.27,302.89L435.28,304L435.91,300.65L435.97,303.78L436.01,304L436.37,298.17L436.5,304L436.51,304L437.23,292.13L437.26,303.88L437.27,303.87L437.33,304L438,302.67L438.03,303.89L438.04,303.98L438.46,303.11L438.77,303.7L438.8,304L438.94,302.87L439.41,303.01L439.49,304L440.14,301.62L440.22,304L440.25,304L440.76,301.51L440.99,303.61L441.05,304L441.17,293.98L441.78,303.99L441.84,304L442.03,303.05L442.13,304L442.13,289.92L442.9,304L442.9,303.99L442.96,304L443.25,303.28L443.73,303.69L443.74,303.66L443.78,304L444.11,302.6L444.47,304L444.54,304L444.94,299.15L445.29,304L445.34,304L445.91,302.14L446.01,304L446.11,303.71L446.64,299.9L446.81,304L446.81,303.83L446.96,304L447.66,292.3L447.67,302.72L447.74,304L448.19,303.29L448.38,303.74L448.51,304L448.54,290.65L449.26,303.99L449.27,303.98L449.32,303.14L449.32,304L449.97,304L450.12,303.64L450.12,304L450.26,286.68L450.85,303.71L450.88,303.93L450.94,304L450.95,302.89L451.61,303.95L451.64,303.92L451.73,304L452.26,297.6L452.37,303.74L452.43,303.55L452.54,303.19L453.19,304L453.19,303.95L453.2,303.78L453.2,304L453.5,300.3L453.95,304L453.97,303.63L453.97,304L454.64,297.42L454.68,302.55L454.73,303.91L454.73,304L455.16,227.21L455.46,304L455.49,303.94L455.6,304L455.77,303.04L455.84,303.68L455.85,225.35L456.54,223.18L456.6,304L456.61,303.95L456.68,304L456.68,303.72L456.8,304L456.8,222.3L456.84,222.2L457.56,304L457.64,304L458.13,303.23L458.16,304L458.16,301.14L458.88,304L458.88,300.67L458.9,303.96L459.02,303.9L459.04,304L459.42,299.38L459.75,304L459.78,303.87L459.88,304L460.32,297.59L460.39,303.86L460.4,304L460.74,301.11L461.14,303.99L461.17,303.94L461.3,304L461.3,303.68L461.31,300.11L461.36,299.09L461.36,304L461.54,304L461.54,208.82L461.61,208.68L462.2,304L462.29,298.79L462.32,205.7L462.48,204.6L463.07,304L463.16,304L463.82,199.41L463.9,303.92L463.93,303.24L463.99,301.78L464.54,304L464.64,303.95L464.75,304L464.83,302.1L465.5,304L465.53,304L465.63,303.85L465.65,304L465.66,301.87L466.26,299.23L466.31,304L466.41,303.95L466.47,303.89L466.49,304L467.03,297.04L467.21,304L467.23,303.94L467.31,304L467.91,302.78L468.03,302.99L468.08,303.95L468.13,304L468.76,300.44L468.81,303.71L468.84,304L469.46,302.7L469.53,304L469.65,304L470.4,296.24L470.42,304L470.43,296.89L471.17,304L471.19,303.52L471.19,304L471.82,290.32L471.94,303.98L472.04,303.82L472.08,303.54L472.81,304L472.81,303.75L473.31,301.45L473.4,304L473.41,300.48L473.42,300.3L473.46,304L473.97,303.89L474.01,303.63L474.16,302.71L474.74,304L474.74,303.34L474.81,304L475.19,301.81L475.56,304L475.59,304L475.63,303.73L475.63,304L475.65,298.59L475.65,304L476.13,296.78L476.39,303.96L476.41,303.98L476.94,303.08L477.2,304L477.2,300.39L477.91,304L477.98,303.76L477.98,304L478.46,301.66L478.72,303.81L478.81,304L479.16,299.47L479.56,304L479.64,304L480.4,296.4L480.4,304L480.95,303.29L481.17,303.94L481.2,304L481.52,294.37L481.89,303.93L481.99,303.15L481.99,304L482,302.87L482.74,303.47L482.8,303.43L482.8,304L483.06,303.05L483.55,303.84L483.57,304L483.76,297.75L484.31,303.87L484.45,304L485.11,293.48L485.2,304L485.21,304L485.31,303.64L485.47,303.89L485.47,292.51L485.62,292.29L486.2,304L486.25,304L487.01,298.4L487.01,304L487.23,298L487.38,303.97L487.42,304L487.79,301.5L488.17,304L488.19,304L488.9,299.46L488.94,303.92L488.96,304L488.96,300.57L489.7,304L489.76,304L489.84,303.5L490.16,304L490.2,282.84L490.2,304L490.59,281.37L490.94,304L490.96,304L491.67,302.42L491.74,303.88L491.8,303.87L491.86,304L492.09,301.52L492.19,303.98L492.2,304L492.65,300.34L492.95,304L492.99,303.64L493.09,304L493.23,302.73L493.23,299.22L493.23,304L493.23,298.99L493.97,303.96L493.99,303.97L494,304L494,303.57" style="vector-effect: non-scaling-stroke; fill: none; stroke: rgb(99, 110, 250); stroke-opacity: 1; stroke-width: 2px; opacity: 1;"/></g><g class="points"/><g class="text"/></g></g></g><g class="overplot"/><path class="xlines-above crisp" d="M0,0" style="fill: none;"/><path class="ylines-above crisp" d="M0,0" style="fill: none;"/><g class="overlines-above"/><g class="xaxislayer-above"><g class="xtick"><text text-anchor="middle" x="0" y="436" transform="translate(212.23000000000002,0)" style="font-family: 'Times New Roman'; font-size: 15px; fill: rgb(13, 13, 13); fill-opacity: 1; white-space: pre; opacity: 1;">1.61252×10​<tspan style="font-size:70%" dy="-0.6em">18</tspan><tspan dy="0.42em">​</tspan></text></g><g class="xtick"><text text-anchor="middle" x="0" y="436" style="font-family: 'Times New Roman'; font-size: 15px; fill: rgb(13, 13, 13); fill-opacity: 1; white-space: pre; opacity: 1;" transform="translate(310.27,0)">1.612525×10​<tspan style="font-size:70%" dy="-0.6em">18</tspan><tspan dy="0.42em">​</tspan></text></g><g class="xtick"><text text-anchor="middle" x="0" y="436" style="font-family: 'Times New Roman'; font-size: 15px; fill: rgb(13, 13, 13); fill-opacity: 1; white-space: pre; opacity: 1;" transform="translate(408.3,0)">1.61253×10​<tspan style="font-size:70%" dy="-0.6em">18</tspan><tspan dy="0.42em">​</tspan></text></g><g class="xtick"><text text-anchor="middle" x="0" y="436" style="font-family: 'Times New Roman'; font-size: 15px; fill: rgb(13, 13, 13); fill-opacity: 1; white-space: pre; opacity: 1;" transform="translate(506.34,0)">1.612535×10​<tspan style="font-size:70%" dy="-0.6em">18</tspan><tspan dy="0.42em">​</tspan></text></g><g class="xtick"><text text-anchor="middle" x="0" y="436" style="font-family: 'Times New Roman'; font-size: 15px; fill: rgb(13, 13, 13); fill-opacity: 1; white-space: pre; opacity: 1;" transform="translate(604.38,0)">1.61254×10​<tspan style="font-size:70%" dy="-0.6em">18</tspan><tspan dy="0.42em">​</tspan></text></g></g><g class="yaxislayer-above"><g class="ytick"><text text-anchor="end" x="125" y="12.25" transform="translate(0,404)" style="font-family: 'Times New Roman'; font-size: 35px; fill: rgb(13, 13, 13); fill-opacity: 1; white-space: pre; opacity: 1;">0</text></g><g class="ytick"><text text-anchor="end" x="125" y="12.25" style="font-family: 'Times New Roman'; font-size: 35px; fill: rgb(13, 13, 13); fill-opacity: 1; white-space: pre; opacity: 1;" transform="translate(0,333.95)">2000</text></g><g class="ytick"><text text-anchor="end" x="125" y="12.25" style="font-family: 'Times New Roman'; font-size: 35px; fill: rgb(13, 13, 13); fill-opacity: 1; white-space: pre; opacity: 1;" transform="translate(0,263.9)">4000</text></g><g class="ytick"><text text-anchor="end" x="125" y="12.25" style="font-family: 'Times New Roman'; font-size: 35px; fill: rgb(13, 13, 13); fill-opacity: 1; white-space: pre; opacity: 1;" transform="translate(0,193.85)">6000</text></g><g class="ytick"><text text-anchor="end" x="125" y="12.25" style="font-family: 'Times New Roman'; font-size: 35px; fill: rgb(13, 13, 13); fill-opacity: 1; white-space: pre; opacity: 1;" transform="translate(0,123.8)">8000</text></g></g><g class="overaxes-above"/></g></g><g class="polarlayer"/><g class="smithlayer"/><g class="ternarylayer"/><g class="geolayer"/><g class="funnelarealayer"/><g class="pielayer"/><g class="iciclelayer"/><g class="treemaplayer"/><g class="sunburstlayer"/><g class="glimages"/><defs id="topdefs-d5b834"><g class="clips"/></defs><g class="layer-above"><g class="imagelayer"/><g class="shapelayer"/></g><g class="infolayer"><g class="g-gtitle"/><g class="g-xtitle"><text class="xtitle" x="373" y="463.8" text-anchor="middle" style="font-family: 'Open Sans', verdana, arial, sans-serif; font-size: 14px; fill: rgb(42, 63, 95); opacity: 1; font-weight: normal; white-space: pre;">Time Steps (ns)</text></g><g class="g-ytitle" transform="translate(24,0)"><text class="ytitle" transform="rotate(-90,12,260)" x="12" y="260" text-anchor="middle" style="font-family: 'Times New Roman'; font-size: 40px; fill: rgb(13, 13, 13); opacity: 1; font-weight: normal; white-space: pre;">Speed (in sec.)</text></g></g></svg>