<svg class="main-svg" xmlns="http://www.w3.org/2000/svg" xmlns:xlink="http://www.w3.org/1999/xlink" width="700" height="500" style="" viewBox="0 0 700 500"><rect x="0" y="0" width="700" height="500" style="fill: rgb(255, 255, 255); fill-opacity: 1;"/><defs id="defs-6ef39c"><g class="clips"><clipPath id="clip6ef39cxyplot" class="plotclip"><rect width="494" height="320"/></clipPath><clipPath class="axesclip" id="clip6ef39cx"><rect x="126" y="0" width="494" height="500"/></clipPath><clipPath class="axesclip" id="clip6ef39cy"><rect x="0" y="100" width="700" height="320"/></clipPath><clipPath class="axesclip" id="clip6ef39cxy"><rect x="126" y="100" width="494" height="320"/></clipPath></g><g class="gradients"/><g class="patterns"/></defs><g class="bglayer"><rect class="bg" x="126" y="100" width="494" height="320" style="fill: rgb(229, 236, 246); fill-opacity: 1; stroke-width: 0;"/></g><g class="layer-below"><g class="imagelayer"/><g class="shapelayer"/></g><g class="cartesianlayer"><g class="subplot xy"><g class="layer-subplot"><g class="shapelayer"/><g class="imagelayer"/></g><g class="minor-gridlayer"><g class="x"/><g class="y"/></g><g class="gridlayer"><g class="x"><path class="xgrid crisp" transform="translate(212.2,0)" d="M0,100v320" style="stroke: rgb(255, 255, 255); stroke-opacity: 1; stroke-width: 1px;"/><path class="xgrid crisp" transform="translate(310.23,0)" d="M0,100v320" style="stroke: rgb(255, 255, 255); stroke-opacity: 1; stroke-width: 1px;"/><path class="xgrid crisp" transform="translate(408.26,0)" d="M0,100v320" style="stroke: rgb(255, 255, 255); stroke-opacity: 1; stroke-width: 1px;"/><path class="xgrid crisp" transform="translate(506.29,0)" d="M0,100v320" style="stroke: rgb(255, 255, 255); stroke-opacity: 1; stroke-width: 1px;"/><path class="xgrid crisp" transform="translate(604.3199999999999,0)" d="M0,100v320" style="stroke: rgb(255, 255, 255); stroke-opacity: 1; stroke-width: 1px;"/></g><g class="y"><path class="ygrid crisp" transform="translate(0,367.68)" d="M126,0h494" style="stroke: rgb(255, 255, 255); stroke-opacity: 1; stroke-width: 1px;"/><path class="ygrid crisp" transform="translate(0,331.35)" d="M126,0h494" style="stroke: rgb(255, 255, 255); stroke-opacity: 1; stroke-width: 1px;"/><path class="ygrid crisp" transform="translate(0,295.03)" d="M126,0h494" style="stroke: rgb(255, 255, 255); stroke-opacity: 1; stroke-width: 1px;"/><path class="ygrid crisp" transform="translate(0,258.71000000000004)" d="M126,0h494" style="stroke: rgb(255, 255, 255); stroke-opacity: 1; stroke-width: 1px;"/><path class="ygrid crisp" transform="translate(0,222.38)" d="M126,0h494" style="stroke: rgb(255, 255, 255); stroke-opacity: 1; stroke-width: 1px;"/><path class="ygrid crisp" transform="translate(0,186.06)" d="M126,0h494" style="stroke: rgb(255, 255, 255); stroke-opacity: 1; stroke-width: 1px;"/><path class="ygrid crisp" transform="translate(0,149.74)" d="M126,0h494" style="stroke: rgb(255, 255, 255); stroke-opacity: 1; stroke-width: 1px;"/><path class="ygrid crisp" transform="translate(0,113.41)" d="M126,0h494" style="stroke: rgb(255, 255, 255); stroke-opacity: 1; stroke-width: 1px;"/></g></g><g class="zerolinelayer"><path class="yzl zl crisp" transform="translate(0,404)" d="M126,0h494" style="stroke: rgb(255, 255, 255); stroke-opacity: 1; stroke-width: 2px;"/></g><path class="xlines-below"/><path class="ylines-below"/><g class="overlines-below"/><g class="xaxislayer-below"/><g class="yaxislayer-below"/><g class="overaxes-below"/><g class="plot" transform="translate(126,100)" clip-path="url(#clip6ef39cxyplot)"><g class="scatterlayer mlayer"><g class="trace scatter trace303083" style="stroke-miterlimit: 2; opacity: 1;"><g class="fills"/><g class="errorbars"/><g class="lines"><path class="js-line" d="M0,304L0.47,303.94L0.49,303.03L0.91,302.28L1.18,304L1.3,304L2.04,302.97L2.09,303.02L2.09,304L2.33,302.68L2.8,303.64L2.86,303.92L2.98,303.66L3.23,303.83L3.23,299.39L3.23,304L3.57,297.45L3.87,304L3.99,302.84L3.99,304L4.35,299.95L4.71,300.25L4.78,304L5.01,299.7L5.4,303.74L5.56,303.94L5.67,304L5.67,302.88L6.36,303.32L6.36,304L6.71,301.3L6.94,304L6.98,304L7.11,303.14L7.73,303.84L7.76,303.88L7.87,304L8.12,303.03L8.21,304L8.21,299L8.93,292.92L8.96,304L8.96,294.02L8.96,304L9.65,304L9.74,303.8L9.93,303.63L10.21,304L10.21,302.38L10.43,298.93L10.97,304L10.97,303.96L11.01,304L11.48,301.27L11.57,304L11.66,303.79L11.66,304L12.26,299.32L12.41,303.61L12.42,304L13.09,297L13.13,304L13.18,297.23L13.86,304L13.92,301.88L13.92,304L14.55,302.98L14.7,303.24L14.7,304L14.91,302.6L15.43,304L15.46,304L15.72,295.41L16.19,304L16.26,304L16.26,303.18L16.93,304L17.03,304L17.64,301.34L17.72,303.98L17.83,303.79L17.83,304L17.97,290.9L18.52,303.99L18.61,304L19.21,302.71L19.45,303.55L19.45,304L19.81,301.59L19.88,303.89L20,304L20.27,300.42L20.3,304L20.45,300.42L20.8,303.49L20.8,304L21.14,302.98L21.55,303.95L21.56,304L21.64,303.49L21.77,303.74L21.79,297.92L21.79,304L22.52,303.94L22.55,304L22.68,303.78L22.68,300L22.68,304L22.92,299.4L23.43,304L23.46,304L23.72,302.62L24.19,304L24.24,304L24.31,301.72L24.98,303.52L24.98,304L25.73,293.29L25.73,304L25.74,303.88L25.93,303.53L26.28,304L26.28,304L26.38,303.05L26.38,304L26.66,302.75L27.1,303.68L27.18,304L27.22,300.94L27.86,304L27.95,304L28.53,302.41L28.7,304L28.77,304L29.45,301.01L29.49,302.76L29.53,304L29.9,303.93L29.9,304L29.91,300.49L29.91,304L29.91,300.17L30.58,304L30.7,303.92L30.8,304L30.94,302.81L31.46,303.67L31.47,304L31.94,300.01L32.22,303.95L32.23,304L32.34,303.81L32.39,298.64L32.39,304L32.8,295.7L33.06,295.77L33.28,303.67L33.28,304L33.63,301.59L34.02,304L34.12,304L34.35,299.72L34.49,304L34.49,298.29L34.49,304L35.24,303.95L35.25,303.99L35.29,304L35.92,301.55L35.96,303.45L36.03,304L36.45,302.42L36.77,303.89L36.8,303.86L36.96,304L37.02,303.22L37.02,269.28L37.77,304L37.77,301.82L37.78,303.77L38.24,303.27L38.41,304L38.46,303.67L38.46,302.14L38.46,304L39.2,304L39.22,304L39.46,298.53L39.97,303.96L40.02,304L40.24,302.77L40.48,303.23L40.48,299.51L40.48,304L40.8,298.43L41.14,304L41.26,304L41.76,302.18L42.01,303.99L42.04,303.95L42.09,304L42.76,257.45L42.81,303.91L42.99,303.66L42.99,304L42.99,256.58L43.74,304L43.83,303.85L43.92,304L44.5,302.82L44.57,303.88L44.57,304L45.29,301.86L45.32,303.97L45.4,303.84L46,303.5L46.06,304L46.06,302.21L46.1,304L46.23,299.55L46.75,304L46.82,302.96L46.82,304L47.14,301.99L47.57,303.81L47.58,304L47.72,303.54L47.88,304L47.88,301.34L48.2,300.8L48.62,304L48.62,304L48.65,304L48.68,299.37L49.17,304L49.21,304L49.61,302.23L49.96,303.9L49.99,303.96L50.09,304L50.41,301.88L50.81,303.29L50.81,304L51.28,299.34L51.36,304L51.4,304L51.58,209.07L52.15,304L52.17,303.81L52.17,304L52.6,301.21L52.92,303.97L52.93,304L53.65,303.22L53.68,304L53.7,303.9L53.91,304L54.32,302.11L54.43,304L54.45,304L55.01,299.53L55.23,302.51L55.23,304L55.28,299.47L55.98,304L56.06,302.7L56.34,294.57L56.79,304L56.82,303.64L56.82,304L56.85,302.54L57.54,304L57.59,303.8L57.59,304L58,291.1L58.32,303.89L58.35,288.17L58.38,304L58.89,280.11L59.07,303.87L59.14,303.87L59.17,303.51L59.27,304L59.44,303.88L59.45,278.94L60.2,304L60.25,303.83L60.25,304L60.74,271.53L60.99,303.65L61.04,303.79L61.04,304L61.05,270.78L61.75,304L61.81,303.77L61.81,304L62.23,298.57L62.55,304L62.57,304L62.78,301.38L63.31,302.86L63.35,303.93L63.41,303.99L63.53,300.03L63.8,303.56L63.84,303.8L63.96,304L64.03,301.23L64.56,303.86L64.63,304L65.26,302.47L65.35,303.93L65.4,304L65.79,300.89L66.07,304L66.23,304L66.69,301.76L66.94,302.02L66.95,303.98L67.01,304L67.7,299.26L67.74,304L68.38,303.41L68.56,303.88L68.56,304L68.77,301.58L69.02,304L69.09,304L69.16,295.88L69.83,304L69.86,303.52L69.86,304L70.44,301.03L70.61,303.97L70.63,304L70.9,303.61L70.92,303.71L70.92,291.02L70.92,304L71.65,289.41L71.65,302.51L71.68,303.39L71.72,304L71.75,249.73L72.51,304L72.51,303.82L72.53,303.75L72.53,304L72.67,300.62L73.28,304L73.29,303.82L73.37,304L73.71,298.68L74.03,303.95L74.03,304L74.44,303.76L74.44,303.08L74.44,304L74.98,302.67L75.19,303.75L75.23,304L75.61,303.23L75.99,304L76.02,304L76.6,301.21L76.79,303.41L76.79,303.84L76.79,304L77.24,301.67L77.54,303.84L77.55,304L77.66,303.49L77.75,304L77.75,300.76L78.47,304L78.51,303.98L78.54,303.95L78.61,294.84L78.73,304L79.2,304L79.3,304L79.3,293.54L80.01,304L80.07,291.45L80.15,304L80.15,291.21L80.82,303.03L80.84,303.61L80.94,304L81,303.04L81.2,287.12L81.2,304L81.29,286.7L81.84,303.62L81.97,303.47L81.97,304L82.54,302.31L82.72,304L82.73,302.05L82.88,304L82.89,274.48L83.61,304L83.63,300.3L83.67,303.93L83.82,304L84.25,302.91L84.26,304L84.26,299.22L84.41,256.17L84.98,304L85.03,303.91L85.12,304L85.42,302.71L85.44,304L85.47,304L85.96,303.41L86.13,303.9L86.25,304L86.7,302.54L86.99,304L87.03,303.64L87.03,304L87.75,300.34L87.81,303.71L87.94,299.5L87.95,304L88.56,303.13L88.56,304L89.12,303.25L89.12,303.95L89.17,302.16L89.17,304L89.49,301.31L89.9,303.85L89.98,303.84L89.99,304L90.69,302.62L90.69,304L90.75,304L91.04,300.4L91.5,304L91.51,303.93L91.53,301.95L91.53,304L92.16,304L92.26,304L92.58,301.36L93,303.24L93.03,303.98L93.03,304L93.2,301.28L93.76,303.46L93.88,304L94.36,301.95L94.63,304L94.65,303.9L94.66,304L95.03,300.76L95.39,303.46L95.4,304L95.89,300.66L96.14,304L96.22,303.84L96.22,304L96.67,302.52L96.97,304L96.99,304L97.74,300.94L97.75,303.95L97.92,304L97.99,303.3L98.11,304L98.11,300.31L98.11,304L98.25,299.8L98.86,303.96L98.87,303.98L98.91,304L99.42,301.22L99.59,304L99.65,304L100.08,301.96L100.36,304L100.43,303.81L100.76,302.46L101.11,304L101.11,303.76L101.11,303.07L101.11,304L101.64,301.76L101.84,304L101.87,303.21L101.87,304L102.39,296.66L102.62,304L102.63,303.95L102.64,304L103.25,301.09L103.3,302.32L103.39,304L103.86,291.45L104.12,304L104.16,301.94L104.43,287.31L104.69,304L104.69,286.77L104.69,304L105.05,285.96L105.4,304L105.48,302.33L105.48,304L106.02,284.11L106.17,303.95L106.25,304L106.34,303.67L106.34,282.36L106.59,280.67L107.01,304L107.08,303.83L107.14,302.94L107.15,304L107.37,302.35L107.85,303.93L107.93,304L108.28,301.52L108.35,303.99L108.38,275.73L108.73,272.37L109.09,304L109.16,303.98L109.19,303.95L109.56,303.24L109.59,304L109.59,302.65L110.37,304L110.37,269.21L111.08,304L111.16,304L111.65,301.84L111.92,303.63L111.96,304L112.2,301.92L112.71,303.98L112.76,304L113.4,298.01L113.48,303.4L113.48,304L114,302.83L114.05,303.9L114.09,304L114.65,302.33L114.75,304L114.77,304L114.98,254.88L115.49,303.92L115.57,303.55L116.13,303.28L116.3,304L116.35,304L116.92,251.17L117.1,304L117.12,304L117.87,303.14L117.87,303.43L117.89,304L118.43,302.65L118.63,304L118.66,304L118.83,302.44L119.26,303.95L119.37,304L119.66,302.5L120.1,303.95L120.14,304L120.53,300.84L120.88,304L120.91,303.99L121.13,303.89L121.16,301.94L121.75,300.55L121.95,304L121.96,303.58L121.96,304L122.02,299.96L122.64,303.68L122.79,303.73L122.79,304L123.53,300.18L123.55,303.96L123.64,304L123.64,299.56L124.21,303.89L124.24,303.81L124.83,301.31L124.98,304L125.08,303.91L125.19,304L125.67,299.38L125.67,304L125.71,304L125.78,299.35L126.45,303.95L126.49,304L126.61,301.04L127.17,304L127.19,304L127.84,300.55L127.92,303.82L128.05,303.45L128.05,304L128.47,293.58L128.77,302.31L128.82,304L128.85,302.72L129.57,304L129.6,304L130.39,301.62L130.42,302.12L130.43,304L130.49,301.43L131.18,304L131.2,303.76L131.53,301.75L131.94,304L131.94,303.7L132.05,304L132.45,300.02L132.76,303.21L132.83,303.8L132.83,304L132.87,298.05L133.53,304L133.59,304L133.8,303.04L134.34,304L134.4,304L134.44,303.05L135.08,304L135.18,303.64L135.18,304L135.28,300.93L135.93,304L135.94,304L136.64,293.15L136.65,303.98L136.7,303.92L137.19,304L137.19,303.33L137.71,302.34L137.9,304L137.97,303.45L137.97,304L138.57,303.13L138.69,304L138.74,304L139.39,298.67L139.49,303.98L139.5,303.84L139.64,303.21L140.14,304L140.21,303.41L140.21,304L140.94,295.66L140.94,304L140.97,304L141.03,301.77L141.68,304L141.73,304L142.07,301.35L142.11,304L142.11,295.3L142.18,304L142.18,294.07L142.85,303.77L142.9,303.7L142.9,304L143.58,301.76L143.69,301.26L143.69,304L143.83,301.15L144.41,303.85L144.46,304L144.94,301.68L145.21,304L145.22,304L145.26,303.62L145.46,304L145.5,295.48L146.29,304L146.29,302.65L146.4,302.47L146.4,304L147.1,304L147.16,303L147.16,304L147.78,300.79L147.88,303.94L147.92,303.93L148.42,302.82L148.43,304L148.54,303.31L149.14,303.65L149.14,304L149.74,300.09L149.79,304L149.83,304L150.53,301.46L150.58,303.78L150.61,303.58L150.61,304L150.93,300.19L151.36,303.97L151.37,304L151.5,303.12L152.09,303.93L152.15,304L152.79,301.78L152.84,304L152.92,304L153.39,288.03L153.6,303.99L153.68,303.85L153.85,303.98L154,303.26L154.18,304L154.18,287.45L154.18,304L154.9,303.94L155.01,304L155.33,282.18L155.76,304L155.8,303.92L155.85,304L156.14,302.39L156.42,304L156.44,298.74L156.44,304L157.02,251.57L157.18,304L157.21,304L157.51,303.19L157.51,250.63L157.51,304L158.19,303.96L158.28,303.74L158.28,304L158.42,301.21L159.01,302.82L159.12,303.89L159.19,304L159.74,298.62L159.85,304L159.87,304L160.55,302.77L160.67,303.96L160.67,304L160.84,302.59L161.1,303.76L161.1,304L161.85,298.98L161.86,303.99L161.94,304L161.94,297.05L162.59,303.85L162.62,303.94L162.85,303.27L162.88,304L162.89,303.78L162.91,303.08L162.95,304L162.95,239.56L163.63,302.99L163.67,302.55L163.69,304L163.86,300.36L164.31,302.4L164.37,304L164.41,301.84L164.64,303.63L164.66,236.19L165.37,222.04L165.38,304L165.38,303.98L165.55,304L166.24,301.35L166.31,303.88L166.37,304L166.53,301.97L167.09,303.49L167.16,303.32L167.66,302.88L167.94,304L167.97,304L168.46,302.71L168.72,303.68L168.73,304L169.01,206.95L169.47,304L169.55,304L170.17,301.59L170.27,303.96L170.32,304L170.65,297.87L171.07,303.89L171.09,304L171.28,302.79L171.63,303.29L171.63,304L172.27,294.59L172.37,303.99L172.43,304L172.82,302.39L173,303.73L173,304L173.48,301.78L173.76,303.24L173.76,304L173.82,303.21L174.24,303.8L174.25,290.02L174.25,304L174.37,290L175,304L175.02,302.12L175.02,300.18L175.02,304L175.73,304L175.8,304L176.19,302.85L176.21,304L176.21,296.19L176.9,294.62L177.05,304L177.05,304L177.09,291.49L177.09,304L177.81,303.69L177.85,303.88L177.93,304L178.23,303.22L178.35,304L178.35,299.42L179.05,304L179.21,304L179.54,302.22L179.93,304L180,304L180.46,180.92L180.74,303.86L180.76,303.83L180.79,304L181.04,302.82L181.48,304L181.64,303.71L181.64,304L182.32,300.87L182.36,302.28L182.41,304L182.58,300.06L183.11,304L183.19,304L183.68,303.45L183.93,304L183.95,303.77L183.95,304L184.55,302.56L184.66,303.92L184.71,303.87L184.8,304L185.03,300.97L185.24,302.28L185.27,304L185.66,303.3L185.7,304L185.7,299.5L186.32,297.34L186.35,304L186.4,303.95L186.46,296.79L186.52,304L186.88,294.92L187.15,304L187.31,304L187.89,302.43L188.06,303.99L188.09,304L188.23,302.16L188.8,303.69L188.89,304L188.89,299.55L189.57,303.94L189.66,304L190.33,301.31L190.35,304L190.45,303.72L190.84,302.9L190.97,304L190.97,304L190.97,301.9L191.01,303.9L191.02,301.57L191.02,303.75L191.02,286.95L191.07,304L191.77,303.93L191.78,304L192.13,303.65L192.15,303.7L192.17,302.65L192.17,304L192.72,300.87L192.92,304L192.95,304L193.04,301.68L193.66,303.64L193.73,303.12L193.73,304L194.43,298.24L194.44,304L194.5,303.89L194.63,303.12L194.82,304L194.82,274.31L195.35,272.43L195.47,304L195.57,303.81L195.61,303.57L195.61,304L195.85,302.48L196.36,304L196.39,302.86L196.47,304L196.47,269.37L197.15,304L197.26,304L197.26,302.6L198.01,304L198.02,303.51L198.51,302.36L198.61,304L198.61,303.92L198.67,263.03L198.67,304L198.8,261.84L199.4,303.93L199.46,304L199.98,301.8L200.22,304L200.23,304L200.27,301.18L200.93,302.81L201.03,304L201.75,301.84L201.76,304L202.22,302.01L202.27,303.78L202.28,297.44L202.67,296.25L202.99,304L203.03,303.82L203.06,303.95L203.09,302.75L203.09,304L203.73,304L204.01,304L204.13,300.56L204.74,304L204.79,303.87L204.8,299.28L204.8,304L205.51,303.82L205.57,304L205.68,302.53L205.68,296.92L205.68,304L206.27,292.25L206.43,303.98L206.46,303.94L206.57,304L206.64,227.11L207.04,302.84L207.06,304L207.27,301.58L207.81,304L207.84,304L207.94,302.32L208.59,303.86L208.62,304L208.97,302.06L209.36,303.86L209.39,303.42L209.39,304L209.86,299.79L210.12,304L210.21,302.63L210.21,304L210.89,294.91L210.95,304L211.05,303.78L211.21,304L211.21,303.42L211.25,303.68L211.29,290.62L211.29,287.66L211.46,304L212.01,304L212.05,304L212.2,302.48L212.56,304L212.66,304L213.28,299.5L213.39,303.98L213.42,303.84L213.61,303.11L213.93,303.99L213.93,303.48L213.93,302.23L214.32,298.4L214.69,304L214.69,304L214.77,304L214.86,303.49L215.49,304L215.56,303.65L215.56,304L216.18,302.25L216.29,303.44L216.32,304L216.93,299.3L217.05,304L217.08,303.35L217.08,304L217.77,297.31L217.82,304L217.86,304L217.9,296.63L218.61,304L218.62,303.98L218.94,302.44L218.94,304L219.09,301.06L219.45,303.99L219.49,303.98L219.85,303.16L219.95,303.94L220.01,304L220.01,301.59L220.76,303.38L220.77,303.28L220.77,304L221.48,298.83L221.53,300.36L221.6,297.47L222.3,304L222.34,304L222.99,301.87L223,304L223.16,304L223.16,301.58L223.86,303.98L223.92,304L224.05,302.37L224.27,304L224.32,304L224.46,301.68L225.06,304L225.09,304L225.09,300.58L225.81,304L225.85,303.92L226.01,304L226.42,301.76L226.6,303.92L226.6,304L226.78,303.97L226.78,304L226.81,303.07L227.2,302.17L227.48,304L227.55,303.09L227.55,304L228.29,300.51L228.32,303.94L228.71,303.13L228.71,303.53L228.82,299.92L229.1,292.17L229.57,304L229.59,302.92L229.65,303.9L229.96,303.27L230,304L230,303L230.1,304L230.14,302.51L230.16,279.69L230.16,304L230.84,303.81L230.95,304L231.44,298.08L231.69,304L231.74,303.58L232,295.58L232.46,304L232.46,304L232.58,302.99L232.58,304L233.07,178.08L233.28,304L233.36,304L233.52,303.05L233.95,304L233.95,175.6L234.12,175.23L234.67,304L234.68,303.88L234.75,304L234.83,172.78L235.5,304L235.51,303.55L235.51,304L236.06,302.96L236.26,304L236.27,303.95L236.33,304L236.76,301.66L236.98,304L237.03,303.9L237.1,304L237.85,301.31L237.85,304L238.06,300.85L238.33,303.89L238.33,303.96L238.57,302.53L238.68,303.51L238.69,298.79L238.71,304L239.31,297.53L239.44,304L239.45,304L240.2,301.73L240.21,303.97L240.6,304L240.6,303.21L240.95,302.32L241.32,304L241.32,303.9L241.37,303.51L241.42,304L241.61,301.57L242.11,304L242.16,303.55L242.16,304L242.67,291.07L242.91,304L242.92,288.89L242.92,304L243.67,303.97L243.68,303.98L243.8,303.06L243.83,304L244.43,303.52L244.48,304L245,297.87L245.18,304L245.24,304L245.93,302.16L246.05,303.76L246.05,304L246.42,300.9L246.79,304L246.84,304L247.36,298.6L247.55,303.57L247.55,303.97L247.65,296.56L247.65,304L248.29,303.51L248.3,304L248.97,301.4L248.97,304L249.08,304L249.43,276.68L249.83,303.91L249.86,304L250.18,275.02L250.18,302.64L250.33,304L251.07,270.47L251.08,303.98L251.12,303.94L251.26,304L251.78,302.81L251.83,303.91L251.87,304L252.36,302.35L252.47,303.76L252.7,303.1L252.7,304L253.17,266.41L253.45,303.82L253.54,304L253.57,295.68L253.95,303.77L253.98,304L254.6,260.61L254.71,303.96L254.74,303.81L254.74,304L255.3,295.4L255.4,303.96L255.52,303.72L255.52,304L256.24,302.6L256.25,304L256.32,303.63L256.47,299.88L257.07,304L257.08,303.92L257.14,303.88L257.24,304L257.54,302.9L257.88,304L257.89,303.95L258.03,304L258.51,301.34L258.56,301.5L258.56,304L259.3,294.64L259.3,304L259.44,303.9L259.52,298.1L259.54,304L259.69,304L259.7,16L260.45,304L260.45,303.95L260.5,304L261.15,302.89L261.22,304L261.39,301.75L261.86,300.52L262.12,304L262.19,303.51L262.19,304L262.2,299.61L262.92,304L262.95,304L263.2,300.39L263.67,303.83L263.71,303.91L263.74,304L264.02,298.58L264.39,304L264.48,304L264.73,302.5L265.09,303.83L265.26,304L265.74,302.91L265.97,304L266.02,304L266.57,297.96L266.7,304L266.79,302.68L266.8,304L266.97,292.62L267.47,304L267.56,304L267.6,290.29L268.27,304L268.34,304L269.12,299.91L269.12,304L269.48,299.2L269.85,303.75L269.88,303.95L269.91,304L270.06,291.59L270.61,303.84L270.63,304L271.1,300.22L271.36,303.67L271.5,303.43L271.5,304L271.96,298.85L272.24,304L272.28,303.84L272.87,302.67L273.02,304L273.03,303.97L273.14,303.79L273.14,304L273.34,294.75L273.89,304L273.92,304L274.43,303.21L274.68,303.33L274.68,304L274.93,298.86L275.07,303.78L275.08,303.98L275.73,302.77L275.73,304L276.46,302.96L276.46,304L276.68,304L277.01,301.34L277.42,304L277.44,303.95L277.6,304L277.92,303.3L278.1,304L278.2,304L278.68,301.1L278.94,304L278.97,304L279.13,301.55L279.23,303.92L279.25,304L279.37,303.67L279.42,304L279.42,298.52L280.12,304L280.18,303.99L280.25,303.88L280.4,303.91L280.43,302.66L280.49,304L281.03,299.61L281.14,304L281.19,303.83L281.41,298.34L281.43,304L281.58,298.81L281.58,297.06L281.61,304L282.28,294.14L282.31,303.94L282.34,304L282.39,303.84L282.41,293.89L282.43,304L283.12,303.91L283.19,303.87L283.4,303.39L283.45,304L283.47,302.59L283.47,304L284.14,299.79L284.14,304L284.26,304L284.95,286.78L284.95,304L285.02,304L285.5,297.27L285.76,304L285.78,303.93L286.01,304L286.05,283.23L286.27,303.72L286.38,304L286.68,303.75L286.7,303.96L286.76,279.88L286.76,304L287.49,304L287.54,304L287.58,293.41L288.28,303.5L288.31,304L288.48,302.9L288.81,303L288.82,255.88L288.82,255.51L288.86,304L289.55,304L289.61,304L290.22,302.72L290.29,303.96L290.41,304L290.44,246.86L291.16,304L291.23,304L291.8,301.93L291.98,303.93L292.02,304L292.14,303.76L292.16,303.84L292.16,301.93L292.24,304L292.36,240.32L292.91,304L292.94,303.84L292.94,304L293.36,302.17L293.65,304L293.75,303.99L293.76,304L293.87,303.06L294.5,304L294.52,304L295.05,301.17L295.21,304L295.23,304L295.79,299.9L295.95,303.71L295.98,304L296.66,298.24L296.71,304L296.76,303.82L296.76,304L297.09,297.28L297.47,304L297.56,304L297.89,227.53L298.27,304L298.33,303.75L298.86,303.03L299.09,304L299.12,304L299.44,302.92L299.72,303.81L299.72,222.86L300.48,304L300.56,303.68L300.56,304L301.13,302.44L301.28,303.97L301.32,303.63L301.32,304L301.72,300.31L302.07,303.79L302.08,299.23L302.18,304L302.72,297.84L302.83,303.89L302.95,303.78L303.07,302.74L303.4,304L303.4,303.83L303.47,302.82L303.47,304L303.94,294.71L304.21,303.92L304.23,304L304.39,302L304.58,303.49L304.59,304L304.87,301.37L305.08,304L305.08,298.47L305.85,304L305.88,303.87L306.03,303.56L306.43,304L306.43,303.33L306.53,299.49L307.12,304L307.12,303.74L307.12,301.94L307.32,293.74L307.82,304L307.85,302.67L307.9,303.91L308.03,304L308.37,303.18L308.62,303.74L308.65,304L309.3,301.03L309.4,303.93L309.44,304L309.78,301.01L310.16,304L310.22,301.48L310.26,297.69L310.97,304L311,303.93L311.05,303.91L311.32,304L311.55,280.09L311.8,303.08L311.8,304L312,301.27L312.49,303.87L312.55,304L313.22,302.14L313.32,304L313.37,304L313.44,302.69L313.44,274.87L313.7,272.69L314.16,304L314.2,303.87L314.22,303.07L314.22,304L314.67,302.78L314.96,303.99L314.98,304L315.7,300.56L315.73,304L315.77,304L315.86,303.88L315.86,304L315.87,259.74L316.63,304L316.74,304L317.31,302.09L317.47,304L317.5,303.65L317.61,303.98L318.18,303.39L318.18,303.97L318.2,303.95L318.23,304L318.37,302.96L318.93,303.69L319.04,303.64L319.04,304L319.37,302.28L319.76,304L319.81,303.39L319.82,301.38L319.82,304L320.54,303.49L320.6,304L321.14,299.55L321.28,303.71L321.35,304L321.9,302.81L322.08,304L322.15,304L322.24,301.97L322.75,304L322.75,293.96L322.75,304L323.48,304L323.54,304L323.81,301.03L324.29,303.69L324.36,303.89L324.39,304L324.87,302.54L325.06,303.95L325.16,304L325.32,301.69L325.73,304L325.74,304L325.88,300.64L326.21,303.25L326.21,304L326.75,303.16L326.94,304L326.97,304L327.31,297.74L327.65,299.44L327.77,304L328.55,301.59L328.55,304L328.84,302.02L329.27,304L329.35,303.54L329.35,304L329.55,299.73L330.08,303.69L330.12,303.92L330.21,304L330.48,300.17L330.84,304L330.88,304L330.92,302.56L331.63,304L331.68,304L332.15,300.43L332.41,303.73L332.45,303.9L332.48,304L333.07,300.38L333.17,303.73L333.2,304L333.7,301.86L333.95,303.97L334.02,303.87L334.08,304L334.36,301.8L334.76,304L334.81,304L335.49,295.33L335.56,304L335.57,303.98L335.61,299.55L335.61,304L336.31,304L336.36,304L336.51,303.14L337.11,303.97L337.14,303.96L337.34,304L337.49,300.41L337.51,302.41L337.54,291.13L337.54,304L338.28,303.88L338.35,303.53L338.54,303.35L338.89,304L338.91,303.71L338.91,297.75L339.09,288.04L339.66,304L339.67,303.97L339.71,303.93L339.8,304L340.11,302.37L340.46,303.93L340.46,304L341.04,303.96L341.06,302.48L341.07,300.5L341.07,304L341.79,304L341.81,303.97L341.9,304L342.29,299.35L342.58,303.11L342.58,304L343.17,301.5L343.26,303.98L343.28,303.96L343.37,303.76L343.37,301.14L343.37,304L344.12,304L344.13,303.74L344.4,301.86L344.84,304L344.84,303.13L344.93,302.78L345.56,304L345.71,303.86L345.72,304L346.03,298.72L346.45,303.98L346.53,303.86L346.57,304L347.22,300.48L347.23,304L347.27,304L347.27,300.57L348.02,304L348.03,302.93L348.42,294.84L348.79,304L348.87,304L348.96,296.34L349.39,304L349.42,304L350.03,302.01L350.17,303.97L350.27,303.73L350.7,300.48L351.02,304L351.06,303.81L351.06,304L351.47,302.21L351.8,303.92L351.82,304L352.32,303.27L352.52,304L352.59,303.85L353.17,302.95L353.26,304L353.33,303.38L353.33,304L353.68,296.81L354.06,304L354.14,303.69L354.14,304L354.68,301.62L354.86,304L354.91,303.9L355,304L355.25,302.21L355.53,304L355.58,303.96L355.69,304L356.17,300.63L356.23,304L356.34,303.68L356.73,302.97L356.84,304L356.84,300.86L356.84,304L357.21,300.18L357.59,303.95L357.62,304L357.77,303.23L358.36,303.98L358.38,304L358.49,303.22L359.11,303.89L359.18,303.88L359.25,304L359.75,300.37L359.89,300.99L359.93,304L360.69,302.61L360.69,304L360.92,300.24L360.93,301.77L360.96,304L361.4,302.67L361.62,303.86L361.64,303.95L361.81,304L361.81,303.12L362.04,302.64L362.61,304L362.61,303.15L363.06,302.92L363.12,304L363.12,302.05L363.45,292.61L363.91,304L363.91,301.58L364.07,301.46L364.69,304L364.69,303.16L364.78,303.02L364.78,304L365.44,300.37L365.5,303.79L365.54,304L365.81,299.63L366.28,304L366.3,303.78L366.3,304L366.79,301.75L367.05,304L367.07,304L367.14,288.81L367.81,303.74L367.87,304L368.46,302.91L368.46,303.18L368.48,298.8L368.52,298.73L369.25,304L369.25,302.84L369.28,303.78L369.3,304L369.67,296.61L370.01,303.9L370.04,303.49L370.04,304L370.13,302.49L370.73,304L370.86,304L371.51,301.22L371.6,304L371.62,304L371.87,304L371.87,300.14L372.02,299.21L372.62,304L372.67,304L372.82,301.23L372.83,304L372.83,300.55L373.52,304L373.63,304L373.93,295.52L374.33,303.52L374.39,304L374.93,292.01L375.12,304L375.17,303.6L375.25,291.25L375.8,304L375.82,303.9L375.82,301.49L375.82,304L376.56,299.81L376.56,304L376.6,303.92L376.63,304L377.13,300.8L377.3,304L377.36,303.8L377.92,304L377.94,302.68L378.02,299.08L378.53,283.87L378.62,304L378.67,282.6L379.12,263.4L379.39,304L379.42,303.96L379.48,303.88L379.49,262.5L379.56,304L380.23,303.82L380.25,303.96L380.44,304L380.86,300.89L381,301.85L381.04,303.89L381.16,304L381.54,298.6L381.77,304L381.8,304L382.24,302.98L382.54,304L382.57,304L383.29,295.11L383.38,304L384.1,285.07L384.12,303.99L384.14,303.96L384.27,303.38L384.43,304L384.43,299.7L385.17,304L385.17,281.3L385.2,281.7L385.2,304L385.24,300.64L385.95,303.96L385.98,303.99L386.15,304L386.44,301.92L386.72,304L386.77,304L387.01,300.85L387.51,303.4L387.53,303.96L387.63,304L388.04,303.26L388.29,303.83L388.31,303.95L388.32,304L388.96,301.47L389.06,303.93L389.06,304L389.79,303.48L389.81,303.55L389.81,304L390.01,299.39L390.33,304L390.34,304L390.45,297.55L391.08,303.98L391.1,304L391.54,303.09L391.85,303.98L391.89,303.92L391.9,304L392.22,298.7L392.63,303.99L392.67,304L393.35,292.98L393.4,303.89L393.56,303.72L393.57,303.83L393.66,302.1L393.73,304L393.98,291.88L394.38,304L394.42,304L394.75,302.31L394.88,303.7L394.95,304L395.57,299.06L395.68,304L395.73,303.22L395.73,304L396.16,303.03L396.47,304L396.49,304L396.59,302.9L396.82,303L396.83,296.45L396.84,304L397.37,294.05L397.53,304L397.59,303.67L397.59,304L398.31,302.25L398.34,304L398.35,303.4L398.35,304L399.1,300.38L399.16,304L399.29,300.11L399.38,303.82L399.38,298.98L399.57,295.94L400.1,304L400.15,303.84L400.22,302.63L400.22,304L400.96,293.05L400.96,293.34L401.04,303.86L401.33,303.23L401.39,304L401.45,302.85L401.49,304L402.02,299.11L402.15,304L402.19,304L402.86,302.94L402.94,304L402.99,304L403.75,301.12L403.82,304L404.08,294.57L404.55,303.97L404.57,303.95L404.59,304L404.66,302.7L405.28,303.99L405.33,303.92L405.41,304L405.96,300.95L406.02,303.78L406.08,304L406.08,302.14L406.77,304L406.84,304L407.34,301.66L407.57,303.95L407.66,304L408.41,284.32L408.44,304L408.96,302.71L409.22,303.42L409.27,303.92L409.36,304L409.67,302.57L409.79,304L409.81,302.12L409.83,304L409.86,270.77L410.55,302.28L410.57,303.05L410.57,304L411.11,298.73L411.3,304L411.34,301.01L411.34,304L411.49,297.86L412.08,303.93L412.12,303.41L412.12,304L412.36,299.39L412.85,303.98L412.91,303.72L412.91,304L413.53,302.46L413.65,303.34L413.7,302.84L413.72,304L414.11,296.13L414.38,304L414.48,304L414.6,303.35L414.63,303.39L414.63,261.87L415.13,249.6L415.38,304L415.41,303.82L415.41,304L416.16,302L416.16,304L416.18,304L416.33,300.97L416.93,304L416.95,303.86L416.96,304L417.61,298.35L417.68,304L417.75,304L418.2,302.76L418.46,304L418.54,304L418.61,301.69L419.29,304L419.32,304L419.75,301.84L419.85,304L419.85,295.95L420.62,304L420.62,303.88L420.85,303.22L421,304L421.01,303.61L421.03,298.45L421.03,304L421.77,232.71L421.78,304L421.8,303.9L421.99,303.48L422.45,304L422.48,302.9L422.48,304L423.03,229.86L423.21,304L423.25,303.87L423.63,304L423.64,303.86L423.73,302.84L423.73,304L424.41,300.66L424.46,303.89L424.5,303.41L424.5,304L424.75,300.06L425.25,303.78L425.32,303.72L425.32,304L426.01,295.66L426.06,295.71L426.13,304L426.25,302.95L426.86,303.37L426.89,303.78L426.9,304L427.6,291.53L427.66,304L428.08,278.02L428.41,304L428.45,303.82L428.45,304L428.64,276.35L429.19,303.81L429.21,303.81L429.21,304L429.88,300.01L430,299.54L430,304L430.75,303.87L430.8,304L431.03,303.44L431.15,303.83L431.16,299.39L431.93,304L431.94,303.83L432.08,303.73L432.12,304L432.17,303.86L432.17,302.19L432.17,304L432.92,303.98L432.96,303.89L433.03,304L433.61,303.27L433.71,303.8L433.71,304L433.85,302.02L434.09,303.89L434.13,304L434.3,302.94L434.88,304L434.89,304L435.45,302.82L435.63,303.71L435.69,303.61L435.92,300.46L436.34,304L436.34,303.58L436.34,302.41L436.34,304L436.86,302.39L437.08,304L437.11,303.88L437.38,304L437.38,303.06L437.39,302.98L437.4,301.3L437.41,304L438.13,303.93L438.2,303.87L438.27,304L438.29,301.7L438.9,303.97L438.96,303.67L439.41,303.22L439.72,304L439.73,303.98L439.74,303.99L439.82,303.78L439.9,304L439.9,301.53L440.68,304L440.68,303.95L440.82,304L440.95,302.74L441.58,303.17L441.58,303.84L442.07,303.37L442.35,304L442.35,303.45L442.47,303.12L443.08,304L443.14,303.11L443.14,304L443.85,300.32L443.88,303.86L443.92,304L444.25,302.69L444.59,303.85L444.68,304L445.36,297.94L445.41,303.97L445.54,304L445.76,302.53L446.29,304L446.32,303.67L446.32,304L446.77,303.46L447.07,303.6L447.09,304L447.21,300.71L447.74,303.99L447.79,304L448.51,298.04L448.52,304L448.55,297.89L448.55,304L449.3,304L449.31,304L449.46,301.56L449.69,303.7L449.69,304L450.45,303.05L450.45,304L450.63,299.31L451.2,303.92L451.21,304L451.97,301.86L451.97,304L452.59,300.8L452.62,303.95L452.64,304L452.89,298.09L453.15,304L453.21,303.8L453.21,304L453.21,295.58L453.81,304L453.97,303.61L453.97,304L454.71,299.63L454.71,299.66L454.73,304L455.25,303.09L455.28,304L455.28,298.69L455.37,298.57L456.03,304L456.09,303.4L456.09,304L456.84,295.33L456.85,295.49L456.85,304L457.42,293.53L457.57,303.78L457.61,303.91L457.77,304L457.81,302.29L457.81,304L458.45,302.18L458.52,304L458.58,303.96L458.72,303.79L458.92,304L458.94,299.41L458.94,304L459.14,294.71L459.65,304L459.72,304L460.14,302.77L460.45,303.91L460.45,290.76L460.52,304L461.2,303.81L461.21,303.97L461.3,304L461.72,302.72L461.97,303.6L461.97,304L462.38,302.32L462.7,304L462.75,304L463.02,302.89L463.5,304L463.54,304L463.58,301.62L464.28,303.84L464.32,304L464.37,300.14L465.05,303.9L465.11,303.89L465.24,304L465.24,303.83L465.25,302.05L465.25,304L465.73,298.62L465.99,304L466.02,304L466.43,291.69L466.57,304L466.63,303.84L466.92,303.12L466.96,304L466.98,288.61L466.98,304L467.7,303.71L467.74,303.91L467.98,303.96L468.01,303.5L468.02,302.24L468.77,304L468.77,304L468.78,303.9L468.99,303.19L469.27,304L469.36,304L469.91,301.95L470.1,304L470.12,304L470.85,302.22L470.89,302.85L470.89,304L471.56,294.73L471.65,303.99L472.06,304L472.06,295.79L472.52,253.42L472.6,304L472.6,302.16L472.61,251.17L472.64,304L473.34,245.39L473.36,304L473.37,304L473.42,293.26L474.1,304L474.15,303.81L474.15,304L474.7,302.94L474.89,303.86L474.91,303.45L474.91,304L475.41,238.47L475.66,304L475.67,303.54L475.73,304L476.2,232.81L476.4,304L476.44,304L476.88,302.17L477.16,303.3L477.21,304L477.65,303.03L477.91,304L478,303.73L478,304L478.16,301.46L478.74,304L478.76,303.97L478.84,303.59L478.85,304L479,304L479,299.89L479.04,299.82L479.64,304L479.74,302.95L479.77,303.99L480.11,303.71L480.12,301.99L480.31,300.46L480.87,304L480.9,304L481.27,304L481.27,304L481.27,301.99L482.01,304L482.01,303.11L482.08,304L482.55,299.42L482.57,303.83L482.62,304L482.83,298.27L482.86,304L482.9,304L483.52,300.6L483.65,300.85L483.66,304L483.87,297.59L484.41,304L484.42,304L484.44,303.02L485.16,304L485.2,303.79L485.35,302.96L485.62,304L485.62,300.02L485.99,299.34L486.31,304L486.36,303.7L486.43,304L487.16,303.24L487.18,304L487.22,304L487.67,286.34L487.97,303.92L487.98,301.31L488.55,282.87L488.65,304L488.65,303.98L488.67,282.16L488.67,304L489.39,304L489.44,303.91L489.52,303.7L489.54,304L489.64,304L489.64,301.7L490.44,304L490.45,303.04L490.45,304L490.79,300.12L491.12,303.67L491.23,303.34L491.23,304L491.63,302.46L491.98,303.85L492,304L492.21,302.94L492.58,303.85L492.6,303.97L492.72,304L492.93,302.59L493.29,304L493.3,304L493.9,303.38L494,304" style="vector-effect: non-scaling-stroke; fill: none; stroke: rgb(99, 110, 250); stroke-opacity: 1; stroke-width: 2px; opacity: 1;"/></g><g class="points"/><g class="text"/></g></g></g><g class="overplot"/><path class="xlines-above crisp" d="M0,0" style="fill: none;"/><path class="ylines-above crisp" d="M0,0" style="fill: none;"/><g class="overlines-above"/><g class="xaxislayer-above"><g class="xtick"><text text-anchor="middle" x="0" y="436" transform="translate(212.2,0)" style="font-family: 'Times New Roman'; font-size: 15px; fill: rgb(13, 13, 13); fill-opacity: 1; white-space: pre; opacity: 1;">1.61252×10​<tspan style="font-size:70%" dy="-0.6em">18</tspan><tspan dy="0.42em">​</tspan></text></g><g class="xtick"><text text-anchor="middle" x="0" y="436" style="font-family: 'Times New Roman'; font-size: 15px; fill: rgb(13, 13, 13); fill-opacity: 1; white-space: pre; opacity: 1;" transform="translate(310.23,0)">1.612525×10​<tspan style="font-size:70%" dy="-0.6em">18</tspan><tspan dy="0.42em">​</tspan></text></g><g class="xtick"><text text-anchor="middle" x="0" y="436" style="font-family: 'Times New Roman'; font-size: 15px; fill: rgb(13, 13, 13); fill-opacity: 1; white-space: pre; opacity: 1;" transform="translate(408.26,0)">1.61253×10​<tspan style="font-size:70%" dy="-0.6em">18</tspan><tspan dy="0.42em">​</tspan></text></g><g class="xtick"><text text-anchor="middle" x="0" y="436" style="font-family: 'Times New Roman'; font-size: 15px; fill: rgb(13, 13, 13); fill-opacity: 1; white-space: pre; opacity: 1;" transform="translate(506.29,0)">1.612535×10​<tspan style="font-size:70%" dy="-0.6em">18</tspan><tspan dy="0.42em">​</tspan></text></g><g class="xtick"><text text-anchor="middle" x="0" y="436" style="font-family: 'Times New Roman'; font-size: 15px; fill: rgb(13, 13, 13); fill-opacity: 1; white-space: pre; opacity: 1;" transform="translate(604.3199999999999,0)">1.61254×10​<tspan style="font-size:70%" dy="-0.6em">18</tspan><tspan dy="0.42em">​</tspan></text></g></g><g class="yaxislayer-above"><g class="ytick"><text text-anchor="end" x="125" y="12.25" transform="translate(0,404)" style="font-family: 'Times New Roman'; font-size: 35px; fill: rgb(13, 13, 13); fill-opacity: 1; white-space: pre; opacity: 1;">0</text></g><g class="ytick"><text text-anchor="end" x="125" y="12.25" style="font-family: 'Times New Roman'; font-size: 35px; fill: rgb(13, 13, 13); fill-opacity: 1; white-space: pre; opacity: 1;" transform="translate(0,367.68)">1000</text></g><g class="ytick"><text text-anchor="end" x="125" y="12.25" style="font-family: 'Times New Roman'; font-size: 35px; fill: rgb(13, 13, 13); fill-opacity: 1; white-space: pre; opacity: 1;" transform="translate(0,331.35)">2000</text></g><g class="ytick"><text text-anchor="end" x="125" y="12.25" style="font-family: 'Times New Roman'; font-size: 35px; fill: rgb(13, 13, 13); fill-opacity: 1; white-space: pre; opacity: 1;" transform="translate(0,295.03)">3000</text></g><g class="ytick"><text text-anchor="end" x="125" y="12.25" style="font-family: 'Times New Roman'; font-size: 35px; fill: rgb(13, 13, 13); fill-opacity: 1; white-space: pre; opacity: 1;" transform="translate(0,258.71000000000004)">4000</text></g><g class="ytick"><text text-anchor="end" x="125" y="12.25" style="font-family: 'Times New Roman'; font-size: 35px; fill: rgb(13, 13, 13); fill-opacity: 1; white-space: pre; opacity: 1;" transform="translate(0,222.38)">5000</text></g><g class="ytick"><text text-anchor="end" x="125" y="12.25" style="font-family: 'Times New Roman'; font-size: 35px; fill: rgb(13, 13, 13); fill-opacity: 1; white-space: pre; opacity: 1;" transform="translate(0,186.06)">6000</text></g><g class="ytick"><text text-anchor="end" x="125" y="12.25" style="font-family: 'Times New Roman'; font-size: 35px; fill: rgb(13, 13, 13); fill-opacity: 1; white-space: pre; opacity: 1;" transform="translate(0,149.74)">7000</text></g><g class="ytick"><text text-anchor="end" x="125" y="12.25" style="font-family: 'Times New Roman'; font-size: 35px; fill: rgb(13, 13, 13); fill-opacity: 1; white-space: pre; opacity: 1;" transform="translate(0,113.41)">8000</text></g></g><g class="overaxes-above"/></g></g><g class="polarlayer"/><g class="smithlayer"/><g class="ternarylayer"/><g class="geolayer"/><g class="funnelarealayer"/><g class="pielayer"/><g class="iciclelayer"/><g class="treemaplayer"/><g class="sunburstlayer"/><g class="glimages"/><defs id="topdefs-6ef39c"><g class="clips"/></defs><g class="layer-above"><g class="imagelayer"/><g class="shapelayer"/></g><g class="infolayer"><g class="g-gtitle"/><g class="g-xtitle"><text class="xtitle" x="373" y="463.8" text-anchor="middle" style="font-family: 'Open Sans', verdana, arial, sans-serif; font-size: 14px; fill: rgb(42, 63, 95); opacity: 1; font-weight: normal; white-space: pre;">Time Steps (ns)</text></g><g class="g-ytitle" transform="translate(24,0)"><text class="ytitle" transform="rotate(-90,12,260)" x="12" y="260" text-anchor="middle" style="font-family: 'Times New Roman'; font-size: 40px; fill: rgb(13, 13, 13); opacity: 1; font-weight: normal; white-space: pre;">Speed (in sec.)</text></g></g></svg>