<svg class="main-svg" xmlns="http://www.w3.org/2000/svg" xmlns:xlink="http://www.w3.org/1999/xlink" width="700" height="500" style="" viewBox="0 0 700 500"><rect x="0" y="0" width="700" height="500" style="fill: rgb(255, 255, 255); fill-opacity: 1;"/><defs id="defs-2535a8"><g class="clips"><clipPath id="clip2535a8xyplot" class="plotclip"><rect width="511" height="320"/></clipPath><clipPath class="axesclip" id="clip2535a8x"><rect x="109" y="0" width="511" height="500"/></clipPath><clipPath class="axesclip" id="clip2535a8y"><rect x="0" y="100" width="700" height="320"/></clipPath><clipPath class="axesclip" id="clip2535a8xy"><rect x="109" y="100" width="511" height="320"/></clipPath></g><g class="gradients"/><g class="patterns"/></defs><g class="bglayer"><rect class="bg" x="109" y="100" width="511" height="320" style="fill: rgb(229, 236, 246); fill-opacity: 1; stroke-width: 0;"/></g><g class="layer-below"><g class="imagelayer"/><g class="shapelayer"/></g><g class="cartesianlayer"><g class="subplot xy"><g class="layer-subplot"><g class="shapelayer"/><g class="imagelayer"/></g><g class="minor-gridlayer"><g class="x"/><g class="y"/></g><g class="gridlayer"><g class="x"><path class="xgrid crisp" transform="translate(198.15,0)" d="M0,100v320" style="stroke: rgb(255, 255, 255); stroke-opacity: 1; stroke-width: 1px;"/><path class="xgrid crisp" transform="translate(299.58000000000004,0)" d="M0,100v320" style="stroke: rgb(255, 255, 255); stroke-opacity: 1; stroke-width: 1px;"/><path class="xgrid crisp" transform="translate(401,0)" d="M0,100v320" style="stroke: rgb(255, 255, 255); stroke-opacity: 1; stroke-width: 1px;"/><path class="xgrid crisp" transform="translate(502.42,0)" d="M0,100v320" style="stroke: rgb(255, 255, 255); stroke-opacity: 1; stroke-width: 1px;"/><path class="xgrid crisp" transform="translate(603.85,0)" d="M0,100v320" style="stroke: rgb(255, 255, 255); stroke-opacity: 1; stroke-width: 1px;"/></g><g class="y"><path class="ygrid crisp" transform="translate(0,347.05)" d="M109,0h511" style="stroke: rgb(255, 255, 255); stroke-opacity: 1; stroke-width: 1px;"/><path class="ygrid crisp" transform="translate(0,290.1)" d="M109,0h511" style="stroke: rgb(255, 255, 255); stroke-opacity: 1; stroke-width: 1px;"/><path class="ygrid crisp" transform="translate(0,233.15)" d="M109,0h511" style="stroke: rgb(255, 255, 255); stroke-opacity: 1; stroke-width: 1px;"/><path class="ygrid crisp" transform="translate(0,176.2)" d="M109,0h511" style="stroke: rgb(255, 255, 255); stroke-opacity: 1; stroke-width: 1px;"/><path class="ygrid crisp" transform="translate(0,119.25)" d="M109,0h511" style="stroke: rgb(255, 255, 255); stroke-opacity: 1; stroke-width: 1px;"/></g></g><g class="zerolinelayer"><path class="yzl zl crisp" transform="translate(0,404.01)" d="M109,0h511" style="stroke: rgb(255, 255, 255); stroke-opacity: 1; stroke-width: 2px;"/></g><path class="xlines-below"/><path class="ylines-below"/><g class="overlines-below"/><g class="xaxislayer-below"/><g class="yaxislayer-below"/><g class="overaxes-below"/><g class="plot" transform="translate(109,100)" clip-path="url(#clip2535a8xyplot)"><g class="scatterlayer mlayer"><g class="trace scatter tracea16d1a" style="stroke-miterlimit: 2; opacity: 1;"><g class="fills"/><g class="errorbars"/><g class="lines"><path class="js-line" d="M0,304L20.75,296.02L20.75,296.02L20.75,296.01L23.85,294.64L23.85,294.64L23.85,294.63L26.41,293.56L26.41,293.55L30.68,291.79L30.68,291.78L33.62,290.32L33.62,290.31L63.97,272.81L63.97,272.81L63.97,272.8L66.52,271.19L66.67,271.18L68.04,270.45L68.16,270.44L69.44,269.75L69.5,269.75L72.7,268.09L72.7,268.08L75.34,266.46L75.44,266.46L78,264.94L78,264.94L78.03,264.93L89.09,258.57L89.09,258.56L93.24,256.3L93.24,256.3L93.24,256.29L100.08,252.58L100.08,252.58L100.08,252.57L103.91,250.36L103.91,250.36L103.93,250.35L108.31,247.63L108.31,247.63L108.31,247.62L109.99,246.76L109.99,246.76L109.99,246.75L111.94,245.57L111.95,245.57L115.55,243.45L115.73,243.45L117.78,242.17L117.78,242.17L117.78,242.16L123.04,239.39L123.04,239.39L123.04,239.38L128.48,236.24L128.48,236.24L128.48,236.23L144.29,227.22L144.41,227.22L149.28,224.49L149.28,224.48L164.93,216.04L164.93,216.04L165.01,216.03L169.65,213.7L169.65,213.69L176.68,209.99L176.68,209.98L179.82,208.15L179.82,208.14L183.3,206.01L183.3,206.01L183.3,206L187.21,203.62L187.37,203.62L206.38,192.53L206.38,192.53L206.55,192.52L266.25,159.25L266.25,159.25L266.27,159.24L268.25,158.22L268.25,158.21L275.59,153.74L275.59,153.73L277.17,152.73L277.19,152.72L282.54,149.64L282.54,149.63L284.21,148.75L284.24,148.75L286.77,147.46L286.77,147.46L286.8,147.45L293.38,143.55L293.39,143.54L299.57,139.36L299.57,139.36L299.62,139.35L304.23,136.7L304.23,136.7L304.23,136.69L312.42,132.37L312.42,132.36L316.68,130.27L316.68,130.27L316.76,130.26L318.63,129.16L318.68,129.16L322.71,127.31L322.71,127.31L322.74,127.3L332.11,122.16L332.11,122.16L332.13,122.15L336.36,119.41L336.36,119.41L336.36,119.4L340.72,116.85L340.72,116.84L345.52,113.97L345.52,113.97L345.53,113.96L347.23,112.92L347.25,112.92L350.45,111.13L350.5,111.13L352.09,110.37L352.09,110.37L352.13,110.36L359.77,105.99L359.77,105.98L362.27,104.33L362.3,104.33L363.69,103.44L363.74,103.44L367.12,101.61L367.12,101.6L381.78,93.44L381.78,93.44L381.78,93.43L393.61,87.23L393.61,87.22L396.14,85.59L396.14,85.58L401,82.96L401,82.96L401,82.95L406.41,79.61L406.41,79.6L408.5,78.54L408.54,78.54L411.49,76.62L411.6,76.61L416.41,73.73L416.41,73.73L416.41,73.72L420.27,71.39L420.29,71.39L429.9,65.75L429.9,65.75L429.9,65.74L432.82,64.05L432.82,64.04L438.03,61.01L438.12,61.01L442.93,58.3L442.98,58.3L445.24,56.58L445.27,56.58L448.75,54.33L448.75,54.33L448.85,54.32L479.93,35.61L480.03,35.61L483.02,33.62L483.13,33.62L485.74,31.86L485.74,31.86L485.76,31.85L511,16" style="vector-effect: non-scaling-stroke; fill: none; stroke: rgb(168, 0, 173); stroke-opacity: 1; stroke-width: 2px; opacity: 1;"/></g><g class="points"/><g class="text"/></g></g></g><g class="overplot"/><path class="xlines-above crisp" d="M0,0" style="fill: none;"/><path class="ylines-above crisp" d="M0,0" style="fill: none;"/><g class="overlines-above"/><g class="xaxislayer-above"><g class="xtick"><text text-anchor="middle" x="0" y="436" transform="translate(198.15,0)" style="font-family: 'Times New Roman'; font-size: 15px; fill: rgb(13, 13, 13); fill-opacity: 1; white-space: pre; opacity: 1;">1.61252×10​<tspan style="font-size:70%" dy="-0.6em">18</tspan><tspan dy="0.42em">​</tspan></text></g><g class="xtick"><text text-anchor="middle" x="0" y="436" style="font-family: 'Times New Roman'; font-size: 15px; fill: rgb(13, 13, 13); fill-opacity: 1; white-space: pre; opacity: 1;" transform="translate(299.58000000000004,0)">1.612525×10​<tspan style="font-size:70%" dy="-0.6em">18</tspan><tspan dy="0.42em">​</tspan></text></g><g class="xtick"><text text-anchor="middle" x="0" y="436" style="font-family: 'Times New Roman'; font-size: 15px; fill: rgb(13, 13, 13); fill-opacity: 1; white-space: pre; opacity: 1;" transform="translate(401,0)">1.61253×10​<tspan style="font-size:70%" dy="-0.6em">18</tspan><tspan dy="0.42em">​</tspan></text></g><g class="xtick"><text text-anchor="middle" x="0" y="436" style="font-family: 'Times New Roman'; font-size: 15px; fill: rgb(13, 13, 13); fill-opacity: 1; white-space: pre; opacity: 1;" transform="translate(502.42,0)">1.612535×10​<tspan style="font-size:70%" dy="-0.6em">18</tspan><tspan dy="0.42em">​</tspan></text></g><g class="xtick"><text text-anchor="middle" x="0" y="436" style="font-family: 'Times New Roman'; font-size: 15px; fill: rgb(13, 13, 13); fill-opacity: 1; white-space: pre; opacity: 1;" transform="translate(603.85,0)">1.61254×10​<tspan style="font-size:70%" dy="-0.6em">18</tspan><tspan dy="0.42em">​</tspan></text></g></g><g class="yaxislayer-above"><g class="ytick"><text text-anchor="end" x="108" y="12.25" transform="translate(0,404.01)" style="font-family: 'Times New Roman'; font-size: 35px; fill: rgb(13, 13, 13); fill-opacity: 1; white-space: pre; opacity: 1;">0</text></g><g class="ytick"><text text-anchor="end" x="108" y="12.25" style="font-family: 'Times New Roman'; font-size: 35px; fill: rgb(13, 13, 13); fill-opacity: 1; white-space: pre; opacity: 1;" transform="translate(0,347.05)">10k</text></g><g class="ytick"><text text-anchor="end" x="108" y="12.25" style="font-family: 'Times New Roman'; font-size: 35px; fill: rgb(13, 13, 13); fill-opacity: 1; white-space: pre; opacity: 1;" transform="translate(0,290.1)">20k</text></g><g class="ytick"><text text-anchor="end" x="108" y="12.25" style="font-family: 'Times New Roman'; font-size: 35px; fill: rgb(13, 13, 13); fill-opacity: 1; white-space: pre; opacity: 1;" transform="translate(0,233.15)">30k</text></g><g class="ytick"><text text-anchor="end" x="108" y="12.25" style="font-family: 'Times New Roman'; font-size: 35px; fill: rgb(13, 13, 13); fill-opacity: 1; white-space: pre; opacity: 1;" transform="translate(0,176.2)">40k</text></g><g class="ytick"><text text-anchor="end" x="108" y="12.25" style="font-family: 'Times New Roman'; font-size: 35px; fill: rgb(13, 13, 13); fill-opacity: 1; white-space: pre; opacity: 1;" transform="translate(0,119.25)">50k</text></g></g><g class="overaxes-above"/></g></g><g class="polarlayer"/><g class="smithlayer"/><g class="ternarylayer"/><g class="geolayer"/><g class="funnelarealayer"/><g class="pielayer"/><g class="iciclelayer"/><g class="treemaplayer"/><g class="sunburstlayer"/><g class="glimages"/><defs id="topdefs-2535a8"><g class="clips"/></defs><g class="layer-above"><g class="imagelayer"/><g class="shapelayer"/></g><g class="infolayer"><g class="g-gtitle"/><g class="g-xtitle"><text class="xtitle" x="364.5" y="463.8" text-anchor="middle" style="font-family: 'Open Sans', verdana, arial, sans-serif; font-size: 14px; fill: rgb(42, 63, 95); opacity: 1; font-weight: normal; white-space: pre;">Time Steps (ns)</text></g><g class="g-ytitle" transform="translate(23.5,0)"><text class="ytitle" transform="rotate(-90,12.5,260)" x="12.5" y="260" text-anchor="middle" style="font-family: 'Times New Roman'; font-size: 40px; fill: rgb(13, 13, 13); opacity: 1; font-weight: normal; white-space: pre;">Cum. qty. executed orders</text></g></g></svg>