<svg class="main-svg" xmlns="http://www.w3.org/2000/svg" xmlns:xlink="http://www.w3.org/1999/xlink" width="700" height="500" style="" viewBox="0 0 700 500"><rect x="0" y="0" width="700" height="500" style="fill: rgb(255, 255, 255); fill-opacity: 1;"/><defs id="defs-4240e2"><g class="clips"><clipPath id="clip4240e2xyplot" class="plotclip"><rect width="511" height="320"/></clipPath><clipPath class="axesclip" id="clip4240e2x"><rect x="109" y="0" width="511" height="500"/></clipPath><clipPath class="axesclip" id="clip4240e2y"><rect x="0" y="100" width="700" height="320"/></clipPath><clipPath class="axesclip" id="clip4240e2xy"><rect x="109" y="100" width="511" height="320"/></clipPath></g><g class="gradients"/><g class="patterns"/></defs><g class="bglayer"><rect class="bg" x="109" y="100" width="511" height="320" style="fill: rgb(229, 236, 246); fill-opacity: 1; stroke-width: 0;"/></g><g class="layer-below"><g class="imagelayer"/><g class="shapelayer"/></g><g class="cartesianlayer"><g class="subplot xy"><g class="layer-subplot"><g class="shapelayer"/><g class="imagelayer"/></g><g class="minor-gridlayer"><g class="x"/><g class="y"/></g><g class="gridlayer"><g class="x"><path class="xgrid crisp" transform="translate(198.17000000000002,0)" d="M0,100v320" style="stroke: rgb(255, 255, 255); stroke-opacity: 1; stroke-width: 1px;"/><path class="xgrid crisp" transform="translate(299.57,0)" d="M0,100v320" style="stroke: rgb(255, 255, 255); stroke-opacity: 1; stroke-width: 1px;"/><path class="xgrid crisp" transform="translate(400.97,0)" d="M0,100v320" style="stroke: rgb(255, 255, 255); stroke-opacity: 1; stroke-width: 1px;"/><path class="xgrid crisp" transform="translate(502.38,0)" d="M0,100v320" style="stroke: rgb(255, 255, 255); stroke-opacity: 1; stroke-width: 1px;"/><path class="xgrid crisp" transform="translate(603.78,0)" d="M0,100v320" style="stroke: rgb(255, 255, 255); stroke-opacity: 1; stroke-width: 1px;"/></g><g class="y"><path class="ygrid crisp" transform="translate(0,349.03999999999996)" d="M109,0h511" style="stroke: rgb(255, 255, 255); stroke-opacity: 1; stroke-width: 1px;"/><path class="ygrid crisp" transform="translate(0,294.07)" d="M109,0h511" style="stroke: rgb(255, 255, 255); stroke-opacity: 1; stroke-width: 1px;"/><path class="ygrid crisp" transform="translate(0,239.1)" d="M109,0h511" style="stroke: rgb(255, 255, 255); stroke-opacity: 1; stroke-width: 1px;"/><path class="ygrid crisp" transform="translate(0,184.14)" d="M109,0h511" style="stroke: rgb(255, 255, 255); stroke-opacity: 1; stroke-width: 1px;"/><path class="ygrid crisp" transform="translate(0,129.17000000000002)" d="M109,0h511" style="stroke: rgb(255, 255, 255); stroke-opacity: 1; stroke-width: 1px;"/></g></g><g class="zerolinelayer"><path class="yzl zl crisp" transform="translate(0,404.01)" d="M109,0h511" style="stroke: rgb(255, 255, 255); stroke-opacity: 1; stroke-width: 2px;"/></g><path class="xlines-below"/><path class="ylines-below"/><g class="overlines-below"/><g class="xaxislayer-below"/><g class="yaxislayer-below"/><g class="overaxes-below"/><g class="plot" transform="translate(109,100)" clip-path="url(#clip4240e2xyplot)"><g class="scatterlayer mlayer"><g class="trace scatter trace3c8079" style="stroke-miterlimit: 2; opacity: 1;"><g class="fills"/><g class="errorbars"/><g class="lines"><path class="js-line" d="M0,304L2.17,303.07L2.17,303.06L22.72,294.11L22.72,294.11L22.72,294.1L26.69,292.27L26.69,292.26L30.54,290.63L30.54,290.63L30.79,290.62L34.2,288.94L34.2,288.94L34.2,288.93L35.86,288.04L35.86,288.03L43.48,283.68L43.48,283.68L43.48,283.67L46.61,281.9L46.61,281.9L46.62,281.89L51.93,278.82L51.93,278.81L55.33,276.76L55.33,276.76L55.33,276.75L59.33,274.06L59.33,274.06L59.33,274.05L62.27,272.33L62.33,272.33L65.55,270.2L65.55,270.2L65.55,270.19L70.08,267.72L70.08,267.72L70.1,267.71L85.47,259.22L85.47,259.22L85.51,259.21L87.84,257.92L87.84,257.91L92.74,255.15L92.83,255.15L99.58,251.39L99.58,251.39L99.58,251.38L103.01,249.1L103.01,249.1L103.01,249.09L105.68,247.44L105.84,247.44L135.49,231.31L135.49,231.31L135.54,231.3L145.56,225.8L145.56,225.8L145.56,225.79L153.69,220.96L153.69,220.95L177.93,206.81L178.06,206.81L186.61,201.71L186.61,201.71L186.61,201.7L189.71,200.04L189.79,200.04L192.79,197.89L192.79,197.89L192.81,197.88L196.06,196.15L196.06,196.15L196.06,196.14L198.51,194.64L198.51,194.64L198.51,194.63L216.59,184.36L216.59,184.36L216.59,184.35L220.17,182.37L220.17,182.36L237.77,172.39L237.87,172.39L242.09,169.77L242.09,169.76L246.82,167.07L246.82,167.06L264.19,157.17L264.19,157.17L264.32,157.16L268.04,155.21L268.14,155.2L274.54,151.92L274.54,151.92L274.54,151.91L278.65,149.52L278.65,149.52L278.65,149.51L288.57,144.22L288.57,144.22L288.63,144.21L294.11,141.57L294.11,141.57L294.22,141.56L295.72,140.78L295.72,140.78L295.85,140.77L298.53,139.42L298.69,139.42L303.13,137.24L303.13,137.24L303.17,137.23L318.03,128.84L318.03,128.84L318.11,128.83L320.29,127.63L320.29,127.63L320.31,127.62L329,123.11L329,123.11L329.07,123.1L438.44,60.4L438.44,60.39L463.62,45.61L463.62,45.61L463.69,45.6L465.86,44.13L465.93,44.13L471.86,40.33L471.86,40.33L471.86,40.32L475.29,38.32L475.29,38.32L475.3,38.31L478.79,36.29L478.9,36.29L489.19,29.7L489.19,29.7L489.3,29.69L491.59,28.47L491.59,28.47L491.62,28.46L496.08,25.74L496.08,25.73L498.04,24.58L498.04,24.57L509.45,17.04L509.53,17.04L511,16" style="vector-effect: non-scaling-stroke; fill: none; stroke: rgb(168, 0, 173); stroke-opacity: 1; stroke-width: 2px; opacity: 1;"/></g><g class="points"/><g class="text"/></g></g></g><g class="overplot"/><path class="xlines-above crisp" d="M0,0" style="fill: none;"/><path class="ylines-above crisp" d="M0,0" style="fill: none;"/><g class="overlines-above"/><g class="xaxislayer-above"><g class="xtick"><text text-anchor="middle" x="0" y="436" transform="translate(198.17000000000002,0)" style="font-family: 'Times New Roman'; font-size: 15px; fill: rgb(13, 13, 13); fill-opacity: 1; white-space: pre; opacity: 1;">1.61252×10​<tspan style="font-size:70%" dy="-0.6em">18</tspan><tspan dy="0.42em">​</tspan></text></g><g class="xtick"><text text-anchor="middle" x="0" y="436" style="font-family: 'Times New Roman'; font-size: 15px; fill: rgb(13, 13, 13); fill-opacity: 1; white-space: pre; opacity: 1;" transform="translate(299.57,0)">1.612525×10​<tspan style="font-size:70%" dy="-0.6em">18</tspan><tspan dy="0.42em">​</tspan></text></g><g class="xtick"><text text-anchor="middle" x="0" y="436" style="font-family: 'Times New Roman'; font-size: 15px; fill: rgb(13, 13, 13); fill-opacity: 1; white-space: pre; opacity: 1;" transform="translate(400.97,0)">1.61253×10​<tspan style="font-size:70%" dy="-0.6em">18</tspan><tspan dy="0.42em">​</tspan></text></g><g class="xtick"><text text-anchor="middle" x="0" y="436" style="font-family: 'Times New Roman'; font-size: 15px; fill: rgb(13, 13, 13); fill-opacity: 1; white-space: pre; opacity: 1;" transform="translate(502.38,0)">1.612535×10​<tspan style="font-size:70%" dy="-0.6em">18</tspan><tspan dy="0.42em">​</tspan></text></g><g class="xtick"><text text-anchor="middle" x="0" y="436" style="font-family: 'Times New Roman'; font-size: 15px; fill: rgb(13, 13, 13); fill-opacity: 1; white-space: pre; opacity: 1;" transform="translate(603.78,0)">1.61254×10​<tspan style="font-size:70%" dy="-0.6em">18</tspan><tspan dy="0.42em">​</tspan></text></g></g><g class="yaxislayer-above"><g class="ytick"><text text-anchor="end" x="108" y="12.25" transform="translate(0,404.01)" style="font-family: 'Times New Roman'; font-size: 35px; fill: rgb(13, 13, 13); fill-opacity: 1; white-space: pre; opacity: 1;">0</text></g><g class="ytick"><text text-anchor="end" x="108" y="12.25" style="font-family: 'Times New Roman'; font-size: 35px; fill: rgb(13, 13, 13); fill-opacity: 1; white-space: pre; opacity: 1;" transform="translate(0,349.03999999999996)">10k</text></g><g class="ytick"><text text-anchor="end" x="108" y="12.25" style="font-family: 'Times New Roman'; font-size: 35px; fill: rgb(13, 13, 13); fill-opacity: 1; white-space: pre; opacity: 1;" transform="translate(0,294.07)">20k</text></g><g class="ytick"><text text-anchor="end" x="108" y="12.25" style="font-family: 'Times New Roman'; font-size: 35px; fill: rgb(13, 13, 13); fill-opacity: 1; white-space: pre; opacity: 1;" transform="translate(0,239.1)">30k</text></g><g class="ytick"><text text-anchor="end" x="108" y="12.25" style="font-family: 'Times New Roman'; font-size: 35px; fill: rgb(13, 13, 13); fill-opacity: 1; white-space: pre; opacity: 1;" transform="translate(0,184.14)">40k</text></g><g class="ytick"><text text-anchor="end" x="108" y="12.25" style="font-family: 'Times New Roman'; font-size: 35px; fill: rgb(13, 13, 13); fill-opacity: 1; white-space: pre; opacity: 1;" transform="translate(0,129.17000000000002)">50k</text></g></g><g class="overaxes-above"/></g></g><g class="polarlayer"/><g class="smithlayer"/><g class="ternarylayer"/><g class="geolayer"/><g class="funnelarealayer"/><g class="pielayer"/><g class="iciclelayer"/><g class="treemaplayer"/><g class="sunburstlayer"/><g class="glimages"/><defs id="topdefs-4240e2"><g class="clips"/></defs><g class="layer-above"><g class="imagelayer"/><g class="shapelayer"/></g><g class="infolayer"><g class="g-gtitle"/><g class="g-xtitle"><text class="xtitle" x="364.5" y="463.8" text-anchor="middle" style="font-family: 'Open Sans', verdana, arial, sans-serif; font-size: 14px; fill: rgb(42, 63, 95); opacity: 1; font-weight: normal; white-space: pre;">Time Steps (ns)</text></g><g class="g-ytitle" transform="translate(23.5,0)"><text class="ytitle" transform="rotate(-90,12.5,260)" x="12.5" y="260" text-anchor="middle" style="font-family: 'Times New Roman'; font-size: 40px; fill: rgb(13, 13, 13); opacity: 1; font-weight: normal; white-space: pre;">Cum. qty. executed orders</text></g></g></svg>