<svg class="main-svg" xmlns="http://www.w3.org/2000/svg" xmlns:xlink="http://www.w3.org/1999/xlink" width="700" height="500" style="" viewBox="0 0 700 500"><rect x="0" y="0" width="700" height="500" style="fill: rgb(255, 255, 255); fill-opacity: 1;"/><defs id="defs-cf4a6c"><g class="clips"><clipPath id="clipcf4a6cxyplot" class="plotclip"><rect width="511" height="320"/></clipPath><clipPath class="axesclip" id="clipcf4a6cx"><rect x="109" y="0" width="511" height="500"/></clipPath><clipPath class="axesclip" id="clipcf4a6cy"><rect x="0" y="100" width="700" height="320"/></clipPath><clipPath class="axesclip" id="clipcf4a6cxy"><rect x="109" y="100" width="511" height="320"/></clipPath></g><g class="gradients"/><g class="patterns"/></defs><g class="bglayer"><rect class="bg" x="109" y="100" width="511" height="320" style="fill: rgb(229, 236, 246); fill-opacity: 1; stroke-width: 0;"/></g><g class="layer-below"><g class="imagelayer"/><g class="shapelayer"/></g><g class="cartesianlayer"><g class="subplot xy"><g class="layer-subplot"><g class="shapelayer"/><g class="imagelayer"/></g><g class="minor-gridlayer"><g class="x"/><g class="y"/></g><g class="gridlayer"><g class="x"><path class="xgrid crisp" transform="translate(198.2,0)" d="M0,100v320" style="stroke: rgb(255, 255, 255); stroke-opacity: 1; stroke-width: 1px;"/><path class="xgrid crisp" transform="translate(299.61,0)" d="M0,100v320" style="stroke: rgb(255, 255, 255); stroke-opacity: 1; stroke-width: 1px;"/><path class="xgrid crisp" transform="translate(401.02,0)" d="M0,100v320" style="stroke: rgb(255, 255, 255); stroke-opacity: 1; stroke-width: 1px;"/><path class="xgrid crisp" transform="translate(502.43,0)" d="M0,100v320" style="stroke: rgb(255, 255, 255); stroke-opacity: 1; stroke-width: 1px;"/><path class="xgrid crisp" transform="translate(603.8399999999999,0)" d="M0,100v320" style="stroke: rgb(255, 255, 255); stroke-opacity: 1; stroke-width: 1px;"/></g><g class="y"><path class="ygrid crisp" transform="translate(0,348.07)" d="M109,0h511" style="stroke: rgb(255, 255, 255); stroke-opacity: 1; stroke-width: 1px;"/><path class="ygrid crisp" transform="translate(0,292.14)" d="M109,0h511" style="stroke: rgb(255, 255, 255); stroke-opacity: 1; stroke-width: 1px;"/><path class="ygrid crisp" transform="translate(0,236.2)" d="M109,0h511" style="stroke: rgb(255, 255, 255); stroke-opacity: 1; stroke-width: 1px;"/><path class="ygrid crisp" transform="translate(0,180.26999999999998)" d="M109,0h511" style="stroke: rgb(255, 255, 255); stroke-opacity: 1; stroke-width: 1px;"/><path class="ygrid crisp" transform="translate(0,124.33)" d="M109,0h511" style="stroke: rgb(255, 255, 255); stroke-opacity: 1; stroke-width: 1px;"/></g></g><g class="zerolinelayer"><path class="yzl zl crisp" transform="translate(0,404.01)" d="M109,0h511" style="stroke: rgb(255, 255, 255); stroke-opacity: 1; stroke-width: 2px;"/></g><path class="xlines-below"/><path class="ylines-below"/><g class="overlines-below"/><g class="xaxislayer-below"/><g class="yaxislayer-below"/><g class="overaxes-below"/><g class="plot" transform="translate(109,100)" clip-path="url(#clipcf4a6cxyplot)"><g class="scatterlayer mlayer"><g class="trace scatter tracec81ebe" style="stroke-miterlimit: 2; opacity: 1;"><g class="fills"/><g class="errorbars"/><g class="lines"><path class="js-line" d="M0,304L2.33,303.14L2.33,303.13L37.64,287.8L37.64,287.8L37.64,287.79L41.05,285.82L41.05,285.82L41.16,285.81L47.42,282.51L47.42,282.5L52.7,279.04L52.7,279.04L52.75,279.03L55.73,277.07L55.73,277.07L55.77,277.06L60.97,274.02L60.97,274.02L60.97,274.01L62.37,273.17L62.37,273.16L65.9,270.9L65.9,270.9L65.9,270.89L75.33,265.23L75.38,265.23L81.31,261.61L81.31,261.61L81.36,261.6L82.72,260.77L82.72,260.77L82.79,260.76L107.79,245.96L107.79,245.96L107.87,245.95L133.24,232.44L133.24,232.44L133.24,232.43L135.8,231.02L135.8,231.01L138.32,229.57L138.32,229.57L138.32,229.56L140.93,227.76L140.93,227.76L140.98,227.75L146.27,224.69L146.32,224.69L149.47,222.7L149.47,222.69L160.85,216.69L160.88,216.69L164.23,214.71L164.25,214.71L166.67,213.3L166.71,213.3L168.4,212.28L168.45,212.28L244.41,169.19L244.44,169.19L246.72,167.93L246.72,167.93L246.72,167.92L250.66,165.78L250.73,165.78L253.26,164.26L253.26,164.26L253.36,164.25L255.97,162.85L256.02,162.84L269.79,155.03L269.91,155.02L272.22,153.63L272.22,153.63L272.22,153.62L279.97,149.11L280.06,149.11L284.02,146.98L284.02,146.98L284.05,146.97L293.31,141.8L293.31,141.8L293.39,141.79L295.61,140.61L295.67,140.6L297.19,139.64L297.19,139.64L297.21,139.63L300.96,137.65L300.96,137.65L300.99,137.64L317.8,128.55L317.85,128.55L321.96,126.31L321.99,126.31L332.98,120.05L332.98,120.05L332.98,120.04L337.19,117.94L337.19,117.93L355.46,106.86L355.56,106.85L358.69,105.37L358.69,105.37L358.69,105.36L361.75,103.31L361.78,103.31L366.38,100.56L366.38,100.56L366.38,100.55L369.07,99.37L369.08,99.36L374.13,96.54L374.13,96.53L376.63,95.01L376.63,95L395.12,85.04L395.12,85.03L397.27,83.8L397.27,83.79L399.48,82.63L399.48,82.63L399.49,82.62L409.44,77.05L409.44,77.05L409.58,77.04L434.74,62.34L434.74,62.34L434.82,62.33L436.85,60.77L436.89,60.76L441.87,57.81L441.87,57.81L441.87,57.8L449.5,53.34L449.61,53.34L452.24,51.38L452.24,51.37L457.68,48.02L457.68,48.02L457.73,48.01L460.25,46.32L460.25,46.32L460.3,46.31L463.81,44.47L463.95,44.46L471.11,40.12L471.11,40.12L471.12,40.11L476.9,36.44L476.9,36.44L476.98,36.43L483.04,33.09L483.11,33.09L484.59,32.11L484.59,32.11L484.61,32.1L486.75,30.8L486.75,30.79L490.36,28.73L490.36,28.72L494.96,26.16L494.96,26.16L495.05,26.15L498.09,24.58L498.09,24.57L499.94,23.52L499.94,23.52L499.94,23.51L511,16" style="vector-effect: non-scaling-stroke; fill: none; stroke: rgb(168, 0, 173); stroke-opacity: 1; stroke-width: 2px; opacity: 1;"/></g><g class="points"/><g class="text"/></g></g></g><g class="overplot"/><path class="xlines-above crisp" d="M0,0" style="fill: none;"/><path class="ylines-above crisp" d="M0,0" style="fill: none;"/><g class="overlines-above"/><g class="xaxislayer-above"><g class="xtick"><text text-anchor="middle" x="0" y="436" transform="translate(198.2,0)" style="font-family: 'Times New Roman'; font-size: 15px; fill: rgb(13, 13, 13); fill-opacity: 1; white-space: pre; opacity: 1;">1.61252×10​<tspan style="font-size:70%" dy="-0.6em">18</tspan><tspan dy="0.42em">​</tspan></text></g><g class="xtick"><text text-anchor="middle" x="0" y="436" style="font-family: 'Times New Roman'; font-size: 15px; fill: rgb(13, 13, 13); fill-opacity: 1; white-space: pre; opacity: 1;" transform="translate(299.61,0)">1.612525×10​<tspan style="font-size:70%" dy="-0.6em">18</tspan><tspan dy="0.42em">​</tspan></text></g><g class="xtick"><text text-anchor="middle" x="0" y="436" style="font-family: 'Times New Roman'; font-size: 15px; fill: rgb(13, 13, 13); fill-opacity: 1; white-space: pre; opacity: 1;" transform="translate(401.02,0)">1.61253×10​<tspan style="font-size:70%" dy="-0.6em">18</tspan><tspan dy="0.42em">​</tspan></text></g><g class="xtick"><text text-anchor="middle" x="0" y="436" style="font-family: 'Times New Roman'; font-size: 15px; fill: rgb(13, 13, 13); fill-opacity: 1; white-space: pre; opacity: 1;" transform="translate(502.43,0)">1.612535×10​<tspan style="font-size:70%" dy="-0.6em">18</tspan><tspan dy="0.42em">​</tspan></text></g><g class="xtick"><text text-anchor="middle" x="0" y="436" style="font-family: 'Times New Roman'; font-size: 15px; fill: rgb(13, 13, 13); fill-opacity: 1; white-space: pre; opacity: 1;" transform="translate(603.8399999999999,0)">1.61254×10​<tspan style="font-size:70%" dy="-0.6em">18</tspan><tspan dy="0.42em">​</tspan></text></g></g><g class="yaxislayer-above"><g class="ytick"><text text-anchor="end" x="108" y="12.25" transform="translate(0,404.01)" style="font-family: 'Times New Roman'; font-size: 35px; fill: rgb(13, 13, 13); fill-opacity: 1; white-space: pre; opacity: 1;">0</text></g><g class="ytick"><text text-anchor="end" x="108" y="12.25" style="font-family: 'Times New Roman'; font-size: 35px; fill: rgb(13, 13, 13); fill-opacity: 1; white-space: pre; opacity: 1;" transform="translate(0,348.07)">10k</text></g><g class="ytick"><text text-anchor="end" x="108" y="12.25" style="font-family: 'Times New Roman'; font-size: 35px; fill: rgb(13, 13, 13); fill-opacity: 1; white-space: pre; opacity: 1;" transform="translate(0,292.14)">20k</text></g><g class="ytick"><text text-anchor="end" x="108" y="12.25" style="font-family: 'Times New Roman'; font-size: 35px; fill: rgb(13, 13, 13); fill-opacity: 1; white-space: pre; opacity: 1;" transform="translate(0,236.2)">30k</text></g><g class="ytick"><text text-anchor="end" x="108" y="12.25" style="font-family: 'Times New Roman'; font-size: 35px; fill: rgb(13, 13, 13); fill-opacity: 1; white-space: pre; opacity: 1;" transform="translate(0,180.26999999999998)">40k</text></g><g class="ytick"><text text-anchor="end" x="108" y="12.25" style="font-family: 'Times New Roman'; font-size: 35px; fill: rgb(13, 13, 13); fill-opacity: 1; white-space: pre; opacity: 1;" transform="translate(0,124.33)">50k</text></g></g><g class="overaxes-above"/></g></g><g class="polarlayer"/><g class="smithlayer"/><g class="ternarylayer"/><g class="geolayer"/><g class="funnelarealayer"/><g class="pielayer"/><g class="iciclelayer"/><g class="treemaplayer"/><g class="sunburstlayer"/><g class="glimages"/><defs id="topdefs-cf4a6c"><g class="clips"/></defs><g class="layer-above"><g class="imagelayer"/><g class="shapelayer"/></g><g class="infolayer"><g class="g-gtitle"/><g class="g-xtitle"><text class="xtitle" x="364.5" y="463.8" text-anchor="middle" style="font-family: 'Open Sans', verdana, arial, sans-serif; font-size: 14px; fill: rgb(42, 63, 95); opacity: 1; font-weight: normal; white-space: pre;">Time Steps (ns)</text></g><g class="g-ytitle" transform="translate(23.5,0)"><text class="ytitle" transform="rotate(-90,12.5,260)" x="12.5" y="260" text-anchor="middle" style="font-family: 'Times New Roman'; font-size: 40px; fill: rgb(13, 13, 13); opacity: 1; font-weight: normal; white-space: pre;">Cum. qty. executed orders</text></g></g></svg>