<svg class="main-svg" xmlns="http://www.w3.org/2000/svg" xmlns:xlink="http://www.w3.org/1999/xlink" width="700" height="500" style="" viewBox="0 0 700 500"><rect x="0" y="0" width="700" height="500" style="fill: rgb(255, 255, 255); fill-opacity: 1;"/><defs id="defs-c852a2"><g class="clips"><clipPath id="clipc852a2xyplot" class="plotclip"><rect width="497" height="320"/></clipPath><clipPath class="axesclip" id="clipc852a2x"><rect x="123" y="0" width="497" height="500"/></clipPath><clipPath class="axesclip" id="clipc852a2y"><rect x="0" y="100" width="700" height="320"/></clipPath><clipPath class="axesclip" id="clipc852a2xy"><rect x="123" y="100" width="497" height="320"/></clipPath></g><g class="gradients"/><g class="patterns"/></defs><g class="bglayer"><rect class="bg" x="123" y="100" width="497" height="320" style="fill: rgb(229, 236, 246); fill-opacity: 1; stroke-width: 0;"/></g><g class="layer-below"><g class="imagelayer"/><g class="shapelayer"/></g><g class="cartesianlayer"><g class="subplot xy"><g class="layer-subplot"><g class="shapelayer"/><g class="imagelayer"/></g><g class="minor-gridlayer"><g class="x"/><g class="y"/></g><g class="gridlayer"><g class="x"><path class="xgrid crisp" transform="translate(209.72,0)" d="M0,100v320" style="stroke: rgb(255, 255, 255); stroke-opacity: 1; stroke-width: 1px;"/><path class="xgrid crisp" transform="translate(308.35,0)" d="M0,100v320" style="stroke: rgb(255, 255, 255); stroke-opacity: 1; stroke-width: 1px;"/><path class="xgrid crisp" transform="translate(406.98,0)" d="M0,100v320" style="stroke: rgb(255, 255, 255); stroke-opacity: 1; stroke-width: 1px;"/><path class="xgrid crisp" transform="translate(505.6,0)" d="M0,100v320" style="stroke: rgb(255, 255, 255); stroke-opacity: 1; stroke-width: 1px;"/><path class="xgrid crisp" transform="translate(604.23,0)" d="M0,100v320" style="stroke: rgb(255, 255, 255); stroke-opacity: 1; stroke-width: 1px;"/></g><g class="y"><path class="ygrid crisp" transform="translate(0,354.3)" d="M123,0h497" style="stroke: rgb(255, 255, 255); stroke-opacity: 1; stroke-width: 1px;"/><path class="ygrid crisp" transform="translate(0,304.58000000000004)" d="M123,0h497" style="stroke: rgb(255, 255, 255); stroke-opacity: 1; stroke-width: 1px;"/><path class="ygrid crisp" transform="translate(0,254.87)" d="M123,0h497" style="stroke: rgb(255, 255, 255); stroke-opacity: 1; stroke-width: 1px;"/><path class="ygrid crisp" transform="translate(0,205.15)" d="M123,0h497" style="stroke: rgb(255, 255, 255); stroke-opacity: 1; stroke-width: 1px;"/><path class="ygrid crisp" transform="translate(0,155.44)" d="M123,0h497" style="stroke: rgb(255, 255, 255); stroke-opacity: 1; stroke-width: 1px;"/><path class="ygrid crisp" transform="translate(0,105.73)" d="M123,0h497" style="stroke: rgb(255, 255, 255); stroke-opacity: 1; stroke-width: 1px;"/></g></g><g class="zerolinelayer"><path class="yzl zl crisp" transform="translate(0,404.01)" d="M123,0h497" style="stroke: rgb(255, 255, 255); stroke-opacity: 1; stroke-width: 2px;"/></g><path class="xlines-below"/><path class="ylines-below"/><g class="overlines-below"/><g class="xaxislayer-below"/><g class="yaxislayer-below"/><g class="overaxes-below"/><g class="plot" transform="translate(123,100)" clip-path="url(#clipc852a2xyplot)"><g class="scatterlayer mlayer"><g class="trace scatter trace60a460" style="stroke-miterlimit: 2; opacity: 1;"><g class="fills"/><g class="errorbars"/><g class="lines"><path class="js-line" d="M0,304L2.4,302.95L2.4,302.94L7.56,300.73L7.56,300.73L7.56,300.72L13.31,298.22L13.31,298.22L13.31,298.21L30.61,290.62L30.61,290.62L30.61,290.61L36.63,287.47L36.63,287.47L36.64,287.46L40.5,285.22L40.5,285.22L40.5,285.21L42.25,284.18L42.26,284.17L44.62,282.98L44.62,282.98L44.67,282.97L80.41,261.46L80.41,261.46L80.49,261.45L83.65,259.84L83.65,259.83L85.16,258.71L85.17,258.7L88.37,256.7L88.47,256.7L91.04,255.28L91.06,255.26L96.56,252.04L96.56,252.03L98.97,250.5L98.97,250.49L102.67,247.83L102.77,247.83L104.26,246.81L104.26,246.81L104.26,246.8L112.2,242.6L112.2,242.59L122.7,236.51L122.7,236.5L126.12,234.42L126.12,234.41L129.1,232.44L129.1,232.44L129.1,232.43L131.4,231.44L131.4,231.44L131.57,231.43L134.5,230.02L134.5,230.02L134.5,230.01L137.42,228.25L137.42,228.25L137.42,228.24L141.14,226.17L141.14,226.17L141.15,226.16L148.22,221.77L148.22,221.77L148.24,221.77L152.29,219.23L152.29,219.22L159.11,214.98L159.11,214.97L177.63,204.34L177.63,204.34L177.72,204.34L184.4,200.38L184.4,200.36L186.88,198.8L186.88,198.79L191.61,196.11L191.67,196.11L202.72,189.77L202.72,189.77L202.73,189.76L210.66,185.05L210.66,185.05L210.66,185.04L217.93,180.84L217.93,180.83L220.41,179.28L220.41,179.27L222.27,178L222.32,177.99L228.78,174.01L228.86,174.01L234.29,170.96L234.29,170.95L235.96,169.92L235.96,169.91L240.82,167.04L240.82,167.02L254.01,159.22L254.01,159.22L254.24,159.21L259.11,156.46L259.21,156.45L261.49,155.1L261.61,155.09L282.51,143.88L282.66,143.87L284.06,142.93L284.06,142.93L284.11,142.93L296.99,136.34L296.99,136.33L298.65,135.02L298.65,135.02L298.68,135.01L301.99,133.36L301.99,133.33L304.3,131.67L304.3,131.67L304.41,131.66L308.39,129.4L308.39,129.4L308.53,129.39L314.33,126.09L314.33,126.08L316.53,124.91L316.53,124.91L316.55,124.9L320.19,122.97L320.19,122.96L322.29,121.76L322.39,121.76L334.75,115.22L334.75,115.22L334.75,115.21L351.81,105.44L351.86,105.44L380.62,88.45L380.62,88.45L380.69,88.44L388.93,83.39L388.98,83.38L394.97,80.11L394.97,80.11L395.01,80.11L418.12,66.21L418.12,66.2L420.59,64.82L420.59,64.82L420.6,64.81L424.34,62.12L424.34,62.11L426.68,60.55L426.68,60.54L430.19,58.58L430.19,58.58L430.19,58.57L434.2,56.15L434.2,56.15L434.26,56.14L437.42,54.3L437.42,54.29L442.62,51.2L442.62,51.2L442.62,51.18L448.72,47.38L448.79,47.38L460.39,39.38L460.39,39.38L460.46,39.37L467.66,34.99L467.66,34.98L473.12,31.33L473.18,31.33L485.95,22.9L485.95,22.89L490.55,19.78L490.55,19.78L490.55,19.77L494.21,17.6L494.22,17.59L497,16" style="vector-effect: non-scaling-stroke; fill: none; stroke: rgb(1, 102, 87); stroke-opacity: 1; stroke-width: 2px; opacity: 1;"/></g><g class="points"/><g class="text"/></g></g></g><g class="overplot"/><path class="xlines-above crisp" d="M0,0" style="fill: none;"/><path class="ylines-above crisp" d="M0,0" style="fill: none;"/><g class="overlines-above"/><g class="xaxislayer-above"><g class="xtick"><text text-anchor="middle" x="0" y="436" transform="translate(209.72,0)" style="font-family: 'Times New Roman'; font-size: 15px; fill: rgb(13, 13, 13); fill-opacity: 1; white-space: pre; opacity: 1;">1.61252×10​<tspan style="font-size:70%" dy="-0.6em">18</tspan><tspan dy="0.42em">​</tspan></text></g><g class="xtick"><text text-anchor="middle" x="0" y="436" style="font-family: 'Times New Roman'; font-size: 15px; fill: rgb(13, 13, 13); fill-opacity: 1; white-space: pre; opacity: 1;" transform="translate(308.35,0)">1.612525×10​<tspan style="font-size:70%" dy="-0.6em">18</tspan><tspan dy="0.42em">​</tspan></text></g><g class="xtick"><text text-anchor="middle" x="0" y="436" style="font-family: 'Times New Roman'; font-size: 15px; fill: rgb(13, 13, 13); fill-opacity: 1; white-space: pre; opacity: 1;" transform="translate(406.98,0)">1.61253×10​<tspan style="font-size:70%" dy="-0.6em">18</tspan><tspan dy="0.42em">​</tspan></text></g><g class="xtick"><text text-anchor="middle" x="0" y="436" style="font-family: 'Times New Roman'; font-size: 15px; fill: rgb(13, 13, 13); fill-opacity: 1; white-space: pre; opacity: 1;" transform="translate(505.6,0)">1.612535×10​<tspan style="font-size:70%" dy="-0.6em">18</tspan><tspan dy="0.42em">​</tspan></text></g><g class="xtick"><text text-anchor="middle" x="0" y="436" style="font-family: 'Times New Roman'; font-size: 15px; fill: rgb(13, 13, 13); fill-opacity: 1; white-space: pre; opacity: 1;" transform="translate(604.23,0)">1.61254×10​<tspan style="font-size:70%" dy="-0.6em">18</tspan><tspan dy="0.42em">​</tspan></text></g></g><g class="yaxislayer-above"><g class="ytick"><text text-anchor="end" x="122" y="12.25" transform="translate(0,404.01)" style="font-family: 'Times New Roman'; font-size: 35px; fill: rgb(13, 13, 13); fill-opacity: 1; white-space: pre; opacity: 1;">0</text></g><g class="ytick"><text text-anchor="end" x="122" y="12.25" style="font-family: 'Times New Roman'; font-size: 35px; fill: rgb(13, 13, 13); fill-opacity: 1; white-space: pre; opacity: 1;" transform="translate(0,354.3)">0.5B</text></g><g class="ytick"><text text-anchor="end" x="122" y="12.25" style="font-family: 'Times New Roman'; font-size: 35px; fill: rgb(13, 13, 13); fill-opacity: 1; white-space: pre; opacity: 1;" transform="translate(0,304.58000000000004)">1B</text></g><g class="ytick"><text text-anchor="end" x="122" y="12.25" style="font-family: 'Times New Roman'; font-size: 35px; fill: rgb(13, 13, 13); fill-opacity: 1; white-space: pre; opacity: 1;" transform="translate(0,254.87)">1.5B</text></g><g class="ytick"><text text-anchor="end" x="122" y="12.25" style="font-family: 'Times New Roman'; font-size: 35px; fill: rgb(13, 13, 13); fill-opacity: 1; white-space: pre; opacity: 1;" transform="translate(0,205.15)">2B</text></g><g class="ytick"><text text-anchor="end" x="122" y="12.25" style="font-family: 'Times New Roman'; font-size: 35px; fill: rgb(13, 13, 13); fill-opacity: 1; white-space: pre; opacity: 1;" transform="translate(0,155.44)">2.5B</text></g><g class="ytick"><text text-anchor="end" x="122" y="12.25" style="font-family: 'Times New Roman'; font-size: 35px; fill: rgb(13, 13, 13); fill-opacity: 1; white-space: pre; opacity: 1;" transform="translate(0,105.73)">3B</text></g></g><g class="overaxes-above"/></g></g><g class="polarlayer"/><g class="smithlayer"/><g class="ternarylayer"/><g class="geolayer"/><g class="funnelarealayer"/><g class="pielayer"/><g class="iciclelayer"/><g class="treemaplayer"/><g class="sunburstlayer"/><g class="glimages"/><defs id="topdefs-c852a2"><g class="clips"/></defs><g class="layer-above"><g class="imagelayer"/><g class="shapelayer"/></g><g class="infolayer"><g class="g-gtitle"/><g class="g-xtitle"><text class="xtitle" x="371.5" y="463.8" text-anchor="middle" style="font-family: 'Open Sans', verdana, arial, sans-serif; font-size: 14px; fill: rgb(42, 63, 95); opacity: 1; font-weight: normal; white-space: pre;">Time Steps (ns)</text></g><g class="g-ytitle" transform="translate(24.109375,0)"><text class="ytitle" transform="rotate(-90,11.890625,260)" x="11.890625" y="260" text-anchor="middle" style="font-family: 'Times New Roman'; font-size: 40px; fill: rgb(13, 13, 13); opacity: 1; font-weight: normal; white-space: pre;">Cum. executed trading vol. (in $)</text></g></g></svg>