<svg class="main-svg" xmlns="http://www.w3.org/2000/svg" xmlns:xlink="http://www.w3.org/1999/xlink" width="700" height="500" style="" viewBox="0 0 700 500"><rect x="0" y="0" width="700" height="500" style="fill: rgb(255, 255, 255); fill-opacity: 1;"/><defs id="defs-111d47"><g class="clips"><clipPath id="clip111d47xyplot" class="plotclip"><rect width="399" height="300"/></clipPath><clipPath class="axesclip" id="clip111d47x"><rect x="137" y="0" width="399" height="500"/></clipPath><clipPath class="axesclip" id="clip111d47y"><rect x="0" y="100" width="700" height="300"/></clipPath><clipPath class="axesclip" id="clip111d47xy"><rect x="137" y="100" width="399" height="300"/></clipPath></g><g class="gradients"/><g class="patterns"/></defs><g class="bglayer"><rect class="bg" x="137" y="100" width="399" height="300" style="fill: rgb(229, 236, 246); fill-opacity: 1; stroke-width: 0;"/></g><g class="layer-below"><g class="imagelayer"/><g class="shapelayer"/></g><g class="cartesianlayer"><g class="subplot xy"><g class="layer-subplot"><g class="shapelayer"/><g class="imagelayer"/></g><g class="minor-gridlayer"><g class="x"/><g class="y"/></g><g class="gridlayer"><g class="x"><path class="xgrid crisp" transform="translate(206.48000000000002,0)" d="M0,100v300" style="stroke: rgb(255, 255, 255); stroke-opacity: 1; stroke-width: 1px;"/><path class="xgrid crisp" transform="translate(285.7,0)" d="M0,100v300" style="stroke: rgb(255, 255, 255); stroke-opacity: 1; stroke-width: 1px;"/><path class="xgrid crisp" transform="translate(364.93,0)" d="M0,100v300" style="stroke: rgb(255, 255, 255); stroke-opacity: 1; stroke-width: 1px;"/><path class="xgrid crisp" transform="translate(444.15,0)" d="M0,100v300" style="stroke: rgb(255, 255, 255); stroke-opacity: 1; stroke-width: 1px;"/><path class="xgrid crisp" transform="translate(523.38,0)" d="M0,100v300" style="stroke: rgb(255, 255, 255); stroke-opacity: 1; stroke-width: 1px;"/></g><g class="y"><path class="ygrid crisp" transform="translate(0,367.41)" d="M137,0h399" style="stroke: rgb(255, 255, 255); stroke-opacity: 1; stroke-width: 1px;"/><path class="ygrid crisp" transform="translate(0,308.7)" d="M137,0h399" style="stroke: rgb(255, 255, 255); stroke-opacity: 1; stroke-width: 1px;"/><path class="ygrid crisp" transform="translate(0,191.3)" d="M137,0h399" style="stroke: rgb(255, 255, 255); stroke-opacity: 1; stroke-width: 1px;"/><path class="ygrid crisp" transform="translate(0,132.59)" d="M137,0h399" style="stroke: rgb(255, 255, 255); stroke-opacity: 1; stroke-width: 1px;"/></g></g><g class="zerolinelayer"><path class="yzl zl crisp" transform="translate(0,250)" d="M137,0h399" style="stroke: rgb(255, 255, 255); stroke-opacity: 1; stroke-width: 2px;"/></g><path class="xlines-below"/><path class="ylines-below"/><g class="overlines-below"/><g class="xaxislayer-below"/><g class="yaxislayer-below"/><g class="overaxes-below"/><g class="plot" transform="translate(137,100)" clip-path="url(#clip111d47xyplot)"><g class="scatterlayer mlayer"><g class="trace scatter trace9df78d" style="stroke-miterlimit: 2; opacity: 1;"><g class="fills"/><g class="errorbars"/><g class="lines"><path class="js-line" d="M0,285L0.71,120.65L0.79,150L0.84,138.26L0.85,132.39L0.96,155.87L1.57,144.13L1.58,155.87L2.22,161.74L2.34,138.26L2.34,161.74L3.07,144.13L3.07,196.96L3.12,108.9L3.82,144.13L3.84,155.87L3.84,144.13L4.43,144.13L4.62,144.13L5.18,161.74L5.26,138.26L5.3,155.87L5.4,144.13L5.97,138.26L6.08,161.74L6.1,138.26L6.17,144.13L6.67,155.87L6.86,144.13L7.03,144.13L7.84,173.49L7.85,150L8.1,132.38L8.31,179.36L8.48,173.49L8.49,120.64L9.22,161.74L9.3,144.13L9.37,144.13L10.13,155.87L10.13,155.87L10.2,144.13L10.69,138.26L10.85,155.87L10.91,138.26L10.95,138.26L10.98,161.74L11.66,132.38L11.66,132.38L11.78,155.87L11.83,144.13L12.5,144.13L12.56,155.87L12.77,155.87L12.77,155.87L12.78,144.13L13.27,161.74L13.64,155.87L13.67,144.13L14.18,161.75L14.42,155.87L14.44,144.13L14.84,167.62L15.15,150L15.22,144.13L15.29,138.25L15.46,173.49L15.95,150L16,150L16.39,167.62L16.42,132.38L16.7,167.62L16.76,126.51L17.4,161.75L17.51,150L17.57,150L17.61,144.13L17.97,161.75L18.26,150L18.28,138.25L18.29,161.75L19.02,144.13L19.05,155.87L19.66,138.25L19.79,150L19.84,155.87L20.13,138.25L20.57,155.87L20.62,144.13L21.23,132.38L21.33,167.62L21.33,167.62L21.39,132.38L22.2,167.62L22.31,155.87L22.34,150L22.43,161.75L22.97,138.25L23.09,144.13L23.2,144.13L23.81,138.25L23.91,161.75L23.91,161.75L23.91,138.25L24.67,155.87L24.72,144.13L24.77,144.13L25.45,155.87L25.45,150L25.55,155.87L26.16,161.75L26.24,138.25L26.3,150L26.39,150L26.58,191.12L26.71,126.5L27.13,150L27.19,155.87L27.92,132.38L27.92,167.62L27.94,138.25L28.65,155.87L28.68,144.13L28.9,173.5L29.12,132.37L29.48,155.87L29.48,150L29.69,132.37L29.97,155.88L30.1,144.12L30.16,144.12L30.43,173.5L30.51,126.5L30.89,144.12L30.96,144.12L31.24,132.37L31.38,167.63L31.72,155.88L31.74,144.12L32.48,155.88L32.5,144.12L32.5,155.88L33.24,150L33.31,150L33.78,161.75L33.88,138.25L34.1,144.12L34.11,155.88L34.32,161.75L34.52,138.25L34.83,155.87L34.91,155.87L35.32,132.38L35.64,155.87L35.67,144.13L35.93,126.5L35.94,173.5L36.32,150L36.39,144.13L37.08,138.25L37.1,161.75L37.12,155.87L37.18,144.13L37.95,155.87L37.95,155.87L37.95,144.13L38.36,161.75L38.38,132.38L38.72,155.87L38.75,155.87L39.09,161.75L39.11,138.25L39.52,144.13L39.55,150L39.67,161.75L40.27,144.13L40.35,155.87L41.02,161.75L41.05,132.37L41.11,150L41.11,155.88L41.11,161.75L41.2,138.25L41.86,150L41.88,150L42.13,161.75L42.62,144.12L42.67,144.12L42.92,132.38L43.32,161.75L43.41,144.13L43.44,155.87L44.2,144.13L44.2,144.13L44.2,155.87L44.74,161.75L44.93,144.13L44.94,150L44.99,155.87L45.44,138.25L45.7,144.13L45.75,155.87L46.01,108.88L46.01,196.99L46.38,144.13L46.4,155.87L46.61,138.25L47.13,155.87L47.22,150L47.36,144.13L47.93,155.87L47.94,150L48,144.13L48.02,132.38L48.14,179.37L48.75,155.87L48.76,144.13L48.91,161.75L49.46,155.87L49.54,155.87L49.91,161.75L50.29,138.25L50.3,144.13L50.37,144.13L50.38,155.87L51.09,155.87L51.13,144.13L51.9,161.75L51.9,155.87L51.91,155.87L51.94,167.62L52.34,144.13L52.63,155.87L52.65,155.87L53.09,138.25L53.17,161.75L53.32,155.87L53.41,144.13L54.11,161.75L54.17,155.87L54.51,132.38L54.56,167.62L54.92,155.87L54.94,155.87L55.11,161.74L55.25,138.26L55.69,155.87L55.73,155.87L56.47,138.26L56.51,150L56.57,155.87L56.92,138.26L56.92,167.61L57.29,161.74L57.32,161.74L58.15,144.13L58.18,150L58.2,155.87L58.95,138.26L58.95,144.13L58.97,144.13L59.75,155.87L59.75,150L59.75,155.87L60.35,132.39L60.5,144.13L60.51,155.87L61.25,132.39L61.27,167.61L61.41,132.39L62,155.87L62.1,155.87L62.39,167.61L62.41,85.42L62.81,91.29L62.82,214.58L63.22,126.52L63.54,150L63.62,155.87L64.21,161.74L64.3,138.26L64.31,144.13L64.38,161.74L64.41,167.61L64.47,132.39L65.15,144.13L65.16,155.87L65.47,132.39L65.63,167.61L65.89,144.13L65.93,155.87L66.01,167.61L66.63,138.26L66.7,144.13L66.71,150L66.75,144.13L67.36,155.87L67.45,150L67.47,138.26L67.58,161.74L68.24,150L68.27,155.87L68.89,144.13L68.98,150L69.03,150L69.03,144.13L69.04,155.87L69.78,155.87L69.79,150L69.97,161.74L69.99,138.26L70.49,155.87L70.5,144.13L71.22,155.87L71.37,155.87L71.85,161.74L72.1,138.26L72.1,155.87L72.13,161.74L72.83,144.13L72.83,144.13L72.84,155.87L73.55,144.13L73.64,155.87L74.38,144.13L74.38,144.13L74.43,155.87L75.03,138.26L75.03,167.61L75.19,150L75.24,155.87L75.7,144.13L75.99,150L76,155.87L76.76,144.13L76.76,144.13L76.8,155.87L77.3,161.74L77.41,144.13L77.45,155.87L77.56,155.87L77.76,138.26L77.85,161.74L78.31,155.87L78.32,155.87L78.36,138.26L79.08,144.13L79.1,155.87L79.6,138.26L79.72,161.74L79.85,155.87L79.92,144.13L80.52,161.74L80.68,155.87L80.68,144.13L80.68,155.87L81.1,132.38L81.42,144.13L81.44,150L81.55,144.13L82.07,161.75L82.19,155.87L82.24,144.13L82.43,138.25L82.7,161.75L83.01,155.87L83.01,144.13L83.66,161.75L83.7,138.25L83.7,138.25L83.8,144.13L83.84,132.38L83.95,167.62L84.55,150L84.57,150L84.63,155.87L85.31,144.13L85.32,155.87L85.59,167.62L85.84,132.38L86.04,155.88L86.07,155.88L86.19,132.37L86.26,161.75L86.82,150L86.84,144.13L86.95,138.25L87.37,167.62L87.66,155.88L87.67,144.12L87.93,138.25L88.31,155.88L88.43,150L88.47,144.13L88.78,161.75L88.98,138.25L88.98,167.62L89.43,138.25L89.72,150L89.79,150L89.9,144.12L90.11,161.75L90.5,144.13L90.55,150L90.69,161.75L91.04,132.38L91.24,144.13L91.25,155.87L91.36,173.5L91.36,126.5L92,144.13L92.02,155.87L92.51,120.63L92.51,173.5L92.75,150L92.82,150L92.96,167.62L93.35,126.51L93.57,132.38L93.61,144.13L94.04,173.49L94.1,126.51L94.34,132.38L94.36,155.87L95.07,138.25L95.13,144.13L95.13,138.25L95.38,161.75L95.87,144.13L95.91,155.87L96.63,126.51L96.68,167.61L97.3,138.26L97.43,144.13L97.45,150L97.5,126.51L98.05,155.87L98.07,138.26L98.09,126.52L98.2,167.61L98.83,161.74L98.85,161.74L99.01,138.26L99.58,144.13L99.62,155.87L100.13,132.39L100.14,173.48L100.3,150L100.35,202.83L100.39,114.78L101.08,144.13L101.14,155.87L101.27,114.78L101.76,185.22L101.84,120.65L101.96,150L102.05,185.22L102.06,114.78L102.64,155.87L102.73,144.13L102.87,103.04L103.06,179.35L103.48,144.13L103.5,144.13L104.19,155.87L104.26,150L104.26,144.13L104.92,179.35L104.94,167.61L105.04,150L105.29,138.26L105.49,161.74L105.79,150L105.79,144.13L106.01,167.61L106.07,138.26L106.45,138.26L106.56,167.61L106.6,138.26L107.32,155.87L107.34,179.35L107.56,138.26L108.14,144.13L108.2,155.87L108.24,161.74L108.94,144.13L108.96,150L109.04,144.13L109.26,138.26L109.27,161.74L109.78,150L109.83,155.87L109.93,144.13L110.54,150L110.61,144.13L111.37,155.87L111.38,144.13L111.8,173.48L111.81,132.39L112.14,150L112.16,144.13L112.39,138.26L112.88,173.48L112.92,144.13L113.01,173.48L113.53,132.39L113.65,155.87L113.69,155.87L113.83,138.26L113.95,167.61L114.42,150L114.45,155.87L114.66,161.74L114.94,138.26L115.21,144.13L115.22,150L115.39,138.26L115.39,161.74L115.94,150L116.02,144.13L116.36,167.61L116.76,155.87L116.79,144.13L117.4,138.26L117.57,161.74L117.57,161.74L117.6,150L117.68,144.13L117.76,161.74L118.3,144.13L118.35,144.13L119.04,132.38L119.04,161.74L119.08,150L119.12,150L119.32,144.13L119.63,161.74L119.66,144.13L119.75,144.13L120.13,167.62L120.47,138.25L120.51,150L120.57,144.13L120.61,191.11L121.1,120.63L121.3,155.87L121.36,150L121.52,138.25L121.6,155.87L122.09,155.87L122.17,144.13L122.34,138.25L122.65,167.62L122.9,144.13L122.94,144.13L123.66,155.87L123.68,150L123.74,144.13L124.04,132.38L124.33,173.49L124.49,144.13L124.57,138.25L124.8,161.75L125.33,150L125.36,144.13L125.99,155.87L126.07,144.13L126.12,144.13L126.38,138.25L126.68,155.87L126.87,150L126.88,144.13L127.01,132.38L127.2,161.75L127.6,150L127.68,150L128.27,173.49L128.28,120.63L128.39,155.87L128.46,155.87L128.49,138.25L128.5,161.75L129.16,144.13L129.22,155.87L129.3,144.13L129.97,144.13L130,144.13L130.69,173.5L130.69,167.62L130.73,138.25L130.89,120.63L131.35,167.62L131.5,144.13L131.51,144.13L131.52,126.5L131.55,167.62L132.24,144.13L132.27,144.13L132.37,132.37L132.69,161.75L133.01,150L133.09,150L133.76,138.25L133.76,161.75L133.76,161.75L133.89,138.25L134.58,167.63L134.62,138.25L134.64,132.37L134.7,167.63L135.4,138.25L135.43,155.88L136,167.63L136.11,126.5L136.16,144.12L136.19,155.88L136.19,144.12L136.94,161.75L136.98,138.25L137.37,161.75L137.74,150L137.75,144.12L137.75,155.88L138.37,150L138.52,155.88L139.12,161.75L139.3,138.25L139.33,150L139.38,155.88L139.56,138.25L139.98,144.12L140.09,155.88L140.45,167.63L140.55,138.25L140.84,150L140.9,144.12L141.58,155.88L141.59,150L141.64,144.12L142.22,167.63L142.37,144.12L142.41,144.12L143.18,155.88L143.18,144.12L143.19,138.25L143.39,161.75L143.91,150L143.94,144.12L144.63,167.63L144.68,126.49L144.9,161.75L145.49,144.12L145.51,144.12L146.21,155.88L146.27,150L146.31,144.12L147.07,155.88L147.07,155.88L147.1,144.12L147.81,173.51L147.88,167.63L147.9,144.12L147.91,167.63L147.92,126.49L148.63,144.12L148.67,155.88L148.96,138.25L149.43,144.12L149.44,155.88L149.54,138.25L150.17,161.75L150.19,150L150.21,150L150.33,185.27L150.4,102.98L150.89,144.12L150.92,191.14L150.93,114.73L151.65,150L151.68,144.12L152.44,155.88L152.44,155.88L152.45,144.12L152.88,155.88L153.15,138.25L153.16,144.12L153.23,144.12L153.4,161.75L153.54,138.25L154.02,155.88L154.02,150L154.13,155.88L154.67,138.25L154.76,155.88L154.77,155.88L155.48,144.12L155.51,155.88L155.58,150L155.83,155.88L156.34,144.12L156.34,144.12L156.39,150L156.52,155.88L157.06,138.25L157.12,144.12L157.18,144.12L157.94,155.88L157.94,150L157.95,144.12L158.5,155.88L158.6,150L158.61,144.12L158.87,161.75L159.32,144.12L159.36,144.12L160.01,155.88L160.13,150L160.14,144.12L160.14,155.88L160.88,150L160.93,144.12L161.56,155.88L161.57,138.25L161.67,150L161.69,144.12L161.87,138.25L162.19,161.75L162.43,144.12L162.45,144.12L162.45,155.88L163.2,155.88L163.21,150L163.44,161.75L163.44,138.25L163.93,144.12L164.02,144.12L164.07,155.88L164.71,144.12L164.78,144.12L165.15,138.24L165.29,161.76L165.52,150L165.53,138.25L165.83,138.24L165.85,167.63L166.29,150L166.31,150L166.39,155.88L166.84,144.12L167.02,155.88L167.07,150L167.07,155.88L167.26,138.25L167.81,155.88L167.84,144.12L168.29,155.88L168.56,150L168.63,144.12L168.73,155.88L169.25,138.25L169.37,155.88L169.4,155.88L169.45,138.25L170.15,144.12L170.2,144.12L170.68,138.24L170.86,155.88L170.91,138.24L170.96,144.12L171.01,138.24L171.3,179.39L171.72,155.88L171.72,144.12L171.91,179.39L171.97,114.73L172.46,144.12L172.5,144.12L172.7,144.12L172.7,144.12L172.72,155.88L173.26,138.24L173.52,144.12L173.54,144.12L174.04,167.63L174.3,150L174.34,150L174.63,155.88L175.1,144.12L175.14,144.12L175.83,155.88L175.89,144.12L175.9,144.12L175.92,173.51L176,138.24L176.63,144.12L176.66,144.12L177.34,155.88L177.4,144.12L177.44,155.88L178.2,144.12L178.2,144.12L178.22,155.88L178.64,179.4L178.84,102.96L178.87,191.16L179.28,108.84L179.62,144.12L179.63,144.12L179.8,132.36L180.19,161.76L180.37,155.88L180.4,155.88L180.5,144.12L180.97,161.76L181.14,144.12L181.21,144.12L181.34,132.36L181.77,161.76L181.94,150L181.96,138.24L182.79,161.76L182.79,161.76L182.81,138.24L183.52,155.88L183.52,155.88L183.53,144.12L184.07,138.24L184.22,155.88L184.24,144.12L184.29,144.12L184.47,155.88L185.03,144.12L185.05,155.88L185.68,161.76L185.78,138.24L185.79,150L185.88,144.12L186.02,138.24L186.45,155.88L186.62,138.24L186.66,138.24L187.33,155.88L187.35,150L187.43,144.12L187.46,155.88L188.17,144.12L188.21,144.12L188.61,161.76L188.67,138.24L188.92,144.12L188.94,138.24L189.65,132.36L189.71,161.76L189.71,161.76L189.72,138.24L189.78,167.64L189.99,132.36L190.25,144.12L190.25,167.64L190.49,114.73L190.49,185.27L190.99,132.36L191.04,167.64L191.05,132.36L191.7,155.88L191.81,150L191.93,155.88L192.54,144.12L192.54,144.12L192.56,155.88L192.86,144.12L193.31,150L193.33,155.88L193.38,144.12L194.08,144.12L194.1,155.88L194.26,132.37L194.32,167.63L194.84,144.12L194.87,155.88L195,138.24L195.62,144.12L195.67,150L195.81,138.24L195.83,167.63L196.26,150L196.33,144.12L196.82,161.76L196.83,138.24L197.09,150L197.12,150L197.12,144.12L197.19,155.88L197.84,150L197.89,155.88L198.65,144.12L198.65,144.12L198.66,155.88L199.46,144.12L199.46,144.12L199.47,144.12L199.9,132.37L199.98,173.51L200.23,155.88L200.25,155.88L200.42,120.62L200.49,167.63L200.96,144.12L200.97,155.88L201.04,167.63L201.62,132.37L201.67,155.88L201.79,155.88L202.45,144.12L202.51,150L202.53,161.75L202.57,138.25L203.19,150L203.2,155.88L203.94,138.25L203.96,155.87L204.5,132.38L204.7,150L204.8,155.87L205.03,144.13L205.52,155.87L205.63,144.13L206.34,144.12L206.36,161.75L206.4,155.88L206.42,150L206.44,144.12L206.61,155.88L207.1,155.88L207.18,155.88L207.27,161.75L207.28,138.25L207.92,155.87L207.94,150L208.19,126.5L208.59,167.62L208.69,126.5L208.91,167.62L209.44,155.87L209.5,144.13L210.19,132.38L210.26,161.75L210.32,150L210.66,161.75L210.72,138.25L211.04,155.87L211.09,144.13L211.8,161.75L211.83,155.87L211.85,144.13L211.91,138.25L212.55,161.75L212.6,155.87L212.62,144.13L213.14,138.25L213.18,161.75L213.43,155.87L213.46,150L213.91,138.25L213.97,167.62L214.2,155.87L214.24,144.13L214.37,138.25L214.44,167.62L214.97,161.75L214.97,138.25L215.12,161.75L215.71,144.13L215.75,144.13L216.51,155.87L216.51,150L216.52,150L216.58,144.13L217.17,155.87L217.17,144.13L217.23,144.13L218.01,155.87L218.01,155.87L218.01,144.13L218.68,126.51L218.76,155.87L218.77,144.13L219.18,161.75L219.52,144.13L219.57,144.13L219.94,132.38L220.14,167.62L220.33,155.87L220.35,150L220.64,132.38L220.77,167.62L221.06,155.87L221.08,155.87L221.41,138.25L221.81,144.13L221.85,155.87L222.58,144.13L222.58,144.13L222.61,155.87L223.34,144.13L223.35,155.87L223.4,144.13L223.99,155.87L224.07,150L224.15,144.13L224.26,138.25L224.33,161.75L224.87,150L224.9,144.13L225.66,155.87L225.68,155.87L225.98,138.25L226.41,161.75L226.42,144.13L226.47,155.87L226.47,144.13L227.16,144.13L227.29,155.87L228.1,138.25L228.12,161.75L228.14,138.25L228.85,179.37L228.85,179.37L228.87,173.49L229.02,179.37L229.63,132.38L229.63,132.38L229.64,132.38L229.7,167.62L230.34,155.87L230.4,155.87L230.6,161.75L231.15,144.13L231.2,155.87L231.28,144.13L231.95,150L231.96,155.87L232.33,132.38L232.69,150L232.77,144.13L232.81,155.87L233.5,155.87L233.53,155.87L233.82,161.75L233.95,132.38L234.13,155.87L234.16,161.75L234.42,138.25L234.79,150L234.86,155.87L235.46,167.62L235.54,138.25L235.57,167.62L235.59,167.62L235.66,138.25L236.34,150L236.36,155.87L236.36,144.13L237.07,155.87L237.15,144.13L237.53,161.75L237.91,155.87L238.01,155.87L238.74,144.13L238.76,155.87L238.77,155.87L239.49,144.13L239.52,155.87L239.57,155.87L240.32,144.13L240.34,155.87L241.11,144.13L241.15,150L241.29,144.13L241.9,155.87L241.93,150L242.36,138.25L242.69,161.75L242.7,155.87L242.74,155.87L243.49,144.13L243.49,144.13L243.54,155.87L244.17,144.13L244.24,155.87L244.24,144.13L244.99,144.13L245.01,155.87L245.77,144.13L245.78,150L245.8,150L245.91,144.13L246.42,155.87L246.48,150L246.56,144.13L247.12,167.62L247.26,150L247.42,144.13L247.48,138.25L247.83,161.75L248.15,144.13L248.2,155.87L248.37,138.25L248.93,150L248.98,150L249.46,167.62L249.58,144.13L249.63,167.62L249.75,155.87L249.86,167.62L250.34,108.89L250.35,185.23L250.75,138.26L251.09,167.61L251.12,155.87L251.5,196.98L251.78,144.13L251.85,155.87L251.89,155.87L252.25,161.75L252.32,138.25L252.64,150L252.65,150L252.82,144.13L253.4,155.87L253.4,155.87L253.42,150L253.55,144.13L253.61,173.49L253.64,120.63L253.65,179.37L254.39,150L254.5,155.87L254.96,167.62L254.96,120.63L255.25,155.87L255.28,155.87L256.04,144.13L256.08,150L256.14,167.62L256.14,132.38L256.75,155.88L256.83,144.13L257.08,167.62L257.1,132.38L257.53,155.88L257.56,144.12L257.76,155.88L257.9,138.25L258.28,144.12L258.32,144.12L259.01,155.88L259.07,150L259.12,144.12L259.86,161.75L259.86,144.12L259.88,132.37L260.23,173.5L260.55,150L260.65,144.12L260.82,138.25L260.9,167.63L261.37,150L261.42,144.12L261.78,138.25L262.11,155.88L262.14,144.12L262.19,144.12L262.23,138.25L262.3,155.88L262.92,144.12L262.95,150L263.22,138.25L263.23,161.75L263.68,150L263.71,150L263.74,155.88L264.47,144.12L264.47,144.12L264.48,150L264.79,138.25L265.12,155.88L265.23,150L265.32,144.12L265.46,138.25L266.06,155.88L266.07,144.12L266.07,138.25L266.37,161.75L266.69,155.88L266.79,138.25L267.06,161.75L267.52,144.12L267.54,144.12L267.77,138.25L268.12,161.75L268.24,144.12L268.3,144.12L268.37,138.25L268.8,161.75L269.05,155.88L269.06,144.12L269.58,132.37L269.6,167.63L269.8,144.12L269.84,144.12L270.01,161.75L270.32,155.88L270.41,144.12L271.04,138.25L271.05,155.88L271.17,150L271.17,144.12L271.93,155.88L271.98,144.12L272.3,138.25L272.58,161.75L272.77,155.88L272.8,144.12L272.8,155.88L273.53,144.12L273.56,144.12L274.29,155.88L274.32,150L274.34,150L274.74,132.37L275.01,155.88L275.05,150L275.11,144.12L275.29,126.5L275.64,167.63L275.9,155.88L275.9,144.13L276.45,138.25L276.49,161.75L276.64,144.13L276.68,144.13L277.26,132.38L277.28,161.75L277.45,155.87L277.47,144.13L277.49,138.25L277.68,161.75L278.16,155.87L278.24,144.13L278.31,114.76L278.48,167.62L278.99,150L279.03,150L279.03,161.75L279.08,138.25L279.77,144.13L279.79,150L280.23,161.75L280.23,138.25L280.43,155.87L280.56,150L280.9,138.25L280.93,167.62L281.28,144.13L281.32,150L281.93,91.28L281.93,214.59L282.06,132.38L282.08,208.72L282.15,120.64L282.85,144.13L282.88,144.13L283.5,161.74L283.53,138.26L283.63,144.13L283.65,155.87L283.65,161.74L283.87,126.51L284.4,155.87L284.44,150L284.65,144.13L285.05,155.87L285.12,144.13L285.19,144.13L285.63,138.26L285.65,161.74L285.97,155.87L285.97,144.13L286.53,132.38L286.62,167.62L286.72,150L286.75,150L287.15,138.26L287.46,155.87L287.46,155.87L287.48,144.13L287.89,138.26L288.23,161.74L288.23,161.74L288.25,138.26L288.28,155.87L288.99,144.13L289.09,150L289.47,126.51L289.48,173.49L289.68,144.13L289.87,150L289.87,144.13L289.88,155.87L290.58,150L290.64,144.13L290.77,138.25L290.8,161.74L291.31,155.87L291.45,138.26L291.51,138.25L292.02,167.62L292.14,155.87L292.17,150L292.23,132.38L292.36,161.74L292.89,144.13L292.91,144.13L293.61,155.87L293.62,138.26L293.62,144.13L293.68,144.13L294.44,155.87L294.45,150L294.45,144.13L294.76,138.25L295.02,167.62L295.16,138.25L295.17,138.25L295.94,161.75L295.95,161.75L296.04,167.62L296.13,132.38L296.72,144.13L296.73,144.13L297,138.25L297.48,155.87L297.48,150L297.54,150L297.61,155.87L298.26,144.13L298.26,144.13L298.29,155.87L298.29,144.13L298.99,150L299.06,150L299.53,161.75L299.53,138.25L299.79,150L299.85,155.87L300.1,161.75L300.62,144.13L300.64,150L301.29,138.25L301.29,167.62L301.39,150L301.4,150L301.54,144.13L302.01,179.37L302.14,161.75L302.17,138.25L302.3,191.12L302.49,103L302.91,150L302.97,144.13L303.05,179.37L303.13,132.38L303.72,155.87L303.73,150L304.17,132.37L304.28,167.63L304.48,150L304.5,161.75L304.9,138.25L305.07,173.5L305.21,173.5L305.27,150L305.27,173.5L305.29,126.5L306.01,150L306.04,144.12L306.34,126.5L306.69,197.01L306.79,144.12L306.82,144.12L306.97,167.63L307.03,132.37L307.58,155.88L307.59,144.12L307.83,138.25L308.3,155.88L308.32,150L308.35,144.12L308.8,132.37L309.04,155.88L309.09,150L309.13,150L309.75,132.37L309.76,167.63L309.87,138.25L309.92,144.12L310.39,132.37L310.66,155.88L310.66,155.88L310.69,144.12L311.02,138.25L311.31,155.88L311.39,150L311.45,144.12L311.54,138.25L311.55,161.75L312.2,144.12L312.22,150L312.46,155.88L312.89,144.12L312.93,155.88L312.94,155.88L313.65,144.12L313.7,150L313.71,155.88L314.35,161.75L314.44,138.25L314.45,150L314.54,150L314.57,161.75L314.79,138.25L315.22,155.88L315.28,150L315.43,155.88L315.85,144.12L316.01,150L316.05,150L316.16,155.88L316.8,144.12L316.8,144.12L316.86,155.88L317.63,144.12L317.67,150L317.8,144.12L318.43,155.88L318.43,155.88L318.43,144.12L319.05,161.75L319.2,155.88L319.2,144.12L319.32,138.25L319.77,161.75L320.01,155.88L320.02,155.88L320.16,132.37L320.22,167.63L320.76,150L320.78,155.88L320.78,144.12L321.53,144.12L321.59,150L321.72,155.88L322.32,144.12L322.32,144.12L322.35,150L322.45,155.88L323.01,144.12L323.08,150L323.17,155.88L323.92,144.12L323.93,150L323.94,150L323.99,144.12L324.62,155.88L324.66,150L324.69,144.12L324.8,138.25L324.94,161.75L325.44,144.12L325.45,144.12L326.19,155.88L326.2,150L326.2,138.25L327,155.88L327,155.88L327.01,144.12L327.3,138.25L327.63,167.63L327.68,155.88L327.71,132.37L327.72,161.75L328.46,155.87L328.49,144.13L328.71,132.38L328.97,167.62L329.19,132.38L329.25,144.13L329.75,202.86L329.89,79.52L329.99,144.13L330.01,144.13L330.43,179.37L330.45,126.5L330.8,167.62L330.83,132.38L331.14,161.75L331.64,155.87L331.65,144.13L331.93,138.25L332.27,167.62L332.39,155.87L332.46,155.87L332.87,126.51L333,179.36L333.03,132.38L333.64,167.62L333.78,155.87L333.8,161.74L333.92,167.62L333.97,144.13L334,155.87L334.01,132.38L334.23,167.62L334.76,155.87L334.82,155.87L335.62,144.13L335.62,144.13L335.64,155.87L336.1,167.62L336.27,144.13L336.39,150L336.42,155.87L336.6,173.49L337.14,144.13L337.18,150L337.22,155.87L337.47,161.75L337.94,144.13L337.97,150L337.99,150L338.54,132.38L338.62,173.49L338.72,144.13L338.73,155.87L339.02,179.36L339.11,126.51L339.48,155.87L339.49,155.87L339.86,161.74L340.28,144.13L340.28,144.13L340.31,144.13L340.65,132.38L340.69,173.49L341.04,155.87L341.07,144.13L341.24,167.62L341.37,138.26L341.8,150L341.84,150L341.94,144.13L341.99,161.74L342.53,155.87L342.54,144.13L343.02,138.26L343.06,167.62L343.21,161.74L343.24,138.26L343.95,155.87L343.95,150L344.04,144.13L344.07,161.74L344.8,155.87L344.81,144.13L344.81,155.87L345.29,138.26L345.55,150L345.58,150L345.65,144.13L346.29,155.87L346.29,155.87L346.29,144.13L346.53,138.25L347.07,155.87L347.08,144.13L347.74,161.75L347.83,144.13L347.86,155.87L348.46,144.13L348.62,150L348.63,155.87L348.73,144.13L349.36,161.74L349.37,161.74L349.43,161.74L349.44,138.26L350.18,150L350.2,150L350.58,132.38L350.59,167.62L350.93,155.87L350.94,144.13L351.22,161.74L351.7,155.87L351.71,144.13L351.72,155.87L352.45,144.13L352.49,155.87L352.6,161.74L352.63,138.25L353.22,144.13L353.25,144.13L353.94,161.75L353.97,150L354.03,144.13L354.72,155.87L354.74,144.13L354.79,144.13L355.2,161.75L355.21,138.25L355.56,155.87L355.58,155.87L356.21,167.62L356.28,144.13L356.28,144.13L356.31,167.62L356.61,132.38L357.08,155.87L357.12,155.87L357.16,138.26L357.32,161.74L357.77,144.13L357.82,167.61L358.18,120.64L358.19,173.49L358.53,150L358.6,155.87L358.68,138.26L359.32,144.13L359.35,155.87L359.93,161.74L360.09,144.13L360.11,161.74L360.56,138.26L360.87,155.87L360.98,155.87L361.55,144.13L361.69,150L361.74,155.87L362.27,161.75L362.48,144.13L362.5,155.87L363.17,132.38L363.21,167.62L363.26,161.75L363.28,161.75L363.77,138.25L364.03,155.87L364.06,150L364.22,161.75L364.53,138.25L364.79,150L364.84,155.87L364.99,161.75L365.59,144.13L365.6,150L365.64,161.75L365.72,132.38L365.73,167.62L366.19,150L366.22,155.87L366.29,161.75L366.91,138.25L366.96,150L366.99,150L367.09,155.87L367.62,144.13L367.71,150L367.75,150L367.75,144.13L367.76,155.87L368.49,150L368.52,155.87L368.57,138.25L369.12,161.75L369.23,150L369.28,155.87L370.04,144.13L370.04,144.13L370.04,155.87L370.78,144.13L370.78,144.13L370.81,150L370.81,144.13L370.9,155.87L371.56,155.87L371.59,144.13L371.75,138.25L371.78,161.75L372.34,150L372.36,150L372.76,138.25L373.03,155.87L373.05,144.13L373.49,167.62L373.52,126.5L373.79,144.13L373.81,144.13L374.36,138.25L374.44,173.5L374.56,144.12L374.57,150L374.64,161.75L374.75,120.62L375.27,150L375.36,144.12L375.78,138.25L375.99,161.75L376.13,150L376.13,144.12L376.58,167.63L376.78,126.5L376.83,144.12L376.86,132.37L377.03,173.5L377.64,155.87L377.66,144.13L378.19,167.62L378.19,126.5L378.39,150L378.43,144.12L379.19,155.88L379.21,150L379.23,150L379.23,138.25L379.6,155.88L379.97,144.12L380.04,144.12L380.67,155.88L380.77,144.12L380.8,150L380.93,167.63L381,132.37L381.54,155.88L381.58,155.88L381.79,138.25L382.3,155.88L382.35,144.12L382.97,161.75L383.07,150L383.13,144.12L383.86,155.88L383.89,150L383.91,144.12L384.35,138.25L384.57,167.63L384.61,126.5L384.73,179.38L384.75,120.62L385.41,167.63L385.43,126.49L385.43,179.38L386.05,144.12L386.2,132.37L386.46,161.75L386.96,155.88L386.99,144.12L387.52,126.49L387.73,167.63L387.74,144.12L387.8,167.63L387.99,138.25L388.47,144.12L388.5,144.12L388.98,161.75L389.01,138.25L389.21,150L389.3,144.12L389.4,155.88L390.04,155.88L390.07,144.12L390.72,138.25L390.82,161.75L390.83,132.37L391.59,155.88L391.59,144.12L392.02,138.25L392.18,161.75L392.33,144.12L392.35,150L392.62,155.88L392.85,138.25L393.09,150L393.1,155.88L393.65,161.75L393.8,138.25L393.86,144.12L393.87,144.12L394.39,138.25L394.61,161.75L394.61,161.75L394.62,138.25L394.99,167.63L395.04,126.49L395.37,155.88L395.39,144.12L395.82,138.25L396.11,155.88L396.13,138.25L396.4,173.51L396.43,120.61L396.84,155.88L396.84,132.37L397.58,161.75L397.58,155.88L397.64,150L397.66,155.88L398.38,144.12L398.38,161.75L398.99,138.25L399,150" style="vector-effect: non-scaling-stroke; fill: none; stroke: rgb(99, 110, 250); stroke-opacity: 1; stroke-width: 2px; opacity: 1;"/></g><g class="points"/><g class="text"/></g><g class="trace scatter trace9a3a50" style="stroke-miterlimit: 2; opacity: 1;"><g class="fills"/><g class="errorbars"/><g class="lines"><path class="js-line" d="M0,15L0.07,185.22L0.79,161.74L0.84,144.13L0.85,173.48L1.1,138.26L1.59,155.87L1.6,155.87L1.81,161.74L2.34,138.26L2.34,138.26L2.39,155.87L2.74,155.87L2.77,144.13L3.12,202.84L3.19,138.26L3.46,155.87L3.54,144.13L3.84,138.26L4.25,155.87L4.34,144.13L5.09,155.87L5.09,155.87L5.11,144.13L5.3,138.26L5.4,161.74L5.84,144.13L5.88,144.13L6.08,138.26L6.1,161.74L6.64,155.87L6.64,144.13L7.39,155.87L7.41,144.13L7.76,120.64L7.85,179.36L8.1,138.26L8.11,120.64L8.52,179.36L8.85,144.13L8.88,155.87L9.15,161.74L9.22,138.26L9.66,144.13L9.7,155.87L10.51,144.13L10.51,144.13L10.53,155.87L10.69,161.74L11.26,138.26L11.28,144.13L11.33,155.87L11.35,138.26L11.66,167.62L12.07,144.13L12.09,155.87L12.5,155.87L12.56,144.13L12.77,144.13L12.77,144.13L12.78,155.87L13.3,138.26L13.64,144.13L13.67,155.87L14.13,132.38L14.42,144.13L14.44,155.87L14.84,132.38L15.15,155.87L15.22,155.87L15.29,161.75L15.47,126.51L15.95,155.87L16,155.87L16.42,173.49L16.47,126.51L16.7,155.87L16.76,173.49L17.39,132.38L17.59,144.13L17.61,155.87L18.28,161.75L18.29,138.25L18.35,144.13L18.4,155.87L18.66,161.75L19.21,144.13L19.21,144.13L19.22,155.87L19.56,155.87L19.56,155.87L19.56,144.13L19.79,138.25L20.13,161.75L20.26,155.87L20.35,155.87L21.08,144.13L21.14,155.87L21.23,167.62L21.86,132.38L21.97,132.38L22.07,167.62L22.65,138.25L22.8,138.25L22.98,161.75L23.54,144.13L23.58,144.13L23.78,144.13L23.81,161.75L23.91,138.25L24.63,144.13L24.63,155.87L25.42,144.13L25.43,144.13L26.16,138.25L26.18,155.87L26.18,155.87L26.2,155.87L26.58,108.88L26.58,179.37L26.95,144.13L26.96,161.75L27.72,144.13L27.72,144.13L27.75,155.87L27.92,167.62L27.92,132.38L28.53,144.13L28.53,155.87L29.08,167.63L29.13,132.37L29.27,155.88L29.3,155.88L29.43,138.25L29.67,167.63L30.03,155.88L30.08,155.88L30.3,144.12L30.47,173.5L30.51,179.38L31.27,132.37L31.32,132.37L31.34,161.75L32.07,155.88L32.11,155.88L32.84,144.12L32.97,155.88L33.41,138.25L33.5,161.75L33.7,144.12L33.71,161.75L34.48,138.25L34.52,161.75L35.17,144.13L35.22,155.87L35.24,155.87L35.41,173.5L35.94,126.5L35.99,155.87L36.03,161.75L36.3,138.25L36.73,155.87L36.75,155.87L37.08,161.75L37.1,138.25L37.54,144.13L37.57,144.13L38.31,155.87L38.35,155.87L38.49,167.62L38.53,138.25L39.07,161.75L39.09,138.25L39.11,161.75L39.81,155.87L39.86,155.87L40.38,138.25L40.55,161.75L40.6,144.13L40.65,144.13L41.05,167.63L41.05,132.37L41.39,144.12L41.41,155.88L41.44,161.75L42.13,138.25L42.16,161.75L42.91,138.25L42.92,167.62L43.32,132.38L43.67,144.13L43.69,161.75L43.69,144.13L44.43,144.13L44.45,144.13L44.74,138.25L45.09,161.75L45.18,155.87L45.26,155.87L45.83,202.86L46.01,97.14L46.05,155.87L46.13,173.49L46.14,126.51L46.79,155.87L46.83,144.13L46.83,155.87L47.56,155.87L47.59,144.13L48.03,167.62L48.14,114.76L48.34,144.13L48.4,155.87L48.51,138.25L48.68,161.75L48.87,144.13L48.91,138.25L49.61,155.87L49.67,144.13L49.7,144.13L49.74,161.75L49.91,138.25L50.45,144.13L50.45,155.87L50.48,161.75L50.6,138.25L51.15,144.13L51.22,155.87L51.31,161.75L51.9,132.38L51.94,132.38L51.98,132.38L52.73,155.87L52.76,144.13L53.17,161.75L53.17,138.25L53.51,144.13L53.54,155.87L54.11,138.25L54.31,144.13L54.36,144.13L54.59,132.38L54.62,138.26L54.64,161.74L55.21,126.51L55.39,138.26L55.41,138.26L56.2,161.74L56.2,161.74L56.22,144.13L56.51,161.74L56.92,132.39L56.97,144.13L57.01,144.13L57.06,138.26L57.68,155.87L57.76,144.13L57.8,155.87L58.57,144.13L58.59,155.87L58.95,161.74L59.01,138.26L59.33,155.87L59.37,155.87L60.03,161.74L60.12,144.13L60.12,144.13L60.18,144.13L60.65,138.26L60.76,155.87L60.87,144.13L60.95,144.13L61.27,132.39L61.7,167.61L61.7,167.61L61.71,144.13L62.28,167.61L62.39,132.39L62.47,155.87L62.5,155.87L62.83,85.42L63.23,138.26L63.24,167.61L63.95,144.13L64.01,155.87L64.09,144.13L64.41,132.39L64.47,167.61L64.84,144.13L64.85,144.13L65.47,167.61L65.52,132.39L65.62,161.74L65.63,132.39L66.01,161.74L66.36,144.13L66.36,138.26L66.63,161.74L67.12,155.87L67.14,144.13L67.58,138.26L67.86,161.74L67.87,138.26L68.21,161.74L68.63,155.87L68.63,144.13L68.63,155.87L69.19,138.26L69.38,144.13L69.41,144.13L69.94,138.26L69.99,161.74L70.17,155.87L70.18,144.13L70.96,155.87L70.96,155.87L70.96,144.13L71.77,155.87L71.77,144.13L72.1,161.74L72.13,132.39L72.52,155.87L72.56,144.13L72.59,138.26L72.74,161.74L73.31,155.87L73.35,144.13L74.04,161.74L74.08,144.13L74.15,155.87L74.64,138.26L74.67,161.74L74.92,144.13L74.92,155.87L75.03,161.74L75.05,132.39L75.65,161.74L75.69,155.87L76.43,144.13L76.44,155.87L76.46,144.13L77.19,155.87L77.19,155.87L77.25,144.13L77.77,132.39L77.79,161.74L78,155.87L78.04,144.13L78.31,138.26L78.38,161.74L78.74,155.87L78.82,144.13L79.38,138.26L79.6,161.74L79.6,161.74L79.61,138.26L79.74,161.74L80.39,155.87L80.45,155.87L80.52,138.26L81.1,167.62L81.18,144.13L81.21,155.87L81.24,161.75L81.3,144.13L81.93,144.13L82,155.87L82.43,161.75L82.7,138.25L82.76,144.13L82.77,155.87L83.23,144.13L83.49,155.87L83.53,155.87L83.82,173.5L83.95,126.5L84.28,144.13L84.31,144.13L85.1,155.87L85.1,155.87L85.1,144.13L85.74,132.38L85.84,167.62L85.89,161.75L85.94,161.75L86.19,167.63L86.47,138.25L86.57,155.88L86.6,155.88L86.8,161.75L87.13,144.12L87.29,161.75L87.34,167.62L87.37,132.38L88.07,144.13L88.11,161.75L88.78,138.25L88.88,144.13L88.91,161.75L88.94,167.62L88.98,132.38L89.66,144.13L89.72,155.87L90.11,138.25L90.12,161.75L90.49,144.13L90.5,155.87L90.69,138.25L91.21,161.75L91.21,161.75L91.22,167.62L91.36,126.5L91.36,173.5L91.97,155.87L91.99,144.13L92.51,179.37L92.51,120.63L92.7,126.5L92.7,155.87L93,161.75L93.36,120.64L93.46,144.13L93.49,173.49L94.1,179.36L94.18,138.25L94.26,155.87L94.28,144.13L94.34,167.62L94.36,132.38L95.03,144.13L95.07,167.62L95.42,138.25L95.78,144.13L95.83,155.87L96.27,173.49L96.6,138.26L96.63,144.13L96.68,155.87L97.2,138.26L97.3,161.74L97.43,155.87L97.45,155.87L97.51,179.36L98.21,132.39L98.26,167.61L98.36,132.39L99.01,161.74L99.04,138.26L99.72,155.87L99.77,144.13L99.83,144.13L100.35,97.17L100.39,202.83L100.58,144.13L100.62,144.13L101.33,167.61L101.37,155.87L101.38,144.13L101.76,114.78L101.84,179.35L102.13,161.74L102.15,144.13L102.3,161.74L102.46,114.78L102.81,144.13L102.82,155.87L102.99,179.35L103.06,120.65L103.56,144.13L103.57,161.74L104.29,144.13L104.39,155.87L104.94,120.65L105.09,144.13L105.15,155.87L105.18,161.74L105.31,132.39L105.88,155.87L105.91,144.13L106.01,132.39L106.43,167.61L106.65,144.13L106.69,144.13L107.28,155.87L107.32,144.13L107.34,120.65L108.06,161.74L108.14,155.87L108.2,144.13L108.3,161.74L108.59,138.26L108.88,144.13L108.9,155.87L109.26,161.74L109.27,138.26L109.65,144.13L109.67,144.13L109.67,155.87L110.42,144.13L110.54,155.87L111.37,144.13L111.38,155.87L111.8,126.52L111.81,173.48L112.11,144.13L112.14,155.87L112.39,161.74L112.88,120.64L112.92,155.87L113.09,132.39L113.53,167.61L113.65,144.13L113.69,144.13L113.83,161.74L113.95,132.39L114.42,155.87L114.45,144.13L114.66,138.26L114.94,161.74L115.21,155.87L115.22,144.13L115.38,138.26L115.39,161.74L116.05,155.87L116.09,155.87L116.41,132.39L116.87,144.13L116.89,155.87L117.34,167.61L117.57,126.51L117.66,144.13L117.68,155.87L117.76,126.51L117.76,161.74L118.35,155.87L118.37,144.13L119.04,167.62L119.04,132.38L119.12,144.13L119.14,144.13L119.14,155.87L119.63,138.26L119.89,144.13L119.92,155.87L120.13,173.49L120.61,103.02L120.65,144.13L120.7,155.87L121.06,179.37L121.29,138.25L121.45,155.87L121.49,155.87L121.49,144.13L121.52,161.75L122.22,155.87L122.27,144.13L122.37,167.62L122.65,132.38L123.01,144.13L123.03,144.13L123.03,155.87L123.77,144.13L123.83,144.13L124.04,167.62L124.06,126.51L124.57,161.75L124.58,138.25L124.77,161.75L125.33,155.87L125.36,155.87L126,144.13L126.07,155.87L126.12,155.87L126.38,161.75L126.87,144.13L126.88,155.87L127.01,167.62L127.54,144.13L127.6,155.87L127.68,155.87L127.73,138.25L128.28,179.37L128.46,144.13L128.48,144.13L128.49,161.75L128.5,138.25L129.23,155.87L129.25,144.13L130.04,155.87L130.06,155.87L130.68,120.63L130.73,179.37L130.79,144.13L130.85,144.13L130.89,179.37L130.9,120.63L131.44,144.13L131.48,155.87L131.52,173.5L131.54,126.5L132.21,155.87L132.21,144.13L132.36,173.5L132.69,132.37L132.96,144.12L132.98,155.88L133.72,144.12L133.76,155.88L133.76,138.25L134.24,167.63L134.41,144.12L134.52,155.88L134.59,167.63L134.7,132.37L135.26,155.88L135.29,155.88L135.39,161.75L136,132.37L136,132.37L136.02,167.63L136.08,173.5L136.73,144.12L136.78,155.88L136.81,155.88L136.98,161.75L137.37,138.25L137.57,144.12L137.58,155.88L138.31,144.12L138.32,155.88L138.36,155.88L139.12,138.25L139.12,138.25L139.13,144.12L139.56,167.63L139.93,155.88L139.93,144.12L140.45,132.37L140.54,167.63L140.68,161.75L140.7,155.88L141.46,144.12L141.47,155.88L142.15,144.12L142.22,155.88L142.29,155.88L143,144.12L143.02,155.88L143.03,161.75L143.39,138.25L143.76,155.88L143.77,155.88L144.51,144.12L144.53,155.88L144.68,173.51L144.9,138.25L145.26,144.12L145.31,155.88L146.02,144.12L146.04,155.88L146.07,155.88L146.89,144.12L146.93,155.88L147.42,144.12L147.65,155.88L147.69,155.88L147.88,126.49L147.92,173.51L148.45,144.12L148.47,155.88L148.96,161.75L149.21,144.12L149.23,155.88L149.23,144.12L149.54,161.75L149.95,155.88L150.04,144.12L150.33,114.73L150.4,197.02L150.79,126.49L150.8,155.88L150.92,108.86L150.93,191.14L151.57,144.12L151.57,155.88L152.28,144.12L152.34,155.88L153.14,144.12L153.15,161.75L153.72,138.25L153.87,144.12L153.92,155.88L154.03,161.75L154.65,144.12L154.67,161.75L155.4,144.12L155.42,155.88L155.45,155.88L156.26,144.12L156.27,144.12L156.93,138.25L157.06,161.75L157.06,161.75L157.07,144.12L157.8,155.88L157.8,155.88L157.83,144.12L158.57,155.88L158.6,144.12L158.87,138.25L159.05,161.75L159.36,155.88L159.4,144.12L160.14,161.75L160.14,144.12L160.17,144.12L160.28,138.25L160.44,161.75L160.93,155.88L160.94,155.88L161.33,161.75L161.59,138.25L161.69,155.88L161.7,155.88L161.87,161.75L162.19,138.25L162.45,144.12L162.47,155.88L163.23,144.12L163.28,167.63L163.44,138.25L164.02,155.88L164.06,144.12L164.82,161.75L164.82,161.75L164.82,138.25L165.15,161.76L165.29,132.37L165.58,155.88L165.61,138.25L165.99,138.24L166.02,161.76L166.36,155.88L166.39,144.12L167.13,155.88L167.13,155.88L167.15,144.12L167.6,161.75L167.87,155.88L167.92,144.12L168.65,155.88L168.73,155.88L169.25,161.75L169.46,138.25L169.51,155.88L169.63,161.75L170.28,144.12L170.33,155.88L170.58,138.24L170.68,161.76L171.07,155.88L171.09,155.88L171.3,114.73L171.39,161.76L171.83,155.88L171.87,155.88L171.97,185.27L171.98,126.49L172.6,155.88L172.65,155.88L173.26,161.76L173.43,144.12L173.43,144.12L173.43,155.88L173.8,126.49L174.05,173.51L174.12,138.24L174.23,144.12L174.99,155.88L174.99,155.88L175.02,144.12L175.02,155.88L175.74,155.88L175.79,144.12L175.96,138.24L176.05,161.76L176.52,144.12L176.54,138.24L176.56,161.76L177.29,144.12L177.34,144.12L177.34,155.88L178.09,144.12L178.14,144.12L178.52,132.36L178.73,202.92L178.88,197.04L178.91,138.24L179.02,197.04L179.65,144.12L179.69,155.88L179.69,144.12L179.97,173.52L180.43,155.88L180.47,155.88L180.97,138.24L181.21,155.88L181.28,155.88L181.36,173.52L181.77,138.24L182.03,155.88L182.04,155.88L182.18,161.76L182.79,138.24L182.79,138.24L182.81,161.76L183.52,144.12L183.52,144.12L183.53,155.88L184.07,161.76L184.1,138.24L184.24,155.88L184.29,155.88L184.29,144.12L184.29,161.76L185.03,155.88L185.05,138.24L185.78,161.76L185.79,138.24L185.88,155.88L186.02,161.76L186.45,138.24L186.62,161.76L186.66,161.76L186.7,138.24L187.35,155.88L187.43,155.88L188.17,144.12L188.21,161.76L188.76,138.24L188.92,144.12L188.94,161.76L189.65,167.64L189.71,138.24L189.71,138.24L189.72,161.76L189.78,132.36L190.15,167.64L190.21,161.76L190.25,138.24L190.49,185.27L190.49,114.73L190.99,167.64L191.04,132.36L191.04,173.51L191.7,155.88L191.81,155.88L192.62,144.12L192.62,144.12L192.64,155.88L193.4,144.12L193.41,144.12L193.41,155.88L194.13,144.12L194.2,144.12L194.32,132.37L194.53,167.63L194.95,144.12L194.98,144.12L195.3,138.24L195.49,161.76L195.72,144.12L195.74,144.12L195.83,132.37L195.83,167.63L196.5,155.88L196.52,144.12L196.75,138.24L196.83,161.76L197.26,155.88L197.28,155.88L198.06,144.12L198.13,144.12L198.23,138.24L198.25,161.76L198.92,155.88L198.95,155.88L198.95,144.12L199.64,167.63L199.7,144.12L199.76,155.88L200.49,126.49L200.55,144.12L200.57,144.12L200.81,161.75L201.04,132.37L201.29,144.12L201.32,155.88L201.62,167.63L201.67,132.37L202.07,155.88L202.13,144.12L202.53,138.25L202.71,161.75L202.88,155.88L202.91,144.12L203.12,144.12L203.12,144.12L203.17,155.88L203.76,138.25L203.92,155.87L203.94,144.13L203.96,132.38L203.98,161.75L204.65,155.87L204.68,155.87L205.12,161.75L205.13,138.25L205.43,144.13L205.49,144.13L205.73,138.25L206.21,155.87L206.25,144.13L206.36,138.25L206.92,155.88L207,144.12L207.27,138.25L207.31,161.75L207.71,144.13L207.77,144.13L208.19,173.5L208.21,126.5L208.52,155.87L208.53,155.87L208.69,173.5L208.7,126.5L209.17,155.87L209.22,144.13L209.22,155.87L209.66,138.25L209.97,144.13L210,144.13L210.26,138.25L210.72,161.75L210.77,144.13L211.23,138.25L211.51,155.87L211.51,144.13L211.55,144.13L211.98,132.38L212.13,161.75L212.32,155.87L212.33,144.13L212.33,161.75L212.91,132.38L213.07,155.87L213.14,161.75L213.92,132.38L213.94,144.13L213.97,132.38L214.37,167.62L214.68,155.87L214.72,144.13L214.97,138.25L215.14,161.75L215.43,155.87L215.5,144.13L216.3,155.87L216.3,155.87L216.31,144.13L217.03,155.87L217.06,144.13L217.17,144.13L217.17,155.87L217.71,138.25L217.82,144.13L217.94,144.13L218.64,155.87L218.68,144.13L218.73,144.13L219.18,138.25L219.45,161.75L219.47,144.13L219.5,144.13L220.05,132.38L220.09,161.75L220.26,155.87L220.33,144.13L220.77,132.38L220.89,167.62L221.05,155.87L221.06,138.25L221.41,161.75L221.81,155.87L221.85,144.13L222.58,155.87L222.58,155.87L222.61,144.13L223.4,155.87L223.4,155.87L223.43,144.13L224.15,155.87L224.18,144.13L224.18,138.25L224.26,161.75L224.94,155.87L225,144.13L225,155.87L225.09,138.25L225.72,155.87L225.8,144.13L225.88,138.25L226.42,161.75L226.55,155.87L226.56,144.13L227.36,155.87L227.36,144.13L228.1,161.75L228.12,138.25L228.14,161.75L228.79,120.63L228.85,120.63L228.87,120.63L229.16,179.37L229.63,167.62L229.64,167.62L229.7,132.38L230.34,144.13L230.4,144.13L230.6,138.25L230.63,161.75L231.15,155.87L231.2,144.13L231.89,155.87L231.95,144.13L231.96,144.13L232.69,155.87L232.77,155.87L233.53,144.13L233.53,144.13L233.62,144.13L234.11,167.62L234.13,132.38L234.31,161.75L234.32,138.25L234.42,161.75L235.06,144.13L235.13,144.13L235.46,132.38L235.85,161.75L235.91,155.87L235.91,144.13L236.14,144.13L236.14,144.13L236.14,155.87L236.19,138.25L236.87,144.13L236.88,155.87L237.54,138.25L237.67,144.13L237.68,155.87L238.49,144.13L238.49,144.13L238.5,144.13L239.18,155.87L239.25,144.13L239.3,155.87L240.09,144.13L240.1,155.87L240.88,144.13L240.88,155.87L241.64,144.13L241.65,155.87L242.36,161.75L242.42,138.25L242.42,155.87L242.69,138.25L243.14,155.87L243.19,155.87L243.92,144.13L243.98,144.13L244.73,155.87L244.73,144.13L244.77,144.13L245.52,155.87L245.52,155.87L245.53,144.13L245.53,155.87L246.28,155.87L246.3,144.13L247.06,155.87L247.06,155.87L247.06,144.13L247.12,132.38L247.48,161.75L247.76,155.87L247.77,155.87L247.91,161.75L248.38,138.25L248.53,144.13L248.61,144.13L249.29,155.87L249.31,144.13L249.37,144.13L249.57,155.87L249.88,132.38L250.01,167.62L250.02,173.49L250.35,103.02L250.76,126.51L250.79,144.13L251.41,103.02L251.5,167.62L251.5,103.02L252.3,155.87L252.32,161.75L252.96,138.25L253,155.87L253.08,155.87L253.64,179.37L253.65,120.63L253.72,161.75L253.85,167.62L253.94,132.38L254.35,144.13L254.39,155.87L254.82,132.38L254.96,179.37L255.14,155.87L255.17,155.87L255.95,144.13L255.95,144.13L255.97,155.87L256.14,173.5L256.29,138.25L256.71,155.88L256.72,155.88L257.04,167.62L257.08,132.38L257.46,144.12L257.49,144.12L257.66,161.75L257.91,138.25L258.24,144.12L258.25,144.12L258.98,155.88L258.99,144.12L259.01,144.12L259.68,155.88L259.77,144.12L259.89,167.63L260.23,126.5L260.51,155.88L260.54,144.12L260.9,132.37L261.2,161.75L261.29,144.12L261.31,155.88L261.57,138.25L261.78,161.75L262.05,155.88L262.09,155.88L262.11,138.25L262.21,161.75L262.83,144.12L262.85,155.88L263.21,161.75L263.24,138.25L263.6,144.12L263.62,155.88L264.36,144.12L264.36,155.88L264.4,155.88L264.79,161.75L264.82,138.25L265.15,155.88L265.18,155.88L265.46,167.63L266.06,144.12L266.06,144.12L266.06,155.88L266.07,161.75L266.67,138.25L266.79,161.75L266.81,161.75L267.06,138.25L267.36,155.88L267.41,161.75L268.17,138.25L268.18,155.88L268.21,155.88L268.21,138.25L268.36,161.75L268.96,161.75L268.97,155.88L269.42,167.63L269.6,132.37L269.7,155.88L269.71,161.75L270.01,138.25L270.45,155.88L270.48,144.12L271.04,161.75L271.05,138.25L271.23,144.12L271.28,144.12L271.34,138.25L272.01,155.88L272.02,144.12L272.04,144.12L272.5,138.25L272.54,161.75L272.8,155.88L272.8,144.12L273.56,155.88L273.56,155.88L273.58,144.12L274.28,155.88L274.32,144.12L274.34,144.12L274.74,167.63L275.05,155.88L275.11,155.88L275.29,173.5L275.52,126.5L275.82,144.12L275.88,155.88L275.92,161.75L276.49,138.25L276.62,144.13L276.64,155.87L277.28,126.5L277.43,144.13L277.45,144.13L277.49,132.38L277.56,161.75L278.16,144.13L278.24,155.87L278.31,185.24L278.48,120.63L278.99,155.87L279.03,155.87L279.03,138.25L279.08,161.75L279.77,155.87L279.79,155.87L280.17,161.75L280.4,138.25L280.43,155.87L280.56,155.87L281.04,132.38L281.09,161.75L281.28,155.87L281.32,144.13L281.93,214.59L281.93,85.41L282.06,126.51L282.08,85.41L282.12,167.62L282.83,138.26L282.85,155.87L283.53,161.74L283.58,138.26L283.59,144.13L283.63,155.87L283.91,167.61L284.06,138.26L284.35,155.87L284.4,144.13L285.19,155.87L285.21,155.87L285.49,161.74L285.65,138.26L285.97,144.13L285.97,155.87L286.53,167.62L286.62,132.38L286.72,144.13L286.75,155.87L287.15,161.74L287.54,144.13L287.56,155.87L287.89,161.74L288.23,138.26L288.31,155.87L288.32,155.87L288.98,144.13L288.99,155.87L289.09,155.87L289.48,126.51L289.55,173.49L289.68,144.13L289.87,144.13L289.87,155.87L290.58,144.13L290.64,155.87L290.78,161.74L290.87,138.26L291.31,155.87L291.45,167.62L292.09,132.38L292.17,155.87L292.23,155.87L292.23,167.62L292.32,138.26L292.98,144.13L293.01,144.13L293.57,138.26L293.62,161.74L293.75,155.87L293.78,155.87L294.2,138.25L294.5,144.13L294.54,155.87L294.76,161.75L295.02,126.51L295.29,138.25L295.31,155.87L295.32,161.75L295.33,138.25L295.99,155.87L296.04,132.38L296.13,167.62L296.81,144.13L296.84,155.87L296.9,138.25L297,161.75L297.58,144.13L297.6,155.87L298.3,144.13L298.3,144.13L298.41,155.87L299.11,138.25L299.16,144.13L299.2,155.87L299.53,138.25L299.53,161.75L299.94,144.13L299.98,155.87L300.66,161.75L300.74,138.25L300.74,138.25L300.77,144.13L301.29,132.38L301.35,161.75L301.54,155.87L301.58,155.87L302.24,114.75L302.25,167.62L302.3,155.87L302.39,197L302.49,202.87L302.56,97.13L303.13,167.62L303.17,132.38L303.17,167.62L303.92,155.87L303.93,155.88L304.17,167.63L304.28,132.37L304.68,144.12L304.69,161.75L305.27,126.5L305.29,173.5L305.4,155.88L305.41,167.63L306.07,138.25L306.18,144.12L306.19,161.75L306.67,173.51L306.69,102.99L306.93,161.75L306.97,132.37L307.03,167.63L307.72,155.88L307.75,144.12L307.83,161.75L308.5,144.12L308.53,155.88L308.81,173.51L309.24,144.12L309.28,155.88L309.31,155.88L309.75,167.63L309.79,132.37L310.04,161.75L310.11,144.12L310.18,132.37L310.39,167.63L310.86,144.12L310.87,144.12L311.54,161.75L311.55,138.25L311.63,155.88L311.68,161.75L311.81,138.25L312.46,144.12L312.48,155.88L313,138.25L313.29,144.12L313.31,155.88L314.04,144.12L314.05,155.88L314.08,155.88L314.35,138.25L314.44,161.75L314.56,155.88L314.56,132.37L314.88,161.75L315.29,155.88L315.34,155.88L316.1,144.12L316.12,155.88L316.91,144.12L316.94,155.88L317.68,144.12L317.7,155.88L318.19,161.75L318.48,144.12L318.52,144.12L318.73,138.25L318.82,161.75L319.26,144.12L319.29,144.12L319.35,161.75L319.48,138.25L320.04,144.12L320.06,155.88L320.14,173.5L320.22,132.37L320.78,155.88L320.8,161.75L321.52,144.12L321.53,155.88L321.59,155.88L322.23,144.12L322.32,155.88L322.35,155.88L323.08,144.12L323.17,144.12L323.93,155.88L323.94,144.12L324.66,155.88L324.69,144.12L324.75,155.88L324.8,161.75L324.94,138.25L325.5,144.12L325.56,155.88L326.2,161.75L326.33,144.12L326.33,144.12L326.34,155.88L327,144.12L327.05,155.88L327.1,155.88L327.5,167.63L327.71,132.37L327.84,144.13L327.87,155.87L328.58,138.25L328.61,161.75L328.97,132.38L329.18,167.62L329.34,161.75L329.38,161.75L329.83,97.14L329.93,191.11L330.13,155.87L330.19,138.25L330.45,173.5L330.8,132.38L330.95,155.87L330.96,161.75L331.14,138.25L331.74,144.13L331.75,155.87L331.93,161.75L332.27,132.38L332.48,155.87L332.51,138.25L332.93,179.36L332.99,126.51L333,120.64L333.57,161.74L333.78,144.13L333.8,155.87L334.01,167.62L334.23,132.38L334.53,155.87L334.58,144.13L335.33,155.87L335.33,144.13L335.34,144.13L335.49,144.13L335.49,155.87L335.88,161.74L336.1,132.38L336.21,144.13L336.27,155.87L336.68,126.51L337.02,155.87L337.14,155.87L337.56,138.25L337.88,155.87L337.9,155.87L338.62,126.51L338.65,144.13L338.69,155.87L339.03,120.64L339.06,179.36L339.48,144.13L339.49,144.13L339.86,138.26L340.28,155.87L340.28,155.87L340.31,155.87L340.69,126.51L340.72,173.49L341.04,144.13L341.07,155.87L341.24,132.38L341.32,161.74L341.8,144.13L341.84,144.13L341.99,138.26L342.06,161.74L342.59,155.87L342.62,144.13L342.66,126.51L343.02,167.62L343.37,144.13L343.39,144.13L343.47,161.74L344.07,138.26L344.1,155.87L344.19,144.13L344.42,161.74L344.94,144.13L344.97,155.87L345.29,161.74L345.67,144.13L345.7,155.87L345.77,138.26L345.77,155.87L346.46,155.87L346.53,161.75L347.27,144.13L347.29,155.87L347.74,132.38L348.04,155.87L348.07,144.13L348.82,155.87L348.88,144.13L349.36,138.26L349.46,161.74L349.63,144.13L349.65,144.13L349.72,138.26L350.15,161.74L350.39,155.87L350.47,155.87L350.59,126.51L351.22,138.26L351.29,155.87L351.96,144.13L352,155.87L352.06,155.87L352.63,161.75L352.83,138.25L352.83,155.87L352.99,138.25L353.22,161.75L353.57,161.75L353.61,144.13L353.94,138.25L354.37,155.87L354.39,144.13L355.17,155.87L355.19,144.13L355.2,138.25L355.21,161.75L355.93,144.13L355.98,144.13L356.21,132.38L356.61,167.62L356.71,161.74L356.73,138.26L356.75,132.38L356.76,161.74L357.43,144.13L357.43,155.87L357.7,167.61L358.07,132.39L358.14,144.13L358.18,179.36L358.19,126.51L358.92,144.13L358.94,144.13L359.24,138.26L359.51,161.74L359.72,155.87L359.72,144.13L359.93,138.26L360.06,161.74L360.45,144.13L360.48,144.13L360.56,161.74L360.57,138.26L361.22,138.26L361.25,155.87L361.3,144.13L361.55,161.74L361.96,155.87L361.98,144.13L362.27,132.38L362.76,155.87L362.79,144.13L363.17,167.62L363.28,132.38L363.42,138.25L363.54,155.87L364.18,161.75L364.22,132.38L364.27,144.13L364.27,138.25L364.53,161.75L365.05,155.87L365.09,138.25L365.72,167.62L365.73,132.38L365.86,155.87L365.9,155.87L366.34,138.25L366.66,144.13L366.69,155.87L366.88,138.25L366.91,161.75L367.44,155.87L367.46,155.87L368.22,144.13L368.25,155.87L368.57,161.75L368.87,138.25L369,155.87L369.02,155.87L369.14,161.75L369.32,138.25L369.73,155.87L369.91,144.13L370.73,155.87L370.73,155.87L370.75,144.13L371.52,155.87L371.52,155.87L371.56,155.87L371.75,161.75L371.78,138.25L372.3,144.13L372.33,144.13L372.69,138.25L372.77,161.75L373.08,144.13L373.12,155.87L373.41,138.25L373.52,173.5L373.82,144.13L373.85,161.75L374.52,132.37L374.56,167.63L374.57,155.88L374.61,155.88L374.72,120.62L374.75,179.38L375.36,155.88L375.41,155.88L375.78,161.75L375.99,138.25L376.15,144.12L376.18,155.88L376.47,173.5L376.58,126.5L376.92,144.12L376.94,138.25L377.02,167.63L377.03,126.5L377.66,155.87L377.77,144.13L378.19,173.5L378.26,138.25L378.51,155.88L378.52,144.12L379.23,161.75L379.32,155.88L380.06,144.12L380.15,155.88L380.15,144.12L380.9,144.12L380.92,155.88L381,173.5L381.11,126.5L381.62,155.88L381.62,144.12L381.79,161.75L382.45,155.88L382.5,144.12L382.97,138.25L383.13,155.88L383.25,144.12L383.28,144.12L384.05,155.88L384.05,155.88L384.07,144.12L384.73,120.62L384.75,179.38L384.8,161.75L384.84,144.12L384.95,126.49L385.43,173.51L385.58,144.12L385.62,155.88L385.92,173.51L385.99,138.25L386.34,155.88L386.36,144.12L386.81,161.75L386.96,138.25L386.99,155.88L387.73,126.5L387.75,144.12L387.75,155.88L387.85,132.37L387.99,161.75L388.5,155.88L388.53,144.12L388.98,138.25L389.01,161.75L389.21,144.12L389.3,144.12L389.3,161.75L390.04,144.12L390.07,155.88L390.72,161.75L390.81,144.12L390.82,155.88L390.83,167.63L391.61,144.12L391.62,155.88L391.81,161.75L392.18,138.25L392.35,144.12L392.38,155.88L392.85,161.75L393.12,144.12L393.14,155.88L393.54,161.75L393.63,138.25L393.89,155.88L393.92,155.88L394.39,161.75L394.65,138.25L394.66,155.88L394.7,161.75L395.03,132.37L395.04,173.51L395.44,144.12L395.5,144.12L396.05,138.25L396.25,167.63L396.27,155.88L396.31,144.12L396.55,179.39L396.55,126.49L397.07,155.88L397.09,144.12L397.39,138.25L397.55,161.75L397.84,144.12L397.87,144.12L398.38,138.25L398.43,161.75L398.62,155.88L398.64,144.12L398.99,167.63L399,155.88" style="vector-effect: non-scaling-stroke; fill: none; stroke: rgb(239, 85, 59); stroke-opacity: 1; stroke-width: 2px; opacity: 1;"/></g><g class="points"/><g class="text"/></g><g class="trace scatter tracec9545c" style="stroke-miterlimit: 2; opacity: 1;"><g class="fills"/><g class="errorbars"/><g class="lines"><path class="js-line" d="M0,15L0.71,144.13L0.79,138.26L0.84,144.13L0.85,126.52L1.59,144.13L1.6,144.13L2.34,138.26L2.34,138.26L2.39,144.13L3.07,144.13L3.07,144.13L3.09,97.16L3.85,144.13L3.91,144.13L5.18,144.13L5.18,144.13L5.26,138.26L6.08,144.13L6.08,138.26L6.86,144.13L7.03,144.13L7.75,144.13L7.75,144.13L7.76,120.64L8.48,144.13L8.49,120.64L8.52,120.64L9.29,144.13L9.3,144.13L10.66,144.13L10.66,144.13L10.69,138.26L11.56,144.13L11.6,144.13L11.66,132.38L12.34,144.13L12.43,144.13L13.26,144.13L13.26,144.13L13.27,138.26L14.08,144.13L14.13,144.13L14.13,132.38L14.84,132.38L14.9,138.25L15.46,126.51L15.67,144.13L15.7,144.13L16.09,144.13L16.09,138.25L16.42,126.51L16.85,144.13L16.86,132.38L17.61,144.13L17.61,144.13L17.64,144.13L17.85,144.13L17.88,138.25L18.66,144.13L18.66,138.25L19.52,144.13L19.52,144.13L19.56,144.13L20.13,138.25L20.26,144.13L20.35,144.13L21.16,144.13L21.22,138.25L21.57,144.13L21.97,132.38L22.01,132.38L22.88,144.13L22.92,138.25L23.7,144.13L23.75,144.13L23.91,138.25L24.5,144.13L24.51,144.13L26.15,144.13L26.15,144.13L26.16,138.25L26.58,108.88L26.89,144.13L26.95,144.13L26.96,138.25L27.65,144.13L27.72,144.13L27.9,144.13L27.92,132.38L28.68,144.13L28.68,144.13L28.76,144.13L29.03,144.12L29.06,138.25L29.13,144.13L29.72,132.37L29.77,144.12L29.8,144.12L30.51,120.62L30.55,138.25L30.58,144.12L31.11,132.37L31.32,132.37L31.34,138.25L31.39,144.12L31.56,132.37L32.03,144.12L32.06,144.12L33.41,144.12L33.41,138.25L34.18,144.12L34.21,144.12L34.36,144.13L34.52,138.25L34.93,144.13L34.98,144.13L35.17,144.13L35.17,138.25L35.41,126.5L35.87,144.13L35.89,138.25L35.89,126.5L36.64,144.13L36.7,144.13L36.96,144.13L36.96,144.13L37.08,138.25L37.87,144.13L37.91,144.13L38.36,144.13L38.38,132.38L39.21,144.13L39.23,144.13L39.58,144.13L39.67,138.25L39.67,144.13L40.42,144.13L40.43,144.13L41.05,132.37L41.2,138.25L41.22,144.12L41.61,138.25L41.94,144.12L42.06,144.12L42.32,138.25L42.46,144.13L42.78,144.12L42.82,144.12L42.87,144.13L43.32,132.38L43.56,144.13L43.59,144.13L43.69,138.25L44.32,144.13L44.38,144.13L44.74,144.13L44.74,138.25L45.52,144.13L45.56,144.13L45.8,144.13L45.81,138.25L45.88,144.13L46.01,97.14L46.52,144.13L46.59,144.13L46.61,138.25L47.33,144.13L47.36,144.13L47.81,144.13L47.81,138.25L48.14,114.76L48.54,144.13L48.58,138.25L49.33,144.13L49.37,144.13L49.7,144.13L49.72,138.25L50.48,144.13L50.48,138.25L50.48,144.13L51.23,144.13L51.25,144.13L51.98,132.38L52,144.13L52.04,144.13L53.09,144.13L53.17,138.25L53.97,144.13L53.99,144.13L54.59,132.38L54.78,138.26L54.79,144.13L55.11,144.13L55.11,138.26L55.11,144.13L55.21,126.51L55.85,144.13L55.87,144.13L56.14,144.13L56.14,144.13L56.15,138.26L56.9,144.13L56.9,144.13L56.92,144.13L56.92,132.39L57.65,144.13L57.68,144.13L58.94,144.13L58.95,138.26L58.95,144.13L59.65,144.13L59.75,144.13L60.02,144.13L60.02,144.13L60.03,138.26L60.81,144.13L60.84,144.13L61.02,144.13L61.06,138.26L61.06,144.13L61.25,132.39L61.78,144.13L61.84,144.13L62.25,144.13L62.25,144.13L62.28,132.39L62.82,85.42L63.06,144.13L63.07,144.13L63.42,132.39L63.81,144.13L63.86,144.13L64.21,144.13L64.21,144.13L64.22,138.26L64.41,132.39L64.98,144.13L64.98,144.13L64.99,144.13L65.28,144.13L65.28,138.26L65.47,132.39L65.99,144.13L66.01,138.26L66.01,132.39L66.01,144.13L66.75,144.13L66.82,144.13L67.44,144.13L67.45,138.26L68.19,144.13L68.21,138.26L68.96,144.13L68.98,144.13L69.18,144.13L69.18,144.13L69.19,138.26L69.19,144.13L69.94,138.26L69.97,138.26L70.72,144.13L70.75,144.13L71.85,144.13L71.85,144.13L71.85,138.26L71.85,144.13L72.13,132.39L72.59,138.26L72.61,144.13L72.74,138.26L73.36,144.13L73.38,144.13L74.01,144.13L74.01,144.13L74.04,138.26L74.04,144.13L74.76,144.13L74.82,144.13L75,144.13L75,144.13L75,138.26L75.03,132.39L75.76,144.13L75.76,144.13L75.77,144.13L77.27,144.13L77.3,138.26L77.77,132.39L78.09,144.13L78.17,144.13L78.38,138.26L78.87,144.13L78.98,144.13L79.15,144.13L79.2,138.26L79.94,144.13L80,144.13L80.49,144.13L80.52,138.26L81.1,132.38L81.36,144.13L81.36,144.13L81.37,144.13L82.07,144.13L82.14,138.25L82.14,144.13L82.89,144.13L82.9,144.13L83.68,144.13L83.7,138.25L83.82,126.5L84.55,144.13L84.57,144.13L85.59,144.13L85.59,144.13L85.71,138.25L85.86,144.12L86.27,132.37L86.44,138.25L86.47,138.25L86.82,144.13L87.2,138.25L87.24,138.25L87.34,144.12L87.37,132.38L87.86,144.12L87.9,144.12L88.03,144.13L88.56,138.25L88.6,144.13L88.67,144.13L88.98,132.38L89.43,138.25L89.47,144.13L90.11,144.13L90.11,138.25L90.88,144.13L90.9,144.13L91.22,132.38L91.29,144.13L91.36,126.5L92.09,144.13L92.1,138.25L92.17,138.25L92.51,120.63L92.93,144.13L92.95,144.13L93.36,120.64L93.68,144.13L93.75,144.13L94.04,144.13L94.04,144.13L94.1,120.64L94.1,144.13L94.85,144.13L94.89,144.13L95.07,132.38L95.63,144.13L95.66,144.13L96.26,144.13L96.27,126.51L97.02,144.13L97.07,144.13L97.51,120.64L97.73,144.13L97.75,144.13L98.07,144.13L98.09,126.52L98.81,144.13L98.85,138.26L98.88,138.26L99.64,144.13L99.68,144.13L100.13,144.13L100.13,144.13L100.14,126.52L100.35,97.17L100.95,144.13L100.97,144.13L101.27,144.13L101.33,132.39L101.76,114.78L102.03,144.13L102.06,138.26L102.13,138.26L102.38,114.78L102.88,144.13L102.99,144.13L102.99,120.65L103.74,144.13L103.76,144.13L104.71,144.13L104.71,138.26L104.92,120.65L105.45,144.13L105.45,144.13L105.49,138.26L106.01,132.39L106.28,144.13L106.28,144.13L106.35,144.13L106.56,132.39L107.1,144.13L107.11,144.13L107.32,144.13L107.32,144.13L107.34,120.65L108.2,144.13L108.23,144.13L108.59,138.26L108.96,144.13L109.04,144.13L109.26,144.13L109.26,144.13L109.26,138.26L110.03,144.13L110.05,144.13L111.65,144.13L111.67,138.26L111.8,126.52L112.3,144.13L112.39,138.26L112.46,144.13L112.87,144.13L112.87,144.13L112.88,120.64L113.65,144.13L113.65,144.13L113.69,144.13L113.95,132.39L114.42,144.13L114.45,144.13L114.96,138.26L115.17,144.13L115.21,144.13L115.37,144.13L115.37,144.13L115.38,138.26L115.38,144.13L116.1,144.13L116.15,144.13L116.41,132.39L116.89,144.13L116.91,144.13L117.28,144.13L117.34,132.39L117.57,126.51L118.16,144.13L118.16,144.13L118.23,144.13L119.01,144.13L119.01,144.13L119.04,132.38L119.82,144.13L119.83,144.13L120.13,144.13L120.13,126.51L120.61,103.02L120.9,144.13L120.9,144.13L120.92,144.13L121.1,120.63L121.41,144.13L121.45,144.13L121.63,138.25L122.2,144.13L122.22,144.13L122.65,132.38L122.97,144.13L123,144.13L123.95,144.13L124.04,132.38L124.07,144.13L124.33,126.51L124.77,138.25L124.8,138.25L125.53,144.13L125.53,144.13L125.59,144.13L126.37,144.13L126.38,138.25L127.01,132.38L127.19,144.13L127.19,144.13L127.2,144.13L127.73,138.25L127.94,144.13L127.99,144.13L128.27,144.13L128.27,144.13L128.28,120.63L128.96,144.13L128.96,144.13L129.05,144.13L130.68,144.13L130.68,120.63L131.44,144.13L131.48,144.13L131.55,126.5L132.21,144.13L132.24,144.13L132.36,126.5L132.99,144.12L133.01,144.12L133.76,144.12L133.76,138.25L134.24,132.37L134.53,144.12L134.56,132.37L135.35,144.12L135.35,144.12L135.38,138.25L136,132.37L136.04,144.12L136.08,126.5L136.91,144.12L136.94,138.25L137.76,144.12L137.84,144.12L138.95,144.12L139.03,138.25L139.44,132.37L139.79,144.12L139.8,144.12L140.3,144.12L140.36,132.37L140.36,144.12L141.11,144.12L141.14,144.12L143.02,144.12L143.03,138.25L143.77,144.12L143.77,144.12L143.81,144.12L144.63,144.12L144.63,144.12L144.68,126.49L145.57,144.12L145.57,144.12L145.61,144.12L147.71,144.12L147.71,144.12L147.71,138.25L147.84,126.49L148.48,144.12L148.48,144.12L148.52,144.12L148.96,144.12L148.96,138.25L149.7,144.12L149.7,144.12L149.74,144.12L150.15,144.12L150.15,144.12L150.17,138.25L150.4,102.98L150.87,144.12L150.89,132.37L150.89,126.49L150.93,108.86L151.02,144.12L151.6,144.12L151.62,144.12L153.14,144.12L153.15,138.25L153.87,144.12L153.92,144.12L154.69,138.25L154.71,144.12L156.68,144.12L156.69,138.25L156.69,144.12L157.44,144.12L157.45,144.12L158.83,144.12L158.87,138.25L159.69,144.12L159.73,144.12L160.13,144.12L160.14,138.25L160.14,144.12L160.88,144.12L160.93,144.12L161.33,144.12L161.33,144.12L161.33,138.25L162.07,144.12L162.14,138.25L162.93,144.12L162.99,144.12L163.23,144.12L163.28,132.37L163.28,144.12L164.02,144.12L164.06,144.12L164.82,144.12L164.82,144.12L164.82,138.25L165.29,132.37L165.58,144.12L165.61,138.25L165.83,138.24L166.36,144.12L166.39,144.12L167.23,144.12L167.23,144.12L167.26,138.25L168.11,144.12L168.19,144.12L169.25,144.12L169.25,144.12L169.25,138.25L170,144.12L170,144.12L170.04,144.12L170.57,144.12L170.58,138.24L171.28,144.12L171.3,114.73L172.08,144.12L172.08,144.12L172.13,144.12L173.26,144.12L173.26,144.12L173.26,138.24L173.8,126.49L174.01,144.12L174.04,144.12L174.05,126.49L174.79,144.12L174.8,144.12L175.92,144.12L175.92,144.12L175.96,138.24L176.67,144.12L176.82,144.12L178.28,144.12L178.3,138.24L178.3,144.12L178.73,97.08L179.05,144.12L179.06,144.12L179.28,102.96L179.59,144.12L179.62,144.12L179.8,144.12L179.8,144.12L179.83,138.24L179.97,126.48L180.61,144.12L180.67,144.12L180.96,144.12L180.97,138.24L181.36,126.48L181.74,144.12L181.75,138.24L182.43,144.12L182.55,144.12L182.82,138.24L183.16,144.12L183.31,144.12L184.06,144.12L184.07,138.24L184.85,144.12L184.88,144.12L185.03,144.12L185.03,144.12L185.05,138.24L185.65,144.12L185.79,138.24L185.88,144.12L186.7,138.24L186.74,144.12L188.17,144.12L188.21,138.24L189,144.12L189.02,144.12L189.79,132.36L189.79,132.36L189.8,144.12L190.49,114.73L190.53,126.48L190.56,144.12L190.67,126.48L191.23,144.12L191.32,144.12L191.64,144.12L191.64,144.12L191.7,138.24L191.7,144.12L192.45,144.12L192.48,144.12L194.2,144.12L194.26,132.37L195.03,144.12L195.06,138.24L195.81,144.12L195.83,132.37L195.83,144.12L196.57,144.12L196.67,144.12L196.89,138.24L197.41,144.12L197.47,144.12L198.2,144.12L198.2,144.12L198.23,138.24L199,144.12L199.01,144.12L199.62,144.12L199.64,132.37L199.91,126.49L200.4,144.12L200.4,132.37L200.42,144.12L200.49,126.49L201.14,144.12L201.19,144.12L201.61,144.12L201.61,138.25L201.67,132.37L201.79,144.12L202.34,144.12L202.39,144.12L202.74,138.25L203.12,144.12L203.17,144.12L203.72,144.12L203.72,144.12L203.75,138.25L203.75,144.13L203.96,132.38L204.5,144.13L204.53,144.13L205.13,138.25L205.27,144.13L205.36,144.13L205.73,144.13L205.73,138.25L206.58,144.13L206.59,144.13L207.26,144.12L207.26,144.12L207.27,138.25L208.16,144.13L208.19,144.13L208.19,126.5L208.93,144.13L208.97,144.13L209.64,144.13L209.66,138.25L210.36,144.13L210.48,138.25L211.22,144.13L211.23,138.25L211.25,138.25L211.97,144.13L211.98,132.38L212.75,144.13L212.76,138.25L212.91,132.38L213.53,144.13L213.53,144.13L213.64,144.13L213.91,144.13L213.92,132.38L214.68,144.13L214.72,144.13L214.96,144.13L214.97,138.25L215.75,144.13L215.78,144.13L217.7,144.13L217.71,138.25L217.71,144.13L218.37,144.13L218.47,144.13L219.13,144.13L219.16,138.25L219.91,144.13L219.91,144.13L219.94,144.13L220.64,132.38L220.69,144.13L220.7,144.13L220.89,132.38L221.45,144.13L221.47,144.13L224.18,144.13L224.18,144.13L224.18,138.25L224.94,144.13L225,144.13L225.09,138.25L225.72,144.13L225.8,144.13L226.42,138.25L226.55,144.13L226.56,144.13L228.05,144.13L228.1,138.25L228.76,144.13L228.76,144.13L228.79,120.63L229.53,144.13L229.54,132.38L229.62,144.13L229.7,132.38L230.34,144.13L230.4,144.13L230.6,144.13L230.6,138.25L231.37,144.13L231.37,144.13L231.38,144.13L233.82,144.13L233.82,144.13L233.82,138.25L234.11,132.38L234.6,144.13L234.6,144.13L234.66,144.13L235.28,144.13L235.28,144.13L235.35,138.25L235.53,144.13L235.59,132.38L235.94,144.13L236.14,144.13L236.19,138.25L236.88,144.13L236.95,144.13L237.53,144.13L237.54,138.25L238.32,144.13L238.32,144.13L238.38,144.13L242.36,144.13L242.36,138.25L243.14,144.13L243.14,144.13L243.19,144.13L247.1,144.13L247.1,144.13L247.11,132.38L247.81,144.13L247.91,138.25L247.93,138.25L248.72,144.13L248.73,144.13L249.38,144.13L249.46,138.25L249.53,144.13L250.02,126.51L250.21,144.13L250.23,138.25L250.35,103.02L251,144.13L251,144.13L251.01,144.13L251.2,144.13L251.21,138.26L251.21,144.13L251.41,103.02L251.93,144.13L251.99,144.13L252.33,138.25L252.74,144.13L252.79,144.13L252.96,138.25L253.51,144.13L253.55,144.13L253.65,120.63L254.26,144.13L254.31,144.13L254.56,144.13L254.56,144.13L254.57,138.25L254.82,132.38L254.96,144.13L254.96,120.63L255.73,144.13L255.74,144.13L256.14,144.13L256.14,144.13L256.14,126.5L256.91,144.13L256.93,144.13L257.1,132.38L257.66,138.25L257.71,144.12L257.89,144.12L257.9,138.25L258.74,144.12L258.76,144.12L259.86,144.12L259.86,144.12L259.88,132.37L260.23,126.5L260.66,144.12L260.69,144.12L260.9,132.37L261.37,144.12L261.42,144.12L262.11,138.25L262.14,144.12L262.19,144.12L262.23,138.25L262.92,144.12L262.95,144.12L263.15,144.12L263.16,138.25L263.92,144.12L263.93,144.12L264.79,144.12L264.79,144.12L264.79,138.25L265.46,132.37L265.52,144.12L265.52,144.12L265.61,144.12L266.07,144.12L266.07,138.25L266.69,144.12L266.81,138.25L266.84,138.25L267.63,144.12L267.63,144.12L267.65,144.12L268.41,138.25L268.43,144.12L268.96,138.25L269.18,144.12L269.22,144.12L269.6,132.37L269.94,144.12L269.96,144.12L270.01,138.25L270.66,144.12L270.75,144.12L271.01,144.12L271.04,138.25L271.74,144.12L271.74,144.12L271.81,144.12L272.29,144.12L272.29,144.12L272.3,138.25L273.07,144.12L273.08,144.12L274.73,144.12L274.74,132.37L275.29,126.5L275.51,144.12L275.51,126.5L276.29,144.13L276.34,144.13L276.49,138.25L277.01,144.13L277.12,144.13L277.28,126.5L277.86,144.13L277.92,144.13L278.29,144.13L278.29,144.13L278.31,114.76L278.31,144.13L279.03,138.25L279.08,138.25L279.9,144.13L279.94,144.13L280.6,138.25L280.67,144.13L280.71,144.13L280.9,144.13L280.93,132.38L281.63,126.51L281.7,144.13L281.72,120.64L281.93,144.13L281.93,138.26L281.93,85.41L281.93,144.13L282.66,144.13L282.7,144.13L283.18,138.26L283.44,144.13L283.47,144.13L283.91,132.39L284.22,144.13L284.23,144.13L285.27,144.13L285.27,138.26L286.02,144.13L286.02,144.13L286.06,144.13L286.37,144.13L286.37,144.13L286.38,138.26L286.53,132.38L287.14,144.13L287.14,144.13L287.15,138.26L287.99,144.13L288.02,144.13L288.22,144.13L288.22,144.13L288.23,138.26L288.99,144.13L289.09,144.13L289.55,126.51L289.68,144.13L289.87,144.13L290.77,144.13L290.77,144.13L290.78,138.26L291.45,132.38L291.51,144.13L291.53,138.26L291.54,132.38L292.31,144.13L292.32,138.26L292.35,138.26L293.17,144.13L293.17,144.13L293.21,144.13L293.57,144.13L293.57,138.26L294.2,138.25L294.34,144.13L294.36,144.13L294.71,144.13L294.76,138.25L295.02,126.51L295.47,144.13L295.47,144.13L295.53,144.13L295.91,144.13L295.91,144.13L295.94,138.25L296.04,132.38L296.72,144.13L296.73,138.25L297.48,144.13L297.48,144.13L297.54,144.13L299.06,144.13L299.11,138.25L299.9,144.13L299.9,144.13L299.91,144.13L300.08,144.13L300.1,138.25L300.88,144.13L300.88,138.25L300.88,144.13L301.29,132.38L301.63,144.13L301.64,144.13L302.01,144.13L302.04,138.25L302.04,144.13L302.49,97.13L302.79,144.13L302.82,144.13L303,144.13L303,144.13L303.04,138.25L303.32,144.13L303.36,132.38L303.67,144.12L303.72,144.13L304.05,144.12L304.05,144.12L304.07,132.37L304.89,144.12L304.9,138.25L305.07,126.5L305.7,144.12L305.74,144.12L306.04,144.12L306.04,144.12L306.04,138.25L306.69,144.12L306.69,120.62L306.69,120.62L306.69,108.86L306.69,102.99L306.77,144.12L307.43,144.12L307.45,138.25L308.23,144.12L308.27,144.12L308.8,144.12L308.8,144.12L308.81,126.49L309.54,144.12L309.54,144.12L309.64,144.12L310.39,132.37L310.39,132.37L310.52,144.12L311.07,138.25L311.27,144.12L311.31,144.12L312,138.25L312.06,144.12L312.09,144.12L312.89,144.12L312.89,144.12L312.92,138.25L313.65,144.12L313.65,144.12L313.7,144.12L314.19,144.12L314.2,138.25L314.56,132.37L315,144.12L315,144.12L315.01,144.12L315.07,138.25L315.75,144.12L315.77,144.12L318.16,144.12L318.19,138.25L318.94,144.12L318.96,144.12L319.79,138.25L319.8,144.12L320.09,144.12L320.14,126.5L320.9,144.12L320.92,144.12L324.76,144.12L324.76,144.12L324.8,138.25L325.68,144.12L325.68,144.12L325.7,144.12L326.2,144.12L326.2,138.25L327.02,144.12L327.02,144.12L327.03,144.12L327.5,144.12L327.5,144.12L327.5,132.37L328.22,144.13L328.27,144.13L328.56,144.13L328.58,138.25L328.97,132.38L329.31,144.13L329.33,138.25L329.34,138.25L329.75,144.13L329.75,97.14L330.52,144.13L330.57,144.13L330.75,144.13L330.8,132.38L331.61,144.13L331.61,144.13L331.63,144.13L331.92,144.13L331.92,144.13L331.93,138.25L332.27,132.38L332.65,144.13L332.72,144.13L333.05,120.64L333.44,132.38L333.45,144.13L334.23,132.38L334.23,132.38L334.28,144.13L334.34,138.26L334.99,144.13L335.09,144.13L335.86,144.13L335.86,144.13L335.88,138.26L336.1,132.38L336.6,144.13L336.68,144.13L336.68,126.51L337.43,144.13L337.45,144.13L337.56,138.25L338.18,144.13L338.21,144.13L338.54,144.13L338.54,144.13L338.62,126.51L339.02,120.64L339.28,144.13L339.4,144.13L339.85,144.13L339.86,138.26L340.36,132.38L340.61,144.13L340.61,144.13L340.65,144.13L340.72,126.51L341.4,144.13L341.41,144.13L342.06,138.26L342.08,144.13L342.17,144.13L342.62,144.13L342.62,144.13L342.62,138.26L342.66,144.13L342.77,126.51L343.35,144.13L343.36,144.13L344.07,138.26L344.1,144.13L344.19,144.13L344.42,144.13L344.42,138.26L345.13,144.13L345.13,144.13L345.24,144.13L345.78,138.26L345.98,144.13L346,144.13L346.46,144.13L346.53,138.25L347.33,144.13L347.51,144.13L347.73,144.13L347.73,144.13L347.74,132.38L348.46,144.13L348.46,144.13L348.51,144.13L349.36,144.13L349.36,138.26L350.12,144.13L350.12,144.13L350.15,138.26L350.59,126.51L350.86,144.13L350.86,144.13L350.93,144.13L351.22,144.13L351.22,144.13L351.22,138.26L352,144.13L352.06,144.13L352.59,144.13L352.6,138.26L352.6,144.13L352.63,138.25L353.34,144.13L353.38,144.13L353.57,144.13L353.57,144.13L353.57,138.25L354.28,144.13L354.28,144.13L354.37,144.13L355.19,144.13L355.19,144.13L355.2,138.25L356.02,144.13L356.06,144.13L356.75,132.38L356.8,144.13L356.85,144.13L357.16,144.13L357.16,138.26L357.24,132.39L357.92,144.13L357.92,144.13L357.92,132.39L358.18,120.64L358.68,144.13L358.68,138.26L358.73,144.13L359.23,144.13L359.23,144.13L359.24,138.26L359.93,144.13L359.93,138.26L360.06,138.26L360.79,144.13L360.83,144.13L361.21,144.13L361.22,138.26L361.99,144.13L361.99,144.13L362.04,144.13L362.26,144.13L362.26,144.13L362.27,132.38L362.27,144.13L363,144.13L363.03,144.13L363.28,132.38L363.82,138.25L363.83,138.25L364.22,132.38L364.65,144.13L364.7,144.13L364.94,144.13L364.99,138.25L365.72,144.13L365.72,132.38L365.73,132.38L366.54,144.13L366.6,144.13L366.87,144.13L366.88,138.25L367.71,144.13L367.75,144.13L368.54,144.13L368.54,144.13L368.54,138.25L369.3,144.13L369.3,144.13L369.32,138.25L370.12,144.13L370.12,144.13L370.16,144.13L371.7,144.13L371.7,144.13L371.75,138.25L372.52,144.13L372.52,144.13L372.57,144.13L372.77,138.25L373.31,144.13L373.34,144.13L373.55,126.5L374.09,144.13L374.15,144.13L374.75,120.62L374.89,132.37L374.92,144.12L375.77,144.12L375.77,144.12L375.78,138.25L376.47,126.5L376.5,144.12L376.54,126.5L377.32,144.13L377.34,144.13L378.19,144.13L378.19,144.13L378.19,126.5L379.04,144.12L379.04,144.12L379.05,144.12L379.23,144.12L379.23,144.12L379.23,138.25L380.06,144.12L380.06,144.12L380.15,144.12L380.93,144.12L381,126.5L381.81,144.12L381.81,144.12L381.86,144.12L382.95,144.12L382.97,138.25L383.75,144.12L383.75,144.12L383.77,144.12L384.3,144.12L384.3,144.12L384.35,138.25L384.73,120.62L385.13,144.12L385.13,132.37L385.13,144.12L385.21,126.49L385.86,144.12L385.89,126.49L386.75,144.12L386.81,138.25L386.81,144.12L387.52,144.12L387.58,144.12L387.73,126.5L388.33,144.12L388.34,144.12L388.91,144.12L388.91,144.12L388.91,138.25L389.66,144.12L389.72,144.12L390.7,144.12L390.72,138.25L390.72,144.12L390.83,132.37L391.47,144.12L391.49,144.12L391.81,144.12L391.81,138.25L392.59,144.12L392.62,144.12L392.85,144.12L392.85,144.12L392.85,138.25L393.63,144.12L393.63,138.25L394.39,144.12L394.39,138.25L394.99,144.12L395.02,132.37L395.03,132.37L395.04,126.49L395.82,144.12L395.82,138.25L395.89,144.12L396.55,120.61L396.55,126.49L396.56,144.12L396.85,126.49L397.3,144.12L397.32,144.12L397.58,138.25L398.07,144.12L398.1,144.12L398.38,144.12L398.38,138.25L398.96,132.37L399,144.12L399,144.12" style="vector-effect: non-scaling-stroke; fill: none; stroke: rgb(0, 204, 150); stroke-opacity: 1; stroke-width: 2px; opacity: 1;"/></g><g class="points"/><g class="text"/></g></g></g><g class="overplot"/><path class="xlines-above crisp" d="M0,0" style="fill: none;"/><path class="ylines-above crisp" d="M0,0" style="fill: none;"/><g class="overlines-above"/><g class="xaxislayer-above"><g class="xtick"><text text-anchor="start" x="0" y="416" transform="translate(206.48000000000002,0) rotate(30,0,408.5)" style="font-family: 'Times New Roman'; font-size: 15px; fill: rgb(13, 13, 13); fill-opacity: 1; white-space: pre; opacity: 1;">1.6125210<tspan style="font-size:70%" dy="-0.6em">18</tspan><tspan dy="0.42em"></tspan></text></g><g class="xtick"><text text-anchor="start" x="0" y="416" style="font-family: 'Times New Roman'; font-size: 15px; fill: rgb(13, 13, 13); fill-opacity: 1; white-space: pre; opacity: 1;" transform="translate(285.7,0) rotate(30,0,408.5)">1.61252510<tspan style="font-size:70%" dy="-0.6em">18</tspan><tspan dy="0.42em"></tspan></text></g><g class="xtick"><text text-anchor="start" x="0" y="416" style="font-family: 'Times New Roman'; font-size: 15px; fill: rgb(13, 13, 13); fill-opacity: 1; white-space: pre; opacity: 1;" transform="translate(364.93,0) rotate(30,0,408.5)">1.6125310<tspan style="font-size:70%" dy="-0.6em">18</tspan><tspan dy="0.42em"></tspan></text></g><g class="xtick"><text text-anchor="start" x="0" y="416" style="font-family: 'Times New Roman'; font-size: 15px; fill: rgb(13, 13, 13); fill-opacity: 1; white-space: pre; opacity: 1;" transform="translate(444.15,0) rotate(30,0,408.5)">1.61253510<tspan style="font-size:70%" dy="-0.6em">18</tspan><tspan dy="0.42em"></tspan></text></g><g class="xtick"><text text-anchor="start" x="0" y="416" style="font-family: 'Times New Roman'; font-size: 15px; fill: rgb(13, 13, 13); fill-opacity: 1; white-space: pre; opacity: 1;" transform="translate(523.38,0) rotate(30,0,408.5)">1.6125410<tspan style="font-size:70%" dy="-0.6em">18</tspan><tspan dy="0.42em"></tspan></text></g></g><g class="yaxislayer-above"><g class="ytick"><text text-anchor="end" x="136" y="12.25" transform="translate(0,367.41)" style="font-family: 'Times New Roman'; font-size: 35px; fill: rgb(13, 13, 13); fill-opacity: 1; white-space: pre; opacity: 1;">0.02</text></g><g class="ytick"><text text-anchor="end" x="136" y="12.25" style="font-family: 'Times New Roman'; font-size: 35px; fill: rgb(13, 13, 13); fill-opacity: 1; white-space: pre; opacity: 1;" transform="translate(0,308.7)">0.01</text></g><g class="ytick"><text text-anchor="end" x="136" y="12.25" style="font-family: 'Times New Roman'; font-size: 35px; fill: rgb(13, 13, 13); fill-opacity: 1; white-space: pre; opacity: 1;" transform="translate(0,250)">0</text></g><g class="ytick"><text text-anchor="end" x="136" y="12.25" style="font-family: 'Times New Roman'; font-size: 35px; fill: rgb(13, 13, 13); fill-opacity: 1; white-space: pre; opacity: 1;" transform="translate(0,191.3)">0.01</text></g><g class="ytick"><text text-anchor="end" x="136" y="12.25" style="font-family: 'Times New Roman'; font-size: 35px; fill: rgb(13, 13, 13); fill-opacity: 1; white-space: pre; opacity: 1;" transform="translate(0,132.59)">0.02</text></g></g><g class="overaxes-above"/></g></g><g class="polarlayer"/><g class="smithlayer"/><g class="ternarylayer"/><g class="geolayer"/><g class="funnelarealayer"/><g class="pielayer"/><g class="iciclelayer"/><g class="treemaplayer"/><g class="sunburstlayer"/><g class="glimages"/><defs id="topdefs-111d47"><g class="clips"/><clipPath id="legend111d47"><rect width="144" height="67" x="0" y="0"/></clipPath></defs><g class="layer-above"><g class="imagelayer"/><g class="shapelayer"/></g><g class="infolayer"><g class="legend" pointer-events="all" transform="translate(543.98,100)"><rect class="bg" shape-rendering="crispEdges" style="stroke: rgb(68, 68, 68); stroke-opacity: 1; fill: rgb(255, 255, 255); fill-opacity: 1; stroke-width: 0px;" width="144" height="67" x="0" y="0"/><g class="scrollbox" transform="" clip-path="url(#legend111d47)"><g class="groups"><g class="traces" transform="translate(0,14.5)" style="opacity: 1;"><text class="legendtext" text-anchor="start" x="40" y="4.680000000000001" style="font-family: 'Open Sans', verdana, arial, sans-serif; font-size: 12px; fill: rgb(42, 63, 95); fill-opacity: 1; white-space: pre;">Realized (in %)</text><g class="layers" style="opacity: 1;"><g class="legendfill"/><g class="legendlines"><path class="js-line" d="M5,0h30" style="fill: none; stroke: rgb(99, 110, 250); stroke-opacity: 1; stroke-width: 2px;"/></g><g class="legendsymbols"><g class="legendpoints"/></g></g><rect class="legendtoggle" x="0" y="-9.5" width="138.71875" height="19" style="fill: rgb(0, 0, 0); fill-opacity: 0;"/></g><g class="traces" transform="translate(0,33.5)" style="opacity: 1;"><text class="legendtext" text-anchor="start" x="40" y="4.680000000000001" style="font-family: 'Open Sans', verdana, arial, sans-serif; font-size: 12px; fill: rgb(42, 63, 95); fill-opacity: 1; white-space: pre;">Effective (in %)</text><g class="layers" style="opacity: 1;"><g class="legendfill"/><g class="legendlines"><path class="js-line" d="M5,0h30" style="fill: none; stroke: rgb(239, 85, 59); stroke-opacity: 1; stroke-width: 2px;"/></g><g class="legendsymbols"><g class="legendpoints"/></g></g><rect class="legendtoggle" x="0" y="-9.5" width="138.71875" height="19" style="fill: rgb(0, 0, 0); fill-opacity: 0;"/></g><g class="traces" transform="translate(0,52.5)" style="opacity: 1;"><text class="legendtext" text-anchor="start" x="40" y="4.680000000000001" style="font-family: 'Open Sans', verdana, arial, sans-serif; font-size: 12px; fill: rgb(42, 63, 95); fill-opacity: 1; white-space: pre;">Half Quoted (in %)</text><g class="layers" style="opacity: 1;"><g class="legendfill"/><g class="legendlines"><path class="js-line" d="M5,0h30" style="fill: none; stroke: rgb(0, 204, 150); stroke-opacity: 1; stroke-width: 2px;"/></g><g class="legendsymbols"><g class="legendpoints"/></g></g><rect class="legendtoggle" x="0" y="-9.5" width="138.71875" height="19" style="fill: rgb(0, 0, 0); fill-opacity: 0;"/></g></g></g><rect class="scrollbar" rx="20" ry="3" width="0" height="0" style="fill: rgb(128, 139, 164); fill-opacity: 1;" x="0" y="0"/></g><g class="g-gtitle"/><g class="g-xtitle"><text class="xtitle" x="336.5" y="487.503125" text-anchor="middle" style="font-family: 'Open Sans', verdana, arial, sans-serif; font-size: 14px; fill: rgb(42, 63, 95); opacity: 1; font-weight: normal; white-space: pre;">Time Steps (ns)</text></g><g class="g-ytitle" transform="translate(24,0)"><text class="ytitle" transform="rotate(-90,12,250)" x="12" y="250" text-anchor="middle" style="font-family: 'Times New Roman'; font-size: 40px; fill: rgb(13, 13, 13); opacity: 1; font-weight: normal; white-space: pre;">Spreads (in %)</text></g></g></svg>