<svg class="main-svg" xmlns="http://www.w3.org/2000/svg" xmlns:xlink="http://www.w3.org/1999/xlink" width="700" height="500" style="" viewBox="0 0 700 500"><rect x="0" y="0" width="700" height="500" style="fill: rgb(255, 255, 255); fill-opacity: 1;"/><defs id="defs-3dd026"><g class="clips"><clipPath id="clip3dd026xyplot" class="plotclip"><rect width="381" height="300"/></clipPath><clipPath class="axesclip" id="clip3dd026x"><rect x="155" y="0" width="381" height="500"/></clipPath><clipPath class="axesclip" id="clip3dd026y"><rect x="0" y="100" width="700" height="300"/></clipPath><clipPath class="axesclip" id="clip3dd026xy"><rect x="155" y="100" width="381" height="300"/></clipPath></g><g class="gradients"/><g class="patterns"/></defs><g class="bglayer"><rect class="bg" x="155" y="100" width="381" height="300" style="fill: rgb(229, 236, 246); fill-opacity: 1; stroke-width: 0;"/></g><g class="layer-below"><g class="imagelayer"/><g class="shapelayer"/></g><g class="cartesianlayer"><g class="subplot xy"><g class="layer-subplot"><g class="shapelayer"/><g class="imagelayer"/></g><g class="minor-gridlayer"><g class="x"/><g class="y"/></g><g class="gridlayer"><g class="x"><path class="xgrid crisp" transform="translate(220.93,0)" d="M0,100v300" style="stroke: rgb(255, 255, 255); stroke-opacity: 1; stroke-width: 1px;"/><path class="xgrid crisp" transform="translate(296.68,0)" d="M0,100v300" style="stroke: rgb(255, 255, 255); stroke-opacity: 1; stroke-width: 1px;"/><path class="xgrid crisp" transform="translate(372.43,0)" d="M0,100v300" style="stroke: rgb(255, 255, 255); stroke-opacity: 1; stroke-width: 1px;"/><path class="xgrid crisp" transform="translate(448.18,0)" d="M0,100v300" style="stroke: rgb(255, 255, 255); stroke-opacity: 1; stroke-width: 1px;"/><path class="xgrid crisp" transform="translate(523.9300000000001,0)" d="M0,100v300" style="stroke: rgb(255, 255, 255); stroke-opacity: 1; stroke-width: 1px;"/></g><g class="y"><path class="ygrid crisp" transform="translate(0,369.52)" d="M155,0h381" style="stroke: rgb(255, 255, 255); stroke-opacity: 1; stroke-width: 1px;"/><path class="ygrid crisp" transform="translate(0,330.96000000000004)" d="M155,0h381" style="stroke: rgb(255, 255, 255); stroke-opacity: 1; stroke-width: 1px;"/><path class="ygrid crisp" transform="translate(0,292.40999999999997)" d="M155,0h381" style="stroke: rgb(255, 255, 255); stroke-opacity: 1; stroke-width: 1px;"/><path class="ygrid crisp" transform="translate(0,215.29000000000002)" d="M155,0h381" style="stroke: rgb(255, 255, 255); stroke-opacity: 1; stroke-width: 1px;"/><path class="ygrid crisp" transform="translate(0,176.74)" d="M155,0h381" style="stroke: rgb(255, 255, 255); stroke-opacity: 1; stroke-width: 1px;"/><path class="ygrid crisp" transform="translate(0,138.18)" d="M155,0h381" style="stroke: rgb(255, 255, 255); stroke-opacity: 1; stroke-width: 1px;"/></g></g><g class="zerolinelayer"><path class="yzl zl crisp" transform="translate(0,253.85)" d="M155,0h381" style="stroke: rgb(255, 255, 255); stroke-opacity: 1; stroke-width: 2px;"/></g><path class="xlines-below"/><path class="ylines-below"/><g class="overlines-below"/><g class="xaxislayer-below"/><g class="yaxislayer-below"/><g class="overaxes-below"/><g class="plot" transform="translate(155,100)" clip-path="url(#clip3dd026xyplot)"><g class="scatterlayer mlayer"><g class="trace scatter trace389331" style="stroke-miterlimit: 2; opacity: 1;"><g class="fills"/><g class="errorbars"/><g class="lines"><path class="js-line" d="M0,169.27L0.13,130.72L0.59,153.85L0.59,277.2L1.41,130.72L1.41,130.72L1.47,176.98L1.61,146.14L2.21,146.14L2.31,169.27L2.63,69.03L2.82,184.69L3.06,138.43L3.09,161.56L3.63,146.14L3.81,153.85L3.85,153.85L4.06,138.43L4.06,161.56L4.54,146.14L4.57,161.56L4.69,169.27L5.24,146.14L5.28,169.27L5.29,207.82L5.71,138.43L6.14,146.14L6.15,161.56L6.66,115.3L6.87,161.56L6.94,146.14L7.13,176.98L7.69,161.56L7.77,161.56L8.47,184.69L8.53,123.01L8.53,123.01L8.64,146.14L9.35,161.56L9.4,153.85L9.44,153.85L9.48,161.56L10.23,146.14L10.26,146.14L10.91,200.12L10.91,107.58L11.02,161.56L11.11,161.56L11.76,138.43L11.78,176.98L11.81,146.14L11.89,153.85L12.23,138.43L12.55,161.56L12.61,146.14L12.68,146.14L13.45,161.56L13.45,161.56L13.5,161.56L13.99,169.27L14.24,146.14L14.25,161.56L14.31,161.56L14.69,176.98L14.71,123L15.01,146.14L15.07,146.14L15.25,130.72L15.58,176.99L15.6,123L15.76,184.7L16.34,130.71L16.37,138.43L16.46,169.27L17.11,153.85L17.15,161.56L17.84,146.14L17.9,161.56L17.93,146.14L18.37,169.27L18.68,153.85L18.69,146.14L19.16,161.56L19.44,146.14L19.48,146.14L20.33,184.7L20.35,153.85L20.45,192.41L20.56,138.42L21.07,146.14L21.12,169.28L21.69,146.14L21.81,161.56L21.89,161.56L22.16,138.42L22.25,176.99L22.64,138.42L22.65,169.28L22.79,138.42L23.38,161.56L23.43,146.14L24.12,161.56L24.15,146.14L24.23,146.14L24.93,184.7L24.95,146.14L24.96,115.28L25.56,161.56L25.66,153.85L25.74,146.14L25.79,138.42L26.31,184.71L26.44,146.14L26.51,146.14L26.79,138.42L26.86,169.28L27.18,146.14L27.22,146.14L27.85,177L27.86,122.99L27.95,146.14L27.98,146.14L27.99,122.99L28.03,184.71L28.71,161.56L28.76,161.56L28.76,146.14L29.51,161.56L29.56,161.56L29.91,184.71L30.09,122.99L30.28,161.57L30.33,146.13L30.42,192.43L30.46,122.99L31.09,184.72L31.09,130.7L31.84,231.02L31.84,138.42L31.84,84.4L31.84,76.68L32.11,177L32.58,146.13L32.61,153.85L32.71,161.57L33.32,130.7L33.32,207.87L33.38,115.27L34.01,153.85L34.03,161.57L34.53,169.28L34.7,146.13L34.78,153.85L34.83,153.85L34.88,122.98L35.01,169.28L35.57,161.57L35.61,153.85L35.63,115.27L35.71,169.28L36.34,161.57L36.37,161.57L36.49,130.7L37.13,146.13L37.14,153.85L37.72,115.27L37.85,177L37.96,161.57L38.38,138.42L38.7,146.13L38.72,161.57L39.07,200.15L39.32,53.53L39.47,146.13L39.47,192.44L40.23,115.26L40.23,122.98L40.23,161.57L40.51,169.29L40.55,130.69L40.99,153.85L41.08,146.13L41.25,161.57L41.35,138.41L41.81,146.13L41.86,153.85L41.86,169.29L42.44,130.7L42.59,146.13L42.62,146.13L42.77,138.41L42.77,169.29L43.37,146.13L43.39,146.13L43.86,122.98L44.01,177L44.09,146.13L44.15,146.13L44.86,161.57L44.89,146.13L44.91,146.13L45.53,169.28L45.66,153.85L45.69,153.85L45.88,138.42L45.99,161.57L46.44,146.13L46.46,161.57L46.67,169.29L47.16,122.98L47.2,138.41L47.28,146.13L48,161.57L48,161.57L48.02,146.13L48.07,184.72L48.15,130.69L48.78,161.57L48.78,153.85L49.25,122.97L49.3,184.73L49.52,153.85L49.55,153.85L49.67,161.57L49.85,130.69L50.16,146.13L50.25,169.29L50.31,138.41L51,146.13L51.04,146.13L51.05,138.41L51.76,161.57L51.78,153.85L51.81,153.85L52.38,122.98L52.45,184.72L52.45,184.72L52.58,146.13L52.95,122.98L52.95,184.72L53.35,161.57L53.44,138.41L53.95,184.72L53.95,122.98L54.19,138.41L54.23,169.29L54.63,138.41L54.98,146.13L55,153.85L55.08,169.29L55.77,146.13L55.77,146.13L55.78,161.57L56.19,169.29L56.55,146.13L56.63,146.13L56.98,138.42L57.14,161.57L57.33,146.13L57.39,146.13L57.39,161.57L57.96,138.42L58.08,138.42L58.16,153.85L58.63,122.98L58.65,177L58.91,153.85L58.93,146.13L59.32,169.28L59.48,130.7L59.64,161.57L59.64,130.7L59.66,169.28L60.39,153.85L60.43,161.57L60.59,169.28L61.11,146.13L61.13,153.85L61.19,169.28L61.65,138.42L61.92,146.13L62,146.13L62.21,130.7L62.58,169.28L62.66,161.57L62.68,38.12L62.72,22.7L62.75,246.43L62.81,246.42L62.89,246.43L63.16,138.42L63.66,146.14L63.69,161.56L63.72,200.13L63.75,107.56L64.38,161.57L64.44,161.57L64.47,138.42L64.69,169.28L65.19,161.57L65.2,161.57L65.4,107.56L65.57,184.71L65.94,153.85L65.97,161.56L66.09,176.99L66.6,138.42L66.74,153.85L66.75,161.56L66.91,146.14L67.25,184.71L67.48,176.99L67.54,153.85L67.55,122.99L68.07,184.71L68.2,153.85L68.3,184.71L68.85,138.42L69.08,161.56L69.14,161.56L69.81,169.28L69.85,138.42L69.93,176.99L70.13,146.14L70.66,161.56L70.69,169.28L70.69,146.14L71.36,184.71L71.44,146.14L71.45,153.85L71.75,107.56L71.76,184.71L72.16,161.57L72.18,146.13L72.23,192.43L72.23,130.7L72.93,161.57L72.94,153.85L72.94,146.13L73.05,161.57L73.66,161.57L73.72,146.13L74.1,169.28L74.47,146.13L74.49,146.13L74.57,169.28L74.6,130.7L75.25,161.57L75.29,146.13L75.72,192.43L75.86,115.27L76.01,176.99L76.09,169.28L76.52,15L76.57,192.42L76.85,161.56L76.86,161.56L77.17,184.7L77.48,123L77.51,153.85L77.51,200.13L77.6,130.71L78.28,161.56L78.3,169.28L78.86,138.42L79.05,161.56L79.11,161.56L79.37,169.28L79.41,138.42L79.88,153.85L79.92,153.85L80.01,161.56L80.58,146.14L80.66,153.85L80.66,161.56L81.47,146.14L81.47,146.14L81.47,161.56L81.6,169.28L82.07,146.14L82.21,153.85L82.23,161.56L82.46,169.28L82.92,138.42L82.98,146.14L82.99,169.28L83.79,146.14L83.83,161.56L84.64,146.14L84.64,153.85L84.67,161.56L85.34,146.14L85.37,153.85L85.42,161.56L85.78,184.71L85.81,122.99L86.05,153.85L86.15,161.56L86.28,184.71L86.89,146.14L86.9,176.99L86.95,184.71L87.05,146.14L87.44,146.14L87.48,146.14L88.04,176.99L88.25,161.56L88.26,153.85L88.29,176.99L88.86,130.71L89.02,138.42L89.04,138.42L89.13,184.7L89.14,123L89.76,146.14L89.85,146.14L90.17,138.42L90.62,184.7L90.64,176.99L90.66,123L91.3,161.56L91.34,161.56L91.38,176.99L91.62,138.43L92.11,146.14L92.15,161.56L92.52,200.12L92.63,107.58L92.92,138.43L92.94,161.56L92.94,138.43L93.02,176.99L93.69,161.56L93.72,161.56L93.99,184.7L94.07,138.43L94.47,161.56L94.48,161.56L94.63,138.43L94.81,169.27L95.21,153.85L95.22,161.56L95.4,138.43L95.7,176.99L96,146.14L96.02,153.85L96.02,146.14L96.07,161.56L96.74,146.14L96.81,153.85L97.46,138.43L97.48,169.27L97.54,146.14L97.61,153.85L98.16,123.01L98.16,192.4L98.36,146.14L98.41,169.27L98.58,146.14L98.59,176.98L99.15,161.56L99.17,146.14L99.3,138.43L99.43,169.27L99.92,153.85L99.94,153.85L100,161.56L100.55,146.14L100.64,161.56L100.67,169.27L101.22,146.14L101.35,161.56L101.36,176.98L101.55,138.43L102.12,153.85L102.13,153.85L102.48,169.27L102.87,138.43L102.9,146.14L102.95,153.85L103.03,169.27L103.24,138.43L103.69,146.14L103.71,153.85L104.06,138.43L104.13,169.27L104.4,146.14L104.41,146.14L104.79,123.01L105.07,192.4L105.15,176.98L105.19,176.98L105.98,146.14L106.02,169.27L106.06,176.98L106.54,138.43L106.78,146.14L106.79,146.14L107.06,138.43L107.31,169.27L107.55,153.85L107.55,146.14L107.56,161.56L108.29,153.85L108.34,146.14L108.63,138.43L108.68,169.27L109.1,161.56L109.1,146.14L109.26,138.43L109.74,176.98L109.86,161.56L109.88,161.56L109.95,169.27L110.06,130.72L110.62,153.85L110.65,161.56L111.18,146.14L111.4,153.85L111.44,153.85L111.64,146.14L112.16,161.56L112.2,146.14L112.36,169.27L112.39,130.72L112.95,146.14L113.03,146.14L113.03,169.27L113.14,138.43L113.78,153.85L113.84,161.56L114.59,146.14L114.61,153.85L114.64,153.85L115.31,138.43L115.31,169.27L115.37,161.56L115.39,161.56L115.65,184.69L115.74,99.89L116.14,153.85L116.19,161.56L116.19,146.14L116.93,161.56L116.95,146.14L117.56,130.72L117.68,192.39L117.68,115.31L117.69,184.69L118.42,161.56L118.46,153.85L118.51,161.56L119.08,146.14L119.16,161.56L119.17,161.56L119.62,169.27L119.86,138.43L119.93,153.85L119.95,161.56L120.18,130.72L120.18,176.98L120.71,146.14L120.73,146.14L120.86,130.72L121.18,184.68L121.44,161.56L121.5,146.14L121.52,161.56L122.18,146.14L122.27,146.14L123.08,161.56L123.16,161.56L123.57,146.14L123.59,184.69L123.6,200.11L123.68,115.3L124.3,153.85L124.36,153.85L124.65,138.43L124.91,192.41L125.07,146.14L125.11,146.14L125.52,130.72L125.66,176.98L125.81,153.85L125.88,146.14L126.39,184.7L126.42,130.71L126.55,153.85L126.65,161.56L127.01,130.71L127.09,146.14L127.13,176.99L127.21,123L127.31,192.41L127.85,146.14L127.93,161.56L128.71,146.14L128.71,146.14L128.75,153.85L129.08,169.27L129.39,138.43L129.46,161.56L129.48,161.56L129.57,176.98L130.21,130.72L130.25,161.56L130.54,169.27L130.58,138.43L131.01,153.85L131.06,146.14L131.65,123L131.78,192.41L131.8,123L131.96,161.56L132.53,146.14L132.57,161.56L132.74,138.43L132.86,169.27L133.32,161.56L133.33,161.56L134.13,146.14L134.13,146.14L134.13,161.56L134.82,146.14L134.82,146.14L134.86,161.56L135.37,184.7L135.45,138.42L135.61,161.56L135.64,161.56L136,138.42L136.39,146.14L136.4,161.56L136.79,184.7L136.81,138.42L137.07,161.56L137.09,176.99L137.09,130.71L137.84,146.14L137.85,146.14L138.07,138.42L138.55,161.56L138.6,146.14L138.62,146.14L138.81,169.28L139.37,146.14L139.38,161.56L139.7,138.42L140.13,153.85L140.15,161.56L140.74,169.28L140.91,146.14L140.91,146.14L140.92,146.14L141.3,138.42L141.3,169.28L141.6,161.56L141.68,146.14L142.43,161.56L142.44,146.14L142.6,138.42L143.22,161.56L143.22,161.56L143.22,146.14L143.22,161.56L143.23,138.42L143.9,161.56L143.99,153.85L144.04,161.56L144.73,146.14L144.75,153.85L145.02,138.42L145.28,169.28L145.48,161.56L145.52,138.42L145.75,184.7L145.77,123L146.26,161.56L146.35,153.85L147.01,146.14L147.03,169.28L147.14,161.56L147.2,138.42L147.58,169.28L147.87,161.56L147.91,153.85L148.37,169.28L148.58,146.14L148.65,153.85L148.68,146.14L149.21,169.28L149.42,146.14L149.46,146.14L149.85,138.42L150.01,176.99L150.19,153.85L150.22,138.42L150.28,169.28L150.99,153.85L151,146.14L151.17,138.42L151.66,169.28L151.76,161.56L151.78,138.42L151.88,161.56L152.49,146.14L152.58,146.14L152.81,138.42L153.31,161.56L153.32,146.14L153.34,146.14L153.48,169.28L154.09,153.85L154.1,146.14L154.79,161.56L154.79,130.71L154.83,146.14L154.88,146.14L155.12,138.42L155.6,161.56L155.62,146.14L155.64,146.14L156.19,161.56L156.21,138.42L156.4,153.85L156.41,146.14L157.17,161.56L157.17,161.56L157.18,146.14L157.51,138.42L157.82,169.28L157.94,161.56L157.94,130.71L157.98,169.28L158.71,153.85L158.71,146.14L158.82,138.42L159.14,169.28L159.37,146.14L159.38,146.14L160.08,176.99L160.1,122.99L160.13,153.85L160.18,146.14L160.82,122.99L160.85,184.71L160.92,153.85L160.94,146.14L161,184.71L161.4,138.42L161.68,146.14L161.71,146.14L162.03,138.42L162.08,169.28L162.45,153.85L162.47,146.13L163.22,161.57L163.23,146.13L163.35,138.42L163.39,169.28L163.98,146.13L164,161.57L164.3,138.42L164.77,153.85L164.82,153.85L164.84,161.57L164.94,130.7L165.55,161.57L165.59,146.13L166.28,161.57L166.33,153.85L166.37,146.13L167.18,161.57L167.29,146.13L167.93,184.71L167.94,130.7L168.02,130.7L168.03,130.7L168.05,115.27L168.1,184.71L168.74,138.42L168.77,146.13L168.86,138.42L169.23,169.28L169.52,161.57L169.57,146.13L169.86,138.42L170.34,169.28L170.34,138.42L170.66,169.28L171.07,161.57L171.11,161.57L171.11,146.13L171.14,169.28L171.86,161.57L171.91,146.13L172.52,161.57L172.6,138.42L172.68,153.85L172.69,146.13L173.28,138.42L173.3,169.28L173.4,153.85L173.42,138.42L174.06,161.57L174.2,146.13L174.21,146.13L174.5,138.42L174.53,169.28L174.96,146.13L174.97,153.85L175.23,161.57L175.33,130.7L175.6,153.85L175.75,146.13L176.47,161.57L176.51,146.13L177.15,184.72L177.19,122.98L177.25,169.28L177.26,122.98L177.28,184.72L178,146.13L178.04,146.13L178.17,138.42L178.78,161.57L178.79,153.85L178.82,146.13L179.2,169.28L179.36,138.42L179.53,161.57L179.58,153.85L179.59,146.13L179.81,169.28L180.33,146.13L180.34,153.85L180.44,161.57L180.6,138.42L181.08,161.57L181.11,146.13L181.56,122.98L181.74,192.44L181.81,107.54L182.66,161.57L182.66,161.57L182.67,161.57L182.86,138.42L182.89,169.29L183.41,153.85L183.43,146.13L183.92,138.42L183.96,169.28L184.14,153.85L184.17,138.42L184.93,161.57L184.95,146.13L185.37,138.42L185.61,161.57L185.69,153.85L185.71,153.85L185.8,146.13L186.31,161.57L186.34,153.85L186.36,138.42L186.42,184.72L187.09,146.13L187.14,146.13L187.61,130.7L187.91,161.57L187.93,161.57L187.98,169.28L188.1,130.7L188.67,146.13L188.71,146.13L188.98,130.7L189.13,177L189.46,146.13L189.48,146.13L189.85,169.28L190.2,146.13L190.24,146.13L190.59,138.42L190.89,161.57L191.01,153.85L191.04,146.13L191.05,138.42L191.11,169.28L191.78,146.13L191.8,146.13L192.56,161.57L192.57,146.13L193.28,169.28L193.28,130.7L193.98,161.57L194.05,146.13L194.08,122.99L194.1,177L194.76,153.85L194.81,146.13L195.3,138.42L195.31,169.28L195.56,153.85L195.6,153.85L195.6,146.13L195.67,161.57L196.35,161.57L196.36,161.57L196.68,122.99L196.8,184.71L197.08,153.85L197.13,153.85L197.17,122.99L197.57,192.42L197.85,146.14L197.88,161.56L198.08,138.42L198.1,169.28L198.6,146.14L198.69,161.56L199.08,184.71L199.09,122.99L199.44,146.14L199.44,169.28L199.46,176.99L199.52,138.42L200.11,161.56L200.13,146.14L200.85,138.42L200.87,169.28L200.91,153.85L200.99,138.42L201.67,169.28L201.67,161.56L202.2,176.99L202.22,130.71L202.34,153.85L202.45,153.85L203,169.28L203.13,146.14L203.18,161.56L203.25,161.56L203.65,122.99L203.74,176.99L203.99,169.28L204.01,161.56L204.05,184.71L204.06,130.71L204.67,146.14L204.74,146.14L204.98,176.99L205.49,146.14L205.51,161.56L205.98,138.42L205.99,169.28L206.24,146.14L206.29,161.56L206.37,169.28L207.06,146.14L207.06,146.14L207.07,161.56L207.68,169.28L207.68,138.42L207.78,146.14L207.81,161.56L207.89,138.42L207.95,184.71L208.56,153.85L208.57,153.85L208.72,146.14L209.13,169.28L209.26,161.56L209.28,146.14L209.35,138.42L209.84,169.28L210.01,161.56L210.05,146.14L210.71,169.28L210.79,161.56L210.82,161.56L210.99,122.99L211.46,184.7L211.52,176.99L211.53,176.99L211.65,138.42L212.2,153.85L212.22,169.28L212.5,138.42L212.98,153.85L212.99,161.56L213.03,123L213.08,200.13L213.63,146.14L213.64,176.99L214.4,146.14L214.43,161.56L214.66,115.29L214.66,192.41L215.11,153.85L215.16,153.85L215.16,161.56L215.19,146.14L215.91,146.14L215.92,153.85L215.92,161.56L216.02,146.14L216.65,146.14L216.75,146.14L217.34,169.27L217.51,161.56L217.54,153.85L217.67,146.14L217.79,169.27L218.26,161.56L218.3,153.85L218.65,138.43L218.7,169.27L219.02,146.14L219.07,161.56L219.8,146.14L219.8,146.14L219.83,161.56L220.46,169.27L220.6,146.14L220.6,146.14L220.63,161.56L220.7,169.27L220.92,138.43L221.39,146.14L221.41,161.56L221.8,138.43L221.97,169.27L222.15,146.14L222.23,146.14L222.95,176.99L222.99,161.56L223.03,161.56L223.72,146.14L223.76,153.85L223.77,169.27L223.89,138.43L224.51,161.56L224.56,161.56L224.72,138.43L225.32,153.85L225.37,153.85L225.65,138.43L225.67,176.99L226.1,161.56L226.16,161.56L226.91,146.14L226.97,153.85L226.98,146.14L227.65,161.56L227.69,153.85L227.74,161.56L227.93,184.7L228.31,130.71L228.47,169.28L228.52,153.85L228.66,161.56L228.99,138.42L229.24,153.85L229.25,161.56L229.78,176.99L229.8,130.71L230.02,146.14L230.14,161.56L230.14,146.14L230.86,161.56L230.92,153.85L231.58,192.42L231.6,115.28L231.6,153.85L231.66,130.71L231.97,192.42L231.99,115.28L231.99,192.42L232.73,161.56L232.76,161.56L232.87,176.99L233.43,138.42L233.51,161.57L233.55,146.13L233.62,192.43L233.62,115.27L234.24,146.13L234.33,161.57L234.56,177L235.02,138.42L235.06,146.13L235.09,161.57L235.33,177L235.73,130.7L235.84,161.57L235.86,161.57L236.65,146.13L236.65,146.13L236.68,161.57L236.71,146.13L237.43,153.85L237.47,153.85L237.53,184.71L237.56,122.99L238.22,146.14L238.25,138.42L238.59,176.99L238.6,130.71L239.01,161.56L239.1,138.42L239.92,161.56L239.92,161.56L239.93,146.14L240.02,138.42L240.17,169.28L240.66,146.14L240.73,146.14L240.87,169.28L240.88,138.42L241.47,146.14L241.5,146.14L242.25,161.56L242.26,153.85L242.32,146.14L243.08,161.56L243.08,161.56L243.14,153.85L243.3,176.99L243.33,122.99L243.85,153.85L243.91,146.13L244.44,184.71L244.49,115.26L244.67,161.57L244.67,146.13L244.96,130.7L245.38,177L245.41,146.13L245.41,130.7L245.72,177L246.24,161.57L246.25,146.13L246.35,138.41L246.47,169.29L247,161.57L247.04,146.13L247.04,161.57L247.79,146.13L247.8,146.13L248.6,161.57L248.6,161.57L248.66,146.13L249.16,138.42L249.36,161.57L249.43,153.85L249.45,153.85L249.53,161.57L250.21,146.13L250.21,146.13L250.23,153.85L250.78,122.98L250.78,184.72L250.98,146.13L251,146.13L251.38,138.42L251.72,161.57L251.75,146.13L251.79,153.85L251.8,169.28L251.89,146.13L252.54,153.85L252.56,146.13L253.3,161.57L253.34,146.13L253.94,169.28L253.96,138.42L254.09,146.13L254.1,146.13L254.74,184.72L254.85,153.85L254.86,146.13L254.95,169.28L255.62,161.57L255.64,146.13L256.19,130.7L256.39,169.28L256.43,122.98L256.78,169.28L257.13,161.57L257.24,146.13L257.73,130.7L257.95,184.72L257.96,122.98L258.07,169.28L258.73,161.57L258.75,146.13L259.23,130.7L259.23,169.29L259.52,161.57L259.52,146.13L259.57,130.7L259.6,161.57L260.21,146.13L260.3,177L260.73,138.42L260.95,146.13L261.09,161.57L261.58,138.42L261.58,169.28L261.8,146.13L261.87,161.57L262.29,169.28L262.58,138.42L262.63,153.85L262.65,153.85L262.94,138.42L263.18,169.28L263.35,161.57L263.41,146.13L263.83,169.28L263.91,138.42L264.19,153.85L264.24,146.13L264.46,192.43L264.46,115.27L264.98,146.13L265.01,146.13L265.18,138.42L265.45,169.28L265.77,153.85L265.78,146.13L266.13,130.7L266.51,161.57L266.53,146.13L266.55,146.13L266.63,130.7L267.28,161.57L267.32,146.13L268.08,161.57L268.08,161.57L268.09,146.13L268.76,161.57L268.86,153.85L268.89,146.13L269.62,161.57L269.62,146.13L270.12,184.72L270.37,146.13L270.42,146.13L270.67,184.72L271.02,122.98L271.05,161.57L271.11,122.98L271.94,177.01L271.98,138.41L272.71,184.72L272.71,122.98L272.73,184.72L272.74,138.41L273.01,161.57L273.45,153.85L273.52,146.13L273.8,177.01L273.98,138.41L274.27,161.57L274.3,146.13L274.3,161.57L274.35,138.41L275.03,153.85L275.06,177.01L275.23,184.73L275.26,122.97L275.81,177.01L275.88,169.29L275.96,130.69L276.01,184.73L276.61,146.13L276.65,153.85L276.96,138.41L277.29,169.29L277.29,169.29L277.29,146.13L277.38,138.41L277.85,161.57L277.97,138.41L277.99,92.1L278.53,169.29L278.85,146.13L278.87,146.13L278.87,161.57L279.09,115.25L279.61,153.85L279.63,146.13L280.12,161.57L280.38,146.13L280.39,146.13L280.83,138.41L281.18,169.29L281.21,161.57L281.22,138.41L281.89,153.85L281.97,146.13L282.1,161.57L282.65,138.41L282.72,153.85L282.74,146.13L282.92,146.13L282.92,161.57L283.49,192.45L283.65,115.25L283.65,115.25L283.75,138.41L284.48,184.73L284.49,115.25L284.52,115.24L284.57,192.46L285.24,122.97L285.32,169.29L285.55,177.01L285.6,138.41L286.08,146.13L286.09,146.13L286.8,161.57L286.83,146.13L286.85,146.13L287.58,161.57L287.59,153.85L287.69,161.57L288.15,130.69L288.2,169.29L288.46,153.85L288.51,146.13L288.56,130.69L288.57,184.73L289.26,153.85L289.27,153.85L289.83,138.41L289.84,169.29L290.01,161.57L290.02,146.13L290.3,184.72L290.45,122.98L290.78,161.57L290.79,146.13L290.97,138.41L291.45,177L291.53,161.57L291.55,146.13L291.63,161.57L292.29,153.85L292.32,153.85L293.05,138.41L293.07,169.29L293.19,161.57L293.92,130.7L293.92,138.41L293.98,146.13L294.02,138.41L294.63,169.29L294.72,153.85L294.76,161.57L294.85,146.13L295.42,169.29L295.46,146.13L295.48,146.13L295.51,161.57L296.23,146.13L296.25,161.57L296.26,169.29L296.28,138.41L296.99,161.57L297.04,138.42L297.2,177L297.43,122.98L297.78,169.28L297.82,146.13L298.38,169.28L298.4,138.42L298.54,146.13L298.57,146.13L299.29,169.28L299.32,161.57L299.39,138.42L300.1,130.7L300.11,177L300.14,130.7L300.3,177L300.7,161.57L300.7,146.13L300.78,161.57L301.19,138.42L301.45,161.57L301.49,161.57L301.49,146.13L302.21,161.57L302.25,161.57L302.67,184.72L302.85,130.7L302.99,138.42L303.06,169.28L303.6,130.7L303.65,184.72L303.77,161.57L303.82,161.57L303.83,177L303.85,130.7L304.56,153.85L304.63,146.13L304.63,161.57L305.38,161.57L305.41,161.57L305.41,146.13L306.13,161.57L306.19,146.13L306.3,177L306.32,138.42L306.84,153.85L306.95,146.13L307.59,161.57L307.64,146.13L307.71,153.85L307.77,146.13L308.29,169.28L308.43,153.85L308.5,161.57L308.8,169.28L308.82,138.42L309.25,153.85L309.27,153.85L309.56,138.42L309.95,161.57L309.99,153.85L310.05,161.57L310.75,122.98L310.82,161.57L310.88,138.42L311.51,161.57L311.58,146.13L311.79,138.42L312.33,161.57L312.38,161.57L313.07,146.13L313.1,161.57L313.14,153.85L313.57,169.28L313.59,130.7L313.82,146.13L313.84,146.13L313.94,169.28L314.59,153.85L314.6,146.13L314.69,130.7L315.1,169.28L315.34,146.13L315.37,146.13L315.74,177L316.12,161.57L316.13,153.85L316.67,169.28L316.71,130.7L316.84,161.57L316.91,161.57L316.95,169.28L317.02,138.42L317.6,153.85L317.73,153.85L318.08,169.28L318.28,146.13L318.3,161.57L318.3,169.28L319.02,146.13L319.06,161.57L319.09,161.57L319.36,115.27L319.57,169.28L319.84,153.85L319.85,153.85L320.41,138.42L320.42,184.71L320.65,169.28L320.67,138.42L321.16,169.28L321.42,161.57L321.47,146.13L321.98,138.42L322.1,169.28L322.24,161.57L322.26,161.57L322.9,130.7L322.93,177L322.99,146.13L323.04,153.85L323.1,161.57L323.63,146.13L323.73,161.57L323.81,161.57L324.55,146.13L324.55,146.13L324.59,161.57L325.29,169.28L325.32,138.42L325.44,161.57L325.55,138.42L325.55,169.28L326.07,161.57L326.1,161.57L326.23,130.7L326.23,177L326.84,161.57L326.86,161.57L327.04,177L327.21,130.7L327.58,146.13L327.63,138.42L327.71,192.43L327.78,107.56L328.36,169.28L328.4,138.42L328.51,192.43L329.01,122.99L329.15,169.28L329.18,169.28L329.47,177L329.74,138.42L329.91,153.85L330.01,161.57L330.34,138.42L330.4,177L330.76,146.13L330.79,146.13L331.51,138.42L331.52,169.28L331.54,138.42L331.69,169.28L332.26,161.57L332.3,161.57L333.06,146.13L333.07,161.57L333.67,177L333.76,146.13L333.8,153.85L333.86,161.57L334,138.42L334.11,169.28L334.47,146.13L334.48,177L334.49,184.71L334.5,122.99L335.19,153.85L335.23,161.57L336,146.13L336,146.13L336.03,161.57L336.57,184.71L336.66,122.99L336.76,161.57L336.79,161.57L337.04,169.28L337.5,122.99L337.56,146.13L337.57,153.85L338.27,169.28L338.32,122.99L338.36,122.99L338.65,176.99L339.12,153.85L339.15,169.28L339.26,138.42L339.89,153.85L339.94,161.56L340.59,146.14L340.69,161.56L340.72,146.14L341.1,138.42L341.16,169.28L341.43,161.57L341.48,169.28L341.52,130.7L341.72,184.71L342.23,153.85L342.25,161.57L342.75,207.86L342.93,146.13L342.99,192.43L343.57,138.42L343.81,153.85L343.82,153.85L343.94,146.13L344.55,161.57L344.58,153.85L344.91,169.28L345.29,146.13L345.29,146.13L345.33,161.57L345.95,169.28L345.99,138.42L346.05,146.13L346.09,153.85L346.1,161.57L346.69,122.99L346.81,161.57L346.85,161.57L347.07,115.28L347.1,184.71L347.57,146.14L347.61,161.56L347.94,169.28L348.01,146.13L348.35,146.14L348.39,146.14L348.4,161.57L349.13,146.14L349.18,161.56L349.46,130.71L349.95,146.14L349.96,161.56L350.44,176.99L350.5,122.99L350.62,169.28L350.65,184.71L350.99,99.85L351.42,146.14L351.42,184.71L351.44,192.42L351.92,122.99L352.16,176.99L352.2,161.56L352.4,138.42L352.96,153.85L352.96,161.56L353.2,169.28L353.29,138.42L353.69,161.56L353.75,161.56L353.75,146.14L354.06,169.28L354.49,161.56L354.51,146.14L354.62,161.57L354.62,146.13L355.22,153.85L355.27,161.57L355.31,146.13L356.02,146.13L356.03,153.85L356.53,122.99L356.55,184.71L356.71,161.57L356.8,146.13L356.85,177L356.85,122.99L357.55,146.13L357.58,153.85L357.61,146.13L357.66,169.28L358.32,153.85L358.34,146.13L359.16,161.57L359.16,161.57L359.16,146.13L359.93,161.57L359.93,161.57L359.93,153.85L360.1,146.13L360.27,169.28L360.69,161.57L360.7,161.57L361.37,146.13L361.37,146.13L361.46,161.57L362.02,177L362.15,138.42L362.21,153.85L362.24,161.57L362.45,138.42L362.97,153.85L363.01,153.85L363.06,161.57L363.74,138.42L363.78,161.57L363.88,169.28L364.19,138.42L364.52,146.13L364.55,146.13L364.65,138.42L364.71,169.28L365.27,138.42L365.35,146.13L365.53,138.42L365.66,184.72L366.12,153.85L366.13,146.13L366.4,138.42L366.55,169.28L366.89,153.85L366.9,153.85L366.91,169.28L367.07,138.42L367.65,161.57L367.69,146.13L368.17,177L368.46,153.85L368.46,146.13L368.48,169.28L369.2,153.85L369.23,161.57L369.78,169.28L369.95,138.42L369.96,169.28L370.02,138.42L370.73,146.13L370.77,146.13L370.84,161.57L371.51,146.13L371.59,161.57L371.79,177L372.3,146.13L372.3,153.85L372.35,161.57L372.41,177L372.6,138.42L373.01,138.42L373.11,138.42L373.44,161.57L373.84,146.13L373.89,161.57L373.98,169.28L374.53,99.84L374.61,115.27L374.65,161.57L374.89,176.99L375.23,84.42L375.41,153.85L375.47,161.56L375.86,200.14L375.91,115.27L376.22,146.13L376.25,161.57L376.87,184.71L376.88,115.27L377,153.85L377.01,153.85L377.4,192.43L377.6,130.7L377.74,146.13L377.77,153.85L378.36,169.28L378.36,138.42L378.51,146.13L378.54,146.13L378.84,138.42L379,177L379.31,161.57L379.33,161.57L380.07,146.13L380.12,161.57L380.89,138.42L380.89,138.42L380.91,169.28L380.96,146.13L381,161.57" style="vector-effect: non-scaling-stroke; fill: none; stroke: rgb(99, 110, 250); stroke-opacity: 1; stroke-width: 2px; opacity: 1;"/></g><g class="points"/><g class="text"/></g><g class="trace scatter trace5db26d" style="stroke-miterlimit: 2; opacity: 1;"><g class="fills"/><g class="errorbars"/><g class="lines"><path class="js-line" d="M0,130.72L0.59,184.69L0.79,169.27L0.83,146.14L1.41,176.98L1.47,130.72L1.57,146.14L1.61,161.56L2.15,169.27L2.5,130.72L2.52,146.14L2.82,123.01L3.06,176.98L3.26,146.14L3.28,161.56L3.91,146.14L4.02,161.56L4.06,161.56L4.69,138.43L4.78,146.14L4.86,161.56L5.29,176.98L5.39,107.59L5.54,138.43L5.71,169.27L5.71,146.14L6.43,146.14L6.48,161.56L6.86,169.27L7.23,130.72L7.26,161.56L7.28,130.72L8.01,161.56L8.06,161.56L8.47,123.01L8.53,184.69L8.77,161.56L8.82,161.56L9.48,146.14L9.55,161.56L9.59,161.56L9.59,146.14L10.31,146.14L10.35,146.14L10.83,107.58L10.91,200.12L11.02,161.56L11.11,146.14L11.25,138.43L11.81,176.98L11.89,146.14L12.61,161.56L12.68,161.56L13.25,146.14L13.37,161.56L13.45,146.14L14.21,161.56L14.21,161.56L14.22,146.14L14.71,184.7L14.95,146.14L15.01,161.56L15.18,161.56L15.18,161.56L15.2,130.72L15.62,123L15.64,184.7L15.97,161.56L16,161.56L16.15,130.71L16.26,184.7L16.74,161.56L16.76,161.56L17.52,146.14L17.52,146.14L17.53,161.56L18.24,146.14L18.26,161.56L18.29,161.56L18.37,138.43L19.04,146.14L19.06,161.56L19.63,146.14L19.81,161.56L19.83,161.56L20.45,115.29L20.52,184.7L21.2,138.42L21.3,161.56L21.31,161.56L21.46,138.42L21.48,169.28L22.07,146.14L22.12,161.56L22.16,169.28L22.25,130.71L22.83,146.14L22.96,146.14L23.64,161.56L23.71,146.14L23.72,146.14L24.47,161.56L24.5,146.14L24.88,115.28L24.97,192.42L25.26,161.56L25.28,146.14L25.86,169.28L25.87,138.42L26,161.56L26.1,161.56L26.32,176.99L26.78,138.42L26.82,169.28L26.86,169.28L26.86,138.42L27.59,146.14L27.69,146.14L27.86,122.99L28.02,184.71L28.44,146.14L28.54,161.56L29.24,146.14L29.29,161.56L29.32,161.56L30,192.42L30.07,130.7L30.09,184.71L30.42,115.27L30.46,192.43L30.82,169.28L30.91,146.13L30.96,122.98L31.24,184.72L31.64,146.13L31.68,146.13L31.84,76.68L31.84,238.74L32.42,169.29L32.43,138.41L33.18,184.72L33.22,161.57L33.23,146.13L33.3,207.87L33.32,99.83L33.82,161.57L33.84,146.13L34.5,161.57L34.53,138.42L34.54,138.42L34.97,184.72L35.3,161.57L35.31,161.57L35.63,192.43L35.71,138.42L36.08,146.13L36.1,161.57L36.17,138.42L36.23,192.43L36.85,161.57L36.86,161.57L37.59,146.13L37.59,161.57L37.62,161.57L37.72,192.43L37.77,122.99L38.37,161.57L38.38,161.57L39.06,200.15L39.07,107.55L39.13,161.57L39.2,161.57L39.32,254.17L39.35,84.39L39.77,161.57L39.87,146.13L40.23,192.44L40.55,177.01L40.6,122.97L40.62,177.01L41.35,169.29L41.37,169.29L41.92,138.41L42.14,146.13L42.15,161.57L42.44,177L42.79,138.41L42.85,146.13L42.92,146.13L43.1,169.29L43.6,138.41L43.65,146.13L43.68,161.57L43.92,115.26L43.96,177L44.43,161.57L44.45,161.57L44.72,169.29L45.22,146.13L45.22,146.13L45.26,161.57L45.53,138.42L45.88,169.28L46.01,161.57L46.08,146.13L46.67,138.41L46.67,169.29L46.84,161.57L46.85,146.13L47.2,184.72L47.6,161.57L47.64,146.13L48.27,177.01L48.39,146.13L48.42,146.13L48.65,122.97L48.97,177.01L49.17,161.57L49.2,161.57L49.44,192.45L49.77,138.41L49.9,161.57L49.92,146.13L50.07,138.41L50.33,169.29L50.68,161.57L50.74,146.13L50.77,130.69L51.49,169.29L51.49,161.57L51.5,146.13L52.15,177.01L52.17,130.7L52.19,161.57L52.22,130.7L52.45,122.98L52.95,184.72L53,169.29L53.03,138.41L53.44,169.29L53.75,161.57L53.85,146.13L53.95,184.72L54.01,122.98L54.53,161.57L54.56,161.57L54.6,177L55.08,138.41L55.32,146.13L55.32,161.57L56.08,146.13L56.08,146.13L56.09,161.57L56.19,138.41L56.31,169.28L56.86,146.13L56.88,146.13L56.98,169.28L57.62,146.13L57.64,146.13L58.18,169.28L58.34,161.57L58.4,146.13L58.65,130.7L58.71,184.72L59.13,169.28L59.23,161.57L59.32,138.42L59.48,184.72L59.97,146.13L59.98,169.28L60.68,138.42L60.75,146.13L60.75,161.57L61.21,169.28L61.44,138.42L61.49,146.13L61.53,146.13L61.53,161.57L61.76,130.7L62.21,146.13L62.31,161.57L62.72,285L62.89,22.7L63.07,146.14L63.07,161.56L63.14,169.28L63.24,138.42L63.72,161.56L63.72,207.85L63.75,215.57L63.77,138.42L64.2,146.13L64.25,138.42L64.47,169.28L64.95,161.57L64.96,146.13L65.54,184.71L65.57,122.99L65.7,146.14L65.72,146.14L65.8,169.28L66.09,122.99L66.46,146.14L66.54,161.56L66.64,169.28L67.29,122.99L67.3,146.14L67.33,161.56L67.55,184.71L68.07,115.28L68.1,146.14L68.12,146.14L68.31,115.28L68.85,169.28L68.9,146.14L69.66,161.56L69.68,146.14L69.93,130.71L70.4,161.56L70.4,146.14L70.49,146.14L70.59,138.42L70.92,169.28L71.21,146.14L71.3,161.56L71.75,200.14L71.89,107.56L72.03,146.13L72.07,146.13L72.22,107.56L72.23,200.14L72.84,161.57L72.86,161.57L73.2,138.42L73.23,169.28L73.57,146.13L73.64,161.57L74.1,138.42L74.39,146.13L74.44,146.13L74.57,138.42L74.57,177L75.2,161.57L75.21,146.13L75.72,115.27L75.86,192.43L75.89,122.99L75.94,115.27L76.6,192.42L76.63,138.42L76.67,161.56L77.18,176.99L77.19,115.28L77.34,138.42L77.37,176.99L77.51,107.57L78.14,146.14L78.14,161.56L78.33,169.28L78.87,138.42L78.88,161.56L78.91,146.14L79.18,138.42L79.52,169.28L79.62,146.14L79.7,146.14L80.47,161.56L80.49,146.14L81.21,161.56L81.33,161.56L81.61,138.42L82.07,161.56L82.13,146.14L82.26,169.28L82.46,138.42L82.88,161.56L82.89,161.56L82.99,138.42L83.17,169.28L83.59,161.56L83.61,146.14L84.39,161.56L84.4,146.14L85.11,161.56L85.15,146.14L85.16,146.14L85.78,122.99L85.81,184.71L85.85,146.14L85.93,146.14L86.27,169.28L86.28,122.99L86.57,122.99L86.61,122.99L87.31,161.56L87.31,161.56L87.41,146.14L87.41,161.56L87.66,122.99L88.06,146.14L88.19,161.56L88.27,169.28L88.29,122.99L88.97,138.42L89.02,169.28L89.14,184.7L89.32,123L89.76,161.56L89.85,161.56L90.17,176.99L90.62,123L90.64,123L90.66,184.7L91.39,130.71L91.43,161.56L91.55,130.71L91.57,169.27L92.15,146.14L92.21,146.14L92.36,107.58L92.55,200.12L92.94,146.14L92.99,146.14L93.01,169.27L93.02,130.71L93.72,146.14L93.75,146.14L93.99,123L94.4,161.56L94.48,146.14L94.55,146.14L94.63,169.27L94.69,138.43L95.32,161.56L95.34,146.14L95.45,169.27L95.71,123L96.12,161.56L96.14,146.14L96.88,161.56L96.91,161.56L97.46,169.27L97.54,138.43L97.68,146.14L97.69,146.14L98.07,184.69L98.16,115.3L98.44,161.56L98.5,138.43L98.58,169.27L98.59,130.72L99.17,161.56L99.2,146.14L99.43,138.43L99.48,169.27L99.97,161.56L99.99,161.56L100.68,138.43L100.68,138.43L100.78,146.14L101.36,130.72L101.53,161.56L101.53,161.56L101.54,146.14L101.59,138.43L101.65,169.27L102.19,146.14L102.3,146.14L102.48,138.43L102.55,169.27L103.03,138.43L103.08,146.14L103.3,169.27L103.82,161.56L103.85,146.14L103.98,138.43L104.06,169.27L104.58,146.14L104.66,146.14L104.97,176.98L105.07,115.3L105.37,146.14L105.38,161.56L106.04,169.27L106.06,130.72L106.09,138.43L106.15,138.43L106.63,176.98L106.84,130.72L106.93,161.56L106.95,138.43L107.06,169.27L107.7,146.14L107.72,146.14L108.46,161.56L108.47,146.14L108.49,146.14L108.61,138.43L108.63,176.98L109.22,161.56L109.25,146.14L109.55,169.27L109.99,130.72L110,146.14L110.04,146.14L110.06,176.98L110.78,161.56L110.81,146.14L111.18,161.56L111.54,146.14L111.58,146.14L112.3,161.56L112.32,146.14L112.36,138.43L112.39,176.98L113.08,146.14L113.12,138.43L113.14,169.27L113.84,146.14L113.89,146.14L114.64,161.56L114.65,146.14L115.31,169.27L115.31,138.43L115.4,161.56L115.42,161.56L115.65,123.01L115.74,207.81L116.19,146.14L116.19,161.56L116.93,146.14L116.93,146.14L116.95,161.56L117.11,169.27L117.68,115.31L117.68,192.39L117.69,115.31L118.42,146.14L118.46,146.14L119.26,161.56L119.26,161.56L119.27,146.14L119.62,138.43L120,169.27L120.01,138.43L120.12,146.14L120.18,176.98L120.18,130.72L120.86,146.14L120.89,146.14L120.9,115.31L120.97,161.56L121.63,161.56L121.7,146.14L121.7,161.56L122.45,161.56L122.46,146.14L122.62,138.43L123.24,161.56L123.27,146.14L123.6,107.59L123.68,200.11L124.03,161.56L124.04,146.14L124.63,176.98L124.65,130.72L124.71,146.14L124.81,161.56L124.87,176.98L124.91,115.29L125.49,146.14L125.52,138.43L125.52,176.98L125.55,130.72L126.27,146.14L126.31,146.14L126.39,123L126.42,184.7L127.01,146.14L127.09,169.27L127.21,184.7L127.32,115.29L127.84,161.56L127.85,161.56L128.66,146.14L128.71,161.56L129.32,130.72L129.35,169.27L129.39,176.98L129.57,130.72L130.16,146.14L130.17,184.69L130.56,138.43L130.95,146.14L131.01,161.56L131.48,169.27L131.58,146.14L131.62,161.56L131.62,184.7L131.65,192.41L131.78,115.29L132.37,146.14L132.39,161.56L132.71,169.27L132.86,138.43L133.15,146.14L133.16,161.56L133.84,146.14L133.92,161.56L134.31,169.28L134.71,146.14L134.72,161.56L135.29,169.28L135.37,123L135.45,169.28L135.48,138.42L136,176.99L136.26,161.56L136.3,146.14L136.83,130.71L137.03,169.28L137.07,161.56L137.09,130.71L137.09,176.99L137.84,146.14L137.85,161.56L137.98,169.28L138.55,146.14L138.6,161.56L138.62,161.56L138.82,169.28L138.91,138.42L139.38,146.14L139.44,146.14L139.7,169.28L140.21,161.56L140.27,146.14L140.44,138.42L140.79,169.28L141.03,161.56L141.04,146.14L141.3,169.28L141.3,138.42L141.79,161.56L141.8,146.14L142.52,169.28L142.57,161.56L142.57,146.14L143.3,169.28L143.34,161.56L144.09,146.14L144.11,161.56L144.11,146.14L144.79,146.14L144.87,146.14L145.6,130.71L145.62,176.99L145.62,176.99L145.65,161.56L145.75,123L145.77,184.7L146.37,161.56L146.46,161.56L147.14,146.14L147.17,161.56L147.2,169.28L147.53,138.42L147.93,146.14L147.99,161.56L148.22,169.28L148.42,138.42L148.74,161.56L148.81,146.14L149.21,138.42L149.56,161.56L149.61,146.14L150.01,130.71L150.32,169.28L150.35,161.56L150.37,146.14L150.85,138.42L151.17,169.28L151.17,161.56L151.18,138.42L151.78,169.28L151.95,161.56L151.99,146.14L152.32,169.28L152.78,161.56L152.81,161.56L152.81,169.28L153.27,138.42L153.48,138.42L153.61,161.56L154.33,146.14L154.41,161.56L154.78,176.99L155.12,146.14L155.19,169.28L155.19,146.14L155.94,161.56L155.95,161.56L155.95,146.14L156.02,169.28L156.69,161.56L156.73,161.56L156.94,169.28L157.47,146.14L157.48,169.28L157.82,130.71L158.22,161.56L158.24,161.56L158.43,161.56L158.43,161.56L158.44,146.14L158.84,138.42L159.17,169.28L159.17,169.28L159.25,161.56L159.84,169.28L160.01,146.14L160.03,161.56L160.1,184.71L160.46,122.99L160.73,161.56L160.73,122.99L160.82,184.71L161.49,169.28L161.55,146.14L161.72,138.42L162.36,177L162.39,161.57L163.22,146.13L163.23,161.57L163.35,177L163.39,138.42L163.98,161.57L164,146.13L164.28,177L164.73,161.57L164.77,146.13L164.95,177L165.52,161.57L165.55,146.13L166.33,161.57L166.37,161.57L167.18,146.13L167.29,161.57L167.94,192.43L167.99,138.42L168.02,192.43L168.1,115.27L168.77,169.28L168.79,146.13L168.9,138.42L169.22,169.28L169.52,138.42L169.57,169.28L170.34,138.42L170.34,169.28L170.89,138.42L171.07,146.13L171.11,146.13L171.23,161.57L171.36,138.42L171.8,146.13L171.85,161.57L172.3,169.28L172.57,138.42L172.59,169.28L172.6,169.28L173.3,177L173.34,130.71L173.35,169.28L173.36,161.56L173.42,169.28L173.55,138.42L174.1,161.57L174.13,161.57L174.5,169.28L174.61,138.42L174.88,161.57L174.89,161.57L175.33,177L175.35,146.13L175.6,161.57L175.75,161.57L176.11,169.28L176.47,146.13L176.51,161.57L177.05,146.13L177.19,184.72L177.25,161.57L177.26,184.72L177.28,122.98L178,161.57L178.04,161.57L178.17,169.28L178.78,146.13L178.79,161.57L178.82,161.57L179.2,138.42L179.36,169.28L179.53,146.13L179.58,161.57L179.81,138.42L179.83,169.28L180.33,161.57L180.34,161.57L180.6,169.28L180.8,138.42L180.95,169.28L181.05,169.28L181.56,184.72L181.6,138.42L181.74,161.57L181.81,200.16L181.91,138.41L182.64,146.13L182.66,146.13L182.89,138.42L183.28,169.29L183.43,161.57L183.48,146.13L183.91,138.42L184.17,169.28L184.31,161.57L184.35,146.13L185.02,161.57L185.02,146.13L185.14,146.13L185.37,169.28L185.9,161.57L185.92,146.13L186.42,122.98L186.65,177L186.69,161.57L187.21,138.42L187.43,161.57L187.47,161.57L187.61,177L187.98,130.7L188.21,161.57L188.28,146.13L188.74,138.42L188.98,177L188.98,177L189.1,146.13L189.13,122.99L189.17,184.71L189.85,138.42L189.92,146.13L190.59,169.28L190.6,138.42L190.66,161.57L190.68,146.13L191.07,138.42L191.16,169.28L191.44,161.57L191.45,146.13L192.18,161.57L192.18,161.57L192.24,161.57L192.98,146.13L193.02,161.57L193.28,177L193.74,138.42L193.78,146.13L193.8,161.57L194.08,184.71L194.1,130.7L194.56,146.13L194.66,161.57L195.3,169.28L195.31,138.42L195.41,161.57L195.44,161.57L196.24,146.13L196.26,161.57L196.68,184.71L196.8,122.99L197.02,146.14L197.03,161.56L197.38,192.42L197.57,115.28L197.78,146.14L197.84,161.56L197.91,169.28L198.1,138.42L198.6,146.14L198.6,161.56L199.08,122.99L199.09,184.71L199.4,146.14L199.44,161.56L199.46,130.71L199.52,176.99L200.18,146.14L200.2,161.56L200.85,169.28L200.92,138.42L200.98,146.14L200.99,161.56L200.99,169.28L201.36,130.71L201.72,138.42L201.78,138.42L202.2,130.71L202.22,176.99L202.57,161.56L202.58,161.56L203,138.42L203.34,146.14L203.38,146.14L204.05,122.99L204.06,184.71L204.1,146.14L204.14,146.14L204.16,138.42L204.9,161.56L204.9,138.42L204.92,161.56L204.98,122.99L205.6,161.56L205.66,146.14L205.99,130.71L206.37,161.56L206.38,138.42L206.43,146.14L207.2,161.56L207.21,146.14L207.38,138.42L207.89,169.28L207.91,161.56L207.95,122.99L208.18,169.28L208.72,161.56L208.73,161.56L208.98,169.28L209.49,138.42L209.49,146.14L209.55,146.14L209.68,138.42L209.92,169.28L210.25,146.14L210.33,146.14L210.71,138.42L210.86,161.56L210.99,146.14L211.03,115.28L211.04,176.99L211.74,146.14L211.81,146.14L212.45,130.71L212.5,169.28L212.54,138.42L212.63,169.28L213.08,107.57L213.33,161.56L213.35,138.43L213.48,176.99L213.57,123L214.11,146.14L214.13,146.14L214.66,192.41L214.66,115.29L214.85,146.14L214.93,161.56L215.6,146.14L215.7,161.56L215.74,169.27L216.46,146.14L216.46,146.14L216.48,161.56L217.28,146.14L217.3,161.56L217.79,138.43L218.06,146.14L218.06,161.56L218.65,169.27L218.7,138.43L218.74,146.14L218.83,161.56L219.59,146.14L219.59,146.14L219.61,146.14L220.34,161.56L220.34,161.56L220.38,138.43L220.56,169.27L221.09,146.14L221.14,161.56L221.8,169.27L221.87,146.14L221.87,146.14L221.92,161.56L222.04,169.27L222.29,138.43L222.67,146.14L222.72,146.14L222.72,161.56L222.95,130.71L223.44,146.14L223.48,146.14L223.77,138.43L223.89,169.27L224.17,161.56L224.25,161.56L224.72,169.27L224.95,138.43L224.99,161.56L225.04,146.14L225.29,146.14L225.31,161.56L225.71,169.27L225.79,130.71L226.08,146.14L226.1,161.56L226.1,146.14L226.85,161.56L226.86,146.14L227.59,161.56L227.64,146.14L228.04,130.71L228.31,176.99L228.31,176.99L228.36,130.71L228.99,169.28L229.11,161.56L229.22,161.56L229.56,176.99L229.85,130.71L229.96,146.14L230.01,169.28L230.69,146.14L230.8,161.56L231.58,115.28L231.58,115.28L231.6,192.42L232,115.28L232.39,146.14L232.43,161.56L232.64,169.28L232.68,138.42L233.16,146.13L233.22,161.57L233.62,115.27L233.62,192.43L233.95,161.57L233.98,161.57L234.08,122.99L234.68,161.57L234.78,146.13L235.33,130.7L235.49,177L235.56,146.13L235.66,130.7L235.73,177L236.33,161.57L236.34,146.13L237.02,161.57L237.06,146.13L237.1,146.13L237.53,122.99L237.74,184.71L237.84,169.28L237.93,169.28L237.95,177L238.07,115.28L238.52,146.14L238.59,130.71L238.6,176.99L239.26,146.14L239.36,161.56L240.02,169.28L240.03,138.42L240.04,169.28L240.17,138.42L240.8,146.14L240.81,146.14L240.87,138.42L241.27,169.28L241.56,161.56L241.61,161.56L242.37,146.14L242.37,146.14L242.4,161.56L243.08,146.14L243.15,161.56L243.16,161.56L243.33,192.43L243.85,146.13L243.85,146.13L243.91,161.57L244.47,115.27L244.49,192.44L244.67,146.13L244.67,161.57L244.96,177L245.38,130.7L245.41,146.13L245.41,177L246.02,146.13L246.09,161.57L246.11,161.57L246.35,169.29L246.39,130.7L246.86,146.13L246.95,138.42L247.23,169.28L247.68,161.57L247.79,161.57L248.6,146.13L248.6,146.13L248.66,161.57L249.15,138.42L249.16,169.28L249.43,146.13L249.45,161.57L250.19,146.13L250.21,161.57L250.68,184.72L250.78,122.98L250.97,146.13L250.97,161.57L251.38,169.28L251.72,146.13L251.72,146.13L251.74,161.57L251.8,138.42L251.97,169.28L252.49,146.13L252.52,146.13L253.14,161.57L253.26,146.13L253.28,146.13L253.99,169.28L254,146.13L254.01,138.42L254.01,161.57L254.74,161.57L254.79,161.57L255.02,138.41L255.28,169.29L255.54,161.57L255.57,146.13L256.32,161.57L256.37,161.57L256.43,184.72L256.65,138.42L257.08,161.57L257.08,146.13L257.82,184.72L257.84,161.57L257.84,146.13L257.89,122.98L258,184.72L258.57,161.57L258.64,146.13L259.06,177L259.12,130.7L259.35,177L259.4,161.57L259.57,177L259.77,138.41L260.11,161.57L260.16,161.57L260.71,130.7L260.73,177L260.93,146.13L260.95,161.57L261.35,177L261.72,138.42L261.76,169.28L262.47,138.42L262.49,169.28L262.58,169.28L263.15,138.42L263.33,146.13L263.34,161.57L263.83,138.42L263.91,169.28L264.09,161.57L264.19,161.57L264.46,115.27L264.46,192.43L264.96,146.13L264.98,169.28L265.45,138.42L265.75,146.13L265.77,161.57L266.2,177L266.51,146.13L266.52,161.57L266.53,161.57L266.63,177L267.14,138.42L267.18,161.57L267.25,169.28L268.01,146.13L268.03,161.57L268.76,146.13L268.78,161.57L268.81,146.13L268.81,161.57L269.55,146.13L269.62,146.13L269.62,161.57L270.13,115.26L270.37,161.57L270.42,161.57L270.67,122.98L271.02,192.44L271.05,146.13L271.11,192.44L271.68,138.41L271.86,161.57L271.88,161.57L271.98,169.29L272,146.13L272.5,161.57L272.5,146.13L272.71,122.98L272.71,184.72L273.26,161.57L273.27,146.13L273.84,138.41L273.98,169.29L274.01,161.57L274.04,146.13L274.35,169.29L274.77,161.57L274.81,161.57L275.09,184.73L275.34,122.97L275.59,146.13L275.61,161.57L275.77,177.01L276.01,122.97L276.35,146.13L276.38,161.57L276.96,169.29L277.03,138.41L277.11,161.57L277.15,161.57L277.29,169.29L277.72,138.41L277.85,146.13L277.94,161.57L277.99,215.6L278.17,138.41L278.47,146.13L278.53,138.41L279.09,192.45L279.32,161.57L279.32,146.13L279.89,161.57L280.01,146.13L280.09,161.57L280.73,146.13L280.81,161.57L280.83,169.29L281.36,138.41L281.57,161.57L281.62,161.57L282.35,146.13L282.35,146.13L282.4,146.13L282.65,169.29L282.94,138.41L283.13,146.13L283.16,146.13L283.49,115.25L283.65,192.45L283.91,161.57L283.92,146.13L284.47,115.25L284.52,192.46L284.53,130.69L284.57,115.24L284.57,192.46L285.32,130.69L285.33,146.13L285.55,130.69L285.6,169.29L286.09,161.57L286.12,146.13L286.86,161.57L286.87,146.13L286.88,146.13L287.44,161.57L287.59,146.13L287.69,146.13L288.16,122.97L288.23,169.29L288.46,161.57L288.51,161.57L288.56,184.73L288.57,122.97L289.25,161.57L289.26,146.13L289.83,169.29L289.84,138.41L290.01,146.13L290.02,161.57L290.21,184.72L290.3,122.98L290.78,146.13L290.79,146.13L290.98,177L291.45,130.7L291.49,130.7L292.27,161.57L292.27,161.57L292.28,146.13L292.99,161.57L293,146.13L293.05,146.13L293.05,169.29L293.07,138.41L293.79,161.57L293.81,161.57L293.92,177L294.43,138.41L294.55,161.57L294.57,161.57L294.63,138.41L295.31,161.57L295.33,146.13L295.42,138.41L295.46,169.29L296.08,146.13L296.12,146.13L296.61,130.7L296.83,177L296.89,161.57L296.9,146.13L296.99,130.7L297.43,184.72L297.6,177L297.64,130.7L297.75,169.28L298.38,138.42L298.4,169.28L298.63,138.42L298.89,146.13L298.94,161.57L299.29,169.28L299.32,130.7L299.69,146.13L299.7,161.57L300.1,177L300.3,130.7L300.43,146.13L300.48,161.57L301.19,169.29L301.19,138.42L301.23,146.13L301.25,161.57L301.42,169.29L301.54,138.42L301.99,146.13L302.01,161.57L302.67,122.98L302.69,184.72L302.72,184.72L302.8,161.57L302.99,169.28L303.41,138.42L303.54,146.13L303.58,138.42L303.61,122.98L303.61,184.72L304.29,146.13L304.33,146.13L304.55,146.13L304.55,146.13L304.56,161.57L305.3,138.42L305.31,161.57L305.31,169.28L306.07,146.13L306.07,146.13L306.09,161.57L306.3,138.42L306.32,169.28L306.84,161.57L306.95,161.57L307.64,146.13L307.64,146.13L307.71,161.57L308.02,138.42L308.43,146.13L308.5,146.13L308.8,138.42L308.82,169.28L309.27,161.57L309.28,146.13L309.56,169.28L309.99,161.57L310.05,146.13L310.24,146.13L310.24,146.13L310.26,161.57L310.98,146.13L311.01,161.57L311.06,146.13L311.79,169.28L311.81,169.28L311.82,138.42L311.89,161.57L312.57,161.57L312.61,161.57L312.61,146.13L313.36,169.28L313.37,146.13L313.82,169.28L313.98,138.42L314.11,146.13L314.15,161.57L314.71,184.71L314.88,138.42L314.91,161.57L315.1,138.42L315.6,161.57L315.63,161.57L315.93,130.7L316.38,161.57L316.42,161.57L316.45,138.42L316.71,177L317.16,138.42L317.19,146.13L317.22,138.42L317.28,169.28L317.89,161.57L317.96,146.13L318.08,138.42L318.19,169.28L318.71,146.13L318.73,146.13L319.35,138.42L319.36,192.43L319.5,169.28L319.57,138.42L319.64,169.28L320.32,146.13L320.34,146.13L320.42,122.99L321.04,169.28L321.11,138.42L321.11,169.28L321.86,146.13L321.88,161.57L321.98,169.28L322.48,138.42L322.63,161.57L322.65,161.57L322.9,177L322.93,130.7L323.38,146.13L323.41,161.57L324.17,146.13L324.2,146.13L324.2,161.57L324.95,161.57L324.97,161.57L325.29,138.42L325.32,169.28L325.65,146.13L325.74,146.13L326.17,130.7L326.23,177L326.48,130.7L326.5,146.13L327,130.7L327.21,177L327.23,169.28L327.25,138.42L327.71,107.56L327.78,200.14L328.03,161.57L328.04,146.13L328.4,169.28L328.51,115.27L328.79,161.57L328.82,146.13L329.01,184.71L329.47,130.7L329.47,177L329.48,130.7L330.22,161.57L330.23,146.13L330.37,130.7L330.97,161.57L330.97,161.57L331,161.57L331.51,169.28L331.69,138.42L331.76,146.13L331.76,161.57L332.08,169.28L332.12,138.42L332.45,146.13L332.58,161.57L333.32,146.13L333.33,161.57L333.34,161.57L333.67,169.28L333.69,130.7L334.07,161.57L334.1,161.57L334.49,122.99L334.5,184.71L334.83,146.13L334.86,161.57L335.38,169.28L335.42,138.42L335.64,146.13L335.66,161.57L335.66,146.13L336.41,146.13L336.42,146.13L336.57,122.99L336.66,184.71L337.11,161.57L337.13,146.13L337.58,169.28L337.83,161.57L337.89,146.13L338.27,130.7L338.36,192.42L338.64,161.56L338.65,146.14L338.65,130.71L338.7,169.28L339.38,138.42L339.42,138.42L340.13,161.56L340.26,146.14L341.02,161.56L341.03,146.14L341.51,184.71L341.55,122.99L341.78,122.99L341.79,161.57L341.79,122.99L342.06,169.28L342.51,146.13L342.59,146.13L342.99,115.27L343.18,177L343.26,161.57L343.34,138.42L343.62,169.28L344.06,161.57L344.13,146.13L344.64,138.42L344.88,161.57L344.88,146.13L344.89,146.13L344.93,169.28L345.47,138.42L345.63,146.13L345.66,146.13L345.95,138.42L346.14,169.28L346.35,146.13L346.43,146.13L346.69,192.42L347.08,115.28L347.17,176.99L347.19,130.71L348.01,169.28L348.01,146.13L348.39,161.57L348.76,146.14L348.79,146.14L349.4,184.71L349.53,161.56L349.59,146.14L350.36,161.56L350.36,161.56L350.38,146.14L350.47,184.71L350.8,122.99L350.98,146.14L350.99,207.85L351.5,115.28L351.73,146.14L351.77,169.28L351.92,184.71L351.94,122.99L352.53,146.14L352.54,161.56L353.22,169.28L353.29,138.42L353.29,138.42L353.29,169.28L353.82,138.42L354.03,161.56L354.06,138.42L354.45,169.28L354.76,161.57L354.84,146.13L355.14,138.42L355.54,161.57L355.55,146.13L355.61,146.13L356.31,161.57L356.32,146.13L356.37,146.13L356.55,122.99L356.85,192.43L357.13,169.28L357.13,146.13L357.2,138.42L357.61,169.28L357.88,161.57L357.89,146.13L358.65,161.57L358.68,146.13L358.68,161.57L359.43,146.13L359.44,146.13L360.1,161.57L360.19,146.13L360.2,146.14L360.24,138.42L360.31,169.28L360.93,161.57L360.95,146.13L361.71,161.57L361.71,161.57L361.72,146.13L362.02,130.7L362.45,177L362.48,146.13L363.17,161.57L363.2,146.13L363.29,146.13L363.74,169.28L363.78,138.42L364.02,161.57L364.07,161.57L364.18,169.28L364.71,138.42L364.83,146.13L364.88,161.57L365.27,169.28L365.63,115.27L365.66,161.57L365.74,122.98L366.02,169.28L366.35,146.13L366.4,169.28L367.01,138.42L367.15,161.57L367.16,161.57L367.2,169.28L367.26,146.13L367.88,161.57L367.89,146.13L368.17,122.98L368.46,169.28L368.64,161.57L368.67,146.13L368.67,161.57L369.42,161.57L369.44,161.57L369.79,169.28L370.04,138.42L370.2,146.13L370.27,161.57L371.01,146.13L371.06,161.57L371.06,146.13L371.79,161.57L371.82,161.57L372.56,138.42L372.57,161.57L372.6,169.28L373.01,138.42L373.31,146.13L373.34,161.57L373.89,169.28L374.06,138.42L374.07,161.57L374.07,169.28L374.61,192.43L374.88,92.13L374.88,200.14L375.03,223.28L375.08,99.85L375.62,161.57L375.65,146.13L375.7,169.28L375.92,107.56L376.39,146.13L376.41,146.13L376.88,192.43L376.89,138.42L377.16,161.57L377.18,146.13L377.42,107.55L377.81,169.28L377.89,146.13L377.94,146.13L378.36,130.7L378.36,177L378.71,161.57L378.72,161.57L378.84,169.28L379.43,146.13L379.44,161.57L379.48,161.57L380.25,146.13L380.25,146.13L380.27,161.57L380.89,169.28L380.91,138.42L381,146.13" style="vector-effect: non-scaling-stroke; fill: none; stroke: rgb(239, 85, 59); stroke-opacity: 1; stroke-width: 2px; opacity: 1;"/></g><g class="points"/><g class="text"/></g><g class="trace scatter tracedf241e" style="stroke-miterlimit: 2; opacity: 1;"><g class="fills"/><g class="errorbars"/><g class="lines"><path class="js-line" d="M0,130.72L0.59,123.01L0.7,146.14L0.7,146.14L0.79,138.43L1.41,130.72L1.57,146.14L1.61,146.14L2.12,146.14L2.12,146.14L2.15,138.43L2.2,146.14L2.82,123.01L2.85,146.14L2.87,146.14L3.06,130.72L3.59,146.14L3.63,146.14L4.67,146.14L4.69,138.43L5.28,146.14L5.29,130.72L5.39,107.59L6.15,146.14L6.15,146.14L6.18,146.14L6.66,146.14L6.72,138.43L7.13,130.72L7.45,146.14L7.45,146.14L7.52,146.14L8.41,146.14L8.41,130.72L8.41,146.14L8.47,123.01L9.15,146.14L9.2,146.14L10.41,146.14L10.41,146.14L10.44,130.72L10.46,146.14L10.91,107.58L11.13,138.43L11.25,146.14L11.81,130.72L11.92,146.14L12.01,146.14L14.65,146.14L14.66,130.72L14.71,123L15.44,146.14L15.44,146.14L15.45,146.14L15.76,123L16.15,146.14L16.21,146.14L16.26,123L16.92,146.14L16.99,146.14L18.31,146.14L18.37,138.43L19.16,146.14L19.16,146.14L19.22,146.14L20.21,146.14L20.3,130.71L20.35,146.14L20.45,115.29L21.02,138.42L21.04,146.14L21.53,138.42L21.78,146.14L21.8,146.14L22.15,146.14L22.15,146.14L22.16,138.42L22.25,130.71L22.25,146.14L22.8,138.42L22.83,146.14L24.85,146.14L24.85,146.14L24.88,115.28L25.66,146.14L25.74,146.14L26.39,130.71L26.44,146.14L26.51,146.14L27.09,138.42L27.24,146.14L27.28,146.14L28.05,122.99L28.05,146.14L29.91,146.14L29.91,146.14L30,115.28L30.02,146.13L30.42,115.27L30.75,146.13L30.76,146.13L30.79,115.27L31.5,146.13L31.52,146.13L31.83,146.13L31.84,107.55L31.84,146.13L31.84,68.96L32.58,146.13L32.61,146.13L32.84,146.13L32.85,138.42L33.3,99.83L33.4,146.13L33.47,115.27L34.22,146.13L34.22,146.13L34.29,146.13L34.53,146.13L34.53,138.42L34.97,122.98L35.3,146.13L35.31,146.13L35.63,146.13L35.63,138.42L35.63,115.27L35.73,146.13L36.37,146.13L36.42,146.13L36.49,115.27L37.07,146.13L37.1,146.13L37.68,146.13L37.72,115.27L38.48,146.13L38.48,146.13L38.5,146.13L38.74,146.13L38.74,130.7L39.32,146.13L39.32,53.53L39.47,138.42L39.48,84.39L40.24,146.13L40.31,146.13L40.51,146.13L40.55,130.69L40.6,122.97L40.7,146.13L41.17,146.13L41.24,146.13L41.94,138.41L41.94,138.41L42.02,146.13L42.41,146.13L42.44,130.7L43.22,146.13L43.23,146.13L43.52,146.13L43.52,146.13L43.57,138.41L43.92,115.26L44.37,146.13L44.37,146.13L44.43,146.13L44.69,146.13L44.72,138.42L44.72,146.13L45.47,138.42L45.53,138.42L46.36,146.13L46.36,146.13L46.43,146.13L46.63,146.13L46.63,146.13L46.67,138.41L47.16,122.98L47.44,146.13L47.44,146.13L47.48,146.13L48.07,146.13L48.09,138.41L48.2,146.13L48.65,122.97L48.79,130.69L48.81,146.13L49.44,115.25L49.56,146.13L49.58,146.13L49.76,146.13L49.77,138.41L49.85,130.69L50.52,146.13L50.57,146.13L50.74,146.13L50.74,146.13L50.77,138.41L50.77,130.69L50.8,146.13L51.5,146.13L51.55,146.13L51.81,146.13L51.82,138.41L52.38,122.98L52.4,146.13L52.42,122.98L53.16,146.13L53.16,138.41L53.18,138.41L53.92,146.13L53.92,138.41L53.94,130.7L54.07,122.98L54.09,146.13L54.65,146.13L54.69,138.41L55.45,146.13L55.46,146.13L56.17,146.13L56.19,138.41L56.19,146.13L56.93,146.13L56.95,146.13L57.69,138.42L57.72,146.13L57.96,146.13L57.96,146.13L57.96,138.42L58.63,146.13L58.65,130.7L58.71,122.98L58.77,146.13L59.25,138.42L59.31,146.13L59.48,122.98L60.07,138.42L60.12,146.13L60.47,146.13L60.59,138.42L61.31,146.13L61.33,138.42L61.38,138.42L61.76,130.7L62.15,146.13L62.2,146.13L62.63,138.42L62.68,146.13L62.72,22.7L63.56,146.14L63.56,146.14L63.62,146.14L63.75,92.13L64.37,146.13L64.38,146.13L64.79,138.42L65.13,146.13L65.14,146.13L65.51,146.14L65.54,122.99L66.31,146.14L66.31,146.14L66.33,146.14L66.61,146.14L66.63,138.42L67.25,122.99L67.38,146.14L67.38,146.14L67.44,146.14L67.63,122.99L67.98,146.14L68.02,146.14L68.38,115.28L68.78,138.42L68.79,138.42L69.65,146.14L69.66,146.14L69.85,146.14L69.85,146.14L69.93,130.71L70.71,146.14L70.74,138.42L71.36,146.14L71.37,115.28L71.64,107.56L72.12,146.14L72.16,146.13L72.23,107.56L72.9,146.13L72.92,146.13L73.17,146.13L73.17,146.13L73.2,138.42L73.2,146.13L73.93,146.13L73.96,146.13L74.57,130.7L74.6,146.13L74.72,146.13L75.6,146.13L75.61,122.99L75.72,115.27L76.36,146.14L76.39,130.71L76.57,115.28L77.17,146.14L77.18,130.71L77.23,146.14L77.51,107.57L77.85,138.42L77.94,146.14L78.35,138.42L78.69,146.14L78.7,146.14L79.43,138.42L79.44,146.14L79.46,146.14L79.52,138.42L80.18,146.14L80.23,146.14L81.6,146.14L81.6,146.14L81.6,138.42L82.35,146.14L82.39,146.14L83.17,138.42L83.18,146.14L83.31,138.42L83.92,146.14L83.94,146.14L85.64,146.14L85.78,122.99L86.49,146.14L86.49,146.14L86.54,122.99L87.41,146.14L87.41,146.14L87.43,146.14L87.66,146.14L87.66,146.14L87.66,122.99L88.41,146.14L88.43,146.14L88.86,146.14L88.89,138.42L89.09,138.42L89.11,146.14L89.46,123L89.86,146.14L89.89,146.14L90.12,146.14L90.12,146.14L90.17,130.71L90.21,146.14L90.66,123L90.87,130.71L90.88,146.14L91.55,130.71L91.63,146.14L91.7,146.14L92.34,146.14L92.34,146.14L92.36,107.58L93.2,146.14L93.2,146.14L93.21,146.14L93.99,146.14L93.99,146.14L93.99,123L94.79,146.14L94.79,146.14L94.8,138.43L94.8,146.14L95.54,146.14L95.63,146.14L95.71,123L96.35,146.14L96.39,146.14L97.4,146.14L97.46,138.43L98.04,146.14L98.06,138.43L98.07,123.01L98.07,146.14L98.16,115.3L98.8,146.14L98.83,146.14L99.29,146.14L99.29,146.14L99.3,138.43L100.06,146.14L100.07,146.14L100.64,146.14L100.67,138.43L101.22,146.14L101.35,138.43L101.36,130.72L102.12,146.14L102.13,146.14L102.41,146.14L102.41,146.14L102.48,138.43L103.21,146.14L103.21,146.14L103.24,138.43L104,146.14L104.04,146.14L104.83,115.3L104.85,138.43L105.01,146.14L105.07,115.3L105.46,146.14L105.53,146.14L105.98,146.14L106.02,138.43L106.23,146.14L106.63,130.72L106.7,146.14L106.78,138.43L106.84,130.72L107.53,146.14L107.53,146.14L107.55,146.14L108.57,146.14L108.57,138.43L108.63,130.72L109.26,146.14L109.28,130.72L109.46,146.14L110.06,130.72L110.12,146.14L110.25,146.14L112.32,146.14L112.32,146.14L112.36,138.43L112.39,130.72L112.4,146.14L113.08,146.14L113.12,138.43L113.93,146.14L113.93,146.14L113.94,146.14L115.23,146.14L115.25,138.43L115.74,146.14L115.74,115.3L115.74,115.3L115.74,99.89L116.52,146.14L116.52,146.14L116.6,146.14L117.02,146.14L117.11,138.43L117.65,115.31L117.81,146.14L117.84,130.72L118.58,146.14L118.58,146.14L118.61,146.14L119.61,146.14L119.61,146.14L119.62,138.43L120.18,130.72L120.38,146.14L120.44,138.43L120.9,115.31L121.03,146.14L121.18,123.02L121.94,146.14L122.01,146.14L122.6,146.14L122.6,146.14L122.62,138.43L122.62,146.14L123.37,146.14L123.38,146.14L123.59,146.14L123.6,107.59L124.38,146.14L124.38,146.14L124.42,146.14L124.61,146.14L124.63,130.72L124.91,115.29L125.37,146.14L125.37,146.14L125.41,146.14L125.66,130.72L126.05,146.14L126.08,146.14L126.42,123L126.83,146.14L126.86,146.14L127.01,146.14L127.09,138.43L127.31,146.14L127.32,115.29L127.8,146.14L127.81,146.14L129.07,146.14L129.08,138.43L129.32,130.72L129.89,146.14L129.91,146.14L130.16,146.14L130.17,123.01L130.92,146.14L130.92,146.14L130.95,146.14L131.43,146.14L131.48,138.43L131.65,115.29L132.22,146.14L132.22,146.14L132.29,146.14L132.63,146.14L132.71,138.43L132.86,138.43L132.86,138.43L132.93,146.14L134.26,146.14L134.31,138.42L135.07,146.14L135.07,146.14L135.11,146.14L135.37,123L135.48,138.42L135.61,146.14L136,130.71L136.36,146.14L136.37,146.14L136.79,146.14L136.81,138.42L136.88,146.14L137.18,130.71L137.53,146.14L137.55,146.14L137.71,146.14L137.75,138.42L138.51,146.14L138.54,146.14L138.72,146.14L138.81,138.42L139.54,146.14L139.54,146.14L139.6,146.14L139.7,138.42L140.34,146.14L140.39,146.14L140.79,138.42L141.13,146.14L141.15,146.14L141.59,138.42L141.86,146.14L141.91,146.14L142.51,146.14L142.52,138.42L143.3,146.14L143.3,138.42L144.09,146.14L144.11,146.14L144.98,146.14L145.02,138.42L145.6,130.71L145.74,146.14L145.75,123L146.54,146.14L146.56,146.14L147.17,146.14L147.2,138.42L147.2,146.14L147.93,146.14L147.99,146.14L148.2,146.14L148.2,146.14L148.22,138.42L148.98,146.14L148.98,146.14L148.99,146.14L149.18,146.14L149.21,138.42L150.01,146.14L150.01,138.42L150.01,146.14L150.01,130.71L150.74,146.14L150.77,146.14L151.49,138.42L151.51,146.14L151.53,146.14L151.78,138.42L152.28,146.14L152.29,146.14L152.84,138.42L153.03,146.14L153.05,146.14L153.48,138.42L153.8,146.14L153.81,146.14L154.77,146.14L154.78,130.71L155.53,146.14L155.55,146.14L156.02,146.14L156.02,138.42L156.75,146.14L156.75,146.14L156.83,146.14L157.51,138.42L157.54,146.14L157.62,146.14L157.82,130.71L158.35,146.14L158.43,146.14L159.17,138.42L159.17,138.42L159.25,146.14L159.82,146.14L159.84,138.42L160.1,122.99L160.52,146.14L160.53,122.99L161.28,146.14L161.31,146.14L162.06,138.42L162.06,138.42L162.08,146.14L162.36,130.7L162.79,146.13L162.84,146.13L163.35,146.13L163.35,130.7L164.12,146.13L164.16,146.13L164.28,130.7L164.87,146.13L164.93,146.13L164.95,130.7L165.67,146.13L165.69,146.13L167.41,146.13L167.41,146.13L167.42,138.42L167.94,115.27L168.19,146.13L168.19,146.13L168.2,146.13L168.43,130.7L168.91,138.42L168.93,146.13L169.61,138.42L169.67,146.13L169.71,146.13L170.07,146.13L170.14,138.42L170.35,138.42L170.35,138.42L170.36,146.13L170.59,146.13L170.6,138.42L170.6,146.13L171.35,146.13L171.36,138.42L172.12,146.13L172.12,146.13L172.18,146.13L172.69,138.42L172.93,146.13L172.95,146.13L173.27,146.13L173.28,138.42L173.34,130.71L173.36,146.14L173.97,146.13L174.06,146.13L174.48,146.13L174.48,146.13L174.5,138.42L175.25,146.13L175.25,146.13L175.27,138.42L175.33,130.7L175.35,146.13L175.95,146.13L175.99,146.13L176.45,138.42L176.74,146.13L176.75,146.13L177.15,146.13L177.15,146.13L177.19,122.98L178,146.13L178,146.13L178.04,146.13L178.17,138.42L178.79,146.13L178.82,146.13L179.16,146.13L179.2,138.42L180.05,146.13L180.07,146.13L180.57,146.13L180.57,146.13L180.6,138.42L181.35,146.13L181.43,146.13L181.81,107.54L182.12,146.13L182.2,146.13L182.84,146.13L182.86,138.42L183.66,146.13L183.67,146.13L183.9,146.13L183.91,138.42L184.78,146.13L184.81,146.13L185.37,146.13L185.37,138.42L186.1,146.13L186.16,146.13L186.34,146.13L186.34,146.13L186.36,138.42L186.36,146.13L186.42,122.98L187.09,146.13L187.14,146.13L187.61,130.7L187.84,146.13L187.91,146.13L188.1,130.7L188.63,146.13L188.67,146.13L189.17,122.99L189.43,138.42L189.46,146.13L189.76,146.13L189.76,146.13L189.85,138.42L190.62,146.13L190.62,146.13L190.63,138.42L190.63,146.13L191.38,146.13L191.39,146.13L193.28,146.13L193.28,130.7L194.05,146.13L194.05,146.13L194.08,122.99L194.88,146.13L194.88,146.13L194.91,146.13L195.3,146.13L195.3,146.13L195.3,138.42L196.12,146.13L196.15,146.13L196.36,146.13L196.36,146.13L196.38,138.42L196.68,122.99L197.14,146.14L197.15,138.42L197.44,146.14L197.57,115.28L197.85,146.14L197.88,146.14L198.11,138.42L198.6,146.14L198.69,146.14L199.09,122.99L199.52,130.71L199.53,146.14L199.89,138.42L200.28,146.14L200.38,146.14L200.83,146.14L200.85,138.42L201.36,130.71L201.56,146.14L201.56,130.71L201.56,146.14L202.23,130.71L202.32,138.42L203.07,146.14L203.07,146.14L203.1,146.14L203.64,146.14L203.65,122.99L204.43,146.14L204.43,146.14L204.45,146.14L204.9,146.14L204.9,138.42L204.9,146.14L204.98,122.99L205.6,146.14L205.66,146.14L205.98,146.14L205.98,146.14L205.99,130.71L205.99,146.14L206.65,146.14L206.76,146.14L207.37,146.14L207.37,146.14L207.38,138.42L207.38,146.14L207.95,122.99L208.08,146.14L208.18,138.42L208.89,146.14L208.89,146.14L208.96,146.14L209.68,138.42L209.71,146.14L209.76,138.42L209.92,138.42L210.01,146.14L210.67,146.14L210.67,146.14L210.71,138.42L211.03,115.28L211.46,146.14L211.52,130.71L212.37,146.14L212.37,146.14L212.38,146.14L213.08,107.57L213.13,146.14L213.16,146.14L213.57,123L213.9,146.14L213.93,146.14L214.69,115.29L214.72,146.14L214.77,130.72L215.46,146.14L215.49,146.14L215.74,146.14L215.74,146.14L215.74,138.43L216.48,146.14L216.53,146.14L217.33,146.14L217.34,138.43L218.22,146.14L218.22,146.14L218.23,146.14L218.63,146.14L218.63,146.14L218.65,138.43L219.45,146.14L219.46,146.14L220.34,146.14L220.34,146.14L220.38,138.43L220.38,146.14L221.09,146.14L221.14,146.14L221.8,146.14L221.8,138.43L222.53,146.14L222.58,146.14L222.93,146.14L222.93,146.14L222.95,130.71L223.72,146.14L223.76,146.14L223.9,138.43L224.51,146.14L224.56,146.14L224.95,138.43L225.31,146.14L225.32,146.14L225.65,146.14L225.65,146.14L225.65,130.71L226.47,146.14L226.48,146.14L227.93,146.14L228,138.42L228.13,146.14L228.42,130.71L228.68,146.14L228.71,146.14L228.91,146.14L228.97,138.42L229.5,130.71L229.64,146.14L229.64,146.14L229.64,130.71L230.4,146.14L230.47,146.14L231.55,146.14L231.55,122.99L231.58,115.28L231.66,146.14L232.3,146.14L232.31,146.14L232.56,146.14L232.56,138.42L232.95,146.14L233.32,146.13L233.33,138.42L233.62,115.27L234,146.13L234,146.13L234.08,122.99L234.89,146.13L234.94,146.13L235.73,130.7L235.73,130.7L235.84,146.13L237.49,146.13L237.53,122.99L238.05,146.14L238.07,115.28L238.84,146.14L238.85,146.14L239.1,138.42L239.57,146.14L239.61,146.14L240.02,146.14L240.02,138.42L240.87,146.14L240.87,146.14L240.87,138.42L241.64,146.14L241.67,146.14L243.25,146.14L243.3,130.71L243.33,115.27L243.34,146.13L244.04,146.13L244.14,146.13L244.38,146.13L244.39,115.27L244.49,115.26L245.11,146.13L245.15,130.7L245.93,146.13L245.96,146.13L246.32,146.13L246.32,146.13L246.32,138.41L246.39,130.7L247.06,146.13L247.06,138.42L247.11,146.13L247.23,138.42L247.86,146.13L247.87,146.13L249.13,146.13L249.15,138.42L249.15,146.13L249.9,146.13L249.92,146.13L250.41,146.13L250.44,130.7L250.68,122.98L251.19,146.13L251.19,146.13L251.24,146.13L251.97,138.42L251.98,146.13L252,146.13L253.61,146.13L253.62,138.42L254.42,146.13L254.42,146.13L254.42,138.42L255.02,138.41L255.19,146.13L255.23,146.13L255.28,138.42L255.95,146.13L256,146.13L256.39,146.13L256.43,122.98L257.13,146.13L257.13,146.13L257.24,146.13L257.5,146.13L257.5,146.13L257.56,138.42L257.82,122.98L258.34,146.13L258.34,146.13L258.37,146.13L259.12,130.7L259.19,146.13L259.57,130.7L259.83,146.13L260.04,146.13L260.21,146.13L260.3,130.7L261.15,146.13L261.15,146.13L261.16,146.13L261.32,146.13L261.35,130.7L262.12,146.13L262.13,146.13L262.58,138.42L262.88,146.13L262.91,146.13L263.18,138.42L263.66,146.13L263.67,146.13L264.4,138.42L264.4,138.42L264.43,146.13L264.51,115.27L265.18,138.42L265.25,146.13L265.46,138.42L265.94,146.13L266.01,146.13L266.2,146.13L266.2,146.13L266.2,130.7L266.9,146.13L267,146.13L267.6,138.42L267.75,146.13L267.76,146.13L270.12,146.13L270.13,115.26L270.84,146.13L270.91,146.13L271.11,115.26L271.63,146.13L271.68,138.41L272.42,146.13L272.45,146.13L272.71,146.13L272.71,138.41L272.71,122.98L272.71,146.13L273.45,146.13L273.52,146.13L273.83,146.13L273.84,138.41L274.59,146.13L274.64,146.13L275.06,146.13L275.09,122.97L275.81,146.13L275.81,130.69L275.88,130.69L276.01,122.97L276.61,146.13L276.61,146.13L276.65,146.13L276.88,146.13L276.88,146.13L276.92,138.41L277.69,146.13L277.7,138.41L277.99,92.1L278.47,146.13L278.53,138.41L279.09,115.25L279.29,146.13L279.32,146.13L280.81,146.13L280.81,146.13L280.83,138.41L281.57,146.13L281.57,146.13L281.62,146.13L282.62,146.13L282.65,138.41L283.44,146.13L283.44,146.13L283.49,115.25L284.25,146.13L284.25,146.13L284.3,146.13L284.57,115.24L284.73,130.69L284.85,146.13L285.18,115.25L285.58,146.13L285.6,146.13L285.6,138.41L286.33,146.13L286.37,146.13L287.86,146.13L287.86,138.41L288.16,122.97L288.51,146.13L288.53,138.41L288.56,122.97L289.31,146.13L289.36,146.13L289.81,146.13L289.83,138.41L290.21,122.98L290.44,146.13L290.58,138.41L290.61,138.41L290.98,130.7L291.41,146.13L291.42,146.13L291.49,130.7L292.17,146.13L292.19,146.13L293.05,146.13L293.05,146.13L293.05,138.41L293.9,146.13L293.9,146.13L293.92,130.7L294.72,146.13L294.76,146.13L295.46,138.41L295.51,146.13L295.54,146.13L296.25,146.13L296.25,146.13L296.26,138.41L296.61,130.7L296.96,146.13L296.98,138.42L296.99,130.7L297.41,122.98L297.82,146.13L297.82,146.13L297.84,146.13L298.22,146.13L298.22,138.42L299.02,146.13L299.02,146.13L299.06,146.13L299.23,146.13L299.23,146.13L299.24,138.42L299.28,130.7L300.02,146.13L300.02,146.13L300.05,146.13L300.36,130.7L300.73,146.13L300.78,146.13L301.16,146.13L301.16,146.13L301.19,138.42L301.93,146.13L301.99,146.13L302.65,146.13L302.67,122.98L303.44,146.13L303.5,146.13L303.65,122.98L304.1,146.13L304.13,146.13L304.22,138.42L304.88,146.13L304.9,146.13L305.28,146.13L305.3,138.42L306.06,146.13L306.07,146.13L306.3,146.13L306.3,146.13L306.3,138.42L306.96,146.13L306.96,146.13L307.13,146.13L308.01,146.13L308.01,146.13L308.02,138.42L308.77,146.13L308.8,138.42L309.55,146.13L309.56,138.42L310.37,146.13L310.37,146.13L310.39,146.13L311.77,146.13L311.79,138.42L312.57,146.13L312.61,146.13L313.35,146.13L313.35,146.13L313.36,138.42L314.11,146.13L314.11,146.13L314.15,146.13L314.59,146.13L314.6,138.42L314.71,122.99L315.37,146.13L315.37,146.13L315.43,146.13L315.63,146.13L315.65,138.42L315.74,130.7L316.44,146.13L316.44,146.13L316.45,138.42L316.45,146.13L316.71,130.7L317.19,146.13L317.22,146.13L317.22,138.42L317.96,146.13L318,146.13L318.31,138.42L318.73,146.13L318.76,146.13L319.31,146.13L319.34,138.42L319.36,115.27L319.59,146.13L320.04,146.13L320.09,146.13L320.41,146.13L320.42,122.99L321.14,146.13L321.16,138.42L321.24,146.13L321.5,146.13L321.51,138.42L321.51,146.13L322.26,146.13L322.27,146.13L322.46,146.13L322.48,138.42L322.9,130.7L323.21,146.13L323.26,146.13L325.28,146.13L325.28,146.13L325.29,138.42L326.1,146.13L326.1,146.13L326.11,138.42L326.17,130.7L326.86,146.13L326.86,146.13L326.91,146.13L327.21,130.7L327.64,146.13L327.68,146.13L327.71,107.56L328.42,146.13L328.44,138.42L328.51,115.27L329.05,146.13L329.19,138.42L329.26,138.42L329.29,146.13L329.6,130.7L329.91,146.13L330.01,146.13L330.24,146.13L330.24,138.42L330.37,130.7L331,146.13L331,146.13L331.04,146.13L331.5,146.13L331.5,146.13L331.51,138.42L332.31,146.13L332.33,146.13L333.34,146.13L333.4,138.42L333.4,146.13L333.67,130.7L334.11,138.42L334.2,138.42L334.49,122.99L334.95,146.13L334.95,146.13L335.01,146.13L335.32,146.13L335.38,138.42L336.15,146.13L336.15,146.13L336.23,146.13L336.57,146.13L336.57,146.13L336.57,122.99L337.42,146.13L337.42,146.13L337.5,146.13L338.27,130.7L338.28,138.42L338.29,146.14L338.36,115.28L339.02,146.14L339.07,146.14L339.07,138.42L339.8,146.14L339.83,146.14L341.07,146.14L341.09,138.42L341.09,146.14L341.51,122.99L341.84,146.13L341.85,122.99L342.6,146.13L342.62,146.13L343.04,115.27L343.37,146.13L343.38,146.13L343.54,146.13L343.55,138.42L344.33,146.13L344.33,146.13L344.4,146.13L344.64,146.13L344.64,146.13L344.64,138.42L345.38,146.13L345.39,138.42L345.41,146.13L346.2,138.42L346.22,146.13L346.68,146.13L346.69,115.28L347.44,146.14L347.47,146.14L347.94,146.14L347.94,146.14L348.01,138.42L348.03,146.14L348.76,146.14L348.79,146.14L349.39,146.14L349.39,146.14L349.4,122.99L350.13,146.14L350.13,146.14L350.18,146.14L350.43,146.14L350.44,130.71L350.99,99.85L351.2,146.14L351.22,146.14L351.41,146.14L351.41,138.42L351.43,115.28L352.16,146.14L352.2,146.14L352.4,138.42L352.95,146.14L352.96,146.14L353.3,138.42L353.69,146.14L353.75,146.14L354.45,138.42L354.49,146.14L354.51,146.14L354.69,146.13L354.71,138.42L354.71,146.13L355.44,146.13L355.48,146.13L356.49,146.13L356.49,146.13L356.53,122.99L356.85,115.27L357.35,146.13L357.35,146.13L357.38,138.42L358.13,146.13L358.13,146.13L358.17,146.13L360.23,146.14L360.24,138.42L361.1,146.13L361.1,146.13L361.11,146.13L361.98,146.13L362.02,130.7L362.76,146.13L362.8,146.13L363.72,146.13L363.72,146.13L363.74,138.42L364.52,146.13L364.52,146.13L364.55,146.13L365.35,138.42L365.37,146.13L365.63,115.27L366.06,146.13L366.1,146.13L366.72,138.42L366.84,146.13L366.86,146.13L367.2,138.42L367.61,146.13L367.62,146.13L368.15,146.13L368.17,122.98L368.99,146.13L369.07,146.13L369.77,146.13L369.77,146.13L369.78,138.42L370.52,146.13L370.55,146.13L372.55,146.13L372.56,138.42L373.31,146.13L373.31,146.13L373.34,146.13L373.89,146.13L373.89,146.13L373.89,138.42L374.52,146.13L374.53,138.42L374.61,115.27L375.03,84.42L375.3,146.14L375.34,122.99L375.4,84.42L375.86,146.14L376.13,146.13L376.22,146.13L376.87,146.13L376.87,146.13L376.88,115.27L376.91,146.13L377.42,107.55L377.62,138.42L377.64,138.42L377.98,130.7L378.34,146.13L378.36,130.7L378.66,146.14L379.11,138.42L379.15,138.42L379.9,146.13L379.94,146.13L380.87,146.13L380.89,138.42L381,146.13L381,146.13" style="vector-effect: non-scaling-stroke; fill: none; stroke: rgb(0, 204, 150); stroke-opacity: 1; stroke-width: 2px; opacity: 1;"/></g><g class="points"/><g class="text"/></g></g></g><g class="overplot"/><path class="xlines-above crisp" d="M0,0" style="fill: none;"/><path class="ylines-above crisp" d="M0,0" style="fill: none;"/><g class="overlines-above"/><g class="xaxislayer-above"><g class="xtick"><text text-anchor="start" x="0" y="416" transform="translate(220.93,0) rotate(30,0,408.5)" style="font-family: 'Times New Roman'; font-size: 15px; fill: rgb(13, 13, 13); fill-opacity: 1; white-space: pre; opacity: 1;">1.6125210<tspan style="font-size:70%" dy="-0.6em">18</tspan><tspan dy="0.42em"></tspan></text></g><g class="xtick"><text text-anchor="start" x="0" y="416" style="font-family: 'Times New Roman'; font-size: 15px; fill: rgb(13, 13, 13); fill-opacity: 1; white-space: pre; opacity: 1;" transform="translate(296.68,0) rotate(30,0,408.5)">1.61252510<tspan style="font-size:70%" dy="-0.6em">18</tspan><tspan dy="0.42em"></tspan></text></g><g class="xtick"><text text-anchor="start" x="0" y="416" style="font-family: 'Times New Roman'; font-size: 15px; fill: rgb(13, 13, 13); fill-opacity: 1; white-space: pre; opacity: 1;" transform="translate(372.43,0) rotate(30,0,408.5)">1.6125310<tspan style="font-size:70%" dy="-0.6em">18</tspan><tspan dy="0.42em"></tspan></text></g><g class="xtick"><text text-anchor="start" x="0" y="416" style="font-family: 'Times New Roman'; font-size: 15px; fill: rgb(13, 13, 13); fill-opacity: 1; white-space: pre; opacity: 1;" transform="translate(448.18,0) rotate(30,0,408.5)">1.61253510<tspan style="font-size:70%" dy="-0.6em">18</tspan><tspan dy="0.42em"></tspan></text></g><g class="xtick"><text text-anchor="start" x="0" y="416" style="font-family: 'Times New Roman'; font-size: 15px; fill: rgb(13, 13, 13); fill-opacity: 1; white-space: pre; opacity: 1;" transform="translate(523.9300000000001,0) rotate(30,0,408.5)">1.6125410<tspan style="font-size:70%" dy="-0.6em">18</tspan><tspan dy="0.42em"></tspan></text></g></g><g class="yaxislayer-above"><g class="ytick"><text text-anchor="end" x="154" y="12.25" transform="translate(0,369.52)" style="font-family: 'Times New Roman'; font-size: 35px; fill: rgb(13, 13, 13); fill-opacity: 1; white-space: pre; opacity: 1;">0.015</text></g><g class="ytick"><text text-anchor="end" x="154" y="12.25" style="font-family: 'Times New Roman'; font-size: 35px; fill: rgb(13, 13, 13); fill-opacity: 1; white-space: pre; opacity: 1;" transform="translate(0,330.96000000000004)">0.01</text></g><g class="ytick"><text text-anchor="end" x="154" y="12.25" style="font-family: 'Times New Roman'; font-size: 35px; fill: rgb(13, 13, 13); fill-opacity: 1; white-space: pre; opacity: 1;" transform="translate(0,292.40999999999997)">0.005</text></g><g class="ytick"><text text-anchor="end" x="154" y="12.25" style="font-family: 'Times New Roman'; font-size: 35px; fill: rgb(13, 13, 13); fill-opacity: 1; white-space: pre; opacity: 1;" transform="translate(0,253.85)">0</text></g><g class="ytick"><text text-anchor="end" x="154" y="12.25" style="font-family: 'Times New Roman'; font-size: 35px; fill: rgb(13, 13, 13); fill-opacity: 1; white-space: pre; opacity: 1;" transform="translate(0,215.29000000000002)">0.005</text></g><g class="ytick"><text text-anchor="end" x="154" y="12.25" style="font-family: 'Times New Roman'; font-size: 35px; fill: rgb(13, 13, 13); fill-opacity: 1; white-space: pre; opacity: 1;" transform="translate(0,176.74)">0.01</text></g><g class="ytick"><text text-anchor="end" x="154" y="12.25" style="font-family: 'Times New Roman'; font-size: 35px; fill: rgb(13, 13, 13); fill-opacity: 1; white-space: pre; opacity: 1;" transform="translate(0,138.18)">0.015</text></g></g><g class="overaxes-above"/></g></g><g class="polarlayer"/><g class="smithlayer"/><g class="ternarylayer"/><g class="geolayer"/><g class="funnelarealayer"/><g class="pielayer"/><g class="iciclelayer"/><g class="treemaplayer"/><g class="sunburstlayer"/><g class="glimages"/><defs id="topdefs-3dd026"><g class="clips"/><clipPath id="legend3dd026"><rect width="144" height="67" x="0" y="0"/></clipPath></defs><g class="layer-above"><g class="imagelayer"/><g class="shapelayer"/></g><g class="infolayer"><g class="legend" pointer-events="all" transform="translate(543.62,100)"><rect class="bg" shape-rendering="crispEdges" style="stroke: rgb(68, 68, 68); stroke-opacity: 1; fill: rgb(255, 255, 255); fill-opacity: 1; stroke-width: 0px;" width="144" height="67" x="0" y="0"/><g class="scrollbox" transform="" clip-path="url(#legend3dd026)"><g class="groups"><g class="traces" transform="translate(0,14.5)" style="opacity: 1;"><text class="legendtext" text-anchor="start" x="40" y="4.680000000000001" style="font-family: 'Open Sans', verdana, arial, sans-serif; font-size: 12px; fill: rgb(42, 63, 95); fill-opacity: 1; white-space: pre;">Realized (in %)</text><g class="layers" style="opacity: 1;"><g class="legendfill"/><g class="legendlines"><path class="js-line" d="M5,0h30" style="fill: none; stroke: rgb(99, 110, 250); stroke-opacity: 1; stroke-width: 2px;"/></g><g class="legendsymbols"><g class="legendpoints"/></g></g><rect class="legendtoggle" x="0" y="-9.5" width="138.71875" height="19" style="fill: rgb(0, 0, 0); fill-opacity: 0;"/></g><g class="traces" transform="translate(0,33.5)" style="opacity: 1;"><text class="legendtext" text-anchor="start" x="40" y="4.680000000000001" style="font-family: 'Open Sans', verdana, arial, sans-serif; font-size: 12px; fill: rgb(42, 63, 95); fill-opacity: 1; white-space: pre;">Effective (in %)</text><g class="layers" style="opacity: 1;"><g class="legendfill"/><g class="legendlines"><path class="js-line" d="M5,0h30" style="fill: none; stroke: rgb(239, 85, 59); stroke-opacity: 1; stroke-width: 2px;"/></g><g class="legendsymbols"><g class="legendpoints"/></g></g><rect class="legendtoggle" x="0" y="-9.5" width="138.71875" height="19" style="fill: rgb(0, 0, 0); fill-opacity: 0;"/></g><g class="traces" transform="translate(0,52.5)" style="opacity: 1;"><text class="legendtext" text-anchor="start" x="40" y="4.680000000000001" style="font-family: 'Open Sans', verdana, arial, sans-serif; font-size: 12px; fill: rgb(42, 63, 95); fill-opacity: 1; white-space: pre;">Half Quoted (in %)</text><g class="layers" style="opacity: 1;"><g class="legendfill"/><g class="legendlines"><path class="js-line" d="M5,0h30" style="fill: none; stroke: rgb(0, 204, 150); stroke-opacity: 1; stroke-width: 2px;"/></g><g class="legendsymbols"><g class="legendpoints"/></g></g><rect class="legendtoggle" x="0" y="-9.5" width="138.71875" height="19" style="fill: rgb(0, 0, 0); fill-opacity: 0;"/></g></g></g><rect class="scrollbar" rx="20" ry="3" width="0" height="0" style="fill: rgb(128, 139, 164); fill-opacity: 1;" x="0" y="0"/></g><g class="g-gtitle"/><g class="g-xtitle"><text class="xtitle" x="345.5" y="487.503125" text-anchor="middle" style="font-family: 'Open Sans', verdana, arial, sans-serif; font-size: 14px; fill: rgb(42, 63, 95); opacity: 1; font-weight: normal; white-space: pre;">Time Steps (ns)</text></g><g class="g-ytitle" transform="translate(23.5,0)"><text class="ytitle" transform="rotate(-90,12.5,250)" x="12.5" y="250" text-anchor="middle" style="font-family: 'Times New Roman'; font-size: 40px; fill: rgb(13, 13, 13); opacity: 1; font-weight: normal; white-space: pre;">Spreads (in %)</text></g></g></svg>