<svg class="main-svg" xmlns="http://www.w3.org/2000/svg" xmlns:xlink="http://www.w3.org/1999/xlink" width="700" height="500" style="" viewBox="0 0 700 500"><rect x="0" y="0" width="700" height="500" style="fill: rgb(255, 255, 255); fill-opacity: 1;"/><defs id="defs-ffc08b"><g class="clips"><clipPath id="clipffc08bxyplot" class="plotclip"><rect width="399" height="300"/></clipPath><clipPath class="axesclip" id="clipffc08bx"><rect x="137" y="0" width="399" height="500"/></clipPath><clipPath class="axesclip" id="clipffc08by"><rect x="0" y="100" width="700" height="300"/></clipPath><clipPath class="axesclip" id="clipffc08bxy"><rect x="137" y="100" width="399" height="300"/></clipPath></g><g class="gradients"/><g class="patterns"/></defs><g class="bglayer"><rect class="bg" x="137" y="100" width="399" height="300" style="fill: rgb(229, 236, 246); fill-opacity: 1; stroke-width: 0;"/></g><g class="layer-below"><g class="imagelayer"/><g class="shapelayer"/></g><g class="cartesianlayer"><g class="subplot xy"><g class="layer-subplot"><g class="shapelayer"/><g class="imagelayer"/></g><g class="minor-gridlayer"><g class="x"/><g class="y"/></g><g class="gridlayer"><g class="x"><path class="xgrid crisp" transform="translate(206.62,0)" d="M0,100v300" style="stroke: rgb(255, 255, 255); stroke-opacity: 1; stroke-width: 1px;"/><path class="xgrid crisp" transform="translate(285.8,0)" d="M0,100v300" style="stroke: rgb(255, 255, 255); stroke-opacity: 1; stroke-width: 1px;"/><path class="xgrid crisp" transform="translate(364.98,0)" d="M0,100v300" style="stroke: rgb(255, 255, 255); stroke-opacity: 1; stroke-width: 1px;"/><path class="xgrid crisp" transform="translate(444.16,0)" d="M0,100v300" style="stroke: rgb(255, 255, 255); stroke-opacity: 1; stroke-width: 1px;"/><path class="xgrid crisp" transform="translate(523.3399999999999,0)" d="M0,100v300" style="stroke: rgb(255, 255, 255); stroke-opacity: 1; stroke-width: 1px;"/></g><g class="y"><path class="ygrid crisp" transform="translate(0,384.71)" d="M137,0h399" style="stroke: rgb(255, 255, 255); stroke-opacity: 1; stroke-width: 1px;"/><path class="ygrid crisp" transform="translate(0,317.36)" d="M137,0h399" style="stroke: rgb(255, 255, 255); stroke-opacity: 1; stroke-width: 1px;"/><path class="ygrid crisp" transform="translate(0,182.64)" d="M137,0h399" style="stroke: rgb(255, 255, 255); stroke-opacity: 1; stroke-width: 1px;"/><path class="ygrid crisp" transform="translate(0,115.28999999999999)" d="M137,0h399" style="stroke: rgb(255, 255, 255); stroke-opacity: 1; stroke-width: 1px;"/></g></g><g class="zerolinelayer"><path class="yzl zl crisp" transform="translate(0,250)" d="M137,0h399" style="stroke: rgb(255, 255, 255); stroke-opacity: 1; stroke-width: 2px;"/></g><path class="xlines-below"/><path class="ylines-below"/><g class="overlines-below"/><g class="xaxislayer-below"/><g class="yaxislayer-below"/><g class="overaxes-below"/><g class="plot" transform="translate(137,100)" clip-path="url(#clipffc08bxyplot)"><g class="scatterlayer mlayer"><g class="trace scatter trace5169bf" style="stroke-miterlimit: 2; opacity: 1;"><g class="fills"/><g class="errorbars"/><g class="lines"><path class="js-line" d="M0,89.38L0.07,75.91L0.2,156.74L0.36,143.27L0.36,176.94L0.58,190.41L0.75,136.53L1.12,143.27L1.15,156.73L1.89,143.27L1.89,143.27L1.92,156.73L2.41,136.53L2.66,143.27L2.72,143.27L3.45,156.73L3.45,156.73L3.48,143.27L4.03,129.8L4.05,170.21L4.23,156.74L4.23,143.26L4.36,170.21L4.49,136.53L5,150L5.05,156.74L5.82,143.26L5.82,143.26L5.83,156.74L5.83,143.26L5.98,163.47L6.56,150L6.63,156.73L6.77,163.47L7.13,143.27L7.29,150L7.35,156.73L7.43,163.47L7.54,129.8L8.02,143.27L8.13,150L8.63,170.2L8.65,123.06L8.72,143.27L8.82,170.2L9.33,136.53L9.59,143.27L9.64,143.27L10.08,163.47L10.37,156.73L10.41,143.27L10.86,136.53L11.13,156.73L11.13,150L11.18,156.73L11.91,143.27L11.99,156.73L12.67,123.06L12.7,183.67L13.52,143.27L13.53,150L13.54,150L13.57,143.27L14.24,156.73L14.29,150L14.3,150L14.59,136.53L14.72,170.2L14.84,150L14.87,129.8L14.95,123.07L15.1,170.2L15.58,143.27L15.63,143.27L16,129.8L16.46,176.93L16.51,156.73L16.51,143.27L16.66,163.46L17.31,156.73L17.31,143.27L17.6,163.46L17.67,129.8L17.93,150L18.07,143.27L18.63,163.46L18.66,136.54L18.82,143.27L18.84,143.27L19.62,156.73L19.63,143.27L20.37,156.73L20.38,150L20.46,143.27L21.22,156.73L21.23,143.27L21.98,156.73L21.98,156.73L22.08,143.27L22.08,156.73L22.82,156.73L22.86,143.27L23.63,156.73L23.66,143.27L23.85,183.66L24.38,156.73L24.46,156.73L24.7,176.93L24.8,136.53L25.18,156.73L25.26,156.73L25.7,136.53L25.72,163.47L26.01,156.73L26.02,156.73L26.61,163.47L26.7,136.53L26.7,163.47L26.88,156.73L26.88,143.27L27.2,163.47L27.61,156.73L27.65,143.27L27.78,163.47L27.85,129.8L28.4,156.73L28.42,143.27L28.46,163.47L29.13,143.27L29.22,156.73L29.91,163.47L29.92,136.53L29.96,150L30.01,156.73L30.35,163.47L30.56,136.53L30.76,143.27L30.76,156.73L30.98,163.47L31.5,143.27L31.54,143.27L32.2,136.53L32.25,156.73L32.29,150L32.32,143.27L32.94,136.53L33,163.47L33.05,156.73L33.07,143.27L33.51,136.53L33.64,163.47L33.84,156.73L33.86,150L34.43,129.8L34.51,170.2L34.61,156.73L34.63,143.27L35.24,129.8L35.27,163.47L35.33,156.73L35.4,143.27L35.4,163.47L35.4,129.8L36.15,150L36.18,143.27L36.88,156.73L36.91,143.27L36.94,143.27L37.13,156.73L37.27,136.53L37.69,136.53L37.71,143.27L37.81,129.8L37.83,170.2L38.33,150L38.34,163.47L38.34,143.27L39.09,143.27L39.11,156.73L39.24,163.47L39.53,136.53L39.86,143.27L39.89,150L39.91,143.27L40.11,163.47L40.6,143.27L40.69,143.27L40.69,136.53L40.81,156.73L41.44,143.27L41.47,143.27L41.52,170.2L41.72,123.06L42.21,150L42.24,150L42.59,163.47L42.75,136.53L42.94,156.74L42.99,156.74L42.99,143.26L43.73,143.26L43.75,143.26L44.45,136.53L44.49,156.74L44.5,143.26L44.52,143.26L44.71,170.21L44.72,129.79L45.29,156.74L45.3,156.74L45.92,129.79L46.01,156.74L46.06,156.74L46.82,143.26L46.82,143.26L46.83,156.74L46.83,129.8L46.83,170.2L47.58,156.73L47.63,136.53L47.63,163.47L48.37,143.27L48.39,143.27L48.92,136.53L48.99,163.47L49.14,143.27L49.16,143.27L49.16,136.53L49.38,163.47L49.87,156.73L49.92,143.27L50.26,129.8L50.26,163.47L50.66,143.27L50.68,143.27L50.7,163.47L51.34,123.06L51.42,143.27L51.45,143.27L51.86,123.06L52.02,163.47L52.14,156.73L52.2,136.53L52.89,163.47L52.93,143.27L52.98,143.27L53.67,156.73L53.71,150L53.77,156.73L53.77,143.27L54.51,156.73L54.53,156.73L55.29,143.27L55.29,143.27L55.3,150L55.49,143.27L55.98,156.73L55.98,156.73L55.99,143.27L56.71,156.73L56.75,150L56.76,143.27L57.52,156.73L57.55,150L57.87,136.53L57.93,163.47L58.18,143.27L58.22,123.07L58.96,190.4L58.96,190.4L59.01,143.27L59.22,136.53L59.54,170.2L59.73,150L59.79,150L60,143.27L60.45,156.73L60.51,150L60.54,143.27L61.2,163.46L61.28,156.73L61.3,150L61.72,163.46L61.95,143.27L61.99,156.73L62.71,143.27L62.75,150L62.79,150L62.84,156.73L63.49,143.27L63.51,150L63.59,156.73L64.05,136.53L64.1,170.2L64.32,163.47L64.36,163.47L64.67,136.53L65.12,143.27L65.12,163.47L65.92,143.27L65.95,156.73L66.1,170.2L66.46,136.53L66.74,143.27L66.77,163.47L66.81,170.2L66.82,143.27L67.37,143.27L67.4,143.27L67.89,136.53L67.95,163.47L68.14,156.73L68.18,156.73L68.31,176.94L68.96,136.53L68.99,143.26L68.99,156.74L69.26,123.06L69.33,176.94L69.78,129.79L69.78,156.74L69.78,129.79L69.78,176.94L70.53,156.74L70.55,150L70.94,129.79L71.04,183.68L71.3,156.74L71.32,143.26L71.45,136.53L71.49,170.21L72.05,156.74L72.08,143.26L72.51,183.69L72.8,143.26L72.8,129.79L72.92,109.58L72.94,190.42L73.55,143.26L73.59,143.26L73.64,136.53L73.65,163.47L74.3,143.26L74.33,150L74.43,156.74L75.04,136.53L75.08,163.47L75.26,176.95L75.49,116.31L75.83,156.74L75.88,156.74L75.92,109.57L75.99,176.95L76.63,143.26L76.64,143.26L77.14,123.05L77.15,183.69L77.39,156.74L77.43,143.26L77.46,136.52L77.49,170.22L78.16,150L78.19,156.74L78.94,136.52L78.94,136.52L78.95,156.74L79.36,136.52L79.73,143.26L79.75,150L79.95,163.48L79.95,136.52L80.5,156.74L80.51,143.26L80.58,136.52L80.6,163.48L81.26,156.74L81.34,150L81.36,156.74L82,136.52L82.1,163.48L82.77,136.52L82.85,143.26L82.87,143.26L82.89,163.48L82.92,136.52L83.56,150L83.64,143.26L84.19,123.05L84.2,163.48L84.4,156.74L84.41,143.26L85.13,156.74L85.13,156.74L85.19,143.26L85.89,156.74L85.93,143.26L85.98,150L86.07,136.52L86.09,163.48L86.72,143.26L86.74,143.26L87.51,156.74L87.51,156.74L87.51,143.26L87.89,123.05L88.02,163.47L88.26,143.26L88.29,143.26L88.52,136.53L89.09,156.74L89.11,143.26L89.64,123.05L89.66,176.95L89.86,143.26L89.87,143.26L90.1,136.53L90.62,163.47L90.64,156.74L90.67,150L90.78,136.53L91.36,163.47L91.39,150L91.4,143.26L91.66,116.32L91.82,170.21L92.15,156.74L92.24,143.26L92.77,176.95L92.86,129.79L92.99,163.47L93.01,136.53L93.79,156.74L93.8,150L94.07,143.26L94.44,156.74L94.51,150L94.51,143.26L94.99,136.53L95.2,163.47L95.25,156.74L95.28,150L95.89,156.74L95.97,123.06L96.06,143.26L96.61,156.74L96.61,156.74L96.63,129.79L96.65,170.21L96.74,123.06L97.36,143.26L97.4,156.74L97.63,170.21L98.02,136.53L98.15,156.73L98.17,156.73L98.5,136.53L98.91,143.27L98.93,143.27L99.23,136.53L99.68,163.47L99.7,150L99.86,156.74L100.46,143.26L100.46,143.26L100.48,150L100.5,143.26L100.54,163.47L101.2,156.73L101.22,156.73L101.5,163.47L101.94,136.53L101.94,136.53L101.97,163.47L102.68,143.27L102.73,156.73L102.74,156.73L102.9,156.73L102.91,143.27L103.44,163.47L103.66,156.73L103.68,156.73L104.05,163.47L104.42,143.27L104.42,143.27L104.45,156.73L104.51,129.8L105.18,150L105.21,150L105.35,136.53L105.4,163.47L105.95,143.27L105.97,150L105.99,143.27L106.23,163.47L106.71,156.73L106.75,156.73L107.42,143.27L107.45,156.73L107.52,156.73L108.28,143.27L108.3,143.27L108.3,156.73L109.05,156.73L109.06,156.73L109.72,143.27L109.72,143.27L109.72,156.73L109.9,170.2L110.41,129.8L110.46,176.93L110.5,136.53L111.23,143.27L111.24,143.27L111.37,136.53L111.54,163.47L111.96,156.73L112.02,143.27L112.77,163.47L112.79,156.73L112.81,150L112.81,143.27L112.85,163.47L113.56,156.73L113.57,156.73L114.21,163.47L114.3,143.27L114.32,150L114.4,156.73L114.84,170.2L115.04,136.53L115.15,156.73L115.17,156.73L115.24,163.47L115.33,136.53L115.89,150L115.95,150L115.97,136.53L116.59,170.2L116.69,156.73L116.72,143.27L117.4,156.73L117.4,156.73L117.42,129.8L117.84,123.07L117.87,183.66L118.16,136.53L118.24,136.53L118.25,163.47L118.99,156.73L119.01,156.73L119.36,136.53L119.51,170.2L119.8,150L119.83,156.73L119.88,143.27L120.58,156.73L120.67,150L120.79,143.27L121.06,163.47L121.38,143.27L121.4,143.27L122.17,156.73L122.2,156.73L122.91,143.27L122.93,156.73L122.96,156.73L123.45,163.47L123.65,136.53L123.73,150L123.74,150L123.88,170.2L123.89,129.8L124.38,156.73L124.41,156.73L125.11,143.27L125.11,150L125.2,156.73L125.95,143.27L125.99,150L125.99,156.73L126.13,183.67L126.2,116.33L126.7,156.73L126.7,170.2L126.74,129.8L127.45,143.27L127.52,143.27L127.54,136.53L128.08,163.47L128.28,156.73L128.29,143.27L128.98,129.8L129.02,176.94L129.06,163.47L129.11,156.73L129.23,170.2L129.58,129.8L129.82,156.73L129.89,170.2L130.02,129.8L130.64,156.73L130.66,143.27L130.77,163.47L131.39,150L131.43,143.27L132.14,156.73L132.16,150L132.2,150L132.22,143.27L132.95,156.73L132.95,156.73L132.96,143.27L133,163.47L133.58,136.53L133.71,143.26L133.72,143.26L134.37,156.74L134.38,150L134.48,143.26L134.72,176.94L134.95,129.79L135.23,136.53L135.24,136.53L135.37,156.74L135.97,143.26L136.01,156.74L136.64,176.94L136.75,136.53L136.88,143.26L137.34,136.53L137.45,163.47L137.66,156.74L137.68,150L137.79,143.26L138.36,156.74L138.39,143.26L138.51,143.26L139.2,156.74L139.22,150L139.27,143.26L139.75,156.74L139.9,143.26L140.08,143.26L140.74,163.47L140.83,156.74L140.86,143.26L141.52,156.74L141.52,143.26L142.27,156.74L142.29,143.26L142.3,156.74L143.03,143.26L143.05,143.26L143.29,129.79L143.56,163.47L143.83,156.74L143.85,143.26L144.1,170.21L144.3,123.05L144.59,156.74L144.62,143.26L144.77,143.26L144.77,156.74L145.52,136.53L145.52,163.47L145.8,129.79L146.27,143.26L146.3,143.26L146.34,156.74L147.01,143.26L147.08,143.26L147.7,156.74L147.77,129.79L148.04,163.48L148.58,156.74L148.58,143.26L148.87,136.52L149.31,156.74L149.33,143.26L149.35,143.26L150.02,136.52L150.03,156.74L150.1,150L150.11,150L150.16,163.47L150.16,136.53L150.8,156.74L150.85,143.26L151.57,156.74L151.58,150L151.64,150L151.76,143.26L152.37,156.74L152.37,156.74L152.39,143.26L153.19,156.74L153.19,156.74L153.22,150L153.42,156.74L153.49,129.79L153.97,150L153.99,143.26L153.99,156.74L154.29,123.05L154.73,136.53L154.75,163.47L155.36,136.53L155.47,156.74L155.51,156.74L155.66,163.47L156.23,136.53L156.26,150L156.36,143.26L156.36,156.74L157.05,116.32L157.11,143.26L157.12,150L157.27,116.32L157.35,156.74L157.37,143.26L157.39,170.21L157.65,136.53L158.15,150L158.16,156.74L158.62,136.53L158.69,170.21L158.92,143.26L158.98,143.26L159.39,170.21L159.44,123.06L159.6,156.74L159.64,129.79L160.47,176.94L160.47,176.94L160.5,123.06L160.52,176.94L161.26,156.74L161.26,143.26L161.43,136.53L161.45,163.47L161.95,150L161.95,136.53L162.47,163.47L162.61,156.74L162.65,143.26L163.37,163.47L163.38,143.26L163.41,136.53L163.42,163.47L164.15,156.74L164.17,156.74L164.79,136.53L164.82,156.74L164.83,170.21L165.36,136.53L165.49,150L165.54,163.47L165.54,143.26L166.24,156.74L166.31,143.26L166.41,163.47L166.72,136.53L167.05,150L167.14,143.26L167.38,163.47L167.41,136.53L167.92,156.74L167.93,156.74L168,163.47L168.57,143.26L168.66,156.74L168.71,156.74L169.47,143.26L169.47,150L169.5,150L169.57,143.26L170.14,156.74L170.22,150L170.3,156.74L170.46,170.21L170.65,123.06L171.04,150L171.1,143.26L171.86,156.74L171.87,150L171.89,143.26L172.1,163.47L172.62,156.74L172.67,143.26L173.13,183.68L173.17,136.53L173.4,143.26L173.47,143.26L173.52,176.95L174.18,143.26L174.21,143.26L174.63,129.79L174.64,163.47L174.96,143.26L174.99,156.74L175.03,163.47L175.59,143.26L175.67,156.74L175.75,156.74L176.17,176.94L176.21,123.06L176.5,150L176.55,156.74L176.57,163.47L177.28,143.26L177.35,156.74L177.5,163.47L178.13,143.26L178.13,143.26L178.16,156.74L178.89,143.26L178.93,156.74L178.99,136.53L179.68,143.26L179.71,150L179.84,143.26L180.39,156.74L180.39,156.74L180.5,150L180.86,143.26L181.12,163.47L181.23,150L181.26,150L181.33,156.74L181.94,123.06L181.99,143.26L182.04,156.74L182.07,170.21L182.35,123.06L182.75,150L182.79,176.94L183.15,116.32L183.54,156.74L183.58,136.53L184.03,129.79L184.29,163.47L184.29,163.47L184.34,136.53L184.96,163.47L185.09,163.47L185.12,156.74L185.17,163.47L185.29,136.53L185.73,150L185.77,143.26L186.32,136.53L186.33,163.47L186.36,136.53L186.89,129.79L187.13,156.74L187.13,156.74L187.17,156.74L187.38,176.94L187.41,123.06L187.92,150L187.95,156.74L188.2,170.21L188.42,136.53L188.67,150L188.73,150L188.96,163.47L189.43,143.27L189.47,156.73L189.49,150L189.67,163.47L189.68,123.06L190.16,143.27L190.21,156.73L190.37,123.06L190.47,163.47L190.84,156.73L190.88,156.73L190.95,129.8L190.97,163.47L191.63,143.27L191.65,156.73L192.4,143.27L192.4,156.73L192.41,156.73L192.81,170.2L193.11,143.27L193.16,163.47L193.56,136.53L193.9,143.27L193.92,156.73L194,170.2L194.09,136.53L194.68,150L194.72,156.73L194.74,163.47L195.29,136.53L195.47,150L195.5,156.73L196.03,176.94L196.2,123.06L196.2,123.06L196.21,176.94L196.95,136.53L197.01,156.73L197.66,129.8L197.66,170.2L198.44,143.27L198.45,150L198.46,150L198.52,143.27L199.2,156.73L199.22,150L199.33,143.27L199.88,156.73L199.88,156.73L199.92,143.27L200.67,156.73L200.69,150L200.69,143.27L201.39,163.47L201.39,163.47L201.46,143.27L202.21,156.73L202.21,143.27L202.24,156.73L202.48,170.21L202.79,129.79L202.99,143.27L203,150L203.14,170.21L203.71,136.53L203.71,136.53L203.77,163.47L204.47,143.26L204.47,156.74L204.48,170.21L205.21,136.53L205.24,150L205.24,176.94L205.64,116.32L205.98,156.74L206.03,150L206.09,170.21L206.17,116.32L206.71,150L206.79,123.05L207.5,176.95L207.52,116.31L207.54,143.26L207.59,150L207.9,129.79L208.18,176.95L208.35,163.47L208.36,163.47L208.41,163.48L208.43,136.52L209.14,143.26L209.15,156.74L209.42,170.21L209.44,116.31L209.89,150L209.92,170.22L210.58,123.04L210.69,129.78L210.72,170.22L210.78,129.78L211.44,150L211.47,156.74L212.15,136.52L212.21,150L212.24,156.74L212.28,136.52L212.96,150L213,150L213,156.74L213.02,143.26L213.75,150L213.76,150L214.25,156.74L214.55,143.26L214.58,150L214.68,143.26L215.16,156.74L215.28,143.26L215.31,143.26L215.54,163.48L215.64,129.78L216.03,150L216.11,136.52L216.78,170.22L216.89,150L216.93,143.26L217.67,156.74L217.72,150L217.76,150L217.76,143.26L217.79,156.74L218.46,150L218.53,143.26L218.72,163.48L218.97,136.52L219.17,143.26L219.29,143.26L220.02,156.74L220.03,150L220.06,150L220.18,156.74L220.73,136.52L220.8,156.74L220.93,150L221.09,176.96L221.42,129.78L221.7,143.26L221.71,156.74L221.79,163.48L222.06,129.78L222.45,143.26L222.48,143.26L223.23,156.74L223.24,150L223.57,170.22L223.67,129.78L223.94,143.26L224.01,150L224.01,136.52L224.2,156.74L224.76,143.26L224.77,143.26L225.18,176.97L225.53,156.74L225.53,143.26L225.93,176.97L226.07,136.52L226.26,150L226.3,150L226.73,163.48L226.74,123.03L226.97,143.26L226.97,156.74L227.04,143.26L227.72,143.26L227.77,143.26L228.11,136.52L228.42,156.74L228.57,143.26L228.57,156.74L228.79,136.52L229.3,143.26L229.33,143.26L229.41,136.52L229.81,163.48L230.08,156.74L230.09,150L230.15,156.74L230.81,143.26L230.82,150L230.86,150L231.04,156.74L231.08,129.78L231.09,170.22L231.31,129.78L231.81,143.26L231.88,156.74L232.2,163.48L232.36,136.52L232.64,150L232.72,150L232.79,156.74L233.32,136.52L233.42,150L233.49,163.48L233.49,136.52L234.23,156.74L234.28,150L234.73,123.05L234.86,170.21L234.98,143.26L235.05,143.26L235.1,156.74L235.8,143.26L235.83,143.26L236.06,136.52L236.42,163.48L236.45,150L236.46,136.52L236.63,163.48L236.94,129.79L237.18,129.79L237.26,156.74L237.27,136.53L238,143.26L238.02,143.26L238.07,156.74L238.77,150L238.89,156.74L239.54,136.53L239.65,143.26L239.69,156.74L239.72,143.26L240.38,156.74L240.46,156.74L240.79,129.79L240.8,176.95L241.23,136.53L241.27,156.74L241.38,163.47L241.94,136.53L242.01,156.74L242.05,156.74L242.6,129.79L242.66,170.21L242.79,156.74L242.83,143.26L242.93,136.53L243.44,163.47L243.6,156.74L243.62,150L243.91,136.53L243.98,163.47L244.3,156.74L244.39,156.74L245.12,136.53L245.12,143.26L245.22,150L245.41,136.53L245.85,163.47L245.92,143.26L245.99,156.74L246.24,163.47L246.72,143.26L246.74,156.74L246.76,156.74L247.5,143.26L247.5,150L247.57,156.74L248.19,143.26L248.22,156.74L248.96,143.26L248.96,150L249.01,156.74L249.3,143.26L249.7,150L249.78,143.26L250.52,156.74L250.52,156.74L250.56,150L250.78,163.47L251.3,143.26L251.35,156.74L252,143.26L252.12,150L252.13,156.74L252.13,163.47L252.17,129.79L252.85,156.74L252.9,156.74L253.45,170.21L253.49,136.52L253.63,150L253.68,156.74L253.72,143.26L254.41,156.74L254.44,156.74L255.18,203.91L255.19,102.83L255.19,102.83L255.26,183.69L255.28,109.57L256,170.22L256.06,136.52L256.29,183.7L256.41,109.56L256.8,156.74L256.87,156.74L256.99,163.48L257.24,136.52L257.59,143.26L257.69,156.74L258.43,136.52L258.44,156.74L258.46,143.26L258.95,136.52L259.1,163.48L259.2,143.26L259.23,156.74L259.99,143.26L259.99,150L260,150L260.12,143.26L260.69,156.74L260.69,150L260.76,150L261.41,170.22L261.49,129.78L261.52,170.22L261.79,129.78L262.27,156.74L262.32,150L262.76,163.48L262.76,123.04L263.07,156.74L263.08,150L263.53,163.48L263.82,143.26L263.83,156.74L264.31,136.52L264.57,156.74L264.58,176.96L264.83,176.97L265.25,129.77L265.37,143.26L265.37,156.74L266.04,170.23L266.13,123.03L266.16,163.49L266.54,123.03L266.88,176.97L266.92,150L267.07,176.97L267.53,123.03L267.66,143.26L267.73,143.26L267.75,123.03L268.43,156.74L268.44,136.51L268.47,136.51L268.81,163.49L269.2,143.26L269.24,143.26L269.53,136.51L269.7,156.74L269.91,150L270,143.26L270.07,136.51L270.8,156.74L270.81,143.26L271,136.51L271.07,163.49L271.55,150L271.57,143.26L272.06,163.49L272.32,143.26L272.37,143.26L273.1,156.74L273.12,143.26L273.2,143.26L273.75,136.52L273.92,163.48L273.99,150L274.01,136.52L274.27,163.48L274.71,150L274.78,143.26L275.33,156.74L275.49,136.52L275.53,143.26L275.57,150L275.66,156.74L276.37,136.52L276.4,143.26L276.53,136.52L277.09,163.48L277.09,150L277.1,136.51L277.19,163.49L277.19,123.03L277.83,143.26L277.86,143.26L278.53,156.74L278.61,143.26L278.66,136.51L279.43,156.74L279.43,156.74L279.45,150L279.57,143.26L280.11,156.74L280.11,156.74L280.17,143.26L280.81,156.74L280.92,150L280.96,143.26L281.57,176.97L281.58,123.03L281.71,156.74L281.78,156.74L282.36,136.51L282.55,143.26L282.57,150L282.73,163.49L283.21,136.51L283.3,156.74L283.37,156.74L283.68,123.02L284.11,129.77L284.15,129.77L284.39,170.23L284.9,143.26L284.93,156.74L285.51,170.23L285.52,129.77L285.66,143.26L285.69,156.74L286.18,170.23L286.39,129.77L286.45,143.26L286.45,163.49L287.09,143.26L287.2,150L287.26,136.51L287.54,129.77L287.63,163.49L288,136.51L288.02,136.51L288.51,123.02L288.58,170.23L288.78,150L288.8,150L289.03,163.49L289.35,136.51L289.55,143.25L289.63,143.25L289.91,136.51L290.1,163.49L290.34,156.75L290.39,143.25L291.14,156.75L291.15,143.25L291.91,156.75L291.91,143.25L291.91,156.75L292.63,143.25L292.67,143.25L293.21,156.75L293.43,150L293.45,150L293.68,156.75L293.79,143.25L294.2,143.25L294.23,143.25L294.56,156.75L294.98,143.26L294.99,143.26L295.1,143.25L295.64,156.75L295.72,150L295.73,143.25L296.46,156.75L296.48,143.25L296.51,143.25L296.53,136.51L296.62,163.49L297.22,143.25L297.33,143.25L297.73,176.99L297.83,123.01L298.09,156.75L298.11,143.25L298.3,116.27L298.31,183.73L298.86,163.49L298.88,129.76L299.54,156.75L299.63,143.25L299.64,143.25L300.37,156.75L300.39,150L300.39,143.25L301.12,156.75L301.13,143.25L301.16,143.25L301.38,136.51L301.38,163.49L301.92,156.75L301.98,150L302.06,156.75L302.54,136.51L302.75,143.25L302.75,156.75L302.76,163.49L303.29,136.51L303.49,143.25L303.51,150L303.51,156.75L303.55,136.51L304.21,150L304.29,150L304.44,156.75L305,143.25L305.01,156.75L305.02,156.75L305.57,163.49L305.66,136.51L305.77,143.25L305.78,156.75L305.81,129.76L305.85,163.49L306.52,150L306.57,156.74L307.33,143.26L307.37,143.26L307.88,136.51L307.98,156.74L308.04,150L308.05,136.51L308.07,129.76L308.23,170.24L308.79,143.25L308.82,156.75L308.98,163.49L309.36,136.51L309.56,150L309.58,156.75L309.85,176.98L309.91,129.76L310.34,143.25L310.37,150L310.49,129.76L310.9,176.99L311.12,143.25L311.16,143.25L311.22,190.48L311.22,89.28L311.89,143.25L311.96,143.25L312.19,136.51L312.63,190.48L312.73,156.75L312.75,150L312.95,183.74L312.96,102.76L313.43,150L313.5,156.75L314.24,136.5L314.24,163.5L314.24,163.5L314.34,150L314.48,156.75L315.01,136.5L315.08,163.5L315.08,123.01L315.83,156.75L315.85,150L316.1,156.75L316.54,136.51L316.55,163.49L316.56,170.24L316.56,129.76L317.3,143.25L317.32,156.75L318.04,183.74L318.04,109.51L318.05,116.26L318.09,116.26L318.3,170.24L318.86,143.25L318.89,156.75L319.5,176.99L319.51,129.76L319.66,143.25L319.71,156.75L320,123.01L320.35,163.5L320.47,143.25L320.48,156.75L320.64,163.5L320.96,129.76L321.26,143.25L321.29,143.25L321.29,156.75L321.42,129.76L322.03,143.25L322.06,143.25L322.29,129.76L322.58,163.5L322.73,143.25L322.84,143.25L323.3,136.5L323.55,156.75L323.61,143.25L323.74,136.5L324.28,156.75L324.4,150L324.44,150L324.85,163.5L324.88,129.76L325.06,143.25L325.16,143.25L325.3,163.5L325.9,143.25L325.92,143.25L326.42,163.5L326.7,156.75L326.74,150L326.74,143.25L326.82,156.75L327.46,150L327.51,143.25L327.53,156.75L328.26,156.75L328.29,150L328.32,143.25L328.87,156.75L329.03,150L329.06,150L329.37,136.5L329.43,163.5L329.68,136.5L329.72,136.5L329.89,129.76L330.13,176.99L330.5,156.75L330.5,150L330.88,136.51L330.88,163.49L331.25,150L331.25,163.49L332.05,143.25L332.05,143.25L332.15,143.25L332.81,156.75L332.9,143.25L332.94,143.25L333.13,136.51L333.24,163.49L333.7,156.75L333.72,143.25L334.45,156.75L334.47,150L334.49,143.25L335.2,156.75L335.21,143.25L335.25,143.25L335.3,163.49L335.35,136.51L336,156.75L336.02,150L336.02,156.75L336.04,143.25L336.76,150L336.78,156.75L337,129.76L337.01,170.24L337.53,156.75L337.57,156.75L338.11,163.49L338.13,136.51L338.31,150L338.36,156.75L338.77,129.76L339.11,156.75L339.13,156.75L339.48,136.51L339.5,176.99L339.88,143.25L339.89,150L340.38,109.52L340.39,197.22L340.64,150L340.66,156.75L340.94,129.76L341.08,170.24L341.4,156.75L341.42,156.75L341.48,143.25L342.17,150L342.24,156.75L342.97,143.25L342.97,143.25L343,150L343.4,136.51L343.68,156.75L343.71,150L343.81,150L344.13,136.51L344.28,163.49L344.54,156.75L344.59,156.75L345.12,176.98L345.25,129.76L345.34,156.75L345.35,156.75L345.47,163.49L345.99,136.51L346.05,163.49L346.13,150L346.24,170.24L346.3,123.01L346.84,156.75L346.86,143.25L347.52,163.49L347.54,136.51L347.6,150L347.62,150L347.63,163.49L347.85,136.51L348.33,150L348.4,150L348.96,136.51L349.17,156.75L349.18,156.75L349.31,136.51L349.41,176.99L349.93,156.75L349.97,156.75L350.23,170.24L350.25,136.5L350.69,156.75L350.73,156.75L350.78,136.5L350.78,163.5L351.48,156.75L351.6,156.75L352.01,136.5L352.3,143.25L352.37,156.75L352.92,163.5L352.98,136.5L353.11,143.25L353.13,156.75L353.29,136.5L353.78,170.24L353.88,150L353.93,150L354.12,123.01L354.17,176.99L354.66,143.25L354.71,143.25L355.09,170.25L355.24,136.5L355.46,136.5L355.48,143.25L355.84,183.75L355.86,116.25L355.86,116.25L355.86,251.25L355.86,285L355.9,15L356.59,129.75L356.66,143.25L356.79,102.75L357.07,190.5L357.39,150L357.42,150L357.53,156.75L358.12,143.25L358.17,150L358.21,143.25L358.46,136.5L358.5,170.25L358.95,143.25L358.99,156.75L359.71,143.25L359.71,170.25L360.16,123L360.5,143.25L360.52,136.5L361.2,163.5L361.3,150L361.3,136.5L361.75,204.01L361.91,89.24L362,150L362.06,143.25L362.22,136.5L362.82,156.75L362.82,156.75L362.86,143.25L363.58,156.75L363.58,156.75L363.62,143.25L364.32,156.75L364.36,150L364.38,143.25L364.62,163.5L365.1,150L365.18,136.5L365.74,163.5L365.92,150L365.95,150L366.01,156.75L366.67,143.25L366.67,143.25L366.7,156.75L366.8,136.5L367.45,150L367.47,150L367.56,156.75L368.06,143.25L368.18,156.75L368.27,156.75L368.99,143.25L368.99,163.5L369.02,170.25L369.24,177L369.48,109.49L369.66,163.5L369.7,177L370.13,129.75L370.47,143.25L370.5,156.75L371.03,163.5L371.06,136.5L371.25,143.25L371.31,156.75L371.65,163.5L371.9,136.5L372.06,150L372.07,156.75L372.35,170.25L372.67,129.75L372.73,136.5L372.89,129.75L373.4,163.5L373.61,143.25L373.66,143.25L373.7,129.75L374.2,163.5L374.4,156.75L374.42,143.25L375.03,156.75L375.15,143.25L375.2,150L375.38,143.25L375.84,156.75L375.85,150L375.86,143.25L375.9,156.75L376.17,129.75L376.6,143.25L376.62,143.25L377.13,136.5L377.16,163.5L377.35,150L377.39,150L377.39,143.25L377.46,156.75L378.12,150L378.15,150L378.63,170.25L378.69,129.75L378.85,156.75L378.89,143.25L379.58,156.75L379.62,150L379.66,143.25L380.08,136.5L380.18,163.5L380.39,143.25L380.46,143.25L380.87,129.75L381.17,170.25L381.2,150L381.26,143.25L381.76,163.5L381.97,136.5L382.06,136.5L382.46,163.5L382.83,150L382.83,123L382.92,183.75L383.5,116.25L383.5,156.75L383.54,109.51L383.7,183.74L384.25,143.25L384.3,143.25L384.61,129.75L384.62,170.24L385.04,143.25L385.05,156.75L385.4,116.26L385.4,183.74L385.8,156.75L385.83,156.75L386.29,176.99L386.36,129.76L386.57,143.25L386.62,156.75L386.9,123.01L386.97,170.24L387.35,156.75L387.38,156.75L387.48,163.49L387.59,136.51L388.03,143.25L388.05,156.75L388.17,136.51L388.24,163.49L388.8,143.25L388.82,156.75L389.54,143.25L389.56,156.75L389.58,156.75L389.93,163.49L390.25,143.25L390.29,156.75L390.38,143.25L390.85,163.5L391.14,150L391.18,150L391.18,143.25L391.34,156.75L391.91,156.75L391.94,150L392.01,143.25L392.69,156.75L392.78,156.75L393.07,136.5L393.52,156.75L393.55,150L393.83,136.5L394.16,176.99L394.25,143.25L394.33,163.5L394.71,170.25L395.05,143.25L395.14,143.25L395.27,136.5L395.88,156.75L395.91,156.75L396.41,163.5L396.5,143.25L396.66,150L396.67,156.75L397.07,163.5L397.1,136.5L397.38,143.25L397.48,156.75L397.56,163.5L398.19,136.5L398.25,143.25L398.33,156.75L398.46,136.5L399,156.75" style="vector-effect: non-scaling-stroke; fill: none; stroke: rgb(99, 110, 250); stroke-opacity: 1; stroke-width: 2px; opacity: 1;"/></g><g class="points"/><g class="text"/></g><g class="trace scatter tracefdc3e9" style="stroke-miterlimit: 2; opacity: 1;"><g class="fills"/><g class="errorbars"/><g class="lines"><path class="js-line" d="M0,224.09L0.58,109.59L0.81,143.27L0.82,143.27L0.9,136.53L1.44,163.47L1.58,156.73L1.6,143.27L2.31,156.73L2.41,163.47L3.08,143.27L3.12,156.73L3.22,156.73L3.75,143.27L3.97,156.73L3.98,156.73L4.03,176.94L4.05,123.06L4.7,156.74L4.84,143.26L5.45,163.47L5.6,156.74L5.63,143.26L5.98,136.53L6.27,156.74L6.36,143.26L6.5,156.74L6.77,136.53L7.29,143.27L7.35,143.27L7.43,136.53L7.54,170.2L8.02,156.73L8.13,143.27L8.65,176.94L8.69,123.06L8.86,129.8L8.89,163.47L9.33,170.2L9.65,143.27L9.68,143.27L10.08,136.53L10.42,156.73L10.42,143.27L10.45,143.27L10.86,163.47L10.92,136.53L11.19,143.27L11.25,143.27L11.91,156.73L11.99,143.27L12.04,156.73L12.7,116.33L12.7,116.33L12.8,156.73L12.8,123.06L13.55,143.27L13.57,156.73L14.3,143.27L14.31,156.73L14.4,143.27L14.88,123.07L15.21,156.73L15.24,143.27L15.27,176.93L15.99,143.27L16,143.27L16.37,123.07L16.39,163.46L16.75,143.27L16.8,143.27L17.55,156.73L17.57,143.27L17.6,136.54L17.71,170.2L18.32,156.73L18.37,143.27L18.63,136.54L18.67,163.46L19.06,156.73L19.16,156.73L19.16,143.27L19.91,156.73L19.93,156.73L20.72,143.27L20.72,143.27L20.73,156.73L21.47,143.27L21.47,143.27L21.54,156.73L22.08,143.27L22.23,156.73L22.41,156.73L23.18,143.27L23.24,143.27L23.82,156.73L23.85,116.34L24.04,136.53L24.64,123.07L24.8,170.2L24.85,123.07L25.48,156.73L25.6,143.27L25.63,143.27L25.7,163.47L25.72,136.53L26.37,143.27L26.42,143.27L26.61,136.53L26.7,163.47L27.2,156.73L27.2,136.53L27.78,156.73L27.8,129.8L27.86,170.2L28.53,143.27L28.6,156.73L29.36,143.27L29.38,156.73L29.92,163.47L30.09,136.53L30.12,156.73L30.16,156.73L30.27,163.47L30.59,136.53L30.88,143.27L30.92,163.47L30.98,136.53L31.68,143.27L31.69,156.73L32.2,163.47L32.43,143.27L32.43,143.27L32.45,156.73L32.94,163.47L33.05,136.53L33.19,143.27L33.23,156.73L33.51,163.47L33.64,136.53L33.98,156.73L34,156.73L34.43,170.2L34.51,129.8L34.67,156.73L34.72,163.47L35.04,136.53L35.27,183.67L35.47,156.73L35.51,143.27L35.93,136.53L36.03,163.47L36.25,156.73L36.28,143.27L36.67,163.47L37.01,156.73L37.05,143.27L37.81,170.2L37.83,129.8L38.58,156.73L38.65,143.27L39.24,136.53L39.38,170.2L39.39,136.53L39.57,163.47L40.18,156.73L40.2,156.73L40.23,163.47L40.85,143.27L40.92,156.73L40.98,156.73L41.53,176.94L41.54,143.26L41.56,176.94L42.44,143.26L42.45,156.74L42.52,136.53L42.77,163.47L43.11,156.74L43.13,143.26L43.87,156.74L43.87,156.74L43.91,156.74L44.45,163.47L44.65,136.53L44.71,156.74L44.72,176.94L45.34,136.53L45.35,143.26L45.46,156.73L45.92,170.21L45.99,136.53L46.25,143.26L46.25,156.74L46.83,170.2L46.84,129.8L46.99,156.73L47.03,156.73L47.16,170.2L47.63,136.53L47.71,143.27L47.77,163.47L47.9,136.53L48.52,143.27L48.54,156.73L48.92,163.47L49,136.53L49.3,143.27L49.3,156.73L49.48,176.93L49.77,136.53L50.05,156.73L50.08,156.73L50.26,170.2L50.26,129.8L50.81,156.73L50.85,156.73L51.41,170.2L51.42,136.53L51.6,143.27L51.61,156.73L51.74,176.94L52.02,129.8L52.32,156.73L52.39,156.73L52.88,163.47L52.89,136.53L53.13,156.73L53.18,143.27L53.95,156.73L53.95,156.73L53.95,143.27L54.67,156.73L54.68,143.27L54.72,143.27L55.32,156.73L55.44,143.27L55.48,143.27L56.2,156.73L56.2,156.73L56.24,143.27L56.94,156.73L56.97,143.27L57.01,143.27L57.01,156.73L57.76,143.27L57.79,143.27L58.28,116.33L58.37,176.93L58.53,143.27L58.57,156.73L58.67,170.2L58.96,109.6L59.27,163.47L59.35,136.53L59.52,129.8L59.69,163.46L60.13,143.27L60.16,143.27L60.56,136.54L60.89,156.73L60.94,156.73L61.67,143.27L61.68,156.73L61.72,136.54L62.48,156.73L62.5,143.27L63.23,156.73L63.23,156.73L63.27,143.27L63.97,163.47L64.05,163.47L64.32,123.07L64.62,136.53L64.67,163.47L65,129.8L65.3,143.27L65.35,163.47L65.37,136.53L66.1,156.73L66.2,163.47L66.81,129.8L66.82,170.2L66.97,143.27L66.98,156.73L67.64,163.47L67.75,136.53L67.75,136.53L67.76,156.73L67.89,163.47L68.34,116.33L68.5,143.27L68.57,156.73L69.09,176.94L69.33,123.06L69.33,123.06L69.38,136.53L69.78,176.94L69.78,123.06L70.14,156.74L70.16,143.26L70.68,136.53L70.94,176.94L71.03,156.74L71.12,116.32L71.18,163.47L71.75,163.47L71.79,163.47L72.28,170.21L72.51,109.58L72.54,143.26L72.56,143.26L72.92,190.42L72.94,109.58L73.25,170.21L73.3,129.79L73.3,170.21L74.03,170.21L74.09,156.74L74.85,143.26L74.85,156.74L75.16,116.31L75.27,183.69L75.61,143.26L75.63,156.74L75.91,190.43L75.99,123.05L76.36,143.26L76.39,156.74L77.07,143.26L77.08,163.48L77.11,163.48L77.14,183.69L77.52,183.7L77.53,116.3L77.88,156.74L77.95,143.26L77.95,156.74L78.68,156.74L78.71,156.74L78.81,163.48L79.33,136.52L79.45,156.74L79.48,156.74L79.56,163.48L79.95,136.52L80.24,143.26L80.25,143.26L80.6,136.52L80.78,163.48L80.99,156.74L81.02,143.26L81.12,136.52L81.74,156.74L81.79,143.26L81.97,163.48L82.1,136.52L82.52,156.74L82.64,156.74L82.71,136.52L82.92,163.48L83.32,156.74L83.33,143.26L83.53,163.48L83.81,136.52L84.07,156.74L84.09,156.74L84.19,176.95L84.2,129.78L84.85,143.26L84.86,156.74L85.63,143.26L85.64,156.74L86.08,170.21L86.09,129.79L86.38,156.74L86.4,156.74L86.42,136.52L86.54,163.48L87.11,156.74L87.17,156.74L87.53,136.53L87.83,176.95L87.89,143.26L87.89,176.95L88.02,136.53L88.6,156.74L88.66,143.26L89.34,136.53L89.37,176.95L89.39,156.74L89.42,143.26L89.64,176.95L89.66,123.05L90.21,156.74L90.23,143.26L90.44,136.53L90.78,163.47L90.97,156.74L91.02,156.74L91.36,136.53L91.66,190.42L91.7,143.26L91.8,156.74L91.82,129.79L91.87,170.21L92.55,143.26L92.56,156.74L92.77,123.05L92.86,170.21L93.28,163.47L93.35,156.74L93.35,143.26L94.09,143.26L94.11,143.26L94.77,156.74L94.82,143.26L94.87,136.53L95.65,163.47L95.65,163.47L95.69,136.53L96.06,170.21L96.45,156.74L96.45,143.26L96.65,123.06L96.87,170.21L97.2,143.26L97.21,143.26L97.63,129.79L97.92,156.74L97.94,143.26L98,156.74L98.02,163.47L98.76,136.53L98.76,143.27L98.82,156.73L99.18,163.47L99.28,136.53L99.56,143.27L99.62,143.27L99.68,136.53L100.36,156.74L100.38,143.26L100.38,156.74L100.54,136.53L101.12,136.53L101.16,136.53L101.91,156.73L101.91,156.73L101.92,136.53L101.94,163.47L102.68,156.73L102.71,143.27L102.9,143.27L102.91,156.73L103.32,163.47L103.44,136.53L103.66,143.27L103.68,143.27L104.05,136.53L104.42,156.73L104.42,156.73L104.45,143.27L105.21,156.73L105.21,143.27L105.31,136.53L105.62,163.47L105.95,156.73L105.97,143.27L105.99,163.47L106.23,136.53L106.66,143.27L106.7,156.73L107.45,143.27L107.45,143.27L107.52,143.27L108.28,156.73L108.3,156.73L108.3,143.27L109.05,143.27L109.06,143.27L109.81,156.73L109.81,156.73L109.83,143.27L110.37,176.93L110.46,123.07L110.52,129.8L110.58,129.8L111.38,163.47L111.44,136.53L111.53,163.47L112.25,156.73L112.31,143.27L112.75,136.53L113.02,156.73L113.03,143.27L113.11,156.73L113.87,143.27L113.87,143.27L113.91,156.73L114.21,136.53L114.66,143.27L114.67,143.27L114.84,129.8L114.99,170.2L115.42,143.27L115.43,143.27L116.14,156.73L116.17,143.27L116.2,143.27L116.59,129.8L116.88,156.73L116.95,143.27L116.98,143.27L116.98,156.73L117.52,123.07L117.72,143.27L117.74,143.27L117.85,116.34L117.91,170.2L118.52,156.73L118.53,156.73L119.27,143.27L119.27,143.27L119.3,156.73L119.42,163.46L119.51,129.8L120.08,143.27L120.1,143.27L120.83,156.73L120.92,156.73L121.06,136.53L121.67,156.73L121.68,156.73L121.9,156.73L121.9,156.73L121.9,143.27L121.9,156.73L122.2,136.53L122.65,143.27L122.72,143.27L123.41,156.73L123.45,143.27L123.45,136.53L123.88,129.8L123.89,170.2L124.26,156.73L124.26,143.27L125.02,156.73L125.05,143.27L125.8,156.73L125.81,143.27L126.13,116.33L126.2,183.67L126.56,129.8L126.57,143.27L126.58,129.8L126.72,170.2L127.31,143.27L127.38,156.73L127.53,156.73L127.53,156.73L127.54,163.47L128.08,136.53L128.25,143.27L128.26,156.73L129.02,123.06L129.02,123.06L129.04,163.47L129.06,123.06L129.32,170.2L129.77,143.27L129.81,136.53L129.89,129.8L130.02,170.2L130.56,143.27L130.57,143.27L130.73,136.53L130.78,163.47L131.32,156.73L131.35,143.27L132.04,156.73L132.05,143.27L132.11,143.27L132.85,156.73L132.87,143.27L133.48,143.26L133.58,163.47L133.71,156.74L133.72,156.74L134.38,143.26L134.48,156.74L135.04,176.94L135.06,123.06L135.16,156.74L135.23,163.47L136.01,143.26L136.01,143.26L136.01,156.74L136.7,129.79L136.73,156.74L136.75,163.47L137.3,143.26L137.34,163.47L137.51,136.53L138.08,143.26L138.14,156.74L138.88,143.26L138.9,156.74L139.67,143.26L139.68,156.74L140.44,143.26L140.44,143.26L140.46,156.74L140.74,136.53L141.19,143.26L141.27,156.74L141.93,143.26L141.99,156.74L142.06,156.74L142.55,143.26L142.81,156.74L142.83,156.74L143.29,170.21L143.54,129.79L143.56,156.74L143.59,163.47L144.14,176.95L144.23,143.26L144.3,176.95L144.36,136.53L145.05,143.26L145.1,156.74L145.75,170.21L145.8,136.53L145.84,143.26L145.85,170.21L146.58,143.26L146.58,143.26L146.71,156.74L147.38,143.26L147.46,156.74L147.47,156.74L147.77,170.21L148.12,136.52L148.24,143.26L148.25,156.74L148.35,170.21L148.41,143.26L149,143.26L149.02,136.52L149.12,163.48L149.75,156.74L149.75,143.26L150.02,163.48L150.16,136.53L150.47,143.26L150.49,136.53L151.16,156.74L151.29,156.74L151.89,143.26L152.04,156.74L152.08,156.74L152.82,143.26L152.83,156.74L152.87,143.26L153.42,136.53L153.56,170.21L153.57,143.26L153.66,156.74L154.24,136.53L154.3,183.68L154.39,156.74L154.42,156.74L154.66,163.47L154.9,136.53L155.13,156.74L155.18,156.74L155.36,163.47L155.76,136.53L155.91,156.74L155.92,163.47L155.98,136.53L156.67,143.26L156.69,156.74L157.05,183.68L157.39,123.05L157.47,143.26L157.48,156.74L157.59,163.47L158.18,143.26L158.22,156.74L158.24,156.74L158.69,129.79L158.71,163.47L158.98,156.74L159.09,156.74L159.39,129.79L159.44,183.68L159.88,143.26L159.93,156.74L160.5,176.94L160.52,123.06L160.64,143.26L160.67,176.94L160.93,136.53L161.41,156.74L161.43,163.47L161.45,136.53L162.18,143.26L162.22,156.74L162.37,163.47L162.47,136.53L162.96,143.26L163,156.74L163.38,170.21L163.42,136.53L163.74,143.26L163.81,143.26L164.55,156.74L164.78,143.26L164.83,129.79L164.94,170.21L165.49,163.47L165.54,136.53L166.15,163.47L166.24,143.26L166.31,156.74L166.41,136.53L167.05,156.73L167.14,156.74L167.21,163.47L167.38,136.53L167.92,143.26L167.93,143.26L168,129.79L168.02,156.74L168.66,143.26L168.71,143.26L169.47,156.74L169.47,156.74L169.5,156.74L169.53,136.53L170.05,163.47L170.22,143.26L170.3,143.26L170.47,123.06L170.65,176.94L171.04,143.26L171.1,156.74L171.86,143.26L171.87,156.74L172.13,163.47L172.21,136.53L172.62,143.26L172.67,156.74L173.17,183.68L173.23,116.32L173.4,156.74L173.47,156.74L173.52,116.32L174.18,156.74L174.21,156.74L174.63,170.21L174.64,129.79L174.96,156.74L174.99,143.26L175.31,136.53L175.62,156.74L175.67,143.26L175.75,143.26L176.02,170.21L176.17,123.06L176.21,176.94L176.57,136.53L176.99,143.26L177.02,156.74L177.5,136.53L177.76,143.26L177.79,143.26L178.55,156.74L178.58,143.26L178.93,136.53L178.99,163.47L179.37,156.74L179.4,143.26L180.04,156.74L180.12,143.26L180.24,143.26L180.99,156.74L181.01,143.26L181.08,136.53L181.69,163.47L181.78,156.74L181.81,143.26L182.1,176.94L182.1,123.06L182.57,156.74L182.59,136.53L182.63,116.32L183.15,183.68L183.3,156.74L183.38,156.74L183.6,136.53L184.03,170.21L184.11,156.74L184.14,156.74L184.34,163.47L184.41,136.53L184.89,156.74L184.91,156.74L184.97,163.47L185.44,129.79L185.6,156.74L185.66,156.74L185.86,156.74L185.86,156.74L185.88,163.47L186.33,136.53L186.58,156.74L186.59,163.47L186.72,136.53L187.32,156.74L187.35,143.26L187.38,123.06L187.41,176.94L188.1,143.26L188.12,143.26L188.2,129.79L188.29,163.47L188.78,156.73L188.86,156.73L188.96,136.53L189.62,143.27L189.63,163.47L189.86,136.53L190.37,143.27L190.47,129.8L190.74,156.73L191.21,156.73L191.23,143.27L191.4,136.53L191.98,156.73L192,143.27L192.76,156.73L192.78,156.73L192.81,129.8L192.84,163.47L193.52,143.27L193.56,143.27L193.56,163.47L194.02,123.06L194.18,156.73L194.33,143.27L194.5,129.8L195.1,156.73L195.12,156.73L195.23,136.53L195.29,163.47L195.89,143.27L195.9,156.73L196.03,176.94L196.49,123.06L196.6,156.73L196.7,143.27L196.82,170.2L197.43,143.27L197.46,143.27L197.66,170.2L197.66,129.8L198.24,156.73L198.24,143.27L199.03,156.73L199.03,156.73L199.06,143.27L199.79,156.73L199.8,143.27L199.86,143.27L200.55,156.73L200.59,143.27L200.62,143.27L201.35,156.73L201.37,143.27L201.39,136.53L202.06,156.73L202.06,156.73L202.19,143.27L202.48,123.06L202.83,176.94L202.94,143.27L202.96,143.27L203.14,123.06L203.71,170.21L203.71,143.26L203.82,129.79L204.11,156.74L204.41,143.26L204.44,156.74L204.53,123.06L204.67,163.47L205.21,136.53L205.21,163.47L205.32,183.68L205.61,116.32L205.89,143.26L205.95,156.74L206.1,123.06L206.17,183.68L206.7,156.74L206.71,156.74L207.28,116.31L207.34,183.69L207.38,170.21L207.4,123.05L207.43,116.31L207.54,183.69L208.18,156.74L208.18,123.05L208.37,170.21L208.93,156.74L208.95,143.26L209.44,183.69L209.55,129.79L209.68,156.74L209.75,143.26L210.33,129.78L210.41,170.22L210.51,156.74L210.54,143.26L210.58,176.96L210.61,129.78L211.26,156.74L211.27,143.26L211.27,156.74L212,136.52L212,143.26L212.03,156.74L212.15,163.48L212.79,143.26L212.85,156.74L213.65,143.26L213.65,156.74L214.4,143.26L214.4,143.26L214.43,156.74L215.16,143.26L215.16,156.74L215.22,156.74L215.62,170.22L215.75,129.78L215.96,143.26L215.97,170.22L216.78,129.78L216.78,129.78L216.86,143.26L217.46,156.74L217.58,143.26L217.63,143.26L218.34,156.74L218.38,143.26L218.4,143.26L218.72,136.52L218.97,163.48L219.17,156.74L219.29,156.74L220.02,143.26L220.03,156.74L220.06,143.26L220.74,163.48L220.8,129.78L220.93,156.74L221.21,176.96L221.63,143.26L221.65,156.74L221.7,156.74L222.06,170.22L222.34,136.52L222.45,156.74L222.48,156.74L223.23,143.26L223.24,156.74L223.57,156.74L223.58,123.04L223.67,176.96L224.31,156.74L224.38,156.74L225.04,143.26L225.13,156.74L225.15,156.74L225.18,123.03L225.24,163.48L225.9,143.26L225.92,156.74L226.07,163.48L226.09,136.52L226.39,156.74L226.43,143.26L226.73,129.78L226.74,176.97L227.17,143.26L227.2,156.74L227.49,163.48L227.95,143.26L227.98,156.74L228.11,163.48L228.6,136.52L228.67,143.26L228.73,163.48L229.35,136.52L229.5,143.26L229.6,156.74L229.63,163.48L229.81,136.52L230.34,156.74L230.37,143.26L231.09,129.78L231.1,170.22L231.11,143.26L231.18,156.74L231.31,170.22L231.92,143.26L231.92,143.26L231.95,156.74L232.03,170.22L232.17,129.78L232.64,143.26L232.72,156.74L233.06,163.48L233.49,136.52L233.49,136.52L233.49,163.48L233.85,170.21L234.28,143.26L234.28,156.74L234.76,170.21L234.86,129.79L234.98,143.26L235.05,156.74L235.76,143.26L235.8,163.48L236.53,136.52L236.58,143.26L236.6,156.74L236.74,136.52L237.18,170.21L237.34,156.74L237.36,156.74L238.07,143.26L238.09,156.74L238.22,156.74L238.97,143.26L238.97,156.74L238.98,156.74L239.54,163.47L239.76,143.26L239.76,143.26L239.79,143.26L239.79,156.74L240.51,143.26L240.55,143.26L240.8,123.05L241.23,163.47L241.29,156.74L241.32,143.26L241.44,163.47L241.6,136.53L241.91,143.26L241.94,163.47L242.58,170.21L242.69,129.79L242.76,143.26L242.79,143.26L243,136.53L243.49,163.47L243.54,143.26L243.56,143.26L243.98,136.53L244.01,163.47L244.3,143.26L244.39,143.26L245.12,163.47L245.12,163.47L245.22,156.74L245.41,163.47L245.85,136.53L245.99,143.26L246,156.74L246.24,136.53L246.52,163.47L246.76,143.26L246.77,156.74L246.98,136.53L247.58,143.26L247.58,156.74L248.18,163.47L248.22,136.53L248.4,143.26L248.5,143.26L248.5,156.74L249.23,143.26L249.27,143.26L250.05,156.74L250.06,143.26L250.4,136.53L250.81,156.74L250.83,143.26L250.83,156.74L250.89,136.53L251.56,143.26L251.61,143.26L252.17,170.21L252.21,136.53L252.38,156.74L252.4,143.26L252.99,163.47L253.14,156.74L253.17,156.74L253.47,163.48L253.68,136.52L253.88,143.26L253.93,143.26L254.48,136.52L254.67,156.74L254.68,143.26L254.73,156.74L255.12,143.26L255.16,170.21L255.16,156.74L255.18,96.09L255.19,203.91L255.89,156.74L255.97,156.74L256.29,190.44L256.52,109.56L256.67,129.78L256.79,143.26L256.99,136.52L257.24,163.48L257.5,156.74L257.59,143.26L257.59,156.74L258.33,143.26L258.35,136.52L258.43,163.48L259.1,136.52L259.15,163.48L259.82,143.26L259.85,156.74L259.92,156.74L260.66,143.26L260.68,156.74L261.43,136.52L261.47,163.48L261.49,176.96L261.53,136.52L262.19,156.74L262.24,143.26L262.76,136.52L262.76,176.96L263.02,156.74L263.02,143.26L263.79,156.74L263.79,156.74L263.82,156.74L264.31,163.48L264.57,143.26L264.58,156.74L264.64,170.22L264.84,116.29L265.21,163.48L265.23,143.26L265.25,183.71L265.62,136.51L265.95,143.26L266.01,156.74L266.13,176.97L266.44,123.03L266.77,143.26L266.79,156.74L267.08,183.71L267.18,116.29L267.49,123.03L267.53,176.97L268.29,143.26L268.31,156.74L268.47,170.23L268.82,136.51L269.02,143.26L269.07,156.74L269.24,143.26L269.53,163.49L269.53,163.49L269.54,136.51L270.13,163.49L270.32,156.74L270.32,143.26L270.97,136.51L271,163.49L271.04,156.74L271.07,136.51L271.8,156.74L271.8,143.26L271.88,143.26L272.05,136.51L272.08,163.49L272.63,143.26L272.64,156.74L272.64,143.26L273.36,156.74L273.4,143.26L273.75,163.48L273.88,136.52L274.1,143.26L274.16,143.26L274.18,163.48L274.27,136.52L274.92,156.74L274.95,156.74L275.49,163.48L275.7,143.26L275.7,143.26L275.73,156.74L276.09,163.48L276.14,136.52L276.48,156.74L276.5,156.74L277.17,136.51L277.19,176.97L277.24,143.26L277.24,176.97L277.95,143.26L277.99,156.74L278.01,156.74L278.61,163.49L278.76,143.26L278.77,156.74L279.49,143.26L279.49,143.26L279.55,156.74L280.31,143.26L280.31,143.26L280.32,156.74L281.07,143.26L281.07,156.74L281.08,156.74L281.53,116.28L281.58,183.72L281.8,156.74L281.85,156.74L281.88,170.23L281.9,136.51L282.6,156.74L282.62,143.26L282.73,136.51L283.21,163.49L283.37,143.26L283.39,156.74L283.47,143.26L283.67,176.98L284.11,143.26L284.15,176.98L284.39,129.77L284.9,156.74L284.93,143.26L285.51,129.77L285.65,170.23L285.66,156.74L285.69,143.26L286.18,129.77L286.39,170.23L286.44,163.49L286.45,143.26L286.45,136.51L286.52,156.74L287.2,156.74L287.26,163.49L287.54,170.23L287.63,136.51L288,163.49L288.02,163.49L288.48,136.51L288.51,183.72L288.76,143.25L288.78,156.75L289.03,136.51L289.06,163.49L289.51,143.25L289.55,156.75L289.91,163.49L290.1,136.51L290.31,143.25L290.33,156.75L290.41,136.51L291.07,156.75L291.1,156.75L291.51,143.25L291.84,156.75L291.9,143.25L291.9,156.75L292.63,156.75L292.67,156.75L293.26,143.25L293.43,143.26L293.45,156.74L293.79,156.75L294.15,143.25L294.15,143.25L294.2,156.75L294.83,143.25L294.92,156.74L294.98,156.74L295.27,156.75L295.64,143.25L295.72,156.74L295.73,156.75L296.46,143.25L296.48,156.75L296.51,156.75L296.57,129.76L296.96,170.24L297.22,163.49L297.33,143.25L297.63,183.73L297.81,116.27L298.08,156.75L298.09,143.25L298.3,116.27L298.31,183.73L298.88,170.24L298.9,156.75L298.92,163.49L298.97,143.25L299.64,156.75L299.66,143.25L300.4,156.75L300.41,136.51L301.13,163.49L301.26,156.75L301.29,143.25L301.38,163.49L301.38,136.51L302.02,143.25L302.06,143.25L302.54,163.49L302.76,136.51L302.83,136.51L303.55,163.49L303.57,156.75L303.67,143.25L303.67,156.75L304.39,143.25L304.44,156.75L304.44,143.25L305.19,156.75L305.25,156.75L305.85,129.76L305.97,170.23L306,143.25L306.03,170.23L306.16,129.77L306.79,156.74L306.83,156.74L307.26,136.51L307.33,163.49L307.55,143.26L307.62,156.74L308.07,170.24L308.23,129.76L308.23,129.76L308.23,170.24L309,136.51L309,136.51L309.01,163.49L309.12,136.51L309.36,170.24L309.78,156.75L309.79,156.75L309.89,170.24L310.46,129.76L310.49,170.24L311.22,109.52L311.22,210.72L311.22,197.23L311.25,163.49L311.81,143.25L312.01,156.75L312.05,156.75L312.19,163.49L312.54,136.51L312.63,156.75L312.72,170.24L312.75,102.76L313.03,197.24L313.43,156.75L313.5,143.25L314.24,129.76L314.24,156.75L314.34,156.75L314.52,136.5L314.64,163.5L315.01,143.25L315.08,129.76L315.17,170.24L315.83,143.25L315.85,156.75L316.55,136.51L316.56,176.99L316.61,156.75L317.19,136.5L317.27,163.5L317.3,156.75L317.32,143.25L317.75,123.01L318.01,170.24L318.04,129.76L318.04,123.01L318.04,116.26L318.04,190.49L318.78,143.25L318.81,156.75L318.83,163.5L318.89,143.25L319.48,143.25L319.5,123.01L320.02,176.99L320.24,143.25L320.26,143.25L320.35,136.5L320.91,170.24L321.03,156.75L321.08,143.25L321.2,136.51L321.47,170.24L321.82,156.75L321.86,143.25L322.58,170.24L322.63,156.75L322.63,143.25L323.3,163.5L323.39,156.75L323.4,156.75L323.74,163.5L324.15,143.25L324.17,156.75L324.76,129.76L324.85,156.75L324.88,170.24L325.31,136.5L325.62,143.25L325.72,156.75L326.37,163.49L326.42,136.5L326.47,143.25L326.5,156.75L327.34,143.25L327.34,143.25L327.38,156.75L327.99,143.25L328.07,156.75L328.15,143.25L328.9,156.75L328.91,143.25L329.43,136.5L329.47,163.5L329.67,156.75L329.67,143.25L330.07,176.99L330.13,123.01L330.41,156.75L330.46,156.75L330.63,170.24L330.88,129.76L331.19,156.75L331.23,156.75L331.25,136.51L331.3,163.49L331.96,156.75L332,156.75L332.24,156.75L332.24,156.75L332.25,143.25L332.82,163.49L333,143.25L333.01,143.25L333.13,163.49L333.17,129.76L333.76,143.25L333.81,156.75L334.49,163.49L334.53,143.25L334.53,143.25L334.59,156.75L334.9,136.51L335.33,170.24L335.35,163.49L335.36,136.51L335.57,170.24L336.1,143.25L336.11,156.75L336.11,143.25L336.14,163.49L336.85,143.25L336.88,143.25L337,170.24L337.01,129.76L337.57,143.25L337.58,156.75L338.11,136.51L338.12,163.49L338.31,143.25L338.36,143.25L338.77,170.24L339.11,143.25L339.13,143.25L339.48,170.24L339.5,123.01L339.91,156.75L339.93,143.25L340.39,102.78L340.59,163.49L340.67,156.75L340.69,143.25L340.94,170.24L340.94,129.76L341.43,143.25L341.48,156.75L341.59,136.51L341.77,163.49L342.17,143.25L342.24,143.25L342.97,156.75L342.97,156.75L343,143.25L343.4,163.49L343.71,156.75L343.81,156.75L344.28,136.51L344.33,163.49L344.51,143.25L344.54,143.25L344.75,129.76L345.25,170.24L345.26,156.75L345.34,143.25L345.52,170.24L345.96,136.51L346.05,136.51L346.13,143.25L346.24,129.76L346.3,176.99L346.77,143.25L346.78,156.75L347.36,129.76L347.52,156.75L347.54,170.24L347.83,136.51L348.31,143.25L348.33,156.75L348.96,163.49L349.09,143.25L349.09,143.25L349.1,163.49L349.71,116.26L349.76,143.25L349.84,156.75L349.86,116.26L350.35,170.24L350.58,143.25L350.61,156.75L350.78,129.76L350.8,170.24L351.33,143.25L351.37,156.75L352,136.5L352.01,163.5L352.18,143.25L352.22,143.25L352.92,136.5L352.98,163.5L353.05,156.75L353.06,143.25L353.29,163.5L353.29,136.5L353.78,156.75L353.83,123.01L354.13,176.99L354.62,143.25L354.63,143.25L355.1,123.01L355.41,163.5L355.41,163.5L355.43,156.75L355.86,15L355.9,285L356.18,156.75L356.19,143.25L356.26,129.75L356.81,197.25L356.93,170.25L356.97,143.25L357.04,163.5L357.07,102.75L357.71,156.75L357.77,143.25L358.42,156.75L358.46,143.25L358.49,136.5L358.5,129.75L358.52,163.5L359.21,156.75L359.23,156.75L359.99,143.25L359.99,143.25L360.03,156.75L360.07,143.25L360.16,177L360.77,156.75L360.86,156.75L361.57,170.25L361.6,116.24L361.62,183.76L361.75,89.24L361.91,210.76L362.3,143.25L362.31,143.25L362.35,136.5L363.09,156.75L363.12,143.25L363.24,163.5L363.91,156.75L363.93,156.75L364.54,163.5L364.68,143.25L364.68,143.25L364.69,156.75L365.18,163.5L365.46,143.25L365.46,143.25L365.47,156.75L365.74,136.5L365.83,163.5L366.24,143.25L366.26,156.75L366.8,163.5L367.03,143.25L367.06,156.75L367.82,143.25L367.82,143.25L367.83,156.75L367.83,143.25L368.57,156.75L368.59,156.75L369.23,163.5L369.26,123L369.32,156.75L369.46,170.25L369.48,116.24L369.48,190.51L370.21,143.25L370.23,156.75L370.35,129.75L370.43,163.5L370.94,143.25L370.95,163.5L371.68,136.5L371.79,156.75L371.9,170.25L372.59,129.75L372.6,170.25L372.93,129.75L373.32,156.75L373.38,143.25L373.53,136.5L373.79,170.25L374.13,156.75L374.15,156.75L374.15,170.25L374.19,129.75L374.89,156.75L374.91,156.75L375.62,143.25L375.67,156.75L375.67,143.25L376.17,170.25L376.42,156.75L376.43,143.25L376.75,136.5L377.18,163.5L377.18,163.5L377.2,136.5L377.98,156.75L377.98,156.75L378.01,156.75L378.69,170.25L378.74,136.5L378.78,143.25L378.8,143.25L379.55,156.75L379.55,156.75L379.58,143.25L380.17,136.5L380.31,163.5L380.34,156.75L380.39,156.75L381.04,170.25L381.17,129.75L381.19,143.25L381.2,156.75L381.45,136.5L381.75,163.5L381.95,143.25L381.97,143.25L382.31,136.5L382.42,177L382.73,156.75L382.75,143.25L382.89,116.25L383.06,170.25L383.5,143.25L383.54,190.49L383.67,109.51L384.25,163.5L384.3,143.25L384.61,123.01L384.72,176.99L385.05,143.25L385.13,143.25L385.36,183.74L385.4,116.26L385.83,143.25L385.9,143.25L386.2,123.01L386.36,170.24L386.64,156.75L386.66,143.25L386.91,116.26L386.97,163.49L387.4,143.25L387.47,156.75L387.56,163.49L388.24,136.51L388.24,136.51L388.24,156.75L388.48,136.51L388.99,143.25L389.03,156.75L389.75,143.25L389.77,156.75L389.81,143.25L389.93,136.51L389.98,163.49L390.55,143.25L390.61,156.75L390.85,129.76L391.34,143.25L391.37,156.75L392.1,143.25L392.12,156.75L392.13,156.75L392.69,136.5L392.88,156.75L392.89,156.75L393.07,163.5L393.14,136.5L393.63,156.75L393.67,143.25L393.83,170.24L394.16,123.01L394.37,156.75L394.45,156.75L394.72,123.01L395.21,143.25L395.22,156.75L395.25,136.5L395.27,163.5L395.97,156.75L396.01,156.75L396.76,143.25L396.76,143.25L396.86,156.75L396.93,163.5L397.57,129.75L397.66,143.25L397.69,143.25L397.78,129.75L398.13,163.5L398.43,143.25L398.45,143.25L398.47,163.5L399,143.25" style="vector-effect: non-scaling-stroke; fill: none; stroke: rgb(239, 85, 59); stroke-opacity: 1; stroke-width: 2px; opacity: 1;"/></g><g class="points"/><g class="text"/></g><g class="trace scatter trace17cb0e" style="stroke-miterlimit: 2; opacity: 1;"><g class="fills"/><g class="errorbars"/><g class="lines"><path class="js-line" d="M0,75.91L0.82,143.27L0.82,143.27L0.84,143.27L1.44,136.53L1.58,143.27L1.6,143.27L2.31,143.27L2.41,136.53L3.23,143.27L3.23,143.27L3.26,143.27L4.01,143.27L4.03,123.06L4.7,143.26L4.7,143.26L4.84,143.26L5.44,143.26L5.45,136.53L6.25,143.26L6.25,143.26L6.27,143.26L6.73,143.27L6.77,136.53L7.46,143.27L7.47,136.53L7.54,129.8L8.26,143.27L8.38,129.8L8.65,123.06L9.13,143.27L9.28,143.27L9.33,129.8L10.03,143.27L10.05,143.27L10.08,136.53L10.8,143.27L10.81,143.27L10.95,136.53L11.55,143.27L11.61,143.27L12.67,143.27L12.7,116.33L13.55,143.27L13.57,143.27L14.7,143.27L14.72,129.8L14.88,123.07L15.52,143.27L15.52,143.27L15.58,143.27L16.19,143.27L16.19,143.27L16.31,136.53L16.5,123.07L16.51,143.27L16.96,143.27L17,143.27L17.58,143.27L17.6,136.54L17.71,129.8L18.37,143.27L18.37,143.27L18.4,136.54L19.17,143.27L19.21,143.27L23.82,143.27L23.82,143.27L23.85,116.34L24.68,143.27L24.7,123.07L25.6,143.27L25.63,143.27L25.73,136.53L26.37,143.27L26.42,143.27L26.61,143.27L26.61,136.53L27.61,143.27L27.61,143.27L27.65,143.27L27.86,129.8L28.4,143.27L28.42,143.27L28.5,136.53L29.13,143.27L29.22,143.27L29.9,143.27L29.9,143.27L29.91,136.53L30.68,143.27L30.76,143.27L30.98,136.53L31.5,143.27L31.54,143.27L32.16,143.27L32.16,143.27L32.2,136.53L32.96,143.27L32.97,136.53L33.76,143.27L33.78,143.27L34.42,143.27L34.42,143.27L34.43,129.8L35.17,143.27L35.24,136.53L35.27,116.33L35.32,143.27L35.99,143.27L36,143.27L36.67,136.53L36.75,143.27L36.76,143.27L37.24,143.27L37.24,143.27L37.27,136.53L37.81,129.8L38.03,143.27L38.06,143.27L38.33,143.27L38.34,136.53L38.34,143.27L39.09,143.27L39.11,143.27L39.38,129.8L39.86,143.27L39.89,143.27L40.06,143.27L40.07,136.53L40.85,143.27L40.92,143.27L41.52,143.27L41.53,123.06L42.28,143.26L42.31,143.26L42.47,143.26L42.49,136.53L43.25,143.26L43.27,143.26L44.45,143.26L44.45,136.53L44.72,123.06L45.21,143.26L45.22,129.79L45.73,143.27L46.01,143.26L46.06,143.26L46.83,143.26L46.83,143.26L46.83,129.8L47.58,143.27L47.63,136.53L48.41,143.27L48.43,143.27L48.92,143.27L48.92,136.53L49.48,123.07L49.69,143.27L49.7,136.53L50.26,129.8L50.44,143.27L50.49,143.27L50.68,143.27L50.68,143.27L50.68,136.53L51.34,143.27L51.41,129.8L51.42,136.53L51.45,136.53L51.74,123.06L52.14,143.27L52.2,136.53L52.21,136.53L52.99,143.27L53.02,143.27L57.87,143.27L57.87,143.27L57.9,129.8L58.28,116.33L58.63,143.27L58.63,143.27L58.67,129.8L58.9,109.6L59.48,143.27L59.48,143.27L59.49,136.53L59.52,129.8L60.25,143.27L60.25,143.27L60.27,143.27L60.54,143.27L60.56,136.54L61.31,143.27L61.38,143.27L61.68,143.27L61.72,136.54L62.53,143.27L62.55,143.27L63.95,143.27L63.97,136.53L64.12,123.07L64.84,143.27L64.84,143.27L64.87,143.27L65,129.8L65.59,143.27L65.66,143.27L66.1,143.27L66.1,143.27L66.2,136.53L66.81,129.8L67.04,143.27L67.1,143.27L67.55,143.27L67.58,136.53L67.58,143.27L68.31,143.27L68.34,116.33L68.95,143.27L69.11,143.26L69.13,123.06L70.03,143.26L70.03,143.26L70.04,143.26L70.63,143.26L70.65,136.53L71.04,116.32L71.39,143.26L71.39,129.79L72.11,143.26L72.16,143.26L72.51,109.58L72.68,123.05L72.68,143.26L72.94,109.58L73.39,143.26L73.41,143.26L74.03,129.79L74.15,143.26L74.24,143.26L75.04,143.26L75.04,136.53L75.16,116.31L75.48,143.26L75.49,116.31L75.91,109.57L76.36,143.26L76.39,143.26L77.07,143.26L77.07,143.26L77.08,136.52L77.15,143.26L77.53,116.3L77.76,143.26L77.81,143.26L77.81,136.52L78.56,143.26L78.62,143.26L78.81,143.26L78.81,136.52L79.55,143.26L79.56,136.52L79.68,143.26L79.95,136.52L80.43,143.26L80.44,143.26L81.15,136.52L81.2,143.26L81.94,143.26L81.97,136.52L82.13,136.52L82.13,136.52L82.14,143.26L82.39,143.26L82.39,136.52L83.24,143.26L83.27,143.26L83.51,143.26L83.53,136.52L84.19,123.05L84.27,143.26L84.32,143.26L86.07,143.26L86.07,143.26L86.08,129.79L86.08,143.26L86.83,143.26L86.85,143.26L87.51,143.26L87.51,143.26L87.51,136.53L87.83,123.05L88.26,143.26L88.26,143.26L88.29,143.26L88.52,143.26L88.52,136.53L89.27,143.26L89.31,143.26L89.66,123.05L90.01,143.26L90.05,143.26L90.78,136.53L90.78,136.53L90.83,143.26L91.36,143.26L91.36,143.26L91.36,136.53L91.66,109.58L92.12,143.26L92.15,143.26L92.52,143.26L92.52,136.53L92.77,123.05L93.24,143.26L93.28,136.53L94.09,143.26L94.11,143.26L94.82,143.26L94.82,143.26L94.87,136.53L95.65,143.26L95.65,136.53L96.06,129.79L96.45,143.26L96.45,143.26L96.47,143.26L96.63,143.26L96.65,123.06L96.85,143.27L97.4,143.26L97.44,143.26L97.63,129.79L98.07,143.27L98.17,143.27L98.23,143.27L98.5,143.27L98.5,143.27L98.53,136.53L99.18,143.27L99.28,136.53L99.3,136.53L99.85,143.27L100.05,143.26L100.07,143.26L100.52,143.26L100.54,136.53L101.3,143.27L101.3,143.27L101.37,143.27L101.97,136.53L102.11,143.27L102.13,143.27L103.27,143.27L103.27,136.53L104.01,143.27L104.05,136.53L104.86,143.27L104.91,143.27L105.25,143.27L105.25,143.27L105.31,136.53L106.08,143.27L106.1,136.53L106.85,143.27L106.85,143.27L106.92,143.27L109.83,143.27L109.83,143.27L109.84,123.07L110.5,143.27L110.59,129.8L110.66,143.27L110.67,129.8L111.38,136.53L111.44,136.53L112.37,143.27L112.37,143.27L112.38,143.27L112.71,143.27L112.75,136.53L113.53,143.27L113.55,143.27L114.18,143.27L114.21,136.53L114.84,129.8L114.91,143.27L114.91,129.8L115.7,143.27L115.7,143.27L115.76,143.27L116.57,143.27L116.57,143.27L116.59,129.8L117.36,143.27L117.4,143.27L117.88,116.34L118.16,136.53L118.24,136.53L119.01,143.27L119.06,143.27L119.36,143.27L119.36,143.27L119.37,129.8L120.11,143.27L120.11,143.27L120.18,143.27L121.03,143.27L121.03,143.27L121.05,136.53L121.7,143.27L121.9,143.27L122.17,143.27L122.2,136.53L122.96,143.27L122.96,143.27L122.98,143.27L123.45,143.27L123.45,143.27L123.45,136.53L123.88,129.8L124.35,143.27L124.37,143.27L126.11,143.27L126.11,143.27L126.13,116.33L126.95,143.27L126.98,143.27L127.53,143.27L127.53,143.27L127.54,136.53L128.33,143.27L128.33,143.27L128.36,143.27L129.06,123.06L129.11,143.27L129.13,143.27L129.3,143.27L129.31,129.8L130.06,143.27L130.12,143.27L130.78,136.53L130.85,143.27L130.9,143.27L133.42,143.26L133.44,136.53L134.2,143.26L134.2,143.26L134.24,143.26L134.53,143.26L134.53,136.53L134.53,143.26L135.02,123.06L135.28,143.26L135.3,143.26L136.64,143.26L136.64,143.26L136.7,129.79L137.44,143.26L137.45,136.53L137.47,136.53L138.26,143.26L138.29,143.26L140.74,143.26L140.74,136.53L141.44,143.26L141.44,143.26L141.52,143.26L143.13,143.26L143.2,136.53L143.29,129.79L143.96,143.26L143.96,143.26L143.97,143.26L144.3,123.05L144.62,143.26L144.75,143.26L145.52,143.26L145.52,136.53L145.75,129.79L146.3,143.26L146.3,143.26L146.31,143.26L147.63,143.26L147.65,136.53L147.77,129.79L148.41,143.26L148.43,143.26L148.87,143.26L148.87,143.26L148.87,136.52L148.87,143.26L149.62,143.26L149.64,143.26L150.01,143.26L150.02,136.52L150.77,143.26L150.8,143.26L153.34,143.26L153.42,136.53L153.49,129.79L154.14,143.26L154.14,143.26L154.18,136.53L154.18,143.26L154.3,116.32L154.9,136.53L154.95,143.26L155.22,143.26L155.36,136.53L156.09,143.26L156.14,143.26L156.23,136.53L156.87,143.26L156.91,143.26L157.3,116.32L157.65,136.53L157.68,143.26L158.68,143.26L158.69,129.79L159.35,143.26L159.39,129.79L159.44,116.32L160.18,143.26L160.21,143.26L160.72,123.06L160.85,143.26L160.93,143.26L160.93,136.53L161.67,143.26L161.72,143.26L161.95,143.26L161.95,136.53L162.76,143.26L162.79,143.26L163.37,143.26L163.37,143.26L163.38,129.79L164.17,143.26L164.17,143.26L164.26,143.26L164.82,143.26L164.82,143.26L164.83,129.79L165.64,143.26L165.72,143.26L166.13,143.26L166.13,136.53L166.86,143.26L166.86,143.26L166.9,136.53L167.05,143.27L167.69,143.26L167.71,143.26L168,143.26L168,129.79L168.77,143.26L168.77,143.26L168.78,143.26L169.5,143.26L169.53,136.53L169.53,143.26L170.22,143.26L170.3,143.26L170.46,143.26L170.47,123.06L171.24,143.26L171.24,143.26L171.27,143.26L172.08,143.26L172.08,143.26L172.1,136.53L172.88,143.26L172.93,143.26L173.11,143.26L173.13,116.32L173.95,143.26L173.95,143.26L173.98,143.26L174.54,143.26L174.61,136.53L174.64,129.79L174.7,143.26L175.34,136.53L175.36,143.26L175.82,129.79L176.1,129.79L176.17,123.06L177.02,143.26L177.02,143.26L177.09,143.26L177.45,143.26L177.5,136.53L178.27,143.26L178.3,143.26L178.89,143.26L178.93,136.53L179.68,143.26L179.71,143.26L181.07,143.26L181.07,143.26L181.08,136.53L181.86,143.26L181.89,143.26L182.07,143.26L182.07,143.26L182.1,123.06L182.53,143.27L182.63,116.32L182.85,143.26L182.88,143.26L183.15,116.32L183.63,143.26L183.65,143.26L184.03,129.79L184.41,136.53L184.46,143.26L184.73,143.26L184.82,136.53L185.09,129.79L185.6,143.26L185.66,143.26L185.86,143.26L185.86,143.26L185.88,136.53L186.64,143.26L186.65,136.53L187.36,143.26L187.38,136.53L187.38,123.06L188.12,143.26L188.12,143.26L188.17,143.26L188.2,129.79L188.24,143.27L188.9,143.27L188.92,143.27L189.67,136.53L189.67,143.27L189.68,143.27L189.83,143.27L189.84,136.53L190.47,129.8L190.49,143.27L190.52,136.53L190.61,136.53L191,129.8L191.36,143.27L191.4,136.53L192.2,143.27L192.23,143.27L192.79,143.27L192.79,143.27L192.81,129.8L193.56,143.27L193.56,136.53L193.61,143.27L194.02,123.06L194.18,143.27L194.33,143.27L194.5,129.8L195.03,143.27L195.1,143.27L195.29,136.53L195.85,143.27L195.86,143.27L196.49,123.06L196.58,129.8L196.6,143.27L196.8,143.27L196.81,129.8L197.56,143.27L197.58,143.27L197.66,129.8L198.29,143.27L198.34,143.27L201.37,143.27L201.39,136.53L202.21,143.27L202.21,143.27L202.24,143.27L202.85,123.06L202.98,143.27L202.99,143.27L203.14,123.06L203.77,129.79L203.8,143.27L204.53,123.06L204.55,143.26L204.58,143.26L205.32,116.32L205.39,136.53L205.45,143.26L205.61,143.26L205.61,143.26L205.61,116.32L206.27,143.26L206.29,123.05L206.38,143.26L206.71,143.26L206.71,143.26L206.79,123.05L207.28,116.31L207.5,143.26L207.52,116.31L207.54,116.31L208.3,143.26L208.31,136.53L208.32,129.79L208.32,143.26L209.04,143.26L209.1,143.26L209.42,143.26L209.44,116.31L210.21,143.26L210.32,143.26L210.58,123.04L210.99,143.26L211.12,143.26L211.13,136.52L211.84,143.26L211.89,143.26L212.3,136.52L212.64,143.26L212.69,143.26L215.54,143.26L215.54,143.26L215.56,136.52L215.63,143.26L216,129.78L216.19,143.26L216.26,143.26L216.74,143.26L216.78,129.78L217.58,143.26L217.58,143.26L217.63,143.26L218.72,143.26L218.72,143.26L218.72,136.52L219.49,143.26L219.49,143.26L219.51,143.26L220.71,143.26L220.73,136.52L221.21,123.04L221.4,143.26L221.42,123.04L222.18,143.26L222.19,136.52L222.26,136.52L222.26,143.26L222.99,143.26L223.02,143.26L223.57,143.26L223.58,123.04L224.38,143.26L224.42,143.26L225.15,143.26L225.18,123.03L225.93,143.26L226.05,136.52L226.62,143.26L226.62,143.26L226.69,129.78L226.74,123.03L226.8,143.26L227.31,143.26L227.36,143.26L228.21,136.52L228.21,136.52L228.22,143.26L228.9,136.52L228.96,143.26L229,143.26L229.34,143.26L229.35,136.52L230.23,143.26L230.23,143.26L230.26,143.26L231.04,143.26L231.04,143.26L231.08,129.78L231.81,143.26L231.81,143.26L231.88,143.26L232.03,143.26L232.03,129.78L232.79,143.26L232.79,143.26L232.8,143.26L233.06,143.26L233.06,143.26L233.06,136.52L233.84,143.26L233.85,129.79L234.61,143.26L234.64,143.26L234.88,129.79L235.39,143.26L235.4,143.26L235.76,143.26L235.8,136.52L236.58,143.26L236.6,143.26L237.18,129.79L237.34,143.26L237.36,143.26L239.54,143.26L239.54,136.53L240.34,143.26L240.34,143.26L240.36,143.26L240.71,143.26L240.76,129.79L240.8,123.05L241.5,143.26L241.52,136.53L241.54,136.53L242.38,143.26L242.4,143.26L242.69,129.79L243.16,136.53L243.19,143.26L243.41,143.26L243.44,136.53L244.2,143.26L244.21,143.26L245.05,143.26L245.05,143.26L245.11,136.53L245.83,143.26L245.85,136.53L245.89,136.53L246.63,143.26L246.63,143.26L246.69,143.26L246.95,143.26L246.95,136.53L247.72,143.26L247.74,143.26L248.13,143.26L248.13,143.26L248.18,136.53L248.93,143.26L248.93,143.26L248.96,143.26L250.3,143.26L250.3,143.26L250.4,136.53L251.16,143.26L251.16,143.26L251.19,143.26L251.23,136.53L251.93,143.26L251.96,143.26L252.13,143.26L252.13,143.26L252.17,129.79L252.94,143.26L252.99,136.53L253.47,136.52L253.75,143.26L253.75,143.26L253.78,143.26L254.48,143.26L254.48,143.26L254.48,136.52L255.12,143.26L255.12,143.26L255.16,129.79L255.16,143.26L255.18,96.09L255.89,143.26L255.97,143.26L256.52,109.56L256.67,129.78L256.79,143.26L256.95,143.26L256.95,143.26L256.99,136.52L257.69,143.26L257.69,143.26L257.77,143.26L258.33,143.26L258.33,143.26L258.35,136.52L258.35,143.26L259.1,136.52L259.15,136.52L259.93,143.26L259.96,143.26L261.41,143.26L261.41,143.26L261.43,136.52L261.49,123.04L261.52,143.26L262.17,136.52L262.17,143.26L262.76,123.04L262.9,143.26L262.93,143.26L264.26,143.26L264.31,136.52L264.84,116.29L265.05,143.26L265.05,136.52L265.09,143.26L265.25,116.29L265.51,143.26L265.52,143.26L266.18,123.03L266.26,143.26L266.28,143.26L266.88,116.29L267.01,143.26L267.07,143.26L267.21,116.29L267.79,143.26L267.83,143.26L268.44,143.26L268.47,129.77L268.47,143.26L269.2,136.51L269.24,143.26L269.72,136.51L269.91,143.26L270,143.26L270.13,136.51L270.7,143.26L270.77,143.26L270.92,143.26L270.97,136.51L271.75,143.26L271.75,143.26L271.8,143.26L272.03,143.26L272.05,136.51L272.82,143.26L272.82,143.26L272.86,143.26L273.75,143.26L273.75,136.52L274.61,143.26L274.66,143.26L275.48,143.26L275.49,136.52L276.15,143.26L276.23,136.52L276.27,136.52L277.03,143.26L277.03,143.26L277.05,136.52L277.05,143.26L277.19,123.03L277.77,143.26L277.81,143.26L278.6,143.26L278.6,143.26L278.61,136.51L278.61,143.26L279.3,143.26L279.42,143.26L281.49,143.26L281.53,116.28L282.28,143.26L282.31,143.26L282.72,143.26L282.72,143.26L282.73,136.51L283.5,143.26L283.5,143.26L283.52,143.26L284.15,123.02L284.26,143.26L284.29,143.26L284.67,129.77L285.03,143.26L285.08,143.26L285.38,143.26L285.38,143.26L285.41,136.51L285.51,129.77L286.15,143.26L286.15,143.26L286.16,129.77L286.95,143.26L286.97,143.26L287.2,143.26L287.26,136.51L287.43,136.51L287.44,143.26L287.54,129.77L288.13,143.26L288.22,143.26L288.51,116.28L288.97,143.25L288.98,143.25L289.35,136.51L289.7,143.25L289.76,143.25L290.41,136.51L290.5,143.25L290.55,143.25L296.53,143.25L296.53,136.51L296.72,143.25L296.96,129.76L297.22,136.51L297.33,143.25L297.63,116.27L298.08,143.25L298.09,143.25L298.26,143.25L298.26,143.25L298.27,123.01L298.3,116.27L299.01,143.25L299.04,143.25L300.4,143.25L300.41,136.51L301.16,143.25L301.16,143.25L301.26,143.25L301.39,136.51L301.98,143.25L302.02,143.25L302.51,143.25L302.51,136.51L303.28,143.25L303.29,136.51L304.03,143.25L304.07,143.25L305.54,143.25L305.57,136.51L305.85,129.76L306.38,143.26L306.4,143.26L307.23,143.26L307.26,136.51L307.98,143.26L308.04,143.26L308.31,129.76L308.79,143.25L308.82,143.25L308.97,143.25L308.97,143.25L308.98,136.51L309.36,129.76L309.85,143.25L309.85,143.25L309.89,129.76L310.54,143.25L310.64,123.01L311.22,89.28L311.47,143.25L311.47,143.25L311.53,143.25L312.24,136.51L312.28,143.25L312.3,143.25L313.03,102.76L313.08,143.25L313.09,116.26L313.82,143.25L313.84,143.25L314.24,143.25L314.24,129.76L314.24,143.25L314.99,143.25L315.01,143.25L315.38,129.76L315.76,143.25L315.77,143.25L316.48,143.25L316.49,136.51L316.56,123.01L317.23,143.25L317.23,136.5L317.27,136.5L317.75,123.01L317.97,143.25L317.98,136.5L318.01,129.76L318.04,143.25L318.14,109.51L318.57,143.25L318.65,143.25L318.83,143.25L318.83,143.25L318.83,136.5L319.5,123.01L319.59,143.25L319.63,143.25L320,143.25L320,123.01L320.76,143.25L320.78,136.5L320.96,143.25L321.42,129.76L321.42,129.76L321.46,143.25L321.47,129.76L322.19,143.25L322.24,143.25L322.58,129.76L322.98,143.25L323,143.25L323.3,143.25L323.3,143.25L323.3,136.5L324.07,143.25L324.08,143.25L324.68,143.25L324.68,143.25L324.71,129.76L325.49,143.25L325.51,143.25L326.34,143.25L326.36,136.5L327.11,143.25L327.11,143.25L327.13,143.25L329.37,143.25L329.37,136.5L329.87,129.76L330,143.25L330.04,129.76L330.07,123.01L330.77,143.25L330.82,129.76L330.82,143.25L331.56,143.25L331.58,143.25L332.81,143.25L332.81,143.25L332.82,136.51L333.17,129.76L333.58,143.25L333.58,143.25L333.59,143.25L334.47,143.25L334.49,136.51L335.25,143.25L335.26,136.51L335.39,143.25L335.57,129.76L335.94,143.25L335.96,143.25L336.14,143.25L336.14,143.25L336.14,136.51L336.9,143.25L336.92,136.51L337,129.76L337.7,143.25L337.7,143.25L337.76,143.25L338.1,143.25L338.11,136.51L338.11,143.25L338.77,129.76L338.84,143.25L338.88,143.25L339.41,143.25L339.41,143.25L339.48,136.51L339.5,123.01L339.53,143.25L340.23,143.25L340.25,143.25L340.43,102.78L340.73,143.25L340.81,143.25L341.27,129.76L341.51,143.25L341.56,143.25L341.88,136.51L342.3,143.25L342.33,143.25L343.37,143.25L343.4,136.51L344.19,143.25L344.23,143.25L344.87,129.76L344.93,143.25L344.99,143.25L345.16,143.25L345.25,129.76L345.25,143.25L346,136.51L346.01,136.51L346.3,123.01L346.87,143.25L346.87,143.25L346.9,143.25L347.13,143.25L347.13,143.25L347.2,136.51L347.3,143.25L347.54,129.76L347.91,143.25L347.96,143.25L348.96,143.25L348.96,136.51L349.44,116.26L349.57,143.25L349.57,143.25L349.59,116.26L350.32,143.25L350.32,129.76L350.35,129.76L351.13,143.25L351.13,143.25L351.15,143.25L352,143.25L352,136.5L352.76,143.25L352.76,143.25L352.83,143.25L353.29,136.5L353.58,143.25L353.59,143.25L353.78,143.25L353.83,123.01L354.62,143.25L354.62,143.25L354.63,143.25L355.09,143.25L355.09,143.25L355.1,123.01L355.46,116.25L355.78,143.25L355.81,116.25L355.84,116.25L355.9,15L355.94,143.25L356.55,129.75L356.58,129.75L356.79,102.75L357.39,143.25L357.42,143.25L358.46,143.25L358.49,136.5L358.5,129.75L358.55,143.25L359.23,143.25L359.27,143.25L360.03,143.25L360.03,143.25L360.04,123L360.77,143.25L360.86,143.25L361.63,109.49L361.64,136.5L361.68,143.25L361.91,89.24L362.42,143.25L362.47,143.25L363.22,143.25L363.24,136.5L364.02,143.25L364.02,143.25L364.04,143.25L364.54,143.25L364.54,143.25L364.54,136.5L365.29,143.25L365.41,143.25L365.69,143.25L365.69,143.25L365.74,136.5L366.54,143.25L366.54,143.25L366.67,143.25L366.8,136.5L367.41,143.25L367.43,143.25L368.99,143.25L368.99,143.25L369.02,123L369.48,109.49L369.79,143.25L369.79,143.25L369.85,136.5L369.97,143.25L370.35,129.75L370.59,143.25L370.61,143.25L370.94,143.25L370.95,136.5L371.84,143.25L371.84,143.25L371.87,143.25L372.6,129.75L372.61,143.25L372.64,143.25L372.93,129.75L373.39,143.25L373.4,143.25L374.19,129.75L374.2,143.25L374.22,129.75L374.94,143.25L374.96,143.25L376.15,143.25L376.15,143.25L376.17,129.75L376.17,143.25L376.89,143.25L376.98,143.25L377.2,136.5L377.7,143.25L377.74,143.25L378.63,143.25L378.67,136.5L378.69,129.75L379.41,143.25L379.46,143.25L380.06,143.25L380.08,136.5L380.87,143.25L380.87,143.25L380.95,143.25L381.17,129.75L381.66,136.5L381.72,143.25L382.42,123L382.46,136.5L382.49,136.5L382.89,116.25L383.25,143.25L383.26,143.25L383.67,109.51L384.01,143.25L384.04,143.25L384.72,123.01L384.79,143.25L384.82,143.25L385.21,143.25L385.25,123.01L385.36,116.26L386,143.25L386,143.25L386.08,143.25L386.32,123.01L386.8,143.25L386.84,143.25L386.91,116.26L387.59,143.25L387.61,143.25L388.17,143.25L388.17,136.51L388.99,143.25L388.99,143.25L389.03,143.25L389.91,143.25L389.93,136.51L390.74,143.25L390.78,143.25L390.85,129.76L391.53,143.25L391.61,143.25L392.68,143.25L392.69,136.5L393.52,143.25L393.52,143.25L393.55,143.25L394.17,123.01L394.25,136.5L394.33,136.5L394.72,123.01L395.05,143.25L395.14,143.25L395.28,136.5L395.88,143.25L395.91,143.25L396.92,143.25L396.93,136.5L397.09,129.75L397.69,143.25L397.69,143.25L397.78,129.75L398.51,143.25L398.51,143.25L398.55,143.25L399,143.25" style="vector-effect: non-scaling-stroke; fill: none; stroke: rgb(0, 204, 150); stroke-opacity: 1; stroke-width: 2px; opacity: 1;"/></g><g class="points"/><g class="text"/></g></g></g><g class="overplot"/><path class="xlines-above crisp" d="M0,0" style="fill: none;"/><path class="ylines-above crisp" d="M0,0" style="fill: none;"/><g class="overlines-above"/><g class="xaxislayer-above"><g class="xtick"><text text-anchor="start" x="0" y="416" transform="translate(206.62,0) rotate(30,0,408.5)" style="font-family: 'Times New Roman'; font-size: 15px; fill: rgb(13, 13, 13); fill-opacity: 1; white-space: pre; opacity: 1;">1.6125210<tspan style="font-size:70%" dy="-0.6em">18</tspan><tspan dy="0.42em"></tspan></text></g><g class="xtick"><text text-anchor="start" x="0" y="416" style="font-family: 'Times New Roman'; font-size: 15px; fill: rgb(13, 13, 13); fill-opacity: 1; white-space: pre; opacity: 1;" transform="translate(285.8,0) rotate(30,0,408.5)">1.61252510<tspan style="font-size:70%" dy="-0.6em">18</tspan><tspan dy="0.42em"></tspan></text></g><g class="xtick"><text text-anchor="start" x="0" y="416" style="font-family: 'Times New Roman'; font-size: 15px; fill: rgb(13, 13, 13); fill-opacity: 1; white-space: pre; opacity: 1;" transform="translate(364.98,0) rotate(30,0,408.5)">1.6125310<tspan style="font-size:70%" dy="-0.6em">18</tspan><tspan dy="0.42em"></tspan></text></g><g class="xtick"><text text-anchor="start" x="0" y="416" style="font-family: 'Times New Roman'; font-size: 15px; fill: rgb(13, 13, 13); fill-opacity: 1; white-space: pre; opacity: 1;" transform="translate(444.16,0) rotate(30,0,408.5)">1.61253510<tspan style="font-size:70%" dy="-0.6em">18</tspan><tspan dy="0.42em"></tspan></text></g><g class="xtick"><text text-anchor="start" x="0" y="416" style="font-family: 'Times New Roman'; font-size: 15px; fill: rgb(13, 13, 13); fill-opacity: 1; white-space: pre; opacity: 1;" transform="translate(523.3399999999999,0) rotate(30,0,408.5)">1.6125410<tspan style="font-size:70%" dy="-0.6em">18</tspan><tspan dy="0.42em"></tspan></text></g></g><g class="yaxislayer-above"><g class="ytick"><text text-anchor="end" x="136" y="12.25" transform="translate(0,384.71)" style="font-family: 'Times New Roman'; font-size: 35px; fill: rgb(13, 13, 13); fill-opacity: 1; white-space: pre; opacity: 1;">0.02</text></g><g class="ytick"><text text-anchor="end" x="136" y="12.25" style="font-family: 'Times New Roman'; font-size: 35px; fill: rgb(13, 13, 13); fill-opacity: 1; white-space: pre; opacity: 1;" transform="translate(0,317.36)">0.01</text></g><g class="ytick"><text text-anchor="end" x="136" y="12.25" style="font-family: 'Times New Roman'; font-size: 35px; fill: rgb(13, 13, 13); fill-opacity: 1; white-space: pre; opacity: 1;" transform="translate(0,250)">0</text></g><g class="ytick"><text text-anchor="end" x="136" y="12.25" style="font-family: 'Times New Roman'; font-size: 35px; fill: rgb(13, 13, 13); fill-opacity: 1; white-space: pre; opacity: 1;" transform="translate(0,182.64)">0.01</text></g><g class="ytick"><text text-anchor="end" x="136" y="12.25" style="font-family: 'Times New Roman'; font-size: 35px; fill: rgb(13, 13, 13); fill-opacity: 1; white-space: pre; opacity: 1;" transform="translate(0,115.28999999999999)">0.02</text></g></g><g class="overaxes-above"/></g></g><g class="polarlayer"/><g class="smithlayer"/><g class="ternarylayer"/><g class="geolayer"/><g class="funnelarealayer"/><g class="pielayer"/><g class="iciclelayer"/><g class="treemaplayer"/><g class="sunburstlayer"/><g class="glimages"/><defs id="topdefs-ffc08b"><g class="clips"/><clipPath id="legendffc08b"><rect width="144" height="67" x="0" y="0"/></clipPath></defs><g class="layer-above"><g class="imagelayer"/><g class="shapelayer"/></g><g class="infolayer"><g class="legend" pointer-events="all" transform="translate(543.98,100)"><rect class="bg" shape-rendering="crispEdges" style="stroke: rgb(68, 68, 68); stroke-opacity: 1; fill: rgb(255, 255, 255); fill-opacity: 1; stroke-width: 0px;" width="144" height="67" x="0" y="0"/><g class="scrollbox" transform="" clip-path="url(#legendffc08b)"><g class="groups"><g class="traces" transform="translate(0,14.5)" style="opacity: 1;"><text class="legendtext" text-anchor="start" x="40" y="4.680000000000001" style="font-family: 'Open Sans', verdana, arial, sans-serif; font-size: 12px; fill: rgb(42, 63, 95); fill-opacity: 1; white-space: pre;">Realized (in %)</text><g class="layers" style="opacity: 1;"><g class="legendfill"/><g class="legendlines"><path class="js-line" d="M5,0h30" style="fill: none; stroke: rgb(99, 110, 250); stroke-opacity: 1; stroke-width: 2px;"/></g><g class="legendsymbols"><g class="legendpoints"/></g></g><rect class="legendtoggle" x="0" y="-9.5" width="138.71875" height="19" style="fill: rgb(0, 0, 0); fill-opacity: 0;"/></g><g class="traces" transform="translate(0,33.5)" style="opacity: 1;"><text class="legendtext" text-anchor="start" x="40" y="4.680000000000001" style="font-family: 'Open Sans', verdana, arial, sans-serif; font-size: 12px; fill: rgb(42, 63, 95); fill-opacity: 1; white-space: pre;">Effective (in %)</text><g class="layers" style="opacity: 1;"><g class="legendfill"/><g class="legendlines"><path class="js-line" d="M5,0h30" style="fill: none; stroke: rgb(239, 85, 59); stroke-opacity: 1; stroke-width: 2px;"/></g><g class="legendsymbols"><g class="legendpoints"/></g></g><rect class="legendtoggle" x="0" y="-9.5" width="138.71875" height="19" style="fill: rgb(0, 0, 0); fill-opacity: 0;"/></g><g class="traces" transform="translate(0,52.5)" style="opacity: 1;"><text class="legendtext" text-anchor="start" x="40" y="4.680000000000001" style="font-family: 'Open Sans', verdana, arial, sans-serif; font-size: 12px; fill: rgb(42, 63, 95); fill-opacity: 1; white-space: pre;">Half Quoted (in %)</text><g class="layers" style="opacity: 1;"><g class="legendfill"/><g class="legendlines"><path class="js-line" d="M5,0h30" style="fill: none; stroke: rgb(0, 204, 150); stroke-opacity: 1; stroke-width: 2px;"/></g><g class="legendsymbols"><g class="legendpoints"/></g></g><rect class="legendtoggle" x="0" y="-9.5" width="138.71875" height="19" style="fill: rgb(0, 0, 0); fill-opacity: 0;"/></g></g></g><rect class="scrollbar" rx="20" ry="3" width="0" height="0" style="fill: rgb(128, 139, 164); fill-opacity: 1;" x="0" y="0"/></g><g class="g-gtitle"/><g class="g-xtitle"><text class="xtitle" x="336.5" y="487.503125" text-anchor="middle" style="font-family: 'Open Sans', verdana, arial, sans-serif; font-size: 14px; fill: rgb(42, 63, 95); opacity: 1; font-weight: normal; white-space: pre;">Time Steps (ns)</text></g><g class="g-ytitle" transform="translate(24,0)"><text class="ytitle" transform="rotate(-90,12,250)" x="12" y="250" text-anchor="middle" style="font-family: 'Times New Roman'; font-size: 40px; fill: rgb(13, 13, 13); opacity: 1; font-weight: normal; white-space: pre;">Spreads (in %)</text></g></g></svg>