<svg class="main-svg" xmlns="http://www.w3.org/2000/svg" xmlns:xlink="http://www.w3.org/1999/xlink" width="700" height="500" style="" viewBox="0 0 700 500"><rect x="0" y="0" width="700" height="500" style="fill: rgb(255, 255, 255); fill-opacity: 1;"/><defs id="defs-470883"><g class="clips"><clipPath id="clip470883xyplot" class="plotclip"><rect width="511" height="320"/></clipPath><clipPath class="axesclip" id="clip470883x"><rect x="109" y="0" width="511" height="500"/></clipPath><clipPath class="axesclip" id="clip470883y"><rect x="0" y="100" width="700" height="320"/></clipPath><clipPath class="axesclip" id="clip470883xy"><rect x="109" y="100" width="511" height="320"/></clipPath></g><g class="gradients"/><g class="patterns"/></defs><g class="bglayer"><rect class="bg" x="109" y="100" width="511" height="320" style="fill: rgb(229, 236, 246); fill-opacity: 1; stroke-width: 0;"/></g><g class="layer-below"><g class="imagelayer"/><g class="shapelayer"/></g><g class="cartesianlayer"><g class="subplot xy"><g class="layer-subplot"><g class="shapelayer"/><g class="imagelayer"/></g><g class="minor-gridlayer"><g class="x"/><g class="y"/></g><g class="gridlayer"><g class="x"><path class="xgrid crisp" transform="translate(198.17000000000002,0)" d="M0,100v320" style="stroke: rgb(255, 255, 255); stroke-opacity: 1; stroke-width: 1px;"/><path class="xgrid crisp" transform="translate(299.57,0)" d="M0,100v320" style="stroke: rgb(255, 255, 255); stroke-opacity: 1; stroke-width: 1px;"/><path class="xgrid crisp" transform="translate(400.97,0)" d="M0,100v320" style="stroke: rgb(255, 255, 255); stroke-opacity: 1; stroke-width: 1px;"/><path class="xgrid crisp" transform="translate(502.38,0)" d="M0,100v320" style="stroke: rgb(255, 255, 255); stroke-opacity: 1; stroke-width: 1px;"/><path class="xgrid crisp" transform="translate(603.78,0)" d="M0,100v320" style="stroke: rgb(255, 255, 255); stroke-opacity: 1; stroke-width: 1px;"/></g><g class="y"><path class="ygrid crisp" transform="translate(0,346.86)" d="M109,0h511" style="stroke: rgb(255, 255, 255); stroke-opacity: 1; stroke-width: 1px;"/><path class="ygrid crisp" transform="translate(0,289.15)" d="M109,0h511" style="stroke: rgb(255, 255, 255); stroke-opacity: 1; stroke-width: 1px;"/><path class="ygrid crisp" transform="translate(0,231.43)" d="M109,0h511" style="stroke: rgb(255, 255, 255); stroke-opacity: 1; stroke-width: 1px;"/><path class="ygrid crisp" transform="translate(0,173.72)" d="M109,0h511" style="stroke: rgb(255, 255, 255); stroke-opacity: 1; stroke-width: 1px;"/><path class="ygrid crisp" transform="translate(0,116)" d="M109,0h511" style="stroke: rgb(255, 255, 255); stroke-opacity: 1; stroke-width: 1px;"/></g></g><g class="zerolinelayer"><path class="yzl zl crisp" transform="translate(0,404.58)" d="M109,0h511" style="stroke: rgb(255, 255, 255); stroke-opacity: 1; stroke-width: 2px;"/></g><path class="xlines-below"/><path class="ylines-below"/><g class="overlines-below"/><g class="xaxislayer-below"/><g class="yaxislayer-below"/><g class="overaxes-below"/><g class="plot" transform="translate(109,100)" clip-path="url(#clip470883xyplot)"><g class="scatterlayer mlayer"><g class="trace scatter trace4f0e3f" style="stroke-miterlimit: 2; opacity: 1;"><g class="fills"/><g class="errorbars"/><g class="lines"><path class="js-line" d="M0,16L0.29,16L0.33,235.32L0.35,298.81L0.39,16L1.08,249.75L1.1,151.63L1.58,258.4L1.83,16L1.83,16L1.85,290.15L2.78,16L2.87,16L2.89,281.49L3.62,96.8L3.65,16L3.79,284.38L3.79,70.83L3.86,16L4.17,294L4.52,96.8L4.63,16L5.11,293.19L5.38,212.23L5.38,108.34L5.75,16L6.01,301.69L6.02,16L6.2,16L6.94,291.59L6.97,278.61L6.98,41.97L7.14,220.89L7.18,16L7.22,220.89L7.23,287.26L7.36,16L7.87,174.72L7.98,174.72L8,16L8.49,287.26L8.7,16L8.76,289.59L8.78,16L9.48,46.15L9.52,16L10.07,278.61L10.23,16L10.28,28.99L10.28,16L10.28,295.92L11.01,160.29L11.06,16L11.07,281.49L11.69,281.49L11.88,264.18L11.9,16L12.07,300.25L12.59,16L12.66,125.66L12.68,16L13.29,293.03L13.39,290.15L13.42,246.86L13.63,290.15L14.16,16L14.17,105.46L14.25,16L14.4,298.81L14.99,16L15.02,35.48L15.03,285.1L15.22,16L15.74,238.2L15.8,16L16.11,295.92L16.53,105.46L16.6,16L17.31,295.92L17.35,16L17.39,16L17.62,16L17.65,174.72L17.66,16L17.68,298.81L18.33,128.55L18.45,192.03L18.52,16L19.15,296.67L19.25,16L19.87,284.38L20.02,174.72L20.12,145.86L20.24,16L20.38,301.69L20.73,85.26L20.89,16L21.44,272.83L21.57,119.89L21.72,16L21.83,303.13L22.38,16L22.44,16L22.5,301.69L23.18,295.92L23.21,24.66L23.32,16L23.91,303.86L24.01,36.61L24.02,16L24.27,285.82L24.71,16L24.81,16L25.15,285.24L25.62,226.66L25.62,93.92L25.65,278.61L25.65,16L26.33,16L26.36,16L26.85,298.81L27.11,16L27.15,16L27.29,298.81L27.89,232.43L28.02,16L28.12,301.69L28.77,44.86L28.8,275.72L28.82,16L29.51,284.38L29.51,170.39L29.56,82.37L29.59,16L29.85,261.29L30.3,62.17L30.34,258.4L31,269.95L31.07,16L31.07,163.17L31.11,163.17L31.19,89.59L31.19,16L31.47,298.36L31.9,107.82L31.98,73.72L32,264.18L32.11,16L32.65,148.75L32.73,16L33.35,281.49L33.38,275.72L33.41,16L34.04,292.03L34.1,183.37L34.19,183.37L34.2,16L34.2,298.81L34.92,16L34.97,16L35.69,264.18L35.75,229.55L35.75,91.03L35.86,16L36.26,301.69L36.47,200.69L36.49,16L36.95,301.69L37.2,82.37L37.27,235.32L37.29,16L37.97,298.81L37.97,16L38.03,93.92L38.07,16L38.34,275L38.77,108.34L38.81,16L39.09,297.36L39.61,249.75L39.63,125.66L40.24,295.2L40.32,16L40.33,242.53L40.33,16L40.94,303.13L41.02,293.03L41.09,41.65L41.1,16L41.84,301.69L41.84,16L41.85,275L42.16,288.71L42.56,16L42.68,16L42.75,303.86L43.39,243.98L43.42,16L44.04,298.81L44.15,16L44.19,16L44.88,290.15L44.91,16L44.96,16L45.23,290.15L45.8,278.61L45.8,41.97L46,16L46.24,278.61L46.39,137.2L46.41,16L46.77,303.62L47.17,256.96L47.23,16L47.82,294.48L47.97,16L48,16L48.21,16L48.22,216.56L48.22,16L48.54,287.26L48.96,16L48.99,285.1L49.5,295.92L49.67,16L49.72,215.12L49.74,295.92L49.74,16L50.44,272.83L50.5,47.74L50.56,16L50.72,302.41L51.25,16L51.26,16L51.52,303.13L51.84,47.74L51.87,16L51.88,288.71L52.61,82.37L52.63,145.86L53.35,16L53.35,298.81L53.35,21.77L53.4,73.72L53.43,16L53.57,298.81L54.14,30.43L54.18,140.09L54.27,16L54.61,293.76L54.93,16L54.95,117L55,16L55.56,297.36L55.62,167.5L55.72,206.46L56.18,294.48L56.47,16L56.47,16L56.47,278.61L56.47,16L56.88,293.03L57.19,16L57.26,16L57.5,294.04L58.01,16L58.04,212.23L58.47,302.95L58.67,16L58.67,16L58.72,215.35L58.77,284.38L59.52,16L59.57,209.35L59.57,16L59.97,278.61L60.32,151.63L60.35,249.03L60.35,16L61.09,295.92L61.1,255.52L61.18,65.06L61.32,16L61.48,287.26L61.91,16L61.95,44.86L61.97,16L62.5,299.23L62.65,151.63L62.72,301.69L62.75,16L63.09,303.86L63.45,277.16L63.49,16L64.14,301.69L64.22,79.49L64.22,16L64.33,301.69L64.94,134.32L65,127.9L65.07,16L65.63,301.69L65.75,264.18L65.84,16L66.4,293.03L66.48,227.48L66.53,16L67.01,243.98L67.1,16L67.12,16L67.38,236.76L67.68,16L67.72,16L68.01,243.98L68.11,225.11L68.11,16L68.65,298.81L68.79,196.36L68.86,50.63L68.87,16L69.26,275.72L69.61,16L69.65,16L70.01,290.15L70.4,161.22L70.5,96.8L70.57,16L70.79,298.81L71.21,281.49L71.27,102.57L71.37,16L71.54,300.54L71.97,102.57L72.03,192.03L72.12,16L72.45,293.03L72.74,293.03L72.8,16L73.14,301.69L73.28,281.49L73.32,16L73.36,303.13L74.05,56.4L74.08,16L74.11,293.03L74.81,131.43L74.84,50.63L75,16L75.51,300.97L75.57,16L75.6,33.31L75.8,295.92L75.89,16L76.16,206.46L76.17,41.97L76.17,16L76.61,293.03L76.84,293.03L76.93,16L77.07,285.1L77.67,16L77.72,16L77.85,293.79L78.43,16L78.48,16L78.65,16L78.67,209.35L79.26,298.81L79.39,16L79.43,137.2L79.43,16L79.73,292.59L80.15,16L80.21,188.58L80.33,295.92L80.97,16L80.97,160.29L81.16,272.11L81.62,16L81.62,24.66L81.62,293.19L82.28,16L82.33,33.31L82.37,287.26L83.12,16L83.13,24.66L83.13,295.92L83.72,16L83.78,255.52L83.99,248.3L84.65,16L84.65,277.16L84.65,129.54L84.79,16L85.29,278.61L85.51,137.2L85.56,16L86.25,295.92L86.28,16L86.7,273.56L87.04,243.98L87.07,16L87.16,200.69L87.25,24.66L87.27,16L87.96,300.25L87.96,16L88.05,67.94L88.18,16L88.51,301.69L88.79,36.2L88.86,16L89.22,301.69L89.6,166.06L89.64,16L89.88,301.69L90.36,16L90.46,16L91.09,294.48L91.16,16L91.28,76.6L91.34,16L91.97,293.03L92.01,157.4L92.08,16L92.15,293.03L92.74,16L92.83,16L93.54,298.81L93.56,16L93.59,16L93.79,16L93.81,160.29L93.81,16L94.39,287.26L94.55,16L94.58,229.55L94.58,16L95.08,301.69L95.33,16L95.43,85.26L95.47,16L95.77,284.38L96.15,183.37L96.19,16L96.31,298.81L96.94,16L96.95,16L97.61,302.41L97.72,141.3L97.74,16L97.98,301.69L98.47,18.89L98.49,30.43L98.56,301.69L98.63,16L99.2,16L99.25,35.03L99.43,284.38L99.94,16L100,70.83L100,277.16L100.02,16L100.72,16L100.76,163.17L100.8,16L101.31,298.81L101.49,52.07L101.53,171.39L102.08,301.69L102.13,16L102.18,27.54L102.21,293.03L102.21,16L102.68,302.41L102.94,67.94L102.99,252.63L103.16,297.98L103.69,16L103.73,85.26L103.76,269.95L103.82,16L104.24,282.93L104.46,16L104.58,16L104.59,276.44L105.33,16L105.34,16L106.09,301.69L106.11,203.58L106.11,109.19L106.23,303.13L106.82,16L106.83,21.77L106.83,287.6L106.84,287.26L106.86,73.72L106.94,16L107.18,293.03L107.61,93.92L107.62,226.66L108.03,295.92L108.3,16L108.37,36.2L108.41,16L108.67,295.92L109.13,130.01L109.24,163.17L109.26,16L109.67,301.69L109.99,36.2L110,16L110.24,298.81L110.69,16L110.77,272.83L110.83,298.81L110.83,16L110.91,53.52L110.95,16L111.01,301.69L111.73,206.46L111.76,141.79L111.8,16L112.49,301.69L112.51,18.89L112.56,301.69L112.56,16L113.3,16L113.32,254.8L113.92,297.36L114.08,16L114.09,119.89L114.38,293.03L114.83,16L114.88,16L115.09,200.69L115.09,168.64L115.1,269.95L115.77,290.15L115.85,16L115.86,177.6L115.91,16L116.57,287.26L116.59,287.26L116.64,16L116.99,303.86L117.39,125.66L117.41,18.89L117.45,16L117.45,301.69L118.22,16L118.29,166.06L118.29,254.56L118.3,16L119.04,177.41L119.07,91.03L119.09,16L119.46,290.15L119.81,16L119.83,16L120.54,293.03L120.57,57.23L120.59,16L120.85,298.81L121.34,16L121.36,16L121.93,302.41L122.04,16L122.1,16L122.78,295.92L122.84,226.66L122.91,16L123.69,301.69L123.69,18.89L123.73,16L124.17,301.69L124.45,150.88L124.49,16L125.19,284.38L125.24,125.66L125.25,16L125.87,299.53L126.03,255.52L126.03,26.07L126.22,301.69L126.38,16L126.38,256.48L127.02,297.36L127.15,16L127.17,284.38L127.89,303.86L127.89,16L127.9,226.66L127.96,16L128.66,290.15L128.71,16L128.74,16L128.76,295.92L129.5,249.75L129.5,70.83L129.94,295.92L130.22,16L130.31,16L130.35,295.92L130.97,16L131.11,16L131.32,303.13L131.83,235.32L131.9,134.32L131.9,16L132.55,295.2L132.62,154.52L132.68,16L133.4,284.38L133.44,16L134.12,287.26L134.18,16L134.23,36.2L134.53,16L134.66,293.03L134.95,16L134.98,16L135.71,287.26L135.73,16L135.74,197.8L135.84,16L136.16,290.15L136.48,143.73L136.6,114.12L136.65,16L136.79,284.25L137.33,102.57L137.4,16L137.49,295.92L138.13,16L138.19,16L138.29,296.64L138.96,163.17L139.03,171.83L139.07,16L139.2,264.18L139.72,16L139.83,243.98L139.83,16L139.98,294.48L140.57,16L140.61,62.17L140.63,298.81L140.65,16L141.36,36.2L141.4,284.38L142.14,16L142.16,116.04L142.19,238.93L142.19,16L142.84,296.98L142.95,16L143.34,287.26L143.6,16L143.76,187.7L143.84,16L144.12,287.26L144.51,16L144.52,303.86L144.52,16L145.25,62.17L145.31,62.17L145.33,16L145.35,298.81L146.05,16L146.07,16L146.12,287.98L146.78,267.06L146.85,53.52L146.88,16L147.59,298.81L147.6,16L147.63,27.54L147.63,298.81L147.63,16L148.34,222.33L148.4,142.97L148.5,16L148.95,295.92L149.15,261.29L149.2,16L149.38,295.92L149.69,16L149.78,16L149.97,273.41L150.56,261.29L150.62,59.29L150.68,16L150.74,275.72L151.33,16L151.44,16L151.89,300.73L152.09,189.15L152.14,16L152.64,295.92L152.89,16L152.94,218L152.94,16L153.49,295.2L153.69,183.37L153.74,16L154.28,290.15L154.43,235.32L154.54,157.4L154.63,16L154.86,295.92L155.13,226.66L155.13,16L155.71,303.13L155.86,16L156.12,16L156.12,287.26L156.87,78.04L156.91,242.53L157.24,301.69L157.73,16L157.73,287.26L158.31,293.48L158.44,16L158.48,104.24L158.55,258.4L158.56,16L158.86,300.97L159.3,16L159.33,16L159.87,300.25L160.07,160.29L160.1,16L160.61,295.92L160.84,261.29L160.91,16L161.63,297.51L161.68,240.82L161.68,16L162.31,298.81L162.43,16L162.44,16L162.62,16L162.68,49.91L162.68,271.39L162.68,16L163.42,16L163.48,235.32L163.48,293.03L163.52,16L164.23,199.25L164.24,16L164.66,294.48L164.99,148.75L165.02,16L165.75,272.83L165.79,16L166.37,298.09L166.53,238.2L166.57,16L167.26,301.69L167.31,16L167.34,16L168.08,297.36L168.1,290.15L168.14,220.89L168.22,290.15L168.36,16L168.89,16L168.9,49.17L168.96,16L169.26,291.59L169.65,140.48L169.75,16L169.93,287.26L170.48,189.15L170.53,160.29L170.53,16L171.06,279.48L171.26,16L171.35,269.95L171.36,16L171.6,298.81L172.1,176.16L172.23,16L172.24,291.59L172.98,16L173.01,16L173.06,24.66L173.08,295.92L173.21,301.69L173.75,16L173.78,218L173.78,16L174.18,296.17L174.53,294.48L174.6,196.36L174.7,16L175.11,298.92L175.14,16L175.31,16L175.38,24.66L175.38,295.92L175.5,298.81L176.12,16L176.13,82.37L176.18,27.54L176.23,16L176.73,300.25L176.93,16L176.94,209.35L176.98,16L177.17,299.53L177.69,16L177.7,295.92L178.15,16L178.2,108.34L178.2,281.49L178.21,295.92L178.27,16L178.83,177.6L178.88,16L179.51,301.69L179.61,16L179.64,16L179.81,300.97L180.26,16L180.33,16L180.5,284.38L181.09,119.89L181.13,200.69L181.24,16L181.54,265.62L181.57,82.37L181.57,16L182.1,272.83L182.28,16L182.38,215.12L182.38,16L182.99,298.81L183.11,16L183.14,212.23L183.14,16L183.4,287.26L183.89,180.49L183.93,122.77L183.98,16L184.49,298.81L184.65,16L184.69,16L184.72,287.98L185.44,16L185.47,177.6L185.62,16L185.72,289.43L186.19,246.86L186.23,275.72L186.26,16L186.38,298.08L186.98,255.52L186.99,171.83L187.04,16L187.52,284.38L187.72,206.46L187.89,234.49L187.9,16L188.24,301.69L188.64,201.75L188.69,39.09L188.69,16L188.7,301.72L189.42,16L189.49,16L189.7,266.34L190.22,186.26L190.26,16L190.85,303.13L191,16L191.02,16L191.16,303.13L191.76,36.2L191.79,27.54L191.88,16L192.27,301.69L192.53,16L192.55,241.09L192.57,16L192.81,291.59L193.29,182.49L193.31,183.07L193.31,298.81L193.31,16L194.05,16L194.08,16L194.13,21.77L194.13,21.77L194.2,298.81L194.47,301.69L194.9,16L194.97,56.4L194.97,264.18L195.14,303.13L195.72,16L195.73,128.55L195.79,192.03L195.79,16L195.93,284.38L196.53,16L196.57,16L197.23,302.41L197.32,16L197.88,301.69L198.03,96.8L198.03,16L198.03,295.92L198.76,96.8L198.79,272.51L198.79,16L199.46,290.87L199.49,16L199.55,246.86L199.62,301.69L200.27,16L200.3,111.23L200.32,27.54L200.71,16L200.77,298.81L200.99,226.66L201,16L201.13,296.17L201.7,16L201.76,16L202.44,289.67L202.52,215.12L202.53,16L203.03,303.13L203.3,278.61L203.3,173.27L203.43,222.96L203.83,16L203.93,189.15L204.05,269.95L204.06,16L204.2,274.28L204.76,190.24L204.82,16L205.14,298.81L205.56,16L205.58,16L205.6,284.38L206.33,73.72L206.39,138.09L206.52,284.38L206.52,16L207.14,16L207.16,284.38L207.16,16L207.79,295.92L207.84,241.09L207.95,16L208.17,278.61L208.7,241.09L208.7,16L209.18,298.81L209.39,290.15L209.48,16L209.63,16L209.65,254.8L209.79,16L209.97,287.26L210.4,160.29L210.42,160.29L211.12,16L211.15,290.87L211.18,211.82L211.24,212.23L211.3,287.26L211.85,298.81L212.01,16L212.12,16L212.69,295.92L212.86,16L212.9,16L213.03,303.13L213.63,235.32L213.68,16L214.31,291.59L214.4,96.8L214.46,96.8L214.52,16L215.09,289.06L215.19,16L215.26,33.31L215.26,287.26L215.29,16L216,16L216.07,177.6L216.19,16L216.23,295.92L216.8,238.2L216.88,24.66L216.94,16L217.45,299.53L217.54,16L217.65,82.37L218.19,291.59L218.21,16L218.33,128.55L218.38,171.83L218.56,16L218.87,284.38L219.13,16L219.18,16L219.31,295.92L219.88,16L219.98,16L220.62,298.81L220.74,272.83L220.77,99.69L220.87,16L221.15,278.61L221.49,16L221.57,16L222.22,294.48L222.27,16L222.39,264.18L223.02,275.72L223.12,16L223.16,47.74L223.16,272.83L223.22,16L223.53,287.26L223.91,16L223.92,16L224.06,303.13L224.67,117L224.68,203.58L224.91,293.03L225.36,16L225.4,255.52L225.43,16L226.04,293.76L226.14,16L226.16,16L226.63,303.13L226.94,261.29L226.94,59.29L226.96,16L227.2,290.15L227.69,91.03L227.74,16L227.88,300.25L228.49,16L228.52,246.14L229.17,290.15L229.28,16L229.28,287.26L229.4,16L229.47,301.69L230.03,201.75L230.05,271.78L230.47,296.4L230.68,16L230.84,194.92L230.85,16L231.32,298.81L231.57,125.66L231.62,16L231.91,298.81L232.37,206.46L232.38,16L232.89,301.72L233.07,117L233.14,16L233.76,301.69L233.9,293.03L233.99,27.54L234.03,16L234.22,303.13L234.73,281.49L234.75,16L235.2,296.64L235.54,220.89L235.55,99.69L235.73,16L235.89,298.81L236.24,21.77L236.32,298.81L236.35,16L237.04,44.86L237.09,65.06L237.14,275.72L237.25,16L237.77,65.06L237.87,88.14L238.38,301.69L238.57,16L238.58,163.17L238.59,16L238.7,273.56L239.3,16L239.35,166.06L239.38,16L240.01,269.47L240.05,16L240.11,93.92L240.16,16L240.81,275.72L240.86,44.86L240.89,16L240.99,293.03L241.61,108.34L241.61,16L242,298.81L242.35,39.09L242.38,16L242.95,296.98L243.13,16L243.15,16L243.71,297.71L243.81,16L243.93,16L244.29,298.81L244.68,16L244.76,16L244.91,292.03L244.91,77.84L244.93,16L245.69,294.27L245.69,47.74L245.69,272.83L245.83,16L246.43,174.72L246.47,272.11L246.47,16L246.9,293.03L247.21,16L247.27,16L247.67,298.08L248.04,203.58L248.04,117L248.04,16L248.32,298.08L248.69,67.53L248.88,50.63L248.9,16L249.24,301.69L249.62,171.83L249.68,206.46L249.68,16L250.19,284.38L250.43,16L250.44,16L250.68,297.45L251.09,24.66L251.12,16L251.47,297.54L251.78,16L251.91,16L252.42,298.81L252.66,281.49L252.75,203.58L252.76,16L253.11,301.69L253.5,16L253.51,273.56L253.82,298.08L254.09,16L254.24,65.06L254.24,292.31L254.62,298.81L255.02,16L255.06,249.75L255.07,16L255.36,301.69L255.8,16L255.87,186.26L256.04,16L256.23,301.1L256.58,25.62L256.64,186.26L256.67,16L256.84,271.39L257.39,221.74L257.46,105.46L257.51,16L257.71,275.72L258.18,67.94L258.22,290.15L258.24,16L258.97,16L258.98,16L259.5,300.25L259.72,140.09L259.76,180.49L260.11,269.47L260.41,16L260.44,251.91L260.64,255.52L260.79,16L260.89,65.06L260.9,255.52L261.02,16L261.16,293.8L261.63,70.83L261.67,249.75L261.76,301.06L261.86,16L262.41,91.03L262.46,229.55L262.46,16L263.2,301.69L263.23,16L263.96,275.35L263.96,39.09L263.97,16L264.71,293.03L264.72,168.95L264.73,16L265.21,301.69L265.46,177.6L265.5,142.97L265.92,264.18L266.13,16L266.25,56.4L266.25,264.18L266.87,299.87L266.92,16L266.93,284.38L267.04,264.18L267.04,16L267.4,295.7L267.79,16L267.84,16L268.18,302.41L268.54,37.64L268.63,16L268.75,284.38L269.37,16L269.39,16L270.14,298.81L270.14,233.88L270.16,21.77L270.16,298.81L270.21,16L270.91,27.54L270.92,293.03L271.82,16L271.84,137.2L271.87,16L272.25,293.03L272.53,246.86L272.6,16L273,296.88L273.35,197.8L273.36,16L273.94,295.92L274.11,189.15L274.21,246.86L274.21,16L274.45,298.81L274.96,186.26L275.1,134.32L275.75,274.28L275.83,16L275.83,184.34L275.85,232.43L275.97,16L276.55,301.69L276.59,16L276.63,145.86L277,299.53L277.22,16L277.37,30.43L277.37,290.15L278.1,16L278.12,18.89L278.12,303.86L278.78,16L278.8,269.95L279.35,274.28L279.49,16L279.55,117L279.58,222.13L279.63,16L280.14,298.81L280.29,39.09L280.43,18.89L280.43,301.69L280.51,16L281.12,16L281.19,16L281.32,301.69L281.94,151.63L281.96,16L282.66,298.81L282.7,16L282.74,16L282.78,27.54L282.94,16L282.98,293.03L282.99,298.81L283.05,16L283.66,16L283.76,16L284.3,301.69L284.5,16L284.54,91.03L284.56,16L284.75,303.13L285.26,276.87L285.31,16L285.94,303.13L285.98,16L286.2,157.4L286.2,16L286.92,290.15L286.94,16L286.96,65.06L286.99,295.92L287.67,16L287.77,16L288.13,303.86L288.47,16L288.54,16L289.18,303.13L289.33,140.09L289.33,16L289.51,16L289.53,278.34L289.76,16L290.23,16L290.32,16L290.63,16L290.63,16L290.63,243.25L290.65,16L291.35,297.36L291.36,108.34L291.4,16L291.72,290.15L292.14,16L292.17,16L292.72,255.52L292.96,186.26L293.01,16L293.65,303.13L293.8,298.81L293.8,21.77L293.86,16L293.92,298.92L293.92,16L294.67,16L294.68,91.03L295.07,285.1L295.19,16L295.3,125.66L295.32,298.92L295.39,16L295.98,16L296.08,16L296.83,299.53L296.88,16L297.16,298.92L297.58,206.46L297.65,16L297.86,290.15L298.41,241.09L298.41,79.49L298.74,260.33L299.05,16L299.15,282.93L299.15,16L299.33,298.81L299.9,16L299.93,142.97L299.98,16L300.44,264.18L300.66,16L300.73,16L301.4,268.05L301.54,232.43L301.54,16L301.84,269.95L302.3,236.04L302.31,16L302.93,294.48L303.06,117L303.11,16L303.56,301.69L303.86,16L303.87,16L303.96,281.56L304.61,16L304.63,16L305.21,301.69L305.37,16L305.39,16L305.42,303.86L306.13,243.44L306.17,16L306.86,303.13L306.97,180.49L306.97,140.09L307.01,16L307.31,301.69L307.71,16L307.8,44.86L307.85,16L307.96,295.27L308.53,16L308.6,73.72L308.66,298.81L308.71,16L309.34,142.97L309.38,16L310.04,242.05L310.15,223.78L310.2,96.8L310.54,302.65L310.94,16L310.99,16L311.09,33.31L311.2,16L311.22,287.26L311.22,16L311.32,297.36L311.93,128.55L311.98,128.55L312.01,16L312.1,300.97L312.72,16L312.75,16L312.79,290.15L313.5,16L313.52,16L313.91,300.45L314.25,85.26L314.29,16L315.04,285.82L315.04,53.52L315.06,117L315.07,16L315.63,295.92L315.81,105.46L315.86,111.23L315.94,16L316.27,297.36L316.6,16L316.69,47.74L316.69,272.83L316.75,16L317.43,16L317.46,81.34L317.46,16L317.7,292.55L318.13,16L318.25,16L318.98,301.69L319,71.26L319.15,232.43L319.24,16L319.33,301.69L319.89,53.52L319.94,16L320.44,285.82L320.69,161.34L320.7,212.23L321.42,16L321.43,268.51L321.49,232.43L321.84,16L321.9,284.38L322.23,157.4L322.27,85.26L322.31,16L322.77,300.25L323.02,56.4L323.13,16L323.47,298.81L323.82,255.52L323.89,16L324.34,298.81L324.64,16L324.65,16L325.42,301.69L325.44,18.89L325.45,16L325.45,163.17L325.45,157.4L325.45,301.69L326.18,16L326.23,220.89L326.56,290.87L327.04,16L327.04,16L327.05,114.12L327.06,16L327.65,302.41L327.72,267.06L327.82,85.26L328.09,295.92L328.39,16L328.43,255.52L328.53,285.82L328.97,287.26L329.29,16L329.29,264.18L329.32,16L329.33,292.31L330.03,218L330.12,161.73L330.12,301.69L330.18,16L330.87,16L330.9,252.63L330.97,16L331.2,287.98L331.64,160.29L331.67,160.29L332.04,301.69L332.31,16L332.33,186.26L332.4,232.43L332.5,16L332.55,298.08L333.14,189.15L333.16,16L333.87,261.29L333.95,59.29L334.57,298.81L334.61,16L334.67,134.32L334.74,186.26L334.75,16L335.03,261.29L335.45,119.89L335.52,200.69L335.55,16L336.19,293.03L336.25,27.54L336.35,16L336.52,293.03L336.96,16L337.09,16L337.29,299.96L337.83,281.49L337.87,16L338.4,294.48L338.57,16L338.68,16L338.8,290.15L339.41,16L339.44,16L340.19,296.09L340.21,16L340.38,301.69L340.97,186.26L340.98,16L341.56,301.69L341.7,16L341.77,212.23L341.89,16L342.22,275.72L342.51,16L342.54,16L343.18,298.81L343.29,249.03L343.37,16L343.58,294.48L343.93,16L343.99,16L344.54,290.15L344.72,16L344.75,16L344.85,298.81L345.24,65.06L345.26,16L345.32,288.8L345.96,134.32L346.1,16L346.9,295.92L346.9,186.26L346.9,16L347.58,293.03L347.63,24.66L347.66,295.92L347.66,16L347.68,301.69L348.41,16L348.43,16L348.48,290.15L349.06,110.69L349.07,16L349.46,298.08L349.78,16L349.89,16L350.59,284.38L350.59,238.99L350.7,16L350.9,293.03L351.34,189.15L351.35,16L351.62,284.11L352.09,134.32L352.13,275.72L352.55,295.92L352.84,16L352.87,157.4L352.92,168.95L353.02,290.15L353.67,16L353.67,16L353.68,166.06L353.68,16L354.09,287.26L354.42,16L354.45,16L354.52,295.92L355.19,148.75L355.24,148.75L355.55,295.2L356.02,16L356.05,269L356.16,303.62L356.8,16L356.82,91.03L356.82,229.55L357.16,300.97L357.63,16L357.63,208.38L357.63,16L358.3,290.15L358.37,174.72L358.45,145.86L358.45,16L359.04,301.69L359.18,16L359.22,47.74L359.49,16L359.7,300.97L359.97,284.38L359.98,56.4L360.03,16L360.41,281.49L360.71,16L360.75,39.09L361.03,301.69L361.25,16L361.31,59.29L361.31,260.41L361.61,301.69L362.08,16L362.08,264.18L362.39,295.92L362.83,16L362.91,16L363.34,299.53L363.66,16L363.67,16L363.86,16L363.86,119.89L363.92,16L363.93,285.82L364.46,171.83L364.57,16L365.32,272.83L365.33,154.02L365.53,16L366.04,292.46L366.08,85.26L366.11,235.32L366.44,265.73L366.86,16L366.86,16L366.87,275.72L367.47,302.85L367.53,16L367.62,41.97L367.68,16L368.19,290.15L368.43,16L368.48,16L368.61,285.82L369.23,137.2L369.24,16L369.86,269.95L369.97,59.29L370.02,16L370.49,298.69L370.56,16L371.32,295.92L371.35,16L371.54,295.92L371.69,177.6L371.77,16L372.25,289.43L372.53,200.69L372.62,119.89L372.76,16L372.97,286.11L373.16,197.8L373.17,16L373.26,284.38L373.91,16L373.93,275.72L373.97,16L374.63,282.59L374.67,134.32L374.7,148.75L374.73,301.69L374.82,16L375.44,44.86L375.52,16L376.03,298.81L376.27,108.34L376.28,142.97L376.53,16L376.6,275.72L376.82,209.35L376.84,16L377.55,295.92L377.6,261.29L377.69,59.29L377.71,16L378.4,290.15L378.42,255.52L378.47,245.16L378.91,294.48L379.19,16L379.34,16L379.46,300.97L380.05,142.97L380.14,177.6L380.14,16L380.6,264.18L380.89,56.4L380.97,16L381.66,300.25L381.71,232.43L381.75,16L382.51,295.92L382.53,30.43L382.57,16L382.61,30.43L382.61,290.15L382.77,293.03L383.26,16L383.31,62.17L383.38,16L383.92,295.92L384.09,197.8L384.11,33.31L384.12,16L384.56,301.69L384.82,16L384.87,16L385.31,301.69L385.62,16L385.65,16L386.28,291.59L386.38,16L386.49,18.89L386.49,301.69L386.49,16L387.22,56.4L387.27,16L387.74,300.78L387.92,148.75L387.94,16L388.01,301.69L388.68,56.4L388.7,119.45L388.73,16L389.25,281.49L389.42,264.18L389.49,203.58L389.6,16L390.19,295.92L390.24,278.61L390.28,16L390.93,300.97L391.03,187.7L391.07,16L391.58,290.15L391.82,16L391.84,240.37L392.54,16L392.55,294.48L392.56,37.12L392.62,22.63L392.62,16L393.3,298.81L393.37,298.81L393.41,16L393.42,298.81L393.68,255.52L393.71,16L394.34,295.92L394.43,16L394.5,16L394.52,294L395.26,263.74L395.26,41.97L395.36,16L395.74,288.24L395.89,16L395.93,16L396.43,289.7L396.58,16L396.7,16L397.39,300.25L397.45,24.66L397.49,24.66L397.54,16L398.17,295.92L398.24,16L398.25,298.81L398.98,16L399,41.97L399.05,278.61L399.6,288.24L399.71,16L399.74,151.35L399.74,189.15L399.89,218L400.53,16L400.54,194.92L400.7,301.69L401.25,16L401.31,21.77L401.31,16L401.68,298.81L402.05,114.12L402.11,245.16L402.11,16L402.78,302.3L402.85,16L402.87,16L403.28,290.15L403.37,246.86L403.39,47.74L403.39,16L404.06,278.61L404.13,16L404.16,16L404.39,278.61L404.82,223.78L404.83,16L404.94,290.15L405.57,189.15L405.59,16L405.71,298.92L406.37,114.12L406.39,62.17L406.39,16L406.6,296.5L407.11,16L407.21,16L407.94,298.81L407.95,16L407.99,16L408.3,301.69L408.74,226.66L408.81,16L409.03,303.34L409.54,16L409.66,252.63L409.79,301.69L409.8,16L410.31,16L410.43,295.92L410.44,16L411.14,258.4L411.21,16L411.48,292.31L411.98,261.29L411.98,59.29L412.63,301.57L412.69,16L412.7,157.4L412.7,209.65L413.12,295.92L413.46,16L413.58,16L414.08,293.03L414.31,79.49L414.37,16L414.62,300.39L415.14,287.26L415.16,16L415.69,295.92L415.94,142.97L415.99,16L416.31,298.81L416.74,246.86L416.81,16L416.97,293.03L417.54,125.66L417.58,16L417.98,298.81L418.31,16L418.34,287.26L418.38,16L419.09,16L419.1,16L419.38,295.92L419.66,16L419.71,16L420.16,295.92L420.41,220.89L420.41,99.69L420.45,16L420.91,303.62L421.13,16L421.19,16L421.91,298.81L421.91,233.88L421.95,16L422.56,294.48L422.7,197.8L422.73,278.61L422.98,291.59L423.46,16L423.47,278.61L423.58,16L423.93,302.33L424.11,16L424.13,16L424.58,301.69L424.88,235.32L424.93,85.26L425.13,16L425.49,291.46L425.65,16L425.7,282.21L425.7,16L425.95,291.59L426.44,125.46L426.46,16L426.91,295.92L427.18,114.12L427.22,44.86L427.24,16L427.29,301.69L427.97,197.8L427.98,16L428.56,302.41L428.57,76.6L428.61,16L429.18,280.73L429.31,215.12L429.36,70.83L429.37,16L429.67,275.72L430.06,160.29L430.12,16L430.56,293.03L430.86,287.26L430.88,16L431.28,301.69L431.61,108.34L431.67,249.75L431.73,16L432.28,275.72L432.4,16L432.43,243.98L432.44,16L432.49,290.15L433.08,145.86L433.19,16L433.69,281.49L433.9,160.29L433.96,16L434.33,293.03L434.69,16L434.77,16L435.03,293.03L435.52,232.43L435.54,137.2L435.58,16L435.98,300.92L436.19,16L436.22,16L436.37,293.3L436.94,284.38L436.98,36.2L436.99,16L437.45,294.83L437.66,281.49L437.69,16L437.95,298.81L438.32,197.8L438.33,69.39L438.61,280.77L438.97,16L438.97,16L438.99,272.83L439,16L439.22,302.65L439.66,16L439.76,21.77L439.79,16L440.14,298.81L440.44,16L440.54,16L440.73,275.72L441.25,16L441.32,249.75L441.34,16L441.63,287.26L442.05,16L442.16,16L442.81,278.61L442.89,137.2L442.96,16L443.43,265.62L443.68,16L443.83,16L444.28,295.92L444.57,220.89L444.66,16L445.2,290.84L445.42,281.49L445.44,39.09L445.49,16L445.99,295.92L446.11,269.95L446.2,85.26L446.22,295.92L446.92,16L446.92,16L446.95,232.43L447.04,284.38L447.69,16L447.69,252.63L447.72,301.69L448.38,16L448.46,269.95L448.5,85.26L448.54,16L449.18,303.13L449.24,297.36L449.26,16L449.33,301.69L449.99,140.09L450.1,140.09L450.3,16L450.44,257.68L450.82,255.52L450.89,16L450.95,301.69L451.49,151.35L451.6,16L451.99,298.81L452.27,258.03L452.36,16L452.86,298.92L453.09,269.45L453.15,56.4L453.32,16L453.53,298.92L453.86,295.92L453.91,24.66L453.97,295.92L453.97,16L454.63,16L454.68,16L454.87,298.81L455.33,102.57L455.37,16L455.75,295.83L456.11,117L456.13,16L456.4,284.38L456.88,171.83L456.9,16L457.12,301.69L457.64,180.49L457.67,16L457.82,294.48L458.41,151.63L458.43,241.09L459.02,290.15L459.19,16L459.21,70.83L459.27,16L459.77,298.81L459.88,154.52L459.98,142.97L460.02,293.03L460.11,16L460.73,173.26L460.74,249.75L461.14,295.92L461.43,16L461.52,151.63L461.54,192.03L461.57,16L462.15,281.49L462.25,44.86L462.38,44.86L462.47,16L462.62,297.36L463.13,16L463.14,16L463.77,295.6L463.79,49.56L463.83,16L464.41,300.97L464.59,73.72L464.6,16L464.82,275.72L465.34,16L465.36,16L466.1,303.13L466.1,16L466.13,16L466.86,290.15L466.87,16L466.89,299.73L467.7,16L467.73,288.24L468.13,301.69L468.4,16L468.48,288.24L468.48,16L468.59,300.25L469.23,131.43L469.29,16L470.02,262.73L470.02,183.37L470.05,16L470.36,281.49L470.77,88.84L470.82,16L470.87,287.98L471.52,180.49L471.64,16L471.84,296.17L472.38,16L472.39,16L472.92,290.87L472.99,85.26L473.16,160.29L473.16,16L473.57,303.86L473.88,134.32L473.93,16L473.94,301.69L474.64,16L474.72,16L474.96,301.69L475.46,192.03L475.54,16L476.01,295.92L476.26,269.95L476.3,16L476.49,301.69L477,16L477.06,16L477.07,18.89L477.09,301.69L477.78,16L477.87,16L477.99,278.61L478.62,16L478.67,16L479.12,298.81L479.43,293.03L479.45,16L479.98,304L480.19,73.72L480.21,246.86L480.22,16L480.36,290.15L480.96,16L481,16L481.41,301.69L481.74,16L481.76,16L481.8,298.81L482.5,264.18L482.53,16L482.94,298.81L483.13,16L483.22,16L483.77,301.69L483.96,96.8L484,223.78L484.04,16L484.59,295.92L484.68,278.61L484.76,238.2L484.79,16L485.13,299.38L485.51,16L485.58,301.69L485.58,16L485.75,303.86L486.33,16L486.34,16L486.92,297.36L487.1,226.66L487.11,93.92L487.16,16L487.3,290.15L487.78,16L487.88,16L488.38,288.71L488.57,44.86L488.72,275.72L488.78,16L488.9,295.92L489.46,16L489.57,16L489.87,294.48L490.29,142.97L490.31,16L490.9,270.67L491.04,16L491.13,131.43L491.15,16L491.22,301.69L491.84,199.97L491.91,174.72L492,16L492.57,290.15L492.67,258.4L492.67,16L493.29,301.69L493.39,137.2L493.44,16L494.09,297.36L494.14,16L494.22,16L494.58,295.92L494.98,290.15L494.98,30.43L494.99,16L495.5,298.37L495.67,56.4L495.74,16L495.89,286.86L496.25,88.14L496.29,16L496.91,290.15L497.1,264.18L497.12,16L497.21,297.36L497.82,16L497.83,16L497.83,300.48L498.58,16L498.59,16L499.29,300.25L499.33,16L499.34,16L499.79,297.36L500.02,243.98L500.11,130.27L500.17,16L500.79,301.69L500.85,189.15L500.89,131.43L500.98,301.69L500.98,16L501.54,200.69L501.54,16L502.03,300.25L502.3,227.62L502.3,86.67L502.55,287.26L503.05,16L503.1,16L503.29,278.61L503.85,108.34L503.87,168.95L503.89,16L504.61,301.69L504.62,134.32L504.63,16L505.07,290.15L505.38,269.95L505.39,50.63L505.45,16L506.06,281.49L506.06,39.09L506.07,16L506.66,290.15L506.77,276.54L506.89,16L506.97,298.81L507.68,213.68L507.75,197.8L507.75,16L508.14,284.38L508.49,238.2L508.51,82.37L508.79,293.03L509.12,16L509.17,99.69L509.28,67.94L509.57,16L509.96,262.73L509.98,16L510.05,16L510.25,298.81L510.78,16L510.85,16L510.9,295.92L511,16" style="vector-effect: non-scaling-stroke; fill: none; stroke: rgb(99, 110, 250); stroke-opacity: 1; stroke-width: 2px; opacity: 1;"/></g><g class="points"/><g class="text"/></g></g></g><g class="overplot"/><path class="xlines-above crisp" d="M0,0" style="fill: none;"/><path class="ylines-above crisp" d="M0,0" style="fill: none;"/><g class="overlines-above"/><g class="xaxislayer-above"><g class="xtick"><text text-anchor="middle" x="0" y="436" transform="translate(198.17000000000002,0)" style="font-family: 'Times New Roman'; font-size: 15px; fill: rgb(13, 13, 13); fill-opacity: 1; white-space: pre; opacity: 1;">1.61252×10​<tspan style="font-size:70%" dy="-0.6em">18</tspan><tspan dy="0.42em">​</tspan></text></g><g class="xtick"><text text-anchor="middle" x="0" y="436" style="font-family: 'Times New Roman'; font-size: 15px; fill: rgb(13, 13, 13); fill-opacity: 1; white-space: pre; opacity: 1;" transform="translate(299.57,0)">1.612525×10​<tspan style="font-size:70%" dy="-0.6em">18</tspan><tspan dy="0.42em">​</tspan></text></g><g class="xtick"><text text-anchor="middle" x="0" y="436" style="font-family: 'Times New Roman'; font-size: 15px; fill: rgb(13, 13, 13); fill-opacity: 1; white-space: pre; opacity: 1;" transform="translate(400.97,0)">1.61253×10​<tspan style="font-size:70%" dy="-0.6em">18</tspan><tspan dy="0.42em">​</tspan></text></g><g class="xtick"><text text-anchor="middle" x="0" y="436" style="font-family: 'Times New Roman'; font-size: 15px; fill: rgb(13, 13, 13); fill-opacity: 1; white-space: pre; opacity: 1;" transform="translate(502.38,0)">1.612535×10​<tspan style="font-size:70%" dy="-0.6em">18</tspan><tspan dy="0.42em">​</tspan></text></g><g class="xtick"><text text-anchor="middle" x="0" y="436" style="font-family: 'Times New Roman'; font-size: 15px; fill: rgb(13, 13, 13); fill-opacity: 1; white-space: pre; opacity: 1;" transform="translate(603.78,0)">1.61254×10​<tspan style="font-size:70%" dy="-0.6em">18</tspan><tspan dy="0.42em">​</tspan></text></g></g><g class="yaxislayer-above"><g class="ytick"><text text-anchor="end" x="108" y="12.25" transform="translate(0,404.58)" style="font-family: 'Times New Roman'; font-size: 35px; fill: rgb(13, 13, 13); fill-opacity: 1; white-space: pre; opacity: 1;">0</text></g><g class="ytick"><text text-anchor="end" x="108" y="12.25" style="font-family: 'Times New Roman'; font-size: 35px; fill: rgb(13, 13, 13); fill-opacity: 1; white-space: pre; opacity: 1;" transform="translate(0,346.86)">20</text></g><g class="ytick"><text text-anchor="end" x="108" y="12.25" style="font-family: 'Times New Roman'; font-size: 35px; fill: rgb(13, 13, 13); fill-opacity: 1; white-space: pre; opacity: 1;" transform="translate(0,289.15)">40</text></g><g class="ytick"><text text-anchor="end" x="108" y="12.25" style="font-family: 'Times New Roman'; font-size: 35px; fill: rgb(13, 13, 13); fill-opacity: 1; white-space: pre; opacity: 1;" transform="translate(0,231.43)">60</text></g><g class="ytick"><text text-anchor="end" x="108" y="12.25" style="font-family: 'Times New Roman'; font-size: 35px; fill: rgb(13, 13, 13); fill-opacity: 1; white-space: pre; opacity: 1;" transform="translate(0,173.72)">80</text></g><g class="ytick"><text text-anchor="end" x="108" y="12.25" style="font-family: 'Times New Roman'; font-size: 35px; fill: rgb(13, 13, 13); fill-opacity: 1; white-space: pre; opacity: 1;" transform="translate(0,116)">100</text></g></g><g class="overaxes-above"/></g></g><g class="polarlayer"/><g class="smithlayer"/><g class="ternarylayer"/><g class="geolayer"/><g class="funnelarealayer"/><g class="pielayer"/><g class="iciclelayer"/><g class="treemaplayer"/><g class="sunburstlayer"/><g class="glimages"/><defs id="topdefs-470883"><g class="clips"/></defs><g class="layer-above"><g class="imagelayer"/><g class="shapelayer"/></g><g class="infolayer"><g class="g-gtitle"/><g class="g-xtitle"><text class="xtitle" x="364.5" y="463.8" text-anchor="middle" style="font-family: 'Open Sans', verdana, arial, sans-serif; font-size: 14px; fill: rgb(42, 63, 95); opacity: 1; font-weight: normal; white-space: pre;">Time Steps (ns)</text></g><g class="g-ytitle" transform="translate(23.5,0)"><text class="ytitle" transform="rotate(-90,12.5,260)" x="12.5" y="260" text-anchor="middle" style="font-family: 'Times New Roman'; font-size: 40px; fill: rgb(13, 13, 13); opacity: 1; font-weight: normal; white-space: pre;">Fill rate (in %)</text></g></g></svg>