<svg class="main-svg" xmlns="http://www.w3.org/2000/svg" xmlns:xlink="http://www.w3.org/1999/xlink" width="700" height="500" style="" viewBox="0 0 700 500"><rect x="0" y="0" width="700" height="500" style="fill: rgb(255, 255, 255); fill-opacity: 1;"/><defs id="defs-33d8fa"><g class="clips"><clipPath id="clip33d8faxyplot" class="plotclip"><rect width="511" height="320"/></clipPath><clipPath class="axesclip" id="clip33d8fax"><rect x="109" y="0" width="511" height="500"/></clipPath><clipPath class="axesclip" id="clip33d8fay"><rect x="0" y="100" width="700" height="320"/></clipPath><clipPath class="axesclip" id="clip33d8faxy"><rect x="109" y="100" width="511" height="320"/></clipPath></g><g class="gradients"/><g class="patterns"/></defs><g class="bglayer"><rect class="bg" x="109" y="100" width="511" height="320" style="fill: rgb(229, 236, 246); fill-opacity: 1; stroke-width: 0;"/></g><g class="layer-below"><g class="imagelayer"/><g class="shapelayer"/></g><g class="cartesianlayer"><g class="subplot xy"><g class="layer-subplot"><g class="shapelayer"/><g class="imagelayer"/></g><g class="minor-gridlayer"><g class="x"/><g class="y"/></g><g class="gridlayer"><g class="x"><path class="xgrid crisp" transform="translate(198.2,0)" d="M0,100v320" style="stroke: rgb(255, 255, 255); stroke-opacity: 1; stroke-width: 1px;"/><path class="xgrid crisp" transform="translate(299.61,0)" d="M0,100v320" style="stroke: rgb(255, 255, 255); stroke-opacity: 1; stroke-width: 1px;"/><path class="xgrid crisp" transform="translate(401.02,0)" d="M0,100v320" style="stroke: rgb(255, 255, 255); stroke-opacity: 1; stroke-width: 1px;"/><path class="xgrid crisp" transform="translate(502.43,0)" d="M0,100v320" style="stroke: rgb(255, 255, 255); stroke-opacity: 1; stroke-width: 1px;"/><path class="xgrid crisp" transform="translate(603.8399999999999,0)" d="M0,100v320" style="stroke: rgb(255, 255, 255); stroke-opacity: 1; stroke-width: 1px;"/></g><g class="y"><path class="ygrid crisp" transform="translate(0,346.73)" d="M109,0h511" style="stroke: rgb(255, 255, 255); stroke-opacity: 1; stroke-width: 1px;"/><path class="ygrid crisp" transform="translate(0,289.05)" d="M109,0h511" style="stroke: rgb(255, 255, 255); stroke-opacity: 1; stroke-width: 1px;"/><path class="ygrid crisp" transform="translate(0,231.36)" d="M109,0h511" style="stroke: rgb(255, 255, 255); stroke-opacity: 1; stroke-width: 1px;"/><path class="ygrid crisp" transform="translate(0,173.68)" d="M109,0h511" style="stroke: rgb(255, 255, 255); stroke-opacity: 1; stroke-width: 1px;"/><path class="ygrid crisp" transform="translate(0,116)" d="M109,0h511" style="stroke: rgb(255, 255, 255); stroke-opacity: 1; stroke-width: 1px;"/></g></g><g class="zerolinelayer"><path class="yzl zl crisp" transform="translate(0,404.41)" d="M109,0h511" style="stroke: rgb(255, 255, 255); stroke-opacity: 1; stroke-width: 2px;"/></g><path class="xlines-below"/><path class="ylines-below"/><g class="overlines-below"/><g class="xaxislayer-below"/><g class="yaxislayer-below"/><g class="overaxes-below"/><g class="plot" transform="translate(109,100)" clip-path="url(#clip33d8faxyplot)"><g class="scatterlayer mlayer"><g class="trace scatter tracec97448" style="stroke-miterlimit: 2; opacity: 1;"><g class="fills"/><g class="errorbars"/><g class="lines"><path class="js-line" d="M0,16L0.21,16L0.21,160.21L0.21,16L0.55,284.22L0.93,278.45L0.97,67.91L1.05,284.22L1.28,16L1.71,212.12L1.81,16L1.98,283.81L2.5,157.32L2.57,163.09L2.81,298.14L3.05,16L3.33,258.27L3.36,82.33L3.45,16L3.53,258.27L4.1,16L4.19,16L4.39,16L4.4,278.96L4.4,16L5.04,16L5.16,116.94L5.19,16L5.5,292.88L5.83,128.48L5.92,16L6.4,295.76L6.6,148.67L6.64,16L6.83,275.57L7.36,180.39L7.36,16L7.73,289.99L8.08,16L8.17,16L8.54,301.53L8.97,142.9L9.01,16L9.62,296.48L9.76,16L9.79,16L10.2,261.87L10.54,16L10.61,160.21L10.61,16L11.27,299.61L11.36,161.65L11.39,301.53L11.41,16L12.13,16L12.15,16L12.69,279.18L12.87,16L12.94,261.87L12.94,16L13.34,293.6L13.55,59.26L13.7,275.57L13.72,16L13.95,301.53L14.37,16L14.49,16L14.68,255.38L14.7,217.89L14.7,16L14.8,255.38L15.19,88.1L15.35,16L15.55,287.11L16.06,16L16.18,99.64L16.61,298.64L16.75,16L16.78,298.64L16.82,16L17.46,16L17.54,16L17.96,252.5L18.29,16L18.35,16L18.89,302.97L18.93,16L19.15,16L19.59,223.66L19.94,215L19.94,16L20.56,301.53L20.74,126.32L20.74,16L21.1,298.4L21.41,105.41L21.48,16L22.22,215L22.28,16L22.54,298.64L23.03,16L23.07,16L23.07,258.27L23.76,16L23.83,223.66L23.83,16L23.95,287.11L24.58,255.38L24.62,154.37L24.72,16L25.25,281.34L25.34,16L25.38,90.99L25.39,16L26.03,292.88L26.11,16L26.2,16L26.56,297.2L26.81,21.77L26.96,16L27.02,298.64L27.56,295.76L27.56,16L28.23,298.64L28.24,16L28.39,16L28.51,39.07L28.67,16L28.67,281.34L29.08,284.22L29.26,16L29.46,111.18L29.55,16L29.61,284.22L30.07,16L30.23,240.96L30.23,16L30.67,278.45L30.95,16L31.09,16L31.42,278.45L31.84,239.77L31.85,16L32.2,301.53L32.2,18.88L32.21,18.88L32.22,301.53L32.25,16L32.85,16L32.97,284.22L33,16L33.07,297.2L33.72,249.61L33.74,16L34.29,292.88L34.46,16L34.55,16L34.78,16L34.78,249.48L35.3,301.53L35.5,16L35.5,24.65L35.55,16L35.66,292.88L36.2,82.33L36.31,16L37.09,266.92L37.09,53.49L37.09,16L37.25,298.64L37.77,297.2L37.86,289.99L37.92,16L38.61,16L38.63,16L39.11,302.25L39.38,287.11L39.41,33.3L39.41,16L40.05,295.76L40.09,16L40.17,16L40.44,300.09L40.75,287.11L40.79,16L41.2,272.69L41.49,16L41.54,30.42L41.54,289.99L41.55,16L42.28,255.38L42.31,65.03L42.47,16L43.01,289.99L43.04,16L43.07,36.19L43.15,16L43.51,287.11L43.78,16L43.85,16L44.5,284.62L44.59,16L44.63,264.03L44.64,16L44.69,298.64L45.38,266.92L45.41,16L45.76,281.34L46.15,96.76L46.19,16L46.37,278.45L46.92,16L46.97,194.82L47.09,16L47.52,298.64L47.58,240.96L47.73,302.07L47.76,16L48.46,70.8L48.54,211.4L48.54,16L48.87,286.39L49.23,225.18L49.3,88.1L49.31,16L49.73,298.64L50.04,118.15L50.06,105.41L50.06,16L50.56,298.64L50.81,189.64L50.82,16L51.05,301.53L51.56,16L51.58,171.74L51.79,16L51.95,298.64L52.31,292.88L52.35,91.11L52.37,16L53,303.84L53.09,176.23L53.11,301.53L53.14,16L53.85,266.92L53.87,53.49L54.11,287.11L54.45,16L54.53,27.54L54.53,279.87L54.67,292.88L55.29,16L55.29,16L55.38,16L56.09,292.88L56.17,182.56L56.17,16L56.19,298.64L56.91,177.51L56.95,142.9L57.5,297.14L57.69,16L57.69,295.76L57.8,297.2L58.2,16L58.31,131.36L58.32,230.95L59.03,16L59.04,291.42L59.06,47.73L59.06,272.69L59.81,16L59.81,16L59.82,289.99L60.6,16L60.71,272.69L60.95,289.99L61.46,16L61.46,261.15L61.5,292.88L61.5,16L62.24,16L62.3,300.09L62.3,16L62.98,47.73L63.07,16L63.68,295.76L63.77,82.33L63.84,111.18L63.84,16L64.11,301.53L64.56,16L64.64,16L65.18,301.53L65.3,295.76L65.4,81.13L65.53,295.76L65.9,16L65.95,90.68L65.95,255.38L66.03,16L66.39,292.88L66.7,16L66.72,298.64L66.76,16L66.83,301.53L67.42,287.11L67.48,269.8L67.8,16L68.08,301.53L68.23,16L68.33,73.68L68.33,16L68.83,298.37L69.02,16L69.11,122.71L69.13,16L69.27,292.88L69.86,16L69.9,284.22L69.93,301.56L70.61,16L70.61,173.18L70.66,278.45L70.72,275.57L70.74,16L71.36,284.22L71.5,176.97L71.52,70.8L71.56,16L72.26,290.31L72.26,140.02L72.29,180.39L72.29,16L72.36,294.32L73.03,264.03L73.05,16L73.1,302.97L73.79,191.93L73.79,84.5L73.86,16L74.48,295.76L74.52,280.62L74.52,16L74.76,295.76L75.21,229.42L75.24,16L75.51,298.64L76.01,238.08L76.12,62.15L76.12,16L76.56,277.01L76.84,16L76.88,16L77.02,301.53L77.59,16L77.67,16L77.77,297.92L78.42,209.24L78.43,111.18L78.66,299.36L79.04,16L79.06,62.15L79.06,258.27L79.24,301.53L79.63,16L79.76,21.77L79.83,99.64L79.86,16L79.86,298.64L80.58,232.31L80.62,88.1L80.66,16L80.75,288.09L81.36,16L81.38,213.56L81.38,16L81.39,294.32L82.12,16L82.17,119.83L82.72,277.73L82.81,16L82.81,16L82.92,275.57L82.92,16L83.09,302.25L83.67,16L83.72,147.95L83.72,16L83.9,298.07L84.45,16L84.5,16L84.77,295.76L85.21,212.12L85.26,16L85.57,270.48L86.02,261.15L86.02,59.26L86.13,16L86.76,301.53L86.76,16L86.99,300.09L87.44,112.14L87.55,16L88.3,298.64L88.3,21.77L88.38,16L88.44,301.53L89.01,16L89.08,16L89.4,284.22L89.83,16L89.85,281.34L89.85,16L90.54,292.88L90.57,16L90.62,212.12L90.64,16L91.22,298.64L91.33,16L91.39,16L91.8,298.64L92.14,16L92.16,206.35L92.18,16L92.42,300.46L92.89,16L92.95,16L92.96,298.64L93.67,16L93.74,215.67L93.74,16L93.74,298.64L94.41,16L94.53,157.32L94.53,16L95,292.88L95.28,16L95.39,16L95.63,291.87L96.13,16L96.15,200.58L96.17,298.64L96.19,16L96.86,16L96.96,21.77L96.97,16L97,301.53L97.64,16L97.73,16L98.1,298.64L98.46,16L98.52,33.3L98.58,16L98.65,289.99L99.26,240L99.28,209.24L99.35,16L99.67,289.99L100.01,281.34L100.04,16L100.79,289.99L100.8,16L101.47,276.29L101.55,33.3L101.57,16L101.68,287.11L102.32,217.89L102.34,16L102.7,272.69L103.09,73.68L103.1,16L103.1,295.76L103.83,269.8L103.87,62.15L103.87,16L104.07,272.69L104.62,47.73L104.65,16L105.09,301.53L105.41,76.57L105.47,16L105.59,263.21L106.21,16L106.24,16L106.96,297.92L106.96,16L107.01,27.54L107.14,16L107.57,301.53L107.76,16L107.79,47.73L107.87,260.71L108.11,16L108.11,16L108.12,255.38L108.13,16L108.76,303.69L108.86,16L108.95,229.42L108.97,16L109.58,300.09L109.63,16L109.74,281.34L109.98,16L110.44,294.32L110.48,220.77L110.58,16L110.59,295.76L111.31,203.47L111.36,203.47L111.37,16L112.06,264.03L112.1,16L112.15,273.51L112.15,16L112.67,303.69L112.87,220.77L112.94,33.3L112.96,295.76L113.54,16L113.57,229.42L114.16,301.53L114.31,16L114.31,16L114.36,16L114.67,303.69L115.11,16L115.2,234.49L115.24,16L115.67,298.64L115.9,16L115.99,88.1L116.01,16L116.54,298.64L116.73,39.31L116.81,278.45L116.81,16L117.42,292.88L117.53,76.57L117.59,137.13L117.84,16L118,295.76L118.31,16L118.36,16L118.68,298.64L119.11,102.52L119.12,16L119.26,275.57L119.89,223.66L119.89,16L120.16,302.97L120.41,200.58L120.44,16L120.96,286.75L121.18,16L121.22,16L121.55,301.53L121.96,102.52L122.03,16L122.35,292.88L122.78,16L122.8,227.98L122.8,16L123.19,292.88L123.54,160.21L123.57,16L123.73,16L123.77,212.12L123.81,16L124.43,287.11L124.52,16L124.54,59.26L124.74,16L125,292.88L125.25,160.21L125.35,235.19L125.35,16L125.7,293.84L126.05,76.57L126.11,16L126.83,295.76L126.85,259.61L126.9,24.65L127.04,16L127.2,295.76L127.64,147.1L127.68,36.19L127.74,16L127.91,294.32L128.4,240.96L128.44,16L128.71,298.64L129.19,16L129.27,258.27L129.52,294.32L130.02,16L130.03,289.99L130.78,16L130.78,16L130.79,39.07L130.87,16L131.44,298.64L131.49,16L131.54,16L131.62,292.88L132.31,165.97L132.38,278.45L132.92,16L133.12,295.76L133.15,102.52L133.15,281.64L133.45,301.53L133.73,16L133.89,53.49L134,16L134.11,266.92L134.74,186.16L134.79,186.16L134.86,16L135.24,294.32L135.52,284.22L135.61,215L135.61,16L135.95,297.2L136.3,289.99L136.4,16L136.79,298.64L137.18,235.19L137.18,106.58L137.18,16L137.58,301.53L137.91,36.19L137.94,16L138.22,295.76L138.69,200.58L138.77,16L139.23,301.53L139.53,269.8L139.53,16L139.88,269.8L140.13,142.9L140.13,16L140.61,283.6L140.85,16L140.93,16L141.53,287.94L141.61,278.45L141.76,41.96L141.87,16L141.88,285.67L141.91,16L142.3,300.65L142.63,70.8L142.68,16L143.17,302.97L143.41,298.64L143.47,16L144.14,301.53L144.22,16L144.28,16L144.41,301.56L145.03,203.47L145.05,62.15L145.14,16L145.47,298.64L145.79,286.39L145.79,16L146.32,301.53L146.53,16L146.58,30.42L146.72,16L146.84,303.69L147.32,246.73L147.33,16L147.96,298.76L147.99,16L148.09,16L148.28,295.76L148.67,171.74L148.68,93.87L148.68,293.03L148.79,16L149.43,122.71L149.47,16L150.02,289.99L150.19,281.34L150.27,39.07L150.29,16L150.39,289.99L151,258.27L151.05,16L151.32,298.64L151.66,134.25L151.69,16L152.14,295.76L152.45,160.21L152.53,16L153.15,298.64L153.27,105.41L153.31,154.44L153.39,16L153.89,298.92L154.04,16L154.08,16L154.23,301.53L154.78,243.85L154.87,76.57L154.88,16L155.02,287.11L155.61,203.47L155.65,16L155.84,272.69L156.23,171.74L156.27,16L156.65,278.45L156.97,157.32L157.04,16L157.73,294.8L157.77,284.22L157.81,16L157.89,295.76L158.58,243.85L158.58,76.57L158.66,16L159.09,301.53L159.22,16L159.34,301.53L159.35,16L160.08,250.48L160.13,157.32L160.13,16L160.48,299.36L160.88,163.09L160.89,246.73L160.9,16L161.06,275.57L161.64,16L161.71,16L161.95,290.71L162.48,180.39L162.53,128.48L162.58,16L162.75,298.64L163.27,217.89L163.3,102.52L163.39,16L163.52,289.99L164.04,85.22L164.1,229.42L164.14,16L164.73,285.54L164.85,16L164.86,16L164.91,292.88L165.5,278.45L165.54,16L165.54,292.88L166.25,165.97L166.3,76.57L166.89,278.45L167.03,16L167.03,289.99L167.47,292.88L167.8,16L167.8,16L167.81,180.81L167.83,16L167.96,287.11L168.51,16L168.57,16L169.09,295.76L169.3,292.88L169.35,171.65L169.35,16L169.51,295.76L170.05,114.06L170.11,206.35L170.3,283.22L170.85,16L170.9,281.34L170.9,16L171.49,300.09L171.65,16L171.66,89.78L171.76,16L172.12,275.57L172.31,44.84L172.46,16L172.73,291.43L173.17,16L173.22,206.35L173.23,16L173.44,287.11L173.94,16L173.99,70.8L174.08,16L174.49,301.53L174.71,27.54L174.77,112.14L174.98,301.53L175.5,16L175.5,291.18L175.56,16L176.2,16L176.27,16L176.88,292.88L177,269.8L177.03,16L177.69,301.53L177.71,168.86L177.76,18.88L177.88,301.53L178.07,16L178.53,131.36L178.54,16L179.07,284.22L179.28,128.48L179.3,16L179.73,276.29L180.11,215L180.11,105.41L180.25,16L180.41,295.76L180.84,252.5L180.89,67.91L180.94,16L181.5,298.64L181.57,16L181.6,16L181.71,302.25L182.31,220.77L182.31,16L182.63,283.81L183.01,145.79L183.06,16L183.82,298.64L183.9,16L184.18,16L184.19,160.21L184.19,16L184.29,299.8L184.94,243.85L184.95,16L185.65,284.22L185.7,16L185.72,240.96L186.3,258.27L186.5,16L186.52,16L186.55,288.55L187.28,287.83L187.28,64.69L187.36,16L187.89,299.76L187.98,67.91L188.07,128.48L188.16,16L188.23,298.64L188.81,131.36L188.86,16L189.33,298.64L189.6,238.08L189.61,16L190.2,291L190.38,258.27L190.39,16L191.09,258.27L191.09,62.15L191.15,56.38L191.24,16L191.46,292.88L191.94,264.03L191.94,56.38L192.04,16L192.56,289.99L192.68,160.21L192.68,16L193,16L193.01,281.34L193.04,16L193.76,59.26L193.77,16L194.07,301.53L194.52,16L194.56,16L195.39,301.53L195.39,16L195.52,301.53L196.11,151.55L196.16,16L196.91,275.57L196.91,44.84L196.95,16L197.42,284.22L197.68,272.69L197.72,16L198.28,292.88L198.41,39.07L198.48,186.16L199.07,287.11L199.19,16L199.19,27.54L199.19,300.57L199.29,16L199.93,82.33L199.96,82.33L200.14,16L200.6,301.53L200.69,206.35L200.74,41.96L200.74,278.45L200.76,16L201.49,137.13L201.5,16L201.66,301.53L202.23,16L202.26,255.38L202.3,16L202.6,300.81L203.01,194.82L203.11,16L203.3,284.22L203.85,238.08L203.88,114.06L203.95,16L204.38,294.32L204.63,16L204.68,16L204.92,289.99L205.43,62.15L205.54,272.69L205.55,16L205.93,301.53L206.27,291.87L206.3,16L206.77,288.55L207.03,16L207.07,16L207.32,289.99L207.81,160.21L207.84,16L208.52,289.99L208.61,235.19L208.61,85.22L208.82,16L209.36,298.64L209.4,154.44L209.92,298.64L210.11,16L210.11,223.66L210.22,191.93L210.22,16L210.89,298.64L210.91,289.99L211.02,30.42L211.06,16L211.08,295.76L211.76,30.42L211.79,289.99L212.25,295.3L212.54,16L212.55,99.64L213.16,16L213.22,298.64L213.26,292.88L213.36,16L214,174.63L214.04,174.63L214.06,16L214.37,301.53L214.79,16L214.8,246.73L214.8,16L214.88,292.88L215.45,197.7L215.56,90.99L215.68,16L215.9,304L216.31,16L216.33,16L216.5,284.22L217.07,16L217.11,262.59L217.17,16L217.17,287.11L217.83,99.64L217.87,16L218.38,290.28L218.5,16L218.52,16L219.26,301.56L219.3,288.09L220.08,16L220.08,16L220.11,289.99L220.2,16L220.54,298.64L220.79,232.31L220.87,249.61L220.87,16L221.13,275.57L221.57,232.31L221.68,16L222.03,288.55L222.42,217.89L222.46,16L222.68,278.45L223.15,16L223.29,16L223.96,301.53L224.05,243.85L224.07,16L224.62,300.25L224.81,235.19L224.85,16L225.36,298.64L225.54,16L225.55,16L225.88,232.31L225.88,16L225.9,287.11L225.9,16L226.2,297.68L226.61,65.73L226.66,294.32L226.74,16L227.41,108.29L227.43,16L227.43,302.97L228.14,16L228.2,16L228.84,295.76L228.93,36.19L228.96,16L229.11,16L229.11,16L229.17,27.54L229.23,16L229.86,292.88L229.93,246.73L229.93,16L230.29,287.11L230.63,220.77L230.71,99.64L230.8,16L231.22,266.92L231.45,16L231.53,272.69L231.65,16L232.22,136.53L232.31,16L232.83,295.76L233.06,30.42L233.09,30.42L233.22,16L233.63,287.11L233.79,27.54L233.93,292.88L234.02,16L234.64,294.32L234.67,170.3L234.72,16L234.91,16L234.91,16L234.91,240.96L235.19,303.69L235.69,16L235.72,277.01L235.72,16L235.72,290.71L236.47,82.33L236.48,238.08L236.48,16L236.99,298.64L237.22,174.63L237.24,16L237.44,264.03L237.96,93.87L238,269.28L238.24,281.34L238.79,16L238.79,168.86L238.92,298.9L239.31,16L239.53,220.77L239.59,16L239.99,301.53L240.31,243.85L240.32,16L240.49,266.92L240.78,88.1L240.86,16L241.29,298.64L241.44,21.77L241.65,298.64L242.25,16L242.33,141.4L242.4,255.38L242.64,16L242.96,299.68L243.12,16L243.19,234.47L243.19,295.76L243.2,16L243.92,65.03L243.97,137.13L244.05,255.38L244.09,16L244.71,231L244.74,16L245.3,301.53L245.49,227.5L245.53,27.54L245.54,16L246.26,301.53L246.28,16L246.34,16L246.72,287.11L247.04,200.58L247.04,119.83L247.12,302.25L247.75,16L247.81,275.57L247.83,16L248.51,298.64L248.54,16L248.58,16L249.28,298.64L249.53,39.07L249.54,16L250.25,295.76L250.31,154.44L250.31,16L250.59,298.64L251.06,183.28L251.08,16L251.65,280.62L251.85,220.77L251.86,44.84L252.02,16L252.12,302.25L252.61,16L252.67,16L253.42,302.25L253.47,16L253.93,301.53L254.03,295.76L254.04,16L254.19,289.99L254.78,33.3L254.82,16L255.5,298.64L255.5,27.54L255.59,160.21L255.59,16L256.33,295.76L256.33,16L256.36,281.34L256.45,16L257.01,291.43L257.11,174.63L257.13,16L257.31,16L257.36,34.03L257.68,278.45L257.97,16L258.01,59.26L258.01,261.15L258.04,16L258.06,295.76L258.3,151.55L258.31,16L258.31,289.99L259.02,16L259.07,291.43L259.83,16L259.85,282.06L259.85,16L260.14,289.41L260.59,16L260.65,16L261.12,300.94L261.4,163.09L261.53,16L261.86,294.32L262.28,16L262.29,16L262.94,297.2L263.02,16L263.14,16L263.33,298.64L263.82,291.43L263.9,278.45L263.99,301.53L263.99,16L264.61,96.76L264.66,79.45L264.66,16L264.86,272.69L265.36,238.08L265.47,16L265.58,298.64L266.22,16L266.23,223.66L266.88,285.67L267.03,16L267.05,151.55L267.05,16L267.18,282.78L267.79,105.41L267.83,16L268.51,298.64L268.54,281.34L268.56,24.65L268.57,295.76L268.59,16L269.27,217.89L269.32,102.52L269.52,287.11L269.99,16L270.06,168.86L270.06,16L270.29,281.34L270.81,16L270.83,16L271.47,296.48L271.56,295.76L271.56,16L272.04,280.6L272.29,191.93L272.33,16L273.01,301.53L273.1,16L273.15,301.53L273.81,289.99L273.86,289.99L274.63,16L274.63,16L274.66,240.96L274.76,16L275.12,298.64L275.35,47.73L275.42,217.89L276.11,16L276.12,301.53L276.12,18.88L276.17,301.53L276.98,16L277,16L277.61,301.47L277.68,16L277.77,287.11L277.77,16L277.84,293.86L278.48,235.19L278.53,16L279.08,292.88L279.24,16L279.32,16L279.32,289.63L280.06,16L280.09,274.85L280.09,301.53L280.09,16L280.82,16L280.87,23.03L280.9,16L280.97,146.36L280.97,295.76L281.74,16L281.74,16L281.76,255.38L281.76,16L282.42,299.36L282.43,16L282.53,16L282.53,298.28L283.27,272.69L283.29,47.73L283.35,16L283.93,275.57L284.02,16L284.05,16L284.28,292.88L284.75,16L284.83,16L285.44,292.88L285.55,249.61L285.59,16L285.66,19.79L285.66,301.53L285.66,16L286.38,16L286.42,16L286.52,301.53L287.09,232.31L287.19,16L287.41,301.53L287.93,16L287.97,16L288.14,281.34L288.56,253.22L288.78,183.28L288.91,16L288.99,282.06L289.52,16L289.54,16L289.76,301.53L290.15,295.76L290.15,16L290.71,294.33L290.78,30.42L290.98,203.47L291.01,16L291.6,298.64L291.72,246.73L291.75,16L292.06,289.75L292.59,206.35L292.59,50.61L292.83,16L292.96,281.34L293.31,16L293.39,16L294.07,302.97L294.08,301.53L294.18,16L294.68,301.53L294.96,216.48L294.96,88.1L294.99,16L295.28,295.76L295.67,278.45L295.73,137.13L296.06,281.52L296.31,16L296.31,278.45L296.66,292.88L297.06,16L297.06,191.93L297.07,240.96L297.63,292.88L297.78,16L297.78,56.38L297.78,264.03L298.08,289.99L298.52,16L298.52,16L298.52,291.43L298.72,16L299.19,298.64L299.3,249.61L299.34,16L299.41,301.53L300,21.77L300.09,16L300.68,292.88L300.81,242.88L300.9,16L300.9,301.53L301.56,261.15L301.67,16L301.8,302.97L302.28,30.42L302.53,16L302.99,303.37L303.24,274.98L303.33,275.57L303.43,16L303.69,292.88L304.06,16L304.1,212.12L304.1,16L304.1,298.64L304.8,16L304.93,105.41L304.99,16L305.63,298.64L305.65,16L305.69,142.9L305.76,16L306.37,295.76L306.43,76.43L306.45,157.32L306.85,295.76L307.18,16L307.23,16L307.83,287.11L307.94,76.57L307.98,16L308.36,292.88L308.64,83.16L308.74,39.07L308.81,16L309.41,295.76L309.48,289.43L309.49,24.65L309.49,295.76L309.55,16L310.18,209.24L310.28,16L310.78,275.57L311.03,96.76L311.06,16L311.16,246.73L311.71,131.36L311.75,16L312.49,288.55L312.57,16L312.97,298.64L313.31,16L313.35,220.77L313.36,16L313.5,298.64L314.1,16L314.14,280.62L314.86,16L314.87,236.64L314.9,287.11L314.92,16L314.99,293.32L315.62,41.96L315.68,16L316.21,295.76L316.36,16L316.43,16L316.52,295.76L317.14,163.09L317.27,16L317.91,269.8L318.03,157.32L318.07,235.19L318.14,16L318.2,274.13L318.8,16L318.84,243.85L319.07,261.15L319.63,16L319.67,16L320.09,294.32L320.36,16L320.43,16L320.67,292.15L321.14,215L321.19,16L321.58,272.69L321.93,140.02L321.96,16L322.52,284.22L322.75,154.44L322.82,16L322.97,281.12L323.51,142.9L323.55,119.83L323.58,16L323.93,298.64L324.3,16L324.32,16L324.48,295.76L325.04,96.11L325.2,16L325.72,292.88L326.04,284.22L326.04,36.19L326.15,16L326.65,292.88L326.78,16L326.81,16L327.43,301.53L327.51,99.64L327.58,16L327.69,301.53L328.35,295.76L328.41,16L328.61,295.76L329.16,292.88L329.22,27.54L329.28,16L329.33,301.53L329.95,16L330.02,44.84L330.21,16L330.39,280.38L330.77,215L330.79,88.1L330.8,16L331.02,296.01L331.53,16L331.58,16L331.59,298.64L332.3,266.92L332.38,53.49L332.78,287.11L332.92,16L332.93,273.51L333.08,295.76L333.68,16L333.68,134.25L333.97,284.22L334.32,16L334.4,298.64L334.41,16L335.15,16L335.16,16L335.23,30.42L335.23,297.2L335.65,301.07L335.99,16L335.99,275.57L336.09,16L336.21,284.22L336.72,226.54L336.77,226.54L336.81,16L336.99,272.69L337.42,200.58L337.54,16L337.71,286.39L338.29,16L338.31,177.51L338.45,16L338.66,275.57L339.06,170.89L339.07,16L339.56,301.53L339.77,258.27L339.89,16L340.47,266.59L340.51,197.7L340.52,16L340.52,301.53L341.26,16L341.33,44.84L341.33,16L342.03,301.53L342.06,16L342.11,76.57L342.18,16L342.7,289.99L342.86,16L342.87,16L342.98,301.53L343.62,16L343.71,16L343.77,297.2L344.45,206.35L344.5,65.03L344.55,16L344.97,289.99L345.19,229.42L345.3,16L345.89,284.17L346.02,16L346.13,82.09L346.54,16L346.62,295.76L346.83,24.65L346.9,160.21L347.1,16L347.54,301.53L347.59,50.61L347.69,16L348.06,303.69L348.41,16L348.45,301.53L348.54,16L349.2,255.38L349.23,134.25L349.29,16L349.63,298.64L349.98,177.51L349.99,142.9L350.05,16L350.57,298.64L350.58,249.61L350.65,16L351.04,295.76L351.33,249.61L351.34,16L351.71,301.53L352.09,171.74L352.17,194.82L352.27,16L352.85,275.57L352.92,85.22L352.93,16L353.45,300.09L353.66,269.8L353.7,16L353.88,287.11L354.45,264.03L354.46,16L354.81,301.53L355.21,16L355.23,16L355.79,298.64L355.94,16L356.02,16L356.51,295.58L356.73,16L356.87,16L357.02,298.64L357.62,16L357.63,16L358.4,295.76L358.48,16L358.51,24.65L358.51,295.76L359.18,16L359.23,39.07L359.4,16L359.44,281.34L360.14,16L360.19,278.45L360.24,16L360.36,298.64L360.89,97.94L360.96,128.33L360.96,16L361.15,289.99L361.7,68.44L361.75,16L361.78,277.01L362.51,199.14L362.54,116.94L362.62,16L363.05,301.53L363.28,212.12L363.33,16L363.75,288.55L364.09,148.67L364.14,174.63L364.76,16L364.8,299.17L364.86,220.77L364.9,301.53L364.95,16L365.64,16L365.68,130.16L365.71,16L366.12,288.82L366.25,243.85L366.27,16L366.83,298.64L366.99,16L367.03,16L367.73,296.01L367.81,16L367.81,300.09L368.51,278.19L368.59,21.77L368.72,16L369.23,301.53L369.32,18.88L369.36,216.29L369.36,16L369.43,301.53L370.11,16L370.15,192.25L370.18,16L370.88,292.88L370.88,62.15L370.91,59.26L370.98,253.52L371.41,16L371.41,16L371.56,261.15L371.56,16L371.97,301.53L372.31,180.39L372.34,140.02L372.37,281.34L372.99,16L372.99,251.34L373.11,16L373.79,302.97L373.84,93.87L373.88,16L374.1,298.64L374.61,16L374.75,16L374.8,301.53L375.48,157.32L375.51,16L376.07,272.69L376.19,16L376.28,180.39L376.28,16L376.58,298.64L377.03,16L377.05,16L377.59,298.64L377.77,203.47L377.85,111.18L378.29,264.03L378.47,16L378.56,203.47L378.6,203.47L378.69,16L379.35,302.25L379.35,16L379.36,134.25L379.82,301.56L380.04,16L380.08,301.53L380.83,16L380.83,16L380.87,16L381.37,298.64L381.58,16L381.65,16L381.65,300.31L382.35,275.57L382.41,275.57L382.45,16L382.48,281.34L383.14,99.64L383.18,16L383.68,284.22L383.94,128.48L384,191.93L384.34,255.38L384.74,16L384.76,52.71L384.76,284.22L385.3,298.64L385.52,16L385.58,16L386.18,287.11L386.31,134.25L386.36,16L386.71,295.76L387.11,16L387.12,246.73L387.12,16L387.63,264.03L387.85,16L387.88,16L388.09,287.83L388.58,157.32L388.63,16L388.95,272.69L389.14,226.54L389.21,16L389.28,269.8L389.9,16L389.97,16L390.53,298.64L390.54,272.69L390.62,16L391.09,191.93L391.33,16L391.38,16L391.43,292.88L392.1,16L392.16,134.25L392.19,16L392.2,262.59L392.86,185.38L392.92,258.53L393.63,16L393.66,209.24L393.66,16L394,301.53L394.4,16L394.43,160.21L394.5,16L394.81,298.64L395.16,148.67L395.2,171.74L395.54,282.78L395.54,16L395.96,203.47L395.96,109.47L396,16L396.24,295.3L396.61,180.39L396.63,53.49L396.63,16L396.81,298.76L397.37,16L397.4,160.21L397.86,293.73L398.16,16L398.17,208.27L398.19,16L398.31,292.88L398.71,16L398.76,16L399.48,287.11L399.5,16L399.54,99.64L399.54,16L399.54,262.59L400.26,238.08L400.36,16L400.66,298.64L401.08,154.44L401.13,266.92L401.5,16L401.5,272.69L401.6,47.73L401.6,272.69L401.96,283.5L402.43,16L402.43,223.66L402.43,16L403.17,298.64L403.19,49.93L403.19,298.64L403.27,16L403.91,16L403.95,16L404.24,298.64L404.77,238.08L404.83,82.33L404.86,16L405.28,271.24L405.6,238.08L405.6,82.33L405.69,16L406.29,301.53L406.31,206.35L406.47,16L406.69,278.45L407.18,220.77L407.24,99.64L407.31,16L407.72,283.5L407.93,275.57L407.98,16L408.39,297.2L408.67,16L408.75,16L408.87,281.34L408.98,266.92L409.01,16L409.28,289.99L409.73,122.71L409.89,99.64L409.91,16L410.58,240.96L410.59,142.9L410.65,177.51L411.28,294.32L411.36,16L411.36,240.96L411.43,79.45L411.66,16L411.79,302.97L412.18,18.88L412.2,16L412.66,269.8L412.94,16L413.01,16L413.51,275.57L413.65,203.47L413.73,16L414.19,295.67L414.44,249.61L414.49,44.84L414.64,16L415.03,292.88L415.19,235.19L415.23,16L415.36,289.99L415.97,16L416.02,16L416.19,16L416.2,70.8L416.2,16L416.56,298.64L416.91,295.04L416.99,16L417.43,298.76L417.72,16L417.73,16L418.46,300.09L418.52,16L419,298.64L419.27,16L419.32,16L419.48,296.01L420.04,105.41L420.1,16L420.76,281.34L420.84,215L420.86,16L421.26,301.56L421.62,165.97L421.62,16L421.88,298.64L421.93,27.54L421.97,27.54L421.97,292.88L421.99,16L422.7,271.24L422.73,16L422.82,301.53L423.48,261.15L423.48,16L424.07,284.22L424.13,16L424.14,16L424.15,294.32L424.85,16L424.9,16L425.15,301.53L425.63,30.42L425.68,142.62L425.68,16L426.35,298.64L426.43,16L426.51,255.38L426.58,293.32L427.24,16L427.25,177.51L427.27,142.9L427.41,251.06L428.02,16L428.09,134.25L428.16,16L428.71,301.53L428.77,298.64L428.85,298.64L428.93,301.53L429,16L429.59,138.02L429.66,16L430.24,285.67L430.49,272.69L430.49,176.07L430.52,16L431.11,275.57L431.23,16L431.25,90.99L431.25,16L431.38,300.81L431.99,16L432.01,177.51L432.01,16L432.15,301.53L432.76,70.8L432.77,16L433.35,293.5L433.44,16L433.55,256.82L433.61,16L433.75,289.99L434.27,209.24L434.31,16L434.34,288.55L435.03,16L435.12,30.42L435.15,16L435.47,298.64L435.84,223.66L435.88,16L436.26,292.88L436.56,284.97L436.64,33.3L436.7,16L437.09,301.53L437.38,16L437.45,16L437.62,303.69L438.14,16L438.25,16L438.25,278.45L438.91,59.26L439.01,99.64L439.01,16L439.46,289.99L439.72,264.03L439.77,16L440.18,281.34L440.49,171.74L440.51,82.33L440.53,16L440.69,295.76L441.26,16L441.29,27.54L441.4,16L441.63,297.92L442.02,243.85L442.05,220.77L442.24,16L442.72,301.53L442.78,19.32L442.86,158.55L443.42,286.39L443.58,16L443.58,111.18L443.58,280.71L443.66,16L444.05,300.09L444.33,151.55L444.35,275.57L444.53,16L444.57,295.76L445.09,82.33L445.14,141.16L445.14,16L445.49,301.53L445.85,191.93L445.92,16L445.99,275.83L446.7,169.03L446.7,16L447.1,295.76L447.42,16L447.46,16L447.81,298.64L448.11,284.22L448.24,27.54L448.24,292.88L448.27,16L448.97,16L449.02,191.93L449.02,16L449.18,295.76L449.77,16L449.78,16L450.14,302.97L450.52,151.55L450.57,145.79L450.58,16L450.62,301.53L451.32,292.88L451.34,94.17L451.38,16L451.53,298.64L452,289.99L452.11,30.42L452.4,301.53L452.61,16L452.65,264.03L452.78,16L452.91,292.01L453.37,122.71L453.44,16L453.54,277.73L454.11,128.48L454.17,16L454.31,299.36L454.64,284.22L454.66,16L455.37,301.53L455.4,16L455.42,16L456.17,295.76L456.17,76.57L456.22,261.15L456.22,16L456.35,284.29L456.93,16L456.98,41.96L457.04,16L457.74,292.88L457.74,27.54L457.8,16L457.96,301.44L458.45,194.82L458.5,16L458.57,292.88L459.19,238.08L459.28,226.54L459.39,16L459.67,301.53L459.92,16L460.05,287.11L460.09,16L460.21,299.26L460.72,264.03L460.83,16L461.26,287.11L461.54,70.8L461.6,24.65L461.6,16L461.65,300.09L462.35,16L462.36,232.31L462.36,16L463.03,284.22L463.08,16L463.15,108.29L463.16,16L463.23,295.76L463.81,16L463.95,292.88L463.95,16L464.66,16L464.71,122.71L464.84,16L465.31,298.64L465.41,125.6L465.46,16L465.62,16L465.62,296.24L465.62,16L466.3,298.64L466.36,243.85L466.4,76.57L466.46,16L467.15,299.35L467.15,16L467.18,27.54L467.27,16L467.76,301.53L467.89,56.38L467.93,21.77L468.03,16L468.4,281.34L468.67,16L468.69,16L469.22,298.64L469.38,65.03L469.45,16L470.12,301.53L470.15,16L470.23,298.64L470.91,249.61L470.95,192.77L471.07,298.64L471.48,16L471.53,44.84L471.54,275.57L471.69,16L472.27,288.82L472.3,33.3L472.32,287.11L472.87,16L472.9,281.34L472.95,290.68L473.53,16L473.77,16L474.13,302.97L474.47,16L474.53,16L475.06,302.97L475.09,122.71L475.12,16L475.71,302.26L475.87,27.54L475.88,16L476.16,292.88L476.65,240.96L476.66,79.45L476.86,292.98L477.41,16L477.42,200.58L477.49,16L477.78,301.53L478.16,154.44L478.18,165.97L478.52,298.64L478.84,16L478.91,275.57L478.97,16L479.31,289.99L479.71,16L479.73,16L480.53,302.97L480.53,88.1L480.9,16L481.1,291.43L481.27,99.64L481.3,187.61L481.31,16L482.01,290.68L482.03,50.61L482.06,76.57L482.11,16L482.14,275.57L482.8,16L482.87,16L483.63,284.22L483.63,36.19L483.97,287.11L483.99,16L484.04,261.15L484.04,287.11L484.79,16L484.84,16L484.99,298.64L485.53,278.45L485.6,16L486.17,291.43L486.34,266.92L486.38,53.49L486.39,16L486.87,299.36L487.1,90.99L487.17,16L487.36,16L487.38,295.76L487.41,16L487.41,296.48L488.13,284.22L488.17,180.39L488.33,275.57L488.8,16L488.87,148.67L488.96,171.74L489.06,16L489.08,292.88L489.71,264.03L489.73,56.38L489.75,16L489.98,300.5L490.48,56.38L490.52,16L490.58,295.76L491.28,157.32L491.29,36.19L491.36,16L491.73,293.32L492.02,229.42L492.07,157.32L492.11,16L492.66,293.32L492.82,258.27L492.88,16L493.35,298.76L493.63,16L493.8,16L494.07,301.53L494.43,16L494.62,261.15L494.62,16L495.32,298.64L495.39,21.77L495.53,301.53L495.8,16L495.83,79.45L495.83,240.96L495.99,284.22L496.57,16L496.59,39.07L496.59,281.34L496.63,292.88L497.24,16L497.34,114.06L497.36,16L498.09,289.99L498.09,261.15L498.14,16L498.34,16L498.38,24.65L498.38,16L498.43,295.76L499.12,266.92L499.19,67.91L499.19,16L499.65,289.99L499.94,267.88L499.96,287.11L499.96,16L500.32,303.77L500.7,140.65L500.76,16L500.85,301.47L501.51,16L501.52,16L502.24,289.23L502.27,16L502.33,56.38L502.34,16L502.54,298.64L503.08,16L503.11,256.82L503.12,16L503.39,297.92L503.84,96.76L503.87,16L504.57,302.25L504.62,209.27L504.64,16L504.95,299.36L505.39,258.27L505.42,16L505.79,301.56L506.13,16L506.19,295.76L506.35,16L506.54,298.64L506.93,16L507.01,16L507.71,301.53L507.78,19.39L507.78,16L507.81,298.64L508.53,16L508.56,16L509.03,275.57L509.29,16L509.32,142.9L509.34,16L509.56,292.88L510.06,16L510.11,16L510.39,298.64L510.88,125.6L510.94,16L511,281.34" style="vector-effect: non-scaling-stroke; fill: none; stroke: rgb(99, 110, 250); stroke-opacity: 1; stroke-width: 2px; opacity: 1;"/></g><g class="points"/><g class="text"/></g></g></g><g class="overplot"/><path class="xlines-above crisp" d="M0,0" style="fill: none;"/><path class="ylines-above crisp" d="M0,0" style="fill: none;"/><g class="overlines-above"/><g class="xaxislayer-above"><g class="xtick"><text text-anchor="middle" x="0" y="436" transform="translate(198.2,0)" style="font-family: 'Times New Roman'; font-size: 15px; fill: rgb(13, 13, 13); fill-opacity: 1; white-space: pre; opacity: 1;">1.61252×10​<tspan style="font-size:70%" dy="-0.6em">18</tspan><tspan dy="0.42em">​</tspan></text></g><g class="xtick"><text text-anchor="middle" x="0" y="436" style="font-family: 'Times New Roman'; font-size: 15px; fill: rgb(13, 13, 13); fill-opacity: 1; white-space: pre; opacity: 1;" transform="translate(299.61,0)">1.612525×10​<tspan style="font-size:70%" dy="-0.6em">18</tspan><tspan dy="0.42em">​</tspan></text></g><g class="xtick"><text text-anchor="middle" x="0" y="436" style="font-family: 'Times New Roman'; font-size: 15px; fill: rgb(13, 13, 13); fill-opacity: 1; white-space: pre; opacity: 1;" transform="translate(401.02,0)">1.61253×10​<tspan style="font-size:70%" dy="-0.6em">18</tspan><tspan dy="0.42em">​</tspan></text></g><g class="xtick"><text text-anchor="middle" x="0" y="436" style="font-family: 'Times New Roman'; font-size: 15px; fill: rgb(13, 13, 13); fill-opacity: 1; white-space: pre; opacity: 1;" transform="translate(502.43,0)">1.612535×10​<tspan style="font-size:70%" dy="-0.6em">18</tspan><tspan dy="0.42em">​</tspan></text></g><g class="xtick"><text text-anchor="middle" x="0" y="436" style="font-family: 'Times New Roman'; font-size: 15px; fill: rgb(13, 13, 13); fill-opacity: 1; white-space: pre; opacity: 1;" transform="translate(603.8399999999999,0)">1.61254×10​<tspan style="font-size:70%" dy="-0.6em">18</tspan><tspan dy="0.42em">​</tspan></text></g></g><g class="yaxislayer-above"><g class="ytick"><text text-anchor="end" x="108" y="12.25" transform="translate(0,404.41)" style="font-family: 'Times New Roman'; font-size: 35px; fill: rgb(13, 13, 13); fill-opacity: 1; white-space: pre; opacity: 1;">0</text></g><g class="ytick"><text text-anchor="end" x="108" y="12.25" style="font-family: 'Times New Roman'; font-size: 35px; fill: rgb(13, 13, 13); fill-opacity: 1; white-space: pre; opacity: 1;" transform="translate(0,346.73)">20</text></g><g class="ytick"><text text-anchor="end" x="108" y="12.25" style="font-family: 'Times New Roman'; font-size: 35px; fill: rgb(13, 13, 13); fill-opacity: 1; white-space: pre; opacity: 1;" transform="translate(0,289.05)">40</text></g><g class="ytick"><text text-anchor="end" x="108" y="12.25" style="font-family: 'Times New Roman'; font-size: 35px; fill: rgb(13, 13, 13); fill-opacity: 1; white-space: pre; opacity: 1;" transform="translate(0,231.36)">60</text></g><g class="ytick"><text text-anchor="end" x="108" y="12.25" style="font-family: 'Times New Roman'; font-size: 35px; fill: rgb(13, 13, 13); fill-opacity: 1; white-space: pre; opacity: 1;" transform="translate(0,173.68)">80</text></g><g class="ytick"><text text-anchor="end" x="108" y="12.25" style="font-family: 'Times New Roman'; font-size: 35px; fill: rgb(13, 13, 13); fill-opacity: 1; white-space: pre; opacity: 1;" transform="translate(0,116)">100</text></g></g><g class="overaxes-above"/></g></g><g class="polarlayer"/><g class="smithlayer"/><g class="ternarylayer"/><g class="geolayer"/><g class="funnelarealayer"/><g class="pielayer"/><g class="iciclelayer"/><g class="treemaplayer"/><g class="sunburstlayer"/><g class="glimages"/><defs id="topdefs-33d8fa"><g class="clips"/></defs><g class="layer-above"><g class="imagelayer"/><g class="shapelayer"/></g><g class="infolayer"><g class="g-gtitle"/><g class="g-xtitle"><text class="xtitle" x="364.5" y="463.8" text-anchor="middle" style="font-family: 'Open Sans', verdana, arial, sans-serif; font-size: 14px; fill: rgb(42, 63, 95); opacity: 1; font-weight: normal; white-space: pre;">Time Steps (ns)</text></g><g class="g-ytitle" transform="translate(23.5,0)"><text class="ytitle" transform="rotate(-90,12.5,260)" x="12.5" y="260" text-anchor="middle" style="font-family: 'Times New Roman'; font-size: 40px; fill: rgb(13, 13, 13); opacity: 1; font-weight: normal; white-space: pre;">Fill rate (in %)</text></g></g></svg>