<svg class="main-svg" xmlns="http://www.w3.org/2000/svg" xmlns:xlink="http://www.w3.org/1999/xlink" width="700" height="500" style="" viewBox="0 0 700 500"><rect x="0" y="0" width="700" height="500" style="fill: rgb(255, 255, 255); fill-opacity: 1;"/><defs id="defs-8d9c10"><g class="clips"><clipPath id="clip8d9c10xyplot" class="plotclip"><rect width="511" height="320"/></clipPath><clipPath class="axesclip" id="clip8d9c10x"><rect x="109" y="0" width="511" height="500"/></clipPath><clipPath class="axesclip" id="clip8d9c10y"><rect x="0" y="100" width="700" height="320"/></clipPath><clipPath class="axesclip" id="clip8d9c10xy"><rect x="109" y="100" width="511" height="320"/></clipPath></g><g class="gradients"/><g class="patterns"/></defs><g class="bglayer"><rect class="bg" x="109" y="100" width="511" height="320" style="fill: rgb(229, 236, 246); fill-opacity: 1; stroke-width: 0;"/></g><g class="layer-below"><g class="imagelayer"/><g class="shapelayer"/></g><g class="cartesianlayer"><g class="subplot xy"><g class="layer-subplot"><g class="shapelayer"/><g class="imagelayer"/></g><g class="minor-gridlayer"><g class="x"/><g class="y"/></g><g class="gridlayer"><g class="x"><path class="xgrid crisp" transform="translate(198.15,0)" d="M0,100v320" style="stroke: rgb(255, 255, 255); stroke-opacity: 1; stroke-width: 1px;"/><path class="xgrid crisp" transform="translate(299.58000000000004,0)" d="M0,100v320" style="stroke: rgb(255, 255, 255); stroke-opacity: 1; stroke-width: 1px;"/><path class="xgrid crisp" transform="translate(401,0)" d="M0,100v320" style="stroke: rgb(255, 255, 255); stroke-opacity: 1; stroke-width: 1px;"/><path class="xgrid crisp" transform="translate(502.42,0)" d="M0,100v320" style="stroke: rgb(255, 255, 255); stroke-opacity: 1; stroke-width: 1px;"/><path class="xgrid crisp" transform="translate(603.85,0)" d="M0,100v320" style="stroke: rgb(255, 255, 255); stroke-opacity: 1; stroke-width: 1px;"/></g><g class="y"><path class="ygrid crisp" transform="translate(0,346.98)" d="M109,0h511" style="stroke: rgb(255, 255, 255); stroke-opacity: 1; stroke-width: 1px;"/><path class="ygrid crisp" transform="translate(0,289.23)" d="M109,0h511" style="stroke: rgb(255, 255, 255); stroke-opacity: 1; stroke-width: 1px;"/><path class="ygrid crisp" transform="translate(0,231.49)" d="M109,0h511" style="stroke: rgb(255, 255, 255); stroke-opacity: 1; stroke-width: 1px;"/><path class="ygrid crisp" transform="translate(0,173.74)" d="M109,0h511" style="stroke: rgb(255, 255, 255); stroke-opacity: 1; stroke-width: 1px;"/><path class="ygrid crisp" transform="translate(0,116)" d="M109,0h511" style="stroke: rgb(255, 255, 255); stroke-opacity: 1; stroke-width: 1px;"/></g></g><g class="zerolinelayer"><path class="yzl zl crisp" transform="translate(0,404.72)" d="M109,0h511" style="stroke: rgb(255, 255, 255); stroke-opacity: 1; stroke-width: 2px;"/></g><path class="xlines-below"/><path class="ylines-below"/><g class="overlines-below"/><g class="xaxislayer-below"/><g class="yaxislayer-below"/><g class="overaxes-below"/><g class="plot" transform="translate(109,100)" clip-path="url(#clip8d9c10xyplot)"><g class="scatterlayer mlayer"><g class="trace scatter trace164584" style="stroke-miterlimit: 2; opacity: 1;"><g class="fills"/><g class="errorbars"/><g class="lines"><path class="js-line" d="M0,16L0.43,251.31L0.75,232.54L0.88,88.18L1.25,268.63L1.68,16L1.81,16L2.29,284.51L2.55,16L2.57,16L2.77,298.95L3.38,270.08L3.39,16L3.48,301.86L4.01,16L4.23,294.62L4.3,301.83L4.92,16L4.98,88.18L5.04,16L5.14,284.51L5.69,271.73L5.75,258.53L5.75,16L6.27,293.17L6.41,291.15L6.55,24.66L6.55,296.06L6.94,16L7.29,157.47L7.39,163.25L7.41,16L7.9,301.83L8.09,18.89L8.14,301.83L8.81,16L8.9,85.29L9.01,59.31L9.05,16L9.11,281.62L9.75,241.2L9.8,154.59L10.07,298.95L10.18,16L10.18,50.65L10.18,291.73L10.57,298.95L11.01,16L11.01,16L11.09,186.35L11.16,16L11.44,258.53L11.77,145.92L11.9,16L11.98,285.95L12.3,174.8L12.45,16L13.09,290.29L13.09,16L13.14,290.29L13.82,134.38L13.93,16L14.57,297.5L14.62,290.29L14.62,44.87L14.78,296.06L15.25,16L15.27,39.1L15.27,281.62L15.76,296.06L16.08,16L16.09,302.56L16.84,16L16.84,16L16.96,16L17.12,287.4L17.69,16L17.76,16L18.29,295.34L18.5,265.74L18.55,91.07L18.61,16L18.79,296.06L19.24,104.84L19.34,16L19.52,296.06L20.04,226.77L20.1,16L20.34,16L20.34,183.46L20.36,16L20.38,291.01L21.06,244.09L21.16,244.09L21.21,16L21.3,300.07L21.86,16L21.99,16L22.64,297.5L22.71,16L22.76,180.57L23.1,301.83L23.26,16L23.33,18.89L23.33,301.83L24.11,16L24.23,16L24.34,290.29L24.95,16L25.02,16L25.09,290.29L25.76,255.64L25.78,16L26.15,294.62L26.52,16L26.54,36.21L26.64,16L26.89,296.06L27.28,16L27.32,53.53L27.32,16L27.35,267.19L28.07,16L28.1,16L28.61,303.28L28.73,261.41L28.84,16L29.03,16L29.03,270.08L29.69,296.06L29.78,16L29.84,16L29.9,287.4L29.95,62.2L30.04,33.32L30.08,287.4L30.08,16L30.69,275.85L30.79,16L31.04,252.75L31.45,16L31.62,160.36L31.62,16L32.26,278.74L32.33,16L32.42,249.86L32.42,16L33.11,278.74L33.15,41.98L33.18,16L33.45,298.95L33.93,252.75L33.96,16L33.99,268.63L34.73,267.19L34.73,16L34.74,296.78L35.41,280.18L35.49,180.57L35.6,16L35.97,298.95L36.24,16L36.28,16L36.44,16L36.44,232.54L37.02,302.8L37.24,16L37.28,91.07L37.33,16L37.42,272.96L38.02,163.25L38.06,192.12L38.62,301.83L38.77,16L38.83,117.05L39.1,298.95L39.46,16L39.64,220.99L39.81,16L40.16,275.85L40.39,16L40.47,195.73L40.47,16L41.14,288.84L41.22,235.43L41.24,235.43L41.38,16L41.62,301.02L41.97,56.42L42.01,16L42.39,291.44L42.76,16L42.79,16L43.35,298.95L43.51,189.23L43.58,148.81L43.66,16L44.12,271.51L44.31,169.02L44.34,16L44.72,294.62L45.03,215.22L45.1,16L45.69,298.95L45.85,16L45.87,16L45.98,301.83L46.64,252.75L46.7,62.2L46.7,16L47.18,293.17L47.45,119.11L47.52,258.53L47.76,298.95L48.26,16L48.29,212.33L48.37,16L49.02,301.83L49.03,16L49.07,160.36L49.09,300.87L49.09,16L49.49,301.83L49.84,177.68L49.87,16L50.2,298.95L50.59,59.31L50.6,16L51.25,302.56L51.33,301.83L51.38,16L51.93,301.83L52.15,76.63L52.19,53.53L52.21,16L52.88,298.95L52.93,293.17L52.96,16L53.04,293.17L53.42,268.25L53.5,16L53.53,290.29L54.13,206.56L54.27,16L54.39,271.91L55.02,96.84L55.02,16L55.6,298.95L55.77,154.59L55.89,16L56.58,301.83L56.6,16L56.65,16L57.25,246.98L57.38,96.84L57.49,96.84L57.67,16L57.74,278.74L58.24,88.18L58.26,290.1L59,16L59.01,24.66L59.01,302.56L59.09,16L59.74,73.02L59.78,16L60.45,293.17L60.51,16L60.55,16L60.72,50.65L60.75,270.08L60.76,294.33L61.48,16L61.49,293.17L61.52,16L62.02,293.62L62.16,27.55L62.31,16L63.06,296.06L63.09,293.17L63.09,16L63.13,24.66L63.13,296.06L63.13,16L63.49,301.83L63.88,16L63.94,166.14L63.97,16L64.39,298.95L64.67,16L64.7,117.05L65.21,299.52L65.42,16L65.42,16L65.51,276.11L65.51,16L65.61,293.17L66.26,192.12L66.33,72.3L66.76,301.83L67.01,16L67.05,264.3L67.69,293.17L67.82,16L67.84,166.14L68.51,304L68.53,16L68.59,131.49L68.62,122.83L68.72,16L69.23,301.83L69.38,16L69.38,301.83L70.13,16L70.17,16L70.66,278.74L70.89,249.86L70.95,16L71.07,262.86L71.67,16L71.74,16L71.89,36.21L71.89,299.67L72.58,301.83L72.66,16L72.66,39.1L72.69,16L72.98,304L73.39,239.91L73.44,16L74.03,301.83L74.21,203.67L74.24,117.05L74.81,301.83L74.88,16L74.95,145.92L74.99,174.8L75.07,16L75.3,293.17L75.71,16L75.75,86.74L75.75,16L76.12,290.29L76.48,275.85L76.54,206.56L76.54,16L76.88,301.83L77.28,56.42L77.33,16L77.72,296.06L78.05,16L78.09,16L78.76,301.26L78.91,252.75L78.91,67.97L79.11,269.35L79.33,16L79.38,143.86L79.41,246.98L79.41,16L79.73,287.4L80.06,33.32L80.19,16L80.73,291.73L80.93,125.71L80.94,44.87L80.99,16L81.6,297.5L81.69,71.52L81.7,33.32L81.72,16L82,287.4L82.41,163.25L82.47,111.28L82.52,16L82.83,275.85L83.21,16L83.26,16L83.34,27.55L83.34,293.17L83.97,16L83.97,177.34L83.97,249.86L84.44,284.51L84.59,16L84.69,166.14L84.73,154.59L84.77,16L84.96,284.51L85.29,140.15L85.32,16L85.98,298.95L85.98,16L86.71,298.95L86.75,131.49L86.78,16L87.24,291.01L87.5,16L87.54,16L87.96,287.4L88.29,39.1L88.3,16L89.07,296.06L89.07,24.66L89.2,296.06L89.53,16L89.81,287.4L89.82,16L90,300.39L90.56,16L90.59,16L90.83,299.67L91.33,16L91.36,16L91.9,298.95L92.07,192.12L92.08,16L92.46,295.34L92.79,16L92.84,16L92.97,295.06L93.59,151.7L93.62,16L94.01,297.98L94.35,16L94.4,16L94.64,304L95.15,56.42L95.26,16L95.29,296.06L96,16L96.1,226.77L96.16,296.06L96.36,16L96.82,166.14L96.88,154.59L96.95,16L97.61,290.29L97.63,246.98L97.69,16L97.88,264.3L97.98,16L98.23,294.62L98.54,99.73L98.54,16L98.55,300.71L99.29,197.89L99.3,50.65L99.33,16L99.69,294.62L100.05,62.2L100.06,16L100.61,301.83L100.77,128.6L100.92,16L101.31,301.88L101.64,16L101.68,16L102.05,296.06L102.42,172.39L102.45,16L103.02,267.19L103.16,16L103.2,16L103.74,301.86L103.95,16L103.99,16L104.55,301.86L104.66,91.07L104.76,122.83L105.05,287.4L105.37,16L105.5,73.74L105.5,246.98L105.51,16L106.23,278.74L106.25,229.65L106.31,16L106.4,296.06L107.05,290.29L107.05,30.44L107.12,290.29L107.69,16L107.78,274.41L108.37,16L108.46,285.95L108.49,131.49L108.58,192.12L108.63,16L108.74,281.62L109.3,16L109.34,16L109.98,283.79L110.09,212.33L110.1,16L110.59,294.62L110.85,270.08L110.86,50.65L110.95,249.86L110.98,16L110.99,293.17L111.52,245.4L111.52,16L111.76,290.29L112.3,232.54L112.3,151.7L112.32,16L112.75,296.06L113,218.11L113.06,16L113.45,298.95L113.81,88.18L113.88,50.65L113.94,16L114.23,288.97L114.63,143.04L114.7,16L115.26,293.17L115.41,16L115.46,16L115.49,287.4L116.23,229.65L116.23,16L116.68,290.29L116.98,16L117.04,16L117.1,300.6L117.75,143.04L117.77,51.35L117.92,16L118.44,294.62L118.52,275.85L118.53,16L119.09,284.51L119.24,50.65L119.24,16L119.25,297.5L119.9,16L120,16L120.65,275.85L120.72,16L120.76,16L121.19,289.25L121.51,227.73L121.53,27.55L121.53,16L121.54,293.17L122.27,16L122.37,223.88L123.04,290.29L123.09,16L123.12,176.24L123.12,272.96L123.43,293.17L123.93,16L123.93,177.68L123.93,16L124.04,293.17L124.66,249.86L124.69,16L125.29,252.75L125.46,157.47L125.51,163.25L126.16,298.95L126.2,16L126.2,298.95L126.3,284.51L126.4,16L126.53,300.39L127.01,53.53L127.09,16L127.09,287.4L127.82,16L127.88,16L128.46,287.4L128.63,62.2L128.67,266.03L128.93,301.11L129.42,16L129.44,300.39L129.44,16L130.19,157.47L130.21,39.1L130.51,16L130.51,16L130.51,296.78L130.51,16L130.66,301.83L131.15,16L131.28,16L131.82,283.07L132.01,209.44L132.05,209.44L132.42,272.96L132.76,16L132.8,136.57L132.83,16L133.39,298.95L133.56,16L133.63,16L134.21,284.51L134.38,16L134.5,249.86L134.77,272.96L135.22,16L135.23,241.2L135.29,16L135.84,277.29L136.05,105.5L136.07,131.49L136.24,16L136.36,241.2L136.61,183.46L136.62,16L137.21,287.4L137.37,16L137.38,16L138.1,301.83L138.18,264.3L138.18,16L138.21,270.08L138.93,252.75L138.95,16L139.04,271.52L139.7,220.99L139.71,16L140.07,301.5L140.46,16L140.47,16L140.68,292.45L141.19,16L141.24,16L141.99,281.62L142.02,39.1L142.22,298.95L142.3,16L142.4,177.68L142.44,270.08L143.11,296.06L143.15,16L143.22,62.2L143.22,258.53L143.65,296.06L143.91,16L143.93,24.66L143.96,296.06L143.97,16L144.68,293.62L144.73,44.87L144.88,244.09L145.13,16L145.14,205.11L145.18,275.85L145.19,16L145.24,293.17L145.87,285.95L145.94,218.11L145.95,16L146.14,298.95L146.69,93.95L146.73,16L147.08,296.06L147.46,294.99L147.52,16L148.09,301.11L148.25,16L148.3,16L148.49,47.76L148.49,272.96L148.96,16L149.09,99.73L149.09,220.99L149.28,302.56L149.83,16L149.85,85.29L149.91,33.32L150.19,16L150.67,261.41L150.67,59.31L150.72,301.83L150.8,16L151.37,16L151.59,16L152.01,300.39L152.23,16L152.25,16L152.45,16L152.45,249.86L152.5,16L152.71,293.17L153.2,281.62L153.22,137.26L153.41,16L153.48,255.64L153.74,16L153.85,16L154.1,302.56L154.38,252.75L154.4,16L154.93,284.51L155.15,232.54L155.16,16L155.27,259.97L155.78,145.92L155.84,16L156.5,301.83L156.56,301.83L156.68,301.83L156.79,16L157.43,16L157.44,197.89L157.53,16L157.94,299.17L158.11,16L158.2,158.92L158.23,16L158.28,298.95L158.95,16L158.97,16L159.58,301.83L159.69,33.32L159.73,16L159.77,287.4L160.47,16L160.49,65.08L160.61,16L160.98,293.89L161.19,33.32L161.28,16L161.79,291.73L162.02,30.44L162.06,290.29L162.68,298.95L162.76,16L162.85,235.43L163.32,298.95L163.48,16L163.59,166.14L163.64,154.59L163.74,16L163.82,166.14L163.82,154.59L163.83,291.73L164.38,16L164.59,50.65L164.59,270.08L165.04,291.73L165.36,16L165.4,186.35L165.42,287.4L165.43,16L166.12,209.44L166.21,267.19L166.42,298.95L166.89,16L166.95,36.21L166.96,284.51L167.2,287.4L167.58,16L167.69,53.53L167.72,43.43L167.75,297.22L167.77,16L168.39,16L168.5,16L168.71,260.84L169.2,16L169.28,16L169.65,281.62L169.87,67.97L169.91,16L170.25,298.95L170.6,220.99L170.69,99.73L170.85,298.95L170.89,16L171.35,151.7L171.45,16L172.16,285.23L172.21,270.08L172.21,50.65L172.29,301.83L172.95,16L172.95,16L172.95,87.49L173.03,16L173.45,298.95L173.7,257.8L173.77,119.94L174.37,296.06L174.45,16L174.45,16L174.52,166.14L174.64,16L174.83,298.95L175.22,101.17L175.28,16L176.02,287.4L176.02,33.32L176.06,99.73L176.13,16L176.7,284.51L176.83,163.25L176.83,16L177.35,301.35L177.56,16L177.59,128.6L177.66,287.4L178.11,16L178.29,67.97L178.29,252.75L178.29,16L179.02,296.06L179.04,16L179.06,281.62L179.07,296.06L179.11,16L179.81,16L179.82,59.31L179.86,16L180.39,283.07L180.55,252.75L180.62,59.31L180.73,16L181.26,301.83L181.31,16L181.38,93.95L181.38,16L182.13,281.62L182.13,16L182.17,16L182.91,304L182.96,189.23L182.96,16L183.73,267.19L183.73,16L183.99,298.95L184.47,226.42L184.49,16L184.87,275.85L185.23,16L185.24,16L185.46,301.83L185.93,163.25L186.07,184.9L186.76,301.44L186.79,16L186.79,200.78L186.83,119.94L186.94,16L187.43,276.57L187.5,212.33L187.58,108.39L187.93,16L188.18,294.91L188.31,76.63L188.39,278.74L188.45,16L189.11,16L189.17,16L189.74,291.73L189.91,16L189.94,16L190.07,298.95L190.64,244.09L190.64,16L191.23,291.73L191.32,16L191.41,267.19L191.46,16L191.76,303.28L192.13,16L192.17,67.97L192.17,252.75L192.24,16L192.88,67.97L192.95,67.97L193.04,16L193.44,297.35L193.68,102.62L193.73,227.26L193.74,16L194.35,290.29L194.45,16L194.53,281.62L194.63,16L195.18,222.23L195.38,70.86L195.47,16L195.85,301.83L196.11,16L196.15,284.51L196.28,16L196.5,290.29L196.86,16L196.97,258.53L197.02,16L197.52,293.59L197.72,102.62L197.73,226.77L198.44,261.41L198.47,16L198.47,192.12L198.52,128.6L198.68,293.62L198.69,16L199.21,152.42L199.22,16L199.95,272.96L199.95,47.76L199.97,16L200.38,301.83L200.65,16L200.72,265.74L201.42,293.89L201.44,16L201.51,265.74L201.52,16L202.12,291.73L202.24,16L202.36,235.43L203.09,301.83L203.11,16L203.15,264.3L203.73,300.87L203.76,16L203.76,169.02L203.93,16L204.1,287.4L204.17,85.29L204.19,16L204.86,297.5L204.89,215.22L204.93,16L205.43,301.83L205.64,16L205.72,16L206.11,301.83L206.38,16L206.55,16L206.68,301.83L207.12,163.25L207.12,16L207.78,298.95L207.81,54.5L207.87,16L208.57,264.3L208.66,56.42L208.78,16L209.06,281.62L209.4,16L209.43,160.36L209.43,16L210.02,232.54L210.13,96.84L210.2,102.62L210.24,16L210.75,301.83L210.94,48.08L210.94,39.1L210.97,16L211.23,296.31L211.66,82.41L211.7,238.32L211.74,16L211.76,281.62L212.35,139.74L212.35,16L212.57,278.74L213.07,16L213.12,16L213.36,288.36L213.87,16L213.95,160.36L213.95,16L214.47,265.74L214.69,16L214.72,16L215.35,290.97L215.45,290.29L215.45,16L215.69,285.95L215.82,224.52L215.82,44.87L215.98,16L216.34,296.06L216.6,189.23L216.63,16L217.32,295.34L217.39,281.62L217.4,41.98L217.54,16L217.76,295.41L218.13,145.92L218.27,16L218.94,270.08L218.94,16L219.15,284.51L219.69,16L219.71,223.88L219.71,16L220.38,303.28L220.46,235.43L220.5,16L220.54,298.95L221.23,16L221.26,30.44L221.28,16L221.42,288.12L221.95,119.94L222.03,16L222.44,281.62L222.84,206.56L222.84,114.17L222.96,16L223.27,293.17L223.52,206.56L223.52,16L224.1,296.06L224.28,293.17L224.28,16L224.3,293.17L225.03,267.19L225.06,16L225.31,298.95L225.81,272.64L225.84,21.77L225.86,298.95L225.89,16L226.58,111.28L226.6,39.1L226.6,281.62L226.67,16L227.3,16L227.38,16L227.4,281.62L228.02,258.53L228.06,16L228.54,298.95L228.73,16L228.85,16L228.96,299.67L229.59,16L229.65,85.29L229.65,16L229.86,293.17L230.39,16L230.43,16L230.48,298.23L231.16,16L231.2,180.57L231.34,16L231.57,293.17L231.94,91.07L231.96,229.65L232.59,293.17L232.74,16L232.74,16L232.75,258.53L232.75,16L232.87,300.39L233.5,16L233.55,162.37L233.72,16L234.02,284.51L234.28,16L234.31,102.62L234.31,16L234.81,293.17L235.04,16L235.07,180.57L235.1,298.95L235.8,16L235.9,225.32L235.91,16L236.19,293.62L236.65,222.23L236.66,218.11L236.7,16L236.9,301.83L237.39,16L237.47,43.43L237.52,16L237.7,297.5L238.12,16L238.2,16L238.34,296.06L238.96,65.08L238.96,16L239.35,301.83L239.69,174.8L239.73,79.52L239.92,16L240.44,301.83L240.47,16L240.5,16L240.56,296.78L241.15,16L241.25,102.62L241.32,16L241.89,285.95L242,16L242.01,16L242.3,298.58L242.74,218.11L242.8,148.81L242.82,16L243,296.31L243.54,215.22L243.56,105.5L243.59,16L243.98,299.06L244.31,16L244.44,21.77L244.48,298.95L244.5,16L245.1,16L245.21,21.77L245.21,303.28L245.24,16L245.91,73.74L245.97,16L246.64,301.83L246.7,16L246.78,16L247.3,290.29L247.52,16L247.65,16L248.12,298.95L248.34,16L248.47,16L249.02,293.89L249.2,182.44L249.24,119.94L249.27,16L249.62,261.41L250,228.21L250.04,16L250.2,266.47L250.68,84.74L250.71,16L251.08,301.83L251.45,125.71L251.47,16L251.56,291.4L252.22,261.41L252.25,59.31L252.47,16L252.54,302.56L252.97,232.54L253.01,16L253.22,16L253.22,232.54L253.22,16L253.76,301.83L253.91,16L254.07,16L254.33,301.83L254.69,16L254.85,200.78L254.85,296.06L254.85,16L255.6,16L255.61,287.4L255.64,16L256.22,288.36L256.35,65.08L256.4,238.32L256.62,303.35L257.15,16L257.17,16L257.82,298.98L257.89,27.55L257.92,16L258.3,298.95L258.65,148.81L258.7,16L259.13,278.74L259.41,16L259.47,284.51L259.48,16L260.21,93.95L260.25,16L260.28,287.4L260.94,16L261.02,16L261.34,275.85L261.81,212.33L261.84,16L262.47,287.4L262.56,50.65L262.61,16L263.21,303.64L263.34,270.08L263.41,16L263.86,301.83L264.15,36.21L264.19,36.21L264.21,16L264.75,252.75L264.93,16L264.96,16L265.27,290.29L265.69,16L265.77,16L266.01,290.29L266.52,238.32L266.56,16L267.1,293.17L267.21,16L267.32,101.17L267.42,16L268.02,298.95L268.03,16L268.11,293.17L268.12,298.95L268.12,16L268.85,241.2L268.88,298.95L269.61,16L269.66,16L269.89,275.85L270.39,16L270.42,16L270.62,301.83L271.24,281.62L271.24,39.1L271.31,203.67L271.61,16L271.61,252.75L271.63,16L272.12,302.99L272.36,128.6L272.42,16L272.58,297.5L273.13,171.91L273.19,148.81L273.19,16L273.89,285.83L273.94,263.48L273.96,16L273.96,294.62L274.65,16L274.78,24.66L274.78,302.56L274.91,16L275.52,293.17L275.58,267.19L275.58,16L276.29,298.95L276.31,166.14L276.37,16L276.4,291.73L276.88,102.62L276.91,16L277.57,267.19L277.71,47.76L277.87,16L277.96,290.29L278.46,16L278.49,16L279.12,300.1L279.22,91.07L279.25,91.07L279.61,290.29L279.95,16L279.95,88.18L279.96,195.01L279.96,16L280.13,285.95L280.69,232.54L280.75,88.18L281.01,296.06L281.45,16L281.49,235.43L281.53,16L281.92,249.86L282.24,16L282.26,259.97L282.31,16L282.62,296.78L283.01,16L283.04,16L283.2,16L283.2,16L283.28,208.48L283.28,16L283.74,301.83L284,24.66L284.09,16L284.78,296.06L284.81,16L284.85,16L284.91,302.8L285.61,220.99L285.67,16L285.69,287.4L286.42,16L286.45,235.43L286.45,16L286.91,296.06L287.13,296.06L287.21,24.66L287.21,296.06L287.27,16L287.95,16L287.98,275.85L287.98,16L288.17,300.82L288.69,16L288.82,222.23L288.95,16L289.22,297.5L289.54,284.51L289.68,36.21L289.74,16L289.78,290.29L290.42,130.64L290.48,186.35L290.52,16L290.65,301.83L291.19,102.62L291.26,16L291.48,301.86L291.88,16L292.06,16L292.27,293.62L292.72,102.62L292.76,102.62L292.76,16L293.42,290.29L293.51,290.29L293.53,16L293.88,291.73L294.29,252.75L294.29,16L294.96,300.99L295.08,203.67L295.08,117.05L295.12,16L295.56,300.39L295.75,99.73L295.89,220.99L295.9,16L296.21,296.06L296.62,16L296.65,258.53L296.69,16L297.29,298.95L297.4,16L297.41,270.08L297.47,298.95L297.51,16L298.16,16L298.17,251.97L298.46,303.28L298.94,16L298.99,21.77L298.99,303.28L299.02,16L299.72,137.26L299.82,16L300.39,301.83L300.6,206.56L300.65,16L300.71,291.72L301.39,16L301.42,16L301.7,299.67L302.12,50.65L302.18,16L302.29,301.11L302.89,160.36L303,16L303.12,296.06L303.73,128.6L303.82,238.32L303.93,16L304.23,280.66L304.53,73.74L304.59,131.49L304.6,16L304.86,301.83L305.34,16L305.44,239.28L305.89,263.58L305.98,16L306.04,274.12L306.04,16L306.57,298.95L306.78,108.39L306.85,16L306.89,21.77L306.89,298.95L307.48,16L307.63,114.17L307.78,16L307.83,298.95L308.51,16L308.53,16L309.21,300.39L309.26,16L309.33,88.18L309.49,287.4L309.9,16L309.98,114.17L310.06,267.19L310.73,300.97L310.78,16L310.78,16L310.83,16L310.85,301.83L311.58,290.29L311.61,16L311.86,296.06L312.41,223.88L312.41,16L312.42,252.75L313.16,91.07L313.26,91.07L313.33,16L313.68,284.95L314.01,108.39L314.03,270.08L314.03,16L314.29,278.74L314.77,145.92L314.81,145.92L314.9,16L314.94,301.83L315.56,166.14L315.59,154.59L315.64,287.4L315.73,16L316.31,241.2L316.4,47.76L316.65,16L316.81,298.95L317.13,16L317.21,223.88L317.22,16L317.77,287.22L317.9,169.02L318.1,151.7L318.54,298.23L318.86,16L318.86,16L318.9,183.15L318.96,290.29L319.07,16L319.63,16L319.66,16L319.76,258.53L320.34,16L320.44,16L320.62,16L320.62,16L320.63,203.67L320.63,16L321.11,298.23L321.36,33.32L321.4,278.74L321.4,16L322.04,302.56L322.12,197.89L322.17,16L322.25,284.51L322.92,99.73L323.02,298.95L323.02,16L323.45,301.11L323.74,220.99L323.82,249.86L323.89,16L324.5,284.51L324.55,16L324.61,16L325.15,301.83L325.34,296.06L325.38,267.19L325.39,296.06L325.44,16L326.13,200.78L326.23,148.81L326.43,16L326.45,296.06L326.88,16L326.94,16L327.26,275.85L327.63,16L327.75,67.97L328.05,16L328.2,258.53L328.49,16L328.52,16L328.75,296.06L329.24,16L329.41,16L329.85,290.29L330.16,16L330.19,16L330.66,301.83L330.97,281.62L330.98,16L331.4,296.78L331.67,47.76L331.74,16L331.95,288.84L332.43,180.05L332.51,65.08L332.66,16L332.89,301.83L333.23,47.76L333.28,16L333.87,272.96L333.97,209.44L333.97,16L334.49,301.83L334.71,16L334.75,16L335.4,298.95L335.47,67.97L335.5,16L336.2,261.41L336.25,261.41L336.32,59.31L336.36,16L336.37,290.29L337.03,194.73L337.09,290.29L337.15,16L337.78,301.83L337.83,195.01L337.85,235.43L338.24,302.56L338.53,16L338.59,105.5L338.63,215.22L339.06,290.29L339.41,16L339.43,238.32L340.15,303.28L340.16,16L340.18,276.36L340.29,16L340.86,296.06L340.9,16L340.95,24.66L340.96,296.06L341.42,16L341.42,292.63L341.69,298.95L342.15,16L342.17,157.47L342.2,50.65L342.28,16L342.46,297.98L342.95,41.11L342.98,190.68L343.36,16L343.37,301.83L343.65,76.63L343.71,258.53L343.84,287.54L344.43,16L344.43,16L344.5,16L344.7,16L344.71,186.35L344.83,16L345.46,298.23L345.46,16L345.5,41.98L345.5,278.74L345.52,16L346.24,16L346.26,16L346.86,285.95L347,153.49L347.05,111.28L347.73,16L347.73,298.95L347.73,16L347.76,244.09L347.96,16L347.97,278.74L348.01,212.33L348.05,16L348.36,289.56L348.77,16L349.05,16L349.7,300.68L349.8,275.85L349.81,16L350.54,270.08L350.54,16L350.6,200.78L350.9,16L351.11,293.17L351.35,27.55L351.4,293.17L352.19,16L352.2,291.01L352.2,16L352.94,112.24L353,16L353.2,275.85L353.45,93.95L353.47,16L353.93,301.83L354.2,16L354.23,197.89L354.23,16L354.67,301.83L354.97,16L355.01,53.53L355.01,285.95L355.07,16L355.75,197.89L355.78,122.83L355.8,255.64L356.38,16L356.5,226.77L356.52,16L356.94,287.4L357.2,16L357.28,16L357.57,296.06L358.03,226.77L358.07,16L358.07,299.91L358.8,33.32L358.86,16L359.6,289.32L359.61,212.33L359.63,212.33L359.66,16L360.08,272.96L360.37,272.96L360.43,183.15L360.49,16L360.83,292.45L361.13,264.3L361.2,264.3L361.29,287.4L361.35,16L361.94,177.68L361.97,16L362.31,290.29L362.69,252.75L362.78,16L363.01,294.62L363.51,16L363.6,16L363.8,261.41L364.31,36.21L364.39,284.51L364.39,16L364.74,288.84L365.14,16L365.19,183.46L365.26,16L365.73,293.17L365.93,131.49L365.95,30.44L366,16L366.23,301.83L366.53,16L366.72,16L366.87,301.83L367.47,16L367.5,16L368.14,297.5L368.25,16L368.28,16L368.69,292.45L369.04,54.07L369.04,16L369.38,293.17L369.77,197.48L369.87,16L370.6,293.17L370.61,27.55L370.66,28.03L370.66,16L370.89,301.83L371.4,281.62L371.45,39.1L371.47,16L371.97,297.02L372.18,229.65L372.22,92.6L372.26,16L372.71,298.95L372.9,16L373.01,16L373.02,302.56L373.73,16L373.8,16L374.41,275.85L374.57,200.78L374.7,16L375.02,293.17L375.41,56.42L375.48,264.3L375.57,16L376.09,296.06L376.21,296.06L376.25,24.66L376.29,16L376.58,300.39L376.98,150.19L377.09,16L377.48,293.17L377.83,16L377.86,122.83L377.95,16L378.48,301.83L378.6,16L378.64,16L379.39,284.51L379.44,96.84L379.5,96.84L379.55,16L379.87,297.5L380.25,220.99L380.28,16L380.64,277.41L381.02,16L381.08,16L381.67,290.29L381.77,186.35L381.78,16L382.11,301.97L382.53,88.18L382.54,232.54L382.54,16L382.64,301.83L383.27,16L383.34,16L383.92,297.02L383.99,96.84L384.04,16L384.67,266.47L384.71,16L384.83,16L385.32,300.39L385.54,273.34L385.6,290.29L385.83,16L385.92,302.56L386.29,169.02L386.36,70.86L386.41,16L386.66,296.06L387.09,163.25L387.17,33.32L387.17,287.4L387.17,16L387.92,157.47L387.96,163.25L387.98,16L388.16,298.95L388.7,230.62L388.74,238.32L389.28,16L389.36,302.67L389.44,65.08L389.54,255.64L389.87,274.41L390.21,16L390.21,16L390.31,137.26L390.31,16L391.05,293.17L391.06,252.75L391.08,293.17L391.11,16L391.15,301.83L391.78,16L391.88,258.53L391.88,16L392.06,301.83L392.62,136.3L392.64,56.42L393.1,301.83L393.27,16L393.43,16L393.43,301.83L394.07,65.08L394.21,249.86L394.21,16L394.53,303.28L394.96,16L394.98,275.85L394.98,16L395.63,290.29L395.66,16L395.74,290.29L395.77,16L396.3,291.03L396.49,16L396.51,293.17L397.27,16L397.27,238.32L397.3,16L397.71,293.17L398.01,281.62L398.1,39.1L398.16,281.62L398.38,16L398.38,16L398.4,269.43L398.84,290.29L399.19,16L399.19,16L399.22,137.26L399.71,304L399.91,16L399.92,275.85L399.94,16L400.35,301.83L400.63,91.07L400.69,16L401.32,301.83L401.46,272.96L401.52,16L401.92,294.62L402.25,272.96L402.28,65.08L402.31,16L402.66,300L403.03,16L403.04,288.38L403.42,297.5L403.78,16L403.89,16L404.02,290.29L404.15,186.35L404.19,16L404.41,301.11L404.93,16L404.99,16L405.56,302.99L405.72,278.74L405.79,296.06L406.49,16L406.52,300.39L406.52,298.95L406.55,296.06L406.55,16L407.05,298.95L407.29,16L407.35,16L408.1,272.24L408.15,145.92L408.2,16L408.29,287.4L408.8,169.02L408.88,16L409.53,298.95L409.62,16L409.64,287.4L410.05,288.84L410.23,16L410.36,79.52L410.42,62.2L410.44,16L410.85,285.95L411.15,16L411.18,166.14L411.26,16L411.49,297.5L411.87,16L412.1,30.44L412.18,16L412.68,303.48L412.78,16L412.88,296.06L412.88,16L412.97,304L413.59,106.89L413.64,289.92L413.71,16L413.72,298.95L414.37,16L414.41,255.64L414.68,286.09L415.04,16L415.12,209.44L415.21,288.84L415.21,16L415.49,298.95L415.92,21.77L416.01,16L416.13,33.32L416.13,259.13L416.21,301.83L416.21,16L416.82,298.95L416.82,16L417.13,16L417.13,105.5L417.74,264.3L417.74,16L417.85,56.42L417.93,264.3L417.96,284.51L418.05,16L418.31,16L418.33,16L418.81,301.83L419.05,16L419.12,16L419.68,301.83L419.8,252.75L419.89,78.89L419.96,16L420.08,297.5L420.61,16L420.65,290.29L421.36,16L421.37,215.22L421.44,285.47L421.55,16L421.65,296.06L422.18,195.01L422.2,16L422.65,295.34L422.95,62.2L422.96,16L423.7,291.01L423.71,16L423.75,125.71L423.79,16L424.49,252.75L424.49,223.88L424.53,96.84L424.56,16L425.08,287.4L425.25,16L425.3,16L425.84,287.4L426.06,82.41L426.07,16L426.43,287.4L426.82,238.32L426.88,82.41L426.96,16L426.96,288.84L427.63,235.43L427.67,255.64L427.67,16L428.22,296.06L428.41,16L428.44,300.39L428.45,16L429.17,137.26L429.21,137.26L429.23,16L429.82,301.11L429.91,16L429.99,238.32L430.06,16L430.33,284.51L430.73,16L430.81,62.2L430.81,261.41L430.84,16L431.56,16L431.57,239.76L431.59,16L431.98,302.56L432.32,16L432.33,220.99L432.36,16L433.05,296.06L433.09,91.07L433.14,16L433.25,304L433.84,27.55L433.85,200.78L433.9,293.17L433.93,16L434.54,171.91L434.61,171.91L434.73,16L434.74,277.58L435.33,16L435.43,169.02L435.47,16L436.07,296.06L436.17,293.34L436.21,16L436.4,298.95L436.89,16L437.01,16L437.12,301.83L437.68,262.86L437.77,16L438.18,301.16L438.51,79.52L438.58,30.44L438.66,16L438.79,293.17L439.32,267.19L439.36,16L440.1,296.06L440.1,16L440.12,278.74L440.19,301.44L440.19,18.89L440.23,16L440.24,18.89L440.24,301.83L440.91,16L441,119.94L441.02,16L441.33,293.17L441.74,16L441.76,16L442.35,295.34L442.51,34.77L442.52,16L442.99,286.19L443.26,193.56L443.3,16L443.65,284.51L444.06,108.39L444.11,180.57L444.64,280.18L444.75,16L444.81,183.46L444.9,137.26L444.98,16L445.35,296.06L445.57,197.89L445.6,16L445.92,303.28L446.32,16L446.37,16L446.86,301.11L447.11,79.52L447.16,108.39L447.19,16L447.74,272.96L447.89,16L447.92,16L448.58,287.4L448.64,270.08L448.64,50.65L448.73,16L449.29,284.51L449.35,134.38L449.42,16L449.48,301.83L450.16,232.54L450.18,16L450.9,284.51L450.93,186.35L450.94,16L451.31,284.51L451.66,16L451.7,16L451.93,296.06L452.46,249.2L452.48,30.44L452.53,16L453.04,298.95L453.21,16L453.28,16L453.81,293.17L454.02,114.17L454.04,53.53L454.08,16L454.59,301.83L454.78,16L454.8,16L454.96,41.98L454.96,292.11L455.71,16L455.74,210.89L455.74,16L456.11,287.74L456.48,16L456.54,16L456.89,298.95L457.3,200.78L457.3,16L457.95,297.5L458.03,174.8L458.09,16L458.8,296.06L458.85,252.75L458.86,16L458.94,30.44L458.95,16L458.99,186.35L459.09,16L459.39,293.17L459.66,255.64L459.68,16L459.88,284.51L460.4,159.26L460.43,16L460.86,16L460.86,246.26L460.86,16L461.12,303.28L461.54,272.96L461.64,18.89L461.71,16L461.76,303.28L462.38,128.6L462.48,192.12L462.48,16L462.59,301.83L463.18,255.64L463.24,65.08L463.41,16L463.92,281.62L463.92,39.1L464.01,281.62L464.01,16L464.61,67.97L464.72,119.94L464.72,16L465.12,287.4L465.47,129.82L465.49,180.57L465.62,272.96L466.23,16L466.24,117.05L466.24,16L466.34,301.83L466.98,82.41L467.04,16L467.33,303.28L467.79,254.2L467.82,212.33L467.89,16L468.55,290.29L468.57,16L468.59,16L469.23,284.51L469.25,65.08L469.4,206.43L469.4,16L470.01,270.08L470.13,119.94L470.17,206.5L470.2,16L470.81,299.67L470.85,16L470.93,16L471.36,284.51L471.63,16L471.75,105.5L471.77,16L472.37,278.74L472.49,16L472.54,213.77L472.69,122.83L472.7,16L473.15,262.86L473.41,16L473.45,80.16L473.46,16L473.99,290.29L474.18,95.05L474.21,16L474.34,281.62L474.93,16L475.04,16L475.1,289.56L475.8,140.15L475.8,16L476.61,287.4L476.61,169.02L477.02,296.06L477.3,16L477.44,215.22L477.84,284.51L478.24,16L478.27,16L478.67,284.51L479.04,203.67L479.05,117.05L479.71,16L479.74,290.29L479.78,131.49L479.83,16L480.28,301.83L480.63,241.2L480.63,79.52L480.81,272.96L481.17,16L481.17,212.33L481.24,212.33L481.28,16L481.29,281.62L481.98,180.57L482.02,272.96L482.07,16L482.64,300.39L482.74,73.74L482.79,246.98L482.8,16L483.52,301.83L483.54,16L483.59,16L483.63,303.28L484.36,258.53L484.36,108.39L484.69,301.83L485.1,16L485.12,209.44L485.12,16L485.84,299.67L485.89,16L485.96,298.95L486.64,212.33L486.67,108.39L486.79,16L486.97,212.33L486.98,301.83L486.98,16L487.73,293.17L487.74,16L488.02,249.86L488.48,223.88L488.48,111.28L488.49,16L488.67,301.83L489.23,253.56L489.25,16L489.92,297.5L489.94,16L490.05,246.98L490.13,287.4L490.77,16L490.88,298.95L490.88,16L491.63,114.17L491.65,16L492.21,294.62L492.4,16L492.45,67.97L492.45,16L493.09,301.83L493.17,16L493.21,16L493.21,296.39L493.94,16L494,122.83L494,16L494.65,294.62L494.73,16L494.78,16L495.2,298.95L495.53,232.54L495.56,300.39L495.56,16L496.3,186.35L496.33,16L496.37,29.43L496.37,301.83L497.14,16L497.16,33.32L497.18,122.83L497.25,16L497.51,293.17L497.9,169.02L497.95,16L498.14,298.95L498.67,16L498.71,16L499.34,290.29L499.45,16L499.5,16L499.69,232.54L500.14,223.88L500.14,16L500.3,16L500.3,16L500.44,85.29L500.44,16L500.64,272.96L501.19,180.57L501.21,16L501.85,298.95L501.91,284.51L501.98,36.21L501.98,284.51L502.29,16L502.71,88.18L502.74,16L503,16L503,25.73L503,16L503.59,284.51L503.75,39.1L503.76,16L504.45,298.95L504.48,16L504.6,23.91L504.6,301.83L504.77,16L505.34,16L505.38,16L506.12,301.83L506.13,18.89L506.16,91.07L506.17,301.83L506.19,16L506.9,163.25L506.93,16L506.96,298.95L507.67,125.71L507.7,195.01L507.87,265.74L508.39,16L508.43,298.95L508.52,16L508.99,301.5L509.17,27.55L509.19,195.01L509.26,16L509.83,297.5L509.94,16L509.98,16L510.25,298.95L510.7,189.23L510.76,134.38L510.83,16L510.89,302.64L511,16" style="vector-effect: non-scaling-stroke; fill: none; stroke: rgb(99, 110, 250); stroke-opacity: 1; stroke-width: 2px; opacity: 1;"/></g><g class="points"/><g class="text"/></g></g></g><g class="overplot"/><path class="xlines-above crisp" d="M0,0" style="fill: none;"/><path class="ylines-above crisp" d="M0,0" style="fill: none;"/><g class="overlines-above"/><g class="xaxislayer-above"><g class="xtick"><text text-anchor="middle" x="0" y="436" transform="translate(198.15,0)" style="font-family: 'Times New Roman'; font-size: 15px; fill: rgb(13, 13, 13); fill-opacity: 1; white-space: pre; opacity: 1;">1.61252×10​<tspan style="font-size:70%" dy="-0.6em">18</tspan><tspan dy="0.42em">​</tspan></text></g><g class="xtick"><text text-anchor="middle" x="0" y="436" style="font-family: 'Times New Roman'; font-size: 15px; fill: rgb(13, 13, 13); fill-opacity: 1; white-space: pre; opacity: 1;" transform="translate(299.58000000000004,0)">1.612525×10​<tspan style="font-size:70%" dy="-0.6em">18</tspan><tspan dy="0.42em">​</tspan></text></g><g class="xtick"><text text-anchor="middle" x="0" y="436" style="font-family: 'Times New Roman'; font-size: 15px; fill: rgb(13, 13, 13); fill-opacity: 1; white-space: pre; opacity: 1;" transform="translate(401,0)">1.61253×10​<tspan style="font-size:70%" dy="-0.6em">18</tspan><tspan dy="0.42em">​</tspan></text></g><g class="xtick"><text text-anchor="middle" x="0" y="436" style="font-family: 'Times New Roman'; font-size: 15px; fill: rgb(13, 13, 13); fill-opacity: 1; white-space: pre; opacity: 1;" transform="translate(502.42,0)">1.612535×10​<tspan style="font-size:70%" dy="-0.6em">18</tspan><tspan dy="0.42em">​</tspan></text></g><g class="xtick"><text text-anchor="middle" x="0" y="436" style="font-family: 'Times New Roman'; font-size: 15px; fill: rgb(13, 13, 13); fill-opacity: 1; white-space: pre; opacity: 1;" transform="translate(603.85,0)">1.61254×10​<tspan style="font-size:70%" dy="-0.6em">18</tspan><tspan dy="0.42em">​</tspan></text></g></g><g class="yaxislayer-above"><g class="ytick"><text text-anchor="end" x="108" y="12.25" transform="translate(0,404.72)" style="font-family: 'Times New Roman'; font-size: 35px; fill: rgb(13, 13, 13); fill-opacity: 1; white-space: pre; opacity: 1;">0</text></g><g class="ytick"><text text-anchor="end" x="108" y="12.25" style="font-family: 'Times New Roman'; font-size: 35px; fill: rgb(13, 13, 13); fill-opacity: 1; white-space: pre; opacity: 1;" transform="translate(0,346.98)">20</text></g><g class="ytick"><text text-anchor="end" x="108" y="12.25" style="font-family: 'Times New Roman'; font-size: 35px; fill: rgb(13, 13, 13); fill-opacity: 1; white-space: pre; opacity: 1;" transform="translate(0,289.23)">40</text></g><g class="ytick"><text text-anchor="end" x="108" y="12.25" style="font-family: 'Times New Roman'; font-size: 35px; fill: rgb(13, 13, 13); fill-opacity: 1; white-space: pre; opacity: 1;" transform="translate(0,231.49)">60</text></g><g class="ytick"><text text-anchor="end" x="108" y="12.25" style="font-family: 'Times New Roman'; font-size: 35px; fill: rgb(13, 13, 13); fill-opacity: 1; white-space: pre; opacity: 1;" transform="translate(0,173.74)">80</text></g><g class="ytick"><text text-anchor="end" x="108" y="12.25" style="font-family: 'Times New Roman'; font-size: 35px; fill: rgb(13, 13, 13); fill-opacity: 1; white-space: pre; opacity: 1;" transform="translate(0,116)">100</text></g></g><g class="overaxes-above"/></g></g><g class="polarlayer"/><g class="smithlayer"/><g class="ternarylayer"/><g class="geolayer"/><g class="funnelarealayer"/><g class="pielayer"/><g class="iciclelayer"/><g class="treemaplayer"/><g class="sunburstlayer"/><g class="glimages"/><defs id="topdefs-8d9c10"><g class="clips"/></defs><g class="layer-above"><g class="imagelayer"/><g class="shapelayer"/></g><g class="infolayer"><g class="g-gtitle"/><g class="g-xtitle"><text class="xtitle" x="364.5" y="463.8" text-anchor="middle" style="font-family: 'Open Sans', verdana, arial, sans-serif; font-size: 14px; fill: rgb(42, 63, 95); opacity: 1; font-weight: normal; white-space: pre;">Time Steps (ns)</text></g><g class="g-ytitle" transform="translate(23.5,0)"><text class="ytitle" transform="rotate(-90,12.5,260)" x="12.5" y="260" text-anchor="middle" style="font-family: 'Times New Roman'; font-size: 40px; fill: rgb(13, 13, 13); opacity: 1; font-weight: normal; white-space: pre;">Fill rate (in %)</text></g></g></svg>