<svg class="main-svg" xmlns="http://www.w3.org/2000/svg" xmlns:xlink="http://www.w3.org/1999/xlink" width="700" height="500" style="" viewBox="0 0 700 500"><rect x="0" y="0" width="700" height="500" style="fill: rgb(255, 255, 255); fill-opacity: 1;"/><defs id="defs-4a53db"><g class="clips"><clipPath id="clip4a53dbxyplot" class="plotclip"><rect width="494" height="320"/></clipPath><clipPath class="axesclip" id="clip4a53dbx"><rect x="126" y="0" width="494" height="500"/></clipPath><clipPath class="axesclip" id="clip4a53dby"><rect x="0" y="100" width="700" height="320"/></clipPath><clipPath class="axesclip" id="clip4a53dbxy"><rect x="126" y="100" width="494" height="320"/></clipPath></g><g class="gradients"/><g class="patterns"/></defs><g class="bglayer"><rect class="bg" x="126" y="100" width="494" height="320" style="fill: rgb(229, 236, 246); fill-opacity: 1; stroke-width: 0;"/></g><g class="layer-below"><g class="imagelayer"/><g class="shapelayer"/></g><g class="cartesianlayer"><g class="subplot xy"><g class="layer-subplot"><g class="shapelayer"/><g class="imagelayer"/></g><g class="minor-gridlayer"><g class="x"/><g class="y"/></g><g class="gridlayer"><g class="x"><path class="xgrid crisp" transform="translate(212.05,0)" d="M0,100v320" style="stroke: rgb(255, 255, 255); stroke-opacity: 1; stroke-width: 1px;"/><path class="xgrid crisp" transform="translate(310.12,0)" d="M0,100v320" style="stroke: rgb(255, 255, 255); stroke-opacity: 1; stroke-width: 1px;"/><path class="xgrid crisp" transform="translate(408.18,0)" d="M0,100v320" style="stroke: rgb(255, 255, 255); stroke-opacity: 1; stroke-width: 1px;"/><path class="xgrid crisp" transform="translate(506.25,0)" d="M0,100v320" style="stroke: rgb(255, 255, 255); stroke-opacity: 1; stroke-width: 1px;"/><path class="xgrid crisp" transform="translate(604.3199999999999,0)" d="M0,100v320" style="stroke: rgb(255, 255, 255); stroke-opacity: 1; stroke-width: 1px;"/></g><g class="y"><path class="ygrid crisp" transform="translate(0,333.78)" d="M126,0h494" style="stroke: rgb(255, 255, 255); stroke-opacity: 1; stroke-width: 1px;"/><path class="ygrid crisp" transform="translate(0,263.56)" d="M126,0h494" style="stroke: rgb(255, 255, 255); stroke-opacity: 1; stroke-width: 1px;"/><path class="ygrid crisp" transform="translate(0,193.34)" d="M126,0h494" style="stroke: rgb(255, 255, 255); stroke-opacity: 1; stroke-width: 1px;"/><path class="ygrid crisp" transform="translate(0,123.12)" d="M126,0h494" style="stroke: rgb(255, 255, 255); stroke-opacity: 1; stroke-width: 1px;"/></g></g><g class="zerolinelayer"><path class="yzl zl crisp" transform="translate(0,404)" d="M126,0h494" style="stroke: rgb(255, 255, 255); stroke-opacity: 1; stroke-width: 2px;"/></g><path class="xlines-below"/><path class="ylines-below"/><g class="overlines-below"/><g class="xaxislayer-below"/><g class="yaxislayer-below"/><g class="overaxes-below"/><g class="plot" transform="translate(126,100)" clip-path="url(#clip4a53dbxyplot)"><g class="scatterlayer mlayer"><g class="trace scatter trace01c57b" style="stroke-miterlimit: 2; opacity: 1;"><g class="fills"/><g class="errorbars"/><g class="lines"><path class="js-line" d="M0,303.47L0,304L0.18,302.63L0.41,303.27L0.87,304L1.32,300.83L1.6,302.5L1.63,303.96L1.74,303.03L1.84,304L2.11,304L2.11,298.34L2.25,298.04L2.88,304L2.88,303.2L3.39,296.66L3.54,304L3.56,298.4L3.56,304L4.29,301.39L4.35,302.89L4.42,304L4.48,299.08L5.1,304L5.13,304L5.16,297.54L5.87,303.78L5.96,303.86L6.05,304L6.05,302.68L6.08,302.99L6.09,302.44L6.09,304L6.77,303.13L6.9,304L7.35,299.11L7.47,304L7.71,304L8.07,300.96L8.43,304L8.47,304L8.73,301.74L9.17,304L9.27,301.63L9.27,304L9.76,288.83L10,304L10.03,304L10.77,284.98L10.78,304L10.79,303.32L10.89,301.03L11.41,304L11.41,302.39L11.48,302.14L11.48,304L12.06,298.16L12.23,304L12.26,304L12.52,301.22L12.95,304L13.05,304L13.33,296.79L13.7,303.57L13.95,304L14.61,285.44L14.63,303.97L14.73,303.53L15.26,301.53L15.35,304L15.35,303.77L15.46,300.13L15.46,304L15.63,280.07L16.2,303.97L16.24,303.88L16.28,304L16.7,299.76L16.93,304L17.06,304L17.16,303.75L17.18,304L17.18,293.38L17.86,304L17.86,303.5L17.96,303.97L17.97,304L18.62,296.87L18.62,304L18.74,304L19.46,291.45L19.51,303.84L19.51,304L19.68,290.37L20.22,303.54L20.28,303.57L20.28,304L20.84,298.14L21,303.51L21.05,304L21.35,298.85L21.4,303.82L21.4,303.99L21.61,304L21.61,302.91L22.16,298.65L22.27,304L22.28,303.97L22.31,298.12L22.87,304L23.11,303.84L23.16,304L23.52,299.85L23.84,303.4L23.87,303.88L23.89,302.55L23.9,304L24.6,303.88L24.66,304L25.17,300.76L25.39,303.76L25.43,303.57L25.43,304L25.52,297.93L26.15,303.47L26.2,303.81L26.33,300.9L26.94,304L26.94,300.61L27.68,304L27.84,303.23L27.84,304L28.41,298.66L28.58,303.9L28.64,304L29.31,297.03L29.33,303.96L29.36,303.87L29.47,303.77L29.5,304L29.5,295.36L30.12,304L30.19,303.97L30.38,304L30.63,304L30.63,296.84L31.36,304L31.45,304L31.74,301.93L32.15,302.91L32.25,302.74L32.25,304L32.97,275.41L32.99,303.98L33.02,303.91L33.04,269.76L33.04,304L33.68,302.48L33.86,303.33L33.86,304L34.51,302.75L34.55,302.83L34.71,303.27L34.71,304L35.35,294.52L35.46,303.63L35.47,303.97L35.5,304L36.08,302.19L36.18,302.24L36.23,304L36.31,289.53L36.94,301.47L37.02,303.61L37.02,304L37.65,284.16L37.71,304L37.79,303.67L38.13,303.07L38.23,304L38.23,273.13L38.94,304L38.97,303.93L38.99,303.33L38.99,304L39.49,300.98L39.73,303.96L39.76,303.88L39.78,304L40.51,297.61L40.51,297.7L40.54,304L40.92,299.4L41.28,304L41.32,304L41.76,299.77L42.05,303.7L42.08,304L42.36,297.64L42.83,303.5L42.87,304L43.6,299.61L43.61,299.66L43.67,304L44.41,300.33L44.42,303.73L44.43,303.98L44.44,304L44.6,293.63L45.16,304L45.26,303.44L45.26,304L45.78,293.64L45.99,303.81L46.03,304L46.79,296.89L46.79,298.14L46.8,304L46.86,284.84L47.54,303.63L47.63,285.08L47.63,304L48.38,304L48.41,303.82L48.41,304L49.06,301.68L49.08,304L49.25,303.05L49.78,297.74L50,304L50,302.35L50,304L50.29,301.21L50.74,304L50.76,304L51.29,300.67L51.3,304L51.3,296.41L51.48,296L52.07,304L52.14,304L52.41,296.63L52.75,303.91L52.79,303.54L52.88,302.07L53.02,304L53.07,303.87L53.08,301.87L53.81,304L53.81,301.72L54.55,304L54.58,303.96L54.59,304L55.33,295.92L55.33,304L55.39,303.75L55.41,295.14L55.55,304L55.55,292.4L56.26,304L56.36,304L56.56,287.79L56.56,304L56.73,303.36L56.73,284.53L57.5,304L57.51,303.74L57.68,300.88L58.14,304L58.22,299.44L58.22,304L58.63,296.23L58.95,303.98L58.98,303.9L59,304L59.53,291.54L59.71,303.76L59.73,304L60.24,298.74L60.45,304L60.5,292.02L60.5,304L60.97,290.54L61.19,301.97L61.29,301.83L61.29,304L62.01,304L62.06,303.8L62.06,304L62.7,296.41L62.81,304L62.87,304L63.22,301.66L63.62,303.79L63.64,304L63.97,273.29L64.35,303.89L64.44,304L65.04,293.79L65.13,303L65.19,304L65.78,291.14L65.93,304L66.14,304L66.61,301.11L66.88,301.57L66.88,303.99L66.92,304L67.33,303.07L67.64,303.73L67.65,303.98L67.72,303.76L67.72,300.77L67.72,304L68.41,298.56L68.47,304L68.5,303.74L68.52,304L69.23,291.13L69.27,304L69.45,303.27L69.7,303.71L69.71,288.91L69.71,304L70.24,285.71L70.41,304L70.53,304L70.54,284.4L71.25,303.95L71.29,304L71.87,279.06L72.04,304L72.08,304L72.15,298.16L72.8,304L72.83,304L73.53,301.18L73.54,304L73.62,304L74.24,295.86L74.37,304L74.38,303.81L74.41,303.97L74.41,303.48L74.41,267.77L74.6,265.81L75.18,304L75.22,304L75.51,301.04L75.54,304L75.54,287.4L75.54,304L76.28,294.69L76.3,303.89L76.38,303.76L76.43,303.92L76.44,295.16L76.44,304L77.19,301.81L77.22,303.87L77.36,304L77.56,284.91L77.97,303.97L78,304L78.77,300.99L78.79,304L78.83,292.33L79.52,304L79.55,303.82L79.84,302.49L80.13,304L80.13,303.7L80.18,303.23L80.18,304L80.69,298.25L80.87,304L80.94,302.99L80.94,304L81.44,294.9L81.69,304L81.72,304L81.92,297.29L82.46,303.86L82.48,303.07L82.48,304L83.08,289.14L83.21,304L83.32,299.72L83.32,304L83.75,286.74L84.05,304L84.09,303.85L84.3,304L84.3,303.28L84.3,303.51L84.3,302.12L84.34,301.75L84.41,304L84.82,303.89L84.87,304L85.53,298.01L85.53,304L85.69,304L86.01,282.68L86.44,304L86.45,304L86.49,280.96L87.2,301.22L87.23,300.43L87.63,292.41L88.05,304L88.05,303.88L88.09,287.95L88.09,304L88.84,303.99L88.86,304L89.24,298.19L89.61,303.8L89.62,304L90.24,278.72L90.35,304L90.4,304L90.47,277.45L91.15,303.96L91.17,304L91.2,301.27L91.83,303.48L92.03,304L92.43,264.67L92.74,304L92.8,302.69L92.8,304L93.52,299.39L93.56,299.6L93.56,304L94.31,304L94.34,304L94.64,302.71L94.74,304L94.77,293.18L95.52,304L95.54,303.98L95.57,303.06L95.57,304L96.25,301.38L96.32,304L96.35,304L96.38,303.56L96.38,291.73L96.38,304L97.08,304L97.18,303.92L97.23,304L97.67,294.15L97.69,303.89L97.7,304L98.23,302.11L98.35,303.8L98.47,304L98.6,295.58L99.22,304L99.3,304L99.32,300.34L100.04,304L100.09,304L100.28,289.59L100.7,303.65L100.83,304L101.46,300.2L101.59,303.95L101.61,303.93L101.67,304L102.07,297.22L102.33,303.96L102.38,303.88L102.54,304L102.87,301.06L102.9,303.89L103,297.68L103,304L103.11,296.26L103.75,301.87L103.78,303.92L103.8,299.82L103.86,304L104.49,303.75L104.54,304L105.07,299.98L105.29,303.63L105.3,303.59L105.48,302.9L105.93,304L105.95,273.76L106.72,304L106.76,303.86L106.8,303.85L106.87,304L106.87,269.33L106.92,304L107.24,211.18L107.6,302.73L107.63,303.87L107.64,304L108.17,204.14L108.36,303.39L108.39,303.87L108.61,303.27L108.69,304L108.74,303.04L108.75,302.72L108.75,192.98L108.84,304L109.46,303.96L109.51,304L110.01,182.88L110.24,304L110.34,303.24L110.34,304L110.82,300.77L111.04,303.86L111.16,302.64L111.16,304L111.64,174.8L111.89,303.98L111.92,304L111.99,85.61L112.67,304L112.68,302.8L112.68,304L113.11,69.18L113.41,303.37L113.44,302.9L113.44,304L113.95,42.66L114.15,304L114.23,303.26L114.23,304L114.72,293.57L114.91,304L114.99,304L115.42,301.45L115.67,303.54L115.76,304L116.44,297.38L116.45,303.5L116.52,304L116.87,294.08L117.24,303.79L117.31,303.95L117.48,303.12L117.48,304L117.57,304L117.57,299.8L117.7,299.42L118.33,304L118.34,304L118.76,297.73L118.89,302L118.89,304L119.42,301.13L119.55,303.87L119.66,304L119.82,282.43L120.41,304L120.44,304L120.46,303.59L120.56,304L120.56,279.75L120.57,304L121.14,275.01L121.31,304L121.37,304L121.84,299.79L122.01,303.99L122.06,304L122.48,295.21L122.56,304L122.64,303.39L122.64,304L122.79,291.62L123.33,304L123.42,304L123.54,299.41L123.81,303.1L123.91,303.66L123.91,304L124.19,296.2L124.64,303.89L124.69,303.89L124.77,304L124.95,301.73L125.44,303.52L125.45,303.99L125.5,304L125.58,303.19L125.75,304L125.75,289.76L126.46,304L126.52,303.64L126.62,304L127.23,281.55L127.28,303.87L127.43,304L127.7,299.49L127.91,303.49L127.91,304L128.33,249.01L128.65,304L128.68,304L129.01,297.11L129.43,303.81L129.47,303.84L129.47,304L130.04,242.39L130.2,303.26L130.24,301.12L130.74,295.22L130.79,304L130.94,303.97L131.07,303.88L131.1,304L131.82,300.64L131.82,304L131.84,304L132.05,233.07L132.54,301.41L132.66,229.85L132.98,224.8L133.4,304L133.4,303.98L133.52,303.08L133.59,302.43L134.27,304L134.33,304L134.79,298.6L135.09,303.4L135.11,303.25L135.67,303.18L135.85,304L135.88,303.79L135.91,304L136.38,300.59L136.64,304L136.67,303.75L136.83,303.65L136.93,304L136.93,297.69L137.69,304L137.69,303.89L137.79,304L137.83,302.7L137.88,303.69L137.89,295.18L138.48,292.27L138.67,304L138.68,303.95L138.79,304L139.33,288.51L139.37,303.86L139.46,303.67L139.52,304L140.07,285.86L140.2,303.3L140.3,301.94L140.3,304L141.05,282.36L141.1,294.66L141.19,281.84L141.77,304L141.77,303.57L141.86,303.34L141.86,304L142.57,300.28L142.6,304L142.63,304L143.1,300.14L143.34,303.83L143.37,304L143.78,297.68L144.04,304L144.13,304L144.86,300.71L144.9,303.92L144.97,304L145.28,301.72L145.52,303.91L145.56,303.96L145.64,304L146.03,296.56L146.3,304L146.45,304L146.85,301.95L147.18,303.52L147.18,304L147.56,301.15L147.81,302.43L147.81,304L148.32,298.67L148.45,304L148.47,304L148.89,296.62L148.95,303.84L149.02,304L149.71,300.75L149.81,302.66L149.81,304L150,300.78L150.56,303.8L150.57,304L150.92,304L150.92,301.2L150.92,299.82L151.03,304L151.66,303.73L151.68,304L151.71,299.41L152.43,302.38L152.46,304L152.53,303.61L152.74,304L152.78,294.69L152.78,304L153.5,303.34L153.56,304L154.13,301.23L154.28,304L154.32,284.08L154.85,272.26L155.03,304L155.05,303.91L155.16,303.6L155.16,304L155.84,301.89L155.88,303.43L156.03,304L156.27,304L156.32,302.29L156.32,304L157.02,295.83L157.02,304L157.08,304L157.1,303.83L157.11,304L157.11,296.23L157.47,292.84L157.87,304L157.87,291.31L158.03,304L158.57,304L158.66,303.36L158.8,304L159.23,299.89L159.4,303.97L159.42,303.94L159.45,304L159.51,284.8L160.17,304L160.18,304L160.21,303.46L160.21,304L160.21,278.63L160.3,304L160.96,304L160.99,304L161.26,271.57L161.42,303.9L161.44,303.94L161.75,302.87L161.86,303.34L161.97,302.03L161.97,304L162.12,301.48L162.71,304L162.73,304L163.01,299.52L163.41,304L163.52,304L163.7,295.89L163.9,303.19L163.95,304L164.14,300.65L164.65,304L164.68,304L164.87,298.65L165.41,304L165.45,304L165.54,301.78L165.54,296.23L165.66,295.81L166.31,304L166.31,303.83L166.37,303.8L166.62,302.28L167.11,304L167.11,303.14L167.52,300.14L167.86,304L167.89,304L168.31,294.1L168.55,304L168.71,304L169.03,300.32L169.43,303.19L169.55,304L169.89,300.38L170.25,304L170.34,298.61L170.34,304L171.07,281.58L171.07,304L171.1,303.88L171.17,301.33L171.19,304L171.86,302.9L171.87,304L171.99,277.43L172.59,303.82L172.64,304L173.18,300.11L173.31,304L173.33,304L173.51,266.13L174.07,303.99L174.1,302.7L174.11,263.39L174.12,304L174.77,304L174.86,302.95L174.86,304L175.06,299.59L175.6,304L175.62,302.19L175.62,304L176.14,297.82L176.36,304L176.4,304L177.15,293.75L177.17,303.91L177.43,304L177.43,300.94L177.58,304L177.58,248.94L178.34,304L178.34,303.62L178.35,304L178.68,241.57L178.76,304L178.85,300.41L178.95,238.86L179.55,304L179.68,304L180.18,298.22L180.43,304L180.44,303.93L180.53,304L181.18,289.7L181.27,303.7L181.27,304L182,300.39L182.04,304L182.63,302.64L182.69,304L182.7,299.22L182.7,304L183.13,267.9L183.44,304L183.46,303.89L183.51,304L184.11,300.51L184.15,303.28L184.16,295.6L184.35,294.92L184.88,304L184.92,302.88L184.98,303.77L185.44,298.68L185.58,304L185.66,297.88L185.66,304L186.41,304L186.49,303.23L186.49,304L187.15,298.21L187.24,303.78L187.25,303.97L187.34,304L187.59,301.95L187.99,303.56L188.1,304L188.67,292.31L188.84,303.2L188.88,302.98L188.95,300.66L189.63,304L189.63,301L190.3,304L190.3,302.06L190.4,303.79L190.77,301.76L191.12,304L191.14,303.36L191.14,304L191.85,299.71L191.87,299.92L191.95,304L192.49,278.57L192.69,304L192.74,304L192.94,302.68L192.99,304L193,276.66L193,304L193.74,303.98L193.78,304L193.78,300.06L194.53,303.65L194.62,302.56L194.9,293.91L195.26,304L195.39,303.85L195.42,303.91L195.47,304L196.06,264.02L196.16,303.94L196.23,303.74L196.3,304L196.81,300.75L196.82,302.78L196.82,299.28L196.82,304L197.05,284.78L197.53,303.44L197.58,304L198.21,300.74L198.33,303.04L198.35,303.14L198.35,304L198.54,258.14L199.02,304L199.18,303.01L199.18,304L199.88,293.55L199.95,303.52L199.98,292.71L200.69,304L200.69,303.65L200.69,302.13L200.7,304L201.11,299.42L201.44,304L201.48,300.76L201.48,304L201.69,294.36L202.22,304L202.25,302.36L202.55,283.45L202.99,304L203.05,303.05L203.33,301.72L203.75,304L203.79,303.72L203.82,303.91L203.86,304L204.45,297L204.55,303.5L204.59,304L204.68,295.16L205.28,304L205.35,303.7L205.35,304L205.66,301.15L206.1,304L206.12,303.52L206.12,304L206.25,298.19L206.75,303.92L206.88,304L206.93,303.38L206.95,304L206.97,301.16L206.97,304L207.58,298.93L207.71,303.65L207.74,303.92L207.85,304L207.87,297.07L208.11,304L208.18,304L208.55,300.75L208.83,304L208.96,303.28L208.96,304L209.38,302L209.65,304L209.72,303.66L209.72,304L210.42,298.27L210.43,303.85L210.48,303.38L210.54,304L210.66,301.39L210.8,304L210.8,298.84L211.53,304L211.54,303.93L211.65,304L211.76,301.2L211.79,302.76L211.79,292.53L211.88,291.52L212.53,304L212.57,303.14L212.69,304L212.78,297.33L213.31,304L213.34,304L213.71,298.74L213.83,303.92L213.88,303.84L213.88,298.45L213.88,304L214.63,301.78L214.68,303.73L214.88,303.01L215.23,304L215.23,295.44L215.4,294.58L215.99,304L216.08,304L216.75,294.07L216.81,303.99L216.87,304L216.93,302.76L216.97,303.96L216.97,293.23L217.1,287.33L217.71,304L217.8,304L218.38,301.04L218.39,304L218.49,304L218.92,297.64L218.93,303.85L218.94,273.85L219.74,304L219.78,301.47L219.78,304L220.42,300.94L220.54,303.54L220.61,301.09L221.29,304L221.29,303.75L221.3,303.34L221.55,299.08L221.97,304L221.97,292.36L221.97,304L222.65,289.84L222.72,304L222.82,303.59L222.82,304L223.02,286.5L223.56,303.97L223.59,301.58L223.65,304L224.04,278.28L224.31,302.43L224.43,304L224.67,300.82L225.1,303.2L225.11,303.95L225.17,304L225.35,299.85L225.36,304L225.36,294.28L226.14,304L226.19,304L226.52,299.75L226.95,303.86L226.97,304L227.01,303.77L227.01,303.98L227.06,297.42L227.06,304L227.72,260.87L227.78,303.79L227.83,304L227.83,260.47L228.55,302.65L228.61,304L229.2,295.22L229.26,303.94L229.38,304L229.84,301.44L230.12,303.65L230.14,303.94L230.24,304L230.45,301.13L230.85,303.83L230.94,303.46L230.97,304L231.18,301.29L231.61,303.72L231.66,304L232.38,298.55L232.39,304L232.42,303.87L232.52,304L232.57,301.81L232.57,304L233.31,304L233.38,304L234.1,287.44L234.1,303.83L234.21,304L234.92,295.29L234.92,297.49L235.06,303.51L235.62,302.14L235.76,304L235.78,300.9L235.79,304L236.25,295.54L236.5,303.01L236.5,304L236.68,303.02L236.77,303.57L236.77,292.54L236.77,304L237.5,290.97L237.52,303.81L237.53,303.96L237.59,303.81L237.65,304L237.65,300.47L238.09,297.77L238.39,304L238.39,303.28L238.43,274.37L238.43,304L239.06,176.19L239.17,304L239.23,303.53L239.23,304L239.66,301.33L239.94,303.55L240.01,304L240.11,295.97L240.76,303.82L240.8,304L241.24,300.06L241.55,303.87L241.56,302.58L241.59,298.81L242.24,304L242.24,303.67L242.32,303.71L242.38,303.98L242.52,303.05L242.58,303.98L242.59,297.8L242.59,304L242.85,289.89L243.34,304L243.35,303.61L243.45,301.45L243.51,304L243.51,286.79L244.3,304L244.3,303.48L244.31,303.55L244.68,301.48L245.06,304L245.07,302.94L245.07,304L245.37,296.33L245.81,304L245.9,304L246.45,295.77L246.65,303.58L246.68,304L246.85,295.38L247.43,303.67L247.49,303.78L247.98,298.59L248.13,304L248.13,300.98L248.13,304L248.41,258.16L248.87,303.87L248.98,304L249.63,302.07L249.63,303.82L249.75,302.75L249.75,304L250.49,301.72L250.49,303.43L250.52,304L250.93,300.06L251.27,303.96L251.29,303.04L251.29,304L251.52,294.23L252.04,304L252.11,303.24L252.24,295.99L252.88,304L252.9,304L253.58,298.91L253.65,303.99L253.78,304L254.36,275.05L254.38,291.63L254.59,303.96L254.68,304L255.34,269.32L255.36,303.27L255.39,299.31L256.08,304L256.11,301.18L256.11,304L256.86,303.47L256.89,297.84L256.89,304L257.62,303.33L257.65,304L257.78,303.4L257.79,304L257.79,297.6L257.79,304L257.95,292.57L258.52,302.07L258.55,303.88L258.59,304L258.62,300.42L259.06,303.93L259.11,304L259.7,290.51L259.86,302.82L259.88,303.94L259.92,304L260.36,301.75L260.6,304L260.62,303.91L260.74,304L260.76,301.76L260.81,304L260.82,298.94L260.91,295.65L261.54,304L261.54,303.88L261.6,302.39L261.61,304L262.27,289.34L262.34,304L262.39,303.3L262.41,304L262.82,299.89L263.03,303.71L263.15,304L263.5,296.49L263.5,296.59L263.5,304L263.61,303.88L263.61,304L263.61,300.37L264.24,298.12L264.31,304L264.32,273.31L264.32,304L264.55,16L265.05,301.92L265.09,303.98L265.16,304L265.58,302.24L265.75,303.76L265.76,304L265.82,302.26L265.94,303.88L265.98,299.41L265.98,304L266.51,261.34L266.63,304L266.74,304L267.46,301.69L267.48,304L267.51,304L267.95,297.54L268.22,303.31L268.31,303.7L268.4,304L268.93,289.66L268.93,304L269.08,304L269.63,285.93L269.81,304L269.93,303.25L269.93,304L270.49,295.4L270.68,302.75L270.72,304L271.09,299.65L271.47,304L271.48,304L271.52,301.77L272.2,304L272.25,302.65L272.3,304L272.3,299.35L272.94,304L273.03,302.61L273.03,304L273.5,289L273.78,303.02L273.79,303.8L273.79,304L274.31,284.11L274.54,304L274.55,304L274.78,280.9L275.29,304L275.31,303.48L275.31,304L275.64,277.74L276.04,303.93L276.1,304L276.87,297.24L276.89,304L276.96,291.15L277.61,304L277.67,303.74L277.67,304L278.03,283.32L278.42,303.94L278.45,303.9L278.57,303.57L278.62,295.05L278.67,304L278.85,292.88L279.16,304L279.22,304L279.81,212.85L279.92,303.9L280,301.17L280.73,304L280.74,303.82L280.76,303.93L280.78,286.66L280.84,304L281.48,303.94L281.62,304L282.3,297.55L282.34,304L282.41,298.65L282.41,304L282.48,294.58L283.16,303.94L283.19,304L283.43,303.56L283.54,303.93L283.55,301.59L283.55,304L283.96,177.95L284.25,304L284.34,304L284.65,297.73L285.07,303.84L285.11,303.34L285.11,304L285.63,295.75L285.84,304L285.88,304L285.94,303.52L286.15,304L286.15,292.38L286.81,304L286.93,303.4L287.29,298.97L287.69,304L287.69,303.62L287.9,302.11L288.34,304L288.34,303.91L288.41,303.08L288.41,304L288.74,302.48L289.11,303.46L289.17,304L289.69,296.72L289.86,304L289.93,304L290.15,302.73L290.66,304L290.69,304L291.2,300.86L291.4,303.87L291.45,303.84L291.67,302.6L292.01,304L292.01,300.88L292.05,304L292.52,287.43L292.71,304L292.77,303.67L293.18,300.24L293.32,304L293.32,296.66L293.32,304L293.37,293.08L294.06,304L294.08,304L294.3,299.6L294.83,303.66L294.89,304L294.89,300.42L295.58,304L295.71,304L296.14,290.3L296.46,303.49L296.48,304L297.09,302.03L297.22,302.93L297.25,304L297.76,299.4L298.01,303.3L298.01,304L298.51,297.22L298.64,300.47L298.65,303.95L298.74,303.77L298.76,304L298.76,295.9L299.42,304L299.56,303.67L299.56,304L300.13,302.17L300.3,304L300.37,304L300.96,297.08L301.04,303.69L301.14,304L301.38,303.82L301.5,304L301.5,302.35L301.5,304L302.25,302.63L302.29,303.59L302.29,304L302.52,297.74L303.01,304L303.06,304L303.74,294.54L303.81,304L303.82,303.94L303.86,304L304.52,290.85L304.54,304L304.62,304L304.94,287.94L305.35,303.86L305.38,303.82L305.39,304L305.45,296.46L306.09,300.17L306.19,302.97L306.19,304L306.39,279.18L306.88,304L306.97,304L307.1,293.02L307.61,304L307.62,304L308.41,299.89L308.41,304L308.94,300.21L308.96,303.9L309.03,303.76L309.15,303.07L309.25,304L309.26,298.91L309.26,304L309.95,303.46L310.02,304L310.7,298.96L310.75,303.85L310.82,303.68L310.89,304L311.47,300.9L311.57,303.89L311.6,304L311.92,300.15L312.35,303.88L312.38,303.88L312.52,304L312.53,283.33L313.33,304L313.33,301.96L313.33,304L313.61,279.06L314.05,304L314.09,304L314.53,300.44L314.83,304L314.86,304L314.99,303.3L315.2,304L315.2,271.87L315.94,304L315.96,303.93L316.01,304L316.54,265.73L316.71,304L316.79,302.34L316.79,304L317.32,297.33L317.54,304L317.55,303.54L317.55,304L318.26,286.56L318.27,304L318.31,289.83L318.31,304L318.99,272.55L319.05,301.05L319.07,304L319.31,302.98L319.77,304L319.83,304L319.98,297.72L320.58,302.56L320.58,304L321.22,299.34L321.32,304L321.34,304L321.86,295.66L321.93,303.73L321.93,304L322.07,297.98L322.66,303.54L322.71,303.48L322.76,304L323.37,299.19L323.46,303.99L323.47,304L323.64,301.01L324,304L324.08,304L324.7,293.58L324.83,304L324.89,303.47L325.2,304L325.2,304L325.22,302.41L325.22,304L325.65,300.74L325.97,303.02L325.99,303.59L326.54,296.81L326.54,304L326.55,303.97L326.59,296.71L326.59,304L327.34,303.25L327.35,304L327.42,283.85L328.02,303.99L328.11,304L328.47,297.36L328.86,304L328.89,304L329.06,301.57L329.13,304L329.22,286.79L329.22,304L329.37,282.16L329.95,297.72L329.98,300.36L329.98,304L330.7,304L330.82,303.51L330.89,301.62L331.54,304L331.54,303.56L331.59,303.9L331.63,304L331.99,267.42L332.32,303.85L332.38,302.14L332.38,304L332.57,257.22L333.13,303.69L333.14,304L333.29,301.22L333.74,304L333.75,304L334.07,297.47L334.5,302.68L334.51,304L334.79,301.95L335.2,304L335.3,304L335.98,280.87L336.05,304L336.07,303.74L336.12,304L336.33,256.02L336.78,303.53L336.84,303.44L336.84,304L336.97,296.65L337.58,303.71L337.61,303.87L337.66,304L337.77,301.23L337.97,304L337.97,296.94L338.74,304L338.74,303.25L338.76,303.22L338.76,304L338.93,300.85L339.5,303.98L339.52,304L339.6,291.09L340.25,303.12L340.29,304L340.36,301.35L341.03,303.37L341.05,303.92L341.12,304L341.33,296.39L341.74,304L341.77,304L342.29,301.03L342.53,303.84L342.53,304L342.9,298.35L343.25,303.6L343.38,304L343.86,294.7L344.03,303.72L344.12,304L344.79,282.71L344.86,303.97L344.89,303.6L344.91,304L344.97,278.45L345.63,303.93L345.65,304L346.09,301.56L346.42,302.8L346.51,303.93L346.54,304L347.01,292.83L347.2,304L347.32,303.26L347.44,287.64L348.05,304L348.06,303L348.12,304L348.13,302.06L348.84,303.66L348.94,303.64L348.96,304L349.34,296.79L349.6,304L349.71,304L349.76,291.66L350.35,302.34L350.38,304L350.47,285.77L350.7,303.43L350.72,304L350.89,304L350.89,302.31L350.89,304L351.25,283.72L351.62,303.62L351.75,304L352.16,300.98L352.22,304L352.27,278.47L352.28,304L352.45,277.81L353.01,303.89L353.03,304L353.52,295.28L353.76,304L353.79,303.72L353.79,304L354.52,302.31L354.53,303.84L354.56,303.88L354.64,303.18L354.67,304L354.81,304L354.81,287.02L355.62,304L355.62,303.36L355.79,300.75L356.04,304L356.04,295.72L356.76,304L356.76,303.45L356.84,304L357.46,298.86L357.59,303.62L357.61,304L357.87,302.29L358.09,304L358.1,297.99L358.1,296.45L358.1,304L358.85,303.89L358.89,304L358.95,298.74L359.39,304L359.43,304L360.12,301.87L360.12,304L360.21,304L360.96,275.53L360.97,304L361.1,274.61L361.66,304L361.75,303.58L361.75,304L361.94,301.46L362.47,302.1L362.55,303.55L362.88,300.36L363.16,304L363.16,303.93L363.2,212.16L363.98,304L364.03,304L364.03,303.06L364.78,303.97L364.8,304L365.1,292.29L365.54,302.94L365.54,304L365.88,299.34L366.25,302.48L366.25,303.72L366.37,304L366.76,283.1L366.96,304L367.02,303.42L367.02,304L367.23,301.43L367.77,304L367.78,304L368.37,295.6L368.48,303.24L368.54,303.48L368.54,304L368.68,286.63L369.27,303.49L369.31,304L369.48,300.35L369.92,303.63L369.93,303.94L369.94,304L370.59,298.04L370.66,304L370.69,303.17L370.69,304L371.36,302.63L371.4,304L371.48,303.08L371.48,304L371.66,289.97L372.2,303.42L372.25,304L372.51,294.34L372.99,303.96L373.01,303.92L373.14,304L373.39,302.41L373.51,267.42L373.51,304L373.66,266.56L374.23,303.9L374.34,304L374.85,299.5L375.09,303.99L375.1,303.89L375.29,303.28L375.42,304L375.42,302.83L375.42,304L376,166L376.13,303.93L376.19,303.81L376.19,304L376.34,300.36L376.93,302.59L376.99,304L377.71,298.79L377.71,303.47L377.78,303.76L377.91,304L377.91,297.83L377.93,304L378.21,157.6L378.6,303.71L378.67,304L379.04,147.83L379.42,303.87L379.44,304L379.65,302.21L380.15,303.94L380.2,304L380.31,297.72L380.87,303.92L380.96,303.83L380.99,304L381.44,298.7L381.71,304L381.72,303.88L381.79,304L382.04,298.51L382.42,303.27L382.47,304L382.63,303.16L382.63,289.22L382.68,304L383.38,304L383.56,304L383.88,299.61L384.31,304L384.33,304L384.91,278L384.96,300.25L384.96,303.98L385.04,304L385.6,301.46L385.67,303.25L385.73,304L385.93,302.24L386.08,302.99L386.08,258.56L386.08,304L386.83,303.97L386.84,304L387.15,301.25L387.25,303.54L387.29,304L387.8,298.78L387.8,304L388.38,301.56L388.51,304L388.6,304L388.98,300.65L389.29,304L389.37,304L390.1,294.3L390.1,304L390.13,304L390.28,302.24L390.88,304L390.89,304L391.55,290.77L391.64,303.72L391.65,304L391.68,303.74L391.69,290.24L391.69,304L392.44,303.57L392.46,304L392.91,299.14L393.21,299.62L393.23,303.92L393.27,304L393.81,300.26L393.81,207.33L394.57,304L394.57,303.86L394.63,303.78L394.63,304L394.88,298.99L395.38,301.7L395.41,301.96L395.41,304L396.14,303.39L396.19,303.83L396.26,303.97L396.31,292.07L396.31,304L396.9,282.55L397.03,304L397.07,304L397.8,299.66L397.83,303.6L397.87,304L398.55,298.59L398.56,303.94L398.65,303.7L398.91,302.7L399.12,304L399.13,302.47L399.27,304L399.33,294.04L399.8,303.38L399.89,304L400.47,288.2L400.64,304L400.69,303.7L400.72,303.64L400.76,304L400.76,281.22L401.24,277.49L401.47,304L401.53,304L402.1,301.06L402.27,304L402.32,300.63L403.08,304L403.13,304L403.53,299.68L403.86,304L403.89,304L404.56,299.08L404.63,303.58L404.68,304L405.18,298.24L405.42,304L405.45,303.7L405.5,302.9L405.51,304L405.51,299.92L406.23,304L406.24,303.94L406.31,304L406.71,288.06L407.01,304L407.09,303.77L407.1,304L407.33,301.53L407.8,303.98L407.86,303.81L407.88,304L408.12,301.31L408.61,302.05L408.61,304L408.69,301.81L409.2,303.98L409.28,303.73L409.29,304L409.9,291.41L409.95,303.99L410.02,303.78L410.02,304L410.4,283.8L410.75,304L410.8,304L411.2,301.62L411.23,304L411.24,274.29L411.24,304L411.74,270.87L411.98,298.83L412,304L412.44,302.96L412.56,303.88L412.56,296.76L413.11,294.78L413.33,304L413.33,304L413.41,303.72L413.41,304L413.51,300.74L414.08,303.59L414.17,302.33L414.17,304L414.88,297.86L414.89,303.93L414.93,304L415.62,300.2L415.68,304L415.76,303.33L415.76,304L416.22,300.53L416.44,303.64L416.53,302.89L416.98,299.78L417.28,304L417.32,303.73L417.32,304L417.79,287.43L418.07,303.58L418.12,303.8L418.12,304L418.68,299.72L418.79,303.48L418.88,297.19L418.88,304L419.42,282.73L419.61,303.56L419.64,304L420.37,300.6L420.37,304L420.43,304L420.55,303.2L421.11,304L421.13,304L421.46,300.02L421.88,304L421.92,304L421.98,298.15L422.62,303.87L422.68,304L422.83,300.8L423.42,304L423.44,303.79L423.51,300.81L424.2,304L424.2,303.74L424.2,304L424.85,302.65L424.93,303.86L424.96,303.88L425.05,304L425.37,291.7L425.54,303.89L425.67,303.18L425.67,304L425.83,299.4L426.4,303.74L426.43,303.91L426.54,304L426.78,302.02L426.82,304L426.83,304L427.55,286.96L427.58,303.87L427.61,304L427.9,302.78L427.9,303.85L427.94,285.54L427.94,304L428.09,283.78L428.62,302.86L428.81,303.35L428.86,304L429.5,277.43L429.54,303.86L429.65,304L429.78,302.7L429.94,304L429.94,269.51L429.94,304L430.69,304L430.7,304L430.8,301.77L431.28,304L431.31,304L431.94,260.8L432.03,302.44L432.08,304L432.14,302.06L432.18,259L432.24,255.13L432.92,304L432.96,251.83L432.96,304L433.71,304L433.79,303.96L434.45,303.47L434.48,304L434.64,301.84L435.23,304L435.29,304L435.98,296.5L436.04,303.79L436.09,304L436.76,301.94L436.82,302L436.88,304L437.16,285.21L437.16,304L437.31,283.7L437.9,303.95L437.94,303.85L437.95,304L438.28,299.46L438.6,302.5L438.69,304L438.69,302.02L439.44,303.67L439.47,302.73L439.47,304L440.09,299.28L440.22,303.7L440.25,303.76L440.29,304L440.29,294.84L441.05,304L441.07,298.6L441.07,304L441.82,303.83L441.84,303.52L442.09,302.35L442.58,304L442.58,303.59L442.61,304L443.25,301.39L443.31,304L443.41,304L443.86,299.47L444.13,303.96L444.21,301.21L444.51,240.78L444.97,304L444.99,304L445.2,300.71L445.74,304L445.75,304L446.41,302.18L446.5,303.3L446.51,304L446.93,294.96L447.25,301.93L447.31,304L448.04,290.42L448.05,303.92L448.08,304L448.83,292.8L448.96,304L448.99,220.85L449.69,303.88L449.78,303.23L449.78,304L450.44,300.4L450.45,303.83L450.55,303.85L450.58,304L450.86,297.81L451.29,304L451.34,304L451.88,300.12L452.01,304L452.01,293.48L452.01,304L452.72,290.04L452.74,304L452.81,303.61L452.81,304L453.32,270.79L453.51,304L453.57,304L454.11,301.55L454.29,303.84L454.35,304L454.78,300.49L455.1,304L455.16,303.72L455.16,296.64L455.16,304L455.88,303.78L455.93,304L456.27,252.27L456.68,303.99L456.71,304L457.14,301.04L457.26,304L457.29,304L457.36,248.32L458.01,303.91L458.07,303.8L458.15,302.74L458.47,304L458.47,302.44L459.05,300.85L459.2,304L459.2,304L459.27,304L459.8,289.88L460,304L460.04,304L460.37,290.93L460.39,303.73L460.49,304L460.76,301.04L461,304L461.09,304L461.09,301.68L461.82,303.82L461.85,304L461.94,299.92L462.16,302.76L462.18,304L462.45,302.31L462.46,303.76L462.49,270.28L462.49,304L463.21,304L463.25,304L463.38,302.8L463.59,304L463.59,276.93L463.59,304L464.27,304L464.39,303.15L464.54,301.63L464.65,304L464.66,257.8L465.44,304L465.44,304L465.55,303.87L465.62,304L466.28,300.76L466.3,303.93L466.3,304L466.98,295.45L467.02,303.94L467.16,303.5L467.16,304L467.49,289.84L467.88,304L467.92,304L467.96,287.98L468.26,303.83L468.34,304L468.69,301.93L468.79,304L468.81,284.82L468.85,284.59L468.87,303.9L468.9,304L469.26,298.69L469.32,303.66L469.36,303.86L469.68,303.03L469.89,304L469.89,302.4L470.31,293.53L470.64,304L470.64,301.81L470.64,304L470.76,301.64L471.39,304L471.4,304L471.45,303.45L471.56,304L471.56,288.78L472.17,284.35L472.3,304L472.3,283.47L472.6,281.05L473.05,304L473.09,304L473.36,302.86L473.6,303.65L473.75,300.45L474.29,298.22L474.37,304L474.52,304L474.86,295.89L475.25,303.97L475.31,304L476.06,297.21L476.06,304L476.21,303.73L476.21,304L476.88,290.48L476.96,303.51L476.97,303.97L477.06,304L477.19,301.97L477.66,304L477.77,303.29L477.77,304L478.48,295.12L478.51,304L478.53,304L479.22,279.9L479.27,302.93L479.29,302.79L479.79,300.06L479.93,304L479.99,303.71L480.04,298.42L480.04,304L480.24,297.5L480.77,304L480.81,303.88L480.93,304L480.93,303.24L480.96,303.8L480.96,302.7L480.96,304L481.31,292.17L481.71,304L481.72,303.93L481.81,304L481.95,294.39L482.45,304L482.48,303.82L482.71,302.06L482.96,304L482.99,301.53L482.99,304L483.7,304L483.79,304L483.9,297.51L484.36,303.08L484.36,304L484.37,302.17L485.07,304L485.12,303.82L485.18,300.9L485.78,304L485.78,304L485.78,302.04L486.32,300.96L486.5,304L486.56,303.67L486.58,299.52L486.58,304L487.31,304L487.34,302.77L487.34,304L487.94,282.31L488.05,304L488.1,303.85L488.12,304L488.27,279.59L488.82,302.79L488.87,303.14L488.87,304L489.1,300.51L489.59,304L489.64,304L490.33,295.35L490.38,295.53L490.42,304L491.07,269.06L491.15,304L491.21,288.07L491.97,304L492,304L492.4,300.04L492.59,303.85L492.68,303.69L492.89,304L492.9,302.6L492.9,303.46L492.92,301.26L493.66,304L493.66,293.39L494,304L494,303.98" style="vector-effect: non-scaling-stroke; fill: none; stroke: rgb(99, 110, 250); stroke-opacity: 1; stroke-width: 2px; opacity: 1;"/></g><g class="points"/><g class="text"/></g></g></g><g class="overplot"/><path class="xlines-above crisp" d="M0,0" style="fill: none;"/><path class="ylines-above crisp" d="M0,0" style="fill: none;"/><g class="overlines-above"/><g class="xaxislayer-above"><g class="xtick"><text text-anchor="middle" x="0" y="436" transform="translate(212.05,0)" style="font-family: 'Times New Roman'; font-size: 15px; fill: rgb(13, 13, 13); fill-opacity: 1; white-space: pre; opacity: 1;">1.61252×10​<tspan style="font-size:70%" dy="-0.6em">18</tspan><tspan dy="0.42em">​</tspan></text></g><g class="xtick"><text text-anchor="middle" x="0" y="436" style="font-family: 'Times New Roman'; font-size: 15px; fill: rgb(13, 13, 13); fill-opacity: 1; white-space: pre; opacity: 1;" transform="translate(310.12,0)">1.612525×10​<tspan style="font-size:70%" dy="-0.6em">18</tspan><tspan dy="0.42em">​</tspan></text></g><g class="xtick"><text text-anchor="middle" x="0" y="436" style="font-family: 'Times New Roman'; font-size: 15px; fill: rgb(13, 13, 13); fill-opacity: 1; white-space: pre; opacity: 1;" transform="translate(408.18,0)">1.61253×10​<tspan style="font-size:70%" dy="-0.6em">18</tspan><tspan dy="0.42em">​</tspan></text></g><g class="xtick"><text text-anchor="middle" x="0" y="436" style="font-family: 'Times New Roman'; font-size: 15px; fill: rgb(13, 13, 13); fill-opacity: 1; white-space: pre; opacity: 1;" transform="translate(506.25,0)">1.612535×10​<tspan style="font-size:70%" dy="-0.6em">18</tspan><tspan dy="0.42em">​</tspan></text></g><g class="xtick"><text text-anchor="middle" x="0" y="436" style="font-family: 'Times New Roman'; font-size: 15px; fill: rgb(13, 13, 13); fill-opacity: 1; white-space: pre; opacity: 1;" transform="translate(604.3199999999999,0)">1.61254×10​<tspan style="font-size:70%" dy="-0.6em">18</tspan><tspan dy="0.42em">​</tspan></text></g></g><g class="yaxislayer-above"><g class="ytick"><text text-anchor="end" x="125" y="12.25" transform="translate(0,404)" style="font-family: 'Times New Roman'; font-size: 35px; fill: rgb(13, 13, 13); fill-opacity: 1; white-space: pre; opacity: 1;">0</text></g><g class="ytick"><text text-anchor="end" x="125" y="12.25" style="font-family: 'Times New Roman'; font-size: 35px; fill: rgb(13, 13, 13); fill-opacity: 1; white-space: pre; opacity: 1;" transform="translate(0,333.78)">1000</text></g><g class="ytick"><text text-anchor="end" x="125" y="12.25" style="font-family: 'Times New Roman'; font-size: 35px; fill: rgb(13, 13, 13); fill-opacity: 1; white-space: pre; opacity: 1;" transform="translate(0,263.56)">2000</text></g><g class="ytick"><text text-anchor="end" x="125" y="12.25" style="font-family: 'Times New Roman'; font-size: 35px; fill: rgb(13, 13, 13); fill-opacity: 1; white-space: pre; opacity: 1;" transform="translate(0,193.34)">3000</text></g><g class="ytick"><text text-anchor="end" x="125" y="12.25" style="font-family: 'Times New Roman'; font-size: 35px; fill: rgb(13, 13, 13); fill-opacity: 1; white-space: pre; opacity: 1;" transform="translate(0,123.12)">4000</text></g></g><g class="overaxes-above"/></g></g><g class="polarlayer"/><g class="smithlayer"/><g class="ternarylayer"/><g class="geolayer"/><g class="funnelarealayer"/><g class="pielayer"/><g class="iciclelayer"/><g class="treemaplayer"/><g class="sunburstlayer"/><g class="glimages"/><defs id="topdefs-4a53db"><g class="clips"/></defs><g class="layer-above"><g class="imagelayer"/><g class="shapelayer"/></g><g class="infolayer"><g class="g-gtitle"/><g class="g-xtitle"><text class="xtitle" x="373" y="463.8" text-anchor="middle" style="font-family: 'Open Sans', verdana, arial, sans-serif; font-size: 14px; fill: rgb(42, 63, 95); opacity: 1; font-weight: normal; white-space: pre;">Time Steps (ns)</text></g><g class="g-ytitle" transform="translate(24,0)"><text class="ytitle" transform="rotate(-90,12,260)" x="12" y="260" text-anchor="middle" style="font-family: 'Times New Roman'; font-size: 40px; fill: rgb(13, 13, 13); opacity: 1; font-weight: normal; white-space: pre;">Speed (in sec.)</text></g></g></svg>