<svg class="main-svg" xmlns="http://www.w3.org/2000/svg" xmlns:xlink="http://www.w3.org/1999/xlink" width="700" height="500" style="" viewBox="0 0 700 500"><rect x="0" y="0" width="700" height="500" style="fill: rgb(255, 255, 255); fill-opacity: 1;"/><defs id="defs-e0b9f5"><g class="clips"><clipPath id="clipe0b9f5xyplot" class="plotclip"><rect width="511" height="320"/></clipPath><clipPath class="axesclip" id="clipe0b9f5x"><rect x="109" y="0" width="511" height="500"/></clipPath><clipPath class="axesclip" id="clipe0b9f5y"><rect x="0" y="100" width="700" height="320"/></clipPath><clipPath class="axesclip" id="clipe0b9f5xy"><rect x="109" y="100" width="511" height="320"/></clipPath></g><g class="gradients"/><g class="patterns"/></defs><g class="bglayer"><rect class="bg" x="109" y="100" width="511" height="320" style="fill: rgb(229, 236, 246); fill-opacity: 1; stroke-width: 0;"/></g><g class="layer-below"><g class="imagelayer"/><g class="shapelayer"/></g><g class="cartesianlayer"><g class="subplot xy"><g class="layer-subplot"><g class="shapelayer"/><g class="imagelayer"/></g><g class="minor-gridlayer"><g class="x"/><g class="y"/></g><g class="gridlayer"><g class="x"><path class="xgrid crisp" transform="translate(198.01,0)" d="M0,100v320" style="stroke: rgb(255, 255, 255); stroke-opacity: 1; stroke-width: 1px;"/><path class="xgrid crisp" transform="translate(299.45,0)" d="M0,100v320" style="stroke: rgb(255, 255, 255); stroke-opacity: 1; stroke-width: 1px;"/><path class="xgrid crisp" transform="translate(400.89,0)" d="M0,100v320" style="stroke: rgb(255, 255, 255); stroke-opacity: 1; stroke-width: 1px;"/><path class="xgrid crisp" transform="translate(502.34,0)" d="M0,100v320" style="stroke: rgb(255, 255, 255); stroke-opacity: 1; stroke-width: 1px;"/><path class="xgrid crisp" transform="translate(603.78,0)" d="M0,100v320" style="stroke: rgb(255, 255, 255); stroke-opacity: 1; stroke-width: 1px;"/></g><g class="y"><path class="ygrid crisp" transform="translate(0,348.48)" d="M109,0h511" style="stroke: rgb(255, 255, 255); stroke-opacity: 1; stroke-width: 1px;"/><path class="ygrid crisp" transform="translate(0,292.96000000000004)" d="M109,0h511" style="stroke: rgb(255, 255, 255); stroke-opacity: 1; stroke-width: 1px;"/><path class="ygrid crisp" transform="translate(0,237.44)" d="M109,0h511" style="stroke: rgb(255, 255, 255); stroke-opacity: 1; stroke-width: 1px;"/><path class="ygrid crisp" transform="translate(0,181.92000000000002)" d="M109,0h511" style="stroke: rgb(255, 255, 255); stroke-opacity: 1; stroke-width: 1px;"/><path class="ygrid crisp" transform="translate(0,126.39)" d="M109,0h511" style="stroke: rgb(255, 255, 255); stroke-opacity: 1; stroke-width: 1px;"/></g></g><g class="zerolinelayer"><path class="yzl zl crisp" transform="translate(0,404.01)" d="M109,0h511" style="stroke: rgb(255, 255, 255); stroke-opacity: 1; stroke-width: 2px;"/></g><path class="xlines-below"/><path class="ylines-below"/><g class="overlines-below"/><g class="xaxislayer-below"/><g class="yaxislayer-below"/><g class="overaxes-below"/><g class="plot" transform="translate(109,100)" clip-path="url(#clipe0b9f5xyplot)"><g class="scatterlayer mlayer"><g class="trace scatter traceb5769e" style="stroke-miterlimit: 2; opacity: 1;"><g class="fills"/><g class="errorbars"/><g class="lines"><path class="js-line" d="M0,304L3.12,302.96L3.12,302.96L3.12,302.95L11.61,299.64L11.61,299.64L11.61,299.63L15.99,297.71L15.99,297.71L15.99,297.7L18.39,296.48L18.39,296.48L18.43,296.47L21.59,295.08L21.59,295.08L21.6,295.07L24.81,293.78L24.81,293.78L24.82,293.77L30.19,291.5L30.19,291.5L30.19,291.49L38.62,287.07L38.81,287.07L56.58,276.94L56.66,276.94L60.89,274.33L60.89,274.33L60.89,274.32L69.82,269.19L69.87,269.19L77.12,264.95L77.12,264.95L77.12,264.94L78.62,264.05L78.65,264.05L83.47,261.45L83.47,261.44L84.9,260.59L84.9,260.59L85.05,260.58L102.9,250.42L102.9,250.42L102.98,250.41L114.13,244.35L114.21,244.35L147.39,226.33L147.39,226.32L152.87,223.13L152.9,223.13L157.34,220.33L157.36,220.33L161.88,218.04L161.88,218.03L166.05,215.47L166.16,215.46L173.77,211.09L173.77,211.09L173.77,211.08L174.96,210.31L174.96,210.31L175.01,210.3L311.69,132.72L311.7,132.72L314.32,131.37L314.32,131.36L317.21,129.55L317.21,129.54L320.62,127.41L320.62,127.41L320.62,127.4L325.57,124.62L325.57,124.62L325.57,124.61L329.5,122.48L329.61,122.48L330.96,121.68L330.99,121.68L339.93,116.57L339.98,116.57L342.83,115.17L342.83,115.17L342.83,115.16L349.81,110.77L349.81,110.77L349.96,110.76L352.86,109.06L352.86,109.06L352.86,109.05L362.17,103.18L362.22,103.18L382.12,92.07L382.12,92.07L382.17,92.06L396.58,83.78L396.75,83.78L400.35,81.43L400.37,81.42L401.88,80.66L401.98,80.66L428.33,65.3L428.43,65.3L429.5,64.82L429.5,64.82L429.51,64.81L440.59,58.23L440.72,58.22L444.83,55.65L444.83,55.65L444.83,55.64L448.64,53.4L448.72,53.39L450.45,52.44L450.45,52.43L467.26,42.52L467.26,42.52L467.3,42.51L470.27,40.78L470.27,40.77L471.81,39.93L471.81,39.92L497.62,24.58L497.62,24.57L499.82,23.05L499.82,23.04L502.19,21.55L502.19,21.55L502.19,21.54L503.55,20.61L503.55,20.61L503.56,20.6L511,16" style="vector-effect: non-scaling-stroke; fill: none; stroke: rgb(168, 0, 173); stroke-opacity: 1; stroke-width: 2px; opacity: 1;"/></g><g class="points"/><g class="text"/></g></g></g><g class="overplot"/><path class="xlines-above crisp" d="M0,0" style="fill: none;"/><path class="ylines-above crisp" d="M0,0" style="fill: none;"/><g class="overlines-above"/><g class="xaxislayer-above"><g class="xtick"><text text-anchor="middle" x="0" y="436" transform="translate(198.01,0)" style="font-family: 'Times New Roman'; font-size: 15px; fill: rgb(13, 13, 13); fill-opacity: 1; white-space: pre; opacity: 1;">1.61252×10​<tspan style="font-size:70%" dy="-0.6em">18</tspan><tspan dy="0.42em">​</tspan></text></g><g class="xtick"><text text-anchor="middle" x="0" y="436" style="font-family: 'Times New Roman'; font-size: 15px; fill: rgb(13, 13, 13); fill-opacity: 1; white-space: pre; opacity: 1;" transform="translate(299.45,0)">1.612525×10​<tspan style="font-size:70%" dy="-0.6em">18</tspan><tspan dy="0.42em">​</tspan></text></g><g class="xtick"><text text-anchor="middle" x="0" y="436" style="font-family: 'Times New Roman'; font-size: 15px; fill: rgb(13, 13, 13); fill-opacity: 1; white-space: pre; opacity: 1;" transform="translate(400.89,0)">1.61253×10​<tspan style="font-size:70%" dy="-0.6em">18</tspan><tspan dy="0.42em">​</tspan></text></g><g class="xtick"><text text-anchor="middle" x="0" y="436" style="font-family: 'Times New Roman'; font-size: 15px; fill: rgb(13, 13, 13); fill-opacity: 1; white-space: pre; opacity: 1;" transform="translate(502.34,0)">1.612535×10​<tspan style="font-size:70%" dy="-0.6em">18</tspan><tspan dy="0.42em">​</tspan></text></g><g class="xtick"><text text-anchor="middle" x="0" y="436" style="font-family: 'Times New Roman'; font-size: 15px; fill: rgb(13, 13, 13); fill-opacity: 1; white-space: pre; opacity: 1;" transform="translate(603.78,0)">1.61254×10​<tspan style="font-size:70%" dy="-0.6em">18</tspan><tspan dy="0.42em">​</tspan></text></g></g><g class="yaxislayer-above"><g class="ytick"><text text-anchor="end" x="108" y="12.25" transform="translate(0,404.01)" style="font-family: 'Times New Roman'; font-size: 35px; fill: rgb(13, 13, 13); fill-opacity: 1; white-space: pre; opacity: 1;">0</text></g><g class="ytick"><text text-anchor="end" x="108" y="12.25" style="font-family: 'Times New Roman'; font-size: 35px; fill: rgb(13, 13, 13); fill-opacity: 1; white-space: pre; opacity: 1;" transform="translate(0,348.48)">10k</text></g><g class="ytick"><text text-anchor="end" x="108" y="12.25" style="font-family: 'Times New Roman'; font-size: 35px; fill: rgb(13, 13, 13); fill-opacity: 1; white-space: pre; opacity: 1;" transform="translate(0,292.96000000000004)">20k</text></g><g class="ytick"><text text-anchor="end" x="108" y="12.25" style="font-family: 'Times New Roman'; font-size: 35px; fill: rgb(13, 13, 13); fill-opacity: 1; white-space: pre; opacity: 1;" transform="translate(0,237.44)">30k</text></g><g class="ytick"><text text-anchor="end" x="108" y="12.25" style="font-family: 'Times New Roman'; font-size: 35px; fill: rgb(13, 13, 13); fill-opacity: 1; white-space: pre; opacity: 1;" transform="translate(0,181.92000000000002)">40k</text></g><g class="ytick"><text text-anchor="end" x="108" y="12.25" style="font-family: 'Times New Roman'; font-size: 35px; fill: rgb(13, 13, 13); fill-opacity: 1; white-space: pre; opacity: 1;" transform="translate(0,126.39)">50k</text></g></g><g class="overaxes-above"/></g></g><g class="polarlayer"/><g class="smithlayer"/><g class="ternarylayer"/><g class="geolayer"/><g class="funnelarealayer"/><g class="pielayer"/><g class="iciclelayer"/><g class="treemaplayer"/><g class="sunburstlayer"/><g class="glimages"/><defs id="topdefs-e0b9f5"><g class="clips"/></defs><g class="layer-above"><g class="imagelayer"/><g class="shapelayer"/></g><g class="infolayer"><g class="g-gtitle"/><g class="g-xtitle"><text class="xtitle" x="364.5" y="463.8" text-anchor="middle" style="font-family: 'Open Sans', verdana, arial, sans-serif; font-size: 14px; fill: rgb(42, 63, 95); opacity: 1; font-weight: normal; white-space: pre;">Time Steps (ns)</text></g><g class="g-ytitle" transform="translate(23.5,0)"><text class="ytitle" transform="rotate(-90,12.5,260)" x="12.5" y="260" text-anchor="middle" style="font-family: 'Times New Roman'; font-size: 40px; fill: rgb(13, 13, 13); opacity: 1; font-weight: normal; white-space: pre;">Cum. qty. executed orders</text></g></g></svg>