<svg class="main-svg" xmlns="http://www.w3.org/2000/svg" xmlns:xlink="http://www.w3.org/1999/xlink" width="700" height="500" style="" viewBox="0 0 700 500"><rect x="0" y="0" width="700" height="500" style="fill: rgb(255, 255, 255); fill-opacity: 1;"/><defs id="defs-d69144"><g class="clips"><clipPath id="clipd69144xyplot" class="plotclip"><rect width="489" height="320"/></clipPath><clipPath class="axesclip" id="clipd69144x"><rect x="131" y="0" width="489" height="500"/></clipPath><clipPath class="axesclip" id="clipd69144y"><rect x="0" y="100" width="700" height="320"/></clipPath><clipPath class="axesclip" id="clipd69144xy"><rect x="131" y="100" width="489" height="320"/></clipPath></g><g class="gradients"/><g class="patterns"/></defs><g class="bglayer"><rect class="bg" x="131" y="100" width="489" height="320" style="fill: rgb(229, 236, 246); fill-opacity: 1; stroke-width: 0;"/></g><g class="layer-below"><g class="imagelayer"/><g class="shapelayer"/></g><g class="cartesianlayer"><g class="subplot xy"><g class="layer-subplot"><g class="shapelayer"/><g class="imagelayer"/></g><g class="minor-gridlayer"><g class="x"/><g class="y"/></g><g class="gridlayer"><g class="x"><path class="xgrid crisp" transform="translate(216.18,0)" d="M0,100v320" style="stroke: rgb(255, 255, 255); stroke-opacity: 1; stroke-width: 1px;"/><path class="xgrid crisp" transform="translate(313.25,0)" d="M0,100v320" style="stroke: rgb(255, 255, 255); stroke-opacity: 1; stroke-width: 1px;"/><path class="xgrid crisp" transform="translate(410.33,0)" d="M0,100v320" style="stroke: rgb(255, 255, 255); stroke-opacity: 1; stroke-width: 1px;"/><path class="xgrid crisp" transform="translate(507.4,0)" d="M0,100v320" style="stroke: rgb(255, 255, 255); stroke-opacity: 1; stroke-width: 1px;"/><path class="xgrid crisp" transform="translate(604.48,0)" d="M0,100v320" style="stroke: rgb(255, 255, 255); stroke-opacity: 1; stroke-width: 1px;"/></g><g class="y"><path class="ygrid crisp" transform="translate(0,353.53)" d="M131,0h489" style="stroke: rgb(255, 255, 255); stroke-opacity: 1; stroke-width: 1px;"/><path class="ygrid crisp" transform="translate(0,303.03999999999996)" d="M131,0h489" style="stroke: rgb(255, 255, 255); stroke-opacity: 1; stroke-width: 1px;"/><path class="ygrid crisp" transform="translate(0,252.56)" d="M131,0h489" style="stroke: rgb(255, 255, 255); stroke-opacity: 1; stroke-width: 1px;"/><path class="ygrid crisp" transform="translate(0,202.07999999999998)" d="M131,0h489" style="stroke: rgb(255, 255, 255); stroke-opacity: 1; stroke-width: 1px;"/><path class="ygrid crisp" transform="translate(0,151.59)" d="M131,0h489" style="stroke: rgb(255, 255, 255); stroke-opacity: 1; stroke-width: 1px;"/><path class="ygrid crisp" transform="translate(0,101.11)" d="M131,0h489" style="stroke: rgb(255, 255, 255); stroke-opacity: 1; stroke-width: 1px;"/></g></g><g class="zerolinelayer"><path class="yzl zl crisp" transform="translate(0,404.01)" d="M131,0h489" style="stroke: rgb(255, 255, 255); stroke-opacity: 1; stroke-width: 2px;"/></g><path class="xlines-below"/><path class="ylines-below"/><g class="overlines-below"/><g class="xaxislayer-below"/><g class="yaxislayer-below"/><g class="overaxes-below"/><g class="plot" transform="translate(131,100)" clip-path="url(#clipd69144xyplot)"><g class="scatterlayer mlayer"><g class="trace scatter traced93266" style="stroke-miterlimit: 2; opacity: 1;"><g class="fills"/><g class="errorbars"/><g class="lines"><path class="js-line" d="M0,304L5.27,301.91L5.27,301.91L5.27,301.9L19.53,295.87L19.53,295.86L23.65,294.28L23.65,294.28L23.65,294.27L27.72,292.57L27.72,292.57L27.78,292.56L35.48,288.63L35.48,288.63L35.64,288.62L36.96,287.67L37.14,287.67L42.95,284.05L42.95,284.05L43.03,284.04L50.96,278.76L50.96,278.76L51.09,278.75L53.51,277.36L53.55,277.35L61.86,271.85L61.86,271.85L61.86,271.84L64.24,270.69L64.24,270.68L70.66,267.18L70.66,267.18L70.66,267.17L84.66,259.21L84.82,259.21L88.57,256.62L88.57,256.62L88.58,256.62L98.22,250.81L98.22,250.81L98.29,250.8L102.81,248.09L102.82,248.08L104.62,247.01L104.62,247.01L104.7,247L114.64,241.86L114.64,241.86L114.71,241.86L140.15,227.62L140.15,227.62L140.15,227.61L146.22,223.96L146.22,223.96L146.29,223.95L153.48,219.56L153.48,219.56L153.59,219.55L164.51,213.09L164.51,213.09L164.62,213.09L174.03,207.36L174.03,207.36L174.03,207.35L177.39,205.59L177.39,205.59L177.4,205.58L184.71,201.19L184.71,201.19L184.83,201.18L186.72,200.08L186.72,200.08L186.76,200.07L189.19,198.66L189.19,198.65L190.99,197.58L190.99,197.57L192.95,196.4L192.95,196.4L192.98,196.39L195.87,194.74L195.87,194.74L195.87,194.73L201.27,191.2L201.27,191.2L201.27,191.19L203.19,190.09L203.19,190.09L203.19,190.08L216.35,182.41L216.35,182.41L216.41,182.41L220.22,180.11L220.22,180.11L220.22,180.1L224.76,177.37L224.76,177.36L226.88,175.82L226.88,175.81L230.68,173.47L230.68,173.47L230.68,173.46L233.98,171.59L233.98,171.59L233.98,171.58L235.98,170.37L235.98,170.37L235.98,170.36L243.68,165.74L243.68,165.74L243.76,165.74L256.76,157.76L256.76,157.75L260.36,155.4L260.36,155.39L261.65,154.66L261.65,154.64L261.65,154.63L265.09,152.2L265.1,152.19L280.03,143.82L280.03,143.82L280.06,143.81L286.25,140.35L286.25,140.35L286.25,140.34L293.57,135.89L293.57,135.89L293.57,135.88L306.11,128.93L306.11,128.92L310.24,126.4L310.28,126.4L335.71,111.53L335.76,111.53L337.58,110.34L337.58,110.34L337.6,110.33L339.42,108.62L339.42,108.62L339.48,108.61L352.21,100.26L352.21,100.25L353.54,99.51L353.54,99.51L353.66,99.5L361.16,95.25L361.16,95.24L362.76,94.04L362.76,94.04L362.8,94.04L369.24,90.08L369.34,90.08L374.54,87.12L374.54,87.11L377.99,84.82L378,84.81L383.95,81.56L384.01,81.56L387.95,79.57L387.95,79.57L387.95,79.56L389.77,78.52L389.81,78.52L398.69,72.59L398.69,72.59L398.69,72.58L406.16,68.61L406.16,68.61L406.16,68.6L431.55,52.83L431.55,52.82L448.33,42.84L448.37,42.84L464.52,32.75L464.52,32.74L471.84,27.93L471.89,27.92L473.35,26.89L473.41,26.89L474.92,25.87L474.92,25.86L478.69,23.11L478.69,23.11L478.78,23.11L483.73,19.56L483.76,19.55L486.31,17.62L486.31,17.62L486.32,17.61L489,16" style="vector-effect: non-scaling-stroke; fill: none; stroke: rgb(173, 0, 0); stroke-opacity: 1; stroke-width: 2px; opacity: 1;"/></g><g class="points"/><g class="text"/></g></g></g><g class="overplot"/><path class="xlines-above crisp" d="M0,0" style="fill: none;"/><path class="ylines-above crisp" d="M0,0" style="fill: none;"/><g class="overlines-above"/><g class="xaxislayer-above"><g class="xtick"><text text-anchor="middle" x="0" y="436" transform="translate(216.18,0)" style="font-family: 'Times New Roman'; font-size: 15px; fill: rgb(13, 13, 13); fill-opacity: 1; white-space: pre; opacity: 1;">1.61252×10​<tspan style="font-size:70%" dy="-0.6em">18</tspan><tspan dy="0.42em">​</tspan></text></g><g class="xtick"><text text-anchor="middle" x="0" y="436" style="font-family: 'Times New Roman'; font-size: 15px; fill: rgb(13, 13, 13); fill-opacity: 1; white-space: pre; opacity: 1;" transform="translate(313.25,0)">1.612525×10​<tspan style="font-size:70%" dy="-0.6em">18</tspan><tspan dy="0.42em">​</tspan></text></g><g class="xtick"><text text-anchor="middle" x="0" y="436" style="font-family: 'Times New Roman'; font-size: 15px; fill: rgb(13, 13, 13); fill-opacity: 1; white-space: pre; opacity: 1;" transform="translate(410.33,0)">1.61253×10​<tspan style="font-size:70%" dy="-0.6em">18</tspan><tspan dy="0.42em">​</tspan></text></g><g class="xtick"><text text-anchor="middle" x="0" y="436" style="font-family: 'Times New Roman'; font-size: 15px; fill: rgb(13, 13, 13); fill-opacity: 1; white-space: pre; opacity: 1;" transform="translate(507.4,0)">1.612535×10​<tspan style="font-size:70%" dy="-0.6em">18</tspan><tspan dy="0.42em">​</tspan></text></g><g class="xtick"><text text-anchor="middle" x="0" y="436" style="font-family: 'Times New Roman'; font-size: 15px; fill: rgb(13, 13, 13); fill-opacity: 1; white-space: pre; opacity: 1;" transform="translate(604.48,0)">1.61254×10​<tspan style="font-size:70%" dy="-0.6em">18</tspan><tspan dy="0.42em">​</tspan></text></g></g><g class="yaxislayer-above"><g class="ytick"><text text-anchor="end" x="130" y="12.25" transform="translate(0,404.01)" style="font-family: 'Times New Roman'; font-size: 35px; fill: rgb(13, 13, 13); fill-opacity: 1; white-space: pre; opacity: 1;">0</text></g><g class="ytick"><text text-anchor="end" x="130" y="12.25" style="font-family: 'Times New Roman'; font-size: 35px; fill: rgb(13, 13, 13); fill-opacity: 1; white-space: pre; opacity: 1;" transform="translate(0,353.53)">0.5M</text></g><g class="ytick"><text text-anchor="end" x="130" y="12.25" style="font-family: 'Times New Roman'; font-size: 35px; fill: rgb(13, 13, 13); fill-opacity: 1; white-space: pre; opacity: 1;" transform="translate(0,303.03999999999996)">1M</text></g><g class="ytick"><text text-anchor="end" x="130" y="12.25" style="font-family: 'Times New Roman'; font-size: 35px; fill: rgb(13, 13, 13); fill-opacity: 1; white-space: pre; opacity: 1;" transform="translate(0,252.56)">1.5M</text></g><g class="ytick"><text text-anchor="end" x="130" y="12.25" style="font-family: 'Times New Roman'; font-size: 35px; fill: rgb(13, 13, 13); fill-opacity: 1; white-space: pre; opacity: 1;" transform="translate(0,202.07999999999998)">2M</text></g><g class="ytick"><text text-anchor="end" x="130" y="12.25" style="font-family: 'Times New Roman'; font-size: 35px; fill: rgb(13, 13, 13); fill-opacity: 1; white-space: pre; opacity: 1;" transform="translate(0,151.59)">2.5M</text></g><g class="ytick"><text text-anchor="end" x="130" y="12.25" style="font-family: 'Times New Roman'; font-size: 35px; fill: rgb(13, 13, 13); fill-opacity: 1; white-space: pre; opacity: 1;" transform="translate(0,101.11)">3M</text></g></g><g class="overaxes-above"/></g></g><g class="polarlayer"/><g class="smithlayer"/><g class="ternarylayer"/><g class="geolayer"/><g class="funnelarealayer"/><g class="pielayer"/><g class="iciclelayer"/><g class="treemaplayer"/><g class="sunburstlayer"/><g class="glimages"/><defs id="topdefs-d69144"><g class="clips"/></defs><g class="layer-above"><g class="imagelayer"/><g class="shapelayer"/></g><g class="infolayer"><g class="g-gtitle"/><g class="g-xtitle"><text class="xtitle" x="375.5" y="463.8" text-anchor="middle" style="font-family: 'Open Sans', verdana, arial, sans-serif; font-size: 14px; fill: rgb(42, 63, 95); opacity: 1; font-weight: normal; white-space: pre;">Time Steps (ns)</text></g><g class="g-ytitle" transform="translate(23.875,0)"><text class="ytitle" transform="rotate(-90,12.125,260)" x="12.125" y="260" text-anchor="middle" style="font-family: 'Times New Roman'; font-size: 40px; fill: rgb(13, 13, 13); opacity: 1; font-weight: normal; white-space: pre;">Cum. qty. executed securites</text></g></g></svg>