<svg class="main-svg" xmlns="http://www.w3.org/2000/svg" xmlns:xlink="http://www.w3.org/1999/xlink" width="700" height="500" style="" viewBox="0 0 700 500"><rect x="0" y="0" width="700" height="500" style="fill: rgb(255, 255, 255); fill-opacity: 1;"/><defs id="defs-3776ad"><g class="clips"><clipPath id="clip3776adxyplot" class="plotclip"><rect width="497" height="320"/></clipPath><clipPath class="axesclip" id="clip3776adx"><rect x="123" y="0" width="497" height="500"/></clipPath><clipPath class="axesclip" id="clip3776ady"><rect x="0" y="100" width="700" height="320"/></clipPath><clipPath class="axesclip" id="clip3776adxy"><rect x="123" y="100" width="497" height="320"/></clipPath></g><g class="gradients"/><g class="patterns"/></defs><g class="bglayer"><rect class="bg" x="123" y="100" width="497" height="320" style="fill: rgb(229, 236, 246); fill-opacity: 1; stroke-width: 0;"/></g><g class="layer-below"><g class="imagelayer"/><g class="shapelayer"/></g><g class="cartesianlayer"><g class="subplot xy"><g class="layer-subplot"><g class="shapelayer"/><g class="imagelayer"/></g><g class="minor-gridlayer"><g class="x"/><g class="y"/></g><g class="gridlayer"><g class="x"><path class="xgrid crisp" transform="translate(209.57,0)" d="M0,100v320" style="stroke: rgb(255, 255, 255); stroke-opacity: 1; stroke-width: 1px;"/><path class="xgrid crisp" transform="translate(308.23,0)" d="M0,100v320" style="stroke: rgb(255, 255, 255); stroke-opacity: 1; stroke-width: 1px;"/><path class="xgrid crisp" transform="translate(406.9,0)" d="M0,100v320" style="stroke: rgb(255, 255, 255); stroke-opacity: 1; stroke-width: 1px;"/><path class="xgrid crisp" transform="translate(505.56,0)" d="M0,100v320" style="stroke: rgb(255, 255, 255); stroke-opacity: 1; stroke-width: 1px;"/><path class="xgrid crisp" transform="translate(604.23,0)" d="M0,100v320" style="stroke: rgb(255, 255, 255); stroke-opacity: 1; stroke-width: 1px;"/></g><g class="y"><path class="ygrid crisp" transform="translate(0,353.63)" d="M123,0h497" style="stroke: rgb(255, 255, 255); stroke-opacity: 1; stroke-width: 1px;"/><path class="ygrid crisp" transform="translate(0,303.24)" d="M123,0h497" style="stroke: rgb(255, 255, 255); stroke-opacity: 1; stroke-width: 1px;"/><path class="ygrid crisp" transform="translate(0,252.86)" d="M123,0h497" style="stroke: rgb(255, 255, 255); stroke-opacity: 1; stroke-width: 1px;"/><path class="ygrid crisp" transform="translate(0,202.47)" d="M123,0h497" style="stroke: rgb(255, 255, 255); stroke-opacity: 1; stroke-width: 1px;"/><path class="ygrid crisp" transform="translate(0,152.09)" d="M123,0h497" style="stroke: rgb(255, 255, 255); stroke-opacity: 1; stroke-width: 1px;"/><path class="ygrid crisp" transform="translate(0,101.7)" d="M123,0h497" style="stroke: rgb(255, 255, 255); stroke-opacity: 1; stroke-width: 1px;"/></g></g><g class="zerolinelayer"><path class="yzl zl crisp" transform="translate(0,404.01)" d="M123,0h497" style="stroke: rgb(255, 255, 255); stroke-opacity: 1; stroke-width: 2px;"/></g><path class="xlines-below"/><path class="ylines-below"/><g class="overlines-below"/><g class="xaxislayer-below"/><g class="yaxislayer-below"/><g class="overaxes-below"/><g class="plot" transform="translate(123,100)" clip-path="url(#clip3776adxyplot)"><g class="scatterlayer mlayer"><g class="trace scatter trace403c90" style="stroke-miterlimit: 2; opacity: 1;"><g class="fills"/><g class="errorbars"/><g class="lines"><path class="js-line" d="M0,304L5.18,302.01L5.18,302L8.82,300.62L8.94,300.62L11.18,299.84L11.18,299.84L11.25,299.84L14.25,298.55L14.33,298.55L22.44,294.92L22.53,294.92L29,292.24L29,292.24L29,292.23L30.81,291.46L30.81,291.46L30.86,291.45L35.09,289.25L35.09,289.25L35.1,289.24L37.57,287.7L37.74,287.7L48.76,280.63L48.76,280.63L48.89,280.62L62.87,271.93L62.87,271.93L62.87,271.92L67.97,269.44L67.97,269.42L71.52,267.45L71.52,267.42L107.58,246.53L107.73,246.52L113.93,243.4L114.02,243.39L134.68,232.12L134.68,232.12L134.76,232.11L136.49,231.27L136.49,231.26L166.92,213.33L166.92,213.33L167.03,213.32L171.68,210.73L171.68,210.73L171.74,210.73L175.18,208.47L175.18,208.47L175.18,208.46L179.12,206.2L179.12,206.19L188.28,200.91L188.28,200.91L188.28,200.9L193.49,198.07L193.49,198.06L196.82,196.25L196.82,196.25L196.88,196.24L199.87,194.31L199.87,194.31L199.87,194.3L212.23,186.86L212.24,186.85L217.98,183.41L218.07,183.4L225.97,178.97L225.97,178.97L225.97,178.96L230.24,176.31L230.24,176.31L230.24,176.3L231.86,175.1L231.86,175.1L231.87,175.09L239,170.94L239,170.93L241.26,169.84L241.26,169.84L241.26,169.83L245.18,167.36L245.18,167.34L247.07,166.23L247.07,166.22L249.95,164.47L249.95,164.47L249.95,164.46L253.08,162.63L253.08,162.63L253.08,162.62L254.81,161.77L254.81,161.77L254.81,161.76L256.97,160.57L256.97,160.57L256.98,160.56L261.33,157.55L261.33,157.55L261.34,157.54L268.97,152.67L268.97,152.67L269.01,152.67L276.62,148.03L276.62,148.02L278.75,146.92L278.75,146.92L278.75,146.91L281,145.67L281.02,145.66L284.03,144.26L284.05,144.25L288.2,142.07L288.2,142.07L288.22,142.07L292.57,139.44L292.57,139.41L295.8,137.43L295.8,137.42L298.12,136.2L298.12,136.19L300.32,135.02L300.32,135.02L300.32,135.01L304.08,133.24L304.08,133.23L319.75,123.82L319.75,123.82L319.75,123.81L324.87,120.97L324.87,120.96L327.39,119.57L327.4,119.56L331.46,117.33L331.46,117.33L331.57,117.32L334.74,115.28L334.74,115.27L338.11,113.38L338.11,113.37L340.15,112.06L340.21,112.05L342.91,110.62L342.91,110.62L342.91,110.61L346.82,107.63L346.82,107.63L346.85,107.63L351.72,104.39L351.72,104.39L351.83,104.38L376.31,89.78L376.31,89.78L376.41,89.78L378.35,88.53L378.35,88.52L382.46,86.12L382.46,86.12L382.46,86.11L392.99,80.43L392.99,80.43L393.05,80.42L397.29,77.8L397.29,77.79L432.11,57.19L432.11,57.17L433.31,56.26L433.31,56.25L434.61,55.42L434.61,55.42L434.64,55.42L437.04,54.04L437.04,54.04L437.09,54.04L442.4,50.53L442.4,50.53L442.41,50.53L444.78,48.68L444.78,48.67L448.94,46.44L448.94,46.44L449,46.43L451.08,45.35L451.08,45.34L475.64,30.17L475.64,30.16L477.47,29.03L477.47,29.03L477.47,29.02L480.56,27.31L480.56,27.31L480.56,27.3L482.72,25.79L482.72,25.78L485.45,23.81L485.45,23.8L496.87,16.13L496.87,16.13L496.88,16.13L497,16" style="vector-effect: non-scaling-stroke; fill: none; stroke: rgb(1, 102, 87); stroke-opacity: 1; stroke-width: 2px; opacity: 1;"/></g><g class="points"/><g class="text"/></g></g></g><g class="overplot"/><path class="xlines-above crisp" d="M0,0" style="fill: none;"/><path class="ylines-above crisp" d="M0,0" style="fill: none;"/><g class="overlines-above"/><g class="xaxislayer-above"><g class="xtick"><text text-anchor="middle" x="0" y="436" transform="translate(209.57,0)" style="font-family: 'Times New Roman'; font-size: 15px; fill: rgb(13, 13, 13); fill-opacity: 1; white-space: pre; opacity: 1;">1.61252×10​<tspan style="font-size:70%" dy="-0.6em">18</tspan><tspan dy="0.42em">​</tspan></text></g><g class="xtick"><text text-anchor="middle" x="0" y="436" style="font-family: 'Times New Roman'; font-size: 15px; fill: rgb(13, 13, 13); fill-opacity: 1; white-space: pre; opacity: 1;" transform="translate(308.23,0)">1.612525×10​<tspan style="font-size:70%" dy="-0.6em">18</tspan><tspan dy="0.42em">​</tspan></text></g><g class="xtick"><text text-anchor="middle" x="0" y="436" style="font-family: 'Times New Roman'; font-size: 15px; fill: rgb(13, 13, 13); fill-opacity: 1; white-space: pre; opacity: 1;" transform="translate(406.9,0)">1.61253×10​<tspan style="font-size:70%" dy="-0.6em">18</tspan><tspan dy="0.42em">​</tspan></text></g><g class="xtick"><text text-anchor="middle" x="0" y="436" style="font-family: 'Times New Roman'; font-size: 15px; fill: rgb(13, 13, 13); fill-opacity: 1; white-space: pre; opacity: 1;" transform="translate(505.56,0)">1.612535×10​<tspan style="font-size:70%" dy="-0.6em">18</tspan><tspan dy="0.42em">​</tspan></text></g><g class="xtick"><text text-anchor="middle" x="0" y="436" style="font-family: 'Times New Roman'; font-size: 15px; fill: rgb(13, 13, 13); fill-opacity: 1; white-space: pre; opacity: 1;" transform="translate(604.23,0)">1.61254×10​<tspan style="font-size:70%" dy="-0.6em">18</tspan><tspan dy="0.42em">​</tspan></text></g></g><g class="yaxislayer-above"><g class="ytick"><text text-anchor="end" x="122" y="12.25" transform="translate(0,404.01)" style="font-family: 'Times New Roman'; font-size: 35px; fill: rgb(13, 13, 13); fill-opacity: 1; white-space: pre; opacity: 1;">0</text></g><g class="ytick"><text text-anchor="end" x="122" y="12.25" style="font-family: 'Times New Roman'; font-size: 35px; fill: rgb(13, 13, 13); fill-opacity: 1; white-space: pre; opacity: 1;" transform="translate(0,353.63)">0.5B</text></g><g class="ytick"><text text-anchor="end" x="122" y="12.25" style="font-family: 'Times New Roman'; font-size: 35px; fill: rgb(13, 13, 13); fill-opacity: 1; white-space: pre; opacity: 1;" transform="translate(0,303.24)">1B</text></g><g class="ytick"><text text-anchor="end" x="122" y="12.25" style="font-family: 'Times New Roman'; font-size: 35px; fill: rgb(13, 13, 13); fill-opacity: 1; white-space: pre; opacity: 1;" transform="translate(0,252.86)">1.5B</text></g><g class="ytick"><text text-anchor="end" x="122" y="12.25" style="font-family: 'Times New Roman'; font-size: 35px; fill: rgb(13, 13, 13); fill-opacity: 1; white-space: pre; opacity: 1;" transform="translate(0,202.47)">2B</text></g><g class="ytick"><text text-anchor="end" x="122" y="12.25" style="font-family: 'Times New Roman'; font-size: 35px; fill: rgb(13, 13, 13); fill-opacity: 1; white-space: pre; opacity: 1;" transform="translate(0,152.09)">2.5B</text></g><g class="ytick"><text text-anchor="end" x="122" y="12.25" style="font-family: 'Times New Roman'; font-size: 35px; fill: rgb(13, 13, 13); fill-opacity: 1; white-space: pre; opacity: 1;" transform="translate(0,101.7)">3B</text></g></g><g class="overaxes-above"/></g></g><g class="polarlayer"/><g class="smithlayer"/><g class="ternarylayer"/><g class="geolayer"/><g class="funnelarealayer"/><g class="pielayer"/><g class="iciclelayer"/><g class="treemaplayer"/><g class="sunburstlayer"/><g class="glimages"/><defs id="topdefs-3776ad"><g class="clips"/></defs><g class="layer-above"><g class="imagelayer"/><g class="shapelayer"/></g><g class="infolayer"><g class="g-gtitle"/><g class="g-xtitle"><text class="xtitle" x="371.5" y="463.8" text-anchor="middle" style="font-family: 'Open Sans', verdana, arial, sans-serif; font-size: 14px; fill: rgb(42, 63, 95); opacity: 1; font-weight: normal; white-space: pre;">Time Steps (ns)</text></g><g class="g-ytitle" transform="translate(24.109375,0)"><text class="ytitle" transform="rotate(-90,11.890625,260)" x="11.890625" y="260" text-anchor="middle" style="font-family: 'Times New Roman'; font-size: 40px; fill: rgb(13, 13, 13); opacity: 1; font-weight: normal; white-space: pre;">Cum. executed trading vol. (in $)</text></g></g></svg>