<svg class="main-svg" xmlns="http://www.w3.org/2000/svg" xmlns:xlink="http://www.w3.org/1999/xlink" width="700" height="500" style="" viewBox="0 0 700 500"><rect x="0" y="0" width="700" height="500" style="fill: rgb(255, 255, 255); fill-opacity: 1;"/><defs id="defs-c64b22"><g class="clips"><clipPath id="clipc64b22xyplot" class="plotclip"><rect width="381" height="300"/></clipPath><clipPath class="axesclip" id="clipc64b22x"><rect x="155" y="0" width="381" height="500"/></clipPath><clipPath class="axesclip" id="clipc64b22y"><rect x="0" y="100" width="700" height="300"/></clipPath><clipPath class="axesclip" id="clipc64b22xy"><rect x="155" y="100" width="381" height="300"/></clipPath></g><g class="gradients"/><g class="patterns"/></defs><g class="bglayer"><rect class="bg" x="155" y="100" width="381" height="300" style="fill: rgb(229, 236, 246); fill-opacity: 1; stroke-width: 0;"/></g><g class="layer-below"><g class="imagelayer"/><g class="shapelayer"/></g><g class="cartesianlayer"><g class="subplot xy"><g class="layer-subplot"><g class="shapelayer"/><g class="imagelayer"/></g><g class="minor-gridlayer"><g class="x"/><g class="y"/></g><g class="gridlayer"><g class="x"><path class="xgrid crisp" transform="translate(221.36,0)" d="M0,100v300" style="stroke: rgb(255, 255, 255); stroke-opacity: 1; stroke-width: 1px;"/><path class="xgrid crisp" transform="translate(297,0)" d="M0,100v300" style="stroke: rgb(255, 255, 255); stroke-opacity: 1; stroke-width: 1px;"/><path class="xgrid crisp" transform="translate(372.64,0)" d="M0,100v300" style="stroke: rgb(255, 255, 255); stroke-opacity: 1; stroke-width: 1px;"/><path class="xgrid crisp" transform="translate(448.27,0)" d="M0,100v300" style="stroke: rgb(255, 255, 255); stroke-opacity: 1; stroke-width: 1px;"/><path class="xgrid crisp" transform="translate(523.9100000000001,0)" d="M0,100v300" style="stroke: rgb(255, 255, 255); stroke-opacity: 1; stroke-width: 1px;"/></g><g class="y"><path class="ygrid crisp" transform="translate(0,385.07)" d="M155,0h381" style="stroke: rgb(255, 255, 255); stroke-opacity: 1; stroke-width: 1px;"/><path class="ygrid crisp" transform="translate(0,347.55)" d="M155,0h381" style="stroke: rgb(255, 255, 255); stroke-opacity: 1; stroke-width: 1px;"/><path class="ygrid crisp" transform="translate(0,310.03)" d="M155,0h381" style="stroke: rgb(255, 255, 255); stroke-opacity: 1; stroke-width: 1px;"/><path class="ygrid crisp" transform="translate(0,272.52)" d="M155,0h381" style="stroke: rgb(255, 255, 255); stroke-opacity: 1; stroke-width: 1px;"/><path class="ygrid crisp" transform="translate(0,197.48000000000002)" d="M155,0h381" style="stroke: rgb(255, 255, 255); stroke-opacity: 1; stroke-width: 1px;"/><path class="ygrid crisp" transform="translate(0,159.97)" d="M155,0h381" style="stroke: rgb(255, 255, 255); stroke-opacity: 1; stroke-width: 1px;"/><path class="ygrid crisp" transform="translate(0,122.45)" d="M155,0h381" style="stroke: rgb(255, 255, 255); stroke-opacity: 1; stroke-width: 1px;"/></g></g><g class="zerolinelayer"><path class="yzl zl crisp" transform="translate(0,235)" d="M155,0h381" style="stroke: rgb(255, 255, 255); stroke-opacity: 1; stroke-width: 2px;"/></g><path class="xlines-below"/><path class="ylines-below"/><g class="overlines-below"/><g class="xaxislayer-below"/><g class="yaxislayer-below"/><g class="overaxes-below"/><g class="plot" transform="translate(155,100)" clip-path="url(#clipc64b22xyplot)"><g class="scatterlayer mlayer"><g class="trace scatter trace15cae0" style="stroke-miterlimit: 2; opacity: 1;"><g class="fills"/><g class="errorbars"/><g class="lines"><path class="js-line" d="M0,142.5L0.06,285L0.72,142.5L0.77,142.5L1.23,127.49L1.34,150.01L1.46,135L1.62,119.99L1.68,150.01L2.33,142.5L2.38,127.49L2.48,119.99L2.62,150.01L3.13,142.5L3.2,127.49L3.93,142.5L3.93,142.5L3.96,127.49L4.23,97.48L4.67,157.51L4.71,135L4.73,142.5L5.04,119.99L5.11,150L5.48,142.5L5.51,142.5L5.7,119.99L6.23,127.5L6.25,142.5L6.94,127.5L6.96,142.5L7.02,142.5L7.39,127.5L7.53,165.01L7.54,165.01L7.63,165.01L8.17,119.99L8.44,127.5L8.45,142.5L8.93,119.99L8.93,150.01L9.19,127.5L9.24,142.5L9.97,127.5L9.99,135L10.06,150.01L10.09,119.99L10.76,150L10.84,127.5L11.22,119.99L11.57,142.5L11.58,127.5L11.63,127.5L11.75,119.99L12.36,142.5L12.39,135L12.44,127.5L12.96,157.51L13.16,112.49L13.18,127.5L13.23,142.5L13.88,119.99L13.91,150.01L13.95,142.5L14.01,127.5L14.15,119.99L14.36,150L14.71,135L14.79,142.5L15.43,150L15.44,119.99L15.52,127.5L15.6,142.5L16.34,127.5L16.34,127.5L16.37,142.5L16.93,119.99L17.03,135L17.09,150L17.18,120L17.82,135L17.86,142.5L18.26,112.49L18.36,165L18.64,127.5L18.66,142.5L18.66,112.49L19.41,135L19.46,135L19.92,150L20.21,127.5L20.23,135L20.3,127.5L20.83,142.5L20.89,127.5L20.94,127.5L21.35,142.5L21.66,127.5L21.71,127.5L22.42,142.5L22.46,127.5L22.48,127.5L22.73,112.5L22.75,157.5L23.23,127.5L23.28,135L23.57,127.5L23.85,142.5L23.91,135L23.95,127.5L24.55,142.5L24.56,127.5L24.74,127.5L25.36,150L25.53,142.5L25.56,127.5L25.83,112.5L25.92,150L26.3,142.5L26.35,142.5L26.37,112.5L27.1,127.5L27.12,127.5L27.26,150L27.44,120L27.94,142.5L27.94,127.5L27.94,142.5L28.67,142.5L28.73,127.5L28.8,150L29.07,120L29.51,142.5L29.51,112.5L29.63,172.5L30.25,142.5L30.29,150L30.94,127.5L31,135L31.06,142.5L31.75,127.5L31.75,127.5L31.84,142.5L32.21,112.5L32.25,150L32.6,127.5L32.62,142.5L32.63,120L32.67,157.5L33.37,127.5L33.4,142.5L34.11,127.5L34.12,135L34.21,135L34.32,157.5L34.4,112.5L34.96,142.5L34.98,142.5L35.71,127.5L35.71,127.5L35.74,142.5L36.29,150L36.51,127.5L36.55,135L37.09,172.49L37.25,75.01L37.3,105.01L37.32,142.5L37.51,142.5L37.55,127.5L38.02,164.99L38.07,105L38.28,127.5L38.33,142.5L38.8,120L38.83,150L39.07,142.5L39.1,142.5L39.7,112.5L39.8,142.5L39.88,142.5L39.88,127.5L40.42,164.99L40.63,157.49L40.64,157.49L41.12,82.51L41.12,187.48L41.38,120L41.46,127.5L42.24,142.5L42.24,142.5L42.29,135L42.45,127.5L43.08,142.5L43.11,142.5L43.85,127.5L43.85,127.5L43.89,142.5L44.56,127.5L44.68,135L44.68,142.5L44.84,120L44.96,157.49L45.42,135L45.45,127.5L45.45,142.5L46.16,142.5L46.21,135L46.38,120L46.43,150L46.9,142.5L46.92,127.5L47.52,142.5L47.66,127.5L47.69,127.5L48.44,142.5L48.44,142.5L48.49,142.5L48.76,112.5L48.85,157.49L49.24,142.5L49.26,142.5L49.6,112.5L49.7,149.99L50.01,142.5L50.02,127.5L50.3,172.48L50.75,45.04L50.75,112.51L50.79,142.5L51.37,172.48L51.38,97.51L51.53,142.5L51.58,135L51.61,142.5L52.23,127.5L52.29,142.5L52.35,135L52.42,127.5L53.13,142.5L53.13,142.5L53.13,135L53.19,142.5L53.83,127.5L53.83,127.5L53.84,142.5L54.18,157.49L54.31,112.51L54.59,142.5L54.62,127.5L55.5,157.49L55.5,149.99L55.54,135L55.62,127.5L56.29,142.5L56.33,127.5L56.97,142.5L57.06,135L57.09,127.5L57.57,172.49L57.84,135L57.85,127.5L58.26,97.51L58.26,172.49L58.59,135L58.62,127.5L58.78,120L58.83,149.99L59.36,135L59.4,135L59.43,142.5L60.09,105.01L60.14,127.5L60.16,149.99L60.81,112.51L60.95,135L60.96,142.5L61.71,127.5L61.71,142.5L61.75,142.5L62.47,127.5L62.48,142.5L62.53,142.5L63.18,164.98L63.3,105.01L63.41,112.51L64,157.49L64.18,142.49L64.26,135L64.56,105.02L64.57,157.49L65.01,127.5L65.02,142.49L65.1,172.48L65.4,105.02L65.77,142.49L65.78,142.49L66.2,97.52L66.44,157.48L66.5,105.02L66.7,164.98L67.25,135L67.27,135L67.43,112.51L67.8,164.98L67.87,149.99L67.88,120.01L67.91,157.49L68.63,142.49L68.67,127.5L69.06,149.99L69.26,120.01L69.44,142.49L69.44,120.01L69.56,149.99L70.18,142.49L70.2,127.5L70.82,149.99L70.98,127.5L71.28,112.51L71.59,157.49L71.73,142.5L71.76,127.5L71.81,149.99L72.52,142.5L72.56,127.5L73.11,157.49L73.15,105.01L73.25,135L73.36,135L73.5,142.5L73.99,127.5L74.04,135L74.1,142.5L74.81,105.01L74.87,164.99L74.95,120L75.65,142.5L75.7,135L76.14,105.01L76.4,164.98L76.51,127.5L76.6,164.98L77.25,112.51L77.3,157.49L77.54,105.01L78.03,142.49L78.07,127.5L78.73,149.99L78.84,142.49L78.89,142.49L78.91,157.49L79.03,105.02L79.64,127.5L79.67,127.5L80.24,149.99L80.4,127.5L80.43,135L80.58,127.5L81.12,142.5L81.2,142.49L81.21,135L81.35,127.5L81.88,149.99L81.9,135L81.92,127.5L82.01,142.5L82.43,120L82.63,142.5L82.69,135L82.78,127.5L83.37,149.99L83.41,120L83.41,149.99L84.16,142.5L84.21,127.5L84.61,120L84.87,149.99L85,127.5L85.1,120L85.21,149.99L85.79,142.5L85.8,135L85.93,142.5L86.56,120L86.56,127.5L86.86,120L86.99,150L87.23,127.5L87.23,112.5L87.75,157.5L88.02,135L88.03,135L88.48,105L88.63,172.5L88.8,150L88.85,127.5L89.18,112.5L89.21,150L89.6,142.5L89.63,142.5L90.35,127.5L90.38,135L90.39,142.5L90.91,120L91.13,135L91.15,142.5L91.15,127.5L91.89,135L91.94,127.5L91.99,142.5L92.49,120L92.6,127.5L92.72,142.5L93.18,157.5L93.27,112.5L93.43,150L93.52,142.5L93.56,150L93.76,112.5L94.27,142.5L94.3,142.5L95.06,127.5L95.06,127.5L95.06,135L95.12,127.5L95.66,150L95.8,142.5L95.8,112.5L96.46,142.5L96.53,120L96.61,120L96.62,150L97.35,135L97.37,127.5L98.12,150L98.12,150L98.17,135L98.45,142.5L98.83,120L98.83,150L98.83,127.5L99.58,142.5L99.67,142.5L100.08,150L100.15,112.5L100.41,120L100.45,135L100.83,150L100.87,120L101.19,135L101.22,142.5L101.84,127.5L101.96,135L102.03,127.5L102.39,150L102.56,112.51L102.74,120L102.81,157.49L103.31,120L103.6,127.5L103.64,142.5L104.08,172.48L104.12,52.54L104.27,149.99L104.31,164.98L104.4,90.02L105.04,135L105.12,142.5L105.79,127.5L105.83,135L105.89,142.49L106.01,142.5L106.55,127.5L106.64,135L106.66,135L106.81,142.49L107.28,127.5L107.38,135L107.39,142.49L107.46,149.99L107.98,120.01L108.07,142.49L108.1,157.49L108.77,120.01L108.88,127.5L108.89,127.5L109.02,112.52L109.07,157.48L109.65,142.49L109.65,127.5L109.98,157.48L110,112.52L110.4,142.49L110.42,142.49L110.72,112.52L110.89,164.97L111.16,142.49L111.21,127.51L111.72,149.99L111.93,142.49L112,127.51L112.39,105.03L112.41,164.97L112.74,135L112.81,142.49L112.83,164.97L113.55,127.51L113.56,142.49L113.58,142.49L114.46,120.01L114.46,127.51L114.49,142.49L114.88,172.46L115.21,112.52L115.29,142.49L115.73,157.47L115.78,112.52L116.04,142.49L116.08,142.49L116.8,127.51L116.81,135L116.81,142.49L117.09,149.98L117.56,127.51L117.59,142.49L118.11,120.02L118.3,142.49L118.35,142.49L119.02,157.47L119.04,105.03L119.09,142.49L119.13,127.51L119.43,105.03L119.44,164.97L119.87,127.51L119.89,127.51L120.05,164.97L120.64,149.98L120.67,142.49L121.1,149.98L121.21,120.01L121.42,135L121.45,142.49L122.2,127.51L122.2,127.51L122.21,142.49L122.74,120.01L122.74,149.98L122.96,142.49L122.98,127.51L123.07,164.97L123.22,120.01L123.72,127.51L123.78,127.51L124.49,120.02L124.5,157.47L124.51,157.47L124.57,135L124.75,157.47L124.92,120.02L125.3,127.51L125.3,142.49L126.03,127.51L126.12,142.49L126.74,127.51L126.82,142.49L126.9,142.49L127.15,149.98L127.3,120.02L127.64,149.98L127.66,142.49L127.68,105.04L127.96,164.96L128.34,142.49L128.42,135L128.51,120.02L129.07,149.98L129.16,142.49L129.19,127.51L129.2,149.98L129.75,120.02L129.92,142.49L129.95,135L129.99,149.98L130.26,127.51L130.67,142.49L130.76,142.49L130.89,120.02L131.58,127.51L131.61,142.49L131.81,149.98L132.32,120.02L132.32,120.02L132.33,149.98L133.07,120.02L133.08,142.49L133.1,142.49L133.74,149.98L133.82,127.51L133.82,127.51L133.91,142.49L134.32,149.98L134.35,120.02L134.68,127.51L134.71,142.49L135.5,127.51L135.5,127.51L135.52,142.49L136.19,149.98L136.24,127.51L136.31,142.49L136.63,120.02L137.07,135L137.09,135L137.15,142.49L137.81,127.51L137.87,127.51L137.95,120.01L138.44,149.98L138.68,142.49L138.71,127.51L139.43,142.49L139.46,127.51L139.5,142.49L140.21,120.02L140.22,149.98L140.24,142.49L140.27,127.51L140.37,120.02L140.42,149.98L141.02,142.49L141.05,142.49L141.18,120.02L141.24,164.96L141.8,142.49L141.88,127.51L142.16,105.04L142.18,172.45L142.62,135L142.67,135L143.1,105.04L143.19,164.96L143.37,142.49L143.43,127.51L144.16,142.49L144.18,135L144.2,127.51L144.8,142.49L144.92,127.51L144.99,127.51L145.48,120.02L145.52,149.98L145.81,142.49L145.84,127.51L146.57,142.49L146.61,135L146.62,135L146.77,127.51L147.33,142.49L147.33,142.49L147.34,127.51L148.09,142.49L148.12,127.51L148.87,142.49L148.87,127.51L149.63,142.49L149.63,127.51L150.36,142.49L150.37,127.51L150.39,127.51L151.17,142.49L151.21,127.51L151.29,157.47L151.53,120.02L151.96,135L151.96,127.51L152.22,105.04L152.29,149.98L152.7,135L152.7,120.02L153.44,157.47L153.44,112.53L153.49,149.98L153.62,142.49L154.39,127.51L154.39,142.49L154.5,127.51L155.13,135L155.17,127.51L155.54,120.02L155.55,149.98L155.92,127.51L155.93,127.51L156.4,120.02L156.43,149.98L156.65,142.49L156.71,142.49L157.45,127.51L157.45,127.51L157.48,135L157.65,127.51L158.03,149.98L158.17,127.51L158.26,127.51L158.47,120.02L158.48,149.98L159,135L159.02,135L159.15,142.49L159.71,127.51L159.76,135L159.78,142.49L159.82,127.51L160.51,142.49L160.56,142.49L160.84,120.02L161.33,127.51L161.34,142.49L161.74,105.04L161.75,149.98L162.1,135L162.11,142.49L162.26,97.56L162.33,149.98L162.8,135L162.88,127.51L163.42,105.04L163.45,164.96L163.64,135L163.69,135L163.78,127.51L163.94,164.96L164.43,127.51L164.49,127.51L164.55,120.02L164.57,149.98L165.21,135L165.28,127.51L166.03,142.49L166.03,142.49L166.04,127.51L166.2,112.53L166.24,164.96L166.81,142.49L166.85,142.49L167.5,149.98L167.66,127.51L167.68,142.49L167.98,149.98L168.15,120.02L168.51,127.51L168.57,142.49L168.85,112.53L168.86,157.46L169.32,157.46L169.34,157.46L169.34,127.51L170.09,135L170.11,135L170.15,149.98L170.87,127.51L170.87,127.51L170.87,135L170.98,142.49L171.54,127.51L171.54,142.49L171.86,149.98L172.04,120.02L172.32,127.51L172.35,127.51L172.76,149.98L173.1,127.51L173.11,127.51L173.87,142.49L173.87,142.49L173.87,127.51L173.92,149.98L174.23,120.02L174.64,142.49L174.64,135L174.74,120.02L175.4,142.49L175.4,142.49L175.45,135L175.71,149.98L175.84,112.53L176.19,127.51L176.23,142.49L176.74,157.47L176.82,120.02L176.98,127.51L176.99,149.98L177.48,127.51L177.76,135L177.78,142.49L178.56,127.51L178.56,142.49L179.22,127.51L179.28,135L179.33,142.49L179.85,112.53L180.14,127.51L180.14,135L180.55,112.53L180.75,142.49L180.8,127.51L180.84,127.51L181.03,112.53L181.18,164.96L181.6,142.49L181.64,142.49L182.4,127.51L182.41,142.49L183.17,127.51L183.17,127.51L183.19,135L183.46,127.51L183.92,142.49L183.94,135L183.95,127.51L184,112.53L184.69,157.47L184.74,112.53L185.2,157.47L185.45,142.49L185.53,127.51L185.72,120.02L186.22,142.49L186.28,127.51L186.29,127.51L186.48,120.02L186.68,149.98L187.04,127.51L187.06,135L187.12,120.02L187.45,149.98L187.85,142.49L187.85,135L187.91,142.49L188.08,105.04L188.57,135L188.57,142.49L188.74,120.02L189.32,135L189.34,142.49L189.54,120.02L190,135L190.08,142.49L190.21,149.98L190.43,120.02L190.83,135L190.88,135L191.59,157.47L191.6,112.53L191.62,142.49L191.64,120.02L192.14,112.53L192.23,157.47L192.38,120.02L192.49,142.49L192.62,149.98L192.63,120.02L193.25,127.51L193.28,142.49L194.05,127.51L194.07,157.47L194.14,112.53L194.83,135L194.85,135L195.04,142.49L195.53,127.51L195.56,142.49L196.17,164.96L196.19,97.55L196.19,97.55L196.35,135L196.56,120.02L197.09,164.96L197.11,164.96L197.48,120.02L197.86,142.49L197.89,142.49L198.67,127.51L198.68,127.51L198.86,149.98L199.27,120.02L199.43,127.51L199.44,135L199.46,120.02L199.59,142.49L200.19,127.51L200.19,142.49L200.91,149.98L200.94,120.02L200.94,120.02L200.95,149.98L201.06,127.51L201.66,135L201.71,127.51L202.39,142.49L202.4,135L202.47,127.51L202.98,120.02L203.09,149.98L203.18,120.02L203.23,120.02L203.78,157.47L203.8,112.53L204.03,149.98L204.03,120.02L204.05,149.98L204.78,142.49L204.79,142.49L205.2,149.98L205.57,127.51L205.57,127.51L205.58,127.51L205.73,142.49L206.33,127.51L206.35,127.51L206.35,142.49L206.65,120.02L207.1,135L207.11,135L207.27,149.98L207.75,127.51L207.8,135L207.82,142.49L208.42,157.47L208.49,112.52L208.53,127.51L208.58,127.51L208.62,120.02L208.89,164.96L209.32,142.49L209.37,127.51L210.12,142.49L210.14,120.02L210.9,142.49L210.94,142.49L211.74,112.53L211.74,112.53L211.75,157.47L212.08,120.02L212.56,135L212.59,142.49L213.23,127.51L213.24,135L213.38,127.51L213.48,120.02L213.87,142.49L214.11,127.51L214.15,127.51L214.28,120.02L214.62,149.98L214.91,135L214.92,127.51L215.2,120.02L215.63,142.49L215.66,135L215.67,120.02L216,149.98L216.47,135L216.49,127.51L217,164.96L217.24,112.53L217.25,127.51L217.36,112.53L217.66,164.96L218.05,142.49L218.06,127.51L218.17,112.53L218.43,149.98L218.78,127.51L218.85,142.49L219.54,105.04L219.54,157.47L219.55,157.46L219.58,105.04L220.3,142.49L220.32,142.49L220.58,149.97L220.87,105.05L221.06,135L221.12,142.49L221.18,149.97L221.75,112.53L221.87,127.51L221.88,142.49L222,149.97L222.05,120.02L222.59,142.49L222.64,142.49L223.3,149.97L223.38,120.02L223.38,120.02L223.38,149.97L223.86,112.53L224.12,142.49L224.17,127.51L224.46,149.97L224.95,142.49L224.96,142.49L225.6,120.02L225.72,127.51L225.73,149.98L225.84,120.02L226.44,127.51L226.5,142.49L227.07,127.51L227.15,135L227.26,142.49L228.07,127.51L228.07,127.51L228.11,142.49L228.54,105.05L228.62,149.97L228.84,135L228.91,142.49L229.51,149.97L229.65,127.51L229.65,127.51L229.71,127.51L230.29,97.56L230.34,172.43L230.55,164.94L230.58,135L230.69,22.71L230.93,172.43L231.3,142.48L231.34,135L231.74,120.03L232.01,142.49L232.03,127.51L232.06,149.97L232.78,127.51L232.8,135L232.84,142.49L233.45,127.51L233.56,142.49L233.69,142.49L233.86,149.97L233.91,120.03L234.44,127.51L234.48,142.49L235.04,127.51L235.23,135L235.26,142.48L235.63,105.05L235.67,157.46L235.98,142.48L236.03,142.48L236.15,97.57L236.31,149.97L236.75,127.51L236.76,142.48L236.79,112.54L236.97,164.94L237.51,135L237.53,142.48L238.27,127.51L238.36,135L238.38,135L238.48,127.51L238.59,149.97L239.1,142.48L239.11,127.51L239.86,142.48L239.89,135L239.89,127.51L240.65,142.48L240.65,142.48L240.68,142.48L241.04,120.03L241.44,127.51L241.54,142.48L242.25,127.51L242.25,135L242.33,142.48L242.45,149.97L243.1,127.51L243.1,127.51L243.14,142.48L243.23,157.46L243.86,127.51L243.88,149.97L243.9,157.46L244.34,112.54L244.61,120.03L244.67,135L245.1,120.03L245.12,149.97L245.42,142.48L245.43,135L245.58,127.51L246.07,142.48L246.09,127.51L246.21,127.51L246.41,112.54L246.43,157.45L246.96,135L246.97,135L247.04,127.51L247.69,142.48L247.7,127.51L247.72,127.51L248.39,172.42L248.4,97.58L248.45,164.93L248.57,97.58L249.04,157.45L249.48,142.48L249.51,120.03L249.51,142.48L250.26,127.51L250.28,135L250.3,142.48L250.43,120.03L250.99,127.51L251.03,142.48L251.81,127.51L251.83,135L251.83,142.48L251.99,127.51L252.56,142.48L252.6,135L252.7,127.51L253.33,149.97L253.35,142.48L253.41,127.51L253.98,112.55L254.03,164.94L254.1,127.51L254.18,135L254.27,149.97L254.36,120.03L254.91,142.48L254.94,142.48L255.62,127.51L255.68,142.48L255.7,142.48L256.1,149.97L256.24,120.03L256.44,127.51L256.47,142.48L256.53,120.03L256.53,149.97L257.21,135L257.23,142.48L257.7,157.45L257.83,127.51L257.93,142.48L257.99,142.48L257.99,127.51L258.73,135L258.79,149.97L258.81,120.03L259.52,142.48L259.55,142.48L259.91,202.35L259.91,45.2L260.3,135L260.32,157.45L260.66,164.93L260.72,105.07L261.07,142.48L261.09,142.48L261.73,120.03L261.8,127.52L261.83,149.96L261.92,157.45L262.53,97.59L262.64,142.48L263.25,149.96L263.31,112.55L263.33,164.93L264.09,127.52L264.11,135L264.11,142.48L264.26,120.03L264.86,135L264.87,135L264.92,127.52L265.59,142.48L265.59,142.48L265.61,127.52L266.15,105.07L266.18,157.45L266.33,135L266.38,127.52L266.92,120.03L267.16,157.45L267.16,157.45L267.18,135L267.38,120.03L267.69,149.96L267.87,135L267.88,127.52L268.22,112.55L268.27,157.45L268.6,135L268.66,135L269.03,120.03L269.23,157.45L269.42,142.48L269.43,127.52L269.59,112.55L269.63,157.45L270.18,157.45L270.2,157.45L270.26,120.03L270.99,127.52L271.11,127.52L271.39,112.55L271.54,157.45L271.86,149.96L271.87,127.52L272.28,120.03L272.3,164.93L272.59,135L272.65,142.48L272.82,149.96L273.29,127.52L273.32,142.48L273.35,142.48L273.64,120.03L273.65,149.96L274.07,142.48L274.12,127.52L274.47,120.03L274.69,142.48L274.85,127.52L274.88,135L274.97,142.48L275.63,127.52L275.64,135L275.69,120.03L276.01,149.96L276.35,127.52L276.35,142.48L277.06,127.52L277.1,142.48L277.11,142.48L277.11,127.52L277.82,127.52L277.88,127.52L278.16,149.96L278.28,120.03L278.68,142.48L278.74,127.52L279.15,157.45L279.47,120.03L279.55,127.52L279.56,157.45L279.73,112.55L280.3,127.52L280.31,142.48L280.57,112.55L280.72,157.45L281.08,135L281.09,142.48L281.83,127.52L281.83,135L281.85,142.48L282.39,127.52L282.56,142.48L282.61,142.48L282.88,149.96L283.32,127.52L283.32,127.52L283.38,142.48L284.12,127.52L284.13,135L284.17,142.48L284.34,157.45L284.56,105.07L284.85,112.55L284.91,157.45L285.51,120.03L285.67,127.52L285.69,142.48L286.44,127.52L286.44,127.52L286.51,142.48L286.95,149.96L287.06,120.03L287.21,127.52L287.21,149.97L287.97,127.52L287.97,135L287.98,135L288.13,149.97L288.15,112.55L288.48,127.51L288.56,142.48L288.62,112.55L289.1,142.48L289.17,142.48L289.24,120.03L289.25,149.97L289.94,127.51L289.99,127.51L290.31,112.55L290.62,149.97L290.71,120.03L290.75,142.48L290.94,149.97L291.52,120.03L291.53,142.48L291.93,149.97L292.13,120.03L292.29,135L292.31,149.97L292.35,97.58L292.38,172.42L293.03,142.48L293.08,135L293.49,149.97L293.5,112.55L293.74,135L293.82,127.51L293.84,142.48L294.57,135L294.58,135L294.82,149.97L294.83,120.03L295.35,127.51L295.36,142.48L296.11,127.51L296.14,127.51L296.86,142.48L296.86,135L296.9,120.03L297.65,142.48L297.65,135L297.69,127.51L297.76,120.03L297.8,157.45L298.33,149.97L298.34,112.55L298.34,157.45L299.09,105.07L299.12,127.52L299.12,105.07L299.21,149.97L299.87,142.48L299.89,127.52L300.54,149.97L300.64,127.52L300.69,127.52L301.47,142.48L301.47,127.52L301.49,149.97L301.54,120.03L302.09,135L302.21,127.52L302.94,142.48L302.97,135L302.98,127.52L303.41,120.03L303.47,149.96L303.73,142.48L303.73,112.55L303.76,149.96L304.47,142.48L304.51,142.48L304.72,120.03L305.29,127.52L305.29,142.48L305.97,149.97L306.04,127.52L306.05,135L306.09,142.48L306.81,164.93L306.83,105.07L306.83,112.55L306.86,142.48L306.92,112.55L306.99,157.45L307.53,142.48L307.61,142.48L308.32,127.52L308.35,135L308.41,142.48L309.21,120.03L309.21,120.03L309.22,142.48L309.57,157.45L309.96,120.03L309.96,120.03L310.01,142.48L310.35,164.92L310.4,67.67L310.75,127.52L310.76,157.44L311.2,120.04L311.5,142.48L311.53,127.52L312.02,120.04L312.25,142.48L312.25,142.48L312.31,120.04L312.94,172.41L313.12,142.48L313.15,127.52L313.38,149.96L313.86,120.03L313.88,127.52L313.91,112.55L313.97,157.44L314.7,142.48L314.71,142.48L315.43,127.52L315.43,127.52L315.47,142.48L316.14,149.96L316.18,127.52L316.18,127.52L316.23,142.48L316.35,127.52L316.58,157.44L316.98,142.48L316.99,135L317.19,120.04L317.35,157.44L317.72,120.04L317.74,112.56L317.81,149.96L318.19,105.08L318.5,142.48L318.53,135L318.6,172.4L318.78,90.12L319.27,135L319.31,142.48L319.84,157.44L320.04,127.52L320.07,142.48L320.11,157.44L320.14,120.04L320.78,135L320.8,127.52L321.57,142.48L321.57,142.48L321.57,135L321.64,127.52L322.28,142.48L322.28,127.52L322.32,127.52L322.91,149.96L323.07,149.96L323.11,127.52L323.62,105.08L323.81,172.39L323.85,127.52L323.92,135L324.08,120.04L324.21,149.96L324.64,142.48L324.67,127.52L324.84,120.04L325.05,157.43L325.45,142.48L325.48,142.48L325.53,112.56L325.57,164.91L326.21,112.57L326.24,149.95L326.89,120.04L327.01,135L327.02,142.48L327.69,127.52L327.82,135L327.82,142.48L327.9,149.95L328.51,127.52L328.6,142.48L328.66,127.52L329.34,127.52L329.37,127.52L329.37,142.48L329.77,120.04L330.12,142.48L330.13,135L330.72,157.43L330.79,120.04L330.86,127.52L330.89,127.52L331.29,157.43L331.61,142.48L331.66,142.48L331.69,112.56L331.7,157.43L332.39,142.48L332.47,127.52L333.21,172.39L333.24,164.91L333.36,105.08L333.96,142.48L334.03,142.48L334.49,60.2L334.5,217.27L334.66,164.92L334.69,194.83L334.71,82.64L335.43,127.52L335.45,142.48L335.9,149.96L335.93,120.04L336.2,142.48L336.24,142.48L336.26,127.52L336.99,135L337.02,135L337.67,120.04L337.77,164.91L337.77,164.91L337.78,105.08L337.78,164.91L338.53,142.48L338.56,142.48L339.3,127.52L339.31,142.48L339.34,135L339.63,172.39L339.65,105.08L340.09,142.48L340.11,127.52L340.31,120.04L340.78,142.48L340.84,135L340.88,127.52L340.93,149.96L341.44,120.04L341.6,135L341.68,127.52L341.68,142.48L342.41,135L342.44,142.48L342.82,90.13L342.83,187.34L343.2,127.52L343.23,164.91L343.54,105.09L343.95,142.48L344,142.48L344.06,149.95L344.7,127.52L344.71,142.48L344.72,157.43L344.74,112.56L345.46,127.52L345.48,142.48L345.76,157.43L346.16,120.04L346.16,135L346.26,157.43L347.01,127.52L347.03,135L347.05,135L347.67,149.95L347.73,127.52L347.78,135L347.94,135L348.02,127.52L348.69,142.48L348.69,142.48L348.71,127.52L349.35,149.95L349.5,142.48L349.51,135L349.55,142.48L350.13,127.52L350.26,135L350.28,142.48L350.95,127.52L351,142.48L351.04,135L351.09,149.96L351.8,127.52L351.8,127.52L351.81,135L351.86,142.48L352.41,112.56L352.46,127.52L352.57,135L352.77,97.6L352.94,179.87L353.32,142.48L353.34,127.52L353.61,164.92L354.1,142.48L354.14,142.48L354.62,172.39L354.63,97.61L354.91,135L354.93,142.48L354.93,120.04L355.67,142.48L355.7,135L355.8,142.48L356.37,127.52L356.4,142.48L356.44,142.48L356.72,82.65L356.72,187.35L357.19,142.48L357.2,142.48L357.44,105.09L357.45,172.39L357.91,157.43L357.97,149.95L358.67,157.43L358.73,52.75L358.73,60.23L358.73,142.48L358.97,82.66L358.97,187.34L359.47,164.91L359.5,105.09L359.64,149.95L360.19,135L360.3,142.48L360.55,149.95L360.97,120.04L361.07,135L361.11,142.48L361.32,149.95L361.46,120.04L361.85,120.04L361.89,149.95L362.28,157.43L362.34,112.57L362.57,120.04L362.59,149.95L362.63,120.04L363.34,127.52L363.38,127.52L363.85,112.57L364.03,157.43L364.03,157.43L364.14,127.52L364.54,97.61L364.56,164.91L364.88,149.95L364.93,135L365.27,157.43L365.52,120.05L365.69,149.95L365.7,135L365.73,120.05L365.77,157.43L366.45,142.48L366.46,135L366.53,142.48L366.98,127.52L367.13,135L367.16,164.91L367.3,105.09L367.93,142.48L367.95,142.48L367.95,127.52L367.99,149.95L368.69,142.48L368.72,142.48L369.29,127.52L369.47,135L369.54,135L369.61,142.48L370.15,127.52L370.26,142.48L370.27,142.48L370.38,149.95L371,127.52L371.01,142.48L371.53,149.95L371.71,120.04L371.79,127.52L371.81,135L372.01,127.52L372.48,142.48L372.51,127.52L372.53,127.52L373.22,120.04L373.24,149.95L373.24,149.95L373.25,120.04L373.44,149.95L374,135L374.01,135L374.24,120.04L374.33,149.95L374.73,142.48L374.77,127.52L374.77,142.48L375.52,135L375.54,142.48L376.29,127.52L376.29,135L376.33,142.48L376.46,149.95L376.82,120.04L377.05,127.52L377.13,135L377.15,149.95L377.55,120.04L377.87,142.48L377.88,127.52L378.46,120.04L378.52,149.95L378.66,135L378.66,127.52L378.8,164.9L378.91,105.09L379.42,142.48L379.43,127.52L379.77,149.95L380.18,135L380.2,142.48L380.63,157.43L380.94,120.04L380.95,135L380.98,120.04L381,135" style="vector-effect: non-scaling-stroke; fill: none; stroke: rgb(99, 110, 250); stroke-opacity: 1; stroke-width: 2px; opacity: 1;"/></g><g class="points"/><g class="text"/></g><g class="trace scatter trace9c8dce" style="stroke-miterlimit: 2; opacity: 1;"><g class="fills"/><g class="errorbars"/><g class="lines"><path class="js-line" d="M0,255L0.77,127.49L0.81,142.5L0.84,142.5L1.34,119.99L1.46,127.49L1.62,150.01L1.68,119.99L2.33,127.49L2.38,142.5L2.48,150.01L2.62,119.99L3.13,127.49L3.2,142.5L3.93,127.49L3.93,127.49L3.96,142.5L4.02,165.01L4.26,89.98L4.71,127.5L4.73,127.5L5.04,150L5.11,119.99L5.48,127.5L5.51,127.5L5.67,119.99L5.72,150L6.3,142.5L6.31,127.5L6.94,142.5L7.02,127.5L7.07,127.5L7.54,97.48L7.74,142.5L7.74,142.5L7.85,119.99L8.17,150.01L8.57,142.5L8.63,127.5L8.93,150.01L8.93,119.99L9.35,142.5L9.44,142.5L10.09,150.01L10.12,119.99L10.28,127.5L10.29,150.01L10.76,119.99L11.02,127.5L11.08,127.5L11.68,119.99L11.77,150L11.83,142.5L11.84,127.5L12.02,119.99L12.32,150L12.63,142.5L12.63,127.5L12.96,112.49L13.16,157.51L13.42,142.5L13.43,127.5L13.88,150.01L13.91,119.99L14.19,142.5L14.21,127.5L14.36,119.99L14.45,142.5L14.88,127.5L14.9,142.5L15.34,112.49L15.44,150L15.68,127.5L15.8,142.5L16.5,157.5L16.51,127.5L16.51,157.5L16.66,127.5L17.21,112.49L17.34,142.5L17.4,127.5L17.45,127.5L18.17,142.5L18.2,127.5L18.21,127.5L18.36,104.99L18.39,165L18.94,142.5L18.94,127.5L19.51,150L19.71,142.5L19.72,127.5L19.92,120L20.52,142.5L20.52,142.5L20.53,127.5L21.27,142.5L21.27,142.5L21.3,127.5L22.17,142.5L22.17,142.5L22.18,127.5L22.72,112.5L22.85,157.5L22.93,142.5L22.94,127.5L23.71,142.5L23.71,142.5L23.71,127.5L24.51,142.5L24.51,127.5L25.28,142.5L25.35,112.5L25.94,157.5L25.97,142.5L26.12,142.5L26.12,127.5L26.15,157.5L26.84,127.5L26.9,127.5L27.26,120L27.44,150L27.64,127.5L27.77,127.5L27.77,142.5L27.9,120L28.49,142.5L28.56,127.5L28.73,150L28.8,120L29.28,127.5L29.36,127.5L29.63,97.5L29.85,150L30.07,127.5L30.13,127.5L30.24,120L30.56,150L30.88,142.5L30.9,127.5L31.67,142.5L31.67,127.5L31.67,142.5L32.42,127.5L32.44,127.5L32.67,112.5L32.85,157.5L33.15,120L33.16,120L33.22,150L33.89,127.5L33.93,127.5L34.32,112.5L34.4,157.5L34.71,142.5L34.77,127.5L35.53,142.5L35.53,127.5L36.08,150L36.28,127.5L36.29,127.5L36.59,112.5L36.62,157.5L37.04,120L37.06,120L37.09,97.51L37.09,172.49L37.71,120L37.81,127.5L38.02,105L38.07,164.99L38.56,127.5L38.56,142.5L38.83,120L39.33,127.5L39.44,142.5L39.7,157.49L40.23,127.5L40.28,127.5L40.42,105.01L40.71,157.49L41.01,112.5L41.04,127.5L41.12,82.51L41.2,164.99L41.78,142.5L41.82,127.5L41.92,120L42.58,142.5L42.6,127.5L43.39,142.5L43.47,142.5L44.15,127.5L44.23,142.5L44.84,150L44.96,112.5L44.98,142.5L45.03,112.5L45.82,142.5L45.84,127.5L46.38,150L46.43,120L46.58,142.5L46.62,127.5L47.41,142.5L47.42,127.5L47.42,142.5L48.17,142.5L48.2,142.5L48.76,157.49L48.85,112.5L48.92,112.5L48.98,127.5L49.62,142.5L49.63,127.5L49.7,120L50.3,97.51L50.41,157.49L50.51,120L50.68,105.01L50.75,224.96L51.01,157.49L51.06,112.51L51.37,97.51L51.38,172.48L51.81,127.5L51.82,127.5L52.57,142.5L52.57,142.5L52.6,127.5L53.39,142.5L53.39,142.5L53.42,127.5L54.18,142.5L54.18,142.5L54.24,112.51L54.31,157.49L54.98,142.5L55,127.5L55.5,112.5L55.76,142.5L55.76,142.5L55.77,127.5L56.51,142.5L56.52,127.5L56.54,142.5L57.25,149.99L57.28,112.5L57.28,120L57.32,120L57.39,149.99L57.57,97.51L58.07,142.5L58.08,127.5L58.26,172.49L58.26,97.51L58.78,127.5L58.82,120L58.85,149.99L59.58,142.5L59.66,142.5L59.86,149.99L60.26,120L60.38,127.5L60.48,127.5L60.8,120L60.87,157.49L61.22,127.5L61.25,127.5L61.97,142.5L61.99,127.5L62.04,142.5L62.79,120L62.82,127.5L62.95,127.5L63.18,97.52L63.25,172.48L63.57,142.5L63.58,149.99L64,112.51L64.01,157.49L64.3,149.99L64.34,149.99L64.57,97.52L64.59,157.48L65.02,149.99L65.04,172.48L65.1,97.52L65.8,127.5L65.84,149.99L66.2,172.47L66.51,105.02L66.64,127.5L66.65,127.5L66.69,164.98L66.7,105.02L67.36,149.99L67.39,127.5L67.59,97.52L67.88,157.49L68.13,142.49L68.14,120.01L68.17,142.49L68.88,142.49L68.9,127.5L69.01,120.01L69.62,149.99L69.67,142.49L69.68,142.49L70.24,112.51L70.43,142.49L70.44,142.49L70.44,127.5L70.98,142.5L71.13,127.5L71.22,127.5L71.57,112.51L71.64,157.49L71.97,127.5L71.98,127.5L72.67,142.5L72.68,127.5L72.74,127.5L73.09,105.01L73.21,164.98L73.49,127.5L73.5,127.5L74.23,142.5L74.25,127.5L74.27,127.5L74.81,164.99L74.87,105.01L74.95,127.5L74.99,112.51L75.38,149.99L75.72,142.5L75.76,142.5L76.14,164.98L76.4,105.01L76.51,127.5L76.52,127.5L76.6,105.01L77.15,149.99L77.2,127.5L77.25,157.49L77.46,112.51L77.54,164.98L78.03,127.5L78.07,142.49L78.73,120.01L78.84,127.5L78.89,127.5L79.03,164.98L79.05,105.02L79.63,127.5L79.64,142.49L80.25,120.01L80.27,149.99L80.37,127.5L80.39,149.99L80.39,127.5L81.14,127.5L81.2,127.5L81.44,120.01L81.71,149.99L81.92,142.5L82.01,142.5L82.05,120.01L82.43,157.49L82.74,127.5L82.78,127.5L83.37,120L83.41,149.99L83.52,142.5L83.57,142.5L83.88,149.99L84.15,120L84.32,142.5L84.33,142.5L84.61,149.99L84.87,120L85.02,127.5L85.1,149.99L85.21,120L85.86,127.5L85.87,149.99L85.97,150L86.41,120L86.62,142.5L86.65,142.5L86.99,120L87.23,157.5L87.34,127.5L87.41,142.5L87.75,112.5L87.76,157.5L88.16,142.5L88.2,127.5L88.48,172.5L88.62,127.5L88.63,97.5L88.69,165L89.4,142.5L89.41,127.5L90.16,142.5L90.16,142.5L90.2,127.5L90.91,150L90.91,150L90.97,127.5L91.7,142.5L91.7,142.5L91.75,127.5L92.49,150L92.49,150L92.58,142.5L93.19,157.5L93.28,112.5L93.33,150L93.56,157.5L93.88,112.5L94.09,120L94.1,150L94.87,127.5L94.88,142.5L94.88,127.5L95.56,142.5L95.65,127.5L95.66,120L95.8,157.5L96.37,127.5L96.42,127.5L96.62,120L96.75,150L97.18,142.5L97.23,142.5L97.96,127.5L97.98,142.5L98.05,127.5L98.12,120L98.69,142.5L98.76,127.5L98.81,127.5L98.83,150L98.83,120L99.54,127.5L99.57,142.5L100.15,157.5L100.29,112.5L100.32,142.5L100.36,157.5L100.93,120L101.16,127.5L101.19,142.5L101.95,127.5L101.96,142.5L102.34,150L102.6,105.01L102.68,120L102.7,157.49L102.98,112.51L103.44,142.5L103.52,142.5L104.08,97.52L104.12,179.97L104.12,179.97L104.12,217.46L104.27,90.02L104.86,142.49L104.88,142.49L105.16,142.5L105.55,127.5L105.62,142.5L105.66,127.5L105.96,142.5L106.38,142.49L106.44,142.49L107.21,120.01L107.24,127.5L107.25,142.49L107.97,157.49L108.03,112.51L108.03,142.49L108.07,149.99L108.1,112.51L108.78,120.01L108.83,120.01L108.84,112.51L109.02,157.48L109.58,142.49L109.61,142.49L109.98,112.52L110,157.48L110.36,127.5L110.37,142.49L110.89,97.53L110.95,149.99L111.09,127.51L111.16,127.51L111.72,142.49L111.76,120.01L111.83,127.51L111.92,127.51L112.4,97.53L112.42,172.46L112.55,127.51L112.59,105.03L112.67,157.47L113.37,142.49L113.38,127.51L114.11,142.49L114.13,127.51L114.15,127.51L114.46,149.98L114.88,97.54L114.88,97.54L114.94,97.54L115.21,164.96L115.69,142.49L115.73,112.52L115.82,157.47L116.36,142.49L116.4,127.51L117.18,149.98L117.21,127.51L117.21,120.02L117.56,149.98L117.96,127.51L117.99,142.49L118.01,120.02L118.11,149.98L118.73,127.51L118.78,127.51L119.2,105.03L119.56,164.97L119.56,149.98L119.58,105.03L120.4,142.49L120.43,127.51L120.59,120.01L121.1,149.98L121.17,120.01L121.2,149.98L121.22,120.01L121.95,127.51L121.96,142.49L122.74,127.51L122.74,142.49L122.74,149.98L123.06,105.03L123.48,127.51L123.51,142.49L124.26,127.51L124.26,127.51L124.28,142.49L124.5,105.03L124.64,157.47L125.03,142.49L125.04,127.51L125.08,120.02L125.74,142.49L125.81,142.49L126.51,127.51L126.54,142.49L126.6,142.49L127.3,149.98L127.37,120.02L127.37,120.02L127.44,142.49L127.7,97.55L127.8,157.47L128.17,127.51L128.18,149.98L128.68,120.02L128.88,127.51L128.89,142.49L129.66,120.02L129.68,127.51L129.71,127.51L129.78,120.02L130.43,149.98L130.45,142.49L130.49,127.51L130.89,149.98L131.24,142.49L131.25,120.02L132.03,142.49L132.05,127.51L132.33,120.02L132.74,149.98L132.75,120.02L132.85,120.02L133.19,149.98L133.61,142.49L133.66,127.51L133.74,120.02L134.42,149.98L134.42,127.51L134.49,142.49L134.51,120.02L135.14,127.51L135.15,142.49L135.91,120.02L135.95,142.49L136.19,120.02L136.63,149.98L136.65,142.49L136.73,127.51L137.42,142.49L137.47,127.51L137.55,142.49L137.55,127.51L137.81,149.98L138.28,127.51L138.32,120.01L139.09,142.49L139.09,142.49L139.11,127.51L139.81,142.49L139.82,127.51L139.87,127.51L140.22,120.02L140.4,149.98L140.62,127.51L140.65,127.51L141.18,157.47L141.21,127.51L141.24,105.03L141.94,142.49L141.99,112.53L142.02,97.54L142.11,157.47L142.75,142.49L142.79,127.51L143.1,164.96L143.13,105.04L143.54,142.49L143.55,127.51L144.29,142.49L144.29,142.49L144.33,127.51L144.99,142.49L145.07,127.51L145.11,127.51L145.51,149.98L145.52,120.02L145.84,142.49L145.89,127.51L146.65,142.49L146.66,127.51L147.42,142.49L147.42,142.49L147.46,142.49L148.2,127.51L148.26,142.49L149.04,127.51L149.09,127.51L149.77,142.49L149.83,127.51L149.86,127.51L150.64,142.49L150.66,127.51L151.15,120.02L151.41,142.49L151.41,142.49L151.42,127.51L151.53,149.98L151.8,120.02L152.07,142.49L152.1,142.49L152.22,164.96L152.81,112.53L152.85,142.49L152.87,142.49L153.44,112.53L153.44,157.47L153.62,127.51L153.7,127.51L153.7,142.49L154.45,127.51L154.46,127.51L155.12,120.02L155.17,142.49L155.21,127.51L155.25,127.51L155.55,120.02L155.99,142.49L156.01,127.51L156.28,120.02L156.43,149.98L156.75,142.49L156.78,127.51L156.82,120.02L157.48,142.49L157.53,127.51L157.57,142.49L157.92,149.98L158.03,120.02L158.38,127.51L158.38,142.49L158.47,149.98L158.58,120.02L159.15,127.51L159.18,142.49L159.92,127.51L159.92,142.49L159.96,142.49L160.01,120.02L160.73,127.51L160.75,127.51L160.87,112.53L161.49,142.49L161.49,127.51L161.52,127.51L161.67,172.44L161.75,120.02L162.15,127.51L162.17,127.51L162.2,112.53L162.26,172.44L162.92,142.49L162.96,120.02L163.35,97.55L163.42,172.45L163.78,142.49L163.82,127.51L164.01,120.02L164.55,149.98L164.57,120.02L164.59,149.98L165.31,127.51L165.38,142.49L166.11,127.51L166.13,142.49L166.16,127.51L166.22,105.04L166.26,164.96L166.9,127.51L166.93,142.49L167.51,120.02L167.68,127.51L167.73,127.51L168.03,149.98L168.18,120.02L168.43,127.51L168.51,142.49L169.02,164.95L169.24,105.04L169.32,127.51L169.32,142.49L169.34,105.04L169.62,149.98L170,127.51L170.09,142.49L170.16,149.98L170.23,120.02L170.84,142.49L170.87,142.49L171.58,127.51L171.61,142.49L171.63,142.49L171.85,149.98L171.86,120.02L172.38,142.49L172.39,142.49L172.76,120.02L173.11,142.49L173.16,127.51L173.8,149.98L173.87,120.02L173.87,127.51L173.92,120.02L174.23,149.98L174.65,127.51L174.7,127.51L174.76,120.02L175.31,149.98L175.46,142.49L175.47,127.51L175.79,112.53L175.84,157.47L176.19,142.49L176.23,127.51L176.74,112.53L176.82,149.98L176.99,142.49L177.06,127.51L177.76,142.49L177.81,127.51L177.83,127.51L178.57,142.49L178.62,127.51L179.4,142.49L179.4,127.51L179.85,157.47L180.14,142.49L180.2,127.51L180.55,120.02L180.55,164.96L180.95,142.49L180.96,127.51L181.03,164.96L181.18,105.04L181.72,142.49L181.81,127.51L182.58,142.49L182.58,142.49L182.61,142.49L183.37,127.51L183.37,127.51L183.41,127.51L184,164.96L184.16,142.49L184.17,127.51L184.55,112.53L184.74,157.47L184.92,142.49L184.95,127.51L185.05,157.47L185.27,120.02L185.72,149.98L185.74,120.02L185.76,157.47L186.49,142.49L186.51,142.49L186.59,149.98L186.68,120.02L187.23,127.51L187.3,127.51L187.37,120.02L188.08,172.45L188.08,142.49L188.55,112.53L188.61,157.47L188.81,142.49L188.84,142.49L189.39,127.51L189.4,149.98L189.49,149.98L189.54,149.98L189.54,120.02L190.29,127.51L190.3,149.98L190.39,120.02L191.09,127.51L191.11,142.49L191.6,157.47L191.77,112.53L191.85,142.49L191.86,149.98L192.03,112.53L192.24,157.47L192.53,142.49L192.62,120.02L192.63,149.98L193.34,142.49L193.39,127.51L194.07,112.53L194.13,157.47L194.13,112.53L194.14,157.47L194.88,142.49L194.93,127.51L195.63,142.49L195.73,127.51L196.19,172.45L196.35,120.02L196.49,142.49L196.54,142.49L196.7,149.98L197.11,97.55L197.24,142.49L197.25,120.02L197.54,149.98L198,142.49L198.07,127.51L198.82,142.49L198.82,127.51L198.83,127.51L198.95,120.02L199.27,149.98L199.49,127.51L199.55,142.49L200.33,127.51L200.33,127.51L200.33,142.49L200.93,149.98L200.95,120.02L201.09,127.51L201.1,142.49L201.8,127.51L201.84,142.49L201.86,142.49L202.37,149.98L202.53,127.51L202.61,142.49L202.64,142.49L202.98,149.98L203.09,120.02L203.38,142.49L203.41,142.49L203.75,105.04L203.8,164.96L204.15,142.49L204.18,142.49L204.5,149.98L204.62,120.02L204.92,142.49L204.94,142.49L205.2,120.02L205.2,149.98L205.64,142.49L205.73,127.51L206.43,142.49L206.44,127.51L206.53,127.51L206.65,149.98L207.27,120.02L207.28,142.49L207.33,142.49L207.38,120.02L208.1,127.51L208.19,142.49L208.42,105.03L208.49,164.96L208.94,127.51L208.97,120.02L208.98,149.98L209.71,142.49L209.78,127.51L210.01,120.02L210.15,149.98L210.51,142.49L210.57,142.49L210.83,149.98L211.36,127.51L211.36,127.51L211.37,149.98L211.74,157.47L212.1,112.53L212.14,127.51L212.25,127.51L212.99,142.49L212.99,142.49L213.02,127.51L213.5,120.02L213.5,149.98L213.79,142.49L213.84,142.49L214.28,149.98L214.62,120.02L214.62,120.02L214.62,149.98L214.71,120.02L215.39,127.51L215.4,142.49L215.67,149.98L216,120.02L216.14,127.51L216.16,142.49L216.52,157.47L216.77,112.53L216.89,142.49L216.96,157.47L217.02,164.96L217.66,105.04L217.68,142.49L217.73,142.49L218.17,157.47L218.43,120.02L218.45,142.49L218.5,142.49L219.03,157.47L219.21,127.51L219.23,142.49L219.3,142.49L219.54,164.95L219.56,105.04L220.04,127.51L220.08,142.49L220.23,97.55L220.84,127.51L220.86,127.51L220.87,172.44L221.18,120.02L221.6,127.51L221.62,127.51L222,120.02L222.05,149.97L222.38,142.49L222.38,127.51L223.1,142.49L223.14,127.51L223.3,120.02L223.38,149.97L223.86,127.51L223.92,120.02L223.92,149.97L224.65,142.49L224.68,142.49L225.29,127.51L225.4,142.49L225.44,142.49L225.73,120.02L225.84,149.98L226.2,127.51L226.22,127.51L226.94,149.97L226.98,142.49L227.05,127.51L227.82,142.49L227.85,127.51L228.5,142.49L228.54,127.51L228.62,112.54L228.65,164.95L229.37,142.49L229.38,127.51L229.51,120.02L230.09,142.49L230.13,127.51L230.15,127.51L230.31,90.08L230.46,149.97L230.86,127.51L230.86,97.57L230.93,164.94L231.61,142.48L231.66,142.48L231.74,149.97L231.79,120.03L232.4,120.03L232.44,127.51L233.2,142.49L233.25,127.51L233.85,149.97L233.86,120.03L234,142.49L234.05,127.51L234.74,142.49L234.78,127.51L234.81,127.51L235.63,164.95L235.63,164.95L235.67,105.05L236.15,172.43L236.42,149.97L236.43,120.03L236.85,105.06L237.05,164.94L237.17,142.48L237.22,127.51L237.23,157.45L237.47,112.54L237.96,127.51L237.98,142.48L238.5,149.97L238.59,120.03L238.73,127.51L238.74,142.48L239.49,127.51L239.52,127.51L240.26,120.03L240.27,142.48L240.27,142.48L240.28,127.51L240.87,120.03L241.04,149.97L241.04,149.97L241.08,142.48L241.23,149.97L241.75,127.51L241.82,142.48L241.84,142.48L242.45,120.03L242.58,127.51L242.58,142.48L243.29,120.03L243.32,142.48L243.36,120.03L243.9,112.54L243.91,149.97L244.14,142.49L244.14,127.51L244.4,157.46L244.6,120.03L244.87,127.51L244.9,127.51L245.06,120.03L245.1,149.97L245.64,127.51L245.66,127.51L246.02,120.03L246.37,142.48L246.41,127.51L246.42,127.51L246.43,112.54L246.51,149.97L247.12,127.51L247.2,142.48L247.94,127.51L247.94,127.51L247.97,142.48L248.4,172.42L248.44,97.58L248.7,127.51L248.74,142.48L249.06,149.97L249.48,120.03L249.48,142.48L249.51,149.97L249.51,120.03L250.26,142.48L250.28,142.48L250.32,120.03L250.36,149.97L251.04,127.51L251.05,142.48L251.79,127.51L251.8,142.48L251.81,142.48L252.56,127.51L252.56,127.51L252.6,127.51L253.07,149.97L253.33,120.03L253.35,142.48L253.41,142.48L254.03,105.06L254.06,164.94L254.1,142.48L254.18,142.48L254.22,149.97L254.39,120.03L254.94,127.51L254.97,127.51L255.24,120.03L255.62,142.48L255.7,127.51L255.74,127.51L256.1,120.03L256.53,149.97L256.53,149.97L256.53,120.03L257.21,142.48L257.23,127.51L257.7,112.54L257.83,142.48L257.93,127.51L257.99,127.51L257.99,142.48L258.73,127.51L258.79,120.03L259.21,149.97L259.52,127.51L259.55,127.51L259.91,67.65L259.91,224.8L260.3,97.58L260.32,149.97L260.34,105.06L260.69,164.93L261.07,142.48L261.09,120.03L261.83,149.96L261.84,127.52L261.85,120.03L261.92,112.55L262,149.96L262.42,127.52L262.45,142.48L262.5,112.55L262.53,172.41L263.2,127.52L263.23,127.52L263.33,105.07L263.4,149.96L263.92,127.52L263.94,142.48L264.26,149.96L264.32,120.03L264.72,127.52L264.73,127.52L265.55,142.48L265.56,127.52L266.16,105.07L266.24,164.93L266.3,127.52L266.32,120.03L267.06,149.96L267.06,149.96L267.08,112.55L267.43,157.45L267.78,149.96L267.87,127.52L267.93,142.48L268.29,112.55L268.56,127.52L268.6,142.48L269.23,112.55L269.25,157.45L269.42,127.52L269.43,142.48L269.59,157.45L269.63,112.55L270.18,112.55L270.2,112.55L270.26,157.45L270.96,142.48L270.99,142.48L271.19,142.48L271.29,127.52L271.32,112.55L271.39,157.45L272.04,127.52L272.1,127.52L272.3,105.07L272.81,142.48L272.82,127.52L272.84,120.03L273.6,142.48L273.6,142.48L273.63,127.52L273.65,120.03L273.69,149.96L274.36,142.48L274.39,142.48L274.41,120.03L274.47,149.96L275.04,127.52L275.15,142.48L275.69,149.96L275.96,127.52L275.98,149.96L276.01,120.03L276.72,127.52L276.74,142.48L277.4,127.52L277.42,142.48L277.54,127.52L278.28,157.45L278.28,142.48L278.3,127.52L278.36,149.96L279.04,127.52L279.06,127.52L279.56,112.55L279.78,157.45L279.81,127.52L279.81,112.55L280.57,157.45L280.57,157.45L280.59,127.52L280.72,112.55L280.82,157.45L281.34,127.52L281.35,127.52L281.95,120.03L282.12,142.48L282.12,142.48L282.15,142.48L282.88,120.03L282.88,120.03L282.9,149.96L283.69,127.52L283.73,142.48L284.25,157.45L284.36,112.55L284.45,120.03L284.48,149.97L284.48,105.07L284.56,164.93L285.21,142.48L285.28,127.52L285.42,120.03L285.51,149.97L286.03,142.48L286.06,127.52L286.83,142.48L286.84,127.52L286.95,120.03L287.06,149.96L287.6,142.48L287.65,149.97L288.15,157.45L288.39,127.51L288.48,142.48L288.62,157.45L289.1,112.55L289.24,120.03L289.24,149.97L289.25,120.03L289.99,142.48L290,142.48L290.31,157.45L290.62,120.03L290.75,127.52L290.82,127.52L290.94,120.03L291.61,149.97L291.65,149.97L291.93,120.03L292.34,142.48L292.35,172.42L292.38,97.58L293.11,127.51L293.12,142.48L293.25,112.55L293.5,157.45L293.88,127.51L293.91,142.48L294.65,120.03L294.68,127.51L294.82,120.03L294.83,149.97L295.45,142.48L295.45,127.51L296.19,142.48L296.2,127.51L296.21,127.51L296.9,157.45L296.96,142.48L296.97,142.48L297.07,149.97L297.75,127.51L297.76,127.52L297.76,112.55L298.04,157.45L298.5,149.97L298.52,142.48L299.05,112.55L299.09,172.41L299.26,142.48L299.32,142.48L300,127.52L300.07,142.48L300.11,142.48L300.54,120.03L300.57,149.97L300.86,142.48L300.89,142.48L301.49,120.03L301.54,149.97L301.6,149.97L302.09,120.03L302.39,127.52L302.41,142.48L303.2,127.52L303.22,142.48L303.41,149.96L303.76,120.03L303.91,142.48L303.99,142.48L304.72,149.96L304.78,120.03L304.85,142.48L305.3,120.03L305.59,142.48L305.62,142.48L305.92,149.97L306.39,120.03L306.39,120.03L306.39,149.97L306.8,164.93L306.81,105.07L307.07,127.52L307.12,149.97L307.38,120.03L307.85,142.48L307.91,142.48L307.91,127.52L308.66,142.48L308.68,127.52L309.13,120.03L309.21,149.96L309.42,127.52L309.44,127.52L309.76,112.55L309.96,149.96L310.12,127.52L310.16,142.48L310.29,75.14L310.77,164.92L310.92,127.52L310.93,142.48L311.2,157.44L311.26,112.55L311.65,127.52L311.71,142.48L312.02,157.44L312.08,112.55L312.47,127.52L312.47,142.48L312.94,97.59L313.23,127.52L313.26,142.48L313.91,157.44L313.99,112.55L314.01,142.48L314.02,142.48L314.18,120.03L314.71,127.52L314.74,142.48L315.51,127.52L315.51,127.52L315.52,142.48L316.15,120.04L316.17,149.96L316.29,127.52L316.3,142.48L316.58,112.56L316.58,157.44L317.04,127.52L317.08,142.48L317.17,149.96L317.35,112.56L317.8,120.04L317.81,149.96L318.21,112.56L318.56,127.52L318.58,127.52L318.62,97.6L318.78,179.88L319.31,127.52L319.36,127.52L319.89,112.56L319.94,149.96L320.11,142.48L320.11,112.56L320.14,157.44L320.87,127.52L320.88,127.52L321.64,142.48L321.64,142.48L321.64,127.52L322.35,142.48L322.39,127.52L322.4,127.52L322.4,149.96L322.91,120.04L323.14,142.48L323.17,127.52L323.59,142.48L323.65,97.6L323.73,97.6L323.77,97.6L324.14,149.96L324.61,142.48L324.64,127.52L325.03,149.96L325.05,112.56L325.38,127.52L325.41,127.52L325.57,105.09L326.17,142.48L326.21,157.43L326.9,120.04L326.95,142.48L327,127.52L327.73,142.48L327.75,127.52L327.76,127.52L327.9,120.04L328.51,142.48L328.6,127.52L328.66,149.95L328.71,120.04L329.37,142.48L329.37,127.52L329.77,149.95L329.77,120.04L330.13,142.48L330.14,127.52L330.72,112.56L330.79,157.43L330.89,127.52L330.9,120.04L331.29,105.08L331.58,149.96L331.61,127.52L331.66,127.52L331.7,105.09L331.72,164.91L332.39,127.52L332.47,142.48L332.47,127.52L333.21,149.96L333.24,105.08L333.37,164.92L333.96,127.52L334.03,127.52L334.32,217.27L334.41,127.52L334.49,127.52L334.5,52.73L334.71,202.31L335.22,149.96L335.26,127.52L335.9,120.04L335.93,149.96L335.98,120.04L336.06,149.96L336.71,127.52L336.79,127.52L337.18,112.56L337.26,149.96L337.54,142.48L337.57,127.52L337.77,105.08L337.78,164.91L338.27,120.04L338.34,127.52L339.09,142.48L339.12,127.52L339.63,97.61L339.65,172.39L339.85,142.48L339.91,142.48L340.33,157.43L340.65,127.52L340.66,142.48L340.67,142.48L340.93,120.04L341.44,127.52L341.48,127.52L341.51,120.04L341.51,149.96L342.18,127.52L342.19,142.48L342.85,82.65L342.86,149.95L342.95,127.52L342.98,142.48L343.24,97.61L343.32,172.39L343.6,120.04L343.75,127.52L343.92,149.95L344.06,120.04L344.5,127.52L344.57,142.48L344.73,112.56L344.74,157.43L345.27,127.52L345.35,127.52L345.74,149.95L345.76,112.56L346.04,142.48L346.11,112.56L346.82,142.48L346.89,142.48L347.64,127.52L347.64,127.52L347.65,142.48L347.67,120.04L348.39,127.52L348.42,142.48L348.94,120.04L349.17,142.48L349.18,142.48L349.97,127.52L349.97,127.52L349.99,127.52L350.75,142.48L350.75,142.48L350.78,127.52L351.09,120.04L351.51,142.48L351.51,142.48L351.56,127.52L352.04,149.96L352.05,120.04L352.32,142.48L352.41,164.91L352.77,179.87L352.94,90.12L353.13,105.08L353.16,164.92L353.23,90.12L353.89,142.48L353.99,127.52L354.62,97.61L354.65,172.39L354.69,97.61L354.76,142.48L355,120.04L355.5,127.52L355.55,142.48L355.55,127.52L356.28,127.52L356.33,142.48L356.71,187.35L356.72,82.65L357.07,142.48L357.12,127.52L357.45,97.61L357.58,149.95L357.81,127.52L357.89,112.57L358.56,142.48L358.56,142.48L358.57,127.52L358.73,217.24L358.97,82.66L359.33,142.48L359.33,127.52L359.47,105.09L359.5,164.91L360.05,127.52L360.06,142.48L360.59,120.04L360.8,142.48L360.82,142.48L360.97,149.96L361.32,120.04L361.57,142.48L361.6,142.48L361.89,112.56L361.95,157.43L362.32,157.43L362.34,157.43L362.52,112.57L363.11,127.52L363.12,142.48L363.83,112.57L363.85,157.43L363.86,157.43L363.91,157.43L364.54,172.38L364.56,97.61L364.61,127.52L364.63,164.9L364.79,105.09L365.38,142.48L365.39,127.52L365.77,157.43L365.77,112.57L365.98,127.52L366,142.48L366.7,127.52L366.79,127.52L367.16,105.09L367.3,164.91L367.53,142.48L367.63,142.48L367.72,157.43L367.73,112.57L368.4,127.52L368.48,127.52L369.23,142.48L369.23,127.52L369.29,142.48L370.05,127.52L370.05,127.52L370.06,142.48L370.38,120.05L370.8,127.52L370.83,142.48L371.53,112.57L371.55,142.48L371.6,142.48L371.6,127.52L371.71,157.43L372.34,142.48L372.37,127.52L372.48,149.95L372.72,120.04L373.13,142.48L373.14,127.52L373.22,149.95L373.57,120.04L373.85,127.52L373.86,142.48L373.92,120.04L374.15,149.95L374.61,127.52L374.62,127.52L375.35,142.48L375.36,127.52L375.38,127.52L376.13,142.48L376.14,127.52L376.46,112.57L376.82,149.95L376.84,120.04L377.55,149.95L377.57,142.48L377.6,127.52L378.07,120.04L378.36,142.48L378.38,120.04L378.8,105.09L378.91,164.9L379.13,127.52L379.18,142.48L379.77,120.05L379.91,142.48L379.98,127.52L380.63,142.48L380.71,112.57L380.99,149.95L381,127.52" style="vector-effect: non-scaling-stroke; fill: none; stroke: rgb(239, 85, 59); stroke-opacity: 1; stroke-width: 2px; opacity: 1;"/></g><g class="points"/><g class="text"/></g><g class="trace scatter trace46f44c" style="stroke-miterlimit: 2; opacity: 1;"><g class="fills"/><g class="errorbars"/><g class="lines"><path class="js-line" d="M0,15L0.28,127.5L0.81,127.49L0.84,127.49L1.26,127.49L1.34,119.99L1.34,127.49L2.05,127.49L2.13,127.49L2.4,127.49L2.4,127.49L2.48,119.99L3.28,127.49L3.28,127.49L3.3,127.49L3.98,127.49L4,112.49L4.07,127.5L4.26,89.98L4.71,127.5L4.73,127.5L5.03,127.5L5.04,119.99L5.76,127.5L5.76,127.5L5.94,127.5L7.53,127.5L7.54,97.48L8.32,127.5L8.4,127.5L8.86,127.5L8.86,119.99L8.86,127.5L9.59,127.5L9.63,127.5L9.99,127.5L10.06,119.99L10.92,127.5L10.99,127.5L11.68,127.5L11.68,119.99L12.48,127.5L12.48,127.5L12.49,127.5L12.88,127.5L12.96,112.49L13.74,127.5L13.78,127.5L14.36,119.99L14.53,127.5L14.54,127.5L14.95,127.5L14.95,127.5L15.01,119.99L15.34,112.49L15.8,127.5L15.8,127.5L15.81,127.5L16.46,127.5L16.46,127.5L16.5,112.49L17.18,127.5L17.21,112.49L17.28,127.5L18.32,127.5L18.36,104.99L19.14,127.5L19.15,120L19.87,127.5L19.92,120L20.75,127.5L20.78,127.5L22.6,127.5L22.6,127.5L22.61,112.5L22.61,127.5L23.28,127.5L23.43,127.5L25.28,127.5L25.35,112.5L25.97,127.5L25.97,127.5L26.12,127.5L26.37,112.5L26.84,127.5L26.9,127.5L27.24,127.5L27.26,120L27.26,127.5L28.01,127.5L28.04,127.5L28.67,127.5L28.67,127.5L28.73,120L29.49,127.5L29.49,127.5L29.51,127.5L29.63,97.5L30.25,127.5L30.29,120L31.09,127.5L31.11,127.5L32.63,127.5L32.63,127.5L32.67,112.5L33.43,127.5L33.46,127.5L34.3,127.5L34.3,120L34.4,112.5L34.45,127.5L35.03,127.5L35.04,127.5L36.08,127.5L36.08,120L36.59,112.5L36.84,127.5L36.89,127.5L37.09,97.51L37.23,127.5L37.25,127.5L37.3,97.51L37.98,120L38.01,127.5L38.07,105L38.74,127.5L38.79,127.5L38.83,120L39.52,127.5L39.55,127.5L39.7,127.5L39.7,112.5L40.37,127.5L40.38,120L40.42,105.01L41.12,127.5L41.12,127.5L41.12,82.51L41.96,127.5L41.96,127.5L42,127.5L44.8,127.5L44.8,127.5L44.84,120L44.84,127.5L44.96,112.5L45.59,127.5L45.61,127.5L46.38,127.5L46.38,120L47.19,127.5L47.27,127.5L48.64,127.5L48.64,127.5L48.64,120L48.76,112.5L49.48,127.5L49.53,127.5L50.3,97.51L50.41,112.51L50.51,120L50.75,45.04L50.84,127.5L51.21,120L51.31,127.5L51.41,97.51L52.06,127.5L52.1,127.5L54.18,127.5L54.18,127.5L54.24,112.51L55,127.5L55.05,127.5L55.43,127.5L55.5,112.5L56.29,127.5L56.33,127.5L57.24,127.5L57.25,120L57.57,97.51L58.01,127.5L58.04,127.5L58.24,127.5L58.26,97.51L58.99,127.5L58.99,127.5L59.04,127.5L59.82,127.5L59.86,120L60.66,127.5L60.66,127.5L60.69,127.5L60.87,112.51L61.44,127.5L61.45,127.5L62.73,127.5L62.74,120L63.18,97.52L63.46,127.5L63.51,120.01L64,112.51L64.26,127.5L64.29,120.01L64.57,97.52L65.02,127.5L65.02,120.01L65.04,97.52L65.8,127.5L65.84,120.01L65.89,127.5L66.2,97.52L66.57,127.5L66.63,127.5L66.75,105.02L67.36,120.01L67.39,127.5L67.59,97.52L68.14,127.5L68.15,127.5L68.35,127.5L68.35,127.5L68.35,120.01L69.11,127.5L69.12,120.01L69.97,127.5L69.97,127.5L69.99,127.5L70.22,127.5L70.24,112.51L70.24,127.5L70.98,127.5L71,127.5L71.27,127.5L71.28,112.51L72.02,127.5L72.07,127.5L73.07,127.5L73.09,105.01L73.85,127.5L73.85,127.5L73.88,127.5L74.78,127.5L74.81,105.01L75.7,127.5L75.7,127.5L75.72,127.5L76.4,105.01L76.51,127.5L76.6,105.01L77.25,112.51L77.3,112.51L77.54,105.01L78.03,127.5L78.03,127.5L78.07,127.5L78.7,127.5L78.72,120.01L78.91,105.02L79.48,127.5L79.5,120.01L80.23,127.5L80.25,120.01L80.27,120.01L81.04,127.5L81.04,127.5L81.05,127.5L81.43,127.5L81.43,127.5L81.44,120.01L82.2,127.5L82.2,127.5L82.27,120.01L82.43,112.51L83.05,127.5L83.05,127.5L83.08,127.5L83.37,127.5L83.37,120L84.09,127.5L84.09,127.5L84.14,120L84.85,127.5L84.87,120L85,127.5L85.21,120L85.73,127.5L85.77,127.5L86.56,120L86.56,120L86.61,127.5L87.23,112.5L87.34,127.5L87.41,127.5L87.57,127.5L87.57,127.5L87.57,120L87.75,112.5L88.35,127.5L88.35,127.5L88.36,127.5L88.63,97.5L89.09,127.5L89.12,127.5L89.21,112.5L89.81,127.5L89.87,127.5L90.84,127.5L90.91,120L91.7,127.5L91.7,127.5L91.75,127.5L92.41,127.5L92.41,127.5L92.49,120L93.16,127.5L93.18,112.5L93.92,127.5L93.94,112.5L93.94,127.5L94.65,127.5L94.7,127.5L95.65,127.5L95.66,120L95.8,112.5L96.42,127.5L96.45,127.5L96.75,120L97.18,127.5L97.23,127.5L98.09,127.5L98.12,120L98.89,127.5L98.92,120L99.69,127.5L99.69,127.5L99.7,127.5L99.97,127.5L99.98,120L100.15,112.5L100.74,127.5L100.74,127.5L100.81,127.5L100.98,120L101.55,127.5L101.57,127.5L102.32,127.5L102.34,120L102.6,105.01L103.07,127.5L103.11,120L103.84,127.5L103.84,127.5L103.92,127.5L104.12,52.54L104.44,112.51L104.47,127.5L104.48,120.01L105.22,127.5L105.23,127.5L107.16,127.5L107.21,120.01L107.46,112.51L107.97,127.5L107.97,112.51L108.72,127.5L108.73,120.01L108.84,112.51L109.51,127.5L109.51,127.5L109.53,127.5L109.96,127.5L109.98,112.52L110.72,127.5L110.72,127.5L110.84,127.51L110.89,97.53L111.56,127.51L111.58,127.51L111.75,127.51L111.76,120.01L112.4,97.53L112.53,127.51L112.55,127.51L112.83,105.03L113.29,127.51L113.32,127.51L114.39,127.51L114.39,127.51L114.46,120.01L114.88,97.54L115.16,127.51L115.18,105.03L115.83,127.51L115.92,120.02L115.98,127.51L117.11,127.51L117.18,120.02L117.96,127.51L117.96,127.51L117.99,127.51L118.12,120.02L118.73,127.51L118.78,127.51L119.02,127.51L119.04,105.03L119.81,127.51L119.81,127.51L119.85,127.51L120.05,105.03L120.64,120.01L120.67,120.01L121.42,127.51L121.45,127.51L122.74,127.51L122.74,127.51L122.74,120.01L123.06,105.03L123.59,127.51L123.63,127.51L124.36,127.51L124.36,120.02L124.5,105.03L125.1,127.51L125.14,127.51L127.12,127.51L127.12,127.51L127.15,120.02L127.37,120.02L127.37,120.02L127.44,127.51L127.6,127.51L127.64,120.02L127.7,97.55L128.42,127.51L128.49,120.02L129.37,127.51L129.37,127.51L129.41,127.51L129.99,120.02L130.14,127.51L130.19,127.51L130.89,120.02L130.94,127.51L130.99,127.51L131.24,127.51L131.24,127.51L131.25,120.02L132.03,127.51L132.05,127.51L132.32,127.51L132.32,120.02L132.32,127.51L133.07,120.02L133.08,127.51L133.77,120.02L133.82,127.51L133.91,127.51L134.29,127.51L134.29,127.51L134.31,120.02L135.16,127.51L135.16,127.51L135.21,127.51L135.85,127.51L135.85,127.51L135.85,120.02L136.62,127.51L136.63,120.02L137.34,127.51L137.34,127.51L137.41,127.51L137.77,127.51L137.81,120.02L137.95,120.01L138.59,127.51L138.63,127.51L140.21,127.51L140.21,127.51L140.21,120.02L140.99,127.51L140.99,127.51L141,127.51L141.17,127.51L141.18,112.53L141.24,105.03L141.94,127.51L141.94,127.51L141.99,127.51L142.02,97.54L142.74,127.51L142.75,127.51L142.96,127.51L142.96,120.02L142.96,127.51L143.1,105.04L143.66,127.51L143.73,127.51L145.47,127.51L145.47,127.51L145.48,120.02L146.33,127.51L146.34,127.51L151.13,127.51L151.15,120.02L151.91,127.51L151.91,127.51L151.94,127.51L152.21,127.51L152.22,105.04L152.99,127.51L152.99,127.51L153.05,127.51L153.42,127.51L153.42,112.53L154.27,127.51L154.27,127.51L154.33,127.51L155.11,127.51L155.12,120.02L155.82,127.51L155.91,127.51L156.22,127.51L156.22,127.51L156.28,120.02L157.15,127.51L157.15,127.51L157.18,127.51L157.86,127.51L157.86,127.51L157.86,120.02L158.67,127.51L158.75,127.51L159.96,127.51L160.01,120.02L160.81,127.51L160.84,127.51L160.87,112.53L161.55,127.51L161.61,127.51L161.67,97.55L162.36,112.53L162.37,127.51L163.06,120.02L163.1,127.51L163.14,127.51L163.34,127.51L163.34,127.51L163.34,120.02L163.42,127.51L163.45,97.55L164.05,120.02L164.09,127.51L164.82,120.02L164.84,127.51L164.87,120.02L165.66,127.51L165.72,127.51L166.17,127.51L166.2,105.04L166.96,127.51L166.96,127.51L166.98,127.51L167.5,127.51L167.5,120.02L168.24,127.51L168.24,127.51L168.32,127.51L168.7,127.51L168.73,120.02L168.86,105.04L169.48,127.51L169.5,127.51L169.61,112.53L170.28,120.02L170.29,127.51L171.85,127.51L171.85,120.02L172.64,127.51L172.7,127.51L172.76,120.02L173.44,127.51L173.46,127.51L173.8,127.51L173.8,127.51L173.8,120.02L174.49,127.51L174.49,127.51L174.59,127.51L174.74,127.51L174.74,120.02L175.52,127.51L175.52,127.51L175.53,127.51L175.71,127.51L175.71,127.51L175.77,120.02L175.8,127.51L175.85,112.53L176.5,127.51L176.53,127.51L176.74,127.51L176.74,112.53L177.52,127.51L177.52,127.51L177.58,127.51L179.82,127.51L179.82,127.51L179.85,112.53L180.54,127.51L180.55,120.02L180.55,105.04L181.35,127.51L181.35,127.51L181.43,127.51L183.97,127.51L183.97,127.51L184,105.04L184.78,127.51L184.79,120.02L185.03,112.53L185.58,127.51L185.6,127.51L185.76,112.53L186.23,127.51L186.28,127.51L186.68,120.02L187.03,127.51L187.04,127.51L187.34,127.51L187.37,120.02L188,127.51L188.08,105.04L188.08,97.55L188.08,127.51L188.81,127.51L188.84,127.51L189.39,127.51L189.4,120.02L190.14,127.51L190.21,120.02L191.02,127.51L191.05,127.51L191.57,127.51L191.57,127.51L191.59,112.53L192.28,127.51L192.34,120.02L192.37,120.02L193.25,127.51L193.25,127.51L193.28,127.51L194.01,127.51L194.01,127.51L194.05,120.02L194.1,127.51L194.15,112.53L194.74,127.51L194.79,127.51L196.17,127.51L196.17,127.51L196.18,97.55L197.09,127.51L197.11,97.55L197.11,127.51L197.86,127.51L197.89,127.51L198.84,127.51L198.86,120.02L199.67,127.51L199.73,127.51L200.89,127.51L200.89,127.51L200.91,120.02L201.71,127.51L201.71,127.51L201.76,127.51L202.33,127.51L202.37,120.02L202.98,127.51L203.12,120.02L203.14,127.51L203.8,105.04L203.87,127.51L203.91,127.51L204.72,120.02L204.72,120.02L204.73,127.51L205.16,127.51L205.2,120.02L205.95,127.51L205.98,127.51L206.58,127.51L206.58,127.51L206.6,120.02L207.33,127.51L207.33,127.51L207.38,120.02L208.1,127.51L208.19,127.51L208.89,105.03L208.98,120.02L209,127.51L209.08,120.02L209.71,127.51L209.78,127.51L209.98,127.51L210.01,120.02L210.77,127.51L210.79,127.51L211.37,120.02L211.54,127.51L211.56,127.51L212.1,112.53L212.31,127.51L212.32,127.51L213.47,127.51L213.48,120.02L214.2,127.51L214.2,127.51L214.26,127.51L214.71,120.02L215.01,127.51L215.02,127.51L215.2,127.51L215.23,120.02L215.96,127.51L216,120.02L216.52,112.53L216.6,127.51L216.65,120.02L216.69,112.53L217,105.04L217.42,127.51L217.42,127.51L217.47,127.51L217.67,105.04L218.21,127.51L218.24,127.51L218.43,127.51L218.43,120.02L219.03,112.53L219.19,127.51L219.21,127.51L219.58,105.04L219.92,127.51L219.95,127.51L220.16,127.51L220.2,120.02L220.23,97.55L220.95,127.51L221.03,127.51L221.29,120.02L221.78,127.51L221.8,127.51L222.13,120.02L222.55,127.51L222.56,127.51L223.29,127.51L223.29,127.51L223.3,120.02L224.12,127.51L224.12,127.51L224.17,127.51L224.45,127.51L224.45,127.51L224.46,120.02L225.25,127.51L225.26,127.51L225.53,127.51L225.56,120.02L226.31,127.51L226.43,127.51L226.93,127.51L226.93,127.51L226.94,120.02L226.94,127.51L227.65,127.51L227.71,127.51L228.54,127.51L228.62,112.54L228.65,105.05L228.66,127.51L229.28,127.51L229.36,127.51L229.51,120.02L230.1,127.51L230.13,127.51L230.29,127.51L230.31,90.08L231.09,127.51L231.09,127.51L231.12,127.51L231.72,127.51L231.74,120.03L232.5,127.51L232.5,127.51L232.54,127.51L233.83,127.51L233.83,127.51L233.85,120.03L234.72,127.51L234.74,127.51L235.58,127.51L235.58,127.51L235.63,105.05L236.15,97.57L236.29,127.51L236.4,120.03L236.42,120.03L236.85,105.06L236.99,127.51L237.04,105.06L237.05,105.06L237.81,127.51L237.81,127.51L237.83,127.51L238.42,127.51L238.42,120.03L239.17,127.51L239.17,127.51L239.22,127.51L240.22,127.51L240.22,127.51L240.26,120.03L240.93,127.51L241.03,127.51L241.25,120.03L241.75,127.51L241.81,127.51L242.45,120.03L242.53,127.51L242.58,127.51L243.28,127.51L243.29,120.03L243.29,127.51L243.9,112.54L244.03,120.03L244.05,112.54L244.78,127.51L244.86,127.51L245.02,127.51L245.06,120.03L245.82,127.51L245.82,127.51L245.87,127.51L246.43,112.54L246.62,127.51L246.67,127.51L248.34,127.51L248.36,120.03L248.43,127.52L248.57,97.58L249.08,120.03L249.17,127.51L249.36,127.51L249.36,127.51L249.39,120.03L250.13,127.51L250.13,127.51L250.17,127.51L250.43,120.03L250.91,127.51L250.97,127.51L253.06,127.51L253.07,120.03L253.84,127.51L253.91,127.51L254.06,105.06L254.39,120.03L254.42,127.51L255.23,127.51L255.24,120.03L255.24,127.51L255.99,127.51L256,127.51L256.58,120.03L256.75,127.51L256.79,127.51L257.69,127.51L257.7,112.54L258.46,127.51L258.46,127.51L258.47,127.51L258.73,127.51L258.79,120.03L259.55,127.51L259.55,127.51L259.58,127.51L259.82,127.51L259.84,120.03L259.91,45.2L260.61,127.52L260.65,127.52L260.72,105.07L261.4,127.52L261.41,127.52L261.72,127.52L261.73,120.03L261.73,127.52L261.92,112.55L262.47,112.55L262.5,112.55L262.53,97.59L262.64,127.52L263.2,127.52L263.23,127.52L263.33,105.07L263.97,127.52L263.99,127.52L264.25,127.52L264.26,120.03L265.04,127.52L265.04,127.52L265.06,127.52L265.87,127.52L265.87,127.52L265.89,120.03L265.97,105.07L266.64,127.52L266.7,127.52L267.03,127.52L267.06,120.03L267.14,127.52L267.58,112.55L267.78,120.03L267.87,127.52L268.29,112.55L268.6,127.52L268.66,127.52L268.85,127.52L268.85,127.52L268.87,120.03L269.2,112.55L269.57,127.52L269.6,120.03L269.63,112.55L270.5,127.52L270.55,127.52L271.29,127.52L271.29,127.52L271.32,112.55L272.04,127.52L272.1,127.52L272.28,127.52L272.3,105.07L273.03,127.52L273.06,120.03L273.1,127.52L273.51,127.52L273.53,120.03L274.27,127.52L274.27,127.52L274.31,127.52L274.55,120.03L275.04,127.52L275.15,127.52L275.67,127.52L275.67,127.52L275.69,120.03L276.5,127.52L276.51,127.52L278.16,127.52L278.16,127.52L278.28,112.55L278.28,127.52L279.02,127.52L279.04,127.52L279.46,127.52L279.46,127.52L279.47,120.03L279.47,127.52L279.56,112.55L280.19,127.52L280.25,120.03L280.49,112.55L280.99,127.52L281.03,120.03L281.78,127.52L281.78,127.52L281.81,127.52L281.95,120.03L282.56,127.52L282.61,127.52L282.87,127.52L282.88,120.03L283.66,127.52L283.66,127.52L283.69,127.52L284.25,127.52L284.25,112.55L284.48,105.07L285.17,127.52L285.17,127.52L285.18,127.52L285.41,127.52L285.42,120.03L286.19,127.52L286.24,127.52L286.9,127.52L286.95,120.03L287.69,127.52L287.77,127.52L288.13,127.52L288.13,127.52L288.15,112.55L288.9,127.52L288.95,120.03L288.95,112.55L289.09,127.52L289.68,127.51L289.73,127.51L290.3,127.51L290.31,112.55L291.16,127.52L291.19,127.51L291.51,127.51L291.51,127.51L291.52,120.03L292.31,127.51L292.31,127.51L292.34,127.51L292.38,97.58L293.08,127.51L293.11,127.51L293.51,112.55L293.85,127.51L293.88,127.51L294.65,127.51L294.65,127.51L294.65,120.03L295.41,127.51L295.45,127.51L296.9,127.52L296.9,112.55L297.65,127.52L297.65,127.52L297.69,127.51L297.89,127.52L298.34,112.55L298.42,127.52L298.44,127.52L299.09,97.58L299.15,127.52L299.2,127.52L299.21,112.55L299.89,127.52L299.96,127.52L300.54,127.52L300.54,120.03L301.26,127.52L301.34,127.51L301.41,127.52L302.09,120.03L302.09,127.52L302.21,127.52L303.41,127.52L303.41,120.03L303.41,127.52L304.13,127.52L304.17,127.52L304.71,127.52L304.71,127.52L304.72,120.03L305.52,127.52L305.56,127.52L305.92,127.52L305.92,127.52L305.92,120.03L306.7,127.52L306.71,127.52L306.83,105.07L307.46,127.52L307.53,127.52L309.09,127.52L309.09,127.52L309.13,120.03L309.13,127.52L309.57,112.55L309.87,120.03L309.91,127.52L310.29,75.14L310.64,105.08L310.7,127.52L310.77,105.08L311.42,127.52L311.46,127.52L311.97,127.52L311.99,120.04L312.03,127.52L312.31,112.55L312.7,127.52L312.73,127.52L312.94,97.59L313.48,127.52L313.53,127.52L313.86,127.52L313.86,127.52L313.88,120.04L313.97,127.52L313.99,112.55L314.58,127.52L314.62,127.52L316.13,127.52L316.14,120.04L316.58,112.56L316.87,127.52L316.87,127.52L316.93,127.52L317.16,127.52L317.16,127.52L317.17,120.04L317.35,112.56L317.92,127.52L317.93,120.04L318.6,97.6L318.66,127.52L318.66,127.52L318.67,105.08L318.78,90.12L319.49,127.52L319.49,127.52L319.52,127.52L319.84,127.52L319.89,112.56L320.65,127.52L320.65,127.52L320.73,127.52L322.4,127.52L322.4,120.04L323.14,127.52L323.17,127.52L323.62,127.52L323.65,97.6L324.52,127.52L324.61,127.52L324.77,127.52L324.79,120.04L325.05,112.56L325.53,127.52L325.53,127.52L325.57,105.09L326.34,127.52L326.38,120.04L327.11,127.52L327.11,127.52L327.17,127.52L327.88,127.52L327.88,127.52L327.9,120.04L328.61,127.52L328.61,127.52L328.66,120.04L329.43,127.52L329.45,127.52L329.75,127.52L329.75,120.04L330.48,127.52L330.48,127.52L330.54,127.52L331.29,105.08L331.37,127.52L331.55,127.52L331.56,120.04L331.7,105.09L332.28,127.52L332.39,127.52L333.21,127.52L333.21,120.04L333.37,105.08L333.37,127.52L333.94,127.52L333.96,127.52L334.31,127.52L334.31,127.52L334.32,52.73L334.32,127.52L335.07,127.52L335.09,127.52L335.22,120.04L335.84,127.52L335.85,127.52L336.08,120.04L336.6,127.52L336.61,127.52L337.12,127.52L337.12,127.52L337.16,120.04L337.28,127.52L337.88,105.08L337.88,105.08L337.91,127.52L338.27,127.52L338.27,120.04L339.09,127.52L339.12,127.52L339.55,127.52L339.58,105.08L339.65,97.61L339.65,127.52L340.16,127.52L340.18,127.52L340.33,112.56L340.93,120.04L340.97,127.52L341.48,127.52L341.51,120.04L342.29,127.52L342.33,127.52L342.5,127.52L342.5,127.52L342.54,112.56L342.83,82.65L343.23,127.52L343.23,127.52L343.24,97.61L344,127.52L344.04,127.52L344.74,112.56L344.78,120.04L344.8,127.52L345.45,120.04L345.55,127.52L345.56,127.52L346.11,112.56L346.27,112.57L346.29,127.52L346.39,120.04L347.03,127.52L347.05,127.52L347.66,127.52L347.66,127.52L347.67,120.04L348.48,127.52L348.52,127.52L348.92,127.52L348.94,120.04L349.82,127.52L349.82,127.52L349.83,127.52L351.05,127.52L351.05,127.52L351.09,120.04L351.89,127.52L351.89,127.52L351.89,120.04L352.41,105.08L352.64,127.52L352.66,127.52L353.23,90.12L353.4,120.04L353.45,127.52L353.6,127.52L353.61,105.08L354.41,127.52L354.41,127.52L354.44,127.52L354.69,97.61L355,120.04L355.06,127.52L356.7,127.52L356.7,127.52L356.71,82.65L357.56,127.52L357.56,127.52L357.58,120.04L357.89,112.57L358.36,127.52L358.37,120.04L358.71,127.52L358.73,90.14L358.73,82.66L358.73,52.75L358.73,127.52L359.47,105.09L359.5,105.09L359.5,127.52L360.19,127.52L360.3,127.52L360.55,127.52L360.55,127.52L360.59,120.04L361.35,127.52L361.43,127.52L361.89,112.56L362.17,127.52L362.2,127.52L362.53,112.57L362.9,127.52L362.98,127.52L363.82,127.52L363.83,112.57L364.5,127.52L364.52,105.09L364.56,97.61L364.59,127.52L365.21,112.57L365.27,112.57L366.1,127.52L366.18,127.52L367.13,127.52L367.16,105.09L368.03,127.52L368.05,127.52L368.12,120.05L368.8,127.52L368.85,127.52L370.37,127.52L370.37,127.52L370.38,120.05L370.38,127.52L371.12,127.52L371.14,127.52L371.52,127.52L371.52,127.52L371.53,112.57L371.53,127.52L372.28,127.52L372.29,127.52L372.48,127.52L372.48,127.52L372.48,120.04L373.22,127.52L373.23,120.04L373.24,120.04L374.01,127.52L374.04,127.52L374.33,120.04L374.79,127.52L374.82,127.52L376.45,127.52L376.45,127.52L376.46,112.57L376.46,127.52L377.21,127.52L377.22,127.52L377.54,127.52L377.55,120.04L378.32,127.52L378.32,127.52L378.33,127.52L378.91,105.09L379.08,127.52L379.13,127.52L379.74,127.52L379.74,127.52L379.77,120.05L380.53,127.52L380.56,127.52L380.72,112.57L381,127.52" style="vector-effect: non-scaling-stroke; fill: none; stroke: rgb(0, 204, 150); stroke-opacity: 1; stroke-width: 2px; opacity: 1;"/></g><g class="points"/><g class="text"/></g></g></g><g class="overplot"/><path class="xlines-above crisp" d="M0,0" style="fill: none;"/><path class="ylines-above crisp" d="M0,0" style="fill: none;"/><g class="overlines-above"/><g class="xaxislayer-above"><g class="xtick"><text text-anchor="start" x="0" y="416" transform="translate(221.36,0) rotate(30,0,408.5)" style="font-family: 'Times New Roman'; font-size: 15px; fill: rgb(13, 13, 13); fill-opacity: 1; white-space: pre; opacity: 1;">1.6125210<tspan style="font-size:70%" dy="-0.6em">18</tspan><tspan dy="0.42em"></tspan></text></g><g class="xtick"><text text-anchor="start" x="0" y="416" style="font-family: 'Times New Roman'; font-size: 15px; fill: rgb(13, 13, 13); fill-opacity: 1; white-space: pre; opacity: 1;" transform="translate(297,0) rotate(30,0,408.5)">1.61252510<tspan style="font-size:70%" dy="-0.6em">18</tspan><tspan dy="0.42em"></tspan></text></g><g class="xtick"><text text-anchor="start" x="0" y="416" style="font-family: 'Times New Roman'; font-size: 15px; fill: rgb(13, 13, 13); fill-opacity: 1; white-space: pre; opacity: 1;" transform="translate(372.64,0) rotate(30,0,408.5)">1.6125310<tspan style="font-size:70%" dy="-0.6em">18</tspan><tspan dy="0.42em"></tspan></text></g><g class="xtick"><text text-anchor="start" x="0" y="416" style="font-family: 'Times New Roman'; font-size: 15px; fill: rgb(13, 13, 13); fill-opacity: 1; white-space: pre; opacity: 1;" transform="translate(448.27,0) rotate(30,0,408.5)">1.61253510<tspan style="font-size:70%" dy="-0.6em">18</tspan><tspan dy="0.42em"></tspan></text></g><g class="xtick"><text text-anchor="start" x="0" y="416" style="font-family: 'Times New Roman'; font-size: 15px; fill: rgb(13, 13, 13); fill-opacity: 1; white-space: pre; opacity: 1;" transform="translate(523.9100000000001,0) rotate(30,0,408.5)">1.6125410<tspan style="font-size:70%" dy="-0.6em">18</tspan><tspan dy="0.42em"></tspan></text></g></g><g class="yaxislayer-above"><g class="ytick"><text text-anchor="end" x="154" y="12.25" transform="translate(0,385.07)" style="font-family: 'Times New Roman'; font-size: 35px; fill: rgb(13, 13, 13); fill-opacity: 1; white-space: pre; opacity: 1;">0.02</text></g><g class="ytick"><text text-anchor="end" x="154" y="12.25" style="font-family: 'Times New Roman'; font-size: 35px; fill: rgb(13, 13, 13); fill-opacity: 1; white-space: pre; opacity: 1;" transform="translate(0,347.55)">0.015</text></g><g class="ytick"><text text-anchor="end" x="154" y="12.25" style="font-family: 'Times New Roman'; font-size: 35px; fill: rgb(13, 13, 13); fill-opacity: 1; white-space: pre; opacity: 1;" transform="translate(0,310.03)">0.01</text></g><g class="ytick"><text text-anchor="end" x="154" y="12.25" style="font-family: 'Times New Roman'; font-size: 35px; fill: rgb(13, 13, 13); fill-opacity: 1; white-space: pre; opacity: 1;" transform="translate(0,272.52)">0.005</text></g><g class="ytick"><text text-anchor="end" x="154" y="12.25" style="font-family: 'Times New Roman'; font-size: 35px; fill: rgb(13, 13, 13); fill-opacity: 1; white-space: pre; opacity: 1;" transform="translate(0,235)">0</text></g><g class="ytick"><text text-anchor="end" x="154" y="12.25" style="font-family: 'Times New Roman'; font-size: 35px; fill: rgb(13, 13, 13); fill-opacity: 1; white-space: pre; opacity: 1;" transform="translate(0,197.48000000000002)">0.005</text></g><g class="ytick"><text text-anchor="end" x="154" y="12.25" style="font-family: 'Times New Roman'; font-size: 35px; fill: rgb(13, 13, 13); fill-opacity: 1; white-space: pre; opacity: 1;" transform="translate(0,159.97)">0.01</text></g><g class="ytick"><text text-anchor="end" x="154" y="12.25" style="font-family: 'Times New Roman'; font-size: 35px; fill: rgb(13, 13, 13); fill-opacity: 1; white-space: pre; opacity: 1;" transform="translate(0,122.45)">0.015</text></g></g><g class="overaxes-above"/></g></g><g class="polarlayer"/><g class="smithlayer"/><g class="ternarylayer"/><g class="geolayer"/><g class="funnelarealayer"/><g class="pielayer"/><g class="iciclelayer"/><g class="treemaplayer"/><g class="sunburstlayer"/><g class="glimages"/><defs id="topdefs-c64b22"><g class="clips"/><clipPath id="legendc64b22"><rect width="144" height="67" x="0" y="0"/></clipPath></defs><g class="layer-above"><g class="imagelayer"/><g class="shapelayer"/></g><g class="infolayer"><g class="legend" pointer-events="all" transform="translate(543.62,100)"><rect class="bg" shape-rendering="crispEdges" style="stroke: rgb(68, 68, 68); stroke-opacity: 1; fill: rgb(255, 255, 255); fill-opacity: 1; stroke-width: 0px;" width="144" height="67" x="0" y="0"/><g class="scrollbox" transform="" clip-path="url(#legendc64b22)"><g class="groups"><g class="traces" transform="translate(0,14.5)" style="opacity: 1;"><text class="legendtext" text-anchor="start" x="40" y="4.680000000000001" style="font-family: 'Open Sans', verdana, arial, sans-serif; font-size: 12px; fill: rgb(42, 63, 95); fill-opacity: 1; white-space: pre;">Realized (in %)</text><g class="layers" style="opacity: 1;"><g class="legendfill"/><g class="legendlines"><path class="js-line" d="M5,0h30" style="fill: none; stroke: rgb(99, 110, 250); stroke-opacity: 1; stroke-width: 2px;"/></g><g class="legendsymbols"><g class="legendpoints"/></g></g><rect class="legendtoggle" x="0" y="-9.5" width="138.71875" height="19" style="fill: rgb(0, 0, 0); fill-opacity: 0;"/></g><g class="traces" transform="translate(0,33.5)" style="opacity: 1;"><text class="legendtext" text-anchor="start" x="40" y="4.680000000000001" style="font-family: 'Open Sans', verdana, arial, sans-serif; font-size: 12px; fill: rgb(42, 63, 95); fill-opacity: 1; white-space: pre;">Effective (in %)</text><g class="layers" style="opacity: 1;"><g class="legendfill"/><g class="legendlines"><path class="js-line" d="M5,0h30" style="fill: none; stroke: rgb(239, 85, 59); stroke-opacity: 1; stroke-width: 2px;"/></g><g class="legendsymbols"><g class="legendpoints"/></g></g><rect class="legendtoggle" x="0" y="-9.5" width="138.71875" height="19" style="fill: rgb(0, 0, 0); fill-opacity: 0;"/></g><g class="traces" transform="translate(0,52.5)" style="opacity: 1;"><text class="legendtext" text-anchor="start" x="40" y="4.680000000000001" style="font-family: 'Open Sans', verdana, arial, sans-serif; font-size: 12px; fill: rgb(42, 63, 95); fill-opacity: 1; white-space: pre;">Half Quoted (in %)</text><g class="layers" style="opacity: 1;"><g class="legendfill"/><g class="legendlines"><path class="js-line" d="M5,0h30" style="fill: none; stroke: rgb(0, 204, 150); stroke-opacity: 1; stroke-width: 2px;"/></g><g class="legendsymbols"><g class="legendpoints"/></g></g><rect class="legendtoggle" x="0" y="-9.5" width="138.71875" height="19" style="fill: rgb(0, 0, 0); fill-opacity: 0;"/></g></g></g><rect class="scrollbar" rx="20" ry="3" width="0" height="0" style="fill: rgb(128, 139, 164); fill-opacity: 1;" x="0" y="0"/></g><g class="g-gtitle"/><g class="g-xtitle"><text class="xtitle" x="345.5" y="487.503125" text-anchor="middle" style="font-family: 'Open Sans', verdana, arial, sans-serif; font-size: 14px; fill: rgb(42, 63, 95); opacity: 1; font-weight: normal; white-space: pre;">Time Steps (ns)</text></g><g class="g-ytitle" transform="translate(23.5,0)"><text class="ytitle" transform="rotate(-90,12.5,250)" x="12.5" y="250" text-anchor="middle" style="font-family: 'Times New Roman'; font-size: 40px; fill: rgb(13, 13, 13); opacity: 1; font-weight: normal; white-space: pre;">Spreads (in %)</text></g></g></svg>