<svg class="main-svg" xmlns="http://www.w3.org/2000/svg" xmlns:xlink="http://www.w3.org/1999/xlink" width="700" height="500" style="" viewBox="0 0 700 500"><rect x="0" y="0" width="700" height="500" style="fill: rgb(255, 255, 255); fill-opacity: 1;"/><defs id="defs-2d76e5"><g class="clips"><clipPath id="clip2d76e5xyplot" class="plotclip"><rect width="511" height="320"/></clipPath><clipPath class="axesclip" id="clip2d76e5x"><rect x="109" y="0" width="511" height="500"/></clipPath><clipPath class="axesclip" id="clip2d76e5y"><rect x="0" y="100" width="700" height="320"/></clipPath><clipPath class="axesclip" id="clip2d76e5xy"><rect x="109" y="100" width="511" height="320"/></clipPath></g><g class="gradients"/><g class="patterns"/></defs><g class="bglayer"><rect class="bg" x="109" y="100" width="511" height="320" style="fill: rgb(229, 236, 246); fill-opacity: 1; stroke-width: 0;"/></g><g class="layer-below"><g class="imagelayer"/><g class="shapelayer"/></g><g class="cartesianlayer"><g class="subplot xy"><g class="layer-subplot"><g class="shapelayer"/><g class="imagelayer"/></g><g class="minor-gridlayer"><g class="x"/><g class="y"/></g><g class="gridlayer"><g class="x"><path class="xgrid crisp" transform="translate(198.01,0)" d="M0,100v320" style="stroke: rgb(255, 255, 255); stroke-opacity: 1; stroke-width: 1px;"/><path class="xgrid crisp" transform="translate(299.45,0)" d="M0,100v320" style="stroke: rgb(255, 255, 255); stroke-opacity: 1; stroke-width: 1px;"/><path class="xgrid crisp" transform="translate(400.89,0)" d="M0,100v320" style="stroke: rgb(255, 255, 255); stroke-opacity: 1; stroke-width: 1px;"/><path class="xgrid crisp" transform="translate(502.34,0)" d="M0,100v320" style="stroke: rgb(255, 255, 255); stroke-opacity: 1; stroke-width: 1px;"/><path class="xgrid crisp" transform="translate(603.78,0)" d="M0,100v320" style="stroke: rgb(255, 255, 255); stroke-opacity: 1; stroke-width: 1px;"/></g><g class="y"><path class="ygrid crisp" transform="translate(0,346.93)" d="M109,0h511" style="stroke: rgb(255, 255, 255); stroke-opacity: 1; stroke-width: 1px;"/><path class="ygrid crisp" transform="translate(0,289.19)" d="M109,0h511" style="stroke: rgb(255, 255, 255); stroke-opacity: 1; stroke-width: 1px;"/><path class="ygrid crisp" transform="translate(0,231.46)" d="M109,0h511" style="stroke: rgb(255, 255, 255); stroke-opacity: 1; stroke-width: 1px;"/><path class="ygrid crisp" transform="translate(0,173.73000000000002)" d="M109,0h511" style="stroke: rgb(255, 255, 255); stroke-opacity: 1; stroke-width: 1px;"/><path class="ygrid crisp" transform="translate(0,116)" d="M109,0h511" style="stroke: rgb(255, 255, 255); stroke-opacity: 1; stroke-width: 1px;"/></g></g><g class="zerolinelayer"><path class="yzl zl crisp" transform="translate(0,404.66)" d="M109,0h511" style="stroke: rgb(255, 255, 255); stroke-opacity: 1; stroke-width: 2px;"/></g><path class="xlines-below"/><path class="ylines-below"/><g class="overlines-below"/><g class="xaxislayer-below"/><g class="yaxislayer-below"/><g class="overaxes-below"/><g class="plot" transform="translate(109,100)" clip-path="url(#clip2d76e5xyplot)"><g class="scatterlayer mlayer"><g class="trace scatter tracee303ac" style="stroke-miterlimit: 2; opacity: 1;"><g class="fills"/><g class="errorbars"/><g class="lines"><path class="js-line" d="M0,16L1.08,16L1.08,154.56L1.43,299.61L1.79,16L1.79,148.78L1.8,298.88L2.44,16L2.54,27.55L2.59,293.11L3.21,301.77L3.32,16L3.41,252.7L3.44,16L3.51,280.04L4.04,16L4.19,293.11L4.29,16L4.64,296L4.9,257.03L5.01,16L5.27,293.11L5.71,16L5.85,16L6.6,298.88L6.64,16L6.7,299.16L7.39,16L7.46,16L7.97,281.56L8.1,57.24L8.25,16L8.78,301.77L8.96,16L9.03,216.8L9.03,16L9.19,246.93L9.78,183.42L9.82,16L10.37,269.3L10.53,171.87L10.57,16L10.63,24.66L10.63,296L10.93,301.77L11.16,16L11.29,39.09L11.29,281.56L12.08,16L12.12,16L12.5,301.77L12.86,16L12.91,16L12.95,294.55L13.54,275.79L13.58,91.05L13.64,275.79L13.64,16L14.17,271.35L14.43,16L14.75,290.22L15.13,241.15L15.24,16L15.51,293.11L15.99,16L16,171.87L16.05,16L16.71,301.77L16.75,264.24L16.76,56.41L16.84,301.77L16.86,16L17.41,16L17.52,16L17.75,16L17.75,16L17.78,56.41L17.86,16L17.9,283.54L18.48,278.68L18.58,16L18.62,298.88L19.26,56.41L19.39,16L20.13,302.49L20.18,24.66L20.18,296L20.36,16L20.92,119.92L20.98,16L21.41,281.56L21.73,253.42L21.78,16L21.91,284.45L22.52,131.46L22.56,108.37L22.66,16L23.26,290.22L23.26,16L23.34,16L23.51,298.88L24.08,215.17L24.22,105.48L24.22,16L24.71,283.73L24.87,145.9L25,174.76L25.02,16L25.67,290.22L25.71,166.1L25.76,154.56L25.89,16L26.16,275.79L26.17,16L26.45,298.88L26.87,16L27.02,298.88L27.11,16L27.75,21.77L27.78,21.77L27.78,298.88L27.79,16L28.53,16L28.57,41.98L28.63,16L28.8,278.68L28.8,16L29.14,300.33L29.53,140.12L29.56,140.12L29.62,16L29.73,289.5L30.31,189.19L30.32,254.14L30.32,16L30.76,284.45L31.07,56.41L31.09,264.97L31.12,16L31.16,267.13L31.81,16L31.89,16L32.18,278.68L32.66,249.81L32.71,16L33.36,281.56L33.4,16L33.47,16L33.87,293.11L34.19,284.45L34.23,96.82L34.24,16L34.83,301.77L34.83,16L35.03,16L35.21,301.77L35.73,180.37L35.9,148.78L36,16L36.3,298.88L36.65,16L36.67,16L36.88,254.14L37.41,183.42L37.43,79.5L37.56,275.07L38.09,16L38.11,284.45L38.88,16L38.88,16L38.93,41.98L38.93,16L39.12,290.22L39.67,91.05L39.69,16L39.71,274.27L40.41,264.24L40.41,56.41L40.71,16L41.02,290.22L41.15,16L41.29,180.53L41.29,16L41.53,301.77L42.02,180.53L42.15,140.12L42.22,16L42.86,298.88L42.9,194.97L42.92,180.53L43.07,16L43.65,301.77L43.66,18.89L43.68,301.77L43.72,16L44.4,16L44.45,16L44.99,301.77L45.18,21.77L45.21,16L45.26,21.77L45.26,301.77L45.3,16L46.01,16L46.03,16L46.51,287.34L46.82,171.87L46.82,16L46.92,33.32L46.92,302.92L47.65,16L47.67,259.91L47.71,99.71L47.74,16L48.05,296L48.45,16L48.48,222.39L48.56,300.53L49.26,16L49.26,16L49.32,16L49.93,301.77L50.08,177.77L50.13,16L50.94,284.45L50.98,16L50.99,293.11L51.72,16L51.8,174.17L51.86,16L52.24,302.49L52.54,44.87L52.57,44.87L52.61,16L53.04,293.11L53.25,163.21L53.38,16L53.5,272.9L53.51,235.38L53.51,16L54.07,296L54.21,16L54.35,16L54.99,297.44L55.04,16L55.14,16L55.86,301.77L55.89,16L55.92,16L56.66,303.21L56.73,30.43L56.73,290.22L56.85,16L57.46,268.81L57.5,249.81L57.65,16L58.02,297.44L58.19,16L58.3,16L58.98,298.88L59.02,98.47L59.1,30.43L59.21,290.22L59.32,16L59.91,206.51L59.93,114.14L59.93,16L59.96,287.34L60.66,186.31L60.69,16L61.07,275.79L61.37,111.26L61.45,16L61.9,303.21L62.09,16L62.18,16L62.31,303.94L62.93,290.22L62.99,16L63.07,192.08L63.07,128.58L63.1,16L63.53,301.05L63.74,16L63.91,16L64.61,298.16L64.66,33.32L64.83,16L64.97,287.34L65.57,16L65.58,16L66.27,290.91L66.36,85.28L66.43,137.24L66.5,16L66.66,275.79L67.16,16L67.23,70.84L67.24,16L67.27,290.91L67.97,137.24L68.04,16L68.07,299.21L68.68,16L68.82,16L68.9,30.43L68.9,290.91L69.55,16L69.64,255.59L69.67,212.29L69.8,16L70.41,290.22L70.41,73.73L70.43,281.43L70.98,296L71.01,16L71.11,229.61L71.2,247.65L71.26,16L71.26,76.62L71.32,290.22L71.34,296L71.44,16L72.05,16L72.08,16L72.35,303.21L72.82,16L72.84,16L73.34,281.56L73.55,141.34L73.56,16L73.84,284.45L74.32,226.72L74.34,252.7L74.5,301.77L74.86,16L75.1,24.66L75.1,296L75.21,16L75.83,16L75.9,16L76.06,296L76.65,16L76.67,102.6L77.17,296L77.33,16L77.35,203.63L77.38,275.79L77.57,16L78.03,301.77L78.11,296L78.14,235.38L78.14,16L78.14,296L78.89,16L78.9,182.78L78.9,246.93L78.9,16L79.62,177.65L79.67,143.01L79.67,16L80.05,285.89L80.42,16L80.47,16L80.59,49.08L80.61,16L80.65,261.36L81.33,301.77L81.33,16L81.4,18.89L81.42,301.77L81.86,302.73L82.15,16L82.2,301.77L82.22,16L82.95,16L82.96,233.94L82.96,16L83.52,299.85L83.65,16L83.73,278.68L83.73,16L84.04,296L84.43,16L84.49,16L84.74,283.93L85.18,16L85.25,16L85.27,296L85.99,255.59L86.05,78.91L86.46,278.68L86.69,16L86.76,41.98L86.8,278.68L87.53,16L87.57,129.94L87.58,238.27L87.64,16L87.86,294.55L88.31,281.56L88.38,160.33L88.44,16L88.79,298.16L89.04,178.62L89.09,16L89.2,301.77L89.74,94.72L89.85,16L90.44,301.77L90.51,16L90.53,16L90.81,301.77L91.26,261.36L91.28,59.3L91.38,298.88L91.41,16L92.02,16L92.05,206.51L92.1,16L92.31,274.35L92.7,16L92.86,93.94L92.89,16L93.13,275.79L93.6,252.7L93.62,67.96L93.96,265.69L94.32,16L94.33,290.22L94.95,16L94.99,218.06L95.2,249.81L95.24,16L95.71,301.8L95.93,16L95.99,16L96.55,275.79L96.74,50.3L96.78,47.75L96.91,16L97.27,303.21L97.48,272.9L97.56,91.6L97.59,16L98.22,284.45L98.24,235.38L98.39,131.46L98.5,284.45L99.05,16L99.05,285.17L99.61,298.88L99.69,16L99.7,258.47L99.86,116.4L99.96,16L100.05,301.77L100.6,88.16L100.65,192.08L100.65,16L100.73,296L101.37,16L101.44,16L101.68,291.38L102.16,93.94L102.27,16L102.98,278.68L102.98,16L103,16L103.24,259.95L103.54,16L103.6,16L103.68,288.06L104.32,73.73L104.4,131.46L104.61,295.11L104.96,16L104.98,140.12L105.07,281.56L105.07,16L105.26,294.55L105.82,16L105.84,16L106.44,294.55L106.58,111.26L106.6,56.41L106.67,16L107.22,296L107.37,203.63L107.37,124.25L107.4,123.48L107.42,186.31L107.9,300.33L108.2,16L108.21,222.39L108.41,16L108.46,303.69L108.93,124.25L108.99,44.87L109.01,16L109.59,280.12L109.74,16L109.76,114.14L109.81,16L110.25,298.88L110.49,125.69L110.54,16L111.25,300.53L111.26,16L111.3,180.53L111.35,16L112.02,301.77L112.08,168.99L112.34,271.46L112.68,16L112.7,244.76L112.76,16L112.78,286.76L113.42,16L113.46,301.77L114.03,16L114.21,200.74L114.24,119.92L114.26,16L114.57,285.89L114.98,218.06L115.04,102.6L115.09,16L115.48,290.22L115.78,203.63L115.8,33.32L115.88,258.47L116.38,16L116.49,194.97L116.57,293.11L117.24,16L117.29,223.83L117.35,16L117.87,277.6L118.03,267.13L118.05,53.53L118.08,16L118.42,301.77L118.75,16L118.8,16L119.35,296L119.53,16L119.58,264.24L119.59,16L119.64,265.69L120.3,82.39L120.37,238.27L120.85,285.89L121.14,16L121.14,16L121.16,197.85L121.23,16L121.66,278.68L121.83,252.7L121.93,96.82L122.01,16L122.17,290.22L122.64,16L122.7,267.13L122.85,303.69L123.45,16L123.46,39.09L123.5,16L123.55,301.77L124.2,16L124.36,16L124.72,301.77L125.1,206.32L125.17,16L125.76,280.12L125.92,261.36L125.96,59.3L126.04,301.77L126.19,16L126.7,16L126.71,16L127.42,287.8L127.5,238.27L127.5,67.96L127.56,16L127.79,270.02L127.97,252.7L128.04,16L128.29,293.11L128.77,16L128.85,16L129,56.41L129.03,16L129.06,261.36L129.12,16L129.62,262.8L129.76,119.92L129.82,220.95L129.98,16L130.54,287.34L130.57,145.9L130.59,16L131.34,298.88L131.38,168.99L131.93,278.68L132.06,16L132.09,278.68L132.11,16L132.55,290.22L132.79,16L132.94,16L133.02,287.34L133.68,16L133.71,203.63L133.72,16L134.08,294.55L134.46,140.12L134.52,238.27L134.92,264.24L135.11,16L135.2,44.87L135.2,275.79L135.85,301.77L135.99,16L136,18.89L136.01,301.77L136.64,16L136.74,287.34L136.84,148.78L136.93,287.34L137.02,16L137.56,145.9L137.61,16L137.75,287.34L138.36,16L138.4,16L139.08,303.94L139.12,157.44L139.19,16L139.38,298.88L139.9,261.36L140.02,16L140.45,297.44L140.78,241.15L140.88,16L141.08,272.9L141.6,267.13L141.64,177.65L141.75,16L141.75,272.9L142.39,171.87L142.42,171.87L142.45,16L142.52,298.88L143.15,244.04L143.19,296L143.57,301.77L143.88,16L143.88,16L143.97,254.86L144.04,16L144.26,301.77L144.72,145.9L144.75,16L144.9,281.56L145.42,16L145.46,16L145.55,301.05L146.21,16L146.23,16L147.01,296L147.02,275.79L147.34,284.45L147.71,16L147.78,47.75L147.78,276.05L148.09,287.34L148.5,16L148.5,16L148.66,16L148.73,290.91L149.4,114.14L149.49,203.63L149.55,16L149.78,297.44L150.21,255.59L150.28,131.46L150.31,16L150.77,264.24L151.03,23.31L151.05,16L151.68,290.22L151.81,255.59L151.86,16L152.13,298.88L152.61,183.42L152.62,16L153.21,298.88L153.37,247.5L153.42,301.77L153.42,16L153.93,301.8L154.17,16L154.19,301.77L154.35,16L154.91,16L154.96,235.38L154.98,16L155.57,285.17L155.7,108.78L155.74,16L156.39,296L156.47,24.66L156.52,24.66L156.63,16L157.21,301.77L157.27,16L157.31,249.81L157.78,301.77L158.09,16L158.09,53.53L158.14,16L158.28,301.77L158.89,212.29L158.92,16L159.24,16L159.24,93.94L159.31,16L159.35,301.22L159.94,16L160,16L160.18,298.88L160.69,119.92L160.74,16L161.24,298.88L161.4,16L161.46,16L161.64,16L161.7,200.02L161.74,16L162.4,298.88L162.43,16L162.49,16L162.57,21.77L162.57,16L162.58,298.88L162.58,16L163.3,16L163.38,249.81L163.57,293.11L164.16,16L164.16,16L164.16,292.29L164.88,16L164.91,138.58L164.94,128.58L164.97,16L165.29,298.88L165.69,16L165.72,296.72L165.72,16L166.26,303.21L166.43,16L166.5,254.62L166.53,16L166.68,301.77L167.24,47.75L167.26,16L167.76,288.72L167.96,16L168,16L168.36,290.22L168.76,264.24L168.77,56.41L168.8,264.24L168.86,16L169.48,16L169.53,16L169.53,287.34L170.27,255.59L170.31,16L171,301.77L171.07,91.3L171.1,267.13L171.1,16L171.5,281.56L171.8,16L171.86,79.5L172.03,246.93L172.52,16L172.54,241.15L173.11,295.28L173.17,16L173.17,297.06L173.84,301.77L173.97,16L173.98,179.35L174.61,301.77L174.72,16L174.73,50.64L174.8,117.03L174.9,16L175.03,293.11L175.55,16L175.58,53.53L175.61,16L175.72,275.79L176.29,16L176.36,67.96L176.36,16L176.62,270.02L177.11,16L177.17,16L177.5,284.45L177.92,16L177.94,16L178.23,301.77L178.58,16L178.6,16L178.63,280.6L179.32,78.78L179.37,16L179.48,264.24L179.61,50.64L179.61,16L179.79,287.34L180.35,270.02L180.35,50.64L180.42,16L181.08,299.61L181.16,284.45L181.16,16L181.86,290.22L181.89,76.62L181.93,16L182.55,298.88L182.56,295.64L182.66,16L182.96,295.28L183.39,16L183.44,16L183.47,24.66L183.47,296.25L183.48,296L183.49,20.33L183.51,16L183.53,277.23L183.64,24.66L183.64,302.49L184.16,16L184.38,73.73L184.48,36.21L184.49,16L184.58,294.55L185.23,53.53L185.24,16L185.86,290.22L186,180.53L186.03,246.93L186.26,16L186.54,287.34L186.76,117.03L186.83,157.44L186.92,16L187.17,249.81L187.53,16L187.6,16L187.88,283.01L188.33,16L188.36,16L189.11,290.22L189.12,125.69L189.13,194.97L189.26,290.22L189.84,16L189.88,121.27L189.88,215.17L189.93,16L190.37,301.77L190.62,76.62L190.65,16L190.82,293.11L191.37,137.24L191.41,183.42L191.43,16L191.64,278.68L192.14,16L192.17,16L192.29,301.77L192.95,272.9L192.95,47.75L192.97,272.9L193.2,16L193.69,85.28L193.72,235.38L194,288.97L194.37,16L194.46,82.39L194.57,16L195.38,279L195.41,16L195.91,296L196.17,168.99L196.23,24.66L196.23,296L196.28,16L196.96,16L197.02,236.82L197.13,16L197.28,284.45L197.72,149.69L197.78,16L198.46,293.11L198.55,62.19L198.57,16L199.01,298.31L199.32,16L199.37,16L199.53,300.68L200.12,16L200.16,174.76L200.16,16L200.4,298.88L200.91,189.19L200.96,189.19L201.08,16L201.08,285.17L201.7,145.9L201.73,16L202.11,298.88L202.48,70.84L202.55,249.81L202.75,284.45L203.26,16L203.34,160.33L203.93,290.22L204.08,16L204.09,117.03L204.11,16L204.85,287.34L204.86,16L204.91,16L204.93,296L205.66,244.04L205.72,16L205.73,267.13L206.43,16L206.47,16L206.68,301.77L207.16,16L207.22,16L207.9,280.12L207.93,16L207.97,16L208.34,287.34L208.72,16L208.73,145.9L208.74,16L208.8,287.34L209.42,16L209.44,16L209.8,271.94L210.18,16L210.21,16L210.72,283.01L210.95,171.87L211.02,16L211.09,295.28L211.75,16L211.8,96.82L212,16L212.41,283.01L212.54,96.82L212.55,16L212.74,303.21L213.21,111.26L213.23,16L213.53,275.79L213.87,105.48L214,16L214.72,298.88L214.76,240.51L214.86,62.19L215,16L215.34,301.77L215.62,284.45L215.64,36.21L215.67,294.55L216.19,16L216.19,229.61L216.32,260.64L216.39,16L216.93,301.77L217.06,174.76L217.08,18.89L217.08,301.77L217.14,16L217.82,16L217.85,65.07L217.85,16L218.51,293.55L218.56,16L218.63,220.95L218.63,16L218.81,298.88L219.32,16L219.45,179.28L219.83,277.23L220.07,16L220.1,243.29L220.17,270.02L220.8,301.77L220.96,16L221.03,288.06L221.03,16L221.68,298.88L221.72,117.03L221.81,204.59L221.81,16L222.51,287.34L222.55,219.76L222.61,16L222.69,281.56L223.38,231.05L223.38,130.04L223.38,16L223.84,283.73L224.12,62.19L224.21,232.49L224.33,16L224.71,281.25L224.96,16L224.98,262.08L225.01,16L225.39,303.21L225.65,41.98L225.75,70.84L225.75,16L225.9,284.45L226.47,275.79L226.55,16L226.75,293.11L227.3,16L227.34,280.12L227.37,16L227.7,293.11L228,206.51L228.13,206.51L228.77,296L228.82,16L228.83,103.85L228.83,284.45L228.92,298.88L228.97,16L228.97,293.11L229,293.11L229.04,16L229.61,301.77L229.75,16L229.81,16L230.31,298.88L230.55,157.26L230.69,166.1L230.69,16L231.19,297.78L231.42,218.75L231.45,88.16L231.69,301.77L231.71,16L232.18,16L232.25,16L232.5,290.22L233,173.69L233.02,157.44L233.12,16L233.51,283.01L233.71,91.05L233.81,91.05L233.85,16L234.24,296.25L234.56,16L234.58,16L235.08,296L235.33,16L235.34,16L235.36,283.73L236.09,238.27L236.15,247.53L236.21,16L236.48,287.34L236.79,16L236.92,16L236.96,298.88L237.69,278.68L237.69,67.96L237.7,16L237.77,298.88L238.44,16L238.45,67.96L238.56,296L239.13,16L239.13,296.72L239.23,16L239.87,16L239.91,16L240.28,295.03L240.61,16L240.64,16L241.31,301.77L241.34,16L241.41,43.49L241.41,298.88L241.53,16L242.16,62.19L242.27,16L242.31,293.11L243.01,86.49L243.15,203.63L243.23,278.68L243.88,16L243.9,268.57L243.96,16L244.29,294.55L244.64,125.69L244.69,16L245.35,300.33L245.41,16L245.42,302.49L246.16,16L246.17,297.44L246.18,16L246.28,303.21L246.84,246.93L246.94,73.73L247.11,291.73L247.52,16L247.65,134.35L247.71,16L248.46,290.22L248.47,30.43L248.48,16L248.53,290.22L249.2,16L249.25,16L249.37,295.52L249.95,16L250.08,39.09L250.1,301.77L250.58,16L250.72,76.62L250.72,244.04L251.11,278.68L251.26,16L251.26,16L251.3,298.88L251.3,16L252.03,16L252.06,258.47L252.09,16L252.47,288.78L252.8,16L252.83,270.02L253.51,293.11L253.54,16L253.55,41.98L253.6,293.11L253.64,16L254.27,16L254.36,16L254.37,301.77L255.11,16L255.12,47.75L255.23,16L255.82,290.22L255.86,223.15L255.91,85.28L256.01,16L256.19,290.22L256.65,154.56L256.67,287.34L256.73,16L257.4,298.88L257.43,27.55L257.44,296L257.62,16L258.17,16L258.21,16L258.22,277.23L258.95,122.8L258.96,79.5L259.07,16L259.56,292.75L259.67,197.85L259.72,122.8L259.89,16L260.37,290.22L260.42,16L260.52,134.35L260.58,16L260.82,297.44L261.16,275.79L261.18,112.22L261.44,278.68L261.46,16L261.93,276.51L261.94,16L262.29,301.77L262.52,249.81L262.52,16L262.62,301.77L263.14,16L263.35,16L263.53,298.88L264.1,267.13L264.12,53.53L264.17,16L264.18,298.88L264.86,276.51L264.89,16L265.33,298.88L265.41,16L265.45,16L265.67,303.21L266.19,267.13L266.21,16L266.86,298.88L266.95,16L267.1,16L267.42,298.88L267.79,85.28L267.87,235.38L267.88,16L267.88,275.79L267.88,16L268.14,282.45L268.57,16L268.64,131.46L268.69,16L268.81,288.78L269.37,16L269.4,16L269.86,298.88L270.15,293.11L270.19,16L270.33,303.94L270.88,16L270.95,16L271.17,298.88L271.23,168.35L271.3,16L271.42,298.88L272.01,122.8L272.06,197.85L272.21,16L272.48,272.9L272.77,16L272.82,140.12L272.82,16L273.12,267.85L273.53,70.84L273.58,16L273.99,298.88L274.32,16L274.36,56.41L274.36,294.55L274.37,16L275.09,174.76L275.14,299L275.14,16L275.73,301.77L275.8,16L275.92,249.81L276,16L276.67,290.22L276.67,145.9L276.69,16L277.26,298.88L277.45,192.08L277.45,16L277.45,301.77L278.18,212.29L278.34,16L278.64,301.77L279.09,16L279.1,16L279.33,301.77L279.33,33.32L279.34,16L279.98,288.78L280.04,41.98L280.04,16L280.09,301.45L280.74,237.21L280.81,154.56L280.86,16L281.18,297.44L281.56,16L281.57,16L282.1,274.35L282.26,53.53L282.33,16L282.96,293.11L283.1,265.69L283.21,65.07L283.4,16L283.62,301.77L283.89,298.88L283.99,29.12L284,301.77L284.03,16L284.72,102.6L284.76,16L285.13,301.77L285.49,70.84L285.52,249.81L285.61,16L285.77,300.33L286.22,85.28L286.3,16L286.66,280.96L286.98,189.19L287.09,246.93L287.09,16L287.59,285.89L287.84,16L287.85,261.36L287.85,16L287.98,300.91L288.59,16L288.63,26.69L288.72,241.15L288.72,16L288.77,293.11L288.88,300.96L288.9,16L289.52,82.39L289.53,287.34L289.54,16L290.26,16L290.29,16L290.56,267.13L291.07,226.72L291.11,16L291.11,278.68L291.78,16L291.87,173.86L291.93,16L292.23,301.05L292.32,290.22L292.36,16L292.38,23.22L292.38,297.44L292.51,301.77L293.19,16L293.19,290.22L293.73,298.88L294.03,16L294.13,131.46L294.17,16L294.4,293.11L294.84,226.72L294.89,16L295.07,296.64L295.63,62.19L295.65,16L296.14,294.22L296.34,16L296.45,16L296.65,301.77L297.18,174.76L297.18,16L297.36,301.77L297.93,16L297.98,258.47L298.34,301.77L298.71,16L298.73,212.29L298.82,16L298.91,285.2L299.57,284.45L299.6,16L299.6,301.77L300.33,106.21L300.36,192.08L300.7,290.22L301.1,16L301.12,293.11L301.12,16L301.3,299.61L301.86,241.15L301.89,267.13L301.9,16L302.58,296L302.58,24.66L302.67,16L303.12,299.61L303.42,96.82L303.44,96.82L303.79,303.94L304.12,16L304.18,33.32L304.18,287.34L304.34,298.88L304.64,16L304.87,70.84L304.97,70.84L305.04,16L305.19,287.34L305.7,99.71L305.75,16L306.2,275.79L306.38,100.04L306.41,16L306.9,301.77L307.16,16L307.19,293.11L307.4,16L307.91,16L308.01,16L308.23,302.49L308.76,16L308.78,166.1L308.82,16L309.4,275.79L309.53,47.75L309.54,192.08L309.63,16L309.9,296L310.27,296L310.31,96.82L310.36,16L310.41,296L311,97.58L311.13,119.92L311.18,212.29L311.88,16L311.88,192.8L311.93,16L312.57,287.34L312.62,16L312.65,59.3L312.71,16L312.93,293.11L313.25,16L313.43,151.67L313.5,16L313.62,296.75L314.16,16L314.19,65.07L314.19,16L314.66,298.88L314.93,16L314.95,16L315,300.71L315.69,47.75L315.73,16L316.31,301.77L316.43,67.96L316.5,59.3L316.5,261.36L316.63,16L317.25,76.62L317.26,76.62L317.36,16L317.55,270.02L318,209.4L318.03,111.26L318.03,16L318.4,301.77L318.78,137.24L318.79,111.26L318.81,16L318.9,298.88L319.53,257.03L319.55,298.88L320.32,16L320.33,293.11L320.33,16L320.7,299.39L321.07,16L321.1,33.32L321.1,300.33L321.13,16L321.85,16L321.86,16L322.48,294.35L322.49,21.77L322.65,21.77L322.8,16L322.87,301.77L323.4,91.05L323.45,229.61L323.45,291.67L323.53,16L324.2,16L324.24,203.63L324.38,16L324.91,291.67L324.91,157.07L325.02,275.79L325.1,16L325.62,298.31L325.75,16L325.78,246.93L325.86,16L326.04,282.45L326.12,22.49L326.21,16L326.72,278.68L326.95,157.44L327,16L327.21,301.77L327.71,281.56L327.79,39.09L328.24,285.17L328.52,16L328.6,232.49L328.6,16L329.26,293.22L329.35,16L329.37,163.21L329.41,16L330.03,301.8L330.05,131.46L330.22,189.19L330.23,301.77L330.3,16L330.96,16L330.99,16L330.99,301.8L331.66,255.59L331.75,300.53L331.78,301.77L332.52,16L332.54,229.61L332.54,16L332.88,298.88L333.23,249.81L333.38,16L333.7,298.88L334.07,70.84L334.19,16L334.37,36.21L334.37,284.45L334.37,16L334.6,300.33L335.11,137.24L335.15,16L335.24,30.43L335.28,16L335.31,290.22L335.31,16L335.72,301.14L336,16L336.07,171.87L336.41,16L336.41,247.65L336.41,16L336.85,283.01L337.11,76.62L337.18,76.62L337.18,284.45L337.18,16L337.93,79.5L337.94,16L338.26,279.19L338.71,257.11L338.74,56.41L338.93,16L339.14,298.88L339.46,125.69L339.5,192.08L339.52,16L339.77,267.13L340.25,180.53L340.28,16L340.41,301.77L341.02,16L341.15,129.3L341.18,16L341.88,288.06L341.89,16L341.93,59.3L342.04,16L342.51,283.01L342.68,16L342.73,16L342.88,301.77L343.48,16L343.52,16L343.71,288.78L344.26,16L344.35,16L344.63,287.34L345.1,76.62L345.16,76.62L345.27,16L345.54,288.06L345.89,223.83L345.94,109.98L346.08,16L346.43,298.88L346.69,59.3L346.74,16L346.93,301.77L346.97,18.89L347.01,16L347.55,267.13L347.81,154.56L347.82,16L348.23,298.88L348.56,16L348.59,16L348.6,301.48L349.33,160.33L349.33,16L349.66,275.79L350.06,21.77L350.09,16L350.09,298.88L350.81,16L350.86,122.8L350.87,16L351.03,301.77L351.57,16L351.62,288.26L351.62,16L351.79,293.11L352.36,27.55L352.4,16L353.07,301.77L353.15,16L353.16,16L353.32,282.53L353.91,111.26L353.93,16L354.16,291.67L354.59,85.28L354.63,16L355.01,303.94L355.33,299.11L355.39,16L355.48,18.89L355.48,301.77L356.25,16L356.3,47.75L356.37,16L356.4,298.88L357.02,16L357.08,108.37L357.2,16L357.73,287.82L357.83,272.9L357.85,16L357.97,296.72L358.55,16L358.61,262.8L358.61,16L359.1,264.24L359.35,16L359.38,16L359.74,301.77L360.13,228.25L360.16,259.91L360.25,290.22L360.82,16L360.84,128.58L360.95,192.08L361.03,16L361.53,293.26L361.63,76.62L361.74,16L361.8,296L362.48,238.27L362.52,270.02L362.54,281.56L363.23,16L363.26,212.29L363.29,16L363.92,293.11L364,16L364.05,50.99L364.28,289.5L364.58,16L364.58,186.31L364.6,278.68L364.64,16L364.97,303.21L365.33,16L365.39,267.13L365.43,16L365.81,293.11L366.13,125.13L366.17,252.7L366.68,294.55L366.88,16L366.93,56.41L366.99,16L367.67,296L367.67,76.62L367.72,16L368.12,296L368.33,287.34L368.42,16L368.88,300.33L369.17,90.23L369.2,16L369.32,271.45L369.35,16L369.69,299.61L369.84,62.19L369.9,62.19L369.92,16L370.18,284.45L370.64,220.95L370.67,16L370.86,16L370.89,79.5L370.9,16L371.31,292.39L371.64,16L371.65,265.21L371.69,16L371.69,293.11L372.39,16L372.46,281.56L372.46,16L372.72,284.45L373.07,16L373.23,287.34L373.23,16L373.98,252.7L373.99,58.58L374.03,16L374.29,290.22L374.74,16L374.8,16L375.46,302.49L375.51,21.77L375.6,298.88L375.75,16L376.34,229.61L376.42,214.23L376.72,266.41L377.16,16L377.16,249.81L377.26,134.35L377.26,16L377.38,301.77L378.01,16L378.05,16L378.11,296L378.74,183.42L378.81,16L379.08,298.88L379.47,160.33L379.57,16L379.94,288.78L380.26,184.38L380.33,16L380.78,270.02L380.86,50.64L380.92,16L381.62,298.88L381.65,47.75L381.74,39.09L381.74,16L382.04,296L382.49,16L382.5,225.28L382.5,16L383.17,301.05L383.19,30.43L383.26,16L383.26,298.88L383.98,295.28L384.04,65.07L384.08,16L384.56,296L384.79,166.1L384.85,30.43L384.85,16L384.86,290.22L385.59,238.27L385.62,82.39L385.62,16L386.23,283.49L386.37,246.93L386.44,73.73L386.47,16L386.75,296L387.11,98.12L387.22,16L387.98,290.22L388,252.7L388.07,16L388.48,293.11L388.75,207.96L388.83,16L389.52,293.11L389.6,16L390.23,293.11L390.33,186.31L390.37,27.55L390.65,301.77L390.92,16L391.11,16L391.16,16L391.73,298.88L391.94,226.72L391.94,93.94L392.05,16L392.1,298.88L392.61,206.51L392.65,16L393.39,293.11L393.41,16L393.78,301.77L394.16,16L394.2,16L394.93,301.77L394.95,16L394.97,16L394.99,18.89L395,16L395.03,301.77L395.8,16L395.8,16L395.83,252.7L395.95,16L396.27,296.72L396.58,16L396.75,16L397.41,301.77L397.41,18.89L397.53,16L398.16,293.11L398.28,16L398.29,16L398.29,288.78L399.02,16L399.09,16L399.13,298.5L399.82,183.42L399.88,137.24L400.27,288.06L400.62,16L400.66,241.15L400.66,16L400.69,288.06L401.38,16L401.45,16L401.52,293.11L401.84,157.44L401.86,16L402.37,285.81L402.61,16L402.66,16L403.03,296L403.41,16L403.51,16L403.52,282.53L404.26,171.87L404.28,200.74L404.94,273.87L405,16L405.03,27.55L405.03,293.11L405.04,16L405.78,215.17L405.82,105.48L406.43,293.11L406.47,16L406.57,76.62L406.58,244.04L407.01,297.44L407.2,16L407.31,108.66L407.35,145.9L407.96,296L408.04,16L408.11,67.96L408.15,16L408.5,264.24L408.78,246.93L408.87,16L408.98,293.98L409.44,16L409.45,16L409.46,302.49L410.2,270.02L410.22,124.25L410.31,298.88L410.81,16L410.96,102.6L411.03,163.21L411.03,16L411.65,281.56L411.76,275.79L411.79,96.82L411.79,16L412.26,275.79L412.46,16L412.56,16L412.97,303.94L413.26,16L413.35,35.24L413.41,16L414.01,301.41L414.02,16L414.12,105.48L414.13,16L414.41,295.35L414.76,281.56L414.92,47.75L414.96,16L415.23,298.88L415.65,16L415.68,16L415.82,301.77L416.41,16L416.44,16L416.81,296L417.21,180.53L417.25,140.12L417.25,16L417.33,293.11L417.99,223.83L418.07,191.7L418.68,296L418.8,16L418.8,16L418.88,85.28L419.02,16L419.12,298.88L419.63,111.26L419.63,16L419.94,298.88L420.33,16L420.37,16L420.41,296L420.43,210.94L420.45,16L421.19,290.22L421.22,16L421.23,300.22L421.92,16L421.98,194.97L422.07,281.56L422.21,16L422.67,65.07L422.74,16L422.84,293.11L423.43,67.96L423.5,16L423.56,296L424.26,166.1L424.26,53.53L424.3,16L424.79,298.88L425,70.84L425.07,70.84L425.07,16L425.19,278.68L425.82,16L425.86,16L426.26,267.13L426.56,232.49L426.62,41.98L426.64,16L427.11,292.39L427.37,186.47L427.38,16L427.51,275.79L428.13,16L428.2,171.87L428.27,16L428.59,293.11L428.87,16L428.98,16L429.05,30.43L429.07,16L429.11,290.22L429.75,295.03L429.88,16L429.88,16L429.92,16L430.31,291.67L430.66,16L430.7,16L431.24,281.56L431.38,246.93L431.39,16L432.1,267.13L432.14,16L432.17,16L432.45,283.85L432.92,281.56L432.94,39.09L433,281.56L433.4,16L433.44,254.56L433.85,296L434.15,16L434.19,134.35L434.25,231.58L434.29,249.81L434.29,16L434.74,232.49L434.77,88.16L434.78,229.61L434.79,91.05L434.8,16L435.42,293.11L435.55,16L435.58,16L436.12,296L436.33,241.22L436.36,16L436.6,294.93L437.08,232.49L437.16,88.16L437.22,16L437.69,301.77L437.9,174.76L437.94,206.51L438.44,298.88L438.68,16L438.72,167.54L438.8,16L438.95,290.22L439.47,270.02L439.47,50.64L439.48,16L439.96,294.55L440.19,137.24L440.32,54.86L440.45,16L441.07,301.77L441.1,18.89L441.11,16L441.17,261.36L441.17,16L441.19,301.77L441.85,16L441.93,16L442.26,295.73L442.67,73.73L442.71,223.83L442.73,16L442.77,275.79L443.37,170.43L443.56,284.45L443.56,16L444.18,298.88L444.29,119.92L444.33,298.88L445.13,16L445.17,255.59L445.18,16L445.59,304L445.92,16L445.95,16L446.04,24.66L446.04,16L446.04,301.77L446.8,16L446.8,16L446.8,259.19L446.82,16L447.5,293.11L447.55,213.2L447.56,16L447.6,293.11L447.88,258.47L447.91,16L448.02,267.13L448.03,16L448.15,16L448.24,300.33L448.85,16L448.89,16L449.43,298.88L449.6,16L449.65,16L449.67,294.55L450.39,104.04L450.43,16L450.7,303.21L451.15,21.77L451.22,298.88L451.28,16L451.97,145.9L452.01,174.76L452.36,296L452.55,16L452.55,16L452.63,226.72L452.78,302.49L453.36,16L453.36,189.19L453.4,131.46L453.94,301.77L453.94,16L454.09,226.22L454.1,301.77L454.1,16L454.83,218.06L454.86,16L455.34,261.36L455.61,249.81L455.72,131.46L455.77,16L455.77,301.77L456.46,16L456.48,203.63L457.13,301.77L457.19,16L457.19,203.63L457.19,16L457.55,283.01L457.94,157.44L458,16L458.57,275.79L458.75,117.03L458.76,16L459.05,285.89L459.5,16L459.52,16L459.63,301.77L460.27,235.38L460.28,85.28L460.34,16L460.36,261.36L460.84,16L461.04,16L461.58,270.02L461.85,235.38L461.85,85.28L462.14,290.22L462.53,16L462.59,119.92L462.63,16L463.2,261.36L463.36,218.06L463.42,232.49L463.42,16L463.64,301.05L464.11,194.97L464.21,235.38L464.41,275.79L464.93,16L464.97,258.47L465.06,298.88L465.61,16L465.64,65.07L465.75,148.78L466.05,16L466.09,293.11L466.16,148.78L466.16,16L466.82,301.77L466.9,16L466.92,16L466.96,277.23L467.67,117.03L467.69,16L468.4,278.42L468.5,16L468.66,301.77L469.18,102.6L469.2,16L469.32,295.28L469.93,212.29L469.98,212.29L470.07,16L470.23,296L470.73,261.36L470.74,59.3L470.83,16L471.21,284.45L471.38,252.7L471.4,16L472.17,301.05L472.17,102.6L472.32,16L472.36,296.72L473.06,16L473.08,56.41L473.1,16L473.42,259.19L473.83,24.66L473.85,296L473.94,300.33L474.6,16L474.6,160.33L474.64,16L475,293.83L475.43,275.79L475.43,16L475.94,298.88L476.13,290.22L476.21,16L476.46,301.05L476.61,223.83L476.62,16L476.96,301.05L477.37,16L477.4,25.02L477.4,301.77L477.41,16L478.13,16L478.22,189.19L478.27,16L478.9,298.88L478.97,70.12L478.98,91.05L479.03,16L479.21,301.77L479.73,16L479.75,16L480.12,296L480.15,47.75L480.24,16L480.37,47.75L480.4,16L480.4,272.9L480.4,16L480.41,299.61L481.13,244.04L481.17,128.58L481.2,16L481.37,291.29L481.91,284.45L481.94,16L482.65,296L482.68,16L482.73,192.08L482.8,16L483.43,287.34L483.48,171.87L483.49,148.78L483.51,16L483.55,287.34L484.24,184.86L484.27,16L484.94,286.93L485.03,180.53L485.05,140.12L485.1,16L485.67,303.21L485.8,16L485.82,189.19L485.82,16L486.22,285.89L486.57,160.33L486.58,16L486.96,297.78L487.09,281.56L487.09,39.09L487.7,295.03L487.71,16L487.78,145.9L487.78,239.71L488.16,301.77L488.58,16L488.65,297.44L489.16,298.88L489.38,16L489.45,16L489.9,298.16L490.18,284.45L490.24,16L490.42,298.88L490.93,16L491.02,30.43L491.13,16L491.13,160.33L491.13,16L491.22,293.11L491.82,117.03L491.95,209.4L491.95,16L492.17,294.55L492.7,16L492.73,226.72L492.86,16L492.94,287.47L493.47,278.68L493.49,41.98L493.51,16L493.7,293.11L494.22,232.49L494.25,16L494.83,296L494.99,16L495.1,293.11L495.14,16L495.44,300.04L495.83,180.53L495.9,36.21L495.95,16L496.33,303.21L496.63,284.22L496.66,39.09L496.68,16L496.76,303.21L497.41,16L497.43,38.2L497.45,16L498.16,295.28L498.16,16L498.2,186.31L498.27,298.88L498.94,16L498.95,21.77L498.95,299L499.58,16L499.71,154.56L499.77,154.56L499.8,16L499.89,301.77L500.46,220.95L500.55,18.89L500.55,16L500.87,303.21L501.27,16L501.32,16L501.62,298.88L502.06,96.82L502.1,16L502.15,293.11L502.84,16L502.86,105.48L502.99,16L503.06,275.79L503.58,44.87L503.63,16L504.11,298.88L504.39,258.47L504.4,62.19L504.59,16L505.12,298.16L505.13,16L505.16,82.39L505.82,283.87L505.92,16L505.92,30.43L505.97,16L506.36,303.05L506.64,281.56L506.68,39.09L506.72,16L506.98,297.44L507.41,108.78L507.44,180.53L507.49,16L507.64,300.04L508.19,246.93L508.2,73.73L508.66,277.23L508.93,16L508.97,274.38L509.2,298.16L509.37,16L509.67,246.93L509.73,73.73L509.78,16L510,298.88L510.45,27.55L510.51,99.71L510.77,267.01L511,16L511,16" style="vector-effect: non-scaling-stroke; fill: none; stroke: rgb(99, 110, 250); stroke-opacity: 1; stroke-width: 2px; opacity: 1;"/></g><g class="points"/><g class="text"/></g></g></g><g class="overplot"/><path class="xlines-above crisp" d="M0,0" style="fill: none;"/><path class="ylines-above crisp" d="M0,0" style="fill: none;"/><g class="overlines-above"/><g class="xaxislayer-above"><g class="xtick"><text text-anchor="middle" x="0" y="436" transform="translate(198.01,0)" style="font-family: 'Times New Roman'; font-size: 15px; fill: rgb(13, 13, 13); fill-opacity: 1; white-space: pre; opacity: 1;">1.61252×10​<tspan style="font-size:70%" dy="-0.6em">18</tspan><tspan dy="0.42em">​</tspan></text></g><g class="xtick"><text text-anchor="middle" x="0" y="436" style="font-family: 'Times New Roman'; font-size: 15px; fill: rgb(13, 13, 13); fill-opacity: 1; white-space: pre; opacity: 1;" transform="translate(299.45,0)">1.612525×10​<tspan style="font-size:70%" dy="-0.6em">18</tspan><tspan dy="0.42em">​</tspan></text></g><g class="xtick"><text text-anchor="middle" x="0" y="436" style="font-family: 'Times New Roman'; font-size: 15px; fill: rgb(13, 13, 13); fill-opacity: 1; white-space: pre; opacity: 1;" transform="translate(400.89,0)">1.61253×10​<tspan style="font-size:70%" dy="-0.6em">18</tspan><tspan dy="0.42em">​</tspan></text></g><g class="xtick"><text text-anchor="middle" x="0" y="436" style="font-family: 'Times New Roman'; font-size: 15px; fill: rgb(13, 13, 13); fill-opacity: 1; white-space: pre; opacity: 1;" transform="translate(502.34,0)">1.612535×10​<tspan style="font-size:70%" dy="-0.6em">18</tspan><tspan dy="0.42em">​</tspan></text></g><g class="xtick"><text text-anchor="middle" x="0" y="436" style="font-family: 'Times New Roman'; font-size: 15px; fill: rgb(13, 13, 13); fill-opacity: 1; white-space: pre; opacity: 1;" transform="translate(603.78,0)">1.61254×10​<tspan style="font-size:70%" dy="-0.6em">18</tspan><tspan dy="0.42em">​</tspan></text></g></g><g class="yaxislayer-above"><g class="ytick"><text text-anchor="end" x="108" y="12.25" transform="translate(0,404.66)" style="font-family: 'Times New Roman'; font-size: 35px; fill: rgb(13, 13, 13); fill-opacity: 1; white-space: pre; opacity: 1;">0</text></g><g class="ytick"><text text-anchor="end" x="108" y="12.25" style="font-family: 'Times New Roman'; font-size: 35px; fill: rgb(13, 13, 13); fill-opacity: 1; white-space: pre; opacity: 1;" transform="translate(0,346.93)">20</text></g><g class="ytick"><text text-anchor="end" x="108" y="12.25" style="font-family: 'Times New Roman'; font-size: 35px; fill: rgb(13, 13, 13); fill-opacity: 1; white-space: pre; opacity: 1;" transform="translate(0,289.19)">40</text></g><g class="ytick"><text text-anchor="end" x="108" y="12.25" style="font-family: 'Times New Roman'; font-size: 35px; fill: rgb(13, 13, 13); fill-opacity: 1; white-space: pre; opacity: 1;" transform="translate(0,231.46)">60</text></g><g class="ytick"><text text-anchor="end" x="108" y="12.25" style="font-family: 'Times New Roman'; font-size: 35px; fill: rgb(13, 13, 13); fill-opacity: 1; white-space: pre; opacity: 1;" transform="translate(0,173.73000000000002)">80</text></g><g class="ytick"><text text-anchor="end" x="108" y="12.25" style="font-family: 'Times New Roman'; font-size: 35px; fill: rgb(13, 13, 13); fill-opacity: 1; white-space: pre; opacity: 1;" transform="translate(0,116)">100</text></g></g><g class="overaxes-above"/></g></g><g class="polarlayer"/><g class="smithlayer"/><g class="ternarylayer"/><g class="geolayer"/><g class="funnelarealayer"/><g class="pielayer"/><g class="iciclelayer"/><g class="treemaplayer"/><g class="sunburstlayer"/><g class="glimages"/><defs id="topdefs-2d76e5"><g class="clips"/></defs><g class="layer-above"><g class="imagelayer"/><g class="shapelayer"/></g><g class="infolayer"><g class="g-gtitle"/><g class="g-xtitle"><text class="xtitle" x="364.5" y="463.8" text-anchor="middle" style="font-family: 'Open Sans', verdana, arial, sans-serif; font-size: 14px; fill: rgb(42, 63, 95); opacity: 1; font-weight: normal; white-space: pre;">Time Steps (ns)</text></g><g class="g-ytitle" transform="translate(23.5,0)"><text class="ytitle" transform="rotate(-90,12.5,260)" x="12.5" y="260" text-anchor="middle" style="font-family: 'Times New Roman'; font-size: 40px; fill: rgb(13, 13, 13); opacity: 1; font-weight: normal; white-space: pre;">Fill rate (in %)</text></g></g></svg>