<svg class="main-svg" xmlns="http://www.w3.org/2000/svg" xmlns:xlink="http://www.w3.org/1999/xlink" width="700" height="500" style="" viewBox="0 0 700 500"><rect x="0" y="0" width="700" height="500" style="fill: rgb(255, 255, 255); fill-opacity: 1;"/><defs id="defs-c9cf33"><g class="clips"><clipPath id="clipc9cf33xyplot" class="plotclip"><rect width="489" height="320"/></clipPath><clipPath class="axesclip" id="clipc9cf33x"><rect x="131" y="0" width="489" height="500"/></clipPath><clipPath class="axesclip" id="clipc9cf33y"><rect x="0" y="100" width="700" height="320"/></clipPath><clipPath class="axesclip" id="clipc9cf33xy"><rect x="131" y="100" width="489" height="320"/></clipPath></g><g class="gradients"/><g class="patterns"/></defs><g class="bglayer"><rect class="bg" x="131" y="100" width="489" height="320" style="fill: rgb(229, 236, 246); fill-opacity: 1; stroke-width: 0;"/></g><g class="layer-below"><g class="imagelayer"/><g class="shapelayer"/></g><g class="cartesianlayer"><g class="subplot xy"><g class="layer-subplot"><g class="shapelayer"/><g class="imagelayer"/></g><g class="minor-gridlayer"><g class="x"/><g class="y"/></g><g class="gridlayer"><g class="x"><path class="xgrid crisp" transform="translate(216.35,0)" d="M0,100v320" style="stroke: rgb(255, 255, 255); stroke-opacity: 1; stroke-width: 1px;"/><path class="xgrid crisp" transform="translate(313.38,0)" d="M0,100v320" style="stroke: rgb(255, 255, 255); stroke-opacity: 1; stroke-width: 1px;"/><path class="xgrid crisp" transform="translate(410.42,0)" d="M0,100v320" style="stroke: rgb(255, 255, 255); stroke-opacity: 1; stroke-width: 1px;"/><path class="xgrid crisp" transform="translate(507.45,0)" d="M0,100v320" style="stroke: rgb(255, 255, 255); stroke-opacity: 1; stroke-width: 1px;"/><path class="xgrid crisp" transform="translate(604.49,0)" d="M0,100v320" style="stroke: rgb(255, 255, 255); stroke-opacity: 1; stroke-width: 1px;"/></g><g class="y"><path class="ygrid crisp" transform="translate(0,353.57)" d="M131,0h489" style="stroke: rgb(255, 255, 255); stroke-opacity: 1; stroke-width: 1px;"/><path class="ygrid crisp" transform="translate(0,303.13)" d="M131,0h489" style="stroke: rgb(255, 255, 255); stroke-opacity: 1; stroke-width: 1px;"/><path class="ygrid crisp" transform="translate(0,252.69)" d="M131,0h489" style="stroke: rgb(255, 255, 255); stroke-opacity: 1; stroke-width: 1px;"/><path class="ygrid crisp" transform="translate(0,202.25)" d="M131,0h489" style="stroke: rgb(255, 255, 255); stroke-opacity: 1; stroke-width: 1px;"/><path class="ygrid crisp" transform="translate(0,151.8)" d="M131,0h489" style="stroke: rgb(255, 255, 255); stroke-opacity: 1; stroke-width: 1px;"/><path class="ygrid crisp" transform="translate(0,101.36)" d="M131,0h489" style="stroke: rgb(255, 255, 255); stroke-opacity: 1; stroke-width: 1px;"/></g></g><g class="zerolinelayer"><path class="yzl zl crisp" transform="translate(0,404.01)" d="M131,0h489" style="stroke: rgb(255, 255, 255); stroke-opacity: 1; stroke-width: 2px;"/></g><path class="xlines-below"/><path class="ylines-below"/><g class="overlines-below"/><g class="xaxislayer-below"/><g class="yaxislayer-below"/><g class="overaxes-below"/><g class="plot" transform="translate(131,100)" clip-path="url(#clipc9cf33xyplot)"><g class="scatterlayer mlayer"><g class="trace scatter traceee1d64" style="stroke-miterlimit: 2; opacity: 1;"><g class="fills"/><g class="errorbars"/><g class="lines"><path class="js-line" d="M0,304L7.36,301.55L7.36,301.55L7.64,301.54L8.42,301.01L8.42,301.01L8.43,301.01L12.05,299.49L12.18,299.49L24.21,294.49L24.21,294.49L24.37,294.48L25.68,293.73L25.68,293.73L25.72,293.72L27.03,293.19L27.16,293.19L30.57,291.25L30.57,291.25L30.63,291.24L42.64,284.57L42.64,284.57L42.64,284.56L46.67,282.02L46.67,282.02L46.67,282.01L66.96,269.85L66.96,269.84L70.71,267.73L70.71,267.72L75.05,265.28L75.05,265.28L75.15,265.28L77.66,264.11L77.73,264.11L109.07,245.67L109.07,245.64L111.37,244.33L111.37,244.32L126.84,235.51L126.84,235.5L131.28,232.96L131.28,232.96L131.33,232.96L135.27,230.29L135.38,230.29L166.46,211.99L166.46,211.99L166.48,211.99L170.91,209.51L170.91,209.51L170.94,209.51L177.06,205.75L177.06,205.75L177.16,205.75L178.76,204.79L178.83,204.78L207.89,188.13L207.89,188.13L207.98,188.13L209.61,187.22L209.61,187.22L209.61,187.21L214.97,184.12L214.97,184.11L218.96,181.83L218.97,181.82L226.64,177.42L226.64,177.4L229.25,175.8L229.32,175.8L231.28,174.63L231.28,174.63L231.28,174.62L234.36,172.81L234.36,172.8L236.24,171.95L236.27,171.95L237.72,171.09L237.72,171.07L242.2,168.61L242.29,168.61L246.83,165.79L246.83,165.79L246.86,165.78L253.74,161.32L253.74,161.29L264.46,155.46L264.46,155.46L264.46,155.45L265.91,154.48L265.91,154.47L267.64,153.18L267.64,153.18L267.73,153.17L274.39,149.35L274.39,149.35L274.48,149.34L330.33,116.94L330.33,116.9L332.96,115.31L332.96,115.31L332.98,115.31L335.83,113.79L335.89,113.79L337.21,112.56L337.26,112.56L348.97,105.57L349.04,105.56L354.84,101.1L354.84,101.1L354.9,101.09L363.17,96.03L363.26,96.03L367.28,93.81L367.28,93.81L367.36,93.81L372.45,90.87L372.5,90.86L374.7,89.17L374.75,89.16L380.74,85.58L380.8,85.58L383.99,83.58L383.99,83.58L384,83.57L404.41,70.44L404.45,70.44L405.46,69.91L405.58,69.91L409.34,67.67L409.35,67.66L420.78,60.03L420.93,60.02L437.66,49.5L437.66,49.5L437.73,49.5L438.73,48.99L438.73,48.99L438.88,48.99L449.41,41.86L449.41,41.85L452.52,39.53L452.56,39.53L463.55,32.48L463.55,32.47L465.98,30.71L465.98,30.7L470.03,27.97L470.03,27.96L474.31,25.3L474.34,25.3L482.09,19.92L482.09,19.91L489,16" style="vector-effect: non-scaling-stroke; fill: none; stroke: rgb(173, 0, 0); stroke-opacity: 1; stroke-width: 2px; opacity: 1;"/></g><g class="points"/><g class="text"/></g></g></g><g class="overplot"/><path class="xlines-above crisp" d="M0,0" style="fill: none;"/><path class="ylines-above crisp" d="M0,0" style="fill: none;"/><g class="overlines-above"/><g class="xaxislayer-above"><g class="xtick"><text text-anchor="middle" x="0" y="436" transform="translate(216.35,0)" style="font-family: 'Times New Roman'; font-size: 15px; fill: rgb(13, 13, 13); fill-opacity: 1; white-space: pre; opacity: 1;">1.61252×10​<tspan style="font-size:70%" dy="-0.6em">18</tspan><tspan dy="0.42em">​</tspan></text></g><g class="xtick"><text text-anchor="middle" x="0" y="436" style="font-family: 'Times New Roman'; font-size: 15px; fill: rgb(13, 13, 13); fill-opacity: 1; white-space: pre; opacity: 1;" transform="translate(313.38,0)">1.612525×10​<tspan style="font-size:70%" dy="-0.6em">18</tspan><tspan dy="0.42em">​</tspan></text></g><g class="xtick"><text text-anchor="middle" x="0" y="436" style="font-family: 'Times New Roman'; font-size: 15px; fill: rgb(13, 13, 13); fill-opacity: 1; white-space: pre; opacity: 1;" transform="translate(410.42,0)">1.61253×10​<tspan style="font-size:70%" dy="-0.6em">18</tspan><tspan dy="0.42em">​</tspan></text></g><g class="xtick"><text text-anchor="middle" x="0" y="436" style="font-family: 'Times New Roman'; font-size: 15px; fill: rgb(13, 13, 13); fill-opacity: 1; white-space: pre; opacity: 1;" transform="translate(507.45,0)">1.612535×10​<tspan style="font-size:70%" dy="-0.6em">18</tspan><tspan dy="0.42em">​</tspan></text></g><g class="xtick"><text text-anchor="middle" x="0" y="436" style="font-family: 'Times New Roman'; font-size: 15px; fill: rgb(13, 13, 13); fill-opacity: 1; white-space: pre; opacity: 1;" transform="translate(604.49,0)">1.61254×10​<tspan style="font-size:70%" dy="-0.6em">18</tspan><tspan dy="0.42em">​</tspan></text></g></g><g class="yaxislayer-above"><g class="ytick"><text text-anchor="end" x="130" y="12.25" transform="translate(0,404.01)" style="font-family: 'Times New Roman'; font-size: 35px; fill: rgb(13, 13, 13); fill-opacity: 1; white-space: pre; opacity: 1;">0</text></g><g class="ytick"><text text-anchor="end" x="130" y="12.25" style="font-family: 'Times New Roman'; font-size: 35px; fill: rgb(13, 13, 13); fill-opacity: 1; white-space: pre; opacity: 1;" transform="translate(0,353.57)">0.5M</text></g><g class="ytick"><text text-anchor="end" x="130" y="12.25" style="font-family: 'Times New Roman'; font-size: 35px; fill: rgb(13, 13, 13); fill-opacity: 1; white-space: pre; opacity: 1;" transform="translate(0,303.13)">1M</text></g><g class="ytick"><text text-anchor="end" x="130" y="12.25" style="font-family: 'Times New Roman'; font-size: 35px; fill: rgb(13, 13, 13); fill-opacity: 1; white-space: pre; opacity: 1;" transform="translate(0,252.69)">1.5M</text></g><g class="ytick"><text text-anchor="end" x="130" y="12.25" style="font-family: 'Times New Roman'; font-size: 35px; fill: rgb(13, 13, 13); fill-opacity: 1; white-space: pre; opacity: 1;" transform="translate(0,202.25)">2M</text></g><g class="ytick"><text text-anchor="end" x="130" y="12.25" style="font-family: 'Times New Roman'; font-size: 35px; fill: rgb(13, 13, 13); fill-opacity: 1; white-space: pre; opacity: 1;" transform="translate(0,151.8)">2.5M</text></g><g class="ytick"><text text-anchor="end" x="130" y="12.25" style="font-family: 'Times New Roman'; font-size: 35px; fill: rgb(13, 13, 13); fill-opacity: 1; white-space: pre; opacity: 1;" transform="translate(0,101.36)">3M</text></g></g><g class="overaxes-above"/></g></g><g class="polarlayer"/><g class="smithlayer"/><g class="ternarylayer"/><g class="geolayer"/><g class="funnelarealayer"/><g class="pielayer"/><g class="iciclelayer"/><g class="treemaplayer"/><g class="sunburstlayer"/><g class="glimages"/><defs id="topdefs-c9cf33"><g class="clips"/></defs><g class="layer-above"><g class="imagelayer"/><g class="shapelayer"/></g><g class="infolayer"><g class="g-gtitle"/><g class="g-xtitle"><text class="xtitle" x="375.5" y="463.8" text-anchor="middle" style="font-family: 'Open Sans', verdana, arial, sans-serif; font-size: 14px; fill: rgb(42, 63, 95); opacity: 1; font-weight: normal; white-space: pre;">Time Steps (ns)</text></g><g class="g-ytitle" transform="translate(23.875,0)"><text class="ytitle" transform="rotate(-90,12.125,260)" x="12.125" y="260" text-anchor="middle" style="font-family: 'Times New Roman'; font-size: 40px; fill: rgb(13, 13, 13); opacity: 1; font-weight: normal; white-space: pre;">Cum. qty. executed securites</text></g></g></svg>