<svg class="main-svg" xmlns="http://www.w3.org/2000/svg" xmlns:xlink="http://www.w3.org/1999/xlink" width="700" height="500" style="" viewBox="0 0 700 500"><rect x="0" y="0" width="700" height="500" style="fill: rgb(255, 255, 255); fill-opacity: 1;"/><defs id="defs-d38691"><g class="clips"><clipPath id="clipd38691xyplot" class="plotclip"><rect width="511" height="320"/></clipPath><clipPath class="axesclip" id="clipd38691x"><rect x="109" y="0" width="511" height="500"/></clipPath><clipPath class="axesclip" id="clipd38691y"><rect x="0" y="100" width="700" height="320"/></clipPath><clipPath class="axesclip" id="clipd38691xy"><rect x="109" y="100" width="511" height="320"/></clipPath></g><g class="gradients"/><g class="patterns"/></defs><g class="bglayer"><rect class="bg" x="109" y="100" width="511" height="320" style="fill: rgb(229, 236, 246); fill-opacity: 1; stroke-width: 0;"/></g><g class="layer-below"><g class="imagelayer"/><g class="shapelayer"/></g><g class="cartesianlayer"><g class="subplot xy"><g class="layer-subplot"><g class="shapelayer"/><g class="imagelayer"/></g><g class="minor-gridlayer"><g class="x"/><g class="y"/></g><g class="gridlayer"><g class="x"><path class="xgrid crisp" transform="translate(198.19,0)" d="M0,100v320" style="stroke: rgb(255, 255, 255); stroke-opacity: 1; stroke-width: 1px;"/><path class="xgrid crisp" transform="translate(299.59000000000003,0)" d="M0,100v320" style="stroke: rgb(255, 255, 255); stroke-opacity: 1; stroke-width: 1px;"/><path class="xgrid crisp" transform="translate(400.99,0)" d="M0,100v320" style="stroke: rgb(255, 255, 255); stroke-opacity: 1; stroke-width: 1px;"/><path class="xgrid crisp" transform="translate(502.39,0)" d="M0,100v320" style="stroke: rgb(255, 255, 255); stroke-opacity: 1; stroke-width: 1px;"/><path class="xgrid crisp" transform="translate(603.79,0)" d="M0,100v320" style="stroke: rgb(255, 255, 255); stroke-opacity: 1; stroke-width: 1px;"/></g><g class="y"><path class="ygrid crisp" transform="translate(0,346.83000000000004)" d="M109,0h511" style="stroke: rgb(255, 255, 255); stroke-opacity: 1; stroke-width: 1px;"/><path class="ygrid crisp" transform="translate(0,289.12)" d="M109,0h511" style="stroke: rgb(255, 255, 255); stroke-opacity: 1; stroke-width: 1px;"/><path class="ygrid crisp" transform="translate(0,231.41)" d="M109,0h511" style="stroke: rgb(255, 255, 255); stroke-opacity: 1; stroke-width: 1px;"/><path class="ygrid crisp" transform="translate(0,173.70999999999998)" d="M109,0h511" style="stroke: rgb(255, 255, 255); stroke-opacity: 1; stroke-width: 1px;"/><path class="ygrid crisp" transform="translate(0,116)" d="M109,0h511" style="stroke: rgb(255, 255, 255); stroke-opacity: 1; stroke-width: 1px;"/></g></g><g class="zerolinelayer"><path class="yzl zl crisp" transform="translate(0,404.54)" d="M109,0h511" style="stroke: rgb(255, 255, 255); stroke-opacity: 1; stroke-width: 2px;"/></g><path class="xlines-below"/><path class="ylines-below"/><g class="overlines-below"/><g class="xaxislayer-below"/><g class="yaxislayer-below"/><g class="overaxes-below"/><g class="plot" transform="translate(109,100)" clip-path="url(#clipd38691xyplot)"><g class="scatterlayer mlayer"><g class="trace scatter tracea2c36b" style="stroke-miterlimit: 2; opacity: 1;"><g class="fills"/><g class="errorbars"/><g class="lines"><path class="js-line" d="M0,16L1.42,16L1.42,232.4L2.03,275.68L2.06,16L2.19,30.43L2.26,16L2.4,41.97L2.57,16L2.57,278.57L3.19,283.62L3.34,16L3.34,16L3.45,101.25L3.56,16L4.06,287.23L4.12,145.84L4.21,47.74L4.24,16L4.29,288.67L4.96,82.12L4.98,16L5.07,249.95L5.63,16L5.71,16L5.83,302.37L6.49,168.92L6.54,16L7.09,238.17L7.21,16L7.34,174.7L7.46,16L7.63,288.51L7.69,16L7.98,16L8.07,298.77L8.73,27.54L8.8,16L9.13,298.77L9.55,16L9.58,251.88L9.69,16L10.17,174.7L10.38,16L10.94,287.23L11.11,93.91L11.23,16L11.74,288.67L11.8,79.48L11.81,16L12.41,272.8L12.52,16L12.59,16L13.01,301.65L13.23,16L13.42,16L14.04,284.34L14.17,254.36L14.18,16L14.46,295.88L14.92,16L14.94,16L15.29,16L15.31,108.33L15.33,16L15.59,262.7L16.02,250.44L16.11,16L16.59,262.7L16.72,232.4L16.86,16L17.4,301.65L17.67,272.8L17.67,47.74L17.69,16L18.1,301.65L18.42,84.9L18.44,16L18.61,16L18.61,16L18.61,262.65L18.88,267.03L19.23,16L19.23,16L19.43,16L20.09,291.62L20.17,16L20.19,16L20.92,296.13L20.93,16L21.36,298.77L21.66,16L21.7,16L21.9,292.03L22.1,16L22.16,16L22.88,301.65L22.93,246.83L22.96,16L23.11,301.65L23.62,16L23.85,44.85L23.86,16L24.24,301.65L24.48,180.47L24.62,16L25.24,296.2L25.3,16L25.47,16L25.47,284.34L26.18,281.45L26.27,16L26.47,293L26.97,81.15L27.04,16L27.55,288.67L27.76,47.74L27.81,272.8L28.24,284.34L28.58,16L28.64,170.37L28.74,16L28.99,297.32L29.39,261.26L29.46,16L30.06,297.32L30.17,16L30.23,44.85L30.24,16L30.49,290.83L30.98,76.59L30.99,192.01L30.99,16L31.34,278.31L31.72,91.02L31.75,16L31.85,285.78L32.32,194.89L32.34,70.82L32.35,16L32.74,284.34L33.09,197.78L33.1,283.32L33.86,16L33.89,151.61L33.9,197.78L33.9,16L34.54,293L34.57,27.54L34.73,16L35.06,293L35.48,275.68L35.48,44.85L35.53,16L35.81,290.11L36.21,166.04L36.25,241.06L36.59,281.45L37.02,16L37.11,16L37.27,265.58L37.84,220.86L37.86,16L38.25,303.09L38.61,76.59L38.63,16L38.92,301.65L39.37,16L39.44,16L39.72,301.65L40.19,192.01L40.23,160.27L40.51,300.21L40.96,16L40.99,73.71L40.99,246.83L41.62,295.88L41.74,16L41.85,217.98L41.86,16L42.6,287.23L42.6,88.13L42.66,16L42.91,293L43.38,16L43.44,16L43.58,300.83L44.14,269.91L44.2,16L44.4,303.09L44.87,16L44.93,16L45.01,96.79L45.11,16L45.15,248.27L45.35,301.65L45.85,16L45.86,246.83L45.94,16L46.21,292.27L46.69,16L46.71,73.71L46.74,290.11L46.86,16L47.44,16L47.47,16L47.7,288.83L48.22,16L48.25,16L48.53,301.65L49,42.23L49.03,16L49.5,298.77L49.78,203.55L49.79,116.99L49.87,16L50.4,298.77L50.5,16L50.52,16L50.63,293L50.74,212.21L50.75,16L50.99,301.65L51.48,16L51.5,16L51.96,287.23L52.19,16L52.24,16L52.92,287.23L52.98,280.49L53.01,278.57L53.01,16L53.49,293L53.72,16L53.78,267.03L54.04,16L54.1,303.58L54.51,226.63L54.54,16L55.11,284.34L55.3,177.58L55.31,16L55.71,293L56.03,16L56.12,16L56.6,287.23L56.87,16L56.88,174.7L57.03,16L57.08,281.45L57.62,79.48L57.64,87.7L58.22,280.42L58.41,16L58.41,82.36L58.45,16L58.66,296.38L59.19,272.8L59.19,47.74L59.26,16L59.46,301.65L59.9,254.07L60,16L60.46,287.23L60.46,33.31L60.5,16L61.07,284.34L61.24,171.81L61.34,16L61.49,294.44L62.09,26.1L62.11,16L62.74,299.49L62.81,88.13L62.87,16L63.28,298.77L63.38,16L63.48,16L64.14,298.77L64.18,298.77L64.23,18.89L64.24,301.65L64.27,16L64.94,50.62L65.04,50.62L65.06,16L65.42,299.49L65.78,16L65.86,16L66.23,293L66.54,65.05L66.61,16L67.16,298.65L67.28,16L67.38,16L67.51,293L67.68,281.45L67.68,16L68.15,293.44L68.25,47.74L68.26,16L68.48,304L68.95,27.54L69.01,16L69.41,293L69.76,16L69.79,16L70.38,296.13L70.55,47.74L70.55,16L70.78,294.44L71.29,258.37L71.31,62.17L71.34,264.14L71.5,16L72.02,160.27L72.08,116.99L72.7,16L72.7,269.91L72.74,50.62L72.84,215.09L73.41,298.77L73.57,16L73.57,33.31L73.61,281.45L73.67,16L73.79,287.23L74.33,44.85L74.44,131.41L74.52,177.58L74.53,16L74.58,295.88L75.2,16L75.42,180.47L75.42,16L76.04,278.57L76.16,16L76.19,16L76.81,284.34L76.93,40.33L76.96,215.09L76.96,16L77,301.65L77.68,168.92L77.79,151.61L77.83,16L78.19,249.72L78.54,192.01L78.55,269.91L78.55,16L78.7,292.51L79.27,160.27L79.35,160.27L79.36,264.14L79.39,16L80.09,134.3L80.1,16L80.59,303.09L80.82,246.83L80.88,171.81L80.88,281.45L80.97,16L81.63,166.04L81.65,154.5L82.1,303.82L82.42,16L82.45,79.48L82.55,16L83.1,301.65L83.16,16L83.21,217.98L83.24,16L83.54,269.91L83.94,62.17L83.99,62.17L83.99,258.37L84.09,16L84.71,16L84.79,16L85.33,301.65L85.52,50.62L85.55,16L86.2,301.65L86.3,189.12L86.35,16L86.9,287.23L87.1,200.66L87.13,119.87L87.32,16L87.72,298.77L87.86,171.81L87.86,16L87.86,301.65L88.61,16L88.62,16L88.69,295.88L89.39,258.37L89.39,62.17L89.84,16L89.85,301.65L90.18,287.23L90.2,16L90.93,303.09L90.95,16L90.96,119.87L91.07,16L91.1,291.55L91.67,16L91.72,16L92.07,301.65L92.37,16L92.48,62.17L92.57,16L93.03,272.8L93.22,163.15L93.25,278.57L93.26,16L93.65,293L93.94,16L94.05,59.28L94.05,16L94.26,295.88L94.77,16L94.84,66.49L94.84,290.11L94.86,16L95.54,183.22L95.62,122.76L95.7,16L96.18,290.11L96.3,16L96.44,16L97.06,298.4L97.19,203.55L97.19,116.99L97.22,16L97.22,293L97.47,16L97.53,16L97.7,271.36L98.26,112.18L98.29,16L98.78,285.78L98.99,16L99.06,16L99.61,290.11L99.8,16L99.84,16L100.08,301.68L100.59,16L100.72,47.74L100.82,16L101.27,301.68L101.47,301.65L101.5,16L101.87,301.65L102.3,217.98L102.32,102.56L102.9,303.09L102.99,16L102.99,108.33L103.15,212.21L103.2,16L103.58,287.23L103.78,209.32L103.93,16L104.11,299.65L104.66,16L104.7,16L104.89,291.55L105.39,183.35L105.43,16L105.48,295.88L105.56,287.23L105.57,16L106.23,290.11L106.31,278.57L106.31,41.97L106.36,16L106.48,301.65L107.04,203.55L107.1,177.58L107.1,16L107.71,294.92L107.85,47.74L107.88,272.8L108.35,275.68L108.63,16L108.66,229.52L109.26,284.34L109.4,16L109.44,241.06L109.45,16L109.72,272.8L110.14,171.81L110.23,16L110.87,288.67L110.97,119.87L110.99,16L111.29,295.88L111.68,53.51L111.68,16L111.69,303.09L112.4,16L112.48,91.02L112.61,16L112.7,299.49L113.21,275.68L113.22,16L113.23,298.77L113.97,140.6L113.97,16L114.47,284.34L114.73,192.01L114.75,128.53L114.83,16L115.07,278.57L115.36,41.97L115.37,16L115.38,298.77L116.09,241.42L116.13,16L116.67,298.77L116.86,177.58L116.89,142.96L117.35,295.88L117.52,16L117.65,26.1L117.66,16L117.92,303.82L118.37,16L118.44,16L118.78,295.88L119.19,16L119.29,16L119.62,281.45L119.99,16L120.1,16L120.83,275.68L120.89,275.68L120.9,16L120.91,282.9L121.62,16L121.74,16L121.84,290.11L122.44,145.84L122.52,16L122.83,264.46L123.25,16L123.29,16L123.41,287.23L124.04,16L124.06,34.03L124.16,16L124.57,298.77L124.81,79.48L124.83,16L125.58,289.39L125.61,243.94L125.61,34.75L125.61,16L125.75,285.78L126.36,16L126.45,174.7L126.53,295.88L127.18,16L127.23,288.51L127.28,16L127.83,295.88L127.96,293L128.02,232.4L128.05,16L128.25,298.77L128.77,16L128.78,255.07L129.37,16L129.42,286.5L129.51,232.4L129.51,16L129.91,295.88L130.21,16L130.29,16L130.51,293L131.03,73.71L131.07,16L131.68,300.21L131.85,132.52L131.86,16L132.12,272.08L132.53,114.1L132.54,16L132.93,267.03L133.29,232.4L133.29,88.13L133.55,291.01L134.05,16L134.06,160.27L134.06,16L134.11,302.37L134.8,16L134.83,39.08L134.92,16L134.99,301.56L135.56,16L135.62,16L135.92,284.34L136.35,44.85L136.39,275.68L136.83,300.21L137.1,16L137.14,212.21L137.18,193.56L137.24,16L137.28,297.32L137.93,108.33L137.94,212.21L138.55,298.77L138.64,16L138.66,163.15L138.67,298.77L139.29,16L139.42,275.36L139.49,41.97L139.55,301.68L140.02,16L140.13,131.41L140.13,226.63L140.13,16L140.29,298.77L140.87,241.06L140.93,44.85L140.99,16L141.47,295.88L141.68,16L141.69,16L142.35,298.77L142.39,16L142.49,209.32L142.55,16L142.68,295.88L143.22,16L143.28,137.19L143.44,16L143.54,301.65L144.02,134.3L144.04,134.3L144.24,16L144.63,301.65L144.72,18.89L144.91,285.48L144.91,16L145.18,301.65L145.63,93.91L145.67,16L145.98,299.49L146.46,284.34L146.46,36.2L146.59,16L146.92,296.6L147.15,16L147.22,16L147.57,16L147.58,280.33L147.58,16L147.82,301.65L148.3,16L148.34,16L149,278.57L149.09,16L149.12,41.97L149.25,16L149.31,301.08L149.87,16L149.89,16L150.01,293.72L150.52,171.81L150.53,16L150.8,285.78L151.26,16L151.36,16L151.71,293.44L152.11,16L152.13,287.23L152.27,300.21L152.88,16L152.93,16L153.12,16L153.16,154.5L153.28,229.52L153.29,85.25L153.31,16L153.95,298.77L154.03,39.08L154.07,174.7L154.52,301.68L154.81,16L154.81,157.38L154.85,226.63L154.96,271.36L155.52,16L155.53,142.96L155.58,142.96L155.6,16L155.69,285.78L156.32,16L156.35,229.52L156.46,16L156.52,301.65L157.06,16L157.11,99.68L157.18,16L157.56,270.59L157.82,16L157.87,16L158.24,301.65L158.62,243.94L158.63,16L158.77,274.24L159.23,16L159.39,16L159.86,294.44L160.13,16L160.16,16L160.35,301.65L160.92,200.66L160.93,119.87L161.14,16L161.37,296.29L161.66,160.27L161.68,16L161.69,290.11L162.43,143.3L162.47,16L163.23,300.21L163.23,33.31L163.31,287.23L163.94,16L163.94,119.87L164.08,293L164.09,16L164.68,16L164.73,16L165.23,272.8L165.43,16L165.51,16L166.21,295.88L166.26,53.51L166.38,16L166.72,301.65L167.12,238.17L167.14,82.36L167.17,16L167.84,290.11L167.88,16L167.92,196.34L167.98,16L168.13,281.45L168.64,16L168.69,128.53L169,16L169.43,295.16L169.45,53.51L169.58,16L169.64,300.93L170.14,298.77L170.23,99.68L170.25,298.77L170.25,16L170.97,267.03L171.02,53.51L171.08,16L171.09,285.66L171.73,36.2L171.79,284.34L171.86,298.88L172.45,16L172.46,290.11L172.55,290.11L173.14,16L173.33,145.84L173.36,275.68L173.97,16L174.04,269.91L174.08,269.91L174.11,16L174.59,290.11L174.83,16L174.86,16L175.14,298.77L175.62,223.75L175.62,96.79L175.66,99.68L175.66,220.86L175.71,298.77L176.42,16L176.5,157.38L176.5,16L177.1,278.57L177.22,16L177.26,16L177.99,287.23L178.01,16L178.04,294.05L178.71,269.91L178.75,50.62L178.75,269.91L178.97,16L179.5,16L179.52,16L179.93,298.05L180.27,142.96L180.3,16L181,296.6L181.13,174.7L181.13,145.84L181.14,16L181.71,275.68L181.85,229.52L181.89,91.02L181.9,16L181.94,295.88L182.57,16L182.67,16L182.78,302.37L183.4,105.45L183.46,16L184.02,301.65L184.21,16L184.25,223.39L184.78,296.13L185.03,16L185.03,278.57L185.4,290.11L185.82,16L185.82,41.97L185.92,278.57L185.92,16L185.95,290.11L186.58,16L186.7,55.07L186.8,16L187.03,295.88L187.42,16L187.48,16L187.93,252.21L188.19,16L188.32,16L188.51,293L189.04,203.55L189.08,62.17L189.15,16L189.34,293L189.79,220.86L189.82,16L190.34,292.09L190.57,16L190.58,119.87L190.61,16L190.78,293L191.32,217.98L191.36,16L191.97,290.11L192.12,269.91L192.12,50.62L192.23,16L192.67,293L192.79,245.39L192.9,16L193.33,280.01L193.67,255.49L193.67,16L194.07,255.49L194.44,232.4L194.44,16L195.05,275.68L195.14,258.37L195.2,62.17L195.5,285.78L195.85,16L195.87,267.03L195.87,16L195.87,301.65L196.61,16L196.66,265.58L196.69,16L196.7,287.23L197.38,73.71L197.47,16L198.12,277.49L198.21,258.37L198.23,16L198.87,281.45L198.96,16L198.98,16L199.69,300.21L199.74,16L200.13,295.88L200.51,267.6L200.51,16L200.64,30.43L200.64,300.93L201.2,16L201.2,243.94L201.81,281.45L201.99,16L202,16L202.57,287.23L202.76,281.45L202.77,39.08L202.78,281.45L202.81,16L203.5,16L203.57,243.94L203.89,275.68L204.29,16L204.32,290.8L204.38,293L204.39,16L205.07,171.81L205.08,206.43L205.12,16L205.13,291.55L205.73,151.61L205.84,151.61L206.07,16L206.2,296.6L206.58,16L206.66,16L206.74,295.16L207.37,225.67L207.47,70.82L207.64,16L208.18,298.88L208.21,56.4L208.34,16L208.9,291.55L209.05,171.81L209.07,16L209.32,289.39L209.82,53.51L209.85,16L210.42,301.65L210.49,16L210.63,16L210.75,300.93L211.38,142.96L211.46,194.89L211.88,294.44L212.19,16L212.22,288.67L212.5,293L212.88,16L212.97,122.76L213,70.82L213,16L213.44,258.37L213.71,137.19L213.83,137.19L213.9,16L213.95,297.67L214.56,226.55L214.62,281.45L214.91,300.21L215.34,16L215.37,137.19L215.43,242.15L215.76,301.65L216.19,16L216.19,16L216.2,234.57L216.2,295.88L216.22,16L216.95,16L216.99,16L217.71,301.65L217.73,16L217.75,16L217.87,303.09L218.49,198.88L218.51,16L218.53,284.34L219.26,16L219.42,16L220.1,298.77L220.17,16L220.22,16L220.4,295.88L220.91,168.92L220.93,16L221.37,288.94L221.68,16L221.69,16L222.08,295.88L222.41,287.23L222.58,258.37L222.58,16L222.88,298.77L223.32,98.88L223.43,111.22L223.96,281.45L224.02,16L224.08,212.21L224.16,212.21L224.18,16L224.83,301.65L224.85,267.03L224.94,16L225.3,291.07L225.7,180.47L225.72,16L226.28,301.65L226.47,295.88L226.51,24.66L226.6,16L227.07,295.88L227.08,16L227.16,54.47L227.16,298.77L227.28,16L227.86,16L227.92,160.27L227.92,16L228.4,295.88L228.66,212.21L228.7,108.33L228.71,16L229.12,287.23L229.45,16L229.46,16L229.54,301.5L230.18,16L230.24,27.54L230.24,293L230.28,16L230.96,183.35L231.04,21.77L231.04,298.88L231.12,16L231.75,148.73L231.83,194.89L231.83,16L232.05,295.88L232.58,16L232.63,252.6L232.64,16L233.16,275.68L233.38,223.75L233.41,62.17L233.53,16L234.01,301.65L234.12,16L234.17,233.12L234.39,295.88L234.7,16L234.95,105.45L234.95,215.09L235.1,295.88L235.57,16L235.68,284.34L235.72,284.34L235.8,16L236.05,303.82L236.47,16L236.53,16L236.64,293L237.26,99.68L237.32,16L237.88,278.57L238,148.73L238.05,36.2L238.05,284.34L238.15,16L238.76,16L238.81,259.45L238.9,275.68L239.48,16L239.56,179.02L239.64,267.03L240.16,297.32L240.29,16L240.3,30.43L240.44,290.11L241.05,16L241.18,96.79L241.2,223.75L241.35,278.57L241.87,16L242.02,16L242.42,297.32L242.69,33.31L242.78,16L243.03,301.65L243.35,154.5L243.36,16L243.73,293.72L243.98,95.96L243.99,16L244.1,44.85L244.1,275.68L244.32,298.77L244.9,16L244.9,27.54L244.9,16L244.96,301.65L245.61,16L245.66,252.6L245.87,301.65L246.41,16L246.44,16L246.69,16L246.7,145.84L246.87,16L247.47,278.57L247.47,16L247.76,287.23L248.22,16L248.25,65.05L248.25,16L248.58,297.32L248.98,16L249.03,16L249.71,290.11L249.79,16L249.88,290.11L250.17,70.82L250.22,16L250.22,290.11L250.97,16L250.99,16L251.26,298.77L251.71,16L251.75,16L252.17,300.93L252.43,114.1L252.5,16L253.2,264.14L253.24,16L253.27,96.79L253.7,298.77L253.96,16L253.99,99.68L253.99,262.7L254.24,301.65L254.72,16L254.8,16L255.12,299.92L255.52,50.62L255.56,93.91L255.66,16L255.79,301.43L256.27,125.92L256.33,91.02L256.35,16L256.73,290.11L257.08,232.4L257.11,16L257.44,290.11L257.84,229.52L257.88,16L258.04,290.11L258.63,16L258.7,16L258.86,16L258.88,21.77L258.95,16L258.95,301.16L259.62,258.37L259.69,62.17L259.75,16L260.02,301.65L260.43,272.8L260.46,47.74L260.56,16L261.13,298.77L261.21,16L261.58,293L261.77,16L261.85,16L262.01,297.32L262.6,16L262.61,293L262.7,16L263.35,188.4L263.37,267.03L263.5,16L263.88,299.49L264.03,290.11L264.18,16L264.79,294.44L264.92,16L265.01,93.91L265.12,16L265.2,300.5L265.76,16L265.82,16L266.45,281.45L266.51,258.37L266.6,16L267.03,293L267.3,16L267.36,16L267.79,295.88L268.09,30.43L268.15,16L268.38,301.68L268.89,16L268.93,142.96L268.98,16L269.47,277.13L269.67,16L269.72,303.1L269.72,16L270.47,226.63L270.49,93.91L270.55,16L270.59,301.65L271.26,187.56L271.26,59.28L271.3,53.51L271.3,267.03L271.33,261.26L271.33,82.59L271.44,16L271.53,267.03L271.88,171.81L272,16L272.02,303.82L272.74,16L272.76,16L273,301.65L273.5,16L273.54,96.79L273.56,16L273.7,258.37L274.28,16L274.34,16L274.43,285.78L274.86,258.37L274.86,16L275.2,278.57L275.56,269.91L275.64,16L276.26,272.8L276.4,215.09L276.57,269.91L276.57,16L276.73,295.88L277.3,246.83L277.38,16L277.93,269.91L278.05,212.21L278.15,200.66L278.15,16L278.57,298.77L278.87,50.62L278.91,88.13L278.91,16L279.65,300.21L279.68,173.38L279.95,16L280.37,302.23L280.38,16L280.48,16L280.83,295.88L281.23,73.71L281.27,73.71L281.36,16L281.67,301.65L282.02,151.61L282.04,16L282.23,47.74L282.24,272.8L282.24,16L282.47,275.68L282.96,65.05L283,232.4L283.02,301.65L283.15,16L283.73,290.11L283.78,30.43L283.88,16L284.02,301.68L284.52,16L284.56,249.72L285.19,285.04L285.34,16L285.34,16L285.38,285.78L286.12,301.65L286.16,16L286.16,16L286.2,16L286.26,293L286.52,16L286.57,16L287.06,295.88L287.31,264.14L287.36,16L288.05,297.32L288.07,16L288.1,16L288.33,287.23L288.85,209.32L288.94,16L288.96,18.89L288.96,303.09L289.7,16L289.71,264.14L289.72,264.14L289.78,16L289.86,301.22L290.42,114.1L290.48,16L290.95,287.23L291.22,16L291.24,145.84L291.32,16L291.98,298.2L292.04,65.05L292.13,16L292.27,284.34L292.73,108.33L292.74,16L293.22,287.56L293.48,16L293.56,16L294.06,287.23L294.3,272.8L294.3,16L295.02,301.4L295.05,85.25L295.08,85.25L295.08,16L295.16,299.49L295.83,16L295.92,209.32L295.92,301.65L296.1,16L296.62,298.77L296.68,16L296.87,16L296.9,300.21L296.9,16L297.65,16L297.66,16L297.66,295.88L298.4,134.3L298.43,16L298.54,296.6L299.17,16L299.21,177.58L299.29,16L299.37,293L299.96,154.5L299.97,275.68L300.01,16L300.4,284.34L300.68,16L300.79,16L301.43,281.45L301.54,151.61L301.57,16L301.88,290.11L302.32,56.4L302.33,16L302.44,298.77L302.99,290.11L303.04,30.43L303.04,16L303.08,302.33L303.79,194.89L303.85,167.48L303.92,16L304.16,301.65L304.59,16L304.62,248.27L304.67,16L305.09,278.57L305.36,161.52L305.39,16L305.66,302.37L306.14,232.4L306.16,16L306.71,298.77L306.88,16L306.95,171.81L307.09,16L307.56,302.37L307.69,125.64L307.73,16L308.48,296.94L308.5,119.87L308.55,16L309.11,281.45L309.24,16L309.31,249.72L309.4,16L309.94,281.45L310.06,16L310.2,16L310.61,293L310.89,16L310.97,16L311.57,293L311.71,16L311.79,272.8L311.79,16L312.37,284.92L312.52,258.37L312.56,206.43L313.08,281.45L313.31,16L313.32,145.84L313.37,16L313.69,295.13L314.06,16L314.13,16L314.26,303.09L314.62,16L314.66,16L315.16,298.77L315.4,241.06L315.48,134.3L315.51,16L315.64,272.8L316.23,16L316.27,16L316.28,269.91L316.96,16L317.03,16L317.05,275.68L317.78,44.85L317.79,16L318.16,16L318.16,208.36L318.3,290.11L318.89,16L318.93,53.51L318.93,267.03L319.63,293L319.72,16L319.72,16L319.83,16L319.89,259.81L320.53,255.49L320.62,78.09L320.66,301.65L320.73,16L321.35,177.58L321.41,177.58L321.58,16L321.77,289.87L322.14,134.3L322.18,128.53L322.52,16L322.76,290.11L322.93,16L322.99,281.45L323,16L323.18,293L323.7,16L323.77,220.86L323.94,295.88L324.52,16L324.52,16L324.54,280.01L325.2,16L325.28,300.21L325.28,33.31L325.31,16L325.33,300.13L326.01,142.96L326.09,16L326.17,284.34L326.75,16L326.8,16L327.5,301.65L327.56,22.87L327.66,16L327.88,281.45L328.22,186.24L328.37,16L328.46,21.77L328.46,298.77L329.06,298.88L329.14,16L329.14,183.75L329.29,223.75L329.81,298.77L330.03,16L330.04,151.61L330.04,259.33L330.11,16L330.51,298.88L330.66,16L330.68,16L330.99,296.13L331.42,16L331.44,151.61L331.94,293.72L332.15,16L332.16,287.23L332.2,252.6L332.25,287.23L332.38,16L332.93,16L332.99,293L333.04,294.44L333.04,56.4L333.04,16L333.14,293L333.79,16L333.8,212.21L333.84,16L334.21,303.09L334.55,16L334.57,18.89L334.57,301.65L334.61,16L335.31,232.4L335.33,16L336.09,293L336.09,27.54L336.24,220.86L336.41,16L336.42,119.87L336.42,278.57L336.49,16L336.76,303.09L337.16,62.17L337.19,16L337.19,295.88L337.93,70.82L337.96,16L338.03,301.65L338.68,232.4L338.72,16L339.02,261.26L339.37,215.09L339.52,215.09L339.53,16L339.6,280.82L340.27,16L340.29,106.44L340.43,284.34L340.99,16L341.06,278.57L341.06,16L341.78,105.31L341.82,16L342.32,303.09L342.49,298.77L342.5,18.89L342.5,16L342.76,303.82L343.24,70.82L343.26,16L343.79,301.65L343.92,160.27L343.96,16L344.32,301.68L344.5,269.91L344.54,16L345.27,280.01L345.31,65.05L345.38,16L345.78,297.32L346.06,170.17L346.12,16L346.23,295.23L346.82,16L346.9,73.71L346.92,287.23L347.11,16L347.61,16L347.76,16L348.37,290.11L348.51,16L348.58,16L348.72,280.01L349.09,272.8L349.15,47.74L349.21,272.8L349.3,16L349.89,226.63L349.92,16L350.38,290.11L350.66,206.43L350.69,73.71L350.71,16L351.39,287.23L351.43,16L351.45,189.12L351.6,16L351.63,298.77L352.18,16L352.21,16L352.71,281.45L352.94,16L352.99,16L353.37,295.88L353.65,284.34L353.7,16L354.05,303.38L354.38,16L354.46,131.41L354.47,16L355.12,281.45L355.16,246.83L355.23,16L355.23,269.91L355.96,267.03L356,53.51L356.13,16L356.13,217.98L356.13,187.68L356.13,267.03L356.19,16L356.74,300.21L356.88,16L356.89,164.6L356.95,16L357.34,295.88L357.5,16L357.59,16L357.68,293L358.24,99.68L358.38,16L359.12,291.55L359.13,16L359.14,41.97L359.18,278.57L359.58,16L359.58,233.85L359.58,298.77L359.67,16L360.3,264.14L360.36,206.43L360.42,16L361.01,275.68L361.08,108.33L361.12,212.21L361.12,16L361.3,293L361.86,269.06L361.91,174.7L361.92,16L362.31,290.11L362.56,151.61L362.67,16L362.67,295.88L363.4,275.68L363.43,16L363.68,295.88L364.13,223.75L364.28,16L364.38,295.88L365.02,226.63L365.04,16L365.72,295.88L365.75,33.31L365.81,33.31L365.81,16L366.28,298.77L366.53,16L366.57,166.04L366.57,16L366.78,295.88L367.27,39.08L367.36,16L367.5,303.09L368.07,16L368.12,16L368.39,290.11L368.86,16L368.89,16L369.25,300.21L369.67,284.34L369.67,16L370.27,301.65L370.28,105.45L370.43,275.68L370.49,16L370.94,295.88L371.17,36.2L371.21,36.2L371.28,16L371.69,290.11L371.96,16L371.97,16L372.19,298.05L372.71,16L372.75,16L372.91,301.65L373.5,197.78L373.51,241.06L373.56,16L373.96,298.77L374.26,53.51L374.34,16L374.34,295.16L375.07,16L375.1,16L375.29,287.23L375.82,16L375.88,16L376.08,301.65L376.61,53.51L376.65,16L376.76,298.77L377.4,176.14L377.41,16L377.41,288.67L378.12,186.24L378.26,298.77L378.31,16L378.98,261.26L379.05,16L379.74,298.77L379.75,93.91L379.82,226.63L380.19,301.65L380.59,16L380.59,16L380.6,215.09L380.92,296.6L381.36,16L381.44,16L382.19,300.47L382.19,38.2L382.22,269.91L382.29,275.68L382.98,16L383.05,16L383.48,281.45L383.8,163.15L383.89,16L384.13,281.45L384.56,171.81L384.66,16L385.13,277.13L385.15,271.36L385.17,16L385.56,281.45L385.89,16L385.91,16L386.42,301.68L386.66,187.41L386.7,258.37L386.84,290.11L387.34,16L387.45,171.81L387.5,24.66L387.5,295.88L387.51,16L388.23,16L388.31,76.59L388.58,16L388.65,291.01L389.04,16L389.1,40.53L389.2,16L389.57,301.65L389.87,245.18L389.87,16L390.33,300.21L390.61,272.8L390.63,16L391.16,301.65L391.37,56.4L391.39,16L391.79,291.99L392.09,16L392.19,16L392.19,290.11L392.94,193.45L392.96,264.14L393.08,295.88L393.23,16L393.7,209.32L393.75,166.04L393.75,16L393.98,298.77L394.49,16L394.53,16L394.54,301.65L395.22,16L395.28,16L395.45,295.16L395.99,16L396.04,16L396.43,302.37L396.8,186.24L396.8,134.3L397.39,16L397.49,288.21L397.51,47.74L397.57,16L397.93,295.88L398.32,124.2L398.34,65.75L398.63,295.88L399,16L399.01,99.68L399.01,262.7L399.01,16L399.37,295.88L399.76,119.87L399.8,200.66L400.14,293L400.41,16L400.52,272.8L400.57,215.09L400.79,294.44L401.32,16L401.38,258.37L401.38,16L401.98,301.65L402.12,232.4L402.14,249.72L402.24,16L402.75,293L402.88,284.34L402.9,66.49L402.9,16L403.34,295.88L403.64,145.84L403.71,59.28L403.72,16L404.01,294.44L404.46,180.47L404.48,200.66L404.55,16L405.19,298.77L405.21,33.31L405.25,33.31L405.33,16L405.72,298.77L405.98,65.05L406.01,50.62L406.13,16L406.3,301.68L406.74,16L406.78,16L407.12,264.14L407.43,252.6L407.43,16L407.5,301.65L408.1,16L408.13,27.54L408.2,293L408.32,16L408.84,16L408.87,16L408.97,293L409.64,189.12L409.64,131.41L409.71,16L409.72,285.06L410.34,16L410.38,16L410.93,298.77L411.11,264.14L411.15,58.52L411.17,295.88L411.25,16L411.88,189.12L411.92,16L412.52,301.84L412.65,252.08L412.69,16L413.02,287.23L413.44,264.14L413.49,111.22L413.63,16L414.08,287.23L414.23,16L414.24,105.45L414.32,16L414.97,298.77L414.99,16L415.13,255.49L415.46,298.77L415.65,16L415.66,299.49L415.66,16L416.35,267.03L416.44,16L416.6,293L417.19,16L417.2,242.5L417.2,16L417.75,298.05L417.93,16L417.96,186.24L417.97,16L418.45,301.65L418.69,243.94L418.72,76.59L419.05,301.65L419.44,16L419.5,16L419.71,295.88L420.24,16L420.28,248.69L420.28,16L420.35,287.64L421.03,39.08L421.04,16L421.66,298.77L421.67,21.77L421.81,23.91L421.87,16L422.04,293.72L422.55,290.11L422.6,44.85L422.64,275.68L422.65,16L423.26,168.28L423.35,16L423.58,293L424.1,16L424.16,194.89L424.32,16L424.52,282.42L424.91,16L424.94,16L425.38,290.83L425.65,16L425.8,16L426.31,290.8L426.48,157.38L426.5,79.48L426.54,16L426.56,295.88L427.23,272.8L427.26,16L427.26,298.77L428,119.87L428.04,16L428.49,301.65L428.82,128.53L428.9,16L429.22,287.95L429.65,16L429.68,16L430.36,283.62L430.44,157.38L430.45,163.15L430.63,16L430.64,284.34L430.84,16L431.16,293L431.39,243.94L431.42,76.59L431.83,291.55L431.97,16L432.05,125.64L432.09,235.29L432.11,16L432.77,303.09L432.77,295.16L432.87,16L432.87,298.77L433.62,261.26L433.66,83.63L433.95,298.77L434.32,16L434.32,16L434.38,261.26L434.38,16L435.03,303.09L435.13,16L435.16,151.61L435.29,168.92L435.32,16L435.66,303.09L436.02,151.61L436.02,33.31L436.06,16L436.32,295.16L436.76,212.21L436.78,108.33L436.88,16L436.97,300.93L437.43,267.03L437.46,16L438.11,272.8L438.11,218.94L438.18,16L438.71,301.65L438.93,241.06L438.94,16L439.21,287.95L439.7,277.13L439.71,16L440.03,290.11L440.33,287.23L440.33,16L440.51,16L440.53,254.04L440.57,16L440.92,295.88L441.28,217.98L441.29,102.56L441.42,284.34L441.88,16L441.98,258.37L442.03,226.63L442.22,281.45L442.22,16L442.78,248.27L442.82,16L443.22,298.77L443.57,186.24L443.58,16L444.22,298.77L444.33,16L444.37,16L444.71,278.46L445.12,226.63L445.13,16L445.37,298.77L445.86,148.73L445.87,16L446.17,293L446.61,16L446.67,16L447.34,281.45L447.45,223.75L447.45,96.79L447.53,281.45L448.02,16L448.15,215.55L448.2,189.12L448.52,275.68L448.89,16L448.96,114.1L448.97,200.66L449.06,16L449.69,232.4L449.69,88.13L449.76,209.32L449.78,16L450.43,291.55L450.5,67.94L450.52,252.6L451.01,284.34L451.25,16L451.35,16L451.89,284.34L451.89,36.2L451.91,16L451.94,284.34L452.48,168.92L452.53,41.97L452.54,290.11L453.17,16L453.22,300.93L453.22,16L453.97,16L454,16L454.5,287.23L454.73,16L454.8,114.1L454.8,16L454.99,300.21L455.54,266.75L455.59,241.06L455.61,16L455.99,299.49L456.34,217.98L456.4,16L456.73,295.88L457.11,41.97L457.17,278.57L457.35,295.16L457.93,16L457.97,16L458.65,287.23L458.76,200.66L458.78,16L458.84,288.67L459.56,229.52L459.56,91.02L459.98,298.77L460.34,16L460.42,261.26L460.53,301.65L460.95,16L461.18,91.02L461.2,229.52L461.24,99.68L461.31,131.41L461.33,16L461.49,287.23L462.07,119.87L462.1,200.66L462.33,303.09L462.73,16L462.74,301.65L463.51,16L463.51,288.21L463.53,302.37L464.26,16L464.3,16L464.43,301.65L464.88,16L464.91,16L465.26,291.55L465.64,62.17L465.69,16L466.41,297.32L466.43,275.68L466.48,16L466.72,294.44L467.22,16L467.26,16L467.62,303.82L468.01,16L468.04,16L468.13,293L468.79,209.32L468.79,16L469.25,272.8L469.54,195.66L469.55,131.41L469.8,298.77L470.31,16L470.33,232.4L470.73,298.77L471.04,16L471.06,275.68L471.1,44.85L471.22,16L471.27,297.32L471.81,145.84L471.89,239.62L471.93,290.11L471.94,16L472.53,269.91L472.53,16L472.62,18.89L472.62,303.82L472.62,16L473.36,16L473.38,128.53L473.44,16L474.13,287.23L474.13,50.62L474.13,16L474.8,275.68L474.82,56.4L474.97,16L475.13,298.4L475.72,272.8L475.75,47.74L475.83,16L476.21,280.01L476.49,16L476.5,16L476.5,290.11L477.25,16L477.29,287.23L477.36,290.11L478.04,16L478.04,16L478.06,16L478.62,293L478.81,56.4L478.83,16L478.84,290.11L479.57,88.13L479.6,88.13L479.63,16L480.18,278.57L480.3,16L480.35,16L480.81,302.61L481.1,16L481.14,16L481.24,303.38L481.97,262.7L481.97,16L482.44,298.77L482.7,187.32L482.77,128.53L483.02,264.14L483.52,16L483.52,171.81L483.54,16L484.24,298.77L484.26,298.77L484.29,16L484.81,300.93L485.04,118.38L485.05,16L485.71,288.73L485.79,16L485.8,30.43L485.81,16L486.23,298.77L486.54,16L486.58,16L486.97,287.23L487.29,16L487.35,281.45L487.87,287.23L488.1,16L488.14,16L488.2,298.77L488.87,183.35L488.93,16L489.69,301.65L489.75,160.27L489.75,16L489.85,301.65L490.5,27.54L490.52,269.91L490.52,293L490.54,16L491.27,16L491.29,246.83L491.44,295.88L491.92,16L492,85.25L492.1,67.94L492.1,16L492.8,298.77L492.85,298.77L492.93,298.77L492.94,16L493.67,16L493.74,16L494.36,300.93L494.55,122.76L494.6,16L494.9,275.68L495.29,16L495.37,119.87L495.43,16L495.59,293L496.12,44.85L496.15,275.68L496.16,16L496.17,301.65L496.87,225.19L496.93,174.7L497.56,16L497.56,284.34L497.56,16L497.6,284.34L497.71,16L498.31,295.88L498.31,33.31L498.37,287.23L499.12,16L499.22,215.09L499.22,16L499.37,293L499.95,16L499.99,16L500.44,280.01L500.76,235.29L500.82,85.25L500.85,16L501.55,298.77L501.58,21.77L501.58,16L501.6,293L502.31,238.17L502.34,41.97L502.38,16L502.8,287.23L503.05,39.08L503.13,82.36L503.14,16L503.21,298.77L503.87,163.15L503.89,64.09L503.92,16L504,293.44L504.64,16L504.72,243.94L504.73,16L505.3,301.65L505.45,16L505.48,16L506.04,303.09L506.23,258.37L506.24,62.17L506.41,16L506.41,258.37L506.61,62.17L506.63,258.37L507.29,284.64L507.34,16L507.35,281.45L507.41,171.81L507.41,16L507.82,298.77L508.14,148.73L508.17,16L508.8,298.77L508.92,16L508.97,246.83L508.97,298.77L509.02,16L509.72,16L509.76,252.6L509.94,274.24L510.52,16L510.56,16L510.87,274.24L511,16" style="vector-effect: non-scaling-stroke; fill: none; stroke: rgb(99, 110, 250); stroke-opacity: 1; stroke-width: 2px; opacity: 1;"/></g><g class="points"/><g class="text"/></g></g></g><g class="overplot"/><path class="xlines-above crisp" d="M0,0" style="fill: none;"/><path class="ylines-above crisp" d="M0,0" style="fill: none;"/><g class="overlines-above"/><g class="xaxislayer-above"><g class="xtick"><text text-anchor="middle" x="0" y="436" transform="translate(198.19,0)" style="font-family: 'Times New Roman'; font-size: 15px; fill: rgb(13, 13, 13); fill-opacity: 1; white-space: pre; opacity: 1;">1.61252×10​<tspan style="font-size:70%" dy="-0.6em">18</tspan><tspan dy="0.42em">​</tspan></text></g><g class="xtick"><text text-anchor="middle" x="0" y="436" style="font-family: 'Times New Roman'; font-size: 15px; fill: rgb(13, 13, 13); fill-opacity: 1; white-space: pre; opacity: 1;" transform="translate(299.59000000000003,0)">1.612525×10​<tspan style="font-size:70%" dy="-0.6em">18</tspan><tspan dy="0.42em">​</tspan></text></g><g class="xtick"><text text-anchor="middle" x="0" y="436" style="font-family: 'Times New Roman'; font-size: 15px; fill: rgb(13, 13, 13); fill-opacity: 1; white-space: pre; opacity: 1;" transform="translate(400.99,0)">1.61253×10​<tspan style="font-size:70%" dy="-0.6em">18</tspan><tspan dy="0.42em">​</tspan></text></g><g class="xtick"><text text-anchor="middle" x="0" y="436" style="font-family: 'Times New Roman'; font-size: 15px; fill: rgb(13, 13, 13); fill-opacity: 1; white-space: pre; opacity: 1;" transform="translate(502.39,0)">1.612535×10​<tspan style="font-size:70%" dy="-0.6em">18</tspan><tspan dy="0.42em">​</tspan></text></g><g class="xtick"><text text-anchor="middle" x="0" y="436" style="font-family: 'Times New Roman'; font-size: 15px; fill: rgb(13, 13, 13); fill-opacity: 1; white-space: pre; opacity: 1;" transform="translate(603.79,0)">1.61254×10​<tspan style="font-size:70%" dy="-0.6em">18</tspan><tspan dy="0.42em">​</tspan></text></g></g><g class="yaxislayer-above"><g class="ytick"><text text-anchor="end" x="108" y="12.25" transform="translate(0,404.54)" style="font-family: 'Times New Roman'; font-size: 35px; fill: rgb(13, 13, 13); fill-opacity: 1; white-space: pre; opacity: 1;">0</text></g><g class="ytick"><text text-anchor="end" x="108" y="12.25" style="font-family: 'Times New Roman'; font-size: 35px; fill: rgb(13, 13, 13); fill-opacity: 1; white-space: pre; opacity: 1;" transform="translate(0,346.83000000000004)">20</text></g><g class="ytick"><text text-anchor="end" x="108" y="12.25" style="font-family: 'Times New Roman'; font-size: 35px; fill: rgb(13, 13, 13); fill-opacity: 1; white-space: pre; opacity: 1;" transform="translate(0,289.12)">40</text></g><g class="ytick"><text text-anchor="end" x="108" y="12.25" style="font-family: 'Times New Roman'; font-size: 35px; fill: rgb(13, 13, 13); fill-opacity: 1; white-space: pre; opacity: 1;" transform="translate(0,231.41)">60</text></g><g class="ytick"><text text-anchor="end" x="108" y="12.25" style="font-family: 'Times New Roman'; font-size: 35px; fill: rgb(13, 13, 13); fill-opacity: 1; white-space: pre; opacity: 1;" transform="translate(0,173.70999999999998)">80</text></g><g class="ytick"><text text-anchor="end" x="108" y="12.25" style="font-family: 'Times New Roman'; font-size: 35px; fill: rgb(13, 13, 13); fill-opacity: 1; white-space: pre; opacity: 1;" transform="translate(0,116)">100</text></g></g><g class="overaxes-above"/></g></g><g class="polarlayer"/><g class="smithlayer"/><g class="ternarylayer"/><g class="geolayer"/><g class="funnelarealayer"/><g class="pielayer"/><g class="iciclelayer"/><g class="treemaplayer"/><g class="sunburstlayer"/><g class="glimages"/><defs id="topdefs-d38691"><g class="clips"/></defs><g class="layer-above"><g class="imagelayer"/><g class="shapelayer"/></g><g class="infolayer"><g class="g-gtitle"/><g class="g-xtitle"><text class="xtitle" x="364.5" y="463.8" text-anchor="middle" style="font-family: 'Open Sans', verdana, arial, sans-serif; font-size: 14px; fill: rgb(42, 63, 95); opacity: 1; font-weight: normal; white-space: pre;">Time Steps (ns)</text></g><g class="g-ytitle" transform="translate(23.5,0)"><text class="ytitle" transform="rotate(-90,12.5,260)" x="12.5" y="260" text-anchor="middle" style="font-family: 'Times New Roman'; font-size: 40px; fill: rgb(13, 13, 13); opacity: 1; font-weight: normal; white-space: pre;">Fill rate (in %)</text></g></g></svg>