<svg class="main-svg" xmlns="http://www.w3.org/2000/svg" xmlns:xlink="http://www.w3.org/1999/xlink" width="700" height="500" style="" viewBox="0 0 700 500"><rect x="0" y="0" width="700" height="500" style="fill: rgb(255, 255, 255); fill-opacity: 1;"/><defs id="defs-b4a1e0"><g class="clips"><clipPath id="clipb4a1e0xyplot" class="plotclip"><rect width="399" height="300"/></clipPath><clipPath class="axesclip" id="clipb4a1e0x"><rect x="137" y="0" width="399" height="500"/></clipPath><clipPath class="axesclip" id="clipb4a1e0y"><rect x="0" y="100" width="700" height="300"/></clipPath><clipPath class="axesclip" id="clipb4a1e0xy"><rect x="137" y="100" width="399" height="300"/></clipPath></g><g class="gradients"/><g class="patterns"/></defs><g class="bglayer"><rect class="bg" x="137" y="100" width="399" height="300" style="fill: rgb(229, 236, 246); fill-opacity: 1; stroke-width: 0;"/></g><g class="layer-below"><g class="imagelayer"/><g class="shapelayer"/></g><g class="cartesianlayer"><g class="subplot xy"><g class="layer-subplot"><g class="shapelayer"/><g class="imagelayer"/></g><g class="minor-gridlayer"><g class="x"/><g class="y"/></g><g class="gridlayer"><g class="x"><path class="xgrid crisp" transform="translate(206.64,0)" d="M0,100v300" style="stroke: rgb(255, 255, 255); stroke-opacity: 1; stroke-width: 1px;"/><path class="xgrid crisp" transform="translate(285.82,0)" d="M0,100v300" style="stroke: rgb(255, 255, 255); stroke-opacity: 1; stroke-width: 1px;"/><path class="xgrid crisp" transform="translate(364.99,0)" d="M0,100v300" style="stroke: rgb(255, 255, 255); stroke-opacity: 1; stroke-width: 1px;"/><path class="xgrid crisp" transform="translate(444.17,0)" d="M0,100v300" style="stroke: rgb(255, 255, 255); stroke-opacity: 1; stroke-width: 1px;"/><path class="xgrid crisp" transform="translate(523.3399999999999,0)" d="M0,100v300" style="stroke: rgb(255, 255, 255); stroke-opacity: 1; stroke-width: 1px;"/></g><g class="y"><path class="ygrid crisp" transform="translate(0,378.58)" d="M137,0h399" style="stroke: rgb(255, 255, 255); stroke-opacity: 1; stroke-width: 1px;"/><path class="ygrid crisp" transform="translate(0,335.72)" d="M137,0h399" style="stroke: rgb(255, 255, 255); stroke-opacity: 1; stroke-width: 1px;"/><path class="ygrid crisp" transform="translate(0,292.86)" d="M137,0h399" style="stroke: rgb(255, 255, 255); stroke-opacity: 1; stroke-width: 1px;"/><path class="ygrid crisp" transform="translate(0,207.14)" d="M137,0h399" style="stroke: rgb(255, 255, 255); stroke-opacity: 1; stroke-width: 1px;"/><path class="ygrid crisp" transform="translate(0,164.28)" d="M137,0h399" style="stroke: rgb(255, 255, 255); stroke-opacity: 1; stroke-width: 1px;"/><path class="ygrid crisp" transform="translate(0,121.42)" d="M137,0h399" style="stroke: rgb(255, 255, 255); stroke-opacity: 1; stroke-width: 1px;"/></g></g><g class="zerolinelayer"><path class="yzl zl crisp" transform="translate(0,250)" d="M137,0h399" style="stroke: rgb(255, 255, 255); stroke-opacity: 1; stroke-width: 2px;"/></g><path class="xlines-below"/><path class="ylines-below"/><g class="overlines-below"/><g class="xaxislayer-below"/><g class="yaxislayer-below"/><g class="overaxes-below"/><g class="plot" transform="translate(137,100)" clip-path="url(#clipb4a1e0xyplot)"><g class="scatterlayer mlayer"><g class="trace scatter tracec73639" style="stroke-miterlimit: 2; opacity: 1;"><g class="fills"/><g class="errorbars"/><g class="lines"><path class="js-line" d="M0,218.56L0.14,15L0.74,147.86L0.77,147.86L1.59,154.29L1.59,152.14L1.61,152.14L1.66,122.14L1.77,175.72L2.33,147.86L2.37,147.86L2.7,145.71L2.73,156.43L3.12,147.86L3.13,152.14L3.57,158.57L3.78,141.43L3.78,141.43L3.84,160.71L3.99,141.43L4.57,150L4.61,150L5.23,145.71L5.31,154.29L5.31,154.29L5.4,147.86L5.63,143.57L6,154.29L6.23,147.86L6.3,152.14L6.97,147.86L6.99,147.86L7.57,143.57L7.61,156.43L7.75,152.14L7.8,147.86L8.57,152.14L8.57,152.14L8.61,147.86L8.89,141.43L8.91,156.43L9.39,152.14L9.39,150L9.49,147.86L9.94,154.28L10,147.86L10,145.72L10.24,143.57L10.61,156.43L10.69,145.72L10.76,150L11.25,145.72L11.27,154.28L11.46,147.86L11.51,152.14L12.18,147.86L12.19,150L12.25,152.14L13.05,147.86L13.05,147.86L13.06,152.14L13.81,147.86L13.81,147.86L13.82,152.14L14.45,147.86L14.53,150L14.68,147.86L14.87,145.72L14.98,154.28L15.39,152.14L15.39,147.86L15.9,141.43L15.94,160.71L16.12,152.14L16.16,147.86L16.33,143.58L16.39,158.57L16.91,147.86L16.94,147.86L17.1,147.86L17.1,147.86L17.19,152.14L17.55,156.42L17.58,143.58L17.93,150L17.98,152.14L18.06,154.28L18.09,143.58L18.62,152.14L18.63,147.86L19.37,152.14L19.37,152.14L19.39,147.86L20.03,145.72L20.1,154.28L20.11,145.72L20.2,147.86L20.68,154.28L20.98,152.14L21.04,147.86L21.51,152.14L21.77,150L21.81,150L21.91,152.14L22.31,147.86L22.47,152.14L22.5,152.14L23.22,147.86L23.28,152.14L23.6,154.28L23.61,145.72L24.04,147.86L24.05,150L24.3,147.86L24.66,152.14L24.72,150L24.77,147.86L25.43,152.14L25.51,150L25.53,147.86L25.84,154.28L26.26,152.14L26.3,147.86L26.94,152.14L27,147.86L27.12,147.86L27.91,152.14L27.91,152.14L27.96,147.86L28.03,145.72L28.69,152.14L28.7,150L28.77,147.86L29.54,152.14L29.54,152.14L29.55,150L29.96,156.42L30.14,145.72L30.29,150L30.33,147.86L31.08,152.14L31.11,147.86L31.83,152.14L31.88,150L32.02,147.86L32.55,152.14L32.55,152.14L32.55,147.86L33.34,152.14L33.34,152.14L33.37,147.86L33.37,141.43L33.41,160.71L34.12,152.14L34.14,150L34.27,141.43L34.43,156.42L34.92,152.14L34.99,152.14L35.45,156.42L35.47,145.72L35.73,150L35.75,150L35.8,147.86L36.44,152.14L36.5,150L36.52,150L36.7,154.28L37.19,145.72L37.19,145.72L37.19,154.28L37.37,145.72L37.94,147.86L37.95,150L38.02,152.14L38.65,147.86L38.65,147.86L38.68,156.43L39.44,147.86L39.49,152.14L40.22,147.86L40.22,147.86L40.25,152.14L40.43,158.57L40.61,143.58L40.89,145.72L40.94,156.42L41.54,145.72L41.66,156.42L41.71,152.14L42.2,154.28L42.48,147.86L42.52,154.28L42.53,145.72L43.26,150L43.3,152.14L43.46,152.14L43.46,152.14L43.46,147.86L43.74,143.58L43.75,160.71L44.21,152.14L44.22,152.14L44.27,156.42L44.96,147.86L44.96,152.14L44.99,150L45.08,154.28L45.64,145.72L45.75,152.14L45.77,152.14L46.38,135.01L46.43,162.85L46.49,143.58L46.56,150L47.1,154.28L47.11,145.72L47.31,150L47.32,150L47.79,145.72L47.81,154.28L48.03,147.86L48.04,147.86L48.38,143.58L48.77,152.14L48.77,152.14L48.81,147.86L49.57,152.14L49.57,152.14L49.57,147.86L50.27,152.14L50.31,147.86L50.36,152.14L50.36,147.86L51.11,152.14L51.13,152.14L51.29,154.28L51.57,145.72L51.89,150L51.95,147.86L52.1,145.72L52.73,152.14L52.75,147.86L52.92,143.58L53.03,158.56L53.5,147.86L53.54,147.86L53.84,156.42L54.25,150L54.3,152.14L55,147.86L55,147.86L55.06,152.14L55.6,158.56L55.66,141.44L55.74,156.42L55.77,156.42L56.31,158.56L56.34,141.44L56.49,154.28L56.53,158.56L56.71,143.58L56.75,160.7L57.32,150L57.37,147.86L57.85,154.28L58.12,150L58.19,147.86L58.3,145.72L58.71,156.42L58.91,150L58.95,150L58.98,152.14L59.7,147.86L59.7,150L59.72,150L59.81,152.14L60.43,147.86L60.43,152.14L60.52,154.28L60.85,147.86L61.17,152.14L61.2,150L61.24,152.14L61.89,147.86L61.89,150L61.96,150L62.06,147.86L62.68,152.14L62.68,152.14L62.81,150L63.16,145.72L63.42,152.14L63.48,147.86L63.51,145.72L63.56,154.28L64.23,150L64.28,147.86L64.64,160.71L64.68,141.43L65,152.14L65,145.72L65.07,156.42L65.76,150L65.78,150L66.13,154.28L66.14,145.72L66.49,150L66.61,147.86L66.63,156.42L66.8,145.72L67.34,147.86L67.37,147.86L67.87,154.28L67.96,145.72L68.13,152.14L68.13,145.72L68.62,139.29L68.79,156.43L68.79,141.43L69.48,152.14L69.54,150L69.55,150L69.59,147.86L70.26,152.14L70.3,150L70.31,150L70.35,145.72L70.43,156.42L71.03,147.86L71.06,147.86L71.7,145.72L71.83,152.14L71.83,147.86L72.39,152.14L72.56,150L72.56,147.86L72.9,145.72L73.05,156.43L73.29,147.86L73.32,147.86L73.94,152.14L74.05,145.72L74.05,145.72L74.07,145.72L74.4,154.28L74.82,152.14L74.85,147.86L75.55,152.14L75.58,147.86L75.63,147.86L75.67,145.72L76.41,152.14L76.41,152.14L76.45,147.86L76.63,154.28L76.66,145.72L77.18,150L77.18,145.72L77.68,154.28L78.01,152.14L78.03,147.86L78.73,152.14L78.83,150L78.84,147.86L79,160.71L79.06,139.29L79.57,145.72L79.6,147.86L79.68,145.72L80.39,152.14L80.39,152.14L80.41,147.86L80.88,154.28L81.15,147.86L81.18,150L81.32,152.14L81.9,147.86L81.9,147.86L81.95,150L81.98,152.14L82.21,145.72L82.69,147.86L82.71,147.86L83.42,145.72L83.47,152.14L83.47,150L83.52,152.14L83.89,154.28L84.17,145.72L84.29,147.86L84.35,150L84.35,147.86L84.87,154.28L85.08,150L85.12,147.86L85.91,152.14L85.91,152.14L85.94,152.14L86.23,145.72L86.75,147.86L86.76,152.14L87.1,154.28L87.2,145.72L87.51,147.86L87.56,147.86L87.61,156.43L87.76,143.57L88.31,147.86L88.34,152.14L88.95,145.72L89.04,147.86L89.06,154.28L89.58,145.72L89.84,147.86L89.85,152.14L90.15,141.43L90.4,158.57L90.56,154.28L90.61,154.28L90.62,141.43L90.62,156.42L91.31,152.14L91.4,147.86L92.17,152.14L92.18,150L92.73,160.71L92.76,141.43L92.81,143.58L92.83,160.71L93.63,147.86L93.64,150L93.67,152.14L93.77,145.72L94,186.39L94.41,147.86L94.45,154.28L94.71,177.83L94.96,141.44L95.19,152.14L95.22,152.14L95.37,154.28L95.81,145.72L95.96,152.14L95.96,154.28L96.39,143.58L96.73,147.86L96.78,154.28L97.05,145.72L97.55,147.86L97.56,152.14L97.76,145.72L98.3,152.14L98.33,152.14L98.39,145.72L98.85,156.42L99.08,147.86L99.09,152.14L99.31,156.42L99.34,143.58L99.74,152.14L99.76,147.86L100.07,145.72L100.27,156.42L100.45,147.86L100.46,147.86L100.66,154.28L101.19,147.86L101.2,147.86L101.58,156.42L101.93,145.72L101.94,152.14L101.98,147.86L102.29,145.72L102.31,154.28L102.76,152.14L102.79,152.14L103.54,145.72L103.6,152.14L103.94,141.44L103.96,160.7L104.37,147.86L104.39,150L104.56,141.44L104.57,160.7L105.16,152.14L105.18,147.86L105.48,154.28L105.67,139.3L105.93,152.14L106.01,147.86L106.34,158.56L106.38,145.72L106.74,152.14L106.81,147.86L107.19,143.58L107.21,158.56L107.55,152.14L107.58,147.86L108.01,145.72L108.34,156.42L108.34,152.14L108.38,152.14L108.41,154.28L108.42,147.86L109.11,150L109.22,147.86L109.94,152.14L109.94,152.14L109.99,147.86L110.32,154.28L110.69,150L110.75,147.86L110.79,143.58L111.15,156.42L111.51,152.14L111.55,152.14L112.34,147.86L112.34,147.86L112.34,152.14L112.42,147.86L113,152.14L113.14,150L113.74,145.72L113.78,154.28L113.88,152.14L113.94,152.14L114.46,147.86L114.72,150L114.75,152.14L114.88,141.44L115.05,154.28L115.5,147.86L115.51,152.14L116.13,147.86L116.26,150L116.28,152.14L116.62,154.28L116.74,145.72L117.02,152.14L117.04,152.14L117.43,156.42L117.48,145.72L117.79,147.86L117.82,152.14L118.28,143.58L118.32,154.28L118.48,150L118.48,152.14L119.1,156.42L119.17,147.86L119.21,156.42L119.28,143.58L119.96,150L119.97,152.14L120.75,139.3L120.78,152.14L121.09,154.28L121.43,147.86L121.52,150L121.55,147.86L122.18,152.14L122.37,150L122.39,147.86L122.48,154.28L123.11,152.14L123.16,150L123.27,156.42L123.28,145.72L123.88,152.14L123.93,150L123.97,147.86L124.66,152.14L124.66,152.14L124.69,147.86L125.4,152.14L125.44,150L125.45,147.86L126.21,152.14L126.21,152.14L126.23,150L126.27,147.86L126.99,154.28L126.99,154.28L127.01,154.28L127.33,145.72L127.71,154.28L127.78,147.86L127.85,152.14L128.52,150L128.56,152.14L128.64,154.28L128.69,145.72L129.3,150L129.36,147.86L129.51,145.72L130.08,152.14L130.11,150L130.13,147.86L130.9,152.14L130.99,152.14L131.73,147.86L131.73,147.86L131.75,152.14L132.43,154.28L132.44,145.72L132.46,147.86L132.53,147.86L132.78,145.72L132.95,158.56L133.28,152.14L133.36,147.86L134.02,152.14L134.09,150L134.14,150L134.4,141.44L134.41,154.28L134.88,152.14L134.92,150L135,147.86L135.52,154.28L135.66,152.14L135.68,150L136.05,156.42L136.44,145.72L136.44,147.86L136.44,156.42L136.47,160.7L136.65,145.72L137.13,152.14L137.16,147.86L137.33,143.58L137.83,156.42L137.94,152.14L137.95,152.14L138.38,154.28L138.46,141.44L138.73,147.86L138.8,147.86L139.14,143.58L139.25,158.56L139.53,154.28L139.54,143.58L140.41,152.14L140.41,152.14L140.48,147.86L140.64,145.72L141.01,152.14L141.17,145.72L141.27,143.58L141.99,156.42L142.03,147.86L142.06,147.86L142.19,143.58L142.39,152.14L142.78,145.72L142.84,147.86L143.15,154.28L143.6,152.14L143.63,150L144.13,156.42L144.14,143.58L144.33,152.14L144.38,147.86L144.38,154.28L144.59,145.72L145.1,147.86L145.17,147.86L145.69,145.72L145.94,156.42L146,139.3L146.72,152.14L146.74,147.86L146.77,150L146.89,145.72L146.92,154.28L147.5,152.14L147.56,150L147.68,152.14L148.18,145.72L148.3,152.14L148.34,147.86L149.09,152.14L149.09,152.14L149.17,147.86L149.84,152.14L149.9,147.86L149.95,150L149.95,147.86L150.51,154.28L150.69,147.86L150.73,152.14L151.13,143.58L151.49,150L151.53,150L151.7,152.14L152.26,145.72L152.28,147.86L152.29,150L152.5,152.14L152.66,147.86L152.66,147.86L152.73,154.28L153,158.56L153.04,143.58L153.5,147.86L153.52,152.14L153.99,145.72L154.3,147.86L154.33,147.86L154.47,145.72L155.11,158.57L155.11,158.57L155.19,150L155.19,154.28L155.2,145.72L155.93,150L155.96,147.86L156.67,152.14L156.75,150L156.79,150L157.02,152.14L157.39,145.72L157.49,152.14L157.5,152.14L157.91,156.42L158.17,145.72L158.17,145.72L158.31,152.14L158.44,154.28L158.45,145.72L159.06,152.14L159.07,147.86L159.36,145.72L159.66,154.28L159.77,145.72L159.88,145.72L160.32,154.28L160.47,139.3L160.58,145.72L160.64,147.86L161.25,152.14L161.38,147.86L161.41,147.86L161.72,143.58L162.18,154.28L162.2,150L162.26,145.72L162.27,154.28L163,147.86L163.02,147.86L163.5,143.58L163.77,152.14L163.77,152.14L163.78,147.86L164.2,158.56L164.22,141.44L164.53,147.86L164.56,147.86L164.64,137.15L165.05,160.7L165.11,139.3L165.14,139.3L165.77,154.28L165.95,147.86L165.98,147.86L166.23,145.72L166.68,154.28L166.74,150L166.83,147.86L167.19,145.72L167.27,154.28L167.53,150L167.58,145.72L167.73,143.58L167.77,152.14L167.84,147.86L167.89,152.14L168.47,126.46L168.55,156.42L168.64,147.86L168.65,152.14L168.68,141.44L168.84,156.42L169.4,147.86L169.43,147.86L170.17,152.14L170.18,147.86L170.2,152.14L170.36,154.28L170.78,145.72L170.95,152.14L170.96,152.14L171.08,156.42L171.19,141.44L171.71,152.14L171.78,152.14L172.04,154.28L172.49,147.86L172.53,152.14L172.55,147.86L173.25,154.28L173.31,150L173.37,147.86L174.14,154.28L174.2,150L174.72,147.86L174.76,152.14L174.78,150L174.87,147.86L175.63,152.14L175.66,147.86L176.06,156.42L176.08,143.58L176.37,147.86L176.46,152.14L176.71,145.72L177.28,147.86L177.3,147.86L177.3,152.14L178.05,147.86L178.08,147.86L178.43,154.28L178.81,145.72L178.89,154.28L179.36,156.42L179.37,143.58L179.63,147.86L179.65,152.14L180.31,147.86L180.33,154.28L180.56,143.58L180.88,156.42L181.04,152.14L181.09,152.14L181.15,154.28L181.45,145.72L181.8,150L181.89,147.86L182.42,154.28L182.63,152.14L182.66,147.86L183.21,145.72L183.26,154.28L183.34,145.72L183.42,145.72L184.12,152.14L184.16,150L184.25,152.14L185.01,147.86L185.01,147.86L185.03,152.14L185.76,147.86L185.78,152.14L185.8,152.14L185.87,154.28L186.54,147.86L186.54,147.86L186.57,154.28L187.31,147.86L187.31,147.86L187.33,152.14L187.35,147.86L188.05,152.14L188.11,152.14L188.71,147.86L188.72,158.56L188.76,158.56L189.19,145.72L189.49,152.14L189.57,147.86L190.05,145.72L190.32,152.14L190.33,150L190.51,154.28L190.66,147.86L191.02,152.14L191.04,147.86L191.33,154.28L191.81,150L191.82,150L191.98,145.72L192.11,158.56L192.62,152.14L192.63,150L192.76,147.86L192.79,158.56L193.35,150L193.35,145.72L194,158.56L194.11,152.14L194.17,154.28L194.72,145.72L194.75,156.42L194.93,147.86L194.98,152.14L195.05,154.28L195.66,147.86L195.72,150L195.78,152.14L196.16,154.28L196.54,147.86L196.57,147.86L197.22,145.72L197.22,154.28L197.27,152.14L197.38,147.86L198.15,156.42L198.16,150L198.6,154.28L198.62,145.72L198.75,147.86L198.89,154.28L199.12,145.72L199.77,147.86L199.78,150L200.1,145.72L200.31,154.28L200.46,147.86L200.54,147.86L200.61,145.72L200.82,156.42L201.33,152.14L201.36,147.86L201.49,156.42L201.5,145.72L202.04,145.72L202.08,145.72L202.82,154.28L202.87,152.14L202.88,145.72L203.26,154.28L203.64,147.86L203.66,147.86L204.07,154.28L204.4,152.14L204.46,147.86L205.14,152.14L205.16,147.86L205.22,147.86L205.85,152.14L205.97,150L205.98,143.58L206.16,141.44L206.73,152.14L206.75,150L206.8,152.14L207.51,143.58L207.56,156.42L207.99,143.58L208.3,150L208.37,150L209,143.58L209.11,152.14L209.14,147.86L209.45,154.28L209.88,147.86L209.92,147.86L210.45,145.72L210.45,154.28L210.68,150L210.7,145.72L211.5,152.14L211.5,152.14L211.51,147.86L211.97,152.14L212.03,145.72L212.26,147.86L212.29,147.86L212.29,145.72L212.79,152.14L213.03,145.72L213.06,152.14L213.8,147.86L213.8,150L213.85,147.86L214.57,145.72L214.6,152.14L214.61,150L214.62,150L214.62,152.14L215.23,143.58L215.34,143.58L215.38,156.42L215.59,158.56L215.65,141.44L216.13,145.72L216.14,154.28L216.78,145.72L216.9,150L216.92,152.14L217.01,154.28L217.47,143.58L217.58,145.72L217.59,156.42L217.65,145.72L218.31,147.86L218.36,150L218.5,147.86L219.07,152.14L219.11,150L219.12,147.86L219.69,143.58L219.88,154.28L219.88,154.28L219.88,147.86L220.09,145.72L220.17,156.42L220.72,154.28L220.74,152.14L220.83,147.86L221.49,150L221.54,152.14L221.72,141.44L222.13,147.86L222.13,152.14L222.87,147.86L222.87,147.86L222.94,150L223.12,143.58L223.29,154.28L223.67,152.14L223.67,147.86L223.78,154.28L224.38,152.14L224.4,147.86L224.44,141.44L224.55,156.42L225.16,152.14L225.17,147.86L225.91,152.14L225.91,152.14L226,147.86L226.77,154.28L226.82,152.14L227.18,154.28L227.53,147.86L227.57,150L227.6,154.28L228.33,141.44L228.39,145.72L229.06,152.14L229.06,150L229.06,143.58L229.15,139.31L229.16,160.69L229.81,152.14L229.89,147.86L229.93,152.14L230.59,152.14L230.68,147.86L231.38,152.14L231.39,150L231.47,152.14L231.83,158.55L231.88,141.45L232.21,150L232.24,152.14L232.42,154.28L232.9,145.72L233.02,147.86L233.04,150L233.12,147.86L233.76,152.14L233.79,150L233.8,150L233.88,147.86L234.39,152.14L234.43,145.72L234.43,154.28L235.15,150L235.19,150L235.58,145.72L235.65,154.28L235.91,150L235.93,147.86L236.69,152.14L236.7,150L236.79,147.86L236.82,156.42L237.41,152.14L237.44,152.14L238.11,147.86L238.15,152.14L238.21,152.14L238.77,145.72L238.94,152.14L239.02,147.86L239.48,145.72L239.79,154.28L239.79,154.28L239.81,147.86L239.92,156.42L240.55,152.14L240.59,147.86L240.6,152.14L241.32,147.86L241.36,152.14L242.1,145.72L242.1,152.14L242.21,154.28L242.97,147.86L242.99,152.14L243.59,154.28L243.67,145.72L243.69,154.28L243.73,154.28L244.49,147.86L244.5,150L244.52,152.14L245.21,156.42L245.22,143.58L245.28,147.86L245.3,152.14L245.7,154.28L246,147.86L246.05,150L246.08,152.14L246.55,154.28L246.59,145.72L246.74,152.14L246.85,152.14L247.23,160.69L247.31,143.58L247.61,147.86L247.68,147.86L248.13,143.58L248.14,156.42L248.45,152.14L248.46,152.14L249.09,154.28L249.24,147.86L249.24,147.86L249.27,152.14L250.02,147.86L250.02,147.86L250.05,152.14L250.82,147.86L250.82,147.86L250.83,152.14L251.19,145.72L251.57,156.42L251.57,156.42L251.62,154.28L251.73,145.72L252.38,147.86L252.42,152.14L252.93,158.55L253.13,141.45L253.18,147.86L253.18,156.42L253.29,158.56L253.41,143.58L253.92,152.14L253.99,147.86L254.74,152.14L254.74,152.14L254.81,152.14L255.18,154.28L255.21,145.72L255.55,147.86L255.57,152.14L255.69,147.86L256.28,158.56L256.4,147.86L256.76,139.3L256.81,160.7L257.13,150L257.16,147.86L257.52,145.72L257.54,154.28L257.87,150L257.92,147.86L258.07,143.58L258.69,154.28L258.69,152.14L258.72,145.72L259.35,152.14L259.46,147.86L259.52,147.86L260.12,152.14L260.26,150L260.28,147.86L261.05,154.28L261.07,150L261.07,145.72L261.66,154.28L261.85,152.14L261.88,147.86L262.54,152.14L262.56,147.86L262.65,152.14L263.34,147.86L263.34,147.86L263.43,152.14L263.43,147.86L264.11,152.14L264.19,147.86L264.8,141.44L264.83,158.56L264.94,147.86L264.99,147.86L265.11,145.72L265.11,154.28L265.51,147.86L265.52,152.14L265.62,156.42L265.79,143.58L266.25,152.14L266.31,147.86L266.31,154.28L266.6,145.72L267.06,150L267.08,145.72L267.79,152.14L267.79,152.14L267.93,147.86L268.66,152.14L268.69,147.86L268.72,154.28L268.91,145.72L269.42,147.86L269.43,152.14L270.26,143.58L270.27,147.86L270.27,150L270.52,154.28L270.63,143.58L271.02,147.86L271.03,152.14L271.23,154.28L271.42,145.72L271.78,147.86L271.8,152.14L272.06,141.44L272.18,156.42L272.5,154.28L272.57,152.14L272.98,141.44L273.07,154.28L273.33,147.86L273.38,147.86L274.09,154.28L274.09,145.72L274.13,152.14L274.16,147.86L274.28,154.28L274.64,145.72L274.92,150L274.92,147.86L275.31,145.72L275.32,154.28L275.66,150L275.68,147.86L275.88,145.72L276.04,154.28L276.44,152.14L276.45,150L276.5,147.86L276.83,152.14L277.18,150L277.18,147.86L277.74,143.58L277.94,154.28L277.97,150L278.13,154.28L278.34,145.72L278.56,150L278.63,147.86L278.91,143.58L279.38,152.14L279.41,152.14L280.06,145.72L280.19,150L280.24,147.86L280.71,152.14L280.89,150L280.91,147.86L281.54,152.14L281.66,147.86L281.68,150L282.05,154.28L282.36,147.86L282.43,150L282.46,150L282.48,152.14L283.09,141.44L283.21,152.14L283.28,152.14L283.43,141.44L283.47,154.28L284.02,147.86L284.07,152.14L284.54,141.45L284.54,160.69L284.75,152.14L284.8,156.42L284.81,160.69L285.01,139.31L285.5,150L285.55,147.86L285.96,143.59L286.16,154.28L286.31,152.14L286.31,150L286.72,154.28L286.95,143.59L286.95,152.14L286.96,158.55L286.96,130.76L286.98,160.69L287.7,154.28L287.76,150L287.84,147.86L288.48,152.14L288.5,147.86L288.98,137.17L288.99,162.83L289.25,152.14L289.27,150L289.44,147.86L289.91,152.14L290.02,150L290.09,147.86L290.27,145.72L290.74,156.41L290.84,147.86L290.85,150L290.97,147.86L291.39,152.14L291.47,147.86L291.5,147.86L291.57,152.14L292.23,152.14L292.29,152.14L293.04,147.86L293.04,147.86L293.05,152.14L293.85,147.86L293.91,147.86L294.54,154.28L294.69,150L294.74,147.86L294.84,141.45L294.89,154.28L295.49,150L295.5,150L295.58,152.14L296.25,147.86L296.28,150L296.33,152.14L296.81,145.72L297.03,147.86L297.08,150L297.36,145.72L297.43,154.28L297.85,152.14L297.86,150L298.5,143.59L298.53,154.28L298.59,150L298.61,147.86L298.65,143.59L299.04,154.28L299.26,152.14L299.37,147.86L299.8,145.72L299.93,154.28L300.18,152.14L300.2,152.14L300.77,145.72L300.89,147.86L301.02,152.14L301.02,147.86L301.77,152.14L301.8,152.14L302.53,147.86L302.53,150L302.57,152.14L302.82,132.9L302.83,169.24L303.3,154.28L303.34,154.28L303.72,156.41L304.01,143.59L304.1,147.86L304.12,152.14L304.93,147.86L304.93,147.86L304.94,147.86L305.47,154.28L305.51,145.72L305.72,152.14L305.73,152.14L305.86,156.41L305.88,145.72L306.47,147.86L306.55,152.14L307.21,156.41L307.3,147.86L307.3,147.86L307.32,147.86L307.64,143.59L308.06,158.55L308.07,143.59L308.08,158.55L308.6,145.72L308.8,152.14L308.87,152.14L309.38,154.28L309.56,147.86L309.57,152.14L309.64,152.14L310.09,154.28L310.43,145.72L310.48,150L310.48,145.72L310.72,156.41L311.23,150L311.24,147.86L311.25,152.14L311.96,152.14L312.02,152.14L312.62,147.86L312.77,150L312.79,150L312.95,154.28L313.48,147.86L313.52,150L313.54,152.14L313.84,154.28L313.88,145.72L314.29,152.14L314.32,150L314.69,154.28L314.84,145.72L315.08,152.14L315.12,152.14L315.23,156.41L315.64,147.86L315.84,150L315.88,152.14L315.92,147.86L316.63,150L316.65,152.14L317.24,154.28L317.25,143.59L317.25,154.28L317.25,160.69L317.88,147.86L317.99,152.14L318.06,152.14L318.16,154.28L318.61,145.72L318.78,150L318.82,152.14L318.82,147.86L319.54,147.86L319.6,147.86L320.22,145.72L320.41,152.14L320.44,147.86L320.73,154.28L321.2,152.14L321.21,147.86L321.98,152.14L321.99,152.14L322.6,147.86L322.74,152.14L322.8,150L322.82,154.28L322.92,145.72L323.55,152.14L323.56,147.86L324.18,154.28L324.24,150L324.33,152.14L324.62,158.55L325.08,147.86L325.08,150L325.09,156.41L325.49,145.72L325.87,152.14L325.93,152.14L326.69,147.86L326.7,150L327.02,154.28L327.07,145.72L327.45,152.14L327.46,147.86L328.16,156.41L328.16,156.41L328.16,143.59L328.2,156.41L328.92,147.86L328.94,152.14L329.53,158.55L329.53,141.45L329.7,147.86L329.73,150L329.89,156.41L330.02,145.72L330.47,150L330.49,152.14L330.96,154.28L331.08,145.72L331.31,147.86L331.32,152.14L331.95,147.86L332.07,150L332.08,150L332.32,154.28L332.77,147.86L332.78,152.14L332.78,147.86L333.52,152.14L333.59,150L333.95,152.14L334.33,147.86L334.36,152.14L334.61,145.72L334.77,154.28L335.02,147.86L335.14,152.14L335.29,145.72L335.37,154.28L335.88,147.86L335.9,152.14L336.2,154.28L336.43,145.72L336.66,147.86L336.66,150L336.99,145.72L337.18,156.42L337.38,152.14L337.4,152.14L337.59,147.86L338.15,147.86L338.16,152.14L338.92,147.86L338.94,147.86L339.27,145.72L339.67,152.14L339.71,150L339.72,150L339.74,154.28L340,147.86L340.46,147.86L340.48,147.86L340.55,152.14L341.2,150L341.24,152.14L341.86,147.86L341.95,150L342,152.14L342.57,154.28L342.69,145.72L342.73,152.14L342.8,150L342.97,145.72L342.98,154.28L343.55,152.14L343.58,147.86L344.22,152.14L344.28,150L344.29,147.86L344.46,145.72L344.61,156.42L345.05,154.28L345.07,145.72L345.09,154.28L345.8,147.86L345.84,147.86L345.96,145.72L346.55,152.14L346.57,145.72L347.28,152.14L347.36,150L347.36,154.28L347.4,145.72L348.09,147.86L348.13,147.86L348.57,152.14L348.88,147.86L348.91,147.86L348.99,145.72L349.31,154.28L349.57,152.14L349.62,147.86L350.42,158.56L350.45,156.42L350.47,141.44L350.55,156.42L351.23,147.86L351.26,147.86L351.54,145.72L351.6,154.28L351.99,147.86L352.03,147.86L352.71,152.14L352.78,150L352.81,150L353.35,154.28L353.42,145.72L353.55,152.14L353.56,152.14L354.27,147.86L354.27,147.86L354.32,152.14L354.76,154.28L355.06,147.86L355.06,152.14L355.12,147.86L355.44,154.28L355.48,145.72L355.87,150L355.88,150L356.37,152.14L356.59,147.86L356.61,152.14L356.63,152.14L356.63,147.86L357.36,150L357.42,147.86L357.82,141.44L357.83,158.56L358.15,147.86L358.21,147.86L358.57,156.42L358.64,143.58L358.95,152.14L358.98,147.86L358.98,152.14L359.68,143.58L359.73,145.72L359.81,154.28L359.85,145.72L360.57,147.86L360.59,152.14L360.71,154.28L360.78,145.72L361.32,154.28L361.35,154.28L361.67,143.58L362.11,147.86L362.11,152.14L362.76,145.72L362.76,154.28L362.87,147.86L362.87,152.14L362.99,145.72L363.62,147.86L363.64,152.14L364.02,145.72L364.38,150L364.4,152.14L364.56,154.28L364.57,145.72L365.16,147.86L365.18,150L365.33,152.14L365.9,147.86L365.95,152.14L366.11,154.28L366.54,143.58L366.72,150L366.75,152.14L366.89,154.28L367.46,145.72L367.47,154.28L367.51,150L367.67,152.14L368.23,147.86L368.25,152.14L368.89,145.72L368.95,156.42L368.96,154.28L369.01,152.14L369.3,145.72L369.58,154.28L369.75,147.86L369.77,147.86L370.55,152.14L370.57,150L371.19,152.14L371.23,143.58L371.29,143.58L371.36,147.86L371.66,154.28L371.71,143.58L372.02,147.86L372.05,145.72L372.05,154.28L372.76,152.14L372.84,147.86L373.61,152.14L373.61,152.14L373.66,147.86L374.42,152.14L374.42,150L374.46,147.86L374.57,145.72L374.65,156.42L375.17,150L375.26,150L375.49,141.45L375.62,156.42L376,150L376.03,152.14L376.04,147.86L376.77,147.86L376.79,147.86L377.56,152.14L377.56,152.14L377.58,152.14L377.77,154.28L378.32,143.59L378.35,147.86L378.4,154.28L378.75,132.9L379.14,154.28L379.16,154.28L379.9,145.72L379.93,147.86L380.67,152.14L380.68,150L380.7,150L380.82,147.86L381.4,152.14L381.42,147.86L381.44,147.86L381.44,152.14L382.19,152.14L382.24,152.14L382.32,160.69L382.53,139.31L382.95,147.86L382.96,150L383.14,139.31L383.21,158.55L383.7,154.27L383.72,154.27L384.06,158.55L384.36,147.86L384.36,147.86L384.48,152.14L384.54,145.72L385.22,152.14L385.24,152.14L385.65,158.55L385.72,141.45L385.99,152.14L386.01,152.14L386.13,143.59L386.21,158.55L386.74,152.14L386.8,152.14L386.95,145.72L387.06,154.28L387.53,152.14L387.59,152.14L387.67,147.86L388.34,152.14L388.35,147.86L388.9,152.14L389.09,147.86L389.13,150L389.42,154.28L389.72,145.72L389.85,147.86L389.88,152.14L390.14,158.55L390.33,143.59L390.61,152.14L390.64,152.14L390.71,143.59L390.72,156.41L391.38,150L391.41,152.14L391.54,154.28L391.92,145.72L392.12,147.86L392.16,154.28L392.16,147.86L392.91,152.14L392.92,152.14L393.61,147.86L393.62,150L393.68,152.14L394.48,147.86L394.48,147.86L394.52,152.14L395.24,147.86L395.27,150L395.29,150L395.41,147.86L395.42,152.14L395.93,150L396,152.14L396.28,158.55L396.33,143.59L396.72,145.72L396.77,154.28L397.38,145.72L397.48,150L397.55,150L397.94,156.41L398.03,143.59L398.21,145.72L398.22,156.41L398.59,158.55L398.96,145.72L398.98,147.86L398.99,158.55L399,139.31" style="vector-effect: non-scaling-stroke; fill: none; stroke: rgb(99, 110, 250); stroke-opacity: 1; stroke-width: 2px; opacity: 1;"/></g><g class="points"/><g class="text"/></g><g class="trace scatter tracee026dd" style="stroke-miterlimit: 2; opacity: 1;"><g class="fills"/><g class="errorbars"/><g class="lines"><path class="js-line" d="M0,81.44L0.14,285L0.77,152.14L0.84,147.86L1.42,152.14L1.51,145.71L1.59,145.71L1.68,169.29L1.77,122.14L2.21,145.71L2.22,145.71L2.7,156.43L2.73,143.57L2.92,154.29L2.98,143.57L3.57,141.43L3.78,160.71L3.78,147.86L3.84,139.29L3.99,158.57L4.57,152.14L4.61,147.86L5.15,156.43L5.29,143.57L5.31,145.71L5.4,152.14L6,145.71L6.23,152.14L6.94,147.86L6.97,152.14L6.99,152.14L7.6,141.43L7.66,156.43L7.75,147.86L7.8,152.14L8.57,147.86L8.57,147.86L8.61,152.14L8.89,158.57L8.91,141.43L9.39,147.86L9.47,147.86L9.94,145.72L10,154.28L10.22,147.86L10.24,147.86L10.52,156.43L10.61,143.57L10.98,147.86L10.99,152.14L11.25,154.28L11.27,145.72L11.69,152.14L11.81,152.14L12.51,147.86L12.51,147.86L12.58,147.86L13.23,152.14L13.23,152.14L13.38,152.14L14.14,147.86L14.14,147.86L14.15,152.14L14.87,147.86L14.92,152.14L15.45,145.72L15.69,147.86L15.69,154.28L15.94,139.29L16.39,141.43L16.51,152.14L16.7,143.58L16.85,154.28L17.23,152.14L17.26,152.14L17.58,156.42L17.59,143.58L18.06,145.72L18.09,154.28L18.09,156.42L18.18,145.72L18.82,147.86L18.93,152.14L19.43,147.86L19.67,152.14L19.7,152.14L19.93,154.28L20.1,145.72L20.44,147.86L20.51,147.86L20.68,145.72L21.23,152.14L21.23,152.14L21.31,147.86L22.05,152.14L22.05,147.86L22.16,147.86L22.16,152.14L22.89,147.86L22.94,152.14L23.6,145.72L23.61,154.28L23.61,154.28L23.7,152.14L23.96,154.28L24.47,147.86L24.47,152.14L25.24,147.86L25.24,147.86L25.25,147.86L25.78,143.58L25.9,152.14L26.06,147.86L26.06,152.14L26.8,147.86L26.87,147.86L27.64,152.14L27.64,152.14L27.69,147.86L27.74,145.72L28.03,154.28L28.42,152.14L28.47,147.86L28.8,145.72L29.29,152.14L29.29,152.14L29.32,147.86L29.32,152.14L30.07,145.72L30.07,145.72L30.08,145.72L30.14,154.28L30.83,147.86L30.86,147.86L31.01,147.86L31.01,147.86L31.04,152.14L31.79,147.86L31.79,147.86L31.83,147.86L32.59,152.14L32.68,147.86L33.37,152.14L33.37,147.86L33.41,139.29L33.86,154.28L34.14,147.86L34.18,152.14L34.37,158.57L34.43,141.43L34.92,147.86L34.99,147.86L35.08,145.72L35.65,154.28L35.75,152.14L35.76,147.86L36.52,152.14L36.59,152.14L36.99,143.58L37.2,154.28L37.26,145.72L37.37,154.28L37.5,145.72L38.14,147.86L38.14,152.14L38.68,141.43L38.88,147.86L38.9,152.14L39.64,147.86L39.66,152.14L39.66,147.86L40.41,147.86L40.42,152.14L40.43,141.43L40.58,158.57L41.17,147.86L41.22,152.14L41.66,143.58L41.95,152.14L41.99,152.14L42.53,154.28L42.54,145.72L42.75,147.86L42.8,152.14L43.5,154.28L43.51,145.72L43.55,147.86L43.57,152.14L43.75,139.29L43.84,158.56L44.28,145.72L44.36,152.14L45.08,145.72L45.09,154.28L45.85,143.58L45.85,143.58L45.89,156.42L46.43,137.15L46.43,162.85L46.64,145.72L46.69,152.14L47.1,145.72L47.11,154.28L47.44,152.14L47.47,152.14L47.79,154.28L48.23,145.72L48.23,152.14L48.39,158.56L48.98,147.86L48.98,147.86L48.99,152.14L49.7,147.86L49.71,152.14L49.8,147.86L50.42,152.14L50.55,147.86L50.57,147.86L51.34,156.42L51.36,147.86L51.53,154.28L51.57,145.72L51.95,152.14L52.01,152.14L52.1,156.42L52.73,147.86L52.75,152.14L52.82,147.86L52.95,141.44L52.99,158.56L53.6,152.14L53.62,152.14L53.84,143.58L54.42,147.86L54.43,152.14L55.09,147.86L55.18,152.14L55.24,152.14L55.66,158.56L55.77,141.44L56.02,147.86L56.05,147.86L56.31,141.44L56.34,158.56L56.72,147.86L56.73,141.44L56.8,139.3L56.87,154.28L57.42,147.86L57.45,147.86L57.82,154.28L57.85,145.72L58.21,152.14L58.23,147.86L58.43,154.28L58.44,145.72L59.01,152.14L59.02,147.86L59.77,152.14L59.81,147.86L59.98,147.86L59.98,147.86L60,152.14L60.52,145.72L60.75,147.86L60.77,152.14L60.86,145.72L61.52,152.14L61.54,152.14L62.27,147.86L62.27,147.86L62.36,152.14L62.36,147.86L63.11,152.14L63.16,154.28L63.88,145.72L63.96,147.86L63.97,152.14L64.67,141.43L64.68,160.71L65.07,143.58L65.44,147.86L65.45,152.14L66.08,154.28L66.13,145.72L66.14,154.28L66.21,152.14L66.63,158.57L66.68,143.58L66.96,152.14L66.99,152.14L67.74,147.86L67.74,152.14L67.78,147.86L67.87,145.72L68.15,156.42L68.53,152.14L68.57,147.86L68.62,160.71L68.77,141.43L69.32,152.14L69.32,147.86L70.08,152.14L70.09,152.14L70.35,156.42L70.43,143.58L70.83,152.14L70.88,152.14L71.62,147.86L71.64,152.14L71.74,154.28L72.39,147.86L72.39,147.86L72.42,152.14L72.9,154.28L73.09,143.57L73.18,147.86L73.19,152.14L73.94,147.86L73.94,147.86L73.95,152.14L74.21,156.43L74.47,145.72L74.69,152.14L74.71,152.14L74.71,147.86L74.72,154.28L75.45,152.14L75.51,152.14L75.67,154.28L76.29,147.86L76.29,147.86L76.29,152.14L76.52,154.28L76.65,145.72L77.03,152.14L77.08,154.28L77.49,143.57L77.81,147.86L77.87,147.86L78.54,152.14L78.64,147.86L79,139.29L79.07,160.71L79.37,147.86L79.42,147.86L79.57,156.43L80.17,147.86L80.18,147.86L80.88,152.14L80.88,147.86L80.88,145.72L81.65,152.14L81.65,152.14L81.7,147.86L82.29,154.28L82.45,147.86L82.46,147.86L82.49,154.28L83.06,145.72L83.18,147.86L83.23,147.86L83.28,145.72L83.98,154.28L84.01,147.86L84.08,145.72L84.17,154.28L84.78,152.14L84.8,147.86L84.87,145.72L85.5,152.14L85.55,147.86L85.61,147.86L86.28,154.28L86.36,152.14L86.4,152.14L86.84,154.28L87.1,145.72L87.14,152.14L87.16,152.14L87.28,143.57L87.76,156.43L87.87,147.86L87.93,147.86L88.62,154.28L88.67,152.14L88.74,154.28L89.55,145.72L89.58,147.86L90.25,152.14L90.34,147.86L90.4,139.29L90.62,158.57L91.1,152.14L91.12,152.14L91.89,147.86L91.89,147.86L91.98,152.14L92.74,139.29L92.74,139.29L92.75,160.71L92.83,139.29L93.47,152.14L93.52,152.14L93.79,154.28L93.79,143.58L93.86,147.86L94,113.61L94.81,154.28L94.85,152.14L94.94,141.44L94.96,158.56L95.49,145.72L95.55,145.72L95.81,154.28L96.27,147.86L96.34,145.72L96.35,143.58L96.36,158.56L97.06,145.72L97.1,147.86L97.14,145.72L97.73,154.28L97.74,152.14L97.76,154.28L98.44,145.72L98.54,147.86L98.54,152.14L99.17,143.58L99.21,152.14L99.23,156.42L99.82,143.58L99.98,152.14L100.01,152.14L100.14,156.42L100.18,143.58L100.69,152.14L100.75,147.86L101.21,145.72L101.32,154.28L101.53,152.14L101.53,143.58L102.29,154.28L102.29,154.28L102.31,145.72L102.4,154.28L103.04,152.14L103.1,147.86L103.62,152.14L103.81,147.86L103.86,147.86L103.93,160.7L103.96,139.3L104.46,147.86L104.5,145.72L104.57,139.3L104.99,158.56L105.26,152.14L105.28,147.86L105.46,145.72L105.67,160.7L106.04,152.14L106.05,147.86L106.34,141.44L106.5,154.28L106.82,152.14L106.84,147.86L107.19,158.56L107.21,141.44L107.59,147.86L107.63,152.14L108.01,156.42L108.34,143.58L108.39,147.86L108.39,152.14L108.41,143.58L109.11,152.14L109.22,152.14L109.94,147.86L109.94,147.86L109.99,152.14L110.46,143.58L110.69,152.14L110.75,152.14L110.82,158.56L111.15,143.58L111.51,147.86L111.55,147.86L112.34,152.14L112.34,152.14L112.34,147.86L112.98,152.14L113,147.86L113.14,147.86L113.78,145.72L113.79,154.28L113.88,147.86L113.94,147.86L114.68,152.14L114.72,147.86L114.9,156.42L115.05,145.72L115.47,152.14L115.48,147.86L116.25,152.14L116.26,147.86L116.63,143.58L116.78,154.28L117.01,152.14L117.02,147.86L117.48,156.42L117.5,141.44L117.79,152.14L117.82,147.86L118.32,145.72L118.34,154.28L118.58,152.14L118.58,147.86L119.14,141.44L119.22,158.56L119.28,147.86L119.32,143.58L119.49,154.28L120.07,147.86L120.09,147.86L120.75,160.7L120.78,143.58L120.87,152.14L120.88,147.86L121.09,145.72L121.55,154.28L121.66,152.14L121.68,152.14L122.39,154.28L122.43,147.86L122.45,152.14L122.48,145.72L122.48,154.28L123.21,147.86L123.23,152.14L123.27,143.58L123.28,156.42L123.87,152.14L123.88,147.86L124.65,152.14L124.65,152.14L124.66,147.86L125.44,152.14L125.44,152.14L125.45,152.14L126.21,147.86L126.21,147.86L126.23,147.86L126.92,152.14L126.96,145.72L126.96,145.72L126.99,145.72L127.31,143.58L127.33,156.42L127.71,152.14L127.78,152.14L128.56,147.86L128.58,152.14L128.64,145.72L128.69,154.28L129.23,147.86L129.28,147.86L129.56,145.72L129.93,154.28L130.02,147.86L130.08,147.86L130.71,152.14L130.82,147.86L130.86,152.14L131.52,147.86L131.58,152.14L131.65,147.86L132.41,152.14L132.41,152.14L132.41,147.86L132.92,156.42L132.95,141.44L133.16,152.14L133.23,147.86L133.98,152.14L134.02,147.86L134.4,158.56L134.79,152.14L134.8,147.86L135.36,145.72L135.4,154.28L135.52,152.14L135.57,147.86L136.31,152.14L136.31,152.14L136.33,147.86L136.34,156.42L136.47,139.3L136.97,147.86L137.12,152.14L137.33,158.56L137.83,143.58L137.9,152.14L137.95,145.72L138.46,158.56L138.55,152.14L138.61,158.56L139.32,141.44L139.38,147.86L139.43,154.28L139.43,156.42L139.46,143.58L140.17,152.14L140.2,152.14L140.25,154.28L140.72,145.72L140.92,147.86L140.97,152.14L141.27,156.42L141.68,145.72L141.7,147.86L141.71,154.28L141.99,143.58L141.99,156.42L142.45,147.86L142.47,152.14L142.77,152.14L142.77,152.14L142.77,147.86L142.78,154.28L143.15,145.72L143.5,152.14L143.58,152.14L144.14,156.42L144.28,143.58L144.33,147.86L144.38,152.14L144.56,152.14L144.56,147.86L144.62,154.28L145.29,152.14L145.35,147.86L145.66,145.72L146.05,160.7L146.06,147.86L146.11,147.86L146.89,154.28L146.89,154.28L146.92,145.72L147.5,154.28L147.75,152.14L147.75,147.86L147.98,145.72L148.19,154.28L148.45,152.14L148.55,147.86L149.31,152.14L149.33,152.14L149.98,147.86L150.06,152.14L150.1,152.14L150.53,145.72L150.87,147.86L150.89,152.14L150.99,158.56L151.22,145.72L151.64,152.14L151.7,147.86L152,145.72L152.46,154.28L152.5,147.86L153.05,156.42L153.2,147.86L153.22,145.72L153.43,143.58L154,154.28L154.05,152.14L154.07,147.86L154.37,145.72L154.76,156.42L154.81,147.86L154.83,147.86L155.03,156.42L155.11,141.43L155.57,145.72L155.63,152.14L156.38,147.86L156.38,147.86L156.41,152.14L156.41,147.86L157.13,152.14L157.17,152.14L157.39,154.28L157.83,147.86L157.84,156.42L157.91,143.58L158.6,147.86L158.62,152.14L158.7,147.86L159.36,154.28L159.4,154.28L159.66,145.72L160.16,147.86L160.17,147.86L160.32,143.58L160.47,160.7L160.93,152.14L160.94,147.86L161.71,152.14L161.72,147.86L161.73,158.56L162.27,145.72L162.46,154.28L162.55,147.86L163.3,152.14L163.35,147.86L163.75,145.72L163.84,158.56L164.08,147.86L164.11,147.86L164.64,162.85L164.68,137.15L164.85,154.28L164.89,137.15L165.15,162.85L165.61,154.28L165.67,154.28L165.77,145.72L166.29,156.42L166.43,147.86L166.44,152.14L166.66,145.72L167.19,147.86L167.23,143.58L167.97,160.7L167.99,147.86L168.02,147.86L168.24,139.3L168.47,173.54L168.75,145.72L168.81,147.86L168.89,145.72L169.52,152.14L169.57,147.86L170.31,152.14L170.32,147.86L170.34,154.28L170.78,156.42L171.11,143.58L171.15,147.86L171.19,158.56L171.2,141.44L171.91,152.14L171.96,147.86L172.04,145.72L172.66,152.14L172.7,147.86L172.83,152.14L173.27,145.72L173.6,147.86L173.61,152.14L173.63,154.28L174.14,145.72L174.37,147.86L174.46,147.86L175.16,152.14L175.19,147.86L175.24,147.86L175.74,145.72L175.96,152.14L176.03,147.86L176.08,156.42L176.14,143.58L176.75,147.86L176.8,152.14L176.86,154.28L177.11,145.72L177.53,152.14L177.57,147.86L178.31,145.72L178.32,152.14L178.34,147.86L178.43,145.72L179,152.14L179.04,147.86L179.11,145.72L179.36,143.58L179.37,156.42L179.82,147.86L179.89,152.14L180.34,154.28L180.56,145.72L180.67,147.86L180.72,147.86L180.95,143.58L181.13,154.28L181.39,152.14L181.43,145.72L181.45,154.28L182.16,147.86L182.23,147.86L182.42,145.72L182.81,152.14L182.98,147.86L183.02,147.86L183.26,145.72L183.42,156.42L183.8,152.14L183.81,152.14L184.55,147.86L184.59,152.14L185.35,147.86L185.39,152.14L185.89,145.72L186.16,147.86L186.17,152.14L186.47,154.28L186.57,145.72L186.92,152.14L186.93,152.14L187.18,145.72L187.63,147.86L187.74,152.14L188.45,145.72L188.51,147.86L188.52,152.14L188.76,139.3L189.09,154.28L189.29,147.86L189.3,152.14L189.34,145.72L189.45,154.28L190.04,152.14L190.05,154.28L190.51,145.72L190.81,147.86L190.85,152.14L191.34,145.72L191.64,147.86L191.67,147.86L192.07,141.44L192.4,156.42L192.42,145.72L192.58,145.72L192.62,147.86L192.79,141.44L193.28,152.14L193.29,141.44L193.35,158.56L194,141.44L194.09,152.14L194.19,154.28L194.76,143.58L194.86,147.86L194.88,147.86L195.05,145.72L195.28,154.28L195.61,147.86L195.66,147.86L195.66,152.14L196.16,143.58L196.4,152.14L196.42,147.86L196.42,152.14L197.16,145.72L197.16,145.72L197.22,154.28L197.22,145.72L197.94,152.14L197.99,147.86L198.15,141.44L198.62,154.28L198.7,145.72L198.73,145.72L199.12,154.28L199.48,147.86L199.51,147.86L200.1,154.28L200.1,145.72L200.26,152.14L200.31,145.72L200.82,143.58L200.99,156.42L201.03,154.28L201.15,147.86L201.48,141.44L201.5,156.42L201.9,154.28L201.91,145.72L202.45,154.28L202.65,147.86L202.69,152.14L202.72,154.28L203.28,145.72L203.4,152.14L203.45,152.14L203.63,154.28L204.07,145.72L204.18,147.86L204.21,152.14L204.87,147.86L204.95,152.14L204.98,152.14L205.67,147.86L205.75,152.14L205.99,158.56L206.28,145.72L206.47,152.14L206.52,152.14L206.52,147.86L207.27,152.14L207.29,147.86L207.56,143.58L207.99,156.42L208.09,154.28L208.1,147.86L208.39,145.72L208.8,154.28L208.85,147.86L208.86,147.86L208.96,145.72L209,156.42L209.6,152.14L209.62,152.14L209.8,152.14L209.81,147.86L210.45,154.28L210.45,145.72L210.54,147.86L210.57,147.86L210.76,145.72L210.79,154.28L211.32,152.14L211.34,147.86L211.37,156.42L212.06,154.28L212.14,152.14L212.29,152.14L212.29,152.14L212.29,154.28L213.06,147.86L213.08,152.14L213.71,147.86L213.8,152.14L213.85,152.14L214.54,147.86L214.57,152.14L214.57,154.28L215.38,141.44L215.39,147.86L215.55,141.44L215.69,158.56L216.13,154.28L216.14,145.72L216.19,154.28L216.9,147.86L216.92,147.86L217.59,143.58L217.65,156.42L217.66,152.14L217.68,147.86L217.99,145.72L218.16,154.28L218.38,147.86L218.46,147.86L219.2,152.14L219.22,147.86L219.71,141.44L219.74,156.42L219.96,147.86L219.98,147.86L220.06,154.28L220.17,143.58L220.7,147.86L220.72,152.14L221.49,147.86L221.49,147.86L221.49,152.14L222.19,147.86L222.23,152.14L222.25,152.14L222.29,145.72L223.01,147.86L223.01,152.14L223.06,143.58L223.61,154.28L223.78,145.72L223.83,147.86L224.49,158.56L224.52,147.86L224.55,143.58L224.57,156.42L225.3,147.86L225.32,152.14L226.06,147.86L226.06,147.86L226.08,152.14L226.77,143.58L226.85,147.86L226.87,147.86L227.09,145.72L227.57,152.14L227.6,145.72L227.63,147.86L228.3,143.58L228.33,158.56L228.39,147.86L229.05,152.14L229.06,147.86L229.08,139.31L229.15,160.69L229.81,147.86L229.89,152.14L230.59,147.86L230.59,147.86L230.68,152.14L231.39,147.86L231.39,152.14L231.47,147.86L231.88,158.55L232.01,145.72L232.21,147.86L232.24,145.72L232.45,156.42L233,152.14L233.02,152.14L233.15,154.28L233.79,147.86L233.8,147.86L234.21,145.72L234.47,154.28L234.54,145.72L235.02,154.28L235.27,147.86L235.31,147.86L235.58,154.28L235.63,145.72L236.06,152.14L236.07,152.14L236.82,143.58L236.84,147.86L236.85,152.14L236.85,143.58L237.58,147.86L237.61,147.86L238.35,152.14L238.43,147.86L238.77,154.28L238.78,145.72L239.2,152.14L239.23,152.14L239.48,154.28L239.92,143.58L240.02,147.86L240.03,152.14L240.76,147.86L240.76,147.86L240.8,152.14L241.52,147.86L241.52,147.86L241.59,147.86L241.59,152.14L242.21,145.72L242.34,152.14L242.36,147.86L243.12,152.14L243.14,147.86L243.59,145.72L243.67,154.28L243.89,152.14L243.9,152.14L244.65,147.86L244.65,147.86L244.67,152.14L245.21,143.58L245.22,156.42L245.39,147.86L245.47,152.14L246.15,147.86L246.22,152.14L246.23,152.14L246.56,154.28L246.96,145.72L247.02,147.86L247.1,147.86L247.23,139.31L247.82,156.42L247.87,152.14L247.89,147.86L248.05,143.58L248.13,156.42L248.59,147.86L248.65,147.86L249.09,145.72L249.24,152.14L249.4,147.86L249.43,147.86L250.02,154.28L250.05,145.72L250.26,152.14L250.28,147.86L250.43,147.86L250.43,147.86L250.45,152.14L251.19,147.86L251.19,147.86L251.23,154.28L251.4,156.42L251.62,143.58L251.99,147.86L252.01,147.86L252.75,152.14L252.75,152.14L252.81,152.14L253,139.31L253.03,160.69L253.56,147.86L253.57,154.28L253.84,145.72L254.29,147.86L254.34,147.86L255.09,152.14L255.12,147.86L255.18,145.72L255.21,154.28L255.87,147.86L255.88,147.86L255.88,152.14L256.62,147.86L256.64,147.86L256.76,160.7L256.81,139.3L257.4,152.14L257.48,152.14L257.52,145.72L258.07,156.42L258.12,152.14L258.12,145.72L258.72,154.28L258.85,152.14L258.86,147.86L258.86,152.14L259.53,152.14L259.62,147.86L260.43,152.14L260.48,147.86L261.05,145.72L261.1,154.28L261.28,152.14L261.35,152.14L261.68,145.72L262.09,152.14L262.17,152.14L262.89,147.86L262.92,152.14L262.94,152.14L263.14,152.14L263.14,152.14L263.17,147.86L263.91,152.14L263.91,147.86L263.94,152.14L264.41,147.86L264.65,156.42L264.66,154.28L264.72,152.14L264.8,158.56L264.83,139.3L265.47,152.14L265.51,152.14L265.71,156.42L265.99,143.58L266.25,147.86L266.31,152.14L266.6,154.28L267.06,147.86L267.08,154.28L267.18,145.72L267.79,147.86L267.93,152.14L268.41,145.72L268.66,147.86L268.69,152.14L268.72,145.72L268.86,156.42L269.43,152.14L269.45,145.72L270.16,156.42L270.16,156.42L270.21,147.86L270.52,145.72L270.63,156.42L270.96,152.14L270.97,147.86L271.23,145.72L271.42,154.28L271.72,147.86L271.78,152.14L272.12,156.42L272.31,143.58L272.5,152.14L272.57,147.86L273,158.56L273.07,143.58L273.32,154.28L273.33,147.86L274.08,152.14L274.08,152.14L274.09,145.72L274.09,154.28L274.84,152.14L274.85,152.14L274.93,154.28L275.32,145.72L275.58,147.86L275.62,152.14L275.88,154.28L276.37,145.72L276.38,152.14L276.38,145.72L277.13,152.14L277.14,147.86L277.74,156.42L277.81,143.58L277.83,152.14L277.87,143.58L278.36,154.28L278.66,152.14L278.71,147.86L278.91,156.42L279.45,147.86L279.48,154.28L280.19,145.72L280.24,147.86L280.26,147.86L280.28,145.72L280.52,154.28L281.01,147.86L281.02,147.86L281.77,154.28L281.88,152.14L281.89,147.86L281.89,152.14L282.05,145.72L282.64,147.86L282.65,152.14L283.35,160.69L283.39,145.72L283.42,147.86L283.49,158.56L283.97,143.58L284.17,147.86L284.18,147.86L284.54,139.31L284.8,152.14L284.9,145.72L284.94,145.72L285.01,160.69L285.69,147.86L285.73,152.14L285.82,156.41L286.16,145.72L286.43,147.86L286.5,152.14L286.96,169.24L286.98,139.31L287.26,147.86L287.36,143.59L287.68,154.28L288.11,152.14L288.12,147.86L288.69,145.72L288.76,152.14L288.83,147.86L288.89,147.86L288.98,162.83L288.99,137.17L289.63,152.14L289.7,147.86L290.27,154.28L290.44,152.14L290.47,147.86L290.61,154.28L291.2,147.86L291.22,147.86L291.22,152.14L291.94,152.14L291.98,152.14L292.71,147.86L292.73,152.14L292.76,152.14L293.28,145.72L293.5,147.86L293.56,147.86L294.34,152.14L294.34,152.14L294.34,147.86L294.84,158.55L294.89,143.59L295.07,152.14L295.1,147.86L295.35,154.28L295.86,152.14L295.87,147.86L296.52,152.14L296.61,147.86L296.63,147.86L297.35,145.72L297.36,154.28L297.4,145.72L298.1,154.28L298.16,152.14L298.17,145.72L298.69,158.55L298.87,154.28L298.91,145.72L299.46,152.14L299.46,152.14L299.5,147.86L299.75,145.72L300.25,154.28L300.25,154.28L300.27,147.86L300.77,154.28L300.77,145.72L301.02,152.14L301.04,147.86L301.76,152.14L301.77,147.86L301.8,147.86L302.53,152.14L302.53,147.86L302.57,147.86L302.83,130.76L302.92,169.24L303.3,143.59L303.34,152.14L303.77,143.59L304,158.55L304.04,152.14L304.1,152.14L304.82,147.86L304.82,152.14L304.88,147.86L305.43,145.72L305.58,154.28L305.61,147.86L305.64,147.86L305.8,143.59L305.88,154.28L306.4,152.14L306.42,147.86L307.19,152.14L307.21,143.59L307.64,141.45L307.96,152.14L307.96,152.14L308.03,145.72L308.06,158.55L308.1,141.45L308.72,145.72L308.78,152.14L309.52,145.72L309.54,147.86L309.56,152.14L310.23,143.59L310.31,147.86L310.34,152.14L310.74,141.45L310.99,156.41L311.02,147.86L311.04,156.41L311.78,152.14L311.79,152.14L311.8,145.72L312.5,152.14L312.62,152.14L312.95,145.72L313.36,152.14L313.4,147.86L313.74,145.72L313.88,154.28L314.15,147.86L314.17,152.14L314.84,154.28L314.94,145.72L314.95,147.86L315,147.86L315.23,143.59L315.46,154.28L315.75,147.86L315.77,147.86L316.49,152.14L316.52,147.86L316.55,147.86L317.13,152.14L317.24,145.72L317.25,145.72L317.25,139.31L317.89,156.41L317.99,147.86L318.06,147.86L318.17,154.28L318.52,145.72L318.52,145.72L318.54,154.28L318.69,145.72L319.29,147.86L319.3,152.14L319.91,147.86L320.01,152.14L320.06,152.14L320.22,154.28L320.73,145.72L320.8,152.14L320.84,147.86L321.04,145.72L321.24,154.28L321.6,152.14L321.63,147.86L321.9,145.72L322.35,152.14L322.37,147.86L322.42,152.14L322.86,154.28L323.11,145.72L323.16,152.14L323.19,152.14L323.33,145.72L323.98,147.86L323.99,152.14L324.74,139.31L324.76,147.86L324.77,147.86L325.1,141.45L325.49,154.28L325.49,154.28L325.54,145.72L325.58,154.28L326.3,152.14L326.31,147.86L326.62,145.72L326.95,154.28L327.02,145.72L327.04,145.72L327.07,154.28L327.8,152.14L327.8,147.86L328.12,143.59L328.22,156.41L328.51,147.86L328.57,147.86L329.25,152.14L329.25,147.86L329.36,147.86L329.53,141.45L329.53,158.55L330.13,152.14L330.17,147.86L330.43,147.86L330.43,147.86L330.45,152.14L330.93,154.28L330.97,143.59L331.19,147.86L331.23,152.14L332.02,147.86L332.02,147.86L332.03,152.14L332.61,145.72L332.78,152.14L332.79,152.14L332.79,147.86L333.52,152.14L333.59,147.86L334.33,152.14L334.36,147.86L334.77,145.72L334.8,154.28L335.02,152.14L335.14,147.86L335.29,154.28L335.29,145.72L335.88,152.14L335.9,147.86L336.55,143.58L336.64,154.28L336.66,152.14L336.69,152.14L336.94,154.28L337.18,143.58L337.49,147.86L337.5,147.86L338.23,152.14L338.26,147.86L339,152.14L339.01,147.86L339.04,152.14L339.27,154.28L339.76,145.72L339.78,152.14L339.88,147.86L340.09,154.28L340.63,152.14L340.65,147.86L340.65,152.14L341.39,147.86L341.42,147.86L342.14,152.14L342.16,147.86L342.23,147.86L342.49,145.72L342.97,154.28L342.98,145.72L342.98,154.28L343.69,147.86L343.75,152.14L344.44,143.58L344.46,156.42L344.56,147.86L344.61,143.58L344.64,156.42L345.29,152.14L345.32,154.28L345.98,145.72L346.06,152.14L346.08,152.14L346.57,154.28L346.6,145.72L346.81,147.86L346.84,147.86L347.36,145.72L347.4,154.28L347.56,152.14L347.64,152.14L348.29,147.86L348.39,152.14L348.44,152.14L348.99,156.42L349.16,145.72L349.2,147.86L349.23,152.14L349.3,145.72L349.91,154.28L349.92,147.86L349.97,152.14L350.43,141.44L350.45,152.14L350.47,158.56L350.55,141.44L351.23,152.14L351.26,152.14L351.54,154.28L351.6,145.72L351.99,152.14L352.03,152.14L352.75,147.86L352.78,152.14L352.81,147.86L353.35,145.72L353.42,154.28L353.56,147.86L353.57,147.86L354.33,152.14L354.33,152.14L354.36,147.86L354.76,145.72L354.76,154.28L355.12,152.14L355.13,152.14L355.44,145.72L355.48,154.28L355.88,152.14L355.89,152.14L355.89,147.86L355.9,154.28L356.63,152.14L356.67,152.14L357.36,147.86L357.42,152.14L357.43,152.14L357.44,156.42L357.83,139.31L358.15,152.14L358.21,147.86L358.57,143.58L358.64,156.42L358.95,147.86L358.98,152.14L358.98,147.86L359.68,156.42L359.73,147.86L359.81,145.72L360.12,154.28L360.57,152.14L360.59,147.86L361.13,154.28L361.23,143.58L361.32,152.14L361.35,143.58L361.67,156.42L362.11,147.86L362.12,147.86L362.76,145.72L362.89,154.28L362.89,154.28L362.94,152.14L362.94,147.86L362.99,154.28L363.68,152.14L363.71,152.14L363.9,154.28L363.9,145.72L364.43,152.14L364.53,152.14L364.56,145.72L364.57,154.28L365.27,147.86L365.29,152.14L366.05,147.86L366.07,147.86L366.11,145.72L366.57,156.42L366.82,152.14L366.83,147.86L366.89,152.14L367.38,145.72L367.45,152.14L367.46,154.28L367.47,145.72L368.2,147.86L368.23,152.14L368.96,143.58L368.96,143.58L369.01,147.86L369.3,154.28L369.58,145.72L369.75,152.14L369.77,152.14L370.41,147.86L370.47,152.14L370.55,147.86L370.97,145.72L371.29,156.42L371.36,152.14L371.71,156.42L372.05,143.58L372.06,152.14L372.09,156.42L372.37,145.72L372.84,152.14L372.86,152.14L372.96,145.72L373.61,147.86L373.66,152.14L373.87,154.28L374.42,147.86L374.42,147.86L374.46,152.14L374.67,143.58L375.01,156.42L375.17,152.14L375.26,152.14L375.49,158.55L375.56,143.58L376,152.14L376.03,147.86L376.79,152.14L376.81,147.86L377.54,152.14L377.56,147.86L377.58,147.86L377.75,147.86L377.77,145.72L378.35,156.41L378.4,145.72L378.75,167.1L378.75,143.59L379.14,145.72L379.16,145.72L379.74,143.59L379.75,158.55L379.9,154.28L379.93,152.14L380.7,147.86L380.73,147.86L381.5,152.14L381.5,147.86L382.18,152.14L382.24,147.86L382.28,147.86L382.32,139.31L382.6,160.69L383.03,147.86L383.04,147.86L383.14,160.69L383.21,139.31L383.81,154.28L383.82,143.59L384.06,141.45L384.54,154.28L384.58,145.72L385.35,152.14L385.35,152.14L385.37,147.86L385.4,141.45L385.87,158.55L386.1,152.14L386.13,147.86L386.13,141.45L386.19,156.41L386.86,145.72L386.89,147.86L386.97,145.72L387.04,154.28L387.64,147.86L387.67,152.14L388.42,147.86L388.51,152.14L389.27,147.86L389.27,147.86L389.29,152.14L389.94,156.41L390.06,145.72L390.07,147.86L390.07,156.41L390.14,141.45L390.82,147.86L390.88,147.86L390.98,145.72L391.15,154.28L391.62,147.86L391.65,147.86L391.69,145.72L392.24,154.28L392.36,147.86L392.42,147.86L392.95,152.14L393.17,147.86L393.18,147.86L393.95,152.14L393.95,152.14L393.97,147.86L394.69,152.14L394.71,147.86L394.74,147.86L395.41,152.14L395.48,147.86L395.56,147.86L395.81,145.72L396.1,154.28L396.28,152.14L396.33,147.86L396.42,141.45L396.97,154.28L397.13,152.14L397.13,147.86L397.38,154.28L397.41,145.72L397.89,152.14L397.9,147.86L398,158.55L398.59,139.31L398.67,152.14L398.72,147.86L398.96,145.72L399,160.69L399,160.69" style="vector-effect: non-scaling-stroke; fill: none; stroke: rgb(239, 85, 59); stroke-opacity: 1; stroke-width: 2px; opacity: 1;"/></g><g class="points"/><g class="text"/></g><g class="trace scatter trace12970d" style="stroke-miterlimit: 2; opacity: 1;"><g class="fills"/><g class="errorbars"/><g class="lines"><path class="js-line" d="M0,81.44L0.14,15L0.38,141.43L0.54,145.71L0.64,115.71L0.77,147.86L1.26,147.86L1.37,147.86L1.59,145.71L1.66,147.86L1.68,130.71L1.68,147.86L1.77,122.14L2.39,145.71L2.43,147.86L2.98,143.57L3.17,147.86L3.21,147.86L3.84,139.29L3.95,143.57L3.96,147.86L3.99,141.43L4.68,147.86L4.81,147.86L5.13,147.86L5.14,145.71L5.17,147.86L5.29,143.57L5.87,147.86L5.88,147.86L6,145.71L6.58,147.86L6.69,147.86L7.57,147.86L7.6,141.43L8.33,147.86L8.33,147.86L8.5,147.86L8.77,147.86L8.78,145.72L8.89,141.43L9.59,147.86L9.6,147.86L9.83,147.86L9.94,145.72L10.48,147.86L10.52,143.57L10.69,145.72L10.76,147.86L11.15,147.86L11.25,145.72L12.04,147.86L12.17,147.86L14.92,147.86L14.98,145.72L15.69,147.86L15.69,147.86L15.75,145.72L15.94,139.29L16.51,147.86L16.51,147.86L16.59,147.86L16.7,143.58L17.23,147.86L17.26,147.86L17.59,143.58L18.06,145.72L18.09,145.72L18.09,143.58L18.12,147.86L18.82,147.86L18.93,147.86L19.92,147.86L19.93,145.72L19.93,147.86L20.68,145.72L20.74,147.86L23.16,147.86L23.19,145.72L23.19,147.86L23.94,147.86L23.96,145.72L24.72,147.86L24.77,147.86L25.72,147.86L25.72,147.86L25.78,143.58L26.57,147.86L26.57,147.86L26.61,147.86L27.74,147.86L27.74,147.86L27.74,145.72L28.48,147.86L28.48,147.86L28.55,147.86L28.79,147.86L28.79,147.86L28.8,145.72L29.56,147.86L29.56,147.86L29.61,147.86L30.07,147.86L30.07,145.72L30.86,147.86L30.92,147.86L33.37,147.86L33.37,147.86L33.41,139.29L34.14,147.86L34.18,147.86L34.35,147.86L34.35,147.86L34.37,141.43L34.37,147.86L35.11,147.86L35.13,147.86L35.45,147.86L35.45,147.86L35.47,145.72L36.29,147.86L36.29,147.86L36.35,147.86L36.59,147.86L36.61,145.72L36.99,143.58L37.26,147.86L37.26,145.72L37.37,145.72L38.13,147.86L38.14,147.86L38.68,147.86L38.68,141.43L39.44,147.86L39.49,147.86L40.43,147.86L40.43,141.43L41.23,147.86L41.28,147.86L41.66,143.58L41.99,147.86L42.11,147.86L42.56,145.72L42.85,147.86L42.88,147.86L43.46,147.86L43.46,147.86L43.46,145.72L43.75,139.29L44.13,147.86L44.14,145.72L44.2,143.58L44.96,147.86L44.96,147.86L44.99,147.86L45.68,145.72L45.74,147.86L45.75,147.86L46.43,137.15L46.43,137.15L46.47,147.86L46.64,147.86L46.64,147.86L46.64,145.72L47.44,147.86L47.47,147.86L47.78,147.86L47.78,145.72L48.38,147.86L48.38,147.86L48.39,141.44L49.12,147.86L49.12,147.86L49.18,147.86L51.29,147.86L51.34,143.58L52.03,147.86L52.05,145.72L52.1,143.58L52.85,147.86L52.85,147.86L52.88,147.86L53.03,141.44L53.63,147.86L53.65,147.86L53.84,143.58L54.37,147.86L54.42,147.86L55.39,147.86L55.39,147.86L55.45,145.72L55.53,147.86L55.83,141.44L56.15,147.86L56.24,147.86L56.8,139.3L56.96,147.86L57,147.86L57.8,147.86L57.8,147.86L57.82,145.72L58.59,147.86L58.59,147.86L58.62,145.72L59.39,147.86L59.39,147.86L59.43,147.86L60.48,147.86L60.52,145.72L61.24,147.86L61.32,147.86L63.11,147.86L63.16,145.72L63.97,147.86L64.03,147.86L64.68,139.29L64.74,145.72L64.79,147.86L65.2,143.58L65.54,147.86L65.58,147.86L66.08,147.86L66.08,145.72L66.08,147.86L66.63,141.43L66.81,145.72L66.92,147.86L67.84,147.86L67.84,147.86L67.85,145.72L67.96,143.58L68.61,147.86L68.61,147.86L68.62,145.72L68.62,139.29L68.76,147.86L69.37,147.86L69.4,147.86L70.35,147.86L70.35,143.58L70.35,147.86L71.1,147.86L71.11,147.86L71.7,147.86L71.74,145.72L71.74,147.86L72.49,147.86L72.53,147.86L72.88,147.86L72.9,145.72L73.05,143.57L73.74,147.86L73.74,147.86L73.77,147.86L74.05,147.86L74.05,145.72L74.21,143.57L74.85,147.86L74.85,147.86L74.87,147.86L75.67,147.86L75.67,145.72L76.41,147.86L76.41,147.86L76.45,147.86L77.23,145.72L77.29,147.86L77.49,143.57L78.03,147.86L78.05,147.86L78.99,147.86L78.99,147.86L79,139.29L79.77,147.86L79.88,147.86L80.88,147.86L80.88,147.86L80.88,145.72L81.65,147.86L81.65,147.86L81.7,147.86L82.2,147.86L82.21,145.72L83.01,147.86L83.01,147.86L83.05,147.86L83.58,145.72L83.79,147.86L83.81,147.86L84.23,145.72L84.52,147.86L84.6,147.86L84.84,147.86L84.87,145.72L85.62,147.86L85.67,147.86L86.22,147.86L86.22,147.86L86.23,145.72L86.23,147.86L86.9,145.72L86.99,147.86L87.61,143.57L87.69,147.86L87.75,147.86L87.77,143.57L88.47,147.86L88.53,147.86L89.26,145.72L89.26,147.86L89.3,147.86L89.55,145.72L90.05,147.86L90.07,147.86L90.38,147.86L90.38,147.86L90.4,139.29L91.18,147.86L91.18,147.86L91.2,147.86L92.43,147.86L92.43,147.86L92.48,143.58L92.73,139.29L93.32,147.86L93.33,147.86L93.53,147.86L93.54,145.72L93.79,143.58L93.86,147.86L93.86,147.86L94,113.61L94.81,147.86L94.81,145.72L94.85,147.86L94.96,141.44L95.6,147.86L95.66,147.86L96.36,141.44L96.43,145.72L96.44,147.86L96.73,147.86L96.78,145.72L97.62,147.86L97.62,147.86L97.65,147.86L98.44,145.72L98.5,147.86L98.85,147.86L98.85,147.86L98.89,145.72L99,147.86L99.35,143.58L99.64,145.72L99.65,145.72L99.82,143.58L100.43,147.86L100.43,145.72L101.19,147.86L101.19,145.72L101.53,143.58L101.94,147.86L101.98,147.86L102.24,147.86L102.24,147.86L102.29,145.72L103.04,147.86L103.04,147.86L103.1,147.86L103.92,147.86L103.92,147.86L103.93,139.3L104.56,147.86L104.68,145.72L104.69,143.58L104.99,141.44L105.45,147.86L105.46,145.72L105.48,145.72L105.48,147.86L105.67,139.3L106.23,147.86L106.24,147.86L106.34,141.44L106.91,147.86L106.99,147.86L107.19,147.86L107.19,141.44L107.93,147.86L107.93,147.86L107.99,143.58L107.99,147.86L108.73,147.86L108.75,147.86L110.32,147.86L110.32,147.86L110.32,145.72L110.82,141.44L111.09,147.86L111.09,147.86L111.15,143.58L111.15,147.86L111.88,147.86L111.94,147.86L113.71,147.86L113.71,147.86L113.74,145.72L114.63,147.86L114.63,147.86L114.68,147.86L114.88,147.86L114.88,147.86L114.9,143.58L115.68,147.86L115.68,147.86L115.72,147.86L116.62,147.86L116.63,143.58L117.39,147.86L117.39,147.86L117.42,147.86L117.5,141.44L118.11,147.86L118.19,147.86L118.92,145.72L118.95,147.86L119.22,141.44L119.7,147.86L119.71,147.86L120.72,147.86L120.73,139.3L120.73,147.86L121.48,147.86L121.5,147.86L121.55,145.72L122.21,147.86L122.27,147.86L122.48,145.72L122.93,147.86L123.03,147.86L123.23,147.86L123.27,145.72L123.27,143.58L123.28,147.86L123.99,147.86L124.03,147.86L126.92,147.86L126.92,147.86L126.96,145.72L127.31,143.58L127.71,147.86L127.71,147.86L127.78,147.86L128.58,147.86L128.62,145.72L128.87,145.72L128.92,147.86L129.62,145.72L129.64,147.86L129.74,145.72L130.53,147.86L130.57,147.86L132.43,147.86L132.43,145.72L132.95,141.44L133.28,147.86L133.28,147.86L133.36,147.86L134.36,147.86L134.4,141.44L135.15,147.86L135.19,147.86L135.36,147.86L135.36,147.86L135.36,145.72L136.13,147.86L136.13,147.86L136.15,147.86L136.33,147.86L136.33,147.86L136.34,143.58L136.47,139.3L137.13,147.86L137.13,147.86L137.16,147.86L137.33,141.44L137.9,147.86L137.94,147.86L138.64,141.44L138.67,147.86L138.7,147.86L139.14,147.86L139.19,141.44L139.96,147.86L139.99,147.86L140.25,147.86L140.25,145.72L141.01,147.86L141.01,147.86L141.02,147.86L141.27,143.58L141.77,145.72L141.79,147.86L141.96,147.86L141.99,143.58L142.77,147.86L142.77,147.86L142.78,145.72L143.59,147.86L143.6,147.86L143.96,147.86L143.96,147.86L143.96,145.72L144.13,143.58L144.72,147.86L144.72,147.86L144.76,147.86L145.64,147.86L145.66,145.72L146,139.3L146.42,147.86L146.42,147.86L146.48,147.86L146.64,147.86L146.64,147.86L146.65,145.72L147.46,147.86L147.46,147.86L147.48,147.86L148.19,145.72L148.21,147.86L148.3,147.86L150.47,147.86L150.47,147.86L150.51,145.72L150.99,141.44L151.04,147.86L151.05,141.44L151.78,147.86L151.82,147.86L151.98,147.86L151.98,147.86L151.99,145.72L152.76,147.86L152.76,147.86L152.79,147.86L152.79,143.58L153.52,147.86L153.55,147.86L154,145.72L154.3,147.86L154.33,147.86L155.08,143.58L155.09,147.86L155.11,141.43L155.81,147.86L155.88,147.86L157.36,147.86L157.39,145.72L157.84,143.58L158.16,147.86L158.17,145.72L159.06,147.86L159.06,147.86L159.07,147.86L159.36,147.86L159.36,145.72L160.16,147.86L160.16,147.86L160.17,147.86L160.47,139.3L160.92,147.86L160.93,147.86L161.72,147.86L161.72,147.86L161.73,141.44L161.73,147.86L162.46,145.72L162.55,147.86L163.5,147.86L163.53,141.44L164.32,147.86L164.32,147.86L164.36,147.86L164.64,147.86L164.64,137.15L165.42,147.86L165.42,147.86L165.43,147.86L165.58,147.86L165.58,147.86L165.61,145.72L166.29,143.58L166.43,147.86L166.44,147.86L166.66,147.86L166.66,145.72L166.66,147.86L167.23,143.58L167.41,147.86L167.45,147.86L167.97,139.3L168.16,147.86L168.21,147.86L168.47,126.46L168.93,145.72L169.02,147.86L170.32,147.86L170.32,147.86L170.34,145.72L170.42,143.58L171.06,147.86L171.08,143.58L171.19,141.44L171.88,147.86L171.91,147.86L172.04,145.72L172.66,147.86L172.7,147.86L173.2,147.86L173.21,145.72L174.01,147.86L174.01,147.86L174.03,147.86L174.14,145.72L174.78,147.86L174.87,147.86L175.73,147.86L175.74,145.72L176.06,143.58L176.56,147.86L176.58,147.86L176.84,147.86L176.86,145.72L177.67,147.86L177.67,147.86L177.75,147.86L178.27,147.86L178.27,147.86L178.31,145.72L179.04,147.86L179.11,145.72L179.34,143.58L179.89,147.86L179.93,147.86L180.31,147.86L180.33,145.72L180.95,143.58L181.11,147.86L181.13,145.72L181.94,147.86L181.97,147.86L182.4,147.86L182.42,145.72L183.17,147.86L183.17,147.86L183.21,147.86L183.42,143.58L183.96,147.86L184.02,147.86L185.84,147.86L185.87,145.72L186.71,147.86L186.76,147.86L187.14,147.86L187.18,145.72L188.05,147.86L188.11,147.86L188.28,147.86L188.28,145.72L188.76,139.3L189.05,147.86L189.05,147.86L189.05,145.72L189.78,147.86L189.87,147.86L190.04,147.86L190.05,145.72L190.81,147.86L190.81,147.86L190.85,147.86L191.33,147.86L191.33,145.72L192.07,147.86L192.07,147.86L192.07,141.44L192.79,147.86L192.79,141.44L192.87,141.44L193.6,147.86L193.64,147.86L193.93,147.86L193.97,143.58L194,141.44L194.09,147.86L194.64,145.72L194.7,145.72L194.75,143.58L195.47,147.86L195.49,147.86L196.09,147.86L196.13,145.72L196.19,147.86L196.19,143.58L196.85,147.86L196.9,147.86L197.16,147.86L197.16,145.72L198.02,147.86L198.02,147.86L198.03,147.86L198.15,141.44L198.75,147.86L198.89,145.72L199.66,147.86L199.73,147.86L200.1,147.86L200.1,145.72L200.73,147.86L200.81,145.72L200.82,143.58L201.48,141.44L201.59,147.86L201.61,147.86L202.41,145.72L202.41,147.86L203.06,145.72L203.14,147.86L203.18,147.86L203.63,145.72L203.9,147.86L203.96,147.86L204.12,145.72L204.69,147.86L204.75,147.86L205.98,147.86L205.99,141.44L206.75,147.86L206.75,147.86L206.8,147.86L207.45,147.86L207.48,145.72L207.48,143.58L207.62,147.86L208.21,147.86L208.24,147.86L209,143.58L209.01,147.86L209.52,145.72L209.65,147.86L209.8,147.86L210.43,147.86L210.43,147.86L210.45,145.72L211.25,147.86L211.25,147.86L211.28,147.86L211.37,143.58L212.06,145.72L212.14,147.86L212.29,147.86L212.29,147.86L212.29,145.72L213.13,147.86L213.13,147.86L213.15,147.86L214.57,147.86L214.57,147.86L214.57,145.72L215.34,147.86L215.38,141.44L216.12,147.86L216.13,145.72L216.14,145.72L216.95,147.86L216.96,145.72L217.58,147.86L217.59,143.58L217.61,145.72L217.65,143.58L218.38,147.86L218.38,147.86L218.46,147.86L219.69,147.86L219.69,147.86L219.71,141.44L219.74,147.86L220.42,145.72L220.56,147.86L222.27,147.86L222.29,145.72L223.06,147.86L223.06,143.58L223.84,147.86L223.84,147.86L223.89,147.86L224.44,147.86L224.44,147.86L224.49,141.44L225.24,147.86L225.24,147.86L225.28,147.86L226.54,147.86L226.54,147.86L226.55,145.72L226.77,143.58L227.29,147.86L227.37,147.86L227.57,147.86L227.6,145.72L228.3,147.86L228.3,143.58L228.33,141.44L229.06,147.86L229.06,147.86L229.08,139.31L229.81,147.86L229.89,147.86L231.83,147.86L231.83,147.86L231.88,141.45L232.59,147.86L232.63,145.72L232.65,145.72L233.45,147.86L233.45,147.86L233.49,147.86L234.21,147.86L234.21,145.72L234.95,147.86L234.97,145.72L235.74,147.86L235.78,147.86L236.15,147.86L236.19,145.72L236.82,143.58L237,147.86L237,147.86L237.16,147.86L238.77,147.86L238.77,145.72L239.34,147.86L239.5,145.72L239.55,147.86L239.79,147.86L239.79,145.72L239.92,143.58L240.55,147.86L240.55,147.86L240.59,147.86L242.1,147.86L242.1,147.86L242.21,145.72L242.99,147.86L243.02,147.86L243.59,147.86L243.59,147.86L243.59,145.72L244.52,147.86L244.52,147.86L244.53,147.86L245.13,147.86L245.15,145.72L245.21,143.58L245.88,147.86L245.88,147.86L245.94,147.86L246.51,147.86L246.55,145.72L247.16,147.86L247.19,145.72L247.23,139.31L248.03,147.86L248.03,147.86L248.05,143.58L248.87,147.86L248.89,147.86L249.09,147.86L249.09,147.86L249.09,145.72L249.94,147.86L249.96,147.86L250.05,145.72L250.71,147.86L250.72,147.86L251.19,147.86L251.19,147.86L251.23,145.72L251.4,143.58L251.99,147.86L251.99,147.86L252.01,147.86L252.89,147.86L252.93,139.31L253.69,147.86L253.73,147.86L253.84,145.72L254.4,147.86L254.5,147.86L255.17,147.86L255.18,145.72L256.03,147.86L256.03,147.86L256.06,147.86L256.73,147.86L256.76,139.3L257.6,147.86L257.61,147.86L258.07,147.86L258.07,147.86L258.07,143.58L258.86,147.86L258.86,147.86L258.88,147.86L261.02,147.86L261.05,145.72L261.81,147.86L261.81,147.86L261.83,147.86L264.64,147.86L264.65,143.58L264.83,139.3L265.41,147.86L265.41,147.86L265.43,147.86L265.99,143.58L266.04,145.72L266.09,147.86L266.55,147.86L266.6,145.72L267.36,147.86L267.41,147.86L268.37,147.86L268.41,145.72L268.86,143.58L269.18,147.86L269.18,147.86L269.2,147.86L269.43,147.86L269.45,145.72L270.08,143.58L270.21,147.86L270.26,143.58L271.02,147.86L271.02,147.86L271.03,147.86L271.42,145.72L271.78,147.86L271.8,147.86L272.06,147.86L272.12,145.72L272.12,143.58L272.25,147.86L272.87,147.86L272.9,147.86L273,141.44L273.59,147.86L273.67,147.86L274.08,147.86L274.08,147.86L274.09,145.72L274.86,147.86L274.86,147.86L274.92,147.86L275.43,145.72L275.66,147.86L275.68,147.86L275.86,147.86L275.86,147.86L275.88,145.72L276.04,145.72L276.07,147.86L276.28,147.86L276.28,147.86L276.37,145.72L277.13,147.86L277.13,147.86L277.14,147.86L277.64,147.86L277.65,145.72L277.74,143.58L278.38,147.86L278.38,147.86L278.42,147.86L278.9,147.86L278.91,143.58L279.67,147.86L279.67,147.86L279.72,147.86L280.03,147.86L280.04,145.72L280.97,147.86L281,147.86L281.75,147.86L281.77,145.72L282.54,147.86L282.59,147.86L283.33,147.86L283.35,139.31L284.1,147.86L284.1,147.86L284.15,147.86L284.54,147.86L284.54,139.31L285.35,147.86L285.35,147.86L285.39,147.86L285.81,147.86L285.82,143.59L286.61,147.86L286.61,147.86L286.63,147.86L286.96,130.76L287.4,145.72L287.44,147.86L287.65,147.86L287.65,147.86L287.67,145.72L288.45,147.86L288.48,147.86L288.65,147.86L288.65,147.86L288.69,145.72L288.69,147.86L288.98,137.17L289.44,147.86L289.46,147.86L290.23,147.86L290.23,147.86L290.27,145.72L291.05,147.86L291.05,147.86L291.09,147.86L293.25,147.86L293.28,145.72L294.06,147.86L294.06,147.86L294.1,147.86L294.49,147.86L294.54,145.72L294.84,141.45L295.25,147.86L295.35,145.72L296.13,147.86L296.13,147.86L296.17,147.86L296.76,147.86L296.76,147.86L296.81,145.72L297.51,147.86L297.51,147.86L297.6,147.86L297.92,147.86L297.92,147.86L297.93,145.72L298.66,147.86L298.69,141.45L298.69,147.86L299.43,147.86L299.46,147.86L300.18,145.72L300.2,147.86L300.22,147.86L300.77,145.72L300.89,147.86L301.02,147.86L302.64,147.86L302.64,147.86L302.69,143.59L302.79,147.86L302.92,130.76L303.41,147.86L303.42,147.86L304.01,141.45L304.15,147.86L304.18,147.86L305.3,147.86L305.33,145.72L305.8,143.59L306.05,147.86L306.05,147.86L306.1,147.86L306.23,145.72L306.84,147.86L306.86,147.86L307.19,147.86L307.21,143.59L307.64,141.45L307.96,147.86L307.96,147.86L308.03,145.72L308.07,147.86L308.1,141.45L308.72,145.72L308.78,147.86L309.38,147.86L309.38,147.86L309.38,145.72L309.38,147.86L310.09,147.86L310.17,143.59L310.74,141.45L310.74,147.86L310.9,145.72L310.96,147.86L311.04,143.59L311.7,147.86L311.74,147.86L311.8,145.72L312.49,147.86L312.5,147.86L312.94,147.86L312.94,147.86L312.95,145.72L313.73,147.86L313.74,145.72L314.51,147.86L314.53,147.86L314.68,147.86L314.69,145.72L314.69,147.86L315.23,143.59L315.44,145.72L315.45,145.72L316.23,147.86L316.26,147.86L317.24,147.86L317.24,145.72L317.26,139.31L317.27,147.86L317.92,145.72L317.99,147.86L318.15,147.86L318.16,145.72L318.89,147.86L318.95,147.86L320.21,147.86L320.21,147.86L320.22,145.72L320.98,147.86L321.01,147.86L321.24,145.72L321.76,147.86L321.82,147.86L322.58,145.72L322.6,147.86L322.81,147.86L322.82,145.72L322.97,145.72L323,147.86L323.33,145.72L323.74,147.86L323.79,147.86L324.17,147.86L324.18,145.72L324.63,139.31L324.94,147.86L325.01,147.86L325.1,141.45L325.76,147.86L325.79,147.86L326.62,147.86L326.62,147.86L326.62,145.72L327.39,147.86L327.41,147.86L328.12,147.86L328.12,143.59L329,147.86L329,147.86L329.03,147.86L329.48,147.86L329.48,147.86L329.53,141.45L330.26,147.86L330.41,147.86L330.84,147.86L330.93,145.72L330.97,147.86L330.97,143.59L331.63,147.86L331.69,147.86L332.3,147.86L332.32,145.72L333.07,147.86L333.07,147.86L333.1,147.86L334.57,147.86L334.61,145.72L335.31,147.86L335.37,145.72L336.11,147.86L336.17,147.86L336.55,143.58L336.91,147.86L336.94,147.86L337.18,143.58L337.66,147.86L337.71,147.86L339.24,147.86L339.24,147.86L339.27,145.72L340.06,147.86L340.09,145.72L340.92,147.86L340.95,147.86L342.48,147.86L342.49,145.72L343.24,147.86L343.27,147.86L344.41,147.86L344.41,145.72L344.56,147.86L344.66,143.58L345.11,145.72L345.15,147.86L345.56,145.72L345.87,147.86L345.91,147.86L346.6,145.72L346.66,147.86L346.69,147.86L347.4,145.72L347.49,147.86L348.98,147.86L348.99,143.58L349.75,147.86L349.75,147.86L349.77,147.86L350.48,141.44L350.5,147.86L350.53,147.86L350.55,141.44L351.26,147.86L351.29,147.86L351.52,147.86L351.54,145.72L351.7,145.72L351.71,147.86L351.78,145.72L352.46,147.86L352.47,147.86L353.35,147.86L353.35,145.72L354.14,147.86L354.18,147.86L354.56,147.86L354.56,145.72L355.31,147.86L355.33,147.86L355.9,145.72L356.05,147.86L356.12,147.86L356.31,147.86L356.32,145.72L357.11,147.86L357.16,147.86L357.44,147.86L357.44,143.58L357.83,139.31L358.21,147.86L358.21,145.72L358.57,143.58L358.98,147.86L358.98,147.86L359,147.86L359.62,147.86L359.68,143.58L360.44,147.86L360.44,147.86L360.49,147.86L360.65,147.86L360.65,147.86L360.66,145.72L361.23,143.58L361.32,147.86L361.35,143.58L362.1,147.86L362.1,145.72L362.11,145.72L362.11,147.86L362.85,147.86L362.87,147.86L362.99,145.72L363.62,147.86L363.64,147.86L363.89,147.86L363.9,145.72L364.68,147.86L364.68,147.86L364.75,147.86L366.07,147.86L366.09,145.72L366.54,143.58L366.86,147.86L366.89,145.72L366.89,147.86L367.64,147.86L367.65,147.86L368.89,147.86L368.95,143.58L369.75,147.86L369.75,147.86L369.77,147.86L370.95,147.86L370.97,145.72L371.23,143.58L371.65,147.86L371.66,145.72L371.71,143.58L371.71,147.86L372.43,145.72L372.52,147.86L372.69,147.86L372.69,147.86L372.71,145.72L373.49,147.86L373.49,147.86L373.53,147.86L373.87,147.86L373.87,145.72L374.57,143.58L374.59,147.86L374.62,145.72L374.65,143.58L375.44,147.86L375.44,147.86L375.47,147.86L375.49,141.45L376.21,147.86L376.24,147.86L377.75,147.86L377.77,145.72L377.94,143.59L378.47,147.86L378.51,145.72L378.54,145.72L378.75,132.9L379.36,147.86L379.39,147.86L379.66,147.86L379.68,145.72L379.75,141.45L379.78,147.86L380.28,147.86L380.39,147.86L382.32,147.86L382.32,139.31L383.06,147.86L383.06,147.86L383.09,147.86L383.21,139.31L383.84,147.86L383.87,147.86L384.06,141.45L384.65,145.72L384.67,147.86L385.4,141.45L385.41,147.86L385.43,147.86L386.13,141.45L386.19,143.59L386.21,141.45L386.99,147.86L387.01,147.86L387.32,145.72L387.75,147.86L387.77,147.86L389.32,147.86L389.32,145.72L389.94,143.59L390.07,147.86L390.07,143.59L390.14,141.45L390.82,147.86L390.88,147.86L391.54,145.72L391.62,147.86L391.65,147.86L392.24,145.72L392.36,147.86L392.42,147.86L395.8,147.86L395.81,145.72L396.42,141.45L396.59,147.86L396.59,147.86L396.6,147.86L397.32,145.72L397.36,147.86L398,141.45L398.08,147.86L398.15,147.86L398.59,139.31L398.85,147.86L398.88,147.86L399,139.31L399,139.31" style="vector-effect: non-scaling-stroke; fill: none; stroke: rgb(0, 204, 150); stroke-opacity: 1; stroke-width: 2px; opacity: 1;"/></g><g class="points"/><g class="text"/></g></g></g><g class="overplot"/><path class="xlines-above crisp" d="M0,0" style="fill: none;"/><path class="ylines-above crisp" d="M0,0" style="fill: none;"/><g class="overlines-above"/><g class="xaxislayer-above"><g class="xtick"><text text-anchor="start" x="0" y="416" transform="translate(206.64,0) rotate(30,0,408.5)" style="font-family: 'Times New Roman'; font-size: 15px; fill: rgb(13, 13, 13); fill-opacity: 1; white-space: pre; opacity: 1;">1.6125210<tspan style="font-size:70%" dy="-0.6em">18</tspan><tspan dy="0.42em"></tspan></text></g><g class="xtick"><text text-anchor="start" x="0" y="416" style="font-family: 'Times New Roman'; font-size: 15px; fill: rgb(13, 13, 13); fill-opacity: 1; white-space: pre; opacity: 1;" transform="translate(285.82,0) rotate(30,0,408.5)">1.61252510<tspan style="font-size:70%" dy="-0.6em">18</tspan><tspan dy="0.42em"></tspan></text></g><g class="xtick"><text text-anchor="start" x="0" y="416" style="font-family: 'Times New Roman'; font-size: 15px; fill: rgb(13, 13, 13); fill-opacity: 1; white-space: pre; opacity: 1;" transform="translate(364.99,0) rotate(30,0,408.5)">1.6125310<tspan style="font-size:70%" dy="-0.6em">18</tspan><tspan dy="0.42em"></tspan></text></g><g class="xtick"><text text-anchor="start" x="0" y="416" style="font-family: 'Times New Roman'; font-size: 15px; fill: rgb(13, 13, 13); fill-opacity: 1; white-space: pre; opacity: 1;" transform="translate(444.17,0) rotate(30,0,408.5)">1.61253510<tspan style="font-size:70%" dy="-0.6em">18</tspan><tspan dy="0.42em"></tspan></text></g><g class="xtick"><text text-anchor="start" x="0" y="416" style="font-family: 'Times New Roman'; font-size: 15px; fill: rgb(13, 13, 13); fill-opacity: 1; white-space: pre; opacity: 1;" transform="translate(523.3399999999999,0) rotate(30,0,408.5)">1.6125410<tspan style="font-size:70%" dy="-0.6em">18</tspan><tspan dy="0.42em"></tspan></text></g></g><g class="yaxislayer-above"><g class="ytick"><text text-anchor="end" x="136" y="12.25" transform="translate(0,378.58)" style="font-family: 'Times New Roman'; font-size: 35px; fill: rgb(13, 13, 13); fill-opacity: 1; white-space: pre; opacity: 1;">0.06</text></g><g class="ytick"><text text-anchor="end" x="136" y="12.25" style="font-family: 'Times New Roman'; font-size: 35px; fill: rgb(13, 13, 13); fill-opacity: 1; white-space: pre; opacity: 1;" transform="translate(0,335.72)">0.04</text></g><g class="ytick"><text text-anchor="end" x="136" y="12.25" style="font-family: 'Times New Roman'; font-size: 35px; fill: rgb(13, 13, 13); fill-opacity: 1; white-space: pre; opacity: 1;" transform="translate(0,292.86)">0.02</text></g><g class="ytick"><text text-anchor="end" x="136" y="12.25" style="font-family: 'Times New Roman'; font-size: 35px; fill: rgb(13, 13, 13); fill-opacity: 1; white-space: pre; opacity: 1;" transform="translate(0,250)">0</text></g><g class="ytick"><text text-anchor="end" x="136" y="12.25" style="font-family: 'Times New Roman'; font-size: 35px; fill: rgb(13, 13, 13); fill-opacity: 1; white-space: pre; opacity: 1;" transform="translate(0,207.14)">0.02</text></g><g class="ytick"><text text-anchor="end" x="136" y="12.25" style="font-family: 'Times New Roman'; font-size: 35px; fill: rgb(13, 13, 13); fill-opacity: 1; white-space: pre; opacity: 1;" transform="translate(0,164.28)">0.04</text></g><g class="ytick"><text text-anchor="end" x="136" y="12.25" style="font-family: 'Times New Roman'; font-size: 35px; fill: rgb(13, 13, 13); fill-opacity: 1; white-space: pre; opacity: 1;" transform="translate(0,121.42)">0.06</text></g></g><g class="overaxes-above"/></g></g><g class="polarlayer"/><g class="smithlayer"/><g class="ternarylayer"/><g class="geolayer"/><g class="funnelarealayer"/><g class="pielayer"/><g class="iciclelayer"/><g class="treemaplayer"/><g class="sunburstlayer"/><g class="glimages"/><defs id="topdefs-b4a1e0"><g class="clips"/><clipPath id="legendb4a1e0"><rect width="144" height="67" x="0" y="0"/></clipPath></defs><g class="layer-above"><g class="imagelayer"/><g class="shapelayer"/></g><g class="infolayer"><g class="legend" pointer-events="all" transform="translate(543.98,100)"><rect class="bg" shape-rendering="crispEdges" style="stroke: rgb(68, 68, 68); stroke-opacity: 1; fill: rgb(255, 255, 255); fill-opacity: 1; stroke-width: 0px;" width="144" height="67" x="0" y="0"/><g class="scrollbox" transform="" clip-path="url(#legendb4a1e0)"><g class="groups"><g class="traces" transform="translate(0,14.5)" style="opacity: 1;"><text class="legendtext" text-anchor="start" x="40" y="4.680000000000001" style="font-family: 'Open Sans', verdana, arial, sans-serif; font-size: 12px; fill: rgb(42, 63, 95); fill-opacity: 1; white-space: pre;">Realized (in %)</text><g class="layers" style="opacity: 1;"><g class="legendfill"/><g class="legendlines"><path class="js-line" d="M5,0h30" style="fill: none; stroke: rgb(99, 110, 250); stroke-opacity: 1; stroke-width: 2px;"/></g><g class="legendsymbols"><g class="legendpoints"/></g></g><rect class="legendtoggle" x="0" y="-9.5" width="138.71875" height="19" style="fill: rgb(0, 0, 0); fill-opacity: 0;"/></g><g class="traces" transform="translate(0,33.5)" style="opacity: 1;"><text class="legendtext" text-anchor="start" x="40" y="4.680000000000001" style="font-family: 'Open Sans', verdana, arial, sans-serif; font-size: 12px; fill: rgb(42, 63, 95); fill-opacity: 1; white-space: pre;">Effective (in %)</text><g class="layers" style="opacity: 1;"><g class="legendfill"/><g class="legendlines"><path class="js-line" d="M5,0h30" style="fill: none; stroke: rgb(239, 85, 59); stroke-opacity: 1; stroke-width: 2px;"/></g><g class="legendsymbols"><g class="legendpoints"/></g></g><rect class="legendtoggle" x="0" y="-9.5" width="138.71875" height="19" style="fill: rgb(0, 0, 0); fill-opacity: 0;"/></g><g class="traces" transform="translate(0,52.5)" style="opacity: 1;"><text class="legendtext" text-anchor="start" x="40" y="4.680000000000001" style="font-family: 'Open Sans', verdana, arial, sans-serif; font-size: 12px; fill: rgb(42, 63, 95); fill-opacity: 1; white-space: pre;">Half Quoted (in %)</text><g class="layers" style="opacity: 1;"><g class="legendfill"/><g class="legendlines"><path class="js-line" d="M5,0h30" style="fill: none; stroke: rgb(0, 204, 150); stroke-opacity: 1; stroke-width: 2px;"/></g><g class="legendsymbols"><g class="legendpoints"/></g></g><rect class="legendtoggle" x="0" y="-9.5" width="138.71875" height="19" style="fill: rgb(0, 0, 0); fill-opacity: 0;"/></g></g></g><rect class="scrollbar" rx="20" ry="3" width="0" height="0" style="fill: rgb(128, 139, 164); fill-opacity: 1;" x="0" y="0"/></g><g class="g-gtitle"/><g class="g-xtitle"><text class="xtitle" x="336.5" y="487.503125" text-anchor="middle" style="font-family: 'Open Sans', verdana, arial, sans-serif; font-size: 14px; fill: rgb(42, 63, 95); opacity: 1; font-weight: normal; white-space: pre;">Time Steps (ns)</text></g><g class="g-ytitle" transform="translate(24,0)"><text class="ytitle" transform="rotate(-90,12,250)" x="12" y="250" text-anchor="middle" style="font-family: 'Times New Roman'; font-size: 40px; fill: rgb(13, 13, 13); opacity: 1; font-weight: normal; white-space: pre;">Spreads (in %)</text></g></g></svg>