<svg class="main-svg" xmlns="http://www.w3.org/2000/svg" xmlns:xlink="http://www.w3.org/1999/xlink" width="700" height="500" style="" viewBox="0 0 700 500"><rect x="0" y="0" width="700" height="500" style="fill: rgb(255, 255, 255); fill-opacity: 1;"/><defs id="defs-fff322"><g class="clips"><clipPath id="clipfff322xyplot" class="plotclip"><rect width="494" height="320"/></clipPath><clipPath class="axesclip" id="clipfff322x"><rect x="126" y="0" width="494" height="500"/></clipPath><clipPath class="axesclip" id="clipfff322y"><rect x="0" y="100" width="700" height="320"/></clipPath><clipPath class="axesclip" id="clipfff322xy"><rect x="126" y="100" width="494" height="320"/></clipPath></g><g class="gradients"/><g class="patterns"/></defs><g class="bglayer"><rect class="bg" x="126" y="100" width="494" height="320" style="fill: rgb(229, 236, 246); fill-opacity: 1; stroke-width: 0;"/></g><g class="layer-below"><g class="imagelayer"/><g class="shapelayer"/></g><g class="cartesianlayer"><g class="subplot xy"><g class="layer-subplot"><g class="shapelayer"/><g class="imagelayer"/></g><g class="minor-gridlayer"><g class="x"/><g class="y"/></g><g class="gridlayer"><g class="x"><path class="xgrid crisp" transform="translate(212.22,0)" d="M0,100v320" style="stroke: rgb(255, 255, 255); stroke-opacity: 1; stroke-width: 1px;"/><path class="xgrid crisp" transform="translate(310.25,0)" d="M0,100v320" style="stroke: rgb(255, 255, 255); stroke-opacity: 1; stroke-width: 1px;"/><path class="xgrid crisp" transform="translate(408.28,0)" d="M0,100v320" style="stroke: rgb(255, 255, 255); stroke-opacity: 1; stroke-width: 1px;"/><path class="xgrid crisp" transform="translate(506.3,0)" d="M0,100v320" style="stroke: rgb(255, 255, 255); stroke-opacity: 1; stroke-width: 1px;"/><path class="xgrid crisp" transform="translate(604.3299999999999,0)" d="M0,100v320" style="stroke: rgb(255, 255, 255); stroke-opacity: 1; stroke-width: 1px;"/></g><g class="y"><path class="ygrid crisp" transform="translate(0,339.77)" d="M126,0h494" style="stroke: rgb(255, 255, 255); stroke-opacity: 1; stroke-width: 1px;"/><path class="ygrid crisp" transform="translate(0,275.53999999999996)" d="M126,0h494" style="stroke: rgb(255, 255, 255); stroke-opacity: 1; stroke-width: 1px;"/><path class="ygrid crisp" transform="translate(0,211.31)" d="M126,0h494" style="stroke: rgb(255, 255, 255); stroke-opacity: 1; stroke-width: 1px;"/><path class="ygrid crisp" transform="translate(0,147.07999999999998)" d="M126,0h494" style="stroke: rgb(255, 255, 255); stroke-opacity: 1; stroke-width: 1px;"/></g></g><g class="zerolinelayer"><path class="yzl zl crisp" transform="translate(0,404)" d="M126,0h494" style="stroke: rgb(255, 255, 255); stroke-opacity: 1; stroke-width: 2px;"/></g><path class="xlines-below"/><path class="ylines-below"/><g class="overlines-below"/><g class="xaxislayer-below"/><g class="yaxislayer-below"/><g class="overaxes-below"/><g class="plot" transform="translate(126,100)" clip-path="url(#clipfff322xyplot)"><g class="scatterlayer mlayer"><g class="trace scatter trace8cd69b" style="stroke-miterlimit: 2; opacity: 1;"><g class="fills"/><g class="errorbars"/><g class="lines"><path class="js-line" d="M0,304L0.74,302.34L0.79,304L1.43,302.32L1.56,304L1.99,300.36L2.19,304L2.32,304L2.79,302.9L2.83,303.65L2.89,301.76L2.89,304L3.38,295.35L3.61,303.31L3.7,302.97L3.7,304L4.28,297.2L4.44,304L4.46,304L4.6,303.39L4.79,303.92L4.8,297.71L5.52,304L5.61,304L6.36,285.41L6.37,303.92L6.4,304L6.56,291.95L7.1,303.58L7.15,303.4L7.81,301.33L7.9,304L7.94,302.67L7.94,304L8.59,300.12L8.66,304L8.74,303.55L8.74,304L9.37,300.76L9.48,304L9.58,304L10.27,302.19L10.32,302.25L10.52,304L11.07,295.92L11.24,304L11.3,304L11.73,302.21L12.06,303.3L12.06,304L12.17,300.49L12.3,304L12.3,296.59L13.02,304L13.02,302.8L13.14,304L13.34,302.58L13.57,303.27L13.57,304L13.61,300.74L14.31,304L14.42,304L14.9,297.43L15.17,303.74L15.22,303.66L15.41,304L15.41,295.88L16.17,304L16.3,304L17.08,299.16L17.08,304L17.11,299.58L17.82,304L17.84,304L18.41,285.61L18.54,304L18.59,304L18.79,304L18.79,304L18.79,302.9L19.12,299.25L19.55,304L19.57,303.97L19.59,303.67L19.61,304L19.74,297.23L20.29,304L20.44,303.69L20.44,304L20.67,301.66L21.17,302.99L21.28,304L21.76,299.88L21.86,303.93L22.08,302.99L22.44,297.02L22.83,304L22.83,303.86L23.05,303.14L23.05,304L23.49,301.52L23.8,304L23.9,304L23.9,301.73L24.64,303.35L24.66,304L25.4,287.36L25.4,304L25.42,304L26.08,295.31L26.14,303.75L26.21,304L26.51,302.28L26.95,303.79L27.01,303.82L27.1,304L27.51,299.09L27.75,304L27.78,304L28.41,295.28L28.41,303.82L28.48,304L28.49,293.59L29.23,304L29.34,304L29.48,302.36L30.09,303.6L30.14,304L30.79,298.69L30.88,304L30.94,303.23L30.94,304L31.65,291.89L31.66,303.74L31.7,289.64L31.7,304L31.84,272.79L32.42,303.73L32.45,303.79L32.72,300.82L32.98,304L32.98,301.78L33.05,304L33.39,298.63L33.64,304L33.77,300.06L33.77,304L34,299.73L34.51,303.96L34.56,303.85L34.62,303.12L34.62,304L34.71,303.95L34.71,293.04L35.01,289.32L35.51,304L35.51,303.83L35.67,302.09L36.16,304L36.16,303.94L36.16,285.34L36.16,304L36.27,285.17L36.89,301.7L36.96,304L37.03,301.62L37.65,303.57L37.67,303.93L37.7,304L38.02,301.13L38.42,303.34L38.42,304L38.94,300.88L39.16,303.64L39.19,304L39.36,301.95L39.73,304L39.73,298.27L39.92,296.32L40.47,304L40.52,303.91L40.56,303.15L40.56,304L40.75,293.66L41.28,303.27L41.32,304L41.52,302.59L42.06,304L42.09,304L42.13,302.91L42.24,304L42.24,270.44L43.01,304L43.01,303.85L43.02,304L43.44,301.67L43.76,304L43.82,304L44.49,297.14L44.52,304L45.11,294.35L45.21,303.91L45.3,304L46.04,288.52L46.05,304L46.06,302.8L46.11,286.32L46.27,304L46.28,303.82L46.28,287.41L46.31,304L47.02,304L47.04,304L47.05,282.93L47.76,303.85L47.8,304L47.85,275.97L48.54,303.78L48.61,303.97L48.62,304L48.73,299.02L49.36,303.99L49.4,303.76L49.4,304L50.14,291.29L50.15,304L50.22,303.72L50.23,287.84L50.58,304L50.58,286.04L51.16,283.55L51.35,304L51.35,304L51.37,304L51.44,278.81L51.99,304L52.14,304L52.64,297.88L52.87,304L52.93,304L53.15,302.89L53.6,304L53.77,304L53.98,267.42L54.17,304L54.25,304L54.26,299.4L54.99,304L55.14,304L55.82,298.88L55.84,304L56.37,301.99L56.5,302.41L56.51,304L56.55,296.27L57.26,303.64L57.29,303.6L57.29,304L57.42,301.82L58,304L58.06,304L58.7,298.9L58.73,301.21L58.73,304L59.16,299.42L59.48,303.72L59.54,303.79L59.85,302L60.28,304L60.28,304L60.28,303.15L60.43,298.85L61.01,304L61.02,303.92L61.07,304L61.45,288.97L61.79,302.48L61.79,304L61.99,301.95L62.45,304L62.52,304L63.25,296.97L63.25,303.56L63.28,304L63.43,301.48L63.5,301.53L63.57,281.13L64.32,304L64.32,303.72L64.39,304L64.69,277.32L65.13,304L65.18,302.99L65.18,304L65.55,296.16L65.89,304L65.94,303.47L65.94,304L66.37,301.65L66.66,303L66.72,304L67.23,299.4L67.44,304L67.47,304L67.9,297.52L67.92,304L67.99,304L68.72,286.53L68.72,287.1L68.75,303.56L68.77,304L69.06,274.04L69.48,303.59L69.51,303.88L69.68,302.55L69.7,304L69.76,304L69.83,304L69.99,302.87L70.08,303.93L70.09,300.85L70.19,297.94L70.84,304L70.87,303.91L70.92,303.85L71.16,302.34L71.43,304L71.43,291.59L71.43,304L72.18,304L72.35,295.33L72.35,304L72.94,240.48L73.1,303.38L73.13,304L73.58,301.73L73.86,304L73.91,303.38L74.44,300.59L74.46,304L74.54,303.68L74.55,300.59L74.55,304L74.76,230.7L75.28,303.85L75.32,304L75.5,304L75.5,294.99L76.22,293.51L76.22,304L76.23,303.9L76.28,304L76.43,300.69L76.94,304L76.99,304L77.42,295.16L77.61,303.66L77.77,303.01L78.06,304L78.09,303.27L78.13,219.05L78.19,215.63L78.19,304L78.28,303.72L78.46,304L78.46,298.54L79.2,304L79.28,303.36L79.81,302.85L79.88,304L79.93,303.46L79.95,209.59L80.22,205.38L80.68,304L80.68,303.88L80.72,303.81L80.72,304L81.45,300.05L81.47,303.93L81.48,304L81.61,302.15L81.89,304L81.97,304L82.29,301.13L82.49,301.77L82.49,197.68L83.31,304L83.32,304L83.59,302.56L84.03,304L84.09,298.23L84.81,296.87L84.89,304L84.92,303.44L84.94,296.19L85.66,304L85.67,303.98L85.74,304L86.28,299.62L86.49,303.08L86.5,304L87.2,294.94L87.25,304L87.26,303.92L87.46,302.68L87.5,304L87.55,304L87.76,295.56L88.3,301.96L88.36,304L88.41,293.14L89.11,302.84L89.12,303.96L89.3,304L89.56,301.55L89.86,303.94L89.93,304L90.29,72.59L90.64,304L90.73,304L91.33,298.81L91.49,303.49L91.51,303.93L91.51,297.73L91.53,304L92.2,304L92.27,303.75L92.45,303.95L92.47,302.26L92.47,304L92.98,301.68L93.09,304L93.23,304L93.83,299.85L93.98,303.89L93.99,303.98L94.39,302.45L94.45,304L94.83,295.02L95.2,303.76L95.21,304L95.56,55.04L95.94,303.81L95.97,304L96.71,303.48L96.75,304L96.75,300.81L96.87,300.62L97.5,304L97.5,303.65L97.55,303.86L97.61,303.19L97.61,303.75L97.63,294.26L97.63,304L98.12,292.64L98.37,303.69L98.4,304L98.52,303.06L98.92,303.95L98.93,304L98.94,16L99.57,303.7L99.71,303.51L99.71,304L99.79,298.1L100.33,304L100.47,304L101.09,299.6L101.22,304L101.23,304L101.66,289.44L101.97,302.94L101.99,302.43L101.99,304L102.08,302.18L102.72,303.84L102.76,304L103.29,290.65L103.48,303.93L103.54,303.37L103.54,304L104.1,279.34L104.29,303.92L104.31,304L105.04,272.54L105.07,304L105.68,302.49L105.83,303.36L105.86,304L106.33,266.87L106.6,304L106.64,303.78L106.64,304L106.75,265.18L107.34,304L107.4,304L107.89,297.02L108.14,303.76L108.17,303.88L108.18,304L108.49,298.32L108.92,303.79L108.92,304L109.28,302.31L109.7,303.39L109.7,304L110.08,298.87L110.44,303.91L110.49,304L110.91,226.52L111.24,304L111.27,303.68L111.42,302.36L111.9,304L111.96,303.96L111.96,301.99L112.72,304L112.77,304L113.47,300.07L113.54,303.69L113.59,304L113.9,298.65L114.29,304L114.33,304L114.93,302.74L115.05,303.94L115.11,303.63L115.11,304L115.8,300.87L115.84,304L115.9,304L116.21,299.55L116.59,303.7L116.73,304L116.73,297.86L117.48,303.48L117.49,303.47L117.57,304L117.98,302.33L118.16,304L118.18,304L118.18,301.64L118.91,304L118.97,304L119.29,298.83L119.72,303.23L119.73,303.97L119.82,304L120.26,293.94L120.26,304L120.35,303.91L120.78,302.47L120.78,304L121.43,298.19L121.46,303.1L121.56,302.68L121.56,304L121.96,293.66L122.27,304L122.32,303.83L122.38,302.19L122.94,304L122.94,304L122.94,299.68L123.41,298.17L123.69,304L123.71,304L124.01,300.19L124.46,304L124.47,298.88L124.47,304L125.22,303L125.23,304L125.49,296.87L125.98,304L126.06,304L126.19,294.57L126.8,304L126.84,304L127.04,301.94L127.51,304L127.58,303.61L127.58,304L128.27,267.64L128.29,303.96L128.38,304L128.74,300.63L128.86,304L129.39,296.5L129.6,304L129.62,304L129.79,295.21L129.99,304L130.02,304L130.06,300.89L130.68,301.86L130.83,300.58L130.83,304L131.56,304L131.6,301.76L131.75,297.39L132.35,304L132.36,303.84L132.47,304L132.47,301.42L132.47,304L133.16,297.88L133.21,304L133.26,303.29L133.26,304L133.38,292.75L133.99,304L134.02,304L134.52,300.69L134.71,303.83L134.71,304L135.36,299.71L135.39,304L135.47,304L135.84,293.48L136.18,303.97L136.24,304L136.65,281.06L136.99,303.68L137.04,304L137.21,295.63L137.75,301.76L137.8,303.37L137.9,304L138.35,299.96L138.51,304L138.59,304L139.13,294.38L139.26,303.98L139.37,304L139.68,291L140.08,303.82L140.14,304L140.76,287L140.88,303.61L140.94,304L141.13,304L141.13,283.45L141.18,304L141.85,300.79L141.89,300.93L141.9,279.91L142.64,304L142.66,304L143.33,297.45L143.41,304L143.44,304L143.44,300.74L144.16,302.93L144.23,304L144.38,291.58L144.98,303.38L145,304L145.5,281.81L145.68,303.82L145.76,304L146.1,279.39L146.49,304L146.52,303.79L146.64,304L146.66,303.6L146.69,303.99L146.7,298.36L146.7,304L146.74,298.33L147.45,300.62L147.51,303.81L147.54,304L147.59,303.73L147.6,270.51L148.35,304L148.36,303.81L148.36,304L149.11,287.94L149.11,304L149.12,304L149.23,303.84L149.24,303.96L149.26,299.02L149.26,304L149.38,283.22L149.92,302.86L150.05,304L150.46,301.13L150.78,303.95L150.86,304L150.86,300.86L151.61,303.99L151.64,304L152.41,297.86L152.41,304L152.48,303.79L152.5,304L152.51,297.96L152.51,304L152.63,294.66L153.25,303.69L153.27,303.49L153.34,301.69L153.49,304L153.49,289.57L153.49,289.41L153.51,304L154.23,304L154.33,304L155.07,283.37L155.07,303.99L155.14,303.6L155.26,304L155.85,301.44L155.89,304L155.97,303.61L155.97,304L155.99,279.52L156.7,304L156.73,303.34L156.73,304L157.22,292.96L157.48,303.47L157.49,303.86L157.62,304L157.8,287.35L158.21,303.84L158.25,303.87L158.29,304L158.49,301.88L158.93,304L159.01,304L159.71,302.63L159.73,303.69L159.77,304L160.16,304L160.16,296.67L160.33,293.35L160.97,304L160.98,303.93L161.05,304L161.58,300.44L161.75,304L161.81,304L162.27,297.65L162.56,304L162.6,303.86L162.7,301.95L162.7,304L163.25,302.48L163.25,304L163.97,289.55L164,303.81L164.09,304L164.32,285.16L164.81,303.8L164.85,304L165.39,301.9L165.62,303.58L165.62,304L165.84,300.87L166.14,303L166.14,296.4L166.72,304L166.81,301.63L166.88,300.41L166.88,304L167.59,294.17L167.62,303.92L167.64,294.35L167.79,239.77L168.41,304L168.44,299.72L168.44,235.99L168.8,174.65L169.28,304L169.28,303.7L169.32,303.58L169.32,304L170.05,166.55L170.07,304L170.19,165.18L170.19,304L170.93,303.97L170.96,303.9L170.99,304L171.13,296.02L171.37,303.94L171.42,151.99L171.42,304L171.47,150.1L172.12,303.84L172.22,304L172.41,300.45L172.84,304L173.02,304L173.75,294.96L173.75,304L173.84,304L173.84,296.05L174.59,304L174.6,304L175.1,290.51L175.18,304L175.19,304L175.74,284.36L175.91,303.8L176.05,303.55L176.05,304L176.76,299.99L176.78,304L176.85,304L176.94,303.62L176.96,304L176.96,299.55L177.03,299.49L177.67,304L177.76,304L178.17,298.19L178.46,303.79L178.58,303.39L178.63,301.91L179.18,304L179.18,303.57L179.23,298.99L179.23,304L179.88,293.83L179.95,304L179.99,304L180.11,293.81L180.26,304L180.32,303.25L180.77,304L180.77,301.09L180.78,303.75L180.81,279.86L180.81,304L181.55,272.54L181.55,303.89L181.57,299.45L182.33,304L182.37,303.61L182.44,304L182.84,299.66L183.18,302.21L183.22,304L183.92,300.93L183.96,304L183.99,304L184.49,293.28L184.59,304L184.69,304L185.17,299.59L185.41,303.84L185.48,304L185.93,299.93L186.23,304L186.25,304L186.76,300.16L186.95,303.97L187,303.83L187.08,304L187.08,303.35L187.12,303.83L187.23,282.87L187.23,304L187.98,303.66L187.99,303.95L188.04,304L188.51,294.05L188.74,303.89L188.74,304L189.35,64.38L189.49,302.93L189.5,303.96L189.7,304L189.7,303.13L190.11,301.76L190.29,304L190.29,301.45L190.9,299.52L191.04,304L191.08,303.56L191.57,301.98L191.83,304L191.83,303.86L191.88,304L192.04,302.51L192.26,303.76L192.26,49.04L193.01,304L193.03,304L193.14,303.71L193.17,304L193.17,43.35L193.85,304L193.96,304L194.45,297.78L194.59,304L194.78,303.22L194.78,304L195.4,293.34L195.51,304L195.63,295.94L195.66,304L196.01,284.81L196.29,303.86L196.37,304L196.86,301.7L197.11,303.75L197.13,303.93L197.17,304L197.35,300.27L197.81,304L197.94,304L198.3,274.39L198.68,304L198.77,304L199.14,302.85L199.38,304L199.4,304L199.86,300.13L200.11,301.09L200.21,304L200.22,266.26L200.91,304L200.98,303.59L200.98,304L201.66,300.44L201.73,304L201.74,304L202.43,297.98L202.47,303.88L202.56,304L203.29,254.34L203.29,304L203.33,304L203.9,251.01L204.04,303.74L204.09,303.33L204.09,304L204.81,301.48L204.83,303.94L204.88,304L205.53,301.71L205.6,304L205.65,304L205.66,244.88L206.4,304L206.41,304L206.95,217.54L207.16,304L207.19,304L207.76,176.74L207.91,302.39L207.96,303.83L208.13,304L208.18,303.52L208.2,174.87L208.2,304L208.93,304L209,303.86L209.01,304L209.47,301.3L209.74,304L209.77,304L210.01,300.99L210.51,304L210.52,303.99L210.54,304L210.95,297.43L211.26,304L211.28,303.92L211.32,303.68L211.32,304L211.34,304L211.34,295.8L211.34,304L211.97,303.77L212.12,304L212.18,303.3L212.84,304L212.9,304L213.11,300.38L213.42,303.17L213.53,303.85L213.56,301.48L213.76,304L213.76,300.1L213.76,304L214.23,298.41L214.5,301.39L214.52,303.91L214.7,303.16L214.91,304L214.91,301.92L214.97,301.61L215.68,304L215.76,303.75L215.89,302.98L216.05,304L216.05,302.29L216.11,304L216.72,289.23L216.8,303.62L216.81,303.82L216.81,304L217.14,301.09L217.5,304L217.57,304L218.07,295.77L218.32,303.07L218.36,304L218.78,296.63L218.91,304L218.91,293.04L219.67,304L219.67,303.42L220.34,302.53L220.34,304L220.36,302.6L220.36,304L220.8,301.8L221.1,304L221.12,303.76L221.36,302.77L221.66,304L221.76,302.82L221.76,304L222.21,294.86L222.51,304L222.53,304L223.08,301.19L223.22,303.59L223.22,304L223.51,299.31L223.95,303.09L224.04,303.72L224.04,304L224.66,300.38L224.77,303.92L224.84,304L225.01,300.44L225.41,303.36L225.46,304L226.1,301.35L226.19,304L226.22,303.53L226.22,304L226.83,298.15L226.97,303.92L226.99,303.94L227.14,304L227.47,301.9L227.47,304L228.2,298.04L228.2,304L228.32,304L228.72,294.33L229.06,303.83L229.08,304L229.74,301.31L229.8,303.79L229.84,303.62L229.87,304L230.15,295.02L230.51,303.97L230.64,303.28L230.67,304L230.87,301.43L231.39,303.83L231.4,304L231.5,298.55L232.14,304L232.16,302.98L232.16,304L232.19,299.33L232.9,303.41L232.99,304L233.49,297.4L233.72,304L233.76,303.12L233.76,304L234.35,300.88L234.48,303.97L234.55,304L235.3,295.6L235.3,304L235.32,303.89L235.39,304L235.87,301.45L236.06,303.35L236.06,304L236.24,300.69L236.37,303.79L236.38,304L236.64,300.06L237.11,303.55L237.16,304L237.49,303.11L237.57,303.94L237.58,257.9L238.07,256.22L238.24,304L238.44,304L239.11,302.5L239.24,303.19L239.24,303.48L239.24,304L239.8,212.7L239.99,303.16L240.01,304L240.43,297.33L240.75,303.64L240.77,304L241.12,298.79L241.34,303.69L241.4,303.81L241.56,302.45L241.9,304L241.9,304L241.9,302.67L242.39,302.58L242.65,304L242.65,302.11L242.93,300.94L243.03,304L243.12,303.29L243.16,296.79L243.16,304L243.78,196.5L243.9,303.81L243.97,303.75L244.45,301.33L244.63,304L244.63,300.94L244.93,304L244.97,192.56L244.97,304L245.26,191.51L245.72,303.35L245.76,304L246.25,293.77L246.51,304L246.52,304L247.28,299.39L247.28,304L247.45,302.7L247.63,303.8L247.64,300.41L247.64,304L248.16,294.63L248.37,304L248.4,304L248.73,302.65L248.78,304L248.82,171.24L249.48,168.16L249.59,304L249.61,304L250.29,302.82L250.33,304L250.37,304L251.12,300.47L251.13,304L251.77,298.22L251.83,303.73L251.89,304L252.66,301.34L252.66,294.85L253.43,304L253.43,303.83L253.5,303.69L253.65,301.56L254.26,304L254.26,301.92L254.74,297.31L254.88,304L255.01,303.91L255.03,285.83L255.7,304L255.76,303.83L255.95,303.39L255.95,304L256.33,299.7L256.7,304L256.71,304L257.4,300.72L257.47,304L257.49,304L257.98,300.38L258.15,303.79L258.15,275.17L258.15,304L258.88,270.82L258.9,304L258.93,304L259.3,301.67L259.56,303.77L259.75,304L259.99,302.1L260.5,303.78L260.51,304L261.2,260.79L261.25,303.65L261.3,260.23L261.39,259.03L262,304L262.04,303.97L262.07,303.9L262.24,304L262.44,302.11L262.5,303.07L262.51,301.32L263.14,298.62L263.2,304L263.36,304L263.62,297.19L264.09,304L264.17,304L264.77,298.3L264.83,304L264.83,292.08L264.83,304L265.55,303.92L265.6,304L266.23,292.3L266.32,303.55L266.36,303.87L266.39,291.73L266.53,304L267.07,303.92L267.13,304L267.67,300.22L267.86,303.48L267.93,304L268.68,298.16L268.7,303.74L268.7,304L269.25,296.56L269.42,303.94L269.47,303.73L269.63,304L270.24,300.75L270.24,302.8L270.29,304L270.35,300.33L271.04,302.13L271.05,304L271.22,302.27L271.41,304L271.44,304L272.05,293.29L272.24,301.52L272.24,304L272.3,303.18L272.4,304L272.41,292.14L272.41,304L273.08,304L273.25,304L273.27,301.95L273.98,303.4L274.04,301.21L274.04,304L274.44,298.79L274.77,304L274.83,303.42L274.83,304L275.19,299.42L275.57,304L275.59,303.87L275.6,304L276.17,299.96L276.3,303.91L276.38,304L277.07,301.34L277.14,303.78L277.2,304L277.58,301.93L277.95,303.79L277.98,303.9L278.07,304L278.7,302.06L278.7,304L278.74,304L279.35,302.45L279.49,304L279.53,303.77L279.53,304L280.24,296.86L280.3,304L280.75,289L281.03,302.58L281.12,304L281.27,300.33L281.87,304L281.89,303.69L282.16,302.66L282.36,304L282.36,303.67L282.41,293.48L282.41,304L282.66,288.37L283.16,304L283.21,304L283.64,295.88L283.96,303.24L284.03,304L284.77,301.75L284.77,304L284.79,304L285.34,299.04L285.5,303.43L285.6,304L286.29,301.19L286.35,303.72L286.38,304L287.08,292.64L287.13,303.7L287.16,303.96L287.75,303.04L287.75,303.85L287.75,290.37L287.84,289.2L287.86,304L288.54,301.41L288.62,303.93L288.66,303.87L288.76,304L289.29,300.76L289.35,304L289.41,304L289.99,294.86L290.12,304L290.19,303.74L290.41,302.8L290.53,304L290.62,303.89L290.64,301.33L290.78,295.78L291.37,304L291.41,303.68L291.45,304L291.92,299.54L292.18,303.87L292.23,304L292.37,298.01L292.96,303.83L292.99,303.85L293.05,304L293.23,296.5L293.74,302.6L293.74,304L294.35,300.43L294.48,304L294.54,304L294.85,291.88L295.1,304L295.2,304L295.32,301.61L295.93,304L295.96,304L296.22,293.78L296.67,304L296.73,291.22L296.73,304L297.45,303.82L297.49,300.26L297.49,304L297.89,299.07L298.24,300.99L298.28,303.92L298.35,304L298.47,300.45L298.82,303.8L298.86,304L299.28,301.44L299.45,303.56L299.62,304L299.62,288.45L300.35,303.87L300.38,303.92L300.48,304L300.63,302.53L300.74,304L300.74,298.66L300.85,255.32L301.52,304L301.52,303.01L301.55,303.1L301.55,304L302.23,298.42L302.27,303.88L302.31,304L302.42,303.22L302.48,304L302.59,297.15L302.59,304L303.33,283.01L303.34,303.72L303.37,304L303.56,268.2L304.07,304L304.13,303.46L304.2,301.16L304.29,304L304.38,303.68L304.42,249.84L304.42,304L305.14,304L305.18,303.85L305.26,304L305.35,297.68L305.38,304L305.46,303.46L305.47,304L305.48,297.17L305.62,295.11L305.62,304L305.76,300.35L305.79,303.89L305.93,304L305.93,291.04L306.52,303.93L306.56,303.88L306.68,304L306.83,301.87L307.18,303.65L307.2,303.93L307.21,304L307.86,300.33L307.95,303.82L307.95,303.98L308.02,304L308.58,294.99L308.7,303.41L308.72,304L309.26,300.41L309.47,302.94L309.48,304L309.87,298.06L310.23,303.1L310.29,304L311,301.59L311.05,303.86L311.07,303.93L311.13,304L311.26,297.62L311.26,299.71L311.34,304L311.9,302.45L312.09,304L312.14,303.6L312.14,304L312.69,281.39L312.89,303.73L312.9,304L313.45,276.92L313.59,304L313.68,274.08L313.68,304L313.85,200.72L314.38,303.79L314.46,194.85L314.46,304L315.17,304L315.24,304L315.83,299.5L316,303.1L316,304L316.08,302.01L316.29,303.52L316.36,188.21L316.36,304L317.1,304L317.14,303.5L317.27,301.67L317.84,304L317.86,303.69L317.9,167.15L317.9,304L318.08,166.2L318.65,303.92L318.66,304L319.08,300.9L319.41,304L319.44,304L319.51,297.14L319.7,304L319.7,147.81L320.39,304L320.46,303.85L320.48,303.63L320.48,304L320.89,301.81L321.2,303.76L321.24,304L321.96,299L321.99,304L322.06,303.68L322.07,304L322.74,137.78L322.81,304L322.93,304L323.17,300.74L323.59,304L323.69,304L323.91,300.87L324.37,303.35L324.49,304L324.66,300.64L324.91,301.62L324.93,304L325.23,300.77L325.23,303.3L325.29,304L325.62,299.8L326.04,304L326.15,304L326.24,296.64L326.9,303.71L326.91,304L327.62,299.67L327.65,299.92L327.66,121.19L327.74,112.03L328.4,304L328.4,302.49L328.45,303.59L328.56,302.07L328.95,304L328.97,293.53L329,304L329.3,292.45L329.71,303.83L329.74,303.99L330.35,302.93L330.52,303.42L330.61,304L330.81,299.99L331.26,304L331.27,304L331.72,298.87L332.02,304L332.06,304L332.55,298.36L332.8,303.51L332.86,302.57L333.56,300.28L333.57,304L333.61,303.97L333.67,303.82L333.72,304L334.38,300.07L334.39,304L334.93,285.45L335.1,304L335.18,302.56L335.18,304L335.83,281.96L335.93,304L335.95,304L336.22,303.74L336.24,302.9L336.24,304L336.84,278.21L336.99,304L337.01,304L337.16,276.8L337.77,291.19L337.77,304L338.28,269.53L338.34,289.34L338.39,303.82L338.41,269.11L338.48,304L339.08,304L339.14,304L339.75,300.35L339.87,303.87L339.9,304L340.52,296.62L340.65,303.56L340.7,303.83L340.8,302.65L341.32,304L341.32,301.64L342.03,304L342.06,303.69L342.18,303.6L342.2,304L342.74,254.88L342.93,302.78L342.95,303.7L342.95,304L343.64,287.01L343.65,304L343.74,303.3L343.97,304L344.28,300.55L344.28,249.59L344.28,304L344.44,249.02L345.01,303.88L345.07,303.82L345.08,304L345.17,302.68L345.82,304L345.84,304L346.26,242.87L346.51,303.88L346.63,304L346.97,215.12L347.31,303.65L347.4,304L348.05,300.77L348.12,303.3L348.12,304L348.46,303.05L348.75,303.66L348.77,304L349.41,205.03L349.41,304L350.06,302.25L350.16,304L350.17,304L350.9,300.87L350.91,301.83L350.96,304L351.55,298.75L351.58,304L351.64,303.93L351.81,304L351.81,301.1L351.92,303.97L351.94,303.93L352.21,303.01L352.26,296.42L352.26,304L352.39,296.01L352.96,304L353.03,304L353.55,292.19L353.76,304L353.8,303.81L353.8,304L353.83,164.08L354.55,303.78L354.58,303.91L354.59,304L355.28,286.54L355.31,304L355.37,304L355.51,303.56L356.07,304L356.13,304L356.76,300.63L356.86,304L356.88,304L356.96,299.83L357.6,302.12L357.67,304L357.67,302.12L358.39,303.95L358.43,301.69L358.43,304L358.86,299.37L359.17,304L359.32,304L359.47,290.75L360.06,303.99L360.09,304L360.77,301.35L360.87,301.72L360.87,304L361.17,301.11L361.62,303.68L361.65,304L362.29,300.4L362.32,304L362.34,304L362.37,300.23L362.4,302.57L362.4,304L362.89,302.41L362.97,303.74L362.97,304L363.04,303.41L363.07,303.55L363.11,293.19L363.46,289.62L363.89,304L363.89,303.61L363.98,303.16L363.98,303.98L363.98,303.44L364.01,302.66L364.01,304L364.61,282.96L364.76,303.98L364.77,304L365.24,287.09L365.52,304L365.53,303.77L365.53,304L365.81,301.35L366.28,302.6L366.29,304L366.33,300.39L367.04,304L367.07,304L367.81,294.53L367.82,303.97L367.86,304L367.94,293.04L368.35,304L368.46,304L369.11,299.26L369.16,303.94L369.22,303.82L369.22,304L369.61,289.31L369.9,303.85L369.98,303.67L369.98,304L370.03,302.51L370.72,304L370.76,303.35L370.81,304L370.94,298.44L371.47,301.17L371.53,303.78L371.53,304L371.53,301L372.27,304L372.3,303.82L372.35,304L372.38,292.24L373.04,304L373.06,304L373.61,298.56L373.8,303L373.84,303.72L373.97,300.63L374.46,304L374.56,303.9L374.56,302.4L374.56,304L374.77,287.84L375.31,304L375.39,303.42L375.66,302.64L376.1,304L376.16,301.04L376.74,297.81L376.93,304L376.99,303.02L376.99,304L377.53,296.68L377.74,302.8L377.75,304L378.05,293.01L378.48,303.89L378.51,303.45L378.71,302.15L379.24,304L379.26,303.88L379.26,302.3L379.26,304L379.75,301.39L380,303.89L380.04,303.87L380.07,304L380.7,294.31L380.75,304L380.8,304L380.88,303.34L380.89,303.61L380.89,287.03L381.68,304L381.68,303.69L381.73,302.97L381.82,300.26L382.48,304L382.48,303.17L382.65,304L383.04,302L383.4,303.48L383.42,304L383.54,298.54L383.58,304L383.58,294.44L384.28,272.48L384.34,304L384.4,304L384.99,248.16L385.14,303.84L385.16,304L385.34,301.98L385.74,303.41L385.75,304L386.01,233.7L386.32,304L386.45,303.22L386.45,304L387.11,296.18L387.2,303.84L387.24,303.55L387.47,304L387.47,294.48L387.52,294.31L387.52,304L387.72,293.72L388.2,303.99L388.29,303.72L388.29,304L388.61,295.71L389.03,304L389.05,304L389.65,300.52L389.8,303.39L389.82,304L389.93,303.1L389.93,304L389.93,298.87L390.03,296.98L390.68,304L390.76,304L390.8,299.87L391.49,301.33L391.52,304L392.22,297.18L392.22,304L392.3,303.69L392.3,304L393.01,268.31L393.04,303.04L393.13,304L393.25,296.62L393.88,303.75L393.9,303.8L393.97,300.95L394.62,304L394.62,303.65L394.68,303.82L394.93,302.35L395.22,304L395.24,302.7L395.27,304L395.59,300.81L395.98,304L396.01,304L396.44,300.29L396.73,304L396.78,303.7L397.13,302.16L397.49,304L397.52,303.92L397.57,304L397.9,299.26L398.1,303.97L398.18,303.49L398.31,294.06L398.31,304L398.34,303.78L398.37,286.44L398.45,304L399.1,304L399.13,304L399.74,300.09L399.75,303.96L399.8,304L400.36,301.78L400.55,304L400.57,303.9L400.59,304L400.67,300.22L401.32,303.47L401.35,300.61L401.6,275.16L402.11,304L402.13,304L402.89,301.52L402.91,270.8L403.45,266.81L403.64,304L403.69,304L404.38,301.19L404.42,303.9L404.47,261.35L404.47,304L404.72,242.79L405.13,303.96L405.27,304L405.74,298.01L405.98,303.73L406.1,304L406.34,293.19L406.8,304L406.91,303.11L406.91,304L407.63,302.28L407.64,303.6L407.78,303.38L407.78,304L408.08,156.48L408.49,302.4L408.54,303.82L408.62,304L409.1,295.02L409.28,303.93L409.29,303.97L409.47,304L409.47,304L409.49,302.92L409.49,304L409.75,297.07L410.24,303.66L410.26,302.83L410.26,304L410.81,297.62L411.01,303.82L411.04,303.91L411.08,304L411.24,295.33L411.78,304L411.8,304L411.9,303.74L411.92,303.88L411.95,298.23L411.95,304L412.69,304L412.72,303.87L412.8,304L413.46,288.06L413.46,303.94L413.49,304L413.59,287.6L413.83,304L413.86,304L414.3,284.14L414.56,302.94L414.63,304L414.94,301.64L415.35,304L415.39,304L415.96,300.05L416.13,303.97L416.2,302.94L416.21,304L416.81,95.68L416.95,304L416.96,303.96L417.01,304L417.46,301.6L417.68,303.96L417.71,304L418.12,297.87L418.38,303.34L418.47,303.84L418.47,304L418.88,291.62L419.19,302.53L419.23,303.88L419.31,303.74L419.34,304L419.34,301.76L420.05,295.78L420.05,304L420.05,295.86L420.11,304L420.45,303.18L420.46,303.87L420.47,293.06L420.47,304L421.17,80.51L421.22,303.8L421.3,304L421.51,302.54L422.07,303.08L422.07,303.36L422.07,304L422.53,299.87L422.81,303.94L422.88,303.05L423.54,302.3L423.62,304L423.62,303.96L423.72,302.84L423.72,304L424.13,293.48L424.46,303.26L424.56,303.82L424.56,304L424.64,288.82L425.31,303.93L425.32,302.82L425.32,304L425.61,300.61L426.06,303.89L426.11,303.86L426.15,304L426.16,296.94L426.75,301.74L426.9,303.48L426.9,304L427.57,301.18L427.58,303.95L427.71,304L427.81,300.98L428.45,304L428.48,303.87L428.51,304L429.15,271.38L429.2,304L429.23,303.62L429.85,301.49L429.86,304L429.97,303.63L430.07,304L430.41,304L430.41,299.23L430.97,297.38L431.12,304L431.19,304L431.86,278.02L431.92,304L431.95,304L431.99,303.43L431.99,304L431.99,286.65L432.16,42.34L432.67,304L432.7,40.53L432.75,304L433.22,38.61L433.45,303.73L433.46,303.81L433.46,304L433.94,33.62L434.2,303.76L434.25,304L434.94,299.11L435.03,299.19L435.03,304L435.13,303.61L435.17,304L435.18,295.42L435.18,304L435.68,292.69L435.93,304L435.95,304L436.08,302.71L436.7,304L436.73,303.7L436.82,304L437.48,286.79L437.48,300.53L437.48,304L437.52,302.78L438.22,303.99L438.25,304L438.98,299.22L439,304L439.01,304L439.22,303.36L439.22,304L439.23,302.46L439.24,304L439.71,289.07L439.98,304L440,304L440.38,295.71L440.74,303.72L440.77,304L441.15,300.95L441.52,304L441.54,304L442.27,280.22L442.28,304L442.38,303.5L442.38,304L442.42,291.99L443.08,303.86L443.2,304L443.43,303.62L443.43,304L443.5,300.8L443.52,304L443.58,299.54L444.24,304L444.27,303.84L444.27,304L444.99,300.94L444.99,304L445.03,304L445.18,302.53L445.6,303.91L445.62,292.82L445.62,304L445.84,289.42L446.34,303.4L446.39,304L446.94,291.37L447.14,304L447.16,304L447.78,296.77L447.87,303.79L447.94,304L448.27,299.23L448.63,303.93L448.72,304L449.24,292.91L449.37,303.87L449.41,304L449.59,303.26L449.75,303.85L449.79,301.57L449.79,304L450.4,300.29L450.54,304L450.55,303.88L450.65,304L450.65,302.23L451.16,302.14L451.41,304L451.45,304L452.02,297.49L452.2,303.74L452.21,302.46L452.78,301.14L452.94,304L452.98,303.92L453,303.51L453.02,304L453.66,287.89L453.68,303.89L453.76,304L454.34,301.83L454.49,304L454.53,304L455.28,300.5L455.3,302.03L455.3,304L455.56,300.42L455.73,303.52L455.73,304L456.03,296L456.48,303.67L456.52,304L456.81,301.53L457.01,304L457.01,292.74L457.01,304L457.75,304L457.78,302.33L457.78,304L457.78,299.81L458.45,303.86L458.54,304L459.22,296.5L459.29,299.32L459.32,303.9L459.38,303.47L459.38,304L459.47,303.92L459.52,277.21L460.15,234.67L460.29,304L460.29,304L460.33,303.88L460.37,304L460.85,301.21L461.01,304L461.03,208.08L461.79,304L461.83,303.96L461.87,304L462.24,302.94L462.36,304L462.4,203.19L462.7,201.23L463.17,304L463.21,304L463.45,304L463.45,302.61L463.75,304L463.75,197.43L463.75,304L464.49,304L464.6,303.85L464.69,300.84L464.96,304L464.98,296.57L464.98,304L465.68,303.6L465.74,303.16L465.74,304L466.21,301.53L466.48,304L466.5,304L466.8,301.88L467.25,304L467.26,304L467.84,179.87L468,304L468.02,127.71L468.27,119.99L468.79,304L468.79,302.91L468.8,303.63L468.8,304L469,300.72L469.55,303.91L469.56,303.96L469.63,304L470.04,297.33L470.27,304L470.35,304L470.95,298.15L471.08,304L471.14,303.71L471.66,299.98L471.87,304L471.91,303.35L471.91,304L472.33,300.7L472.66,304L472.7,303.86L472.78,304L472.78,297.04L473.24,304L473.3,304L473.35,293.4L474.05,304L474.06,304L474.13,300.61L474.81,303.42L474.82,304L475.04,299.63L475.56,304L475.58,303.88L475.73,304L476.26,300.44L476.29,303.96L476.33,304L477.1,300.01L477.1,304L477.85,292.65L477.85,304L477.88,304L477.88,291.9L478.6,304L478.67,303.75L478.67,304L479.23,295.84L479.39,303.9L479.45,304L479.93,292.63L480.16,303.93L480.23,303.95L480.28,304L480.6,299.44L480.89,304L481.01,303.28L481.04,304L481.06,302.62L481.73,304L481.79,303.27L482.08,294.24L482.49,304L482.49,303.87L482.51,289.44L482.51,304L482.78,271.49L483.21,303.85L483.27,303.87L483.31,304L483.82,301.62L483.96,303.94L484.04,304L484.57,301.61L484.78,304L484.81,304L485.45,257.14L485.49,303.97L485.53,304L485.63,249.48L486.27,303.59L486.31,303.88L486.39,304L486.4,302.62L486.52,303.69L486.58,304L487.23,297.68L487.33,303.66L487.34,303.99L487.53,303.39L487.54,303.86L487.54,296.47L487.54,304L488.29,304L488.3,303.6L488.31,304L488.38,300.87L489.05,302.96L489.09,304L489.53,294.12L489.83,303.79L489.97,304L490.29,289.24L490.69,304L490.77,230.36L490.77,304L491.41,227.81L491.48,304L491.54,303.01L491.54,304L491.78,300.38L492.28,303.79L492.32,304L492.68,223.14L493.03,304L493.13,303.62L493.13,304L493.18,296.89L493.88,303.63L493.91,304L494,302.32" style="vector-effect: non-scaling-stroke; fill: none; stroke: rgb(99, 110, 250); stroke-opacity: 1; stroke-width: 2px; opacity: 1;"/></g><g class="points"/><g class="text"/></g></g></g><g class="overplot"/><path class="xlines-above crisp" d="M0,0" style="fill: none;"/><path class="ylines-above crisp" d="M0,0" style="fill: none;"/><g class="overlines-above"/><g class="xaxislayer-above"><g class="xtick"><text text-anchor="middle" x="0" y="436" transform="translate(212.22,0)" style="font-family: 'Times New Roman'; font-size: 15px; fill: rgb(13, 13, 13); fill-opacity: 1; white-space: pre; opacity: 1;">1.61252×10​<tspan style="font-size:70%" dy="-0.6em">18</tspan><tspan dy="0.42em">​</tspan></text></g><g class="xtick"><text text-anchor="middle" x="0" y="436" style="font-family: 'Times New Roman'; font-size: 15px; fill: rgb(13, 13, 13); fill-opacity: 1; white-space: pre; opacity: 1;" transform="translate(310.25,0)">1.612525×10​<tspan style="font-size:70%" dy="-0.6em">18</tspan><tspan dy="0.42em">​</tspan></text></g><g class="xtick"><text text-anchor="middle" x="0" y="436" style="font-family: 'Times New Roman'; font-size: 15px; fill: rgb(13, 13, 13); fill-opacity: 1; white-space: pre; opacity: 1;" transform="translate(408.28,0)">1.61253×10​<tspan style="font-size:70%" dy="-0.6em">18</tspan><tspan dy="0.42em">​</tspan></text></g><g class="xtick"><text text-anchor="middle" x="0" y="436" style="font-family: 'Times New Roman'; font-size: 15px; fill: rgb(13, 13, 13); fill-opacity: 1; white-space: pre; opacity: 1;" transform="translate(506.3,0)">1.612535×10​<tspan style="font-size:70%" dy="-0.6em">18</tspan><tspan dy="0.42em">​</tspan></text></g><g class="xtick"><text text-anchor="middle" x="0" y="436" style="font-family: 'Times New Roman'; font-size: 15px; fill: rgb(13, 13, 13); fill-opacity: 1; white-space: pre; opacity: 1;" transform="translate(604.3299999999999,0)">1.61254×10​<tspan style="font-size:70%" dy="-0.6em">18</tspan><tspan dy="0.42em">​</tspan></text></g></g><g class="yaxislayer-above"><g class="ytick"><text text-anchor="end" x="125" y="12.25" transform="translate(0,404)" style="font-family: 'Times New Roman'; font-size: 35px; fill: rgb(13, 13, 13); fill-opacity: 1; white-space: pre; opacity: 1;">0</text></g><g class="ytick"><text text-anchor="end" x="125" y="12.25" style="font-family: 'Times New Roman'; font-size: 35px; fill: rgb(13, 13, 13); fill-opacity: 1; white-space: pre; opacity: 1;" transform="translate(0,339.77)">1000</text></g><g class="ytick"><text text-anchor="end" x="125" y="12.25" style="font-family: 'Times New Roman'; font-size: 35px; fill: rgb(13, 13, 13); fill-opacity: 1; white-space: pre; opacity: 1;" transform="translate(0,275.53999999999996)">2000</text></g><g class="ytick"><text text-anchor="end" x="125" y="12.25" style="font-family: 'Times New Roman'; font-size: 35px; fill: rgb(13, 13, 13); fill-opacity: 1; white-space: pre; opacity: 1;" transform="translate(0,211.31)">3000</text></g><g class="ytick"><text text-anchor="end" x="125" y="12.25" style="font-family: 'Times New Roman'; font-size: 35px; fill: rgb(13, 13, 13); fill-opacity: 1; white-space: pre; opacity: 1;" transform="translate(0,147.07999999999998)">4000</text></g></g><g class="overaxes-above"/></g></g><g class="polarlayer"/><g class="smithlayer"/><g class="ternarylayer"/><g class="geolayer"/><g class="funnelarealayer"/><g class="pielayer"/><g class="iciclelayer"/><g class="treemaplayer"/><g class="sunburstlayer"/><g class="glimages"/><defs id="topdefs-fff322"><g class="clips"/></defs><g class="layer-above"><g class="imagelayer"/><g class="shapelayer"/></g><g class="infolayer"><g class="g-gtitle"/><g class="g-xtitle"><text class="xtitle" x="373" y="463.8" text-anchor="middle" style="font-family: 'Open Sans', verdana, arial, sans-serif; font-size: 14px; fill: rgb(42, 63, 95); opacity: 1; font-weight: normal; white-space: pre;">Time Steps (ns)</text></g><g class="g-ytitle" transform="translate(24,0)"><text class="ytitle" transform="rotate(-90,12,260)" x="12" y="260" text-anchor="middle" style="font-family: 'Times New Roman'; font-size: 40px; fill: rgb(13, 13, 13); opacity: 1; font-weight: normal; white-space: pre;">Speed (in sec.)</text></g></g></svg>