<svg class="main-svg" xmlns="http://www.w3.org/2000/svg" xmlns:xlink="http://www.w3.org/1999/xlink" width="700" height="500" style="" viewBox="0 0 700 500"><rect x="0" y="0" width="700" height="500" style="fill: rgb(255, 255, 255); fill-opacity: 1;"/><defs id="defs-3ef408"><g class="clips"><clipPath id="clip3ef408xyplot" class="plotclip"><rect width="511" height="320"/></clipPath><clipPath class="axesclip" id="clip3ef408x"><rect x="109" y="0" width="511" height="500"/></clipPath><clipPath class="axesclip" id="clip3ef408y"><rect x="0" y="100" width="700" height="320"/></clipPath><clipPath class="axesclip" id="clip3ef408xy"><rect x="109" y="100" width="511" height="320"/></clipPath></g><g class="gradients"/><g class="patterns"/></defs><g class="bglayer"><rect class="bg" x="109" y="100" width="511" height="320" style="fill: rgb(229, 236, 246); fill-opacity: 1; stroke-width: 0;"/></g><g class="layer-below"><g class="imagelayer"/><g class="shapelayer"/></g><g class="cartesianlayer"><g class="subplot xy"><g class="layer-subplot"><g class="shapelayer"/><g class="imagelayer"/></g><g class="minor-gridlayer"><g class="x"/><g class="y"/></g><g class="gridlayer"><g class="x"><path class="xgrid crisp" transform="translate(198.14,0)" d="M0,100v320" style="stroke: rgb(255, 255, 255); stroke-opacity: 1; stroke-width: 1px;"/><path class="xgrid crisp" transform="translate(299.55,0)" d="M0,100v320" style="stroke: rgb(255, 255, 255); stroke-opacity: 1; stroke-width: 1px;"/><path class="xgrid crisp" transform="translate(400.96,0)" d="M0,100v320" style="stroke: rgb(255, 255, 255); stroke-opacity: 1; stroke-width: 1px;"/><path class="xgrid crisp" transform="translate(502.38,0)" d="M0,100v320" style="stroke: rgb(255, 255, 255); stroke-opacity: 1; stroke-width: 1px;"/><path class="xgrid crisp" transform="translate(603.79,0)" d="M0,100v320" style="stroke: rgb(255, 255, 255); stroke-opacity: 1; stroke-width: 1px;"/></g><g class="y"><path class="ygrid crisp" transform="translate(0,345.16999999999996)" d="M109,0h511" style="stroke: rgb(255, 255, 255); stroke-opacity: 1; stroke-width: 1px;"/><path class="ygrid crisp" transform="translate(0,286.33000000000004)" d="M109,0h511" style="stroke: rgb(255, 255, 255); stroke-opacity: 1; stroke-width: 1px;"/><path class="ygrid crisp" transform="translate(0,227.5)" d="M109,0h511" style="stroke: rgb(255, 255, 255); stroke-opacity: 1; stroke-width: 1px;"/><path class="ygrid crisp" transform="translate(0,168.66)" d="M109,0h511" style="stroke: rgb(255, 255, 255); stroke-opacity: 1; stroke-width: 1px;"/><path class="ygrid crisp" transform="translate(0,109.82)" d="M109,0h511" style="stroke: rgb(255, 255, 255); stroke-opacity: 1; stroke-width: 1px;"/></g></g><g class="zerolinelayer"><path class="yzl zl crisp" transform="translate(0,404.01)" d="M109,0h511" style="stroke: rgb(255, 255, 255); stroke-opacity: 1; stroke-width: 2px;"/></g><path class="xlines-below"/><path class="ylines-below"/><g class="overlines-below"/><g class="xaxislayer-below"/><g class="yaxislayer-below"/><g class="overaxes-below"/><g class="plot" transform="translate(109,100)" clip-path="url(#clip3ef408xyplot)"><g class="scatterlayer mlayer"><g class="trace scatter trace89b0f4" style="stroke-miterlimit: 2; opacity: 1;"><g class="fills"/><g class="errorbars"/><g class="lines"><path class="js-line" d="M0,304L14.21,298.29L14.21,298.29L14.22,298.28L18.67,296.48L18.67,296.47L23.23,294.88L23.23,294.87L47.62,283.25L47.62,283.25L47.62,283.24L50.15,281.91L50.15,281.91L50.24,281.9L93.22,256.63L93.42,256.62L97.9,254.16L97.97,254.15L99.64,253.16L99.64,253.15L103.25,250.86L103.25,250.85L107.13,248.81L107.13,248.81L107.22,248.8L124.65,238.78L124.7,238.77L134.46,233.35L134.46,233.35L134.46,233.34L141.31,229.06L141.38,229.05L156.88,220.26L156.88,220.26L156.94,220.25L158.76,219.19L158.76,219.19L158.81,219.18L188.09,202.15L188.09,202.15L188.18,202.14L192.45,199.49L192.45,199.49L192.52,199.48L193.96,198.7L194,198.69L197.22,196.9L197.22,196.89L207.52,191.52L207.52,191.52L207.52,191.51L213.29,188.45L213.29,188.44L215.89,186.99L216,186.99L219.74,184.49L219.74,184.48L233.63,177.28L233.77,177.28L268.96,157.53L268.96,157.53L269.04,157.52L280.28,151.45L280.32,151.45L284.65,148.8L284.65,148.79L286.96,147.63L286.97,147.62L292.54,144.59L292.54,144.59L292.54,144.58L301.92,139.06L301.92,139.06L301.92,139.05L307.65,135.78L307.65,135.77L315.43,131.3L315.43,131.3L315.43,131.29L317.15,130.33L317.22,130.33L321.55,127.65L321.55,127.65L321.62,127.64L323.87,126.41L323.95,126.41L328.16,124L328.23,123.99L329.24,123.18L329.24,123.18L329.32,123.17L333.36,120.75L333.36,120.75L333.36,120.74L335.41,119.59L335.41,119.59L335.44,119.58L337.12,118.46L337.12,118.46L337.13,118.45L339.61,117.2L339.61,117.19L343.4,114.76L343.4,114.76L343.4,114.75L349.1,111.5L349.1,111.5L349.1,111.49L353.28,109.34L353.28,109.34L353.28,109.33L371.43,98.44L371.43,98.44L371.43,98.43L382.38,91.95L382.38,91.95L382.47,91.94L384.5,90.92L384.5,90.92L384.5,90.91L386.12,89.83L386.12,89.83L386.12,89.82L389.8,87.75L389.8,87.75L389.8,87.74L391.53,86.8L391.58,86.8L396.17,84.38L396.25,84.37L398.51,83L398.51,83L398.51,82.99L401.35,81.01L401.35,81.01L401.35,81L406.09,78.36L406.09,78.36L406.14,78.35L407.89,77.49L407.9,77.48L411.85,74.84L411.85,74.84L411.85,74.83L415.15,73.19L415.17,73.18L418.47,71.41L418.47,71.4L430.6,64.53L430.6,64.53L430.7,64.52L435.03,62.05L435.03,62.05L435.03,62.04L459.03,47.6L459.03,47.6L459.13,47.59L464.59,44.6L464.59,44.59L471.04,40.53L471.1,40.53L474.78,38.12L474.9,38.12L484.41,32.25L484.52,32.24L487.96,30.02L487.96,30.01L491.19,28.01L491.29,28.01L495.74,25.57L495.74,25.57L495.81,25.56L500.59,22.59L500.6,22.58L506.49,18.98L506.49,18.98L506.62,18.97L508.18,17.82L508.2,17.82L511,16" style="vector-effect: non-scaling-stroke; fill: none; stroke: rgb(168, 0, 173); stroke-opacity: 1; stroke-width: 2px; opacity: 1;"/></g><g class="points"/><g class="text"/></g></g></g><g class="overplot"/><path class="xlines-above crisp" d="M0,0" style="fill: none;"/><path class="ylines-above crisp" d="M0,0" style="fill: none;"/><g class="overlines-above"/><g class="xaxislayer-above"><g class="xtick"><text text-anchor="middle" x="0" y="436" transform="translate(198.14,0)" style="font-family: 'Times New Roman'; font-size: 15px; fill: rgb(13, 13, 13); fill-opacity: 1; white-space: pre; opacity: 1;">1.61252×10​<tspan style="font-size:70%" dy="-0.6em">18</tspan><tspan dy="0.42em">​</tspan></text></g><g class="xtick"><text text-anchor="middle" x="0" y="436" style="font-family: 'Times New Roman'; font-size: 15px; fill: rgb(13, 13, 13); fill-opacity: 1; white-space: pre; opacity: 1;" transform="translate(299.55,0)">1.612525×10​<tspan style="font-size:70%" dy="-0.6em">18</tspan><tspan dy="0.42em">​</tspan></text></g><g class="xtick"><text text-anchor="middle" x="0" y="436" style="font-family: 'Times New Roman'; font-size: 15px; fill: rgb(13, 13, 13); fill-opacity: 1; white-space: pre; opacity: 1;" transform="translate(400.96,0)">1.61253×10​<tspan style="font-size:70%" dy="-0.6em">18</tspan><tspan dy="0.42em">​</tspan></text></g><g class="xtick"><text text-anchor="middle" x="0" y="436" style="font-family: 'Times New Roman'; font-size: 15px; fill: rgb(13, 13, 13); fill-opacity: 1; white-space: pre; opacity: 1;" transform="translate(502.38,0)">1.612535×10​<tspan style="font-size:70%" dy="-0.6em">18</tspan><tspan dy="0.42em">​</tspan></text></g><g class="xtick"><text text-anchor="middle" x="0" y="436" style="font-family: 'Times New Roman'; font-size: 15px; fill: rgb(13, 13, 13); fill-opacity: 1; white-space: pre; opacity: 1;" transform="translate(603.79,0)">1.61254×10​<tspan style="font-size:70%" dy="-0.6em">18</tspan><tspan dy="0.42em">​</tspan></text></g></g><g class="yaxislayer-above"><g class="ytick"><text text-anchor="end" x="108" y="12.25" transform="translate(0,404.01)" style="font-family: 'Times New Roman'; font-size: 35px; fill: rgb(13, 13, 13); fill-opacity: 1; white-space: pre; opacity: 1;">0</text></g><g class="ytick"><text text-anchor="end" x="108" y="12.25" style="font-family: 'Times New Roman'; font-size: 35px; fill: rgb(13, 13, 13); fill-opacity: 1; white-space: pre; opacity: 1;" transform="translate(0,345.16999999999996)">10k</text></g><g class="ytick"><text text-anchor="end" x="108" y="12.25" style="font-family: 'Times New Roman'; font-size: 35px; fill: rgb(13, 13, 13); fill-opacity: 1; white-space: pre; opacity: 1;" transform="translate(0,286.33000000000004)">20k</text></g><g class="ytick"><text text-anchor="end" x="108" y="12.25" style="font-family: 'Times New Roman'; font-size: 35px; fill: rgb(13, 13, 13); fill-opacity: 1; white-space: pre; opacity: 1;" transform="translate(0,227.5)">30k</text></g><g class="ytick"><text text-anchor="end" x="108" y="12.25" style="font-family: 'Times New Roman'; font-size: 35px; fill: rgb(13, 13, 13); fill-opacity: 1; white-space: pre; opacity: 1;" transform="translate(0,168.66)">40k</text></g><g class="ytick"><text text-anchor="end" x="108" y="12.25" style="font-family: 'Times New Roman'; font-size: 35px; fill: rgb(13, 13, 13); fill-opacity: 1; white-space: pre; opacity: 1;" transform="translate(0,109.82)">50k</text></g></g><g class="overaxes-above"/></g></g><g class="polarlayer"/><g class="smithlayer"/><g class="ternarylayer"/><g class="geolayer"/><g class="funnelarealayer"/><g class="pielayer"/><g class="iciclelayer"/><g class="treemaplayer"/><g class="sunburstlayer"/><g class="glimages"/><defs id="topdefs-3ef408"><g class="clips"/></defs><g class="layer-above"><g class="imagelayer"/><g class="shapelayer"/></g><g class="infolayer"><g class="g-gtitle"/><g class="g-xtitle"><text class="xtitle" x="364.5" y="463.8" text-anchor="middle" style="font-family: 'Open Sans', verdana, arial, sans-serif; font-size: 14px; fill: rgb(42, 63, 95); opacity: 1; font-weight: normal; white-space: pre;">Time Steps (ns)</text></g><g class="g-ytitle" transform="translate(23.5,0)"><text class="ytitle" transform="rotate(-90,12.5,260)" x="12.5" y="260" text-anchor="middle" style="font-family: 'Times New Roman'; font-size: 40px; fill: rgb(13, 13, 13); opacity: 1; font-weight: normal; white-space: pre;">Cum. qty. executed orders</text></g></g></svg>