<svg class="main-svg" xmlns="http://www.w3.org/2000/svg" xmlns:xlink="http://www.w3.org/1999/xlink" width="700" height="500" style="" viewBox="0 0 700 500"><rect x="0" y="0" width="700" height="500" style="fill: rgb(255, 255, 255); fill-opacity: 1;"/><defs id="defs-e8bea9"><g class="clips"><clipPath id="clipe8bea9xyplot" class="plotclip"><rect width="511" height="320"/></clipPath><clipPath class="axesclip" id="clipe8bea9x"><rect x="109" y="0" width="511" height="500"/></clipPath><clipPath class="axesclip" id="clipe8bea9y"><rect x="0" y="100" width="700" height="320"/></clipPath><clipPath class="axesclip" id="clipe8bea9xy"><rect x="109" y="100" width="511" height="320"/></clipPath></g><g class="gradients"/><g class="patterns"/></defs><g class="bglayer"><rect class="bg" x="109" y="100" width="511" height="320" style="fill: rgb(229, 236, 246); fill-opacity: 1; stroke-width: 0;"/></g><g class="layer-below"><g class="imagelayer"/><g class="shapelayer"/></g><g class="cartesianlayer"><g class="subplot xy"><g class="layer-subplot"><g class="shapelayer"/><g class="imagelayer"/></g><g class="minor-gridlayer"><g class="x"/><g class="y"/></g><g class="gridlayer"><g class="x"><path class="xgrid crisp" transform="translate(198.14,0)" d="M0,100v320" style="stroke: rgb(255, 255, 255); stroke-opacity: 1; stroke-width: 1px;"/><path class="xgrid crisp" transform="translate(299.55,0)" d="M0,100v320" style="stroke: rgb(255, 255, 255); stroke-opacity: 1; stroke-width: 1px;"/><path class="xgrid crisp" transform="translate(400.96,0)" d="M0,100v320" style="stroke: rgb(255, 255, 255); stroke-opacity: 1; stroke-width: 1px;"/><path class="xgrid crisp" transform="translate(502.38,0)" d="M0,100v320" style="stroke: rgb(255, 255, 255); stroke-opacity: 1; stroke-width: 1px;"/><path class="xgrid crisp" transform="translate(603.79,0)" d="M0,100v320" style="stroke: rgb(255, 255, 255); stroke-opacity: 1; stroke-width: 1px;"/></g><g class="y"><path class="ygrid crisp" transform="translate(0,346.98)" d="M109,0h511" style="stroke: rgb(255, 255, 255); stroke-opacity: 1; stroke-width: 1px;"/><path class="ygrid crisp" transform="translate(0,289.23)" d="M109,0h511" style="stroke: rgb(255, 255, 255); stroke-opacity: 1; stroke-width: 1px;"/><path class="ygrid crisp" transform="translate(0,231.49)" d="M109,0h511" style="stroke: rgb(255, 255, 255); stroke-opacity: 1; stroke-width: 1px;"/><path class="ygrid crisp" transform="translate(0,173.74)" d="M109,0h511" style="stroke: rgb(255, 255, 255); stroke-opacity: 1; stroke-width: 1px;"/><path class="ygrid crisp" transform="translate(0,116)" d="M109,0h511" style="stroke: rgb(255, 255, 255); stroke-opacity: 1; stroke-width: 1px;"/></g></g><g class="zerolinelayer"><path class="yzl zl crisp" transform="translate(0,404.72)" d="M109,0h511" style="stroke: rgb(255, 255, 255); stroke-opacity: 1; stroke-width: 2px;"/></g><path class="xlines-below"/><path class="ylines-below"/><g class="overlines-below"/><g class="xaxislayer-below"/><g class="yaxislayer-below"/><g class="overaxes-below"/><g class="plot" transform="translate(109,100)" clip-path="url(#clipe8bea9xyplot)"><g class="scatterlayer mlayer"><g class="trace scatter trace09947b" style="stroke-miterlimit: 2; opacity: 1;"><g class="fills"/><g class="errorbars"/><g class="lines"><path class="js-line" d="M0,16L0.43,251.31L0.75,232.54L0.88,88.18L1.02,232.54L1.46,16L1.47,108.39L1.47,212.33L2.11,302.56L2.18,16L2.29,234.71L2.29,16L2.77,303.28L3.04,16L3.14,16L3.22,232.54L3.84,16L3.98,16L4.01,300.97L4.7,252.75L4.7,67.97L4.73,16L4.83,293.17L5.39,16L5.56,16L6.3,278.74L6.3,53.53L6.39,238.32L6.75,252.75L7.16,16L7.19,23.94L7.32,16L7.64,296.78L7.92,241.2L7.96,16L8.59,281.62L8.65,16L8.73,16L8.73,274.41L9.26,16L9.52,16L9.96,16L9.99,166.14L9.99,293.17L10.09,16L10.68,249.86L10.85,251.31L10.96,16L11.3,290.29L11.56,16L11.61,16L11.67,270.08L12.35,195.01L12.4,16L12.82,290.29L13.16,212.33L13.21,16L13.76,290.29L13.97,232.54L13.97,16L14.14,16L14.14,122.83L14.2,16L14.63,287.54L14.81,102.62L14.94,16L15.2,16L15.21,180.57L15.21,16L15.42,267.19L15.96,189.23L15.98,189.23L16.21,16L16.24,301.83L16.71,41.98L16.76,50.19L16.76,278.74L16.86,16L17.47,16L17.55,16L18.27,278.74L18.29,16L18.65,267.19L18.95,16L18.99,16L19.5,294.62L19.66,16L19.76,16L19.8,275.85L20.51,117.05L20.54,117.05L20.54,16L20.88,290.29L21.26,16L21.3,166.14L21.62,298.95L22.09,16L22.1,148.81L22.2,16L22.26,296.06L22.79,177.68L22.87,16L23.13,295.97L23.54,16L23.69,16L24.31,300.39L24.39,169.02L24.47,290.29L24.69,16L25.19,16L25.28,290.29L25.28,16L25.45,299.33L26.02,239.76L26.1,16L26.24,301.83L26.85,145.92L26.86,174.8L27.32,293.17L27.47,16L27.49,163.25L27.57,301.83L27.68,16L28.3,134.38L28.36,186.35L28.59,278.74L29.1,16L29.12,143.04L29.12,16L29.46,301.11L29.82,16L29.94,16L30.67,276.55L30.69,39.1L30.74,16L30.96,296.06L31.48,238.32L31.52,148.33L31.52,288.84L31.63,16L32.19,93.95L32.28,16L32.33,303.28L32.97,56.42L33.06,16L33.65,296.06L33.81,16L33.82,16L34,16L34.02,280.88L34.02,16L34.73,16L34.79,16L35.17,298.95L35.54,226.77L35.55,93.95L36.17,296.06L36.32,16L36.32,16L36.35,16L36.72,275.85L36.86,16L37.12,16L37.5,290.29L37.87,219.55L37.96,252.75L37.99,16L38.64,297.5L38.71,16L38.75,243.94L38.76,293.17L38.78,16L39.39,16L39.47,16L40,301.83L40,161.8L40.12,16L40.68,301.83L40.88,261.41L40.88,59.31L40.91,16L41.28,272.96L41.62,16L41.65,16L42.18,291.73L42.33,16L42.45,218.11L42.52,16L42.83,301.83L43.19,16L43.23,16L43.75,287.4L43.87,16L43.94,112.24L43.96,16L44.5,298.95L44.65,16L44.68,16L45.41,276.57L45.54,16L45.81,271.52L46.18,16L46.31,16L46.75,296.06L47.06,226.77L47.09,93.95L47.09,16L47.71,285.95L47.79,75.19L47.87,285.25L47.87,16L48.46,290.29L48.53,16L48.67,16L49.36,290.29L49.39,16L49.47,16L49.89,294.03L50.15,36.21L50.24,16L50.56,295.54L50.97,16L51.02,16L51.21,272.96L51.7,16L51.8,16L51.83,18.89L51.85,301.83L52.44,16L52.56,27.55L52.64,27.55L52.77,301.83L53.05,16L53.06,267.71L53.11,296.06L53.77,16L53.81,300.39L53.83,16L54.1,301.83L54.56,255.64L54.58,197.89L54.58,16L54.96,296.06L55.25,16L55.36,16L55.88,298.95L56.12,246.98L56.12,16L56.55,296.06L56.85,16L56.88,16L57.56,296.06L57.57,16L57.68,16L57.85,296.06L58.38,16L58.48,16L58.51,287.4L58.68,16L58.81,16L59.23,299.17L59.56,125.71L59.59,16L59.64,287.4L60.3,16L60.34,16L60.53,16L60.53,160.36L60.95,298.95L61.26,16L61.28,258.53L61.29,298.23L61.29,16L61.94,16L61.99,16L62.68,271.52L62.68,220.99L62.74,16L63,301.83L63.4,93.95L63.52,16L63.69,16L63.69,16L63.73,294.62L64.48,16L64.48,16L64.51,16L64.99,287.4L65.26,206.56L65.3,16L65.43,302.56L66.05,122.83L66.1,16L66.16,296.06L66.2,23.22L66.25,16L66.46,296.06L66.46,128.6L66.5,16L66.73,16L66.73,232.54L66.73,16L66.79,286.05L67.48,16L67.49,16L67.88,293.17L68,39.1L68.03,16L68.75,293.17L68.76,27.55L68.79,16L69.51,293.17L69.51,220.99L69.55,16L70.08,277.29L70.15,16L70.2,16L70.71,291.73L70.92,102.62L70.96,16L71.67,252.75L71.7,238.32L71.72,82.41L71.78,16L72.07,296.31L72.45,36.21L72.49,215.22L72.5,296.31L72.63,16L73.21,16L73.27,134.38L73.27,16L73.6,293.17L73.99,16L74.06,160.36L74.06,16L74.78,300.39L74.82,16L75,288.84L75.57,117.05L75.64,16L76.1,302.05L76.33,134.38L76.37,16L76.89,281.62L77.06,216.66L77.11,16L77.37,294.62L77.76,16L77.79,16L77.91,300.35L78.53,16L78.56,16L78.84,284.51L79.29,241.2L79.38,16L79.58,261.41L80.16,171.91L80.18,16L80.32,267.19L80.93,232.54L80.94,16L81.05,302.56L81.68,16L81.7,16L82.04,293.17L82.45,16L82.51,16L82.62,301.83L83.26,27.55L83.39,16L83.46,299.06L84.06,171.91L84.18,16L84.61,300.39L84.93,16L84.98,220.99L85.48,293.17L85.72,16L85.75,137.26L85.8,108.39L85.84,16L86.2,296.06L86.52,238.32L86.58,16L86.72,293.17L86.97,262.86L86.98,16L87.32,301.83L87.63,16L87.72,16L87.77,278.74L88.43,47.76L88.48,47.76L88.51,16L88.56,298.23L89.2,16L89.25,264.9L89.29,284.16L89.29,16L89.98,128.6L90.01,16L90.18,293.62L90.63,200.78L90.64,16L90.64,296.06L91.38,16L91.41,16L91.91,232.54L92.03,192.12L92.18,301.83L92.95,16L92.97,16L93.51,252.75L93.7,73.74L93.74,246.98L94.08,296.78L94.49,16L94.6,189.23L94.6,16L94.96,278.74L95.35,241.2L95.37,16L95.47,294.62L96.08,16L96.13,16L96.82,290.29L96.87,183.46L96.94,270.08L97.01,16L97.34,293.17L97.61,16L97.74,16L98.32,238.32L98.45,16L98.53,16L99.23,294.62L99.29,215.88L99.29,39.1L99.3,281.62L99.36,16L99.99,16L100.04,16L100.52,278.02L100.78,105.5L100.8,16L101.55,281.62L101.59,117.9L101.66,16L102.33,304L102.35,31.2L102.35,16L102.9,301.83L103.08,16L103.11,16L103.52,296.06L103.86,16L103.9,16L104.41,293.17L104.65,287.4L104.68,241.2L105.39,287.4L105.45,16L105.45,16L105.52,39.1L105.97,16L105.97,16L105.98,99.73L105.98,298.95L105.98,16L106.69,16L106.76,16L106.92,287.4L107.51,16L107.52,56.42L107.52,16L107.53,293.17L108.26,16L108.28,16L108.89,284.51L109.01,16L109.05,16L109.23,269.9L109.81,171.91L109.81,16L109.94,298.95L110.56,16L110.6,16L111.09,284.51L111.28,16L111.37,16L111.4,288.84L112.08,128.6L112.15,169.02L112.35,16L112.64,255.64L112.88,16L112.92,16L113.3,298.95L113.65,200.78L113.75,16L114.12,298.95L114.14,241.2L114.17,16L114.41,296.06L114.91,293.17L114.93,16L115.48,298.51L115.68,267.19L115.75,16L116.23,281.62L116.5,281.62L116.51,284.51L116.51,16L116.51,285.89L117.25,16L117.27,160.36L117.27,16L117.81,293.17L117.92,16L118.03,16L118.41,304L118.76,16L118.79,16L119.4,301.83L119.51,209.44L119.56,16L119.72,301.83L120.32,212.33L120.34,200.78L120.34,16L120.48,284.51L121.02,16L121.18,16L121.8,298.95L121.93,284.51L121.98,16L122.55,301.83L122.73,220.99L122.75,16L123.17,303.28L123.4,284.51L123.45,16L124.07,296.06L124.2,16L124.24,96.84L124.73,16L124.73,287.4L124.87,23.6L124.87,301.83L125.6,16L125.66,203.67L125.73,258.53L126.4,16L126.43,261.41L126.45,16L126.72,289.56L127.15,255.64L127.31,169.02L127.32,228.21L127.39,16L128.03,16L128.06,91.07L128.08,16L128.72,301.83L128.75,190.68L128.84,16L129.1,244.09L129.1,76.63L129.21,16L129.66,300.39L129.75,272.96L129.8,47.76L129.82,299.06L129.9,16L130.54,16L130.59,258.53L130.6,16L131.34,281.62L131.41,16L132.08,298.95L132.15,16L132.17,102.62L132.71,290.29L132.92,16L133.01,16L133.4,303.21L133.74,16L133.81,16L134.4,293.17L134.56,166.14L134.58,59.31L134.58,16L135.31,301.83L135.34,16L135.56,67.97L135.56,260.68L135.75,270.08L136.01,16L136.01,252.75L136.01,301.86L136.03,16L136.76,16L136.85,93.95L136.9,16L136.96,290.29L137.59,154.59L137.63,16L138.12,298.95L138.27,102.62L138.32,16L139,271.52L139.1,206.56L139.11,16L139.15,296.06L139.27,195.01L139.27,16L139.72,303.28L140.02,160.36L140.02,16L140.12,301.83L140.64,16L140.66,16L141.4,298.95L141.41,39.1L141.43,154.59L141.77,302.56L142.19,16L142.2,167.58L142.26,301.83L142.92,16L142.95,122.83L142.97,122.83L143.04,16L143.28,303.86L143.68,16L143.73,246.98L143.97,293.17L144.47,16L144.52,288.84L145.22,16L145.24,295.1L145.4,16L146.1,291.01L146.15,67.97L146.16,16L146.81,302.81L146.92,160.36L146.92,16L147.49,301.86L147.67,186.35L147.73,16L147.81,284.51L148.47,140.15L148.51,180.57L148.52,16L148.89,298.95L149.22,16L149.27,16L149.48,298.95L150,235.43L150.12,16L150.27,296.06L150.85,53.53L150.9,67.97L150.91,16L151.29,290.29L151.62,16L151.66,16L151.94,258.53L152.41,88.18L152.45,267.19L152.46,16L152.91,296.06L153.17,16L153.34,16L153.48,290.29L154.09,16L154.13,16L154.25,301.86L154.85,16L154.88,16L155.44,235.43L155.6,88.18L155.64,85.29L155.66,16L156.08,287.4L156.37,16L156.43,16L156.45,290.25L157.15,228.21L157.15,121.34L157.15,16L157.23,256.6L157.86,70.86L157.91,21.77L157.98,16L157.99,220.99L158.14,16L158.17,298.95L158.72,122.83L158.76,16L159.42,298.95L159.43,16L159.52,36.21L159.55,16L160.24,301.83L160.25,16L160.29,16L160.47,301.83L161,16L161.08,88.18L161.13,16L161.31,296.06L161.8,241.2L161.91,16L162.66,296.06L162.66,24.66L162.66,293.17L162.73,16L163.36,277.99L163.44,290.29L163.47,16L164.18,16L164.2,16L164.66,301.83L164.91,16L165.02,91.98L165.03,16L165.44,298.95L165.75,215.22L165.79,105.5L166.24,301.83L166.47,16L166.5,79.52L166.54,154.16L166.57,16L167.24,291.73L167.27,16L167.32,275.85L167.35,16L167.58,294.62L168.07,264.3L168.12,16L168.49,301.83L168.84,160.36L168.91,16L169.22,264.3L169.22,56.42L169.25,16L169.46,298.95L169.99,16L170.02,16L170.18,302.56L170.77,16L170.81,261.41L170.81,16L170.96,281.62L171.54,16L171.57,16L171.72,278.02L172.32,16L172.35,16L172.39,21.77L172.39,157.47L172.44,16L173.09,294.62L173.1,136.7L173.15,16L173.33,220.99L173.33,169.02L173.52,16L174.2,267.19L174.28,177.68L174.29,16L174.65,284.51L175.01,16L175.09,242.65L175.12,16L175.66,300.82L175.84,85.29L175.87,16L176.59,298.95L176.59,16L176.65,21.77L176.65,298.95L176.87,16L177.35,16L177.41,16L177.86,267.19L178.15,102.62L178.17,16L178.95,296.76L179,85.29L179.1,16L179.2,293.17L179.69,16L179.79,271.51L179.79,16L180.51,298.95L180.54,298.95L180.67,16L180.74,24.66L180.74,16L180.82,296.06L180.84,16L181.54,16L181.64,102.62L181.66,16L182.28,293.17L182.39,50.65L182.4,50.65L182.41,16L182.49,289.56L183.14,16L183.18,143.04L183.21,16L183.5,281.73L183.9,16L183.94,145L183.98,16L184.06,302.45L184.67,16L184.71,16L185.37,279.67L185.45,249.86L185.53,16L185.72,294.62L186.27,16L186.42,16L186.84,287.4L187.2,257.8L187.2,16L187.9,301.83L187.93,192.44L188.06,16L188.29,284.51L188.61,197.89L188.69,16L188.69,284.51L189.41,16L189.45,259.25L190.08,16L190.13,290.29L190.18,249.86L190.22,226.99L190.23,16L190.26,298.95L190.95,62.2L191,157.47L191.25,301.83L191.76,16L191.78,16L192.53,298.95L192.53,16L192.54,16L193.07,293.17L193.23,165.34L193.31,16L194.02,264.3L194.06,56.42L194.07,16L194.43,294.62L194.84,203.67L194.9,145.92L195.12,289.56L195.62,16L195.62,90.51L195.63,240.24L195.87,291.29L196.28,16L196.35,41.98L196.39,84.24L196.48,16L197.14,301.83L197.16,35.25L197.21,16L197.26,287.4L197.88,246.98L197.89,16L198.06,16L198.06,16L198.06,253.96L198.56,283.34L198.8,16L198.81,212.33L198.83,108.39L198.9,16L199.33,261.41L199.57,229.65L199.58,16L200.29,264.3L200.3,56.42L200.36,264.3L200.36,16L200.94,300.39L201.11,16L201.14,119.94L201.17,16L201.43,284.51L201.78,16L201.95,16L202.47,290.29L202.64,67.97L202.75,16L203.22,281.62L203.5,70.86L203.51,16L203.56,249.86L204.26,16L204.3,16L204.69,302.56L205.05,16L205.09,16L205.76,296.06L205.87,218.11L205.88,16L206.28,296.31L206.63,16L206.64,41.98L206.71,16L206.88,291.73L207.41,236.15L207.45,41.98L207.5,16L207.94,296.06L208.2,246.98L208.23,246.98L208.35,298.95L209.04,16L209.04,180.57L209.06,16L209.62,281.31L209.76,135.61L209.82,134.38L209.92,16L210.36,290.29L210.5,278.02L210.54,16L210.82,294.62L211.3,129.97L211.33,148.81L211.45,16L211.52,290.29L211.63,156.72L211.71,16L212.32,295.1L212.35,239.28L212.35,16L213.08,296.06L213.08,82.41L213.12,16L213.44,296.06L213.86,238.32L213.99,241.44L214.63,290.29L214.71,16L214.71,16L214.77,258.53L214.93,300.39L215.45,16L215.57,16L216.23,248.42L216.29,241.2L216.35,79.52L216.86,304L216.94,16L217.04,143.04L217.04,177.68L217.24,255.64L217.59,16L217.59,249.86L217.69,289.56L218.19,16L218.26,258.53L218.37,235.43L218.38,16L218.9,301.83L219.1,16L219.13,16L219.13,301.83L219.88,119.94L219.95,16L220.44,299.06L220.68,16L220.75,16L221.04,293.17L221.49,59.31L221.52,66.95L222,290.97L222.15,16L222.16,50.65L222.17,270.08L222.17,16L222.7,298.95L222.92,16L222.95,65.08L222.97,16L223.4,290.29L223.7,36.21L223.72,284.51L223.81,296.06L223.89,16L224.39,16L224.56,16L224.65,278.74L225.24,16L225.32,16L226,297.5L226.08,252.75L226.1,16L226.62,275.85L226.84,160.36L226.88,16L227.08,293.17L227.58,39.1L227.64,125.71L227.75,16L228.3,300.87L228.37,293.17L228.37,16L228.61,291.01L229.11,160.36L229.16,16L229.69,301.83L229.86,16L229.93,16L230.04,18.89L230.19,16L230.22,85.29L230.22,301.83L230.22,16L230.95,16L231.02,241.2L231.03,16L231.48,298.95L231.76,297.5L231.84,275.85L232.58,16L232.58,287.4L232.68,16L233.26,261.41L233.41,134.38L233.46,189.23L233.58,16L233.91,281.62L234.2,16L234.22,260.69L234.7,298.95L235.02,16L235.05,296.06L235.13,16L235.61,302.56L235.74,16L235.88,223.88L236.41,290.29L236.64,16L236.66,41.98L236.71,16L237.37,290.29L237.4,16L237.76,301.83L238.13,169.02L238.22,151.7L238.23,16L238.3,301.86L238.96,16L238.98,16L239.59,303.28L239.71,152.76L239.74,220.99L239.85,299.06L240.48,16L240.5,226.77L240.54,16L240.96,293.17L241.17,16L241.27,16L241.53,293.17L241.93,145.92L242.09,16L242.33,300.03L242.76,246.98L242.8,16L243.5,296.06L243.62,16L244.18,275.85L244.37,16L244.49,44.87L244.49,16L244.53,298.95L245.23,16L245.25,24.66L245.27,16L245.97,297.5L246,223.88L246.02,205.11L246.02,16L246.43,287.4L246.77,16L246.79,192.12L246.88,16L247.08,283.07L247.54,16L247.58,232.54L247.6,16L247.79,287.4L248.32,267.06L248.34,241.2L248.87,267.91L249.11,16L249.11,160.36L249.21,163.25L249.36,16L249.62,298.95L249.96,125.71L249.97,125.71L250.67,16L250.67,287.4L250.7,229.65L250.74,16L251.01,301.83L251.45,249.86L251.48,16L252.1,296.06L252.18,24.66L252.25,134.38L252.25,16L252.32,296.06L253,16L253.01,102.62L253.18,16L253.67,301.83L253.75,134.38L253.79,187.79L253.79,16L254.14,281.62L254.51,195.01L254.55,270.08L254.84,284.51L255.21,16L255.21,264.3L255.36,16L255.57,16L255.57,16L255.57,288.86L255.75,16L255.92,296.06L256.32,226.77L256.35,164.69L256.36,287.48L256.44,16L256.99,70.86L257.21,16L257.61,302.56L257.86,56.42L257.91,16L258.37,290.29L258.68,280.88L258.7,18.89L258.7,301.83L258.79,16L259.4,16L259.46,76.63L259.5,16L260.15,298.95L260.19,16L260.24,16L260.39,21.77L260.44,298.95L260.44,16L261.15,16L261.2,16L261.57,299.38L261.91,154.59L261.93,16L262.69,281.62L262.69,39.1L262.74,284.51L263.12,16L263.15,235.43L263.16,293.17L263.39,16L263.78,16L263.91,16L264.37,285.95L264.53,16L264.58,16L265,293.89L265.23,16L265.34,16L265.39,302.56L266.1,209.44L266.1,151.7L266.75,293.17L266.89,16L266.89,16L266.95,114.17L266.97,16L267.34,293.17L267.69,200.78L267.72,119.94L268.08,265.71L268.24,16L268.24,16L268.24,215.22L268.26,16L268.96,296.06L269.04,162.39L269.05,16L269.4,301.83L269.78,59.31L269.82,24.66L269.83,296.06L269.95,16L270.56,16L270.59,64.94L270.59,278.74L270.64,16L271.33,16L271.36,16L271.63,287.4L271.89,16L271.95,16L272.01,276.57L272.64,259.81L272.66,16L273.4,290.29L273.43,16L274.07,303.28L274.17,16L274.85,286.68L274.91,200.78L274.93,16L275.62,290.29L275.79,163.25L275.82,16L276,298.23L276.52,16L276.59,16L277.07,281.62L277.3,108.39L277.38,199.34L277.77,259.97L278.13,16L278.13,16L278.14,248.84L278.15,16L278.71,301.83L278.84,18.89L278.92,301.83L279.67,16L279.7,62.2L279.7,16L280.01,290.29L280.35,140.15L280.46,277.22L281.21,16L281.23,16L281.81,301.83L281.86,16L281.94,16L282.53,296.23L282.56,23.91L282.66,16L282.82,286.68L282.89,232.54L282.91,16L283.24,298.95L283.64,16L283.68,16L283.72,278.47L284.35,119.94L284.39,16L284.57,301.86L285.15,96.84L285.25,16L285.65,284.51L285.98,33.32L286.01,16L286.77,290.29L286.77,16L286.92,290.29L287.16,201.81L287.18,16L287.85,301.83L287.89,229.65L287.94,16L288.44,290.29L288.67,16L288.71,33.32L288.74,287.4L289.12,16L289.14,124.27L289.18,275.85L289.24,16L289.93,177.68L289.95,16L290.58,293.17L290.7,16L290.73,16L290.75,287.4L291.22,148.81L291.34,16L291.95,287.4L292.08,16L292.11,16L292.87,301.83L292.89,16L293.14,300.39L293.63,27.55L293.65,16L293.97,293.17L294.4,16L294.42,16L294.63,298.95L295.12,16L295.22,16L295.67,296.31L295.98,278.74L295.99,41.98L296,16L296.31,298.95L296.72,293.17L296.79,27.55L296.85,16L297.36,293.17L297.36,16L297.56,16L298.05,300.54L298.31,39.1L298.54,16L298.67,301.86L299.27,293.17L299.32,16L299.69,298.95L300.03,16L300.13,16L300.17,293.17L300.89,270.08L300.89,24.66L301.03,16L301.48,296.06L301.67,160.36L301.67,16L302.26,304L302.35,53.53L302.43,16L302.68,285.95L303.1,16L303.23,16L303.53,303.28L303.94,16L303.99,47.76L304,16L304.26,300.39L304.74,16L304.75,16L305.28,294.62L305.48,16L305.59,296.06L306.12,303.28L306.22,16L306.22,16L306.34,303.28L306.45,16L307.08,98.49L307.11,16L307.51,297.5L307.82,16L307.88,47.76L307.9,16L308.25,301.81L308.62,151.7L308.67,16L308.9,271.52L309.38,151.7L309.49,16L310.04,289.56L310.22,16L310.27,16L310.31,283.09L310.94,16L311.2,16L311.28,298.95L311.92,226.77L312.15,249.86L312.19,16L312.32,301.83L312.84,16L312.96,252.75L313.27,296.06L313.71,16L313.76,16L313.77,298.95L314.04,105.5L314.07,16L314.23,279.7L314.36,59.31L314.36,16L315.07,298.08L315.07,281.62L315.18,30.44L315.21,16L315.43,293.17L315.93,200.78L315.94,264.3L316.2,298.23L316.7,16L316.7,16L316.74,16L316.99,300.87L317.49,16L317.53,16L318.23,298.95L318.26,298.95L318.29,16L318.61,296.06L318.98,16L319.09,18.89L319.09,301.83L319.18,16L319.84,56.42L319.86,107.87L319.92,16L320.48,298.16L320.56,18.89L320.58,16L320.59,301.83L321.31,137.57L321.32,16L321.67,302L322.07,166.14L322.09,91.07L322.11,16L322.77,294.77L322.81,24.66L322.88,189.23L322.92,16L322.92,296.06L323.63,16L323.64,16L324.1,298.95L324.39,99.73L324.41,226.77L324.41,16L325.06,284.51L325.13,170.47L325.17,16L325.8,286.68L325.9,56.42L325.95,16L326.1,268.63L326.19,232.54L326.23,16L326.84,304L326.98,200.78L326.98,119.94L327.13,296.06L327.69,16L327.71,264.3L327.77,16L327.94,16L327.98,111.28L327.99,16L328.29,298.95L328.71,235.43L328.74,16L329.07,301.83L329.49,246.98L329.52,53.53L329.52,16L330.19,301.83L330.26,16L330.32,41.98L330.38,295.34L330.61,16L330.69,34.77L330.7,285.95L330.83,287.4L331.43,16L331.43,160.36L331.49,223.88L331.5,223.29L331.54,16L332.18,278.74L332.27,93.95L332.3,16L332.38,275.85L333.05,16L333.08,111.28L333.21,287.4L333.73,16L333.73,284.51L333.73,16L334.4,302.56L334.42,16L334.54,16L334.65,296.06L335.31,290.29L335.31,133.41L335.44,16L335.63,284.51L335.98,186.35L336.01,16L336.69,299.91L336.71,33.32L336.77,272.96L336.77,16L336.81,302.07L337.51,160.36L337.56,16L337.73,16L337.73,160.36L338.02,287.4L338.45,16L338.46,301.83L338.51,16L338.51,303.28L339.21,82.41L339.22,16L339.62,290.29L339.96,281.62L340.01,16L340.27,262.86L340.33,16L340.38,16L340.97,296.06L341.13,270.08L341.14,16L341.28,293.17L341.74,144.32L341.74,16L342.46,290.29L342.49,134.38L342.5,226.77L343.07,16L343.08,301.83L343.19,200.78L343.29,16L343.72,296.06L343.72,16L343.82,16L344.55,267.19L344.58,195.01L344.59,16L344.73,298.95L345.34,70.86L345.36,252.75L345.73,298.95L346.06,16L346.15,16L346.28,298.95L346.88,16L346.94,16L347.44,294.03L347.69,16L347.7,16L348.17,296.06L348.38,82.41L348.46,82.41L348.47,16L349.03,258.53L349.15,248.42L349.31,16L349.52,16L349.52,16L349.56,232.54L349.56,16L350.29,301.83L350.29,112.24L350.34,41.98L350.4,16L350.67,301.83L350.97,255.64L351.11,41.98L351.13,16L351.82,278.74L351.82,41.98L351.87,235.43L351.87,16L352.53,293.17L352.62,174.8L352.73,16L353.29,298.95L353.47,280.18L353.51,16L353.99,298.95L354.21,252.75L354.28,16L354.79,303.28L355.01,166.14L355.04,154.59L355.05,16L355.58,287.4L355.78,16L355.83,16L356.22,301.83L356.58,16L356.59,16L357.34,304L357.51,76.63L357.51,16L358,294.91L358.26,16L358.31,16L358.91,303.28L358.99,16L359.09,16L359.13,293.17L359.83,16L359.95,169.02L360.54,266.47L360.71,16L360.71,169.02L361.03,296.06L361.37,16L361.4,239.53L361.4,300.39L362.11,16L362.2,73.74L362.21,246.98L362.66,289.56L363,16L363.02,160.36L363.02,16L363.66,276.57L363.74,189.23L363.8,16L363.93,290.29L364.53,16L364.57,16L364.89,288.84L365.06,220.99L365.12,16L365.2,296.06L365.61,16L365.63,16L366.31,301.83L366.31,232.54L366.31,23.5L366.4,16L366.49,203.67L366.5,16L366.97,298.95L367.22,242.65L367.27,16L367.73,293.89L368.02,200.78L368.05,200.78L368.25,296.06L368.79,16L368.82,246.98L368.97,16L369.1,297.5L369.48,16L369.59,122.83L370.15,284.51L370.35,16L370.36,278.74L370.46,16L370.56,301.83L371.05,16L371.16,244.09L371.22,16L371.43,293.17L371.9,16L371.92,83.37L372.22,301.83L372.6,16L372.6,16L372.62,246.98L372.76,290.29L373.37,16L373.37,16L373.43,244.09L373.43,16L373.99,290.29L374.14,30.44L374.23,16L374.79,292.45L374.91,244.09L375.06,16L375.78,238.32L375.82,16L376.16,301.83L376.59,220.99L376.6,16L376.6,285.95L377.15,151.7L377.39,16L377.96,298.95L378.08,16L378.09,16L378.68,290.29L378.85,257.8L378.88,16L379.22,298.95L379.63,283.34L379.65,39.1L379.7,16L380.24,301.83L380.4,281.62L380.41,16L381.15,301.68L381.24,16L381.97,270.08L382.02,143.04L382.05,16L382.65,290.29L382.72,255.64L382.77,16L382.92,278.74L383.48,229.65L383.49,16L383.69,284.51L383.82,16L383.84,16L384.5,302.25L384.57,16L384.62,16L385.26,291.73L385.32,200.78L385.36,16L386.02,287.4L386.12,16L386.32,287.4L386.85,250.59L386.91,160.36L387.14,272.96L387.68,16L387.68,16L387.68,279.31L388.23,293.17L388.33,16L388.34,252.75L388.63,287.4L389.06,16L389.1,244.09L389.1,16L389.19,298.95L389.85,258.53L389.87,62.2L390.07,16L390.56,278.74L390.61,16L390.68,16L390.72,288.84L391.39,16L391.53,143.04L391.58,16L391.68,296.06L392.26,241.2L392.29,258.53L392.29,16L392.99,268.63L393.04,16L393.08,16L393.17,272.96L393.78,179.13L393.8,30.44L393.89,290.29L393.97,16L394.03,30.44L394.03,290.29L394.11,297.5L394.77,16L394.77,16L394.8,16L395.43,293.17L395.53,16L395.57,278.74L396.13,291.73L396.31,16L396.33,300.39L397.07,16L397.07,16L397.2,16L397.29,296.06L397.83,30.44L398,16L398.68,290.29L398.74,290.29L398.77,290.29L398.81,16L399.51,16L399.54,105.5L399.57,16L400.16,298.95L400.28,173.35L400.29,16L400.3,287.4L401.01,16L401.06,249.86L401.17,299.67L401.67,16L401.67,16L401.85,85.29L401.85,16L402.17,303.28L402.6,16L402.69,16L403.28,278.74L403.44,169.02L403.46,16L403.8,301.83L404.2,226.77L404.22,16L404.85,301.83L404.97,118.45L405,56.42L405.26,298.95L405.68,16L405.69,278.74L405.8,16L406.31,298.95L406.44,16L406.49,16L406.7,298.95L407.17,16L407.24,59.31L407.29,16L407.61,298.95L407.91,160.36L408.01,21.77L408.13,16L408.67,298.95L408.78,190.5L408.78,119.94L408.81,16L409.39,273.03L409.45,16L409.55,189.23L410.09,301.83L410.25,16L410.3,28.82L410.33,280.18L410.98,281.73L411.09,16L411.09,16L411.1,16L411.58,284.51L411.74,160.36L411.75,16L411.85,293.17L411.96,16L411.98,16L412.47,288.13L412.74,225.8L412.79,16L412.81,291.73L413.54,16L413.62,16L414.32,270.08L414.36,229.65L414.37,16L414.97,302.02L415.11,163.25L415.15,16L415.15,267.19L415.87,56.42L415.99,95.26L415.99,287.4L415.99,16L416.74,244.09L416.76,257.39L417.5,16L417.51,217.14L417.51,278.74L417.99,293.17L418.24,16L418.24,16L418.29,298.95L418.29,16L419.02,16L419.07,16L419.72,298.95L419.84,82.41L419.87,16L420.21,290.29L420.62,16L420.65,298.95L420.65,16L421.4,209.44L421.43,209.44L421.43,16L422.08,296.78L422.17,238.56L422.23,53.53L422.26,16L422.84,290.29L422.96,93.95L423,270.08L423.24,284.51L423.74,16L423.74,16L423.79,76.63L423.79,16L423.9,267.19L424.53,16L424.59,16L425.28,278.74L425.34,16L425.35,16L425.5,290.29L426.01,157.47L426.05,105.5L426.05,16L426.67,303.28L426.8,278.74L426.84,16L427.5,298.95L427.55,16L427.61,16L427.89,303.28L428.36,16L428.39,52.09L428.39,16L428.9,301.83L429.14,114.59L429.16,232.54L429.83,278.74L429.86,16L429.95,278.74L429.95,16L430.7,16L430.72,16L431.28,296.06L431.47,16L431.5,16L432.22,295.7L432.22,16L432.3,16L432.32,297.5L433.03,47.76L433.1,47.76L433.11,16L433.54,296.78L433.85,59.31L433.9,16L434.12,284.51L434.63,16L434.68,16L434.76,290.29L435.4,16L435.42,16L436.16,296.23L436.17,226.77L436.18,16L436.59,301.83L436.92,16L436.98,16L437.38,283.79L437.74,108.39L437.77,108.39L437.77,16L437.83,300.39L438.5,16L438.53,16L439.2,271.52L439.29,114.17L439.33,114.17L439.33,16L439.5,296.06L440.06,16L440.12,16L440.8,293.17L440.87,47.76L440.9,91.07L440.94,16L441.17,301.83L441.65,173.35L441.67,278.74L441.88,297.5L442.42,16L442.42,16L442.45,290.29L442.55,16L442.9,300.92L443.19,117.05L443.23,109.83L443.28,16L443.42,267.19L443.96,16L444,275.85L444.76,16L444.79,160.36L444.79,16L445.32,288.38L445.52,16L445.59,16L445.83,301.83L446.27,16L446.32,16L446.69,301.83L447.04,16L447.12,16L447.16,293.17L447.87,16L447.88,16L448.21,296.06L448.53,290.97L448.53,30.44L448.53,301.83L448.56,16L449.25,73.74L449.29,246.98L449.59,301.83L449.97,16L450.05,108.39L450.05,16L450.26,301.83L450.77,122.83L450.82,16L451.29,281.62L451.53,16L451.58,16L452.26,301.83L452.28,16L452.42,18.89L452.42,301.83L452.47,16L453.11,257.08L453.23,206.56L453.24,16L453.7,303.28L453.96,65.08L453.99,16L454.21,298.95L454.7,241.2L454.75,16L454.99,16L454.99,16L454.99,163.25L455.08,254.92L455.34,16L455.39,270.08L455.47,294.59L456.09,16L456.13,44.87L456.18,275.85L456.91,16L456.95,246.98L457.06,16L457.44,301.83L457.68,16L457.74,128.6L457.74,16L458.14,296.06L458.45,16L458.57,140.15L458.64,16L459.22,298.95L459.32,46.39L459.4,65.08L459.46,16L459.77,302.39L460.11,67.97L460.16,255.64L460.24,16L460.52,300.39L460.88,267.19L460.96,203.67L460.98,16L461.39,298.95L461.7,287.4L461.74,16L462.23,296.06L462.45,16L462.49,16L462.97,297.5L463.02,16L463.09,300.63L463.76,272.96L463.83,232.54L464.19,293.17L464.55,16L464.58,181.86L464.59,189.23L464.6,16L464.62,293.17L465.31,16L465.37,259.97L465.44,287.4L466.09,16L466.14,249.86L466.18,16L466.32,301.83L466.87,16L466.9,16L466.97,281.62L467,39.1L467.06,281.62L467.13,16L467.7,169.02L467.77,16L467.83,287.4L468.36,16L468.43,16L468.81,297.5L469.17,16L469.21,16L469.64,297.5L469.97,176.4L469.97,16L470.23,296.06L470.75,128.6L470.75,16L470.84,296.78L471.49,73.74L471.53,16L471.53,296.06L472.22,96.84L472.29,287.4L472.37,296.06L473.02,16L473.07,16L473.35,301.83L473.82,47.76L473.84,272.96L474.54,16L474.58,163.25L474.61,16L474.75,293.62L475.01,173.48L475.06,30.44L475.07,16L475.7,301.51L475.8,16L475.83,16L476.36,301.83L476.56,16L476.62,16L476.68,33.32L476.68,16L476.81,287.4L476.85,16L477.54,298.95L477.59,16L477.73,296.63L478.28,16L478.39,16L478.94,301.83L479.13,50.65L479.22,270.08L479.22,16L479.58,296.06L479.96,93.95L480.06,226.77L480.09,16L480.39,296.06L480.8,246.26L480.87,249.86L481.29,298.95L481.6,16L481.66,264.3L481.68,16L482,301.83L482.4,16L482.42,16L483.15,293.17L483.16,30.44L483.22,16L483.41,16L483.41,160.36L483.5,16L483.97,290.08L484.11,255.64L484.16,16L484.41,301.83L484.91,16L484.92,27.55L484.96,303.28L485.01,16L485.62,235.43L485.73,16L485.93,284.51L486.46,223.88L486.5,16L487.25,287.4L487.3,114.17L487.33,16L487.54,301.83L488.05,16L488.09,16L488.29,301.83L488.83,277.29L488.89,16L489.08,301.83L489.65,102.62L489.66,16L489.72,293.17L490.38,16L490.44,16L491,301.86L491.08,100.92L491.08,16L491.08,293.17L491.82,16L491.85,160.36L491.85,16L491.87,298.95L492.58,16L492.62,39.1L492.63,16L492.71,298.95L493.31,235.43L493.41,16L493.76,293.17L494,290.29L494.05,16L494.72,296.06L494.79,24.66L494.84,296.06L494.91,16L495.25,301.83L495.58,16L495.6,53.53L495.61,16L495.83,303.28L496.17,16L496.36,56.42L496.38,16L496.68,285.23L497.09,238.32L497.17,36.21L497.17,16L497.66,296.06L497.91,112.72L497.93,16L498.16,296.78L498.65,59.31L498.7,16L499.05,16L499.05,16L499.13,255.64L499.17,16L499.82,301.83L499.84,73.74L499.89,16L500.55,301.83L500.64,16L500.67,16L500.88,301.83L501.42,16L501.43,275.85L501.53,16L501.99,290.29L502.13,226.77L502.19,16L502.23,301.83L502.94,16L502.95,16L503.28,287.4L503.69,246.98L503.73,16L503.87,301.83L504.47,166.14L504.49,16L504.71,296.06L505.24,16L505.25,16L505.76,274.41L506,108.39L506.02,16L506.63,303.28L506.76,62.2L506.78,16L507.14,304L507.53,16L507.56,16L507.95,301.86L508.31,293.62L508.33,16L508.91,301.86L509.08,44.87L509.11,16L509.13,301.86L509.85,16L509.88,16L510.23,301.83L510.27,27.55L510.29,16L510.77,301.83L511,131.49" style="vector-effect: non-scaling-stroke; fill: none; stroke: rgb(99, 110, 250); stroke-opacity: 1; stroke-width: 2px; opacity: 1;"/></g><g class="points"/><g class="text"/></g></g></g><g class="overplot"/><path class="xlines-above crisp" d="M0,0" style="fill: none;"/><path class="ylines-above crisp" d="M0,0" style="fill: none;"/><g class="overlines-above"/><g class="xaxislayer-above"><g class="xtick"><text text-anchor="middle" x="0" y="436" transform="translate(198.14,0)" style="font-family: 'Times New Roman'; font-size: 15px; fill: rgb(13, 13, 13); fill-opacity: 1; white-space: pre; opacity: 1;">1.61252×10​<tspan style="font-size:70%" dy="-0.6em">18</tspan><tspan dy="0.42em">​</tspan></text></g><g class="xtick"><text text-anchor="middle" x="0" y="436" style="font-family: 'Times New Roman'; font-size: 15px; fill: rgb(13, 13, 13); fill-opacity: 1; white-space: pre; opacity: 1;" transform="translate(299.55,0)">1.612525×10​<tspan style="font-size:70%" dy="-0.6em">18</tspan><tspan dy="0.42em">​</tspan></text></g><g class="xtick"><text text-anchor="middle" x="0" y="436" style="font-family: 'Times New Roman'; font-size: 15px; fill: rgb(13, 13, 13); fill-opacity: 1; white-space: pre; opacity: 1;" transform="translate(400.96,0)">1.61253×10​<tspan style="font-size:70%" dy="-0.6em">18</tspan><tspan dy="0.42em">​</tspan></text></g><g class="xtick"><text text-anchor="middle" x="0" y="436" style="font-family: 'Times New Roman'; font-size: 15px; fill: rgb(13, 13, 13); fill-opacity: 1; white-space: pre; opacity: 1;" transform="translate(502.38,0)">1.612535×10​<tspan style="font-size:70%" dy="-0.6em">18</tspan><tspan dy="0.42em">​</tspan></text></g><g class="xtick"><text text-anchor="middle" x="0" y="436" style="font-family: 'Times New Roman'; font-size: 15px; fill: rgb(13, 13, 13); fill-opacity: 1; white-space: pre; opacity: 1;" transform="translate(603.79,0)">1.61254×10​<tspan style="font-size:70%" dy="-0.6em">18</tspan><tspan dy="0.42em">​</tspan></text></g></g><g class="yaxislayer-above"><g class="ytick"><text text-anchor="end" x="108" y="12.25" transform="translate(0,404.72)" style="font-family: 'Times New Roman'; font-size: 35px; fill: rgb(13, 13, 13); fill-opacity: 1; white-space: pre; opacity: 1;">0</text></g><g class="ytick"><text text-anchor="end" x="108" y="12.25" style="font-family: 'Times New Roman'; font-size: 35px; fill: rgb(13, 13, 13); fill-opacity: 1; white-space: pre; opacity: 1;" transform="translate(0,346.98)">20</text></g><g class="ytick"><text text-anchor="end" x="108" y="12.25" style="font-family: 'Times New Roman'; font-size: 35px; fill: rgb(13, 13, 13); fill-opacity: 1; white-space: pre; opacity: 1;" transform="translate(0,289.23)">40</text></g><g class="ytick"><text text-anchor="end" x="108" y="12.25" style="font-family: 'Times New Roman'; font-size: 35px; fill: rgb(13, 13, 13); fill-opacity: 1; white-space: pre; opacity: 1;" transform="translate(0,231.49)">60</text></g><g class="ytick"><text text-anchor="end" x="108" y="12.25" style="font-family: 'Times New Roman'; font-size: 35px; fill: rgb(13, 13, 13); fill-opacity: 1; white-space: pre; opacity: 1;" transform="translate(0,173.74)">80</text></g><g class="ytick"><text text-anchor="end" x="108" y="12.25" style="font-family: 'Times New Roman'; font-size: 35px; fill: rgb(13, 13, 13); fill-opacity: 1; white-space: pre; opacity: 1;" transform="translate(0,116)">100</text></g></g><g class="overaxes-above"/></g></g><g class="polarlayer"/><g class="smithlayer"/><g class="ternarylayer"/><g class="geolayer"/><g class="funnelarealayer"/><g class="pielayer"/><g class="iciclelayer"/><g class="treemaplayer"/><g class="sunburstlayer"/><g class="glimages"/><defs id="topdefs-e8bea9"><g class="clips"/></defs><g class="layer-above"><g class="imagelayer"/><g class="shapelayer"/></g><g class="infolayer"><g class="g-gtitle"/><g class="g-xtitle"><text class="xtitle" x="364.5" y="463.8" text-anchor="middle" style="font-family: 'Open Sans', verdana, arial, sans-serif; font-size: 14px; fill: rgb(42, 63, 95); opacity: 1; font-weight: normal; white-space: pre;">Time Steps (ns)</text></g><g class="g-ytitle" transform="translate(23.5,0)"><text class="ytitle" transform="rotate(-90,12.5,260)" x="12.5" y="260" text-anchor="middle" style="font-family: 'Times New Roman'; font-size: 40px; fill: rgb(13, 13, 13); opacity: 1; font-weight: normal; white-space: pre;">Fill rate (in %)</text></g></g></svg>