<svg class="main-svg" xmlns="http://www.w3.org/2000/svg" xmlns:xlink="http://www.w3.org/1999/xlink" width="700" height="500" style="" viewBox="0 0 700 500"><rect x="0" y="0" width="700" height="500" style="fill: rgb(255, 255, 255); fill-opacity: 1;"/><defs id="defs-c1f341"><g class="clips"><clipPath id="clipc1f341xyplot" class="plotclip"><rect width="489" height="320"/></clipPath><clipPath class="axesclip" id="clipc1f341x"><rect x="131" y="0" width="489" height="500"/></clipPath><clipPath class="axesclip" id="clipc1f341y"><rect x="0" y="100" width="700" height="320"/></clipPath><clipPath class="axesclip" id="clipc1f341xy"><rect x="131" y="100" width="489" height="320"/></clipPath></g><g class="gradients"/><g class="patterns"/></defs><g class="bglayer"><rect class="bg" x="131" y="100" width="489" height="320" style="fill: rgb(229, 236, 246); fill-opacity: 1; stroke-width: 0;"/></g><g class="layer-below"><g class="imagelayer"/><g class="shapelayer"/></g><g class="cartesianlayer"><g class="subplot xy"><g class="layer-subplot"><g class="shapelayer"/><g class="imagelayer"/></g><g class="minor-gridlayer"><g class="x"/><g class="y"/></g><g class="gridlayer"><g class="x"><path class="xgrid crisp" transform="translate(216.3,0)" d="M0,100v320" style="stroke: rgb(255, 255, 255); stroke-opacity: 1; stroke-width: 1px;"/><path class="xgrid crisp" transform="translate(313.35,0)" d="M0,100v320" style="stroke: rgb(255, 255, 255); stroke-opacity: 1; stroke-width: 1px;"/><path class="xgrid crisp" transform="translate(410.39,0)" d="M0,100v320" style="stroke: rgb(255, 255, 255); stroke-opacity: 1; stroke-width: 1px;"/><path class="xgrid crisp" transform="translate(507.44,0)" d="M0,100v320" style="stroke: rgb(255, 255, 255); stroke-opacity: 1; stroke-width: 1px;"/><path class="xgrid crisp" transform="translate(604.48,0)" d="M0,100v320" style="stroke: rgb(255, 255, 255); stroke-opacity: 1; stroke-width: 1px;"/></g><g class="y"><path class="ygrid crisp" transform="translate(0,353.19)" d="M131,0h489" style="stroke: rgb(255, 255, 255); stroke-opacity: 1; stroke-width: 1px;"/><path class="ygrid crisp" transform="translate(0,302.37)" d="M131,0h489" style="stroke: rgb(255, 255, 255); stroke-opacity: 1; stroke-width: 1px;"/><path class="ygrid crisp" transform="translate(0,251.55)" d="M131,0h489" style="stroke: rgb(255, 255, 255); stroke-opacity: 1; stroke-width: 1px;"/><path class="ygrid crisp" transform="translate(0,200.74)" d="M131,0h489" style="stroke: rgb(255, 255, 255); stroke-opacity: 1; stroke-width: 1px;"/><path class="ygrid crisp" transform="translate(0,149.92000000000002)" d="M131,0h489" style="stroke: rgb(255, 255, 255); stroke-opacity: 1; stroke-width: 1px;"/></g></g><g class="zerolinelayer"><path class="yzl zl crisp" transform="translate(0,404.01)" d="M131,0h489" style="stroke: rgb(255, 255, 255); stroke-opacity: 1; stroke-width: 2px;"/></g><path class="xlines-below"/><path class="ylines-below"/><g class="overlines-below"/><g class="xaxislayer-below"/><g class="yaxislayer-below"/><g class="overaxes-below"/><g class="plot" transform="translate(131,100)" clip-path="url(#clipc1f341xyplot)"><g class="scatterlayer mlayer"><g class="trace scatter trace55afc3" style="stroke-miterlimit: 2; opacity: 1;"><g class="fills"/><g class="errorbars"/><g class="lines"><path class="js-line" d="M0,304L11.42,298.99L11.42,298.99L11.42,298.98L14.17,297.89L14.17,297.88L17.48,296.49L17.5,296.48L41.03,285.92L41.03,285.91L42.86,284.68L42.86,284.68L42.9,284.67L45.06,283.65L45.06,283.64L47.63,281.92L47.67,281.92L50.16,280.43L50.16,280.43L50.18,280.43L52.6,278.74L52.6,278.74L52.6,278.73L55.05,277.13L55.05,277.12L81.57,260.32L81.67,260.32L107.57,245L107.69,245L119.03,237.95L119.03,237.95L119.1,237.94L121.35,236.61L121.35,236.6L125.92,233.67L125.92,233.67L125.97,233.67L129.26,231.79L129.26,231.78L138.3,226.14L138.4,226.14L140.74,224.68L140.74,224.67L144.77,222.26L144.77,222.26L144.77,222.25L146.58,220.87L146.74,220.86L149.03,219.6L149.03,219.6L149.08,219.59L150.46,218.71L150.46,218.7L153.34,217.18L153.34,217.18L153.35,217.17L157.57,214.55L157.57,214.55L157.57,214.54L162.67,211.39L162.67,211.38L166.57,209.21L166.68,209.21L168.65,207.83L168.65,207.83L168.71,207.83L170.82,206.43L170.82,206.42L172.96,204.95L172.96,204.95L173.03,204.95L176.35,202.62L176.43,202.61L187.85,196.09L187.85,196.09L187.88,196.08L208.64,185.08L208.64,185.07L213.86,181.65L213.9,181.64L216.03,180.53L216.03,180.53L216.1,180.52L221.17,177.69L221.17,177.69L221.24,177.68L229.52,172.74L229.52,172.73L234.84,169.89L234.84,169.89L234.93,169.89L251.83,159.75L251.83,159.75L252.05,159.75L255.26,158.09L255.36,158.08L257.65,157.07L257.65,157.07L257.73,157.06L260.96,155.49L260.96,155.48L277.9,145.67L277.9,145.67L277.9,145.66L280.49,144.12L280.49,144.11L288.05,139.94L288.05,139.94L288.07,139.94L295,135.42L295,135.42L295,135.41L301.74,131.67L301.74,131.67L301.74,131.66L304.81,129.55L304.85,129.55L310.32,126.19L310.32,126.18L339.44,108.74L339.44,108.74L339.5,108.74L352.91,100.23L352.91,100.23L352.94,100.22L355.4,98.35L355.4,98.32L364.74,92.5L364.74,92.5L364.83,92.5L367.03,91.34L367.03,91.34L367.08,91.33L378.14,84.98L378.14,84.97L379.77,84.15L379.77,84.15L379.82,84.14L383.1,82.03L383.1,82.02L392.31,76.58L392.32,76.57L395.73,74.63L395.73,74.63L395.81,74.61L403.79,69.84L403.79,69.84L403.79,69.83L405.95,68.62L406.01,68.61L408.73,67.06L408.73,67.06L408.81,67.05L411.9,65.29L411.9,65.29L411.98,65.29L415.72,63.04L415.72,63.04L415.72,63.03L418.95,60.7L418.95,60.69L437.14,48.97L437.19,48.96L440.66,47.28L440.66,47.27L444.61,44.99L444.61,44.98L456.9,36.63L456.9,36.62L457.9,35.94L458.02,35.93L459.88,34.67L459.88,34.67L459.92,34.66L461.61,33.53L461.61,33.51L489,16" style="vector-effect: non-scaling-stroke; fill: none; stroke: rgb(173, 0, 0); stroke-opacity: 1; stroke-width: 2px; opacity: 1;"/></g><g class="points"/><g class="text"/></g></g></g><g class="overplot"/><path class="xlines-above crisp" d="M0,0" style="fill: none;"/><path class="ylines-above crisp" d="M0,0" style="fill: none;"/><g class="overlines-above"/><g class="xaxislayer-above"><g class="xtick"><text text-anchor="middle" x="0" y="436" transform="translate(216.3,0)" style="font-family: 'Times New Roman'; font-size: 15px; fill: rgb(13, 13, 13); fill-opacity: 1; white-space: pre; opacity: 1;">1.61252×10​<tspan style="font-size:70%" dy="-0.6em">18</tspan><tspan dy="0.42em">​</tspan></text></g><g class="xtick"><text text-anchor="middle" x="0" y="436" style="font-family: 'Times New Roman'; font-size: 15px; fill: rgb(13, 13, 13); fill-opacity: 1; white-space: pre; opacity: 1;" transform="translate(313.35,0)">1.612525×10​<tspan style="font-size:70%" dy="-0.6em">18</tspan><tspan dy="0.42em">​</tspan></text></g><g class="xtick"><text text-anchor="middle" x="0" y="436" style="font-family: 'Times New Roman'; font-size: 15px; fill: rgb(13, 13, 13); fill-opacity: 1; white-space: pre; opacity: 1;" transform="translate(410.39,0)">1.61253×10​<tspan style="font-size:70%" dy="-0.6em">18</tspan><tspan dy="0.42em">​</tspan></text></g><g class="xtick"><text text-anchor="middle" x="0" y="436" style="font-family: 'Times New Roman'; font-size: 15px; fill: rgb(13, 13, 13); fill-opacity: 1; white-space: pre; opacity: 1;" transform="translate(507.44,0)">1.612535×10​<tspan style="font-size:70%" dy="-0.6em">18</tspan><tspan dy="0.42em">​</tspan></text></g><g class="xtick"><text text-anchor="middle" x="0" y="436" style="font-family: 'Times New Roman'; font-size: 15px; fill: rgb(13, 13, 13); fill-opacity: 1; white-space: pre; opacity: 1;" transform="translate(604.48,0)">1.61254×10​<tspan style="font-size:70%" dy="-0.6em">18</tspan><tspan dy="0.42em">​</tspan></text></g></g><g class="yaxislayer-above"><g class="ytick"><text text-anchor="end" x="130" y="12.25" transform="translate(0,404.01)" style="font-family: 'Times New Roman'; font-size: 35px; fill: rgb(13, 13, 13); fill-opacity: 1; white-space: pre; opacity: 1;">0</text></g><g class="ytick"><text text-anchor="end" x="130" y="12.25" style="font-family: 'Times New Roman'; font-size: 35px; fill: rgb(13, 13, 13); fill-opacity: 1; white-space: pre; opacity: 1;" transform="translate(0,353.19)">0.5M</text></g><g class="ytick"><text text-anchor="end" x="130" y="12.25" style="font-family: 'Times New Roman'; font-size: 35px; fill: rgb(13, 13, 13); fill-opacity: 1; white-space: pre; opacity: 1;" transform="translate(0,302.37)">1M</text></g><g class="ytick"><text text-anchor="end" x="130" y="12.25" style="font-family: 'Times New Roman'; font-size: 35px; fill: rgb(13, 13, 13); fill-opacity: 1; white-space: pre; opacity: 1;" transform="translate(0,251.55)">1.5M</text></g><g class="ytick"><text text-anchor="end" x="130" y="12.25" style="font-family: 'Times New Roman'; font-size: 35px; fill: rgb(13, 13, 13); fill-opacity: 1; white-space: pre; opacity: 1;" transform="translate(0,200.74)">2M</text></g><g class="ytick"><text text-anchor="end" x="130" y="12.25" style="font-family: 'Times New Roman'; font-size: 35px; fill: rgb(13, 13, 13); fill-opacity: 1; white-space: pre; opacity: 1;" transform="translate(0,149.92000000000002)">2.5M</text></g></g><g class="overaxes-above"/></g></g><g class="polarlayer"/><g class="smithlayer"/><g class="ternarylayer"/><g class="geolayer"/><g class="funnelarealayer"/><g class="pielayer"/><g class="iciclelayer"/><g class="treemaplayer"/><g class="sunburstlayer"/><g class="glimages"/><defs id="topdefs-c1f341"><g class="clips"/></defs><g class="layer-above"><g class="imagelayer"/><g class="shapelayer"/></g><g class="infolayer"><g class="g-gtitle"/><g class="g-xtitle"><text class="xtitle" x="375.5" y="463.8" text-anchor="middle" style="font-family: 'Open Sans', verdana, arial, sans-serif; font-size: 14px; fill: rgb(42, 63, 95); opacity: 1; font-weight: normal; white-space: pre;">Time Steps (ns)</text></g><g class="g-ytitle" transform="translate(23.875,0)"><text class="ytitle" transform="rotate(-90,12.125,260)" x="12.125" y="260" text-anchor="middle" style="font-family: 'Times New Roman'; font-size: 40px; fill: rgb(13, 13, 13); opacity: 1; font-weight: normal; white-space: pre;">Cum. qty. executed securites</text></g></g></svg>