<svg class="main-svg" xmlns="http://www.w3.org/2000/svg" xmlns:xlink="http://www.w3.org/1999/xlink" width="700" height="500" style="" viewBox="0 0 700 500"><rect x="0" y="0" width="700" height="500" style="fill: rgb(255, 255, 255); fill-opacity: 1;"/><defs id="defs-e01dce"><g class="clips"><clipPath id="clipe01dcexyplot" class="plotclip"><rect width="497" height="320"/></clipPath><clipPath class="axesclip" id="clipe01dcex"><rect x="123" y="0" width="497" height="500"/></clipPath><clipPath class="axesclip" id="clipe01dcey"><rect x="0" y="100" width="700" height="320"/></clipPath><clipPath class="axesclip" id="clipe01dcexy"><rect x="123" y="100" width="497" height="320"/></clipPath></g><g class="gradients"/><g class="patterns"/></defs><g class="bglayer"><rect class="bg" x="123" y="100" width="497" height="320" style="fill: rgb(229, 236, 246); fill-opacity: 1; stroke-width: 0;"/></g><g class="layer-below"><g class="imagelayer"/><g class="shapelayer"/></g><g class="cartesianlayer"><g class="subplot xy"><g class="layer-subplot"><g class="shapelayer"/><g class="imagelayer"/></g><g class="minor-gridlayer"><g class="x"/><g class="y"/></g><g class="gridlayer"><g class="x"><path class="xgrid crisp" transform="translate(209.7,0)" d="M0,100v320" style="stroke: rgb(255, 255, 255); stroke-opacity: 1; stroke-width: 1px;"/><path class="xgrid crisp" transform="translate(308.33000000000004,0)" d="M0,100v320" style="stroke: rgb(255, 255, 255); stroke-opacity: 1; stroke-width: 1px;"/><path class="xgrid crisp" transform="translate(406.97,0)" d="M0,100v320" style="stroke: rgb(255, 255, 255); stroke-opacity: 1; stroke-width: 1px;"/><path class="xgrid crisp" transform="translate(505.6,0)" d="M0,100v320" style="stroke: rgb(255, 255, 255); stroke-opacity: 1; stroke-width: 1px;"/><path class="xgrid crisp" transform="translate(604.23,0)" d="M0,100v320" style="stroke: rgb(255, 255, 255); stroke-opacity: 1; stroke-width: 1px;"/></g><g class="y"><path class="ygrid crisp" transform="translate(0,353.23)" d="M123,0h497" style="stroke: rgb(255, 255, 255); stroke-opacity: 1; stroke-width: 1px;"/><path class="ygrid crisp" transform="translate(0,302.45)" d="M123,0h497" style="stroke: rgb(255, 255, 255); stroke-opacity: 1; stroke-width: 1px;"/><path class="ygrid crisp" transform="translate(0,251.67)" d="M123,0h497" style="stroke: rgb(255, 255, 255); stroke-opacity: 1; stroke-width: 1px;"/><path class="ygrid crisp" transform="translate(0,200.89)" d="M123,0h497" style="stroke: rgb(255, 255, 255); stroke-opacity: 1; stroke-width: 1px;"/><path class="ygrid crisp" transform="translate(0,150.11)" d="M123,0h497" style="stroke: rgb(255, 255, 255); stroke-opacity: 1; stroke-width: 1px;"/></g></g><g class="zerolinelayer"><path class="yzl zl crisp" transform="translate(0,404.01)" d="M123,0h497" style="stroke: rgb(255, 255, 255); stroke-opacity: 1; stroke-width: 2px;"/></g><path class="xlines-below"/><path class="ylines-below"/><g class="overlines-below"/><g class="xaxislayer-below"/><g class="yaxislayer-below"/><g class="overaxes-below"/><g class="plot" transform="translate(123,100)" clip-path="url(#clipe01dcexyplot)"><g class="scatterlayer mlayer"><g class="trace scatter trace366e26" style="stroke-miterlimit: 2; opacity: 1;"><g class="fills"/><g class="errorbars"/><g class="lines"><path class="js-line" d="M0,304L17.19,296.75L17.19,296.73L41.99,285.68L41.99,285.67L47.2,282.63L47.2,282.62L49.09,281.48L49.09,281.47L58.45,275.39L58.45,275.37L61.39,273.6L61.39,273.59L64.72,271.77L64.72,271.77L64.76,271.76L69.9,268.17L69.9,268.17L69.9,268.16L77.34,263.41L77.34,263.41L77.4,263.41L84.49,259.58L84.49,259.58L84.55,259.58L91.53,255.43L91.53,255.43L91.56,255.43L93.61,254.1L93.61,254.1L93.66,254.09L96.78,252.4L96.78,252.4L96.78,252.39L106.61,246.42L106.7,246.41L108.13,245.5L108.23,245.5L110.86,244.07L110.86,244.07L110.86,244.06L114.29,241.77L114.29,241.76L119.96,238.58L119.96,238.57L120.98,238L120.98,238L121.05,238L123.61,236.42L123.61,236.41L125.48,235.31L125.48,235.29L126.89,234.31L126.89,234.3L132.31,231.17L132.31,231.16L140.77,226.14L140.77,226.14L140.9,226.13L147.26,222.12L147.26,222.12L147.27,222.11L148.98,220.94L148.98,220.93L150.48,220.09L150.53,220.08L156.59,216.68L156.59,216.67L158.65,215.53L158.65,215.53L158.65,215.52L191.62,195.83L191.62,195.83L191.72,195.83L193.46,194.77L193.46,194.77L193.63,194.76L197.82,192.89L197.82,192.89L197.82,192.88L254.56,160.52L254.56,160.51L262.02,157.08L262.02,157.08L262.11,157.08L265.33,155.47L265.33,155.47L265.33,155.46L312.05,128.19L312.05,128.19L312.05,128.18L315.52,126.16L315.52,126.15L319.79,123.51L319.79,123.5L321.61,122.4L321.63,122.39L344.51,108.97L344.51,108.97L344.58,108.96L346.32,107.98L346.32,107.97L349.62,105.92L349.72,105.91L352.63,103.99L352.63,103.99L352.63,103.98L354.12,102.94L354.3,102.93L355.93,101.87L355.93,101.87L355.96,101.87L357.71,100.85L357.71,100.84L367.44,94.54L367.61,94.53L372.49,91.64L372.49,91.64L372.49,91.63L375.07,90.26L375.07,90.26L375.07,90.25L376.67,89.22L376.67,89.22L376.78,89.21L380.23,87.28L380.23,87.28L380.35,87.27L382.86,86.05L382.86,86.05L382.97,86.04L391.86,80.64L391.94,80.64L418.63,65.35L418.71,65.35L421.31,63.6L421.31,63.6L421.31,63.59L423.66,62.36L423.66,62.35L425.62,61.07L425.62,61.05L428.61,58.92L428.72,58.92L430.52,57.73L430.52,57.73L430.56,57.73L437.65,52.92L437.65,52.91L440.49,51.26L440.49,51.22L446.55,47.85L446.64,47.85L454.03,43.67L454.03,43.67L454.03,43.64L457.03,41.64L457.03,41.63L462.08,38.27L462.08,38.27L462.08,38.26L468.98,33.77L468.98,33.75L471.75,31.95L471.75,31.95L471.8,31.95L486.88,22.58L486.88,22.57L495.97,16.64L496.1,16.63L497,16" style="vector-effect: non-scaling-stroke; fill: none; stroke: rgb(1, 102, 87); stroke-opacity: 1; stroke-width: 2px; opacity: 1;"/></g><g class="points"/><g class="text"/></g></g></g><g class="overplot"/><path class="xlines-above crisp" d="M0,0" style="fill: none;"/><path class="ylines-above crisp" d="M0,0" style="fill: none;"/><g class="overlines-above"/><g class="xaxislayer-above"><g class="xtick"><text text-anchor="middle" x="0" y="436" transform="translate(209.7,0)" style="font-family: 'Times New Roman'; font-size: 15px; fill: rgb(13, 13, 13); fill-opacity: 1; white-space: pre; opacity: 1;">1.61252×10​<tspan style="font-size:70%" dy="-0.6em">18</tspan><tspan dy="0.42em">​</tspan></text></g><g class="xtick"><text text-anchor="middle" x="0" y="436" style="font-family: 'Times New Roman'; font-size: 15px; fill: rgb(13, 13, 13); fill-opacity: 1; white-space: pre; opacity: 1;" transform="translate(308.33000000000004,0)">1.612525×10​<tspan style="font-size:70%" dy="-0.6em">18</tspan><tspan dy="0.42em">​</tspan></text></g><g class="xtick"><text text-anchor="middle" x="0" y="436" style="font-family: 'Times New Roman'; font-size: 15px; fill: rgb(13, 13, 13); fill-opacity: 1; white-space: pre; opacity: 1;" transform="translate(406.97,0)">1.61253×10​<tspan style="font-size:70%" dy="-0.6em">18</tspan><tspan dy="0.42em">​</tspan></text></g><g class="xtick"><text text-anchor="middle" x="0" y="436" style="font-family: 'Times New Roman'; font-size: 15px; fill: rgb(13, 13, 13); fill-opacity: 1; white-space: pre; opacity: 1;" transform="translate(505.6,0)">1.612535×10​<tspan style="font-size:70%" dy="-0.6em">18</tspan><tspan dy="0.42em">​</tspan></text></g><g class="xtick"><text text-anchor="middle" x="0" y="436" style="font-family: 'Times New Roman'; font-size: 15px; fill: rgb(13, 13, 13); fill-opacity: 1; white-space: pre; opacity: 1;" transform="translate(604.23,0)">1.61254×10​<tspan style="font-size:70%" dy="-0.6em">18</tspan><tspan dy="0.42em">​</tspan></text></g></g><g class="yaxislayer-above"><g class="ytick"><text text-anchor="end" x="122" y="12.25" transform="translate(0,404.01)" style="font-family: 'Times New Roman'; font-size: 35px; fill: rgb(13, 13, 13); fill-opacity: 1; white-space: pre; opacity: 1;">0</text></g><g class="ytick"><text text-anchor="end" x="122" y="12.25" style="font-family: 'Times New Roman'; font-size: 35px; fill: rgb(13, 13, 13); fill-opacity: 1; white-space: pre; opacity: 1;" transform="translate(0,353.23)">0.5B</text></g><g class="ytick"><text text-anchor="end" x="122" y="12.25" style="font-family: 'Times New Roman'; font-size: 35px; fill: rgb(13, 13, 13); fill-opacity: 1; white-space: pre; opacity: 1;" transform="translate(0,302.45)">1B</text></g><g class="ytick"><text text-anchor="end" x="122" y="12.25" style="font-family: 'Times New Roman'; font-size: 35px; fill: rgb(13, 13, 13); fill-opacity: 1; white-space: pre; opacity: 1;" transform="translate(0,251.67)">1.5B</text></g><g class="ytick"><text text-anchor="end" x="122" y="12.25" style="font-family: 'Times New Roman'; font-size: 35px; fill: rgb(13, 13, 13); fill-opacity: 1; white-space: pre; opacity: 1;" transform="translate(0,200.89)">2B</text></g><g class="ytick"><text text-anchor="end" x="122" y="12.25" style="font-family: 'Times New Roman'; font-size: 35px; fill: rgb(13, 13, 13); fill-opacity: 1; white-space: pre; opacity: 1;" transform="translate(0,150.11)">2.5B</text></g></g><g class="overaxes-above"/></g></g><g class="polarlayer"/><g class="smithlayer"/><g class="ternarylayer"/><g class="geolayer"/><g class="funnelarealayer"/><g class="pielayer"/><g class="iciclelayer"/><g class="treemaplayer"/><g class="sunburstlayer"/><g class="glimages"/><defs id="topdefs-e01dce"><g class="clips"/></defs><g class="layer-above"><g class="imagelayer"/><g class="shapelayer"/></g><g class="infolayer"><g class="g-gtitle"/><g class="g-xtitle"><text class="xtitle" x="371.5" y="463.8" text-anchor="middle" style="font-family: 'Open Sans', verdana, arial, sans-serif; font-size: 14px; fill: rgb(42, 63, 95); opacity: 1; font-weight: normal; white-space: pre;">Time Steps (ns)</text></g><g class="g-ytitle" transform="translate(24.109375,0)"><text class="ytitle" transform="rotate(-90,11.890625,260)" x="11.890625" y="260" text-anchor="middle" style="font-family: 'Times New Roman'; font-size: 40px; fill: rgb(13, 13, 13); opacity: 1; font-weight: normal; white-space: pre;">Cum. executed trading vol. (in $)</text></g></g></svg>