<svg class="main-svg" xmlns="http://www.w3.org/2000/svg" xmlns:xlink="http://www.w3.org/1999/xlink" width="700" height="500" style="" viewBox="0 0 700 500"><rect x="0" y="0" width="700" height="500" style="fill: rgb(255, 255, 255); fill-opacity: 1;"/><defs id="defs-94b58f"><g class="clips"><clipPath id="clip94b58fxyplot" class="plotclip"><rect width="511" height="320"/></clipPath><clipPath class="axesclip" id="clip94b58fx"><rect x="109" y="0" width="511" height="500"/></clipPath><clipPath class="axesclip" id="clip94b58fy"><rect x="0" y="100" width="700" height="320"/></clipPath><clipPath class="axesclip" id="clip94b58fxy"><rect x="109" y="100" width="511" height="320"/></clipPath></g><g class="gradients"/><g class="patterns"/></defs><g class="bglayer"><rect class="bg" x="109" y="100" width="511" height="320" style="fill: rgb(229, 236, 246); fill-opacity: 1; stroke-width: 0;"/></g><g class="layer-below"><g class="imagelayer"/><g class="shapelayer"/></g><g class="cartesianlayer"><g class="subplot xy"><g class="layer-subplot"><g class="shapelayer"/><g class="imagelayer"/></g><g class="minor-gridlayer"><g class="x"/><g class="y"/></g><g class="gridlayer"><g class="x"><path class="xgrid crisp" transform="translate(198.14,0)" d="M0,100v320" style="stroke: rgb(255, 255, 255); stroke-opacity: 1; stroke-width: 1px;"/><path class="xgrid crisp" transform="translate(299.55,0)" d="M0,100v320" style="stroke: rgb(255, 255, 255); stroke-opacity: 1; stroke-width: 1px;"/><path class="xgrid crisp" transform="translate(400.96,0)" d="M0,100v320" style="stroke: rgb(255, 255, 255); stroke-opacity: 1; stroke-width: 1px;"/><path class="xgrid crisp" transform="translate(502.38,0)" d="M0,100v320" style="stroke: rgb(255, 255, 255); stroke-opacity: 1; stroke-width: 1px;"/><path class="xgrid crisp" transform="translate(603.79,0)" d="M0,100v320" style="stroke: rgb(255, 255, 255); stroke-opacity: 1; stroke-width: 1px;"/></g><g class="y"><path class="ygrid crisp" transform="translate(0,353.02)" d="M109,0h511" style="stroke: rgb(255, 255, 255); stroke-opacity: 1; stroke-width: 1px;"/><path class="ygrid crisp" transform="translate(0,302.09000000000003)" d="M109,0h511" style="stroke: rgb(255, 255, 255); stroke-opacity: 1; stroke-width: 1px;"/><path class="ygrid crisp" transform="translate(0,251.16)" d="M109,0h511" style="stroke: rgb(255, 255, 255); stroke-opacity: 1; stroke-width: 1px;"/><path class="ygrid crisp" transform="translate(0,200.23000000000002)" d="M109,0h511" style="stroke: rgb(255, 255, 255); stroke-opacity: 1; stroke-width: 1px;"/><path class="ygrid crisp" transform="translate(0,149.3)" d="M109,0h511" style="stroke: rgb(255, 255, 255); stroke-opacity: 1; stroke-width: 1px;"/></g></g><g class="zerolinelayer"><path class="yzl zl crisp" transform="translate(0,403.95)" d="M109,0h511" style="stroke: rgb(255, 255, 255); stroke-opacity: 1; stroke-width: 2px;"/></g><path class="xlines-below"/><path class="ylines-below"/><g class="overlines-below"/><g class="xaxislayer-below"/><g class="yaxislayer-below"/><g class="overaxes-below"/><g class="plot" transform="translate(109,100)" clip-path="url(#clip94b58fxyplot)"><g class="scatterlayer mlayer"><g class="trace scatter traceda84d9" style="stroke-miterlimit: 2; opacity: 1;"><g class="fills"/><g class="errorbars"/><g class="lines"><path class="js-line" d="M0,303.95L1.99,303.45L1.99,303.41L2.03,303.38L3.25,302.69L3.43,302.68L5.15,301.62L5.33,301.62L13.08,297.65L13.15,297.66L27.69,292.16L27.69,292.18L27.78,292.17L33.15,291.03L33.15,291.02L37.36,288.69L37.37,288.65L42.33,286.13L42.45,286.13L51.89,280.54L51.89,280.56L51.89,280.58L52.92,280.03L52.92,280.02L52.92,280.01L54.29,279.47L54.36,279.47L55.89,278.31L55.89,278.27L56.61,277.16L56.61,277.16L56.61,277.15L60.89,274.53L60.89,274.53L60.95,274.52L63.12,273.65L63.13,273.62L66.16,272.07L66.16,272.08L67.51,271.53L67.55,271.5L69.08,270.74L69.19,270.73L71.65,269.2L71.66,269.17L73.67,268.1L73.67,268.08L74.86,267.61L74.86,267.61L74.91,267.61L76.11,266.56L76.16,266.63L76.32,266.63L87.35,261.79L87.35,261.78L91.11,259.81L91.11,259.85L91.11,259.87L92.42,259.16L92.42,259.15L92.45,259.14L94.45,258.05L94.45,258.05L94.46,258.04L95.98,256.86L95.98,256.86L95.98,256.84L98.04,254.88L98.18,254.87L99.3,253.97L99.3,253.94L101.04,253.25L101.04,253.26L101.09,253.25L102.26,252.5L102.26,252.49L106.82,249.77L106.82,249.78L106.87,249.79L107.9,248.94L107.9,248.94L107.91,248.93L111.05,247.4L111.05,247.34L111.88,247.09L111.88,247.09L111.91,247.08L114.99,245.4L114.99,245.39L118.41,243.83L118.41,243.83L118.41,243.79L119.62,242.89L119.62,242.88L121.01,241.72L121.01,241.64L128.01,237.14L128.03,237.07L129.37,235.63L129.41,236.04L129.46,236.05L136.2,231.97L136.2,231.96L139.83,230.28L139.83,230.26L141.74,228.91L141.74,228.91L141.74,228.84L145.24,227.03L145.4,227.03L158.17,219.89L158.17,219.9L158.23,219.9L170.07,212.42L170.07,212.45L170.1,212.48L172.62,210.82L172.62,210.82L172.65,210.81L184.12,203.03L184.12,203.04L185.61,202.19L185.67,202.19L186.89,201.3L186.95,201.3L189.45,200.32L189.45,200.29L191.23,199.16L191.23,199.16L191.25,199.17L194.43,197.29L194.43,197.28L195.87,196.29L195.96,196.26L199.3,195.2L199.3,195.2L199.3,195.19L201.18,194.22L201.18,194.22L201.18,194.2L212.35,188.61L212.35,188.6L217.67,186.58L217.67,186.58L217.69,186.55L219.57,185.5L219.57,185.47L222.95,183.8L222.95,183.79L223.63,184.23L223.72,184.18L223.81,184.17L226.66,183.04L226.66,183.05L227.55,182.93L227.56,182.91L227.58,182.9L234.28,180.07L234.35,180.08L243.1,175.4L243.1,175.41L243.26,175.41L246.79,174.06L246.79,174.06L246.85,174.05L249.21,172.87L249.26,172.85L250.74,171.86L250.74,171.85L253.93,170.28L253.93,170.3L254,170.29L255.91,169.33L255.91,169.32L257.25,168.79L257.25,168.8L258.32,167.61L258.36,167.58L259.4,166.97L259.4,166.97L259.46,166.96L265,163.57L265,163.59L265,163.61L266.89,162.7L266.89,162.66L267.93,162.23L267.93,162.24L267.99,162.24L278.17,157.12L278.19,157.1L280.03,156.31L280.03,156.32L303.61,144.78L303.61,144.76L310.21,140.25L310.21,140.25L310.21,140.24L310.89,139.61L310.94,139.63L311.2,139.62L312.32,139.34L312.32,139.32L312.33,139.31L320.7,133.91L320.74,133.93L322.59,133.19L322.59,133.19L322.6,133.17L324.77,131.99L324.77,131.98L328.27,130.04L328.28,130.01L329.24,129.38L329.24,129.38L329.32,129.37L344.24,121.72L344.24,121.72L344.37,121.71L358.22,112.97L358.22,112.94L359.63,112.01L359.63,112.02L359.76,111.99L369.03,104.53L369.04,104.5L376.45,99.16L376.45,99.13L378.09,97.82L378.09,97.82L378.11,97.83L380.83,96.51L380.83,96.51L380.95,96.5L387.16,92.39L387.16,92.37L390.05,90.73L390.07,90.72L392.05,90.2L392.06,90.29L392.1,90.29L394.26,88.83L394.26,88.83L394.26,88.79L396.25,87.5L396.25,87.5L396.31,87.48L401.13,84.45L401.13,84.45L401.14,84.42L405.31,81.8L405.31,81.8L405.36,81.81L413.76,75.82L413.76,75.85L413.98,75.85L415.15,75.36L415.15,75.37L415.15,75.38L417.7,73.99L417.7,73.98L420.01,72.02L420.01,71.99L422.84,70.5L422.84,70.49L424.86,69.59L424.86,69.59L424.89,69.59L426.8,68.72L426.8,68.72L426.84,68.71L429.34,67.11L429.49,67.11L432.32,65.05L432.32,65.02L435.04,63.21L435.04,63.19L439.49,58.97L439.49,58.97L439.5,58.94L441.82,57.15L441.82,57.16L441.82,57.14L445.32,54.89L445.32,54.84L447.84,53.46L447.84,53.46L447.84,53.44L449.07,52.51L449.07,52.52L449.16,52.51L452.28,50.78L452.28,50.78L452.42,50.77L453.85,49.85L453.85,49.86L453.87,49.85L456.28,48.6L456.28,48.62L456.45,48.62L462.82,45.36L462.82,45.32L468.68,41.36L468.68,41.36L468.74,41.32L480.62,33.06L480.62,33.07L480.7,33.06L482.31,32.09L482.33,32.03L483.6,30.9L483.61,30.9L487.49,28.13L487.49,28.13L487.49,28.12L490.12,26.97L490.12,27.03L490.24,27.03L492.35,26.5L492.35,26.49L492.35,26.48L497.83,23.67L497.83,23.64L499.71,22.29L499.71,22.31L505.21,19.41L505.21,19.38L506.91,18L506.91,18.01L506.96,18L508.22,17.22L508.22,17.23L508.29,17.21L509.75,16.55L509.75,16.54L509.78,16.53L511,16" style="vector-effect: non-scaling-stroke; fill: none; stroke: rgb(1, 102, 30); stroke-opacity: 1; stroke-width: 2px; opacity: 1;"/></g><g class="points"/><g class="text"/></g></g></g><g class="overplot"/><path class="xlines-above crisp" d="M0,0" style="fill: none;"/><path class="ylines-above crisp" d="M0,0" style="fill: none;"/><g class="overlines-above"/><g class="xaxislayer-above"><g class="xtick"><text text-anchor="middle" x="0" y="436" transform="translate(198.14,0)" style="font-family: 'Times New Roman'; font-size: 15px; fill: rgb(13, 13, 13); fill-opacity: 1; white-space: pre; opacity: 1;">1.61252×10​<tspan style="font-size:70%" dy="-0.6em">18</tspan><tspan dy="0.42em">​</tspan></text></g><g class="xtick"><text text-anchor="middle" x="0" y="436" style="font-family: 'Times New Roman'; font-size: 15px; fill: rgb(13, 13, 13); fill-opacity: 1; white-space: pre; opacity: 1;" transform="translate(299.55,0)">1.612525×10​<tspan style="font-size:70%" dy="-0.6em">18</tspan><tspan dy="0.42em">​</tspan></text></g><g class="xtick"><text text-anchor="middle" x="0" y="436" style="font-family: 'Times New Roman'; font-size: 15px; fill: rgb(13, 13, 13); fill-opacity: 1; white-space: pre; opacity: 1;" transform="translate(400.96,0)">1.61253×10​<tspan style="font-size:70%" dy="-0.6em">18</tspan><tspan dy="0.42em">​</tspan></text></g><g class="xtick"><text text-anchor="middle" x="0" y="436" style="font-family: 'Times New Roman'; font-size: 15px; fill: rgb(13, 13, 13); fill-opacity: 1; white-space: pre; opacity: 1;" transform="translate(502.38,0)">1.612535×10​<tspan style="font-size:70%" dy="-0.6em">18</tspan><tspan dy="0.42em">​</tspan></text></g><g class="xtick"><text text-anchor="middle" x="0" y="436" style="font-family: 'Times New Roman'; font-size: 15px; fill: rgb(13, 13, 13); fill-opacity: 1; white-space: pre; opacity: 1;" transform="translate(603.79,0)">1.61254×10​<tspan style="font-size:70%" dy="-0.6em">18</tspan><tspan dy="0.42em">​</tspan></text></g></g><g class="yaxislayer-above"><g class="ytick"><text text-anchor="end" x="108" y="12.25" transform="translate(0,403.95)" style="font-family: 'Times New Roman'; font-size: 35px; fill: rgb(13, 13, 13); fill-opacity: 1; white-space: pre; opacity: 1;">0</text></g><g class="ytick"><text text-anchor="end" x="108" y="12.25" style="font-family: 'Times New Roman'; font-size: 35px; fill: rgb(13, 13, 13); fill-opacity: 1; white-space: pre; opacity: 1;" transform="translate(0,353.02)">2k</text></g><g class="ytick"><text text-anchor="end" x="108" y="12.25" style="font-family: 'Times New Roman'; font-size: 35px; fill: rgb(13, 13, 13); fill-opacity: 1; white-space: pre; opacity: 1;" transform="translate(0,302.09000000000003)">4k</text></g><g class="ytick"><text text-anchor="end" x="108" y="12.25" style="font-family: 'Times New Roman'; font-size: 35px; fill: rgb(13, 13, 13); fill-opacity: 1; white-space: pre; opacity: 1;" transform="translate(0,251.16)">6k</text></g><g class="ytick"><text text-anchor="end" x="108" y="12.25" style="font-family: 'Times New Roman'; font-size: 35px; fill: rgb(13, 13, 13); fill-opacity: 1; white-space: pre; opacity: 1;" transform="translate(0,200.23000000000002)">8k</text></g><g class="ytick"><text text-anchor="end" x="108" y="12.25" style="font-family: 'Times New Roman'; font-size: 35px; fill: rgb(13, 13, 13); fill-opacity: 1; white-space: pre; opacity: 1;" transform="translate(0,149.3)">10k</text></g></g><g class="overaxes-above"/></g></g><g class="polarlayer"/><g class="smithlayer"/><g class="ternarylayer"/><g class="geolayer"/><g class="funnelarealayer"/><g class="pielayer"/><g class="iciclelayer"/><g class="treemaplayer"/><g class="sunburstlayer"/><g class="glimages"/><defs id="topdefs-94b58f"><g class="clips"/></defs><g class="layer-above"><g class="imagelayer"/><g class="shapelayer"/></g><g class="infolayer"><g class="g-gtitle"/><g class="g-xtitle"><text class="xtitle" x="364.5" y="463.8" text-anchor="middle" style="font-family: 'Open Sans', verdana, arial, sans-serif; font-size: 14px; fill: rgb(42, 63, 95); opacity: 1; font-weight: normal; white-space: pre;">Time Steps (ns)</text></g><g class="g-ytitle" transform="translate(23.5,0)"><text class="ytitle" transform="rotate(-90,12.5,260)" x="12.5" y="260" text-anchor="middle" style="font-family: 'Times New Roman'; font-size: 40px; fill: rgb(13, 13, 13); opacity: 1; font-weight: normal; white-space: pre;">Turnaround (in $)</text></g></g></svg>