<svg class="main-svg" xmlns="http://www.w3.org/2000/svg" xmlns:xlink="http://www.w3.org/1999/xlink" width="700" height="500" style="" viewBox="0 0 700 500"><rect x="0" y="0" width="700" height="500" style="fill: rgb(255, 255, 255); fill-opacity: 1;"/><defs id="defs-2a919f"><g class="clips"><clipPath id="clip2a919fxyplot" class="plotclip"><rect width="511" height="320"/></clipPath><clipPath class="axesclip" id="clip2a919fx"><rect x="109" y="0" width="511" height="500"/></clipPath><clipPath class="axesclip" id="clip2a919fy"><rect x="0" y="100" width="700" height="320"/></clipPath><clipPath class="axesclip" id="clip2a919fxy"><rect x="109" y="100" width="511" height="320"/></clipPath></g><g class="gradients"/><g class="patterns"/></defs><g class="bglayer"><rect class="bg" x="109" y="100" width="511" height="320" style="fill: rgb(229, 236, 246); fill-opacity: 1; stroke-width: 0;"/></g><g class="layer-below"><g class="imagelayer"/><g class="shapelayer"/></g><g class="cartesianlayer"><g class="subplot xy"><g class="layer-subplot"><g class="shapelayer"/><g class="imagelayer"/></g><g class="minor-gridlayer"><g class="x"/><g class="y"/></g><g class="gridlayer"><g class="x"><path class="xgrid crisp" transform="translate(198.14,0)" d="M0,100v320" style="stroke: rgb(255, 255, 255); stroke-opacity: 1; stroke-width: 1px;"/><path class="xgrid crisp" transform="translate(299.55,0)" d="M0,100v320" style="stroke: rgb(255, 255, 255); stroke-opacity: 1; stroke-width: 1px;"/><path class="xgrid crisp" transform="translate(400.96,0)" d="M0,100v320" style="stroke: rgb(255, 255, 255); stroke-opacity: 1; stroke-width: 1px;"/><path class="xgrid crisp" transform="translate(502.38,0)" d="M0,100v320" style="stroke: rgb(255, 255, 255); stroke-opacity: 1; stroke-width: 1px;"/><path class="xgrid crisp" transform="translate(603.79,0)" d="M0,100v320" style="stroke: rgb(255, 255, 255); stroke-opacity: 1; stroke-width: 1px;"/></g><g class="y"><path class="ygrid crisp" transform="translate(0,355.48)" d="M109,0h511" style="stroke: rgb(255, 255, 255); stroke-opacity: 1; stroke-width: 1px;"/><path class="ygrid crisp" transform="translate(0,306.96000000000004)" d="M109,0h511" style="stroke: rgb(255, 255, 255); stroke-opacity: 1; stroke-width: 1px;"/><path class="ygrid crisp" transform="translate(0,258.44)" d="M109,0h511" style="stroke: rgb(255, 255, 255); stroke-opacity: 1; stroke-width: 1px;"/><path class="ygrid crisp" transform="translate(0,209.93)" d="M109,0h511" style="stroke: rgb(255, 255, 255); stroke-opacity: 1; stroke-width: 1px;"/><path class="ygrid crisp" transform="translate(0,161.41)" d="M109,0h511" style="stroke: rgb(255, 255, 255); stroke-opacity: 1; stroke-width: 1px;"/><path class="ygrid crisp" transform="translate(0,112.89)" d="M109,0h511" style="stroke: rgb(255, 255, 255); stroke-opacity: 1; stroke-width: 1px;"/></g></g><g class="zerolinelayer"><path class="yzl zl crisp" transform="translate(0,404)" d="M109,0h511" style="stroke: rgb(255, 255, 255); stroke-opacity: 1; stroke-width: 2px;"/></g><path class="xlines-below"/><path class="ylines-below"/><g class="overlines-below"/><g class="xaxislayer-below"/><g class="yaxislayer-below"/><g class="overaxes-below"/><g class="plot" transform="translate(109,100)" clip-path="url(#clip2a919fxyplot)"><g class="scatterlayer mlayer"><g class="trace scatter traceefffe1" style="stroke-miterlimit: 2; opacity: 1;"><g class="fills"/><g class="errorbars"/><g class="lines"><path class="js-line" d="M0,303.99L0.75,303.38L0.88,303.84L0.98,304L1.05,303.13L1.61,304L1.68,304L1.99,303.35L2.38,303.97L2.43,303.83L2.43,304L2.7,301.83L3.18,304L3.22,303.75L3.22,304L3.76,301.82L3.84,304L3.98,304L4.01,303.63L4.72,303.93L4.73,304L4.98,303.14L5.39,304L5.56,304L6.01,302.86L6.3,303.26L6.39,302.93L6.42,302.59L7.16,304L7.19,303.9L7.32,304L7.49,302.23L7.92,304L7.96,304L8.23,304L8.23,300.21L9.01,304L9.02,303.84L9.02,304L9.74,303.69L9.75,304L9.87,304L10.13,301.33L10.61,304L10.64,304L10.96,301.82L11.36,304L11.43,304L11.8,299.33L12.15,304L12.2,303.95L12.44,303.72L12.45,303.94L12.45,296.89L12.68,304L13.16,304L13.21,304L13.59,302.89L13.59,301.24L13.59,304L14.14,298.16L14.33,301.11L14.35,303.98L15.02,303.74L15.12,304L15.2,304L15.22,303.23L15.95,304L15.96,304L16.56,302.56L16.71,304L16.76,304L17.43,301.72L17.47,303.97L17.55,304L17.67,296.46L18.06,304L18.13,303.7L18.13,304L18.8,304L18.89,304L19.64,302.82L19.64,304L19.66,304L19.8,303.75L19.85,304L19.88,302.19L19.88,304L20.08,301.67L20.63,304L20.67,304L20.74,299.92L20.75,304L20.75,297.4L20.8,296.76L21.51,304L21.55,304L22.1,302.98L22.26,304L22.41,303.82L22.42,304L22.7,302.81L23.15,303.7L23.16,304L23.33,302.65L23.44,304L23.53,304L23.78,303.01L24.04,304L24.07,304L24.63,302.63L24.92,303.7L24.92,304L25.29,299.11L25.59,304L25.81,304L26.59,301.54L26.59,304L26.73,299.83L27.32,303.35L27.41,304L27.57,298.25L27.57,304L27.68,304L28.05,304L28.05,296.27L28.83,304L28.96,303.86L29.21,303.27L29.82,304L29.82,303.86L29.94,304L30.41,301.55L30.41,304L30.47,299.88L31.09,303.94L31.17,303.9L31.34,302.48L31.34,304L31.9,304L31.93,304L32.28,302.02L32.67,303.36L32.69,304L33.15,303.06L33.43,304L33.46,304L33.51,303.71L33.51,298.87L33.51,304L34.25,304L34.33,303.98L34.73,302.46L34.87,303.98L35.1,304L35.72,302.49L35.8,304L35.88,304L36.1,302.05L36.1,303.53L36.12,304L36.47,303.64L36.54,304L36.54,302.27L37.14,300.43L37.3,304L37.3,298.26L37.99,304L38.12,303.64L38.12,304L38.55,301.83L38.86,304L38.89,303.52L38.91,303.43L39.53,304L39.53,300.47L39.58,304L39.75,299.73L40.24,303.92L40.37,303.99L40.5,303.61L40.53,304L40.53,295.53L41.32,304L41.32,303.97L41.35,302.02L41.35,304L42.09,304L42.14,304L42.83,302.48L42.91,303.09L42.91,304L43.17,300.58L43.66,303.81L43.67,304L44.4,302.9L44.41,304L44.47,303.96L44.5,304L44.63,297.17L45.16,303.39L45.23,304L45.23,303.43L45.96,304L46.07,304L46.75,301.15L46.82,304L47.03,304L47.06,300.62L47.47,303.9L47.53,304L48.05,298.43L48.28,303.92L48.32,304L48.69,303.92L48.69,304L48.69,277.1L49.39,304L49.47,304L49.93,300.4L49.97,303.95L50.56,304L50.56,300.87L51.29,304L51.29,304L51.34,304L51.48,302.91L51.5,302.36L52.41,304L52.41,303.63L52.81,301.47L53.17,304L53.17,303.89L53.27,304L53.33,295.24L53.87,303.93L53.92,304L54.56,303.46L54.67,304L54.71,304L54.96,302.87L55.45,304L55.51,303.99L56.27,302.69L56.3,303.12L56.31,304L56.55,303.64L56.61,303.87L56.61,303.04L57.02,302.39L57.36,304L57.42,304L57.92,302.94L58.13,303.98L58.16,304L58.58,299.67L58.68,304L58.81,304L59.51,299.12L59.56,303.84L59.59,304L60.09,293.45L60.34,303.63L60.35,303.98L61.13,303.8L61.15,304L61.15,302.63L61.15,304L61.53,301.91L61.82,303.99L61.93,304L62.07,302.88L62.68,303.95L62.74,304L62.84,302.25L63.4,303.83L63.52,303.95L64.73,303.54L64.73,303.65L64.83,304L65.33,302.81L65.4,304L65.43,298.7L65.44,304L65.82,297.28L66.16,302.78L66.19,304L66.28,303.37L66.42,304L66.42,300.38L67.11,304L67.13,303.84L67.21,304L67.27,302.39L67.67,303.69L67.67,282.7L67.69,281.72L68.42,304L68.42,303.6L68.43,303.49L68.43,304L68.55,302.24L69.08,304L69.19,304L69.22,300.36L69.92,304L69.98,304L70.65,300.48L70.71,303.99L70.75,304L71.31,302.94L71.52,303.96L71.56,303.86L71.84,303.34L72.01,304L72.02,301.95L72.02,304L72.04,301.48L72.76,303.99L72.78,303.98L73.15,304L73.15,303.92L73.17,301.73L73.17,304L73.65,301.08L73.92,304L73.96,301.73L73.96,304L74.18,273.91L74.69,304L74.74,304L75.46,301.74L75.49,304L75.52,304L75.79,301.64L75.79,304L75.81,304L76.11,301.27L76.55,303.99L76.6,303.94L76.71,304L77.06,301.9L77.31,304L77.36,304L77.56,300.03L77.97,304L78,304L78.27,303.19L78.3,303.61L78.41,303.97L78.45,304L78.47,302.81L78.58,302.93L78.59,233.8L79.38,304L79.4,303.86L79.5,303.51L79.5,304L79.76,303.02L80.23,303.33L80.26,304L80.7,301.12L81,304L81.03,303.9L81.05,303.02L81.07,304L81.7,304L81.79,304L82.29,301.54L82.54,304L82.56,303.87L82.64,304L83.23,301.81L83.26,303.39L83.39,304L83.68,300.72L84.06,303.62L84.18,304L84.18,300.02L84.93,304L84.98,303.82L85.39,304L85.39,303.32L85.48,302.83L85.48,304L85.89,294.86L86.2,303.72L86.25,303.94L86.36,303.78L86.49,303.98L86.51,287.58L86.51,304L87.26,304L87.27,304L87.95,300.99L88,303.96L88.06,304L88.12,303.72L88.2,304L88.2,300.32L88.94,304L88.94,303.97L88.98,304L89.38,303.13L89.66,303.96L89.75,303.9L89.75,304L89.91,295.37L90.5,303.98L90.51,303.99L91.11,302.66L91.23,303.89L91.31,303.99L91.33,304L92.01,301.15L92.03,304L92.18,300.96L92.84,300.01L92.95,304L92.97,304L93.54,299.13L93.7,303.24L93.74,303.95L94.67,304L94.94,301.81L94.94,304L95.69,299.62L95.71,304L96.17,298.85L96.4,303.95L96.47,304L96.82,303.26L97.3,303.93L97.3,303.99L97.37,304L97.9,303.33L98.04,304L98.18,304L98.36,302.67L98.42,303.98L98.44,304L99.13,303.71L99.18,304L99.23,302.75L99.23,304L99.98,301.42L99.98,301.42L99.99,304L100.05,303.18L100.17,304L100.19,207.85L100.21,304L100.89,303.77L100.96,304L101.04,303.85L101.1,304L101.19,300.27L101.19,304L101.93,303.8L101.97,304L102.66,301.35L102.66,303.94L102.74,303.9L102.87,304L102.87,300.91L102.89,300.77L103.62,304L103.64,303.68L103.64,304L104.05,303.02L104.35,304L104.4,304L105.09,302.83L105.15,303.94L105.18,303.93L105.33,304L105.34,303.95L105.34,302.92L106.14,304L106.15,303.39L106.15,304L106.49,302.71L106.87,303.94L106.92,303.94L107.22,303.14L107.31,304L107.35,304L107.79,301.09L108.07,303.83L108.13,303.76L108.13,300.81L108.13,304L108.86,304L108.89,303.97L108.97,303.02L108.97,304L109.61,303.87L109.7,304L110.34,300.64L110.37,300.75L110.45,303.98L111.4,304L111.4,303.45L111.4,302.77L111.52,304L112.15,303.64L112.16,303.89L112.27,304L112.7,301.18L112.72,303.93L112.78,303.83L112.78,304L113.51,299.95L113.57,303.88L113.57,304L113.65,299.72L114.31,304L114.33,303.91L114.51,303.21L114.54,304L114.54,303.05L114.85,301.82L115.26,304L115.26,301.79L115.94,304L115.94,304L116.03,302.21L116.06,304L116.5,302.03L116.76,304L116.79,303.97L117.41,302.93L117.53,303.97L117.6,304L117.72,302.01L118.33,304L118.38,304L118.57,298.77L118.96,304L119.03,303.88L119.27,303.4L119.4,304L119.4,304L119.45,302.65L119.51,300.85L120.18,304L120.18,303.87L120.24,304L120.73,303.65L120.97,304L121.01,304L122.15,304L122.15,303.08L122.42,302.24L122.93,304L122.93,303.84L122.97,303.79L123.4,299.53L123.7,304L123.73,303.94L123.91,299.96L123.91,304L124.46,303.5L124.5,304L124.93,302.31L124.93,303.45L124.93,304L125.73,303.09L125.75,303.98L125.96,303.92L126.01,300.88L126.01,304L126.46,296.28L126.75,303.97L126.81,304L127.32,302.17L127.53,303.65L127.58,303.82L127.58,304L128.17,302.58L128.32,304L128.33,304L128.5,301.07L128.72,304L128.73,304L129.46,299.93L129.49,303.62L129.52,304L129.82,303.23L129.82,284.06L129.97,274.32L130.61,304L130.61,303.85L130.68,304L130.85,303.33L131.41,303.79L131.41,304L131.54,302.49L131.78,303.84L131.8,304L132.39,298.34L132.47,303.99L132.56,303.95L132.71,304L133.29,301.1L133.32,304L133.54,303.91L133.59,304L133.59,301.68L133.63,304L134.32,303.87L134.38,304L134.6,302.16L135.12,303.96L135.15,304L135.29,300.63L135.31,303.83L135.75,303.47L136.03,304L136.03,303.2L136.76,304L136.85,304L136.92,303.66L136.92,304L136.92,298.71L137.71,304L137.82,303.52L137.83,304L137.94,303.07L138.55,303.86L138.58,303.82L138.63,304L138.82,303.11L139.32,304L139.37,303.94L139.41,303.13L139.46,304L140.12,303.23L140.12,304L140.45,300.92L140.86,304L140.93,303.94L140.94,304L141.62,303.17L141.67,304L141.69,303.94L141.74,303.32L141.74,304L142.43,303.92L142.46,303.96L142.7,302.26L142.7,304L143.2,304L143.26,303.81L143.28,304L143.76,296.89L143.99,304L144.03,303.99L144.07,304L144.08,303.04L144.68,303.97L144.73,303.92L145.06,304L145.06,303.87L145.06,302.34L145.07,304L145.14,294.68L145.78,304L145.83,304L145.86,301.88L146.56,304L146.74,303.88L146.81,299.81L146.82,304L147.35,304L147.39,303.6L147.39,304L147.58,303.34L148.14,303.94L148.17,303.81L148.17,304L148.4,300.73L148.91,304L148.98,303.92L149.3,304L149.3,302.62L149.33,304L149.73,300.21L150,303.96L150.12,304L150.82,301.21L150.85,303.8L150.9,304L151.41,298.51L151.62,304L151.66,303.98L151.94,302.68L152,304L152.03,303.98L152.07,304L152.76,302.99L152.76,303.74L152.78,304L153.17,302.19L153.48,303.56L153.54,304L154.25,300.75L154.27,302.41L154.29,303.97L154.42,304L154.48,298.93L154.61,303.69L154.64,303.97L155.74,303.43L155.74,304L156.06,301.88L156.47,302.81L156.5,304L156.94,301.53L157.23,303.88L157.27,304L157.99,302.8L158.04,303.9L158.17,304L158.17,303.57L158.35,303.9L158.35,302.37L158.35,304L159.08,303.94L159.11,303.75L159.66,303.2L159.81,304L159.81,302.15L159.88,304L160.54,304L160.58,304L161.21,301.04L161.32,304L161.36,303.94L161.47,304L162.05,303.87L162.05,303.87L162.06,300.07L162.06,304L162.22,299.64L162.81,304L162.87,303.89L162.99,304L163.26,300.57L163.59,304L163.66,304L164.09,300.58L164.28,303.9L164.28,304L164.44,295.59L165.03,303.97L165.05,303.97L165.14,304L165.7,303.3L165.79,303.94L165.8,304L166.33,303.93L166.33,304L166.34,302.1L167.04,301.62L167.09,304L167.11,304L167.27,301.18L167.82,303.58L167.93,304L168.44,302.56L168.44,303.47L168.44,299.64L168.69,297.17L169.22,304L169.25,304L169.28,302.9L169.89,304L169.95,304L170.18,301.45L170.62,302.66L170.71,303.9L170.96,304L171.44,303.24L171.46,304L171.54,304L172.11,300.88L172.22,304L172.32,303.89L172.39,304L172.62,303.19L173.07,303.42L173.09,303.81L173.09,300.54L173.09,304L173.84,303.2L173.86,303.54L174.03,304L174.07,300.44L174.07,304L174.46,289.91L174.78,304L174.84,303.56L174.84,304L175.34,302.86L175.58,304L175.66,303.61L176.12,303.45L176.31,304L176.35,303.97L176.48,303.84L176.86,302.61L177.25,304L177.25,303.76L177.55,302.42L177.72,304L177.72,301.85L178.46,304L178.5,303.85L178.6,303L178.66,304L178.66,300.79L178.66,304L178.66,300.74L179.4,304L179.42,304L179.99,303.54L180.17,304L180.23,303.62L180.25,304L180.31,301.8L180.96,304L181,303.87L181.15,304L181.44,302.75L181.54,304L181.64,304L182.27,298.19L182.39,303.83L182.4,304L182.49,297.37L183.14,304L183.18,303.81L183.18,304L183.54,302.18L183.9,303.92L183.94,304L184.54,302.56L184.67,303.98L184.71,304L185.45,303.3L185.53,303.96L185.61,304L185.81,302.56L186.24,303.65L186.27,304L186.71,304L186.71,303.92L186.73,303.18L186.74,304L187.21,300.01L187.42,304L187.53,304L187.66,299.37L188.26,303.99L188.29,304L189.04,302.3L189.04,304L189.09,304L189.49,302.2L189.82,303.95L189.87,303.96L190.3,303.33L190.46,303.89L190.49,304L191,284.08L191.23,304L191.25,304L191.97,302.88L192,303.96L192.02,304L192.61,282.06L192.65,303.95L192.82,304L193.6,303.56L193.66,303.93L193.7,303.98L193.92,302.71L194.22,304L194.23,271.22L194.23,304L194.96,303.96L195,304L195.63,299.91L195.72,303.68L195.76,303.98L196.39,300.07L196.48,304L196.56,304L197.26,302.38L197.28,304L197.88,303.19L198.12,303.97L198.14,304L198.85,253.4L198.9,304L198.91,253.11L199.63,304L199.71,304L200.24,301.77L200.3,303.98L200.36,303.93L200.54,304L200.65,303.13L200.94,304L200.94,298L201.78,304L201.95,304L201.95,303.41L202.64,303.52L202.75,304L202.78,302.93L203.5,303.96L203.51,304L203.99,301.39L204.26,303.71L204.3,303.95L204.35,304L204.51,295.55L205.05,304L205.09,304L205.4,302.61L205.43,301.81L205.43,304L205.9,300.95L206.18,303.72L206.21,304L206.28,303.59L206.35,304L206.35,295.72L206.35,304L206.99,304L207.14,304L207.41,302.53L207.87,303.94L207.91,304L208.53,294.41L208.66,304L208.69,303.53L208.73,304L208.84,302.92L209.42,303.48L209.51,303.89L209.6,304L210.03,302.58L210.26,303.87L210.26,304L210.3,301.03L210.69,304L210.82,304L211.46,303.36L211.52,303.95L211.63,302.21L211.63,304L212.35,298.07L212.38,303.79L212.42,304L212.47,301.7L213.12,304L213.19,303.87L213.29,304L213.78,299.81L213.86,303.87L213.99,303.41L214.07,304L214.08,303.74L214.1,212.2L214.1,304L214.33,211.91L214.84,304L214.86,303.92L214.93,208.37L215,304L215.6,304L215.66,303.72L216.06,303.05L216.4,304L216.41,303.99L216.43,303.78L216.43,304L216.64,200.62L217.18,304L217.24,303.95L217.25,304L217.78,302.91L217.98,304L218,303.96L218.02,304L218.06,301.49L218.73,304L218.81,302.53L218.81,304L218.81,302.38L219.52,304L219.57,303.78L219.57,304L219.73,300.36L220.31,303.97L220.34,303.97L220.35,304L220.68,301.77L221.09,303.88L221.12,304L221.4,302.36L221.46,303.92L221.47,194.8L221.47,304L222.12,163.82L222.19,303.98L222.24,304L222.53,303.5L222.54,304L222.54,302.91L222.97,301.95L223.28,304L223.31,303.91L223.34,303.96L223.4,301.38L223.4,304L223.72,304L223.81,304L224.16,302.62L224.27,304L224.28,304L224.98,300.92L224.99,303.15L225.05,304L225.07,303.15L225.75,304L225.83,303.51L226.04,301.98L226.56,304L226.56,303.98L226.56,303.22L226.56,304L227.13,302.64L227.26,303.8L227.34,304L228.02,302.71L228.09,303.96L228.29,304L228.37,303.56L229.03,304L229.07,304L229.53,302.38L229.78,303.95L229.85,304L230.04,303.58L230.22,304L230.22,298.99L231.03,304L231.09,303.66L231.09,304L231.61,301.64L231.84,303.72L231.86,304L232.3,302.68L232.58,304L232.68,303.89L232.69,304L232.69,302.51L233.41,304L233.46,303.82L233.46,304L233.93,296.85L234.2,304L234.22,303.89L235.13,304L235.14,303.77L235.17,303.23L235.17,304L235.92,303.19L235.92,303.84L235.94,304L236.31,302.13L236.68,303.98L236.71,304L237.29,299.95L237.45,303.91L237.48,303.95L237.56,299.74L237.56,304L237.83,304L237.89,304L238.36,303.07L238.42,303.59L238.45,304L239.11,297.51L239.15,303.96L239.21,304L239.75,302.61L239.9,303.84L239.98,304L240.08,302.72L240.66,303.17L240.76,304L240.76,303.05L241.51,303.99L241.52,304L241.76,302.79L242.26,303.96L242.3,303.99L242.36,304L242.44,300.84L243.02,303.68L243.05,304L243.39,299.61L243.79,304L243.83,303.98L244.18,304L244.18,303.55L244.18,298.66L244.49,298.29L244.91,304L245.01,303.6L245.52,302.81L245.64,304L245.64,303.96L245.65,296.32L246.32,291.59L246.43,304L246.43,303.96L246.88,303.06L246.88,304L246.9,270.3L247.6,303.99L247.65,304L247.9,302.9L248.34,303.12L248.41,303.91L248.44,304L248.44,301.06L249.11,303.77L249.21,304L249.96,302.1L249.97,302.15L250.67,301.09L250.74,304L250.77,304L250.94,303.8L251.01,303.9L251.01,300.26L251.77,304L251.77,303.38L251.77,304L252.13,301.82L252.5,304L252.6,303.8L253.13,303.03L253.37,304L253.42,303.86L253.42,304L254.14,257.44L254.14,303.87L254.18,303.96L254.74,303.38L254.77,255.23L254.77,304L255.49,303.57L255.57,303.55L255.57,304L256.01,248.94L256.32,303.66L256.35,303.48L256.36,304L256.99,246.24L256.99,303.07L257.21,304L257.83,302.56L257.94,304L257.99,304L258.03,303.15L258.6,304L258.6,244.2L259.38,304L259.4,304L260,299.93L260.15,304L260.19,304L260.65,303.05L260.75,304L260.78,304L261.15,302L261.5,304L261.55,303.89L262.27,304L262.3,302.22L262.3,304L263.04,303.75L263.1,304L263.6,303.33L263.78,304L263.91,304L264.21,301.61L264.37,303.55L264.53,304L264.64,303.57L264.68,304L264.68,300.4L265.47,304L265.47,304L265.56,303.81L265.56,304L266.08,290.44L266.29,304L266.32,304L266.57,303.69L266.75,304L266.75,289.58L267.59,304L267.59,300.38L268.32,304L268.41,304L268.89,302.08L269.12,303.8L269.17,303.99L269.22,304L269.78,298.83L269.83,303.98L269.95,304L270.08,303.63L270.1,304L270.1,301.68L270.13,304L270.56,295.98L270.85,303.79L270.88,303.97L271.6,304L271.61,303.62L271.63,301.85L271.63,304L272.34,304L272.39,303.75L272.97,300.06L273.04,304L273.04,299.77L273.04,304L273.78,304L273.82,303.79L273.82,304L274.07,297.27L274.47,303.9L274.58,303.94L274.66,304L275.19,302.13L275.28,303.92L275.44,303.81L275.56,301.1L276,304L276,300.42L276.77,304L276.8,304L277.38,302.19L277.51,303.75L277.58,303.91L277.76,304L277.77,299.74L277.78,303.99L278.17,302.93L278.23,304L278.24,304L278.35,299.48L278.46,304L278.55,304L278.55,299.97L279.26,304L279.37,304L279.73,301L279.81,304L279.83,304L279.83,300.74L280.47,304L280.59,304L281.3,303.23L281.35,303.89L281.49,303.65L281.72,304L281.72,303.94L281.75,301.95L281.75,304L282.1,299.9L282.48,304L282.52,303.98L282.53,303.59L282.66,304L283.24,303.78L283.31,304L283.57,303.94L283.57,303.34L283.59,303.24L283.62,303.2L284.34,304L284.35,303.91L284.49,304L285.05,302.88L285.08,303.97L285.15,304L285.42,301.75L285.85,303.15L285.89,304L286.35,300.82L286.35,299.85L286.55,299.15L287.12,304L287.12,303.53L287.16,303.94L287.76,304L287.76,302.19L288.44,297.67L288.49,304L288.53,304L289.04,303.06L289.25,303.59L289.34,303.88L289.57,303.09L289.57,304L289.59,302.4L289.59,304L290.03,302.05L290.34,303.87L290.37,304L290.73,300.65L291.12,303.86L291.14,304L291.65,302.93L291.86,304L291.92,304L292.15,298.86L292.66,303.89L292.68,304L292.92,302.11L293.43,304L293.48,303.39L294.15,302.59L294.23,304L294.3,304L294.32,299.97L295.01,303.99L295.02,304L295.23,298.05L295.75,304L295.77,303.9L295.89,303.41L296.12,304L296.12,304L296.24,302.55L296.91,298.52L296.96,304L297.02,303.82L297.02,304L297.7,303.24L297.77,303.94L297.78,304L298.31,301.82L298.54,304L298.61,301.49L299.27,303.35L299.32,304L299.5,303.82L299.51,303.99L299.55,302.41L300.27,304L300.42,303.95L300.48,304L300.89,302.41L301.17,304L301.19,304L301.46,302.78L301.87,303.99L301.92,304L302.01,303.78L302.08,303.96L302.1,301.82L302.1,304L302.83,303.23L302.87,304L303.33,302.07L303.61,304L303.63,301.44L304.04,295.43L304.44,304L304.45,304L305.05,301.42L305.12,301.71L305.12,304L305.12,301.69L305.87,303.69L305.88,303.99L306.1,304L306.12,303.22L306.12,304L306.65,299.82L306.83,304L306.93,303.75L306.93,304L307.35,294.85L307.65,303.92L307.71,303.95L308.02,303.47L308.02,303.1L308.02,304L308.25,302.26L308.72,304L308.86,304L309,303.34L309.61,304L309.64,304L310.21,303.34L310.44,303.93L310.44,304L310.83,300.32L310.94,304L311.2,303.96L311.2,304L311.56,303.29L311.92,303.96L312.15,304L312.81,52.28L312.84,302.14L312.96,303.54L313.03,301.25L313.71,304L313.76,304L314.47,303.1L314.64,303.29L314.67,303.96L315.32,302.81L315.39,303.37L315.39,304L315.81,298.02L316.07,304L316.14,303.82L316.25,303.27L316.81,304L316.85,303.35L316.85,304L317.1,302.5L317.6,303.95L317.62,303.98L317.69,304L317.84,298.81L318.29,304L318.39,304L318.78,296.98L319.12,303.98L319.18,303.86L319.36,303.57L320.04,304L320.04,303.48L320.04,304L320.48,302.82L320.79,303.56L320.81,303.55L320.81,304L321.55,303.14L321.62,303.93L321.63,304L322.1,300.22L322.28,303.97L322.4,303.98L322.45,304L322.77,302.48L323.09,303.8L323.19,304L323.37,302.7L323.41,303.75L323.41,298.62L323.41,304L324.12,304L324.18,303.92L324.25,304L324.41,302.41L324.92,303.47L324.95,304L326.82,304L326.82,302.04L326.84,304L327.05,300.2L327.54,303.96L327.68,304L328.25,298.38L328.26,304L328.26,26.18L328.41,16L328.93,304L329,303.96L329.04,303.77L329.04,304L329.49,303.41L329.7,304L329.86,303.66L329.86,304L330.26,302.18L330.61,304L330.65,304L331.3,300.93L331.34,303.93L331.43,303.91L331.75,304L331.75,302.99L331.81,304L331.96,302.62L332.43,303.83L332.52,303.04L333.19,304L333.21,303.84L333.3,304L333.91,302.93L334.04,303.97L334.06,303.98L334.19,304L334.73,301.26L334.79,304L334.91,304L335.31,303.15L335.49,304L335.63,301.76L336.12,298.77L336.32,304L336.33,303.98L336.45,304L336.77,303.18L337.13,304L337.23,304L337.67,302.53L337.91,303.79L338.01,304L338.02,302.02L338.74,304L338.8,303.89L338.81,304L338.87,291.3L339.42,304L339.44,303.98L339.96,303.39L339.96,303.58L339.96,289.97L339.96,304L340.68,303.95L340.72,304L340.84,299.48L341.39,302.66L341.52,303.96L341.58,304L342.03,301.72L342.17,304L342.29,304L342.36,297.66L343.04,303.07L343.07,304L343.46,302.81L343.54,303.91L343.56,276.53L343.56,304L344.24,304L344.37,304L344.69,300.48L344.7,304L344.77,300.45L345.34,302.37L345.34,304L345.97,301.57L346.06,304L346.15,303.99L346.28,301.06L346.55,304L346.58,304L347.39,303.31L347.39,304L347.44,300.94L348.13,303.95L348.17,303.96L348.57,302.74L348.58,304L348.7,297.89L348.7,304L349.45,304L349.48,303.99L350.05,303.79L350.07,304L350.07,302.52L350.35,304L350.35,256.49L351.13,304L351.15,303.69L351.15,304L351.75,302.99L351.87,303.86L351.92,303.94L352.03,304L352.18,303.43L352.73,303.55L352.73,304L353.11,303.05L353.16,304L353.16,300.19L353.89,304L353.94,303.85L353.99,300L353.99,304L354.69,303.82L354.69,304L354.88,302.65L355.04,303.39L355.05,304L355.73,301.6L355.78,304L355.83,303.44L355.83,304L356.42,301.13L356.58,304L356.59,304L356.88,303.67L356.88,300.67L356.88,304L357.51,240.97L357.63,303.91L357.64,240.04L357.64,304L358.37,303.83L358.4,304L358.61,302.26L359.13,303.62L359.17,303.95L359.27,302.99L359.31,304L359.83,304L359.95,303.82L360.1,302.92L360.64,304L360.64,304L360.64,301.34L361.4,304L361.4,302.6L361.51,304L361.68,301.21L362.14,303.73L362.2,303.93L362.35,304L362.35,301.28L362.4,300.03L363.08,304L363.08,304L363.19,303.91L363.58,304L363.59,303.26L363.59,304L364.34,302.51L364.34,303.94L364.37,303.75L364.37,304L364.62,231.6L365.12,304L365.13,303.92L365.27,304L365.52,300.47L365.84,304L365.86,304L366.31,303.58L366.61,304L366.63,304L366.91,302.32L366.97,303.88L367.07,303.92L367.32,303.37L367.68,304L367.73,302.85L367.73,304L368.25,302.76L368.48,303.82L368.53,303.9L368.64,304L369.16,302.39L369.26,304L369.3,304L369.61,300.58L370.03,303.56L370.08,304L370.59,303.28L370.64,304L370.64,301.44L371.29,297.86L371.39,304L371.42,304L372.01,302.86L372.03,296.23L372.76,304L372.78,303.1L372.82,303.95L373,304L373.13,303.01L373.58,303.86L373.58,303.97L373.63,303.25L373.63,304L374.33,303.72L374.34,303.96L374.48,304L374.66,302.9L375.06,304L375.1,304L375.58,300.82L375.85,304L375.86,303.88L376,300.25L376.02,304L376.6,303.81L376.63,303.95L376.69,304L377.15,299.79L377.15,304L377.39,304L378.11,303.05L378.16,304L378.25,303.67L378.25,303.68L378.25,297.54L378.25,304L378.95,304L379.02,303.02L379.02,304L379.1,289.45L379.75,304L379.79,303.85L380.09,303.25L380.24,303.98L380.26,303.83L380.29,302.95L380.29,304L380.8,301.93L381.01,303.98L381.05,303.74L381.27,303.28L381.8,304L381.82,304L382.34,301.72L382.47,304L382.62,303.81L382.62,304L382.72,301.04L383.31,303.98L383.39,303.9L383.48,304L383.7,301.91L384.14,303.92L384.15,304L384.9,302.78L384.9,303.07L384.94,304L385.63,303.08L385.68,304L385.72,304L385.92,296.34L386.32,303.31L386.35,304L387.02,299.27L387.06,299.28L387.06,304L387.14,303.59L387.15,303.8L387.15,298.71L387.83,304L387.87,303.84L388.02,304L388.39,292.79L388.75,304L388.83,303.72L388.83,304L389.16,303.47L389.55,303.85L389.62,304L390.01,290.61L390.35,303.96L390.38,303.97L390.56,302.81L390.72,303.86L390.83,303.98L391.39,303.35L391.68,303.86L391.68,304L391.83,303.42L392.32,304L392.44,304L393.09,302.83L393.2,303.57L393.23,303.97L393.39,304L393.8,299.86L393.97,303.94L394.02,304L394.17,302.8L394.77,303.61L394.8,304L395.46,303.7L395.47,302.34L395.57,297.64L396.31,304L396.33,303.76L396.39,303.98L396.45,304L396.69,301.79L397.07,304L397.2,304L397.33,302.88L397.83,303.41L398,303.89L398.1,304L398.32,302.1L398.33,304L398.33,300.14L399.06,304L399.06,304L399.14,304L399.81,302.41L399.86,304L399.91,303.87L399.91,304L400.44,303.07L400.63,303.9L400.68,304L400.78,303.77L400.96,304L400.96,302.26L401.17,301.3L401.67,304L401.67,304L401.85,304L402.42,302.99L402.6,304L402.69,304L403.07,301.95L403.32,302.47L403.37,304L403.62,300.44L404.12,303.56L404.2,303.84L404.2,304L404.29,290.1L404.93,304L404.97,303.94L405.3,303.61L405.31,304L405.36,302.18L405.37,304L405.69,301.07L406.09,304L406.14,303.91L406.82,304L406.82,303.18L407.51,304L407.52,303.86L407.61,301.08L407.61,304L407.76,300.8L408.36,304L408.38,304L408.47,300.02L409.11,303.98L409.15,303.46L409.15,304L409.27,298.97L409.89,303.9L409.91,304L410.35,303.72L410.48,304L410.48,302.43L410.98,304L410.99,303.76L411.05,296.65L411.05,304L411.09,296.12L411.8,303.29L411.85,302.8L411.85,304L412.54,303.73L412.61,303.65L413.3,303.03L413.38,304L413.54,304L413.63,302.32L414.29,303.94L414.32,303.97L414.37,304L415.05,302.86L415.09,303.97L415.09,304L415.15,302.76L415.54,304L415.58,304L415.99,303.77L416,304L416.02,302.98L416.02,304L416.12,301.54L416.76,303.75L416.8,303.64L416.8,304L417.34,300.46L417.55,303.84L417.56,304L417.64,298.24L418.24,303.86L418.29,303.94L418.41,304L418.79,303.13L419.02,304L419.07,304L419.25,302.56L419.25,304L419.31,301.01L419.31,304L419.34,297.6L420.05,303.97L420.11,303.93L420.12,304L420.76,295.88L420.76,297.37L420.86,304L421,299.1L421.57,304L421.64,304L422.17,302.04L422.42,303.65L422.47,303.73L422.62,303.35L423.21,304L423.24,303.1L423.24,304L423.28,298.33L423.98,303.98L424,303.99L424.19,304L424.37,295.99L424.73,303.98L424.78,303.94L424.81,303.19L424.81,304L425.5,304L425.6,303.15L425.61,304L425.64,303.01L426.33,304L426.36,304L427.03,302.95L427.12,303.85L427.21,303.9L427.26,304L427.5,301.34L427.72,303.93L427.74,303.98L428.36,303.78L428.43,304L428.44,302.57L428.44,304L428.69,302.36L429.19,303.94L429.21,303.96L429.8,303.3L429.8,304L429.83,303.21L429.84,304L430.07,302.6L430.51,303.85L430.59,304L431.32,303L431.4,303.73L431.4,304L431.64,303.7L431.64,304L431.71,302.47L431.76,304L431.76,301.87L432.32,303.83L432.4,303.61L432.67,302.5L432.68,304L432.76,301.29L432.76,304L433.02,298.52L433.5,304L433.54,304L433.54,295.7L434.28,303.85L434.31,303.35L434.31,304L434.72,303.04L435.04,303.99L435.07,304L435.59,301.63L435.8,303.94L435.83,303.99L435.91,304L436.14,303.33L436.52,303.47L436.59,304L436.61,302.85L437.34,304L437.38,304L437.51,303.3L438.13,303.95L438.16,304L438.4,302.18L438.66,303.94L438.66,304L439.33,302.29L439.38,304L439.43,303.9L439.43,304L439.9,298.71L440.18,303.97L440.21,303.96L440.24,304L440.37,303L440.97,303.24L441,304L441.17,301.74L441.75,303.71L441.78,303.96L441.88,302.86L441.93,304L442.55,303.61L442.55,304L443.03,294.96L443.3,304L443.34,304L443.81,290.68L444.06,303.48L444.11,304L444.79,301.66L444.85,301.86L444.9,304L445.35,298.85L445.65,304L445.67,304L445.81,294.04L446.12,304L446.23,304L446.7,302.79L446.94,304L447.04,304L447.75,302.53L447.79,303.96L447.81,304L448.28,302.15L448.53,303.57L448.53,304L449.25,298.95L449.29,303.95L449.55,303.25L449.75,303.9L449.82,297.92L449.82,304L449.92,296.98L450.55,303.97L450.61,304L450.77,303L450.92,303.88L450.92,295.75L450.92,304L451.42,281.52L451.66,304L451.68,303.7L451.68,304L451.94,303.08L452.43,303.25L452.47,304L452.75,301.83L452.95,303.83L452.95,304L453.49,304L453.49,303.85L453.49,302.96L453.82,299.9L454.28,304L454.32,303.56L454.38,304L454.66,297.02L455.07,304L455.08,303.3L455.49,304L455.52,303.1L455.6,295.54L455.6,304L455.95,294.89L456.28,302.8L456.45,302.53L456.45,304L457.2,304L457.22,303.93L457.38,304L457.38,302.68L458.01,300.87L458.14,304L458.2,303.93L458.27,299.39L458.33,304L458.45,303.98L458.57,304L458.9,303.16L459.32,303.75L459.4,304L460.11,303.18L460.16,304L460.87,300.93L460.88,301.15L460.96,303.9L461.12,304L461.13,303.66L461.13,302.06L461.39,295.4L461.89,304L462,304L462.82,303.3L462.86,304L463.05,302.46L463.05,304L463.19,302.02L463.76,303.94L463.83,303.82L464.15,301.07L464.6,304L464.6,303.34L464.88,303.03L465.31,304L465.37,303.91L465.44,304L465.89,302.09L466.09,303.94L466.14,303.81L466.14,304L466.87,297.22L466.9,303.41L467.35,303.15L467.7,304L467.77,304L468.44,298.3L468.48,303.95L468.53,303.94L468.65,303.72L468.67,304L468.68,301.04L468.68,304L469.42,304L469.44,304L469.79,302.58L469.87,303.88L469.87,304L470.17,303.78L470.17,304L470.17,301.8L470.92,304L470.95,300.93L470.95,304L471.18,299.98L471.66,304L471.77,304L472.37,256.2L472.41,303.95L472.42,303.98L472.7,303.9L472.73,249.91L472.73,304L473.48,304L473.55,304L473.58,302.98L473.58,304L473.58,245.28L473.61,304L473.93,244.45L474.3,303.97L474.39,304L475.07,301.8L475.14,303.98L475.17,303.96L475.35,303.67L475.35,300.55L476.1,304L476.13,303.65L476.13,304L476.29,302.94L476.85,304L476.91,303.93L477,304L477.03,298.29L477.11,303.81L477.13,303.92L477.65,304L477.65,303.29L478.39,304L478.39,303.93L478.42,303.38L478.42,304L479.07,302.47L479.13,303.96L479.22,303.89L479.48,304L479.48,302.66L480.09,301.21L480.17,304L480.17,303.98L480.25,303.22L480.27,304L481,296.29L481,300.17L481.04,304L481.6,303.27L481.87,303.88L481.89,304L482.31,303.45L482.65,303.98L482.69,303.92L482.72,304L482.75,303.13L483.44,303.42L483.44,303.99L483.53,304L483.76,299.8L484.11,303.89L484.16,303.98L484.23,304L484.73,303.1L484.92,304L484.96,304L485.29,303.4L485.62,304L485.73,304L486.46,300.83L486.46,304L486.61,300.6L487.2,304L487.23,304L487.61,301.84L487.96,302.97L488.04,303.91L488.2,302.94L488.2,304L488.26,303.74L488.29,294.26L488.29,304L489.04,303.99L489.06,303.98L489.12,304L489.4,303.18L489.8,303.81L489.84,304L490.12,296.24L490.26,303.98L490.28,221.7L491.06,304L491.07,303.97L491.07,302.83L491.29,304L491.82,304L491.85,302.87L491.85,304L491.87,302.84L492.58,303.97L492.62,303.95L492.63,302.67L492.63,304L493.31,303.92L493.41,304L493.69,302.44L494.07,303.62L494.18,304L494.43,300.33L494.93,303.01L494.94,302.52L494.94,304L495.6,299.48L495.66,303.99L495.72,303.92L495.83,304L496.36,302.59L496.38,304L496.48,303.96L496.57,304L497.25,302.61L497.25,304L497.66,300.58L497.97,304L498.06,304L498.16,294.14L498.43,303.91L498.47,304L499.13,303.29L499.18,304L499.18,302.61L499.24,302.59L499.81,304L499.81,304L499.81,291.61L499.89,277.22L500.57,304L500.57,303.42L501.19,302.62L501.33,304L501.37,303.81L501.69,302.63L502.09,304L502.13,303.59L502.23,304L502.38,302.05L502.61,303.69L502.7,303.89L502.78,303.7L502.82,304L502.88,303.92L502.93,301.24L503.28,298.12L503.56,304L503.68,303.95L503.69,303.99L503.73,304L503.73,302.98L504.37,303.83L504.4,303.97L504.42,304L504.47,301.88L505.13,304L505.15,304L505.76,302.52L505.86,304L505.89,304L506.65,301.85L506.65,304L507.24,301.08L507.4,303.91L507.44,304L507.63,302.31L507.82,303.58L507.82,304L508.29,296.88L508.58,303.67L508.58,304L508.99,303.34L509.03,303.96L509.06,258.34L509.08,304L509.81,303.98L509.85,303.93L509.9,304L510.31,302.96L510.54,303.79L510.69,303.98L510.77,303.37L510.77,304L511,303.95" style="vector-effect: non-scaling-stroke; fill: none; stroke: rgb(99, 110, 250); stroke-opacity: 1; stroke-width: 2px; opacity: 1;"/></g><g class="points"/><g class="text"/></g></g></g><g class="overplot"/><path class="xlines-above crisp" d="M0,0" style="fill: none;"/><path class="ylines-above crisp" d="M0,0" style="fill: none;"/><g class="overlines-above"/><g class="xaxislayer-above"><g class="xtick"><text text-anchor="middle" x="0" y="436" transform="translate(198.14,0)" style="font-family: 'Times New Roman'; font-size: 15px; fill: rgb(13, 13, 13); fill-opacity: 1; white-space: pre; opacity: 1;">1.61252×10​<tspan style="font-size:70%" dy="-0.6em">18</tspan><tspan dy="0.42em">​</tspan></text></g><g class="xtick"><text text-anchor="middle" x="0" y="436" style="font-family: 'Times New Roman'; font-size: 15px; fill: rgb(13, 13, 13); fill-opacity: 1; white-space: pre; opacity: 1;" transform="translate(299.55,0)">1.612525×10​<tspan style="font-size:70%" dy="-0.6em">18</tspan><tspan dy="0.42em">​</tspan></text></g><g class="xtick"><text text-anchor="middle" x="0" y="436" style="font-family: 'Times New Roman'; font-size: 15px; fill: rgb(13, 13, 13); fill-opacity: 1; white-space: pre; opacity: 1;" transform="translate(400.96,0)">1.61253×10​<tspan style="font-size:70%" dy="-0.6em">18</tspan><tspan dy="0.42em">​</tspan></text></g><g class="xtick"><text text-anchor="middle" x="0" y="436" style="font-family: 'Times New Roman'; font-size: 15px; fill: rgb(13, 13, 13); fill-opacity: 1; white-space: pre; opacity: 1;" transform="translate(502.38,0)">1.612535×10​<tspan style="font-size:70%" dy="-0.6em">18</tspan><tspan dy="0.42em">​</tspan></text></g><g class="xtick"><text text-anchor="middle" x="0" y="436" style="font-family: 'Times New Roman'; font-size: 15px; fill: rgb(13, 13, 13); fill-opacity: 1; white-space: pre; opacity: 1;" transform="translate(603.79,0)">1.61254×10​<tspan style="font-size:70%" dy="-0.6em">18</tspan><tspan dy="0.42em">​</tspan></text></g></g><g class="yaxislayer-above"><g class="ytick"><text text-anchor="end" x="108" y="12.25" transform="translate(0,404)" style="font-family: 'Times New Roman'; font-size: 35px; fill: rgb(13, 13, 13); fill-opacity: 1; white-space: pre; opacity: 1;">0</text></g><g class="ytick"><text text-anchor="end" x="108" y="12.25" style="font-family: 'Times New Roman'; font-size: 35px; fill: rgb(13, 13, 13); fill-opacity: 1; white-space: pre; opacity: 1;" transform="translate(0,355.48)">2k</text></g><g class="ytick"><text text-anchor="end" x="108" y="12.25" style="font-family: 'Times New Roman'; font-size: 35px; fill: rgb(13, 13, 13); fill-opacity: 1; white-space: pre; opacity: 1;" transform="translate(0,306.96000000000004)">4k</text></g><g class="ytick"><text text-anchor="end" x="108" y="12.25" style="font-family: 'Times New Roman'; font-size: 35px; fill: rgb(13, 13, 13); fill-opacity: 1; white-space: pre; opacity: 1;" transform="translate(0,258.44)">6k</text></g><g class="ytick"><text text-anchor="end" x="108" y="12.25" style="font-family: 'Times New Roman'; font-size: 35px; fill: rgb(13, 13, 13); fill-opacity: 1; white-space: pre; opacity: 1;" transform="translate(0,209.93)">8k</text></g><g class="ytick"><text text-anchor="end" x="108" y="12.25" style="font-family: 'Times New Roman'; font-size: 35px; fill: rgb(13, 13, 13); fill-opacity: 1; white-space: pre; opacity: 1;" transform="translate(0,161.41)">10k</text></g><g class="ytick"><text text-anchor="end" x="108" y="12.25" style="font-family: 'Times New Roman'; font-size: 35px; fill: rgb(13, 13, 13); fill-opacity: 1; white-space: pre; opacity: 1;" transform="translate(0,112.89)">12k</text></g></g><g class="overaxes-above"/></g></g><g class="polarlayer"/><g class="smithlayer"/><g class="ternarylayer"/><g class="geolayer"/><g class="funnelarealayer"/><g class="pielayer"/><g class="iciclelayer"/><g class="treemaplayer"/><g class="sunburstlayer"/><g class="glimages"/><defs id="topdefs-2a919f"><g class="clips"/></defs><g class="layer-above"><g class="imagelayer"/><g class="shapelayer"/></g><g class="infolayer"><g class="g-gtitle"/><g class="g-xtitle"><text class="xtitle" x="364.5" y="463.8" text-anchor="middle" style="font-family: 'Open Sans', verdana, arial, sans-serif; font-size: 14px; fill: rgb(42, 63, 95); opacity: 1; font-weight: normal; white-space: pre;">Time Steps (ns)</text></g><g class="g-ytitle" transform="translate(23.5,0)"><text class="ytitle" transform="rotate(-90,12.5,260)" x="12.5" y="260" text-anchor="middle" style="font-family: 'Times New Roman'; font-size: 40px; fill: rgb(13, 13, 13); opacity: 1; font-weight: normal; white-space: pre;">Speed (in sec.)</text></g></g></svg>