<svg class="main-svg" xmlns="http://www.w3.org/2000/svg" xmlns:xlink="http://www.w3.org/1999/xlink" width="700" height="500" style="" viewBox="0 0 700 500"><rect x="0" y="0" width="700" height="500" style="fill: rgb(255, 255, 255); fill-opacity: 1;"/><defs id="defs-2ac16b"><g class="clips"><clipPath id="clip2ac16bxyplot" class="plotclip"><rect width="399" height="300"/></clipPath><clipPath class="axesclip" id="clip2ac16bx"><rect x="137" y="0" width="399" height="500"/></clipPath><clipPath class="axesclip" id="clip2ac16by"><rect x="0" y="100" width="700" height="300"/></clipPath><clipPath class="axesclip" id="clip2ac16bxy"><rect x="137" y="100" width="399" height="300"/></clipPath></g><g class="gradients"/><g class="patterns"/></defs><g class="bglayer"><rect class="bg" x="137" y="100" width="399" height="300" style="fill: rgb(229, 236, 246); fill-opacity: 1; stroke-width: 0;"/></g><g class="layer-below"><g class="imagelayer"/><g class="shapelayer"/></g><g class="cartesianlayer"><g class="subplot xy"><g class="layer-subplot"><g class="shapelayer"/><g class="imagelayer"/></g><g class="minor-gridlayer"><g class="x"/><g class="y"/></g><g class="gridlayer"><g class="x"><path class="xgrid crisp" transform="translate(206.03,0)" d="M0,100v300" style="stroke: rgb(255, 255, 255); stroke-opacity: 1; stroke-width: 1px;"/><path class="xgrid crisp" transform="translate(285.36,0)" d="M0,100v300" style="stroke: rgb(255, 255, 255); stroke-opacity: 1; stroke-width: 1px;"/><path class="xgrid crisp" transform="translate(364.68,0)" d="M0,100v300" style="stroke: rgb(255, 255, 255); stroke-opacity: 1; stroke-width: 1px;"/><path class="xgrid crisp" transform="translate(444,0)" d="M0,100v300" style="stroke: rgb(255, 255, 255); stroke-opacity: 1; stroke-width: 1px;"/><path class="xgrid crisp" transform="translate(523.3199999999999,0)" d="M0,100v300" style="stroke: rgb(255, 255, 255); stroke-opacity: 1; stroke-width: 1px;"/></g><g class="y"><path class="ygrid crisp" transform="translate(0,370.27)" d="M137,0h399" style="stroke: rgb(255, 255, 255); stroke-opacity: 1; stroke-width: 1px;"/><path class="ygrid crisp" transform="translate(0,332.73)" d="M137,0h399" style="stroke: rgb(255, 255, 255); stroke-opacity: 1; stroke-width: 1px;"/><path class="ygrid crisp" transform="translate(0,295.2)" d="M137,0h399" style="stroke: rgb(255, 255, 255); stroke-opacity: 1; stroke-width: 1px;"/><path class="ygrid crisp" transform="translate(0,220.14)" d="M137,0h399" style="stroke: rgb(255, 255, 255); stroke-opacity: 1; stroke-width: 1px;"/><path class="ygrid crisp" transform="translate(0,182.6)" d="M137,0h399" style="stroke: rgb(255, 255, 255); stroke-opacity: 1; stroke-width: 1px;"/><path class="ygrid crisp" transform="translate(0,145.07)" d="M137,0h399" style="stroke: rgb(255, 255, 255); stroke-opacity: 1; stroke-width: 1px;"/><path class="ygrid crisp" transform="translate(0,107.54)" d="M137,0h399" style="stroke: rgb(255, 255, 255); stroke-opacity: 1; stroke-width: 1px;"/></g></g><g class="zerolinelayer"><path class="yzl zl crisp" transform="translate(0,257.66999999999996)" d="M137,0h399" style="stroke: rgb(255, 255, 255); stroke-opacity: 1; stroke-width: 2px;"/></g><path class="xlines-below"/><path class="ylines-below"/><g class="overlines-below"/><g class="xaxislayer-below"/><g class="yaxislayer-below"/><g class="overaxes-below"/><g class="plot" transform="translate(137,100)" clip-path="url(#clip2ac16bxyplot)"><g class="scatterlayer mlayer"><g class="trace scatter tracece98d8" style="stroke-miterlimit: 2; opacity: 1;"><g class="fills"/><g class="errorbars"/><g class="lines"><path class="js-line" d="M0,165.17L0.14,146.41L0.54,157.67L0.57,165.17L1.34,150.16L1.34,150.16L1.39,157.67L1.48,168.93L1.55,86.36L2.09,161.42L2.13,153.92L2.22,206.45L2.25,86.36L2.45,240.23L3.04,153.92L3.09,161.42L3.2,138.9L3.33,153.92L3.34,183.94L4.23,150.16L4.23,150.16L4.31,157.67L4.69,176.43L4.93,146.41L5.04,165.17L5.09,168.93L5.33,183.94L5.49,138.9L5.8,161.42L5.86,153.92L6.2,217.71L6.24,97.62L6.56,146.41L6.75,150.16L7.13,165.17L7.29,142.66L7.53,161.42L7.55,153.92L7.67,165.17L8.18,146.41L8.2,142.66L8.76,180.19L8.79,138.9L8.88,150.16L8.97,157.67L9.05,138.9L9.34,172.68L9.7,157.67L9.72,146.41L10.07,138.9L10.37,180.19L10.47,150.16L10.47,142.66L10.89,131.4L11.2,168.93L11.21,146.41L11.33,161.42L11.37,172.68L11.81,146.41L11.99,165.17L12.01,153.91L12.44,172.68L12.56,142.66L12.76,161.42L12.8,161.42L12.94,165.17L13.5,123.89L13.6,142.66L13.61,142.66L13.67,172.68L13.83,105.14L14.35,138.91L14.54,153.92L14.56,138.91L14.69,176.43L15.29,161.42L15.32,153.92L15.73,183.94L15.84,142.65L15.87,153.91L15.89,270.27L16.38,142.65L16.68,161.42L16.72,153.91L16.85,180.19L16.96,138.9L17.43,161.42L17.48,157.67L17.48,165.18L17.64,146.41L18.19,161.42L18.26,157.67L18.39,168.93L18.57,146.41L18.94,157.67L19.02,161.42L19.08,165.18L19.21,153.91L19.66,161.42L19.73,153.91L20.13,165.18L20.21,146.41L20.21,146.41L20.25,142.65L20.87,138.9L20.96,176.44L20.97,138.9L21.04,161.42L21.44,142.65L21.49,172.68L21.67,165.18L21.67,142.65L21.86,135.14L22.15,172.68L22.41,161.42L22.44,153.91L22.47,172.68L22.51,146.41L23.14,161.42L23.18,161.42L23.19,187.7L23.22,146.41L23.9,161.42L23.94,161.42L24.59,191.46L24.62,135.14L24.68,146.41L24.71,168.93L25.45,176.44L25.46,138.9L25.48,176.44L25.52,180.19L25.63,131.39L26.05,161.42L26.07,161.42L26.07,146.41L26.1,172.68L26.82,150.16L26.83,168.93L27.53,142.65L27.55,176.44L27.56,150.16L27.6,153.91L27.6,138.9L27.9,172.68L28.34,150.16L28.36,153.91L28.63,183.95L28.68,131.39L29.03,153.91L29.13,150.16L29.74,131.39L29.84,176.44L29.88,131.39L30.1,183.95L30.57,127.64L30.58,157.67L30.6,127.64L30.69,180.19L31.37,146.41L31.47,146.41L31.78,138.9L32.15,172.68L32.23,165.18L32.27,150.16L32.84,172.69L32.84,142.65L32.95,165.18L32.98,142.65L33.2,176.44L33.28,131.39L33.75,153.91L33.81,161.42L34.13,131.39L34.32,172.69L34.51,153.91L34.59,161.42L34.83,135.14L35.08,153.91L35.11,161.42L35.35,176.44L35.87,135.14L35.88,180.19L35.88,183.95L36.15,138.9L36.63,138.9L36.64,138.9L36.84,180.19L36.97,112.62L37.41,161.42L37.43,172.68L37.45,176.44L37.62,138.9L38.14,153.91L38.19,153.91L38.78,191.46L38.78,123.88L38.9,187.7L38.95,142.65L39.59,172.69L39.73,161.42L39.83,138.9L39.94,176.44L40.42,161.42L40.48,153.91L40.83,180.19L40.85,135.14L41.18,146.4L41.18,138.89L41.18,225.25L41.18,90.08L41.91,135.14L41.95,135.14L42.31,180.2L42.68,176.44L42.73,153.91L42.74,146.4L42.76,176.44L43.47,146.4L43.49,153.91L43.99,176.44L44.08,131.39L44.22,153.91L44.27,161.42L44.42,180.2L44.93,138.89L44.97,150.16L45.05,153.91L45.08,183.95L45.15,142.65L45.79,150.16L45.81,153.91L45.96,131.38L46.07,180.2L46.52,172.68L46.61,176.44L47,135.14L47.24,180.2L47.25,187.71L47.31,138.89L47.98,142.65L48.01,165.18L48.42,202.72L48.46,112.61L48.76,165.18L48.78,165.18L48.78,116.36L49.35,180.19L49.53,165.18L49.56,165.18L49.63,168.93L50.09,150.16L50.28,153.91L50.3,161.42L50.67,123.88L50.81,187.7L50.92,153.91L50.93,183.95L51.64,195.21L51.67,120.12L51.67,120.12L51.69,161.42L51.72,127.63L52.24,183.95L52.43,153.91L52.5,157.67L52.83,131.39L52.96,172.69L53.16,168.93L53.16,176.44L53.87,138.89L53.91,138.89L53.92,138.89L54.22,187.71L54.31,123.88L54.66,150.16L54.69,150.16L54.81,131.39L55.07,180.19L55.45,172.69L55.46,138.9L55.64,176.44L56.13,135.14L56.15,138.9L56.21,138.9L56.29,180.19L56.95,161.42L56.99,135.14L57.26,183.95L57.73,142.65L57.77,142.65L58.49,176.44L58.49,176.44L58.52,150.16L59.07,180.19L59.09,138.9L59.25,161.42L59.26,138.9L59.55,135.14L59.91,198.96L59.98,180.19L60.03,172.68L60.73,112.62L60.75,198.95L60.78,135.15L60.78,195.2L60.92,127.64L61.6,161.42L61.62,153.91L62.04,131.4L62.05,183.94L62.37,153.91L62.39,195.2L62.72,135.15L63.15,157.67L63.2,157.67L63.67,195.2L63.89,138.9L63.95,146.41L63.96,168.93L63.99,183.94L64.19,138.9L64.71,157.67L64.74,161.42L64.87,142.65L65.49,180.19L65.53,150.16L65.98,172.68L66.1,138.9L66.33,161.42L66.34,153.91L66.49,135.14L66.88,183.95L67.1,161.42L67.11,153.91L67.36,142.65L67.37,172.69L67.85,153.91L67.92,157.67L68.3,172.68L68.34,138.9L68.66,150.16L68.68,165.18L68.83,183.95L69.22,135.14L69.39,172.68L69.44,157.67L69.51,187.7L69.58,168.93L69.61,146.41L69.63,180.19L69.72,138.9L70.36,146.41L70.42,157.67L70.57,138.9L70.73,172.68L71.02,150.16L71.02,180.19L71.04,131.39L71.17,183.94L71.75,157.67L71.78,161.42L71.92,142.65L72.1,187.7L72.53,153.91L72.54,157.67L72.6,153.91L73.07,172.68L73.22,161.42L73.3,153.91L73.36,165.18L73.98,142.65L74.04,161.42L74.16,161.42L74.17,150.16L74.2,165.17L74.9,157.67L74.92,157.67L75.14,142.66L75.14,180.19L75.46,161.42L75.47,131.4L75.66,191.45L76.27,183.94L76.28,161.42L76.28,183.94L77.03,142.66L77.03,172.68L77.04,157.67L77.42,135.15L77.51,168.93L77.69,165.17L77.79,161.42L78.16,138.9L78.22,180.19L78.52,150.16L78.53,168.93L78.74,138.9L78.77,176.43L79.26,172.68L79.29,157.67L79.84,116.39L79.86,210.2L80.03,176.43L80.05,150.16L80.08,198.95L80.8,135.15L80.81,168.92L81.4,142.66L81.56,161.42L81.58,146.41L81.74,127.65L81.79,187.68L82.29,157.67L82.32,153.92L82.36,138.91L82.5,176.43L83.07,168.92L83.08,146.41L83.42,176.43L83.84,161.42L83.88,153.92L83.97,187.68L84.24,131.41L84.61,157.67L84.64,150.17L85.2,180.18L85.21,135.16L85.4,165.17L85.45,157.67L85.63,142.66L85.63,176.43L85.93,161.42L86.11,161.42L86.27,135.16L86.44,195.18L86.86,157.67L86.89,161.42L87.34,172.67L87.41,138.91L87.42,176.43L87.75,138.91L87.87,183.93L88.15,153.92L88.2,161.42L88.31,176.42L88.31,150.17L88.31,138.91L88.37,131.41L88.38,183.93L89.04,161.42L89.08,161.42L89.6,172.67L89.79,131.41L89.79,138.91L89.79,195.18L90.44,127.66L90.49,195.18L90.55,195.18L90.92,131.41L91.34,153.92L91.35,161.42L91.93,142.66L92.01,176.42L92.09,153.92L92.13,165.17L92.25,172.67L92.43,138.91L92.56,153.92L92.6,168.92L92.7,172.67L92.96,142.66L93.31,146.41L93.36,183.93L93.36,142.66L94.09,161.42L94.15,161.42L94.28,168.92L94.77,150.17L94.83,161.42L94.83,168.92L94.83,172.67L95.06,138.91L95.58,161.42L95.65,165.17L95.82,120.16L95.83,195.18L96.4,150.17L96.43,138.92L96.46,191.42L97.18,161.42L97.2,161.42L97.33,138.91L97.67,176.42L97.97,157.67L97.97,161.42L98.35,138.91L98.55,187.68L98.72,161.42L98.77,153.92L99.1,183.93L99.15,138.91L99.52,142.66L99.53,161.42L99.82,146.41L99.84,172.67L100.22,153.92L100.29,161.42L100.5,146.41L100.59,176.43L100.61,135.16L100.79,183.93L101.35,161.42L101.4,161.42L101.53,138.91L101.64,168.92L102.15,161.42L102.15,176.42L102.55,180.17L102.87,135.16L102.99,150.17L103.11,146.41L103.24,138.91L103.27,176.42L103.88,172.67L103.91,157.67L104.03,150.17L104.12,180.18L104.29,153.92L104.29,180.18L104.56,127.66L104.57,195.18L105.05,153.92L105.08,153.92L105.13,146.41L105.13,168.92L105.79,153.92L105.82,161.42L106.13,172.67L106.15,138.91L106.47,150.17L106.58,161.42L107.2,202.67L107.23,135.16L107.31,153.92L107.34,153.92L107.57,135.16L107.71,187.67L108.1,161.42L108.11,142.67L108.27,135.17L108.57,180.17L108.83,161.42L108.85,146.42L108.91,127.67L108.98,187.67L109.48,153.92L109.54,157.67L109.66,142.67L110.2,180.17L110.21,183.92L110.44,131.42L110.96,161.42L111,161.42L111.19,135.17L111.26,180.17L111.75,153.92L111.76,161.42L112.27,135.16L112.29,176.42L112.47,153.92L112.52,176.42L113.1,183.92L113.15,131.41L113.32,153.92L113.33,161.42L113.87,131.41L113.92,191.42L113.94,191.42L114.09,172.67L114.3,131.41L114.31,183.92L114.81,161.42L114.86,153.92L115.06,187.67L115.22,138.91L115.58,161.42L115.59,150.17L115.93,180.17L115.94,135.16L116.24,172.67L116.3,153.92L116.35,142.67L116.47,176.42L117.05,146.42L117.06,157.67L117.74,180.17L117.81,135.17L117.81,135.17L117.84,161.42L118.25,176.42L118.34,135.16L118.36,180.17L118.37,135.16L119.1,157.67L119.12,165.17L119.88,146.42L119.88,146.42L119.9,165.17L119.91,138.92L120.04,187.67L120.63,168.92L120.67,146.42L121.23,180.17L121.38,142.66L121.39,161.42L121.45,138.91L121.46,187.67L121.55,123.91L122.2,165.17L122.23,150.17L122.66,112.67L122.69,183.92L122.92,157.67L123,161.42L123.02,120.17L123.07,217.66L123.74,168.92L123.76,161.42L123.93,161.42L123.98,150.17L124.65,198.92L124.65,123.92L124.72,161.42L124.75,161.42L124.92,198.91L125.24,123.92L125.49,157.67L125.52,165.17L125.58,180.17L126.08,135.17L126.25,172.66L126.27,172.66L126.7,180.17L126.79,127.67L127.02,153.92L127.04,135.17L127.63,120.17L127.69,195.17L127.74,127.67L127.8,161.42L127.96,168.92L128.1,142.67L128.19,161.42L128.2,127.67L128.25,180.17L128.95,157.67L128.99,157.67L129.06,176.42L129.41,135.17L129.74,168.92L129.79,168.92L130.5,123.92L130.52,191.42L130.54,135.17L130.55,180.17L131.19,138.92L131.26,195.16L131.3,161.42L131.32,161.42L131.37,202.66L131.86,135.17L132.06,157.67L132.09,157.67L132.19,165.17L132.62,138.92L132.66,142.67L132.7,176.42L132.73,138.92L132.91,180.17L133.42,157.67L133.48,161.42L134,180.17L134.15,131.42L134.19,161.42L134.2,180.17L134.88,138.92L134.88,138.92L135.03,153.92L135.09,138.92L135.09,180.17L135.78,168.92L135.81,157.67L136.06,172.67L136.3,142.67L136.39,146.42L136.4,168.92L136.6,172.67L136.99,138.92L137.16,153.92L137.16,176.41L137.22,180.16L137.71,135.17L137.92,165.17L137.94,150.17L138.17,142.67L138.32,176.41L138.69,165.17L138.74,161.42L139.01,172.66L139.26,123.93L139.47,157.67L139.47,168.92L140.06,138.92L140.09,176.41L140.18,157.67L140.23,165.17L140.4,127.68L140.5,187.66L140.88,138.93L140.92,176.41L141,172.66L141,135.18L141.19,131.43L141.56,195.16L141.75,161.42L141.78,153.92L141.79,142.67L142.07,176.41L142.52,161.42L142.54,153.92L142.7,180.16L142.91,138.92L143.28,161.42L143.32,161.42L143.78,176.41L143.96,138.92L144.01,153.92L144.06,165.17L144.09,168.91L144.8,150.17L144.82,153.92L144.83,161.42L144.98,168.91L145.45,142.67L145.56,161.42L145.59,161.42L145.68,146.42L145.71,153.92L145.73,176.41L146.28,127.67L146.43,131.42L146.5,142.67L146.59,131.42L147.17,176.41L147.21,172.66L147.25,146.42L147.5,123.92L147.51,195.16L147.99,146.42L148.03,146.42L148.31,138.92L148.67,180.17L148.79,165.17L148.82,161.42L149.46,172.67L149.47,138.92L149.49,157.67L149.5,176.42L150,142.67L150.28,161.42L150.32,172.67L150.44,142.67L151.07,150.17L151.1,150.17L151.22,183.92L151.23,131.42L151.85,161.42L151.86,161.42L152.05,176.42L152.13,138.92L152.58,153.92L152.64,168.92L152.89,172.67L152.92,146.42L152.92,138.92L153.67,172.67L153.71,150.17L154.33,135.17L154.47,180.17L154.53,135.17L155.25,195.17L155.4,172.67L155.81,183.92L156.16,138.92L156.17,161.42L156.47,135.17L156.48,183.92L156.86,150.17L156.86,120.17L156.86,116.42L157.11,176.42L157.52,161.42L157.64,157.67L157.92,165.17L157.98,150.17L158.4,153.92L158.42,157.67L158.53,138.92L159.15,180.17L159.26,165.17L159.55,138.92L160.01,187.67L160.05,161.42L160.54,176.42L160.55,127.67L160.57,153.92L160.57,206.42L160.6,123.91L161.33,157.67L161.37,157.67L161.95,131.41L162,191.42L162.08,153.92L162.14,161.42L162.15,187.67L162.46,135.17L162.85,176.42L162.94,165.17L163.27,180.17L163.3,135.17L163.67,153.92L163.76,153.92L163.85,135.16L163.87,180.17L164.51,161.42L164.52,161.42L165.06,172.67L165.07,138.91L165.24,150.17L165.29,157.67L165.34,150.17L165.37,165.17L166.01,153.92L166.06,157.67L166.59,142.66L166.76,161.42L166.77,157.67L166.77,142.66L166.88,172.67L167.41,161.42L167.42,153.92L167.62,172.67L167.76,138.91L168.11,153.92L168.13,146.41L168.17,135.16L168.63,168.92L168.88,161.42L168.9,153.92L168.93,142.66L169.43,176.42L169.65,153.92L169.68,161.42L169.84,176.42L169.86,135.16L170.38,157.67L170.38,172.67L170.39,183.93L170.46,123.91L171.11,138.91L171.14,172.67L171.18,138.91L171.47,187.68L171.87,153.92L171.91,161.42L171.92,168.92L172.6,131.4L172.65,153.92L172.67,168.92L173.02,142.66L173.08,198.94L173.41,146.41L173.47,161.42L174.05,191.43L174.2,123.91L174.24,131.41L174.28,150.17L174.28,135.16L174.73,180.18L175.03,161.42L175.07,157.67L175.2,150.16L175.23,165.17L175.23,153.92L175.26,180.18L175.36,131.4L176.01,168.92L176.03,157.67L176.08,187.68L176.11,123.9L176.77,153.92L176.82,161.42L176.94,127.65L176.97,168.92L177.57,146.41L177.59,153.92L177.6,187.68L177.97,138.91L178.31,146.41L178.32,146.41L178.45,165.17L178.9,127.65L179.04,142.66L179.09,172.68L179.17,176.43L179.24,138.91L179.81,153.92L179.88,161.42L179.93,176.43L180.01,138.91L180.65,146.41L180.67,165.17L181.01,195.19L181.34,135.15L181.35,146.41L181.47,153.92L181.64,176.43L181.92,123.9L182.18,161.42L182.22,157.67L182.44,123.9L182.47,202.69L182.95,157.67L183.01,142.66L183.26,168.92L183.28,131.41L183.7,146.41L183.81,150.17L184.2,146.41L184.42,176.43L184.54,157.67L184.56,150.16L184.73,116.4L184.74,198.94L185.32,161.42L185.33,153.92L185.48,146.41L185.99,176.43L186.01,138.91L186.16,123.9L186.24,191.44L186.75,153.92L186.8,161.42L186.84,142.66L187.42,176.43L187.54,150.16L187.63,150.16L187.87,168.93L187.92,146.41L188.36,168.93L188.39,146.41L188.54,180.18L188.96,131.4L189.14,168.93L189.15,146.41L189.29,183.93L189.36,131.4L189.46,168.93L189.58,131.4L190.3,165.17L190.31,153.92L190.41,153.92L190.54,142.66L190.57,172.68L191.18,161.42L191.23,153.92L191.65,146.41L191.72,165.17L191.91,153.92L191.94,153.92L192,176.43L192.57,116.4L192.57,116.4L192.62,123.91L193.14,172.67L193.34,168.92L193.34,138.91L193.54,198.93L193.55,120.15L194.06,161.42L194.12,146.41L194.8,176.43L194.83,120.15L194.85,168.92L194.91,120.15L195.14,180.18L195.68,161.42L195.71,142.66L196.46,176.43L196.5,172.67L196.52,146.41L197.2,135.16L197.21,180.18L197.25,180.18L197.3,180.18L197.37,135.16L197.99,183.93L197.99,176.42L198.03,172.67L198.03,183.93L198.04,120.16L198.77,168.92L198.79,168.92L198.84,176.42L199.56,142.67L199.56,180.17L200,138.92L200.32,157.67L200.32,165.17L200.32,180.17L200.72,142.67L201.06,176.42L201.11,165.17L201.15,142.67L201.58,172.67L201.76,168.92L201.87,150.17L201.99,135.17L202.47,176.42L202.61,161.42L202.65,161.42L203.06,176.42L203.2,138.91L203.34,153.92L203.39,176.42L203.52,180.17L203.54,135.16L204.14,165.17L204.17,165.17L204.22,187.67L204.45,142.67L204.81,161.42L204.82,153.92L204.85,138.92L205.12,172.67L205.56,153.92L205.57,153.92L206.07,146.42L206.21,168.92L206.3,146.42L206.34,146.42L206.59,131.41L206.62,176.42L207.03,168.92L207.1,161.42L207.14,146.42L207.44,191.43L207.82,168.92L207.84,146.41L208.42,176.42L208.47,138.91L208.65,161.42L208.66,153.92L208.66,180.17L209.38,138.91L209.43,165.17L209.57,142.66L209.63,180.17L210.16,168.92L210.18,168.92L210.57,180.17L210.67,142.67L210.83,157.67L210.86,168.92L211,172.67L211.28,146.42L211.62,153.92L211.63,157.67L211.68,135.16L211.78,183.92L212.37,150.17L212.42,157.67L212.8,142.67L212.81,172.67L213.16,153.92L213.18,161.42L213.32,172.67L213.84,142.66L213.96,146.41L213.99,146.41L214.14,142.66L214.75,172.67L214.79,138.91L215.02,131.41L215.19,180.17L215.54,168.92L215.6,161.42L215.65,150.17L216.01,180.17L216.02,135.16L216.71,183.93L216.82,157.67L217.01,127.66L217.26,180.18L217.55,165.17L217.61,150.17L218.09,127.66L218.11,195.18L218.33,180.17L218.34,142.66L218.43,138.91L218.43,180.17L218.81,142.66L218.83,172.67L219.37,138.91L219.56,146.41L219.62,153.92L220.06,138.91L220.13,191.43L220.18,153.92L220.25,116.41L220.49,195.18L221.01,142.66L221.09,168.92L221.13,176.43L221.47,142.66L221.83,153.92L221.86,161.42L222.19,180.18L222.45,142.66L222.6,146.41L222.63,172.68L222.74,176.43L223.2,131.41L223.37,135.16L223.38,180.18L223.76,131.41L223.85,187.68L224.08,172.67L224.14,165.17L224.79,187.68L224.86,123.9L224.87,183.93L224.92,146.41L225.2,138.91L225.39,172.68L225.65,161.42L225.73,161.42L225.84,180.18L226.16,135.15L226.48,157.67L226.48,165.17L226.53,135.16L226.69,168.92L227.18,150.16L227.23,150.16L227.6,135.16L227.72,180.18L227.99,165.17L227.99,135.16L228.29,183.93L228.76,150.16L228.78,146.41L229.42,187.68L229.44,120.15L229.5,120.15L229.52,116.4L230.06,183.93L230.22,168.92L230.23,142.66L230.43,120.15L230.77,187.68L230.92,150.16L231.02,157.67L231.16,116.4L231.65,176.43L231.7,172.67L231.7,142.66L232.07,172.67L232.45,153.92L232.47,161.42L232.55,183.93L232.64,127.65L233.23,153.92L233.24,150.16L233.38,176.43L233.39,146.41L233.55,153.92L233.57,146.41L233.8,183.93L233.99,120.15L234.29,165.17L234.33,150.16L234.77,138.91L234.97,176.43L235.04,135.16L235.13,120.15L235.29,183.93L235.53,165.17L235.54,150.16L235.68,138.91L236.06,180.18L236.26,138.91L236.32,138.91L236.72,180.18L236.8,120.15L237.05,161.42L237.05,120.15L237.53,202.69L237.56,112.65L237.82,161.42L237.83,123.9L237.83,120.15L237.86,195.19L238.56,150.16L238.62,153.92L239.02,138.91L239.21,172.68L239.31,161.42L239.38,153.92L239.44,180.18L239.7,146.41L239.83,153.92L239.85,153.92L240,187.69L240.44,131.4L240.62,172.68L240.65,153.92L240.94,172.68L241.16,138.91L241.4,161.42L241.42,153.92L241.96,142.66L242.12,168.92L242.12,168.92L242.17,146.41L242.29,191.44L242.37,112.64L242.79,138.91L242.79,123.9L242.88,183.94L243.29,153.92L243.46,161.42L244,187.69L244,131.4L244.12,168.93L244.14,176.43L244.14,131.4L244.83,157.67L244.92,157.67L245.13,146.41L245.33,168.93L245.64,153.92L245.71,161.42L246.19,176.43L246.22,131.4L246.44,161.42L246.47,161.42L246.63,123.9L246.68,172.68L247.23,138.91L247.24,165.17L247.52,180.18L247.98,123.89L248,195.2L248.02,123.89L248.54,210.2L248.74,146.41L248.77,153.92L248.81,120.14L249.1,176.43L249.51,153.92L249.54,153.92L249.57,138.9L250.06,187.69L250.26,146.41L250.31,172.68L250.64,176.43L250.97,138.9L251.09,153.92L251.15,157.67L251.28,142.66L251.32,172.68L251.65,157.67L251.7,161.42L252.1,180.18L252.33,146.41L252.47,153.92L252.47,161.42L253.06,180.18L253.07,138.9L253.17,153.92L253.24,157.67L253.45,138.9L253.49,176.43L253.99,153.92L254.07,153.92L254.63,176.43L254.68,138.9L254.79,157.67L254.79,142.66L254.96,135.15L255.18,172.68L255.5,153.92L255.61,161.42L256.07,191.45L256.34,93.85L256.34,93.85L256.35,221.48L256.47,127.64L257.15,161.42L257.18,153.91L257.59,135.15L257.83,176.43L257.9,165.17L257.94,165.17L258.41,180.19L258.45,127.64L258.68,172.68L258.77,150.16L258.8,127.64L258.8,183.94L259.52,153.91L259.54,161.42L259.62,183.94L259.93,138.9L260.26,153.91L260.3,161.42L260.38,172.68L260.82,135.15L261.02,150.16L261.06,161.42L261.08,176.44L261.09,138.9L261.72,161.42L261.83,157.67L261.9,135.15L262.13,176.43L262.52,153.91L262.58,153.91L262.75,135.15L262.91,172.68L263.3,153.91L263.34,146.41L263.55,138.9L263.76,176.43L264.09,150.16L264.13,153.91L264.46,172.68L264.81,142.66L264.89,150.16L264.89,172.68L265.42,187.69L265.63,131.39L265.68,183.94L265.71,123.89L266.44,153.91L266.46,131.39L266.86,180.19L267.1,150.16L267.11,142.66L267.62,187.69L267.63,131.4L267.84,161.42L267.87,157.67L268.04,135.15L268.34,176.43L268.57,161.42L268.66,161.42L268.96,176.43L268.98,131.4L269.37,153.92L269.42,161.42L269.91,187.69L269.99,127.65L270.16,161.42L270.16,176.43L270.22,183.94L270.34,138.9L270.89,165.17L271.03,161.42L271.5,187.69L271.51,123.89L271.75,153.92L271.79,161.42L272.19,187.69L272.53,123.9L272.64,165.17L272.96,135.15L273,183.93L273.38,157.67L273.4,168.92L273.6,195.19L273.6,127.65L274.14,165.17L274.16,168.92L274.18,127.65L274.22,183.93L274.83,165.17L274.94,150.16L275.24,168.92L275.26,142.66L275.65,150.16L275.71,161.42L276.19,172.68L276.2,142.66L276.43,153.92L276.55,153.92L276.68,135.16L277.05,180.18L277.05,172.68L277.12,138.91L277.41,172.68L277.88,157.67L277.92,142.66L278.07,138.91L278.65,187.68L278.66,183.93L278.68,157.67L278.81,150.16L279.23,161.42L279.23,161.42L279.25,142.66L279.9,138.91L280.01,180.18L280.02,138.91L280.02,131.41L280.04,183.93L280.76,172.67L280.85,161.42L281.39,172.67L281.45,146.41L281.57,161.42L281.63,161.42L282.16,138.91L282.18,195.18L282.34,168.92L282.39,176.43L282.47,183.93L282.5,131.41L283.13,150.16L283.14,180.18L283.3,138.91L283.92,161.42L283.94,168.92L284.24,180.18L284.68,146.41L284.69,168.92L284.72,165.17L284.84,146.41L285.02,168.92L285.46,150.17L285.48,172.67L285.55,146.42L286.21,168.92L286.26,153.92L286.59,146.41L286.62,172.67L287.03,161.42L287.05,153.92L287.16,172.67L287.34,138.91L287.79,161.42L287.83,161.42L288.05,176.42L288.25,135.16L288.39,142.66L288.4,172.67L288.43,183.92L288.65,150.17L289.16,157.67L289.16,165.17L289.68,176.42L289.86,131.41L289.91,161.42L289.95,161.42L290.28,217.68L290.32,142.67L290.68,168.92L290.72,161.42L290.89,213.93L291.3,135.17L291.42,157.67L291.49,161.42L291.55,120.17L291.66,176.42L292.16,165.17L292.19,165.17L292.46,142.67L292.79,183.92L292.96,157.67L292.97,161.42L293.03,165.17L293.08,142.67L293.7,153.92L293.72,157.67L294.11,142.67L294.17,172.67L294.31,146.42L294.49,150.17L295.16,135.17L295.17,180.17L295.24,172.67L295.26,161.42L295.5,180.17L295.56,138.92L295.61,187.67L295.63,135.17L296.34,153.92L296.37,157.67L296.71,138.91L296.73,180.17L296.88,168.92L296.89,146.42L297.66,176.42L297.71,161.42L297.77,180.17L298.4,138.91L298.46,168.92L298.61,183.92L298.66,127.66L299.26,150.17L299.26,157.67L299.48,135.16L299.54,180.17L299.98,150.17L300.03,161.42L300.53,183.92L300.63,135.16L300.66,138.91L300.69,183.93L301.34,146.41L301.48,150.17L301.5,168.92L301.64,135.16L301.84,180.17L302.22,165.17L302.23,153.92L302.54,172.67L302.91,157.67L302.94,157.67L303.06,146.42L303.1,172.67L303.69,161.42L303.7,153.92L304.2,142.67L304.21,172.67L304.44,153.92L304.49,153.92L304.53,108.92L304.55,217.66L305.02,165.16L305.08,153.92L305.28,138.93L305.38,198.9L305.8,146.42L305.84,180.16L306.58,138.93L306.61,172.66L306.85,142.67L307.21,157.67L307.29,161.42L307.33,221.4L307.55,131.42L307.98,172.66L308.02,168.91L308.61,131.43L308.68,183.91L308.76,161.42L308.79,165.17L309.06,183.91L309.15,131.42L309.57,135.17L309.58,165.17L309.78,191.41L309.79,131.43L310.3,161.42L310.3,131.42L310.72,187.66L311.06,165.17L311.08,161.42L311.62,135.17L311.63,191.41L311.82,165.17L311.84,165.17L311.97,142.67L312.03,180.16L312.58,168.91L312.62,161.42L312.71,172.66L313.27,138.92L313.37,172.66L313.39,161.42L313.46,135.18L313.49,180.16L314.14,157.67L314.16,161.42L314.54,168.91L314.55,150.17L314.88,161.42L314.92,153.92L315.15,138.92L315.56,172.66L315.63,161.42L315.64,142.67L316.29,191.4L316.32,131.43L316.42,165.17L316.44,150.17L316.46,138.92L316.94,180.16L317.18,153.92L317.22,161.42L317.39,161.42L317.41,153.92L317.88,146.42L318.13,161.42L318.13,161.42L318.16,146.42L318.81,168.91L318.9,157.67L318.93,157.67L318.96,176.41L319.03,146.42L319.52,165.16L319.52,142.68L319.57,142.67L319.84,180.16L320.27,168.91L320.29,146.42L320.42,142.68L320.87,176.41L321.02,157.67L321.05,157.67L321.45,138.93L321.6,176.41L321.74,161.42L321.75,120.19L321.81,105.2L321.92,146.43L321.92,191.39L322.37,206.38L322.46,116.45L322.65,176.41L322.77,146.43L323.3,127.69L323.33,183.9L323.52,176.4L323.55,153.92L324.02,138.93L324.3,180.15L324.33,153.92L324.69,142.68L324.96,183.9L325.08,168.91L325.21,161.42L325.32,131.44L325.37,187.65L325.71,135.19L325.74,183.9L325.74,191.39L326.26,131.44L326.49,165.16L326.51,150.17L326.73,131.44L326.74,183.9L327.23,165.16L327.28,150.17L327.31,138.93L327.92,176.4L328.01,168.91L328.1,168.91L328.33,127.69L328.35,187.65L328.82,161.42L328.82,157.67L328.97,127.69L328.98,183.9L329.2,153.92L329.21,187.65L329.56,135.18L329.99,142.68L329.99,176.4L330.36,180.15L330.54,142.68L330.67,153.92L330.75,161.42L331.27,180.15L331.41,131.45L331.48,142.68L331.5,161.41L331.57,187.63L331.58,30.34L332.25,116.46L332.27,150.18L332.31,191.38L332.38,120.21L333.01,191.38L333.04,138.94L333.48,131.45L333.72,176.4L333.91,172.65L333.92,157.67L334.4,131.45L334.5,183.89L334.66,157.67L334.69,157.67L334.7,176.4L335.03,142.68L335.42,157.67L335.45,157.67L335.7,195.13L335.71,120.21L336.19,157.67L336.21,161.41L336.21,153.92L336.92,157.67L336.98,165.16L337.02,138.94L337.02,183.89L337.73,157.67L337.74,157.67L338.13,146.43L338.13,176.4L338.31,161.41L338.31,146.43L338.52,176.39L338.55,127.7L339.05,165.16L339.06,157.67L339.22,142.69L339.77,168.9L339.8,165.16L339.81,146.43L340.46,135.2L340.46,176.39L340.56,161.41L340.57,161.41L340.79,176.39L341.11,138.94L341.28,161.41L341.34,168.9L341.87,146.43L342.1,157.67L342.15,161.41L342.67,168.9L342.75,146.43L342.9,157.67L342.91,161.41L343.2,176.39L343.39,142.69L343.63,150.18L343.63,172.65L343.65,180.14L343.66,135.2L344.28,157.67L344.33,153.92L344.38,172.65L344.59,146.43L345.03,168.9L345.09,161.41L345.46,135.2L345.48,180.14L345.84,138.94L345.85,168.9L346.44,191.38L346.53,123.96L346.6,165.16L346.61,165.16L346.73,172.65L347.15,142.69L347.29,172.65L347.3,172.65L347.5,176.39L347.66,138.94L348.09,153.92L348.09,172.65L348.57,191.37L348.85,135.2L348.89,150.18L349.11,142.69L349.53,183.88L349.6,161.41L349.6,146.43L349.62,176.39L350.23,142.69L350.34,161.41L350.39,161.41L350.53,195.12L350.96,116.47L351.09,150.18L351.09,183.88L351.15,135.2L351.84,138.94L351.86,157.67L352.21,183.89L352.6,142.68L352.62,172.65L352.79,183.89L353.07,131.45L353.37,146.43L353.4,165.16L353.44,172.65L354.01,142.69L354.13,165.16L354.18,172.65L354.69,131.45L354.72,191.37L354.91,172.65L354.94,172.65L355.37,82.77L355.38,221.32L355.68,153.92L355.7,206.35L356.2,109L356.45,191.36L356.5,153.92L356.62,191.36L356.81,138.95L357.24,161.41L357.29,150.18L357.62,138.94L357.62,187.63L358.05,161.41L358.06,153.92L358.27,127.71L358.72,191.37L358.73,135.2L358.85,138.94L359.13,135.2L359.15,176.39L359.6,153.92L359.62,153.92L359.87,138.94L359.98,176.39L360.37,161.41L360.41,153.92L360.42,142.69L360.59,183.88L361.08,150.18L361.16,150.18L361.52,135.2L361.56,180.14L361.89,138.94L361.92,153.92L361.97,135.2L361.99,180.14L362.67,150.18L362.69,165.16L362.74,168.9L363.36,135.2L363.43,146.43L363.44,168.9L363.54,138.94L363.57,176.39L364.02,146.43L364.02,176.39L364.45,138.94L364.78,153.92L364.81,153.92L364.83,135.2L364.92,187.63L365.48,165.16L365.57,165.16L365.88,150.18L365.89,172.65L366.31,161.41L366.38,153.92L366.66,138.94L367.11,165.16L367.11,165.16L367.17,157.67L367.59,168.9L367.6,146.43L367.92,153.92L367.93,172.65L368.13,180.14L368.45,135.19L368.67,161.41L368.67,198.87L368.67,97.74L369.37,138.94L369.43,161.41L369.97,213.86L369.99,97.72L370.17,153.92L370.2,172.65L370.27,120.2L370.51,198.88L370.95,157.67L370.97,157.67L371.11,176.4L371.11,146.43L371.15,150.18L371.15,142.68L371.78,165.16L371.9,161.41L372.05,157.67L372.45,195.13L372.49,123.96L372.8,153.92L372.81,153.92L373.05,146.43L373.09,191.38L373.52,150.18L373.58,157.67L374,116.46L374.19,198.87L374.28,127.7L374.34,176.4L374.43,101.48L374.43,213.86L375.07,153.92L375.13,153.92L375.53,116.46L375.58,195.13L375.85,161.41L375.89,161.41L376.05,172.66L376.53,138.93L376.56,176.4L376.9,187.64L376.94,131.44L377.27,150.17L377.4,157.67L377.65,90.23L377.74,195.13L378.12,153.92L378.12,176.4L378.69,183.89L378.69,123.95L378.85,142.68L378.89,146.43L378.98,138.94L379.47,168.91L379.64,153.92L379.66,153.92L379.8,168.91L380.01,135.19L380.38,165.16L380.41,161.41L380.98,180.14L381.04,138.94L381.17,153.92L381.21,161.41L381.24,180.14L381.33,135.19L381.94,146.43L381.97,150.18L382.11,183.89L382.45,138.94L382.66,172.65L382.76,153.92L382.78,213.87L383.11,78.96L383.51,150.18L383.58,142.68L383.79,176.4L384.04,116.46L384.04,116.46L384.08,183.89L384.63,142.68L384.79,153.92L384.89,138.94L385.76,176.4L385.76,150.18L385.92,142.68L386.51,176.4L386.52,176.4L386.72,123.95L387.32,146.43L387.4,146.43L387.81,172.65L387.87,142.68L388.11,161.41L388.12,150.17L388.7,183.89L388.74,138.94L388.8,146.43L388.88,161.41L389.22,187.63L389.45,138.94L389.51,168.91L389.52,176.4L390.25,183.89L390.26,123.96L390.27,150.18L390.31,180.14L390.31,195.12L390.31,97.74L391.04,165.16L391.07,153.92L391.33,168.91L391.43,135.2L391.82,168.9L391.95,161.41L392.14,131.45L392.14,180.14L392.65,157.67L392.69,157.67L393.18,135.19L393.32,195.13L393.38,157.67L393.41,131.45L393.46,127.7L393.93,176.4L394.15,150.18L394.23,161.41L394.65,142.68L394.92,176.4L394.98,168.91L395.02,180.14L395.22,131.45L395.7,161.41L395.74,165.16L395.98,172.65L396.09,146.43L396.47,153.92L396.48,161.41L396.51,172.65L396.9,135.19L397.23,153.92L397.27,165.16L397.57,180.14L397.67,120.22L398.04,153.92L398.05,153.92L398.14,180.14L398.52,135.2L398.8,146.44L398.82,153.92L398.91,131.46L398.95,180.13L399,153.92" style="vector-effect: non-scaling-stroke; fill: none; stroke: rgb(99, 110, 250); stroke-opacity: 1; stroke-width: 2px; opacity: 1;"/></g><g class="points"/><g class="text"/></g><g class="trace scatter trace89fda6" style="stroke-miterlimit: 2; opacity: 1;"><g class="fills"/><g class="errorbars"/><g class="lines"><path class="js-line" d="M0,146.41L0.14,168.93L0.66,153.91L0.73,153.91L1.32,150.16L1.48,165.17L1.48,153.91L1.48,146.41L1.55,138.9L2.25,228.97L2.31,180.18L2.45,75.1L3.09,153.92L3.12,153.92L3.2,146.41L3.21,176.43L3.78,150.16L3.78,165.17L3.98,150.16L4.46,153.91L4.57,153.91L4.66,168.93L4.69,138.9L5.32,153.91L5.33,150.16L5.33,131.4L6.07,180.19L6.07,172.68L6.14,153.91L6.2,97.62L6.24,217.71L6.75,165.17L6.93,150.16L7.29,172.68L7.67,153.92L7.8,165.17L8.2,172.68L8.34,142.66L8.58,153.91L8.59,161.42L8.76,135.15L9.05,180.19L9.34,176.43L9.46,172.68L10.07,176.43L10.08,138.9L10.23,165.17L10.27,161.42L10.36,165.17L10.37,135.15L10.37,135.15L10.41,176.43L10.89,183.94L11.13,146.41L11.13,146.41L11.2,161.42L11.21,168.93L11.37,142.66L11.81,168.93L11.99,150.16L12.44,142.66L12.61,172.68L12.72,165.17L12.76,153.92L13.13,142.66L13.29,195.19L13.5,153.92L13.54,135.15L13.84,195.19L14.3,150.16L14.34,165.17L14.69,138.91L15.01,180.18L15.15,161.42L15.5,172.68L15.83,138.9L15.84,176.44L15.89,187.7L15.91,15L15.97,180.19L16.68,153.91L16.72,161.42L16.85,135.15L16.96,180.19L17.43,153.91L17.48,153.91L17.48,150.16L17.64,168.93L18.19,153.91L18.26,153.91L18.39,146.41L18.57,168.93L18.94,153.91L19.02,150.16L19.83,161.42L19.84,153.91L20.25,172.68L20.28,142.65L20.54,153.91L20.61,161.42L20.96,138.9L20.97,176.44L21.25,165.18L21.28,153.91L21.86,180.19L21.98,142.65L22.02,142.65L22.51,172.68L22.77,153.91L22.82,150.16L23.19,127.63L23.22,168.93L23.53,153.91L23.56,153.91L23.69,150.16L23.89,165.18L24.3,161.42L24.37,161.42L24.59,123.88L24.62,180.19L25.1,153.91L25.17,153.91L25.52,135.14L25.63,183.95L25.9,165.18L25.92,150.16L25.92,142.65L26,172.68L26.59,153.91L26.77,165.18L26.88,168.93L27.31,146.41L27.51,165.18L27.53,168.93L27.55,138.9L27.6,176.44L28.14,165.18L28.34,165.18L28.68,183.95L28.68,131.39L29.03,161.42L29.13,165.18L29.73,138.9L29.74,183.95L29.84,161.42L29.88,183.95L30.1,131.39L30.42,161.42L30.47,176.44L30.57,187.7L30.69,131.39L31.23,165.18L31.28,165.18L31.57,146.41L31.6,176.44L31.98,146.41L32.04,146.41L32.15,142.65L32.15,172.68L32.84,142.65L32.84,172.69L32.92,153.91L32.95,161.42L33.2,138.9L33.28,183.95L33.68,161.42L33.7,150.16L34.09,142.65L34.17,183.95L34.38,153.91L34.5,161.42L34.63,180.2L35.15,153.91L35.16,168.93L35.16,176.44L35.88,127.63L35.92,161.42L36.12,142.65L36.64,180.19L36.66,161.42L36.69,153.91L36.84,135.14L37.11,202.71L37.39,176.44L37.39,138.9L37.66,176.44L38.14,161.42L38.19,161.42L38.78,123.88L38.78,191.46L38.9,127.64L38.95,172.68L38.96,142.65L39.54,172.69L39.59,161.42L39.73,153.91L39.83,176.44L39.9,138.9L40.42,161.42L40.48,165.18L40.83,135.14L41.07,191.46L41.08,202.73L41.18,90.08L41.18,225.25L41.63,161.42L41.63,183.95L41.72,206.48L41.97,138.9L42.23,153.91L42.23,138.9L42.68,138.89L42.84,172.69L43,161.42L43.01,153.91L43.36,138.9L43.47,172.69L43.78,168.93L43.8,165.18L44.08,183.95L44.42,135.14L44.55,161.42L44.56,153.91L45.09,138.89L45.15,176.44L45.32,168.93L45.33,146.4L45.99,183.95L46.07,131.38L46.1,161.42L46.2,138.89L46.37,183.95L46.82,176.44L46.91,176.44L47,180.19L47.25,127.63L47.66,153.91L47.75,168.93L48.39,183.95L48.42,112.61L48.45,202.72L48.9,138.89L49.22,161.42L49.23,165.18L49.32,138.9L49.33,187.7L49.94,146.4L50.02,153.91L50.49,138.9L50.67,191.46L50.67,172.69L50.73,135.14L50.81,127.63L50.94,187.7L51.42,161.42L51.51,153.91L51.64,120.12L51.67,195.21L52.26,161.42L52.28,161.42L52.83,183.95L53.08,142.65L53.09,161.42L53.16,138.89L53.34,172.69L53.78,153.91L53.79,138.9L54.22,127.63L54.37,191.46L54.54,150.16L54.57,153.91L54.74,146.41L54.82,187.7L55.3,168.93L55.35,146.4L55.64,138.89L55.67,180.2L56.07,153.91L56.12,142.65L56.22,180.19L56.29,135.14L56.87,165.18L56.88,165.18L56.93,180.19L57.26,127.64L57.6,161.42L57.64,165.18L57.73,172.68L58.42,138.9L58.48,165.18L59.07,135.14L59.09,180.19L59.22,180.19L59.25,153.91L59.57,183.95L59.85,131.39L59.98,135.14L60.03,165.18L60.06,127.64L60.44,180.19L60.73,150.16L60.75,116.38L60.78,112.63L60.92,187.69L61.51,153.91L61.55,161.42L62.04,183.94L62.05,131.4L62.24,153.91L62.33,161.42L62.43,172.68L62.52,142.65L62.7,146.41L62.7,135.15L62.72,180.19L63.45,146.41L63.46,150.16L63.67,120.14L63.68,183.94L64.19,138.9L64.19,176.43L64.25,138.9L64.96,153.91L64.99,161.42L65.49,135.15L65.64,172.68L65.74,146.41L65.78,172.68L66.49,180.19L66.51,135.14L66.55,165.18L66.71,135.14L66.77,172.68L67.32,150.16L67.34,150.16L67.36,172.69L67.72,142.65L68,146.41L68.04,168.93L68.34,176.44L68.79,135.14L68.79,146.41L68.79,180.19L69.54,127.64L69.56,146.41L69.58,142.66L69.63,127.64L69.72,176.43L70.13,153.92L70.14,161.42L70.21,138.9L70.33,176.43L70.85,142.66L70.89,172.68L71.04,183.94L71.2,131.39L71.65,153.91L71.69,161.42L71.92,172.68L72.1,127.64L72.38,165.18L72.41,168.93L73.07,138.9L73.13,161.42L73.19,153.91L73.36,150.16L73.91,161.42L73.94,153.91L73.95,153.91L73.98,172.68L74.2,150.16L74.66,153.91L74.71,161.42L75.14,135.15L75.19,165.17L75.47,153.91L75.53,161.42L75.66,123.89L75.76,183.94L76.2,153.92L76.21,161.42L76.24,127.64L76.69,165.17L76.96,153.92L76.97,153.92L77.03,138.9L77.42,180.18L77.66,146.41L77.66,172.68L78.16,180.19L78.22,135.15L78.39,142.66L78.46,172.68L78.74,176.43L78.83,138.9L79.26,142.66L79.29,150.16L79.84,198.95L79.86,105.13L80.03,131.4L80.05,165.17L80.08,108.89L80.52,176.43L80.8,153.92L80.81,146.41L81.51,142.66L81.52,180.18L81.56,146.41L81.58,153.92L81.71,142.66L81.74,172.67L81.74,187.68L81.85,127.65L82.47,153.92L82.5,161.42L82.86,142.66L82.98,176.43L83.24,153.92L83.27,153.92L83.96,165.17L83.97,123.91L84,153.92L84.02,142.67L84.2,131.41L84.28,183.92L84.74,150.17L84.78,165.17L85.2,135.16L85.21,180.18L85.53,165.17L85.55,150.17L85.63,172.67L85.71,150.16L86.27,153.92L86.35,135.16L86.44,120.15L86.54,153.92L86.61,138.91L87.12,176.43L87.12,172.67L87.17,176.43L87.56,180.18L87.9,131.41L87.95,153.92L87.97,153.92L88.37,183.93L88.38,131.41L88.64,153.92L88.72,153.92L88.88,146.41L89.15,165.17L89.49,161.42L89.54,153.92L89.79,183.93L89.79,120.16L90.1,138.91L90.14,123.91L90.44,187.67L90.49,120.16L90.87,142.66L90.9,153.92L90.92,183.92L91.16,135.16L91.54,153.92L91.63,146.41L91.85,172.67L92.01,138.91L92.35,146.41L92.41,172.67L92.43,176.42L92.7,142.66L93.04,150.17L93.08,150.17L93.2,131.41L93.63,172.67L93.82,150.17L93.83,142.66L94.58,165.17L94.6,161.42L94.61,153.92L94.83,142.66L95.06,176.42L95.32,161.42L95.39,150.17L95.82,195.18L95.83,120.16L96.09,153.92L96.23,153.92L96.46,123.91L96.66,172.67L96.98,161.42L96.99,150.17L97.33,176.42L97.67,138.91L97.75,161.42L97.84,165.17L98.35,176.42L98.55,127.66L98.6,146.41L99.02,168.92L99.1,131.41L99.23,161.42L99.24,135.16L99.52,176.42L100.01,153.92L100.08,153.92L100.62,135.16L100.73,180.18L100.73,135.16L100.79,131.41L100.85,183.93L101.53,153.92L101.56,176.42L101.64,180.18L102.19,138.91L102.33,153.92L102.39,153.92L102.55,131.41L102.87,180.18L103.11,168.92L103.15,146.41L103.27,138.91L103.37,176.42L103.91,161.42L103.92,150.17L104.12,131.41L104.56,187.68L104.57,127.66L104.57,120.15L104.68,183.93L105.29,150.17L105.33,153.92L105.72,146.41L105.74,168.92L106.06,153.92L106.1,153.92L106.13,142.66L106.15,176.42L106.82,161.42L106.9,153.92L107.2,112.66L107.23,202.67L107.65,161.42L107.68,153.92L107.71,123.91L108.27,180.17L108.39,150.17L108.44,153.92L108.57,135.17L108.59,168.92L108.9,153.92L108.91,187.67L108.98,127.67L109.66,172.67L109.67,142.67L109.93,176.42L110.28,131.42L110.28,131.42L110.29,183.92L110.58,131.42L111.09,161.42L111.1,161.42L111.19,180.17L111.32,135.17L111.81,142.67L111.81,176.42L112.27,180.17L112.46,135.16L112.52,161.42L112.63,153.92L113.1,131.41L113.12,183.92L113.37,153.92L113.39,153.92L113.87,183.92L113.92,123.91L114.13,165.17L114.14,150.17L114.24,187.67L114.31,127.66L114.89,161.42L114.92,135.16L115.06,127.66L115.22,176.42L115.69,153.92L115.71,153.92L115.93,135.16L115.94,180.17L116.45,161.42L116.45,150.17L116.5,135.16L117.05,168.92L117.14,150.17L117.15,146.42L117.74,135.17L117.76,180.17L117.9,161.42L117.91,168.92L118.34,180.17L118.36,135.16L118.66,146.42L118.74,161.42L118.91,172.67L119.05,138.91L119.43,168.92L119.5,150.17L119.88,168.92L119.88,168.92L119.9,146.42L119.96,176.42L120.04,123.91L120.63,146.42L120.67,168.92L121.38,172.67L121.38,142.66L121.39,153.92L121.45,153.92L121.46,127.66L121.55,191.42L122.2,161.42L122.23,165.17L122.65,195.17L122.69,127.67L122.92,153.92L123,153.92L123.02,198.92L123.07,112.67L123.74,138.92L123.76,150.17L124.23,183.91L124.32,120.17L124.51,165.17L124.53,150.17L124.65,198.92L124.92,112.67L125.19,165.17L125.2,150.17L125.24,191.41L125.24,123.92L125.95,161.42L125.97,153.92L126.07,135.17L126.08,180.16L126.65,161.42L126.65,146.42L126.79,187.67L126.93,131.42L127.4,153.92L127.42,168.92L127.63,195.17L127.71,120.17L128.22,138.92L128.23,161.42L128.23,180.17L128.25,135.17L128.95,138.92L128.99,176.42L129.06,138.92L129.41,180.17L129.74,146.42L129.79,146.42L130.5,191.42L130.52,123.92L131.19,176.42L131.26,116.42L131.28,161.42L131.3,153.92L131.37,112.67L131.7,176.42L132.05,153.92L132.06,153.92L132.7,138.92L132.73,176.42L132.77,138.92L132.83,161.42L132.91,135.17L133.35,168.92L133.57,161.42L133.6,161.42L134.15,183.92L134.3,131.42L134.33,153.92L134.36,161.42L134.88,176.42L135.09,135.17L135.21,165.17L135.43,172.67L135.76,142.67L135.95,161.42L135.98,153.92L136.2,172.67L136.64,142.67L136.64,142.67L136.64,172.67L136.99,176.41L137.22,135.17L137.4,138.92L137.4,176.41L137.63,135.17L137.64,183.91L138.1,146.42L138.16,153.92L138.18,138.92L138.43,172.66L138.9,168.92L138.93,153.92L139.01,142.67L139.41,191.41L139.63,142.67L139.65,142.67L140.09,138.92L140.4,187.66L140.41,127.68L140.41,123.93L141,180.16L141.1,146.42L141.17,168.91L141.19,183.91L141.53,112.68L141.88,142.67L141.97,161.42L142.45,168.92L142.72,135.17L142.75,138.92L142.78,161.42L142.87,138.92L142.91,176.41L143.55,150.17L143.57,165.17L143.71,176.41L143.86,138.92L144.37,150.17L144.42,153.92L144.87,165.17L144.98,146.42L145.16,161.42L145.3,161.42L145.45,176.41L145.83,146.42L146.02,165.17L146.02,176.41L146.02,138.92L146.28,187.66L146.77,161.42L146.78,161.42L146.83,180.16L147.17,138.92L147.5,172.66L147.5,191.41L147.51,120.18L147.52,195.16L148.23,150.17L148.28,153.92L148.54,176.42L148.55,135.17L148.95,150.17L149.04,153.92L149.47,176.42L149.49,138.92L149.77,161.42L149.77,150.17L150.32,142.67L150.45,172.67L150.57,161.42L150.69,153.92L150.74,172.67L151.22,138.92L151.22,131.42L151.23,183.92L151.93,146.42L152.04,168.92L152.05,176.42L152.15,138.92L152.75,150.17L152.79,161.42L152.92,176.42L152.93,138.92L153.37,168.92L153.38,150.17L153.73,142.67L154,168.92L154.09,161.42L154.16,161.42L154.37,131.42L154.53,183.92L154.71,161.42L154.71,172.67L155.22,176.42L155.42,142.67L155.46,153.92L155.52,161.42L155.81,131.42L156.16,180.17L156.27,172.67L156.27,153.92L156.48,131.42L156.86,198.92L157.01,161.42L157.06,161.42L157.12,138.92L157.14,183.92L157.81,161.42L157.89,161.42L158.53,180.17L158.6,146.42L158.61,153.92L158.79,161.42L158.93,168.92L159.15,135.17L159.53,161.42L159.53,165.17L159.55,176.42L160.01,127.67L160.25,168.92L160.26,146.42L160.53,127.67L160.6,191.43L160.99,153.92L161.02,153.92L161.15,176.42L161.49,135.16L161.74,146.42L161.82,168.92L162,123.92L162.46,180.17L162.62,146.42L162.63,168.92L162.7,138.92L162.82,176.42L163.25,161.42L163.27,153.92L163.3,180.17L163.77,135.16L164,150.17L164.04,161.42L164.11,180.17L164.62,146.42L164.75,161.42L164.84,153.92L165.07,176.42L165.37,150.17L165.59,153.92L165.65,153.92L166.36,165.17L166.41,161.42L166.45,161.42L166.59,172.67L166.88,142.66L167.17,161.42L167.17,168.92L167.53,138.91L167.76,176.42L167.92,168.92L167.95,172.67L168.17,180.18L168.3,138.91L168.71,161.42L168.72,180.18L169.43,138.91L169.5,153.92L169.87,135.16L170.03,183.93L170.23,161.42L170.25,161.42L170.38,142.66L170.46,191.43L170.83,161.42L170.88,165.17L171.18,176.43L171.44,131.41L171.63,153.92L171.65,165.17L171.65,168.92L171.66,138.91L172.37,161.42L172.48,161.42L172.6,183.93L173.08,108.89L173.14,127.65L173.21,168.93L173.4,172.68L173.71,127.65L173.89,168.92L173.96,168.92L174.05,123.91L174.06,191.43L174.64,165.17L174.65,180.18L174.79,183.93L175.03,135.16L175.4,153.92L175.45,153.92L176.01,131.4L176.11,195.19L176.16,153.92L176.22,153.92L176.35,191.44L176.37,142.66L176.91,161.42L176.93,150.16L177.6,127.65L177.63,176.43L177.72,168.92L177.87,153.92L177.99,176.43L178.45,150.16L178.59,165.17L178.62,150.16L178.9,187.68L179.17,138.91L179.35,161.42L179.38,153.92L180.01,176.43L180.01,138.91L180.09,146.41L180.14,165.17L180.82,138.91L180.82,176.43L180.92,146.41L180.98,168.92L180.98,180.18L181.01,120.15L181.73,142.66L181.76,153.92L181.92,191.44L182.44,127.65L182.47,112.65L182.89,191.43L183.23,153.92L183.26,146.41L183.26,142.66L183.26,183.93L183.99,150.16L184.02,153.92L184.73,198.94L184.74,116.4L184.75,116.4L184.82,187.68L185.48,168.92L185.56,161.42L185.99,131.4L186.01,180.18L186.09,153.92L186.11,180.18L186.16,191.44L186.24,123.9L186.86,150.16L186.89,161.42L187.1,172.68L187.42,138.91L187.63,165.17L187.67,161.42L187.92,168.93L188.41,138.91L188.45,165.17L188.54,180.18L188.94,135.15L188.96,183.93L189.29,131.4L189.76,153.92L189.77,153.92L190.17,150.16L190.31,165.17L190.45,161.42L190.54,150.16L190.66,146.41L190.99,168.92L191.26,161.42L191.33,161.42L192,138.91L192.06,172.67L192.13,153.92L192.42,138.91L192.57,198.93L192.9,161.42L192.9,153.92L193.14,142.66L193.53,180.18L193.54,135.16L193.54,116.4L193.55,198.93L194.27,146.41L194.35,161.42L194.44,165.17L194.85,131.41L194.91,198.93L195.14,135.16L195.67,165.17L195.68,165.17L195.84,176.42L196.23,146.41L196.42,168.92L196.46,146.41L196.67,180.18L197.21,135.16L197.21,135.16L197.25,135.16L197.38,180.18L197.78,172.67L197.82,153.92L197.99,131.41L198.04,195.18L198.56,150.17L198.59,153.92L198.64,138.91L198.86,176.42L199.22,153.92L199.32,153.92L199.79,180.17L199.83,135.16L200.06,161.42L200.09,153.92L200.22,176.42L200.29,135.17L200.61,153.92L200.61,142.67L201,138.92L201.15,172.67L201.36,150.17L201.39,153.92L201.58,142.67L201.99,180.17L202.1,150.17L202.14,153.92L202.45,176.42L202.47,138.92L202.86,153.92L202.91,153.92L203.52,135.16L203.54,180.17L203.67,168.92L203.77,165.17L203.83,176.42L204.22,127.66L204.5,142.67L204.53,150.17L204.65,142.67L204.85,176.42L205.15,161.42L205.33,153.92L205.54,146.42L205.8,172.67L206.07,168.92L206.1,146.42L206.59,183.92L206.68,135.16L206.9,161.42L206.93,150.17L207.14,168.92L207.16,146.42L207.27,153.92L207.29,168.92L207.33,176.42L207.44,123.91L208.04,161.42L208.06,153.92L208.24,131.41L208.47,176.42L208.66,142.66L208.66,135.16L209.45,165.17L209.47,165.17L209.63,135.16L209.68,172.67L210.18,146.42L210.28,153.92L210.58,135.16L210.67,172.67L210.86,146.42L210.88,168.92L210.96,176.42L211.64,135.16L211.68,153.92L211.68,180.17L211.78,131.41L212.43,161.42L212.45,161.42L212.8,172.67L212.81,142.67L213.2,161.42L213.21,161.42L213.84,172.67L213.87,142.66L213.94,153.92L213.96,168.92L214.14,172.67L214.63,138.91L214.75,161.42L215.02,183.92L215.12,135.16L215.47,165.17L215.51,150.17L216.01,135.16L216.02,180.17L216.21,161.42L216.27,161.42L216.31,180.17L216.71,131.41L216.94,161.42L216.95,153.92L217.01,191.43L217.28,127.66L217.69,153.92L217.7,161.42L218.09,187.68L218.11,120.16L218.43,135.16L218.46,165.17L218.81,172.67L218.83,142.66L219.18,150.17L219.19,165.17L219.37,176.42L219.85,146.41L219.94,161.42L219.96,172.67L220.25,198.93L220.49,116.4L220.71,168.92L220.72,168.92L220.75,135.15L220.77,183.93L221.39,161.42L221.42,138.91L222.01,176.43L222.16,153.92L222.19,138.91L222.19,135.16L222.34,172.68L222.93,161.42L222.96,161.42L223.18,183.93L223.61,135.16L223.67,161.42L223.73,161.42L223.76,187.68L223.85,127.66L224.46,161.42L224.49,172.67L224.86,191.44L225.13,146.41L225.24,153.92L225.3,165.17L225.39,142.66L225.82,180.18L225.82,180.18L225.84,135.15L226.16,180.18L226.28,176.43L226.31,138.91L227.06,176.43L227.06,176.43L227.09,176.43L227.6,180.18L227.72,135.16L227.83,176.43L227.83,180.18L228.29,131.41L228.29,183.93L228.62,150.16L228.66,161.42L229.39,135.16L229.39,180.18L229.39,135.16L229.42,123.9L229.52,198.94L230.15,176.43L230.22,161.42L230.43,195.19L230.77,127.65L230.92,165.17L231.02,153.92L231.17,198.94L231.65,138.91L231.76,153.92L231.78,153.92L231.78,172.67L232.07,142.66L232.53,161.42L232.55,161.42L232.62,187.68L232.85,142.66L233.25,168.92L233.32,161.42L233.8,131.4L233.96,198.94L233.99,142.66L234.07,172.68L234.12,176.43L234.17,142.66L234.61,153.92L234.61,146.41L235.13,198.93L235.29,131.41L235.36,172.68L235.39,165.17L236.06,176.43L236.06,135.16L236.09,168.92L236.18,165.17L236.72,135.16L236.84,198.93L236.85,153.92L236.88,198.93L237.53,112.65L237.56,202.69L237.62,135.16L237.66,161.42L237.83,195.19L237.86,120.15L238.39,161.42L238.5,153.92L239.02,176.43L239.21,138.91L239.24,165.17L239.27,165.17L239.94,176.43L240.04,135.15L240.05,165.17L240.48,131.4L240.49,183.93L240.78,161.42L240.89,161.42L241.14,146.41L241.16,176.43L241.61,161.42L241.66,153.92L242.12,146.41L242.37,202.7L242.44,161.42L242.46,161.42L242.79,191.44L242.88,131.4L243.23,146.41L243.25,165.17L243.6,168.93L243.94,146.41L243.94,150.16L243.96,168.93L244,187.69L244.1,127.65L244.63,165.17L244.66,165.17L245.13,168.93L245.33,146.41L245.41,150.16L245.44,161.42L245.71,153.92L245.94,165.17L245.94,165.17L245.94,150.16L246.23,127.65L246.63,191.44L246.72,176.43L246.73,138.91L247.14,180.18L247.48,161.42L247.49,153.92L248.01,195.2L248.05,105.13L248.24,153.92L248.27,161.42L248.56,172.68L248.99,146.41L249,161.42L249,176.43L249.06,180.18L249.1,131.4L249.29,153.92L249.31,142.66L249.57,180.18L249.98,138.91L250.06,176.43L250.06,138.9L250.06,120.14L250.67,176.43L250.81,161.42L250.87,168.93L250.97,176.43L251.32,138.9L251.56,153.92L251.61,153.92L252.1,135.15L252.23,172.68L252.33,168.93L252.4,161.42L253.06,135.15L253.07,180.18L253.15,161.42L253.16,161.42L253.49,135.15L253.57,180.18L253.85,161.42L253.88,161.42L254.37,172.68L254.63,138.9L254.68,176.43L254.94,138.9L254.96,180.18L255.45,146.41L255.49,161.42L256.07,123.89L256.12,202.71L256.23,153.91L256.25,161.42L256.34,221.48L256.38,93.85L256.99,153.91L257.01,161.42L257.46,138.9L257.59,180.19L257.72,153.91L257.75,165.17L258.18,135.15L258.45,187.7L258.45,180.19L258.47,187.7L258.8,123.89L259.26,165.17L259.28,161.42L259.62,131.39L259.94,176.44L260.03,161.42L260.04,153.91L260.06,138.9L260.38,180.19L260.77,172.68L260.81,142.65L260.82,180.19L261.08,138.9L261.53,161.42L261.58,161.42L261.9,180.19L262.13,138.9L262.27,161.42L262.34,153.91L262.9,176.44L262.91,142.65L263.08,161.42L263.1,153.91L263.76,138.9L263.76,176.43L263.79,153.91L263.88,153.91L264.46,142.66L264.49,172.68L264.58,161.42L264.63,153.92L264.78,176.43L265.22,135.15L265.38,172.68L265.39,168.93L265.42,127.64L265.71,191.45L266.14,161.42L266.16,153.91L266.48,183.94L266.86,135.15L266.94,180.19L267.04,172.68L267.62,127.64L267.63,187.69L267.78,150.16L267.81,161.42L267.83,146.41L268.13,176.43L268.54,161.42L268.57,153.91L268.72,153.91L268.72,153.91L268.76,161.42L268.96,138.9L268.98,183.94L269.45,168.93L269.55,168.93L269.91,127.65L269.99,187.69L270.22,161.42L270.34,176.43L270.73,138.9L271.08,150.16L271.15,161.42L271.5,127.65L271.51,195.2L271.88,161.42L271.92,153.92L272.19,127.65L272.39,191.44L272.67,146.41L272.69,153.92L272.99,180.18L273,131.4L273.41,138.91L273.43,138.91L273.6,120.15L273.6,195.19L274.18,187.69L274.21,146.41L274.22,127.65L274.77,180.18L274.95,153.92L274.99,153.92L275.24,146.41L275.56,172.68L275.76,165.17L275.76,153.92L275.93,165.17L276.04,135.16L276.19,142.66L276.2,172.68L276.68,180.18L276.82,138.91L276.96,153.92L276.99,153.92L277.05,135.16L277.12,180.18L277.68,161.42L277.68,153.92L277.96,131.4L278.17,172.68L278.36,153.92L278.38,161.42L278.48,176.43L278.65,127.65L279.13,161.42L279.19,153.92L279.64,138.91L279.66,176.43L279.9,150.16L279.92,135.16L280.02,183.93L280.04,131.41L280.72,172.67L280.73,150.16L281.42,172.67L281.45,142.66L281.45,172.67L282.16,176.43L282.21,120.15L282.21,120.15L282.24,161.42L282.47,131.41L282.5,183.93L282.87,150.16L282.89,150.16L283.14,135.16L283.3,176.43L283.63,153.92L283.67,153.92L283.68,172.67L284.24,131.41L284.39,161.42L284.43,161.42L284.58,168.92L285.2,135.16L285.21,138.91L285.28,150.17L285.48,142.67L285.55,168.92L286.03,153.92L286.04,153.92L286.27,176.42L286.62,142.66L286.81,161.42L286.81,153.92L287.16,142.66L287.34,176.42L287.57,168.92L287.59,150.17L287.92,176.42L288.2,138.91L288.21,153.92L288.23,161.42L288.23,180.17L288.43,131.41L288.98,153.92L288.99,153.92L289.24,168.92L289.67,135.16L289.72,138.91L289.78,153.92L289.86,183.92L290.28,97.65L290.49,135.17L290.51,135.17L290.88,180.17L290.89,161.42L290.92,97.65L290.94,93.9L291.55,195.16L291.66,176.42L291.75,168.92L291.81,138.92L291.83,180.17L292.49,142.67L292.55,150.17L292.79,131.42L293.08,172.67L293.3,150.17L293.33,161.42L294.04,153.92L294.08,161.42L294.08,165.17L294.11,172.67L294.24,142.67L294.81,150.17L294.94,153.92L295.61,127.67L295.63,187.67L295.66,150.17L295.72,153.92L295.83,180.17L295.95,127.66L296.37,153.92L296.43,153.92L296.71,176.42L296.73,135.16L297.16,153.92L297.19,153.92L297.33,180.17L297.74,138.91L297.76,142.67L297.77,138.91L297.77,135.16L298.03,176.42L298.47,150.17L298.59,165.17L298.61,131.41L298.66,187.67L299.34,153.92L299.37,161.42L299.48,180.17L299.54,135.16L300.11,150.17L300.15,150.17L300.65,180.17L300.69,131.41L300.9,153.92L300.92,153.92L301.64,180.17L301.67,135.16L301.71,161.42L301.84,135.16L301.86,176.42L302.46,146.42L302.53,142.67L302.58,176.42L303.1,135.16L303.28,150.17L303.31,153.92L303.38,168.92L304.01,142.67L304.06,146.42L304.11,146.42L304.55,97.68L304.83,206.39L304.84,108.94L305.28,176.41L305.7,153.92L305.75,161.42L306.12,172.66L306.15,135.18L306.41,142.67L306.45,146.42L306.58,176.41L306.61,142.67L307.21,161.42L307.29,153.92L307.53,191.41L307.57,120.18L307.88,138.92L307.91,180.16L308.09,131.43L308.61,183.91L308.63,165.17L308.68,168.92L309.06,131.42L309.15,183.91L309.4,161.42L309.41,153.92L309.78,123.93L309.79,191.41L310.1,142.67L310.15,161.42L310.31,187.66L310.72,123.93L310.92,146.42L310.93,172.66L311.63,123.93L311.69,142.67L312.03,135.18L312.18,176.41L312.46,165.17L312.49,138.92L313.27,176.41L313.27,161.42L313.46,180.16L313.49,135.18L313.99,165.17L314.03,150.17L314.67,146.42L314.7,172.66L314.71,150.17L314.74,142.67L315.14,172.66L315.48,135.18L315.51,165.16L315.69,131.43L315.92,180.16L316.16,168.91L316.29,165.16L316.29,123.93L316.32,191.4L316.98,135.18L317.11,153.92L317.11,161.42L317.84,153.92L317.87,153.92L318.16,168.91L318.24,142.67L318.6,150.17L318.6,165.16L318.6,168.91L318.96,138.93L319.33,168.91L319.4,150.17L319.79,172.66L319.84,135.18L320.15,161.42L320.19,153.92L320.51,172.66L320.87,138.93L320.93,168.91L320.94,146.42L321.45,176.41L321.6,131.43L321.64,161.42L321.65,161.42L321.81,210.13L321.92,146.43L321.92,123.94L322.04,108.96L322.46,202.63L322.65,138.93L322.77,168.91L323.36,131.44L323.41,187.64L323.52,135.19L323.55,161.42L324.02,176.41L324.22,135.18L324.27,168.91L324.27,172.66L324.33,183.9L324.96,131.44L325.02,165.16L325.06,161.42L325.32,183.9L325.74,123.95L325.74,123.95L325.81,165.16L326.13,176.4L326.25,131.44L326.26,183.9L326.76,131.44L327.06,150.17L327.09,150.17L327.31,176.41L327.37,142.68L327.84,165.16L327.86,153.92L328.33,187.65L328.35,127.69L328.61,153.92L328.61,146.43L328.94,180.15L328.98,123.94L329.4,161.42L329.41,153.92L329.56,180.15L329.59,135.18L330.05,168.91L330.06,146.43L330.17,168.91L330.23,138.93L330.33,153.92L330.36,138.93L330.36,135.19L330.79,176.4L331.11,161.41L331.12,153.92L331.18,165.16L331.27,131.44L331.3,187.64L331.58,120.22L331.58,285L332.02,138.94L332.12,150.18L332.31,123.96L332.38,198.87L332.87,161.41L332.88,153.92L333.01,123.96L333.04,180.14L333.46,138.94L333.48,168.91L333.48,183.89L333.69,138.94L334.23,150.18L334.25,165.16L334.4,183.89L334.72,131.45L334.99,138.94L335.01,153.92L335.45,138.94L335.49,165.16L335.69,153.92L335.69,180.14L335.71,195.13L335.73,120.21L336.43,153.92L336.47,161.41L337.02,176.4L337.02,131.45L337.2,146.43L337.24,146.43L337.26,168.91L337.99,161.41L338,153.92L338.45,127.71L338.55,187.63L338.72,165.16L338.78,153.92L338.92,150.18L339.22,172.65L339.54,161.41L339.55,153.92L339.81,172.65L339.82,142.69L340.29,153.92L340.3,161.41L340.46,180.14L340.46,138.94L341.02,150.18L341.06,150.18L341.11,176.39L341.13,142.69L341.83,161.41L341.85,161.41L341.87,168.9L342.07,150.18L342.57,153.92L342.57,150.18L342.67,146.43L343.07,176.39L343.17,153.92L343.17,142.69L343.65,135.2L343.66,180.14L343.89,161.41L343.96,150.18L344.38,142.69L344.61,168.9L344.73,161.41L344.75,153.92L345.46,180.14L345.48,135.2L345.48,135.2L345.52,161.41L345.53,135.2L345.84,176.39L346.27,146.43L346.32,161.41L346.44,195.12L346.73,142.69L346.98,153.92L347.05,168.9L347.5,138.94L347.66,176.39L347.78,161.41L347.84,161.41L348.47,180.14L348.57,123.97L348.58,153.92L348.63,153.92L348.71,138.95L348.85,180.13L349.29,161.41L349.36,168.9L349.62,138.95L350.11,150.18L350.13,165.16L350.23,172.65L350.53,120.22L350.87,138.94L350.87,176.39L350.93,135.2L350.96,198.86L351.62,161.41L351.63,146.43L351.64,142.69L351.84,180.14L352.36,150.18L352.39,165.16L352.6,172.65L353.05,131.45L353.07,183.89L353.18,131.45L353.89,142.69L353.95,165.16L354,176.4L354.72,123.96L354.74,153.92L355.05,97.75L355.37,232.56L355.47,142.69L355.5,142.69L355.54,210.09L355.56,105.24L356.2,150.18L356.34,120.23L356.4,195.1L357.11,153.92L357.16,161.41L357.55,183.88L357.62,127.71L357.9,165.16L357.99,146.43L358.25,123.96L358.27,191.37L358.69,123.96L358.72,123.96L359.13,180.14L359.47,161.41L359.49,153.92L359.86,138.94L359.87,176.39L360.21,168.9L360.28,146.43L360.44,176.39L360.59,131.45L360.89,153.92L360.9,165.16L361.52,180.14L361.56,135.2L361.56,146.43L361.61,180.14L361.99,135.2L362.36,172.65L362.37,142.69L362.72,172.65L363.14,161.41L363.15,161.41L363.36,180.14L363.57,138.94L363.88,161.41L363.91,161.41L363.91,138.94L364.06,176.39L364.65,153.92L364.69,161.41L364.83,180.14L364.92,127.71L365.4,153.92L365.42,153.92L365.89,142.69L366.16,165.16L366.18,161.41L366.26,153.92L366.65,146.43L366.66,176.39L366.98,153.92L367,161.41L367.59,146.43L367.6,168.9L367.75,161.41L367.79,168.9L368.13,180.14L368.45,135.19L368.54,150.18L368.57,138.94L368.67,116.47L368.67,217.6L369.33,161.41L369.34,153.92L369.63,138.94L370.01,217.61L370.03,198.88L370.09,138.94L370.3,198.88L370.51,116.46L370.84,153.92L370.85,153.92L370.91,172.65L371.11,135.19L371.59,153.92L371.62,161.41L371.78,150.18L372.07,183.89L372.14,180.14L372.16,183.89L372.38,191.38L372.45,105.23L372.89,161.41L372.91,161.41L373.09,172.65L373.28,142.69L373.68,153.92L373.68,161.41L374,198.87L374.19,116.46L374.37,135.19L374.38,180.14L374.43,213.86L374.97,101.48L375.07,161.41L375.13,153.92L375.53,198.88L375.58,116.46L375.85,153.92L375.89,153.92L376.05,138.93L376.36,180.15L376.53,153.92L376.56,135.19L376.9,127.7L376.94,183.89L377.27,153.92L377.4,161.41L377.7,116.46L377.77,195.13L378.09,168.91L378.12,150.18L378.69,127.7L378.69,191.38L378.85,172.65L378.89,172.65L378.93,142.68L378.98,176.4L379.64,161.41L379.66,161.41L380.01,180.14L380.08,146.43L380.42,153.92L380.42,161.41L380.98,135.19L381.04,180.14L381.17,153.92L381.17,165.16L381.3,135.19L381.33,180.14L381.92,146.43L381.94,168.91L382.11,131.45L382.45,176.4L382.51,172.65L382.51,176.4L382.62,142.68L383.06,240.11L383.25,161.42L383.27,161.42L383.31,135.19L383.63,183.89L384,180.15L384.02,191.39L384.04,198.88L384.39,146.43L384.69,172.65L384.7,153.92L384.79,150.18L384.92,176.4L385.46,161.41L385.47,161.41L385.51,135.19L385.85,172.65L386.2,150.18L386.25,161.41L386.52,127.69L386.68,191.39L387,142.68L387,168.91L387.12,142.68L387.14,176.4L387.77,146.43L387.77,168.91L387.81,142.68L387.87,172.65L388.52,153.92L388.55,153.92L388.73,131.44L388.74,183.89L389.28,150.18L389.3,153.92L389.43,138.94L389.45,176.4L390.01,153.92L390.03,153.92L390.25,127.7L390.31,217.6L390.79,165.16L390.8,165.16L391.33,138.94L391.43,183.89L391.53,165.16L391.57,153.92L392.14,183.89L392.14,131.45L392.35,168.91L392.35,161.41L392.41,138.94L392.51,176.4L393.09,153.92L393.12,146.43L393.31,131.45L393.41,187.64L393.79,146.43L393.82,180.14L393.9,131.45L394.53,161.41L394.58,161.41L395.2,135.19L395.22,183.89L395.32,150.18L395.34,165.16L395.68,168.91L395.74,146.43L395.89,150.18L395.9,165.16L396.03,172.65L396.53,142.68L396.56,165.16L396.57,176.4L396.8,142.68L396.9,180.14L397.32,161.41L397.33,153.92L397.55,131.46L397.67,195.12L398.1,168.9L398.12,172.65L398.4,127.71L398.52,183.88L398.83,168.9L398.87,176.39L398.91,187.62L398.95,127.71L399,153.92" style="vector-effect: non-scaling-stroke; fill: none; stroke: rgb(239, 85, 59); stroke-opacity: 1; stroke-width: 2px; opacity: 1;"/></g><g class="points"/><g class="text"/></g><g class="trace scatter traceb5b6ff" style="stroke-miterlimit: 2; opacity: 1;"><g class="fills"/><g class="errorbars"/><g class="lines"><path class="js-line" d="M0,146.41L0.83,153.91L0.83,153.91L0.87,153.91L1.66,131.4L1.69,153.92L2.2,153.92L2.22,142.66L2.45,75.1L2.83,150.16L2.95,127.64L2.99,153.92L3.16,153.92L3.2,146.41L3.2,153.92L3.21,138.91L3.95,153.92L3.96,153.92L4.69,138.9L4.69,150.16L4.81,153.92L5.33,131.4L5.53,153.92L5.59,153.92L6.24,97.62L6.26,153.92L6.35,153.92L6.38,131.4L7.1,150.16L7.13,150.16L7.29,142.66L7.92,153.92L7.92,153.92L8.06,153.92L8.76,135.15L8.76,146.41L8.78,153.92L9.05,135.15L9.49,153.91L9.54,153.91L9.72,153.91L9.75,142.66L10.37,135.15L10.42,153.92L10.53,153.91L10.67,150.16L10.89,131.4L11.2,153.91L11.37,146.41L11.37,142.66L12.17,153.91L12.18,150.16L12.44,142.66L12.59,153.92L12.9,150.16L12.94,150.16L13.29,120.14L13.5,153.92L13.61,142.66L13.64,142.66L13.84,120.15L14.17,153.92L14.35,138.91L14.54,153.92L15.01,135.15L15.18,153.92L15.25,153.92L15.87,135.15L15.89,127.64L15.91,15L16.49,153.91L16.6,153.91L16.68,153.91L16.96,135.15L17.28,153.91L17.4,153.91L18.07,146.41L18.13,153.91L18.19,153.91L18.58,146.41L19.02,150.16L19.08,150.16L19.84,153.91L19.84,150.16L20.25,142.65L20.65,153.91L20.65,150.16L20.75,153.91L20.87,138.9L21.38,146.41L21.41,146.41L21.41,153.91L21.86,135.14L22.15,142.65L22.17,142.65L22.89,153.91L22.89,150.16L22.89,146.41L23.06,146.41L23.06,146.41L23.1,153.91L23.19,127.63L23.63,153.91L23.69,153.91L23.69,150.16L24.44,153.91L24.49,153.91L24.59,123.88L24.82,142.65L24.84,153.91L25.42,153.91L25.42,150.16L25.63,131.39L26.19,153.91L26.21,153.91L26.21,146.41L26.92,153.91L26.98,146.41L27.55,138.9L27.74,153.91L27.77,153.91L27.9,138.9L28.49,153.91L28.52,153.91L28.68,131.39L29.27,153.91L29.29,153.91L29.88,131.39L30.09,153.91L30.6,127.64L30.78,135.14L30.89,142.65L31.13,138.9L31.65,153.91L31.65,153.91L31.7,153.91L31.79,138.9L32.32,150.16L32.42,153.91L33.09,142.65L33.2,150.16L33.2,153.91L33.28,131.39L33.94,153.91L33.98,153.91L34.17,131.39L34.63,153.91L34.69,153.91L35.16,138.89L35.53,146.4L35.56,153.91L35.88,127.63L36.12,142.65L36.12,153.91L36.85,135.14L36.87,153.91L37.11,112.62L37.66,138.9L37.68,150.16L38.36,135.14L38.4,153.91L38.4,135.14L38.61,150.16L38.65,131.39L38.65,153.91L38.78,123.88L39.4,153.91L39.41,153.91L39.9,138.9L40.16,153.91L40.17,153.91L40.89,135.14L40.91,142.65L40.98,142.65L41.18,153.91L41.18,90.08L41.44,135.14L41.44,153.91L41.72,108.85L42.2,138.9L42.22,153.91L42.76,138.89L42.97,153.91L42.98,153.91L43.13,153.91L43.13,150.16L43.2,153.91L43.41,138.9L43.86,142.65L43.87,153.91L44.08,131.39L44.31,138.89L44.33,153.91L44.45,135.14L45.09,138.89L45.13,153.91L45.13,138.9L45.86,142.65L45.9,142.65L45.96,131.38L46.52,153.91L46.61,138.9L46.66,146.4L46.67,153.91L47.25,127.63L47.41,146.4L47.43,146.4L47.81,138.89L48.19,153.91L48.25,153.91L48.46,112.61L48.99,138.9L49.05,142.65L49.33,127.63L49.89,153.91L49.92,153.91L50.67,123.88L50.67,142.65L50.73,135.14L50.8,153.91L50.94,127.63L51.42,153.91L51.51,153.91L51.67,120.12L52,146.41L52.05,146.41L52.24,131.39L52.8,153.91L52.81,150.16L52.82,146.41L52.83,131.39L52.89,153.91L53.5,153.91L53.55,150.16L53.87,138.89L54.14,153.91L54.16,142.65L54.16,131.39L54.37,123.88L54.48,153.91L54.82,127.64L54.9,150.16L55.08,131.39L55.28,153.91L55.41,142.65L55.41,138.9L55.5,153.91L55.67,135.14L55.91,153.91L55.97,153.91L56.13,135.14L56.72,150.16L56.75,153.91L57.01,135.14L57.13,153.91L57.26,127.64L57.8,150.16L57.83,153.91L58.49,138.9L58.52,150.16L58.55,153.91L59.28,131.39L59.31,138.9L59.55,131.39L59.82,153.91L60.04,135.14L60.06,135.14L60.17,153.91L60.78,112.63L60.9,150.16L60.92,127.64L60.93,153.92L61.62,153.91L61.67,153.91L61.76,153.92L62.05,131.4L62.43,142.65L62.48,146.41L62.7,135.15L63.2,153.91L63.21,150.16L63.29,150.16L63.67,120.14L63.99,153.92L64.05,127.64L64.07,153.92L64.27,138.9L64.85,150.16L64.86,150.16L64.9,153.91L65.49,135.15L65.53,150.16L65.64,142.65L66.1,138.9L66.42,153.91L66.42,153.91L66.45,153.91L66.71,135.14L67.03,153.91L67.04,153.91L67.72,142.65L67.76,153.91L67.81,153.91L68.36,138.9L68.54,153.91L68.57,153.91L68.83,131.39L69.08,153.91L69.12,153.91L69.63,127.64L69.68,153.92L69.77,150.16L69.83,153.92L70.2,138.9L70.57,150.16L70.61,153.91L70.79,153.92L71.2,131.39L71.29,153.91L71.41,153.91L72.1,127.64L72.2,150.16L72.38,150.16L72.41,146.41L73.06,153.91L73.06,153.91L73.07,138.9L73.8,153.91L73.84,153.91L73.98,142.65L74.39,150.16L74.41,153.91L75.14,153.91L75.14,153.91L75.14,135.15L75.66,123.89L75.94,153.92L75.97,153.92L76.28,127.64L76.69,150.16L76.73,153.92L77.03,153.92L77.03,138.9L77.03,153.92L77.42,135.15L77.69,150.16L77.79,153.92L77.98,153.92L77.98,150.16L78.16,135.15L78.58,153.92L78.71,146.41L78.71,142.66L78.83,138.9L79.1,153.92L79.37,142.66L79.39,153.92L79.86,105.13L80.16,150.16L80.16,153.92L80.76,127.65L80.91,150.16L80.93,153.92L81.13,153.92L81.14,150.16L81.14,153.92L81.74,127.65L81.85,127.65L81.99,153.92L82.2,153.92L82.2,150.17L82.2,153.92L82.36,138.91L82.94,150.16L82.98,138.91L83.42,135.16L83.79,153.92L83.8,150.17L83.8,153.92L83.97,123.91L84.55,153.92L84.56,153.92L85.22,135.16L85.32,138.91L85.35,142.66L85.35,153.92L85.93,153.92L86.11,153.92L86.27,153.92L86.27,153.92L86.35,135.16L86.44,120.15L86.54,153.92L87.23,138.91L87.34,142.66L87.39,153.92L87.9,131.41L88.05,146.41L88.08,150.17L88.37,131.41L88.83,153.92L88.83,153.92L88.86,153.92L89.63,142.66L89.66,150.17L89.79,153.92L89.79,131.41L89.79,138.91L89.79,120.16L89.85,153.92L90.49,120.16L90.55,120.16L91.35,153.92L91.39,150.17L91.46,150.17L92.01,138.91L92.09,153.92L92.2,150.17L92.2,146.41L92.43,138.91L92.47,153.92L92.96,142.66L93.01,142.66L93.2,131.41L93.74,153.92L93.74,150.17L93.75,135.16L94.56,153.92L94.57,150.17L94.58,150.17L95.06,138.91L95.32,153.92L95.39,150.17L95.39,153.92L95.82,120.16L96.09,153.92L96.23,153.92L96.46,123.91L96.76,138.91L96.79,153.92L96.9,135.16L97.55,142.66L97.6,153.92L97.67,138.91L98.35,138.91L98.37,146.41L98.55,127.66L98.77,153.92L99.02,146.41L99.02,142.66L99.13,131.41L99.15,153.92L99.68,153.92L99.72,153.92L99.93,142.66L100.47,153.92L100.49,153.92L100.85,131.41L101.27,135.16L101.34,153.92L101.53,153.92L101.53,153.92L101.56,138.91L101.64,135.16L102.33,153.92L102.39,153.92L102.55,131.41L103.15,146.41L103.18,153.92L103.37,138.91L103.92,150.17L103.98,153.92L104.59,120.15L104.68,131.41L104.74,153.92L104.76,131.41L105.44,153.92L105.49,153.92L106.15,138.91L106.23,153.92L106.27,153.92L106.44,142.66L107.02,153.92L107.1,153.92L107.23,112.66L107.8,153.92L107.87,138.92L108.27,135.17L108.6,153.92L108.66,150.17L108.68,153.92L108.99,127.67L109.38,142.67L109.41,153.92L109.41,138.92L110.13,153.92L110.17,153.92L110.21,131.42L110.92,153.92L110.95,153.92L111.14,153.92L111.14,153.92L111.19,138.92L111.19,135.17L111.19,153.92L111.93,150.17L111.97,153.92L112.46,135.16L112.69,146.42L112.73,150.17L112.73,153.92L113.1,131.41L113.47,150.17L113.58,153.92L113.94,123.91L114.33,127.66L114.34,153.92L115.06,127.66L115.14,138.92L115.14,153.92L115.94,135.16L115.99,135.16L116.75,153.92L116.81,146.42L117.28,138.91L117.37,153.92L117.52,142.67L117.52,138.91L118.25,135.16L118.28,153.92L118.28,153.92L118.31,153.92L118.37,135.16L119.05,138.91L119.1,153.92L119.88,146.42L119.88,146.42L119.9,146.42L120.04,123.91L120.6,153.92L120.63,146.42L120.67,146.42L121.37,153.92L121.38,142.66L121.38,153.92L121.55,123.91L122.13,153.92L122.14,153.92L122.65,120.17L122.89,138.92L122.92,153.92L123.02,135.17L123.02,116.42L123.07,153.92L123.1,112.67L123.33,146.42L123.38,146.42L123.48,153.92L123.74,138.92L124.08,150.17L124.1,153.92L124.32,120.17L124.36,150.17L124.58,153.92L124.59,150.17L124.61,120.17L124.69,153.92L124.92,112.67L125.07,131.42L125.09,153.92L125.24,123.92L125.72,153.92L125.78,153.92L126.06,153.92L126.06,153.92L126.07,135.17L126.79,127.67L126.82,153.92L126.82,153.92L126.86,153.92L127.09,131.42L127.48,153.92L127.51,153.92L127.63,120.17L128.25,135.17L128.3,153.92L128.48,135.17L129.06,138.92L129.11,153.92L129.42,135.17L129.84,153.92L129.88,153.92L130.52,123.92L130.66,150.17L130.7,150.17L130.77,153.92L131.37,112.67L131.42,127.67L131.46,153.92L131.53,131.42L132.06,153.92L132.09,153.92L132.77,138.92L132.83,153.92L132.91,135.17L133.57,153.92L133.6,153.92L134.3,131.42L134.33,153.92L134.36,153.92L134.7,153.92L134.7,153.92L134.7,146.42L135.03,153.92L135.09,135.17L135.4,153.92L135.41,153.92L135.43,142.67L136.16,142.67L136.2,142.67L136.99,153.92L136.99,150.17L137.02,153.92L137.64,131.42L137.71,146.42L137.75,153.92L138.32,138.92L138.5,153.92L138.55,150.17L138.62,153.92L139.28,123.93L139.32,153.92L139.41,123.93L140,146.42L140,153.92L140.41,123.93L140.74,153.92L140.76,153.92L141.19,131.43L141.5,150.17L141.53,112.68L142.28,153.92L142.31,153.92L142.72,135.17L143.1,142.67L143.15,153.92L143.71,138.92L143.9,150.17L143.93,142.67L143.96,138.92L144.22,153.92L144.59,153.92L144.61,153.92L144.98,146.42L145.36,153.92L145.37,153.92L146.2,138.92L146.22,138.92L146.28,127.67L147.01,153.92L147.02,153.92L147.52,120.18L147.77,153.92L147.78,153.92L148.37,138.92L148.52,153.92L148.54,153.92L148.55,135.17L149.28,153.92L149.3,153.92L149.53,138.92L150,153.92L150.13,153.92L150.74,142.67L150.75,150.17L150.79,153.92L151.23,131.42L151.51,150.17L151.56,150.17L151.8,146.42L152.05,153.92L152.05,138.92L152.88,153.92L152.89,150.17L152.89,142.67L152.93,138.92L152.93,153.92L153.54,153.92L153.56,153.92L154.29,135.17L154.29,135.17L154.33,150.17L154.34,153.92L154.37,131.42L155.07,153.92L155.09,153.92L155.59,138.92L155.8,146.42L155.81,153.92L155.81,131.42L156.48,131.42L156.61,153.92L156.8,153.92L156.86,135.17L156.86,116.42L157.01,153.92L157.52,153.92L157.64,153.92L157.89,153.92L157.89,153.92L157.92,150.17L158.43,146.42L158.48,153.92L158.49,150.17L158.53,135.17L158.53,153.92L159.27,142.67L159.31,150.17L159.53,153.92L159.56,135.17L159.56,131.42L159.69,153.92L160.01,127.67L160.31,153.92L160.34,153.92L160.6,123.91L160.64,153.92L160.66,127.66L161.39,146.42L161.41,146.42L161.45,153.92L162,123.92L162.18,135.17L162.23,138.92L162.27,135.17L162.69,153.92L162.98,146.42L163.01,142.67L163.11,153.92L163.27,135.17L163.76,153.92L163.77,153.92L163.77,135.16L164.52,153.92L164.54,153.92L165.07,138.91L165.29,153.92L165.3,153.92L165.42,150.17L166.01,153.92L166.06,153.92L166.88,142.66L166.88,142.66L166.91,153.92L167.53,138.91L167.68,146.41L167.71,153.92L168.17,135.16L168.45,150.17L168.49,153.92L168.72,135.16L169.17,150.17L169.18,153.92L169.86,135.16L169.93,153.92L169.94,153.92L170.46,123.91L170.62,146.41L170.66,153.92L170.83,153.92L170.88,150.17L170.91,153.92L171.44,131.41L171.56,153.92L171.61,153.92L171.66,138.91L172.35,153.92L172.37,150.17L172.37,153.92L173.08,108.89L173.1,150.16L173.14,127.65L173.89,153.92L173.96,146.41L173.98,146.41L174.05,123.91L174.62,153.92L174.65,135.16L174.73,135.16L174.79,131.41L174.98,153.92L175.07,153.92L175.18,153.92L175.39,131.4L175.88,153.92L175.94,153.92L176.11,120.15L176.48,131.4L176.52,153.92L176.74,138.91L177.24,153.92L177.29,153.92L177.46,153.92L177.46,153.92L177.46,150.16L177.6,127.65L177.63,153.92L178.15,153.92L178.25,153.92L178.9,127.65L178.96,153.92L179.02,153.92L179.24,135.16L179.75,153.92L179.79,153.92L179.95,153.92L179.95,153.92L179.95,150.16L180.06,138.91L180.21,153.92L180.67,150.16L180.71,150.16L180.98,153.92L181.01,120.15L181.35,146.41L181.47,153.92L181.92,123.9L182.22,153.92L182.24,153.92L182.47,112.65L182.95,146.41L183.01,142.66L183.26,131.41L183.68,153.92L183.7,146.41L183.81,146.41L184.42,138.91L184.54,153.92L184.56,150.16L184.58,150.16L184.7,153.92L184.73,116.4L185.33,153.92L185.38,153.92L186.17,123.9L186.17,123.9L186.17,146.41L186.24,123.9L187.02,153.92L187.03,153.92L187.42,138.91L187.78,150.16L187.86,153.92L188.54,135.15L188.54,135.15L188.66,153.92L189.43,131.4L189.44,150.16L189.6,131.4L189.76,153.92L190.17,150.16L190.21,153.92L190.99,146.41L190.99,146.41L191.12,153.92L191.7,146.41L191.87,153.92L191.91,153.92L192.57,116.4L192.66,123.91L192.68,153.92L193.02,153.92L193.02,153.92L193.05,150.17L193.05,153.92L193.54,116.4L193.77,150.16L193.84,150.16L194.12,146.41L194.65,153.92L194.69,153.92L194.93,116.4L195.43,138.91L195.46,153.92L195.65,153.92L195.65,153.92L195.67,150.17L195.71,153.92L195.84,138.91L196.42,146.41L196.46,146.41L196.47,153.92L196.67,135.16L197.21,135.16L197.25,135.16L197.93,153.92L197.99,138.91L197.99,131.41L198.04,120.16L198.04,153.92L198.72,153.92L198.76,153.92L198.86,138.92L199.5,153.92L199.52,153.92L199.83,135.16L200.26,153.92L200.29,153.92L200.29,135.17L201.04,153.92L201.05,138.92L201.73,153.92L201.76,146.42L201.87,146.42L201.99,135.17L201.99,153.92L202.61,153.92L202.65,153.92L203.54,135.16L203.54,135.16L203.55,150.17L203.83,138.91L203.94,153.92L204.22,138.91L204.22,127.66L205.06,153.92L205.1,142.67L205.84,153.92L205.88,150.17L205.97,153.92L206.59,131.41L206.68,135.16L206.75,153.92L206.9,153.92L206.93,150.17L207.14,153.92L207.44,123.91L207.56,131.41L207.57,153.92L208.24,131.41L208.32,146.42L208.33,153.92L208.69,135.16L209,153.92L209.1,153.92L209.63,135.16L209.89,150.17L209.9,153.92L210.58,135.16L210.77,142.67L210.78,153.92L211,138.92L211.53,153.92L211.54,153.92L211.78,131.41L212.27,153.92L212.33,153.92L212.82,142.67L213.08,150.17L213.09,153.92L213.32,142.66L213.84,142.66L213.86,142.66L214.58,153.92L214.59,142.66L214.63,138.91L215.02,131.41L215.41,153.92L215.47,150.17L215.51,150.17L215.6,153.92L216.01,135.16L216.21,153.92L216.27,153.92L216.71,131.41L216.94,153.92L216.95,153.92L217.01,123.91L217.61,150.17L217.69,153.92L218.11,120.16L218.46,150.17L218.51,150.17L218.81,142.66L219.24,153.92L219.25,150.17L219.27,150.17L219.39,138.91L219.4,153.92L219.89,153.92L219.94,153.92L220.49,116.4L220.71,135.16L220.71,146.41L220.77,131.4L220.8,153.92L221.42,138.91L221.44,153.92L222.19,135.16L222.19,153.92L222.24,150.16L222.29,153.92L222.87,138.91L222.93,153.92L222.96,153.92L223.2,131.41L223.41,135.16L223.44,153.92L223.86,127.66L224.25,142.66L224.29,146.41L224.86,123.9L224.95,153.92L225.06,150.16L225.1,150.16L225.15,153.92L225.15,135.16L225.74,150.16L225.77,153.92L226.16,135.15L226.53,150.16L226.6,153.92L226.66,138.91L227.35,150.16L227.37,153.92L228.13,135.16L228.13,135.16L228.15,150.16L228.29,131.41L228.9,153.92L228.92,153.92L229.52,116.4L229.66,153.92L229.68,153.92L230.43,120.15L230.45,138.91L230.77,127.65L231.15,153.92L231.16,131.41L231.16,127.65L231.16,116.4L231.36,153.92L231.89,146.41L232.05,153.92L232.64,127.65L232.82,142.66L232.85,142.66L233.38,135.16L233.57,153.92L233.58,142.66L233.58,138.91L233.96,116.4L234.34,153.92L234.34,153.92L234.37,142.66L234.37,153.92L235.04,135.16L235.12,150.16L235.13,116.4L235.8,153.92L235.88,150.16L235.92,153.92L236.06,135.16L236.69,142.66L236.71,150.16L236.77,153.92L237.08,116.4L237.39,153.92L237.42,153.92L237.56,112.65L238.17,150.16L238.25,150.16L238.76,146.41L238.83,153.92L238.92,150.16L238.92,146.41L239.44,135.16L239.65,153.92L239.69,150.16L239.7,146.41L240.04,135.15L240.46,153.92L240.46,142.66L240.49,131.4L240.51,153.92L241.18,153.92L241.26,138.91L242.12,153.92L242.12,153.92L242.12,150.16L242.2,153.92L242.37,112.64L242.86,131.4L242.88,131.4L243.71,153.92L243.71,153.92L243.73,146.41L243.98,153.92L244,127.65L244,127.65L244.1,127.65L244.83,153.92L244.83,153.92L244.92,153.92L245.33,146.41L245.64,153.92L245.71,153.92L245.94,153.92L245.94,150.16L246.21,127.65L246.58,153.92L246.58,153.92L246.61,142.66L246.61,123.9L246.67,153.92L247.34,146.41L247.38,146.41L247.43,153.92L248.05,105.13L248.1,153.92L248.54,153.92L248.56,142.66L248.56,153.92L249.1,131.4L249.31,142.66L249.36,142.66L249.98,153.92L250.06,120.14L250.07,150.16L250.13,146.41L250.19,153.92L250.78,138.9L250.88,142.66L250.88,153.92L251.32,138.9L251.61,153.92L251.63,153.92L251.86,153.92L251.86,153.92L251.89,150.16L251.89,153.92L252.1,135.15L252.63,153.92L252.69,153.92L253.06,153.92L253.06,150.16L253.06,135.15L253.09,153.92L253.8,153.92L253.83,153.92L254.22,153.92L254.22,150.16L254.38,153.92L254.68,138.9L254.81,150.16L254.86,153.92L255.04,135.15L255.4,150.16L255.43,153.92L256.12,112.62L256.18,153.91L256.2,153.91L256.34,150.16L256.34,101.36L256.34,93.85L256.56,153.91L257.05,142.65L257.12,142.65L257.59,135.15L257.87,153.91L257.9,150.16L257.94,150.16L258.41,153.91L258.45,127.64L258.6,135.15L258.63,138.9L258.8,123.89L258.88,153.91L259.29,150.16L259.3,153.91L259.64,131.39L260,153.91L260.03,153.91L260.6,135.15L260.77,142.65L260.81,142.65L260.82,135.15L261,153.91L261.53,153.91L261.58,153.91L262.17,135.15L262.27,153.91L262.34,153.91L262.9,138.9L263.08,153.91L263.1,153.91L263.76,138.9L263.79,153.91L263.88,153.91L264.49,142.66L264.58,153.92L264.63,153.92L265.22,135.15L265.38,142.66L265.39,146.41L265.39,153.91L265.71,123.89L266.14,153.91L266.16,153.91L266.48,131.4L266.76,153.92L266.94,135.15L267.04,142.66L267.1,153.92L267.62,127.64L267.78,150.16L267.81,153.92L268.13,138.91L268.54,153.91L268.57,153.91L268.84,153.91L268.84,153.91L268.85,150.16L268.98,131.4L269.43,153.92L269.59,146.41L269.6,146.41L269.91,127.65L270.22,153.92L270.34,138.9L270.36,138.9L271.04,153.92L271.08,150.16L271.15,153.92L271.51,120.14L271.88,153.92L271.92,153.92L272.39,123.9L272.67,146.41L272.69,153.92L273,131.4L273.28,150.16L273.3,153.92L273.6,120.15L274.03,135.15L274.13,153.92L274.18,127.65L274.83,146.41L274.94,146.41L275.26,142.66L275.65,153.92L275.65,153.92L275.71,153.92L276.04,135.16L276.43,153.92L276.55,153.92L277.12,135.16L277.31,142.66L277.34,150.16L277.94,131.4L278.07,153.92L278.08,135.16L278.65,127.65L278.81,153.92L278.81,153.92L278.94,153.92L279.66,138.91L279.68,153.92L279.72,153.92L280.08,131.41L280.48,142.66L280.56,142.66L280.85,153.92L281.31,153.92L281.32,153.92L281.45,142.66L282.07,153.92L282.08,153.92L282.21,120.15L282.52,142.66L282.55,153.92L283.14,135.16L283.3,138.91L283.39,153.92L284.08,138.91L284.09,150.17L284.24,153.92L284.24,131.41L284.96,150.17L285.01,153.92L285.2,135.16L285.68,153.92L285.78,153.92L285.98,153.92L285.98,153.92L285.98,150.17L286.27,138.91L286.76,153.92L286.76,153.92L286.81,153.92L287.15,153.92L287.15,142.66L287.34,138.91L287.9,153.92L287.91,146.42L287.91,142.66L287.96,153.92L288.43,131.41L288.62,150.17L288.65,150.17L289.24,146.42L289.41,153.92L289.41,153.92L289.47,153.92L289.65,153.92L289.65,153.92L289.67,138.91L289.67,153.92L290.28,97.65L290.36,138.92L290.43,146.42L290.87,153.92L290.94,93.9L291.13,153.92L291.16,153.92L291.55,120.17L291.9,153.92L291.94,153.92L292.09,138.92L292.67,153.92L292.7,153.92L292.79,131.42L293.08,150.17L293.15,153.92L293.3,150.17L293.9,153.92L293.95,153.92L294.24,142.67L294.54,146.42L294.56,153.92L294.74,153.92L294.74,153.92L294.78,150.17L294.94,146.42L295.12,153.92L295.15,146.42L295.16,135.17L295.16,153.92L295.61,127.67L295.91,142.66L295.92,142.66L295.95,127.66L295.97,153.92L296.64,153.92L296.66,153.92L296.73,135.16L297.42,146.42L297.43,153.92L297.77,135.16L297.81,150.17L297.85,153.92L298.61,131.41L298.61,131.41L298.61,153.92L298.66,127.66L299.34,153.92L299.37,153.92L299.48,135.16L300.11,150.17L300.15,150.17L300.69,131.41L300.92,153.92L300.92,150.17L301.56,138.91L301.62,153.92L301.64,138.91L301.64,135.16L301.71,153.92L302.38,153.92L302.41,150.17L302.64,153.92L303.1,135.16L303.2,146.42L303.21,153.92L303.47,146.42L303.99,150.17L304.01,153.92L304.55,97.68L304.75,112.69L304.8,127.69L304.92,108.94L305.09,153.92L305.44,135.18L305.55,153.92L306.15,135.18L306.3,146.42L306.35,142.67L306.58,138.93L307.21,153.92L307.29,153.92L307.57,120.18L308.08,138.92L308.09,146.42L308.09,153.92L308.71,131.42L308.82,150.17L308.85,150.17L309.05,153.92L309.15,131.42L309.59,150.17L309.61,150.17L309.72,153.92L309.79,123.93L310.32,153.92L310.35,153.92L310.72,123.93L311.04,150.17L311.06,150.17L311.63,123.93L311.76,153.92L311.76,138.92L312.03,135.18L312.44,153.92L312.46,150.17L312.49,138.92L313.2,153.92L313.24,142.67L313.27,138.92L313.27,153.92L313.46,135.18L313.99,150.17L314.03,150.17L314.55,153.92L314.7,142.67L314.71,150.17L314.74,142.67L314.74,153.92L315.48,135.18L315.51,150.17L315.53,153.92L315.69,131.43L316.16,146.42L316.29,150.17L316.29,123.93L316.33,153.92L316.98,135.18L317.11,153.92L317.88,153.92L317.88,153.92L317.88,150.17L318.24,142.67L318.6,153.92L318.6,150.17L318.6,146.42L318.96,138.93L319.3,153.92L319.33,146.42L319.4,150.17L319.84,135.18L319.94,153.92L320.07,146.42L320.07,135.18L320.09,153.92L320.82,146.42L320.85,142.68L320.87,138.93L321.53,153.92L321.6,146.42L321.6,131.43L321.81,105.2L322.36,153.92L322.37,112.7L322.37,108.96L322.47,153.92L323.12,153.92L323.17,153.92L323.41,127.69L323.93,146.43L323.95,153.92L324.33,131.44L324.73,142.68L324.74,142.68L325.37,153.92L325.37,127.69L325.37,127.69L325.44,127.69L325.74,123.95L326.15,153.92L326.17,146.43L326.24,153.92L326.8,131.44L326.95,153.92L327.01,150.17L327.31,138.93L327.76,153.92L327.76,150.17L327.82,150.17L328.33,127.69L328.52,153.92L328.57,150.17L328.6,150.17L328.98,123.94L329.36,153.92L329.36,153.92L329.4,153.92L329.62,135.18L330.17,146.43L330.2,150.17L330.24,153.92L330.42,135.19L330.94,150.17L330.95,153.92L331.58,30.34L331.65,153.92L331.77,153.92L332.38,116.47L332.52,131.45L332.56,153.92L333.01,123.96L333.32,150.18L333.35,150.18L333.48,131.45L333.99,153.92L334,142.68L334.09,142.68L334.4,131.45L334.78,153.92L334.86,146.43L334.9,138.94L335.61,153.92L335.61,153.92L335.69,153.92L335.7,120.21L336.43,153.92L336.47,153.92L336.92,153.92L336.92,153.92L336.98,150.18L337.03,131.45L337.06,153.92L337.63,153.92L337.66,153.92L338.13,138.94L338.38,153.92L338.42,153.92L338.55,127.7L339.15,153.92L339.18,153.92L339.82,142.69L339.83,153.92L339.86,153.92L340.46,135.2L340.6,153.92L340.64,153.92L341.11,138.94L341.13,142.69L341.14,153.92L341.68,142.69L341.87,146.43L341.97,153.92L342.79,146.43L342.79,146.43L342.8,153.92L343.07,153.92L343.07,153.92L343.07,150.18L343.1,153.92L343.65,135.2L343.81,153.92L343.84,150.18L343.84,142.69L343.89,153.92L344.59,146.43L344.61,146.43L345.32,153.92L345.38,150.18L345.41,150.18L345.52,153.92L345.53,135.2L346.14,153.92L346.17,153.92L346.44,120.21L346.92,146.43L346.95,146.43L347.5,138.94L347.64,153.92L347.66,138.94L347.78,153.92L347.94,153.92L347.94,153.92L347.95,146.43L348.47,153.92L348.56,131.46L348.57,123.97L349.29,153.92L349.36,146.43L349.62,138.95L350.02,153.92L350.11,150.18L350.13,150.18L350.53,120.22L350.78,153.92L350.86,150.18L350.87,138.94L350.96,153.92L350.96,116.47L351.62,153.92L351.63,146.43L351.64,153.92L351.84,135.2L352.36,150.18L352.39,150.18L352.6,142.68L352.72,153.92L352.79,146.43L352.79,131.45L353.57,153.92L353.59,146.43L354.02,131.45L354.18,153.92L354.3,150.18L354.31,135.19L354.72,123.96L355,153.92L355.04,123.97L355.05,97.75L355.37,82.77L355.89,153.92L355.89,153.92L355.92,150.18L356.34,120.23L356.62,153.92L356.65,142.69L357.19,127.72L357.37,153.92L357.39,150.18L357.45,146.43L357.53,153.92L357.62,127.71L358.17,150.18L358.22,153.92L358.72,123.96L358.95,138.94L358.95,150.18L359.11,153.92L359.13,135.2L359.65,153.92L359.71,153.92L360,138.94L360.18,146.43L360.2,150.18L360.34,153.92L360.52,131.45L360.9,150.18L360.99,150.18L361.52,135.2L361.74,153.92L361.74,153.92L361.81,153.92L361.99,135.2L362.56,150.18L362.6,150.18L362.72,142.69L363.32,153.92L363.32,142.69L363.36,135.2L364.02,153.92L364.06,138.94L364.15,150.18L364.45,138.94L364.83,153.92L364.83,138.94L364.86,153.92L364.92,127.71L365.58,153.92L365.59,153.92L366.04,142.69L366.31,153.92L366.38,153.92L366.66,138.94L367.11,150.18L367.17,153.92L367.45,153.92L367.45,153.92L367.46,150.18L367.46,153.92L367.94,135.2L368.18,142.69L368.22,142.69L368.32,153.92L368.67,97.74L368.96,146.43L368.98,138.94L369.6,153.92L369.73,142.68L369.75,142.68L369.99,97.72L370.47,153.92L370.48,116.46L370.48,153.92L371.23,150.18L371.24,150.18L371.9,153.92L371.9,153.92L372.05,138.94L372.45,105.23L372.48,153.92L372.77,146.43L372.79,142.69L372.79,153.92L373.52,150.18L373.58,153.92L373.97,146.43L374,116.46L374.43,101.48L374.72,153.92L374.8,153.92L374.97,101.48L375.58,116.46L375.64,153.92L376.29,135.19L376.35,150.18L376.35,153.92L376.9,127.7L377.1,146.43L377.12,146.43L377.12,153.92L377.7,116.46L377.87,135.19L377.88,127.7L378.58,153.92L378.63,127.7L378.67,135.19L378.69,123.95L378.9,153.92L379.31,150.18L379.38,153.92L380.01,135.19L380.17,146.43L380.17,153.92L380.82,142.68L380.92,153.92L380.93,153.92L381.54,135.19L381.66,150.18L381.71,153.92L382.11,131.45L382.49,150.18L382.49,153.92L383.06,75.23L383.24,153.92L383.25,153.92L384.04,116.46L384.04,116.46L384.08,150.18L384.16,153.92L384.89,138.94L384.92,138.94L385.51,153.92L385.51,146.43L385.51,138.94L385.51,153.92L385.51,135.19L386.26,153.92L386.27,150.18L386.6,153.92L386.68,123.95L387,146.43L387.05,142.68L387.14,138.93L387.81,153.92L387.81,153.92L387.81,142.68L388.55,153.92L388.57,146.43L388.67,153.92L388.74,131.44L389.43,138.94L389.45,138.94L390.17,153.92L390.2,142.68L390.25,153.92L390.31,97.74L390.96,150.18L391.01,153.92L391.43,131.45L391.75,135.2L391.78,150.18L392.14,131.45L392.35,153.92L392.41,146.43L392.41,138.94L393.09,153.92L393.13,135.19L393.18,135.19L393.41,127.7L393.84,153.92L393.93,138.94L393.95,146.43L394.58,153.92L394.58,153.92L394.59,142.68L394.65,153.92L395.22,131.45L395.34,150.18L395.41,150.18L395.98,142.68L396.09,153.92L396.13,150.18L396.13,146.43L396.57,138.94L396.88,153.92L396.88,150.18L396.88,142.69L396.91,153.92L397.63,131.46L397.63,146.43L397.67,120.22L397.69,153.92L398.36,135.2L398.37,153.92L398.95,127.71L399,153.92" style="vector-effect: non-scaling-stroke; fill: none; stroke: rgb(0, 204, 150); stroke-opacity: 1; stroke-width: 2px; opacity: 1;"/></g><g class="points"/><g class="text"/></g></g></g><g class="overplot"/><path class="xlines-above crisp" d="M0,0" style="fill: none;"/><path class="ylines-above crisp" d="M0,0" style="fill: none;"/><g class="overlines-above"/><g class="xaxislayer-above"><g class="xtick"><text text-anchor="start" x="0" y="416" transform="translate(206.03,0) rotate(30,0,408.5)" style="font-family: 'Times New Roman'; font-size: 15px; fill: rgb(13, 13, 13); fill-opacity: 1; white-space: pre; opacity: 1;">1.6125210<tspan style="font-size:70%" dy="-0.6em">18</tspan><tspan dy="0.42em"></tspan></text></g><g class="xtick"><text text-anchor="start" x="0" y="416" style="font-family: 'Times New Roman'; font-size: 15px; fill: rgb(13, 13, 13); fill-opacity: 1; white-space: pre; opacity: 1;" transform="translate(285.36,0) rotate(30,0,408.5)">1.61252510<tspan style="font-size:70%" dy="-0.6em">18</tspan><tspan dy="0.42em"></tspan></text></g><g class="xtick"><text text-anchor="start" x="0" y="416" style="font-family: 'Times New Roman'; font-size: 15px; fill: rgb(13, 13, 13); fill-opacity: 1; white-space: pre; opacity: 1;" transform="translate(364.68,0) rotate(30,0,408.5)">1.6125310<tspan style="font-size:70%" dy="-0.6em">18</tspan><tspan dy="0.42em"></tspan></text></g><g class="xtick"><text text-anchor="start" x="0" y="416" style="font-family: 'Times New Roman'; font-size: 15px; fill: rgb(13, 13, 13); fill-opacity: 1; white-space: pre; opacity: 1;" transform="translate(444,0) rotate(30,0,408.5)">1.61253510<tspan style="font-size:70%" dy="-0.6em">18</tspan><tspan dy="0.42em"></tspan></text></g><g class="xtick"><text text-anchor="start" x="0" y="416" style="font-family: 'Times New Roman'; font-size: 15px; fill: rgb(13, 13, 13); fill-opacity: 1; white-space: pre; opacity: 1;" transform="translate(523.3199999999999,0) rotate(30,0,408.5)">1.6125410<tspan style="font-size:70%" dy="-0.6em">18</tspan><tspan dy="0.42em"></tspan></text></g></g><g class="yaxislayer-above"><g class="ytick"><text text-anchor="end" x="136" y="12.25" transform="translate(0,370.27)" style="font-family: 'Times New Roman'; font-size: 35px; fill: rgb(13, 13, 13); fill-opacity: 1; white-space: pre; opacity: 1;">0.03</text></g><g class="ytick"><text text-anchor="end" x="136" y="12.25" style="font-family: 'Times New Roman'; font-size: 35px; fill: rgb(13, 13, 13); fill-opacity: 1; white-space: pre; opacity: 1;" transform="translate(0,332.73)">0.02</text></g><g class="ytick"><text text-anchor="end" x="136" y="12.25" style="font-family: 'Times New Roman'; font-size: 35px; fill: rgb(13, 13, 13); fill-opacity: 1; white-space: pre; opacity: 1;" transform="translate(0,295.2)">0.01</text></g><g class="ytick"><text text-anchor="end" x="136" y="12.25" style="font-family: 'Times New Roman'; font-size: 35px; fill: rgb(13, 13, 13); fill-opacity: 1; white-space: pre; opacity: 1;" transform="translate(0,257.66999999999996)">0</text></g><g class="ytick"><text text-anchor="end" x="136" y="12.25" style="font-family: 'Times New Roman'; font-size: 35px; fill: rgb(13, 13, 13); fill-opacity: 1; white-space: pre; opacity: 1;" transform="translate(0,220.14)">0.01</text></g><g class="ytick"><text text-anchor="end" x="136" y="12.25" style="font-family: 'Times New Roman'; font-size: 35px; fill: rgb(13, 13, 13); fill-opacity: 1; white-space: pre; opacity: 1;" transform="translate(0,182.6)">0.02</text></g><g class="ytick"><text text-anchor="end" x="136" y="12.25" style="font-family: 'Times New Roman'; font-size: 35px; fill: rgb(13, 13, 13); fill-opacity: 1; white-space: pre; opacity: 1;" transform="translate(0,145.07)">0.03</text></g><g class="ytick"><text text-anchor="end" x="136" y="12.25" style="font-family: 'Times New Roman'; font-size: 35px; fill: rgb(13, 13, 13); fill-opacity: 1; white-space: pre; opacity: 1;" transform="translate(0,107.54)">0.04</text></g></g><g class="overaxes-above"/></g></g><g class="polarlayer"/><g class="smithlayer"/><g class="ternarylayer"/><g class="geolayer"/><g class="funnelarealayer"/><g class="pielayer"/><g class="iciclelayer"/><g class="treemaplayer"/><g class="sunburstlayer"/><g class="glimages"/><defs id="topdefs-2ac16b"><g class="clips"/><clipPath id="legend2ac16b"><rect width="144" height="67" x="0" y="0"/></clipPath></defs><g class="layer-above"><g class="imagelayer"/><g class="shapelayer"/></g><g class="infolayer"><g class="legend" pointer-events="all" transform="translate(543.98,100)"><rect class="bg" shape-rendering="crispEdges" style="stroke: rgb(68, 68, 68); stroke-opacity: 1; fill: rgb(255, 255, 255); fill-opacity: 1; stroke-width: 0px;" width="144" height="67" x="0" y="0"/><g class="scrollbox" transform="" clip-path="url(#legend2ac16b)"><g class="groups"><g class="traces" transform="translate(0,14.5)" style="opacity: 1;"><text class="legendtext" text-anchor="start" x="40" y="4.680000000000001" style="font-family: 'Open Sans', verdana, arial, sans-serif; font-size: 12px; fill: rgb(42, 63, 95); fill-opacity: 1; white-space: pre;">Realized (in %)</text><g class="layers" style="opacity: 1;"><g class="legendfill"/><g class="legendlines"><path class="js-line" d="M5,0h30" style="fill: none; stroke: rgb(99, 110, 250); stroke-opacity: 1; stroke-width: 2px;"/></g><g class="legendsymbols"><g class="legendpoints"/></g></g><rect class="legendtoggle" x="0" y="-9.5" width="138.71875" height="19" style="fill: rgb(0, 0, 0); fill-opacity: 0;"/></g><g class="traces" transform="translate(0,33.5)" style="opacity: 1;"><text class="legendtext" text-anchor="start" x="40" y="4.680000000000001" style="font-family: 'Open Sans', verdana, arial, sans-serif; font-size: 12px; fill: rgb(42, 63, 95); fill-opacity: 1; white-space: pre;">Effective (in %)</text><g class="layers" style="opacity: 1;"><g class="legendfill"/><g class="legendlines"><path class="js-line" d="M5,0h30" style="fill: none; stroke: rgb(239, 85, 59); stroke-opacity: 1; stroke-width: 2px;"/></g><g class="legendsymbols"><g class="legendpoints"/></g></g><rect class="legendtoggle" x="0" y="-9.5" width="138.71875" height="19" style="fill: rgb(0, 0, 0); fill-opacity: 0;"/></g><g class="traces" transform="translate(0,52.5)" style="opacity: 1;"><text class="legendtext" text-anchor="start" x="40" y="4.680000000000001" style="font-family: 'Open Sans', verdana, arial, sans-serif; font-size: 12px; fill: rgb(42, 63, 95); fill-opacity: 1; white-space: pre;">Half Quoted (in %)</text><g class="layers" style="opacity: 1;"><g class="legendfill"/><g class="legendlines"><path class="js-line" d="M5,0h30" style="fill: none; stroke: rgb(0, 204, 150); stroke-opacity: 1; stroke-width: 2px;"/></g><g class="legendsymbols"><g class="legendpoints"/></g></g><rect class="legendtoggle" x="0" y="-9.5" width="138.71875" height="19" style="fill: rgb(0, 0, 0); fill-opacity: 0;"/></g></g></g><rect class="scrollbar" rx="20" ry="3" width="0" height="0" style="fill: rgb(128, 139, 164); fill-opacity: 1;" x="0" y="0"/></g><g class="g-gtitle"/><g class="g-xtitle"><text class="xtitle" x="336.5" y="487.503125" text-anchor="middle" style="font-family: 'Open Sans', verdana, arial, sans-serif; font-size: 14px; fill: rgb(42, 63, 95); opacity: 1; font-weight: normal; white-space: pre;">Time Steps (ns)</text></g><g class="g-ytitle" transform="translate(24,0)"><text class="ytitle" transform="rotate(-90,12,250)" x="12" y="250" text-anchor="middle" style="font-family: 'Times New Roman'; font-size: 40px; fill: rgb(13, 13, 13); opacity: 1; font-weight: normal; white-space: pre;">Spreads (in %)</text></g></g></svg>