<svg class="main-svg" xmlns="http://www.w3.org/2000/svg" xmlns:xlink="http://www.w3.org/1999/xlink" width="700" height="500" style="" viewBox="0 0 700 500"><rect x="0" y="0" width="700" height="500" style="fill: rgb(255, 255, 255); fill-opacity: 1;"/><defs id="defs-0a24b6"><g class="clips"><clipPath id="clip0a24b6xyplot" class="plotclip"><rect width="399" height="300"/></clipPath><clipPath class="axesclip" id="clip0a24b6x"><rect x="137" y="0" width="399" height="500"/></clipPath><clipPath class="axesclip" id="clip0a24b6y"><rect x="0" y="100" width="700" height="300"/></clipPath><clipPath class="axesclip" id="clip0a24b6xy"><rect x="137" y="100" width="399" height="300"/></clipPath></g><g class="gradients"/><g class="patterns"/></defs><g class="bglayer"><rect class="bg" x="137" y="100" width="399" height="300" style="fill: rgb(229, 236, 246); fill-opacity: 1; stroke-width: 0;"/></g><g class="layer-below"><g class="imagelayer"/><g class="shapelayer"/></g><g class="cartesianlayer"><g class="subplot xy"><g class="layer-subplot"><g class="shapelayer"/><g class="imagelayer"/></g><g class="minor-gridlayer"><g class="x"/><g class="y"/></g><g class="gridlayer"><g class="x"><path class="xgrid crisp" transform="translate(206.05,0)" d="M0,100v300" style="stroke: rgb(255, 255, 255); stroke-opacity: 1; stroke-width: 1px;"/><path class="xgrid crisp" transform="translate(285.36,0)" d="M0,100v300" style="stroke: rgb(255, 255, 255); stroke-opacity: 1; stroke-width: 1px;"/><path class="xgrid crisp" transform="translate(364.68,0)" d="M0,100v300" style="stroke: rgb(255, 255, 255); stroke-opacity: 1; stroke-width: 1px;"/><path class="xgrid crisp" transform="translate(444,0)" d="M0,100v300" style="stroke: rgb(255, 255, 255); stroke-opacity: 1; stroke-width: 1px;"/><path class="xgrid crisp" transform="translate(523.3199999999999,0)" d="M0,100v300" style="stroke: rgb(255, 255, 255); stroke-opacity: 1; stroke-width: 1px;"/></g><g class="y"><path class="ygrid crisp" transform="translate(0,382.91)" d="M137,0h399" style="stroke: rgb(255, 255, 255); stroke-opacity: 1; stroke-width: 1px;"/><path class="ygrid crisp" transform="translate(0,340.03999999999996)" d="M137,0h399" style="stroke: rgb(255, 255, 255); stroke-opacity: 1; stroke-width: 1px;"/><path class="ygrid crisp" transform="translate(0,297.18)" d="M137,0h399" style="stroke: rgb(255, 255, 255); stroke-opacity: 1; stroke-width: 1px;"/><path class="ygrid crisp" transform="translate(0,211.44)" d="M137,0h399" style="stroke: rgb(255, 255, 255); stroke-opacity: 1; stroke-width: 1px;"/><path class="ygrid crisp" transform="translate(0,168.57999999999998)" d="M137,0h399" style="stroke: rgb(255, 255, 255); stroke-opacity: 1; stroke-width: 1px;"/><path class="ygrid crisp" transform="translate(0,125.71000000000001)" d="M137,0h399" style="stroke: rgb(255, 255, 255); stroke-opacity: 1; stroke-width: 1px;"/></g></g><g class="zerolinelayer"><path class="yzl zl crisp" transform="translate(0,254.31)" d="M137,0h399" style="stroke: rgb(255, 255, 255); stroke-opacity: 1; stroke-width: 2px;"/></g><path class="xlines-below"/><path class="ylines-below"/><g class="overlines-below"/><g class="xaxislayer-below"/><g class="yaxislayer-below"/><g class="overaxes-below"/><g class="plot" transform="translate(137,100)" clip-path="url(#clip0a24b6xyplot)"><g class="scatterlayer mlayer"><g class="trace scatter tracedd6749" style="stroke-miterlimit: 2; opacity: 1;"><g class="fills"/><g class="errorbars"/><g class="lines"><path class="js-line" d="M0,158.6L0,162.88L0.12,145.74L0.75,152.17L0.79,152.17L0.88,15L1.55,182.17L1.7,135.02L1.81,175.74L2.46,173.6L2.65,156.45L2.97,135.02L3.27,171.45L3.42,147.88L3.49,154.31L4.01,137.17L4.02,175.74L4.14,145.74L4.15,143.59L4.63,169.31L4.88,147.88L4.93,160.74L5.3,186.46L5.39,139.3L5.71,147.88L5.73,152.17L5.82,160.74L6.12,141.45L6.12,145.74L6.22,160.74L6.47,132.88L6.54,175.74L6.95,160.74L7.05,150.02L7.05,167.17L7.62,139.3L7.68,147.88L7.81,141.45L7.81,137.16L8.19,167.17L8.55,160.74L8.58,147.88L8.61,143.59L8.84,169.31L9.26,150.02L9.36,152.17L9.86,147.88L10.1,160.74L10.11,143.59L10.24,147.88L10.29,143.59L10.33,160.74L10.38,167.17L10.45,143.59L10.95,156.45L10.95,147.88L11.45,141.45L11.46,167.17L11.7,167.17L11.73,150.02L12.03,141.45L12.12,169.31L12.44,160.74L12.54,156.45L12.84,171.46L13.03,135.02L13.26,150.02L13.29,175.74L13.46,182.17L13.64,132.88L14.06,143.59L14.1,165.03L14.4,145.74L14.82,150.02L14.84,160.74L14.9,165.03L15.45,139.31L15.58,147.88L15.58,165.03L15.59,167.17L15.8,145.74L16.3,154.31L16.3,158.6L16.79,165.03L16.81,143.59L17.02,152.17L17.06,160.74L17.61,109.31L17.77,177.88L17.82,167.17L18.46,141.45L18.54,147.88L18.62,160.74L19.12,135.02L19.3,169.31L19.35,158.6L19.38,152.17L20.07,165.03L20.09,141.45L20.26,162.88L20.42,137.16L20.47,165.03L21.03,154.31L21.08,154.31L21.7,171.46L21.75,135.02L21.81,137.16L21.88,135.02L22.57,169.31L22.64,156.45L22.65,143.59L23.22,192.88L23.3,109.3L23.35,145.74L23.43,147.88L23.73,184.32L24.07,141.45L24.27,147.88L24.35,173.6L24.58,141.45L24.91,158.6L24.95,137.16L24.96,169.31L24.98,128.59L25.69,160.74L25.71,160.74L26.02,177.89L26.42,137.17L26.45,139.31L26.48,169.31L26.64,135.02L26.84,171.46L27.25,147.88L27.25,150.02L27.9,182.17L27.97,132.88L27.97,132.88L28.12,154.31L28.14,141.45L28.48,177.89L28.87,160.74L28.88,137.16L28.99,175.74L29,122.16L29.64,156.45L29.65,156.45L29.98,186.45L30.28,130.73L30.34,175.74L30.34,180.03L30.47,135.02L31.09,150.02L31.1,154.31L31.51,124.31L31.62,169.31L31.76,162.88L31.87,152.17L32.09,137.16L32.38,173.6L32.61,152.17L32.64,152.17L33.03,135.02L33.09,173.6L33.33,160.74L33.33,139.31L33.34,182.17L33.36,130.74L34.05,143.6L34.13,165.02L34.68,188.6L34.68,120.02L34.82,143.59L34.87,167.17L35.1,190.73L35.1,117.88L35.62,145.74L35.66,158.6L35.9,167.17L35.92,139.31L36.4,147.88L36.43,154.31L36.73,143.6L36.77,182.17L37.17,154.31L37.19,143.6L37.65,173.59L37.69,117.89L37.92,156.45L37.93,182.16L38.44,132.89L38.52,188.59L38.63,145.74L38.69,162.88L38.92,195.01L39.19,141.45L39.44,160.74L39.49,158.59L39.68,173.59L39.94,139.31L40.15,154.31L40.18,173.59L40.53,177.88L40.83,132.88L40.92,143.6L40.97,158.6L41.03,171.45L41.16,132.88L41.67,147.88L41.71,169.31L41.79,175.74L41.8,135.02L42.38,167.17L42.52,152.17L42.78,137.17L43.19,177.88L43.22,171.45L43.3,152.17L43.76,132.88L43.9,180.03L44.04,154.31L44.06,158.6L44.28,180.02L44.78,120.02L44.78,120.02L44.79,177.88L44.85,180.03L44.87,132.88L45.01,173.6L45.61,165.03L45.65,160.74L45.74,139.31L45.79,169.31L45.79,126.45L46.28,175.74L46.54,156.45L46.63,152.17L46.96,162.88L47.36,143.59L47.37,162.88L47.4,162.88L47.92,186.46L47.94,124.3L48.15,165.02L48.2,160.74L48.93,177.88L48.93,130.74L48.95,145.74L48.98,152.17L48.99,139.31L49.09,169.31L49.74,165.03L49.78,169.32L49.9,124.29L49.99,188.6L50.52,152.17L50.61,156.45L50.87,167.17L51,137.16L51.37,143.59L51.44,156.45L51.8,137.16L51.81,165.03L51.81,177.89L51.82,180.04L52.19,137.16L52.58,150.02L52.59,156.45L52.89,169.32L53.27,122.15L53.31,158.6L53.32,167.17L53.33,177.89L53.86,130.73L54.04,165.03L54.06,145.74L54.47,139.3L54.56,173.6L54.79,165.03L54.82,145.74L54.86,115.72L55.01,186.46L55.52,165.03L55.58,152.17L55.64,128.58L56.07,177.89L56.34,145.73L56.35,150.02L56.4,135.02L56.5,165.03L57.07,147.88L57.11,169.32L57.18,137.16L57.86,152.17L57.88,160.74L57.98,162.89L58.2,139.3L58.64,147.88L58.65,154.31L58.66,132.87L58.69,182.18L59.38,154.31L59.39,162.88L59.73,139.3L59.99,167.17L60.11,158.6L60.2,150.02L60.54,143.59L60.56,167.17L60.6,143.59L60.66,171.46L61.11,132.87L61.34,152.17L61.37,156.45L62.01,169.32L62.09,137.16L62.11,141.45L62.14,141.45L62.7,130.73L62.75,173.61L62.86,154.31L62.9,150.02L62.92,177.89L63.49,132.87L63.65,158.6L63.67,152.17L63.99,143.59L64.08,165.03L64.43,154.31L64.43,150.02L64.64,160.74L64.65,147.88L64.74,150.02L64.74,145.73L64.75,147.88L64.75,171.46L65.46,137.15L65.55,141.44L65.56,147.88L65.85,128.58L66.13,173.61L66.23,145.73L66.27,158.6L66.42,171.46L66.85,135.01L67.04,141.44L67.04,154.31L67.06,132.87L67.08,171.47L67.78,143.59L67.78,165.03L68.32,201.49L68.33,111.41L68.52,158.6L68.54,152.17L68.59,124.28L68.72,167.18L69.28,147.88L69.31,152.17L69.42,171.47L69.83,137.15L70.04,152.17L70.04,143.59L70.07,173.61L70.3,126.43L70.79,143.59L70.8,145.73L71.04,182.19L71.07,137.15L71.53,160.74L71.56,147.88L71.89,173.61L71.91,135.01L72.24,156.45L72.27,150.02L72.37,175.76L72.4,128.57L73.02,152.17L73.06,150.02L73.15,126.43L73.85,182.18L73.88,173.61L73.89,135.01L74.31,165.03L74.63,154.31L74.63,128.58L74.64,124.3L74.83,169.32L75.29,147.88L75.37,147.88L75.77,137.15L76.01,167.18L76.05,141.44L76.17,141.44L76.71,132.86L76.91,171.47L76.95,152.17L76.97,152.17L77.03,135.01L77.35,167.18L77.69,152.17L77.76,156.45L78.31,175.76L78.32,137.15L78.52,150.02L78.53,150.02L78.56,139.3L78.8,171.47L79.28,147.88L79.31,135.01L79.98,169.32L80.08,156.45L80.09,156.45L80.39,167.17L80.74,137.16L80.76,165.03L80.78,173.61L81.47,132.87L81.51,150.02L81.55,150.02L81.65,132.87L82.02,173.61L82.29,158.6L82.34,165.03L82.95,169.32L83.02,115.72L83.12,120.01L83.14,167.17L83.3,128.58L83.35,175.75L83.86,141.44L83.9,141.44L84.11,171.46L84.21,128.58L84.61,169.32L84.71,160.74L84.71,169.32L84.94,139.3L85.46,152.17L85.47,147.88L85.71,173.6L85.73,135.02L86.23,154.31L86.29,152.17L86.36,139.3L86.42,177.89L86.88,141.45L87.06,152.17L87.2,124.3L87.29,197.18L87.79,169.31L87.82,156.45L87.91,173.6L88.34,132.87L88.58,139.3L88.61,160.74L88.73,177.89L88.73,135.02L89.26,147.88L89.26,165.03L89.47,180.03L89.96,137.17L90.02,156.45L90.02,173.6L90.22,135.02L90.23,175.74L90.81,158.6L90.83,152.17L90.91,132.88L91.59,169.31L91.64,162.88L91.7,169.31L91.97,139.31L92.35,162.88L92.4,162.88L92.42,175.74L93.12,130.74L93.15,145.74L93.16,152.17L93.49,141.45L93.59,171.45L93.84,158.6L93.92,150.02L94.03,167.17L94.52,137.17L94.68,156.45L94.7,156.45L95.07,141.45L95.33,173.59L95.36,154.31L95.4,147.88L95.81,137.17L95.92,165.02L95.95,120.03L96.28,190.73L96.7,143.6L96.71,143.6L97.09,124.31L97.12,177.88L97.45,162.88L97.49,150.02L98.11,137.17L98.17,169.31L98.24,150.02L98.26,156.45L98.6,137.17L98.92,167.17L98.97,156.45L99.02,152.17L99.44,135.02L99.45,173.6L99.77,145.74L99.79,158.6L100.36,100.75L100.42,186.44L100.52,160.74L100.55,156.45L100.66,141.45L100.7,171.45L101.3,154.31L101.31,147.88L101.37,135.03L101.46,173.59L102.05,156.45L102.07,139.31L102.55,192.88L102.68,132.88L102.77,169.31L102.84,169.31L103.49,175.74L103.51,139.31L103.59,165.02L103.59,173.6L103.63,120.02L103.88,175.74L104.33,165.02L104.46,152.17L104.59,141.45L105.15,165.02L105.23,158.6L105.23,143.6L105.69,135.03L105.89,171.45L105.95,156.45L105.97,143.6L106.41,124.31L106.42,186.45L106.67,156.45L106.71,145.74L106.86,171.45L107.04,143.6L107.44,165.02L107.46,143.6L107.49,137.17L107.88,173.6L108.2,158.6L108.24,158.6L108.73,139.31L108.85,177.87L108.97,147.88L109.03,150.03L109.56,126.46L109.69,192.86L109.74,167.16L109.79,145.74L110.29,128.6L110.36,180.02L110.46,162.88L110.46,137.17L110.46,135.03L110.57,177.88L111.16,152.17L111.24,130.74L111.27,175.74L111.99,147.88L112.02,165.02L112.17,128.6L112.45,173.6L112.5,150.02L112.5,182.17L112.86,143.6L113.29,147.88L113.29,158.6L113.69,122.17L113.88,184.31L114.01,165.02L114.02,167.17L114.59,175.73L114.64,132.89L114.75,143.6L114.79,152.17L115.06,107.18L115.1,222.85L115.54,173.59L115.58,173.59L116.2,128.6L116.35,158.6L116.39,158.6L116.98,141.45L117.08,186.45L117.11,186.44L117.15,156.45L117.31,188.59L117.6,135.03L117.88,162.88L117.9,145.74L118.19,180.02L118.68,160.74L118.74,152.17L118.77,175.73L119.37,139.31L119.43,175.73L119.54,137.17L119.54,128.6L119.54,182.16L120.29,162.88L120.35,160.74L120.39,126.46L120.51,195.01L121.1,152.17L121.12,156.45L121.22,162.88L121.35,141.46L121.36,132.89L121.41,227.13L121.42,79.33L122.06,173.59L122.12,169.31L122.76,130.74L122.76,184.31L122.88,158.6L122.91,150.02L123.15,186.45L123.23,100.75L123.66,156.45L123.66,137.17L123.87,128.6L123.88,180.02L124.35,165.02L124.43,152.17L124.67,165.03L124.92,143.59L125.08,156.45L125.17,165.02L125.21,141.45L125.67,171.45L125.88,145.74L125.93,150.02L126.55,175.74L126.64,137.16L126.68,147.88L126.7,156.45L126.76,177.89L126.78,135.02L127.36,150.02L127.37,167.17L127.42,169.31L127.65,132.88L128.11,154.31L128.12,167.17L128.51,182.17L128.69,126.45L128.93,135.02L128.97,165.02L129.52,126.45L129.58,173.6L129.71,162.88L129.74,162.88L129.99,173.6L130.53,137.17L130.54,152.17L130.74,175.74L131.08,132.88L131.28,156.45L131.29,165.03L131.51,173.6L131.57,122.16L132,147.88L132.05,152.17L132.31,107.16L132.43,192.88L132.79,150.02L132.83,156.45L133.02,135.02L133.25,169.31L133.57,152.17L133.59,152.17L133.94,139.31L134.03,173.6L134.31,143.59L134.41,150.02L134.52,171.46L134.91,135.02L135.12,165.03L135.17,143.59L135.47,175.74L135.6,130.73L135.93,156.45L135.95,156.45L136.03,128.59L136.14,177.88L136.22,150.02L136.23,203.6L136.24,113.59L136.98,158.6L137.01,150.02L137.09,184.31L137.31,130.73L137.73,143.59L137.74,165.03L137.94,141.45L138.47,152.17L138.52,152.17L138.54,162.88L138.64,135.02L139.25,156.45L139.28,156.45L139.41,177.89L139.73,141.45L139.98,145.74L140.05,162.88L140.28,167.17L140.31,141.45L140.79,150.02L140.82,162.88L141.56,139.31L141.64,152.17L141.64,158.6L142.29,126.45L142.39,169.31L142.4,169.31L142.57,171.45L142.58,130.74L143.16,152.17L143.18,143.59L143.56,162.89L143.6,137.16L143.82,158.6L143.96,156.45L144.47,124.3L144.49,180.03L144.66,137.16L144.72,137.16L145.32,201.48L145.44,104.98L145.46,135.01L145.51,145.73L145.55,137.16L146.04,175.75L146.24,160.74L146.28,137.16L146.99,180.04L147.03,141.45L147.07,160.74L147.18,130.73L147.67,152.17L147.69,156.45L147.98,167.17L147.99,139.31L148.12,152.17L148.12,180.03L148.14,120.01L148.87,162.88L148.89,150.02L149.1,162.88L149.53,137.16L149.62,150.02L149.66,145.74L150.03,139.31L150.39,175.74L150.4,139.31L150.41,139.3L150.63,130.73L150.68,158.6L150.77,132.87L150.77,165.03L151.1,184.32L151.16,115.73L151.5,165.03L151.53,156.45L151.76,137.16L151.98,165.03L152.1,150.02L152.1,165.03L152.36,171.46L152.84,135.02L152.91,132.88L152.93,130.73L153.53,167.17L153.63,154.31L153.7,150.02L153.82,171.46L153.83,132.88L154.17,147.88L154.19,141.45L154.71,184.32L154.76,124.3L154.94,171.46L154.97,154.31L155.18,137.16L155.61,173.6L155.69,150.02L155.71,51.44L155.91,195.02L156.45,143.6L156.49,158.6L156.55,132.88L156.78,177.88L156.84,141.45L157.3,177.88L157.5,137.16L157.56,167.17L157.67,162.88L157.71,137.17L157.9,171.45L158.39,143.6L158.44,156.45L159.14,113.59L159.15,199.31L159.2,162.88L159.57,143.6L159.63,175.74L159.94,156.45L159.96,156.45L160.35,175.74L160.49,137.17L160.5,171.45L160.62,182.17L160.62,120.02L160.9,169.31L160.91,186.45L161.07,135.03L161.65,190.74L161.68,186.45L161.68,192.88L162.08,132.88L162.43,141.45L162.44,165.02L163.09,126.45L163.14,175.74L163.14,175.74L163.17,171.45L163.63,173.6L163.9,135.02L163.91,173.6L163.92,173.6L164.62,141.45L164.71,147.88L164.74,160.74L164.97,135.02L165,173.6L165.49,152.17L165.52,156.45L165.67,180.03L165.99,139.31L166.21,150.02L166.21,160.74L166.22,135.02L166.26,171.46L166.95,141.45L166.97,165.03L167.02,143.59L167.74,150.02L167.74,162.88L167.93,132.88L168.33,177.88L168.45,152.17L168.47,156.45L168.91,143.6L169.03,175.74L169.2,158.6L169.23,158.6L169.89,263.62L169.93,74.99L170.02,143.59L170.5,68.61L170.72,246.4L170.77,227.13L170.8,147.88L170.83,124.32L171.14,186.45L171.55,150.02L171.56,165.03L171.69,180.03L171.83,124.3L172.29,158.6L172.33,147.88L172.69,120.02L172.71,188.6L173.03,143.59L173.14,147.88L173.38,177.89L173.43,128.58L173.9,171.46L173.91,137.16L174.65,171.46L174.69,141.45L175.15,130.73L175.41,173.6L175.44,150.02L175.46,173.6L175.64,195.04L175.82,130.72L176.23,147.88L176.29,150.02L176.79,135.01L176.81,177.9L177.04,152.17L177.06,152.17L177.44,137.16L177.73,175.75L177.75,143.59L177.78,143.59L177.85,173.61L178.48,150.02L178.56,145.73L178.72,126.44L179.21,173.61L179.29,139.3L179.32,152.17L179.46,130.72L179.49,171.46L180.05,132.87L180.08,167.18L180.08,188.62L180.65,104.99L180.83,167.17L180.84,141.45L180.9,184.33L180.96,122.15L181.57,158.6L181.63,158.6L181.71,130.72L181.98,169.32L182.32,147.88L182.34,156.45L182.6,171.46L182.67,135.01L183.06,139.3L183.07,160.74L183.26,139.3L183.76,173.61L183.77,165.03L183.83,152.17L184.41,173.61L184.42,135.01L184.52,141.44L184.82,126.43L185.07,184.33L185.22,150.02L185.22,132.87L185.79,175.76L185.97,152.17L185.98,156.45L186.17,137.15L186.27,171.47L186.69,145.73L186.71,167.18L187.25,139.3L187.44,141.44L187.48,160.74L187.9,169.32L187.96,135.01L188.07,156.45L188.08,169.32L188.37,141.44L188.98,150.02L189.07,158.6L189.44,124.29L189.63,180.04L189.75,160.74L189.75,173.6L189.97,180.03L190.04,139.3L190.34,154.31L190.4,143.59L190.68,177.89L191.06,126.44L191.13,158.6L191.19,156.45L191.4,173.61L191.47,124.29L191.86,171.46L191.88,143.59L191.89,175.75L191.92,126.43L192.63,156.45L192.64,150.02L192.66,120L192.78,182.19L193.39,165.03L193.45,175.75L194.1,180.04L194.15,126.44L194.18,173.61L194.22,132.87L194.86,173.61L194.97,169.32L195,139.3L195.27,135.01L195.74,182.18L195.75,177.89L195.79,143.59L195.97,128.58L196.22,169.32L196.52,150.02L196.54,147.88L197,128.58L197.02,182.19L197.29,175.75L197.32,143.59L197.5,132.87L198.01,169.32L198.06,139.3L198.12,162.89L198.49,175.75L198.74,141.44L198.86,141.44L198.9,147.88L199.14,175.75L199.44,128.58L199.64,143.59L199.66,143.59L199.96,180.04L199.96,122.15L200.4,145.73L200.44,150.02L201.04,124.29L201.1,167.18L201.21,156.45L201.63,182.18L201.9,117.86L201.96,143.59L202.01,167.17L202.09,130.72L202.7,154.31L202.74,156.45L203.17,171.46L203.35,137.16L203.48,152.17L203.48,162.89L204.12,128.58L204.19,192.89L204.23,158.6L204.25,154.31L204.34,195.04L204.57,145.73L204.73,152.17L204.81,152.17L205.21,145.73L205.27,171.46L205.28,139.3L205.31,128.58L205.96,175.75L206.03,132.87L206.04,156.45L206.59,122.14L206.65,186.48L206.73,126.43L206.82,167.18L206.88,177.9L206.92,128.57L207.45,165.03L207.46,143.59L207.9,175.75L207.96,130.73L208.2,147.88L208.25,169.32L208.59,128.58L208.8,184.33L208.98,167.18L209.02,162.89L209.21,124.29L209.22,182.18L209.79,132.87L209.8,177.9L209.95,115.71L210.35,190.76L210.52,167.18L210.58,160.74L210.66,130.72L210.82,171.46L211.15,156.45L211.19,156.45L211.22,117.86L211.7,233.6L211.94,184.32L211.96,180.04L211.96,197.19L212.49,132.87L212.71,150.02L212.72,139.3L213.21,137.15L213.45,173.61L213.45,154.31L213.46,141.44L213.84,126.43L213.84,182.19L214.13,156.45L214.27,150.02L214.37,139.3L214.43,173.61L215,150.02L215.06,150.02L215.55,162.89L215.7,139.3L215.71,162.89L215.71,165.03L216.33,175.76L216.34,132.86L216.46,147.88L216.48,156.45L216.65,165.03L216.72,152.17L216.73,199.35L217.36,128.57L217.45,156.45L217.53,167.18L217.55,128.57L217.98,214.38L218.28,160.75L218.32,160.75L218.59,165.04L218.69,141.44L219.04,143.58L219.09,143.58L219.18,167.18L219.31,139.29L219.84,147.87L219.84,139.29L219.95,117.84L219.99,192.92L220.56,162.89L220.61,158.6L221.04,171.47L221.15,130.72L221.29,158.6L221.37,158.6L221.77,165.04L221.97,141.44L222.11,150.02L222.12,167.18L222.45,141.44L222.47,169.33L222.88,152.16L222.91,150.02L223.33,135L223.49,173.62L223.64,150.02L223.69,152.16L224.22,173.62L224.31,135L224.4,152.16L224.48,152.16L224.72,141.44L224.77,165.04L225.09,158.6L225.12,150.02L225.47,182.21L225.7,135L225.87,165.04L225.93,139.29L226.52,180.05L226.59,126.42L226.64,143.58L226.66,162.89L226.74,171.47L226.8,124.28L227.41,160.74L227.5,147.88L227.85,117.84L227.87,190.78L228.22,130.71L228.3,152.16L228.84,167.18L228.85,132.86L229.03,150.02L229.06,152.16L229.37,137.15L229.59,177.91L229.64,141.44L229.64,132.86L230.42,171.47L230.42,162.89L231.04,180.06L231.09,132.85L231.11,154.31L231.18,156.46L231.27,171.47L231.39,132.85L231.93,162.89L231.97,145.73L232.16,117.84L232.44,175.77L232.7,165.04L232.72,139.29L232.91,169.33L233.07,132.85L233.47,147.87L233.53,154.31L233.62,167.18L234.04,135L234.24,152.16L234.29,150.02L234.86,192.94L234.9,119.96L235.04,171.48L235.15,139.28L235.18,182.21L235.23,124.26L235.9,173.62L235.91,130.7L235.92,128.56L235.95,180.06L236.54,154.31L236.54,162.89L236.55,145.73L237.27,160.75L237.3,158.6L237.47,175.77L237.61,130.71L238.02,158.6L238.04,158.6L238.15,171.48L238.54,115.68L238.77,158.6L238.91,150.02L239.21,126.4L239.39,171.48L239.65,169.33L239.71,152.16L240.22,130.7L240.4,188.65L240.45,158.6L240.45,124.26L240.76,173.63L241.13,165.04L241.17,132.84L241.78,177.92L241.86,156.46L241.88,141.43L242.02,119.96L242.13,184.36L242.57,169.33L242.64,139.29L242.78,171.48L243.25,98.53L243.39,188.63L243.58,126.42L244.18,139.29L244.2,160.75L244.58,167.19L244.59,130.7L244.92,154.31L244.92,175.77L245.27,132.85L245.7,152.16L245.71,150.02L245.94,162.9L245.96,139.28L246.47,160.75L246.48,147.87L247.05,122.11L247.07,186.51L247.24,152.16L247.26,154.31L247.64,195.1L247.64,115.67L247.99,182.22L248.02,141.43L248.33,171.48L248.7,134.99L248.76,162.9L248.76,139.28L248.76,130.69L248.89,180.08L249.44,147.87L249.53,152.16L249.78,124.26L250.25,165.04L250.26,147.87L250.27,147.87L250.66,173.63L250.8,134.99L251.06,167.19L251.06,145.72L251.18,165.04L251.76,135L251.84,143.58L252.37,107.08L252.53,167.19L252.59,160.75L252.64,156.46L252.98,162.9L253.38,147.87L253.41,147.87L253.99,175.77L254.01,141.43L254.02,141.43L254.03,137.14L254.69,167.19L254.73,147.87L254.79,147.87L254.91,128.55L255.05,169.34L255.49,150.02L255.55,150.02L255.68,173.63L255.69,128.55L256.3,137.14L256.34,137.14L256.9,180.07L257.13,156.46L257.16,152.16L257.57,177.92L257.62,130.7L257.86,152.16L257.92,150.02L258.21,130.7L258.26,177.92L258.65,150.02L258.65,147.87L258.66,130.7L258.81,186.51L259.4,143.58L259.42,139.29L260.1,126.41L260.11,182.21L260.12,134.99L260.18,147.87L260.56,173.63L260.68,134.99L260.9,156.46L260.94,158.6L261.45,130.7L261.54,180.07L261.7,150.02L261.7,162.9L261.77,177.92L261.78,130.7L262.39,162.9L262.5,152.16L262.75,171.48L262.95,139.28L263.22,152.16L263.27,173.63L263.61,126.4L264,162.9L264.08,156.46L264.19,160.75L264.26,139.28L264.84,152.16L264.87,156.46L264.89,115.68L265.33,167.19L265.61,158.6L265.66,147.87L265.7,96.37L265.73,212.23L266.41,139.29L266.48,147.87L266.73,177.92L266.76,132.85L267.24,156.46L267.25,152.16L267.5,173.62L267.75,134.99L268.02,156.46L268.06,147.87L268.38,139.29L268.52,169.33L268.8,165.04L268.81,143.58L269.36,128.56L269.43,173.62L269.55,158.6L269.56,152.16L269.66,132.85L269.77,175.77L270.08,137.14L270.11,137.14L270.32,171.48L270.38,135L270.76,162.89L270.77,145.73L270.93,173.62L270.94,143.58L271.45,150.02L271.47,145.73L271.88,137.14L271.94,173.63L272.22,150.02L272.23,154.31L272.52,180.06L272.65,132.85L272.96,137.14L273.03,137.14L273.1,182.21L273.16,124.26L273.78,156.46L273.84,152.16L273.91,177.92L274.37,139.29L274.58,145.73L274.6,156.46L274.62,128.56L274.87,180.06L275.3,152.16L275.37,154.31L275.48,173.62L275.91,147.87L275.95,152.16L276.01,162.89L276.14,167.18L276.26,139.29L276.75,143.58L276.78,165.04L276.91,169.33L277.01,141.44L277.54,156.46L277.54,162.89L277.7,180.06L277.99,128.57L278.29,135L278.3,162.89L278.53,186.49L278.88,130.71L279.04,177.91L279.07,162.89L279.16,169.33L279.3,135L279.78,150.02L279.78,158.6L280.29,188.63L280.31,111.41L280.49,154.31L280.51,160.74L280.69,132.86L280.88,171.47L280.88,171.47L280.96,169.33L280.99,173.62L281.05,132.86L281.68,139.29L281.73,167.18L282,186.49L282.24,124.28L282.46,154.31L282.51,165.04L282.51,169.33L282.74,141.44L283.25,160.74L283.31,152.17L283.66,175.76L284.03,139.29L284.08,147.87L284.72,165.04L284.81,143.58L284.82,165.04L285.53,169.33L285.54,135L285.61,162.89L285.87,117.84L285.89,192.93L286.36,141.44L286.4,165.04L286.4,180.06L287,132.85L287.15,169.33L287.19,143.58L287.23,169.33L287.95,150.02L287.98,160.75L288.24,167.18L288.26,139.29L288.48,156.46L288.49,167.18L288.69,173.62L289,124.27L289.23,169.33L289.3,169.33L289.34,173.62L289.43,150.02L289.82,152.16L289.82,143.58L290.13,135L290.57,195.08L290.59,145.73L290.64,119.97L290.7,190.79L291.33,156.46L291.36,154.31L291.42,186.49L291.72,126.42L292.09,150.02L292.13,150.02L292.21,143.58L292.56,177.91L292.84,147.87L292.9,147.87L293.12,132.86L293.37,175.76L293.5,147.87L293.5,143.58L293.51,141.44L294.2,167.18L294.26,152.16L294.34,173.62L294.39,137.14L294.97,150.02L295.03,152.16L295.5,141.43L295.53,175.77L295.7,152.16L295.73,152.16L295.76,141.43L295.79,177.92L296.43,158.6L296.45,147.87L296.71,184.35L297.17,128.56L297.21,165.04L297.62,130.71L297.62,177.91L297.94,162.89L297.98,154.31L298.66,177.92L298.71,137.14L298.73,167.19L298.77,156.46L299.39,173.62L299.51,139.29L299.53,167.19L299.72,177.92L299.91,137.14L300.24,156.46L300.29,167.18L300.35,169.33L301.03,128.56L301.06,160.75L301.16,171.47L301.22,107.1L301.22,111.4L301.25,197.22L301.41,113.53L302.01,150.02L302.04,147.87L302.05,167.18L302.31,139.29L302.72,150.02L302.73,147.87L303.19,165.04L303.38,135L303.46,162.89L303.49,156.46L303.72,184.35L303.73,124.27L303.81,180.06L303.81,184.35L304.65,137.14L304.66,145.73L304.66,124.27L304.85,190.78L305.36,150.02L305.48,145.73L305.79,141.44L306.15,165.04L306.26,156.46L306.27,152.16L306.53,180.06L306.88,128.56L307.01,150.02L307.03,160.75L307.14,169.33L307.19,139.29L307.69,158.6L307.8,158.6L307.89,160.75L308.19,145.73L308.21,162.89L308.25,169.33L308.3,124.28L308.97,128.57L308.99,162.89L309.02,132.86L309.05,180.05L309.7,147.87L309.72,147.87L309.96,182.2L310.43,132.86L310.47,160.75L310.48,152.16L310.53,186.48L311.07,130.71L311.19,152.16L311.24,165.03L311.68,135.01L311.7,188.62L311.99,156.45L312,156.45L312.71,190.77L312.73,109.26L312.76,128.57L313.33,222.91L313.34,92.13L313.56,207.92L313.57,124.29L314.09,111.42L314.11,190.76L314.34,169.32L314.39,143.59L314.73,184.33L315.14,126.43L315.14,154.31L315.2,139.3L315.37,182.19L315.42,111.41L316.02,169.32L316.02,139.3L316.11,135.01L316.32,171.47L316.79,154.31L316.8,143.59L317.17,177.9L317.22,132.87L317.51,143.59L317.54,143.59L318.08,182.19L318.15,132.86L318.33,165.03L318.37,152.17L318.45,139.3L318.74,180.05L319.11,165.03L319.15,152.17L319.2,150.02L319.22,175.76L319.24,135.01L319.28,113.55L319.68,177.9L319.99,152.17L320.02,145.73L320.35,132.87L320.63,173.61L320.67,137.16L320.78,167.18L320.78,184.33L321.4,139.3L321.52,147.88L321.6,152.17L321.72,128.58L322.13,177.9L322.25,158.6L322.25,135.01L322.91,173.61L323,143.58L323.02,147.87L323.59,184.33L323.61,124.29L323.7,128.57L323.71,120L324.19,180.05L324.43,160.74L324.47,147.88L325.02,199.33L325.09,117.86L325.22,169.32L325.26,156.45L325.84,180.04L325.86,124.29L325.92,177.9L326.03,158.6L326.46,90.02L326.68,216.47L326.78,132.87L326.81,150.02L327.2,130.73L327.21,184.32L327.54,158.6L327.58,156.45L328.1,171.46L328.17,130.72L328.33,165.03L328.41,165.03L328.69,190.76L328.98,141.45L329.16,162.88L329.3,152.17L329.79,182.17L329.88,139.31L329.98,167.17L329.99,145.74L330.06,182.18L330.25,137.16L330.71,152.17L330.79,154.31L331.24,135.02L331.36,171.46L331.51,162.88L331.55,145.74L331.62,137.16L331.98,173.6L332.3,141.45L332.33,141.45L332.77,167.17L332.84,132.88L333.07,145.74L333.12,139.3L333.2,184.32L333.43,135.02L333.87,143.59L333.88,143.59L333.88,135.02L334.58,167.17L334.62,145.73L334.66,158.6L334.66,171.46L335.32,141.45L335.45,145.74L335.66,143.59L336.02,171.46L336.13,169.31L336.24,143.59L336.36,180.03L336.46,128.59L336.93,145.74L337,156.45L337.44,186.47L337.54,130.73L337.75,156.45L337.75,169.31L338.18,184.32L338.32,137.16L338.43,158.6L338.52,152.17L338.65,143.59L339.14,173.6L339.21,167.17L339.33,145.73L339.33,175.75L339.5,130.73L340.02,150.02L340.09,162.88L340.34,137.16L340.44,167.17L340.46,162.88L340.46,188.61L340.83,130.73L341.26,158.6L341.28,165.03L341.33,167.17L341.92,132.87L342.03,143.59L342.04,141.45L342.42,171.46L342.79,165.03L342.81,165.03L343.3,130.73L343.31,175.75L343.56,160.74L343.59,165.03L343.86,171.46L343.91,128.58L344.31,156.45L344.41,156.45L344.79,135.01L344.81,175.75L345.13,150.02L345.16,150.02L345.26,139.3L345.74,180.04L345.84,160.74L345.85,147.88L346.37,182.18L346.44,137.16L346.58,169.32L346.6,145.73L347.16,139.3L347.21,171.46L347.3,147.88L347.36,154.31L347.86,177.89L348.09,126.44L348.09,126.44L348.15,128.58L348.15,124.29L348.75,177.89L348.9,165.03L348.92,152.17L349.39,132.87L349.39,177.89L349.64,143.59L349.64,162.89L349.8,169.32L350.42,130.73L350.44,167.17L350.58,128.58L350.84,182.18L351.15,145.73L351.18,167.17L351.26,171.46L351.58,143.59L351.8,152.17L351.93,152.17L352.38,171.47L352.39,135.01L352.64,154.31L352.64,143.59L352.92,135.01L353.32,182.18L353.38,156.45L353.4,156.45L353.96,177.9L353.97,130.72L354.13,152.17L354.19,152.17L354.26,171.47L354.3,132.86L354.93,152.17L354.95,156.45L355.03,141.44L355.32,171.46L355.67,150.02L355.73,154.31L355.96,162.89L356.11,143.59L356.13,150.02L356.14,171.47L356.8,147.88L356.82,165.03L356.9,143.59L356.94,186.48L356.95,122.14L357.15,173.61L357.71,137.15L357.75,132.86L357.78,171.47L358.34,124.28L358.5,158.6L358.51,143.59L359.03,137.15L359.14,171.47L359.22,154.31L359.29,158.6L359.35,180.05L359.36,128.57L360,152.17L360.07,158.6L360.43,177.9L360.72,132.86L360.76,167.18L361.13,130.72L361.4,147.88L361.4,171.46L361.45,195.05L361.51,122.14L362.11,150.02L362.18,154.31L362.7,162.89L362.73,143.59L362.73,139.3L363.12,175.76L363.41,137.15L363.48,139.3L363.48,135.01L363.52,130.72L364.21,167.18L364.32,156.45L364.33,147.88L364.48,141.44L364.84,169.32L365.08,160.74L365.1,169.32L365.75,192.95L365.82,104.95L365.86,152.16L365.92,152.16L366.31,128.57L366.52,167.18L366.63,150.02L366.71,150.02L366.82,126.43L366.93,182.19L367.4,169.32L367.52,150.02L367.8,167.18L367.95,141.44L368.25,158.6L368.4,152.17L368.49,130.72L368.5,177.9L369.14,147.88L369.17,145.73L369.61,104.99L369.71,220.77L369.9,113.57L369.9,104.99L370.37,173.61L370.65,145.73L370.7,162.89L370.96,175.75L370.97,132.87L371.43,145.73L371.46,167.18L372.09,175.76L372.11,135.01L372.16,156.45L372.22,152.17L372.5,135.01L372.67,173.61L372.93,154.31L372.94,137.15L373.38,98.54L373.47,190.77L373.67,152.17L373.7,124.29L373.76,184.33L374.45,177.9L374.48,150.02L374.84,115.71L374.84,188.63L375.2,158.6L375.26,152.17L375.56,128.57L375.84,171.47L376.01,137.15L376.02,167.18L376.05,175.76L376.07,126.43L376.7,169.32L376.74,139.3L376.78,175.76L376.83,126.43L377.33,165.03L377.33,135.01L377.82,173.61L378.04,152.17L378.09,152.17L378.15,171.47L378.75,135.01L378.84,158.6L378.88,154.31L379.35,175.76L379.36,124.29L379.66,141.44L379.68,145.73L379.91,171.47L379.92,137.15L380.39,147.88L380.49,160.74L381.06,182.19L381.17,135.01L381.24,150.02L381.26,147.88L381.6,175.75L381.67,128.58L382.01,158.6L382.02,147.88L382.36,173.61L382.57,137.16L382.75,158.6L382.78,169.32L383.1,188.62L383.11,120L383.53,156.45L383.54,156.45L383.64,175.75L383.66,137.16L384.29,162.89L384.3,167.18L384.37,173.61L384.56,122.15L385.05,154.31L385.07,152.17L385.15,143.59L385.49,180.03L385.82,154.31L385.84,154.31L386.07,175.75L386.12,132.87L386.4,156.45L386.4,184.32L387.07,117.86L387.16,167.17L387.18,158.6L387.41,169.32L387.45,139.3L387.71,152.17L387.71,173.6L388.35,137.16L388.39,175.75L388.46,147.88L388.5,152.17L388.54,182.18L388.7,137.16L389.25,158.6L389.28,156.45L389.41,171.46L389.43,132.87L389.99,143.59L390.04,150.02L390.73,141.45L390.84,188.61L390.84,177.89L390.84,171.46L390.95,132.87L391.04,207.89L391.05,109.29L391.12,199.32L391.8,158.6L391.85,139.3L391.88,188.62L392.59,173.61L392.61,145.73L392.61,124.29L393.32,182.18L393.35,175.75L393.39,177.89L393.89,135.02L394.14,173.6L394.18,156.45L394.38,186.46L394.63,130.73L394.84,169.31L394.87,173.6L395.06,177.89L395.1,137.16L395.25,162.88L395.25,175.74L395.54,177.89L395.57,141.45L396,141.45L396.01,156.45L396.09,124.3L396.1,182.18L396.74,158.6L396.74,147.88L397.09,132.87L397.25,188.62L397.49,152.17L397.5,152.17L398.07,132.87L398.13,180.04L398.22,162.89L398.27,158.6L398.72,210.05L398.76,100.72L399,169.32L399,190.76" style="vector-effect: non-scaling-stroke; fill: none; stroke: rgb(99, 110, 250); stroke-opacity: 1; stroke-width: 2px; opacity: 1;"/></g><g class="points"/><g class="text"/></g><g class="trace scatter tracefbb6dd" style="stroke-miterlimit: 2; opacity: 1;"><g class="fills"/><g class="errorbars"/><g class="lines"><path class="js-line" d="M0,147.88L0,145.74L0.12,162.88L0.75,156.45L0.79,156.45L0.92,285L1.44,115.74L1.49,205.73L1.55,126.45L2.26,158.6L2.3,169.31L2.33,171.45L2.46,135.02L2.77,152.17L2.82,147.88L3.27,171.45L3.27,137.17L3.54,156.45L3.58,156.45L4.01,171.45L4.02,132.88L4.33,156.45L4.33,160.74L4.66,139.31L4.68,165.03L5.03,150.02L5.03,158.6L5.35,128.59L5.38,182.18L5.8,150.02L5.81,160.74L6.47,175.74L6.54,132.88L6.6,156.45L7.05,141.45L7.2,165.03L7.31,162.88L7.38,147.88L7.62,169.32L7.68,139.3L7.81,169.31L7.81,171.46L8.19,141.45L8.62,156.45L8.63,167.17L8.84,139.31L9.36,158.6L9.42,152.17L9.9,145.74L10.24,165.03L10.29,165.03L10.99,137.16L11.06,147.88L11.08,160.74L11.45,167.17L11.8,139.31L11.81,158.6L11.93,147.88L12.12,139.31L12.15,169.31L12.7,156.45L12.73,156.45L13.03,173.59L13.46,126.45L13.53,160.74L14.1,143.59L14.21,167.17L14.31,152.17L14.4,162.88L14.9,143.59L14.94,167.17L15.45,169.31L15.59,141.45L15.74,160.74L15.79,162.88L16.23,147.88L16.32,158.6L16.36,162.88L16.49,169.31L16.51,145.74L17.09,158.6L17.13,152.17L17.61,199.31L17.61,137.17L17.77,156.45L17.82,139.31L18.46,167.17L18.54,160.74L18.62,147.88L19.12,173.6L19.3,139.31L19.38,156.45L19.39,156.45L20.07,143.59L20.09,167.17L20.26,156.45L20.42,171.46L20.67,141.45L21.01,156.45L21.03,152.17L21.08,141.45L21.55,165.03L21.65,156.45L21.68,139.31L21.7,137.16L21.75,173.6L22.43,152.17L22.52,152.17L22.67,139.31L22.69,177.88L23.03,147.88L23.05,160.74L23.2,115.73L23.3,199.32L23.72,162.88L23.73,122.16L24.07,167.17L24.46,160.74L24.58,167.17L24.9,135.02L24.98,180.03L25.32,152.17L25.35,167.17L26.02,128.59L26.11,145.74L26.17,152.17L26.64,173.6L26.94,137.16L26.95,156.45L27.32,139.31L27.55,167.17L27.63,147.88L27.67,147.88L27.9,126.45L27.97,175.74L28.45,162.88L28.48,162.88L28.5,128.59L29,188.6L29.17,145.74L29.25,145.74L29.29,169.31L29.9,126.45L29.98,156.45L30.28,177.89L30.34,128.59L30.72,150.02L30.74,158.6L30.8,167.17L30.88,143.59L31.41,162.88L31.51,165.03L31.92,135.02L32.07,175.74L32.26,156.45L32.3,156.45L32.69,139.31L32.71,173.6L32.85,156.45L32.85,145.74L33.34,126.45L33.36,177.88L33.57,130.74L33.59,130.74L33.59,177.88L34.34,162.88L34.36,152.17L34.68,120.02L34.68,192.89L35.02,182.17L35.07,126.45L35.07,122.17L35.1,195.02L35.8,167.17L35.87,152.17L35.92,171.45L36.32,139.31L36.52,162.88L36.62,160.74L36.77,124.31L37.2,173.6L37.36,150.02L37.38,158.6L37.69,197.16L37.98,124.32L38.13,145.74L38.15,162.88L38.44,184.3L38.52,111.46L38.85,145.74L38.92,162.88L39.19,167.17L39.34,135.03L39.69,139.31L39.74,139.31L40.21,169.31L40.44,145.74L40.44,141.46L40.53,130.74L41.16,175.74L41.22,158.6L41.29,169.31L41.93,139.31L41.97,147.88L41.99,160.74L42.28,167.17L42.29,137.16L42.73,143.6L42.74,162.88L42.78,173.6L43.19,130.74L43.5,150.02L43.51,158.6L43.9,128.59L43.9,180.03L44.27,135.02L44.27,150.02L44.78,192.88L44.79,115.74L45,158.6L45.01,135.02L45.12,177.88L45.74,162.88L45.77,139.31L45.79,182.17L46.28,132.88L46.5,150.02L46.54,156.45L46.63,160.74L46.79,150.02L46.88,150.02L46.88,147.88L47.4,167.17L47.59,137.16L47.63,158.6L47.66,150.02L47.92,122.16L47.92,190.74L48.41,152.17L48.42,152.17L48.93,130.74L48.93,177.88L49.15,169.31L49.18,152.17L49.33,169.31L49.36,141.45L49.67,165.03L49.72,165.03L49.72,188.6L49.98,120.02L50.44,143.59L50.48,143.59L51.24,171.46L51.27,158.6L51.8,171.46L51.82,128.58L51.99,156.45L52.06,150.02L52.15,171.46L52.79,143.59L52.81,156.45L52.84,156.45L52.89,145.73L53.28,186.47L53.31,150.02L53.31,143.59L53.33,135.01L53.81,173.61L54.07,162.88L54.09,152.17L54.47,169.32L54.56,135.02L54.82,165.03L54.84,141.45L54.92,192.9L55.01,122.16L55.59,152.17L55.6,156.45L55.64,180.04L56.07,130.73L56.28,139.3L56.32,177.89L57.04,143.59L57.07,152.17L57.11,156.45L57.11,171.46L57.72,137.16L57.86,158.6L57.88,147.88L57.99,141.45L58.17,167.17L58.61,165.03L58.64,150.02L58.66,175.75L58.68,132.87L59.38,145.73L59.39,158.6L59.73,169.32L59.99,141.45L60.11,150.02L60.2,158.6L60.35,139.3L60.47,162.89L60.56,141.45L60.6,167.17L60.96,137.16L61.11,175.75L61.37,147.88L61.43,147.88L62.01,137.16L62.1,171.46L62.17,158.6L62.2,173.61L62.7,177.89L62.92,130.73L63.01,156.45L63.03,156.45L63.53,135.01L63.58,173.61L63.67,158.6L63.75,147.88L64.01,165.03L64.08,143.59L64.55,158.6L64.57,158.6L64.86,169.32L64.87,139.3L65.31,160.74L65.33,156.45L65.85,180.04L66,137.16L66.05,152.17L66.11,156.45L66.11,132.87L66.85,173.61L66.85,169.32L66.89,152.17L67.06,175.75L67.08,137.15L67.59,156.45L67.67,156.45L67.83,141.44L68.28,177.9L68.32,156.45L68.33,197.21L68.52,137.15L69.14,147.88L69.21,156.45L69.42,137.15L69.83,171.47L69.96,152.17L69.97,160.74L70.11,177.9L70.12,141.44L70.22,147.88L70.29,141.44L70.3,182.19L71.04,126.43L71.04,132.86L71.07,160.74L71.07,171.47L71.69,139.3L71.79,156.45L71.85,152.17L71.89,132.86L72.39,184.34L72.6,145.73L72.65,169.32L72.94,135.01L73.15,182.19L73.48,147.88L73.51,160.74L73.85,132.87L73.89,173.61L74.31,139.3L74.31,158.6L74.63,141.44L74.64,184.32L75.05,158.6L75.07,158.6L75.63,143.59L75.77,171.47L75.82,156.45L75.83,156.45L76.01,141.44L76.05,167.18L76.49,145.73L76.49,165.03L76.71,175.76L76.91,137.15L77.23,160.74L77.28,152.17L77.35,141.44L77.95,169.32L77.97,160.74L78.04,156.45L78.31,132.86L78.32,175.76L78.72,169.32L78.74,169.32L78.8,137.15L79.31,173.61L79.49,145.73L79.5,162.89L79.67,169.32L79.8,141.44L80.23,156.45L80.31,156.45L80.39,141.45L80.62,167.17L80.73,160.74L80.74,171.46L80.76,137.16L81.49,165.03L81.5,150.02L82.02,135.01L82.05,175.75L82.24,147.88L82.29,143.59L82.46,141.44L82.99,167.17L83.02,152.17L83.06,152.17L83.19,182.18L83.57,132.87L83.78,158.6L83.8,160.74L84.12,132.87L84.21,180.04L84.48,152.17L84.48,150.02L84.71,139.3L84.94,169.32L85.12,150.02L85.12,165.03L85.69,167.17L85.71,135.02L85.73,141.45L85.73,173.6L85.73,175.75L86.38,126.44L86.46,162.88L86.49,162.88L87.2,190.75L87.23,111.44L87.25,156.45L87.29,111.44L87.42,186.46L87.91,158.6L88,160.74L88.34,175.75L88.34,132.87L88.57,150.02L88.58,169.32L88.73,130.73L88.73,173.6L89.36,139.31L89.36,158.6L89.56,117.88L89.95,173.6L90.12,143.59L90.21,143.59L90.23,132.88L90.94,180.03L90.96,150.02L90.97,158.6L91.59,137.16L91.68,165.03L91.7,156.45L91.76,150.02L91.97,169.31L91.99,132.88L92.42,139.31L92.42,132.88L92.43,175.74L93.17,150.02L93.18,152.17L93.23,137.17L93.49,167.17L93.92,158.6L93.94,150.02L94.52,171.45L94.57,137.17L94.68,152.17L94.7,152.17L95.05,137.17L95.07,167.17L95.33,145.74L95.33,135.03L95.95,190.73L96.03,128.6L96.04,128.6L96.06,188.59L96.28,117.89L96.76,171.45L96.82,156.45L97.09,184.31L97.12,124.31L97.56,139.31L97.61,152.17L98.05,171.45L98.17,139.31L98.29,156.45L98.33,145.74L98.61,135.03L99.04,171.45L99.04,171.45L99.05,135.03L99.44,173.6L99.45,135.02L99.8,167.17L99.81,135.03L100.36,207.87L100.57,152.17L100.62,152.17L101.37,135.03L101.37,173.59L101.4,150.02L101.46,135.03L101.73,167.17L102.07,160.74L102.11,165.02L102.55,115.74L102.66,180.03L102.84,160.74L102.91,169.31L103.59,135.02L103.61,180.02L103.63,143.59L103.63,182.17L103.63,192.88L103.88,128.6L104.33,143.6L104.46,156.45L104.59,167.17L104.67,143.6L105.14,156.45L105.15,141.45L105.57,132.88L105.69,173.59L105.89,137.17L105.92,165.02L105.93,180.02L106.42,122.17L106.66,165.02L106.67,158.6L106.86,137.17L107.3,165.02L107.32,145.74L107.49,171.45L107.5,137.17L107.88,165.02L107.88,135.02L108.43,167.16L108.59,145.74L108.59,141.46L108.74,130.74L109.14,171.45L109.34,150.02L109.39,150.02L109.59,113.62L109.72,184.3L110.04,152.17L110.05,137.17L110.19,180.02L110.35,126.46L110.78,156.45L110.82,143.6L111.24,177.88L111.25,130.74L111.58,167.17L111.58,137.17L111.86,135.03L112.16,180.02L112.32,139.31L112.38,139.31L112.39,171.45L112.45,122.17L113.1,156.45L113.15,158.6L113.69,186.45L113.88,124.31L113.91,139.31L114.59,132.89L114.64,175.73L114.65,156.45L114.73,145.74L115.1,85.77L115.22,180.01L115.47,156.45L115.5,139.31L115.53,135.03L116.2,180.02L116.24,169.31L116.26,160.74L116.44,165.02L117,126.45L117.02,141.46L117.04,141.46L117.08,120.03L117.61,173.59L117.78,160.74L117.84,147.88L117.86,162.88L118.19,126.46L118.58,147.88L118.6,143.6L118.77,130.74L119.3,171.45L119.37,169.31L119.4,139.31L119.54,180.02L119.54,122.17L120.11,130.75L120.14,156.45L120.28,145.74L120.39,182.16L120.39,126.46L120.51,111.47L120.78,184.3L121.19,158.59L121.22,158.59L121.36,197.15L121.37,85.76L121.41,156.45L121.42,229.29L121.54,87.9L122.21,147.88L122.23,147.88L122.76,177.88L122.76,122.17L122.98,152.17L122.98,143.6L123.15,122.17L123.68,180.02L123.7,122.17L123.77,135.03L123.85,137.17L123.85,173.59L123.87,180.02L123.88,128.6L124.54,162.88L124.61,145.74L125.08,135.02L125.22,167.17L125.37,158.6L125.41,160.74L125.6,167.17L125.73,139.31L126.15,150.02L126.17,158.6L126.27,167.17L126.8,130.73L126.89,156.45L126.9,169.31L127.64,139.31L127.65,169.31L127.65,180.03L128.35,141.45L128.38,150.02L128.41,158.6L128.51,126.45L128.69,182.17L129.12,156.45L129.13,137.16L129.43,184.32L129.58,135.02L129.93,147.88L129.94,143.59L130.02,132.88L130.53,177.88L130.69,165.03L130.71,165.03L130.74,132.88L131.05,180.03L131.43,156.45L131.48,147.88L131.51,135.02L131.57,186.46L132.23,160.74L132.23,152.17L132.31,201.46L132.4,117.87L132.98,150.02L132.99,150.02L133.25,139.31L133.38,173.6L133.74,160.74L133.75,160.74L134.14,135.02L134.14,173.6L134.48,147.88L134.52,147.88L134.52,137.16L134.91,173.6L135.26,145.74L135.29,152.17L135.37,139.3L135.48,180.03L136.01,147.88L136.01,143.59L136.14,124.31L136.24,197.17L136.7,152.17L136.78,156.45L137.07,132.88L137.38,165.03L137.5,143.59L137.55,156.45L137.68,141.45L137.7,175.74L138.3,160.74L138.36,150.02L138.54,143.59L138.64,173.6L139.11,162.88L139.15,156.45L139.57,158.6L139.63,139.3L139.66,137.16L139.73,167.17L140.39,165.03L140.42,167.17L140.42,141.45L141.17,152.17L141.18,156.45L141.56,143.59L141.56,169.31L141.93,145.74L141.95,145.74L142.16,137.16L142.29,182.17L142.7,137.16L142.74,152.17L143.01,141.45L143.43,171.46L143.49,167.17L143.5,152.17L143.6,173.6L144.17,141.45L144.28,156.45L144.47,184.32L144.73,137.16L145.05,165.03L145.1,152.17L145.44,203.64L145.57,135.01L145.84,162.89L145.88,162.89L146.04,132.87L146.09,175.75L146.59,156.45L146.69,150.02L146.99,124.3L147.21,177.89L147.45,169.31L147.48,169.31L147.98,141.45L148.13,177.89L148.14,177.89L148.14,188.61L148.28,139.31L148.89,167.17L148.95,156.45L149.1,145.74L149.58,171.46L149.68,156.45L149.74,162.88L149.99,135.02L150.03,171.46L150.41,152.17L150.5,173.6L151.1,124.3L151.16,192.89L151.25,173.6L151.26,173.6L151.5,143.59L151.99,167.17L152.03,152.17L152.42,171.46L152.53,135.02L152.74,165.03L152.75,143.59L152.83,139.31L152.97,180.03L153.35,158.6L153.4,158.6L153.54,141.45L153.83,175.74L154.09,145.74L154.12,162.88L154.71,124.3L154.76,184.32L154.94,137.16L154.97,141.45L155.61,135.02L155.79,197.17L155.79,197.17L155.8,156.45L155.91,113.6L156.09,173.59L156.23,135.02L156.33,156.45L156.55,175.74L156.77,128.6L157,152.17L157.09,165.02L157.5,171.46L157.77,130.74L157.84,147.88L157.86,147.88L157.95,167.16L158.5,135.03L158.63,141.45L158.7,158.6L159.05,195.02L159.15,109.31L159.46,141.45L159.48,141.45L159.59,165.02L159.86,139.31L160.16,152.17L160.16,141.45L160.62,188.59L160.63,120.02L160.9,171.45L160.91,122.17L161.07,175.74L161.65,117.88L161.68,117.88L161.68,113.6L162.11,180.02L162.43,145.74L162.44,143.6L163.14,132.88L163.18,175.74L163.24,165.02L163.27,143.6L163.63,135.02L163.9,173.6L164.01,137.16L164.07,152.17L164.25,141.45L164.62,167.17L164.74,150.02L164.74,143.59L164.97,173.6L165,135.02L165.49,156.45L165.52,152.17L165.68,128.59L165.99,169.31L166.16,150.02L166.21,162.88L166.22,173.6L166.26,135.02L166.95,167.17L166.97,141.45L167.6,165.02L167.74,158.6L167.77,137.17L167.93,175.74L168.33,130.74L168.51,167.17L168.56,158.6L168.88,173.6L169.03,117.87L169.3,143.6L169.32,143.6L169.75,173.6L169.89,45L170.02,150.02L170.08,195.03L170.64,60.06L170.87,132.89L170.88,180.02L171.14,122.17L171.58,173.6L171.64,162.88L171.83,184.32L172.29,124.31L172.38,160.74L172.41,150.02L172.69,188.6L172.71,120.02L173.17,158.6L173.19,160.74L173.43,182.18L173.47,124.3L173.91,171.46L173.97,156.45L174.47,162.88L174.65,137.16L174.69,169.32L175.15,177.89L175.41,130.73L175.44,158.6L175.46,158.6L175.66,130.73L175.8,180.04L176.17,156.45L176.17,160.74L176.42,171.46L176.81,126.44L176.9,171.46L176.96,162.89L177.37,173.61L177.69,139.3L177.69,160.74L177.73,139.3L177.73,132.87L177.73,175.75L178.48,145.73L178.56,152.17L178.72,182.18L179.26,135.01L179.29,171.46L179.32,156.45L179.34,171.46L179.92,132.87L180.03,165.03L180.03,175.75L180.08,120L180.56,205.77L180.77,160.74L180.82,141.45L180.9,124.29L181.03,186.47L181.57,150.02L181.63,150.02L181.71,177.9L181.73,130.72L182.31,162.89L182.32,162.89L182.6,137.16L182.67,173.61L183.07,160.74L183.08,167.18L183.64,139.3L183.83,156.45L183.85,156.45L184.41,135.01L184.42,173.61L184.6,156.45L184.61,156.45L184.82,182.19L185.07,124.29L185.31,139.3L185.37,175.75L185.79,132.86L186.01,141.44L186.02,167.18L186.17,171.47L186.27,137.15L186.78,156.45L186.8,152.17L187.14,139.3L187.25,169.32L187.48,147.88L187.55,147.88L187.81,143.59L187.96,173.61L188.31,156.45L188.32,152.17L188.37,167.18L188.4,141.44L188.98,158.6L189.07,150.02L189.43,186.47L189.76,122.15L189.78,147.88L189.79,171.46L189.8,111.43L190.53,145.73L190.57,156.45L190.65,158.6L190.66,139.3L190.68,139.3L190.68,130.73L191.49,184.33L191.54,160.74L191.89,132.87L191.92,182.19L192.27,162.89L192.33,158.6L192.63,147.88L192.64,162.89L192.66,156.45L192.66,180.04L192.66,188.62L192.78,126.43L193.39,143.59L193.45,132.87L194.1,128.58L194.15,182.18L194.18,158.6L194.22,182.18L194.86,132.87L194.97,139.3L195,169.32L195.27,173.61L195.74,126.44L195.79,147.88L195.81,177.89L195.9,182.18L195.97,152.17L196.05,158.6L196.07,152.17L196.35,139.3L196.7,177.9L196.71,130.72L197.01,128.58L197.03,180.04L197.47,165.03L197.49,158.6L197.5,177.9L198.12,132.87L198.24,158.6L198.25,158.6L198.49,132.87L198.9,177.9L199.02,145.73L199.04,150.02L199.14,132.87L199.45,180.04L199.79,152.17L199.81,152.17L199.96,128.58L199.96,186.47L200.5,167.17L200.57,165.03L201.05,184.33L201.34,128.58L201.35,182.18L201.9,190.76L201.92,117.86L202.09,177.9L202.15,150.02L202.43,147.88L202.5,162.89L202.87,147.88L202.94,160.74L203.29,171.46L203.35,137.16L203.67,160.74L203.7,156.45L203.78,173.61L203.78,135.01L204.12,143.59L204.12,107.15L204.15,169.31L204.81,156.45L204.93,152.17L205.31,180.04L205.43,137.16L205.63,150.02L205.69,152.17L205.99,177.9L206.39,122.14L206.44,156.45L206.59,190.76L206.65,122.14L207.28,145.73L207.38,160.74L207.89,132.87L207.96,182.18L208.13,160.74L208.14,156.45L208.59,180.04L208.8,124.29L208.87,141.44L208.94,141.44L209.15,167.18L209.21,150.02L209.22,126.44L209.82,182.19L209.88,132.87L209.95,132.87L209.95,192.91L210.35,113.57L210.66,141.44L210.71,145.73L211.21,115.72L211.22,195.04L211.44,160.74L211.48,126.44L211.49,192.9L211.65,83.58L212.23,160.74L212.26,143.59L212.57,135.01L212.59,175.75L213.02,162.89L213.05,156.45L213.35,130.72L213.51,177.9L213.75,145.73L213.81,158.6L213.84,182.19L213.84,126.43L214.53,145.73L214.56,165.03L214.56,167.18L214.93,141.44L215.31,158.6L215.39,165.03L215.63,171.47L215.71,141.44L215.92,145.73L215.92,139.3L216.33,132.86L216.35,175.76L216.68,156.45L216.71,152.17L216.74,201.5L216.75,94.23L217.36,152.16L217.36,143.58L217.55,180.05L218.02,85.65L218.05,156.46L218.12,156.46L218.64,143.58L218.69,167.18L218.79,160.75L218.85,158.6L219.18,141.44L219.31,171.47L219.6,152.16L219.66,156.46L219.95,190.78L219.99,115.7L220.4,147.87L220.47,150.02L221.14,139.3L221.15,177.9L221.23,156.46L221.24,152.16L221.79,143.58L221.97,175.77L221.98,162.89L222.01,150.02L222.45,167.18L222.47,139.29L222.68,156.46L222.69,167.18L223.12,137.15L223.33,173.62L223.36,173.62L223.41,173.62L223.5,135L224.09,162.89L224.12,162.89L224.22,135L224.31,173.62L224.87,145.73L224.94,150.02L225.49,119.97L225.69,173.62L225.7,175.76L225.87,137.15L226.46,141.44L226.49,160.75L226.52,128.57L226.59,182.2L227.17,175.76L227.24,158.6L227.85,190.78L227.87,117.84L227.89,169.33L227.95,180.05L228,126.42L228.69,156.46L228.71,152.16L228.84,141.44L228.85,175.76L229.25,162.89L229.27,145.73L229.64,182.2L229.75,137.15L230.03,160.75L230.11,158.6L230.48,162.89L230.5,143.58L230.61,160.75L230.63,132.85L231.04,128.56L231.05,180.06L231.36,150.02L231.39,147.87L231.39,175.77L231.4,132.85L232.14,165.04L232.15,165.04L232.16,132.85L232.16,190.78L232.87,147.87L232.91,156.46L233.07,175.77L233.35,141.44L233.59,160.75L233.62,143.58L233.62,141.44L234.04,173.62L234.37,165.04L234.4,158.6L234.91,188.65L234.94,119.97L235.16,130.7L235.18,156.46L235.23,184.36L235.57,137.14L235.89,137.14L235.89,130.7L235.92,180.06L235.94,128.56L236.59,147.87L236.85,150.02L237.44,165.04L237.47,132.85L237.54,135L237.6,171.47L237.6,177.91L238.15,137.14L238.35,156.46L238.36,158.6L238.39,141.43L238.68,175.77L239.04,147.87L239.12,147.87L239.25,177.92L239.39,137.14L239.79,139.28L239.88,147.87L240.3,115.67L240.5,184.36L240.61,167.19L240.62,141.43L240.76,134.99L241.21,175.78L241.35,150.02L241.41,158.6L241.68,126.41L242.02,190.8L242.16,160.75L242.18,160.75L242.78,137.14L242.79,173.63L242.87,156.46L242.91,171.48L243.19,137.14L243.25,210.09L243.57,180.06L243.58,182.2L243.72,158.6L243.75,143.58L243.75,139.29L244.16,169.33L244.48,139.29L244.53,158.6L244.59,180.06L244.92,132.85L245.16,160.75L245.16,167.19L245.25,134.99L245.27,175.77L245.65,156.46L245.66,152.16L245.91,143.58L245.96,169.34L246.37,156.46L246.43,152.16L247.05,186.51L247.07,122.11L247.18,160.75L247.24,156.46L247.32,141.43L247.49,171.48L247.59,158.6L247.64,113.52L247.64,195.1L248.39,171.48L248.43,169.34L248.76,177.93L248.89,128.54L249.17,147.87L249.22,152.16L249.74,143.58L249.95,184.36L249.97,152.16L249.97,147.87L250.25,139.28L250.61,173.63L250.66,158.6L250.73,150.02L250.99,134.99L251.4,169.33L251.44,156.46L251.5,145.73L251.61,141.43L251.76,173.62L252.19,165.04L252.22,143.58L252.34,192.95L252.42,141.43L252.89,147.87L252.98,150.02L253.53,165.04L253.59,143.58L253.73,145.72L253.8,145.72L253.98,130.7L254.03,171.48L254.53,143.58L254.57,158.6L254.91,180.07L255.07,137.14L255.31,158.6L255.34,162.9L255.68,130.7L255.69,182.21L256.07,143.58L256.15,182.21L256.9,128.55L256.9,128.55L256.93,150.02L257.57,130.7L257.62,177.92L257.68,169.34L257.72,147.87L258.26,130.7L258.27,180.07L258.45,143.58L258.48,152.16L258.73,177.92L258.81,122.11L259,171.48L259.02,137.14L259.1,177.92L259.42,132.85L259.69,160.75L259.87,160.75L260.1,182.21L260.11,126.41L260.6,134.99L260.66,165.04L260.68,173.63L260.8,143.58L261.34,156.46L261.4,156.46L261.45,177.92L261.54,128.55L262.16,137.14L262.18,171.48L262.33,173.63L262.8,137.14L262.94,158.6L262.95,169.34L263.46,139.28L263.61,182.22L263.71,162.9L263.72,162.9L263.72,139.28L263.76,171.48L264.45,156.46L264.49,152.16L264.91,169.33L264.96,143.58L265.23,158.6L265.3,145.73L265.34,167.19L265.73,94.24L265.74,156.46L265.78,203.65L266.27,135L266.55,141.43L266.58,167.19L266.75,130.7L266.76,177.92L267.33,145.72L267.37,162.9L267.48,169.33L267.73,134.99L268.11,160.75L268.16,160.75L268.38,169.33L268.91,137.14L268.93,156.46L269.03,132.85L269.13,171.48L269.63,160.75L269.64,135L269.64,132.85L270.11,177.91L270.38,173.62L270.5,150.02L270.93,135L270.94,173.62L271.25,150.02L271.26,147.87L271.88,171.48L271.94,134.99L271.96,134.99L272.52,128.56L272.65,175.77L272.73,165.04L272.75,135L273.1,122.12L273.13,190.79L273.49,145.73L273.51,162.89L273.92,130.7L274.21,147.87L274.23,160.75L274.87,128.56L274.88,180.06L274.97,128.56L275.01,165.04L275.28,171.48L275.55,132.85L275.77,152.16L275.8,158.6L276.3,167.18L276.57,141.44L276.66,150.02L276.91,139.29L277.01,167.18L277.41,145.73L277.42,147.87L277.77,128.56L278.05,171.47L278.11,145.73L278.13,162.89L278.46,184.35L278.53,122.13L278.87,132.86L278.88,177.91L279.04,130.71L279.63,152.16L279.69,147.87L280.29,119.99L280.31,197.21L280.49,160.74L280.51,158.6L280.69,175.76L280.99,135L281.25,143.58L281.31,143.58L281.54,139.29L281.68,169.33L281.73,139.29L282,122.13L282.24,184.34L282.46,156.46L282.51,156.46L282.51,139.29L282.68,167.18L283.25,158.6L283.31,147.88L283.66,132.86L284.03,169.33L284.08,169.33L284.82,143.58L284.84,147.87L284.95,156.46L285.14,147.87L285.54,173.62L285.61,139.29L285.87,190.78L285.89,115.69L286.36,167.18L286.4,141.44L286.4,128.56L286.65,180.06L287.15,139.29L287.19,152.16L287.23,139.29L287.74,162.89L287.91,147.87L287.93,160.75L288.25,169.33L288.29,139.29L288.67,141.44L288.68,167.18L288.69,135L289,184.35L289.43,158.6L289.45,158.6L290.04,173.62L290.18,122.14L290.22,184.34L290.57,113.54L290.97,167.18L290.98,160.75L291.42,122.13L291.72,182.2L291.74,139.29L291.76,177.91L291.79,124.28L292.47,137.15L292.5,152.16L292.56,165.04L292.58,119.98L292.81,156.46L292.84,165.04L293.12,175.76L293.14,132.86L293.61,158.6L293.63,158.6L294.28,167.18L294.29,139.29L294.31,145.73L294.34,139.29L294.34,135L294.39,173.62L295.08,145.73L295.11,152.16L295.25,169.33L295.28,147.87L295.4,147.87L295.42,147.87L295.51,128.56L295.76,167.19L296.17,152.16L296.22,156.46L296.71,124.27L296.73,173.62L296.98,147.87L296.98,167.19L297.14,130.71L297.17,180.06L297.71,160.75L297.74,156.46L297.77,171.48L297.99,143.58L298.5,162.89L298.51,165.04L298.54,135L298.66,177.92L299.2,171.48L299.29,158.6L299.73,130.7L299.79,171.48L300.04,143.58L300.07,165.04L300.33,169.33L300.37,135L300.82,145.73L300.83,162.89L301.22,201.52L301.25,107.1L301.58,165.04L301.62,167.18L301.79,139.29L302.31,169.33L302.37,145.73L302.4,145.73L302.46,169.33L303.15,156.46L303.18,152.16L303.72,124.27L303.73,184.35L303.92,173.62L303.99,165.04L304.66,132.85L304.66,186.49L304.75,150.02L304.76,158.6L304.87,122.13L305.14,177.91L305.5,156.46L305.52,152.16L305.79,167.18L306.19,141.44L306.27,156.46L306.3,152.16L306.56,124.27L306.79,182.2L307.05,160.75L307.07,152.16L307.13,169.33L307.14,139.29L307.8,150.02L307.87,150.02L308.25,139.29L308.3,184.34L308.62,158.6L308.67,162.89L308.94,180.05L309.05,128.57L309.5,141.44L309.56,156.45L309.98,171.47L310.05,124.28L310.27,147.88L310.31,165.03L310.43,188.63L310.53,122.14L311.04,167.18L311.07,177.91L311.7,120L311.83,160.74L311.86,147.88L312,145.73L312.15,162.89L312.17,156.45L312.18,143.58L312.73,192.92L312.78,92.13L312.91,130.73L312.94,177.89L312.98,96.41L313.11,156.45L313.14,212.21L313.34,216.49L313.36,92.13L313.88,160.74L313.92,156.45L314,143.59L314.03,158.6L314.09,150.02L314.11,107.14L314.49,175.76L314.85,150.02L314.93,158.6L315.27,137.16L315.36,171.46L315.37,158.6L315.37,190.77L315.55,130.72L316.11,180.04L316.13,160.74L316.24,171.47L316.32,137.15L316.84,139.3L316.91,156.45L317.17,130.72L317.22,177.9L317.66,162.89L317.68,145.73L318.13,128.57L318.15,180.05L318.43,152.17L318.44,143.59L318.84,171.47L318.91,126.43L319.15,156.45L319.2,156.45L319.24,188.63L319.68,130.72L319.94,150.02L319.97,156.45L320.29,171.46L320.6,139.3L320.63,160.74L320.67,173.61L320.78,124.29L321.38,145.73L321.4,158.6L321.72,180.04L322.13,130.72L322.13,130.72L322.16,158.6L322.46,173.61L322.55,135.01L322.93,143.58L323,158.6L323.58,124.29L323.71,188.62L323.74,182.19L323.78,158.6L324.19,128.57L324.2,180.05L324.5,147.88L324.54,147.88L325.02,109.29L325.09,188.61L325.27,145.73L325.29,139.3L325.84,128.58L325.86,184.33L326.04,150.02L326.08,156.45L326.68,92.15L326.71,216.47L326.83,145.73L326.86,145.73L327.21,124.3L327.22,184.32L327.61,167.18L327.62,141.44L328.06,165.03L328.07,143.59L328.15,171.46L328.71,115.72L328.77,152.17L328.87,152.17L328.91,165.03L329.04,126.44L329.58,143.59L329.6,156.45L329.78,124.31L329.88,173.6L330.29,160.74L330.42,162.88L330.47,169.32L330.47,139.3L331.14,158.6L331.18,167.17L331.24,173.6L331.36,135.02L331.93,150.02L331.95,145.74L331.98,135.02L332.19,169.32L332.64,143.59L332.7,152.17L332.84,135.02L332.84,175.74L333.12,147.88L333.16,126.44L333.18,122.16L333.61,169.32L333.69,158.6L333.71,169.32L333.88,173.6L334.19,145.73L334.23,152.17L334.33,152.17L334.66,137.16L334.7,167.17L335.09,158.6L335.13,152.17L335.3,137.16L335.45,162.88L335.86,158.6L335.91,152.17L336.36,128.59L336.46,180.03L336.55,152.17L336.58,169.31L336.73,132.87L337.29,147.88L337.34,169.32L337.37,173.6L337.47,122.15L338.05,162.88L338.11,162.88L338.27,139.3L338.28,173.6L338.86,152.17L338.88,152.17L339.08,165.03L339.33,132.87L339.42,156.45L339.48,132.87L339.5,177.89L340.14,147.88L340.19,147.88L340.46,120.01L340.91,177.89L340.96,169.32L341.04,147.88L341.14,167.17L341.62,139.3L341.73,152.17L341.81,156.45L341.92,175.75L341.95,132.87L342.48,137.16L342.49,156.45L342.93,137.16L343.14,173.61L343.17,160.74L343.22,160.74L343.31,130.73L343.91,182.18L344,137.16L344.45,167.17L344.77,158.6L344.78,139.3L344.79,173.61L344.81,132.87L345.52,150.02L345.56,150.02L345.73,169.32L345.74,128.58L346.3,156.45L346.32,156.45L346.36,124.29L346.44,173.61L347.07,150.02L347.1,158.6L347.54,135.01L347.7,177.89L347.83,135.01L347.86,135.01L347.86,130.73L348.15,184.33L348.6,169.32L348.63,132.87L348.75,128.58L348.88,167.17L348.88,167.17L348.9,167.17L349.43,130.73L349.45,177.89L349.65,145.73L349.66,162.89L349.81,169.32L350.25,139.3L350.42,152.17L350.44,156.45L350.46,182.18L350.84,126.44L351.19,137.16L351.24,160.74L351.26,137.16L351.39,169.32L351.98,156.45L352.05,156.45L352.39,173.61L352.68,128.57L352.68,156.45L352.76,167.18L352.76,128.57L352.93,177.9L353.42,156.45L353.53,162.89L353.96,130.72L353.97,177.9L354.26,158.6L354.29,173.61L354.3,175.76L354.86,137.16L354.96,160.74L354.97,152.17L355.04,162.89L355.32,137.16L355.67,158.6L355.73,150.02L356.11,167.18L356.19,137.15L356.39,150.02L356.4,158.6L356.88,169.32L356.94,122.14L356.95,186.48L357.15,135.01L357.71,152.17L357.75,175.76L357.78,132.86L358.15,177.9L358.5,160.74L358.51,165.03L358.92,130.72L359.15,175.76L359.22,156.45L359.29,150.02L359.35,128.57L359.36,180.05L360,143.59L360.07,150.02L360.37,177.9L360.43,130.72L360.84,156.45L360.85,152.17L361.45,113.57L361.46,195.05L361.6,165.03L361.64,162.89L361.76,177.9L361.84,128.57L362.41,156.45L362.42,162.89L362.73,169.32L363.14,132.86L363.2,156.45L363.43,126.43L363.52,177.9L363.93,156.45L363.97,156.45L364.15,167.18L364.23,141.44L364.71,156.45L364.71,167.18L365.14,169.32L365.27,139.3L365.44,152.17L365.47,156.45L365.73,201.51L365.78,115.67L366.2,150.02L366.21,160.75L366.31,182.2L366.74,132.86L366.76,160.74L366.82,182.19L366.82,126.43L367.56,152.17L367.58,152.17L367.8,141.44L367.82,167.18L368.25,150.02L368.4,158.6L368.49,177.9L368.5,130.72L369.14,150.02L369.17,162.89L369.71,87.85L369.72,212.2L369.89,184.33L369.9,199.34L369.9,203.62L370.37,130.72L370.65,162.89L370.7,145.73L370.96,132.87L370.97,175.75L371.48,156.45L371.49,150.02L371.75,169.32L371.82,139.3L372.05,158.6L372.06,169.32L372.11,173.61L372.67,132.86L372.81,162.89L372.82,165.03L373.18,188.62L373.49,117.85L373.6,147.88L373.62,175.75L373.71,186.47L373.76,120L374.4,128.58L374.43,152.17L374.84,192.91L374.84,115.71L375.15,156.45L375.16,141.44L375.56,180.05L375.84,137.15L375.89,173.61L375.92,152.17L376.05,132.86L376.08,182.19L376.63,165.03L376.64,124.29L376.83,184.33L377.41,162.89L377.44,162.89L377.56,167.18L377.82,130.72L378.23,156.45L378.25,158.6L378.49,141.44L378.75,173.61L379.03,147.88L379.04,171.47L379.35,132.86L379.36,184.33L379.68,162.89L379.69,152.17L379.91,137.15L379.96,171.47L380.39,160.74L380.49,147.88L381.06,126.43L381.17,173.61L381.24,158.6L381.26,160.74L381.6,132.87L381.67,180.04L382.01,147.88L382.02,162.89L382.61,135.01L382.63,173.61L382.75,143.59L382.78,139.3L383.1,120L383.27,188.62L383.53,152.17L383.54,156.45L383.64,132.87L383.73,173.61L384.29,143.59L384.3,141.44L384.55,126.44L384.56,186.47L385.07,165.03L385.08,156.45L385.24,165.03L385.49,128.59L385.55,139.31L385.57,188.6L386.13,132.87L386.35,150.02L386.38,152.17L387.07,128.58L387.07,190.76L387.12,137.16L387.16,158.6L387.36,139.3L387.77,175.75L387.85,156.45L387.85,152.17L388.35,171.46L388.54,126.44L388.56,160.74L388.62,167.17L388.69,135.02L388.7,173.6L389.36,147.88L389.38,160.74L389.43,175.75L389.44,132.87L389.99,152.17L390.04,162.89L390.73,167.17L390.81,128.58L390.81,128.58L390.84,130.73L391.04,94.3L391.07,199.32L391.59,162.89L391.6,145.73L391.85,171.46L391.88,120L392.33,139.3L392.38,158.6L392.61,184.33L392.92,132.87L393.1,152.17L393.1,150.02L393.32,182.18L393.35,126.44L393.81,141.45L393.85,175.75L394.35,177.89L394.38,120.01L394.61,152.17L394.63,158.6L394.91,128.59L395.36,175.74L395.41,165.03L396.09,184.32L396.1,124.3L396.16,156.45L396.2,152.17L396.52,141.45L396.55,169.32L396.95,162.89L396.97,162.89L397.25,109.27L397.25,188.62L397.67,145.73L397.74,158.6L398.13,128.58L398.19,175.75L398.4,158.6L398.44,137.16L398.72,98.57L398.76,210.05L399,117.86" style="vector-effect: non-scaling-stroke; fill: none; stroke: rgb(239, 85, 59); stroke-opacity: 1; stroke-width: 2px; opacity: 1;"/></g><g class="points"/><g class="text"/></g><g class="trace scatter trace485d40" style="stroke-miterlimit: 2; opacity: 1;"><g class="fills"/><g class="errorbars"/><g class="lines"><path class="js-line" d="M0,147.88L0,145.74L0.35,152.17L0.75,152.17L0.79,152.17L0.84,150.02L0.88,152.17L0.92,23.62L1.73,152.17L1.73,152.17L1.78,152.17L1.81,132.88L2.46,135.02L2.65,147.88L2.69,152.17L3.27,137.17L3.38,152.17L3.39,152.17L3.72,152.17L3.72,150.02L3.98,152.17L4.02,132.88L4.47,152.17L4.53,152.17L4.66,139.31L5.27,150.02L5.29,152.17L5.38,126.44L5.89,147.88L5.98,150.02L6.28,137.16L6.38,152.17L6.42,152.17L6.45,152.17L6.54,132.88L7.2,143.59L7.26,152.17L7.81,137.16L8.03,150.02L8.19,141.45L8.62,152.17L8.63,141.45L8.63,152.17L8.84,139.31L9.36,150.02L9.42,152.17L10.33,143.59L10.38,152.17L10.99,137.16L11.1,145.74L11.14,143.59L11.7,152.17L11.8,139.31L11.81,150.02L11.93,147.88L12.15,139.31L12.54,152.17L12.61,152.17L12.7,152.17L13.46,126.45L13.53,147.88L13.64,152.17L14.21,141.45L14.31,152.17L14.94,141.45L15.08,150.02L15.14,152.17L15.36,152.17L15.36,150.02L15.45,139.31L15.54,152.17L16,152.17L16.02,152.17L16.49,139.31L16.51,152.17L16.51,145.74L17.25,152.17L17.29,152.17L17.61,109.31L18.02,145.74L18.06,145.74L18.46,141.45L18.85,152.17L18.85,150.02L18.86,150.02L19.04,150.02L19.04,147.88L19.12,135.02L19.38,152.17L19.75,152.17L19.81,152.17L20.42,137.16L20.56,143.59L20.59,152.17L21.08,141.45L21.23,150.02L21.28,150.02L21.5,152.17L21.75,135.02L22.02,152.17L22.08,152.17L22.23,152.17L22.23,152.17L22.25,150.02L22.42,152.17L22.69,130.74L23,152.17L23.02,152.17L23.3,109.3L23.73,122.16L23.79,152.17L24.35,135.02L24.58,141.45L24.64,143.59L24.71,152.17L24.98,128.59L25.39,147.88L25.4,147.88L25.64,152.17L25.8,143.59L26.02,143.59L26.02,128.59L26.83,152.17L26.83,145.74L26.94,137.16L26.95,152.17L27.55,141.45L27.58,147.88L27.71,152.17L27.85,132.88L27.9,132.88L27.9,126.45L28.61,152.17L28.66,150.02L28.67,147.88L28.78,152.17L29,120.02L29.01,152.17L29.36,137.16L29.76,139.31L29.77,152.17L29.89,126.45L30.5,132.88L30.54,132.88L31.2,152.17L31.27,147.88L31.38,147.88L31.76,152.17L32.07,132.88L32.16,137.17L32.16,147.88L32.71,135.02L32.76,152.17L32.79,141.45L32.82,141.45L33.33,152.17L33.34,126.45L33.5,132.88L33.57,130.74L34.37,152.17L34.37,139.31L34.39,152.17L34.68,115.73L35.07,122.17L35.09,152.17L35.1,113.6L35.8,141.45L35.87,152.17L35.92,137.17L36.63,145.74L36.67,145.74L36.77,124.31L37.43,152.17L37.5,152.17L37.65,132.88L37.66,141.46L37.69,111.46L38.01,152.17L38.46,132.88L38.52,115.74L38.52,111.46L38.69,152.17L39.27,147.88L39.3,147.88L39.34,135.03L39.81,152.17L39.99,139.31L40.03,139.31L40.53,130.74L40.58,152.17L40.79,150.02L40.81,145.74L40.91,152.17L41.16,132.88L41.49,152.17L41.52,152.17L42.29,137.16L42.31,139.31L42.31,150.02L42.37,152.17L42.78,135.02L43.06,137.17L43.11,137.17L43.19,130.74L43.3,152.17L43.65,152.17L43.69,152.17L43.9,128.59L44.42,143.59L44.44,152.17L44.78,115.74L45.17,141.45L45.22,141.45L45.79,126.45L45.92,152.17L45.97,145.74L46.03,147.88L46.28,132.88L46.73,152.17L46.81,150.02L46.86,150.02L46.97,152.17L47.59,137.16L47.6,150.02L47.63,150.02L47.78,152.17L47.92,117.88L48.35,152.17L48.39,152.17L48.93,130.74L49.15,139.31L49.18,152.17L49.72,120.02L49.83,150.02L49.9,152.17L50.15,120.02L50.63,147.88L50.66,152.17L51.24,137.16L51.37,143.59L51.44,150.02L51.71,152.17L51.81,130.73L51.82,130.73L51.82,128.58L52.6,152.17L52.6,152.17L52.62,152.17L53.28,122.15L53.4,147.88L53.52,152.17L53.81,135.01L53.81,135.01L53.83,150.02L54.32,152.17L54.47,139.3L54.51,143.59L54.56,139.3L54.86,115.72L54.94,152.17L55.31,147.88L55.37,150.02L55.59,152.17L55.64,128.58L56.1,141.45L56.16,150.02L56.28,152.17L56.32,130.73L56.6,147.88L56.7,152.17L57.18,137.16L57.44,150.02L57.47,150.02L57.72,137.16L57.74,147.88L57.98,152.17L57.98,141.45L58.17,147.88L58.17,141.45L58.66,132.87L58.92,152.17L58.94,141.45L59.03,139.3L59.61,152.17L59.7,143.59L59.73,139.3L60.52,152.17L60.53,152.17L61.11,132.87L61.12,145.73L61.23,152.17L61.75,139.3L61.9,147.88L61.98,152.17L62.7,130.73L62.7,130.73L62.71,150.02L62.92,130.73L63.29,152.17L63.37,150.02L63.49,152.17L63.58,135.01L64.14,152.17L64.28,147.88L64.86,139.3L64.99,152.17L65,150.02L65.01,143.59L65.28,152.17L65.46,137.15L65.72,145.73L65.77,145.73L65.83,152.17L65.85,128.58L66.42,137.16L66.48,152.17L67.06,132.87L67.21,150.02L67.24,150.02L67.47,152.17L67.95,135.01L67.97,150.02L68,152.17L68.33,111.41L68.72,141.44L68.81,141.44L68.93,124.29L69.55,152.17L69.56,143.59L69.6,152.17L70.3,126.43L70.34,147.88L70.36,152.17L71.04,126.43L71.11,137.15L71.14,152.17L71.89,132.86L71.92,135.01L72.01,143.59L72.39,124.28L72.77,152.17L72.77,150.02L73.13,152.17L73.15,126.43L73.51,147.88L73.54,152.17L73.85,132.87L74.31,150.02L74.34,150.02L74.4,152.17L74.64,124.3L75.07,150.02L75.07,152.17L75.78,137.15L75.82,152.17L75.83,152.17L76.17,141.44L76.35,150.02L76.35,152.17L76.74,132.86L77.09,150.02L77.16,152.17L77.96,139.3L77.96,152.17L78.32,132.86L78.74,139.3L78.76,139.3L78.8,137.15L78.83,152.17L79.28,150.02L79.28,152.17L79.31,135.01L80.03,152.17L80.08,152.17L80.76,137.16L80.8,152.17L80.83,152.17L81.65,132.87L81.65,132.87L81.71,152.17L82.05,132.87L82.46,141.44L82.53,141.44L83.19,126.44L83.3,152.17L83.3,137.16L83.3,128.58L83.35,152.17L84.05,143.59L84.11,143.59L84.14,152.17L84.21,128.58L84.85,141.45L84.87,141.45L84.96,152.17L85.18,137.16L85.24,147.88L85.3,152.17L85.73,132.87L86.03,147.88L86.07,150.02L86.38,126.44L86.38,152.17L86.53,139.31L86.53,130.73L86.63,152.17L87.23,111.44L87.27,141.45L87.29,111.44L88.08,152.17L88.08,143.59L88.13,143.59L88.34,152.17L88.73,130.73L88.88,150.02L88.95,150.02L89.43,124.3L89.51,152.17L89.56,143.59L89.56,117.88L90.02,152.17L90.28,147.88L90.36,145.74L90.94,128.59L91.05,152.17L91.11,147.88L91.11,143.59L91.59,137.16L91.8,152.17L91.85,145.74L91.91,152.17L91.99,132.88L92.64,141.45L92.7,141.45L93.23,152.17L93.23,137.17L93.49,150.03L93.49,141.45L93.59,137.17L93.67,152.17L94.01,150.02L94.02,152.17L94.57,137.17L94.77,147.88L94.79,147.88L95.33,135.03L95.52,152.17L95.53,150.03L95.57,145.74L95.81,135.03L95.9,152.17L95.92,141.46L95.95,117.89L95.95,152.17L96.7,150.02L96.71,139.31L96.82,152.17L97.09,124.31L97.45,145.74L97.49,152.17L98.05,137.17L98.24,147.88L98.26,152.17L98.61,135.03L98.97,152.17L99.02,152.17L99.59,135.02L99.77,145.74L99.79,145.74L99.96,152.17L100.36,100.75L100.52,145.74L100.55,152.17L100.7,137.17L101.3,141.45L101.31,147.88L101.37,135.03L101.97,152.17L102.05,147.88L102.05,145.74L102.55,115.74L102.62,152.17L102.68,126.45L102.77,132.88L103.49,152.17L103.51,143.6L103.59,143.6L103.62,152.17L103.63,115.74L104.33,143.6L104.46,152.17L105.15,139.31L105.22,150.02L105.23,150.02L105.33,152.17L105.95,124.31L105.97,143.6L106.05,150.02L106.31,152.17L106.42,122.17L106.59,143.6L106.61,147.88L106.61,152.17L106.86,137.17L107.36,150.02L107.37,150.02L107.55,152.17L107.88,135.02L108.09,152.17L108.2,150.02L108.34,139.31L108.64,152.17L108.74,141.46L108.74,130.74L109.32,152.17L109.5,145.74L109.51,143.6L109.59,113.62L109.65,152.17L110.25,152.17L110.28,152.17L110.35,126.46L111.03,143.6L111.04,143.6L111.24,130.74L111.79,152.17L111.83,145.74L111.98,152.17L112.51,122.17L112.55,145.74L112.6,145.74L112.6,137.17L112.82,152.17L113.35,147.88L113.37,141.46L113.69,122.17L114.03,152.17L114.05,137.17L114.59,132.89L114.85,152.17L114.85,152.17L114.87,150.03L115.1,85.77L115.47,152.17L115.54,135.03L115.58,135.03L116.2,128.6L116.24,152.17L116.35,150.02L116.39,150.02L116.6,152.17L117.11,120.03L117.11,152.17L117.31,130.74L117.31,120.03L118.11,152.17L118.13,152.17L118.19,126.46L118.86,143.6L118.9,145.74L119.24,152.17L119.42,132.89L119.54,132.89L119.54,128.6L119.54,122.17L119.62,152.17L120.29,145.74L120.35,145.74L120.51,111.47L120.52,152.17L121.1,152.17L121.12,152.17L121.35,141.46L121.36,111.47L121.38,152.17L121.42,79.33L122.06,135.03L122.12,137.17L122.76,122.17L122.78,152.17L122.88,150.02L122.91,150.02L122.98,152.17L123.11,139.31L123.11,139.31L123.15,122.17L123.96,152.17L123.98,150.02L123.99,130.74L124.05,152.17L124.72,150.02L124.75,150.02L124.97,152.17L125.08,135.02L125.41,147.88L125.44,152.17L125.73,139.31L126.17,150.02L126.2,150.02L126.21,152.17L126.8,130.73L126.94,143.6L127.07,152.17L127.65,128.59L127.78,152.17L127.84,152.17L128.69,126.45L128.76,152.17L129.43,124.3L129.47,152.17L129.52,152.17L130.02,132.88L130.27,150.02L130.3,147.88L130.47,152.17L131.05,128.59L131.08,150.02L131.21,152.17L131.57,122.16L131.81,145.74L131.87,152.17L132.35,107.16L132.64,143.59L132.64,152.17L133.38,135.02L133.43,139.31L133.47,139.31L134.03,135.02L134.21,152.17L134.25,145.74L134.25,152.17L134.91,135.02L134.99,145.74L135.01,145.74L135.47,152.17L135.48,128.59L135.62,145.74L135.62,130.73L135.62,152.17L136.24,111.45L136.31,128.59L136.41,128.59L137.19,152.17L137.19,150.02L137.22,152.17L137.7,132.88L137.98,141.45L138.02,152.17L138.8,135.02L138.87,150.02L138.87,145.74L138.9,152.17L139.62,147.88L139.63,147.88L139.66,137.16L139.74,152.17L140.37,143.59L140.39,141.45L140.48,152.17L141.09,147.88L141.15,143.59L141.17,152.17L141.56,139.31L141.9,143.59L141.93,145.74L142.1,152.17L142.3,126.45L142.68,145.74L142.69,150.02L142.74,152.17L143.43,137.16L143.47,152.17L143.6,135.02L144.17,141.45L144.28,152.17L144.47,124.3L145.05,143.59L145.1,152.17L145.44,104.98L145.88,145.73L145.94,150.02L146.04,132.87L146.1,152.17L146.69,150.02L146.7,150.02L146.87,152.17L146.99,124.3L147.51,139.31L147.53,150.02L147.84,152.17L147.87,143.59L147.89,143.59L147.96,143.59L148.14,120.01L148.67,152.17L148.71,145.74L148.71,139.31L149.45,152.17L149.46,147.88L149.49,147.88L149.56,152.17L149.99,135.02L150.24,147.88L150.29,147.88L150.58,130.73L151,152.17L151.04,147.88L151.04,135.02L151.16,115.73L151.76,152.17L151.8,143.59L151.89,141.45L151.97,152.17L152.53,135.02L152.61,150.02L152.93,152.17L152.97,128.59L153.25,150.02L153.27,152.17L153.83,132.88L154.01,152.17L154.04,152.17L154.76,124.3L154.8,141.45L154.84,141.45L154.88,137.16L155.41,152.17L155.57,139.31L155.59,139.31L155.67,152.17L155.79,111.45L156.23,135.02L156.33,152.17L156.77,128.6L157.16,139.31L157.24,152.17L157.77,130.74L157.95,141.46L158.03,152.17L158.5,135.03L158.83,141.45L158.86,152.17L159.15,109.31L159.61,150.02L159.62,152.17L160.17,132.88L160.35,132.88L160.44,139.31L160.53,152.17L160.63,120.02L160.63,143.6L160.66,152.17L160.88,122.17L161.37,137.17L161.44,147.88L161.68,113.6L161.69,152.17L162.18,135.02L162.2,152.17L162.4,126.45L162.95,135.02L162.96,152.17L163.18,132.88L163.66,141.45L163.73,152.17L163.92,135.02L164.17,145.74L164.19,152.17L164.88,139.31L164.91,145.74L164.94,152.17L165.68,128.59L165.68,128.59L165.7,152.17L165.9,130.74L166.09,147.88L166.13,150.02L166.21,152.17L166.26,135.02L166.68,143.59L166.7,150.02L166.74,139.31L166.76,152.17L167.42,150.02L167.48,152.17L167.93,132.88L168.06,135.02L168.11,152.17L168.33,130.74L168.89,139.31L168.91,143.6L169.03,117.87L169.44,152.17L169.6,135.03L169.62,135.03L169.89,45L170.02,152.17L170.37,150.02L170.41,128.6L170.64,60.06L171.13,152.17L171.14,122.17L171.21,150.02L171.27,152.17L171.69,128.59L171.71,152.17L171.9,124.3L172.45,143.59L172.48,150.02L172.69,120.02L172.73,152.17L173.22,152.17L173.24,147.88L173.29,152.17L173.47,124.3L173.99,152.17L174,152.17L174.65,137.16L174.7,147.88L174.77,152.17L175.15,130.73L175.49,152.17L175.55,152.17L175.8,128.58L176.3,152.17L176.31,152.17L176.54,137.16L176.58,152.17L176.81,126.44L177.3,152.17L177.33,152.17L177.73,132.87L178.05,147.88L178.1,147.88L178.56,152.17L178.72,126.44L178.81,145.73L178.85,132.87L179.46,152.17L179.63,143.59L179.76,141.45L180.08,120L180.52,152.17L180.52,152.17L180.53,111.43L180.56,102.85L180.6,152.17L181.27,150.02L181.29,150.02L181.34,152.17L181.73,130.72L182.01,139.3L182.09,152.17L182.68,135.01L182.71,152.17L183.01,143.59L183.01,137.15L183.76,152.17L183.77,143.59L183.83,152.17L184.42,135.01L184.56,141.44L184.59,152.17L185.07,124.29L185.42,139.3L185.44,141.44L185.65,152.17L185.79,132.86L186.17,137.15L186.21,150.02L186.24,137.15L186.83,152.17L186.89,141.44L187.14,139.3L187.66,152.17L187.66,152.17L187.68,152.17L187.96,135.01L188.03,147.88L188.06,152.17L188.4,141.44L188.43,152.17L189.12,141.45L189.12,130.72L189.12,152.17L189.8,111.43L189.85,150.02L189.88,150.02L190.03,152.17L190.17,139.3L190.53,145.73L190.57,152.17L190.68,130.73L190.84,137.16L190.9,150.02L191.08,152.17L191.49,124.29L191.54,147.88L191.59,145.73L191.59,152.17L191.92,126.43L192.33,150.02L192.35,150.02L192.66,120L192.97,152.17L193.04,141.44L193.47,130.72L193.74,152.17L193.74,141.44L194.15,126.44L194.46,152.17L194.52,147.88L194.52,139.3L194.86,132.87L195.24,152.17L195.26,135.01L195.27,135.01L195.74,126.44L196.07,152.17L196.13,150.02L196.22,152.17L196.56,135.01L196.65,152.17L197.05,128.58L197.39,147.88L197.39,152.17L197.5,130.72L198.14,147.88L198.17,152.17L198.9,130.72L198.95,137.16L199.02,145.73L199.44,128.58L199.79,152.17L199.79,152.17L199.81,152.17L199.96,122.15L200.5,141.45L200.57,143.59L201.05,124.29L201.25,152.17L201.31,143.59L201.34,128.58L201.38,152.17L201.92,117.86L202.01,139.3L202.01,152.17L202.09,130.72L202.7,152.17L202.74,152.17L203.35,137.16L203.53,141.45L203.55,152.17L203.78,135.01L204.12,143.59L204.12,107.15L204.81,152.17L204.93,152.17L205.21,143.59L205.27,152.17L205.28,135.01L205.31,128.58L205.49,152.17L206.03,152.17L206.04,152.17L206.59,117.86L206.88,130.72L206.9,135.01L206.91,130.72L207.01,152.17L207.61,139.3L207.62,152.17L207.96,126.44L208.37,147.88L208.43,147.88L208.59,128.58L208.77,152.17L208.79,143.59L208.8,124.29L209.53,152.17L209.54,150.02L209.66,152.17L209.82,126.43L209.95,126.44L209.95,115.71L209.99,152.17L210.35,113.57L210.66,141.44L210.71,145.73L210.71,152.17L211.22,113.58L211.44,147.88L211.48,126.44L211.7,152.17L211.71,83.58L212.16,147.88L212.23,147.88L212.37,152.17L212.59,132.87L212.98,145.73L212.99,152.17L213.35,130.72L213.73,150.02L213.75,145.73L213.84,126.43L214.33,152.17L214.41,139.3L214.42,135.01L214.49,152.17L215.17,152.17L215.18,152.17L215.63,137.15L215.64,152.17L216.35,132.86L216.42,141.44L216.43,145.73L216.73,152.17L216.74,107.12L216.75,94.23L217.38,152.17L217.45,152.17L217.53,141.44L217.53,152.17L218.02,85.65L218.28,147.87L218.32,147.87L218.34,152.16L218.69,141.44L219.04,143.58L219.09,143.58L219.31,137.15L219.82,152.16L219.83,145.73L219.84,143.58L219.89,152.17L219.99,115.7L220.56,145.73L220.61,150.02L220.67,152.17L221.15,130.72L221.29,150.02L221.37,150.02L221.67,141.44L221.77,152.16L221.94,145.73L221.97,132.85L222.68,152.16L222.71,145.73L222.82,145.73L223.04,152.16L223.33,135L223.53,143.59L223.56,143.58L224.19,152.16L224.2,137.15L224.22,137.15L224.22,135L225.05,152.16L225.07,150.02L225.09,150.02L225.14,152.16L225.49,119.97L225.77,147.87L225.8,152.16L226.53,128.57L226.53,128.57L226.55,152.16L226.59,126.42L226.67,152.17L227.3,143.59L227.31,143.59L227.57,152.17L227.87,117.84L228.06,135L228.08,143.58L228.17,152.16L228.22,130.71L228.81,147.87L228.84,143.58L228.85,132.86L228.89,152.16L229.59,152.16L229.64,126.42L229.75,152.16L230.38,150.02L230.42,150.02L230.54,152.16L231.04,128.56L231.11,150.02L231.18,145.73L231.35,152.16L231.39,132.85L231.93,145.73L231.97,145.73L232.12,150.02L232.15,141.44L232.15,132.85L232.16,117.84L232.25,152.16L232.87,147.87L232.91,152.16L233.07,132.85L233.62,150.02L233.7,145.73L233.75,152.16L234.04,135L234.42,150.02L234.45,150.02L234.66,143.58L234.73,152.16L234.86,152.16L234.87,124.26L234.91,119.97L235.47,152.16L235.63,137.14L235.65,150.02L235.79,152.16L235.94,128.56L236.37,145.73L236.42,145.73L236.42,143.58L236.44,152.16L237.14,150.02L237.19,150.02L237.31,152.16L237.61,130.71L237.92,147.87L237.96,150.02L238.14,147.87L238.15,137.14L238.2,152.16L238.68,132.85L238.77,150.02L238.91,150.02L238.98,152.16L239.24,130.7L239.65,139.28L239.71,147.87L240.22,130.7L240.28,152.16L240.28,130.7L240.28,124.26L240.3,115.67L240.37,152.16L240.98,137.14L241.03,137.14L241.67,152.16L241.68,126.41L241.75,150.02L241.76,126.41L242.02,117.82L242.48,152.16L242.5,150.02L242.54,152.16L242.84,134.99L243.19,137.14L243.23,152.16L243.25,98.53L243.94,150.02L243.99,152.16L244.59,128.56L244.71,150.02L244.72,152.16L244.92,132.85L245.45,150.02L245.49,150.02L245.49,152.16L245.49,139.28L246.19,152.16L246.27,147.87L246.72,137.14L246.86,152.16L246.86,143.58L246.88,139.28L247.05,122.11L247.26,152.16L247.59,150.02L247.64,113.52L247.68,152.16L248.39,137.14L248.43,139.28L248.89,128.54L249.13,152.16L249.17,147.87L249.22,152.16L249.95,124.26L249.97,147.87L250,145.72L250.17,152.16L250.61,134.99L250.66,150.02L250.73,150.02L250.99,134.99L251.28,152.16L251.39,150.02L251.39,145.73L251.44,152.16L251.76,135L252.11,143.58L252.15,143.58L252.31,115.67L252.89,152.16L252.89,147.87L252.98,150.02L253.04,152.16L253.53,143.58L253.73,145.72L253.8,145.72L253.88,152.16L253.98,130.7L254.53,143.58L254.57,150.02L254.83,152.16L254.91,128.55L255.31,150.02L255.34,145.72L255.49,152.16L255.69,126.41L256.07,143.58L256.15,126.41L256.82,152.16L256.9,128.55L256.93,150.02L257.46,152.16L257.57,130.7L257.62,130.7L258.27,128.55L258.29,152.16L258.45,150.02L258.45,143.58L258.81,122.11L258.86,152.16L259.1,130.7L259.28,143.58L259.42,132.85L260.04,152.16L260.04,152.16L260.06,152.16L260.1,126.41L260.81,150.02L260.87,152.16L261.54,128.55L261.54,128.55L261.65,152.16L261.79,130.7L262.38,150.02L262.39,150.02L262.5,152.16L262.75,137.14L263.09,137.14L263.22,139.28L263.61,126.4L263.9,152.16L264,145.72L264.08,152.16L264.81,145.72L264.83,152.16L264.84,152.16L265.05,139.29L265.61,145.73L265.66,152.16L265.73,94.24L266.41,139.29L266.48,145.73L266.73,130.7L267.27,152.16L267.27,152.16L267.28,152.16L267.73,134.99L268.06,147.87L268.07,147.87L268.38,139.29L268.82,152.16L268.82,143.58L268.93,152.16L269.03,132.85L269.47,139.29L269.49,152.16L270.11,130.71L270.2,137.14L270.22,147.87L270.38,135L270.64,152.16L270.97,145.73L271.04,145.73L271.59,135L271.67,152.16L271.79,147.87L271.83,147.87L272.33,152.16L272.33,130.71L272.43,130.71L272.83,152.16L273.13,117.83L273.2,147.87L273.26,152.16L273.91,130.7L273.97,147.87L274.02,145.73L274.3,139.29L274.62,152.16L274.67,132.85L274.87,128.56L275.43,152.16L275.45,152.16L275.55,132.85L276.06,145.73L276.14,145.73L276.14,141.44L276.2,152.16L276.89,141.44L276.91,141.44L276.91,139.29L277.09,152.16L277.64,152.16L277.68,150.02L277.7,128.56L277.75,152.16L278.42,132.86L278.44,141.44L278.53,122.13L278.54,152.16L279.17,152.16L279.21,152.16L279.3,135L279.96,150.02L279.98,137.15L280.25,152.17L280.31,111.41L280.69,132.86L280.75,147.87L280.97,152.16L281.05,132.86L281.54,139.29L281.57,152.16L281.86,126.42L281.88,147.88L281.91,152.16L282,122.13L282.06,152.17L282.27,124.28L282.33,152.17L282.51,152.16L282.51,150.02L282.51,139.29L282.6,152.17L283.25,150.02L283.31,147.88L283.66,132.86L283.79,152.17L284.03,139.29L284.08,139.29L284.74,152.16L284.84,147.87L284.95,152.16L285.65,130.71L285.65,124.27L285.88,152.16L285.89,115.69L286.4,139.29L286.41,152.16L286.65,128.56L287.15,139.29L287.19,152.16L287.23,139.29L287.93,147.87L287.95,152.16L288.69,135L288.69,135L288.71,152.16L289,124.27L289.45,150.02L289.5,150.02L289.73,152.16L289.82,143.58L289.83,143.58L289.83,139.29L290.13,152.16L290.15,132.86L290.16,143.58L290.18,122.14L290.37,152.16L290.54,150.02L290.57,113.54L291.23,152.16L291.33,150.02L291.36,152.16L291.42,122.13L291.98,130.71L292.06,152.16L292.58,119.98L292.7,152.16L292.81,152.16L293.14,132.86L293.56,150.02L293.57,150.02L293.61,152.16L294.29,139.29L294.31,145.73L294.34,139.29L294.34,135L294.4,152.16L295.08,145.73L295.11,152.16L295.51,128.56L295.9,145.73L295.97,152.16L296.71,124.27L296.73,135L296.73,152.16L297,139.29L297.03,152.16L297.17,128.56L297.77,137.14L297.81,145.73L298.15,141.43L298.45,152.16L298.54,143.58L298.54,135L298.66,130.7L299.13,152.16L299.29,150.02L299.3,137.14L299.43,152.16L299.72,130.7L300.04,143.58L300.07,143.58L300.14,152.16L300.37,135L300.82,145.73L300.83,145.73L300.87,152.16L301.22,107.1L301.58,143.58L301.62,141.44L301.79,139.29L301.79,152.16L302.37,145.73L302.4,145.73L302.46,139.29L302.5,152.16L303.1,152.16L303.15,152.16L303.81,124.27L303.9,147.87L303.92,135L304.12,152.16L304.63,150.02L304.65,150.02L304.68,152.16L304.87,122.13L305.36,143.58L305.48,145.73L305.79,141.44L306.12,152.16L306.24,150.02L306.25,150.02L306.4,152.16L306.56,124.27L306.77,150.02L306.79,126.42L307.51,152.16L307.57,147.87L307.6,141.44L308.19,152.16L308.25,139.29L308.26,147.87L308.3,130.71L308.3,124.28L308.62,152.16L309.05,128.57L309.07,147.87L309.5,141.44L309.56,152.17L309.76,147.87L309.77,152.16L310.15,152.17L310.43,119.99L310.53,122.14L310.58,147.87L310.96,152.17L311.07,130.71L311.27,152.17L311.3,152.17L311.7,120L312,145.73L312.06,145.73L312.49,152.17L312.62,130.71L312.71,143.59L312.71,117.85L312.73,152.16L312.78,92.13L312.98,139.3L313.03,152.17L313.11,150.02L313.11,152.17L313.14,96.41L313.34,92.13L313.85,152.17L313.88,147.88L313.92,152.17L314.11,107.14L314.26,145.73L314.26,152.17L314.73,124.29L315.01,152.17L315.03,152.17L315.46,117.85L315.79,147.88L315.8,147.88L315.8,152.17L316.11,128.58L316.53,152.17L316.58,152.17L317.22,130.72L317.29,150.02L317.33,150.02L317.42,152.17L317.88,132.86L318.08,152.17L318.12,147.87L318.13,128.57L318.29,152.17L318.87,143.59L318.88,143.59L319.07,152.17L319.24,119.99L319.62,143.59L319.63,152.17L319.68,130.72L320.35,152.17L320.44,147.88L320.78,124.29L321.21,152.17L321.21,152.17L321.22,152.17L321.72,128.58L321.93,152.17L322.02,150.02L322.13,130.72L322.22,152.17L322.77,147.88L322.78,143.59L322.91,152.17L323.49,130.72L323.53,143.59L323.55,143.59L323.65,152.17L323.71,120L324.26,139.3L324.31,152.17L325.04,109.29L325.09,120.01L325.09,145.73L325.63,137.16L325.76,152.17L325.76,135.01L326.08,152.17L326.37,92.15L326.46,143.6L326.71,92.15L326.91,152.17L327.22,124.3L327.22,152.17L327.62,141.44L327.96,147.88L327.99,147.88L328.21,152.17L328.63,126.44L328.65,147.88L328.67,126.44L328.71,115.72L329.4,152.17L329.43,150.02L329.45,150.02L329.5,152.17L329.78,124.31L330.18,143.59L330.25,145.74L330.28,135.02L330.46,152.17L330.98,143.59L331.01,143.59L331.24,135.02L331.67,152.17L331.79,150.02L331.8,141.45L331.84,152.17L331.98,135.02L332.51,145.73L332.6,150.02L332.7,152.17L333.18,122.16L333.35,147.88L333.39,147.88L333.39,152.17L333.45,126.44L334.13,150.02L334.16,150.02L334.23,152.17L334.66,137.16L334.87,150.02L334.93,150.02L335.13,152.17L335.3,137.16L335.68,145.74L335.7,150.02L335.91,152.17L336.46,128.59L336.55,152.17L336.73,132.87L337.29,147.88L337.34,139.3L337.43,152.17L337.47,122.15L337.8,147.88L337.81,152.17L338.28,135.02L338.54,150.02L338.61,152.17L338.92,139.3L339.21,150.02L339.33,150.02L339.42,152.17L339.5,130.73L340.02,145.74L340.09,141.45L340.46,120.01L340.61,152.17L340.82,145.73L340.83,139.3L340.83,130.73L340.84,152.17L341.56,152.17L341.59,152.17L341.95,132.87L342.28,145.73L342.29,152.17L343.07,137.16L343.09,150.02L343.3,130.73L343.69,152.17L343.71,139.3L343.79,139.3L343.86,137.16L343.88,152.17L343.91,126.44L344.73,152.17L344.77,150.02L344.78,139.3L344.81,132.87L344.97,152.17L345.52,150.02L345.56,150.02L345.68,152.17L345.74,128.58L346.3,152.17L346.32,152.17L346.36,124.29L347.07,150.02L347.1,150.02L347.4,152.17L347.7,130.73L347.83,135.01L347.86,135.01L347.88,152.17L348.15,124.29L348.6,139.3L348.63,132.87L348.7,152.17L348.75,128.58L349.12,141.45L349.17,150.02L349.39,130.73L349.53,152.17L349.8,150.02L349.8,139.3L350.44,152.17L350.45,137.16L350.46,126.44L351.15,152.17L351.19,137.16L351.24,147.88L351.26,137.16L351.34,152.17L351.98,152.17L352.05,152.17L352.8,128.57L352.82,141.44L352.89,152.17L353.32,128.58L353.38,152.17L353.4,152.17L353.97,130.72L353.97,130.72L354.04,152.17L354.04,130.72L354.76,152.17L354.82,139.3L354.82,152.17L354.93,135.01L355.57,147.88L355.61,152.17L356.19,137.15L356.3,150.02L356.32,152.17L356.95,122.14L357.18,143.59L357.2,147.88L357.31,137.15L357.58,152.17L357.65,139.3L357.66,135.01L358.15,130.72L358.43,152.17L358.46,152.17L358.92,130.72L359.21,152.17L359.22,150.02L359.22,152.17L359.35,128.57L359.97,143.59L359.99,145.73L360.13,152.17L360.37,130.72L360.72,132.86L360.76,150.02L360.81,152.17L361.46,113.57L361.47,145.73L361.52,115.72L361.66,152.17L362.18,152.17L362.24,152.17L362.73,139.3L362.91,143.59L363.01,152.17L363.43,126.43L363.76,143.59L363.77,152.17L364.23,141.44L364.53,147.88L364.55,147.88L364.63,152.17L365.15,139.3L365.19,152.17L365.23,152.17L365.79,107.11L365.95,132.86L366.06,152.16L366.31,126.42L366.82,126.43L366.89,145.73L366.89,126.43L367.03,152.17L367.62,145.73L367.65,152.17L368.24,141.44L368.4,147.88L368.43,147.88L368.43,152.17L368.49,130.72L369.18,145.73L369.22,145.73L369.29,152.17L369.71,87.85L369.97,152.17L369.98,152.17L370.44,124.29L370.7,145.73L370.8,147.88L370.96,132.87L371.48,152.17L371.51,147.88L371.57,147.88L372.09,132.86L372.22,152.17L372.29,150.02L372.34,147.88L372.41,152.17L372.67,132.86L373.09,143.59L373.09,147.88L373.19,152.17L373.49,117.85L373.76,120L373.79,150.02L374.07,152.17L374.4,128.58L374.55,135.01L374.64,145.73L374.84,115.71L375.12,152.17L375.36,147.88L375.4,152.17L376.08,126.43L376.2,139.3L376.25,139.3L376.64,124.29L377,152.17L377.01,145.73L377.02,137.15L377.07,130.72L377.51,152.17L377.73,150.02L377.81,152.17L377.82,130.72L378.56,147.88L378.59,143.59L378.59,152.17L379.05,126.43L379.33,135.01L379.35,135.01L379.36,124.29L379.69,152.17L380.09,152.17L380.11,152.17L380.77,139.3L380.84,145.73L380.87,143.59L381.06,126.43L381.22,152.17L381.62,147.88L381.63,147.88L381.69,128.58L381.7,152.17L382.36,152.17L382.41,143.59L382.41,152.17L383.1,120L383.11,120L383.21,147.88L383.27,120L383.6,152.17L383.64,143.59L383.64,132.87L384.21,152.17L384.37,135.01L384.42,147.88L384.56,122.15L384.62,152.17L385.15,152.17L385.17,152.17L385.57,120.02L385.74,150.02L385.77,150.02L386.07,132.87L386.4,152.17L386.4,152.17L386.45,122.15L387.07,117.86L387.21,152.17L387.21,152.17L387.24,152.17L387.77,132.87L388.01,145.73L388.07,150.02L388.17,152.17L388.54,126.44L388.91,143.59L388.95,152.17L389.44,132.87L389.68,145.73L389.71,152.17L390.08,137.16L390.4,152.17L390.49,152.17L391.04,94.3L391.24,143.59L391.26,152.17L391.88,120L392,128.58L392.06,128.58L392.45,152.17L392.61,124.29L392.81,150.02L392.84,145.73L393.32,126.44L393.48,152.17L393.6,150.02L393.63,141.45L393.85,132.87L394.29,152.17L394.31,139.3L394.35,130.73L394.38,120.01L394.42,152.17L394.99,147.88L395.01,150.02L395.2,152.17L395.36,132.88L395.76,143.59L395.78,152.17L396.09,124.3L396.52,141.45L396.55,141.45L396.92,152.17L397.25,109.27L397.3,139.3L397.37,147.88L397.41,152.17L398.13,128.58L398.13,130.73L398.19,132.87L398.19,152.17L398.72,98.57L398.92,132.87L398.99,150.02L399,117.86" style="vector-effect: non-scaling-stroke; fill: none; stroke: rgb(0, 204, 150); stroke-opacity: 1; stroke-width: 2px; opacity: 1;"/></g><g class="points"/><g class="text"/></g></g></g><g class="overplot"/><path class="xlines-above crisp" d="M0,0" style="fill: none;"/><path class="ylines-above crisp" d="M0,0" style="fill: none;"/><g class="overlines-above"/><g class="xaxislayer-above"><g class="xtick"><text text-anchor="start" x="0" y="416" transform="translate(206.05,0) rotate(30,0,408.5)" style="font-family: 'Times New Roman'; font-size: 15px; fill: rgb(13, 13, 13); fill-opacity: 1; white-space: pre; opacity: 1;">1.6125210<tspan style="font-size:70%" dy="-0.6em">18</tspan><tspan dy="0.42em"></tspan></text></g><g class="xtick"><text text-anchor="start" x="0" y="416" style="font-family: 'Times New Roman'; font-size: 15px; fill: rgb(13, 13, 13); fill-opacity: 1; white-space: pre; opacity: 1;" transform="translate(285.36,0) rotate(30,0,408.5)">1.61252510<tspan style="font-size:70%" dy="-0.6em">18</tspan><tspan dy="0.42em"></tspan></text></g><g class="xtick"><text text-anchor="start" x="0" y="416" style="font-family: 'Times New Roman'; font-size: 15px; fill: rgb(13, 13, 13); fill-opacity: 1; white-space: pre; opacity: 1;" transform="translate(364.68,0) rotate(30,0,408.5)">1.6125310<tspan style="font-size:70%" dy="-0.6em">18</tspan><tspan dy="0.42em"></tspan></text></g><g class="xtick"><text text-anchor="start" x="0" y="416" style="font-family: 'Times New Roman'; font-size: 15px; fill: rgb(13, 13, 13); fill-opacity: 1; white-space: pre; opacity: 1;" transform="translate(444,0) rotate(30,0,408.5)">1.61253510<tspan style="font-size:70%" dy="-0.6em">18</tspan><tspan dy="0.42em"></tspan></text></g><g class="xtick"><text text-anchor="start" x="0" y="416" style="font-family: 'Times New Roman'; font-size: 15px; fill: rgb(13, 13, 13); fill-opacity: 1; white-space: pre; opacity: 1;" transform="translate(523.3199999999999,0) rotate(30,0,408.5)">1.6125410<tspan style="font-size:70%" dy="-0.6em">18</tspan><tspan dy="0.42em"></tspan></text></g></g><g class="yaxislayer-above"><g class="ytick"><text text-anchor="end" x="136" y="12.25" transform="translate(0,382.91)" style="font-family: 'Times New Roman'; font-size: 35px; fill: rgb(13, 13, 13); fill-opacity: 1; white-space: pre; opacity: 1;">0.06</text></g><g class="ytick"><text text-anchor="end" x="136" y="12.25" style="font-family: 'Times New Roman'; font-size: 35px; fill: rgb(13, 13, 13); fill-opacity: 1; white-space: pre; opacity: 1;" transform="translate(0,340.03999999999996)">0.04</text></g><g class="ytick"><text text-anchor="end" x="136" y="12.25" style="font-family: 'Times New Roman'; font-size: 35px; fill: rgb(13, 13, 13); fill-opacity: 1; white-space: pre; opacity: 1;" transform="translate(0,297.18)">0.02</text></g><g class="ytick"><text text-anchor="end" x="136" y="12.25" style="font-family: 'Times New Roman'; font-size: 35px; fill: rgb(13, 13, 13); fill-opacity: 1; white-space: pre; opacity: 1;" transform="translate(0,254.31)">0</text></g><g class="ytick"><text text-anchor="end" x="136" y="12.25" style="font-family: 'Times New Roman'; font-size: 35px; fill: rgb(13, 13, 13); fill-opacity: 1; white-space: pre; opacity: 1;" transform="translate(0,211.44)">0.02</text></g><g class="ytick"><text text-anchor="end" x="136" y="12.25" style="font-family: 'Times New Roman'; font-size: 35px; fill: rgb(13, 13, 13); fill-opacity: 1; white-space: pre; opacity: 1;" transform="translate(0,168.57999999999998)">0.04</text></g><g class="ytick"><text text-anchor="end" x="136" y="12.25" style="font-family: 'Times New Roman'; font-size: 35px; fill: rgb(13, 13, 13); fill-opacity: 1; white-space: pre; opacity: 1;" transform="translate(0,125.71000000000001)">0.06</text></g></g><g class="overaxes-above"/></g></g><g class="polarlayer"/><g class="smithlayer"/><g class="ternarylayer"/><g class="geolayer"/><g class="funnelarealayer"/><g class="pielayer"/><g class="iciclelayer"/><g class="treemaplayer"/><g class="sunburstlayer"/><g class="glimages"/><defs id="topdefs-0a24b6"><g class="clips"/><clipPath id="legend0a24b6"><rect width="144" height="67" x="0" y="0"/></clipPath></defs><g class="layer-above"><g class="imagelayer"/><g class="shapelayer"/></g><g class="infolayer"><g class="legend" pointer-events="all" transform="translate(543.98,100)"><rect class="bg" shape-rendering="crispEdges" style="stroke: rgb(68, 68, 68); stroke-opacity: 1; fill: rgb(255, 255, 255); fill-opacity: 1; stroke-width: 0px;" width="144" height="67" x="0" y="0"/><g class="scrollbox" transform="" clip-path="url(#legend0a24b6)"><g class="groups"><g class="traces" transform="translate(0,14.5)" style="opacity: 1;"><text class="legendtext" text-anchor="start" x="40" y="4.680000000000001" style="font-family: 'Open Sans', verdana, arial, sans-serif; font-size: 12px; fill: rgb(42, 63, 95); fill-opacity: 1; white-space: pre;">Realized (in %)</text><g class="layers" style="opacity: 1;"><g class="legendfill"/><g class="legendlines"><path class="js-line" d="M5,0h30" style="fill: none; stroke: rgb(99, 110, 250); stroke-opacity: 1; stroke-width: 2px;"/></g><g class="legendsymbols"><g class="legendpoints"/></g></g><rect class="legendtoggle" x="0" y="-9.5" width="138.71875" height="19" style="fill: rgb(0, 0, 0); fill-opacity: 0;"/></g><g class="traces" transform="translate(0,33.5)" style="opacity: 1;"><text class="legendtext" text-anchor="start" x="40" y="4.680000000000001" style="font-family: 'Open Sans', verdana, arial, sans-serif; font-size: 12px; fill: rgb(42, 63, 95); fill-opacity: 1; white-space: pre;">Effective (in %)</text><g class="layers" style="opacity: 1;"><g class="legendfill"/><g class="legendlines"><path class="js-line" d="M5,0h30" style="fill: none; stroke: rgb(239, 85, 59); stroke-opacity: 1; stroke-width: 2px;"/></g><g class="legendsymbols"><g class="legendpoints"/></g></g><rect class="legendtoggle" x="0" y="-9.5" width="138.71875" height="19" style="fill: rgb(0, 0, 0); fill-opacity: 0;"/></g><g class="traces" transform="translate(0,52.5)" style="opacity: 1;"><text class="legendtext" text-anchor="start" x="40" y="4.680000000000001" style="font-family: 'Open Sans', verdana, arial, sans-serif; font-size: 12px; fill: rgb(42, 63, 95); fill-opacity: 1; white-space: pre;">Half Quoted (in %)</text><g class="layers" style="opacity: 1;"><g class="legendfill"/><g class="legendlines"><path class="js-line" d="M5,0h30" style="fill: none; stroke: rgb(0, 204, 150); stroke-opacity: 1; stroke-width: 2px;"/></g><g class="legendsymbols"><g class="legendpoints"/></g></g><rect class="legendtoggle" x="0" y="-9.5" width="138.71875" height="19" style="fill: rgb(0, 0, 0); fill-opacity: 0;"/></g></g></g><rect class="scrollbar" rx="20" ry="3" width="0" height="0" style="fill: rgb(128, 139, 164); fill-opacity: 1;" x="0" y="0"/></g><g class="g-gtitle"/><g class="g-xtitle"><text class="xtitle" x="336.5" y="487.503125" text-anchor="middle" style="font-family: 'Open Sans', verdana, arial, sans-serif; font-size: 14px; fill: rgb(42, 63, 95); opacity: 1; font-weight: normal; white-space: pre;">Time Steps (ns)</text></g><g class="g-ytitle" transform="translate(24,0)"><text class="ytitle" transform="rotate(-90,12,250)" x="12" y="250" text-anchor="middle" style="font-family: 'Times New Roman'; font-size: 40px; fill: rgb(13, 13, 13); opacity: 1; font-weight: normal; white-space: pre;">Spreads (in %)</text></g></g></svg>