<svg class="main-svg" xmlns="http://www.w3.org/2000/svg" xmlns:xlink="http://www.w3.org/1999/xlink" width="700" height="500" style="" viewBox="0 0 700 500"><rect x="0" y="0" width="700" height="500" style="fill: rgb(255, 255, 255); fill-opacity: 1;"/><defs id="defs-6f6c7f"><g class="clips"><clipPath id="clip6f6c7fxyplot" class="plotclip"><rect width="497" height="320"/></clipPath><clipPath class="axesclip" id="clip6f6c7fx"><rect x="123" y="0" width="497" height="500"/></clipPath><clipPath class="axesclip" id="clip6f6c7fy"><rect x="0" y="100" width="700" height="320"/></clipPath><clipPath class="axesclip" id="clip6f6c7fxy"><rect x="123" y="100" width="497" height="320"/></clipPath></g><g class="gradients"/><g class="patterns"/></defs><g class="bglayer"><rect class="bg" x="123" y="100" width="497" height="320" style="fill: rgb(229, 236, 246); fill-opacity: 1; stroke-width: 0;"/></g><g class="layer-below"><g class="imagelayer"/><g class="shapelayer"/></g><g class="cartesianlayer"><g class="subplot xy"><g class="layer-subplot"><g class="shapelayer"/><g class="imagelayer"/></g><g class="minor-gridlayer"><g class="x"/><g class="y"/></g><g class="gridlayer"><g class="x"><path class="xgrid crisp" transform="translate(209.72,0)" d="M0,100v320" style="stroke: rgb(255, 255, 255); stroke-opacity: 1; stroke-width: 1px;"/><path class="xgrid crisp" transform="translate(308.35,0)" d="M0,100v320" style="stroke: rgb(255, 255, 255); stroke-opacity: 1; stroke-width: 1px;"/><path class="xgrid crisp" transform="translate(406.98,0)" d="M0,100v320" style="stroke: rgb(255, 255, 255); stroke-opacity: 1; stroke-width: 1px;"/><path class="xgrid crisp" transform="translate(505.61,0)" d="M0,100v320" style="stroke: rgb(255, 255, 255); stroke-opacity: 1; stroke-width: 1px;"/><path class="xgrid crisp" transform="translate(604.23,0)" d="M0,100v320" style="stroke: rgb(255, 255, 255); stroke-opacity: 1; stroke-width: 1px;"/></g><g class="y"><path class="ygrid crisp" transform="translate(0,355.03)" d="M123,0h497" style="stroke: rgb(255, 255, 255); stroke-opacity: 1; stroke-width: 1px;"/><path class="ygrid crisp" transform="translate(0,306.05)" d="M123,0h497" style="stroke: rgb(255, 255, 255); stroke-opacity: 1; stroke-width: 1px;"/><path class="ygrid crisp" transform="translate(0,257.08000000000004)" d="M123,0h497" style="stroke: rgb(255, 255, 255); stroke-opacity: 1; stroke-width: 1px;"/><path class="ygrid crisp" transform="translate(0,208.1)" d="M123,0h497" style="stroke: rgb(255, 255, 255); stroke-opacity: 1; stroke-width: 1px;"/><path class="ygrid crisp" transform="translate(0,159.12)" d="M123,0h497" style="stroke: rgb(255, 255, 255); stroke-opacity: 1; stroke-width: 1px;"/><path class="ygrid crisp" transform="translate(0,110.14)" d="M123,0h497" style="stroke: rgb(255, 255, 255); stroke-opacity: 1; stroke-width: 1px;"/></g></g><g class="zerolinelayer"><path class="yzl zl crisp" transform="translate(0,404.01)" d="M123,0h497" style="stroke: rgb(255, 255, 255); stroke-opacity: 1; stroke-width: 2px;"/></g><path class="xlines-below"/><path class="ylines-below"/><g class="overlines-below"/><g class="xaxislayer-below"/><g class="yaxislayer-below"/><g class="overaxes-below"/><g class="plot" transform="translate(123,100)" clip-path="url(#clip6f6c7fxyplot)"><g class="scatterlayer mlayer"><g class="trace scatter trace72830d" style="stroke-miterlimit: 2; opacity: 1;"><g class="fills"/><g class="errorbars"/><g class="lines"><path class="js-line" d="M0,304L4.09,302.16L4.1,302.15L8.14,300.45L8.24,300.44L14.15,297.66L14.15,297.66L14.3,297.65L23.19,293.56L23.19,293.54L26.64,292.05L26.64,292.04L31.71,289.41L31.89,289.41L54.4,276.52L54.4,276.51L56.31,275.21L56.31,275.2L61.96,271.87L61.96,271.86L66.32,269.57L66.32,269.57L66.37,269.56L72.73,266.22L72.73,266.21L82.19,260.4L82.19,260.4L82.19,260.39L88.01,257.29L88.01,257.29L88.15,257.28L94.94,253.06L94.94,253.06L94.94,253.05L100.3,249.57L100.3,249.56L102.97,247.92L103.01,247.92L105.01,246.61L105.08,246.61L110.36,243.46L110.36,243.46L110.47,243.46L117.77,239.09L117.77,239.08L121.66,236.73L121.66,236.71L133.76,229.83L133.76,229.82L139.94,226.42L139.94,226.42L139.98,226.41L141.78,225.47L141.78,225.47L141.78,225.46L143.73,224.36L143.73,224.35L145.64,223.09L145.64,223.09L145.69,223.08L148.73,221.66L148.73,221.65L152.92,219.17L152.92,219.17L152.92,219.16L161.07,214.32L161.07,214.32L161.08,214.32L165.59,211.73L165.59,211.73L165.59,211.72L167.85,210.42L167.85,210.42L167.99,210.41L170.39,208.71L170.39,208.71L170.41,208.7L184.19,200.67L184.24,200.67L208.61,186.16L208.61,186.16L208.67,186.16L211.19,184.26L211.23,184.26L213.31,182.94L213.31,182.94L213.32,182.92L216.15,181.09L216.26,181.09L219.94,179.14L219.94,179.13L221.06,178.39L221.06,178.38L221.13,178.37L224.74,176.13L224.74,176.13L224.9,176.13L230.39,172.51L230.39,172.51L230.45,172.5L238.72,168.11L238.72,168.11L238.72,168.1L240.55,166.91L240.6,166.9L266.9,152.84L266.9,152.84L266.99,152.84L276.68,146.73L276.68,146.73L276.85,146.72L278.79,145.57L278.79,145.56L281.02,144.1L281.18,144.09L287.38,140.32L287.44,140.31L289.92,138.85L289.96,138.85L291.63,137.81L291.7,137.81L294.24,136.25L294.24,136.24L300.16,132.96L300.16,132.95L303.23,131.32L303.3,131.31L354.2,101.68L354.2,101.67L356.89,100.31L356.89,100.3L379.42,87.39L379.61,87.39L383.89,84.77L383.93,84.77L387.74,82.86L387.84,82.85L394.19,78.84L394.2,78.83L396.06,78L396.06,78L396.11,77.99L398.89,76.28L398.89,76.27L403.71,73.07L403.72,73.06L405.92,71.69L405.97,71.69L437.41,53.19L437.41,53.19L437.46,53.18L439.26,52.19L439.26,52.19L439.27,52.19L445.39,48.45L445.46,48.45L447.23,47.2L447.35,47.19L448.54,46.58L448.54,46.58L448.62,46.57L460.08,39.32L460.08,39.32L460.08,39.3L464.71,36.39L464.77,36.38L488.41,21.54L488.41,21.53L489.84,20.25L489.84,20.25L489.95,20.24L497,16" style="vector-effect: non-scaling-stroke; fill: none; stroke: rgb(1, 102, 87); stroke-opacity: 1; stroke-width: 2px; opacity: 1;"/></g><g class="points"/><g class="text"/></g></g></g><g class="overplot"/><path class="xlines-above crisp" d="M0,0" style="fill: none;"/><path class="ylines-above crisp" d="M0,0" style="fill: none;"/><g class="overlines-above"/><g class="xaxislayer-above"><g class="xtick"><text text-anchor="middle" x="0" y="436" transform="translate(209.72,0)" style="font-family: 'Times New Roman'; font-size: 15px; fill: rgb(13, 13, 13); fill-opacity: 1; white-space: pre; opacity: 1;">1.61252×10​<tspan style="font-size:70%" dy="-0.6em">18</tspan><tspan dy="0.42em">​</tspan></text></g><g class="xtick"><text text-anchor="middle" x="0" y="436" style="font-family: 'Times New Roman'; font-size: 15px; fill: rgb(13, 13, 13); fill-opacity: 1; white-space: pre; opacity: 1;" transform="translate(308.35,0)">1.612525×10​<tspan style="font-size:70%" dy="-0.6em">18</tspan><tspan dy="0.42em">​</tspan></text></g><g class="xtick"><text text-anchor="middle" x="0" y="436" style="font-family: 'Times New Roman'; font-size: 15px; fill: rgb(13, 13, 13); fill-opacity: 1; white-space: pre; opacity: 1;" transform="translate(406.98,0)">1.61253×10​<tspan style="font-size:70%" dy="-0.6em">18</tspan><tspan dy="0.42em">​</tspan></text></g><g class="xtick"><text text-anchor="middle" x="0" y="436" style="font-family: 'Times New Roman'; font-size: 15px; fill: rgb(13, 13, 13); fill-opacity: 1; white-space: pre; opacity: 1;" transform="translate(505.61,0)">1.612535×10​<tspan style="font-size:70%" dy="-0.6em">18</tspan><tspan dy="0.42em">​</tspan></text></g><g class="xtick"><text text-anchor="middle" x="0" y="436" style="font-family: 'Times New Roman'; font-size: 15px; fill: rgb(13, 13, 13); fill-opacity: 1; white-space: pre; opacity: 1;" transform="translate(604.23,0)">1.61254×10​<tspan style="font-size:70%" dy="-0.6em">18</tspan><tspan dy="0.42em">​</tspan></text></g></g><g class="yaxislayer-above"><g class="ytick"><text text-anchor="end" x="122" y="12.25" transform="translate(0,404.01)" style="font-family: 'Times New Roman'; font-size: 35px; fill: rgb(13, 13, 13); fill-opacity: 1; white-space: pre; opacity: 1;">0</text></g><g class="ytick"><text text-anchor="end" x="122" y="12.25" style="font-family: 'Times New Roman'; font-size: 35px; fill: rgb(13, 13, 13); fill-opacity: 1; white-space: pre; opacity: 1;" transform="translate(0,355.03)">0.5B</text></g><g class="ytick"><text text-anchor="end" x="122" y="12.25" style="font-family: 'Times New Roman'; font-size: 35px; fill: rgb(13, 13, 13); fill-opacity: 1; white-space: pre; opacity: 1;" transform="translate(0,306.05)">1B</text></g><g class="ytick"><text text-anchor="end" x="122" y="12.25" style="font-family: 'Times New Roman'; font-size: 35px; fill: rgb(13, 13, 13); fill-opacity: 1; white-space: pre; opacity: 1;" transform="translate(0,257.08000000000004)">1.5B</text></g><g class="ytick"><text text-anchor="end" x="122" y="12.25" style="font-family: 'Times New Roman'; font-size: 35px; fill: rgb(13, 13, 13); fill-opacity: 1; white-space: pre; opacity: 1;" transform="translate(0,208.1)">2B</text></g><g class="ytick"><text text-anchor="end" x="122" y="12.25" style="font-family: 'Times New Roman'; font-size: 35px; fill: rgb(13, 13, 13); fill-opacity: 1; white-space: pre; opacity: 1;" transform="translate(0,159.12)">2.5B</text></g><g class="ytick"><text text-anchor="end" x="122" y="12.25" style="font-family: 'Times New Roman'; font-size: 35px; fill: rgb(13, 13, 13); fill-opacity: 1; white-space: pre; opacity: 1;" transform="translate(0,110.14)">3B</text></g></g><g class="overaxes-above"/></g></g><g class="polarlayer"/><g class="smithlayer"/><g class="ternarylayer"/><g class="geolayer"/><g class="funnelarealayer"/><g class="pielayer"/><g class="iciclelayer"/><g class="treemaplayer"/><g class="sunburstlayer"/><g class="glimages"/><defs id="topdefs-6f6c7f"><g class="clips"/></defs><g class="layer-above"><g class="imagelayer"/><g class="shapelayer"/></g><g class="infolayer"><g class="g-gtitle"/><g class="g-xtitle"><text class="xtitle" x="371.5" y="463.8" text-anchor="middle" style="font-family: 'Open Sans', verdana, arial, sans-serif; font-size: 14px; fill: rgb(42, 63, 95); opacity: 1; font-weight: normal; white-space: pre;">Time Steps (ns)</text></g><g class="g-ytitle" transform="translate(24.109375,0)"><text class="ytitle" transform="rotate(-90,11.890625,260)" x="11.890625" y="260" text-anchor="middle" style="font-family: 'Times New Roman'; font-size: 40px; fill: rgb(13, 13, 13); opacity: 1; font-weight: normal; white-space: pre;">Cum. executed trading vol. (in $)</text></g></g></svg>