<svg class="main-svg" xmlns="http://www.w3.org/2000/svg" xmlns:xlink="http://www.w3.org/1999/xlink" width="700" height="500" style="" viewBox="0 0 700 500"><rect x="0" y="0" width="700" height="500" style="fill: rgb(255, 255, 255); fill-opacity: 1;"/><defs id="defs-8127af"><g class="clips"><clipPath id="clip8127afxyplot" class="plotclip"><rect width="489" height="320"/></clipPath><clipPath class="axesclip" id="clip8127afx"><rect x="131" y="0" width="489" height="500"/></clipPath><clipPath class="axesclip" id="clip8127afy"><rect x="0" y="100" width="700" height="320"/></clipPath><clipPath class="axesclip" id="clip8127afxy"><rect x="131" y="100" width="489" height="320"/></clipPath></g><g class="gradients"/><g class="patterns"/></defs><g class="bglayer"><rect class="bg" x="131" y="100" width="489" height="320" style="fill: rgb(229, 236, 246); fill-opacity: 1; stroke-width: 0;"/></g><g class="layer-below"><g class="imagelayer"/><g class="shapelayer"/></g><g class="cartesianlayer"><g class="subplot xy"><g class="layer-subplot"><g class="shapelayer"/><g class="imagelayer"/></g><g class="minor-gridlayer"><g class="x"/><g class="y"/></g><g class="gridlayer"><g class="x"><path class="xgrid crisp" transform="translate(216.35,0)" d="M0,100v320" style="stroke: rgb(255, 255, 255); stroke-opacity: 1; stroke-width: 1px;"/><path class="xgrid crisp" transform="translate(313.39,0)" d="M0,100v320" style="stroke: rgb(255, 255, 255); stroke-opacity: 1; stroke-width: 1px;"/><path class="xgrid crisp" transform="translate(410.43,0)" d="M0,100v320" style="stroke: rgb(255, 255, 255); stroke-opacity: 1; stroke-width: 1px;"/><path class="xgrid crisp" transform="translate(507.46,0)" d="M0,100v320" style="stroke: rgb(255, 255, 255); stroke-opacity: 1; stroke-width: 1px;"/><path class="xgrid crisp" transform="translate(604.5,0)" d="M0,100v320" style="stroke: rgb(255, 255, 255); stroke-opacity: 1; stroke-width: 1px;"/></g><g class="y"><path class="ygrid crisp" transform="translate(0,354.90999999999997)" d="M131,0h489" style="stroke: rgb(255, 255, 255); stroke-opacity: 1; stroke-width: 1px;"/><path class="ygrid crisp" transform="translate(0,305.81)" d="M131,0h489" style="stroke: rgb(255, 255, 255); stroke-opacity: 1; stroke-width: 1px;"/><path class="ygrid crisp" transform="translate(0,256.71000000000004)" d="M131,0h489" style="stroke: rgb(255, 255, 255); stroke-opacity: 1; stroke-width: 1px;"/><path class="ygrid crisp" transform="translate(0,207.61)" d="M131,0h489" style="stroke: rgb(255, 255, 255); stroke-opacity: 1; stroke-width: 1px;"/><path class="ygrid crisp" transform="translate(0,158.52)" d="M131,0h489" style="stroke: rgb(255, 255, 255); stroke-opacity: 1; stroke-width: 1px;"/><path class="ygrid crisp" transform="translate(0,109.42)" d="M131,0h489" style="stroke: rgb(255, 255, 255); stroke-opacity: 1; stroke-width: 1px;"/></g></g><g class="zerolinelayer"><path class="yzl zl crisp" transform="translate(0,404.01)" d="M131,0h489" style="stroke: rgb(255, 255, 255); stroke-opacity: 1; stroke-width: 2px;"/></g><path class="xlines-below"/><path class="ylines-below"/><g class="overlines-below"/><g class="xaxislayer-below"/><g class="yaxislayer-below"/><g class="overaxes-below"/><g class="plot" transform="translate(131,100)" clip-path="url(#clip8127afxyplot)"><g class="scatterlayer mlayer"><g class="trace scatter trace2674aa" style="stroke-miterlimit: 2; opacity: 1;"><g class="fills"/><g class="errorbars"/><g class="lines"><path class="js-line" d="M0,304L2.51,303L2.51,302.99L5.66,301.63L5.67,301.62L8.27,300.38L8.27,300.38L8.33,300.37L20.97,294.44L20.97,294.44L21.03,294.43L34.84,288.51L34.85,288.5L37.42,286.7L37.42,286.69L43.66,282.97L43.66,282.97L43.71,282.96L49.83,278.97L49.83,278.96L54.77,275.67L54.77,275.66L57.94,273.84L57.94,273.82L64.13,269.98L64.13,269.97L70.03,266.59L70.03,266.58L72.49,264.94L72.49,264.92L83.56,258.89L83.56,258.88L85.55,257.49L85.61,257.49L95.24,251.73L95.34,251.72L101.19,248.17L101.19,248.16L103.85,246.49L103.85,246.49L103.85,246.48L105.9,245.2L105.9,245.19L112.04,241.55L112.04,241.55L112.04,241.54L114.18,240.36L114.18,240.36L114.29,240.35L124.68,234.02L124.68,234.02L124.73,234.02L139.69,225.53L139.69,225.53L139.74,225.53L141.82,224.47L141.82,224.47L141.86,224.46L144.18,223.16L144.23,223.16L145.25,222.56L145.32,222.56L148.89,220.28L148.89,220.27L152.41,217.95L152.41,217.94L155.79,215.68L155.79,215.67L162.16,211.87L162.16,211.86L165.18,209.82L165.29,209.81L169.1,207.59L169.23,207.58L179.36,201.71L179.36,201.71L179.36,201.7L181.75,199.99L181.75,199.99L181.77,199.98L185.81,197.58L185.81,197.58L185.85,197.57L188.51,195.9L188.51,195.9L188.51,195.89L193.19,193.31L193.19,193.31L193.21,193.3L200.67,189.56L200.67,189.56L200.72,189.55L206.43,186.17L206.48,186.17L236.96,169.24L236.96,169.23L242.76,165.91L242.76,165.91L242.76,165.9L247.01,163.27L247.01,163.26L249.03,162.44L249.03,162.43L255.47,158.86L255.47,158.86L255.52,158.85L261.76,155.36L261.76,155.36L261.76,155.34L267.28,152.18L267.28,152.18L267.28,152.17L269.04,151.18L269.04,151.18L269.04,151.17L270.39,150.14L270.41,150.13L312.6,125.24L312.61,125.23L317.09,122.67L317.09,122.66L319.26,121.35L319.26,121.34L321.68,119.98L321.68,119.96L338.21,110.53L338.21,110.53L338.25,110.53L363.37,95.77L363.53,95.77L366.87,93.56L366.87,93.56L367,93.55L370.98,90.74L370.98,90.74L370.98,90.73L378.65,86.06L378.65,86.06L378.65,86.05L384.68,82.37L384.75,82.36L386.44,81.56L386.52,81.55L388.61,80.37L388.61,80.37L388.63,80.36L392.56,78.1L392.56,78.09L395.84,75.98L395.84,75.97L400.58,73.19L400.58,73.19L400.69,73.19L406.53,69.46L406.58,69.46L408.3,68.48L408.3,68.48L408.37,68.48L413.1,65.89L413.1,65.89L413.21,65.88L416.6,63.21L416.67,63.21L421.57,60.07L421.57,60.07L421.61,60.07L424.3,58.11L424.3,58.1L425.5,57.3L425.59,57.3L429.82,55.1L429.82,55.09L433.29,52.76L433.29,52.76L433.29,52.75L434.98,51.51L434.98,51.5L458.78,35.98L458.78,35.97L462.98,33.19L462.98,33.18L473.88,26.27L473.88,26.27L473.88,26.24L479.77,22.49L479.77,22.48L488.39,16.44L488.39,16.43L489,16" style="vector-effect: non-scaling-stroke; fill: none; stroke: rgb(173, 0, 0); stroke-opacity: 1; stroke-width: 2px; opacity: 1;"/></g><g class="points"/><g class="text"/></g></g></g><g class="overplot"/><path class="xlines-above crisp" d="M0,0" style="fill: none;"/><path class="ylines-above crisp" d="M0,0" style="fill: none;"/><g class="overlines-above"/><g class="xaxislayer-above"><g class="xtick"><text text-anchor="middle" x="0" y="436" transform="translate(216.35,0)" style="font-family: 'Times New Roman'; font-size: 15px; fill: rgb(13, 13, 13); fill-opacity: 1; white-space: pre; opacity: 1;">1.61252×10​<tspan style="font-size:70%" dy="-0.6em">18</tspan><tspan dy="0.42em">​</tspan></text></g><g class="xtick"><text text-anchor="middle" x="0" y="436" style="font-family: 'Times New Roman'; font-size: 15px; fill: rgb(13, 13, 13); fill-opacity: 1; white-space: pre; opacity: 1;" transform="translate(313.39,0)">1.612525×10​<tspan style="font-size:70%" dy="-0.6em">18</tspan><tspan dy="0.42em">​</tspan></text></g><g class="xtick"><text text-anchor="middle" x="0" y="436" style="font-family: 'Times New Roman'; font-size: 15px; fill: rgb(13, 13, 13); fill-opacity: 1; white-space: pre; opacity: 1;" transform="translate(410.43,0)">1.61253×10​<tspan style="font-size:70%" dy="-0.6em">18</tspan><tspan dy="0.42em">​</tspan></text></g><g class="xtick"><text text-anchor="middle" x="0" y="436" style="font-family: 'Times New Roman'; font-size: 15px; fill: rgb(13, 13, 13); fill-opacity: 1; white-space: pre; opacity: 1;" transform="translate(507.46,0)">1.612535×10​<tspan style="font-size:70%" dy="-0.6em">18</tspan><tspan dy="0.42em">​</tspan></text></g><g class="xtick"><text text-anchor="middle" x="0" y="436" style="font-family: 'Times New Roman'; font-size: 15px; fill: rgb(13, 13, 13); fill-opacity: 1; white-space: pre; opacity: 1;" transform="translate(604.5,0)">1.61254×10​<tspan style="font-size:70%" dy="-0.6em">18</tspan><tspan dy="0.42em">​</tspan></text></g></g><g class="yaxislayer-above"><g class="ytick"><text text-anchor="end" x="130" y="12.25" transform="translate(0,404.01)" style="font-family: 'Times New Roman'; font-size: 35px; fill: rgb(13, 13, 13); fill-opacity: 1; white-space: pre; opacity: 1;">0</text></g><g class="ytick"><text text-anchor="end" x="130" y="12.25" style="font-family: 'Times New Roman'; font-size: 35px; fill: rgb(13, 13, 13); fill-opacity: 1; white-space: pre; opacity: 1;" transform="translate(0,354.90999999999997)">0.5M</text></g><g class="ytick"><text text-anchor="end" x="130" y="12.25" style="font-family: 'Times New Roman'; font-size: 35px; fill: rgb(13, 13, 13); fill-opacity: 1; white-space: pre; opacity: 1;" transform="translate(0,305.81)">1M</text></g><g class="ytick"><text text-anchor="end" x="130" y="12.25" style="font-family: 'Times New Roman'; font-size: 35px; fill: rgb(13, 13, 13); fill-opacity: 1; white-space: pre; opacity: 1;" transform="translate(0,256.71000000000004)">1.5M</text></g><g class="ytick"><text text-anchor="end" x="130" y="12.25" style="font-family: 'Times New Roman'; font-size: 35px; fill: rgb(13, 13, 13); fill-opacity: 1; white-space: pre; opacity: 1;" transform="translate(0,207.61)">2M</text></g><g class="ytick"><text text-anchor="end" x="130" y="12.25" style="font-family: 'Times New Roman'; font-size: 35px; fill: rgb(13, 13, 13); fill-opacity: 1; white-space: pre; opacity: 1;" transform="translate(0,158.52)">2.5M</text></g><g class="ytick"><text text-anchor="end" x="130" y="12.25" style="font-family: 'Times New Roman'; font-size: 35px; fill: rgb(13, 13, 13); fill-opacity: 1; white-space: pre; opacity: 1;" transform="translate(0,109.42)">3M</text></g></g><g class="overaxes-above"/></g></g><g class="polarlayer"/><g class="smithlayer"/><g class="ternarylayer"/><g class="geolayer"/><g class="funnelarealayer"/><g class="pielayer"/><g class="iciclelayer"/><g class="treemaplayer"/><g class="sunburstlayer"/><g class="glimages"/><defs id="topdefs-8127af"><g class="clips"/></defs><g class="layer-above"><g class="imagelayer"/><g class="shapelayer"/></g><g class="infolayer"><g class="g-gtitle"/><g class="g-xtitle"><text class="xtitle" x="375.5" y="463.8" text-anchor="middle" style="font-family: 'Open Sans', verdana, arial, sans-serif; font-size: 14px; fill: rgb(42, 63, 95); opacity: 1; font-weight: normal; white-space: pre;">Time Steps (ns)</text></g><g class="g-ytitle" transform="translate(23.875,0)"><text class="ytitle" transform="rotate(-90,12.125,260)" x="12.125" y="260" text-anchor="middle" style="font-family: 'Times New Roman'; font-size: 40px; fill: rgb(13, 13, 13); opacity: 1; font-weight: normal; white-space: pre;">Cum. qty. executed securites</text></g></g></svg>