<svg class="main-svg" xmlns="http://www.w3.org/2000/svg" xmlns:xlink="http://www.w3.org/1999/xlink" width="700" height="500" style="" viewBox="0 0 700 500"><rect x="0" y="0" width="700" height="500" style="fill: rgb(255, 255, 255); fill-opacity: 1;"/><defs id="defs-05b161"><g class="clips"><clipPath id="clip05b161xyplot" class="plotclip"><rect width="494" height="320"/></clipPath><clipPath class="axesclip" id="clip05b161x"><rect x="126" y="0" width="494" height="500"/></clipPath><clipPath class="axesclip" id="clip05b161y"><rect x="0" y="100" width="700" height="320"/></clipPath><clipPath class="axesclip" id="clip05b161xy"><rect x="126" y="100" width="494" height="320"/></clipPath></g><g class="gradients"/><g class="patterns"/></defs><g class="bglayer"><rect class="bg" x="126" y="100" width="494" height="320" style="fill: rgb(229, 236, 246); fill-opacity: 1; stroke-width: 0;"/></g><g class="layer-below"><g class="imagelayer"/><g class="shapelayer"/></g><g class="cartesianlayer"><g class="subplot xy"><g class="layer-subplot"><g class="shapelayer"/><g class="imagelayer"/></g><g class="minor-gridlayer"><g class="x"/><g class="y"/></g><g class="gridlayer"><g class="x"><path class="xgrid crisp" transform="translate(212.2,0)" d="M0,100v320" style="stroke: rgb(255, 255, 255); stroke-opacity: 1; stroke-width: 1px;"/><path class="xgrid crisp" transform="translate(310.23,0)" d="M0,100v320" style="stroke: rgb(255, 255, 255); stroke-opacity: 1; stroke-width: 1px;"/><path class="xgrid crisp" transform="translate(408.26,0)" d="M0,100v320" style="stroke: rgb(255, 255, 255); stroke-opacity: 1; stroke-width: 1px;"/><path class="xgrid crisp" transform="translate(506.3,0)" d="M0,100v320" style="stroke: rgb(255, 255, 255); stroke-opacity: 1; stroke-width: 1px;"/><path class="xgrid crisp" transform="translate(604.3299999999999,0)" d="M0,100v320" style="stroke: rgb(255, 255, 255); stroke-opacity: 1; stroke-width: 1px;"/></g><g class="y"><path class="ygrid crisp" transform="translate(0,355.56)" d="M126,0h494" style="stroke: rgb(255, 255, 255); stroke-opacity: 1; stroke-width: 1px;"/><path class="ygrid crisp" transform="translate(0,307.71000000000004)" d="M126,0h494" style="stroke: rgb(255, 255, 255); stroke-opacity: 1; stroke-width: 1px;"/><path class="ygrid crisp" transform="translate(0,259.85)" d="M126,0h494" style="stroke: rgb(255, 255, 255); stroke-opacity: 1; stroke-width: 1px;"/><path class="ygrid crisp" transform="translate(0,211.99)" d="M126,0h494" style="stroke: rgb(255, 255, 255); stroke-opacity: 1; stroke-width: 1px;"/><path class="ygrid crisp" transform="translate(0,164.14)" d="M126,0h494" style="stroke: rgb(255, 255, 255); stroke-opacity: 1; stroke-width: 1px;"/><path class="ygrid crisp" transform="translate(0,116.28)" d="M126,0h494" style="stroke: rgb(255, 255, 255); stroke-opacity: 1; stroke-width: 1px;"/></g></g><g class="zerolinelayer"><path class="yzl zl crisp" transform="translate(0,403.42)" d="M126,0h494" style="stroke: rgb(255, 255, 255); stroke-opacity: 1; stroke-width: 2px;"/></g><path class="xlines-below"/><path class="ylines-below"/><g class="overlines-below"/><g class="xaxislayer-below"/><g class="yaxislayer-below"/><g class="overaxes-below"/><g class="plot" transform="translate(126,100)" clip-path="url(#clip05b161xyplot)"><g class="scatterlayer mlayer"><g class="trace scatter tracec34e2f" style="stroke-miterlimit: 2; opacity: 1;"><g class="fills"/><g class="errorbars"/><g class="lines"><path class="js-line" d="M0,303.35L0.67,303.96L0.71,303.19L0.71,303.24L0.72,303.16L1.01,303.18L1.45,301.13L1.52,301.18L2.38,295.22L2.39,295.14L3.14,292.6L3.52,293.47L3.54,293.52L3.7,293.78L3.87,292.9L3.87,292.9L3.98,292.83L4.09,293.14L4.74,292.43L4.76,292.48L5.1,292.26L5.4,293.27L5.4,293.46L5.42,293.24L5.81,293.96L6.08,293.72L6.13,293.65L6.53,293.24L6.86,293.7L6.89,293.63L7.01,293.52L7.04,294.38L7.06,294.4L7.06,294.59L7.94,296.51L7.94,296.44L8,296.47L8.25,296.41L8.78,297.05L8.79,296.98L8.83,297.02L9.18,297.11L9.24,296.54L9.24,296.4L9.98,294.57L10.04,294.5L10.09,294.57L10.13,293.86L10.76,294.25L10.82,294.3L10.93,294.18L10.97,295.2L10.97,295.25L11.09,295.15L11.3,296.47L11.51,295.3L11.53,295.23L12.23,294.2L12.26,293.91L12.41,293.29L13.06,293.55L13.13,293.59L13.45,291.72L13.85,293.04L13.85,293.13L14.07,292.5L14.6,293.12L14.6,293.21L14.63,293.39L15.27,292.86L15.3,292.86L15.46,292.79L15.86,292.02L16.25,292.23L16.38,292.22L16.41,292.65L17.09,291.45L17.09,291.5L17.16,291.43L17.26,291.66L17.51,290.64L17.57,290.57L18.65,288.14L18.71,288.43L18.71,288.53L18.71,288.68L19.19,286.68L19.43,287.61L19.47,287.54L20.02,286.21L20.26,286.23L20.42,286.28L21.44,284.21L21.45,284.25L21.45,284.3L21.63,285.68L21.9,282.52L22.06,283.07L22.06,283L22.79,282.13L22.79,282.95L22.79,283.14L23.05,284.01L23.11,282.63L23.47,282.81L23.56,282.86L23.56,282.57L24.16,283.8L24.31,283.4L24.37,283.33L24.82,283.52L25.21,281.75L25.38,282.18L25.38,282.23L25.6,282.55L25.72,281.73L25.72,281.66L26.31,279.71L26.49,280.16L26.56,280.08L27.16,276.71L27.3,277.45L27.38,277.46L27.6,278.39L28.04,277.78L28.15,277.8L28.2,277.65L28.49,278.55L28.65,278.56L28.65,278.75L29.4,276.77L29.44,277.97L29.44,278.16L29.88,276.82L30.03,277.62L30.26,277.55L30.39,277.8L30.78,277.08L31,277.09L31.03,277.14L31.06,277.38L31.77,274.65L31.85,274.7L32.49,270.27L32.59,270.41L32.64,270.42L32.72,269.94L33.18,271.09L33.21,271.28L33.34,272.24L33.92,272.21L33.99,272.26L34.1,272.65L34.73,270.96L35,271.41L35,271.43L35.14,272.29L35.64,270.74L35.75,271.47L35.81,271.4L36.27,270.4L36.57,271.19L36.59,271.18L37.1,272.33L37.39,269.76L37.39,269.85L37.44,269.78L38.46,269.26L38.5,269.5L38.5,269.54L39.2,270.05L39.3,269.48L39.3,269.41L40.82,267.85L40.82,267.78L41.41,270.96L41.55,270.72L41.68,270.65L42.33,268.06L42.33,268.11L42.46,268.14L43.1,265.73L43.16,266L43.24,266.05L43.54,265.66L43.77,266.84L44.11,266.14L44.11,266.06L44.16,266.26L44.42,264.29L44.42,264.3L44.43,264.23L45.07,261.92L45.18,262.01L45.2,262.06L45.44,261.53L45.92,262.11L45.93,262.16L46.14,262.42L46.27,261.32L46.4,261.53L46.48,261.58L46.67,262.75L47.08,261.91L47.08,261.62L47.17,262.12L48.33,257.8L48.4,258.54L48.42,258.78L48.98,261.89L49.07,261.37L49.22,261.42L49.42,260.73L49.94,264.94L49.96,264.71L50.01,264.43L50.55,265.65L50.79,265.37L50.83,265.3L50.91,265.66L50.99,263.88L51.36,264.75L51.36,264.61L51.79,265.4L51.89,264.88L51.89,264.6L51.99,264.35L52.11,265.2L52.51,264.98L52.51,265.08L52.55,265.56L53.24,262.07L53.34,263.05L53.36,263.25L54.28,265.55L54.29,265.29L54.38,265.3L54.7,264.55L55.06,266.13L55.12,266.18L55.28,266.8L55.3,265.34L55.36,265.2L55.88,263.65L56.1,264.88L56.15,264.98L56.49,265.8L56.82,262.68L56.88,262.96L57.03,262.88L57.75,259.22L57.75,259.27L57.79,259.27L58.11,260.38L58.47,259.01L58.47,258.73L58.57,259.17L58.66,257.14L58.67,257.07L59.05,252.62L59.57,253.11L59.66,253.16L60.1,253.72L60.1,253.82L60.35,252.49L60.59,254L60.69,253.47L60.72,253.36L61.24,252.66L61.31,254.06L61.46,254.04L61.49,254.08L61.96,256.04L62.08,254.71L62.22,254.7L62.25,254.27L62.79,256.46L62.83,256.46L62.89,256.51L62.97,256.27L63.21,257.52L63.21,257.52L63.23,257.57L63.4,257.42L63.48,258.17L63.48,258.36L63.68,259.39L64.29,259.14L64.29,258.85L64.3,259L64.58,254.88L64.8,255.74L64.86,255.79L66.03,255.04L66.12,255.4L66.12,255.45L66.92,257.41L66.92,257.51L67.46,258.72L67.79,258.21L67.88,258.19L68.17,258.37L68.35,257.63L68.35,257.55L68.88,256.53L69.08,257.35L69.12,257.4L69.8,257.61L69.82,257.27L69.82,257.2L69.84,257.43L70.23,255.99L70.53,257.13L70.57,257.18L70.83,255.73L71.25,256.09L71.34,256.13L71.59,256.54L71.94,254.19L71.94,254.22L71.96,253.93L72.57,251.24L72.91,252.08L73.06,252.23L73.2,252.91L73.7,252.21L73.76,251.93L74.25,251.71L74.36,252.21L74.49,251.93L74.53,252.12L75.25,254.27L75.25,254.2L75.31,254.05L75.37,253.53L75.77,255.23L76.06,254.35L76.08,254.39L76.43,253.11L76.87,255.85L76.93,255.08L76.93,255.01L77.22,256.05L77.49,254.49L77.64,254.83L77.68,254.92L78.68,250.9L79.11,251.25L79.13,251.3L79.85,248.77L79.89,248.82L80.47,246.06L80.81,246.96L80.84,246.97L80.87,247.24L81.31,246.15L81.47,246.24L81.52,245.96L81.73,244.35L82.37,244.93L82.42,244.92L82.46,245.21L83.12,243.34L83.13,243.41L83.19,243.46L84.93,242.12L84.93,242.05L85.19,240.99L85.25,242.73L85.65,242.1L85.7,242.09L85.88,242.89L86.21,242.12L86.25,241.69L86.99,240.18L87.04,240.11L87.37,240.33L87.48,239.79L87.62,239.72L88.08,237.91L88.53,238.37L88.53,238.47L88.81,239.73L89.09,238.99L89.09,238.91L89.21,238.7L89.55,239.51L89.55,239.7L90.05,237.58L90.07,237.63L90.07,237.34L90.11,237.04L90.25,238.11L90.79,237.54L90.82,237.53L91.99,234.1L92.14,235.24L92.14,235.31L92.58,236.36L92.82,234.13L92.87,235.06L92.89,235.11L92.97,235.25L93.2,233.93L93.32,235.25L93.36,235.3L94.19,236.1L94.19,235.89L94.2,235.74L94.33,234.76L94.83,236.2L94.84,236.1L94.92,236.16L94.97,235.8L95.55,237.07L95.55,236.93L95.61,236.92L95.68,237.08L96.35,234.67L96.39,234.39L97.93,239.67L98.1,239.02L98.17,238.88L98.18,238.52L98.6,239.38L98.91,238.56L98.93,238.57L99.67,226.94L99.69,226.83L100.56,223.33L100.58,224.5L100.59,224.54L100.74,224.48L101.03,225.85L101.34,224.52L101.34,224.38L101.62,223.51L102.02,224.98L102.08,224.88L102.11,224.73L102.58,226.07L102.59,226.21L103.12,227.96L103.58,227.58L103.58,227.44L103.9,226.01L104.2,227.36L104.23,227.41L104.58,226.9L104.58,227.85L104.89,227.77L104.94,227.87L105.14,226.59L105.14,226.44L105.16,226.27L105.55,227.71L105.77,227.43L105.78,227.43L106.07,228.28L106.53,227.03L106.54,227.08L106.76,226.6L107.14,227.67L107.14,227.82L107.41,228.35L107.79,226.18L107.8,226.03L108.13,226.61L108.27,225.34L108.35,225.27L108.39,224.75L109.09,227.76L109.11,227.8L109.52,227.51L109.52,227.44L109.56,227.16L109.85,227.57L110.32,226.57L110.39,226.43L110.73,224.73L110.86,226.8L111.12,226.19L111.27,226.24L112.11,222.59L112.32,223.24L112.32,223.34L112.78,223.11L113.09,224.25L113.1,223.9L113.17,223.68L114.43,220.24L114.49,220.44L114.9,220.04L115.04,221.27L115.23,220.98L115.26,221.03L115.29,221.44L115.88,218.12L116.01,219.9L116.11,219.83L116.16,219.59L116.56,221.52L116.62,221.57L116.95,221.33L117.34,224.82L117.38,224.75L118.11,227.57L118.15,227.5L118.2,227.78L119.47,222.34L119.73,222.69L119.73,222.88L120.07,223.99L120.46,221.82L120.51,222.5L120.56,222.69L120.84,222L120.88,224.68L120.92,224.66L120.92,224.85L121.29,229.33L121.73,227.95L121.73,227.81L122.35,228.73L122.35,228.66L122.42,228.85L122.66,229.56L122.91,227.93L123.09,228.27L123.13,227.99L123.22,228.42L123.78,225.64L123.78,225.68L123.89,225.6L124.16,225.44L124.61,227.85L124.89,227.04L124.89,226.75L125,226.37L125.44,227.24L125.46,227.43L125.75,227.86L125.94,226.69L126.18,227.05L126.25,227.1L126.32,227.28L126.69,225.5L126.69,225.43L126.7,224.93L126.7,225.98L127.43,225.68L127.45,225.61L127.81,226.05L128.05,224.94L128.14,225.44L128.14,225.15L128.77,226.82L129.06,225.98L129.06,225.91L129.29,225.41L129.87,227.16L129.94,226.23L129.94,225.94L130.4,223.19L130.75,223.9L130.77,223.83L131.53,222.79L131.59,222.72L132.34,221.18L132.37,221.22L132.69,222.81L132.91,221.41L132.92,221.12L133.65,219.07L133.69,219.37L133.78,219.42L134.01,220.25L134.32,218.71L134.35,218.57L134.89,218.85L135.15,217.51L135.24,217.44L135.4,216.68L135.63,217.6L135.99,217.11L136.01,217.15L136.24,216.92L136.95,218.59L137.12,218.1L137.12,217.96L137.21,217.32L137.77,218.71L137.87,218.63L137.9,218.68L138.06,218.85L138.27,217.62L138.27,217.55L138.66,216.91L138.9,218.28L138.93,218.16L139.05,218.19L139.13,218.62L139.43,217.58L139.75,217.97L139.78,217.96L140.5,216.02L140.55,215.95L140.65,215.56L140.89,216.88L140.89,217.07L141.21,217.49L141.41,215.52L141.8,216.5L141.9,216.54L142.57,215.29L142.68,216.08L142.68,216.12L142.86,215.56L142.92,216.75L143.39,216.44L143.46,216.63L144.48,220.21L144.55,219L144.55,218.71L144.57,218.35L145.24,219.47L145.27,219.52L145.48,219.98L145.66,218.66L145.98,219.35L146.06,219.06L146.86,217.1L147.02,217.36L147.05,217.29L147.77,214.61L147.83,214.54L148.53,216.54L148.89,215.98L148.9,215.91L149.23,215.76L149.27,216.53L149.3,216.67L150.6,218.99L150.63,219.18L151.04,218.17L151.11,219.49L151.34,219.16L151.38,219.35L151.53,219.16L151.66,220.8L151.67,220.99L151.89,220.74L152.02,221.72L152.03,221.77L152.14,222.89L152.14,223.08L152.46,224.07L152.99,217.51L153.58,218.1L153.63,218.2L154.56,214.52L154.61,214.76L154.65,214.95L154.95,214.84L155.43,216.03L155.53,215.67L155.54,215.6L155.78,215.87L156.21,213.56L156.62,214.28L156.69,214.32L157.44,209.91L157.44,209.96L157.49,209.88L158.23,207.6L158.23,207.63L158.25,207.55L158.83,207.12L158.89,208.4L158.93,208.24L158.93,208.29L159.07,208.01L159.15,208.75L159.29,208.76L159.29,208.95L159.43,208.41L159.86,209.05L159.9,208.55L159.91,208.48L160.13,207.8L160.47,208.91L160.64,207.95L160.73,207.87L161.3,207.94L161.46,207.54L161.5,207.35L162.1,206.68L162.25,206.93L162.27,206.98L162.47,207.34L162.6,205.83L163.01,206.44L163.03,206.49L163.08,205.8L163.74,208.7L163.8,208.63L163.93,208.32L164.41,209.34L164.41,209.27L164.54,209.2L164.84,212.27L165.29,211.87L165.3,211.87L165.92,214.42L166.04,213.04L166.14,212.46L167.25,207.49L167.27,207.63L167.39,207.67L167.46,207.56L168.14,210.25L168.15,210.3L168.84,206.34L168.84,206.39L168.91,206.44L169.36,203.1L169.37,203.42L169.38,202.77L169.52,202.97L169.66,201.7L169.68,201.63L169.88,200.96L169.88,201.01L169.88,200.72L169.9,201.05L170.33,197.4L170.33,197.49L170.41,197.52L170.6,198.28L170.75,196.51L171.08,197.05L171.24,196.97L171.43,196.53L171.45,197.49L171.45,197.97L171.45,197.75L172.18,202.47L172.2,202.3L172.21,202.23L173.31,203.91L173.32,203.64L173.33,203.56L173.52,204.28L174.09,202.66L174.12,202.72L174.13,202.72L174.32,202.3L174.71,204.14L174.88,203.41L174.89,203.46L175.91,207.9L176.21,207.44L176.21,207.15L176.38,206.42L176.47,207.63L176.94,206.85L176.97,206.9L177.13,206.54L177.47,207.08L177.47,207.27L177.52,208.04L177.88,206.98L178.04,206.98L178.17,207.01L178.3,208L178.69,204.61L178.89,205.37L178.93,205.3L179.29,204.03L179.68,206.23L179.69,206.28L180.18,207.45L180.43,207.23L180.55,207.23L180.65,207.04L180.96,207.97L181.1,207.94L181.1,207.99L181.65,209.46L181.82,209.03L181.86,209.08L181.99,209.16L182.03,208.51L182.04,208.59L182.04,208.3L182.66,204.05L182.78,204.76L182.8,204.69L183.14,205.56L183.43,204.2L183.43,204.24L183.48,204.24L183.62,204.78L184.4,203.09L184.51,203.34L184.51,203.39L184.54,203.17L184.89,205.53L184.94,205.53L184.99,205.58L185.56,203.58L185.84,204.2L185.86,204.25L185.98,203.58L186.58,205.76L186.58,205.47L186.62,205.19L186.63,205.35L187.24,203.43L187.24,203.57L187.28,203.5L188.87,205.94L188.93,205.68L188.93,205.53L189.01,204.7L189.31,205.92L189.68,205.14L189.7,205.07L189.71,204.64L190.32,207.44L190.32,207.37L190.4,207.42L190.47,207.23L190.76,208.07L190.95,207.98L190.95,208.18L191.69,211.59L191.72,211.52L191.83,211.73L191.89,210.97L191.95,210.47L192.04,210.78L192.68,209.09L192.69,210.44L192.71,210.45L192.83,210.66L193.07,209.74L193.08,209.75L193.08,209.47L193.25,208.43L193.75,211.53L193.81,211.57L194.65,213.51L194.72,213.05L194.72,212.76L195.62,208.4L195.76,208.75L195.76,208.8L196.35,209.47L196.53,209.38L196.56,209.43L196.57,209.62L197.03,207.7L197.21,207.77L197.25,207.7L197.42,208.25L198.35,203.48L198.36,203.67L198.42,203.31L198.61,202.2L198.84,204.45L198.84,204.45L198.9,204.5L198.98,204.46L199.68,206.74L200.02,205.87L200.02,205.8L200.82,206.57L200.93,206.21L200.93,206.14L201.17,206.53L201.27,205.46L201.38,205.41L201.38,205.34L201.72,206.22L201.88,205.46L201.88,205.39L202.07,204.67L202.32,206.71L202.53,205.8L202.69,205.85L202.98,206.22L203.91,199.62L204.41,200.57L204.48,200.59L204.91,200.19L204.91,200.95L205.17,200.73L205.17,200.83L206.66,204.18L206.78,203.61L206.81,203.47L206.91,203.98L207.46,202.87L207.46,202.92L207.48,202.63L207.69,200.27L208.29,201.26L208.29,201.31L209.58,196.83L209.58,196.19L209.84,193.61L210.32,194.24L210.38,194.29L210.41,194.14L210.62,195.35L211.02,194.89L211.02,194.94L211.44,194.27L211.77,196.37L211.81,196.3L211.81,196.49L212.44,194.21L212.48,194.28L212.57,194.28L213.15,194.2L213.25,195.21L213.35,194.78L213.35,194.49L213.48,193.7L214.04,197.23L214.11,197.27L214.16,197.04L214.25,197.94L214.83,197.57L214.84,197.61L215.37,197.96L215.55,196.64L215.56,196.92L215.63,196.97L215.95,196.7L216.29,197.99L216.31,197.83L216.49,197.76L216.7,197.2L216.87,198.48L217.12,198.2L217.22,198.3L217.39,198.78L217.83,198.06L217.92,198.56L217.95,198.61L218.89,195.88L218.89,195.6L219.06,195.42L220.42,199.72L220.51,199.19L220.53,199.12L220.58,198.6L221.02,200.1L221.12,199.69L221.17,199.61L221.17,199.46L221.88,200.16L221.88,200.09L222.14,200.14L222.29,198.87L222.73,201.86L222.88,201.4L222.95,201.32L223.01,201.12L223.26,202.1L223.39,202.03L223.55,202.04L224.04,201.24L224.29,201.65L224.32,201.5L224.47,202.41L224.8,200.65L224.98,202.14L224.98,202.33L225.56,202.8L225.59,201.95L225.72,202.31L225.73,202.24L225.98,200.96L226.34,202.33L226.46,202.22L226.52,202.26L226.71,201.8L226.89,203.27L227.21,202.61L227.23,202.66L227.44,202.95L227.68,201.8L227.69,201.66L228.58,203.01L228.61,202.61L228.61,202.46L228.92,202.69L229.08,201.72L229.08,201.72L229.08,201.43L229.08,201.74L229.59,200.24L229.83,200.51L229.9,200.56L229.91,200.04L230.52,201.51L230.59,201.3L230.66,201.35L231.23,198.48L231.23,198.53L231.23,198.24L232.18,195.9L232.45,196.56L232.47,196.6L234.2,190.17L234.31,190.43L234.34,190.47L235.33,193.15L235.48,192.51L235.48,192.44L236.65,189.38L236.68,189.43L236.72,189.47L236.85,188.93L237,189.93L237.21,189.98L237.23,189.99L237.31,189.7L237.82,191.12L238.04,190.38L238.09,190.43L239.23,185.45L239.25,185.48L239.31,185.41L239.39,185.6L239.67,183.56L240.04,184.25L240.07,184.18L240.09,183.65L240.79,186.38L240.79,186.16L240.84,186.21L240.88,186.52L241.53,185.8L241.62,185.8L241.79,185.36L241.94,186.19L242.37,185.74L242.53,185.79L242.77,185.89L243.28,184.69L243.3,184.73L243.46,183.81L243.76,184.86L243.77,184.96L243.88,184.89L244.57,185.98L244.59,185.59L244.59,185.31L245.53,188.05L245.62,187.83L245.68,187.76L245.83,187.6L245.97,188.14L246.2,188.29L246.2,188.34L246.31,189.19L246.77,187.16L246.77,187.09L247.51,184.65L247.51,184.67L247.53,184.72L247.66,183.98L248.02,185.22L248.02,185.15L248.07,185.39L248.72,181.92L248.92,182.83L248.94,182.89L248.95,183.25L249.1,182.1L249.63,182.18L249.64,182.11L249.66,181.94L249.96,184.87L250.06,184.71L250.16,184.64L251.22,180.45L251.31,181.46L251.36,181.65L251.86,180.82L252.09,180.9L252.14,180.83L252.37,181.02L252.74,178.71L252.83,179.96L252.91,179.89L253.1,179.86L253.7,183.53L253.89,182.6L253.89,182.52L253.91,183.09L254.74,180.46L254.76,180.51L255.48,176.77L255.48,176.82L255.54,176.75L255.89,177.02L256.06,175.38L256.12,175.31L257.84,174.97L257.84,174.9L257.89,174.98L258.55,172.47L258.97,173.38L258.97,173.58L259.05,173.42L259.32,174.5L259.36,174.55L259.61,174.18L260.07,177.52L260.13,177.45L260.54,176.83L260.85,177.98L260.94,178.02L261.25,178.22L262.64,173.73L262.64,173.88L262.72,173.92L262.82,173.95L263.26,173.05L263.44,173.59L263.54,173.64L263.75,172.32L264.25,173.9L264.26,173.83L264.33,173.76L264.59,173.39L264.79,174.24L264.8,174.21L264.8,174.34L265.26,173.64L265.26,173.35L265.44,173.57L265.44,172.84L265.45,172.89L265.45,172.6L265.79,170.16L266.24,170.3L266.28,170.34L266.41,169.74L266.75,171.96L266.93,171.06L266.94,171.11L267.19,172.6L267.19,172.79L267.58,169.35L267.93,170.3L267.96,170.23L268.13,169.23L268.69,170.62L268.76,170.66L269.43,168.47L269.59,169.13L269.7,169.18L270.59,171.5L270.63,171.27L270.69,171.29L271.52,169.28L271.66,169.47L271.69,169.32L271.82,168.92L272.06,169.4L272.41,169.37L272.49,169.41L272.69,169.2L272.88,170.06L272.9,170.25L273.15,168.94L273.15,168.65L273.76,162.99L273.87,163.24L273.97,163.17L274.26,162.6L274.69,164.68L274.72,164.64L274.73,164.56L275.53,163.45L275.53,163.5L275.57,163.55L276.08,163.54L276.23,163.84L276.23,164.04L276.33,163.3L276.64,165.52L276.69,165.27L276.8,165.32L277.8,161.74L277.85,162.03L277.85,162.22L278.04,163.17L278.59,162.93L278.63,163.03L278.92,163.28L279.32,161.08L279.32,161.37L279.48,161.41L279.84,161.08L279.84,162.11L279.86,162.08L279.89,162.13L280.22,161.04L280.32,162.02L280.32,162.41L280.8,165.3L281.26,164.71L281.34,164.75L281.49,163.61L282.08,164.29L282.1,164.34L282.42,163.62L282.42,165.09L282.61,163.97L282.61,163.68L283.03,161.87L283.34,163.53L283.34,163.58L283.43,163.98L283.72,163.12L284,163.5L284,163.43L284.34,164.33L284.66,163.25L284.71,163.04L285.02,161.77L285.36,164.21L285.41,164.11L285.41,164.59L285.93,168.35L286.15,167.84L286.18,167.55L286.26,166.66L286.66,168.45L286.76,168.46L286.79,168.66L287.11,169.93L287.41,168.29L287.58,168.22L287.83,169.15L288.21,167.92L288.3,168.1L288.36,168.03L288.51,166.89L288.51,166.6L288.74,166.7L289.34,161.83L289.63,162.11L289.76,162.16L289.85,162.32L290.09,161.32L290.15,161.42L290.24,161.47L291.05,156.63L291.14,156.73L291.66,154.06L291.89,154.45L291.93,154.64L292.01,155.53L292.64,149.52L292.69,149.45L293.45,147.87L293.79,148.42L293.81,148.47L294.13,147.29L294.15,147.21L294.16,146.81L294.3,148.06L294.83,147.66L294.9,147.7L294.9,147.9L295.38,146.56L295.61,147.1L295.66,147.13L295.97,145.08L296.27,146.84L296.31,146.88L296.58,146.67L297.04,151.14L297.06,151L297.12,150.85L297.56,151.2L297.89,150.38L297.9,150.57L298.01,150.5L298.12,149.85L298.59,151.71L298.62,151.64L298.62,151.78L299.34,150.54L299.54,151.01L299.54,151.05L299.75,150.81L299.83,151.49L300.21,151.37L300.22,151.42L300.27,151.7L300.59,149.98L300.59,149.91L300.83,150.72L301.26,148.75L301.4,148.8L301.51,148.89L301.82,146.06L301.82,145.99L302.17,145.16L302.28,146.18L302.66,145.59L302.85,145.52L303.09,143.88L303.67,144.61L303.68,144.66L304.07,146.36L304.47,145.71L304.47,145.35L304.7,144.14L305.19,145.46L305.22,145.3L305.24,145.35L305.97,143.43L305.99,143.5L306.11,143.43L306.33,142.22L306.79,143.58L306.87,143.51L307.53,142.58L307.61,144.44L307.67,144.37L307.95,143.4L307.95,143.12L308.07,143.02L308.26,145.21L308.26,145.14L308.26,145.62L309.06,148.81L309.07,148.66L309.09,148.7L309.53,149.76L309.69,147.92L309.77,148.94L309.82,148.87L310.53,144.67L311.08,145.41L311.12,145.34L311.59,143.48L311.87,143.95L311.88,143.88L312.17,143.81L312.48,145.18L312.7,144.85L312.7,144.57L314.05,139.71L314.23,140.14L314.34,140.18L315.07,143.47L315.11,143.52L315.45,144.69L315.88,144.61L315.96,144.65L316.73,145.06L316.73,144.98L316.8,144.91L317.15,146.05L317.45,144L317.55,144.42L317.56,144.35L317.8,145.58L318.3,143.78L318.3,143.93L318.33,143.85L318.33,143.57L318.84,145.34L319.06,144.71L319.1,144.64L319.13,144.8L319.49,142.82L319.49,142.54L319.82,139.73L320.12,141.02L320.15,141.07L320.32,140.44L320.85,141.95L320.85,141.87L320.93,142.06L321.19,142.49L321.56,141.78L321.66,141.99L321.66,141.85L322.04,141.78L322.4,143.23L322.4,143.16L322.42,143.21L323.34,144.91L323.34,145.06L323.39,144.9L323.56,146.24L323.67,146.22L323.78,146.26L323.91,146.94L324.18,145.8L324.18,145.51L324.37,144.31L324.96,145.96L324.96,145.79L324.97,145.72L325.17,146.47L325.17,146.66L325.87,148.37L325.96,148.56L326.49,148.79L326.63,148.36L326.7,148.35L327.03,148.96L327.33,147.33L327.42,147.46L327.46,147.5L327.62,146.72L328.2,151.63L328.27,151.6L329.36,149.29L329.4,149.39L329.4,149.87L329.52,149.69L330.02,152.14L330.14,150.75L330.22,150.68L330.56,148.79L330.94,149.66L330.99,149.71L331.07,149.9L331.4,147.3L331.41,147.01L332.22,145.27L332.25,145.66L332.29,145.67L332.61,144.8L332.83,145.84L333.03,145.44L333.05,145.37L333.32,145.8L334.34,143.37L334.48,143.78L334.48,143.83L335.05,143.62L335.33,145.29L335.4,145.34L335.44,144.91L335.91,145.81L336.1,145.28L336.15,145.2L336.79,146.61L336.88,146.28L336.91,146.47L337.46,148.1L337.63,147.36L337.67,147.35L337.95,146.54L338.03,148.02L338.09,148.02L338.09,148.21L338.33,148.09L338.84,149.15L338.88,149.2L339.65,151.87L339.8,150.81L339.86,150.86L339.9,151.03L340.05,149.15L340.22,149.07L340.39,150.17L340.54,147.94L340.58,147.87L341.51,145L341.54,145.19L341.66,145.24L341.76,145.11L342.74,147.57L342.74,147.81L343.04,148.18L343.43,147.28L343.47,147.79L343.5,147.84L343.7,149.66L344.24,148.54L344.27,148.47L345.14,150.79L345.22,150.41L345.25,150.6L345.29,151.32L345.97,146.51L345.99,147.71L346.08,147.64L346.52,147.79L346.9,145.5L346.94,145.52L346.96,145.45L348.7,140.77L348.7,140.87L348.7,140.96L348.86,140.9L349.06,142.29L349.39,141.73L349.6,141.74L349.72,141.44L350.59,144.07L350.68,143.83L350.68,143.69L351.36,142.26L351.39,142.5L351.44,142.43L351.72,141.87L352.29,143.99L352.47,143.78L352.49,143.71L352.83,141.86L353.21,142.16L353.25,142.21L353.25,142.45L354,140.12L354,140.55L354.13,140.6L354.88,142.91L354.89,142.95L355.19,143.95L355.5,142.38L355.59,142.65L355.65,142.58L355.65,142.74L355.95,141.41L356.36,142.52L356.45,142.52L356.99,143.66L357.2,143.53L357.22,143.52L357.29,143.35L357.83,145.64L357.83,145.84L358.18,145.19L358.39,146.95L358.55,146.13L358.6,146.05L359.03,145.26L359.39,147.95L359.52,147.4L359.52,147.32L359.83,146.28L360.25,146.98L360.28,146.91L361.17,145.93L361.23,146.47L361.23,146.66L362.43,148.62L362.45,148.42L362.57,148.47L362.95,148.89L363.27,146.98L363.29,147.23L363.33,147.16L363.76,147.69L363.88,146.76L364.07,146.91L364.09,146.95L364.09,147.13L364.27,145.8L364.79,146.2L364.85,146.25L364.86,146.58L365.51,145.68L365.63,145.61L365.68,145.42L365.8,146.03L366.36,145.7L366.39,145.63L366.59,144.48L367.05,147.51L367.12,147.3L367.18,147.34L367.57,146.34L367.59,146.05L367.63,145.86L367.7,147.11L368.31,146.22L368.31,146.31L368.34,146.58L368.59,143.91L369.03,144.59L369.07,144.64L369.35,144.54L369.47,145.25L369.47,145.45L369.47,145.4L370.21,146.88L370.21,146.09L370.24,146.08L370.28,146.77L370.93,144.26L370.96,144.46L371,144.51L371.21,145.51L371.21,145.56L371.5,146.28L371.78,145.37L371.98,145.63L371.98,145.49L372.31,146.09L372.85,144.98L372.85,145.02L372.87,144.74L374.67,137.1L374.78,137.64L374.78,137.69L375.17,136.48L375.53,138.16L375.59,138.02L375.92,137.41L376.65,139.66L376.7,139.55L376.7,139.47L377.7,140.77L377.7,140.82L378.66,133.43L378.66,133.28L378.95,133.18L379.33,134.55L379.63,134.18L379.65,134.04L380.16,132.72L380.4,133.23L380.44,133.28L380.44,133.61L381.19,132.36L381.19,132.41L381.21,132.34L381.51,131.98L381.68,132.76L381.68,132.95L382.15,132.67L382.49,134.86L382.6,134.56L382.7,134.27L382.76,133.69L383.35,135.03L383.39,134.91L383.45,134.91L384.77,130.69L384.77,130.73L384.77,130.4L384.94,131.06L385.1,130.29L385.51,130.51L385.53,130.43L385.65,129.88L386.17,132.59L386.19,132.64L386.29,134.76L386.94,133.42L386.95,133.13L386.98,132.82L387.21,134.27L387.67,133.19L387.72,132.98L387.85,133.52L388.22,130.58L388.47,131.38L388.49,131.31L389.02,129.13L389.35,130.17L389.35,130.22L389.5,130.38L390.35,128.36L390.35,128.22L390.37,127.89L390.84,132.64L390.88,132.35L391.31,130.95L391.64,131.58L391.68,131.63L391.83,131.26L391.92,132.49L392.12,132.39L392.22,132.44L392.93,131.52L393.11,131.64L393.18,131.69L393.18,131.93L393.73,130.43L393.93,130.69L393.94,130.62L395.45,124.45L395.53,125.17L395.58,125.03L396.32,121.28L396.32,121.37L396.36,121.57L397.07,123.87L397.11,123.45L397.13,123.48L397.8,120.65L397.88,121.2L397.9,121.25L398,121.73L398.16,119.42L398.28,119.57L398.37,119.62L398.38,119.8L398.55,118.67L399.09,119.17L399.1,119.18L400.04,122.33L400.23,120.88L400.23,120.8L400.29,122.03L400.96,121.69L401.07,121.62L401.5,119.1L401.82,119.65L401.85,119.71L401.96,119.2L402.45,121.58L402.75,120.73L402.76,120.66L402.88,121.5L403.47,119.85L403.52,119.84L404.32,117.83L404.43,118.49L404.43,118.55L404.77,119.49L405.02,118.72L405.02,118.58L405.12,119.76L405.46,118.04L405.49,118.06L405.53,118L406.39,116.35L406.46,116.56L406.51,116.61L407.26,113.93L407.26,113.64L407.55,113.07L407.99,117.22L408.03,117.28L408.21,118.63L408.78,116.46L408.81,116.17L409.05,115.4L409.26,117.3L409.26,117.49L409.41,118.42L409.94,116.05L409.94,116.1L410.01,116.03L410.1,117.59L410.76,117.21L410.82,117.26L411.24,115.98L411.4,118.4L411.55,118.25L411.61,118.18L411.7,118.43L412.28,117.77L412.28,117.7L414.43,113.53L414.43,113.46L415.27,111.37L415.31,111.56L415.39,112.06L416,110.38L416.02,110.31L416.42,110.12L416.43,110.6L416.69,110.42L416.74,110.51L417.15,108.7L417.45,109.89L417.5,109.94L419.27,100.31L419.32,100.79L419.32,100.94L419.35,100.18L419.96,101.35L420,100.99L420.11,100.92L420.41,100.32L420.87,101.97L420.87,101.89L420.92,101.87L421.47,100.32L421.65,101.15L421.65,101.34L421.97,102.71L422.35,102.23L422.43,102.16L422.72,103.22L423.09,101.93L423.17,102.49L423.19,102.54L423.28,103.16L423.92,99.82L424.03,99.61L424.58,97.68L424.78,98.1L424.82,98.15L425.32,99.57L425.55,99.51L425.58,99.6L425.73,99.82L426.31,98.61L426.32,98.73L426.35,98.66L426.6,100L427.03,98.95L427.12,98.88L427.56,97.12L427.87,97.7L427.9,97.75L428.08,98.45L428.6,97.2L428.75,97.25L429.08,97.71L429.43,94.91L429.48,95.7L429.56,95.74L429.93,94.44L430.36,94.62L430.39,94.55L430.56,95.53L431.17,92.01L431.27,92.32L431.29,92.42L431.35,92.65L431.73,91.7L431.77,91.78L431.81,91.79L432.11,92.49L432.22,91.51L432.25,91.44L432.81,89.83L433,90.33L433.04,90.04L433.17,90.64L434.08,88.07L434.16,88.69L434.16,88.84L435.35,86.77L435.35,86.92L435.42,86.96L435.65,87.29L435.86,86.78L435.86,86.49L437.61,74.89L438.06,76.51L438.08,76.44L438.26,75.11L438.83,76.29L438.85,76.39L439.37,77.56L439.57,75.53L439.57,75.6L439.62,75.65L440.17,74.92L440.35,75.6L440.35,75.8L440.39,76.6L440.95,74.57L440.99,74.61L441.01,74.76L441.28,73.69L441.6,74.35L441.72,74.32L441.92,74.61L442.5,72.81L442.53,72.98L442.57,73.03L442.57,73.22L443.31,71.74L443.33,71.66L443.51,70.89L443.81,74.15L444.06,72.52L444.09,72.45L444.09,72.61L444.76,67.75L444.81,67.86L444.86,67.79L445.02,68.2L445.3,67.34L445.35,67.27L445.78,67.51L445.91,66.86L445.94,66.79L446.78,64.89L446.84,65.36L446.86,65.74L446.9,65.58L447.62,70.02L448.06,69.46L448.13,69.49L448.33,70.02L448.56,68.63L448.86,68.97L448.92,68.9L449.1,69.18L449.36,68.05L449.66,68.73L449.69,68.92L450.01,68.84L450.6,72.33L450.63,72.25L450.77,72.87L451.06,71.49L451.06,71.2L451.68,69.35L451.82,70.17L451.86,70.22L452.1,71.5L452.52,71.01L452.52,70.5L453.45,68.32L453.45,68.41L453.5,68.24L454.32,66.1L454.61,66.95L454.68,67L455.01,67.77L455.4,67L455.45,66.92L456.13,63.26L456.47,64.28L456.47,64.47L456.56,65.55L457.15,63.36L457.17,63.53L457.26,63.46L457.52,65.26L457.98,64.75L458.08,64.8L458.12,64.02L458.68,65.85L458.83,64.73L458.86,64.66L458.96,65.08L459.54,61.81L459.61,61.99L459.62,61.85L460.02,60.94L460.32,61.24L460.38,61.16L461.33,58.52L461.42,58.66L461.5,58.62L463.05,56.63L463.3,57.35L463.3,57.55L463.3,58.12L464.04,54.12L464.04,54.12L464.06,53.83L464.08,54.58L464.48,51.43L464.53,51.72L464.59,51.65L464.83,50.8L464.84,50.72L465.19,48.8L465.65,49.37L465.7,49.56L465.77,50.11L466.24,48.5L466.24,48.42L466.33,48.03L466.74,49.14L466.76,49.06L466.76,49.25L467.61,46.99L467.61,47.04L468.8,40.42L468.89,41.51L468.89,41.7L469.17,41.93L469.64,41.21L469.64,41.23L469.65,41.16L470.09,39.88L470.39,40.65L470.43,40.67L471.17,36.68L471.17,36.78L471.24,36.63L472.02,33.67L472.22,34.03L472.26,33.96L472.36,33.99L472.93,31.83L473.13,32.29L473.17,32.38L473.45,34.13L473.79,31.95L473.83,32.08L473.93,31.94L474.33,32.88L474.59,31.26L474.73,31.73L474.82,31.77L475.25,31.53L475.54,32.63L475.63,32.55L475.99,31.8L476.07,32.46L476.07,32.55L476.47,32.02L476.67,32.67L476.79,32.64L476.83,32.74L476.93,33.39L477.43,31.58L477.46,31.63L477.91,28.74L478.2,30.89L478.22,30.82L478.53,30.28L478.71,31.19L479.03,30.86L479.03,30.91L479.18,30.46L479.58,31.24L479.58,31.43L480.1,31.75L480.33,30.96L480.33,30.98L480.35,31.03L480.45,31.26L480.93,29.93L481.1,29.93L481.11,29.86L481.33,28.12L481.69,30.38L481.74,30.76L481.97,30.99L483.11,27.09L483.17,28.34L483.17,28.39L483.39,27.52L483.64,29.15L483.69,29.08L483.69,29.27L483.81,28.83L483.86,30.43L483.87,30.63L484.13,31.49L484.32,28.02L484.44,28.14L484.47,27.85L484.71,27.4L484.85,28.35L485.15,28.17L485.15,28.22L485.5,25.33L486.01,26.48L486.06,26.67L486.12,27.45L486.63,26.2L486.8,27.45L486.83,27.5L488.09,23.45L488.21,23.9L488.21,23.95L489.05,22.16L489.16,22.81L489.3,22.74L490.55,18.8L490.55,18.85L490.58,18.53L490.99,17.84L491.31,18.74L491.36,18.67L491.39,18.49L491.76,19.64L492.06,19L492.15,18.93L492.52,16L492.87,16.34L492.91,16.44L493.2,16.22L493.52,17.85L493.63,17.6L493.67,17.65L494,16.31L494,16.36" style="vector-effect: non-scaling-stroke; fill: none; stroke: rgb(1, 102, 30); stroke-opacity: 1; stroke-width: 2px; opacity: 1;"/></g><g class="points"/><g class="text"/></g></g></g><g class="overplot"/><path class="xlines-above crisp" d="M0,0" style="fill: none;"/><path class="ylines-above crisp" d="M0,0" style="fill: none;"/><g class="overlines-above"/><g class="xaxislayer-above"><g class="xtick"><text text-anchor="middle" x="0" y="436" transform="translate(212.2,0)" style="font-family: 'Times New Roman'; font-size: 15px; fill: rgb(13, 13, 13); fill-opacity: 1; white-space: pre; opacity: 1;">1.61252×10​<tspan style="font-size:70%" dy="-0.6em">18</tspan><tspan dy="0.42em">​</tspan></text></g><g class="xtick"><text text-anchor="middle" x="0" y="436" style="font-family: 'Times New Roman'; font-size: 15px; fill: rgb(13, 13, 13); fill-opacity: 1; white-space: pre; opacity: 1;" transform="translate(310.23,0)">1.612525×10​<tspan style="font-size:70%" dy="-0.6em">18</tspan><tspan dy="0.42em">​</tspan></text></g><g class="xtick"><text text-anchor="middle" x="0" y="436" style="font-family: 'Times New Roman'; font-size: 15px; fill: rgb(13, 13, 13); fill-opacity: 1; white-space: pre; opacity: 1;" transform="translate(408.26,0)">1.61253×10​<tspan style="font-size:70%" dy="-0.6em">18</tspan><tspan dy="0.42em">​</tspan></text></g><g class="xtick"><text text-anchor="middle" x="0" y="436" style="font-family: 'Times New Roman'; font-size: 15px; fill: rgb(13, 13, 13); fill-opacity: 1; white-space: pre; opacity: 1;" transform="translate(506.3,0)">1.612535×10​<tspan style="font-size:70%" dy="-0.6em">18</tspan><tspan dy="0.42em">​</tspan></text></g><g class="xtick"><text text-anchor="middle" x="0" y="436" style="font-family: 'Times New Roman'; font-size: 15px; fill: rgb(13, 13, 13); fill-opacity: 1; white-space: pre; opacity: 1;" transform="translate(604.3299999999999,0)">1.61254×10​<tspan style="font-size:70%" dy="-0.6em">18</tspan><tspan dy="0.42em">​</tspan></text></g></g><g class="yaxislayer-above"><g class="ytick"><text text-anchor="end" x="125" y="12.25" transform="translate(0,403.42)" style="font-family: 'Times New Roman'; font-size: 35px; fill: rgb(13, 13, 13); fill-opacity: 1; white-space: pre; opacity: 1;">0</text></g><g class="ytick"><text text-anchor="end" x="125" y="12.25" style="font-family: 'Times New Roman'; font-size: 35px; fill: rgb(13, 13, 13); fill-opacity: 1; white-space: pre; opacity: 1;" transform="translate(0,355.56)">200</text></g><g class="ytick"><text text-anchor="end" x="125" y="12.25" style="font-family: 'Times New Roman'; font-size: 35px; fill: rgb(13, 13, 13); fill-opacity: 1; white-space: pre; opacity: 1;" transform="translate(0,307.71000000000004)">400</text></g><g class="ytick"><text text-anchor="end" x="125" y="12.25" style="font-family: 'Times New Roman'; font-size: 35px; fill: rgb(13, 13, 13); fill-opacity: 1; white-space: pre; opacity: 1;" transform="translate(0,259.85)">600</text></g><g class="ytick"><text text-anchor="end" x="125" y="12.25" style="font-family: 'Times New Roman'; font-size: 35px; fill: rgb(13, 13, 13); fill-opacity: 1; white-space: pre; opacity: 1;" transform="translate(0,211.99)">800</text></g><g class="ytick"><text text-anchor="end" x="125" y="12.25" style="font-family: 'Times New Roman'; font-size: 35px; fill: rgb(13, 13, 13); fill-opacity: 1; white-space: pre; opacity: 1;" transform="translate(0,164.14)">1000</text></g><g class="ytick"><text text-anchor="end" x="125" y="12.25" style="font-family: 'Times New Roman'; font-size: 35px; fill: rgb(13, 13, 13); fill-opacity: 1; white-space: pre; opacity: 1;" transform="translate(0,116.28)">1200</text></g></g><g class="overaxes-above"/></g></g><g class="polarlayer"/><g class="smithlayer"/><g class="ternarylayer"/><g class="geolayer"/><g class="funnelarealayer"/><g class="pielayer"/><g class="iciclelayer"/><g class="treemaplayer"/><g class="sunburstlayer"/><g class="glimages"/><defs id="topdefs-05b161"><g class="clips"/></defs><g class="layer-above"><g class="imagelayer"/><g class="shapelayer"/></g><g class="infolayer"><g class="g-gtitle"/><g class="g-xtitle"><text class="xtitle" x="373" y="463.8" text-anchor="middle" style="font-family: 'Open Sans', verdana, arial, sans-serif; font-size: 14px; fill: rgb(42, 63, 95); opacity: 1; font-weight: normal; white-space: pre;">Time Steps (ns)</text></g><g class="g-ytitle" transform="translate(24,0)"><text class="ytitle" transform="rotate(-90,12,260)" x="12" y="260" text-anchor="middle" style="font-family: 'Times New Roman'; font-size: 40px; fill: rgb(13, 13, 13); opacity: 1; font-weight: normal; white-space: pre;">Turnaround (in $)</text></g></g></svg>