<svg class="main-svg" xmlns="http://www.w3.org/2000/svg" xmlns:xlink="http://www.w3.org/1999/xlink" width="700" height="500" style="" viewBox="0 0 700 500"><rect x="0" y="0" width="700" height="500" style="fill: rgb(255, 255, 255); fill-opacity: 1;"/><defs id="defs-439b55"><g class="clips"><clipPath id="clip439b55xyplot" class="plotclip"><rect width="494" height="320"/></clipPath><clipPath class="axesclip" id="clip439b55x"><rect x="126" y="0" width="494" height="500"/></clipPath><clipPath class="axesclip" id="clip439b55y"><rect x="0" y="100" width="700" height="320"/></clipPath><clipPath class="axesclip" id="clip439b55xy"><rect x="126" y="100" width="494" height="320"/></clipPath></g><g class="gradients"/><g class="patterns"/></defs><g class="bglayer"><rect class="bg" x="126" y="100" width="494" height="320" style="fill: rgb(229, 236, 246); fill-opacity: 1; stroke-width: 0;"/></g><g class="layer-below"><g class="imagelayer"/><g class="shapelayer"/></g><g class="cartesianlayer"><g class="subplot xy"><g class="layer-subplot"><g class="shapelayer"/><g class="imagelayer"/></g><g class="minor-gridlayer"><g class="x"/><g class="y"/></g><g class="gridlayer"><g class="x"><path class="xgrid crisp" transform="translate(212.2,0)" d="M0,100v320" style="stroke: rgb(255, 255, 255); stroke-opacity: 1; stroke-width: 1px;"/><path class="xgrid crisp" transform="translate(310.23,0)" d="M0,100v320" style="stroke: rgb(255, 255, 255); stroke-opacity: 1; stroke-width: 1px;"/><path class="xgrid crisp" transform="translate(408.26,0)" d="M0,100v320" style="stroke: rgb(255, 255, 255); stroke-opacity: 1; stroke-width: 1px;"/><path class="xgrid crisp" transform="translate(506.3,0)" d="M0,100v320" style="stroke: rgb(255, 255, 255); stroke-opacity: 1; stroke-width: 1px;"/><path class="xgrid crisp" transform="translate(604.3299999999999,0)" d="M0,100v320" style="stroke: rgb(255, 255, 255); stroke-opacity: 1; stroke-width: 1px;"/></g><g class="y"><path class="ygrid crisp" transform="translate(0,367.41)" d="M126,0h494" style="stroke: rgb(255, 255, 255); stroke-opacity: 1; stroke-width: 1px;"/><path class="ygrid crisp" transform="translate(0,330.83000000000004)" d="M126,0h494" style="stroke: rgb(255, 255, 255); stroke-opacity: 1; stroke-width: 1px;"/><path class="ygrid crisp" transform="translate(0,294.24)" d="M126,0h494" style="stroke: rgb(255, 255, 255); stroke-opacity: 1; stroke-width: 1px;"/><path class="ygrid crisp" transform="translate(0,257.65)" d="M126,0h494" style="stroke: rgb(255, 255, 255); stroke-opacity: 1; stroke-width: 1px;"/><path class="ygrid crisp" transform="translate(0,221.06)" d="M126,0h494" style="stroke: rgb(255, 255, 255); stroke-opacity: 1; stroke-width: 1px;"/><path class="ygrid crisp" transform="translate(0,184.48000000000002)" d="M126,0h494" style="stroke: rgb(255, 255, 255); stroke-opacity: 1; stroke-width: 1px;"/><path class="ygrid crisp" transform="translate(0,147.89)" d="M126,0h494" style="stroke: rgb(255, 255, 255); stroke-opacity: 1; stroke-width: 1px;"/><path class="ygrid crisp" transform="translate(0,111.3)" d="M126,0h494" style="stroke: rgb(255, 255, 255); stroke-opacity: 1; stroke-width: 1px;"/></g></g><g class="zerolinelayer"><path class="yzl zl crisp" transform="translate(0,404)" d="M126,0h494" style="stroke: rgb(255, 255, 255); stroke-opacity: 1; stroke-width: 2px;"/></g><path class="xlines-below"/><path class="ylines-below"/><g class="overlines-below"/><g class="xaxislayer-below"/><g class="yaxislayer-below"/><g class="overaxes-below"/><g class="plot" transform="translate(126,100)" clip-path="url(#clip439b55xyplot)"><g class="scatterlayer mlayer"><g class="trace scatter trace8f8635" style="stroke-miterlimit: 2; opacity: 1;"><g class="fills"/><g class="errorbars"/><g class="lines"><path class="js-line" d="M0,304L0.47,303.17L0.77,304L0.87,303.97L0.95,304L1.12,301.84L1.57,304L1.59,304L2.18,299.91L2.34,304L2.38,304L2.95,302.54L3,303.41L3.04,304L3.16,302.37L3.39,303.96L3.47,304L3.75,300.94L4.07,304L4.08,304L4.09,301.37L4.78,303.97L4.84,303.84L4.85,304L5.42,300.3L5.57,304L5.67,303.73L5.67,304L6.42,302.63L6.53,304L7.04,301.47L7.32,303.41L7.32,304L7.34,301.6L8.05,304L8.09,302.31L8.09,304L8.34,301.7L8.83,304L8.95,303.52L8.95,304L9.7,301.63L9.71,301.87L9.83,300.02L10.35,304L10.61,298.55L11.34,304L11.42,304L11.51,300.56L11.55,303.02L11.59,304L11.69,302.66L12.26,304L12.33,304L12.77,301.54L13.06,304L13.13,304L13.82,294.62L13.86,303.86L13.89,304L14.52,297.28L14.64,303.12L14.66,303.96L14.72,302.14L14.72,304L15.3,303.93L15.46,304L15.92,301.6L16.14,303.97L16.24,304L16.38,303.39L16.41,304L16.41,300.97L16.83,300.54L17.16,304L17.26,303.83L17.26,303.03L17.26,304L17.57,301.47L18,303.79L18.02,303.93L18.06,297.4L18.12,304L18.76,304L18.8,304L19.25,301.02L19.55,304L19.64,302.99L20.02,301.74L20.42,304L20.42,303.94L20.43,302.77L20.97,301.8L21.2,304L21.23,303.83L21.36,304L21.44,302.94L21.97,299.49L22.19,304L22.19,303.89L22.24,304L22.49,302.51L22.99,304L23.05,303.01L23.11,304L23.26,300.8L23.74,304L23.81,303.85L24.12,304L24.12,300.61L24.16,291.82L24.16,304L24.87,304L24.93,304L25.45,297.83L25.64,304L25.72,304L26.13,302.18L26.41,303.52L26.41,304L26.56,303.88L26.58,304L26.58,301.93L26.58,304L27.3,304L27.38,302.35L27.38,304L27.53,300.82L28.04,304L28.15,304L28.43,300.68L28.88,304L29,304L29.16,300.78L29.71,303.91L29.86,303.5L29.99,300.3L30.61,304L30.67,304L31.25,301.4L31.3,302.39L31.43,304L31.43,299.92L32.18,303.61L32.2,303.96L32.2,304L32.29,298.05L32.89,303.92L32.96,303.98L33.12,304L33.12,303.72L33.12,302.85L33.12,304L33.86,302.3L33.9,303.85L33.99,302.61L34.12,304L34.13,297.76L34.13,304L34.86,303.37L34.9,303.95L35.07,304L35.08,302.27L35.08,304L35.1,299.92L35.1,304L35.81,303.89L35.88,303.82L35.97,304L35.97,303.5L35.97,293.22L36.72,304L36.72,303.96L36.78,303.98L37.18,302.72L37.18,304L37.18,302.32L37.91,304L37.91,302.94L37.98,303.79L38.55,302.23L38.69,304L38.69,302.41L39.41,304L39.41,303.94L39.45,303.86L39.55,303.22L39.68,304L39.76,302.66L40.17,301.78L40.52,304L40.58,303.95L40.85,303.02L40.9,303.75L40.94,300.15L40.94,304L41.24,298.56L41.68,303.72L41.71,304L41.99,302.95L42.33,304L42.46,304L43.08,302.44L43.16,303.97L43.24,302.65L43.24,304L43.71,300.8L43.99,303.83L44.05,304L44.88,303.07L44.91,304L45.02,303.87L45.04,304L45.04,296.8L45.2,292.9L45.79,304L45.82,303.67L45.86,303.95L46.2,302.38L46.23,303.79L46.24,302.13L46.24,304L46.94,299.8L46.99,303.79L47.03,303.34L47.17,303.05L47.68,304L47.69,301.97L47.69,304L48.33,295.5L48.42,304L48.45,304L48.57,295.52L49.07,303.98L49.22,303.5L49.22,304L49.49,301.8L49.96,302.67L50.01,303.99L50.03,304L50.28,300.07L50.73,303.9L50.79,304L51.08,301.12L51.45,303.45L51.62,303.24L51.62,304L52.06,302.1L52.34,304L52.46,303.83L52.54,302.63L52.66,304L52.7,300.81L52.7,304L53.19,299.88L53.43,304L53.53,303.69L53.53,304L54.04,280.85L54.28,304L54.29,303.86L54.52,303.3L54.66,304L54.66,303.03L54.66,304L54.87,302.08L55.36,303.85L55.43,304L55.88,300.46L56.15,304L56.19,303.76L56.19,304L56.82,299.64L56.88,302.62L57.03,303.72L57.03,304L57.59,296.98L57.75,304L57.79,304L58.52,295.09L58.56,301.78L58.56,304L59.01,303.23L59.17,304L59.17,302.21L59.2,304L59.66,301.4L59.75,304L59.82,303.74L59.86,304L60.14,299.72L60.51,303.76L60.57,303.94L60.69,304L60.87,300.42L61.06,304L61.14,304L61.66,302.47L61.84,303.89L61.9,304L61.96,303.78L61.96,285.01L61.98,304L62.7,303.58L62.72,304L63.21,297.43L63.48,303.45L63.48,303.85L63.5,304L64.21,302.55L64.26,304L64.59,301.41L64.94,303.88L64.98,304L65.46,303.8L65.46,304L65.48,302.9L65.48,304L66.17,301.62L66.17,304L66.24,304L66.81,300.12L66.83,302.77L66.83,180L66.92,304L67.57,304L67.62,303.82L67.69,301.61L68.37,304L68.44,303.72L68.48,304L68.63,301.94L69.12,303.67L69.32,304L70.03,301.07L70.04,303.98L70.1,304L70.28,296.24L70.85,304L70.9,302.84L71.35,295.95L71.59,304L71.7,303.35L71.89,302.95L72.46,304L72.46,303.95L72.48,304L73.06,300.14L73.16,304L73.19,304L73.53,298.51L73.93,304L73.96,304L74.25,302.27L74.7,304L74.72,304L74.83,301.03L75.42,303.56L75.48,304L75.77,298.58L76.23,303.96L76.29,303.98L76.34,304L76.86,298.22L77.04,302.87L77.05,303.98L77.22,302.87L77.36,303.98L77.39,304L77.49,302.33L77.53,303.85L77.55,304L78.07,303.09L78.21,304L78.22,301.73L78.98,304L79,304L79.25,156.74L79.71,304L79.84,304L80.74,302.19L80.74,304L81.15,292.52L81.47,298.7L81.52,304L81.56,303.77L81.61,304L81.61,297.61L81.65,304L82.35,303.99L82.37,303.89L82.56,304L82.57,303.5L82.6,301.56L82.68,301.42L82.72,304L83.33,303.49L83.37,304L84.05,302.41L84.11,303.53L84.14,304L84.25,302.32L84.27,304L84.27,299.18L84.31,304L84.42,298.8L84.98,303.41L85.14,304L85.79,303.04L85.83,303.98L85.88,304L86.07,299.28L86.61,303.81L86.64,303.94L86.67,304L87.37,300.03L87.39,304L87.42,304L87.76,303.66L87.77,303.94L87.83,301.06L87.83,304L88.19,293.12L88.56,303.04L88.59,303.9L88.7,304L88.85,302.61L88.98,303.92L89.08,304L89.55,289.84L89.82,304L89.85,303.71L89.85,304L90.11,302.02L90.58,303.96L90.61,304L90.79,304L90.79,300.68L91.22,286.08L91.53,304L91.6,303.58L92.12,300.3L92.12,304L92.14,297.84L92.15,304L92.89,304L92.9,304L93.43,301.69L93.6,303.74L93.6,304L93.74,302.88L94.34,303.8L94.37,304L94.73,301.84L95.09,304L95.14,304L95.3,300.55L95.79,304L95.92,304L96.61,303L96.67,304L96.69,303.91L96.78,304L97.01,300.47L97.15,304L97.23,304L97.81,302.65L97.97,304L98.02,303.82L98.06,304L98.62,296.95L98.76,304L98.81,304L98.93,297.9L99.48,304L99.56,303.99L100.18,301.68L100.31,303.85L100.38,303.99L100.64,303.18L100.71,303.84L100.74,304L101.12,299.28L101.34,304L101.37,304L101.62,297.56L101.62,298.99L101.62,303.99L101.63,304L102.25,289.59L102.35,304L102.39,304L102.71,302.48L102.73,304L102.74,283.21L102.78,304L103.45,304L103.55,304L104.03,303.16L104.23,304L104.25,304L104.45,302.29L104.99,303.83L105.03,304L105.21,301.87L105.25,303.97L105.26,304L105.94,297.8L105.98,303.92L106.03,303.86L106.38,304L106.44,302.98L106.44,304L106.89,235.87L107.19,304L107.25,304L107.85,293.19L107.85,291.74L108.62,304L108.64,303.98L108.71,302.9L108.71,304L108.81,302.7L109.45,304L109.48,304L109.62,302.63L110.23,304L110.26,304L110.44,300.55L110.96,303.94L111.03,303.86L111.1,302.73L111.11,304L111.11,300.92L111.11,304L111.6,300.31L111.86,303.59L111.88,304L112.01,303.36L112.07,304L112.09,297.54L112.79,304L112.8,303.94L112.91,304L113.1,301.94L113.61,302.71L113.72,304L113.75,303.19L114.43,304L114.49,303.19L114.57,304L115.02,301.26L115.23,304L115.26,304L115.92,302.85L115.96,304L116.01,304L116.24,303.56L116.3,300.63L117.04,304L117.08,303.96L117.11,304L117.34,303.58L117.38,303.73L117.4,302.44L117.4,304L117.95,302.34L118.15,303.9L118.16,303.66L118.77,302.54L118.87,304L118.93,303.99L119,303.83L119.38,304L119.42,303.43L119.47,302.63L119.47,304L119.6,302.17L120.15,304L120.23,303.97L120.93,304L120.95,300.99L120.95,304L121.7,304L121.72,304L121.9,303.14L121.98,304L122,301.18L122,304L122.35,300.04L122.68,304L122.79,304L122.85,303.8L122.87,304L122.87,294.16L123.6,304L123.65,303.65L123.65,304L123.75,301.41L124.37,303.96L124.41,303.78L124.41,304L125.04,295.61L125.06,304L125.23,295.01L125.23,304L125.96,304L126,304L126.07,303.77L126.09,304L126.09,300.29L126.85,304L126.88,303.91L126.96,303.84L126.96,304L127.18,298.02L127.69,304L127.73,304L128.07,302.74L128.39,303.89L128.4,303.99L128.53,303.12L128.62,304L128.62,296.26L128.75,304L129.33,303.95L129.39,304L129.79,303.66L129.79,304L129.79,303.07L130.44,301.87L130.53,304L130.56,303.87L130.6,304L131.3,302.19L131.34,303.89L131.36,304L131.65,302.96L131.98,303.91L131.98,304L132.48,297.87L132.56,303.62L132.67,304L133.09,297.81L133.28,304L133.31,303.95L133.65,304L134.01,302.94L134.03,303.07L134.08,303.97L134.12,304L134.67,300.78L134.82,304L134.85,304L135.5,301.25L135.59,303.94L135.61,303.96L135.62,304L135.68,300.49L136.36,303.5L136.37,304L136.92,302.94L137.12,304L137.18,303.82L137.18,304L137.84,285.31L137.92,303.95L137.97,304L138.07,303.72L138.24,303.84L138.27,284.34L138.27,304L138.93,304L139.05,303.61L139.06,304L139.8,302.22L139.8,304L140.33,302.75L140.61,303.9L140.62,304L140.79,302.99L141.11,304L141.21,304L141.64,302.03L141.92,303.54L141.98,304L142.27,302.61L142.68,303.57L142.75,303.97L142.8,304L142.88,302.45L143.47,304L143.56,302.41L144.16,292.32L144.27,304L144.27,302.92L144.38,303.61L144.38,304L144.86,300.67L145.13,304L145.14,303.63L145.14,304L145.49,299.17L145.89,303.98L145.93,303.93L145.96,302.92L145.98,304L146.67,304L146.68,303.98L146.89,303.3L147.18,304L147.2,301.72L147.2,304L147.92,302.32L147.98,303.06L147.98,304L148.57,302.33L148.73,303.9L148.75,303.86L148.9,304L149.27,297.95L149.49,303.52L149.51,303.95L149.56,285.13L149.56,304L150.18,304L150.29,304L150.48,301.71L151.06,303.36L151.06,304L151.6,299.7L151.74,303.92L151.75,303.99L152,303.36L152.13,303.97L152.14,302.94L152.14,298.72L152.14,304L152.86,304L152.92,303.88L153.15,303.64L153.28,304L153.33,302.37L153.33,304L153.92,295.85L154.07,304L154.16,300.23L154.16,304L154.91,303.95L154.95,304L155.12,302.76L155.37,304L155.37,300.7L155.99,304L155.99,303.54L156.17,303.66L156.17,304L156.21,302.82L156.92,303.91L156.98,303.86L157.04,304L157.61,300.12L157.68,304L157.72,304L157.72,299.86L158.44,303.87L158.51,298.36L159.28,304L159.29,303.64L159.31,303.96L159.41,303.58L159.42,304L159.49,304L159.49,301.2L159.57,304L160.16,298.73L160.22,304L160.25,304L160.47,296.66L160.47,291.77L161.12,304L161.24,303.96L161.3,300.33L161.3,304L162.05,304L162.06,302.51L162.06,304L162.1,288.69L162.77,304L162.82,303.34L162.82,304L163.16,298.26L163.57,303.29L163.6,303.95L163.67,304L164.15,300.26L164.31,303.95L164.36,303.92L164.41,304L164.79,300.92L164.9,303.93L164.91,300.03L164.91,304L165.66,303.94L165.69,304L166.4,301.3L166.43,303.43L166.5,303.89L166.51,304L167.19,302.95L167.25,304L167.27,304L167.83,302.06L167.87,303.99L167.95,304L168.15,300.28L168.7,303.97L168.72,304L168.91,303.47L169.05,303.87L169.05,302.69L169.46,301.66L169.87,304L169.88,303.86L169.88,303.35L169.88,304L170.41,302.77L170.6,304L170.65,304L170.99,288.76L171.4,304L171.43,304L172.08,286.89L172.18,304L172.2,304L172.28,302.65L172.9,304L172.99,304L173.06,302.96L173.68,304L173.81,304L174.26,299.77L174.51,304L174.61,304L175.19,301.64L175.31,304L175.39,304L175.84,297.48L175.98,304L176.15,304L176.38,298.12L176.38,300.9L176.38,295.64L176.38,304L177.13,304L177.16,303.93L177.22,304L177.49,302.29L177.52,303.43L177.55,287.75L178.31,304L178.32,301.41L178.35,304L178.94,298.25L178.99,303.98L179.13,303.98L179.23,304L179.37,297.48L179.88,304L179.9,304L180.14,300.56L180.17,304L180.95,303.23L180.95,304L181.35,301.54L181.67,303.77L181.81,303.75L181.92,302.84L182.62,304L182.62,303.93L182.63,304L182.76,296.33L183.29,304L183.34,303.85L183.37,304L183.63,302.29L184.07,303.99L184.12,304L184.51,302.58L184.87,304L184.89,303.96L185.01,304L185.15,299.48L185.2,304L185.33,304L185.44,298.55L186.08,303.03L186.1,303.98L186.15,304L186.68,303.3L186.84,304L186.87,304L187.53,298.93L187.61,303.94L187.63,304L188.18,293.92L188.25,299.33L188.31,303.96L188.32,304L188.87,299.01L189.06,303.95L189.16,304L189.23,282.78L189.91,302.94L189.93,303.69L189.93,304L190.53,297.7L190.67,303.82L190.71,303.93L190.73,304L191.31,293.07L191.43,304L191.52,304L191.88,302.94L192.14,304L192.38,304L193.12,301.31L193.12,304L193.15,304L193.25,303.45L193.28,304L193.28,298.48L193.34,298.06L194.03,304L194.06,303.7L194.06,304L194.18,301.63L194.8,304L194.84,304L194.96,303.22L195.1,304L195.1,253.1L195.1,304L195.85,304L195.86,304L196.59,302.38L196.61,304L196.63,301.52L196.63,304L197.37,299.97L197.4,303.53L197.72,303.5L198.13,304L198.13,303.77L198.18,303.85L198.19,304L198.9,300.78L198.91,303.77L198.94,304L199.32,301.85L199.68,303.66L199.71,303.76L199.71,304L200.4,296.49L200.58,304L200.82,303.31L200.89,304L200.89,295.31L201.6,304L201.65,303.45L201.7,303.92L201.78,304L202.31,302.05L202.35,304L202.4,304L202.98,302.77L203.06,303.99L203.19,302.58L203.19,304L203.85,302.09L203.91,303.13L203.97,303.9L204.09,304L204.63,295.87L204.66,304L204.73,303.82L204.73,304L204.96,293.58L205.47,304L205.52,304L206.05,232.52L206.27,304L206.31,304L206.83,303.42L207.08,303.96L207.15,303.95L207.35,304L207.85,302.65L207.86,303.99L207.93,304L208.01,300.46L208.67,303.55L208.73,302.74L208.74,299.68L208.74,304L209.48,304L209.49,304L209.61,302.47L210.12,303.96L210.24,303.89L210.38,303.25L210.49,304L210.51,304L210.51,296.37L211.32,304L211.39,304L211.44,303.82L211.44,301.01L211.44,304L211.71,298.96L212.15,304L212.22,303.14L212.22,304L212.91,299.57L212.97,303.74L212.99,304L213.48,302.25L213.74,303.74L213.78,302.63L213.98,299.16L214.51,304L214.57,303.87L214.6,304L214.72,282.02L215.29,304L215.37,304L215.74,301.36L216.11,304L216.14,303.6L216.14,304L216.15,297.05L216.87,301.53L216.9,304L217.31,300.47L217.63,304L217.7,303.76L217.82,303.31L218.51,304L218.51,303.31L218.52,304L218.53,301.83L219.19,303.77L219.28,304L219.39,299.15L219.72,304L219.8,304L219.88,303.82L219.88,299.44L220.64,304L220.68,304L221.42,298.21L221.45,304L221.76,291.34L221.82,304L222.42,304L222.42,302.77L223.24,304L223.26,304L223.55,302.68L223.9,303.95L224.04,303.43L224.04,304L224.35,302.72L224.79,304L224.8,303.97L224.84,304L225.56,303.43L225.56,303.99L225.61,304L226.21,298.73L226.31,304L226.34,304L226.45,301.88L227.07,304L227.12,304L227.7,299.55L227.72,300.92L227.72,304L227.73,299.49L228.46,303.63L228.49,303.65L228.49,304L228.58,301.68L229.24,303.69L229.31,304L229.77,301.85L229.78,299.4L229.78,304L230.53,303.57L230.55,303.94L230.67,304L231.02,302.4L231.2,304L231.23,304L231.42,301.66L231.82,303.27L231.83,303.98L231.88,304L231.98,293.64L232.29,303.52L232.29,304L232.94,301.26L233.04,303.73L233.05,304L233.05,301.09L233.8,303.67L233.81,301.53L233.9,294.68L234.52,304L234.52,303.94L234.57,303.88L234.64,301.69L234.66,304L235.29,303.4L235.33,304L235.45,302.24L236.08,303.97L236.1,303.95L236.25,304L236.5,302.22L236.57,303.94L236.59,301.48L236.59,304L237.16,297.79L237.34,300.56L237.38,304L237.78,302.45L238.01,303.8L238.01,304L238.49,302.77L238.74,302.8L238.77,304L238.97,303.95L238.97,304L239.03,303.09L239.68,301.37L239.69,304L239.82,303.69L239.82,304L239.86,300.63L240.5,304L240.66,303.71L240.66,304L240.7,282.62L241.39,303.96L241.43,303.88L241.49,304L241.94,301.71L242.18,303.68L242.18,304L242.53,301.76L242.69,303.74L242.69,300.22L243.28,298.43L243.41,304L243.45,303.63L243.72,301.84L244.11,304L244.2,303.93L244.27,303.87L244.28,304L244.64,298.88L245,303.96L245.02,304L245.25,303.01L245.32,304L245.32,302.6L245.53,301.39L246.01,304L246.05,303.95L246.1,303.91L246.12,304L246.24,302.24L246.82,303.47L246.9,302.88L247.19,301.35L247.66,304L247.66,304L247.84,304L248.52,301.27L248.57,304L248.6,304L248.96,303.12L249.38,303.64L249.41,303.94L249.66,303.39L249.66,303.86L249.66,302.91L249.71,304L249.71,292.04L250.37,303.84L250.46,303.75L250.72,302.92L251,304L251,302.06L251.22,304L251.25,302.96L251.25,299.93L251.25,304L251.83,278.28L252,303.77L252.01,303.97L252.14,304L252.4,302.88L252.66,303.77L252.67,300.26L253.39,304L253.43,303.75L253.43,304L253.91,242.97L254.15,303.95L254.26,304L254.9,302.3L255.04,303.84L255.04,304L255.48,302.2L255.79,303.83L255.86,304L255.98,298.95L256.55,304L256.58,304L257.24,300.28L257.27,303.95L257.32,304L257.44,302.26L258,304L258.02,304L258.24,304L258.24,300.92L258.47,294.11L259.01,304L259.05,303.91L259.05,304L259.72,291.71L259.76,304L259.83,304L259.87,303.51L259.99,304L260.07,287.88L260.07,304L260.82,304L260.84,303.73L260.94,303.37L261.22,304L261.22,303.85L261.23,302.55L261.23,304L261.23,301.36L261.94,303.46L262.07,302L262.07,304L262.77,298.03L262.82,304L262.9,303.76L263.13,303.66L263.19,304L263.2,303.95L263.23,295.42L263.23,304L263.83,304L263.99,303.86L264.24,304L264.7,301.61L264.73,303.94L264.74,303.98L264.8,302.21L264.8,304L265.48,304L265.54,304L266.04,300.98L266.29,304L266.3,303.97L266.37,304L266.58,299.33L266.84,304L266.9,304L267.36,299.04L267.48,304L267.51,304L268.13,301.41L268.26,303.82L268.27,304L268.38,299.76L268.98,303.48L269.03,304L269.49,300.41L269.73,303.63L269.78,304L269.79,301.95L270.5,304L270.54,303.97L270.63,304L271.21,303.25L271.27,303.87L271.29,304L271.64,300.2L271.85,304L272,304L272.62,303.12L272.69,303.99L272.77,303.85L272.99,301.56L273.33,304L273.33,301.26L273.33,304L273.34,300.82L274.02,304L274.09,304L274.75,301.84L274.79,303.99L274.82,303.86L275.25,304L275.29,303.8L275.32,302.9L275.32,304L275.45,302.23L276.05,304L276.08,303.93L276.13,304L276.54,295.7L276.82,304L276.83,303.96L276.85,304L277.43,301.76L277.56,304L277.58,304L278.04,301.46L278.33,303.78L278.37,304L278.85,302.6L279.09,304L279.15,304L279.84,297.23L279.89,303.91L279.94,303.99L279.97,304L280.58,300.98L280.72,303.47L280.72,304L280.8,295.91L281.4,304L281.41,303.86L281.51,304L281.51,302.22L282.25,304L282.34,303.75L282.34,304L282.81,300.68L283.04,304L283.11,299.94L283.11,304L283.48,297.44L283.85,304L283.87,304L284.3,295.86L284.6,303.84L284.63,304L285.11,301.27L285.36,304L285.36,293.79L286.13,304L286.14,303.9L286.15,304L286.26,302.89L286.85,303.99L286.91,303.88L286.93,304L286.95,301.93L287.58,303.81L287.58,304L288.28,300.44L288.3,304L288.36,302.54L289.15,304L289.19,304L289.76,301.79L289.94,304L289.96,304L290.33,301.33L290.34,304L290.45,304L290.45,301.34L291.16,303.94L291.21,304L291.66,292.54L291.93,303.81L291.97,304L292.32,302.92L292.69,303.5L292.74,303.91L292.91,303.35L293.37,304L293.37,303.31L293.94,303.06L294.13,304L294.13,304L294.15,304L294.19,298.11L294.74,303.69L294.8,304L295.43,298.19L295.48,304L295.6,303.94L295.66,304L295.97,298.57L296.31,304L296.37,303.3L296.37,304L296.66,302.38L297.12,302.98L297.15,304L297.72,301.89L297.9,304L298.01,303.9L298.12,304L298.12,303.05L298.34,303.84L298.34,301.79L298.34,304L298.85,300.07L299.08,303.98L299.13,302.79L299.13,304L299.77,300.44L299.87,304L300,303.73L300.68,302.27L300.7,304L300.78,303.86L300.78,304L300.8,298.02L301.51,304L301.58,303.97L301.62,304L302.22,299.4L302.28,303.89L302.35,304L302.36,302.31L303.1,304L303.12,303.95L303.44,303.03L303.63,303.68L303.66,301.95L303.66,304L303.79,301.85L304.38,303.49L304.42,303.94L304.67,303.66L304.68,304L304.7,302.87L304.7,304L305.45,304L305.58,303.94L305.68,304L305.79,300.43L306.28,303.45L306.29,304L306.39,290.19L306.99,303.87L307.12,303.38L307.58,304L307.6,300.66L307.61,303.95L307.61,16L307.61,304L308.34,303.89L308.38,303.8L308.46,304L308.55,303.41L308.63,301.37L308.63,304L308.65,301.15L309.32,304L309.39,303.78L310.05,303.23L310.15,304L310.16,303.33L310.59,295.73L310.87,304L310.87,303.77L310.89,296.62L310.9,295.16L310.99,304L311.59,303.92L311.6,304L311.96,301.91L312.3,304L312.31,304L312.69,303.03L313.04,304L313.07,304L313.11,301.99L313.79,304L313.83,303.94L313.85,304L314.06,297.99L314.49,304L314.55,304L315,302.07L315.29,304L315.33,304L315.44,296.33L316.07,302.45L316.15,304L316.23,300.72L316.88,304L316.91,303.82L316.91,304L317.15,301.89L317.66,304L317.68,303.82L317.68,304L318.22,300.4L318.43,303.91L318.44,304L318.97,303.06L319.15,304L319.2,304L319.59,301.24L319.64,304L319.7,304L320.4,299.42L320.45,304L320.49,303.22L320.84,302.53L321.21,304L321.23,303.91L321.34,303.82L321.34,304L321.71,302.09L322.04,303.35L322.1,304L322.21,300.12L322.21,304L322.22,304L322.52,303.34L322.52,302.38L322.84,295.78L323.2,304L323.25,303.64L323.3,304L323.91,302.64L324.02,303.89L324.06,304L324.47,299.78L324.79,303.82L324.84,304L325.37,277.33L325.57,303.97L325.62,304L325.73,285.07L326.34,303.92L326.4,303.95L326.49,304L327.03,301.66L327.11,304L327.2,303.93L327.62,304L327.62,303.83L327.62,302.42L327.62,304L327.96,301.59L328.37,304L328.38,304L328.61,301.38L329.1,303.85L329.14,303.94L329.19,300.11L329.25,304L329.8,304L329.9,303.78L329.9,304L330.28,298.04L330.65,303.84L330.68,304L330.9,301.36L331.28,303.21L331.31,304L331.49,301.77L332.01,304L332.15,304L332.77,290.89L332.89,302.72L332.94,301.85L332.94,304L332.94,300.64L333.68,304L333.73,304L334.23,302.22L334.37,303.81L334.39,303.99L334.53,303.72L334.65,304L334.71,301.19L334.71,304L335.25,299.8L335.46,303.96L335.48,303.96L335.58,304L336.21,298.4L336.23,303.71L336.23,304L336.85,302.01L336.97,303.97L337.04,303.88L337.09,304L337.55,302.22L337.77,304L337.79,304L337.95,303.3L338.21,304L338.27,299.33L338.33,298.43L338.39,304L338.71,302.89L338.83,303.7L338.92,304L339.04,300.23L339.58,304L339.6,304L339.8,295.51L340.34,304L340.39,303.76L341,301.83L341.07,304L341.19,304L341.88,300.17L341.94,303.85L342.05,303.58L342.26,300.57L342.82,304L342.82,303.77L342.92,304L342.92,298.19L342.92,304L343.64,303.87L343.7,303.62L343.7,304L344.32,300.22L344.45,303.73L344.48,304L344.51,302.01L345.22,304L345.25,302.88L345.25,304L345.97,301.95L345.99,303.97L346.08,303.84L346.2,301.6L346.75,304L346.78,302.18L347.29,300.27L347.53,304L347.53,303.92L347.57,303.51L348.09,302.47L348.23,304L348.23,303.9L348.36,303.52L348.36,304L349.06,300.97L349.19,304L349.91,303.36L349.93,304L349.94,304L350.59,294.45L350.68,303.93L350.75,303.78L350.87,303.34L350.92,304L350.97,299.44L350.97,298.21L350.98,304L351.72,303.89L351.74,303.96L352.07,302.76L352.24,303.76L352.24,304L353.01,303.06L353.04,303.95L353.21,303.7L353.21,304L353.25,301.35L353.25,304L353.5,300.01L354,303.87L354.13,304L354.7,301.94L354.88,303.86L354.89,304L355,303.47L355.07,303.92L355.09,302.24L355.18,304L355.79,303.89L355.85,303.53L355.85,304L356.55,301.62L356.6,304L356.63,304L357.29,302.72L357.31,304L357.45,304L357.98,301.98L358.18,303.98L358.23,303.91L358.34,304L358.96,302.97L358.97,303.98L359.02,304L359.31,299.21L359.45,302.95L359.45,304L359.54,302.8L360.19,303.79L360.21,304L360.85,299.01L360.96,304L360.97,300.12L361.73,304L361.77,303.95L361.83,304L362.18,302.74L362.26,304L362.26,300.76L362.27,304L362.98,304L363.07,304L363.56,302.09L363.84,303.24L363.84,304L364.12,301.42L364.54,304L364.67,303.14L364.67,304L365.07,301.58L365.42,304L365.43,303.94L365.66,302.92L365.95,303.85L365.95,304L366.44,302.58L366.64,304L366.72,304L366.89,303.91L366.89,302.85L366.94,298.66L367.63,304L367.63,304L367.65,303.78L367.77,303.07L368.26,304L368.28,303.84L368.3,302.83L368.31,304L368.45,301.38L369.03,304L369.07,304L369.47,302.44L369.8,303.83L369.83,303.95L370.06,304L370.19,302.91L370.19,304L370.7,301.83L370.93,304L370.96,300.19L370.96,304L371.68,304L371.74,304L371.84,301.16L371.96,304L371.98,299.36L371.98,304L372.73,304L372.8,304L373.09,303.54L373.09,304L373.11,303.2L373.11,304L373.74,299.85L373.86,304L373.88,303.99L374.45,298.44L374.61,304L374.66,304L375.13,300.81L375.41,304L375.42,303.83L375.42,304L375.97,301.22L376.12,304L376.2,304L376.49,302.94L376.93,303.63L377.01,303.87L377.11,304L377.7,302.99L377.75,303.91L377.82,304L378.38,301.91L378.56,304L378.62,304L379.33,299.83L379.36,302.64L379.43,303.86L379.56,303.4L379.83,304L379.83,297.36L380.58,304L380.61,302.56L380.68,304L380.69,302.42L381.41,304L381.44,303.17L382.18,304L382.18,304L382.19,303.53L382.37,301.36L382.76,304L382.76,302.15L382.76,304L382.84,300.07L383.48,303.88L383.52,303.92L383.6,300.57L383.6,304L384.25,303.69L384.29,304L384.38,302.83L385,303.9L385.06,303.88L385.12,302.52L385.12,304L385.27,304L385.3,300.09L385.3,304L385.74,298.73L386.05,303.93L386.06,303.98L386.48,302.62L386.88,303.23L386.88,303.85L387.14,302.19L387.55,304L387.55,303.33L387.55,304L388.25,281.09L388.25,303.68L388.38,303.88L388.56,304L388.72,301.87L389.09,303.87L389.21,303.79L389.21,304L389.7,299.98L389.9,304L390.02,303.77L390.05,304L390.61,297.96L390.76,303.67L390.77,304L391.27,302.41L391.33,303.95L391.37,304L391.96,299.98L392.12,303.76L392.22,304L392.43,303.08L392.98,303.62L392.98,304L393.11,303.89L393.18,304L393.18,302.4L393.31,296.72L393.99,304L394.01,304L394.17,303.23L394.23,304L394.26,300.57L394.26,304L394.95,303.84L395.05,303.81L395.65,303.06L395.76,304L395.84,304L396.52,295.25L396.55,304L396.61,304L396.91,294.04L397.2,303.8L397.23,303.92L397.43,304L397.43,281.01L398.14,304L398.21,303.91L398.28,304L398.86,301.13L399.04,303.82L399.04,303.99L399.14,304L399.67,297.98L399.74,304L399.8,304L400.43,301.83L400.53,304L400.59,303.87L400.63,304L401.24,302.82L401.24,303.55L401.26,299.13L401.92,293.67L402.02,304L402.02,299.74L402.76,304L402.86,301.57L402.86,304L403.57,300.51L403.61,304L403.64,303.55L403.77,300.03L404.25,304L404.25,300.03L404.32,304L404.33,289.22L404.99,304L405.01,303.87L405.02,304L405.05,300.29L405.72,303.89L405.78,304L405.78,300.84L406.51,303.87L406.55,303.19L406.96,301.92L407.14,304L407.15,293.27L407.81,304L407.94,303.96L407.99,304L408.21,302.38L408.21,300.83L408.22,304L408.53,300.27L408.9,304L409.01,304L409.03,302.24L409.61,303.14L409.66,304L410.1,301.46L410.41,303.5L410.43,304L410.63,300.77L410.82,302.14L410.92,304L410.96,303.85L411,304L411,299.89L411.67,298.85L411.75,304L411.76,303.64L411.83,303.86L411.99,303.7L412.39,304L412.39,300.27L412.43,304L412.91,294.99L413.1,303.83L413.16,304L413.36,293.16L413.36,302.78L413.36,281.67L413.77,275.56L413.99,304L414.06,303.98L414.13,303.39L414.13,304L414.19,273.79L414.81,304L414.96,303.27L415.48,299.93L415.71,304L415.71,303.58L415.72,303.98L416,303.24L416.18,304L416.18,302.69L416.22,302.4L416.89,304L416.95,302.84L416.95,304L417.67,297.66L417.73,304L418.21,301.18L418.46,304L418.58,304L418.98,302.63L419.33,304L419.34,304L419.43,300.9L420,304L420.11,303.35L420.75,304L420.77,301.96L420.86,303.97L420.86,298.75L421.4,296.27L421.62,304L421.65,303.91L421.65,302.95L421.67,304L422.35,303.99L422.43,303.85L422.51,304L422.54,301.94L422.6,303.88L422.6,297.32L422.6,304L422.74,216.51L423.35,304L423.37,304L423.56,302.6L424.1,304L424.16,303.99L424.25,304L424.29,301.19L424.86,303.95L424.92,303.87L424.97,304L425.53,301.83L425.55,303.03L425.55,299.51L425.58,298.26L425.58,304L426.19,304L426.2,303.98L426.25,304L426.83,299.14L426.86,303.55L426.91,304L427.4,300.46L427.56,303.98L427.67,304L427.73,294.12L428.16,302.82L428.21,304L428.58,301.81L428.75,303.64L428.82,304L428.91,302.48L429.15,304L429.15,294.18L429.92,304L429.93,303.93L430.11,303.22L430.3,304L430.3,302.9L430.3,304L430.56,302.53L431.05,304L431.07,303.95L431.18,304L431.27,299.92L431.81,304L431.84,303.92L431.93,304L432.11,300.82L432.38,304L432.4,304L432.51,302.55L433.14,302.86L433.17,302.75L433.17,304L433.17,295.94L433.9,304L433.95,304L434.34,302.45L434.66,303.55L434.77,303.92L434.89,303.57L434.89,304L434.92,304L434.92,301.25L435.35,294.2L435.71,304L435.74,304L436.24,302.39L436.27,304L436.27,292.35L436.38,304L437.02,303.77L437.04,304L437.73,300.69L437.8,304L437.83,304L438.55,297.56L438.58,304L438.6,303.99L438.77,300.79L438.77,304L439.33,304L439.36,304L440.02,302.74L440.09,303.7L440.17,303.85L440.37,302.31L440.78,304L440.78,303.63L440.81,301.95L440.81,304L440.81,299.94L441.54,303.83L441.58,304L442.02,297.88L442.27,303.97L442.37,303.65L442.57,300.51L442.79,304L442.79,302.45L442.8,289.48L442.8,304L443.52,287.42L443.57,303.15L443.71,300.21L444.21,304L444.21,300.81L444.22,300.61L444.22,304L444.81,303.38L444.81,303.99L444.88,304L444.95,302.64L445.56,303.91L445.66,304L445.94,299.25L446.39,303.97L446.48,303.72L446.48,304L447.13,298.91L447.23,304L447.24,304L447.99,296.63L447.99,304L448,303.95L448.02,304L448.74,253.6L448.74,303.87L448.78,303.78L449.36,303.22L449.55,304L449.56,303.71L449.66,304L450.16,301.67L450.31,304L450.32,303.82L450.49,303.67L450.49,304L450.49,239.11L451.26,304L451.32,303.77L451.32,304L451.82,301.16L452.06,302.98L452.1,303.91L452.4,304L452.46,302.97L452.47,302.79L452.47,304L453.12,303.86L453.19,304L453.61,182.73L453.88,303.23L453.96,304L454.51,302.22L454.69,303.79L454.74,304L455.45,301.52L455.47,301.86L455.52,304L455.65,298.19L456.18,304L456.3,304L456.47,301.31L456.86,302.9L456.87,303.95L457.07,303.39L457.31,304L457.31,301.85L457.76,294.14L458.08,304L458.09,303.99L458.12,303.95L458.14,304L458.55,301.43L458.86,303.99L458.89,303.94L458.99,304L459.63,295.18L459.63,304L459.68,304L459.94,302.36L460.02,304L460.03,294.84L460.11,293.67L460.82,304L460.9,303.71L461.15,301.94L461.57,304L461.57,303.88L461.62,303.08L461.62,304L462.1,290.96L462.31,304L462.38,303.67L462.52,302.94L463.05,304L463.05,303.95L463.06,303.06L463.06,304L463.77,301.23L463.8,304L463.83,303.51L463.83,304L464.11,301.07L464.53,304L464.59,304L464.9,296.43L465.33,304L465.4,303.84L465.43,304L465.56,301.25L466.12,304L466.15,303.86L466.15,304L466.55,302.65L466.88,303.92L466.92,303.97L467.02,303.46L467.04,304L467.04,301.56L467.16,300.42L467.82,304L467.84,303.8L468.01,301.19L468.6,304L468.61,303.96L468.96,303.3L468.99,304L468.99,302.23L469.65,304L469.74,303.83L469.8,303.09L469.8,304L470.43,298.77L470.53,299.45L470.57,303.92L470.67,304L470.96,303.07L471.29,303.91L471.33,304L471.37,303.58L471.4,303.71L471.4,286.68L472.13,304L472.14,303.95L472.18,303.92L472.21,304L472.93,301.08L472.95,303.41L472.95,304L473.11,300.69L473.68,303.72L473.76,304L474.28,297.08L474.43,304L474.53,303.89L474.63,303.35L474.63,304L474.68,304L474.68,294.71L474.82,304L475.35,304L475.46,304L476.07,300.37L476.21,303.82L476.22,304L476.71,296.27L476.95,303.92L476.97,303.96L477.03,304L477.21,294.71L477.64,304L477.66,304L478.09,299.66L478.38,304L478.42,304L478.6,303.11L479.17,303.9L479.18,304L479.79,296.24L479.89,304L479.98,303.81L480.01,304L480.01,295.79L480.73,304L480.74,301.96L480.74,304L481.24,299.27L481.49,303.94L481.51,303.95L481.69,302.87L481.87,303.66L481.89,304L482.4,301.4L482.58,304L482.6,304L482.76,303.12L483.14,303.87L483.14,304L483.54,301.11L483.88,304L483.93,303.99L484.13,301.45L484.26,304L484.29,304L484.85,291.15L485.01,304L485.05,303.87L485.22,303.11L485.56,304L485.57,302.61L485.57,304L486.06,301.06L486.26,303.96L486.33,304L486.47,299.56L487,303.88L487.09,304L487.42,302.36L487.84,304L487.89,304L488.27,301.35L488.55,302.08L488.67,303.89L488.73,304L488.87,303.13L489.42,303.6L489.42,303.96L489.55,304L490.09,302.62L490.1,304L490.19,304L490.72,302.59L490.94,304L490.98,304L491.13,290.77L491.71,303.83L491.76,303.11L491.76,304L492.48,304L492.52,303.77L492.52,304L493.2,302.44L493.25,304L493.31,304L493.95,299.04L494,304" style="vector-effect: non-scaling-stroke; fill: none; stroke: rgb(99, 110, 250); stroke-opacity: 1; stroke-width: 2px; opacity: 1;"/></g><g class="points"/><g class="text"/></g></g></g><g class="overplot"/><path class="xlines-above crisp" d="M0,0" style="fill: none;"/><path class="ylines-above crisp" d="M0,0" style="fill: none;"/><g class="overlines-above"/><g class="xaxislayer-above"><g class="xtick"><text text-anchor="middle" x="0" y="436" transform="translate(212.2,0)" style="font-family: 'Times New Roman'; font-size: 15px; fill: rgb(13, 13, 13); fill-opacity: 1; white-space: pre; opacity: 1;">1.61252×10​<tspan style="font-size:70%" dy="-0.6em">18</tspan><tspan dy="0.42em">​</tspan></text></g><g class="xtick"><text text-anchor="middle" x="0" y="436" style="font-family: 'Times New Roman'; font-size: 15px; fill: rgb(13, 13, 13); fill-opacity: 1; white-space: pre; opacity: 1;" transform="translate(310.23,0)">1.612525×10​<tspan style="font-size:70%" dy="-0.6em">18</tspan><tspan dy="0.42em">​</tspan></text></g><g class="xtick"><text text-anchor="middle" x="0" y="436" style="font-family: 'Times New Roman'; font-size: 15px; fill: rgb(13, 13, 13); fill-opacity: 1; white-space: pre; opacity: 1;" transform="translate(408.26,0)">1.61253×10​<tspan style="font-size:70%" dy="-0.6em">18</tspan><tspan dy="0.42em">​</tspan></text></g><g class="xtick"><text text-anchor="middle" x="0" y="436" style="font-family: 'Times New Roman'; font-size: 15px; fill: rgb(13, 13, 13); fill-opacity: 1; white-space: pre; opacity: 1;" transform="translate(506.3,0)">1.612535×10​<tspan style="font-size:70%" dy="-0.6em">18</tspan><tspan dy="0.42em">​</tspan></text></g><g class="xtick"><text text-anchor="middle" x="0" y="436" style="font-family: 'Times New Roman'; font-size: 15px; fill: rgb(13, 13, 13); fill-opacity: 1; white-space: pre; opacity: 1;" transform="translate(604.3299999999999,0)">1.61254×10​<tspan style="font-size:70%" dy="-0.6em">18</tspan><tspan dy="0.42em">​</tspan></text></g></g><g class="yaxislayer-above"><g class="ytick"><text text-anchor="end" x="125" y="12.25" transform="translate(0,404)" style="font-family: 'Times New Roman'; font-size: 35px; fill: rgb(13, 13, 13); fill-opacity: 1; white-space: pre; opacity: 1;">0</text></g><g class="ytick"><text text-anchor="end" x="125" y="12.25" style="font-family: 'Times New Roman'; font-size: 35px; fill: rgb(13, 13, 13); fill-opacity: 1; white-space: pre; opacity: 1;" transform="translate(0,367.41)">1000</text></g><g class="ytick"><text text-anchor="end" x="125" y="12.25" style="font-family: 'Times New Roman'; font-size: 35px; fill: rgb(13, 13, 13); fill-opacity: 1; white-space: pre; opacity: 1;" transform="translate(0,330.83000000000004)">2000</text></g><g class="ytick"><text text-anchor="end" x="125" y="12.25" style="font-family: 'Times New Roman'; font-size: 35px; fill: rgb(13, 13, 13); fill-opacity: 1; white-space: pre; opacity: 1;" transform="translate(0,294.24)">3000</text></g><g class="ytick"><text text-anchor="end" x="125" y="12.25" style="font-family: 'Times New Roman'; font-size: 35px; fill: rgb(13, 13, 13); fill-opacity: 1; white-space: pre; opacity: 1;" transform="translate(0,257.65)">4000</text></g><g class="ytick"><text text-anchor="end" x="125" y="12.25" style="font-family: 'Times New Roman'; font-size: 35px; fill: rgb(13, 13, 13); fill-opacity: 1; white-space: pre; opacity: 1;" transform="translate(0,221.06)">5000</text></g><g class="ytick"><text text-anchor="end" x="125" y="12.25" style="font-family: 'Times New Roman'; font-size: 35px; fill: rgb(13, 13, 13); fill-opacity: 1; white-space: pre; opacity: 1;" transform="translate(0,184.48000000000002)">6000</text></g><g class="ytick"><text text-anchor="end" x="125" y="12.25" style="font-family: 'Times New Roman'; font-size: 35px; fill: rgb(13, 13, 13); fill-opacity: 1; white-space: pre; opacity: 1;" transform="translate(0,147.89)">7000</text></g><g class="ytick"><text text-anchor="end" x="125" y="12.25" style="font-family: 'Times New Roman'; font-size: 35px; fill: rgb(13, 13, 13); fill-opacity: 1; white-space: pre; opacity: 1;" transform="translate(0,111.3)">8000</text></g></g><g class="overaxes-above"/></g></g><g class="polarlayer"/><g class="smithlayer"/><g class="ternarylayer"/><g class="geolayer"/><g class="funnelarealayer"/><g class="pielayer"/><g class="iciclelayer"/><g class="treemaplayer"/><g class="sunburstlayer"/><g class="glimages"/><defs id="topdefs-439b55"><g class="clips"/></defs><g class="layer-above"><g class="imagelayer"/><g class="shapelayer"/></g><g class="infolayer"><g class="g-gtitle"/><g class="g-xtitle"><text class="xtitle" x="373" y="463.8" text-anchor="middle" style="font-family: 'Open Sans', verdana, arial, sans-serif; font-size: 14px; fill: rgb(42, 63, 95); opacity: 1; font-weight: normal; white-space: pre;">Time Steps (ns)</text></g><g class="g-ytitle" transform="translate(24,0)"><text class="ytitle" transform="rotate(-90,12,260)" x="12" y="260" text-anchor="middle" style="font-family: 'Times New Roman'; font-size: 40px; fill: rgb(13, 13, 13); opacity: 1; font-weight: normal; white-space: pre;">Speed (in sec.)</text></g></g></svg>