<svg class="main-svg" xmlns="http://www.w3.org/2000/svg" xmlns:xlink="http://www.w3.org/1999/xlink" width="700" height="500" style="" viewBox="0 0 700 500"><rect x="0" y="0" width="700" height="500" style="fill: rgb(255, 255, 255); fill-opacity: 1;"/><defs id="defs-3b0fbe"><g class="clips"><clipPath id="clip3b0fbexyplot" class="plotclip"><rect width="511" height="320"/></clipPath><clipPath class="axesclip" id="clip3b0fbex"><rect x="109" y="0" width="511" height="500"/></clipPath><clipPath class="axesclip" id="clip3b0fbey"><rect x="0" y="100" width="700" height="320"/></clipPath><clipPath class="axesclip" id="clip3b0fbexy"><rect x="109" y="100" width="511" height="320"/></clipPath></g><g class="gradients"/><g class="patterns"/></defs><g class="bglayer"><rect class="bg" x="109" y="100" width="511" height="320" style="fill: rgb(229, 236, 246); fill-opacity: 1; stroke-width: 0;"/></g><g class="layer-below"><g class="imagelayer"/><g class="shapelayer"/></g><g class="cartesianlayer"><g class="subplot xy"><g class="layer-subplot"><g class="shapelayer"/><g class="imagelayer"/></g><g class="minor-gridlayer"><g class="x"/><g class="y"/></g><g class="gridlayer"><g class="x"><path class="xgrid crisp" transform="translate(198.17000000000002,0)" d="M0,100v320" style="stroke: rgb(255, 255, 255); stroke-opacity: 1; stroke-width: 1px;"/><path class="xgrid crisp" transform="translate(299.57,0)" d="M0,100v320" style="stroke: rgb(255, 255, 255); stroke-opacity: 1; stroke-width: 1px;"/><path class="xgrid crisp" transform="translate(400.98,0)" d="M0,100v320" style="stroke: rgb(255, 255, 255); stroke-opacity: 1; stroke-width: 1px;"/><path class="xgrid crisp" transform="translate(502.38,0)" d="M0,100v320" style="stroke: rgb(255, 255, 255); stroke-opacity: 1; stroke-width: 1px;"/><path class="xgrid crisp" transform="translate(603.79,0)" d="M0,100v320" style="stroke: rgb(255, 255, 255); stroke-opacity: 1; stroke-width: 1px;"/></g><g class="y"><path class="ygrid crisp" transform="translate(0,347.32)" d="M109,0h511" style="stroke: rgb(255, 255, 255); stroke-opacity: 1; stroke-width: 1px;"/><path class="ygrid crisp" transform="translate(0,290.64)" d="M109,0h511" style="stroke: rgb(255, 255, 255); stroke-opacity: 1; stroke-width: 1px;"/><path class="ygrid crisp" transform="translate(0,233.95)" d="M109,0h511" style="stroke: rgb(255, 255, 255); stroke-opacity: 1; stroke-width: 1px;"/><path class="ygrid crisp" transform="translate(0,177.26999999999998)" d="M109,0h511" style="stroke: rgb(255, 255, 255); stroke-opacity: 1; stroke-width: 1px;"/><path class="ygrid crisp" transform="translate(0,120.58)" d="M109,0h511" style="stroke: rgb(255, 255, 255); stroke-opacity: 1; stroke-width: 1px;"/></g></g><g class="zerolinelayer"><path class="yzl zl crisp" transform="translate(0,404.01)" d="M109,0h511" style="stroke: rgb(255, 255, 255); stroke-opacity: 1; stroke-width: 2px;"/></g><path class="xlines-below"/><path class="ylines-below"/><g class="overlines-below"/><g class="xaxislayer-below"/><g class="yaxislayer-below"/><g class="overaxes-below"/><g class="plot" transform="translate(109,100)" clip-path="url(#clip3b0fbexyplot)"><g class="scatterlayer mlayer"><g class="trace scatter trace718747" style="stroke-miterlimit: 2; opacity: 1;"><g class="fills"/><g class="errorbars"/><g class="lines"><path class="js-line" d="M0,304L4.92,301.74L4.92,301.74L4.92,301.73L28.71,291.2L28.71,291.19L37.31,286.66L37.31,286.65L38.67,285.82L38.67,285.81L41.37,284.2L41.37,284.19L45.84,282.17L45.85,282.16L47.62,281.22L47.62,281.22L47.73,281.21L59.28,274.02L59.28,274.02L59.33,274.01L62.21,272.4L62.21,272.4L62.21,272.39L64.55,271.04L64.55,271.04L64.63,271.03L68.59,269.11L68.68,269.1L76.84,264.47L76.84,264.47L76.84,264.46L79.91,262.6L79.91,262.6L79.91,262.59L82.25,261.19L82.25,261.19L82.25,261.18L86.95,258.59L86.95,258.58L90.86,256.56L90.86,256.55L93.35,254.93L93.35,254.93L93.36,254.92L101.3,250.27L101.3,250.27L101.3,250.26L118.75,240.26L118.75,240.26L118.83,240.25L120.3,239.24L120.3,239.24L120.35,239.23L123.09,237.54L123.09,237.54L123.15,237.53L135.33,231.04L135.57,231.03L141.94,227.27L141.94,227.27L141.95,227.26L143.92,226.3L143.99,226.3L146.2,225.01L146.2,225.01L146.21,225L150.38,222.72L150.38,222.72L150.45,222.71L154.74,220.49L154.74,220.49L154.74,220.48L157.37,218.82L157.37,218.82L157.37,218.81L159.37,217.81L159.47,217.8L161.36,216.67L161.36,216.67L161.55,216.66L173.94,209.32L173.94,209.32L173.94,209.31L176.14,208.14L176.19,208.13L181.9,204.87L181.9,204.87L181.9,204.86L183.77,203.81L183.77,203.81L183.81,203.8L185.55,202.83L185.55,202.83L185.55,202.82L188.67,201.06L188.67,201.05L191.86,199.39L191.86,199.38L217.75,184.54L217.75,184.54L217.85,184.53L219.94,183.18L219.94,183.18L220.03,183.17L224.77,180.49L224.77,180.49L224.77,180.48L226.42,179.64L226.42,179.64L226.47,179.63L248.78,166.51L248.94,166.5L251.35,165.39L251.35,165.39L251.39,165.38L277.61,151.48L277.61,151.48L277.61,151.47L282.72,148.73L282.72,148.72L284.93,147.5L284.93,147.5L285.01,147.49L300.13,138.9L300.23,138.9L302.59,137.59L302.65,137.58L323.64,126.48L323.64,126.48L323.64,126.47L329.58,122.89L329.58,122.89L329.61,122.88L332.26,121.16L332.26,121.16L332.26,121.15L335.53,119.27L335.53,119.27L335.54,119.26L337.84,118.07L337.84,118.07L337.87,118.06L361.08,104.98L361.08,104.98L361.08,104.97L363.34,103.78L363.34,103.77L366.06,102.09L366.09,102.09L382.19,92.97L382.19,92.97L382.19,92.96L384.78,91.48L384.78,91.48L384.78,91.47L391.69,87.7L391.69,87.7L391.69,87.69L400.63,82.73L400.63,82.72L422.13,70.64L422.23,70.64L423.87,69.52L423.92,69.52L427.28,67.62L427.28,67.62L427.32,67.61L430.15,65.79L430.31,65.79L439.31,60.3L439.31,60.29L447.7,55.29L447.7,55.29L447.7,55.28L487.81,30.81L487.81,30.81L487.93,30.8L489.56,29.88L489.56,29.88L489.56,29.87L493.37,27.65L493.37,27.64L496.73,25.47L496.73,25.47L496.73,25.46L511,16" style="vector-effect: non-scaling-stroke; fill: none; stroke: rgb(168, 0, 173); stroke-opacity: 1; stroke-width: 2px; opacity: 1;"/></g><g class="points"/><g class="text"/></g></g></g><g class="overplot"/><path class="xlines-above crisp" d="M0,0" style="fill: none;"/><path class="ylines-above crisp" d="M0,0" style="fill: none;"/><g class="overlines-above"/><g class="xaxislayer-above"><g class="xtick"><text text-anchor="middle" x="0" y="436" transform="translate(198.17000000000002,0)" style="font-family: 'Times New Roman'; font-size: 15px; fill: rgb(13, 13, 13); fill-opacity: 1; white-space: pre; opacity: 1;">1.61252×10​<tspan style="font-size:70%" dy="-0.6em">18</tspan><tspan dy="0.42em">​</tspan></text></g><g class="xtick"><text text-anchor="middle" x="0" y="436" style="font-family: 'Times New Roman'; font-size: 15px; fill: rgb(13, 13, 13); fill-opacity: 1; white-space: pre; opacity: 1;" transform="translate(299.57,0)">1.612525×10​<tspan style="font-size:70%" dy="-0.6em">18</tspan><tspan dy="0.42em">​</tspan></text></g><g class="xtick"><text text-anchor="middle" x="0" y="436" style="font-family: 'Times New Roman'; font-size: 15px; fill: rgb(13, 13, 13); fill-opacity: 1; white-space: pre; opacity: 1;" transform="translate(400.98,0)">1.61253×10​<tspan style="font-size:70%" dy="-0.6em">18</tspan><tspan dy="0.42em">​</tspan></text></g><g class="xtick"><text text-anchor="middle" x="0" y="436" style="font-family: 'Times New Roman'; font-size: 15px; fill: rgb(13, 13, 13); fill-opacity: 1; white-space: pre; opacity: 1;" transform="translate(502.38,0)">1.612535×10​<tspan style="font-size:70%" dy="-0.6em">18</tspan><tspan dy="0.42em">​</tspan></text></g><g class="xtick"><text text-anchor="middle" x="0" y="436" style="font-family: 'Times New Roman'; font-size: 15px; fill: rgb(13, 13, 13); fill-opacity: 1; white-space: pre; opacity: 1;" transform="translate(603.79,0)">1.61254×10​<tspan style="font-size:70%" dy="-0.6em">18</tspan><tspan dy="0.42em">​</tspan></text></g></g><g class="yaxislayer-above"><g class="ytick"><text text-anchor="end" x="108" y="12.25" transform="translate(0,404.01)" style="font-family: 'Times New Roman'; font-size: 35px; fill: rgb(13, 13, 13); fill-opacity: 1; white-space: pre; opacity: 1;">0</text></g><g class="ytick"><text text-anchor="end" x="108" y="12.25" style="font-family: 'Times New Roman'; font-size: 35px; fill: rgb(13, 13, 13); fill-opacity: 1; white-space: pre; opacity: 1;" transform="translate(0,347.32)">10k</text></g><g class="ytick"><text text-anchor="end" x="108" y="12.25" style="font-family: 'Times New Roman'; font-size: 35px; fill: rgb(13, 13, 13); fill-opacity: 1; white-space: pre; opacity: 1;" transform="translate(0,290.64)">20k</text></g><g class="ytick"><text text-anchor="end" x="108" y="12.25" style="font-family: 'Times New Roman'; font-size: 35px; fill: rgb(13, 13, 13); fill-opacity: 1; white-space: pre; opacity: 1;" transform="translate(0,233.95)">30k</text></g><g class="ytick"><text text-anchor="end" x="108" y="12.25" style="font-family: 'Times New Roman'; font-size: 35px; fill: rgb(13, 13, 13); fill-opacity: 1; white-space: pre; opacity: 1;" transform="translate(0,177.26999999999998)">40k</text></g><g class="ytick"><text text-anchor="end" x="108" y="12.25" style="font-family: 'Times New Roman'; font-size: 35px; fill: rgb(13, 13, 13); fill-opacity: 1; white-space: pre; opacity: 1;" transform="translate(0,120.58)">50k</text></g></g><g class="overaxes-above"/></g></g><g class="polarlayer"/><g class="smithlayer"/><g class="ternarylayer"/><g class="geolayer"/><g class="funnelarealayer"/><g class="pielayer"/><g class="iciclelayer"/><g class="treemaplayer"/><g class="sunburstlayer"/><g class="glimages"/><defs id="topdefs-3b0fbe"><g class="clips"/></defs><g class="layer-above"><g class="imagelayer"/><g class="shapelayer"/></g><g class="infolayer"><g class="g-gtitle"/><g class="g-xtitle"><text class="xtitle" x="364.5" y="463.8" text-anchor="middle" style="font-family: 'Open Sans', verdana, arial, sans-serif; font-size: 14px; fill: rgb(42, 63, 95); opacity: 1; font-weight: normal; white-space: pre;">Time Steps (ns)</text></g><g class="g-ytitle" transform="translate(23.5,0)"><text class="ytitle" transform="rotate(-90,12.5,260)" x="12.5" y="260" text-anchor="middle" style="font-family: 'Times New Roman'; font-size: 40px; fill: rgb(13, 13, 13); opacity: 1; font-weight: normal; white-space: pre;">Cum. qty. executed orders</text></g></g></svg>