<svg class="main-svg" xmlns="http://www.w3.org/2000/svg" xmlns:xlink="http://www.w3.org/1999/xlink" width="700" height="500" style="" viewBox="0 0 700 500"><rect x="0" y="0" width="700" height="500" style="fill: rgb(255, 255, 255); fill-opacity: 1;"/><defs id="defs-5fc63d"><g class="clips"><clipPath id="clip5fc63dxyplot" class="plotclip"><rect width="494" height="320"/></clipPath><clipPath class="axesclip" id="clip5fc63dx"><rect x="126" y="0" width="494" height="500"/></clipPath><clipPath class="axesclip" id="clip5fc63dy"><rect x="0" y="100" width="700" height="320"/></clipPath><clipPath class="axesclip" id="clip5fc63dxy"><rect x="126" y="100" width="494" height="320"/></clipPath></g><g class="gradients"/><g class="patterns"/></defs><g class="bglayer"><rect class="bg" x="126" y="100" width="494" height="320" style="fill: rgb(229, 236, 246); fill-opacity: 1; stroke-width: 0;"/></g><g class="layer-below"><g class="imagelayer"/><g class="shapelayer"/></g><g class="cartesianlayer"><g class="subplot xy"><g class="layer-subplot"><g class="shapelayer"/><g class="imagelayer"/></g><g class="minor-gridlayer"><g class="x"/><g class="y"/></g><g class="gridlayer"><g class="x"><path class="xgrid crisp" transform="translate(212.18,0)" d="M0,100v320" style="stroke: rgb(255, 255, 255); stroke-opacity: 1; stroke-width: 1px;"/><path class="xgrid crisp" transform="translate(310.21000000000004,0)" d="M0,100v320" style="stroke: rgb(255, 255, 255); stroke-opacity: 1; stroke-width: 1px;"/><path class="xgrid crisp" transform="translate(408.25,0)" d="M0,100v320" style="stroke: rgb(255, 255, 255); stroke-opacity: 1; stroke-width: 1px;"/><path class="xgrid crisp" transform="translate(506.29,0)" d="M0,100v320" style="stroke: rgb(255, 255, 255); stroke-opacity: 1; stroke-width: 1px;"/><path class="xgrid crisp" transform="translate(604.3199999999999,0)" d="M0,100v320" style="stroke: rgb(255, 255, 255); stroke-opacity: 1; stroke-width: 1px;"/></g><g class="y"><path class="ygrid crisp" transform="translate(0,315.97)" d="M126,0h494" style="stroke: rgb(255, 255, 255); stroke-opacity: 1; stroke-width: 1px;"/><path class="ygrid crisp" transform="translate(0,228.32)" d="M126,0h494" style="stroke: rgb(255, 255, 255); stroke-opacity: 1; stroke-width: 1px;"/><path class="ygrid crisp" transform="translate(0,140.67000000000002)" d="M126,0h494" style="stroke: rgb(255, 255, 255); stroke-opacity: 1; stroke-width: 1px;"/></g></g><g class="zerolinelayer"><path class="yzl zl crisp" transform="translate(0,403.63)" d="M126,0h494" style="stroke: rgb(255, 255, 255); stroke-opacity: 1; stroke-width: 2px;"/></g><path class="xlines-below"/><path class="ylines-below"/><g class="overlines-below"/><g class="xaxislayer-below"/><g class="yaxislayer-below"/><g class="overaxes-below"/><g class="plot" transform="translate(126,100)" clip-path="url(#clip5fc63dxyplot)"><g class="scatterlayer mlayer"><g class="trace scatter trace31bed4" style="stroke-miterlimit: 2; opacity: 1;"><g class="fills"/><g class="errorbars"/><g class="lines"><path class="js-line" d="M0,303.66L0.09,304L0.42,302.92L0.49,303.13L0.67,303.17L1.75,302.33L1.75,302.27L1.82,301.64L2.1,302.56L2.48,302.29L2.5,302.33L3.03,301.64L3.11,302.29L3.31,302.24L3.37,302.82L3.88,301.77L4.11,301.8L4.87,301.04L5.07,301.13L5.15,301.08L5.75,299.53L5.95,300.61L5.96,300.64L7.37,298.98L7.5,299.72L7.5,299.79L8.11,298.91L8.3,299.4L8.4,299.34L9.19,300.55L9.2,300.59L9.99,302.11L10.08,301.92L10.14,301.86L10.16,302.14L10.32,301.66L10.89,302.03L10.95,302.07L11.74,300.98L11.75,301.02L11.75,300.75L12.8,298.46L12.8,298.48L12.87,298.43L13.55,297.28L13.6,297.38L13.66,297.42L14.37,296.76L14.61,296.89L14.61,297.03L15.2,297.72L15.43,297.21L15.58,297.15L16.34,295.91L16.34,295.7L16.57,294.62L17.07,295.21L17.22,295.16L17.56,296.08L17.56,296.23L18.14,296.79L18.14,296.93L18.21,297.11L18.55,296.53L18.84,296.71L18.84,296.66L20,295.1L20,294.89L21.24,291.47L21.42,291.94L21.42,291.97L21.46,292.23L22.08,290.89L22.1,290.92L22.11,290.65L22.6,288.99L22.91,289.03L22.96,289.03L23.04,288.63L23.21,289.62L23.65,289.37L23.66,289.41L23.92,289.95L24.04,289.25L24.07,289.2L24.45,289.28L24.78,288.48L24.85,288.59L25,288.53L25.64,286.06L26.07,286.69L26.13,286.68L26.73,286.78L26.8,286.51L26.82,286.46L26.9,285.94L27.38,286.77L27.47,286.5L27.54,286.45L27.99,286.9L28.23,286.36L28.23,286.31L28.56,286.36L28.86,285.23L28.98,285.61L29.12,285.55L29.52,285.96L29.52,286.1L29.54,286.31L30.17,285.47L30.24,285.41L31.99,284.51L32.13,284.99L32.14,285.07L32.87,285.95L32.95,285.42L32.95,285.21L33.22,284.86L33.49,285.54L33.5,285.79L34.21,286.97L34.31,286.43L34.31,286.22L34.57,286.51L34.92,285.57L35.08,286.03L35.08,286.2L35.14,286.4L35.39,285.83L35.72,286.33L35.92,286.27L36.09,285.78L36.67,287.83L36.68,287.86L36.99,287.35L36.99,287.14L37.63,285.44L37.63,285.33L37.75,285.1L38.26,286.33L38.26,286.01L38.33,286.05L38.33,286.26L39.03,284.63L39.1,284.66L39.36,283.49L39.66,284.14L39.78,284.18L40.47,285.17L40.5,285.21L40.76,284.93L41.22,285.74L41.28,285.32L41.32,285.32L42.39,288.19L42.54,287.98L42.54,287.93L43.61,288.05L43.62,288.32L43.62,288.46L44.22,289.59L44.41,288.84L44.42,288.73L45.09,291.84L45.17,291.75L45.18,291.7L45.23,291.54L45.53,292.44L45.78,292.25L45.82,292.24L46.18,290.32L46.78,290.55L46.8,290.54L46.86,290.56L47.3,287.17L47.63,287.72L47.71,287.67L48.84,285.04L48.99,285.43L49.09,285.47L50.05,284.25L50.14,284.38L50.2,284.42L50.35,284.53L50.75,283.84L50.75,283.87L50.76,283.77L51.5,284.65L51.56,283.88L51.64,283.92L52.26,283.25L52.34,283.95L52.39,283.95L52.42,283.79L52.84,285.39L52.9,285.42L53.22,286.49L53.45,285.78L53.45,285.47L54.62,282.85L54.63,282.95L54.63,282.99L55.09,283.36L55.09,283.3L55.09,283.44L55.56,283.56L55.57,283.74L55.57,283.92L55.95,283.58L56.1,284.48L56.1,284.43L56.11,284.57L56.87,284.03L56.89,284.42L56.89,284.56L57.04,285.59L57.62,284.76L57.66,284.8L58.47,282.79L58.47,282.58L59.22,280.65L59.26,280.65L59.62,280.28L59.76,281.25L59.78,281.29L60.12,280.9L60.64,282.76L60.7,282.21L60.73,282L61.08,281.91L61.42,283.72L61.62,283.26L61.67,283.21L62.16,281.96L62.16,281.75L62.22,281.26L62.89,281.96L62.89,281.96L62.89,281.99L63.63,283.74L63.63,283.69L63.64,284.04L63.67,284.19L64.13,282.69L64.14,282.64L64.58,282.35L64.75,283.07L64.75,283.12L65.52,286.14L65.76,285.09L65.76,284.72L65.92,283.06L66.45,283.87L66.56,283.9L67.15,284.9L67.3,284.54L67.34,284.49L67.92,280.79L68.09,281.54L68.15,281.54L68.15,281.7L68.64,281.17L68.87,281.63L68.91,281.58L69.6,280.82L69.71,281.13L69.76,281.16L70.63,280.33L70.63,280.12L71.19,277.7L71.42,278.23L71.46,278.3L71.77,277L71.97,278.89L72.08,278.57L72.14,278.78L73.23,281.28L73.23,281.07L73.24,281.7L73.9,279.94L73.91,280.17L73.95,280.2L75.42,275.98L75.8,276.61L75.8,276.65L76.3,276.23L76.55,277.43L76.57,277.46L76.94,277.79L77.06,276.99L77.29,277.28L77.32,277.23L77.53,278.34L77.57,278.48L77.59,278.83L78.25,277.17L78.29,277.12L78.66,277.4L78.88,276.45L78.88,276.4L79.48,275.37L79.69,275.6L79.73,275.55L79.81,275.8L80.29,275.02L80.3,275.06L80.3,275.01L80.48,273.58L81.06,274.67L81.06,274.7L81.54,276.35L81.93,275.83L82.04,275.78L82.31,276.29L82.54,275.33L82.82,275.79L82.82,275.82L83.14,275.3L83.29,276.1L83.53,275.88L83.56,275.92L83.6,276.46L84.27,269.74L84.27,269.77L84.32,269.81L84.79,267.58L85.07,268.89L85.12,268.84L85.66,270.74L85.78,270.16L85.88,270.11L85.98,270.29L86.4,269.55L86.42,269.55L86.42,269.51L86.69,269.49L86.71,269L86.72,268.79L86.79,268.32L87.4,269.12L87.4,269.08L87.41,269.18L87.72,270.32L88.14,270.02L88.17,269.81L88.43,268.88L88.54,269.92L88.54,269.99L89.71,267.18L89.72,268L89.84,268.03L89.92,267.63L90.35,269.49L90.49,269.09L90.53,269.06L92.5,266.99L92.56,267.15L92.56,267.19L92.63,267L92.79,268.38L93.08,267.81L93.08,267.95L93.14,268.38L93.76,266.46L93.77,266.54L93.9,266.56L94.32,265.35L94.56,266.43L94.57,266.57L95.38,266.08L95.47,266.48L95.47,266.62L95.65,268.05L96.2,266.89L96.23,266.91L97,266.28L97.01,266.35L97.05,266.36L97.14,265.99L97.57,267.04L97.57,267.18L97.57,267.46L98.23,264.04L98.32,264.07L98.35,264.11L99.3,262.97L99.39,263.58L99.46,263.61L99.72,264.52L100.18,263.16L100.18,263.18L100.19,263.22L100.33,262.91L100.87,264.02L100.87,264.01L100.93,264.05L100.94,264.27L101.25,263.15L101.65,263.84L101.73,263.87L101.99,264.84L102.49,264.06L102.54,263.85L103.68,262.19L103.68,262.22L103.74,262.17L104.8,260.12L104.88,260.49L104.88,260.52L105.25,260.12L105.41,261.44L105.54,261.47L105.71,262.19L106.19,260.53L106.29,260.54L106.34,260.33L107.16,258.24L107.33,259.5L107.36,259.64L107.65,260.76L107.65,260.69L107.65,260.83L107.99,261.49L108.22,260.73L108.44,260.68L108.48,261.34L109.09,260L109.19,260.13L109.22,260.17L109.34,260.46L109.46,259.66L109.6,259.58L109.68,259.58L109.91,258.92L110.21,260.58L110.5,260.15L110.54,260.14L110.65,260.29L110.97,259.55L110.97,259.5L111.92,258.93L111.92,258.71L112.62,258.64L112.64,258.78L112.65,258.82L113.14,259.63L113.26,258.57L113.31,258.77L113.33,258.46L114.11,256.78L114.15,256.73L114.51,257.13L115.18,255.05L115.18,254.78L115.87,252.66L116.07,253.22L116.18,253.16L116.51,253.76L116.67,252.55L117.01,252.98L117.01,253.02L117.35,249.1L117.35,248.58L118.35,245.28L118.37,245.46L118.42,245.41L119.3,243.8L119.31,243.48L119.52,242.68L120.01,243.04L120.08,243.03L120.7,241.81L120.8,242.54L120.84,242.55L121.52,240.56L121.57,240.74L121.6,240.71L122.94,236.74L122.94,236.81L122.94,236.6L123.25,235.82L123.63,236.94L123.64,236.64L123.69,236.59L124,237.27L124.57,235.36L124.66,235.4L124.84,234.91L124.87,236.02L125.3,235.13L125.38,235.17L126.35,232.12L126.45,232.3L126.45,232.44L126.61,233.15L127.18,232.25L127.18,232.04L127.59,231.52L127.75,231.97L127.86,231.79L127.94,231.83L128.72,231.74L128.73,231.53L128.73,231.37L129.04,232.75L129.49,231.83L129.61,231.85L129.78,232.12L130.89,230.47L131.08,230.94L131.08,231.01L131.16,230.68L131.32,231.98L131.5,231.98L131.5,232.01L131.66,231.86L132.13,232.73L132.37,232.56L132.42,232.59L132.67,232.19L132.91,232.97L132.99,232.89L133.07,232.84L133.46,233.51L133.48,233.65L133.8,231.41L134.17,232.71L134.17,232.85L134.62,234.32L134.9,233.42L134.96,233.46L135.22,233.15L135.98,234.49L136.12,234.23L136.15,234.02L136.7,233.8L136.97,235.09L137.03,234.71L137.03,234.5L137.36,233.8L137.54,234.77L137.67,234.67L137.72,234.7L137.95,234.81L138.04,234.09L138.07,234.08L138.08,234.02L138.74,232.04L138.79,232.13L138.84,232.16L139.79,232.14L139.82,231.96L139.88,231.86L140.03,231.96L140.3,231.15L140.68,231.37L140.7,231.32L141.15,230.16L141.46,230.55L141.58,230.61L142.43,227.53L142.47,227.72L142.52,227.75L142.54,227.94L142.98,225.69L143.1,226.18L143.1,226.08L143.28,226.43L143.37,225.64L143.49,225.59L143.49,225.48L144.95,228.97L145.09,228.24L145.09,228.18L145.54,227.98L145.74,229.21L145.75,229.16L145.75,229.2L146.41,230.52L146.51,229.49L146.52,229.28L146.84,228.28L147.25,228.87L147.3,228.91L147.47,229.21L147.79,228.02L147.84,227.81L148.11,226.83L148.3,228.28L148.38,228.28L149.23,229.31L149.27,229.14L149.3,229.09L149.32,228.93L149.78,230.06L149.95,229.9L149.95,229.94L150.09,229.41L150.35,230.46L150.35,230.74L151.7,233.21L151.7,233.16L151.77,233.05L152.29,233.48L152.99,230.33L153.36,231.22L153.39,231.29L154.18,229.82L154.4,230.16L154.45,230.2L154.88,229.27L154.9,229.15L155.17,230.08L155.7,229.33L155.79,229.36L155.97,229.86L156.48,229.08L156.5,228.87L156.86,227.7L157.16,228.89L157.16,229.03L157.92,229.8L157.99,229.68L158.04,229.72L158.45,228.16L158.84,229.09L158.86,229.09L158.9,229.43L159.6,227.25L159.66,227.28L160.58,224.53L160.67,224.62L160.75,224.57L160.81,224.78L161.2,223.98L161.2,223.77L161.66,224.12L161.69,224.29L161.69,224.33L162.34,222.68L162.44,224.1L162.46,224.05L162.99,225.99L163.21,225.05L163.21,224.99L163.53,225.77L164.05,224.24L164.09,224.41L164.09,224.45L164.26,224.17L165.76,228.89L165.76,228.84L165.8,228.79L165.81,229.07L166.46,227.41L166.46,227.45L166.46,227.29L166.63,227.59L167.39,224.94L167.39,224.98L167.46,225.02L167.7,224.8L167.78,225.8L167.84,225.63L167.91,225.66L169.23,222.05L169.32,222.38L169.44,222.42L169.69,223.79L170.18,223.5L170.2,223.29L170.74,221.94L170.74,222.01L170.75,221.8L170.85,221.95L171.7,219.98L171.78,220.17L171.78,220.2L173.02,222.89L173.29,222.05L173.29,221.84L173.36,221.24L173.96,222.52L173.96,222.25L174.07,222.29L174.08,222.37L174.7,220.45L174.86,220.4L175.23,220.52L175.83,217.88L176,218.19L176.05,218.2L176.29,217.02L176.54,218.22L176.54,218.33L176.83,218.8L177.29,218.48L177.36,218.37L179.24,213.89L179.27,214.52L179.27,214.66L179.56,214.03L180.27,215.41L180.28,215.24L180.28,215.19L180.59,215.68L180.7,214.89L180.72,214.68L181.21,215.55L181.46,215.25L181.53,215.19L181.77,215.05L182.31,216.8L182.36,216.66L182.36,216.6L182.79,215.84L183.12,215.97L183.16,215.86L183.33,216.04L183.51,215.13L183.56,214.92L183.75,215.65L183.93,213.75L184,213.7L185.1,215.39L185.23,215.16L185.23,215.06L185.28,215.3L185.57,214.29L185.92,214.56L185.92,214.5L186.01,213.79L186.47,215.36L186.48,215.39L187.5,217.91L187.53,217.49L187.58,217.52L187.87,218.08L188.26,217.18L188.29,217.32L188.4,217.35L188.66,217.61L189,216.88L189,216.83L189.74,216.19L189.74,216.92L189.74,216.95L189.86,217.25L190.01,216.26L190.05,216.33L190.05,216.12L190.13,215.82L190.47,216.9L190.47,217.04L191.23,215.93L191.32,216.64L191.38,216.78L193.11,219.97L193.11,220.01L193.27,220.69L193.54,219.28L193.7,219.23L194.5,220.31L194.6,220L194.61,219.95L195.27,221.38L195.27,221.52L195.84,222.82L196.23,222.2L196.23,221.99L197.08,220.93L197.15,221.07L197.15,221.11L197.15,220.88L197.54,221.78L197.81,221.12L197.92,221.07L197.95,221.15L198.61,218.72L198.61,218.75L198.69,218.79L199.61,218.24L199.61,218.28L199.61,218.31L200.8,217.48L200.98,217.73L201.01,217.72L201.16,217.79L201.5,216.78L201.75,217.05L201.77,217.12L203.12,220.42L203.31,219.88L203.32,219.67L203.52,220.52L204.04,218.16L204.04,218.19L204.09,218.14L204.31,217.76L204.74,219.14L204.78,219.17L205.19,219.62L205.35,218.18L205.38,218.13L205.48,217.29L206.12,217.46L206.17,217.41L207.1,217.13L207.12,216.9L207.18,216.74L207.94,214.6L207.94,214.49L208.09,214.56L208.5,213.05L208.65,213.33L208.71,213.27L208.99,213.69L209.31,212.88L209.32,212.83L209.67,213.21L210.33,211.33L210.44,211.55L210.46,211.59L211.47,212.84L211.48,212.71L211.48,212.66L212.14,215.42L212.22,215.39L212.24,215.42L212.51,214.95L212.91,215.58L212.99,215.35L213.02,215.3L213.55,214.93L213.78,215.18L213.83,215.13L215.19,216.81L215.34,216.67L215.37,216.68L216,212.5L216.03,212.85L216.14,212.87L216.14,213.03L216.76,211.65L216.86,211.85L216.9,211.78L217.27,210.78L217.39,211.82L217.39,211.86L217.81,210.26L217.81,210.05L218.89,210.49L218.89,210.53L220.15,213.31L220.15,213.45L220.51,214.62L220.86,214.44L220.91,214.43L221.64,213.93L221.76,214.14L221.85,214.17L222.23,213.96L222.34,214.8L222.4,214.73L222.4,214.76L222.57,214.46L222.65,214.93L223.11,214.95L223.11,214.99L223.35,214.83L223.82,215.43L223.86,214.98L223.9,214.97L224.4,214.21L224.64,214.89L224.64,214.99L224.97,214.71L225.69,216.79L225.69,216.93L225.99,217.45L226.4,216.84L226.4,216.78L226.67,216.95L227.22,215.85L227.22,215.92L227.3,215.87L227.72,216.49L228.08,216.08L228.1,216.02L228.35,217.24L228.78,216.45L228.91,216.59L229.08,216.19L229.95,217.28L229.95,217.07L230.29,215.99L230.51,217.79L230.58,217.54L230.66,217.57L230.85,217.62L231.67,215.42L231.7,215.37L234.17,207.96L234.17,207.75L234.84,206.93L234.98,207.43L234.98,207.57L234.99,207.89L235.56,206.99L235.68,207.08L235.7,207.12L236.52,205.98L236.79,206.19L236.85,206.22L237.38,204.71L237.86,205.35L237.89,205.38L238.09,205.58L238.44,204.67L238.47,204.62L238.48,204.23L239.1,206.14L239.2,205.98L239.23,205.93L239.45,205.6L239.94,207.5L240.26,206.49L240.26,206.43L240.64,206.19L241.07,207.03L241.08,207.01L241.13,206.96L241.46,207.36L241.79,206.47L241.9,206.76L241.93,206.79L242.2,205.18L242.74,205.47L242.76,205.42L243.11,204.91L243.76,207.68L243.9,207.56L243.95,207.51L244.38,208.56L244.69,207.58L244.72,207.59L245.57,205.74L245.72,205.87L245.73,205.91L246.85,204.45L246.97,204.6L247.11,204.55L247.13,204.39L247.63,206.05L247.66,205.89L247.71,205.92L247.91,205.47L248.04,206.33L248.49,205.88L248.49,205.83L249.65,202.96L249.9,203.25L249.9,203.28L249.99,203.6L250.33,202.63L250.41,202.9L250.46,202.85L250.89,202.05L250.89,201.94L251.49,200.12L251.86,200.86L251.87,200.93L251.95,201.63L252.52,197.79L252.61,197.81L252.63,197.76L252.96,198.17L253.17,197.71L253.33,197.92L253.33,197.95L253.69,198.51L253.98,197.51L254.13,197.41L254.46,195.56L254.83,198.32L254.87,198.28L254.96,198.22L255.41,199.32L255.41,199.27L255.41,199.6L255.42,199.45L255.89,200.02L256,199.71L256.19,199.74L256.82,199.04L256.83,198.83L257.18,199.35L257.51,198.87L257.51,198.77L257.79,198.17L258.23,199.24L258.23,199.28L258.88,199.18L258.99,199.52L258.99,199.66L259.25,200.54L259.47,198.64L259.67,198.7L259.68,198.65L260.25,195.94L260.49,197.03L260.54,197.06L260.61,197.24L260.8,196.58L261.22,196.61L261.22,196.56L262.43,195.48L262.43,195.9L262.43,196.04L264.07,199.63L264.2,199.27L264.31,199.31L264.36,199.67L264.92,199.11L265.04,199.23L265.04,199.18L267.06,193.82L267.16,194.29L267.21,194.32L267.46,193.86L267.47,194.5L267.48,194.64L267.85,193.18L268.15,194.39L268.18,194.46L268.73,193.8L268.73,193.84L268.77,193.62L269.49,191.65L269.51,192L269.61,192L269.98,193.13L270.33,191.95L270.34,191.74L271.07,188.44L271.12,188.46L271.73,185.94L272.01,186.91L272.08,186.94L272.39,186.67L272.7,188.24L272.83,188.11L272.85,188.14L273.95,190.08L273.98,189.82L273.98,189.61L273.98,189.4L274.28,190.82L274.72,189.95L274.74,189.9L274.82,189.7L275.15,191.19L275.42,190.68L275.61,190.63L276.11,191.23L276.27,189.68L276.27,189.69L276.3,189.21L277.07,183.82L277.26,183.97L277.32,183.91L277.73,183.91L277.81,184.38L277.81,184.41L278.65,185.91L278.86,185.34L278.86,185.13L279.93,183.09L279.93,183.23L279.96,183.27L280.6,182.46L280.74,183.05L280.74,183.12L280.82,183.53L280.9,182.34L281.37,182.72L281.37,182.56L281.78,181.33L282.11,182.06L282.15,182.2L282.31,181.79L282.76,182.75L282.76,182.79L283.19,182.57L283.47,183.63L283.52,183.32L283.59,183.26L284.5,186.05L284.61,185.39L284.67,185.34L285.4,182.43L285.44,182.37L286.14,181.21L286.22,181.54L286.25,181.61L286.68,182.05L286.91,181.41L287,181.36L287.41,180.11L287.79,180.75L287.89,180.72L288.05,180.48L288.66,181.74L288.67,181.67L288.71,181.71L289.71,183.34L289.75,183.28L289.79,183.23L289.87,182.81L290.25,184.31L290.28,184.45L291.12,183.87L291.18,184.22L291.18,184.26L292.07,185.79L292.42,185.44L292.43,185.39L293.1,186.83L293.2,186.84L293.59,187.78L293.94,186.65L294.01,186.66L294.65,184.67L294.74,185.36L294.8,185.4L295.25,187.07L295.66,186.48L295.73,186.48L295.83,186.78L296.24,185.51L296.24,185.46L297.33,185.71L297.33,185.61L297.33,185.45L298.05,186.66L298.09,186.61L298.4,187.06L298.56,186.43L298.59,186.33L298.88,186.29L299.22,186.6L299.34,186.35L299.35,186.3L299.97,185.83L299.97,186.46L299.97,186.6L299.99,186.85L300.64,185.9L300.65,185.96L300.74,186L301.25,183.76L301.66,184.42L301.74,184.38L302.47,185.28L302.51,184.85L302.51,184.74L303.02,184.25L303.14,185.16L303.32,184.96L303.32,184.9L305.6,182.01L305.62,182.06L305.66,182.09L305.96,181.91L306.42,182.46L306.43,182.23L306.43,182.17L306.92,185.21L307.26,183.62L307.26,183.56L307.36,183.67L308.07,181.69L308.35,182.66L308.41,182.73L308.58,182.94L308.93,182.15L308.93,182.22L308.97,182.12L309.85,178.1L309.85,178.14L309.87,178.09L310.3,180.88L310.61,180.46L310.63,180.4L310.93,180.72L311.27,180.03L311.27,179.98L311.91,178.21L312.11,178.34L312.12,178.37L313.23,179.98L313.52,179.33L313.52,179.28L313.59,179.81L313.99,178.73L314.06,178.85L314.19,178.89L314.53,178.68L314.82,180.75L314.83,180.82L314.96,181.19L315.14,179.41L315.22,179.36L315.78,178.22L316.15,178.53L316.15,178.67L316.87,180.72L316.88,180.66L316.91,180.7L316.98,181.28L317.15,180.36L317.44,180.36L317.46,180.3L317.51,180.08L318.02,181.69L318.03,181.6L318.08,181.6L318.82,183.49L319.06,183.28L319.14,183.07L319.32,182.8L319.55,183.34L319.77,182.75L319.77,182.54L320.52,180.76L320.69,181.16L320.73,181.19L321.33,182.92L321.57,182.08L321.58,181.87L321.79,180.99L322.32,182.84L322.33,182.68L322.34,182.68L322.52,182.82L323.02,182.31L323.18,182.63L323.2,182.66L324.24,183.36L324.27,183L324.28,182.79L324.3,182.11L324.58,183.15L325.02,182.85L325.04,182.89L325.97,182.04L325.97,182.11L325.99,182.14L327.75,181.8L327.75,181.69L327.76,181.48L328.24,180.22L328.48,180.86L328.52,180.65L329.08,179.4L329.19,180.24L329.19,180.31L329.34,180.02L329.78,180.69L329.78,180.83L329.82,181.07L330.25,180.12L330.37,180.3L330.43,180.33L330.7,179.13L331.09,179.96L331.14,180.1L332.19,182.5L332.2,182.41L332.2,182.36L332.39,181.77L332.86,182.38L332.89,182.41L333.3,183.12L333.7,182.76L333.72,182.7L334.12,180.67L334.12,180.62L334.13,181.22L334.81,179.86L334.87,180.06L334.89,179.99L335.01,180.83L335.6,179.25L335.6,179.32L335.68,179.32L336.22,176.6L336.43,176.75L336.46,176.7L337.4,175.71L337.4,175.99L337.4,176.13L337.93,175.35L338.13,175.86L338.21,175.81L338.73,176.6L338.75,176.67L339.01,177.62L339.47,177.12L339.53,177.15L340.84,176.89L340.84,177.03L340.84,177.17L341,177.36L341.69,175.08L341.69,175.12L341.73,174.63L342.25,173.17L342.26,172.96L342.98,171.13L342.98,171.15L343.05,171.19L343.37,171.6L343.75,170.83L343.75,170.83L343.79,170.77L344.51,170.18L344.61,170.3L344.67,170.33L344.99,170.85L345.29,169.91L345.29,169.98L345.35,169.98L345.73,168.38L346.05,168.68L346.11,168.71L346.87,165.11L346.92,165.38L347.01,165.41L347.3,165.45L347.85,164.46L347.89,164.6L348.67,163.59L348.77,163.84L348.77,164.05L348.77,164.26L349.46,163.61L349.51,163.77L349.54,163.88L350.01,164.39L350.19,163.79L350.21,163.74L350.29,163.56L350.45,164.61L350.61,164.56L350.61,164.84L350.74,164.77L351.22,165.58L351.42,165.21L351.42,165.16L351.84,165.02L351.88,165.57L352.15,165.21L352.15,165.49L352.19,165.91L352.68,164.85L352.84,165.44L352.86,165.28L353.12,164.79L353.21,165.47L353.21,165.75L353.9,166.85L353.95,166.59L354,166.59L354.1,166.76L354.2,166.23L354.57,166.15L354.57,166.09L354.78,166.59L355.17,165.06L355.43,165.9L355.45,165.94L355.57,166.76L356.08,165.01L356.12,165.11L356.17,164.9L356.91,162L356.91,162.04L356.96,161.99L357.12,162.04L357.69,159.08L358.06,159.5L358.07,159.54L358.11,159.8L358.47,158.4L358.47,158.19L359.13,154.79L359.13,154.83L359.23,154.77L360.45,153.04L360.48,153.19L360.48,153.26L360.67,152.42L360.67,152.26L361.39,150.13L361.4,150.08L361.82,148.89L361.82,148.68L362.96,145.03L362.96,145.07L363.03,145.1L363.43,145.54L363.95,143.72L364.02,144.23L364.07,144.42L364.29,144.88L364.47,144.18L364.81,144.22L364.81,144.12L365.31,143.25L365.56,143.8L365.59,143.84L366.04,144.42L367.18,139.3L367.75,139.82L367.75,139.85L367.97,140.37L368.33,138.83L368.47,138.89L368.54,138.93L369.19,138.64L369.2,138.43L370.06,139.04L370.12,138.86L370.18,138.81L370.99,138.31L371.02,138.42L371.06,138.56L371.29,138.98L371.62,138.39L371.73,138.39L371.81,138.37L372.29,138.35L372.42,137.97L372.43,137.92L372.83,137.7L372.83,138.47L372.88,138.48L372.88,138.51L373.14,139.35L373.14,139.38L373.37,140.03L373.64,139.21L373.64,139.16L374.25,139.93L374.25,140L374.51,140.36L374.76,139.79L374.87,139.58L375.2,140.48L375.41,139.3L375.41,139.08L375.82,136.69L376.15,137.4L376.17,137.35L376.92,136.87L376.92,137.15L377.02,137.22L377.86,136.1L377.91,136.17L377.98,136.12L378.02,136.73L378.51,134.42L378.68,134.58L378.72,134.73L379.42,133.61L379.5,133.64L379.59,133.27L379.86,134.71L380.21,134.3L380.3,134.25L380.52,135.17L380.52,135.21L380.87,135.93L381.28,135.27L381.36,135.23L381.76,133.44L382.05,133.95L382.24,133.95L382.63,134.3L382.79,133.16L382.99,133.84L383.01,133.93L383.09,134.01L383.75,133.19L383.88,133.33L383.93,133.36L383.97,133.82L384.66,132.68L384.66,132.79L384.71,132.82L385.01,132.44L385.28,133.25L385.42,133.07L385.44,133.1L385.56,133.28L385.83,132.49L385.85,132.52L385.85,132.31L386.72,127.43L386.77,127.54L386.84,127.57L387.37,125.78L387.59,126.11L387.62,126.14L388.11,127.08L388.25,126.34L388.33,126.24L389.01,124.19L389.02,124.09L389.28,124.29L389.55,122.92L390,123.28L390.09,123.22L390.35,123.27L390.63,122.56L390.85,122.86L390.86,122.91L391.29,121.57L391.72,122.3L391.74,122.34L391.88,122.59L392.17,120.92L392.25,121.04L392.3,120.99L393.01,118.16L393.05,118.18L393.11,118.21L393.94,117.99L394.03,118.21L394.03,118.28L395.56,121.32L395.64,120.53L395.67,120.47L395.97,119.23L396.41,119.72L396.44,119.66L396.62,118.57L397.19,118.92L397.33,118.95L397.55,119.23L397.91,118.75L397.95,119.27L397.95,119.3L398.21,119.87L398.35,119L398.35,118.79L398.4,118.31L398.88,119.18L399.1,118.92L399.11,118.93L399.18,118.73L399.4,120.29L399.41,120.28L399.46,120.32L399.5,120.09L399.8,121.99L399.8,121.94L399.95,121.93L400.06,122.44L400.34,116.91L400.41,117.05L400.48,117.85L400.97,116.45L400.97,116.49L400.98,116.28L401.16,117.36L401.55,116.13L401.55,116.2L401.62,116.24L402.11,116.9L402.18,116.21L402.2,116L403.03,115.24L403.07,115.33L403.15,115.47L403.26,115.7L403.48,114.52L403.52,114.54L403.57,114.49L404.23,112.97L404.34,113.01L405.51,110.34L405.52,110.42L405.53,110.42L405.76,110.79L405.98,110.12L405.98,110.07L406.98,108.14L407.04,108.27L407.04,108.31L407.95,107.26L407.98,107.79L407.98,107.93L408.09,108.55L408.54,107.03L408.54,106.97L409.31,105.72L409.47,106.4L409.47,106.54L409.73,106.18L410.13,107.31L410.19,106.57L410.25,106.64L410.49,106.12L410.49,107L410.49,107.25L410.49,107.74L411.13,106.47L411.24,106.59L411.25,106.62L412.73,104.44L412.9,104.67L412.9,104.81L413.22,105.7L413.61,104.5L413.61,104.29L415.71,99.4L415.76,99.57L415.78,99.61L415.86,99.34L416.13,100.97L416.3,100.55L416.3,100.58L417.68,99.87L417.8,100.21L417.8,100.35L418.12,101.22L418.39,99.28L418.44,99.16L419.09,98.16L419.13,98.25L419.25,98.19L419.96,96.84L420.09,97.1L420.1,97.09L420.4,97.18L420.43,97.76L420.43,97.86L420.43,98.07L420.96,97.2L421.1,97.55L421.19,97.58L421.62,97.92L421.83,96.5L422.2,96.9L422.26,96.93L422.45,97.07L422.67,96.38L422.72,96.39L422.73,96.33L423.42,94.55L423.59,95.99L423.59,96.13L424.03,96.02L424.31,96.93L424.36,97.07L425.06,97.92L425.16,97.13L425.17,97.08L425.63,96.74L425.63,97.44L425.63,97.58L426.02,97.4L426.34,97.92L426.34,98.03L426.57,99.04L427.02,97.94L427.04,97.92L427.36,97.48L427.83,97.86L427.83,97.65L427.84,97.6L427.84,97.34L428.02,98.89L428.58,97.62L428.61,97.56L429.5,95.69L429.5,95.69L429.57,95.64L429.67,95.97L429.99,92L430.31,92.73L430.37,92.67L430.58,92.48L431.33,93.46L431.34,93.44L431.34,93.39L431.41,93.94L431.94,91.66L431.94,91.69L431.99,91.59L432.05,91.45L432.32,92.52L432.35,92.5L432.41,92.62L432.59,93.45L432.81,91.36L432.86,91.57L432.88,91.36L432.99,92.21L433.61,91.67L433.64,91.74L433.76,91.94L434.11,89.46L434.16,89.41L434.52,87.66L434.91,88.68L434.97,88.82L435.82,86.49L435.89,86.28L436.63,82.84L436.66,82.84L436.71,83.2L437.16,81.9L437.16,81.8L437.28,80.78L437.81,82.52L437.81,82.56L438.98,77.8L439.32,77.93L439.39,77.88L439.94,77.29L440.14,77.7L440.16,77.74L441.28,75.11L441.3,74.64L442.24,70.4L442.33,70.41L442.42,70.45L442.81,71.16L443.72,67.34L443.82,67.46L443.84,67.49L444.59,64.47L444.61,64.5L445.51,62.52L445.59,62.66L445.66,62.61L445.68,62.88L446.26,61.59L446.32,61.54L447.02,59.58L447.11,59.84L447.12,59.98L447.2,60.11L447.32,59.06L447.34,59.05L447.34,58.84L447.62,59.22L450.1,55.1L450.16,55.33L450.3,55.32L451.13,52.77L451.15,52.94L451.16,52.93L451.46,54.47L451.47,54.61L451.53,54.8L451.6,53L451.6,53L451.6,52.79L452.49,48.31L452.55,48.53L452.56,48.6L452.58,48.91L453.3,47.36L453.31,47.46L453.34,47.5L453.46,47.4L453.64,47.96L453.72,47.95L453.73,48.23L454.37,48.02L454.42,47.68L454.42,47.63L454.94,48.29L455.17,47.38L455.17,47.59L455.21,47.73L455.66,48.66L455.99,48.37L455.99,48.26L456.35,48.35L456.4,48.12L456.4,48.02L456.99,49.15L457.34,48.81L457.36,48.76L458.14,47.74L458.16,47.87L458.17,48.01L458.49,47.42L458.7,48.85L458.9,48.47L458.93,48.42L459.22,47.9L459.51,49.05L459.61,48.39L459.69,48.46L460,48.52L460.41,44.9L460.51,44.85L460.62,44.96L460.62,44.54L460.96,44.32L460.99,44.26L461.74,42.82L461.78,42.77L461.81,42.94L462.25,41.28L462.28,41.23L464.52,37.47L464.65,37.6L464.65,37.64L465.03,38.05L465.36,37.44L465.38,37.56L465.44,37.39L466.21,36.59L466.26,36.7L466.29,36.65L466.63,35.5L467,35.67L467.08,35.61L468.04,32.89L468.07,32.92L468.1,32.86L468.16,32.89L469.32,30.16L469.37,30.37L469.47,30.51L470.2,34.31L470.27,34.26L470.71,34.6L470.77,34.04L470.9,34L470.96,34.03L471.12,34.55L471.67,33.02L471.76,33.05L471.9,32.85L472.17,33.84L472.44,33.31L472.48,33.34L472.76,33.42L473.02,32.39L473.25,32.92L473.28,32.96L473.38,32.59L473.96,33.53L474.04,33.36L474.07,33.37L475.06,30.23L475.36,30.51L475.36,30.58L475.83,29.79L475.83,29.82L475.85,29.61L476.14,28.81L476.23,29.94L476.23,29.88L476.24,30.23L476.36,29.4L476.38,28.88L477.92,21.14L477.92,21.21L478.85,25.74L478.95,25.47L478.96,25.5L479.3,26.86L479.54,25.55L479.55,25.34L480.41,22.98L480.49,23.01L480.63,22.53L481.07,23.65L481.26,23.11L481.26,22.9L482.04,20.05L482.15,20.39L482.17,20.42L482.48,20.11L482.93,21.4L482.98,20.99L483.17,21.03L484.26,18.37L484.46,19.22L484.46,19.36L484.64,19.07L485.03,19.86L485.1,19.59L485.16,19.63L485.58,19.83L485.87,19.41L485.87,19.51L485.9,19.46L485.9,19.87L486.57,19.24L486.65,19.3L486.66,19.25L487.93,16L487.93,16.61L487.99,16.65L488.78,17.79L488.86,17.14L488.9,17.17L489.51,16.75L489.76,18.48L489.88,18.02L489.88,17.97L491.21,16.07L491.26,16.71L491.26,16.85L491.64,17.31L491.77,16.05L492,16.84L492.03,16.87L492.14,17.46L492.78,17.06L492.83,17.09L492.86,17.43L493.61,16.18L493.61,16.22L493.65,16.36L493.83,16.18L494,16.57" style="vector-effect: non-scaling-stroke; fill: none; stroke: rgb(1, 102, 30); stroke-opacity: 1; stroke-width: 2px; opacity: 1;"/></g><g class="points"/><g class="text"/></g></g></g><g class="overplot"/><path class="xlines-above crisp" d="M0,0" style="fill: none;"/><path class="ylines-above crisp" d="M0,0" style="fill: none;"/><g class="overlines-above"/><g class="xaxislayer-above"><g class="xtick"><text text-anchor="middle" x="0" y="436" transform="translate(212.18,0)" style="font-family: 'Times New Roman'; font-size: 15px; fill: rgb(13, 13, 13); fill-opacity: 1; white-space: pre; opacity: 1;">1.61252×10​<tspan style="font-size:70%" dy="-0.6em">18</tspan><tspan dy="0.42em">​</tspan></text></g><g class="xtick"><text text-anchor="middle" x="0" y="436" style="font-family: 'Times New Roman'; font-size: 15px; fill: rgb(13, 13, 13); fill-opacity: 1; white-space: pre; opacity: 1;" transform="translate(310.21000000000004,0)">1.612525×10​<tspan style="font-size:70%" dy="-0.6em">18</tspan><tspan dy="0.42em">​</tspan></text></g><g class="xtick"><text text-anchor="middle" x="0" y="436" style="font-family: 'Times New Roman'; font-size: 15px; fill: rgb(13, 13, 13); fill-opacity: 1; white-space: pre; opacity: 1;" transform="translate(408.25,0)">1.61253×10​<tspan style="font-size:70%" dy="-0.6em">18</tspan><tspan dy="0.42em">​</tspan></text></g><g class="xtick"><text text-anchor="middle" x="0" y="436" style="font-family: 'Times New Roman'; font-size: 15px; fill: rgb(13, 13, 13); fill-opacity: 1; white-space: pre; opacity: 1;" transform="translate(506.29,0)">1.612535×10​<tspan style="font-size:70%" dy="-0.6em">18</tspan><tspan dy="0.42em">​</tspan></text></g><g class="xtick"><text text-anchor="middle" x="0" y="436" style="font-family: 'Times New Roman'; font-size: 15px; fill: rgb(13, 13, 13); fill-opacity: 1; white-space: pre; opacity: 1;" transform="translate(604.3199999999999,0)">1.61254×10​<tspan style="font-size:70%" dy="-0.6em">18</tspan><tspan dy="0.42em">​</tspan></text></g></g><g class="yaxislayer-above"><g class="ytick"><text text-anchor="end" x="125" y="12.25" transform="translate(0,403.63)" style="font-family: 'Times New Roman'; font-size: 35px; fill: rgb(13, 13, 13); fill-opacity: 1; white-space: pre; opacity: 1;">0</text></g><g class="ytick"><text text-anchor="end" x="125" y="12.25" style="font-family: 'Times New Roman'; font-size: 35px; fill: rgb(13, 13, 13); fill-opacity: 1; white-space: pre; opacity: 1;" transform="translate(0,315.97)">500</text></g><g class="ytick"><text text-anchor="end" x="125" y="12.25" style="font-family: 'Times New Roman'; font-size: 35px; fill: rgb(13, 13, 13); fill-opacity: 1; white-space: pre; opacity: 1;" transform="translate(0,228.32)">1000</text></g><g class="ytick"><text text-anchor="end" x="125" y="12.25" style="font-family: 'Times New Roman'; font-size: 35px; fill: rgb(13, 13, 13); fill-opacity: 1; white-space: pre; opacity: 1;" transform="translate(0,140.67000000000002)">1500</text></g></g><g class="overaxes-above"/></g></g><g class="polarlayer"/><g class="smithlayer"/><g class="ternarylayer"/><g class="geolayer"/><g class="funnelarealayer"/><g class="pielayer"/><g class="iciclelayer"/><g class="treemaplayer"/><g class="sunburstlayer"/><g class="glimages"/><defs id="topdefs-5fc63d"><g class="clips"/></defs><g class="layer-above"><g class="imagelayer"/><g class="shapelayer"/></g><g class="infolayer"><g class="g-gtitle"/><g class="g-xtitle"><text class="xtitle" x="373" y="463.8" text-anchor="middle" style="font-family: 'Open Sans', verdana, arial, sans-serif; font-size: 14px; fill: rgb(42, 63, 95); opacity: 1; font-weight: normal; white-space: pre;">Time Steps (ns)</text></g><g class="g-ytitle" transform="translate(24,0)"><text class="ytitle" transform="rotate(-90,12,260)" x="12" y="260" text-anchor="middle" style="font-family: 'Times New Roman'; font-size: 40px; fill: rgb(13, 13, 13); opacity: 1; font-weight: normal; white-space: pre;">Turnaround (in $)</text></g></g></svg>