<svg class="main-svg" xmlns="http://www.w3.org/2000/svg" xmlns:xlink="http://www.w3.org/1999/xlink" width="700" height="500" style="" viewBox="0 0 700 500"><rect x="0" y="0" width="700" height="500" style="fill: rgb(255, 255, 255); fill-opacity: 1;"/><defs id="defs-98bca1"><g class="clips"><clipPath id="clip98bca1xyplot" class="plotclip"><rect width="511" height="320"/></clipPath><clipPath class="axesclip" id="clip98bca1x"><rect x="109" y="0" width="511" height="500"/></clipPath><clipPath class="axesclip" id="clip98bca1y"><rect x="0" y="100" width="700" height="320"/></clipPath><clipPath class="axesclip" id="clip98bca1xy"><rect x="109" y="100" width="511" height="320"/></clipPath></g><g class="gradients"/><g class="patterns"/></defs><g class="bglayer"><rect class="bg" x="109" y="100" width="511" height="320" style="fill: rgb(229, 236, 246); fill-opacity: 1; stroke-width: 0;"/></g><g class="layer-below"><g class="imagelayer"/><g class="shapelayer"/></g><g class="cartesianlayer"><g class="subplot xy"><g class="layer-subplot"><g class="shapelayer"/><g class="imagelayer"/></g><g class="minor-gridlayer"><g class="x"/><g class="y"/></g><g class="gridlayer"><g class="x"><path class="xgrid crisp" transform="translate(198.19,0)" d="M0,100v320" style="stroke: rgb(255, 255, 255); stroke-opacity: 1; stroke-width: 1px;"/><path class="xgrid crisp" transform="translate(299.59000000000003,0)" d="M0,100v320" style="stroke: rgb(255, 255, 255); stroke-opacity: 1; stroke-width: 1px;"/><path class="xgrid crisp" transform="translate(401,0)" d="M0,100v320" style="stroke: rgb(255, 255, 255); stroke-opacity: 1; stroke-width: 1px;"/><path class="xgrid crisp" transform="translate(502.4,0)" d="M0,100v320" style="stroke: rgb(255, 255, 255); stroke-opacity: 1; stroke-width: 1px;"/><path class="xgrid crisp" transform="translate(603.8,0)" d="M0,100v320" style="stroke: rgb(255, 255, 255); stroke-opacity: 1; stroke-width: 1px;"/></g><g class="y"><path class="ygrid crisp" transform="translate(0,320.65)" d="M109,0h511" style="stroke: rgb(255, 255, 255); stroke-opacity: 1; stroke-width: 1px;"/><path class="ygrid crisp" transform="translate(0,237.31)" d="M109,0h511" style="stroke: rgb(255, 255, 255); stroke-opacity: 1; stroke-width: 1px;"/><path class="ygrid crisp" transform="translate(0,153.96)" d="M109,0h511" style="stroke: rgb(255, 255, 255); stroke-opacity: 1; stroke-width: 1px;"/></g></g><g class="zerolinelayer"><path class="yzl zl crisp" transform="translate(0,404)" d="M109,0h511" style="stroke: rgb(255, 255, 255); stroke-opacity: 1; stroke-width: 2px;"/></g><path class="xlines-below"/><path class="ylines-below"/><g class="overlines-below"/><g class="xaxislayer-below"/><g class="yaxislayer-below"/><g class="overaxes-below"/><g class="plot" transform="translate(109,100)" clip-path="url(#clip98bca1xyplot)"><g class="scatterlayer mlayer"><g class="trace scatter trace6a5559" style="stroke-miterlimit: 2; opacity: 1;"><g class="fills"/><g class="errorbars"/><g class="lines"><path class="js-line" d="M0,304L1.28,303.75L1.28,304L1.34,304L1.74,302.96L2.08,304L2.2,303.99L2.68,302.97L3.01,303.93L3.01,304L3.76,302.04L3.81,303.92L3.85,304L4.27,301.29L4.52,304L4.59,303.99L5.19,303.12L5.34,304L5.46,304L5.7,304L5.7,302.7L6.31,301.66L6.5,304L6.54,303.93L6.56,303.76L6.56,304L6.62,299.16L7.3,304L7.36,303.96L7.55,304L7.85,303.08L8.06,304L8.17,304L8.3,302.7L8.54,303.93L8.58,303.97L9.07,303.07L9.11,303.97L9.11,304L9.36,302.75L9.64,304L9.74,304L10.22,303.51L10.39,303.96L10.5,304L10.93,304L10.93,302.24L11.69,304L11.72,303.74L11.94,302.78L12.18,304L12.19,303.87L12.3,301.67L12.85,299.97L13.03,304L13.06,303.83L13.06,304L13.33,303.64L13.8,304L13.89,303.51L13.89,304L14.48,301.36L14.52,303.96L14.67,303.88L14.77,304L15.24,303.55L15.31,304L15.35,296.6L15.35,304L16.05,303.85L16.11,304L16.3,302.98L16.81,303.84L16.82,304L17.35,301.62L17.51,304L17.59,304L17.93,303.03L18.22,303.97L18.41,304L19.04,299.67L19.16,303.98L19.26,304L19.83,302.64L20,303.7L20.07,304L20.58,301.23L20.8,301.8L20.83,303.98L20.92,304L20.93,303.49L21.58,303.86L21.63,304L22.93,304L22.93,303.15L23.64,304L23.64,302.61L23.66,303.96L23.75,304L24.44,302.25L24.48,303.8L24.52,304L24.55,302.04L25.12,303.95L25.3,304L25.34,303.82L25.39,303.96L25.47,300.11L26.24,304L26.24,303.97L26.31,304L27.12,303.12L27.18,303.95L27.24,303.98L27.25,304L27.42,302.34L27.98,303.98L28,303.99L28.61,303.66L28.83,303.97L28.83,302.47L29.71,304L29.81,303.9L30.2,304L30.22,303.22L30.22,304L30.95,304L30.98,304L31.48,303.41L31.7,304L31.77,303.91L31.94,304L31.94,303.88L31.99,301.83L32.04,304L32.04,299.76L32.72,303.83L32.76,303.94L33.16,304L33.19,303.45L33.26,303.12L33.29,301.15L33.96,304L33.96,303.96L34.09,303.79L34.09,304L34.56,297.42L34.73,303.97L34.88,303.55L34.88,304L35.59,302.79L35.6,304L35.64,304L35.65,302.86L36.37,303.87L36.41,304L36.81,301.79L37.11,303.99L37.17,303.89L37.28,304L37.45,302.96L37.9,304L37.92,304L38.41,303.52L38.43,301L38.43,304L39.15,304L39.2,304L39.42,301.96L39.92,303.67L39.96,304L40.23,301.3L40.67,304L40.74,303.85L40.95,302.22L41.34,304L41.34,304L41.34,303.26L41.4,304L42.06,304L42.13,303.91L42.96,302.56L42.96,304L43.35,303.47L43.59,303.96L43.6,301.95L44.44,304L44.47,303.94L45.08,304L45.08,303.4L45.16,298.1L45.16,304L45.85,303.99L45.94,304L46.54,303.3L46.69,303.96L46.72,304L46.81,303.08L47.44,304L47.49,304L47.74,301.89L47.78,303.99L47.78,304L48.91,303.91L48.92,304L49,303.01L49.63,303.98L49.75,304L50.04,302.44L50.17,303.83L50.17,304L50.72,302.94L50.92,303.55L50.93,303.71L50.93,304L51.67,303.06L51.67,304L51.69,304L52.58,303.18L52.62,303.96L52.64,304L52.73,302.07L53.37,303.7L53.37,304L53.49,303.38L54.08,303.92L54.15,304L54.72,303.29L54.83,303.97L54.9,303.99L55.21,302.63L55.65,303.56L55.66,304L55.96,303.48L55.96,304L55.96,298.44L55.96,298.42L55.97,304L56.7,303.18L56.74,304L57.42,303.19L57.42,303.75L57.5,304L57.83,303.04L58.16,304L58.21,304L58.77,303.2L58.96,303.69L58.97,303.95L59.09,304L59.33,302.72L59.7,304L59.77,304L60.15,302.74L60.55,303.85L60.55,304L61.11,302.73L61.29,304L61.31,304L61.73,301.41L62.06,304L62.08,304L62.5,301.58L62.83,303.88L62.91,303.99L63.52,303.45L63.79,303.65L63.83,303.97L65.01,304L65.01,304L65.02,303.24L65.29,301.83L65.78,304L65.78,303.91L65.83,304L66.16,303.34L66.58,304L66.59,304L66.84,302.83L67.19,303.86L67.23,304L67.68,302.64L67.82,304L67.84,304L68.37,302.43L68.57,303.87L68.62,303.97L68.64,304L69.19,298.45L69.35,303.82L69.38,303.98L69.39,304L69.93,297.78L70.11,304L70.14,304L71.1,304L71.15,302.97L71.15,304L71.9,303.97L71.98,302.78L71.98,304L72.57,301.04L72.72,304L72.77,304L73.19,302.25L73.46,304L73.56,303.88L73.97,303.4L74.27,303.98L74.27,303.17L74.27,304L74.57,302.69L75.02,304L75.03,303.98L75.13,304L75.18,303.28L75.78,304L75.79,304L75.93,301.57L76.57,302.03L76.57,303.62L76.58,294.18L76.58,304L77.32,303.4L77.36,304L77.61,304L77.61,303.86L77.72,302.96L77.72,304L77.99,302.65L78.45,303.88L78.49,303.91L78.6,304L79,303.04L79.23,303.9L79.27,303.97L79.44,302.97L79.55,304L79.55,301.27L79.57,298.07L80.3,304L80.32,303.97L80.52,304L80.52,297.29L80.52,304L81.24,303.96L81.35,304L81.83,303.31L82.04,304L82.15,304L82.27,301.39L82.88,304L82.93,303.95L83.08,303.94L83.12,302.23L83.12,304L83.67,299.95L83.87,304L83.91,303.96L84.35,303.84L84.35,304L84.35,302.7L84.35,304L85.06,303.95L85.11,304L85.78,303.45L85.83,303.98L85.88,302.62L86.12,301.8L86.62,304L86.64,303.92L86.89,304L86.91,297.33L86.91,304L87.63,304L87.68,303.95L88.21,304L88.21,302.76L88.25,304L88.83,302.09L88.95,303.99L88.99,303.93L89.2,303.87L89.28,300.95L89.28,304L89.54,298.19L89.98,304L90.04,304L90.36,303.62L90.43,295.96L90.46,304L91.17,273.81L91.18,303.8L91.21,304L91.33,303.02L91.35,304L91.35,272.8L92.1,304L92.14,304L92.62,301.96L92.89,303.98L92.92,304L93.43,303.14L93.64,303.98L93.66,304L94.14,303.19L94.43,303.93L94.43,304L94.99,302.79L95.18,304L95.3,303.92L95.54,303.02L95.76,304L95.79,300.6L95.79,304L96.52,304L96.58,304L96.8,302.66L97.1,304L97.17,304L97.71,302.84L97.86,303.95L97.93,304L98.63,303.1L98.7,304L98.77,304L99.48,302.25L99.52,304L99.63,303.99L99.83,302.7L100.3,304L100.32,304L100.67,303.81L101.06,304L101.12,304L101.72,304L101.72,302.9L101.72,304L102.47,304L102.48,304L103.01,301.51L103.23,303.93L103.24,303.94L103.37,304L103.65,302.61L103.98,304L104.01,304L104.73,303.31L104.87,304L104.87,299.57L104.94,299.44L105.64,304L105.65,304L106.39,302.68L106.39,303.36L106.43,304L106.74,302.97L107.13,304L107.22,304L107.58,301.45L107.65,303.23L107.67,300.7L107.67,304L108.38,303.99L108.44,304L108.52,303.07L109.16,303.51L109.23,303.82L109.23,304L109.54,302.73L109.97,303.05L110.03,304L110.67,303.33L110.82,304L110.87,304L111.18,303.58L111.19,304L111.19,302.88L111.24,302.59L111.91,304L111.91,303.92L112.02,303.8L112.42,303.34L112.71,304L112.74,303.94L112.82,302.83L113.35,300.41L113.58,304L113.58,303.96L113.62,304L113.86,303.17L114.37,304L114.4,304L114.42,298.21L115.11,303.97L115.16,304L115.37,301.69L115.91,304L115.95,304L116.23,303.01L116.59,303.52L116.59,304L116.78,303.04L117.34,303.93L117.36,303.99L117.61,303.78L117.7,304L117.73,302.97L117.78,304L117.78,301.52L118.46,303.83L118.49,303.95L118.55,304L118.7,303.58L119.22,303.75L119.25,304L119.9,302.61L119.97,304L120.02,303.89L120.21,303.64L120.86,304L120.89,298.85L120.89,304L121.64,304L121.68,304L121.9,302.68L122.19,303.89L122.19,304L122.54,298.27L122.92,303.89L122.99,303.99L123.04,304L123.36,302.02L123.51,303.86L123.54,303.98L123.57,294.4L123.57,304L123.66,304L123.69,304L123.91,302.71L124.43,303.85L124.48,304L125.2,303.31L125.27,304L125.7,302.67L125.9,304L126.01,304L126.13,303.07L126.76,303.93L126.77,304L127.08,299.25L127.48,304L127.55,304L127.92,304L127.92,303.84L127.97,303.18L127.97,304L128.17,298.28L128.66,304L128.74,304L128.9,303.78L129.05,304L129.05,297.54L129.83,304L129.92,303.92L130.81,304L130.82,303.11L130.82,304L131.43,301.44L131.53,303.99L131.61,303.89L131.61,298.8L131.61,304L132.35,304L132.38,304L132.74,302.95L132.92,304L132.99,304L133.21,301.43L133.7,303.99L133.81,303.91L133.88,304L134.61,303.77L134.61,304L135.23,300.68L135.29,304L135.41,304L136.11,303.58L136.19,303.93L136.4,304L136.4,302.64L137.09,304L137.11,303.89L137.21,304L137.74,279.02L137.96,303.66L137.98,303.95L138.79,303.38L138.82,304L138.85,278.1L138.85,304L139.59,303.93L139.61,304L140.38,303.45L140.43,303.82L140.43,304L140.45,303L141.17,304L141.21,303.94L141.34,302.09L141.34,304L141.95,304L142.05,303.86L142.38,303.38L142.66,304L142.66,303.39L142.66,304L143.09,303.35L143.41,303.7L143.43,303.98L144.18,304L144.19,302.3L144.19,304L144.64,271.72L144.92,304L145,303.8L145.31,303.19L145.82,304L145.9,304L146.42,301.77L146.65,304L146.67,304L146.88,303.24L147.21,303.96L147.26,303.97L147.68,303.3L147.68,304L147.72,303.18L147.72,304L148.45,302.54L148.46,304L148.48,303.81L149.08,303.22L149.16,304L149.16,304L149.16,303.15L149.9,304L149.92,303.43L149.92,304L149.92,303.34L150.66,304L150.72,304L150.78,303.82L150.8,301.15L150.8,304L150.88,300.89L151.53,303.83L151.59,303.95L151.87,303.77L151.87,300.06L151.87,304L152.59,303.99L152.64,303.99L152.96,303.27L153.05,303.97L153.23,304L153.39,303.61L153.98,304L154.04,304L154.22,303.39L154.77,304L154.79,303.98L154.84,304L155.43,301.84L155.54,304L155.55,304L156.04,293.02L156.3,304L156.37,303.94L156.43,304L156.71,303.46L157.11,303.91L157.16,303.96L157.84,304L157.84,303.06L157.87,301.99L157.88,304L158.56,303.97L158.61,303.94L159.28,302.98L159.46,303.96L159.46,304L159.78,303.7L159.85,303.99L159.89,299.3L159.89,304L160.46,298.11L160.64,304L160.67,303.77L161.36,303.26L161.36,304L161.42,303.99L161.45,304L161.6,304L161.6,304L161.65,302.78L161.65,304L162.07,301.24L162.37,303.91L162.46,303.99L162.63,303.19L163.22,303.52L163.24,303.98L163.28,302.36L163.29,304L163.98,303.89L164.08,303.78L164.08,304L164.17,303.49L164.77,304L164.9,304L165.22,303.4L165.66,304L165.71,303.9L165.73,302.84L165.75,304L166.37,304L166.47,303.95L166.59,304L167.22,303.43L167.26,303.58L167.26,304L167.64,304L167.64,302.58L167.73,302.34L168.45,304L168.46,303.59L168.46,304L169.05,293.72L169.1,303.87L169.23,304L169.94,303.29L170.14,303.93L170.16,303.98L170.72,303.22L171.01,303.85L171.08,303.95L171.42,304L171.47,302.77L171.47,304L172.22,304L172.28,304L172.32,302.64L173,304L173.07,304L173.1,302.9L173.8,303.59L173.83,304L174.53,302.43L174.56,303.98L174.59,303.88L174.59,302.32L174.61,304L175.34,303.95L175.4,303.96L175.9,304L175.9,302.92L176.65,304L176.71,303.91L176.86,303.52L177.04,304L177.04,302.39L177.87,304L177.87,304L177.89,303.98L178.03,303.88L178.03,304L178.03,301.5L178.4,300.94L178.8,304L178.8,303.81L178.86,303.87L178.93,301.25L178.99,304L179.6,303.82L179.66,303.95L180.43,303.97L180.45,303.29L181.16,302.97L181.19,304L181.24,303.94L181.26,304L181.52,302.62L181.99,304L182.02,304L182.17,303.13L182.61,303.97L182.81,303.91L182.85,304L182.95,302.6L183.34,304L183.38,303.9L183.53,304L183.53,302.1L184.3,304L184.32,303.99L184.96,303.57L185.06,304L185.06,301.63L185.82,304L185.84,304L186.38,300.03L186.58,304L186.6,304L186.95,304L186.97,303L186.97,304L187.47,302.41L187.72,304L187.73,303.84L187.73,304L187.84,302.34L188.48,303.43L188.5,304L188.53,303.13L189.25,303.96L189.28,304L189.82,303.34L189.96,304L189.99,304L190.32,302.94L190.73,304L190.8,303.93L190.87,304L191.54,301.53L191.54,303.92L191.6,304L191.75,298.82L192.35,302.83L192.36,304L192.69,302.57L192.69,304L192.81,301.66L193.42,304L193.47,304L194.22,302.89L194.22,303.96L194.28,304L194.78,303.96L194.78,302.95L194.8,304L195.53,303.63L195.54,304L195.87,303.02L196.27,303.99L196.39,303.94L197.04,302.52L197.04,304L197.23,304L197.81,302.54L197.99,303.57L198.04,304L198.62,298.8L198.74,303.98L198.84,304L199.23,303.45L199.62,304L199.71,303.93L200.32,304L200.32,303.6L200.32,303.32L200.9,302.82L200.97,304L201,301.52L201.14,301.39L201.75,304L201.75,303.98L201.83,303.78L202.47,303.23L202.53,304L202.64,304L202.86,303.25L203.37,303.92L203.38,303.99L203.64,301.32L203.99,303.97L204.03,304L204.22,303.42L204.78,303.68L204.79,304L205.35,302.83L205.43,304L205.59,304L205.63,302.95L205.9,304L205.9,279.61L206.43,274.63L206.68,304L206.69,303.67L207.05,303.35L207.44,304L207.44,303.87L207.48,303.77L207.48,304L207.53,303.19L208.19,304L208.24,303.96L208.24,304L208.42,302.99L208.98,304L209.02,304L209.14,303.37L209.78,303.83L209.79,304L210.51,303.15L210.53,303.87L210.62,303.93L210.71,304L210.71,302.09L210.83,304L210.87,251.5L211.6,304L211.67,303.91L211.7,304L211.92,303.16L212.39,304L212.44,304L212.83,303.81L212.83,304L212.84,303.01L212.84,304L213.55,301.15L213.59,303.94L213.61,304L213.91,303.21L214.29,303.88L214.38,304L214.58,303.82L214.58,303.97L214.62,302.52L214.62,304L214.95,301.92L215.34,304L215.39,304L216.09,302.64L216.14,304L216.15,303.95L216.27,304L216.49,301.44L216.8,303.86L216.9,304L217.26,302.16L217.61,304L217.7,303.42L217.7,304L217.98,303.14L218.44,304L218.46,304L218.61,304L218.61,296.84L218.8,294.73L219.37,304L219.43,303.9L219.51,304L220.06,302.78L220.14,303.19L220.19,304L220.94,303.14L220.98,303.11L220.98,304L221.33,302.5L221.71,303.85L221.78,303.87L221.8,304L222.38,301.58L222.5,304L222.54,303.57L222.62,301.7L223.16,304L223.24,303.71L223.24,300.02L223.25,304L223.97,304L224,304L224.05,302.34L224.73,303.97L224.76,304L225.38,303.4L225.47,304L225.53,304L226,303.92L226,303.75L226.04,302.81L226.04,304L226.33,302.22L226.74,304L226.81,304L226.85,302.3L227.48,303.99L227.6,304L228.07,302.63L228.12,303.9L228.12,304L228.2,301.46L228.84,303.86L228.87,304L229.1,303.54L229.61,303.94L229.64,304L229.78,302.79L230.24,304L230.45,304L230.77,303.01L230.85,304L230.87,302.08L230.89,304L231.22,301.91L231.61,303.93L231.64,303.88L231.97,303.56L232.49,303.97L232.51,303.67L232.51,304L232.86,302.88L233.24,304L233.27,303.92L233.36,304L233.78,302.94L233.99,303.76L234.03,304L234.23,304L234.23,303.67L234.24,301.62L234.24,304L234.99,304L235,304L235.53,303.85L235.53,304L235.53,303.1L235.66,302.07L236.27,304L236.3,303.96L236.58,303.83L236.62,303.97L236.65,303.14L237.22,300.76L237.41,304L237.41,303.77L238.17,304L238.17,303.9L238.23,304L238.74,303.1L238.89,303.69L238.93,304L239.07,302.31L239.66,304L239.72,303.96L239.77,304L240.48,303.18L240.48,304L240.51,303.97L240.65,303.11L240.68,303.97L240.72,304L241.27,303.64L241.35,304L241.38,302.63L241.38,304L242.11,303.98L242.14,302.35L242.14,304L242.84,304L242.94,297.91L243.51,297.35L243.7,304L243.73,304L243.96,302.66L244.21,304L244.23,292.77L244.23,304L244.97,303.96L244.99,303.43L244.99,304L245.66,303.37L245.72,304L245.77,304L246.52,301.95L246.57,304L247.38,303.8L247.39,304L247.46,304L248.05,297.24L248.22,303.92L248.8,303.92L248.86,303.23L249.51,304L249.51,302.35L249.57,302.27L250.1,301.79L250.32,304L250.33,303.62L250.34,300.56L250.34,304L250.34,300.07L251.05,304L251.16,304L251.87,303.25L251.89,303.8L251.94,303.98L252.7,303.05L252.7,304L253.31,301.59L253.42,303.9L253.5,303.96L253.59,303.84L253.59,304L253.59,301.4L253.59,304L254.32,303.87L254.36,303.97L254.64,303.63L254.71,302.53L254.81,300.83L255.39,304L255.41,303.53L255.5,304L255.51,301.71L256.25,303.99L256.26,303.9L256.5,304L256.52,303.31L256.52,303.61L256.52,303.06L257.04,302.46L257.17,304L257.17,303.94L257.33,304L257.96,303.38L258.12,303.88L258.12,304L258.9,303.59L258.9,304L259.56,302.5L259.62,304L259.67,303.98L259.82,304L259.83,302.98L259.83,304L260.52,298.45L260.58,301.2L260.6,303.98L260.69,298.19L260.69,304L261.34,303.33L261.36,303.98L262.22,303.88L262.23,303.91L262.25,304L262.51,302.84L262.97,304L263.02,303.9L263.15,303.23L264.13,304L264.13,303.71L264.41,301.85L264.84,304L264.84,302.11L264.95,301.35L265.62,304L265.62,303.91L265.64,304L266.14,303.13L266.33,304L266.41,304L266.68,304L266.68,303.94L266.68,302.09L266.68,304L267.43,301.36L267.43,304L267.45,303.96L267.5,304L267.87,302.08L268.18,304L268.23,303.84L268.56,303.64L268.82,304L268.82,304L268.82,303.21L268.92,304L269.2,303.08L269.56,304L269.64,302.93L269.64,304L270.39,304L270.44,302.64L270.44,304L270.95,302.19L271.17,302.53L271.2,303.98L272.52,304L272.52,303.97L272.55,302.94L272.65,304L272.65,302.81L273.27,304L273.36,303.99L273.52,304L273.9,302.81L273.96,304L274.12,304L274.88,301.55L274.88,304L274.93,304L275.11,302.02L275.67,304L275.72,303.96L275.77,303.13L275.78,304L276.32,304L276.49,303.92L276.73,303.7L276.91,304L276.96,298.55L276.96,304L277.67,297.03L277.71,303.98L277.75,304L278.24,302.39L278.37,303.96L278.46,304L278.81,303.55L278.87,304L278.87,302.89L279.09,299.46L279.65,304L279.65,303.75L279.68,304L279.95,298.04L280.37,304L280.41,303.96L280.52,301.53L280.64,304L281.15,304L281.2,303.88L282.12,304L282.12,303.66L282.16,303.64L282.19,304L282.58,301.01L282.87,303.99L282.91,303.97L282.96,304L283.44,303.04L283.63,303.97L283.66,304L284.55,303.43L284.56,303.96L284.58,304L284.98,302.27L285.31,303.99L285.35,303.65L285.51,303.22L286.06,304L286.06,303.9L286.13,297.49L286.13,304L286.87,303.83L286.95,304L287.46,302.98L287.71,304L287.78,304L288.33,295.54L288.47,303.71L288.5,304L288.6,301.99L289.22,303.95L289.27,304L289.71,303.69L289.72,301.91L290.22,301.57L290.48,304L290.49,304L290.73,304L290.74,303.1L290.81,304L291.49,303.96L291.51,304L291.72,302.25L291.84,304L291.87,304L291.96,301.91L292.59,303.68L292.64,304L293.28,300.82L293.37,303.94L293.41,303.97L293.46,304L293.8,303.18L294.13,304L294.2,304L294.58,303.1L294.59,303.91L294.67,304L295.16,303.22L295.19,302.17L295.19,304L295.62,298.46L295.94,303.92L295.96,303.98L296.49,302.48L296.51,304L296.55,303.99L297.28,303.43L297.28,303.91L297.34,304L297.53,303.25L298.09,304L298.12,303.83L298.25,303.68L298.89,304L298.89,303.87L298.9,303.15L298.9,304L299.56,303.74L299.66,303.9L299.75,302.95L299.78,304L299.83,303.53L299.84,300.51L300.63,304L300.63,303.89L300.64,303.92L300.65,303.22L300.69,304L301.38,304L301.39,304L302.07,298.11L302.13,303.95L302.15,303.99L302.57,303.05L302.96,303.87L302.96,304L303.04,302.8L303.69,303.98L303.77,303.52L303.77,303.18L303.79,304L304.52,303.91L304.66,303.89L304.73,304L304.78,303.04L305.4,303.8L305.47,304L305.83,302.82L306.24,303.64L306.24,304L307.21,303.84L307.21,304L307.27,302.91L307.31,304L307.91,302.35L307.96,303.94L308.04,304L308.57,303.01L308.83,303.98L308.83,304L309.49,303.45L309.57,303.7L309.59,304L309.75,303.94L309.75,304L309.75,303.04L310.47,304L310.61,304L310.92,299.89L310.97,303.99L310.99,303.92L311.54,303.91L311.54,304L311.54,302.82L312.13,302.74L312.27,304L312.33,304L312.95,302.46L313.08,304L313.11,303.96L313.5,304L313.5,303.44L313.5,302.41L314.25,304L314.29,304L314.93,303.15L315.05,303.96L315.06,304L315.74,302.05L315.78,303.3L315.82,304L316.52,304L316.56,301.3L316.56,304L317.27,303.94L317.38,304L318.17,303.23L318.25,304L318.43,303.94L319.19,304L319.19,304L319.19,301.56L319.89,304L319.94,303.97L319.96,304L320.26,300.68L320.71,303.98L320.8,303.76L321.37,303.08L321.57,304L321.6,304L322,302.74L322,303.98L322.04,304L322.33,303.99L322.33,304L322.33,302.54L322.99,301.87L323.01,304L323.14,304L323.32,301.61L323.88,304L323.9,304L324.5,301.02L324.64,304L324.66,303.8L324.66,304L325.05,303.11L325.33,304L325.42,303.77L325.42,304L325.93,303.32L326.16,304L326.19,303.97L326.24,304L326.24,303.22L326.88,304L326.97,303.91L327.01,304L327.07,303.06L327.66,304L327.74,304L328.36,302.88L328.41,303.97L328.52,304L328.58,293.4L329.2,304L329.22,304L329.48,303.24L329.51,304L329.51,303.07L330.24,304L330.3,303.54L330.52,302.09L331.04,304L331.05,303.99L331.07,303.98L332.14,304L332.14,304L332.18,302.89L332.24,304L332.25,302.8L332.91,303.83L332.94,303.98L333.04,304L333.28,299.7L333.63,303.79L333.63,304L334.56,303.87L334.56,302.97L334.56,304L334.99,302.63L335.28,304L335.35,303.86L335.35,294.3L335.38,304L336.09,303.97L336.11,304L336.29,301.38L336.83,303.77L336.87,303.94L336.9,304L337.11,299.81L337.54,303.79L337.58,304L337.85,302.08L338.1,304L338.2,304L338.61,301.4L338.94,303.79L338.96,303.99L338.98,302.96L339.13,304L339.7,303.55L339.74,303.95L340.31,303.65L340.31,303.97L340.32,302.6L340.34,304L340.37,299.99L341.07,304L341.08,303.95L341.17,304L341.36,300.85L341.39,300.91L341.46,304L341.46,302.45L342.15,303.98L342.24,303.97L342.32,304L342.88,303.04L342.93,304L342.96,304L343.56,302.14L343.71,304L343.72,304L344.45,303.25L344.48,303.27L344.48,304L345.24,303.34L345.3,304L345.59,304L345.59,303.04L346.26,304L346.28,303.92L346.3,295.02L347.06,304L347.12,303.9L348.13,304L348.16,303.26L348.16,304L348.86,264.93L348.91,303.99L348.95,304L349.11,302.45L349.22,303.98L349.22,304L349.29,302.05L349.94,303.99L349.98,304L350.25,303.74L350.25,304L350.25,303.07L350.48,302.75L350.85,304L350.96,303.77L351.02,303.73L351.02,304L351.56,302.03L351.75,303.85L351.84,303.93L352.53,304L352.53,303.98L352.6,303.32L352.67,304L353.14,302.6L353.29,303.93L353.42,303.9L353.75,303.98L353.76,303.18L353.76,304L354.35,302.64L354.49,303.97L354.54,303.9L354.6,302.14L354.69,304L355.26,303.97L355.32,303.83L355.32,304L355.6,300.39L356.06,303.97L356.12,303.83L356.12,304L356.23,302.03L356.87,303.94L356.91,303.57L356.91,304L357.56,301.03L357.65,303.83L357.67,303.98L357.74,304L358.26,303.11L358.44,304L358.47,304L359.01,299.68L359.04,303.97L359.08,303.98L359.1,304L359.26,302.21L359.83,304L359.91,303.89L360.14,303.36L360.34,304L360.34,303.82L360.34,302.99L360.89,304L361.13,303.99L361.14,303.99L361.4,304L361.41,302.86L361.41,304L361.81,297.43L362.13,303.98L362.2,304L362.67,304L362.67,301.59L362.73,304L363.34,304L363.46,302.87L364.23,304L364.3,304L364.72,303.34L364.72,303.36L364.72,301.21L364.81,304L365.43,292.43L365.43,304L365.48,304L365.91,304L365.91,302.45L365.91,304L365.99,299.1L366.62,304L366.68,303.95L366.76,303.99L367.37,302.91L367.48,303.97L367.49,304L367.63,297.77L368.19,304L368.27,304L368.88,304L368.88,303.92L368.89,303.24L369.51,304L369.51,303.18L369.51,303.96L369.7,304L370.14,303.2L370.44,304L370.47,304L370.79,304L370.79,302.76L371.5,304L371.54,303.97L371.59,304L372.31,301.56L372.31,304L372.36,304L372.47,299.31L373.11,304L373.13,303.82L373.13,304L373.45,301.43L373.85,303.98L374,304L374.25,301.6L374.74,303.76L374.77,303.82L374.89,302.97L375.79,304L375.82,303.8L376.05,302.57L376.57,304L376.62,303.62L376.62,304L376.99,301.86L377.35,304L377.39,304L377.87,303.12L378.23,303.99L378.24,304L378.63,304L378.63,303.08L379.05,301.29L379.39,304L379.42,303.88L379.55,304L380.15,303.28L380.18,303.97L380.25,304L380.41,297.28L380.58,303.96L380.59,304L380.59,303.6L381.34,304L381.36,304L381.77,302.51L381.95,303.97L381.96,304L382.66,303.15L382.76,303.88L382.79,304L383.07,302.46L383.38,304L383.51,304L384.06,299.49L384.26,304L384.3,304L384.59,303.48L384.71,304L384.77,302.66L384.77,304L385.52,303.92L385.55,303.97L385.57,304L385.59,298.13L385.63,303.98L385.64,65.2L385.65,304L386.33,304L386.4,304L387.06,303L387.07,61.47L387.07,304L387.82,303.96L387.83,304L387.85,300.96L388.55,303.83L388.58,304L389.25,303.87L389.28,304L389.91,298.55L389.97,303.95L390,304L390.99,304L390.99,303.88L391,302.82L391.79,304L391.79,303.9L391.8,303.89L391.94,303.71L392.49,304L392.49,304L392.49,302.81L393.24,304L393.3,303.92L393.78,304L393.78,303.98L393.8,303.32L393.8,304L393.81,303.09L394.55,304L394.57,303.92L394.63,304L395.05,302.93L395.31,304L395.34,303.92L395.89,304L395.9,302.21L395.92,301.95L395.92,304L396.51,304L396.53,304L396.58,301.44L397.18,303.99L397.19,304L397.36,302.21L397.88,304L398.05,302.83L398.05,304L398.61,299.64L398.78,303.98L398.85,304L398.87,303.84L398.87,303.92L398.92,264.87L398.94,304L398.94,263.64L399.62,303.86L399.68,303.94L400.23,303.11L400.46,303.93L400.52,304L400.97,303.25L401.33,303.93L401.36,303.97L401.43,304L401.44,303.05L402.09,303.77L402.14,303.96L402.17,304L402.88,301.87L402.89,303.49L402.89,304L403.29,302.22L403.61,304L403.68,303.91L404.17,303.02L404.21,304L404.21,302.63L404.21,304L404.36,300.21L404.96,304L404.99,304L405.03,303.26L405.56,303.89L405.73,303.86L406.23,303.48L406.47,304L406.47,303.55L406.51,304L407.22,303.98L407.25,304L407.78,302.81L407.94,303.9L407.97,304L408.65,300.67L408.72,303.96L408.81,304L409.37,294.98L409.54,303.94L409.56,303.88L409.92,304L409.92,303.82L409.99,301.32L409.99,304L410.72,303.94L410.77,303.96L411.47,304L411.47,303.02L411.49,304L412.04,301.12L412.21,303.95L412.25,303.51L412.32,303.08L413.01,304L413.02,304L413.79,303.23L413.89,303.98L413.89,304L414.33,303.32L414.38,304L414.38,301.36L415.15,304L415.15,303.88L415.17,303.98L415.63,303.49L415.82,303.96L415.83,299.46L415.83,304L416.51,304L416.59,303.86L416.84,303.52L417.58,304L417.62,303.89L417.62,303.78L417.62,304L417.93,303.1L418.28,303.4L418.43,303.81L418.6,303.63L418.81,304L418.81,303.96L418.81,302.75L418.94,302.03L419.48,304L419.55,303.99L419.57,303.99L420.01,303.82L420.02,303.15L420.02,304L420.37,302.83L420.77,303.99L420.8,304L421.55,302.13L421.59,302.33L421.59,304L421.64,302.54L422.33,304L422.39,304L422.86,303.26L423.02,304L423.04,304L423.04,303.2L423.74,304L423.83,304L424.32,302.37L424.55,304L424.59,304L425.2,301.17L425.28,303.96L425.39,304L426.21,303.83L426.21,304L426.32,303.2L426.92,304L426.97,304L427.35,302.17L427.7,303.43L427.74,303.85L427.94,302.95L427.97,304L428.07,296.74L428.07,304L428.81,16L428.81,304L428.84,302.21L428.85,304L428.89,302.17L429.55,304L429.63,304L430.11,302.79L430.12,303.92L430.13,304L430.48,302.82L430.89,304L430.92,304L431.17,303.79L431.22,304L431.22,302.22L431.96,304L431.96,302.96L431.96,300.94L431.96,304L432.69,303.89L432.72,304L433.41,302.25L433.54,304L433.55,300.21L434.25,303.85L434.32,304L434.32,303.22L435.07,304L435.11,302.5L435.71,301.9L435.88,304L435.94,304L436.2,303.75L436.39,304L436.44,301.09L436.44,304L436.49,296.97L437.17,304L437.23,303.71L437.23,304L437.77,302.72L437.93,304L438.04,303.96L438.08,304L438.29,301.83L438.75,304L438.79,303.89L438.85,304L438.9,302.97L439.54,303.58L439.55,304L439.82,302.22L439.97,303.98L440.02,303.94L440.18,304L440.77,302.27L440.81,303.87L440.81,304L441.8,303.5L441.8,304L441.8,303.23L442.34,298.05L442.49,304L442.55,303.77L442.55,302.49L442.55,304L442.92,297.79L443.28,303.7L443.31,304L444.05,303.44L444.06,303.93L444.09,303.98L444.82,303.82L444.99,304L444.99,302.68L445.22,302.49L445.76,304L445.78,304L445.92,303.45L446.49,304L446.57,303.84L446.57,304L447.09,303.08L447.17,303.83L447.33,304L448.06,303.12L448.28,303.86L448.33,303.96L448.35,304L448.95,301.19L449.05,304L449.1,304L449.54,303.25L449.67,303.9L449.7,304L449.86,302.8L450.13,303.82L450.13,304L450.43,303.19L450.89,303.96L450.95,304L451.69,298.08L451.7,303.5L451.74,303.93L451.85,304L451.87,297.6L452.48,303.76L452.49,304L452.92,302.94L453.05,303.31L453.14,304L453.65,302.01L453.75,303.9L453.75,304L453.96,299.07L454.38,304L454.42,303.93L454.46,304L455.07,302.16L455.12,304L455.21,303.89L456.24,304L456.24,303.94L456.24,303.44L456.35,302.03L456.96,304L456.96,302.51L457.01,304L457.7,303.93L457.78,304L457.95,302.71L458.54,302.99L458.54,304L458.83,302.4L458.85,303.88L458.85,304L458.99,303.93L459,304L459,302.59L459.02,301.56L459.74,304L459.78,304L460.05,302.82L460.5,304L460.57,303.81L460.57,304L461.3,301.32L461.32,304L461.35,304L461.7,303.25L461.83,304L461.88,304L462.58,304L462.61,303.11L462.78,302.57L463.37,304L463.42,304L464.54,303.43L464.54,303.74L464.54,303.24L464.63,303.17L465.29,304L465.3,303.93L465.36,303.95L465.45,304L465.98,303.65L466.12,303.97L466.15,304L466.59,303.31L466.9,303.98L466.98,304L467.4,303.79L467.49,304L467.49,301.76L468.25,304L468.25,303.99L468.27,303.91L468.4,304L468.63,302.76L468.7,303.98L468.72,303.99L469.84,304L469.84,303.1L469.97,304L470.08,299.59L470.58,304L470.6,303.91L470.84,304L470.84,303.23L470.84,302.19L470.84,299.44L470.96,304L471.58,304L471.65,304L471.74,303.14L472.4,304L472.41,303.9L472.7,304L472.74,301.94L472.74,304L473.48,303.93L473.5,304L473.66,304L473.66,302.14L473.7,302.13L474.39,304L474.39,303.17L474.46,304L474.9,303.59L475.13,303.87L475.23,303.93L475.27,304L475.97,302.66L475.97,304L475.99,304L476,299.97L476.74,304L476.77,303.93L476.87,304L477.29,303.2L477.47,303.91L477.48,304L477.64,303.74L477.82,303.95L477.85,300.72L478.58,304L478.64,303.91L479.14,304L479.14,303.46L479.15,302.88L479.15,304L479.42,299.18L479.9,303.94L479.91,303.99L480,302.88L480.02,304L480.66,304L480.67,304L480.71,302.94L481.36,303.82L481.52,304L482.16,303L482.28,304L482.29,304L482.66,301.33L482.97,304L483.05,304L483.33,302.75L483.68,304L483.69,304L483.81,303.31L483.81,303.69L483.81,302.22L484.24,300.03L484.46,304L484.46,303.99L484.53,300.96L484.53,304L484.72,297.61L485.18,303.99L485.29,303.91L485.43,304L485.57,303L485.71,303.91L485.88,303.96L486.4,304L486.4,303.99L486.41,303.08L486.41,304L487.07,297.71L487.14,303.94L487.2,303.95L488.21,304L488.21,303.96L488.24,303.36L488.24,304L488.6,302.49L488.97,304L489,303.96L490.03,304L490.03,301.11L490.3,300.87L490.81,304L490.81,304L490.83,303.97L490.91,304L491.16,301.76L491.44,303.83L491.45,304L491.45,301.48L492.2,303.98L492.21,304L492.58,296.66L492.95,303.94L493,303.87L493.09,304L493.31,299.86L493.72,304L493.76,304L494.2,299.32L494.5,304L494.52,303.84L495.2,303.57L495.23,304L495.32,303.93L495.35,304L495.87,303.02L496.05,304L496.08,304L496.31,302.67L496.83,304L496.84,304L497.01,303.44L497.06,304L497.07,255.11L497.28,244.01L497.84,304L497.89,304L498.39,302.36L498.64,303.51L498.65,304L499.31,302.17L499.4,304L499.41,304L499.65,303.55L499.72,304L499.72,302.76L499.92,302.61L500.48,304L500.52,304L500.71,303.43L501.18,303.96L501.2,304L501.57,302.35L501.96,303.52L501.96,304L502.41,303.1L502.69,304L502.83,304L503.09,303.25L503.19,303.98L503.25,301.01L503.25,304L503.7,298.95L503.97,304L504.04,303.91L504.13,304L504.78,303.3L504.81,303.97L504.87,304L504.92,302.9L505.46,304L505.52,304L506.13,303.11L506.25,303.97L506.3,304L507.05,304L507.06,303.16L507.06,304L507.63,302.59L507.79,303.97L507.82,303.98L507.83,302.91L507.83,304L508.49,304L508.56,303.85L508.63,301.46L509.27,304L509.27,304L509.27,303.46L509.36,304L509.88,300.05L510.02,304L510.07,304L510.08,303.18L510.81,304L510.87,303.95L510.95,304L510.98,303.47L511,303.99" style="vector-effect: non-scaling-stroke; fill: none; stroke: rgb(99, 110, 250); stroke-opacity: 1; stroke-width: 2px; opacity: 1;"/></g><g class="points"/><g class="text"/></g></g></g><g class="overplot"/><path class="xlines-above crisp" d="M0,0" style="fill: none;"/><path class="ylines-above crisp" d="M0,0" style="fill: none;"/><g class="overlines-above"/><g class="xaxislayer-above"><g class="xtick"><text text-anchor="middle" x="0" y="436" transform="translate(198.19,0)" style="font-family: 'Times New Roman'; font-size: 15px; fill: rgb(13, 13, 13); fill-opacity: 1; white-space: pre; opacity: 1;">1.61252×10​<tspan style="font-size:70%" dy="-0.6em">18</tspan><tspan dy="0.42em">​</tspan></text></g><g class="xtick"><text text-anchor="middle" x="0" y="436" style="font-family: 'Times New Roman'; font-size: 15px; fill: rgb(13, 13, 13); fill-opacity: 1; white-space: pre; opacity: 1;" transform="translate(299.59000000000003,0)">1.612525×10​<tspan style="font-size:70%" dy="-0.6em">18</tspan><tspan dy="0.42em">​</tspan></text></g><g class="xtick"><text text-anchor="middle" x="0" y="436" style="font-family: 'Times New Roman'; font-size: 15px; fill: rgb(13, 13, 13); fill-opacity: 1; white-space: pre; opacity: 1;" transform="translate(401,0)">1.61253×10​<tspan style="font-size:70%" dy="-0.6em">18</tspan><tspan dy="0.42em">​</tspan></text></g><g class="xtick"><text text-anchor="middle" x="0" y="436" style="font-family: 'Times New Roman'; font-size: 15px; fill: rgb(13, 13, 13); fill-opacity: 1; white-space: pre; opacity: 1;" transform="translate(502.4,0)">1.612535×10​<tspan style="font-size:70%" dy="-0.6em">18</tspan><tspan dy="0.42em">​</tspan></text></g><g class="xtick"><text text-anchor="middle" x="0" y="436" style="font-family: 'Times New Roman'; font-size: 15px; fill: rgb(13, 13, 13); fill-opacity: 1; white-space: pre; opacity: 1;" transform="translate(603.8,0)">1.61254×10​<tspan style="font-size:70%" dy="-0.6em">18</tspan><tspan dy="0.42em">​</tspan></text></g></g><g class="yaxislayer-above"><g class="ytick"><text text-anchor="end" x="108" y="12.25" transform="translate(0,404)" style="font-family: 'Times New Roman'; font-size: 35px; fill: rgb(13, 13, 13); fill-opacity: 1; white-space: pre; opacity: 1;">0</text></g><g class="ytick"><text text-anchor="end" x="108" y="12.25" style="font-family: 'Times New Roman'; font-size: 35px; fill: rgb(13, 13, 13); fill-opacity: 1; white-space: pre; opacity: 1;" transform="translate(0,320.65)">5k</text></g><g class="ytick"><text text-anchor="end" x="108" y="12.25" style="font-family: 'Times New Roman'; font-size: 35px; fill: rgb(13, 13, 13); fill-opacity: 1; white-space: pre; opacity: 1;" transform="translate(0,237.31)">10k</text></g><g class="ytick"><text text-anchor="end" x="108" y="12.25" style="font-family: 'Times New Roman'; font-size: 35px; fill: rgb(13, 13, 13); fill-opacity: 1; white-space: pre; opacity: 1;" transform="translate(0,153.96)">15k</text></g></g><g class="overaxes-above"/></g></g><g class="polarlayer"/><g class="smithlayer"/><g class="ternarylayer"/><g class="geolayer"/><g class="funnelarealayer"/><g class="pielayer"/><g class="iciclelayer"/><g class="treemaplayer"/><g class="sunburstlayer"/><g class="glimages"/><defs id="topdefs-98bca1"><g class="clips"/></defs><g class="layer-above"><g class="imagelayer"/><g class="shapelayer"/></g><g class="infolayer"><g class="g-gtitle"/><g class="g-xtitle"><text class="xtitle" x="364.5" y="463.8" text-anchor="middle" style="font-family: 'Open Sans', verdana, arial, sans-serif; font-size: 14px; fill: rgb(42, 63, 95); opacity: 1; font-weight: normal; white-space: pre;">Time Steps (ns)</text></g><g class="g-ytitle" transform="translate(23.5,0)"><text class="ytitle" transform="rotate(-90,12.5,260)" x="12.5" y="260" text-anchor="middle" style="font-family: 'Times New Roman'; font-size: 40px; fill: rgb(13, 13, 13); opacity: 1; font-weight: normal; white-space: pre;">Speed (in sec.)</text></g></g></svg>