<svg class="main-svg" xmlns="http://www.w3.org/2000/svg" xmlns:xlink="http://www.w3.org/1999/xlink" width="700" height="500" style="" viewBox="0 0 700 500"><rect x="0" y="0" width="700" height="500" style="fill: rgb(255, 255, 255); fill-opacity: 1;"/><defs id="defs-7bc5ba"><g class="clips"><clipPath id="clip7bc5baxyplot" class="plotclip"><rect width="497" height="320"/></clipPath><clipPath class="axesclip" id="clip7bc5bax"><rect x="123" y="0" width="497" height="500"/></clipPath><clipPath class="axesclip" id="clip7bc5bay"><rect x="0" y="100" width="700" height="320"/></clipPath><clipPath class="axesclip" id="clip7bc5baxy"><rect x="123" y="100" width="497" height="320"/></clipPath></g><g class="gradients"/><g class="patterns"/></defs><g class="bglayer"><rect class="bg" x="123" y="100" width="497" height="320" style="fill: rgb(229, 236, 246); fill-opacity: 1; stroke-width: 0;"/></g><g class="layer-below"><g class="imagelayer"/><g class="shapelayer"/></g><g class="cartesianlayer"><g class="subplot xy"><g class="layer-subplot"><g class="shapelayer"/><g class="imagelayer"/></g><g class="minor-gridlayer"><g class="x"/><g class="y"/></g><g class="gridlayer"><g class="x"><path class="xgrid crisp" transform="translate(209.75,0)" d="M0,100v320" style="stroke: rgb(255, 255, 255); stroke-opacity: 1; stroke-width: 1px;"/><path class="xgrid crisp" transform="translate(308.37,0)" d="M0,100v320" style="stroke: rgb(255, 255, 255); stroke-opacity: 1; stroke-width: 1px;"/><path class="xgrid crisp" transform="translate(407,0)" d="M0,100v320" style="stroke: rgb(255, 255, 255); stroke-opacity: 1; stroke-width: 1px;"/><path class="xgrid crisp" transform="translate(505.62,0)" d="M0,100v320" style="stroke: rgb(255, 255, 255); stroke-opacity: 1; stroke-width: 1px;"/><path class="xgrid crisp" transform="translate(604.25,0)" d="M0,100v320" style="stroke: rgb(255, 255, 255); stroke-opacity: 1; stroke-width: 1px;"/></g><g class="y"><path class="ygrid crisp" transform="translate(0,354.90999999999997)" d="M123,0h497" style="stroke: rgb(255, 255, 255); stroke-opacity: 1; stroke-width: 1px;"/><path class="ygrid crisp" transform="translate(0,305.8)" d="M123,0h497" style="stroke: rgb(255, 255, 255); stroke-opacity: 1; stroke-width: 1px;"/><path class="ygrid crisp" transform="translate(0,256.7)" d="M123,0h497" style="stroke: rgb(255, 255, 255); stroke-opacity: 1; stroke-width: 1px;"/><path class="ygrid crisp" transform="translate(0,207.6)" d="M123,0h497" style="stroke: rgb(255, 255, 255); stroke-opacity: 1; stroke-width: 1px;"/><path class="ygrid crisp" transform="translate(0,158.49)" d="M123,0h497" style="stroke: rgb(255, 255, 255); stroke-opacity: 1; stroke-width: 1px;"/><path class="ygrid crisp" transform="translate(0,109.39)" d="M123,0h497" style="stroke: rgb(255, 255, 255); stroke-opacity: 1; stroke-width: 1px;"/></g></g><g class="zerolinelayer"><path class="yzl zl crisp" transform="translate(0,404.01)" d="M123,0h497" style="stroke: rgb(255, 255, 255); stroke-opacity: 1; stroke-width: 2px;"/></g><path class="xlines-below"/><path class="ylines-below"/><g class="overlines-below"/><g class="xaxislayer-below"/><g class="yaxislayer-below"/><g class="overaxes-below"/><g class="plot" transform="translate(123,100)" clip-path="url(#clip7bc5baxyplot)"><g class="scatterlayer mlayer"><g class="trace scatter trace1a480c" style="stroke-miterlimit: 2; opacity: 1;"><g class="fills"/><g class="errorbars"/><g class="lines"><path class="js-line" d="M0,304L2.55,303L2.55,302.99L5.75,301.65L5.75,301.65L5.75,301.64L8.01,300.53L8.06,300.52L10.76,299.49L10.76,299.49L10.82,299.49L12.97,298.47L12.97,298.46L36.32,287.7L36.33,287.69L38.5,286.22L38.5,286.21L47.59,281.17L47.59,281.16L49.58,279.88L49.63,279.88L68.53,268.22L68.63,268.22L102.85,248.14L102.85,248.13L104.75,246.94L104.75,246.93L110.34,243.54L110.34,243.54L110.39,243.54L131.86,231.13L131.86,231.13L131.92,231.12L137.79,227.91L137.79,227.9L140.42,226.29L140.45,226.29L152.77,219.33L152.77,219.32L154.64,218.19L154.64,218.19L154.64,218.18L161.05,214.21L161.11,214.21L162.51,213.33L162.51,213.33L162.56,213.32L166.83,210.32L166.83,210.32L166.96,210.31L173.16,206.86L173.16,206.85L175.68,205.3L175.68,205.27L179.37,203.35L179.42,203.35L182.32,201.66L182.33,201.65L185.14,199.71L185.14,199.7L188.22,197.89L188.22,197.89L188.22,197.88L190.04,196.78L190.04,196.78L190.04,196.77L198.63,191.98L198.63,191.98L198.65,191.97L206.11,188.41L206.11,188.41L206.11,188.4L221.44,180.23L221.5,180.23L224.66,178.31L224.66,178.31L224.76,178.3L227.9,176.75L227.9,176.74L230.01,175.53L230.01,175.52L237.15,171.64L237.15,171.64L237.15,171.63L240.19,169.63L240.19,169.63L240.22,169.62L242.82,168.17L242.82,168.17L242.82,168.16L246.91,165.83L246.91,165.83L246.91,165.82L259.52,158.88L259.56,158.88L261.35,157.91L261.35,157.9L263.25,156.73L263.25,156.73L263.28,156.72L265.89,155.47L265.89,155.46L270.59,152.79L270.59,152.78L273.98,150.78L273.98,150.77L275.31,149.86L275.31,149.85L277.76,148.48L277.76,148.47L285.43,144.07L285.43,144.06L289.05,142.16L289.05,142.16L289.09,142.16L298.67,136.24L298.8,136.23L304.23,133.27L304.23,133.27L304.26,133.27L308.5,130.68L308.5,130.68L308.58,130.67L310.66,129.45L310.66,129.45L310.67,129.42L328.18,119.24L328.18,119.24L328.27,119.23L331.17,117.54L331.17,117.54L331.17,117.53L336.82,114.56L336.82,114.56L336.82,114.55L339.35,113.11L339.35,113.09L376.24,91.42L376.24,91.41L377.87,90.16L377.89,90.15L382.55,87.52L382.55,87.51L395.01,80.4L395.01,80.4L395.06,80.39L400.2,77.38L400.2,77.37L402.88,75.72L402.88,75.72L402.93,75.71L405.01,74.33L405.07,74.33L411.53,70.54L411.53,70.54L411.53,70.53L418.38,66.77L418.38,66.77L418.5,66.77L421.34,64.83L421.34,64.83L421.34,64.82L425.09,62.07L425.15,62.06L466.49,35.81L466.49,35.78L470.16,33.4L470.16,33.4L470.16,33.39L474.78,30.86L474.78,30.85L476.08,29.81L476.18,29.81L481.1,26.84L481.1,26.83L483.28,25.25L483.28,25.25L483.34,25.25L485.87,23.55L485.93,23.54L497,16" style="vector-effect: non-scaling-stroke; fill: none; stroke: rgb(1, 102, 87); stroke-opacity: 1; stroke-width: 2px; opacity: 1;"/></g><g class="points"/><g class="text"/></g></g></g><g class="overplot"/><path class="xlines-above crisp" d="M0,0" style="fill: none;"/><path class="ylines-above crisp" d="M0,0" style="fill: none;"/><g class="overlines-above"/><g class="xaxislayer-above"><g class="xtick"><text text-anchor="middle" x="0" y="436" transform="translate(209.75,0)" style="font-family: 'Times New Roman'; font-size: 15px; fill: rgb(13, 13, 13); fill-opacity: 1; white-space: pre; opacity: 1;">1.61252×10​<tspan style="font-size:70%" dy="-0.6em">18</tspan><tspan dy="0.42em">​</tspan></text></g><g class="xtick"><text text-anchor="middle" x="0" y="436" style="font-family: 'Times New Roman'; font-size: 15px; fill: rgb(13, 13, 13); fill-opacity: 1; white-space: pre; opacity: 1;" transform="translate(308.37,0)">1.612525×10​<tspan style="font-size:70%" dy="-0.6em">18</tspan><tspan dy="0.42em">​</tspan></text></g><g class="xtick"><text text-anchor="middle" x="0" y="436" style="font-family: 'Times New Roman'; font-size: 15px; fill: rgb(13, 13, 13); fill-opacity: 1; white-space: pre; opacity: 1;" transform="translate(407,0)">1.61253×10​<tspan style="font-size:70%" dy="-0.6em">18</tspan><tspan dy="0.42em">​</tspan></text></g><g class="xtick"><text text-anchor="middle" x="0" y="436" style="font-family: 'Times New Roman'; font-size: 15px; fill: rgb(13, 13, 13); fill-opacity: 1; white-space: pre; opacity: 1;" transform="translate(505.62,0)">1.612535×10​<tspan style="font-size:70%" dy="-0.6em">18</tspan><tspan dy="0.42em">​</tspan></text></g><g class="xtick"><text text-anchor="middle" x="0" y="436" style="font-family: 'Times New Roman'; font-size: 15px; fill: rgb(13, 13, 13); fill-opacity: 1; white-space: pre; opacity: 1;" transform="translate(604.25,0)">1.61254×10​<tspan style="font-size:70%" dy="-0.6em">18</tspan><tspan dy="0.42em">​</tspan></text></g></g><g class="yaxislayer-above"><g class="ytick"><text text-anchor="end" x="122" y="12.25" transform="translate(0,404.01)" style="font-family: 'Times New Roman'; font-size: 35px; fill: rgb(13, 13, 13); fill-opacity: 1; white-space: pre; opacity: 1;">0</text></g><g class="ytick"><text text-anchor="end" x="122" y="12.25" style="font-family: 'Times New Roman'; font-size: 35px; fill: rgb(13, 13, 13); fill-opacity: 1; white-space: pre; opacity: 1;" transform="translate(0,354.90999999999997)">0.5B</text></g><g class="ytick"><text text-anchor="end" x="122" y="12.25" style="font-family: 'Times New Roman'; font-size: 35px; fill: rgb(13, 13, 13); fill-opacity: 1; white-space: pre; opacity: 1;" transform="translate(0,305.8)">1B</text></g><g class="ytick"><text text-anchor="end" x="122" y="12.25" style="font-family: 'Times New Roman'; font-size: 35px; fill: rgb(13, 13, 13); fill-opacity: 1; white-space: pre; opacity: 1;" transform="translate(0,256.7)">1.5B</text></g><g class="ytick"><text text-anchor="end" x="122" y="12.25" style="font-family: 'Times New Roman'; font-size: 35px; fill: rgb(13, 13, 13); fill-opacity: 1; white-space: pre; opacity: 1;" transform="translate(0,207.6)">2B</text></g><g class="ytick"><text text-anchor="end" x="122" y="12.25" style="font-family: 'Times New Roman'; font-size: 35px; fill: rgb(13, 13, 13); fill-opacity: 1; white-space: pre; opacity: 1;" transform="translate(0,158.49)">2.5B</text></g><g class="ytick"><text text-anchor="end" x="122" y="12.25" style="font-family: 'Times New Roman'; font-size: 35px; fill: rgb(13, 13, 13); fill-opacity: 1; white-space: pre; opacity: 1;" transform="translate(0,109.39)">3B</text></g></g><g class="overaxes-above"/></g></g><g class="polarlayer"/><g class="smithlayer"/><g class="ternarylayer"/><g class="geolayer"/><g class="funnelarealayer"/><g class="pielayer"/><g class="iciclelayer"/><g class="treemaplayer"/><g class="sunburstlayer"/><g class="glimages"/><defs id="topdefs-7bc5ba"><g class="clips"/></defs><g class="layer-above"><g class="imagelayer"/><g class="shapelayer"/></g><g class="infolayer"><g class="g-gtitle"/><g class="g-xtitle"><text class="xtitle" x="371.5" y="463.8" text-anchor="middle" style="font-family: 'Open Sans', verdana, arial, sans-serif; font-size: 14px; fill: rgb(42, 63, 95); opacity: 1; font-weight: normal; white-space: pre;">Time Steps (ns)</text></g><g class="g-ytitle" transform="translate(24.109375,0)"><text class="ytitle" transform="rotate(-90,11.890625,260)" x="11.890625" y="260" text-anchor="middle" style="font-family: 'Times New Roman'; font-size: 40px; fill: rgb(13, 13, 13); opacity: 1; font-weight: normal; white-space: pre;">Cum. executed trading vol. (in $)</text></g></g></svg>