<svg class="main-svg" xmlns="http://www.w3.org/2000/svg" xmlns:xlink="http://www.w3.org/1999/xlink" width="700" height="500" style="" viewBox="0 0 700 500"><rect x="0" y="0" width="700" height="500" style="fill: rgb(255, 255, 255); fill-opacity: 1;"/><defs id="defs-b376b4"><g class="clips"><clipPath id="clipb376b4xyplot" class="plotclip"><rect width="511" height="320"/></clipPath><clipPath class="axesclip" id="clipb376b4x"><rect x="109" y="0" width="511" height="500"/></clipPath><clipPath class="axesclip" id="clipb376b4y"><rect x="0" y="100" width="700" height="320"/></clipPath><clipPath class="axesclip" id="clipb376b4xy"><rect x="109" y="100" width="511" height="320"/></clipPath></g><g class="gradients"/><g class="patterns"/></defs><g class="bglayer"><rect class="bg" x="109" y="100" width="511" height="320" style="fill: rgb(229, 236, 246); fill-opacity: 1; stroke-width: 0;"/></g><g class="layer-below"><g class="imagelayer"/><g class="shapelayer"/></g><g class="cartesianlayer"><g class="subplot xy"><g class="layer-subplot"><g class="shapelayer"/><g class="imagelayer"/></g><g class="minor-gridlayer"><g class="x"/><g class="y"/></g><g class="gridlayer"><g class="x"><path class="xgrid crisp" transform="translate(198.19,0)" d="M0,100v320" style="stroke: rgb(255, 255, 255); stroke-opacity: 1; stroke-width: 1px;"/><path class="xgrid crisp" transform="translate(299.59000000000003,0)" d="M0,100v320" style="stroke: rgb(255, 255, 255); stroke-opacity: 1; stroke-width: 1px;"/><path class="xgrid crisp" transform="translate(401,0)" d="M0,100v320" style="stroke: rgb(255, 255, 255); stroke-opacity: 1; stroke-width: 1px;"/><path class="xgrid crisp" transform="translate(502.4,0)" d="M0,100v320" style="stroke: rgb(255, 255, 255); stroke-opacity: 1; stroke-width: 1px;"/><path class="xgrid crisp" transform="translate(603.8,0)" d="M0,100v320" style="stroke: rgb(255, 255, 255); stroke-opacity: 1; stroke-width: 1px;"/></g><g class="y"><path class="ygrid crisp" transform="translate(0,346.98)" d="M109,0h511" style="stroke: rgb(255, 255, 255); stroke-opacity: 1; stroke-width: 1px;"/><path class="ygrid crisp" transform="translate(0,289.23)" d="M109,0h511" style="stroke: rgb(255, 255, 255); stroke-opacity: 1; stroke-width: 1px;"/><path class="ygrid crisp" transform="translate(0,231.49)" d="M109,0h511" style="stroke: rgb(255, 255, 255); stroke-opacity: 1; stroke-width: 1px;"/><path class="ygrid crisp" transform="translate(0,173.74)" d="M109,0h511" style="stroke: rgb(255, 255, 255); stroke-opacity: 1; stroke-width: 1px;"/><path class="ygrid crisp" transform="translate(0,116)" d="M109,0h511" style="stroke: rgb(255, 255, 255); stroke-opacity: 1; stroke-width: 1px;"/></g></g><g class="zerolinelayer"><path class="yzl zl crisp" transform="translate(0,404.72)" d="M109,0h511" style="stroke: rgb(255, 255, 255); stroke-opacity: 1; stroke-width: 2px;"/></g><path class="xlines-below"/><path class="ylines-below"/><g class="overlines-below"/><g class="xaxislayer-below"/><g class="yaxislayer-below"/><g class="overaxes-below"/><g class="plot" transform="translate(109,100)" clip-path="url(#clipb376b4xyplot)"><g class="scatterlayer mlayer"><g class="trace scatter trace496efc" style="stroke-miterlimit: 2; opacity: 1;"><g class="fills"/><g class="errorbars"/><g class="lines"><path class="js-line" d="M0,16L0.21,16L0.21,160.36L0.21,16L0.82,16L0.98,16L1.28,16L1.28,16L1.28,160.36L1.86,277.29L2.08,16L2.2,16L2.29,18.89L2.29,16L2.31,85.29L2.31,301.83L2.32,16L3.05,16L3.07,218.11L3.07,16L3.51,304L3.81,255.64L3.84,134.38L4.5,290.29L4.59,16L4.65,137.26L4.69,16L5.23,298.95L5.34,53.53L5.46,16L5.67,16L5.67,16L5.7,21.77L5.7,298.95L5.82,16L6.44,21.77L6.48,166.14L6.48,16L6.52,298.95L7.15,160.36L7.29,16L7.68,241.2L7.68,79.52L7.71,16L8.3,297.5L8.4,187.79L8.43,16L8.88,296.06L9.17,183.46L9.27,16L9.63,287.4L9.99,16L10.05,16L10.15,298.95L10.79,16L10.86,16L11.41,302.56L11.59,294.62L11.65,16L11.94,287.4L12.38,16L12.4,16L13.07,301.83L13.15,16L13.24,88.18L13.33,16L13.71,293.17L13.96,16L14.1,16L14.4,296.06L14.79,70.86L14.95,249.86L14.98,16L15.54,255.64L15.67,148.81L15.79,16L16.3,294.33L16.3,67.97L16.32,16L16.83,301.83L17.03,16L17.11,36.21L17.43,284.51L17.47,16L17.83,16L17.87,16L18.45,274.41L18.58,16L18.61,16L19.06,298.95L19.34,16L19.43,16L20.15,302.56L20.18,16L20.22,296.06L20.39,16L20.97,280.32L20.98,16L21.16,16L21.19,223.88L21.32,16L21.9,290.29L21.92,16L21.98,16L22.31,298.95L22.57,16L22.72,16L22.92,16L22.93,81.48L23.02,16L23.61,296.06L23.66,255.64L23.75,73.74L23.75,16L24.48,301.11L24.48,192.68L24.52,229.65L24.55,16L24.78,296.06L25.12,73.74L25.3,16L25.94,285.95L25.96,16L26.05,16L26.66,284.51L26.73,177.68L26.78,16L27.46,290.29L27.53,16L27.56,16L27.71,258.73L27.72,16L27.78,16L27.96,264.3L28.16,16L28.18,16L28.83,284.51L28.83,166.14L29.03,16L29.28,16L29.28,252.75L29.28,16L29.69,284.51L29.97,16L30.14,16L30.3,297.73L30.87,16L30.95,16L31.65,284.51L31.7,16L31.77,88.18L32.43,16L32.48,300.39L32.65,16L33.01,290.29L33.29,189.23L33.29,16L33.83,300.19L33.96,16L34.09,24.66L34.09,16L34.7,296.92L34.73,39.1L34.88,229.65L34.88,16L35.31,296.06L35.6,16L35.64,16L35.76,290.29L36.37,65.08L36.41,16L37.1,296.06L37.11,16L37.17,137.26L37.18,16L37.71,297.5L37.92,285.95L38.1,16L38.31,298.95L38.72,16L38.78,67.97L38.8,16L39.4,284.51L39.52,16L39.54,16L39.74,285.95L40.32,218.11L40.33,105.5L40.36,16L41.04,301.86L41.07,246.98L41.15,246.98L41.22,16L41.31,301.83L41.9,21.77L41.98,16L42.25,293.17L42.63,233.98L42.75,16L43.09,301.83L43.47,36.62L43.51,134.38L43.59,16L44.1,290.29L44.25,16L44.27,293.62L44.27,16L44.61,298.95L44.98,16L45.06,209.44L45.23,16L45.68,298.95L45.79,16L45.85,16L46.54,293.17L46.54,16L46.65,50.65L46.74,272.96L47.28,16L47.28,170.47L47.58,284.51L48.02,16L48.03,91.07L48.03,208.48L48.45,293.17L48.76,16L48.79,287.4L48.8,300.39L48.84,16L49.19,16L49.25,16L49.98,291.73L49.98,287.4L50.03,59.31L50.04,16L50.61,298.95L50.75,85.29L50.81,16L51.42,301.83L51.56,272.96L51.58,16L52.02,301.83L52.33,16L52.37,16L52.71,258.53L53.11,16L53.27,16L53.47,301.83L54.02,220.1L54.03,261.41L54.43,293.17L54.8,16L54.8,16L54.8,207.47L54.8,16L55.02,293.89L55.55,281.62L55.62,88.18L55.66,16L56.33,295.1L56.45,16L56.58,301.11L57.23,287.4L57.23,85.29L57.66,278.74L57.87,16L57.87,16L58.08,16L58.1,296.06L58.16,16L58.21,16L58.29,24.66L58.3,296.06L58.31,298.89L58.31,24.66L58.43,53.53L58.47,16L58.5,267.19L58.51,16L58.59,298.95L59.21,16L59.29,16L59.8,298.95L60.04,16L60.06,16L60.78,290.29L60.86,290.29L61.11,293.62L61.56,16L61.56,16L61.63,196.03L62.08,288.84L62.32,16L62.36,197.89L62.4,215.88L62.5,293.62L63.14,16L63.16,218.11L63.2,16L63.87,287.4L63.91,270.08L63.92,16L64.06,291.73L64.36,160.36L64.41,16L65.04,281.62L65.17,249.86L65.17,70.86L65.19,301.83L65.19,16L65.89,16L65.95,16L65.98,299.06L66.7,272.96L66.71,16L67.19,301.83L67.44,70.86L67.47,16L67.63,285.95L68.21,16L68.22,16L68.91,301.83L68.97,197.89L69.08,261.41L69.13,16L69.55,301.83L69.82,16L69.84,232.54L70.39,278.74L70.56,16L70.57,226.77L70.62,16L70.73,301.48L71.35,16L71.38,16L71.45,298.95L72.09,47.76L72.15,281.58L72.81,282.35L72.91,16L72.91,16L72.91,184.79L73.07,303.28L73.46,16L73.56,229.65L73.63,229.65L73.67,16L73.97,299.67L74.37,16L74.42,73.74L74.43,16L74.7,298.95L75.08,16L75.13,16L75.52,301.83L75.87,16L75.93,41.98L75.93,16L76.09,298.95L76.64,44.87L76.69,16L76.79,287.4L77.41,16L77.5,16L78.17,298.95L78.3,169.02L78.3,16L78.4,297.5L79.04,16L79.06,16L79.61,301.83L79.74,16L79.86,122.83L80,16L80,301.83L80.61,235.43L80.62,166.14L80.68,16L81.07,298.95L81.37,235.43L81.39,85.29L81.49,16L81.98,297.47L82.04,16L82.15,16L82.27,298.95L82.93,261.41L82.95,16L83.57,290.29L83.72,275.85L83.74,59.31L83.74,16L84.35,297.5L84.47,16L84.54,16L85.29,252.75L85.35,16L85.39,301.83L86.03,212.33L86.12,16L86.78,301.83L86.84,59.58L86.88,145.92L86.89,298.95L86.89,16L87.61,16L87.63,16L88.27,293.17L88.38,16L88.41,56.42L88.99,286.68L88.99,16L89.02,226.77L89.08,244.09L89.17,16L89.58,303.28L89.83,137.26L89.85,137.26L90.48,16L90.48,293.17L90.57,197.89L90.58,281.62L90.62,16L91.16,301.83L91.33,102.19L91.34,218.54L91.54,303.76L92.1,16L92.14,16L92.38,299.06L92.47,16L92.62,16L93.25,301.83L93.37,16L93.41,233.26L93.43,301.83L93.43,16L94.04,209.44L94.14,102.62L94.14,16L94.34,301.83L94.84,79.52L94.93,16L95.54,298.95L95.68,16L95.72,16L95.79,21.77L95.79,298.95L96.02,303.28L96.52,16L96.58,16L96.8,300.39L97.36,290.29L97.37,16L98.09,293.17L98.11,65.08L98.13,16L98.83,296.06L98.91,189.23L98.91,16L99.25,296.06L99.63,16L99.7,16L100.22,302.56L100.39,259.49L100.48,16L100.64,33.32L100.66,16L100.67,264.3L100.99,16L101.28,301.11L101.35,99.73L101.47,16L102.21,296.06L102.21,24.66L102.26,16L102.27,284.51L102.3,16L102.98,301.51L103.01,154.59L103.04,16L103.43,303.28L103.8,73.74L103.8,16L104.02,291.73L104.58,154.59L104.61,175.72L104.73,301.83L105.28,16L105.32,244.81L105.36,255.64L106,299.06L106.12,16L106.13,212.33L106.63,299.06L106.89,16L106.91,203.67L106.92,16L107.58,284.51L107.65,56.42L107.67,16L108.26,304L108.38,238.32L108.44,16L108.97,301.83L109.13,166.14L109.15,16L109.32,16L109.33,192.12L109.34,16L109.5,261.41L110.05,16L110.13,16L110.56,296.06L110.89,189.23L111,16L111.24,303.28L111.78,137.26L111.79,16L111.91,41.98L111.91,278.74L112.42,291.73L112.54,16L112.56,183.46L112.56,262.86L112.69,16L113.27,300.39L113.3,16L113.35,16L114.01,296.06L114.09,16L114.13,16L114.42,302.16L114.91,244.09L114.91,174.08L114.91,16L115.04,301.83L115.65,24.66L115.7,241.2L115.75,16L116,298.95L116.35,16L116.47,16L117.03,301.83L117.2,241.2L117.25,16L117.7,296.06L117.99,241.2L118.02,131.49L118.42,288.38L118.74,16L118.75,288.38L118.75,16L119.27,298.95L119.44,171.91L119.51,16L119.58,18.89L119.58,301.83L120.29,16L120.33,41.98L120.34,278.74L120.98,16L121.07,296.06L121.07,24.66L121.12,189.23L121.19,300.39L121.19,16L121.86,295.97L121.89,16L122.57,298.95L122.61,16L122.66,160.36L122.66,16L122.7,298.95L123.36,223.88L123.43,16L123.51,21.77L123.51,299.66L123.59,301.83L124.28,16L124.3,16L124.43,301.83L125.05,16L125.06,16L125.54,297.71L125.7,166.14L125.89,16L126.49,297.5L126.64,252.75L126.67,16L126.76,290.29L127.39,16L127.43,47.76L127.55,16L128.03,301.86L128.17,70.86L128.26,16L128.56,296.06L128.97,160.36L129.02,16L129.73,298.95L129.75,237.82L129.81,16L130.22,296.59L130.51,16L130.57,16L130.82,257.8L130.85,117.05L130.99,16L131.53,296.06L131.71,264.3L131.81,284.51L132.18,298.95L132.5,16L132.56,281.62L132.66,24.66L132.66,301.78L132.68,16L133.38,148.81L133.46,148.81L133.49,287.4L133.55,16L134.21,59.31L134.23,261.41L134.67,289.46L134.98,16L134.98,16L134.98,303.29L135.7,303.76L135.7,16L135.72,66.53L135.75,16L136.5,284.51L136.57,270.08L136.57,50.65L136.58,270.08L136.58,16L137.29,209.44L137.33,206.56L137.37,16L137.54,301.83L138.08,16L138.17,16L138.85,301.11L138.87,39.1L138.99,16L139.61,298.95L139.72,235.43L139.88,16L140.44,287.4L140.64,210.23L140.66,16L141.03,287.4L141.37,91.07L141.41,16L141.63,285.95L141.9,73.74L141.9,16L142.66,298.95L142.66,21.77L142.66,16L142.67,292.45L143.41,16L143.43,212.33L143.95,293.17L144.1,16L144.19,101.55L144.19,246.08L144.19,16L144.36,301.83L144.92,16L145,16L145.64,296.06L145.8,252.75L145.82,16L146.26,291.44L146.61,220.99L146.61,99.73L147.21,287.4L147.26,16L147.34,119.94L147.35,200.78L147.68,303.28L148.07,16L148.11,229.65L148.41,270.08L148.98,16L149.04,267.33L149.14,16L149.18,293.17L149.77,267.19L149.8,16L150.15,301.83L150.5,16L150.66,16L150.88,304L151.41,293.17L151.47,16L152.11,298.95L152.21,268.63L152.29,16L152.82,301.83L153.01,235.43L153.05,239.53L153.39,301.83L153.83,16L153.84,274.47L153.86,16L154.25,296.06L154.59,16L154.62,16L155.35,295.56L155.37,102.62L155.39,218.11L155.44,16L155.98,287.4L156.12,16L156.16,281.62L156.71,296.31L156.88,16L156.88,16L156.93,16L157.39,281.62L157.67,16L157.7,16L157.71,298.95L157.94,16L157.97,16L158.1,298.95L158.62,16L158.73,16L159.11,298.95L159.48,16L159.53,16L159.78,295.34L160.27,284.51L160.27,16L160.46,299.06L161.01,211.49L161.03,16L161.66,287.4L161.78,160.36L161.81,52.8L161.83,16L161.92,291.73L162.52,16L162.58,108.39L162.64,16L163.22,298.23L163.32,16L163.35,16L163.78,276.11L164.08,272.96L164.13,258.53L164.13,16L164.74,293.17L164.77,293.17L164.9,16L165.44,284.51L165.65,171.91L165.66,16L165.71,281.62L165.83,272.96L165.93,16L166.08,16L166.08,119.94L166.08,16L166.15,301.83L166.82,45.59L166.87,16L167.22,296.78L167.59,228.3L167.61,16L167.77,249.86L168.24,16L168.26,16L168.28,293.17L169.01,16L169.02,16L169.05,288.12L169.35,220.9L169.42,27.55L169.45,16L169.58,302.63L170.16,296.06L170.18,16L170.37,296.06L170.91,288.38L170.97,16L171.17,301.83L171.69,125.71L171.8,117.05L171.81,16L172.41,302.56L172.54,27.55L172.58,16L173.29,290.29L173.35,30.44L173.38,290.29L173.38,16L174.07,59.31L174.17,241.2L174.22,16L174.75,302L174.92,16L174.93,16L175.24,302L175.66,261.41L175.66,16L176.24,298.95L176.41,16L176.43,16L176.86,290.29L177.13,16L177.18,16L177.87,290.29L177.93,16L177.96,252.75L178.03,275.85L178.74,16L178.79,209.44L178.86,16L179.07,272.96L179.52,16L179.55,16L179.59,289.64L180.29,242.65L180.33,88.18L180.37,16L180.66,302L181.08,122.83L181.1,122.83L181.14,16L181.14,281.62L181.81,16L181.89,39.1L181.89,281.62L181.91,16L182.61,16L182.81,16L182.97,296.06L183.53,16L183.57,16L183.86,290.29L184.32,195.01L184.43,125.71L184.53,16L185.08,267.19L185.1,16L185.13,16L185.48,296.06L185.89,272.96L185.89,47.76L186.04,288.84L186.53,16L186.53,178.41L186.58,16L187.1,291.73L187.28,189.23L187.28,169.02L187.84,298.95L187.85,16L188,86.23L188.08,177.68L188.09,16L188.7,301.86L188.83,64.12L188.84,16L189.22,300.39L189.59,16L189.6,16L189.75,300.39L190.35,16L190.36,16L190.8,281.62L191.03,183.46L191.03,16L191.1,35.91L191.1,303.28L191.82,16L191.83,220.99L191.93,16L192.35,298.95L192.63,16L192.69,16L193.14,281.62L193.27,246.98L193.28,16L193.78,287.4L194,16L194.09,70.86L194.14,16L194.22,296.06L194.84,197.89L194.85,16L194.91,298.95L195.54,16L195.67,16L196.4,301.83L196.4,35.25L196.43,16L196.99,301.83L197.04,285.95L197.23,16L197.43,16L197.43,16L197.46,259.81L197.46,16L197.81,303.28L198.15,267.19L198.24,16L198.54,296.06L198.98,229.65L199.01,16L199.09,293.17L199.77,231.1L199.81,16L200.32,284.51L200.58,121.38L200.61,16L201.09,293.17L201.36,16L201.4,44.87L201.48,16L201.9,302.23L202.13,24.66L202.16,16L202.18,303.28L202.86,16L202.94,16L203.03,301.83L203.7,232.54L203.78,160.36L204.24,289.56L204.53,16L204.55,16L204.72,270.08L205.23,252.75L205.31,16L205.94,298.95L206.09,229.65L206.1,16L206.25,303.28L206.82,208L206.87,16L207.4,298.95L207.53,16L207.64,16L207.74,30.44L207.78,284.51L207.81,16L207.95,296.06L208.51,16L208.54,215.22L209.03,246.98L209.29,16L209.3,27.55L209.31,197.89L209.31,293.17L209.33,16L210.04,16L210.09,16L210.25,301.83L210.83,16L210.87,93.95L211.28,281.62L211.54,16L211.55,233.26L211.55,301.83L212.26,16L212.28,53.53L212.38,16L212.79,291.73L213.13,16L213.15,16L213.7,284.51L213.78,93.95L213.9,16L213.91,298.95L214.62,125.71L214.68,16L215.04,296.06L215.43,160.36L215.44,16L216.01,300.82L216.15,267.19L216.17,16L216.91,301.83L216.95,229.65L216.95,16L217.19,293.17L217.71,223.88L217.71,16L218.09,296.06L218.47,249.86L218.5,16L218.52,297.5L219.22,293.17L219.3,301.83L220.09,16L220.14,57.25L220.14,299.06L220.19,16L220.84,16L220.94,88.18L220.98,16L221.2,301.11L221.66,16L221.71,50.65L221.79,16L222.46,284.51L222.49,163.25L222.49,16L223.16,288.84L223.24,16L223.25,16L223.49,293.17L224,16L224.05,232.54L224.05,16L224.62,283.07L224.8,215.22L224.81,105.5L224.85,298.95L225.57,16L225.68,16L225.98,261.41L226.04,200.78L226.05,16L226.33,287.4L226.74,232.54L226.81,16L226.85,283.07L227.48,82.63L227.6,16L228.07,296.06L228.35,272.96L228.39,16L228.88,298.95L229.14,255.64L229.21,206.56L229.24,16L229.48,272.96L229.95,16L229.97,16L230.24,303.28L230.66,300.87L230.72,16L230.77,298.95L231.44,249.86L231.49,16L231.93,290.29L232.17,131.49L232.39,195.01L232.39,16L233.14,298.08L233.14,17.92L233.24,231.1L233.4,296.06L233.99,16L233.99,16L234.03,16L234.2,293.17L234.72,16L234.84,160.36L234.84,16L235.25,298.95L235.59,160.36L235.61,16L235.84,299.06L236.33,53.53L236.36,16L236.62,287.4L236.72,140.15L236.8,16L236.86,27.55L236.86,293.17L236.86,16L237.07,298.95L237.58,16L237.63,79.52L237.68,16L238.19,302.56L238.38,232.54L238.38,16L239.12,281.76L239.14,36.21L239.21,16L239.35,290.29L239.94,111.28L239.99,16L240.13,293.17L240.68,16L240.72,16L240.86,287.74L241.38,195.01L241.49,16L241.97,298.95L242.22,160.36L242.25,74.39L242.29,16L242.94,287.88L242.99,16L243.05,16L243.68,304L243.8,140.15L243.82,180.57L243.85,16L244.12,298.95L244.46,235.43L244.49,18.89L244.49,301.86L244.5,16L245.24,16L245.33,272.96L245.33,16L245.77,300.39L246.08,16L246.12,16L246.78,300.39L246.82,16L246.89,47.76L246.93,16L247.46,299.67L247.63,16L247.68,16L248,296.06L248.41,16L248.45,267.19L248.77,301.83L249.14,16L249.15,109.92L249.29,16L250.08,290.29L250.08,30.44L250.17,290.29L250.43,16L250.53,44.87L250.54,275.85L250.59,16L251.16,301.83L251.29,16L251.33,287.4L251.37,290.29L251.4,16L251.98,16L252.12,16L252.79,296.06L252.88,238.32L252.89,116.62L253,16L253.42,290.29L253.59,223.88L253.59,96.84L253.6,16L254.24,301.83L254.32,16L254.36,160.36L254.36,16L254.91,288.84L255.11,39.1L255.15,143.04L255.16,302.23L255.27,16L255.86,16L255.92,16L256.05,273.51L256.45,16L256.49,16L256.56,296.06L257.17,154.59L257.33,16L257.79,290.29L258.07,16L258.1,16L258.12,231.6L258.81,16L258.86,16L259.56,301.83L259.56,27.55L259.62,16L260.29,296.06L260.37,24.66L260.5,16L260.69,301.83L261.22,290.29L261.27,33.82L261.33,16L261.91,293.17L262.02,62.2L262.08,258.53L262.13,16L262.6,293.56L262.79,16L262.9,16L263.63,299.67L263.64,145.92L263.67,16L264.38,301.83L264.41,16L264.46,16L264.69,285.47L265.1,16L265.16,16L265.8,285.69L265.89,206.56L266.08,187.67L266.08,16L266.31,296.06L266.83,206.56L266.87,16L267.43,287.4L267.45,16L268.23,280.9L268.23,88.18L268.3,16L268.75,301.83L268.92,160.36L269.05,16L269.64,300.39L269.64,16L269.72,16L270.39,301.83L270.47,176.24L270.5,16L270.95,301.83L271.25,16L271.26,79.52L271.27,16L271.63,290.29L271.96,16L272.06,16L272.18,296.84L272.85,238.32L272.85,82.41L273.01,16L273.18,303.28L273.56,16L273.65,16L273.73,289.56L274.42,119.94L274.47,16L274.67,301.83L275.21,274.33L275.24,16L275.77,298.95L275.98,200.78L276.01,16L276.29,294.62L276.76,287.4L276.77,16L276.9,178.2L276.91,284.51L277.02,16L277.62,286.45L277.66,203.28L277.67,30.44L277.71,16L278.17,296.06L278.37,27.55L278.46,16L278.58,252.75L278.81,134.38L278.82,16L278.96,293.62L279.57,33.32L279.6,263.48L279.63,16L279.8,298.95L280.33,16L280.36,140.15L280.36,298.95L280.37,16L281.09,16L281.14,16L281.21,281.62L281.88,244.09L281.91,16L282.32,298.95L282.58,206.56L282.68,16L282.96,298.95L283.43,131.49L283.44,23.04L283.44,16L283.58,287.4L284.19,192.12L284.21,16L284.91,300.39L284.96,24.66L284.98,24.66L285.08,16L285.1,296.06L285.73,190.68L285.75,16L286.37,296.06L286.5,140.15L286.52,16L287.21,278.17L287.21,16L287.35,16L287.46,293.17L288.11,189.23L288.12,16L288.31,16L288.33,206.56L288.38,16L288.88,301.83L289.08,16L289.13,122.83L289.14,16L289.44,301.83L289.86,16L289.93,218.11L289.93,16L290.24,296.06L290.68,16L290.69,266.47L290.72,278.74L291.44,16L291.44,296.06L292.22,16L292.22,16L292.27,16L292.7,293.17L293,16L293.06,16L293.47,296.06L293.81,105.5L293.82,16L294.56,291.73L294.57,16L294.58,261.41L294.58,296.06L294.58,16L295.33,117.05L295.34,157.47L296.03,272.24L296.03,16L296.05,192.12L296.05,252.75L296.05,16L296.57,280.04L296.79,182.23L296.81,137.26L297.27,298.95L297.58,16L297.59,270.08L297.63,16L298.27,301.86L298.27,18.89L298.36,16L298.56,298.95L298.98,40.75L298.99,16L299.27,301.83L299.68,209.44L299.68,16L299.71,298.95L300.42,209.44L300.45,16L300.76,303.28L301.11,16L301.23,67.97L301.36,293.17L301.98,16L301.98,252.75L302.57,292.81L302.71,16L302.71,252.75L302.74,177.68L302.76,16L303.15,288.12L303.39,258.53L303.52,27.55L303.52,16L303.66,299.06L304.26,163.25L304.29,166.25L304.41,300.39L304.83,16L304.89,169.02L304.9,287.4L304.9,16L305.4,300.39L305.54,16L305.66,16L306.17,301.83L306.38,16L306.42,192.12L306.55,301.83L307.08,16L307.08,16L307.21,79.52L307.21,16L307.27,301.83L307.96,119.94L308.04,16L308.24,278.74L308.24,16L309.01,278.74L309.12,16L309.15,278.74L309.59,16L309.6,16L310.21,282.59L310.31,108.39L310.37,16L310.73,290.29L311.07,169.02L311.18,16L311.42,301.83L311.92,16L311.95,16L312.68,301.83L312.72,245.02L312.72,215.22L312.72,16L312.8,287.74L313.41,195.01L313.49,16L313.51,298.95L314.21,290.29L314.25,16L314.72,296.06L314.96,91.07L315.04,24.66L315.04,16L315.78,293.17L315.78,16L315.82,298.95L315.82,16L316.57,16L316.58,16L316.58,282.35L317.27,39.1L317.38,16L317.93,293.17L317.93,16L318.19,293.17L318.61,16L318.68,16L319.41,302.56L319.42,105.5L319.44,16L319.62,301.83L319.89,244.09L319.89,16L320.14,298.95L320.39,16L320.49,16L321.25,301.83L321.27,16L321.37,216.66L321.37,204.39L321.41,301.83L322.12,16L322.18,16L322.22,18.89L322.22,301.83L322.98,16L322.99,238.32L323.01,16L323.65,303.28L323.74,16L323.77,16L323.9,301.83L324.41,16L324.46,16L324.9,301.83L325.05,131.49L325.06,16L325.43,301.83L325.8,288.12L325.89,27.55L325.94,301.83L326.16,16L326.19,27.55L326.22,293.17L326.22,16L326.24,301.83L326.97,285.83L326.99,36.21L327,16L327.4,301.83L327.66,16L327.74,16L327.81,283.07L328.41,105.5L328.52,16L328.69,293.17L329.24,16L329.27,16L329.71,287.4L329.98,16L330.12,16L330.68,301.83L330.68,20.58L330.74,16L330.74,16L330.74,218.11L330.74,16L330.88,290.29L331.46,16L331.61,186.35L332.01,297.5L332.27,16L332.33,287.4L332.37,287.4L332.41,16L332.94,298.95L333.11,16L333.16,102.62L333.17,16L333.23,273.79L333.87,16L333.92,298.95L333.96,16L334.35,303.28L334.66,16L334.7,289.32L334.72,16L334.73,298.95L335.43,275.85L335.48,16L335.76,301.83L336.29,251.31L336.29,16L336.54,301.83L337,261.41L337.07,59.31L337.11,16L337.4,267.19L337.64,128.6L337.65,16L337.85,301.83L338.42,209.44L338.42,16L338.61,293.17L339.17,212.33L339.24,108.39L339.3,16L339.63,301.83L339.94,16L340,88.18L340.11,16L340.5,299.67L340.58,278.32L340.77,16L341.46,301.83L341.48,16L341.58,16L341.67,303.28L342.32,246.98L342.44,16L342.96,301.83L343.18,16L343.23,16L343.91,303.76L343.98,16L344.02,16L344.55,275.85L344.61,16L344.62,16L344.71,300.6L345.35,50.65L345.36,16L345.44,287.4L346.11,258.53L346.12,16L346.28,298.95L346.84,50.65L346.89,50.65L346.92,16L346.92,293.17L347.57,16L347.75,235.43L347.84,16L348.16,290.29L348.49,252.75L348.51,16L348.71,300.87L349.26,203.67L349.29,16L349.31,298.95L350.01,16L350.06,16L350.67,298.71L350.8,261.72L350.83,203.67L350.85,16L351.31,301.65L351.56,16L351.62,296.06L351.62,16L352.3,287.4L352.4,16L353.14,301.83L353.2,18.89L353.26,16L353.27,202.95L353.29,301.83L353.52,16L353.67,16L353.7,16L354.35,293.17L354.42,169.02L354.46,16L354.54,296.06L355.03,252.75L355.13,16L355.6,290.29L355.87,16L355.92,238.32L355.94,299.91L356.57,16L356.57,16L356.63,287.4L356.66,16L357.37,16L357.4,238.09L357.41,16L358.07,296.06L358.1,195.01L358.17,125.71L358.75,301.83L358.88,16L358.88,16L359,16L359.01,301.83L359.73,174.8L359.82,16L360.34,298.95L360.55,235.43L360.58,16L360.88,294.62L361.38,270.08L361.38,25.52L361.44,16L361.56,298.95L362.13,218.11L362.2,16L362.37,16L362.44,30.44L362.46,290.29L362.49,16L363.15,254.2L363.23,16L363.91,284.51L363.92,36.21L364.01,16L364.72,279.25L364.72,16L364.79,257.8L364.8,16L365.43,301.11L365.53,16L365.6,16L365.65,301.83L366.33,267.19L366.37,16L366.56,287.4L367.12,245.53L367.12,16L367.38,301.83L367.7,189.23L367.75,21.77L367.75,298.95L367.83,16L368.5,16L368.51,16L368.53,301.11L369.25,16L369.3,246.98L369.3,16L369.72,290.29L370.03,278.74L370.14,219.55L370.14,16L370.79,299.67L370.85,294.62L370.9,16L371.34,293.17L371.67,258.53L371.69,16L372.21,298.95L372.47,268.63L372.47,16L373.1,298.97L373.23,144.48L373.26,16L373.71,294.62L374,16L374.02,16L374.77,287.4L374.89,16L375.12,252.75L375.23,174.8L375.29,16L375.61,296.06L376.05,238.56L376.08,16L376.15,293.17L376.8,16L376.83,85.29L376.83,16L377.46,275.85L377.52,16L377.61,16L377.78,283.79L378.35,137.26L378.41,16L378.89,287.4L379.12,16L379.17,16L379.9,296.06L379.95,69.83L379.95,16L380.03,296.06L380.69,16L380.74,16L380.84,44.87L380.84,16L380.84,251.54L381.48,16L381.5,289.56L381.53,177.68L381.64,293.17L381.65,16L382.38,16L382.4,246.98L382.41,287.4L382.41,16L383.08,16L383.13,16L383.71,298.95L383.88,258.53L383.9,16L384.19,284.51L384.36,180.57L384.42,16L384.77,294.59L385.17,293.17L385.18,38.21L385.6,293.17L385.94,16L385.94,16L385.95,160.36L385.95,16L386,296.06L386.7,108.39L386.71,16L386.83,297.5L387.46,16L387.47,16L387.66,16L387.66,16L387.66,298.95L388.4,16L388.43,16L388.51,282.13L388.52,269.35L388.54,16L388.8,16L388.8,267.19L388.82,301.83L389.55,16L389.58,166.14L389.61,16L389.86,298.95L390.31,229.65L390.34,16L390.51,300.87L391.08,75.14L391.19,255.64L391.19,16L391.94,301.83L391.94,16L391.96,301.83L392,16L392.71,16L392.72,239.76L392.84,287.4L393.47,16L393.47,16L393.54,16L393.65,299.67L394.13,180.98L394.22,16L394.59,296.06L394.96,139.74L394.99,27.55L394.99,293.17L395.06,16L395.72,16L395.77,183.46L395.92,301.83L396.32,16L396.33,23.22L396.38,290.29L396.89,301.11L397.17,16L397.17,16L397.18,41.98L397.2,16L397.75,298.95L397.79,225.07L397.83,16L397.86,293.17L398.56,16L398.57,16L398.92,293.17L399.29,16L399.33,16L399.4,303.28L400.08,16L400.11,264.3L400.2,16L400.66,298.95L400.86,246.06L400.87,301.83L401.59,16L401.61,166.14L401.66,16L401.89,293.17L402.36,66.21L402.46,16L402.58,252.75L403.21,16L403.29,275.85L403.29,16L403.91,290.29L404.04,16L404.07,16L404.1,293.89L404.82,16L404.91,293.17L404.96,16L404.99,298.95L405.56,212.33L405.73,108.39L405.79,16L405.85,294.62L406.47,16L406.51,16L406.84,301.83L407.25,16L407.28,16L407.34,284.51L408.04,203.9L408.05,16L408.32,298.95L408.72,169.98L408.81,16L409.42,284.51L409.56,16L409.59,36.21L409.6,16L410.34,301.83L410.43,39.1L410.47,16L411.08,299.06L411.17,16L411.19,99.65L411.21,16L411.91,293.17L411.95,16L412.65,301.83L412.66,47.76L412.7,18.89L412.72,16L413.24,275.85L413.44,53.53L413.47,16L414.07,298.95L414.22,16L414.23,258.53L414.23,16L414.92,298.95L414.96,16L415.02,16L415.2,258.53L415.25,76.63L415.32,16L415.86,301.83L416.05,16L416.09,16L416.14,304L416.84,192.12L416.84,16L417.08,290.97L417.58,65.08L417.62,274.33L417.62,16L417.68,298.95L418.28,16L418.43,67.97L418.61,278.74L418.74,16L418.74,160.36L418.81,252.75L418.81,16L418.81,298.95L419.55,88.18L419.57,128.6L419.74,281.62L420.17,16L420.24,39.1L420.24,297.02L420.89,16L420.97,215.22L421.05,105.5L421.05,16L421.42,282.51L421.76,237.59L421.82,16L422.3,284.51L422.57,16L422.63,102.62L422.68,16L423.18,296.78L423.38,187.79L423.45,16L424.2,301.83L424.2,16L424.24,303.28L424.95,16L424.97,16L425.02,298.23L425.64,16L425.76,36.21L425.84,16L425.9,298.95L426.47,16L426.53,16L426.55,293.89L426.63,16L426.67,16L426.9,296.06L427.36,16L427.44,16L427.53,275.85L427.62,16L427.94,304L428.35,16L428.38,16L428.81,290.29L429.14,249.86L429.19,16L429.77,285.15L429.95,171.91L430.11,255.64L430.12,16L430.17,261.41L430.79,65.08L430.88,16L431.28,301.2L431.62,246.98L431.64,73.74L431.66,16L432.03,288.84L432.36,100.09L432.4,16L432.75,285.95L433.15,16L433.16,16L433.21,288.84L433.9,16L433.94,215.22L434.22,299.43L434.7,16L434.7,111.28L434.71,151.7L435.29,301.83L435.45,16L435.45,108.39L435.45,212.33L436.08,281.44L436.14,16L436.14,16L436.14,283.79L436.49,301.83L436.88,16L436.88,96.84L436.95,246.98L437.03,16L437.7,290.29L437.71,140.15L437.71,16L438.09,293.17L438.44,183.46L438.5,183.46L438.55,16L438.99,296.06L439.2,251.31L439.29,16L439.95,296.06L440.02,284.51L440.06,16L440.54,301.83L440.61,102.62L440.71,102.62L440.87,290.29L441.45,16L441.45,160.36L441.47,16L442.14,293.83L442.17,126.74L442.21,174.8L442.21,16L442.34,301.83L442.96,261.22L442.97,272.96L443.26,294.62L443.72,16L443.72,298.95L443.78,16L444.46,16L444.5,229.65L445.15,288.93L445.21,16L445.22,205.09L445.28,16L445.92,293.62L446.03,16L446.06,249.86L446.11,16L446.13,293.17L446.79,114.17L446.82,16L447.46,298.95L447.51,21.77L447.57,16L447.96,303.28L448.21,90.51L448.28,180.57L448.74,16L448.74,301.86L448.74,16L448.85,246.98L448.85,16L449.34,301.83L449.59,16L449.67,16L449.79,41.98L449.79,16L449.82,290.29L449.82,16L450.44,301.83L450.57,16L450.62,92.43L450.66,16L450.89,302.56L451.35,183.46L451.41,258.53L451.42,16L451.63,272.96L452.14,16L452.2,16L452.79,293.17L452.92,203.67L452.98,16L453.65,299.67L453.69,184.42L453.75,290.29L453.76,16L453.96,298.95L454.5,88.18L454.51,16L454.57,283.34L454.68,88.18L454.7,16L455.4,287.4L455.47,272.96L455.53,16L456.16,281.62L456.27,280.88L456.31,16L456.63,301.83L457.04,16L457.07,255.64L457.11,16L457.5,301.83L457.82,16L457.83,16L458.54,285.83L458.54,56.42L458.61,16L458.77,301.83L459.37,105.5L459.39,16L459.79,304L460.14,226.77L460.15,16L460.26,22.87L460.26,16L460.28,299.67L460.28,16L460.95,160.36L461.06,96.84L461.12,16L461.37,287.4L461.81,16L461.82,16L462.3,301.83L462.52,226.77L462.58,16L462.74,301.83L463.34,192.12L463.35,16L463.71,288.84L463.78,16L463.85,293.17L464.49,244.09L464.54,16L465.19,284.51L465.29,16L465.3,108.39L465.4,278.74L465.42,16L465.99,186.35L466.02,16L466.7,287.4L466.78,69.19L466.81,16L467.09,287.4L467.58,241.2L467.61,16L467.92,297.66L468.25,169.02L468.27,16L468.63,299.67L468.96,131.49L469.08,16L469.54,300.39L469.83,16L469.84,231.1L469.84,16L470.46,300.39L470.58,16L470.6,290.61L470.64,296.06L471.31,16L471.39,16L471.74,301.83L472.12,16L472.15,16L472.38,289.66L472.87,79.52L472.91,79.52L472.93,16L473.57,278.74L473.66,145.92L473.7,210.89L473.7,16L474.31,232.54L474.39,16L474.46,16L475.02,298.95L475.13,264.36L475.23,16L475.58,301.83L475.93,235.43L475.93,16L475.93,298.83L476.68,16L476.74,203.67L476.74,16L476.74,281.62L477.48,16L477.52,16L478.02,281.62L478.27,96.84L478.33,96.84L478.35,16L479.06,303.67L479.06,59.31L479.09,16L479.3,293.17L479.83,155.01L479.9,56.42L479.94,16L480,299.06L480.62,16L480.66,16L481.25,273.68L481.36,232.54L481.52,16L481.68,296.06L482.27,16L482.28,16L482.62,301.83L482.97,16L483.05,145.92L483.08,16L483.57,298.95L483.73,16L483.81,53.53L483.81,16L484.34,301.83L484.54,16L484.63,16L485.07,298.95L485.37,192.12L485.43,128.6L485.52,16L485.6,290.29L486.11,16L486.23,16L486.74,296.06L486.98,260.3L487.05,16L487.7,287.4L487.76,16L487.81,16L488.53,301.11L488.54,16L488.57,30.44L488.59,16L489.17,302.56L489.32,226.77L489.38,36.62L489.49,298.95L489.59,16L489.83,16L489.86,16L490.44,301.89L490.61,277.48L490.63,30.44L490.65,298.95L490.66,16L491.33,16L491.4,91.07L491.5,16L491.67,298.95L491.97,16L492.18,258.53L492.18,16L492.47,298.95L492.88,16L492.95,16L493,284.51L493.2,232.54L493.2,16L493.31,249.86L493.58,157.47L493.63,16L493.79,287.4L494.32,270.08L494.43,16L494.7,301.83L495.13,16L495.19,16L495.83,298.95L495.93,212.33L495.98,16L496.66,298.95L496.68,16L496.71,16L497.05,296.06L497.37,160.36L497.48,16L497.57,296.06L498.22,235.43L498.26,16L498.5,294.14L498.97,16L499.01,36.21L499.05,16L499.19,298.95L499.76,33.32L499.78,16L500.45,301.83L500.52,39.1L500.62,16L500.66,293.17L501.35,16L501.38,16L501.56,296.06L501.78,16L501.8,16L501.89,293.62L502.53,16L502.57,16L502.91,258.53L503.33,246.98L503.4,73.74L503.49,293.17L504.04,16L504.04,16L504.08,249.86L504.35,272.96L504.76,16L504.81,270.08L504.87,105.5L504.92,16L505.58,270.65L505.61,16L505.63,262.14L506.09,283.79L506.35,16L506.38,50.65L506.39,270.08L507.06,296.06L507.16,16L507.18,16L507.59,296.06L507.93,16L507.97,16L508.36,296.06L508.69,218.11L508.74,16L509.12,298.95L509.41,166.14L509.41,16L509.72,298.95L510.02,231.1L510.02,16L510.32,287.4L510.36,44.87L510.36,16L510.36,287.4L511,70.86" style="vector-effect: non-scaling-stroke; fill: none; stroke: rgb(99, 110, 250); stroke-opacity: 1; stroke-width: 2px; opacity: 1;"/></g><g class="points"/><g class="text"/></g></g></g><g class="overplot"/><path class="xlines-above crisp" d="M0,0" style="fill: none;"/><path class="ylines-above crisp" d="M0,0" style="fill: none;"/><g class="overlines-above"/><g class="xaxislayer-above"><g class="xtick"><text text-anchor="middle" x="0" y="436" transform="translate(198.19,0)" style="font-family: 'Times New Roman'; font-size: 15px; fill: rgb(13, 13, 13); fill-opacity: 1; white-space: pre; opacity: 1;">1.61252×10​<tspan style="font-size:70%" dy="-0.6em">18</tspan><tspan dy="0.42em">​</tspan></text></g><g class="xtick"><text text-anchor="middle" x="0" y="436" style="font-family: 'Times New Roman'; font-size: 15px; fill: rgb(13, 13, 13); fill-opacity: 1; white-space: pre; opacity: 1;" transform="translate(299.59000000000003,0)">1.612525×10​<tspan style="font-size:70%" dy="-0.6em">18</tspan><tspan dy="0.42em">​</tspan></text></g><g class="xtick"><text text-anchor="middle" x="0" y="436" style="font-family: 'Times New Roman'; font-size: 15px; fill: rgb(13, 13, 13); fill-opacity: 1; white-space: pre; opacity: 1;" transform="translate(401,0)">1.61253×10​<tspan style="font-size:70%" dy="-0.6em">18</tspan><tspan dy="0.42em">​</tspan></text></g><g class="xtick"><text text-anchor="middle" x="0" y="436" style="font-family: 'Times New Roman'; font-size: 15px; fill: rgb(13, 13, 13); fill-opacity: 1; white-space: pre; opacity: 1;" transform="translate(502.4,0)">1.612535×10​<tspan style="font-size:70%" dy="-0.6em">18</tspan><tspan dy="0.42em">​</tspan></text></g><g class="xtick"><text text-anchor="middle" x="0" y="436" style="font-family: 'Times New Roman'; font-size: 15px; fill: rgb(13, 13, 13); fill-opacity: 1; white-space: pre; opacity: 1;" transform="translate(603.8,0)">1.61254×10​<tspan style="font-size:70%" dy="-0.6em">18</tspan><tspan dy="0.42em">​</tspan></text></g></g><g class="yaxislayer-above"><g class="ytick"><text text-anchor="end" x="108" y="12.25" transform="translate(0,404.72)" style="font-family: 'Times New Roman'; font-size: 35px; fill: rgb(13, 13, 13); fill-opacity: 1; white-space: pre; opacity: 1;">0</text></g><g class="ytick"><text text-anchor="end" x="108" y="12.25" style="font-family: 'Times New Roman'; font-size: 35px; fill: rgb(13, 13, 13); fill-opacity: 1; white-space: pre; opacity: 1;" transform="translate(0,346.98)">20</text></g><g class="ytick"><text text-anchor="end" x="108" y="12.25" style="font-family: 'Times New Roman'; font-size: 35px; fill: rgb(13, 13, 13); fill-opacity: 1; white-space: pre; opacity: 1;" transform="translate(0,289.23)">40</text></g><g class="ytick"><text text-anchor="end" x="108" y="12.25" style="font-family: 'Times New Roman'; font-size: 35px; fill: rgb(13, 13, 13); fill-opacity: 1; white-space: pre; opacity: 1;" transform="translate(0,231.49)">60</text></g><g class="ytick"><text text-anchor="end" x="108" y="12.25" style="font-family: 'Times New Roman'; font-size: 35px; fill: rgb(13, 13, 13); fill-opacity: 1; white-space: pre; opacity: 1;" transform="translate(0,173.74)">80</text></g><g class="ytick"><text text-anchor="end" x="108" y="12.25" style="font-family: 'Times New Roman'; font-size: 35px; fill: rgb(13, 13, 13); fill-opacity: 1; white-space: pre; opacity: 1;" transform="translate(0,116)">100</text></g></g><g class="overaxes-above"/></g></g><g class="polarlayer"/><g class="smithlayer"/><g class="ternarylayer"/><g class="geolayer"/><g class="funnelarealayer"/><g class="pielayer"/><g class="iciclelayer"/><g class="treemaplayer"/><g class="sunburstlayer"/><g class="glimages"/><defs id="topdefs-b376b4"><g class="clips"/></defs><g class="layer-above"><g class="imagelayer"/><g class="shapelayer"/></g><g class="infolayer"><g class="g-gtitle"/><g class="g-xtitle"><text class="xtitle" x="364.5" y="463.8" text-anchor="middle" style="font-family: 'Open Sans', verdana, arial, sans-serif; font-size: 14px; fill: rgb(42, 63, 95); opacity: 1; font-weight: normal; white-space: pre;">Time Steps (ns)</text></g><g class="g-ytitle" transform="translate(23.5,0)"><text class="ytitle" transform="rotate(-90,12.5,260)" x="12.5" y="260" text-anchor="middle" style="font-family: 'Times New Roman'; font-size: 40px; fill: rgb(13, 13, 13); opacity: 1; font-weight: normal; white-space: pre;">Fill rate (in %)</text></g></g></svg>