<svg class="main-svg" xmlns="http://www.w3.org/2000/svg" xmlns:xlink="http://www.w3.org/1999/xlink" width="700" height="500" style="" viewBox="0 0 700 500"><rect x="0" y="0" width="700" height="500" style="fill: rgb(255, 255, 255); fill-opacity: 1;"/><defs id="defs-95ae18"><g class="clips"><clipPath id="clip95ae18xyplot" class="plotclip"><rect width="511" height="320"/></clipPath><clipPath class="axesclip" id="clip95ae18x"><rect x="109" y="0" width="511" height="500"/></clipPath><clipPath class="axesclip" id="clip95ae18y"><rect x="0" y="100" width="700" height="320"/></clipPath><clipPath class="axesclip" id="clip95ae18xy"><rect x="109" y="100" width="511" height="320"/></clipPath></g><g class="gradients"/><g class="patterns"/></defs><g class="bglayer"><rect class="bg" x="109" y="100" width="511" height="320" style="fill: rgb(229, 236, 246); fill-opacity: 1; stroke-width: 0;"/></g><g class="layer-below"><g class="imagelayer"/><g class="shapelayer"/></g><g class="cartesianlayer"><g class="subplot xy"><g class="layer-subplot"><g class="shapelayer"/><g class="imagelayer"/></g><g class="minor-gridlayer"><g class="x"/><g class="y"/></g><g class="gridlayer"><g class="x"><path class="xgrid crisp" transform="translate(198.17000000000002,0)" d="M0,100v320" style="stroke: rgb(255, 255, 255); stroke-opacity: 1; stroke-width: 1px;"/><path class="xgrid crisp" transform="translate(299.57,0)" d="M0,100v320" style="stroke: rgb(255, 255, 255); stroke-opacity: 1; stroke-width: 1px;"/><path class="xgrid crisp" transform="translate(400.98,0)" d="M0,100v320" style="stroke: rgb(255, 255, 255); stroke-opacity: 1; stroke-width: 1px;"/><path class="xgrid crisp" transform="translate(502.38,0)" d="M0,100v320" style="stroke: rgb(255, 255, 255); stroke-opacity: 1; stroke-width: 1px;"/><path class="xgrid crisp" transform="translate(603.79,0)" d="M0,100v320" style="stroke: rgb(255, 255, 255); stroke-opacity: 1; stroke-width: 1px;"/></g><g class="y"><path class="ygrid crisp" transform="translate(0,346.86)" d="M109,0h511" style="stroke: rgb(255, 255, 255); stroke-opacity: 1; stroke-width: 1px;"/><path class="ygrid crisp" transform="translate(0,289.15)" d="M109,0h511" style="stroke: rgb(255, 255, 255); stroke-opacity: 1; stroke-width: 1px;"/><path class="ygrid crisp" transform="translate(0,231.43)" d="M109,0h511" style="stroke: rgb(255, 255, 255); stroke-opacity: 1; stroke-width: 1px;"/><path class="ygrid crisp" transform="translate(0,173.72)" d="M109,0h511" style="stroke: rgb(255, 255, 255); stroke-opacity: 1; stroke-width: 1px;"/><path class="ygrid crisp" transform="translate(0,116)" d="M109,0h511" style="stroke: rgb(255, 255, 255); stroke-opacity: 1; stroke-width: 1px;"/></g></g><g class="zerolinelayer"><path class="yzl zl crisp" transform="translate(0,404.58)" d="M109,0h511" style="stroke: rgb(255, 255, 255); stroke-opacity: 1; stroke-width: 2px;"/></g><path class="xlines-below"/><path class="ylines-below"/><g class="overlines-below"/><g class="xaxislayer-below"/><g class="yaxislayer-below"/><g class="overaxes-below"/><g class="plot" transform="translate(109,100)" clip-path="url(#clip95ae18xyplot)"><g class="scatterlayer mlayer"><g class="trace scatter traced2af3f" style="stroke-miterlimit: 2; opacity: 1;"><g class="fills"/><g class="errorbars"/><g class="lines"><path class="js-line" d="M0,16L0.05,278.61L0.39,47.74L0.46,16L0.7,16L0.7,160.29L1.05,300.97L1.43,16L1.43,16L1.47,275.72L1.5,16L1.72,301.69L2.17,197.8L2.24,16L2.57,264.77L2.9,65.06L3.03,228.59L3.05,16L3.59,285.7L3.77,177.6L3.79,252.63L4.23,298.81L4.57,16L4.62,16L5.27,284.38L5.29,99.69L5.36,36.2L5.38,16L6,293.03L6.1,16L6.15,62.17L6.28,16L6.4,278.61L6.82,16L6.96,16L7.66,278.61L7.69,16L7.78,16L8.37,287.26L8.37,85.26L8.47,16L8.53,288.55L9.13,16L9.26,16L9.35,30.43L9.41,16L9.42,290.15L9.85,298.81L10.17,16L10.19,226.58L10.19,16L10.59,288.71L10.7,16L10.98,16L11.72,297.84L11.73,36.2L11.82,16L12.45,298.81L12.45,16L12.62,16L12.83,293.03L13.33,16L13.4,16L13.58,16L13.58,16L13.61,119.89L13.62,300.25L14.36,16L14.37,201.51L14.37,298.08L14.39,16L15.1,16L15.13,16L15.18,290.15L15.82,142.97L15.99,142.97L15.99,16L16.64,290.15L16.7,16L16.8,16L17.57,290.15L17.57,30.43L17.61,229.55L17.97,16L17.99,298.92L18.65,16L18.65,16L18.68,298.81L18.75,16L19.41,16L19.45,16L19.51,255.52L20.09,16L20.14,16L20.19,302.41L20.86,16L20.94,16L21.18,295.92L21.7,249.75L21.7,70.83L21.76,16L22.29,267.06L22.43,16L22.45,16L22.62,16L22.63,194.92L22.66,16L22.73,290.15L23.3,16L23.46,16L23.58,272.83L23.85,16L23.91,16L24.37,298.81L24.65,232.43L24.7,16L24.99,303.86L25.28,293.03L25.3,16L25.31,258.4L26,16L26.08,200.69L26.68,302.41L26.78,16L26.81,85.26L26.83,235.32L26.83,295.92L26.87,16L27.57,122.77L27.64,16L27.82,16L27.83,255.52L27.86,16L28.1,301.69L28.57,16L28.61,16L28.71,297.36L29.33,209.35L29.38,111.23L29.38,16L29.53,295.92L30.1,215.12L30.14,16L30.46,269.95L30.88,261.29L30.9,16L30.91,269.95L31.63,16L31.67,16L31.82,27.54L31.82,293.03L32.1,298.81L32.55,16L32.55,16L32.61,16L32.79,16L32.79,122.77L33.05,292.55L33.5,16L33.52,282.93L34.1,290.15L34.2,16L34.26,212.23L34.3,16L34.51,301.69L34.99,200.69L35.03,186.26L35.07,16L35.51,290.15L35.78,16L35.83,113.61L35.9,16L36.34,299.53L36.35,284.38L36.41,16L36.5,41.97L36.59,16L36.59,278.61L36.64,16L37.27,286.54L37.31,275.72L37.47,222.13L37.47,16L37.71,301.37L38.22,16L38.23,16L38.8,281.49L38.94,184.71L39,16L39.12,281.49L39.71,269.95L39.79,16L40.41,293.03L40.52,32.98L40.55,246.86L41.27,295.92L41.33,16L41.35,168.95L41.37,16L41.55,301.69L42.04,226.66L42.17,226.66L42.4,284.38L42.84,16L42.91,180.49L42.98,157.01L43.15,16L43.44,286.72L43.69,76.6L43.76,65.06L43.97,298.81L44.52,16L44.52,16L44.56,222.33L45.12,290.15L45.21,16L45.21,235.32L45.27,16L45.68,298.81L45.96,108.34L46,16L46.07,269.95L46.3,16L46.31,16L46.43,300.97L47.06,174.72L47.11,16L47.23,47.74L47.23,272.83L47.4,288.55L47.95,16L47.99,102.57L48.08,16L48.16,293.03L48.7,16L48.74,16L49.32,302.41L49.53,295.92L49.53,24.66L49.54,295.92L49.57,16L50.27,154.52L50.29,16L50.44,290.87L51.04,16L51.08,16L51.12,302.85L51.82,68.67L51.88,183.37L51.88,16L52.22,298.81L52.63,197.8L52.66,16L52.74,301.69L53.4,16L53.44,16L53.85,301.69L54.14,186.26L54.27,16L54.33,284.38L55.02,254.08L55.07,16L55.38,295.92L55.73,168.95L55.83,16L56.44,301.69L56.58,53.52L56.59,76.6L56.63,16L56.82,303.86L57.34,16L57.37,160.29L57.37,16L58.03,298.81L58.08,16L58.13,16L58.16,301.69L58.84,220.89L59,99.69L59.05,16L59.13,301.69L59.74,16L59.78,16L59.81,293.03L60.53,16L60.54,16L60.54,287.26L61.24,212.76L61.32,16L61.46,287.26L62.07,62.17L62.11,258.4L62.11,16L62.21,298.81L62.85,264.18L62.96,131.43L62.97,16L63.42,276.44L63.71,16L63.74,264.9L63.79,16L64.39,290.15L64.47,16L64.55,16L64.72,16L64.72,16L64.73,53.52L64.76,16L64.85,301.69L65.41,16L65.51,16L65.68,295.92L66.24,16L66.28,16L66.83,280.53L66.97,16L67.03,16L67.84,275.72L67.84,44.86L67.96,16L67.96,275.72L68.34,290.73L68.72,16L68.72,261.29L69.42,290.15L69.45,16L69.51,16L69.89,287.26L70.13,16L70.22,16L70.31,284.38L70.79,233.88L70.79,16L70.95,301.69L71.5,50.1L71.7,16L71.74,295.92L72.45,16L72.52,16L72.96,301.69L73.27,16L73.28,67.94L73.35,16L73.41,298.81L73.96,16L74.06,16L74.72,300.25L74.84,160.29L74.84,16L75.42,301.69L75.58,67.94L75.61,16L76.06,290.15L76.34,125.66L76.38,73.72L76.5,16L76.56,293.03L77.1,16L77.15,33.31L77.22,16L77.37,293.19L77.9,82.37L77.94,16L78.13,293.76L78.7,177.6L78.73,246.86L78.74,16L79.25,302.41L79.47,16L79.5,213.68L79.5,16L80.09,290.15L80.22,16L80.31,16L80.97,295.92L81.06,16L81.11,16L81.58,293.03L81.86,16L81.9,16L82.22,287.26L82.64,16L82.69,215.12L82.7,16L83.24,291.59L83.44,157.4L83.51,16L83.81,293.03L84.26,16L84.27,16L84.78,292.3L85.07,281.49L85.07,16L85.44,301.47L85.73,254.08L85.83,117L85.88,261.29L86.45,16L86.55,128.55L86.59,192.03L87.17,284.38L87.31,16L87.32,283.2L87.46,16L87.86,284.38L88.07,16L88.12,16L88.48,296.88L88.86,270.22L88.9,44.86L89.03,299.13L89.31,16L89.32,18.89L89.32,301.72L90.11,16L90.11,208.38L90.25,301.72L90.7,16L90.79,174.72L90.85,272.83L90.85,16L91.12,298.81L91.58,157.4L91.61,264.18L91.64,16L91.75,298.81L92.35,16L92.37,272.83L92.63,282.93L93.15,16L93.17,16L93.46,295.46L93.76,16L93.81,16L94.07,287.26L94.46,16L94.66,16L94.79,269.95L95.4,148.75L95.45,16L96.21,303.13L96.21,21.77L96.37,298.81L96.64,16L96.67,137.2L96.67,189.15L96.67,298.81L96.7,16L97.4,39.09L97.44,41.97L97.45,16L97.99,301.69L98.18,186.74L98.22,16L98.57,275.72L98.97,200.69L99.03,96.8L99.09,16L99.58,293.03L99.78,16L99.8,16L100.42,303.13L100.5,16L100.58,16L101.1,283.04L101.33,16L101.34,16L101.58,269.14L102.04,16L102.11,16L102.56,296.33L102.77,118.4L102.77,16L102.79,298.81L103.47,203.58L103.53,16L103.62,300.43L104.29,267.06L104.29,61.56L104.35,16L104.9,293.48L104.98,16L105.01,16L105.21,293.03L105.76,114.12L105.77,16L106.24,298.81L106.5,298.81L106.57,287.26L106.63,16L106.67,297.36L107.32,16L107.35,16L107.39,302.41L108.09,16L108.16,173.27L108.18,16L108.76,300.73L108.91,36.2L108.96,73.72L108.97,16L109.42,301.72L109.7,21.77L109.71,16L110.04,16L110.1,241.09L110.14,301.69L110.14,16L110.82,169.66L110.82,16L111.57,299.77L111.62,258.4L112.11,277.88L112.36,16L112.37,296.98L112.62,303.13L113.11,16L113.11,16L113.14,16L113.69,293.03L113.84,261.29L113.85,16L114.24,294.48L114.26,36.2L114.37,16L114.54,16L114.54,16L114.54,255.52L114.94,298.81L115.29,16L115.33,16L115.85,293.03L116.08,189.15L116.09,16L116.81,263.45L116.81,16L116.89,16L116.99,274.66L117.17,16L117.24,16L117.45,16L117.45,232.43L117.51,301.72L118.11,16L118.18,39.09L118.29,183.37L118.29,16L118.9,301.46L119.03,16L119.05,16L119.06,298.81L119.8,220.89L119.8,99.69L119.8,16L120.47,293.76L120.52,261.29L120.57,16L121,298.81L121.38,285.15L121.38,36.2L121.51,284.38L121.81,16L121.85,275.72L121.95,16L122.59,62.17L122.61,62.17L122.62,16L122.98,298.81L123.35,16L123.41,16L124.08,298.81L124.17,264.18L124.17,16L124.26,278.61L124.9,16L124.93,16L125.28,301.4L125.51,16L125.62,16L126.2,288.71L126.23,131.43L126.35,16L127.1,286.54L127.12,16L127.58,278.61L127.82,16L127.86,16L127.91,291.59L128.63,148.75L128.65,226.66L128.78,16L129,298.81L129.36,16L129.54,16L129.6,298.81L130.28,186.26L130.3,232.43L130.33,16L130.62,281.49L131.05,16L131.06,37.16L131.09,16L131.52,301.72L131.81,16L131.82,264.18L131.85,16L132.08,301.69L132.55,16L132.59,16L132.81,297.36L133.34,16L133.35,16L133.74,298.81L134.1,16L134.25,16L134.51,302.41L134.99,16L135.02,154.52L135.06,16L135.1,300.97L135.72,16L135.8,16L136.2,293.03L136.55,16L136.58,16L136.74,302.85L137.32,16L137.39,16L137.89,301.69L138.07,192.03L138.25,16L138.28,298.81L139.02,224.97L139.02,16L139.16,298.81L139.73,16L139.8,16L140.1,301.69L140.62,209.35L140.62,111.23L140.66,16L141.05,293.03L141.32,16L141.4,16L141.64,300.25L142.15,16L142.16,16L142.33,16L142.33,102.57L142.38,16L142.55,295.92L143.06,257.05L143.19,16L143.84,301.69L143.92,215.12L143.99,16L144.17,16L144.2,160.29L144.2,16L144.3,269.95L144.91,16L144.96,90.69L144.99,16L144.99,295.92L145.71,16L145.72,16L145.73,303.62L146.4,16L146.5,280.05L147.26,16L147.26,16L147.29,102.57L147.36,16L147.59,289.57L148,16L148.05,16L148.5,297.36L148.8,16L148.84,16L149.52,301.69L149.59,232.43L149.62,261.29L149.84,298.81L150.34,16L150.38,293.03L150.73,16L150.96,85.26L150.99,223.78L151.26,253.6L151.72,16L151.73,96.8L151.76,16L152.27,300.25L152.51,212.23L152.51,16L152.59,249.75L153.18,16L153.3,16L153.89,293.86L154.04,91.03L154.11,16L154.61,298.81L154.85,91.03L154.89,16L155.23,293.03L155.64,16L155.66,16L155.92,293.58L156.39,16L156.45,16L156.7,296.64L157.18,16L157.22,16L157.23,287.98L157.97,16L158,16L158.61,301.69L158.77,261.29L158.79,16L159.01,291.59L159.47,157.4L159.47,16L160.13,295.2L160.21,261.29L160.23,16L160.77,301.83L160.96,16L161,16L161.14,287.26L161.66,16L161.72,16L162.32,301.1L162.46,44.86L162.5,16L162.97,284.38L163.24,16L163.29,16L163.49,16L163.51,112.19L163.54,298.81L164.23,16L164.23,16L164.29,16L164.29,301.69L165.04,79.49L165.06,16L165.09,269.95L165.67,206.46L165.69,16L166.08,284.38L166.43,16L166.56,16L167.02,298.81L167.3,16L167.4,16L167.57,301.69L168.13,16L168.15,16L168.51,290.15L168.9,280.77L168.98,16L169.18,300.25L169.73,16L169.8,16L170.46,298.81L170.51,180.9L170.57,16L171.21,293.03L171.3,293.03L171.33,226.66L171.45,269.23L172.05,16L172.06,82.37L172.13,16L172.13,290.15L172.86,16L172.89,255.52L172.98,16L173.15,290.15L173.63,218L173.65,117L173.65,16L173.94,296.29L174.4,16L174.43,282.21L175.21,16L175.29,81.59L175.3,16L175.72,277.88L175.98,16L176.07,16L176.28,16L176.28,16L176.28,265.62L176.33,16L176.54,286.54L176.97,56.4L177.13,16L177.77,293.03L177.83,16L177.92,16L178.23,293.03L178.57,16L178.63,16L178.69,294.48L179.05,93.92L179.09,16L179.25,242.52L179.49,93.92L179.55,16L180.08,295.92L180.32,226.66L180.32,16L180.89,301.69L181.01,16L181.13,16L181.87,295.92L181.87,33.31L181.89,53.52L181.89,16L181.89,303.86L182.6,16L182.68,106.18L183.26,291.59L183.38,16L183.38,16L183.45,264.18L183.52,16L183.66,291.59L184.17,16L184.3,238.93L184.32,16L184.43,301.69L185.04,16L185.08,168.95L185.14,16L185.55,293.03L185.81,16L185.86,16L186.34,303.13L186.53,16L186.62,298.81L187.36,16L187.36,16L187.38,189.15L187.41,16L187.57,298.81L188.11,16L188.16,16L188.63,295.92L188.92,275.72L188.93,44.86L188.95,16L189.02,276.19L189.68,79.49L189.74,241.09L189.74,16L190.08,298.81L190.45,16L190.56,16L190.86,298.81L191.3,178.32L191.35,16L191.95,293.03L192.08,209.35L192.14,16L192.17,295.92L192.87,137.92L192.91,16L193.06,290.15L193.63,16L193.67,16L194.29,298.81L194.42,16L194.43,16L194.9,298.81L195.19,174.72L195.19,30.43L195.25,16L195.34,298.92L195.91,16L195.95,284.38L196.03,16L196.24,301.69L196.7,261.29L196.75,16L197.07,283.2L197.51,269.95L197.53,247.58L197.53,16L198.27,297.36L198.28,16L198.31,16L198.6,289.43L199.04,16L199.07,16L199.23,300.25L199.8,287.26L199.88,16L200.42,275L200.61,16L200.66,16L201.33,272.83L201.41,16L201.42,16L201.63,16L201.64,189.15L201.65,16L202.3,295.92L202.37,191.8L202.42,160.29L202.43,16L202.47,295.92L203.1,96.8L203.19,239.65L203.33,298.81L203.88,16L203.88,16L203.95,186.26L203.95,16L203.97,290.15L204.69,16L204.73,123.19L204.75,16L205.28,296.17L205.48,80.93L205.5,16L206.2,301.69L206.29,298.81L206.29,16L206.99,301.69L207.03,272.83L207.05,241.09L207.18,16L207.2,301.69L207.8,252.63L207.83,16L208.25,301.69L208.54,16L208.59,36.2L208.66,16L209.14,290.15L209.37,196.36L209.39,16L209.97,301.69L210.05,160.29L210.18,199.14L210.25,16L210.87,302.81L210.92,18.89L210.99,16L210.99,301.69L211.7,16L211.77,235.32L212.36,301.69L212.51,16L212.51,16L212.54,16L212.6,30.43L212.6,281.67L212.6,16L213.19,298.81L213.26,16L213.37,16L213.77,293.03L214.18,177.6L214.21,16L214.75,275L214.96,53.52L215,16L215.01,294.96L215.74,287.26L215.78,16L216.53,301.69L216.53,16L216.59,16L216.68,24.66L216.68,301.69L216.69,16L217.35,16L217.47,16L218.15,290.15L218.16,243.98L218.23,16L218.47,290.87L218.95,16L218.99,16L219.52,300.25L219.66,171.83L219.67,39.09L219.67,16L219.75,298.81L220.42,91.03L220.44,16L220.83,299.53L221.19,16L221.25,16L221.98,283.2L221.99,39.09L222.06,281.49L222.38,301.69L222.79,16L222.79,137.2L222.83,183.37L222.95,300.25L223.58,16L223.58,285.82L223.65,16L224.32,114.12L224.34,16L224.34,301.69L225.05,16L225.12,16L225.45,301.69L225.87,33.31L225.88,16L226.05,301.69L226.14,238.2L226.21,16L227,287.26L227.01,16L227.45,303.13L227.76,16L227.88,280.75L227.9,16L228.15,298.81L228.63,174.72L228.64,275.72L228.78,301.69L229.04,16L229.04,287.26L229.07,16L229.09,300.25L229.78,16L229.93,16L230.65,295.92L230.67,264.18L230.69,56.4L230.76,16L231.07,278.61L231.44,82.37L231.46,16L231.61,301.69L232.2,16L232.24,59.72L232.52,301.72L233,16L233,16L233,301.98L233.02,301.69L233.02,18.89L233.03,301.69L233.07,16L233.76,16L233.78,16L234,301.69L234.53,36.2L234.59,16L235.16,298.81L235.33,16L235.39,16L235.82,298.81L236.05,229.55L236.1,16L236.72,298.81L236.85,278.61L236.87,278.61L236.88,16L236.97,293.03L237.62,16L237.63,16L237.67,303.17L238.36,91.03L238.45,236.04L238.48,290.15L239.22,16L239.22,16L239.24,16L239.24,293.03L239.96,243.98L240.01,287.26L240.01,16L240.74,16L240.82,16L240.87,24.66L240.87,295.92L241.59,16L241.59,279.33L241.67,16L242.26,282.21L242.42,16L242.46,232.43L242.46,16L242.69,301.69L243.18,235.52L243.25,16L243.52,300.25L243.73,245.03L243.83,16L244.2,298.81L244.56,194.92L244.64,16L244.79,301.69L245.38,301.69L245.4,47.2L245.44,16L245.96,278.61L246.13,16L246.19,272.83L246.2,16L246.88,256.48L246.96,295.92L246.98,16L247.19,301.69L247.7,163.17L247.75,16L247.82,281.49L248.51,81.75L248.51,16L249.07,294.48L249.22,264.18L249.31,16L249.33,295.92L249.74,16L249.77,16L250.2,301.69L250.52,226.66L250.61,16L251.35,287.26L251.35,33.31L251.39,33.31L251.46,16L252.11,292.8L252.14,16L252.15,16L252.36,292.38L252.85,16L252.94,16L253.43,300.97L253.73,213.68L253.76,206.46L253.77,16L254.29,290.15L254.47,16L254.52,16L254.74,298.81L255.26,16L255.27,16L255.69,296.64L255.96,140.09L255.99,16L256.49,301.69L256.72,249.03L256.75,16L256.99,301.69L257.48,232.43L257.51,16L257.85,289.39L258.25,16L258.3,230.99L258.3,16L258.49,293.03L258.98,88.14L259.07,16L259.53,276.8L259.53,16L259.59,16L260.01,285.82L260.33,232.43L260.35,183.37L260.37,16L260.77,275.72L261.09,254.8L261.11,275.72L261.18,16L261.8,299.29L261.86,220.89L261.88,272.83L262.43,299.53L262.63,16L262.65,100.88L262.65,256.96L262.65,302.41L262.65,16L263.4,16L263.44,16L263.68,295.92L263.9,16L263.92,16L264.18,301.69L264.38,16L264.5,16L264.87,293.76L265.13,232.43L265.36,16L266.12,298.81L266.12,21.77L266.17,16L266.24,21.77L266.24,298.81L266.97,16L267.04,16L267.36,290.15L267.75,62.17L267.81,16L268.38,298.81L268.54,246.86L268.57,16L268.81,291.59L269.27,177.88L269.35,16L269.63,298.81L270.01,16L270.14,16L270.68,287.26L270.76,16L270.92,16L270.96,294.48L271.47,200.69L271.53,16L271.78,301.69L272.26,16L272.29,272.83L272.32,16L272.82,295.92L272.91,261.29L273.07,16L273.7,301.69L273.81,189.8L273.84,117L273.87,16L274.57,295.92L274.58,16L274.76,287.26L275.29,16L275.36,16L275.6,295.92L276.12,218L276.17,16L276.66,295.2L276.91,287.26L276.93,36.2L276.93,16L277.1,297.11L277.67,16L277.7,16L277.94,301.69L278.24,16L278.29,16L278.49,298.81L279.01,208.38L279.06,16L279.28,21.77L279.3,298.81L279.35,303.13L280,16L280.04,115.89L280.06,293.19L280.54,301.69L280.79,16L280.82,203.58L280.82,16L281.08,295.92L281.42,16L281.72,16L282.39,288.71L282.47,16L282.5,16L282.82,300.19L283.2,148.75L283.27,16L283.4,30.43L283.4,290.84L283.81,293.03L284.1,16L284.11,287.26L284.13,295.2L284.33,298.81L284.83,16L284.86,53.52L284.93,16L285.5,301.69L285.66,16L285.71,73.72L285.74,16L285.81,301.69L286.44,108.34L286.5,212.23L286.62,16L286.98,290.15L287.23,16L287.26,252.63L287.28,16L287.96,298.81L288.01,128.55L288.02,119.89L288.02,16L288.51,298.81L288.76,215.12L288.79,16L289.23,278.61L289.52,151.63L289.57,16L290.24,297.64L290.28,281.49L290.35,16L290.94,301.72L291.02,206.46L291.02,16L291.63,272.83L291.79,201.12L291.81,70.83L291.88,16L292.14,290.87L292.54,148.75L292.56,16L292.72,295.92L293.27,235.32L293.34,16L293.49,303.52L294.08,186.26L294.1,277.16L294.65,297.84L294.82,16L294.82,16L294.9,295.92L294.95,16L295.63,189.15L295.66,16L296,298.81L296.41,16L296.5,16L297.05,295.92L297.24,16L297.3,281.49L297.3,16L297.62,298.81L298.03,16L298.09,284.38L298.14,16L298.14,295.92L298.84,171.83L298.89,16L299.3,295.92L299.73,166.06L299.79,154.52L299.82,16L299.92,295.92L300.51,174.72L300.58,24.66L300.65,16L301.05,295.92L301.29,166.06L301.38,198.26L301.87,303.86L302.18,16L302.2,16L302.49,296.71L302.81,16L302.96,16L303.08,284.38L303.43,16L303.46,21.77L303.46,301.69L303.48,16L304.18,16L304.25,16L304.53,301.69L304.97,16L305.05,246.86L305.09,16L305.57,288.74L305.78,16L305.84,196.97L305.85,16L306.08,299.53L306.58,16L306.66,16L307.28,287.26L307.42,157.4L307.45,16L307.68,16L307.68,36.2L307.79,163.17L307.79,16L307.79,287.26L307.8,16L308.38,303.13L308.54,16L308.55,240.37L308.63,301.69L308.63,16L309.21,16L309.28,16L309.81,301.69L310.03,16L310.06,21.77L310.08,16L310.08,290.15L310.08,16L310.11,298.81L310.83,16L310.86,16L310.96,287.26L311.34,166.06L311.35,16L311.85,255.52L312.02,16L312.15,235.32L312.57,300.25L312.89,16L312.89,16L312.91,215.12L312.92,16L313.08,295.92L313.66,122.77L313.7,16L314.21,252.63L314.46,218L314.46,89.68L314.53,218L314.57,154.52L314.62,16L314.85,16L314.85,16L314.86,154.52L314.9,16L315.18,276.87L315.55,183.37L315.63,16L316.26,290.15L316.38,229.55L316.38,91.03L316.42,16L316.68,298.81L317.09,16L317.13,16L317.54,300.25L317.88,16L317.9,16L318.4,264.18L318.65,82.37L318.67,82.37L318.67,16L318.99,297.36L319.39,16L319.43,16L320.03,302.41L320.18,174.72L320.19,16L320.39,16L320.43,296.64L321.14,16L321.2,108.34L321.2,212.23L321.33,295.92L321.89,16L321.99,16L322.35,301.69L322.74,192.03L322.78,128.55L322.94,297.45L323.56,16L323.58,200.69L323.61,16L323.84,296.17L324.32,252.63L324.35,16L324.86,298.81L325.05,180.49L325.16,158.63L325.16,16L325.59,302.17L325.91,16L325.95,267.06L325.95,16L326.08,301.69L326.67,16L326.75,102.57L326.84,16L327.2,301.69L327.46,290.15L327.6,193.81L328.17,295.92L328.28,16L328.31,39.09L328.38,154.52L328.38,16L328.65,297.36L329.11,16L329.17,172.31L329.17,16L329.62,292.31L329.89,16L329.94,284.38L329.95,16L330.54,295.92L330.64,246.86L330.7,16L331.19,284.38L331.43,16L331.46,16L331.64,284.38L332.1,252.63L332.22,16L332.5,287.26L332.95,264.18L333.03,16L333.25,294.48L333.77,16L333.81,16L333.94,298.81L334.5,261.29L334.52,16L335.05,292.31L335.27,16L335.28,16L335.85,294.48L336.01,16L336.04,79.54L336.59,298.81L336.7,16L336.74,282.93L337.17,293.76L337.5,16L337.53,281.49L338.02,293.03L338.27,16L338.28,111.23L338.29,252.63L338.69,290.15L339,16L339.04,212.23L339.08,200.69L339.08,16L339.17,298.81L339.8,16L339.9,286.54L340.16,303.13L340.58,16L340.6,287.8L340.7,16L341.38,282.93L341.42,200.69L341.46,16L341.65,273.41L342.2,249.75L342.29,235.32L342.38,16L342.9,298.81L342.97,229.55L343.09,120.21L343.14,16L343.16,278.34L343.78,67.94L343.87,16L344.06,288.71L344.61,246.86L344.63,128.55L344.68,16L345.36,298.81L345.38,102.57L345.41,102.57L345.44,298.81L345.44,16L346.13,36.2L346.17,16L346.23,294.48L346.87,252.63L346.95,16L346.97,293.03L347.66,16L347.72,16L348.06,295.92L348.45,293.03L348.48,163.17L348.5,16L349.07,298.81L349.2,91.03L349.25,180.49L349.29,16L349.62,298.81L349.98,93.92L350.04,16L350.69,298.81L350.75,44.86L350.82,16L351.34,295.92L351.36,16L352.1,293.76L352.12,16L352.3,16L352.3,145.86L352.37,16L352.81,303.13L353.03,275.72L353.05,16L353.43,301.69L353.7,160.29L353.83,225.45L354.44,297.36L354.44,16L354.54,76.6L354.62,16L355.33,300.78L355.36,16L355.38,251.19L355.53,293.03L356.16,16L356.17,16L356.84,298.81L356.91,18.89L356.95,16L357.65,269.95L357.68,16L357.71,96.8L357.71,16L357.87,303.86L358.46,16L358.48,233.15L359.18,297.07L359.24,16L359.24,145.86L359.24,177.6L359.27,16L359.83,282.93L359.97,16L360.03,16L360.16,301.69L360.49,16L360.7,16L360.79,298.81L361.41,16L361.63,16L362.23,299.53L362.23,50.63L362.28,16L362.6,298.81L363,16L363.04,16L363.55,277.16L363.76,16L363.82,117L363.86,16L364.53,287.26L364.55,16L364.97,277.88L365.3,137.2L365.32,16L365.88,288.71L366.06,53.52L366.09,16L366.12,281.49L366.84,16L366.91,267.78L366.91,16L367.25,301.69L367.64,16L367.67,16L368.12,278.61L368.19,269.95L368.2,50.63L368.2,16L368.62,301.69L368.93,47.74L369.03,16L369.58,293.03L369.78,16L369.79,16L370.03,301.69L370.51,16L370.56,151.63L371.14,298.81L371.29,16L371.29,284.38L371.31,215.12L371.38,16L371.84,281.49L372,96.8L372.09,18.89L372.15,16L372.39,301.69L372.81,16L372.86,101.42L372.95,16L373.49,294.48L373.61,16L373.64,252.63L373.64,16L374.08,295.92L374.35,16L374.47,16L374.73,287.26L375.21,85.26L375.24,16L375.44,16L375.44,16L375.44,232.43L375.44,16L375.62,269.95L376.17,16L376.2,16L376.33,258.4L376.73,245.42L376.73,16L377.42,301.69L377.45,16L377.49,16L377.61,298.81L378.22,252.63L378.23,16L378.25,287.26L378.97,261.29L379,59.29L379.05,16L379.56,290.15L379.75,290.15L379.81,232.43L380.28,284.38L380.55,16L380.55,281.49L380.56,16L380.87,291.11L381.3,278.61L381.35,16L381.94,287.26L382.06,284.38L382.14,16L382.8,298.81L382.93,212.23L382.93,16L383.04,301.69L383.68,16L383.7,160.29L383.7,16L384.25,284.38L384.42,16L384.46,16L384.57,298.81L385.2,21.77L385.22,16L385.64,290.15L385.95,174.72L385.98,16L386.57,302.34L386.69,236.68L386.73,16L386.95,298.81L387.47,77.56L387.49,16L388.04,295.92L388.24,264.31L388.25,16L388.34,293.03L389.03,275.72L389.04,24.66L389.04,295.92L389.07,16L389.78,119.89L389.86,16L390.33,302.88L390.66,290.15L390.66,30.43L390.66,16L390.7,293.03L391.4,114.12L391.46,206.46L391.94,295.92L392.2,16L392.21,286.54L392.21,16L392.41,290.84L392.96,16L393.06,16L393.82,287.26L393.85,16L394.07,301.69L394.6,16L394.64,58.32L394.93,272.83L395.14,16L395.16,114.12L395.16,301.69L395.21,16L395.91,76.3L395.93,269.23L395.93,16L396.02,291.59L396.68,30.43L396.72,290.15L397.44,16L397.47,231.98L397.52,128.55L397.53,16L397.61,298.81L398.24,16L398.31,32.98L398.36,16L398.37,300.25L399.02,227.24L399.08,16L399.83,293.03L399.85,234.19L399.85,16L400.56,295.92L400.6,16L400.61,16L401.2,298.81L401.3,16L401.34,16L401.94,298.81L402.02,99.69L402.06,76.6L402.14,16L402.65,301.69L402.76,264.18L402.88,16L403.11,267.1L403.63,226.66L403.63,93.92L403.66,16L404.05,298.81L404.39,232.43L404.39,16L404.59,298.81L405.12,16L405.16,16L405.27,297.36L405.93,256.96L405.93,111.23L405.93,16L406.46,298.81L406.64,30.43L406.71,128.55L406.79,16L406.95,298.81L407.43,16L407.47,44.86L407.49,16L408.1,293.03L408.21,154.52L408.24,85.26L408.24,16L408.45,298.92L408.97,16L409.06,39.09L409.12,16L409.59,290.15L409.8,105.46L409.88,16L410.02,293.76L410.61,215.12L410.65,49.56L410.69,16L410.87,301.69L411.32,16L411.43,203.58L411.45,16L412.18,301.69L412.18,18.89L412.25,18.89L412.27,16L412.27,16L412.33,160.29L412.33,16L412.62,301.69L413.05,249.75L413.11,16L413.85,291.59L413.85,16L413.9,16L414.27,293.03L414.65,16L414.68,187.7L414.76,16L415.17,300.25L415.37,16L415.49,16L415.93,303.13L416.13,298.81L416.15,16L416.57,16L416.57,16L416.57,264.18L416.96,290.15L417.22,16L417.22,160.29L417.35,16L417.57,275.72L418.11,168.95L418.14,16L418.7,272.83L418.89,160.29L418.92,16L419.58,287.98L419.65,85.26L419.68,16L419.68,301.69L420.43,21.77L420.44,16L420.5,298.81L421.22,206.46L421.25,16L421.44,280.29L421.9,259.75L421.98,16L422.32,297.36L422.59,16L422.63,16L423.1,301.72L423.39,163.17L423.42,176.16L423.5,16L423.92,295.92L424.17,16L424.2,16L424.21,301.69L424.89,96.8L424.96,290.15L424.96,16L425.62,299.23L425.71,166.06L425.77,16L426.35,295.92L426.52,96.8L426.53,16L427.07,290.15L427.23,122.77L427.26,16L427.39,301.72L427.7,293.03L427.74,27.54L427.77,16L428.01,303.86L428.49,65.06L428.54,16L428.8,304L429.27,235.32L429.32,16L429.32,300.25L430.03,142.97L430.09,16L430.48,293.03L430.84,168.95L430.85,16L431.51,300.25L431.58,174.72L431.62,16L432.25,293.03L432.36,16L432.41,16L432.45,290.15L433.14,16L433.17,16L433.75,292.07L433.9,137.2L434,246.86L434,16L434.19,298.81L434.72,24.66L434.78,295.92L435.23,301.69L435.54,16L435.58,76.6L435.58,243.98L435.59,16L435.61,301.69L436.32,16L436.34,16L436.89,301.69L436.97,18.89L436.97,303.13L436.97,16L437.67,16L437.73,16L437.73,301.69L438.44,16L438.5,145.86L438.5,16L438.64,272.83L439.25,206.46L439.26,72.39L439.55,295.92L439.95,16L440.01,108.34L440.05,16L440.22,294.48L440.72,197.8L440.82,122.77L440.86,16L441.52,295.92L441.55,223.78L441.6,16L441.87,281.49L442.28,16L442.39,119.89L442.39,16L442.67,301.69L443.12,16L443.16,137.2L443.3,281.49L443.35,16L443.87,16L443.92,177.6L443.92,16L444.04,293.03L444.67,16L444.71,16L445.1,280.05L445.42,145.86L445.47,16L446.02,295.92L446.05,16L446.07,24.66L446.07,295.92L446.1,16L446.82,250.98L446.83,16L447.13,291.59L447.58,108.34L447.63,53.52L447.7,16L448.29,298.81L448.4,264.18L448.45,91.03L448.52,16L449.1,287.26L449.16,186.26L449.23,16L449.34,290.15L449.94,168.95L450,168.95L450.02,16L450.51,298.81L450.74,16L450.8,16L451.26,301.69L451.51,241.09L451.57,16L451.64,272.83L452.29,246.86L452.34,16L452.57,298.81L453.07,16L453.1,163.17L453.13,298.81L453.15,16L453.81,16L453.82,16L453.87,298.81L454.53,16L454.59,200.69L454.65,16L454.9,301.41L455.34,212.23L455.37,16L455.53,295.92L455.55,16L455.63,16L456.31,290.15L456.37,16L456.39,16L457,298.81L457.12,73.72L457.12,16L457.24,297.36L457.87,16L457.88,16L458.35,298.81L458.43,160.29L458.43,16L458.78,295.92L459.14,255.52L459.16,16L459.51,291.46L459.82,16L459.95,16L460.6,301.69L460.76,183.37L460.76,16L461.29,301.69L461.42,282.93L461.56,16L461.69,290.15L462.33,243.98L462.33,16L462.47,301.93L463.03,16L463.16,16L463.23,30.43L463.23,290.15L463.92,16L463.93,256.24L463.94,299.38L464,16L464.68,16L464.7,16L464.97,299.18L465.44,50.63L465.49,16L465.71,298.92L466.21,180.49L466.25,290.15L466.37,292.03L466.99,16L467.02,215.12L467.03,16L467.49,303.13L467.58,16L467.66,298.81L468.33,16L468.35,16L468.81,290.15L469.06,229.55L469.11,16L469.87,298.81L469.87,21.77L469.94,301.69L470.25,16L470.25,16L470.33,229.55L470.33,16L470.8,290.15L471.07,16L471.13,108.34L471.2,16L471.29,298.81L471.88,59.29L472,16L472.03,275.72L472.76,217.03L472.79,241.09L472.79,16L473.48,295.92L473.53,16L473.55,291.11L473.64,298.81L474.3,16L474.31,287.88L474.89,295.92L475.04,16L475.04,36.2L475.05,284.38L475.05,16L475.79,298.81L475.8,128.55L475.81,16L476.36,293.2L476.53,261.29L476.61,16L477.38,295.92L477.42,16L477.65,301.69L478.11,290.15L478.15,16L478.65,278.61L478.88,67.94L478.91,252.63L478.91,16L479.58,290.15L479.58,272.83L479.69,160.29L479.69,16L480.01,303.86L480.42,16L480.45,16L480.97,295.92L481.17,16L481.19,16L481.32,301.69L481.91,16L481.95,16L482.19,258.4L482.69,76.6L482.74,243.98L482.77,16L483.14,298.81L483.46,41.97L483.51,16L483.72,288.71L484.26,78.58L484.33,16L484.88,298.81L485.03,124.22L485.09,16L485.57,289.12L485.81,16L485.9,251.19L486.02,16L486.05,298.81L486.27,150.91L486.33,16L486.5,301.69L486.97,16L487.07,131.43L487.26,16L487.46,287.26L487.81,16L487.93,209.35L488.06,192.35L488.12,76.6L488.18,16L488.53,295.92L488.87,189.15L488.91,131.43L489,16L489.39,303.13L489.57,229.55L489.66,16L490.35,301.69L490.35,16L490.42,16L490.96,295.92L491.16,16L491.2,122.65L491.21,16L491.43,293.03L491.9,166.06L492,218L492.12,16L492.28,293.03L492.75,226.66L492.76,93.92L492.83,16L493.18,301.69L493.47,16L493.54,16L494.22,301.69L494.28,16L494.31,16L494.65,288.24L495.02,16L495.07,41.97L495.12,16L495.68,293.76L495.78,16L495.84,16L496.3,300.25L496.65,177.6L496.65,89.11L496.7,16L497.15,301.93L497.35,96.8L497.39,16L497.72,301.69L498.13,16L498.24,200.69L498.56,262.73L498.97,16L498.97,16L498.99,212.23L499,284.38L499.07,16L499.73,16L499.77,16L500.52,303.19L500.52,298.81L500.53,64.1L500.58,16L500.69,290.15L501.28,255.52L501.38,16L501.39,295.92L502.06,16L502.13,16L502.37,295.92L502.85,238.2L502.89,82.37L503.5,295.12L503.56,16L503.56,134.32L503.59,232.43L504.02,302.41L504.29,16L504.3,44.86L504.37,16L505.05,295.92L505.09,59.29L505.2,160.29L505.32,298.81L505.95,16L505.98,303.13L506.14,16L506.7,16L506.75,79.49L506.79,16L506.83,301.69L507.5,254.39L507.51,174.72L507.53,16L507.67,295.92L508.22,16L508.27,27.54L508.27,293.03L508.3,16L508.99,16L509.08,16L509.75,280.77L509.83,203.58L509.87,16L510.48,293.03L510.61,243.98L510.66,76.6L510.75,226.66L511,16L511,16" style="vector-effect: non-scaling-stroke; fill: none; stroke: rgb(99, 110, 250); stroke-opacity: 1; stroke-width: 2px; opacity: 1;"/></g><g class="points"/><g class="text"/></g></g></g><g class="overplot"/><path class="xlines-above crisp" d="M0,0" style="fill: none;"/><path class="ylines-above crisp" d="M0,0" style="fill: none;"/><g class="overlines-above"/><g class="xaxislayer-above"><g class="xtick"><text text-anchor="middle" x="0" y="436" transform="translate(198.17000000000002,0)" style="font-family: 'Times New Roman'; font-size: 15px; fill: rgb(13, 13, 13); fill-opacity: 1; white-space: pre; opacity: 1;">1.61252×10​<tspan style="font-size:70%" dy="-0.6em">18</tspan><tspan dy="0.42em">​</tspan></text></g><g class="xtick"><text text-anchor="middle" x="0" y="436" style="font-family: 'Times New Roman'; font-size: 15px; fill: rgb(13, 13, 13); fill-opacity: 1; white-space: pre; opacity: 1;" transform="translate(299.57,0)">1.612525×10​<tspan style="font-size:70%" dy="-0.6em">18</tspan><tspan dy="0.42em">​</tspan></text></g><g class="xtick"><text text-anchor="middle" x="0" y="436" style="font-family: 'Times New Roman'; font-size: 15px; fill: rgb(13, 13, 13); fill-opacity: 1; white-space: pre; opacity: 1;" transform="translate(400.98,0)">1.61253×10​<tspan style="font-size:70%" dy="-0.6em">18</tspan><tspan dy="0.42em">​</tspan></text></g><g class="xtick"><text text-anchor="middle" x="0" y="436" style="font-family: 'Times New Roman'; font-size: 15px; fill: rgb(13, 13, 13); fill-opacity: 1; white-space: pre; opacity: 1;" transform="translate(502.38,0)">1.612535×10​<tspan style="font-size:70%" dy="-0.6em">18</tspan><tspan dy="0.42em">​</tspan></text></g><g class="xtick"><text text-anchor="middle" x="0" y="436" style="font-family: 'Times New Roman'; font-size: 15px; fill: rgb(13, 13, 13); fill-opacity: 1; white-space: pre; opacity: 1;" transform="translate(603.79,0)">1.61254×10​<tspan style="font-size:70%" dy="-0.6em">18</tspan><tspan dy="0.42em">​</tspan></text></g></g><g class="yaxislayer-above"><g class="ytick"><text text-anchor="end" x="108" y="12.25" transform="translate(0,404.58)" style="font-family: 'Times New Roman'; font-size: 35px; fill: rgb(13, 13, 13); fill-opacity: 1; white-space: pre; opacity: 1;">0</text></g><g class="ytick"><text text-anchor="end" x="108" y="12.25" style="font-family: 'Times New Roman'; font-size: 35px; fill: rgb(13, 13, 13); fill-opacity: 1; white-space: pre; opacity: 1;" transform="translate(0,346.86)">20</text></g><g class="ytick"><text text-anchor="end" x="108" y="12.25" style="font-family: 'Times New Roman'; font-size: 35px; fill: rgb(13, 13, 13); fill-opacity: 1; white-space: pre; opacity: 1;" transform="translate(0,289.15)">40</text></g><g class="ytick"><text text-anchor="end" x="108" y="12.25" style="font-family: 'Times New Roman'; font-size: 35px; fill: rgb(13, 13, 13); fill-opacity: 1; white-space: pre; opacity: 1;" transform="translate(0,231.43)">60</text></g><g class="ytick"><text text-anchor="end" x="108" y="12.25" style="font-family: 'Times New Roman'; font-size: 35px; fill: rgb(13, 13, 13); fill-opacity: 1; white-space: pre; opacity: 1;" transform="translate(0,173.72)">80</text></g><g class="ytick"><text text-anchor="end" x="108" y="12.25" style="font-family: 'Times New Roman'; font-size: 35px; fill: rgb(13, 13, 13); fill-opacity: 1; white-space: pre; opacity: 1;" transform="translate(0,116)">100</text></g></g><g class="overaxes-above"/></g></g><g class="polarlayer"/><g class="smithlayer"/><g class="ternarylayer"/><g class="geolayer"/><g class="funnelarealayer"/><g class="pielayer"/><g class="iciclelayer"/><g class="treemaplayer"/><g class="sunburstlayer"/><g class="glimages"/><defs id="topdefs-95ae18"><g class="clips"/></defs><g class="layer-above"><g class="imagelayer"/><g class="shapelayer"/></g><g class="infolayer"><g class="g-gtitle"/><g class="g-xtitle"><text class="xtitle" x="364.5" y="463.8" text-anchor="middle" style="font-family: 'Open Sans', verdana, arial, sans-serif; font-size: 14px; fill: rgb(42, 63, 95); opacity: 1; font-weight: normal; white-space: pre;">Time Steps (ns)</text></g><g class="g-ytitle" transform="translate(23.5,0)"><text class="ytitle" transform="rotate(-90,12.5,260)" x="12.5" y="260" text-anchor="middle" style="font-family: 'Times New Roman'; font-size: 40px; fill: rgb(13, 13, 13); opacity: 1; font-weight: normal; white-space: pre;">Fill rate (in %)</text></g></g></svg>