<svg class="main-svg" xmlns="http://www.w3.org/2000/svg" xmlns:xlink="http://www.w3.org/1999/xlink" width="700" height="500" style="" viewBox="0 0 700 500"><rect x="0" y="0" width="700" height="500" style="fill: rgb(255, 255, 255); fill-opacity: 1;"/><defs id="defs-ac3aea"><g class="clips"><clipPath id="clipac3aeaxyplot" class="plotclip"><rect width="511" height="320"/></clipPath><clipPath class="axesclip" id="clipac3aeax"><rect x="109" y="0" width="511" height="500"/></clipPath><clipPath class="axesclip" id="clipac3aeay"><rect x="0" y="100" width="700" height="320"/></clipPath><clipPath class="axesclip" id="clipac3aeaxy"><rect x="109" y="100" width="511" height="320"/></clipPath></g><g class="gradients"/><g class="patterns"/></defs><g class="bglayer"><rect class="bg" x="109" y="100" width="511" height="320" style="fill: rgb(229, 236, 246); fill-opacity: 1; stroke-width: 0;"/></g><g class="layer-below"><g class="imagelayer"/><g class="shapelayer"/></g><g class="cartesianlayer"><g class="subplot xy"><g class="layer-subplot"><g class="shapelayer"/><g class="imagelayer"/></g><g class="minor-gridlayer"><g class="x"/><g class="y"/></g><g class="gridlayer"><g class="x"><path class="xgrid crisp" transform="translate(198.14,0)" d="M0,100v320" style="stroke: rgb(255, 255, 255); stroke-opacity: 1; stroke-width: 1px;"/><path class="xgrid crisp" transform="translate(299.55,0)" d="M0,100v320" style="stroke: rgb(255, 255, 255); stroke-opacity: 1; stroke-width: 1px;"/><path class="xgrid crisp" transform="translate(400.96,0)" d="M0,100v320" style="stroke: rgb(255, 255, 255); stroke-opacity: 1; stroke-width: 1px;"/><path class="xgrid crisp" transform="translate(502.37,0)" d="M0,100v320" style="stroke: rgb(255, 255, 255); stroke-opacity: 1; stroke-width: 1px;"/><path class="xgrid crisp" transform="translate(603.78,0)" d="M0,100v320" style="stroke: rgb(255, 255, 255); stroke-opacity: 1; stroke-width: 1px;"/></g><g class="y"><path class="ygrid crisp" transform="translate(0,346.78)" d="M109,0h511" style="stroke: rgb(255, 255, 255); stroke-opacity: 1; stroke-width: 1px;"/><path class="ygrid crisp" transform="translate(0,289.09000000000003)" d="M109,0h511" style="stroke: rgb(255, 255, 255); stroke-opacity: 1; stroke-width: 1px;"/><path class="ygrid crisp" transform="translate(0,231.39)" d="M109,0h511" style="stroke: rgb(255, 255, 255); stroke-opacity: 1; stroke-width: 1px;"/><path class="ygrid crisp" transform="translate(0,173.7)" d="M109,0h511" style="stroke: rgb(255, 255, 255); stroke-opacity: 1; stroke-width: 1px;"/><path class="ygrid crisp" transform="translate(0,116)" d="M109,0h511" style="stroke: rgb(255, 255, 255); stroke-opacity: 1; stroke-width: 1px;"/></g></g><g class="zerolinelayer"><path class="yzl zl crisp" transform="translate(0,404.48)" d="M109,0h511" style="stroke: rgb(255, 255, 255); stroke-opacity: 1; stroke-width: 2px;"/></g><path class="xlines-below"/><path class="ylines-below"/><g class="overlines-below"/><g class="xaxislayer-below"/><g class="yaxislayer-below"/><g class="overaxes-below"/><g class="plot" transform="translate(109,100)" clip-path="url(#clipac3aeaxyplot)"><g class="scatterlayer mlayer"><g class="trace scatter tracef2ce78" style="stroke-miterlimit: 2; opacity: 1;"><g class="fills"/><g class="errorbars"/><g class="lines"><path class="js-line" d="M0,16L0.43,251.11L0.75,232.36L0.86,232.36L0.98,16L1.35,259.77L1.58,16L1.61,212.17L1.81,295.83L2.38,16L2.38,16L2.43,50.62L2.6,295.83L2.85,16L3.04,287.17L3.21,301.62L3.8,16L3.8,16L3.84,16L4.01,300.73L4.51,229.48L4.61,16L4.85,286.45L5.35,16L5.38,119.85L5.62,295.83L6.01,16L6.13,44.85L6.13,275.63L6.25,16L6.27,292.94L6.88,16L7.03,16L7.32,16L7.39,232.36L7.39,16L7.92,275.63L8.12,59.27L8.16,16L8.18,295.83L8.28,16L8.29,16L8.38,281.4L9.02,142.93L9.02,16L9.14,301.6L9.75,16L9.88,96.77L9.96,16L10.6,296.68L10.61,186.2L10.68,223.71L10.85,264.09L10.85,56.39L11.13,96.77L11.13,223.71L11.8,269.86L11.85,16L11.87,79.47L11.88,241.02L11.9,249.67L11.9,16L12.12,85.24L12.14,16L12.82,281.98L12.9,128.51L13.08,16L13.59,301.6L13.65,142.93L13.66,16L13.95,290.06L14.39,16L14.49,16L15.21,278.26L15.22,16L15.37,66.61L15.49,292.94L15.77,16L15.81,278.52L15.86,16L16.54,16L16.6,16L16.96,295.11L17.3,16L17.38,16L18.08,243.15L18.17,207.84L18.17,16L18.63,301.6L18.89,19.61L18.95,16L19.28,272.75L19.65,16L19.66,16L20.31,290.06L20.43,241.02L20.49,79.47L20.51,16L21.2,295.83L21.21,16L21.23,290.06L21.94,33.31L21.97,16L22.42,298.71L22.71,298.07L22.76,18.88L22.81,16L22.81,33.31L22.81,301.6L23.42,16L23.42,16L23.49,298.13L23.53,16L23.9,300.15L24.13,16L24.28,16L24.7,293.66L25,16L25.21,160.24L25.21,16L25.21,255.44L25.96,16L26.03,16L26.55,274.19L26.77,16L26.82,76.58L26.93,16L27.29,261.21L27.49,16L27.63,16L28.32,302.32L28.38,16L28.41,16L29.12,291.5L29.12,215.72L29.2,292.94L29.22,16L29.94,114.08L29.98,16L30.14,16L30.15,194.86L30.27,16L30.4,272.75L30.82,266.98L30.92,16L31.28,295.83L31.61,235.25L31.61,85.24L32,235.25L32.37,16L32.37,148.7L32.37,257.19L32.45,16L33.09,16L33.13,27.4L33.15,16L33.85,298.71L33.85,27.54L33.89,47.73L34.09,208.56L34.19,16L34.19,16L34.25,215.19L34.25,283.57L34.32,16L34.92,170.34L35.01,36.19L35.1,16L35.4,295.83L35.76,62.16L35.77,258.32L36.38,292.23L36.38,16L36.54,114.08L36.54,206.4L36.58,16L37.2,269.86L37.2,16L37.59,289.34L37.95,16L37.96,189.09L38.4,295.83L38.75,16L38.78,261.21L38.78,16L39.22,295.83L39.49,216.49L39.55,16L40.22,295.83L40.25,266.98L40.35,53.5L40.37,16L40.62,287.89L41.03,56.39L41.15,287.17L41.15,16L41.68,301.6L41.89,200.63L41.96,79.47L42.02,16L42.24,269.86L42.7,252.55L42.74,16L43.18,298.13L43.49,232.36L43.52,16L43.79,16L43.8,56.39L43.81,298.82L43.85,16L44.53,140.05L44.61,88.12L44.62,16L45.12,300.87L45.31,16L45.38,82.35L45.74,298.71L45.94,16L45.95,281.4L45.95,16L46.64,296.11L46.72,16L46.97,284.29L47.46,16L47.49,16L47.98,299.27L48.13,168.89L48.14,16L48.42,297.27L48.87,91.01L48.92,300.15L48.92,16L49.67,290.06L49.68,30.42L49.77,295.94L50.39,16L50.39,16L50.45,298.71L50.52,16L51.2,125.62L51.25,16L51.61,269.86L51.99,217.94L52.04,16L52.74,290.06L52.77,171.78L52.81,16L53.06,275.63L53.57,148.7L53.58,16L53.61,295.83L54.32,16L54.37,16L54.77,292.94L55.05,16L55.22,16L55.91,301.6L55.99,16L56.33,288.15L56.74,238.13L56.8,16L57.36,284.29L57.48,203.51L57.56,16L57.57,301.6L58.29,16L58.37,16L58.6,297.99L59.11,16L59.14,16L59.18,264.09L59.84,207.05L59.88,16L60.04,278.52L60.6,16L60.68,16L60.8,303.41L61.42,30.07L61.46,264.09L61.61,16L61.84,284.29L62.19,36.19L62.29,284.29L63.05,16L63.07,16L63.68,301.6L63.8,16L63.89,16L63.94,292.94L64.66,238.13L64.68,16L65.05,295.83L65.4,16L65.46,111.2L65.98,16L66.01,284.29L66.04,36.19L66.07,284.29L66.11,16L66.81,209.28L66.87,16L67.23,301.76L67.55,275.63L67.59,16L67.96,298.71L68.3,298.71L68.36,16L68.87,303.76L69.14,298.71L69.29,16L69.37,298.71L70.01,16L70.06,16L70.26,304L70.79,148.7L70.83,16L71.53,298.71L71.58,16L71.65,16L71.71,33.31L71.71,287.17L72.16,301.6L72.38,16L72.39,27.54L72.48,292.94L72.5,16L72.67,301.6L73.23,16L73.35,16L73.39,24.65L73.44,239.86L73.53,16L73.73,303.04L74.17,232.36L74.22,16L74.63,298.71L74.96,16L74.98,16L74.99,298.71L75.71,16L75.74,16L76.1,292.94L76.49,148.7L76.53,16L77.04,282.36L77.26,16L77.3,36.19L77.34,16L78.01,298.71L78.04,16L78.06,16L78.17,284.29L78.81,125.62L78.83,16L79,301.6L79.33,272.75L79.4,47.73L79.53,16L79.94,292.94L80.14,24.65L80.15,16L80.74,292.94L80.86,16L80.91,16L81.03,298.82L81.51,194.86L81.52,16L81.82,298.71L82.26,16L82.37,16L82.47,36.19L82.47,284.29L82.47,16L82.64,295.83L83.22,290.06L83.24,16L83.25,300.15L83.39,16L84.03,290.63L84.14,235.25L84.15,16L84.39,281.4L84.88,119.85L84.95,16L85.64,303.04L85.67,215.05L85.69,88.12L85.75,295.83L85.75,16L86.43,16L86.48,232.36L86.48,16L86.89,300.87L87.23,297.11L87.24,82.35L87.52,295.11L87.91,16L87.94,232.36L88,269.86L88.5,298.71L88.68,16L88.73,170.34L88.84,16L89.26,290.06L89.58,287.17L89.6,99.66L89.68,16L89.78,301.6L90.33,148.7L90.41,119.85L90.42,16L90.74,298.71L91.14,163.13L91.17,157.36L91.69,301.6L91.96,16L91.97,16L92.52,293.66L92.65,290.06L92.73,30.42L92.76,16L93.43,297.27L93.46,16L93.49,256.4L93.59,16L93.67,298.71L93.84,16L93.88,16L94.1,298.71L94.65,258.32L94.65,62.16L94.91,16L95.04,295.83L95.33,16L95.43,16L95.94,258.32L96.18,16L96.19,16L96.44,292.94L96.91,235.25L96.91,16L97.33,292.94L97.43,16L97.45,16L97.67,275.63L98.1,16L98.24,16L98.72,294.38L98.9,183.32L98.94,16L99.19,295.83L99.67,157.36L99.76,215.05L99.76,16L99.91,292.94L100.49,16L100.52,16L100.54,18.88L100.55,301.6L101.28,16L101.34,27.54L101.35,208.32L101.43,16L101.51,299.75L101.97,264.69L102.11,62.16L102.16,16L102.26,295.83L102.81,281.4L102.88,215.05L102.89,16L102.94,285.61L103.62,16L103.64,33.31L103.79,16L104.02,295.83L104.34,16L104.4,243.9L104.4,16L104.64,300.15L105.15,16L105.23,16L105.49,303.04L105.91,16L106.01,16L106.07,284.29L106.7,212.17L106.79,16L107.31,295.83L107.51,16L107.59,140.05L107.62,16L107.71,295.83L108.32,16L108.4,264.09L108.44,16L108.51,284.29L109.04,56.39L109.17,30.42L109.17,16L109.52,287.17L109.92,201.45L109.95,16L110.47,297.12L110.6,256.4L110.6,16L110.96,302.32L111.3,16L111.36,82.35L111.36,16L111.7,298.82L111.95,178.99L112.17,16L112.3,284.29L112.84,96.77L112.85,16L113.47,303.04L113.57,16L113.65,16L114,301.62L114.45,275.63L114.45,54.83L114.69,278.52L114.98,16L115.03,76.58L115.03,243.9L115.4,301.6L115.8,16L115.8,16L115.86,142.93L115.96,301.6L116.01,16L116.58,285.25L116.58,16L117.02,295.83L117.13,16L117.16,16L117.28,295.83L117.91,192.06L117.93,16L118.62,298.71L118.67,16L118.71,16L119.01,226.59L119.45,16L119.48,16L120.07,278.52L120.23,16L120.26,16L120.52,300.51L121.01,93.89L121.01,16L121.06,299.14L121.71,16L121.78,16L121.83,301.6L122.53,30.42L122.62,16L123.15,284.29L123.41,249.67L123.41,16L123.96,292.94L124.14,166.01L124.21,16L124.96,294.53L125,30.42L125.03,16L125.32,301.6L125.71,16L125.76,232.36L125.78,16L126.22,272.75L126.51,16L126.53,16L126.9,298.71L127.2,16L127.3,39.08L127.3,298.71L127.33,16L128.01,16L128.07,16L128.24,16L128.26,226.59L128.26,16L128.84,298.71L128.98,41.96L129.02,65.04L129.1,16L129.17,291.5L129.72,34.75L129.78,160.24L129.78,285.73L129.82,16L130.52,16L130.57,16L131.34,298.21L131.34,16L131.96,281.4L131.98,264.09L131.98,16L132.15,264.09L132.35,122.74L132.44,16L132.97,288.15L133.21,105.43L133.3,16L133.4,301.6L133.94,16L134.07,16L134.58,287.17L134.82,105.43L134.82,16L134.92,295.83L135.58,105.43L135.59,16L136.07,300.15L136.33,196.3L136.35,16L136.51,16L136.51,16L136.54,140.05L136.68,16L137.19,292.94L137.25,16L137.3,16L138.05,301.6L138.07,264.09L138.47,274.67L138.8,16L138.8,16L138.91,16L138.96,144.21L139.04,125.62L139.04,288.82L139.7,301.6L139.74,16L139.77,278.52L139.8,41.96L139.98,298.71L140.19,16L140.19,16L140.26,228.03L140.35,301.6L140.98,16L141.05,16L141.18,292.94L141.78,238.13L141.81,16L141.96,284.29L142.49,70.81L142.55,16L143.15,295.83L143.3,148.7L143.37,16L143.62,300.15L143.97,281.4L143.97,25.11L144.03,16L144.37,301.6L144.44,16L144.7,303.04L145.15,212.17L145.2,16L145.66,259.61L145.95,16L145.96,96.77L146.09,16L146.22,301.6L146.22,18.88L146.24,301.6L146.26,16L146.96,111.2L146.97,16L147.44,295.11L147.7,281.22L147.73,223.71L147.96,298.71L148.45,16L148.49,302.32L148.67,303.76L149.23,16L149.23,16L149.26,215.05L149.29,16L149.29,298.71L149.99,91.01L150.03,91.01L150.47,301.6L150.76,16L150.76,16L150.76,209.28L150.79,297.99L150.92,16L151.45,255.44L151.52,16L151.98,298.71L152.27,151.59L152.27,16L152.69,292.22L153.01,16L153.05,16L153.31,300.73L153.75,16L153.8,16L153.88,290.06L154.46,134.28L154.57,108.31L154.64,16L154.86,290.06L155.3,122.74L155.43,144.6L155.49,16L155.95,290.06L156.1,33.31L156.21,16L156.29,32.18L156.64,16L156.66,266.98L157.05,278.52L157.41,16L157.42,112.16L157.52,16L158.09,303.76L158.17,16L158.21,16L158.67,303.04L158.85,16L158.86,16L159.37,301.6L159.61,16L159.66,16L159.84,287.17L160.4,16L160.42,16L161.15,301.6L161.2,284.29L161.2,16L161.45,287.17L161.89,39.08L161.9,16L161.99,283.57L162.65,16L162.66,16L162.83,285.73L163.36,91.01L163.43,16L164.06,290.06L164.18,16L164.23,16L164.63,303.76L164.91,16L164.96,16L165.04,295.83L165.71,16L165.75,16L165.86,295.83L166.48,50.62L166.52,16L167.1,289.34L167.25,266.98L167.25,16L167.38,287.17L167.99,279.48L168.03,91.01L168.05,16L168.7,290.06L168.73,290.06L168.79,16L169.54,295.83L169.63,16L169.69,297.99L170.38,145.82L170.39,90.18L170.39,16L170.39,301.6L171.12,122.74L171.15,261.21L171.15,16L171.3,281.4L171.9,168.89L171.91,16L172.36,292.94L172.59,226.59L172.71,93.89L172.76,298.71L173.15,16L173.36,203.51L173.45,203.51L173.45,16L173.54,270.58L174.16,16L174.23,16L174.33,301.6L174.93,166.01L174.99,16L175.14,287.17L175.64,16L175.75,24.65L175.75,16L175.77,295.83L176.42,190.43L176.51,16L177.23,301.6L177.27,298.71L177.32,16L177.98,298.14L178.11,278.52L178.12,44.85L178.12,275.63L178.19,16L178.83,16L178.91,16L179.31,303.04L179.65,76.58L179.75,16L180.28,291.5L180.47,91.01L180.56,16L181.05,272.75L181.26,16L181.33,16L182,301.6L182.06,186.47L182.1,16L182.19,30.42L182.19,160.24L182.24,16L182.6,300.15L182.88,284.29L182.88,16L183.46,290.06L183.48,275.63L183.5,16L183.54,300.15L184.24,16L184.29,16L184.62,287.17L185.03,16L185.06,16L185.07,295.83L185.81,171.78L185.82,16L186.03,16L186.03,295.83L186.08,16L186.73,16L186.81,16L187.24,272.75L187.53,16L187.56,16L187.65,298.71L188.27,266.98L188.29,16L188.59,290.06L189.04,163.13L189.08,174.66L189.12,16L189.63,281.4L189.83,189.09L189.87,16L190.62,290.06L190.62,290.06L190.64,16L191,277.08L191.34,108.31L191.4,246.78L191.4,16L191.73,295.83L192.13,111.2L192.16,76.58L192.31,16L192.32,301.6L192.91,16L192.93,176.57L192.93,16L193.06,273.47L193.68,16L193.69,122.74L193.71,16L193.98,271.31L194.44,131.39L194.47,16L194.56,235.25L195.17,180.43L195.17,16L195.88,268.42L195.98,16L196.27,297.99L196.77,168.89L196.8,16L197.38,278.52L197.54,16L197.6,166.01L197.66,16L198.1,292.94L198.34,16L198.38,16L198.61,269.86L199.08,59.27L199.16,16L199.43,290.06L199.79,16L199.8,16L200.42,301.6L200.54,274.91L200.59,16L201.15,295.83L201.31,50.62L201.39,16L201.78,292.94L202.12,246.78L202.15,16L202.58,292.94L202.73,275.63L202.75,16L202.78,290.06L203.5,16L203.51,131.39L204.12,301.6L204.22,16L204.22,16L204.24,255.44L204.24,16L204.94,301.6L204.98,268.42L205.02,160.24L205.02,16L205.06,292.94L205.74,16L205.78,16L206.23,290.06L206.58,209.28L206.6,16L206.8,16L206.8,16L206.83,177.55L206.83,229.48L206.83,16L207.58,122.74L207.59,197.74L208.08,281.4L208.36,16L208.36,27.54L208.36,301.6L209.13,16L209.13,16L209.13,160.24L209.13,16L209.44,294.38L209.88,145.82L209.91,16L210.52,294.38L210.64,16L210.68,238.13L210.69,16L210.84,264.09L211.43,212.17L211.44,16L211.78,298.71L211.94,16L211.99,16L212.55,287.17L212.72,16L212.8,16L213.55,277.01L213.57,114.08L213.57,16L213.72,261.21L214.31,16L214.34,122.74L214.44,16L215.03,301.6L215.05,18.88L215.09,16L215.74,301.6L215.79,16L215.82,16L215.89,287.17L216.52,16L216.57,16L216.78,291.06L217.28,109.76L217.33,203.51L217.35,16L217.46,292.94L218.08,16L218.12,16L218.32,27.54L218.37,292.94L218.37,16L219.1,16L219.14,41.96L219.18,16L219.66,301.6L219.87,264.09L220.05,16L220.56,284.29L220.64,59.27L220.75,16L221.31,295.83L221.39,215.05L221.53,16L221.66,303.04L222.23,174.66L222.27,16L222.29,18.88L222.29,303.04L222.29,16L223,277.08L223.06,16L223.2,298.71L223.82,189.09L223.83,39.08L223.96,292.94L223.99,16L224.57,41.96L224.6,16L224.84,303.76L225.35,301.6L225.36,18.88L225.4,303.04L225.42,16L226.11,298.71L226.12,27.54L226.12,292.94L226.18,16L226.84,16L226.89,230.92L227.55,298.71L227.6,16L227.64,288.15L227.64,16L228.16,290.06L228.37,160.24L228.4,16L228.7,295.83L228.78,16L228.79,16L228.81,284.29L229.48,16L229.54,16L230.08,290.06L230.35,116.97L230.39,16L230.82,278.52L230.87,44.85L230.88,16L230.91,291.5L231.6,272.75L231.64,53.5L231.67,16L232.12,291.5L232.38,134.28L232.47,16L233.08,303.04L233.21,30.42L233.24,290.06L233.68,300.87L234.02,16L234.02,16L234.02,274.19L234.75,298.82L234.81,16L234.81,16L234.85,65.04L234.85,16L234.94,281.4L235.6,16L235.62,248.23L235.62,16L236.02,290.06L236.37,16L236.4,16L236.4,297.18L237.15,65.04L237.16,255.44L237.19,16L237.86,16L237.92,16L238.45,303.04L238.67,65.04L238.69,36.61L238.69,301.38L238.74,16L239.36,232.36L239.49,212.17L239.73,275.63L240.24,16L240.24,16L240.27,16L240.51,294.38L241,16L241.09,16L241.63,292.94L241.78,16L241.92,16L242.02,291.5L242.03,16L242.27,297.99L242.74,16L242.8,16L243.38,303.04L243.51,16L243.52,16L243.83,290.74L244.3,167.45L244.3,16L244.73,303L245.05,50.62L245.14,301.6L245.14,16L245.82,114.21L245.9,105.43L245.9,16L246.12,293.66L246.64,16L246.67,16L247.19,290.78L247.4,16L247.43,33.31L247.53,295.83L247.75,16L247.79,274.83L247.81,290.06L247.85,16L248.53,160.24L248.57,16L249.18,301.6L249.27,16L249.34,278.52L249.35,290.06L249.35,16L250.09,194.86L250.11,215.05L250.58,295.83L250.85,16L250.85,278.52L250.94,292.94L250.95,16L251.08,298.71L251.63,16L251.71,16L251.91,287.17L252.44,16L252.54,16L253.11,281.4L253.28,16L253.3,289.34L254.08,16L254.08,16L254.1,16L254.37,301.6L254.83,16L254.88,16L255.07,284.29L255.22,16L255.32,16L255.63,301.6L255.98,252.55L256.09,16L256.36,282.84L256.83,111.2L256.88,209.28L257.57,16L257.57,301.62L257.69,16L258.36,294.86L258.43,180.85L258.47,16L259.14,275.63L259.24,246.78L259.24,73.7L259.45,16L259.49,290.06L259.49,16L260.24,16L260.33,191.97L260.43,16L260.54,301.6L261.06,16L261.09,134.28L261.63,290.06L261.86,16L261.87,16L262.07,269.86L262.62,16L262.72,16L262.88,16L262.88,16L262.88,232.36L262.88,16L263.51,292.94L263.6,210.72L263.64,16L263.85,16L263.85,16L263.86,287.17L263.97,16L264.2,301.6L264.56,16L264.68,16L264.69,270.58L265.42,225.15L265.48,16L266.1,299.43L266.14,16L266.27,16L266.74,295.83L266.98,191.97L267.06,125.62L267.19,16L267.35,223.71L267.69,134.28L267.72,16L268.35,301.6L268.5,295.41L268.53,16L268.62,295.83L269.21,16L269.29,16L269.78,292.94L270.02,125.62L270.1,16L270.17,27.54L270.17,292.94L270.91,301.6L270.92,16L270.92,56.39L270.98,275.63L271.2,298.71L271.69,16L271.75,246.06L271.75,16L271.8,298.71L272.49,16L272.54,16L272.76,293.93L273.29,62.16L273.4,171.78L273.4,16L273.44,272.75L274.13,16L274.16,16L274.47,301.91L274.9,16L274.92,16L275.07,291.5L275.67,16L275.74,76.58L275.82,16L276.12,301.6L276.47,16L276.56,82.35L276.56,16L277.19,303.04L277.31,16L277.32,26.3L277.34,16L277.74,294.38L278.05,16L278.09,16L278.77,298.82L278.79,246.78L278.89,16L279.61,290.06L279.73,238.13L279.74,82.35L279.91,290.06L280.33,16L280.34,255.86L280.4,16L280.59,295.83L281.08,16L281.1,16L281.37,295.83L281.85,154.47L281.86,16L282.06,301.6L282.57,148.7L282.66,16L282.84,16L282.84,197.74L283.41,289.41L283.6,16L283.6,16L283.61,50.62L283.67,16L283.97,290.06L284.36,16L284.4,16L285.14,292.54L285.19,235.25L285.21,16L285.86,297.27L285.87,16L285.95,274.11L285.98,16L286.02,298.71L286.69,238.13L286.8,16L287.32,287.17L287.41,73.7L287.44,16L287.67,264.09L288.19,246.06L288.21,249.67L288.21,16L288.23,255.44L288.96,194.86L289,16L289.45,301.78L289.74,16L289.76,16L290.45,283.33L290.49,16L290.52,216.49L290.68,298.71L291.26,16L291.3,16L291.43,278.52L292.08,243.9L292.08,76.58L292.49,298.71L292.66,16L292.76,229.69L292.76,16L292.87,298.71L293.51,36.19L293.53,284.29L294.12,299.43L294.28,16L294.28,82.35L294.29,271.31L294.65,298.71L295.06,16L295.06,16L295.09,298.71L295.13,16L295.8,63.6L295.9,16L295.99,292.94L296.01,16L296.67,292.94L296.72,217.94L296.78,16L297.13,298.71L297.49,28.98L297.64,168.11L297.67,16L297.97,284.29L298.37,16L298.4,18.88L298.4,301.6L298.49,16L299.13,70.81L299.2,114.08L299.27,16L299.66,300.87L299.91,16L299.96,16L300.03,300.11L300.68,50.62L300.75,16L301.04,301.6L301.37,16L301.51,16L301.89,296.16L302.24,16L302.33,16L302.94,290.06L303.01,252.55L303.07,16L303.13,284.29L303.77,16L303.91,246.78L304.06,16L304.26,301.6L304.66,39.08L304.72,259.96L304.72,16L304.79,292.46L305.46,16L305.5,109.45L305.5,16L305.68,295.83L306.14,16L306.32,16L306.32,296.55L307.03,230.92L307.1,16L307.26,16L307.27,163.13L307.34,16L307.4,284.29L307.99,16L308.07,16L308.29,301.6L308.8,180.43L308.84,246.78L308.84,16L308.87,275.63L309.55,53.5L309.6,16L310.09,296.47L310.31,290.06L310.39,16L311.11,292.94L311.18,16L311.28,39.08L311.28,281.4L311.38,298.71L312.04,16L312.04,16L312.13,16L312.22,271.31L312.81,171.78L312.82,16L313.06,302.15L313.57,243.9L313.57,16L313.58,301.6L314.3,131.39L314.4,131.39L314.41,16L314.95,287.17L315.11,203.51L315.17,116.97L315.33,16L315.55,292.94L315.85,197.74L315.85,16L316.38,295.83L316.45,16L316.46,16L316.89,301.6L317.19,275.63L317.19,16L317.48,302.32L317.99,299.67L318.03,16L318.31,292.94L318.72,275.63L318.79,16L319.26,296.08L319.56,292.22L319.56,65.04L319.67,16L319.96,292.94L320.21,16L320.35,16L320.51,281.4L321.06,16L321.13,16L321.24,298.71L321.85,44.85L321.87,16L322.54,301.6L322.62,16L322.64,16L323.38,301.6L323.39,66.48L323.4,16L323.43,292.79L324.13,160.24L324.19,30.42L324.19,301.6L324.31,16L324.87,16L325.01,16L325.36,301.6L325.71,16L325.78,27.54L325.93,249.67L326.17,16L326.18,251.11L326.49,292.94L326.86,16L326.9,255.44L326.95,16L327,292.94L327.03,220.1L327.06,16L327.22,27.54L327.23,16L327.28,292.94L327.33,16L328,154.47L328.07,73.7L328.09,16L328.66,252.55L328.79,16L328.85,16L329.41,264.81L329.58,16L329.61,16L330.18,292.94L330.31,16L330.37,16L330.54,297.27L331.09,16L331.14,16L331.56,303.04L331.87,16L331.91,142.93L331.95,290.78L331.97,16L332.65,258.32L332.8,27.54L332.81,292.94L332.86,16L333.52,56.39L333.58,266.98L334.24,298.71L334.31,16L334.32,122.74L334.39,16L334.92,298.71L335.14,220.82L335.16,16L335.75,292.94L335.93,82.35L335.95,16L336.12,290.06L336.7,16L336.74,16L337.5,290.06L337.6,102.89L337.62,16L338.09,295.83L338.28,217.94L338.36,16L338.53,16L338.53,108.31L338.54,16L338.76,284.29L339.28,16L339.29,16L339.44,294.38L339.97,47.7L340.06,293.39L340.83,16L340.83,290.06L340.84,16L341.57,278.52L341.61,41.96L341.69,16L342.01,292.94L342.32,176.11L342.39,272.75L342.77,290.06L343.03,16L343.16,41.96L343.19,162.66L343.64,295.83L343.91,16L343.91,16L343.95,99.66L344.11,16L344.25,295.83L344.7,57.21L344.75,206.4L344.77,16L344.96,287.17L345.5,16L345.58,105.43L345.6,16L345.81,296.55L346.33,50.62L346.35,252.55L346.39,16L346.93,271.79L347.09,36.19L347.12,91.01L347.13,16L347.26,296L347.82,226.59L347.88,96.77L347.89,16L348.45,292.94L348.61,16L348.77,16L348.9,266.8L349.29,194.86L349.32,16L349.55,16L349.56,290.06L349.58,16L349.99,295.83L350.27,16L350.33,266.98L350.37,16L351.06,287.17L351.07,249.67L351.15,16L351.84,292.94L351.92,243.9L351.95,16L352.15,298.71L352.74,165.29L352.79,16L353.39,298.71L353.49,16L353.56,21.77L353.56,298.71L353.58,16L354.29,160.24L354.38,16L354.91,301.6L355.13,108.31L355.14,16L355.73,273.71L355.89,16L355.9,16L355.9,297.27L356.65,30.19L356.66,91.01L356.67,16L357.26,287.17L357.41,272.75L357.42,16L357.9,301.6L358.07,212.17L358.18,16L358.24,292.94L358.86,246.78L358.95,81.56L359.22,16L359.58,271.19L359.67,220.82L359.69,16L359.92,295.83L360.39,16L360.45,16L360.67,16L360.77,160.24L360.77,16L361.3,290.06L361.49,134.28L361.53,16L361.72,295.83L362.28,255.44L362.34,108.31L362.34,16L362.58,284.29L363.09,16L363.1,241.02L363.45,290.06L363.84,16L363.89,36.19L363.89,154.47L364,284.29L364.67,16L364.73,216.49L364.73,16L364.89,303.04L365.47,268.42L365.5,16L366.19,301.6L366.2,16L366.26,16L366.39,284.29L366.99,16L367.04,16L367.77,301.6L367.78,16L367.8,212.17L367.8,300.15L367.92,16L368.54,16L368.56,196.3L368.6,16L369.02,290.06L369.31,16L369.33,44.85L369.41,16L369.7,286.49L370.08,16L370.11,250.39L370.14,16L370.43,301.6L370.8,140.77L370.87,251.83L371.29,290.06L371.48,16L371.48,16L371.48,250.87L371.8,293.39L372.24,16L372.26,16L372.85,272.75L372.98,180.43L373.05,16L373.81,301.6L373.82,298.71L373.83,16L374.54,238.85L374.63,16L374.8,291.5L375.23,88.12L375.23,16L375.28,292.94L375.95,16L376.07,16L376.19,298.71L376.82,16L376.83,41.96L376.91,16L376.95,284.29L377.57,16L377.61,154.47L377.73,16L378.33,297.27L378.35,16L378.38,16L379.04,292.94L379.09,47.73L379.18,16L379.37,303.76L379.86,295.83L379.88,16L380.63,301.62L380.63,16L380.64,16L380.77,301.6L381.39,18.88L381.49,16L382.06,297.99L382.18,261.77L382.28,16L382.56,301.6L382.96,102.54L383.17,217.94L383.26,16L383.61,287.17L383.91,258.32L384.07,258.32L384.08,16L384.31,298.71L384.82,16L384.83,278.52L384.9,295.83L385.6,16L385.6,16L385.6,209.28L385.6,301.6L385.66,16L386.31,16L386.43,16L386.63,301.62L386.82,261.21L386.85,16L387.04,301.6L387.6,16L387.62,16L387.66,296.55L388.36,16L388.39,16L388.75,301.6L389.16,246.78L389.17,73.7L389.19,16L389.89,301.62L389.89,16L390.54,295.83L390.63,93.89L390.65,226.59L390.99,292.94L391.26,16L391.27,191.97L391.43,191.97L391.46,16L391.96,289.76L392.17,177.55L392.19,142.93L392.25,16L392.61,284.29L392.93,245.34L393.07,252.55L393.41,298.82L393.75,16L393.78,214.09L393.82,287.17L393.83,16L394.25,295.83L394.54,73.7L394.6,168.89L394.61,16L395.11,290.06L395.2,16L395.39,16L395.85,298.71L396.09,216.33L396.11,16L396.77,301.6L396.86,47.73L396.88,16L396.88,284.29L397.63,217.94L397.65,102.54L397.72,16L398.32,287.17L398.37,16L398.4,16L398.83,298.71L399.14,112.16L399.18,16L399.76,269.86L399.95,114.21L399.95,16L400.29,303.05L400.7,275.63L400.7,16L400.96,295.83L401.44,265.54L401.46,93.89L401.78,299.43L402.17,16L402.17,284.29L402.43,303.04L402.96,16L402.96,16L402.96,298.71L402.96,16L403.71,16L403.79,16L404.08,297.99L404.43,16L404.56,16L405.16,292.94L405.25,131.39L405.29,16L405.75,298.71L406.04,16L406.05,16L406.75,292.94L406.82,194.86L406.84,125.62L407,16L407.2,281.4L407.47,203.51L407.49,16L407.76,301.6L408.23,41.96L408.3,16L408.62,298.71L409.02,76.58L409.07,16L409.49,301.6L409.82,16L409.92,16L409.98,290.06L410.65,200.63L410.69,16L410.76,258.32L411.43,202.66L411.47,16L412.15,298.71L412.22,16L412.36,16L413.09,301.6L413.13,180.43L413.13,34.92L413.15,16L413.45,300.15L413.88,131.39L413.88,16L414.25,287.17L414.44,254.41L414.46,16L414.68,301.48L415.16,266.98L415.16,53.5L415.16,16L415.66,293.66L415.89,292.71L415.95,209.28L415.95,16L416.35,287.17L416.67,217.94L416.72,281.4L417.46,16L417.48,82.35L417.55,16L418,286.89L418.14,16L418.26,16L418.53,16L418.53,220.82L418.78,301.6L419.26,16L419.26,30.42L419.35,301.6L419.36,16L420.07,16L420.12,16L420.44,287.17L420.54,16L420.63,16L421.15,290.06L421.21,47.73L421.34,16L421.99,284.29L422.08,16L422.11,16L422.87,284.29L422.9,36.19L422.9,284.29L423.13,16L423.65,16L423.68,275.63L424.37,287.17L424.42,16L424.45,16L425.08,295.83L425.23,281.4L425.23,171.78L425.53,287.17L425.99,16L426.11,16L426.29,295.83L426.7,16L426.77,16L427.27,261.21L427.49,70.81L427.53,41.96L427.55,16L427.74,298.71L428.19,16L428.31,16L428.97,266.98L429.01,16L429.08,39.08L429.09,16L429.46,301.73L429.82,16L429.86,16L430.62,301.6L430.62,16L430.78,27.54L430.8,16L430.8,292.94L431.56,16L431.6,138.6L431.64,16L431.74,293.66L432.34,212.17L432.36,16L432.5,300.87L433.07,140.05L433.15,50.62L433.19,16L433.41,292.94L433.88,287.17L433.9,33.31L434.05,16L434.33,295.83L434.56,16L434.71,16L434.72,284.29L435.45,181.88L435.52,261.21L435.93,298.71L436.27,16L436.27,160.24L436.31,16L436.57,295.83L437.06,16L437.12,241.02L437.17,16L437.26,264.09L437.78,16L437.88,76.58L437.97,16L438.54,295.83L438.62,246.78L438.65,16L438.96,298.71L439.38,39.08L439.43,16L440.06,284.59L440.18,154.69L440.25,16L440.28,295.83L440.97,16L441,76.58L441.02,16L441.36,281.4L441.74,16L441.78,16L442.19,281.47L442.51,163.13L442.55,16L442.68,291.21L443.28,242.46L443.33,16L443.64,295.83L443.9,160.24L443.97,16L444.71,292.94L444.72,16L444.73,16L445.18,287.17L445.42,70.81L445.49,16L446.25,301.62L446.26,18.88L446.51,16L446.56,36.19L446.56,284.29L446.7,295.83L447.34,16L447.34,16L447.34,282.84L447.34,16L447.41,300.16L448,238.13L448.1,16L448.25,295.83L448.84,16L448.88,278.52L449.28,290.06L449.6,16L449.62,160.24L449.65,168.21L450.37,295.83L450.38,16L450.39,142.21L450.42,67.93L450.5,16L451.04,299.67L451.15,223.71L451.17,16L451.35,303.04L451.89,24.65L451.93,24.65L452.05,16L452.1,295.83L452.67,16L452.7,16L452.73,297.99L453.43,217.94L453.52,16L453.72,269.86L454.09,16L454.25,16L454.25,295.83L455,16L455.03,70.81L455.16,285.03L455.73,16L455.73,16L455.75,232.36L455.8,298.71L456.48,16L456.49,96.77L456.49,223.71L456.77,299.35L457.24,16L457.33,16L457.42,17.44L457.42,303.76L457.43,303.04L457.45,18.88L457.46,16L457.46,197.74L457.49,32.03L457.49,301.6L458.26,16L458.3,16L458.44,289.49L459.03,70.81L459.09,105.17L459.09,16L459.17,292.94L459.83,278.52L459.85,41.96L459.87,16L460.46,297.56L460.56,16L460.67,62.16L460.68,16L460.86,301.6L461.39,16L461.47,16L462.01,298.71L462.23,281.4L462.25,16L462.69,298.71L463.01,212.17L463.02,203.51L463.23,16L463.28,283.11L463.77,197.74L463.8,91.01L463.81,16L464.55,298.71L464.55,243.9L464.57,16L464.98,275.63L465.27,194.86L465.33,16L465.52,292.94L466.08,16L466.15,16L466.68,300.15L466.86,114.08L466.87,16L467.07,300.96L467.54,16L467.57,16L468.2,290.06L468.26,232.36L468.27,16L468.53,292.94L468.91,16L468.94,16L469.25,290.06L469.61,16L469.72,99.66L469.76,16L469.78,291.02L470.3,197.74L470.3,16L471,297.27L471.03,238.13L471.06,16L471.2,275.63L471.68,16L471.87,16L472.61,298.82L472.62,16L472.68,160.24L473.2,301.6L473.37,16L473.42,44.85L473.45,217.94L473.79,275.63L474.22,16L474.22,16L474.23,244.86L474.26,269.86L474.27,16L474.98,183.32L475.02,149.14L475.52,299.43L475.65,16L475.75,62.16L475.78,258.32L475.82,16L475.86,295.83L476.35,16L476.41,16L476.94,292.94L477.16,16L477.21,16L477.96,290.06L477.96,204.27L477.99,30.42L478,298.71L478,16L478.73,281.4L478.76,217.94L478.88,288.61L479.54,16L479.54,288.61L479.54,16L479.85,298.71L480.27,16L480.34,105.43L480.5,16L480.65,281.4L481.06,16L481.13,16L481.4,16L481.4,160.24L481.49,16L481.56,303.56L482.03,194.86L482.08,16L482.49,269.08L482.75,16L482.79,16L482.83,264.09L483.43,16L483.46,16L484.18,290.06L484.21,30.42L484.27,16L484.46,295.83L485,241.02L485.04,16L485.64,287.17L485.77,76.58L485.82,16L485.89,295.83L486.51,16L486.58,174.66L486.86,301.6L487.33,16L487.33,191.97L487.66,301.6L488.07,16L488.14,114.08L488.14,16L488.69,298.71L488.88,16L488.91,16L489.27,295.83L489.53,16L489.57,16L490.02,301.6L490.31,16L490.35,16L491,299.43L491.09,270.54L491.15,16L491.23,21.77L491.23,298.71L491.95,16L491.97,27.54L492.06,292.94L492.06,16L492.66,295.83L492.81,16L492.83,16L493.19,301.6L493.56,86.36L493.57,16L494.14,303.04L494.26,88.12L494.33,16L494.38,296L495.07,16L495.1,16L495.74,295.83L495.86,153.03L495.89,16L495.96,300.15L496.64,16L496.69,65.04L497.19,301.6L497.3,16L497.38,160.24L497.38,16L497.62,290.06L498.11,217.94L498.16,16L498.8,295.83L498.91,16L498.94,272.75L499.03,298.71L499.59,16L499.6,91.01L499.79,16L500.53,287.17L500.53,33.31L500.57,16L500.57,301.6L501.31,56.39L501.38,264.09L501.45,292.94L502.01,16L502.13,226.59L502.16,93.89L502.56,246.78L502.62,16L502.62,114.08L502.69,258.32L502.79,16L502.87,290.06L503.44,16L503.45,16L503.74,265.54L504.17,16L504.21,16L504.7,294.86L504.89,16L504.98,16L505.44,298.82L505.72,102.54L505.75,194.86L506.02,298.82L506.47,16L506.54,284.29L506.59,16L506.85,292.94L507.29,16L507.3,16L507.47,292.94L508.11,278.26L508.11,44.85L508.17,302.32L508.3,16L508.83,53.22L508.92,16L509.08,239.57L509.67,16L509.74,16L509.82,303.04L510.43,56.39L510.44,16L510.87,292.94L511,73.7" style="vector-effect: non-scaling-stroke; fill: none; stroke: rgb(99, 110, 250); stroke-opacity: 1; stroke-width: 2px; opacity: 1;"/></g><g class="points"/><g class="text"/></g></g></g><g class="overplot"/><path class="xlines-above crisp" d="M0,0" style="fill: none;"/><path class="ylines-above crisp" d="M0,0" style="fill: none;"/><g class="overlines-above"/><g class="xaxislayer-above"><g class="xtick"><text text-anchor="middle" x="0" y="436" transform="translate(198.14,0)" style="font-family: 'Times New Roman'; font-size: 15px; fill: rgb(13, 13, 13); fill-opacity: 1; white-space: pre; opacity: 1;">1.61252×10​<tspan style="font-size:70%" dy="-0.6em">18</tspan><tspan dy="0.42em">​</tspan></text></g><g class="xtick"><text text-anchor="middle" x="0" y="436" style="font-family: 'Times New Roman'; font-size: 15px; fill: rgb(13, 13, 13); fill-opacity: 1; white-space: pre; opacity: 1;" transform="translate(299.55,0)">1.612525×10​<tspan style="font-size:70%" dy="-0.6em">18</tspan><tspan dy="0.42em">​</tspan></text></g><g class="xtick"><text text-anchor="middle" x="0" y="436" style="font-family: 'Times New Roman'; font-size: 15px; fill: rgb(13, 13, 13); fill-opacity: 1; white-space: pre; opacity: 1;" transform="translate(400.96,0)">1.61253×10​<tspan style="font-size:70%" dy="-0.6em">18</tspan><tspan dy="0.42em">​</tspan></text></g><g class="xtick"><text text-anchor="middle" x="0" y="436" style="font-family: 'Times New Roman'; font-size: 15px; fill: rgb(13, 13, 13); fill-opacity: 1; white-space: pre; opacity: 1;" transform="translate(502.37,0)">1.612535×10​<tspan style="font-size:70%" dy="-0.6em">18</tspan><tspan dy="0.42em">​</tspan></text></g><g class="xtick"><text text-anchor="middle" x="0" y="436" style="font-family: 'Times New Roman'; font-size: 15px; fill: rgb(13, 13, 13); fill-opacity: 1; white-space: pre; opacity: 1;" transform="translate(603.78,0)">1.61254×10​<tspan style="font-size:70%" dy="-0.6em">18</tspan><tspan dy="0.42em">​</tspan></text></g></g><g class="yaxislayer-above"><g class="ytick"><text text-anchor="end" x="108" y="12.25" transform="translate(0,404.48)" style="font-family: 'Times New Roman'; font-size: 35px; fill: rgb(13, 13, 13); fill-opacity: 1; white-space: pre; opacity: 1;">0</text></g><g class="ytick"><text text-anchor="end" x="108" y="12.25" style="font-family: 'Times New Roman'; font-size: 35px; fill: rgb(13, 13, 13); fill-opacity: 1; white-space: pre; opacity: 1;" transform="translate(0,346.78)">20</text></g><g class="ytick"><text text-anchor="end" x="108" y="12.25" style="font-family: 'Times New Roman'; font-size: 35px; fill: rgb(13, 13, 13); fill-opacity: 1; white-space: pre; opacity: 1;" transform="translate(0,289.09000000000003)">40</text></g><g class="ytick"><text text-anchor="end" x="108" y="12.25" style="font-family: 'Times New Roman'; font-size: 35px; fill: rgb(13, 13, 13); fill-opacity: 1; white-space: pre; opacity: 1;" transform="translate(0,231.39)">60</text></g><g class="ytick"><text text-anchor="end" x="108" y="12.25" style="font-family: 'Times New Roman'; font-size: 35px; fill: rgb(13, 13, 13); fill-opacity: 1; white-space: pre; opacity: 1;" transform="translate(0,173.7)">80</text></g><g class="ytick"><text text-anchor="end" x="108" y="12.25" style="font-family: 'Times New Roman'; font-size: 35px; fill: rgb(13, 13, 13); fill-opacity: 1; white-space: pre; opacity: 1;" transform="translate(0,116)">100</text></g></g><g class="overaxes-above"/></g></g><g class="polarlayer"/><g class="smithlayer"/><g class="ternarylayer"/><g class="geolayer"/><g class="funnelarealayer"/><g class="pielayer"/><g class="iciclelayer"/><g class="treemaplayer"/><g class="sunburstlayer"/><g class="glimages"/><defs id="topdefs-ac3aea"><g class="clips"/></defs><g class="layer-above"><g class="imagelayer"/><g class="shapelayer"/></g><g class="infolayer"><g class="g-gtitle"/><g class="g-xtitle"><text class="xtitle" x="364.5" y="463.8" text-anchor="middle" style="font-family: 'Open Sans', verdana, arial, sans-serif; font-size: 14px; fill: rgb(42, 63, 95); opacity: 1; font-weight: normal; white-space: pre;">Time Steps (ns)</text></g><g class="g-ytitle" transform="translate(23.5,0)"><text class="ytitle" transform="rotate(-90,12.5,260)" x="12.5" y="260" text-anchor="middle" style="font-family: 'Times New Roman'; font-size: 40px; fill: rgb(13, 13, 13); opacity: 1; font-weight: normal; white-space: pre;">Fill rate (in %)</text></g></g></svg>