<svg class="main-svg" xmlns="http://www.w3.org/2000/svg" xmlns:xlink="http://www.w3.org/1999/xlink" width="700" height="500" style="" viewBox="0 0 700 500"><rect x="0" y="0" width="700" height="500" style="fill: rgb(255, 255, 255); fill-opacity: 1;"/><defs id="defs-601b02"><g class="clips"><clipPath id="clip601b02xyplot" class="plotclip"><rect width="494" height="320"/></clipPath><clipPath class="axesclip" id="clip601b02x"><rect x="126" y="0" width="494" height="500"/></clipPath><clipPath class="axesclip" id="clip601b02y"><rect x="0" y="100" width="700" height="320"/></clipPath><clipPath class="axesclip" id="clip601b02xy"><rect x="126" y="100" width="494" height="320"/></clipPath></g><g class="gradients"/><g class="patterns"/></defs><g class="bglayer"><rect class="bg" x="126" y="100" width="494" height="320" style="fill: rgb(229, 236, 246); fill-opacity: 1; stroke-width: 0;"/></g><g class="layer-below"><g class="imagelayer"/><g class="shapelayer"/></g><g class="cartesianlayer"><g class="subplot xy"><g class="layer-subplot"><g class="shapelayer"/><g class="imagelayer"/></g><g class="minor-gridlayer"><g class="x"/><g class="y"/></g><g class="gridlayer"><g class="x"><path class="xgrid crisp" transform="translate(212.18,0)" d="M0,100v320" style="stroke: rgb(255, 255, 255); stroke-opacity: 1; stroke-width: 1px;"/><path class="xgrid crisp" transform="translate(310.21000000000004,0)" d="M0,100v320" style="stroke: rgb(255, 255, 255); stroke-opacity: 1; stroke-width: 1px;"/><path class="xgrid crisp" transform="translate(408.25,0)" d="M0,100v320" style="stroke: rgb(255, 255, 255); stroke-opacity: 1; stroke-width: 1px;"/><path class="xgrid crisp" transform="translate(506.29,0)" d="M0,100v320" style="stroke: rgb(255, 255, 255); stroke-opacity: 1; stroke-width: 1px;"/><path class="xgrid crisp" transform="translate(604.3199999999999,0)" d="M0,100v320" style="stroke: rgb(255, 255, 255); stroke-opacity: 1; stroke-width: 1px;"/></g><g class="y"><path class="ygrid crisp" transform="translate(0,341.28)" d="M126,0h494" style="stroke: rgb(255, 255, 255); stroke-opacity: 1; stroke-width: 1px;"/><path class="ygrid crisp" transform="translate(0,278.57)" d="M126,0h494" style="stroke: rgb(255, 255, 255); stroke-opacity: 1; stroke-width: 1px;"/><path class="ygrid crisp" transform="translate(0,215.85)" d="M126,0h494" style="stroke: rgb(255, 255, 255); stroke-opacity: 1; stroke-width: 1px;"/><path class="ygrid crisp" transform="translate(0,153.13)" d="M126,0h494" style="stroke: rgb(255, 255, 255); stroke-opacity: 1; stroke-width: 1px;"/></g></g><g class="zerolinelayer"><path class="yzl zl crisp" transform="translate(0,404)" d="M126,0h494" style="stroke: rgb(255, 255, 255); stroke-opacity: 1; stroke-width: 2px;"/></g><path class="xlines-below"/><path class="ylines-below"/><g class="overlines-below"/><g class="xaxislayer-below"/><g class="yaxislayer-below"/><g class="overaxes-below"/><g class="plot" transform="translate(126,100)" clip-path="url(#clip601b02xyplot)"><g class="scatterlayer mlayer"><g class="trace scatter trace34a087" style="stroke-miterlimit: 2; opacity: 1;"><g class="fills"/><g class="errorbars"/><g class="lines"><path class="js-line" d="M0,303.97L0.72,302.39L0.83,304L0.99,301.85L1.55,303.83L1.62,304L1.75,302.15L2.37,303.99L2.47,304L2.57,302.08L3.11,304L3.31,304L3.37,301.8L3.88,303.1L4.11,304L4.32,300.99L4.86,304L4.87,303.96L4.88,304L5.02,297.38L5.58,304L5.64,304L6.19,291.95L6.36,304L6.44,304L7.19,288.78L7.21,304L7.34,302.75L7.37,304L7.37,285.71L7.37,304L7.38,280.77L8.11,299.93L8.23,304L8.83,300.71L8.92,304L8.99,303.79L8.99,304L9.28,299.12L9.73,300.34L9.81,303.97L9.87,304L10.32,300.31L10.49,303.46L10.76,302.63L10.76,304L11.28,298.97L11.51,304L11.52,303.95L11.68,303.39L11.73,304L11.74,301.39L11.74,304L12.47,304L12.5,303.9L12.58,300.61L12.58,304L13.2,303.76L13.26,303.69L13.3,298.06L13.32,304L14,304L14.03,304L14.37,297.07L14.42,302.17L14.42,284.71L15.25,304L15.28,304L15.8,298.97L15.99,304L16.05,303.89L16.38,304L16.4,302.95L16.67,304L16.7,299.74L16.7,301.36L16.73,276.71L16.73,304L16.81,268.91L17.48,304L17.56,301.95L17.56,304L18.26,303.03L18.32,303.91L18.52,304L18.55,299.71L19.03,302.5L19.11,303.65L19.11,304L19.3,295.84L19.83,304L19.87,302.26L19.93,302.03L20.36,304L20.47,303.95L20.49,291.86L21.21,304L21.24,303.93L21.28,304L21.48,303.28L21.58,303.36L21.6,300.24L21.6,304L22.21,294.77L22.34,304L22.36,303.79L22.44,291.07L22.57,304L22.57,304L22.57,286.37L23.33,304L23.47,301.93L23.47,304L24.14,301.31L24.17,303.68L24.37,304L24.46,300.47L25.1,304L25.16,303.28L25.16,304L25.67,296.26L25.88,304L25.93,299.43L25.93,304L26.57,304L26.71,303.3L26.71,304L27.38,287.03L27.44,304L27.47,304L28.15,300.37L28.22,303.27L28.23,303.22L28.23,304L28.73,291.63L28.98,304L29.12,304L29.29,299.11L29.39,304L29.39,279.5L30.15,304L30.17,303.52L30.24,303.76L30.48,303.4L30.85,304L30.85,299.98L31.55,304L31.61,302.29L31.63,301.93L31.63,304L32.04,296.09L32.37,302.39L32.46,302.07L32.46,304L32.95,249.34L33.19,300.25L33.22,300.8L33.22,304L33.26,300.72L33.93,303.83L33.98,303.12L33.98,304L34.52,291.64L34.71,303.79L34.81,303.9L35.06,304L35.08,303.42L35.08,301.27L35.14,304L35.33,298.98L35.72,302.93L35.92,304L36.55,296.55L36.67,303.8L36.68,303.12L36.69,304L36.69,302.91L37.35,303.91L37.46,304L37.65,301.01L38.18,304L38.23,304L38.64,298.02L38.91,303.99L39,303.7L39.39,301.19L39.66,304L39.66,303.35L39.78,304L39.78,299.29L40.5,303.92L40.56,304L41.12,297.95L41.28,303.95L41.32,303.96L41.36,304L41.53,302.7L41.61,303.82L41.61,295.27L42.35,304L42.35,303.08L42.39,303.98L42.69,302L42.77,303.72L42.78,294.71L42.78,304L43.53,304L43.55,304L43.61,303.67L43.62,297.99L43.8,263.96L44.41,304L44.42,303.65L45.09,301.86L45.17,304L45.17,303.88L45.18,303.71L45.54,301.48L45.71,304L45.72,303.97L45.76,300.4L45.78,299.69L45.78,304L46.4,304L46.53,303.55L46.81,295.93L47.2,304L47.21,301.92L47.21,304L47.74,293.4L47.96,304L47.98,303.79L48.35,301.57L48.71,304L48.71,303.93L48.77,304L49.09,299.38L49.5,304L49.54,304L50.04,302.23L50.26,303.31L50.31,304L51.02,299.97L51.05,304L51.07,304L51.3,302.7L51.79,304L51.83,295.25L51.83,304L52.34,288.47L52.58,303.71L52.64,303.93L52.65,304L52.95,302.06L53.39,304L53.44,304L53.84,298.25L54.13,304L54.22,304L54.84,295.21L54.97,301.96L55.02,304L55.1,297.63L55.29,302.61L55.3,304L55.96,300.71L56.04,303.72L56.09,304L56.1,300.26L56.78,304L56.82,304L56.98,290.79L57.55,299.38L57.58,303.66L58.04,299.8L58.28,304L58.31,303.75L58.35,303.86L58.47,304L58.99,301.23L59.09,303.41L59.11,304L59.42,302.24L59.48,304L59.48,299.71L59.78,297.05L60.25,304L60.27,302.88L60.27,304L61.02,303.96L61.03,304L61.31,293.76L61.76,303.84L61.76,304L62.2,301.92L62.29,304L62.29,287.03L62.36,304L63.04,304L63.06,303.91L63.16,304L63.66,303.22L63.81,303.93L63.81,304L64.05,300.58L64.58,303.66L64.58,304L65.3,294.82L65.34,299.79L65.37,304L65.7,294.93L65.94,302.77L65.96,304L66.68,290.33L66.71,304L66.73,303.94L66.75,304L67.39,290.75L67.46,304L67.49,304L67.49,298.39L68.21,303.94L68.27,303.01L68.27,304L68.99,297.81L69.02,304L69.04,304L69.15,297.33L69.76,303.98L69.8,303.89L69.97,304L70.13,302.59L70.18,303.51L70.25,304L70.4,303.02L70.99,304L71.01,302.96L71.01,304L71.28,301.71L71.75,303.97L71.77,303.52L71.77,304L72.47,295.85L72.51,303.8L72.59,302.85L72.92,294.95L73.27,304L73.32,303.88L73.33,298.92L73.37,298.65L74.02,304L74.08,303.89L74.11,303.9L74.19,304L74.2,302.99L74.24,304L74.25,301.02L74.25,304L74.66,299.57L75,304L75.03,304L75.37,297.27L75.69,304L75.73,303.77L75.78,304L75.94,298.34L76.38,304L76.51,304L76.9,298.27L77.02,304L77.03,304L77.72,289.37L77.74,304L77.8,303.88L77.88,304L78.42,284.99L78.53,303.91L78.58,304L79.36,300.85L79.36,301.21L79.37,303.97L79.46,304L79.98,301.29L80.06,303.92L80.12,303.82L80.3,303.4L80.43,304L80.43,302L80.64,298.4L81.16,304L81.18,303.78L81.19,303.97L81.41,302.71L81.45,304L81.5,298.12L81.52,304L82.22,304L82.26,303.97L82.31,303.77L82.31,304L82.41,304L82.41,300.63L82.41,304L82.9,295.84L83.15,304L83.17,304L83.6,300.53L83.9,304L83.94,304L83.96,297.61L84.69,303.88L84.73,303.84L84.77,304L85.28,299.86L85.37,304L85.52,303.22L86.01,301.21L86.29,304L86.37,304L87.04,301.24L87.14,303.33L87.14,304L87.49,297.21L87.82,303.95L87.9,303.74L88.07,303.57L88.3,304L88.3,303.98L88.33,301.73L88.33,304L88.57,300.39L89.06,304L89.12,304L89.49,301.25L89.84,302.65L89.85,304L90.01,289.24L90.56,303.99L90.63,304L90.99,296.52L91.34,304L91.4,304L92.09,302.74L92.09,304L92.11,287.23L92.74,303.8L92.79,304L93.08,273.04L93.49,303.47L93.6,303.64L93.6,304L94.33,294.94L94.37,303.86L94.41,304L94.53,291.96L94.7,303.95L94.72,303.96L95.02,304L95.02,302.41L95.44,301.56L95.84,304L95.89,303.84L95.89,304L96.59,293.26L96.63,303.99L96.66,303.92L96.66,304L96.76,301.85L97.41,303.37L97.43,303.81L97.43,304L97.77,298.32L98.18,304L98.23,304L98.76,295.34L98.98,303.8L99.02,303.94L99.08,304L99.3,302.13L99.37,304L99.38,300.58L99.47,283.74L100.1,304L100.18,304L100.84,300.16L100.93,304L100.94,303.88L101.12,304L101.46,298.21L101.65,303.67L101.73,304L101.96,302.06L102.48,304L102.49,303.85L102.54,301.83L102.93,304L102.93,295.44L103.31,292.05L103.59,304L103.68,303.2L103.74,303.82L103.8,302.11L103.86,304L103.88,300.97L103.88,304L104.49,298.14L104.59,304L104.67,303.7L104.9,300.02L105.24,304L105.25,303.79L105.35,302.86L105.41,304L105.83,301.34L106.09,303.52L106.12,303.9L106.14,302.56L106.14,304L106.48,304L106.5,180.61L106.5,304L106.78,179.73L107.24,304L107.26,304L107.9,290.3L108.01,303.93L108.06,304L108.77,300.17L108.84,304L109.34,301.53L109.49,302.07L109.6,304L110.03,295.79L110.35,303.82L110.44,303.4L110.5,301.83L111.2,304L111.2,301.6L111.53,294.7L111.95,304L111.95,303.99L112.01,303.61L112.1,301.86L112.73,304L112.82,303.69L112.92,304L113.28,300.95L113.47,303.96L113.61,303.73L113.61,304L114.11,297.54L114.36,303.9L114.43,304L114.62,294.62L115.06,304L115.07,304L115.61,291.01L115.82,303.98L115.84,303.95L115.9,303.34L115.9,304L115.9,293.55L116.64,304L116.67,303.85L116.7,301.79L116.75,304L117.33,304L117.35,304L117.91,296.61L118.03,303.97L118.13,304L118.74,295.98L118.83,304L118.9,304L118.9,294.52L119.62,303.83L119.76,304L119.84,301L120.01,302.74L120.08,304L120.78,286.27L120.8,303.93L120.84,304L120.98,302.24L121.6,303.81L121.6,304L122.17,301.68L122.32,304L122.37,303.63L122.44,300.72L123.16,304L123.23,304L123.33,297.21L123.98,303.83L124,301.62L124,304L124.21,299.28L124.73,303.97L124.81,303.78L124.81,304L125.25,300.27L125.53,304L125.58,302.87L126.06,300.22L126.32,304L126.34,301.37L126.34,304L126.97,297.29L127.08,304L127.16,304L127.18,264.44L127.86,303.88L127.94,303.73L128.29,304L128.33,303.16L128.33,303.41L128.33,299.58L128.33,304L128.63,297.92L129.06,301.24L129.09,304L129.23,302.45L129.78,304L129.94,304L130.4,300.73L130.69,302.94L130.72,303.9L130.75,304L131.01,296.46L131.47,304L131.5,304L131.77,300.92L132.25,302.39L132.26,304L132.68,301.62L132.99,303.22L133.07,303.75L133.32,301.89L133.7,304L133.7,299.15L133.7,304L133.86,297.39L134.43,303.99L134.57,304L134.73,301.48L134.75,300.13L134.77,304L135.1,293.21L135.46,304L135.52,303.73L135.74,302.85L135.78,304L135.89,301.89L135.95,301.42L135.98,304L136.37,303.81L136.38,304L136.6,302.67L137.11,304L137.14,303.77L137.14,304L137.89,302.08L137.95,304L138.38,291.55L138.68,304L138.74,303.75L138.74,304L138.89,290.29L139.48,304L139.54,304L139.79,286.43L139.82,303.2L139.88,304L140.07,297.9L140.5,303.36L140.63,302.69L140.63,304L141.09,293.31L141.37,303.95L141.39,304L141.75,304L141.75,302.83L142.14,300.7L142.47,304L142.47,299.3L142.54,286.21L143.25,304L143.28,304L143.48,303.46L143.51,304L143.55,302.38L143.84,297.03L144.16,304L144.21,294.92L144.21,304L144.74,293.08L144.96,304L144.97,302.93L144.97,304L145.55,297.62L145.72,304L145.74,304L146.41,300.93L146.48,303.72L146.49,304L146.92,301.59L146.92,293.02L146.92,304L147.63,303.4L147.75,301.71L148.29,295.95L148.45,304L148.59,304L148.92,286.53L149.32,303.92L149.43,302.94L149.43,304L149.95,299.64L150.13,303.95L150.26,304L150.91,289.28L151.01,303.88L151.05,304L151.5,284.36L151.8,304L151.83,303.82L151.99,301.36L152.52,304L152.55,300.44L152.55,304L152.84,298.4L153.15,299.31L153.31,304L153.82,302.45L154.05,303.97L154.07,303.96L154.07,304L154.3,274.11L154.76,304L154.85,303.75L154.98,304L155.24,215.51L155.6,303.53L155.66,303.82L155.68,304L156.08,301.96L156.38,303.68L156.42,304L156.56,303.53L156.56,304L156.6,300.13L157.02,298.24L157.2,304L157.23,303.86L157.23,166.87L157.99,304L157.99,303.78L157.99,304L158.58,296.27L158.72,304L158.77,304L158.86,303.29L159.05,303.38L159.05,299.67L159.18,298.36L159.77,304L159.85,304L159.98,300.53L160.58,303.64L160.63,303.43L160.81,300.01L161.2,304L161.26,303.41L161.26,297.8L161.81,292.01L161.97,304L161.97,292.18L162.09,304L162.82,293.09L162.82,303.98L162.85,303.89L162.99,303.19L163.25,304L163.28,303.48L163.28,303.22L163.28,304L163.45,302.09L163.99,304L164.04,302.83L164.05,304L164.72,297.46L164.78,304L164.79,304L165.25,286.89L165.54,294.86L165.6,304L165.61,292.99L166.34,304L166.36,303.59L166.36,304L167.11,298.19L167.11,298.62L167.13,304L167.23,303.8L167.26,297.73L167.26,304L167.78,290.83L168.01,303.8L168.05,304L168.43,290.97L168.72,304L168.84,301.97L168.84,304L169.11,292.93L169.58,304L169.61,304L169.72,300.29L170.36,304L170.39,303.51L170.39,304L170.86,301.51L171.14,304L171.22,304L171.52,301.63L171.98,303.77L172.04,304L172.75,290.65L172.78,293.25L172.82,304L172.86,290.17L173.57,304L173.59,300.82L173.59,304L174.33,304L174.36,304L174.89,298.43L175.11,303.95L175.13,304L175.83,292.84L175.88,304L175.89,303.84L175.9,304L175.9,292.37L175.9,304L175.93,291.37L175.93,304L176.15,285.22L176.67,303.97L176.7,302.46L176.7,304L177.05,278.93L177.45,303.94L177.47,301.78L178.11,295.65L178.2,304L178.27,304L179.03,302.54L179.03,304L179.24,302.98L179.25,304L179.27,300.88L179.34,304L179.84,299.05L179.98,303.77L180.08,304L180.6,16L180.76,302.86L180.87,304L181.34,298.13L181.59,304L181.64,303.7L181.82,300.36L182.34,304L182.36,303.95L182.37,301.1L182.69,287.01L183.12,304L183.16,303.43L183.18,304L183.8,301.64L183.88,304L183.89,304L184.17,302.73L184.64,303.97L184.68,303.88L184.84,304L184.84,298.22L185.61,304L185.65,302.58L186.02,297.52L186.41,304L186.41,303.97L186.44,299.24L186.45,304L186.45,298.44L187.2,304L187.21,303.99L187.22,303.96L187.26,304L187.59,300.71L187.59,304L187.59,295.18L188.29,304L188.29,302.12L188.4,303.56L189.04,302.12L189.16,304L189.16,303.35L189.37,302.3L189.72,304L189.74,303.66L189.74,287.94L189.74,264.19L189.74,304L190.47,303.41L190.52,304L190.94,301.38L191.26,304L191.29,304L192.05,296.72L192.05,303.17L192.05,304L192.11,303.83L192.11,297.78L192.17,304L192.27,273.84L192.83,304L192.91,303.63L192.91,304L193.1,291.7L193.54,304L193.7,304L194.33,301.87L194.45,303.93L194.46,304L194.56,300.12L195.19,304L195.23,304L195.96,297.32L196,298.38L196,300.11L196.05,304L196.74,302.8L196.77,301.85L196.77,304L197.45,300.94L197.52,304L197.53,303.67L197.92,300.75L198.24,304L198.32,304L198.89,301.62L199.02,304L199.14,304L199.27,303.16L199.36,303.73L199.36,298.14L199.36,304L200.1,297.41L200.11,303.84L200.17,301.99L200.17,304L200.67,300.4L200.83,304L200.93,304L201.16,287.83L201.61,304L201.69,303.85L201.82,297.54L202.22,304L202.25,303.61L202.25,288.68L203.01,304L203.04,303.89L203.05,304L203.21,303.56L203.36,303.77L203.36,300.5L203.41,304L204.1,302.13L204.12,303.95L204.3,304L204.81,302.15L204.85,304L205.12,304L205.12,304L205.13,302.97L205.18,304L205.62,295.97L205.86,303.81L205.89,304L206.27,303.7L206.27,303.96L206.28,303.19L206.28,304L206.52,298.91L207.03,303.68L207.1,304L207.38,288.67L207.84,304L207.87,303.89L207.94,304L207.97,302.51L208.09,304L208.09,293.95L208.77,304L208.77,298.67L208.87,304L208.92,298.49L209.06,304L209.07,304L209.72,302.17L209.8,304L209.85,304L210.6,278.09L210.6,304L210.64,303.85L210.65,301.17L211.31,304L211.35,303.89L211.41,303.08L211.53,294.25L212.14,304L212.14,303.93L212.22,304L212.91,299.09L212.98,304L213.22,298.01L213.73,301.09L213.78,302.62L214.28,300.56L214.28,304L214.28,294.45L215.05,304L215.05,303.92L215.13,300.85L215.19,304L215.19,289.65L215.97,304L215.99,302.86L215.99,304L216.38,301.75L216.7,304L216.75,303.33L216.85,298.93L217.44,304L217.49,303.71L217.51,301.84L217.51,304L217.81,294.48L218.24,302.98L218.28,303.88L218.51,302.06L218.58,303.77L218.58,303.86L218.58,304L218.97,301.35L219.3,303.99L219.34,303.85L219.39,304L219.46,301.19L220.08,304L220.12,304L220.53,300.2L220.86,304L220.91,304L221.19,298.51L221.27,303.91L221.33,304L221.73,299.58L222.1,303.06L222.1,303.82L222.1,304L222.29,290.56L222.83,303.42L222.86,303.82L222.86,304L223.58,290.61L223.61,304L223.63,290.45L223.63,304L223.78,289.98L224.36,304L224.39,304L225.13,296.75L225.15,303.57L225.62,299.5L225.89,304L225.89,303.8L225.91,303.31L226.19,298.94L226.62,304L226.62,303.65L226.63,297.34L226.82,295L227.4,304L227.45,303.68L227.67,302.67L228.17,304L228.17,304L228.17,301.51L228.17,304L228.69,297.67L228.91,304L228.95,304L229.35,283.57L229.68,304L229.73,303.84L229.74,304L230.25,300.32L230.47,304L230.51,304L231.02,301.08L231.24,303.74L231.3,304L231.55,301.73L232.03,303.73L232.08,303.7L232.08,304L232.56,294.92L232.8,304L232.86,303.59L232.86,304L233.16,299.26L233.59,302.04L233.62,302.06L234.21,295.59L234.33,304L234.35,303.97L234.36,298.31L234.36,304L235.04,286.7L235.1,304L235.15,304L235.21,302.41L235.27,304L235.29,248.28L235.29,248.1L235.29,304L236.04,303.15L236.09,304L236.47,301.39L236.85,303.84L236.88,304L236.98,292.77L237.58,303.87L237.64,303.8L237.64,304L238.23,301.34L238.39,304L238.41,304L238.97,286.19L239.11,304L239.17,304L239.55,302.1L239.94,303.1L239.94,304L240.67,297.2L240.67,304L240.72,304L241.07,274.36L241.46,303.36L241.51,304L241.67,301.5L241.68,304L241.76,294.9L242.4,304L242.45,303.21L242.64,302.46L243.03,304L243.11,303.61L243.11,301.29L243.15,300.46L243.76,304L243.78,303.87L243.9,303.61L244.14,302.25L244.24,304L244.28,301.37L244.69,298.89L244.93,304L244.93,304L244.95,280.01L244.95,304L245.34,278.96L245.64,304L245.72,301.29L246.17,295.67L246.47,304L246.47,303.85L246.58,304L247.24,299.62L247.31,304L247.35,303.68L247.35,304L247.42,298.01L248.1,303.96L248.12,304L248.74,302.91L248.75,304L248.85,304L249.31,292.86L249.32,303.98L249.32,304L250.05,298.88L250.08,303.48L250.08,304L250.18,296.87L250.82,304L250.86,303.47L251,304L251,289.45L251.72,275.65L251.77,304L251.77,304L251.78,304L252.44,253.57L252.52,304L252.57,303.6L252.63,304L252.93,300.29L252.93,248.95L252.99,304L253.68,303.13L253.69,304L254.17,302.7L254.35,304L254.39,300.91L254.39,304L254.63,291.05L255.13,303.87L255.17,303.88L255.2,304L255.89,300.22L255.9,303.96L255.94,303.5L255.96,304L256.19,277.39L256.68,303.17L256.7,304L257.24,302.22L257.26,304L257.27,299.93L257.27,304L257.52,297.29L257.97,303.84L258.08,303.59L258.1,299.17L258.1,304L258.81,304L258.85,304L259.43,298.99L259.47,304L259.55,304L259.57,287.7L260.25,304L260.33,304L261.02,297.19L261.03,303.6L261.11,304L261.72,301.3L261.75,303.97L261.75,304L261.89,299.82L261.89,297.55L261.99,304L262.44,293.76L262.63,304L262.66,304L263.37,298.05L263.37,303.99L263.42,304L263.56,295.46L264.17,303.71L264.19,304L264.44,293.28L264.79,303.85L264.86,304L265.11,302.96L265.5,304L265.67,304L266.03,301.8L266.24,304L266.35,304L267.06,298.26L267.08,302.45L267.15,303.67L267.15,304L267.36,295.63L267.85,303.09L267.91,303.53L267.91,304L267.97,301.7L268.66,304L268.69,304L268.73,295.36L269.37,304L269.41,304L269.5,301.48L270.06,303.93L270.1,304L270.18,300.84L270.85,304L270.91,303.68L271.02,300.54L271.64,304L271.65,298.71L271.65,304L271.9,297.43L272.39,302.25L272.43,303.88L272.48,304L272.56,300.73L272.62,303.81L272.64,303.93L272.68,303.68L272.68,294.51L273.4,304L273.43,302.77L273.45,301.94L273.45,304L273.5,292.19L274.18,303.1L274.23,304L274.74,298.36L274.82,302.47L274.82,292.65L274.83,304L274.9,292.52L275.42,302.09L275.61,303.41L275.8,299.25L276.36,304L276.44,304L277.09,294.91L277.15,303.91L277.26,304L277.47,304L277.47,302.98L277.48,304L278.09,295.81L278.19,303.82L278.29,304L278.38,303.11L278.55,304L278.55,296.18L278.55,304L279.09,291.93L279.23,303.64L279.32,304L279.46,290.03L279.8,303.56L279.81,303.97L279.89,304L280.27,295.06L280.52,303.91L280.56,304L281.06,291.33L281.31,303.59L281.35,304L281.55,303.17L281.76,303.74L281.78,279.24L281.78,304L282.51,303.91L282.58,304L283.26,292.84L283.32,304L283.35,304L283.88,299.58L284.1,304L284.11,304L284.34,302.43L284.45,302.62L284.45,298.11L284.45,304L285.15,304L285.25,303.73L285.25,304L285.58,301.09L285.96,303.85L286.05,304L286.35,302.95L286.4,303.73L286.4,300.73L286.83,281.46L287.13,304L287.13,303.95L287.18,303.98L287.24,304L287.5,296.45L287.79,304L287.79,289.45L287.79,288.57L287.89,304L288.51,303.89L288.56,303.85L288.56,304L289.08,293.9L289.26,303.94L289.32,303.83L289.32,304L289.9,301.92L290.06,304L290.1,303.85L290.11,304L290.81,297.69L290.81,297.81L290.88,303.7L291.02,303.53L291.1,304L291.1,297.11L291.11,304L291.85,304L291.87,303.91L292,304L292.53,298.06L292.6,304L292.64,303.68L292.64,304L292.86,296.63L293.26,304L293.59,304L294.31,300.73L294.31,304L294.35,303.55L294.35,304L294.8,294.22L295.08,303.28L295.15,304L295.44,302.38L295.52,303.92L295.55,293.97L295.56,304L296.13,288.84L296.28,304L296.38,304L296.42,303.06L297.14,303.37L297.14,304L297.62,298.52L297.87,304L297.9,304L298.1,300.93L298.3,304L298.34,304L298.64,295.13L299.09,304L299.15,304L299.55,301.12L299.84,304L299.84,291.23L299.84,304L300.57,303.98L300.61,303.93L300.65,304L300.65,302.27L301.03,303.95L301.07,304L301.16,299.93L301.36,303.86L301.38,286.11L301.46,282.16L301.49,304L301.91,304L302.05,303.41L302.05,304L302.75,298.7L302.8,303.83L302.82,303.68L302.82,304L303.02,302.63L303.56,303.91L303.59,301.82L304.21,291.13L304.34,304L304.34,303.82L304.38,304L305.04,300.54L305.12,304L305.22,304L305.86,300.86L305.96,303.74L305.98,303.93L306.02,304L306.5,298.41L306.64,303.92L306.74,303.74L306.92,303.41L306.92,304L306.92,304L306.92,301.43L307.04,304L307.28,300.75L307.65,304L307.7,304L308.31,299.56L308.45,304L308.47,303.93L308.58,304L308.93,301.68L309.15,304L309.25,304L309.52,298.67L309.91,304L309.93,304L310.3,289.76L310.65,302.09L310.74,303.72L310.74,304L311.07,301.65L311.42,303.72L311.51,304L311.91,294.75L312.21,303.96L312.35,303.79L312.35,304L312.81,297.24L313.1,304L313.12,304L313.65,301.74L313.87,304L313.92,304L314.64,297.54L314.66,304L314.68,297.01L314.68,304L314.75,295.05L315.43,304L315.44,303.72L315.49,304L315.63,301.59L316.15,304L316.18,304L316.33,303.32L316.34,299.29L316.98,298.56L317.08,304L317.09,303.89L317.15,304L317.3,294.18L317.85,304L317.91,303.96L317.99,304L318.41,289.98L318.65,304L318.68,304L318.97,302.21L319.39,303.79L319.48,303.64L319.48,304L320.04,298.39L320.21,303.85L320.27,303.81L320.28,304L320.87,284.49L321,303.95L321.03,303.93L321.08,304L321.48,302.52L321.74,303.95L321.79,303.94L321.8,304L322.32,298.31L322.52,303.98L322.69,304L323.12,298.79L323.44,304L323.53,303.59L323.53,304L323.82,293.26L324.28,304L324.29,302.7L324.58,297.7L325.04,304L325.04,303.2L325.05,303.57L325.05,304L325.67,302.24L325.78,303.65L325.83,303.63L326.36,302.34L326.58,304L326.59,303.68L326.59,304L326.84,299.58L327.33,303.89L327.36,304L327.83,300.95L328.01,302.46L328.12,304L328.15,285.35L328.66,303.96L328.75,303.31L328.78,304L329.19,300.98L329.19,301.13L329.2,248.83L329.28,160.77L329.96,304L329.98,303.99L330.01,303.26L330.49,295.37L330.7,304L330.71,303.51L330.8,304L331.47,301.05L331.53,304L331.56,304L332.17,302.77L332.22,304L332.28,304L332.86,302.09L332.96,304L333,304L333.58,298.13L333.72,304L333.77,303.76L333.97,301.64L334.1,304L334.12,288.72L334.12,304L334.87,304L334.89,304L335.03,302.8L335.31,304L335.31,298.84L336.08,304L336.08,304L336.1,303.9L336.22,304L336.43,300.05L336.82,304L336.85,304L336.88,293.74L337.55,299.16L337.62,304L338.13,301.8L338.35,303.84L338.39,304L338.99,300.76L339.13,303.95L339.16,304L339.86,296.91L339.87,298.29L339.95,303.79L339.95,304L340.2,295.51L340.7,304L340.75,303.98L340.92,302.44L341.19,303.19L341.25,304L341.83,302.81L341.98,303.52L342.05,304L342.29,298.14L342.81,302.42L342.81,304L343.33,300.87L343.36,303.88L343.37,304L344.06,300.58L344.08,301.43L344.14,303.59L344.14,296.62L344.14,304L344.88,304L344.92,303.78L345.09,302.1L345.58,304L345.64,303.54L345.94,302.46L346.32,304L346.4,303.94L346.4,303.31L346.42,304L346.66,299.22L347.07,303.98L347.22,303.49L347.25,304L347.77,299.83L347.95,303.71L347.98,304L348.33,302.05L348.67,304L348.77,304L348.99,296.4L349.51,304L349.54,303.76L349.54,304L349.69,296.58L350.29,303.87L350.31,302.21L350.31,304L350.45,289.95L351.04,303.1L351.07,303.94L351.22,303.58L351.35,304L351.36,301.89L351.38,304L352.09,304L352.12,303.67L352.64,302.93L352.8,304L352.8,301.4L353.21,295.66L353.58,304L353.6,303.49L353.6,304L353.75,296.1L354.35,303.79L354.36,304L354.49,303.69L354.54,303.9L354.54,273.75L355.14,260.21L355.31,304L355.43,304L356.22,299.5L356.22,304L356.72,303.01L356.96,303.86L357,304L357.74,294.75L357.74,304L357.77,304L357.8,303.78L357.83,304L357.83,297.01L358.59,304L358.6,304L359.24,288.42L359.32,303.72L359.37,304L359.38,303.83L359.43,304L359.44,286.85L359.44,304L359.48,279.35L360.19,304L360.26,303.69L360.26,304L360.88,301.12L360.97,304L361.03,304L361.03,299.9L361.73,303.3L361.82,303.91L361.86,304L361.95,296.29L362.52,303.18L362.59,300.46L362.59,304L363.33,303.44L363.43,304L363.61,303.56L363.63,304L363.63,303.05L363.66,304L364.32,292.44L364.37,303.89L364.4,304L364.71,292.7L365.08,303.84L365.16,304L365.76,299.36L365.8,304L366.04,222.64L366.51,303.89L366.57,303.94L366.69,303.82L366.75,304L366.75,215.8L366.76,304L367.5,303.81L367.55,303.98L367.57,303.79L367.57,304L367.57,294.39L367.57,304L368.32,304L368.33,304L368.59,300.78L369.05,303.72L369.09,304L369.37,300.78L369.43,303.79L369.43,304L369.83,300.36L369.95,304L369.98,291.43L370.06,304L370.64,303.93L370.76,304L371.52,300.64L371.52,304L372.04,298.92L372.18,304L372.24,304L372.59,291.05L372.95,303.98L373.03,304L373.3,300.42L373.46,304L373.58,304L373.85,301.81L374.32,303.81L374.4,304L375.03,300.66L375.11,304L375.18,303.75L375.18,304L375.44,300.77L375.92,304L375.95,304L376.15,302.3L376.22,303.97L376.24,299L376.24,304L376.92,304L377.02,304L377.54,302.27L377.54,303.52L377.55,294.9L378.25,304L378.26,303.96L378.4,304L379.1,300.53L379.15,304L379.18,302.86L379.18,304L379.72,292.71L379.86,303.72L380,303.55L380,304L380.32,301.74L380.75,304L380.79,303.39L381.28,300.89L381.48,304L381.48,297.2L381.48,304L381.83,291.04L382.05,303.98L382.24,303.76L382.35,304L382.45,301.07L382.45,304L382.79,298.69L383.18,304L383.24,303.9L383.37,299.47L383.45,304L383.81,303.95L383.84,304L384.15,296.88L384.59,304L384.61,303.81L384.61,304L384.66,300.58L385.34,304L385.37,303.97L385.44,303.99L386.07,299.53L386.09,304L386.25,301.68L386.6,303.91L386.65,303.8L386.67,304L387.08,298.83L387.37,303.99L387.41,299.9L388.18,304L388.22,304L388.41,302.67L388.97,304L388.98,304L389.55,301.19L389.71,303.89L389.77,303.65L390.28,301.75L390.28,304L390.35,302.96L390.42,299.88L390.52,299.37L391.26,304L391.29,303.73L391.44,304L391.71,298.43L392.04,303.62L392.07,303.46L392.07,304L392.33,301.98L392.79,304L392.85,304L393.5,288.06L393.57,303.85L393.61,303.84L393.61,304L393.99,282.85L394.36,304L394.4,303.59L394.4,304L394.81,298.77L395.13,303.95L395.21,303.97L395.38,302.79L395.39,302.81L395.41,300.11L395.96,299.19L396.18,304L396.28,303.52L396.28,304L396.54,287.24L397.03,303.87L397.04,304L397.1,286.71L397.78,303.67L397.86,303.01L397.86,304L398.45,296.66L398.51,304L398.64,304L398.99,301.28L399.14,303.94L399.17,299.41L399.61,290.72L399.78,304L399.8,303.67L399.95,303.72L400.27,304L400.27,303.47L400.31,283.87L400.31,304L401.05,303.94L401.08,303.79L401.1,304L401.12,298.14L401.36,303.93L401.38,304L401.51,302.62L401.54,304L401.55,301.02L401.55,304L402.2,289.58L402.29,304L402.32,304L402.32,266.4L403.07,302.24L403.15,304L403.59,302.94L403.82,303.97L403.83,304L404.22,298.84L404.41,303.8L404.58,303.72L404.58,304L404.98,300.81L405.31,304L405.4,304L405.68,298.46L406.14,304L406.17,303.05L406.17,304L406.46,300.63L406.86,304L406.95,302.7L406.95,304L407.44,296.83L407.68,303.89L407.85,304L408.09,302.53L408.59,303.9L408.65,304L408.94,298.77L409.02,299L409.02,304L409.52,303.37L409.75,304L409.79,304L410.25,293.99L410.5,302.45L410.57,304L410.58,298.2L411.32,304L411.35,303.84L411.43,304L411.43,299.49L411.49,304L412.17,304L412.22,303.81L412.35,302.34L412.91,304L412.91,300.73L412.91,304L413.61,292.89L413.62,304L413.71,304L413.85,297.05L414.12,302.9L414.12,304L414.38,302.4L414.41,303.92L414.43,301.2L414.47,304L414.93,298.67L415.01,303.93L415.06,304L415.51,300.49L415.78,304L415.82,304L416.12,300.98L416.13,304L416.13,295.7L416.58,292.79L416.86,304L416.89,303.71L416.89,304L417.41,300.72L417.55,303.98L417.67,303.64L417.9,292.41L418.39,304L418.44,304L418.83,301.2L419.13,303.89L419.25,304L419.85,300.93L419.96,304L420.01,304L420.43,299.97L420.73,301.04L420.79,304L421.32,295.67L421.54,304L421.58,303.85L421.62,303.74L421.64,304L421.64,304L421.64,293.15L421.91,292.8L422.38,304L422.44,303.53L422.44,304L423.04,293.19L423.19,304L423.22,304L423.59,300.1L423.59,301.5L423.59,291.32L423.61,304L424.16,286.97L424.31,304L424.36,303.79L424.43,304L425.09,301.48L425.09,304L425.16,304L425.33,299.06L425.84,303.39L425.87,304L426.53,302.4L426.61,303.7L426.64,303.91L426.68,304L427.09,299.79L427.36,301.55L427.42,304L427.58,297.78L427.62,303.89L427.66,304L427.7,298.63L427.72,304L427.72,295.38L428.16,293.33L428.46,304L428.49,303.98L428.52,304L428.77,299.41L429.27,304L429.28,303.82L429.28,304L429.92,300.4L429.99,301.82L430.04,303.82L430.61,302.2L430.79,304L430.79,302.88L430.79,304L431.28,301.59L431.52,303.66L431.56,303.9L431.75,303.57L431.78,301.95L431.94,301.3L432.54,304L432.54,303.93L432.58,303.71L432.59,304L432.93,297.7L433.32,303.93L433.34,303.32L433.34,304L434.08,300.43L434.08,304L434.1,304L434.16,297.28L434.52,303.84L434.54,304L434.66,302.22L435.16,303.49L435.21,304L435.41,299.82L435.6,304L435.66,304L435.82,304L435.82,302.93L436.04,298.97L436.62,304L436.63,303.47L436.63,304L436.71,188.09L437.38,303.91L437.42,303.7L437.52,304L437.84,297.65L438.15,304L438.19,304L438.28,299.85L438.92,304L438.98,303.8L439.26,299.57L439.7,304L439.7,304L439.7,302.05L440.02,289.25L440.44,304L440.51,304L440.99,297.29L441.24,304L441.28,303.07L441.28,304L441.75,301.85L442.03,304L442.12,304L442.59,279.69L442.85,301.88L442.88,304L443.53,298.85L443.61,303.68L443.65,303.87L443.82,304L444.24,302.37L444.24,303.87L444.26,304L444.46,302.21L444.57,304L444.57,298.49L444.99,291.44L445.24,304L445.24,303.98L445.35,304L445.55,295.12L446.04,304L446.12,304L446.68,299.72L446.69,303.58L446.73,304L446.93,299.46L447.34,304L447.36,304L447.97,295.67L448.07,304L448.13,303.83L448.13,304L448.61,302.32L448.8,302.42L448.89,304L449.23,301L449.63,304L449.66,304L449.94,296.78L450.37,303.96L450.42,304L450.92,302.54L450.95,295.46L451.74,304L451.74,303.73L451.78,300.5L451.78,304L452.49,299.72L452.52,304L452.55,304L452.9,296.92L453.31,302.34L453.31,304L453.64,302.77L453.73,303.97L453.74,300.96L453.74,304L454.13,298.69L454.49,302.9L454.51,303.88L454.57,302.95L454.57,304L455.21,304L455.26,304L455.32,303.51L455.33,293.79L455.33,304L455.43,292.72L455.99,304L456.17,302.46L456.17,304L456.44,298.97L456.9,304L456.95,303.67L456.95,304L457.7,231.64L457.72,303.54L458.35,301.25L458.45,304L458.45,304L458.49,303.59L458.49,304L459.24,302L459.29,304L459.97,298.66L460.03,303.83L460.09,304L460.32,293.84L460.82,304L460.9,302.03L461.08,299.03L461.65,304L461.69,303.49L461.72,304L462.19,301.53L462.35,304L462.35,300L462.95,292.09L463.03,304L463.06,303.85L463.14,303.74L463.72,301.06L463.78,304L463.78,304L463.89,303.41L463.89,299L463.9,304L464.58,303.94L464.65,302.68L464.65,304L465.03,301.62L465.38,303.08L465.44,302.98L465.63,298.15L466.17,304L466.2,302.67L466.32,295.57L466.94,304L467,304L467.28,302.2L467.71,303.98L467.81,304L467.93,298.68L468.49,304L468.61,304L469.08,299.14L469.19,304L469.32,303.78L469.32,304L469.78,291.69L470.02,304L470.09,304L470.71,299.33L470.74,301.35L470.76,304L471.46,295.85L471.51,303.96L471.54,304L471.9,291.63L472.27,304L472.33,304L472.6,301.57L473.04,302.1L473.11,303.78L473.11,304L473.37,272.58L473.86,303.79L473.91,303.94L474,304L474.36,298.04L474.6,304L474.66,304L475.06,296.22L475.36,303.66L475.45,303.28L475.89,300.98L476.03,304L476.03,304L476.03,249.99L476.45,130.28L476.8,304L476.88,303.68L477.34,301.88L477.38,304L477.4,303.66L477.44,300.94L477.69,299.73L478.17,304L478.17,301.56L478.22,303.95L478.42,304L478.43,303.47L478.43,302.94L478.43,304L478.85,294.85L479.17,302.36L479.19,303.66L479.31,301.17L479.93,304L479.93,299.39L480.65,304L480.65,303.57L480.74,304L481.07,302.6L481.48,304L481.5,304L482.15,298.22L482.24,303.87L482.29,303.66L482.67,302.87L482.98,304L482.98,304L483.17,304L483.78,299.6L483.92,302.25L484.05,303.32L484.05,296.95L484.16,304L484.78,304L484.82,304L484.84,300.96L485.57,302.86L485.58,303.83L485.58,304L485.63,272.96L486.27,303.49L486.35,303.74L486.57,300.69L486.7,304L486.71,300.11L486.98,299L487.47,304L487.47,303.76L487.48,303.99L487.54,304L487.58,302.02L487.58,304L487.58,294.98L487.91,292.33L488.35,304L488.35,304L488.4,302.61L488.41,304L488.78,302.41L489.13,303.41L489.16,303.94L489.31,304L489.37,301.71L489.4,304L489.49,32.49L489.49,304L490.24,303.46L490.26,302.97L490.26,304L490.39,294.72L491.01,303.53L491.03,304L491.21,303.44L491.42,304L491.42,291.14L491.43,304L491.78,284.52L492.17,303.91L492.18,303.98L492.26,299.87L492.26,304L492.92,302.58L492.99,301.6L493.35,292.82L493.74,304L493.75,303.85L493.99,303.25L494,304L494,303.65" style="vector-effect: non-scaling-stroke; fill: none; stroke: rgb(99, 110, 250); stroke-opacity: 1; stroke-width: 2px; opacity: 1;"/></g><g class="points"/><g class="text"/></g></g></g><g class="overplot"/><path class="xlines-above crisp" d="M0,0" style="fill: none;"/><path class="ylines-above crisp" d="M0,0" style="fill: none;"/><g class="overlines-above"/><g class="xaxislayer-above"><g class="xtick"><text text-anchor="middle" x="0" y="436" transform="translate(212.18,0)" style="font-family: 'Times New Roman'; font-size: 15px; fill: rgb(13, 13, 13); fill-opacity: 1; white-space: pre; opacity: 1;">1.61252×10​<tspan style="font-size:70%" dy="-0.6em">18</tspan><tspan dy="0.42em">​</tspan></text></g><g class="xtick"><text text-anchor="middle" x="0" y="436" style="font-family: 'Times New Roman'; font-size: 15px; fill: rgb(13, 13, 13); fill-opacity: 1; white-space: pre; opacity: 1;" transform="translate(310.21000000000004,0)">1.612525×10​<tspan style="font-size:70%" dy="-0.6em">18</tspan><tspan dy="0.42em">​</tspan></text></g><g class="xtick"><text text-anchor="middle" x="0" y="436" style="font-family: 'Times New Roman'; font-size: 15px; fill: rgb(13, 13, 13); fill-opacity: 1; white-space: pre; opacity: 1;" transform="translate(408.25,0)">1.61253×10​<tspan style="font-size:70%" dy="-0.6em">18</tspan><tspan dy="0.42em">​</tspan></text></g><g class="xtick"><text text-anchor="middle" x="0" y="436" style="font-family: 'Times New Roman'; font-size: 15px; fill: rgb(13, 13, 13); fill-opacity: 1; white-space: pre; opacity: 1;" transform="translate(506.29,0)">1.612535×10​<tspan style="font-size:70%" dy="-0.6em">18</tspan><tspan dy="0.42em">​</tspan></text></g><g class="xtick"><text text-anchor="middle" x="0" y="436" style="font-family: 'Times New Roman'; font-size: 15px; fill: rgb(13, 13, 13); fill-opacity: 1; white-space: pre; opacity: 1;" transform="translate(604.3199999999999,0)">1.61254×10​<tspan style="font-size:70%" dy="-0.6em">18</tspan><tspan dy="0.42em">​</tspan></text></g></g><g class="yaxislayer-above"><g class="ytick"><text text-anchor="end" x="125" y="12.25" transform="translate(0,404)" style="font-family: 'Times New Roman'; font-size: 35px; fill: rgb(13, 13, 13); fill-opacity: 1; white-space: pre; opacity: 1;">0</text></g><g class="ytick"><text text-anchor="end" x="125" y="12.25" style="font-family: 'Times New Roman'; font-size: 35px; fill: rgb(13, 13, 13); fill-opacity: 1; white-space: pre; opacity: 1;" transform="translate(0,341.28)">1000</text></g><g class="ytick"><text text-anchor="end" x="125" y="12.25" style="font-family: 'Times New Roman'; font-size: 35px; fill: rgb(13, 13, 13); fill-opacity: 1; white-space: pre; opacity: 1;" transform="translate(0,278.57)">2000</text></g><g class="ytick"><text text-anchor="end" x="125" y="12.25" style="font-family: 'Times New Roman'; font-size: 35px; fill: rgb(13, 13, 13); fill-opacity: 1; white-space: pre; opacity: 1;" transform="translate(0,215.85)">3000</text></g><g class="ytick"><text text-anchor="end" x="125" y="12.25" style="font-family: 'Times New Roman'; font-size: 35px; fill: rgb(13, 13, 13); fill-opacity: 1; white-space: pre; opacity: 1;" transform="translate(0,153.13)">4000</text></g></g><g class="overaxes-above"/></g></g><g class="polarlayer"/><g class="smithlayer"/><g class="ternarylayer"/><g class="geolayer"/><g class="funnelarealayer"/><g class="pielayer"/><g class="iciclelayer"/><g class="treemaplayer"/><g class="sunburstlayer"/><g class="glimages"/><defs id="topdefs-601b02"><g class="clips"/></defs><g class="layer-above"><g class="imagelayer"/><g class="shapelayer"/></g><g class="infolayer"><g class="g-gtitle"/><g class="g-xtitle"><text class="xtitle" x="373" y="463.8" text-anchor="middle" style="font-family: 'Open Sans', verdana, arial, sans-serif; font-size: 14px; fill: rgb(42, 63, 95); opacity: 1; font-weight: normal; white-space: pre;">Time Steps (ns)</text></g><g class="g-ytitle" transform="translate(24,0)"><text class="ytitle" transform="rotate(-90,12,260)" x="12" y="260" text-anchor="middle" style="font-family: 'Times New Roman'; font-size: 40px; fill: rgb(13, 13, 13); opacity: 1; font-weight: normal; white-space: pre;">Speed (in sec.)</text></g></g></svg>