<svg class="main-svg" xmlns="http://www.w3.org/2000/svg" xmlns:xlink="http://www.w3.org/1999/xlink" width="700" height="500" style="" viewBox="0 0 700 500"><rect x="0" y="0" width="700" height="500" style="fill: rgb(255, 255, 255); fill-opacity: 1;"/><defs id="defs-845cab"><g class="clips"><clipPath id="clip845cabxyplot" class="plotclip"><rect width="399" height="300"/></clipPath><clipPath class="axesclip" id="clip845cabx"><rect x="137" y="0" width="399" height="500"/></clipPath><clipPath class="axesclip" id="clip845caby"><rect x="0" y="100" width="700" height="300"/></clipPath><clipPath class="axesclip" id="clip845cabxy"><rect x="137" y="100" width="399" height="300"/></clipPath></g><g class="gradients"/><g class="patterns"/></defs><g class="bglayer"><rect class="bg" x="137" y="100" width="399" height="300" style="fill: rgb(229, 236, 246); fill-opacity: 1; stroke-width: 0;"/></g><g class="layer-below"><g class="imagelayer"/><g class="shapelayer"/></g><g class="cartesianlayer"><g class="subplot xy"><g class="layer-subplot"><g class="shapelayer"/><g class="imagelayer"/></g><g class="minor-gridlayer"><g class="x"/><g class="y"/></g><g class="gridlayer"><g class="x"><path class="xgrid crisp" transform="translate(206.62,0)" d="M0,100v300" style="stroke: rgb(255, 255, 255); stroke-opacity: 1; stroke-width: 1px;"/><path class="xgrid crisp" transform="translate(285.8,0)" d="M0,100v300" style="stroke: rgb(255, 255, 255); stroke-opacity: 1; stroke-width: 1px;"/><path class="xgrid crisp" transform="translate(364.98,0)" d="M0,100v300" style="stroke: rgb(255, 255, 255); stroke-opacity: 1; stroke-width: 1px;"/><path class="xgrid crisp" transform="translate(444.16,0)" d="M0,100v300" style="stroke: rgb(255, 255, 255); stroke-opacity: 1; stroke-width: 1px;"/><path class="xgrid crisp" transform="translate(523.3399999999999,0)" d="M0,100v300" style="stroke: rgb(255, 255, 255); stroke-opacity: 1; stroke-width: 1px;"/></g><g class="y"><path class="ygrid crisp" transform="translate(0,365.7)" d="M137,0h399" style="stroke: rgb(255, 255, 255); stroke-opacity: 1; stroke-width: 1px;"/><path class="ygrid crisp" transform="translate(0,327.13)" d="M137,0h399" style="stroke: rgb(255, 255, 255); stroke-opacity: 1; stroke-width: 1px;"/><path class="ygrid crisp" transform="translate(0,288.57)" d="M137,0h399" style="stroke: rgb(255, 255, 255); stroke-opacity: 1; stroke-width: 1px;"/><path class="ygrid crisp" transform="translate(0,211.43)" d="M137,0h399" style="stroke: rgb(255, 255, 255); stroke-opacity: 1; stroke-width: 1px;"/><path class="ygrid crisp" transform="translate(0,172.87)" d="M137,0h399" style="stroke: rgb(255, 255, 255); stroke-opacity: 1; stroke-width: 1px;"/><path class="ygrid crisp" transform="translate(0,134.3)" d="M137,0h399" style="stroke: rgb(255, 255, 255); stroke-opacity: 1; stroke-width: 1px;"/></g></g><g class="zerolinelayer"><path class="yzl zl crisp" transform="translate(0,250)" d="M137,0h399" style="stroke: rgb(255, 255, 255); stroke-opacity: 1; stroke-width: 2px;"/></g><path class="xlines-below"/><path class="ylines-below"/><g class="overlines-below"/><g class="xaxislayer-below"/><g class="yaxislayer-below"/><g class="overaxes-below"/><g class="plot" transform="translate(137,100)" clip-path="url(#clip845cabxyplot)"><g class="scatterlayer mlayer"><g class="trace scatter trace527ce0" style="stroke-miterlimit: 2; opacity: 1;"><g class="fills"/><g class="errorbars"/><g class="lines"><path class="js-line" d="M0,115.29L0.19,34.28L0.23,231L0.79,157.71L0.81,157.71L0.86,176.99L0.91,115.29L1.48,146.14L1.57,153.86L1.6,123.01L1.61,176.99L2.26,161.57L2.36,157.71L2.48,169.28L2.94,119.15L3.1,138.43L3.12,138.43L3.22,165.42L3.23,138.43L3.23,169.28L3.91,126.86L3.99,146.14L4.02,176.99L4.13,196.27L4.18,119.15L4.76,153.86L4.8,130.72L5.5,173.13L5.58,150L5.61,146.14L5.75,180.84L5.91,123.01L6.25,161.57L6.41,157.71L6.86,180.84L7.1,126.87L7.13,165.42L7.36,176.98L7.68,126.87L7.69,161.56L7.69,180.84L7.69,188.55L8.28,99.89L8.36,161.56L8.57,161.56L8.83,173.12L8.86,115.31L9.23,157.71L9.26,138.44L9.33,180.84L9.72,123.02L9.97,142.29L10.02,142.29L10.28,126.87L10.77,165.42L10.78,150L10.78,142.29L10.9,115.31L11.12,196.26L11.17,96.03L11.2,200.12L11.89,96.03L11.98,188.55L11.98,219.39L12.08,99.89L12.73,161.56L12.76,161.56L13,119.16L13.26,184.69L13.47,173.13L13.53,169.27L13.71,130.73L14,188.55L14.28,134.58L14.31,173.13L14.72,80.62L15.06,169.27L15.1,153.85L15.15,169.27L15.25,130.73L15.79,169.27L15.86,157.71L16.35,184.69L16.54,103.75L16.61,153.85L16.61,173.12L17.25,180.83L17.43,123.02L17.43,138.44L17.48,126.87L18.17,176.98L18.19,169.27L18.77,134.58L18.79,188.54L18.91,165.42L18.95,184.69L19.17,126.87L19.74,138.44L19.75,157.71L20.24,184.69L20.46,123.02L20.47,126.87L20.5,176.98L20.59,126.87L21.05,180.83L21.25,130.73L21.31,169.27L21.4,173.12L21.51,123.02L22.05,146.15L22.05,169.27L22.12,130.73L22.73,146.15L22.76,161.56L23.14,173.13L23.15,126.87L23.5,138.44L23.53,138.44L23.95,173.13L23.96,130.73L24.13,153.85L24.13,130.73L24.26,119.17L24.77,173.12L24.86,165.42L24.99,142.29L25.46,192.4L25.6,130.73L25.73,153.85L25.8,153.85L26.01,188.54L26.17,119.16L26.52,130.73L26.55,153.85L27.03,123.02L27.21,184.69L27.28,153.85L27.31,169.27L27.65,188.54L27.73,123.02L28.05,150L28.09,165.42L28.35,184.69L28.76,126.88L28.83,134.58L28.83,173.12L29.05,188.54L29.46,111.45L29.56,165.42L29.57,188.55L30.03,103.74L30.03,203.96L30.32,173.12L30.38,111.45L30.38,96.04L30.4,196.25L31.13,150L31.14,146.15L31.35,184.69L31.47,123.02L31.75,180.83L31.76,138.44L32.3,196.25L32.44,115.31L32.51,169.27L32.51,130.73L32.58,123.02L33.19,196.26L33.26,150L33.31,107.6L33.41,96.03L33.45,215.53L34.04,157.71L34.08,165.42L34.33,180.84L34.81,130.73L34.85,134.58L34.86,134.58L35.41,200.11L35.45,99.89L35.58,130.73L35.62,157.71L36.01,130.73L36.06,176.98L36.33,153.85L36.36,165.42L36.54,184.69L36.74,103.74L37.1,134.58L37.17,138.44L37.57,176.98L37.61,115.31L37.91,138.44L37.94,138.44L38.51,111.45L38.52,192.4L38.69,146.15L38.7,153.85L39.3,115.3L39.38,188.55L39.39,173.13L39.49,165.42L39.75,123.01L40.22,142.29L40.24,161.57L40.62,176.98L40.78,115.31L40.98,157.71L41.02,142.29L41.1,188.55L41.26,88.33L41.77,161.56L41.81,134.58L41.83,119.17L41.84,180.83L42.56,146.15L42.57,126.87L42.61,188.55L42.62,107.6L43.31,150L43.34,130.73L43.41,173.13L43.45,107.6L44.07,142.29L44.07,119.16L44.08,180.84L44.82,153.86L44.83,146.14L45.31,119.16L45.35,176.99L45.55,173.13L45.57,138.43L46.17,203.97L46.18,96.03L46.32,150L46.37,146.15L46.62,169.27L46.64,146.14L46.69,146.14L46.7,130.72L47.21,119.16L47.27,192.4L47.37,150L47.38,107.6L47.6,103.74L47.91,176.98L48.11,130.72L48.18,169.28L48.74,176.98L48.74,115.31L48.75,184.69L48.87,103.74L49.49,126.88L49.52,153.85L49.89,99.89L49.9,200.11L50.26,146.15L50.28,173.12L50.54,176.98L50.71,126.87L51.03,165.42L51.04,165.42L51.07,126.87L51.71,176.99L51.79,146.14L51.81,130.72L52.28,99.87L52.48,192.42L52.66,123.01L52.89,99.87L52.94,200.13L53.33,130.72L53.36,146.14L53.45,115.29L53.77,173.14L54.11,153.86L54.11,130.71L54.73,88.3L54.83,184.71L54.9,111.43L54.91,188.57L55.4,107.58L55.63,126.86L55.66,173.14L56.06,180.85L56.08,115.29L56.41,138.43L56.41,169.28L56.54,115.29L56.56,188.56L57.14,153.86L57.19,150L57.34,177L57.63,111.43L57.75,134.57L57.82,173.14L58.14,134.57L58.44,142.29L58.46,165.43L58.62,188.57L58.89,99.86L59.17,165.43L59.22,134.57L59.39,126.86L59.79,180.85L59.98,146.14L60,150L60.53,111.43L60.57,180.86L60.78,146.14L61.13,84.43L61.21,184.71L61.53,169.28L61.54,150L62.19,184.71L62.19,115.29L62.24,165.43L62.31,142.29L62.39,99.87L62.42,200.13L63.06,142.29L63.07,150L63.29,173.14L63.76,119.15L63.81,130.71L63.84,134.57L63.91,119.14L64,173.14L64.56,130.71L64.58,161.57L64.99,177L65.03,115.29L65.32,161.57L65.34,138.43L65.62,211.73L65.65,68.98L66.07,157.71L66.1,153.86L66.29,180.86L66.57,123L66.92,130.71L66.93,146.14L67.08,173.15L67.47,123L67.67,173.14L67.7,142.28L67.9,173.15L68.05,126.85L68.06,146.14L68.06,111.42L68.35,173.15L68.82,153.86L68.84,130.71L68.85,107.56L68.87,184.72L69.59,150L69.63,157.71L69.75,111.42L70.09,180.86L70.36,130.71L70.4,161.57L70.47,88.27L70.65,204L71.06,146.14L71.06,177.01L71.51,196.29L71.53,115.28L71.79,153.86L71.84,173.14L72.59,107.57L72.65,107.57L72.77,188.57L73.14,92.14L73.41,169.29L73.44,123L73.64,204L74.18,134.57L74.21,134.57L74.42,119.14L75.01,169.28L75.01,169.28L75.02,169.28L75.51,177L75.62,115.29L75.73,146.14L75.8,146.14L76.19,180.86L76.22,115.28L76.55,146.14L76.58,150L77.05,126.85L77.09,173.15L77.32,142.29L77.36,153.86L77.49,165.43L78.08,123L78.11,157.71L78.16,130.71L78.17,126.85L78.72,169.29L78.88,153.86L78.93,146.14L79.04,111.43L79.39,165.43L79.64,157.72L79.66,134.57L80.41,184.72L80.43,161.57L80.44,138.43L80.5,192.44L80.54,107.56L81.08,150L81.13,146.14L81.44,99.84L81.85,173.15L81.87,126.85L81.9,146.14L82.26,88.27L82.37,188.57L82.59,115.29L82.66,119.14L82.86,107.57L82.96,184.71L83.39,146.14L83.5,138.43L83.55,111.43L83.71,184.71L84.08,142.29L84.08,119.15L84.5,188.57L84.72,115.29L84.83,153.86L84.85,150L85.23,123L85.29,180.85L85.44,130.71L85.5,130.72L85.65,107.57L86.23,200.13L86.25,103.72L86.29,211.7L86.38,72.87L87,153.86L87.02,146.14L87.09,103.71L87.11,204.01L87.25,153.86L87.25,72.83L87.27,65.12L87.36,200.15L88.02,169.29L88.04,130.71L88.07,173.15L88.58,99.85L88.77,138.43L88.82,142.28L89.16,188.57L89.16,111.43L89.44,142.28L89.45,126.86L90.07,192.43L90.1,103.71L90.17,169.29L90.25,142.29L90.64,123L90.64,184.71L90.81,173.14L90.83,211.71L91.11,215.57L91.35,107.57L91.59,150L91.6,169.28L91.88,72.88L91.88,227.12L92.28,134.57L92.28,157.71L92.37,161.57L92.54,138.43L92.6,119.15L92.95,96.01L93.12,188.56L93.34,111.43L93.38,188.57L94,119.15L94.2,146.14L94.22,153.86L94.25,215.55L94.91,115.3L94.98,184.7L95.01,184.7L95.27,115.29L95.74,138.43L95.78,146.14L95.89,119.15L95.97,184.71L96.51,142.29L96.59,142.29L97.03,203.99L97.04,96.01L97.32,192.42L97.33,126.86L97.37,123.01L97.42,196.27L98,153.86L98.08,153.86L98.27,180.85L98.66,130.72L98.79,153.86L98.82,176.99L99.45,123.01L99.58,142.29L99.61,153.86L99.62,169.28L100.06,119.15L100.36,150L100.38,142.29L100.49,115.3L100.54,192.41L101.01,150L101.14,126.86L101.19,196.28L101.82,115.3L101.84,173.13L101.92,150L101.99,126.87L102.03,176.99L102.33,165.42L102.33,126.86L102.72,215.55L102.77,72.87L103.08,130.72L103.1,161.57L103.45,176.99L103.82,134.58L103.84,176.99L104,103.73L104.41,211.69L104.58,196.27L104.61,184.7L105.25,200.12L105.32,115.3L105.32,138.43L105.35,200.12L105.49,99.88L106.1,138.43L106.12,173.13L106.12,180.84L106.8,123.01L106.86,161.57L106.89,161.57L107.07,192.41L107.41,123.01L107.55,176.99L107.63,130.72L107.63,115.3L108.1,180.84L108.38,157.71L108.41,153.86L108.7,115.3L108.72,180.84L109.01,161.57L109.02,138.43L109.07,192.41L109.36,119.16L109.77,153.86L109.8,176.99L109.91,203.97L110.18,126.87L110.53,161.57L110.58,161.57L110.92,215.54L110.94,84.46L111.33,150L111.34,165.42L111.7,250.26L111.92,88.28L112.11,146.14L112.14,146.14L112.18,184.71L112.65,115.29L112.88,165.43L112.9,134.58L113.04,176.99L113.28,107.58L113.64,130.72L113.71,180.85L113.77,126.86L113.82,188.56L114.46,169.28L114.47,173.14L114.93,126.86L115.15,134.57L115.23,165.43L115.25,192.42L115.44,103.72L115.96,165.42L116.01,157.71L116.28,200.13L116.48,111.45L116.75,130.72L116.77,146.14L116.87,130.72L117.5,176.99L117.54,173.14L117.56,153.86L117.82,123.01L117.97,188.56L118.23,150L118.27,134.58L118.5,111.44L118.98,192.41L119.02,107.58L119.2,184.7L119.82,169.28L119.89,134.58L120.52,173.14L120.57,119.15L120.59,165.43L120.72,134.57L120.73,92.15L121.04,188.57L121.46,146.14L121.49,123L121.5,177L122.23,134.57L122.24,123.01L122.31,99.87L122.76,177L122.96,123.01L122.97,150L123.14,99.86L123.25,161.57L123.35,138.43L123.37,161.57L123.75,184.71L124.01,126.86L124.16,138.43L124.16,150L124.52,188.57L124.52,122.99L124.91,157.72L124.93,177L125.1,192.44L125.18,103.71L125.66,157.72L125.68,157.72L125.85,169.29L125.9,111.43L126.14,165.43L126.14,188.57L126.17,119.14L126.9,142.28L126.91,157.72L127.07,180.86L127.46,130.71L127.69,146.14L127.69,150L127.93,169.29L127.97,130.71L128.28,134.57L128.28,173.15L128.87,200.15L128.91,95.99L129.02,161.57L129.05,138.43L129.22,204.01L129.3,130.71L129.75,146.14L129.82,153.86L130.35,119.14L130.53,188.57L130.64,173.14L131.36,99.85L131.45,134.57L131.46,134.57L132.14,188.57L132.17,96L132.21,134.57L132.22,153.86L132.65,184.71L133.02,92.14L133.03,126.86L133.23,173.15L133.31,119.14L133.68,138.43L133.71,115.28L134.04,177L134.22,107.57L134.26,130.71L134.28,184.72L134.52,196.29L134.54,103.71L135.01,150L135.04,150L135.4,126.86L135.48,173.14L135.55,146.14L135.57,126.85L135.59,180.86L135.8,111.42L136.32,161.57L136.33,142.29L136.54,130.71L136.66,169.29L136.79,146.14L136.8,126.85L136.81,173.15L137.53,161.57L137.58,138.43L137.68,134.57L137.75,153.86L137.79,146.14L137.79,177L137.92,123L138.1,177.01L138.55,146.14L138.57,161.57L138.75,111.42L139.18,215.59L139.28,142.28L139.33,146.14L139.65,111.42L139.99,180.87L140.08,177.01L140.1,134.57L140.23,119.13L140.79,169.29L140.79,161.57L140.88,146.14L140.9,126.85L141.55,180.87L141.6,157.72L141.66,142.28L141.7,173.15L141.94,119.13L142.39,142.28L142.46,169.29L142.53,173.15L142.75,107.56L143.19,165.43L143.24,169.29L143.66,103.7L143.67,196.3L143.92,122.99L144,142.28L144.01,134.57L144.56,219.45L144.68,180.87L144.76,165.43L145.04,196.31L145.15,99.83L145.5,142.28L145.52,150L145.83,126.85L145.91,169.29L146.25,157.72L146.27,126.85L146.5,184.73L146.51,115.27L147.02,153.86L147.03,146.14L147.07,177.01L147.52,122.99L147.77,157.72L147.77,126.85L147.92,188.58L147.92,177.01L147.92,115.27L147.92,95.98L148.31,177.01L148.67,138.42L148.71,142.28L148.96,173.15L149,126.85L149.03,134.57L149.03,119.13L149.05,99.84L149.32,169.29L149.7,165.44L149.7,134.56L149.73,126.85L150.09,173.15L150.32,134.56L150.35,138.42L150.7,122.99L150.75,184.73L151.08,134.56L151.13,173.15L151.18,188.59L151.74,103.69L151.85,115.27L151.91,142.28L151.91,173.15L152.6,122.99L152.66,173.15L152.69,153.86L152.9,180.86L153.27,111.42L153.42,138.43L153.45,138.43L153.45,200.16L153.51,111.41L154.19,130.71L154.22,150L154.45,122.99L154.94,188.59L154.94,180.87L154.94,111.41L155.65,177.01L155.72,122.99L156.12,165.43L156.16,115.27L156.47,157.72L156.47,103.7L157.14,215.59L157.19,76.69L157.2,231.03L157.22,68.97L157.87,107.55L157.95,107.56L158.09,200.16L158.11,76.68L158.66,157.72L158.71,107.55L159.26,180.87L159.49,177.01L159.5,130.71L159.71,122.99L159.93,169.29L160.21,165.43L160.26,134.57L160.76,122.99L160.8,177.01L160.93,150L160.97,122.99L161.1,177L161.73,165.43L161.76,150L161.83,192.44L162.2,130.71L162.5,165.43L162.52,157.72L162.61,122.99L163.06,184.73L163.21,177.01L163.3,153.86L163.41,188.59L163.86,119.13L164.01,146.14L164.11,161.58L164.64,177.01L164.86,107.56L164.88,134.57L164.98,134.57L165.24,122.99L165.54,169.29L165.79,165.43L165.79,134.57L165.93,169.29L166.02,119.14L166.38,134.57L166.38,126.85L166.45,207.86L166.46,103.71L167.13,157.71L167.14,157.71L167.24,173.14L167.77,134.57L167.88,138.43L167.88,161.57L168.02,88.28L168.12,196.28L168.63,165.43L168.64,115.28L168.81,188.57L169.36,150L169.36,142.29L169.71,196.29L169.87,103.71L170.03,119.14L170.1,157.72L170.12,123L170.13,177L170.84,126.86L170.87,173.14L170.87,111.43L171.04,180.86L171.62,134.57L171.69,134.57L171.84,130.71L172.43,173.14L172.43,161.57L172.47,142.28L172.88,99.84L173,242.6L173,57.4L173,242.6L173.72,173.15L173.79,153.86L173.96,153.86L173.96,153.86L173.96,169.29L174.1,80.55L174.29,204L174.58,177L174.59,196.29L174.63,234.86L175.17,122.99L175.28,142.28L175.31,142.28L175.54,88.26L175.57,223.3L176.04,150L176.11,169.29L176.3,130.71L176.4,184.73L176.88,153.86L176.93,153.86L176.93,130.71L177.4,188.58L177.68,153.86L177.69,153.86L177.95,119.13L178.14,180.86L178.4,150L178.44,157.72L178.92,103.69L179.16,242.62L179.18,242.62L179.21,103.68L179.53,161.58L179.54,115.27L179.88,242.62L180.28,173.16L180.31,126.84L180.32,122.98L180.56,180.88L181.03,161.58L181.04,122.98L181.21,177.02L181.22,99.82L181.78,153.86L181.81,138.42L182.23,130.7L182.29,169.3L182.56,138.42L182.58,153.86L183.26,180.88L183.34,115.26L183.35,173.16L183.47,184.74L184.01,119.11L184.1,146.14L184.13,153.86L184.39,177.02L184.58,122.98L184.88,150L184.9,157.72L185.31,126.84L185.63,169.3L185.63,169.3L185.69,180.88L185.7,107.54L186.44,138.42L186.46,138.42L186.72,130.7L186.74,169.3L187.24,150L187.25,150L187.64,103.69L187.64,196.31L187.97,134.56L188.04,138.42L188.27,126.84L188.64,165.44L188.79,146.14L188.83,146.14L188.85,111.41L188.92,200.17L189.54,161.58L189.64,173.16L189.66,188.59L190.02,119.13L190.38,153.86L190.4,134.56L191.02,122.98L191.09,173.16L191.16,146.14L191.2,146.14L191.34,103.69L191.7,177.01L191.92,157.72L191.96,142.28L192.24,231.04L192.26,68.96L192.68,142.28L192.72,142.28L193.36,130.7L193.41,165.44L193.5,153.86L193.5,130.7L193.7,99.83L194.21,173.16L194.25,157.72L194.38,165.44L194.39,180.88L194.67,107.54L195.08,165.44L195.15,157.72L195.35,173.16L195.41,119.12L195.89,157.72L195.89,180.88L195.9,107.54L196.64,146.14L196.65,153.86L197.06,188.59L197.17,115.27L197.32,119.12L197.43,130.7L197.57,188.6L197.88,126.84L198.18,165.44L198.22,150L198.56,180.87L198.89,95.96L198.94,115.26L198.98,138.42L199.57,188.59L199.6,103.69L199.65,107.55L199.65,99.83L199.66,200.17L200.4,153.86L200.44,153.86L200.65,126.84L201.05,173.16L201.14,134.56L201.14,165.44L201.69,188.59L201.85,107.55L201.89,142.28L201.9,119.12L202.09,103.69L202.14,177.01L202.5,142.28L202.53,157.72L202.71,165.44L202.93,130.7L203.27,138.42L203.27,165.44L203.79,184.73L203.86,103.69L203.88,184.73L203.88,207.88L204.42,95.97L204.66,146.14L204.69,138.42L204.93,111.41L205.08,219.46L205.4,142.28L205.46,150L205.48,119.14L205.49,180.86L206.14,146.14L206.18,146.14L206.43,207.88L206.88,115.27L206.88,115.27L206.95,150L207.26,184.73L207.56,111.41L207.61,126.85L207.66,188.59L207.79,130.71L207.9,211.73L208.4,173.15L208.45,142.28L208.76,115.27L208.84,184.73L209.11,150L209.17,122.99L209.81,103.69L209.89,211.75L209.89,192.45L209.91,88.25L210.1,207.89L210.68,150L210.69,157.72L210.83,192.45L211.18,126.84L211.3,173.16L211.31,122.98L211.32,177.02L212.06,142.28L212.09,157.72L212.46,196.31L212.64,107.55L212.78,165.44L212.86,161.58L213.1,115.26L213.44,184.74L213.58,173.16L213.61,173.16L213.73,126.84L213.88,184.73L214.35,157.72L214.39,157.72L214.89,177.02L215.08,122.98L215.12,142.28L215.15,173.16L215.19,177.02L215.6,122.98L215.88,150L215.93,153.86L216.43,196.31L216.57,95.97L216.65,146.14L216.66,177.01L216.76,130.7L217.4,142.28L217.45,142.28L217.71,231.07L217.91,111.4L218.19,161.58L218.21,138.42L218.24,134.56L218.35,196.32L218.42,99.82L219.14,173.16L219.2,142.28L219.69,84.36L219.74,192.47L219.97,157.72L220.02,111.39L220.25,188.61L220.69,130.7L220.71,130.7L220.77,211.77L220.83,95.94L221.39,130.7L221.45,146.14L221.61,111.39L221.67,188.61L222.13,150L222.26,150L222.92,188.61L223,103.67L223.03,169.3L223.05,177.02L223.2,115.25L223.8,146.14L223.8,157.72L224.38,180.89L224.44,95.94L224.56,142.28L224.57,146.14L224.64,204.06L224.66,84.36L225.32,169.31L225.35,134.56L225.37,130.69L225.9,177.03L225.98,134.56L226.36,99.81L226.5,184.75L226.73,130.69L226.74,169.31L226.91,173.17L227.41,122.97L227.47,161.58L227.54,146.14L227.76,122.97L227.92,169.31L228.05,161.58L228.05,122.97L228.73,92.08L228.75,177.03L228.78,134.56L228.81,130.69L228.93,126.83L229.37,188.61L229.55,161.58L229.6,138.42L230.15,173.16L230.21,119.11L230.31,146.14L230.39,138.42L230.6,173.16L231.12,107.53L231.15,153.86L231.73,207.91L231.77,80.51L231.86,153.86L231.89,146.14L232.32,111.39L232.39,169.3L232.61,157.72L232.66,146.14L232.81,173.16L232.91,122.98L232.96,126.84L232.99,126.84L233.46,115.26L233.7,180.88L233.7,180.88L233.8,142.28L234.43,184.74L234.49,115.26L234.5,180.88L235.07,188.6L235.24,111.4L235.26,146.14L235.32,150L235.36,115.26L235.36,165.44L235.69,138.42L235.69,161.58L236.05,200.18L236.27,111.4L236.34,134.56L236.36,173.16L236.71,95.96L236.96,196.32L237.02,142.28L237.19,142.28L237.19,115.26L237.65,188.6L237.9,169.3L237.95,142.28L238.59,115.26L238.62,184.74L238.65,115.26L238.76,146.14L239.05,184.74L239.07,99.82L239.47,150L239.55,142.28L239.83,188.59L239.88,111.41L240.3,153.86L240.32,161.58L240.33,180.87L240.88,115.27L241.07,161.58L241.07,169.3L241.54,111.41L241.74,180.87L241.77,177.01L241.83,177.01L241.88,119.13L242.58,130.7L242.6,134.56L242.87,119.12L243.31,180.88L243.32,119.12L243.44,173.16L244.01,119.12L244.1,196.31L244.15,196.3L244.33,219.47L244.33,80.53L244.61,173.16L244.63,196.31L245.32,111.41L245.39,165.44L245.45,146.14L245.66,130.7L245.85,211.75L245.88,111.4L245.93,200.17L246.64,180.87L246.66,146.14L246.71,119.13L247.42,169.29L247.42,130.71L247.43,119.13L247.63,215.59L248.14,138.42L248.19,165.43L248.42,238.73L248.83,92.14L248.91,153.86L248.96,153.86L248.99,188.57L249.14,123L249.65,134.57L249.69,165.43L249.89,184.72L250.17,130.71L250.39,150L250.39,157.72L250.93,177.01L251.11,111.41L251.13,146.14L251.13,169.3L251.47,111.41L251.71,200.17L251.79,115.27L251.9,169.29L252,111.41L252.43,180.87L252.67,146.14L252.68,153.86L252.96,107.55L253.08,177.01L253.37,161.58L253.37,169.29L253.44,119.13L253.45,180.87L254.11,130.71L254.11,161.58L254.3,184.73L254.8,107.55L254.88,122.99L254.88,157.72L255.52,211.72L255.54,99.85L255.61,153.86L255.63,146.14L255.69,95.99L255.96,234.87L256.35,157.72L256.4,150L256.48,180.86L256.49,115.27L257.13,173.15L257.18,161.58L257.2,130.7L257.22,169.29L257.94,138.42L257.95,134.56L258.13,126.85L258.17,177.01L258.52,150L258.52,169.29L258.94,126.85L259.08,184.73L259.25,150L259.28,157.72L259.84,173.15L259.98,134.57L260.04,146.14L260.04,153.86L260.42,215.59L260.59,107.55L260.75,146.14L260.75,157.72L260.86,103.7L260.87,192.44L261.42,173.15L261.52,153.86L262.13,99.85L262.24,246.44L262.25,126.85L262.3,150L262.33,227.16L262.39,92.12L263.02,142.28L263.09,207.89L263.34,107.55L263.82,219.46L263.87,219.46L264,107.55L264.62,138.42L264.64,161.58L264.92,115.27L265.08,184.73L265.33,138.42L265.4,153.86L265.63,119.13L265.65,180.87L266.09,153.86L266.12,173.15L266.55,180.87L266.59,103.69L266.62,103.69L266.64,200.17L267.36,161.58L267.4,146.14L267.67,126.84L268.02,184.74L268.16,150L268.27,177.02L268.54,107.54L268.86,204.04L269,119.12L269.05,99.82L269.23,200.18L269.8,130.7L269.84,150L269.88,223.35L269.91,76.65L270.59,122.98L270.61,122.98L270.73,177.02L270.95,103.68L271.36,157.72L271.37,157.72L271.5,177.03L271.79,111.39L272.12,142.28L272.12,165.44L272.66,107.53L272.7,192.46L272.86,126.84L272.95,126.84L272.97,204.04L273.58,99.82L273.68,196.32L273.71,146.14L273.94,180.88L274.23,107.54L274.46,142.28L274.5,173.16L274.53,188.6L274.56,111.4L275.27,138.42L275.28,165.44L275.63,173.16L275.66,122.98L276.03,153.86L276.04,157.72L276.11,122.98L276.76,180.88L276.76,169.3L276.8,153.86L276.98,161.58L277.49,99.82L277.54,153.86L277.56,115.26L278.11,95.95L278.12,192.46L278.35,184.74L278.36,115.26L278.39,111.4L278.72,184.74L279.1,130.7L279.13,134.56L279.25,122.98L279.55,188.6L279.82,153.86L279.83,134.56L280.34,192.45L280.35,103.68L280.57,122.98L280.69,157.72L281.05,119.13L281.06,180.87L281.4,169.3L281.45,134.56L281.94,227.19L282.14,95.96L282.2,88.25L282.67,177.02L283.08,138.42L283.1,134.56L283.47,72.82L283.53,207.88L283.56,107.56L283.57,49.68L284.17,200.16L284.33,188.59L284.36,146.14L285.09,192.44L285.1,107.56L285.13,130.71L285.31,119.13L285.37,192.45L285.88,142.28L285.89,142.28L286.5,115.28L286.56,180.86L286.64,165.43L286.64,134.57L287.08,192.44L287.16,103.71L287.37,150L287.42,153.86L287.83,122.99L288.02,242.57L288.02,281.14L288.05,285L288.06,227.15L288.07,227.15L288.07,72.85L288.16,227.15L288.86,161.57L288.86,130.71L288.96,107.56L289.05,204L289.6,142.28L289.64,142.28L289.93,123L290.18,177.01L290.39,157.72L290.41,165.43L290.81,204.01L290.94,111.42L291.1,157.72L291.14,153.86L291.52,188.57L291.76,107.57L291.86,173.14L291.92,153.86L292.29,184.72L292.53,123L292.61,169.29L292.67,157.72L292.67,188.58L293.31,115.28L293.41,134.57L293.43,157.71L293.91,184.72L294.03,123L294.16,138.43L294.19,146.14L294.58,111.43L294.64,192.43L294.92,126.86L295.06,123L295.34,188.58L295.65,119.14L295.81,146.14L295.81,138.43L296.2,115.28L296.43,180.87L296.57,169.29L296.6,177.01L297.24,130.71L297.35,165.43L297.36,165.43L297.51,180.87L297.73,115.28L298.11,165.43L298.12,169.29L298.42,184.72L298.42,107.56L298.86,146.14L298.89,169.29L298.9,177.01L299.62,126.85L299.65,169.29L299.82,111.42L299.83,200.16L300.39,180.86L300.43,142.28L300.7,184.72L300.78,115.27L301.18,153.86L301.21,146.14L301.44,123L301.71,169.29L301.83,153.86L301.84,165.43L302.4,188.58L302.51,111.42L302.57,146.14L302.61,184.72L302.62,200.16L303.36,99.84L303.36,99.84L303.41,200.16L303.67,219.46L303.91,88.25L304.11,88.26L304.14,204.02L304.23,80.54L304.26,211.74L304.6,153.86L304.6,126.85L305.23,180.87L305.23,103.7L305.33,130.71L305.34,126.85L305.36,173.15L306.08,111.41L306.09,111.41L306.29,180.87L306.83,157.72L306.91,142.28L307.54,103.68L307.56,196.32L307.64,142.28L307.67,126.84L307.7,177.02L308.06,115.26L308.14,126.84L308.17,165.44L308.19,173.16L308.78,119.12L308.91,153.86L308.94,153.86L308.96,180.88L309.66,111.4L309.71,146.14L309.83,173.16L309.86,130.7L310.39,157.72L310.39,134.56L310.82,126.84L311.15,173.16L311.18,161.58L311.21,165.44L311.45,115.26L311.93,157.72L311.94,157.72L312.23,177.02L312.24,122.98L312.69,153.86L312.71,119.12L312.89,192.46L312.94,107.54L313.45,165.44L313.54,165.44L313.72,88.22L314.02,231.07L314.26,115.25L314.36,122.97L314.63,115.25L314.69,173.16L314.86,126.84L314.88,169.3L314.92,126.84L315.05,180.88L315.62,142.28L315.64,146.14L315.91,188.6L316.11,92.1L316.29,146.14L316.3,115.26L316.31,95.96L317.05,169.3L317.08,150L317.12,130.7L317.4,126.84L317.51,173.16L317.9,153.86L317.9,130.7L317.9,173.16L318.65,142.28L318.69,157.72L318.74,200.19L318.76,99.81L319.41,126.84L319.45,130.7L319.45,122.98L319.84,177.02L320.2,161.58L320.21,146.14L320.76,180.88L320.8,115.26L320.94,146.14L320.98,153.86L321.17,169.3L321.55,119.13L321.69,146.14L321.69,184.73L322.09,111.4L322.47,138.42L322.52,153.86L322.59,115.26L322.99,196.32L323.27,173.16L323.28,150L323.46,111.4L323.47,180.88L324.03,142.28L324.04,153.86L324.25,180.88L324.33,119.12L324.78,161.58L324.81,153.86L324.9,169.3L325.06,122.98L325.56,146.14L325.57,173.16L325.58,126.84L326.31,142.28L326.34,157.72L326.86,200.19L326.93,95.94L327.07,134.56L327.11,161.58L327.38,95.94L327.74,211.77L327.82,130.7L327.87,146.14L327.89,184.74L328.62,76.65L328.67,215.63L328.67,231.07L328.94,92.09L329.38,126.83L329.43,161.58L329.57,122.98L329.61,184.75L330.17,165.44L330.19,153.86L330.37,180.89L330.57,115.26L330.94,153.86L330.97,150L331.03,173.16L331.16,119.11L331.33,153.86L331.33,119.11L331.37,184.75L332.07,153.86L332.14,146.14L332.41,107.53L332.48,188.61L332.89,130.7L332.91,146.14L333.04,188.61L333.46,111.39L333.66,150L333.7,142.28L333.75,122.97L333.84,180.88L334.43,138.42L334.49,165.44L334.54,192.45L334.58,99.83L335.24,146.14L335.26,138.42L335.58,192.46L335.64,107.53L336.01,146.14L336.04,138.42L336.21,103.68L336.51,177.02L336.77,173.16L336.83,150L337.27,95.97L337.41,180.88L337.55,173.16L337.59,126.84L337.67,119.12L337.8,180.88L338.34,142.28L338.37,146.14L338.69,184.73L338.76,107.54L339.11,165.44L339.2,165.44L339.4,115.26L339.69,192.46L339.93,130.7L339.97,157.72L339.97,126.84L340.25,180.88L340.72,177.02L340.75,153.86L340.9,130.7L341.43,200.16L341.51,180.87L341.51,157.72L341.72,130.7L341.88,184.73L342.21,142.28L342.24,165.44L342.54,115.27L342.84,200.16L342.99,150L343,157.72L343.33,196.31L343.34,103.69L343.73,134.56L343.74,138.42L343.96,180.87L343.98,119.13L344.24,142.28L344.25,134.56L344.75,111.41L344.77,180.88L344.91,157.72L344.98,146.14L345.48,200.18L345.72,122.98L345.73,157.72L345.75,157.72L346.03,192.45L346.14,95.97L346.5,146.14L346.51,146.14L346.95,111.41L346.99,196.3L347.25,126.85L347.29,165.43L347.4,130.71L347.63,153.86L347.63,169.29L347.97,177.01L348.17,126.85L348.26,138.42L348.28,161.58L348.4,99.84L348.41,200.16L348.99,122.99L349.01,177.01L349.25,119.13L349.76,169.29L349.79,161.58L350.42,115.26L350.45,196.31L350.54,157.72L350.58,165.44L350.82,196.31L350.91,111.4L351.28,153.86L351.32,177.01L351.72,122.99L351.81,192.44L352.1,138.42L352.11,161.58L352.37,184.72L352.85,115.28L352.87,177.01L353.38,126.85L353.61,161.58L353.64,138.42L353.82,177.01L354.15,119.13L354.39,153.86L354.43,169.29L354.51,126.85L354.68,180.87L355.18,146.14L355.2,153.86L355.36,130.7L355.54,177.01L355.95,165.44L355.96,161.58L356.53,111.41L356.54,192.45L356.67,169.29L356.78,146.14L356.96,180.87L357.1,119.13L357.51,153.86L357.52,161.58L358,173.16L358.3,119.12L358.32,134.56L358.33,157.72L358.51,219.46L358.65,72.81L358.65,72.81L358.66,219.47L359.32,130.7L359.42,146.14L359.44,165.44L359.74,122.99L360.05,196.31L360.18,150L360.21,146.14L360.29,180.87L360.62,130.7L360.96,161.58L360.96,138.42L361.33,111.4L361.5,192.46L361.7,169.3L361.73,153.86L361.85,122.98L362.1,184.74L362.48,165.44L362.52,134.56L362.9,126.84L362.94,173.16L363.27,138.42L363.31,161.58L363.75,173.16L363.95,130.7L364.03,157.72L364.03,173.16L364.18,177.02L364.68,111.39L364.78,122.98L364.79,173.16L365.12,211.78L365.12,92.08L365.53,157.72L365.55,173.17L366.04,126.83L366.22,153.86L366.23,196.34L366.25,80.49L366.97,157.72L367.01,153.86L367.35,177.03L367.49,119.11L367.67,138.42L367.67,130.69L368.03,173.17L368.41,115.25L368.43,122.97L369,173.17L369.19,153.86L369.21,146.14L369.54,192.47L369.56,107.53L369.91,134.56L369.98,146.14L370.47,107.52L370.5,188.61L370.65,138.42L370.68,122.97L370.72,177.03L371.33,111.38L371.44,142.28L371.46,146.14L371.52,196.34L372.03,99.78L372.2,138.41L372.27,126.83L372.89,180.9L372.96,119.1L373.04,188.62L373.23,95.94L373.79,138.42L373.92,150L374.3,173.17L374.31,126.83L374.37,150L374.4,173.17L374.6,115.25L375.15,173.17L375.2,165.45L375.77,92.07L375.83,207.92L375.94,138.42L375.95,169.31L376.04,99.81L376.1,196.34L376.69,134.55L376.74,119.11L376.84,103.66L377.2,196.34L377.54,161.59L377.57,107.52L377.58,196.34L378.31,99.8L378.37,99.8L378.87,188.61L378.87,157.72L378.9,115.25L379.57,184.75L379.67,153.86L379.69,119.11L379.93,192.48L380.16,95.94L380.24,146.14L380.31,95.94L380.5,173.17L380.98,88.23L381.09,146.14L381.14,146.14L381.38,211.76L381.41,99.82L381.89,138.42L381.89,150L382.17,169.3L382.44,119.11L382.59,150L382.65,153.86L382.87,177.02L382.88,103.67L383.35,146.14L383.36,169.31L383.72,180.89L384.04,99.79L384.09,177.03L384.17,126.83L384.35,192.47L384.38,115.25L384.91,153.86L384.94,150L385.31,130.7L385.44,161.58L385.49,146.14L385.49,169.3L386.06,177.03L386.15,107.53L386.19,126.83L386.24,177.03L386.6,184.75L386.64,107.53L386.98,111.39L387.02,111.39L387.03,192.47L387.11,99.8L387.77,177.03L387.8,122.97L387.86,180.89L388.53,111.39L388.54,134.55L388.56,153.86L389.22,107.52L389.28,211.79L389.43,153.86L389.54,99.8L389.69,223.37L390.13,134.55L390.17,146.14L390.43,119.1L390.63,173.17L390.75,161.59L390.75,169.31L391.28,99.8L391.34,196.33L391.49,115.25L391.51,153.86L391.58,200.19L391.68,122.97L392.26,146.14L392.27,146.14L392.64,130.69L392.96,188.61L393.01,138.42L393.04,146.14L393.22,126.83L393.68,173.16L393.77,146.14L393.82,153.86L394.21,130.7L394.22,173.17L394.57,153.86L394.59,150L394.94,99.81L395.09,196.33L395.34,169.31L395.36,134.55L395.48,119.11L395.48,180.89L396.1,130.7L396.11,130.7L396.32,200.2L396.64,103.66L396.83,138.42L396.87,161.58L397.21,184.76L397.59,130.69L397.61,150L397.63,153.86L397.63,130.69L397.65,173.17L398.36,138.41L398.39,138.41L398.6,103.65L399,188.63" style="vector-effect: non-scaling-stroke; fill: none; stroke: rgb(99, 110, 250); stroke-opacity: 1; stroke-width: 2px; opacity: 1;"/></g><g class="points"/><g class="text"/></g><g class="trace scatter tracecdba47" style="stroke-miterlimit: 2; opacity: 1;"><g class="fills"/><g class="errorbars"/><g class="lines"><path class="js-line" d="M0,192.42L0.19,265.72L0.23,69L0.75,153.86L0.75,173.14L0.9,123.01L0.91,184.71L1.48,157.71L1.57,138.43L1.6,176.99L1.61,123.01L2.26,138.43L2.36,138.43L2.48,130.72L2.94,180.85L3.1,161.57L3.12,161.57L3.3,169.28L3.84,126.86L3.86,146.14L3.91,157.71L4.13,103.73L4.18,196.27L4.66,146.14L4.69,153.86L5,169.28L5.18,126.87L5.43,146.14L5.48,165.42L5.68,115.3L5.91,176.99L6.21,153.86L6.25,153.86L6.82,176.98L6.86,119.16L7,176.98L7.01,119.16L7.68,173.13L7.69,111.45L7.74,165.42L7.8,134.58L8.17,130.73L8.21,169.27L8.36,161.56L8.57,115.31L8.86,184.69L9.31,146.15L9.31,130.73L9.33,119.16L9.56,173.13L9.97,157.71L10.02,157.71L10.34,130.73L10.41,173.13L10.72,142.29L10.74,142.29L11.17,203.97L11.2,96.03L11.48,126.87L11.51,165.42L11.89,203.97L11.98,80.61L12.27,138.44L12.29,169.27L12.93,173.13L12.93,126.87L13,173.13L13,180.84L13.26,115.31L13.75,134.58L13.76,169.27L14,111.45L14.07,176.98L14.54,142.29L14.56,153.85L14.72,123.02L15.25,169.27L15.29,138.44L15.33,146.15L15.33,165.42L15.98,126.87L16.08,142.29L16.12,146.15L16.22,184.69L16.36,115.31L16.49,138.44L16.5,200.1L17.25,119.17L17.32,180.83L17.4,192.39L17.47,126.87L18.07,165.42L18.09,138.44L18.67,165.42L18.79,111.46L18.79,123.02L18.91,161.56L19.15,176.98L19.4,111.46L19.63,142.29L19.68,146.15L19.82,173.13L20.36,115.31L20.39,157.71L20.46,180.83L20.95,119.17L21.13,169.27L21.18,165.42L21.45,123.02L21.51,176.98L21.94,157.71L21.94,161.56L22.12,169.27L22.45,130.73L22.65,146.15L22.73,161.56L23.03,173.13L23.14,126.87L23.46,153.85L23.5,153.85L23.58,126.87L23.96,173.13L24.25,169.27L24.26,146.15L24.44,176.98L24.64,126.87L24.99,157.71L25,142.29L25.19,165.42L25.41,130.73L25.41,107.6L26.06,184.69L26.17,146.15L26.18,115.31L26.52,169.27L26.93,138.44L26.94,138.44L27.21,115.31L27.57,176.98L27.65,153.85L27.66,126.87L27.73,176.98L28.35,115.31L28.38,169.27L28.43,142.29L28.57,173.12L29,126.88L29.03,130.73L29.05,173.12L29.46,188.55L29.66,99.88L29.79,153.86L29.82,146.14L29.88,88.31L30.38,203.96L30.56,176.98L30.59,161.56L30.81,111.45L30.98,176.98L31.07,146.15L31.07,123.02L31.09,107.6L31.47,176.98L31.81,153.85L31.83,153.85L32.3,103.75L32.44,184.69L32.58,176.98L32.68,146.15L33.19,103.74L33.31,203.97L33.41,138.43L33.45,84.47L33.47,215.53L34.19,169.27L34.29,142.29L34.33,119.16L34.86,180.84L34.92,119.16L35.05,142.29L35.41,99.89L35.45,200.11L35.68,142.29L35.71,153.85L35.81,130.73L36.01,169.27L36.06,130.73L36.06,123.02L36.49,111.46L36.74,196.26L36.78,126.87L36.88,146.15L37.57,123.02L37.61,184.69L37.64,173.13L38.23,130.73L38.39,134.58L38.46,169.27L38.52,107.6L38.52,192.4L39.19,153.86L39.23,153.86L39.3,184.7L39.38,111.45L39.97,176.98L39.99,138.44L40.62,123.02L40.66,192.4L40.71,184.69L40.76,153.86L41.1,111.45L41.12,188.55L41.48,169.27L41.54,165.42L41.83,180.83L41.91,119.17L42.28,161.56L42.37,142.29L42.61,111.45L42.63,192.4L43.08,157.71L43.1,142.29L43.24,111.45L43.47,192.4L43.85,153.86L43.92,153.86L44.07,180.84L44.08,119.16L44.67,165.42L44.71,165.42L45.31,126.87L45.31,176.99L45.31,180.84L45.35,119.16L45.57,184.7L46.07,130.72L46.1,138.43L46.17,96.03L46.18,203.97L46.84,157.71L46.88,142.29L47.27,107.6L47.38,196.25L47.66,173.13L47.69,126.87L47.72,180.84L48.34,123.01L48.42,165.42L48.46,130.73L48.7,115.31L48.77,188.55L49.21,142.29L49.25,146.15L49.89,200.11L49.9,96.04L50,161.56L50.01,157.71L50.55,123.02L50.56,188.54L50.74,169.27L50.79,169.27L51.06,173.13L51.27,119.16L51.56,138.44L51.56,161.56L51.9,184.7L51.93,111.45L52.25,142.29L52.28,184.7L52.28,200.13L52.94,99.87L52.97,184.7L53.04,138.43L53.15,192.41L53.5,126.86L53.79,173.14L53.87,126.86L54.53,211.7L54.62,146.14L54.64,146.14L54.73,211.7L54.91,111.43L55.38,126.86L55.4,130.72L55.4,196.28L56.06,119.15L56.15,146.14L56.16,146.14L56.48,165.43L56.5,115.29L56.54,184.71L56.56,111.44L57.27,153.86L57.32,153.86L57.34,123L57.62,188.57L58.07,165.43L58.1,134.57L58.56,180.86L58.62,111.43L58.84,119.14L58.85,119.14L58.85,115.29L58.89,200.14L59.59,157.71L59.61,173.14L60.35,130.72L60.41,134.57L60.42,142.29L61.01,96L61.13,215.57L61.2,200.14L61.21,99.86L61.95,153.86L61.96,153.86L62.39,200.13L62.42,99.87L62.6,142.29L62.6,119.15L62.62,111.44L62.64,188.56L63.24,138.43L63.26,157.71L63.29,126.86L63.91,180.86L63.96,161.57L64,153.86L64.32,173.14L64.61,126.86L64.71,157.71L64.73,142.29L64.75,123L65.03,184.71L65.47,165.43L65.51,161.57L65.65,231.02L65.66,68.98L66.21,173.14L66.26,165.43L66.34,123L66.71,173.15L67.02,142.28L67.04,153.86L67.08,126.85L67.53,177L67.74,157.72L67.79,142.28L67.9,126.85L68.1,192.44L68.51,134.57L68.55,142.28L68.85,192.44L68.87,111.42L69.27,161.57L69.27,138.43L69.29,184.72L69.49,126.85L69.74,180.86L69.75,188.58L70.09,119.14L70.47,211.73L70.48,211.73L70.56,153.86L70.58,103.71L70.88,188.58L71.16,165.43L71.19,165.43L71.53,184.72L71.64,123L71.87,134.57L71.95,146.14L72.32,123L72.65,192.43L72.73,130.71L73.14,103.71L73.14,211.71L73.47,126.86L73.5,126.86L73.64,96L73.75,192.42L74.25,134.57L74.29,142.29L74.42,180.86L74.97,126.86L75.02,130.72L75.04,169.28L75.51,123L75.62,184.71L75.68,123L76.19,119.14L76.22,184.72L76.48,169.29L76.48,157.71L77.05,173.15L77.09,126.85L77.18,142.29L77.22,157.71L77.23,169.29L77.28,130.71L77.96,153.86L78.02,165.43L78.08,177L78.2,126.85L78.76,146.14L78.88,146.14L79.04,188.57L79.23,123L79.47,142.28L79.54,142.28L79.73,134.57L79.91,165.43L80.26,161.57L80.32,130.71L80.49,107.56L80.52,192.44L81.02,165.43L81.08,138.43L81.43,196.3L81.48,126.85L81.83,173.15L81.85,173.15L82.22,196.29L82.59,115.29L82.59,184.71L82.66,180.86L82.82,192.43L82.96,115.29L83.39,157.71L83.5,161.57L83.55,188.57L83.66,130.72L83.69,173.14L83.71,107.58L84.09,180.85L84.47,126.86L84.47,123L84.47,111.43L84.7,180.85L85.22,157.71L85.23,177L85.65,192.43L85.66,107.57L85.97,119.15L86,142.29L86.33,92.16L86.38,234.84L86.75,123L86.83,177L87.26,223.3L87.36,88.28L87.57,169.28L87.66,153.86L87.72,157.71L87.73,111.42L87.74,111.42L87.75,173.14L87.86,188.58L87.9,142.28L87.91,130.71L87.94,111.42L88.6,196.29L88.68,165.43L89.1,111.43L89.16,188.57L89.43,153.86L89.44,157.72L90.07,107.57L90.1,196.29L90.17,169.29L90.25,161.57L90.62,192.42L90.81,103.71L90.83,153.86L90.87,99.86L91.11,61.29L91.28,192.43L91.6,157.71L91.67,146.14L91.88,227.12L91.88,72.88L92.28,165.43L92.28,134.57L92.42,157.71L92.47,130.72L92.47,169.28L92.95,203.99L93.12,111.44L93.23,157.71L93.31,161.57L93.34,188.57L93.93,99.87L94.05,161.57L94.06,146.14L94.25,96.01L94.69,169.28L94.81,115.3L94.82,115.3L95.27,188.56L95.57,130.72L95.58,146.14L95.89,180.85L95.97,115.29L96.2,126.86L96.22,165.42L96.39,165.43L96.46,126.86L96.89,138.43L96.91,169.28L97.03,96.01L97.04,203.99L97.63,146.14L97.67,153.86L97.84,169.28L98.29,115.29L98.42,153.86L98.46,146.14L98.56,169.28L98.82,123.01L99.21,146.14L99.22,146.14L99.42,126.86L99.45,176.99L99.97,146.14L100.06,146.14L100.49,184.7L100.54,107.59L100.78,173.14L100.8,134.58L101.14,173.14L101.15,107.58L101.54,157.71L101.57,134.57L101.69,107.58L101.72,176.99L102.33,173.14L102.34,115.29L102.71,84.45L102.73,215.55L103.08,169.28L103.1,138.43L103.23,126.86L103.5,165.42L103.54,153.86L103.62,126.87L104,111.44L104.34,211.69L104.35,130.72L104.36,88.31L104.52,196.27L105.14,169.28L105.15,111.45L105.25,99.88L105.49,200.12L105.9,115.3L105.9,103.74L106.77,173.13L106.8,142.29L107.07,107.59L107.16,161.57L107.41,157.71L107.41,176.99L107.63,184.7L108.09,130.72L108.1,157.71L108.24,142.29L108.7,184.7L108.72,115.3L108.97,161.57L109.01,138.43L109.07,107.59L109.77,180.84L109.8,119.16L109.9,111.45L110.18,173.13L110.53,138.43L110.58,138.43L110.92,84.46L110.94,215.54L111.17,153.86L111.22,111.44L111.27,192.41L111.92,96.01L111.98,157.71L111.99,96.01L111.99,88.29L112.66,192.42L112.74,153.86L112.8,138.43L112.86,119.15L113.28,192.42L113.52,142.29L113.57,134.57L113.79,176.99L113.96,107.58L114.31,123.01L114.39,157.71L114.42,115.29L114.93,173.14L115.06,157.71L115.07,134.57L115.25,107.58L115.39,196.27L115.81,138.43L115.87,134.58L116.28,99.87L116.48,188.55L116.69,173.13L116.7,165.42L116.75,169.28L117.35,119.15L117.42,153.86L117.48,165.42L117.82,180.85L117.97,111.44L118.23,142.29L118.27,165.42L118.5,188.56L118.57,111.44L118.98,153.86L119.02,196.27L119.19,107.58L119.82,130.72L119.89,169.28L120.52,126.86L120.57,192.42L120.59,134.57L120.72,165.43L120.73,207.85L120.74,99.86L121.46,153.86L121.49,146.14L121.5,123L121.52,177L122.22,126.86L122.23,176.99L122.31,200.13L122.92,111.43L122.97,176.99L123.07,161.57L123.09,184.71L123.75,115.29L123.8,157.71L123.84,169.28L124.21,142.29L124.52,184.72L124.53,173.15L124.55,122.99L124.94,107.56L125.18,196.29L125.3,165.43L125.31,134.57L125.59,122.99L125.9,188.57L125.99,177L126.14,146.14L126.14,111.43L126.17,180.86L126.89,157.72L126.9,157.72L127.05,169.29L127.08,126.86L127.64,146.14L127.66,146.14L128.33,196.29L128.34,123L128.39,173.15L128.43,157.72L128.86,99.85L128.91,204.01L129.16,153.86L129.22,153.86L129.31,126.85L129.49,161.57L129.68,153.86L129.68,165.43L130.1,173.14L130.23,130.71L130.41,165.43L130.44,153.86L130.53,111.43L130.95,188.57L131.15,153.86L131.16,161.57L131.36,207.86L131.52,119.14L131.88,130.71L131.95,119.14L132.18,204L132.35,111.42L132.66,173.14L132.67,126.86L132.78,123L133.03,207.86L133.39,142.29L133.48,180.86L133.75,192.43L134.06,107.57L134.23,169.29L134.26,177L134.54,196.29L134.56,88.28L135.01,165.43L135.04,153.86L135.57,180.86L135.59,119.14L135.72,142.29L135.73,165.43L135.78,126.86L136.13,184.72L136.48,153.86L136.52,146.14L136.8,173.15L136.81,126.85L137.26,134.57L137.29,134.57L137.68,165.43L137.79,138.43L137.79,123L138.1,122.99L138.11,177.01L138.55,153.86L138.57,138.43L138.75,188.58L139.16,76.69L139.28,165.43L139.33,161.57L139.65,188.58L139.99,119.13L140.08,153.86L140.1,138.42L140.23,180.87L140.28,126.85L140.79,134.57L140.88,157.72L140.9,173.15L141.55,119.13L141.6,142.28L141.66,157.72L141.76,177.01L141.82,122.99L142.39,126.85L142.46,130.71L142.53,122.99L142.55,196.3L143.19,153.86L143.24,130.71L143.66,196.3L143.67,103.7L143.92,177.01L144,161.57L144.55,84.4L144.68,173.15L144.76,134.57L145.25,204.03L145.36,95.97L145.5,146.14L145.52,146.14L145.71,173.15L145.91,130.71L146.25,153.86L146.27,173.15L146.5,115.27L146.51,184.73L147.02,146.14L147.03,153.86L147.08,119.13L147.29,180.87L147.77,157.72L147.77,173.15L147.92,111.42L147.92,119.13L147.92,188.58L147.92,204.02L148.31,122.99L148.67,142.28L148.71,157.72L148.89,130.71L148.93,138.42L148.94,161.58L149.05,200.16L149.09,122.99L149.7,134.56L149.7,165.44L149.8,173.15L150.1,122.99L150.36,146.14L150.36,138.42L150.74,111.41L151.16,188.59L151.18,111.41L151.71,196.3L151.91,103.7L151.93,180.87L151.99,142.28L152.52,122.99L152.6,177.01L152.7,146.14L152.79,146.14L153.51,192.45L153.51,103.7L153.55,153.86L153.58,188.58L154.29,122.99L154.29,126.85L154.31,161.58L154.94,111.41L154.94,188.59L154.99,146.14L155.04,180.87L155.65,122.99L155.79,173.15L155.8,173.15L156.12,122.99L156.48,196.29L156.54,161.57L156.57,165.43L157.2,68.97L157.22,231.03L157.31,153.86L157.34,153.86L157.47,130.71L157.48,196.29L157.78,211.74L158.06,99.84L158.24,134.56L158.24,192.45L158.24,211.75L158.59,119.13L158.94,146.14L159.03,157.72L159.26,119.13L159.4,184.72L159.76,153.86L159.83,146.14L160.07,173.15L160.34,126.85L160.48,142.28L160.54,142.28L160.83,119.13L160.97,180.86L161.28,142.28L161.3,157.72L161.67,130.71L161.87,180.87L162.02,138.42L162.06,161.58L162.63,122.99L162.63,180.87L162.87,146.14L162.91,157.72L163.41,111.41L163.42,177.01L163.59,153.86L163.71,153.86L163.81,119.13L163.86,180.87L164.46,153.86L164.51,134.57L164.64,122.99L164.86,192.44L165.24,180.87L165.27,146.14L165.91,169.29L165.95,130.71L166,146.14L166.02,146.14L166.45,92.14L166.46,196.29L166.63,146.14L166.73,153.86L166.91,169.28L167.06,134.57L167.48,142.29L167.52,142.29L168.01,204L168.12,103.72L168.23,165.43L168.3,134.57L168.79,184.71L168.81,111.43L168.91,130.71L168.92,169.29L169.19,184.72L169.58,119.14L169.66,161.57L169.7,169.29L169.71,103.71L169.87,196.29L170.45,153.86L170.46,146.14L170.87,123L170.87,188.57L171.17,138.43L171.25,153.86L171.35,173.14L171.55,119.14L171.99,142.28L172.01,134.57L172.64,111.42L172.67,188.58L172.75,142.28L172.77,142.28L173,57.4L173,242.6L173.52,138.42L173.53,115.27L174.11,80.56L174.29,173.14L174.31,92.13L174.59,177L174.63,68.98L175.1,165.43L175.14,173.15L175.54,211.74L175.54,88.26L175.88,173.15L175.92,142.28L176.04,177.01L176.4,115.27L176.63,157.72L176.68,142.28L176.93,169.29L177.11,134.57L177.13,134.57L177.13,130.71L177.4,111.42L177.68,173.15L177.84,153.86L177.93,153.86L178.14,119.14L178.52,184.73L178.53,122.99L178.59,134.57L178.92,196.31L179.16,57.38L179.21,126.84L179.42,184.73L179.88,99.82L180.23,138.42L180.23,161.58L180.42,119.12L180.43,180.88L180.96,161.58L181.02,138.42L181.22,200.18L181.63,122.98L181.76,146.14L181.77,161.58L181.83,130.7L182.23,173.16L182.52,153.86L182.53,134.56L182.59,126.84L183.26,184.74L183.26,184.74L183.29,157.72L183.35,115.26L183.73,184.74L183.93,153.86L183.99,122.97L183.99,119.11L184.53,177.02L184.7,157.72L184.78,142.28L184.84,177.02L185.53,146.14L185.54,130.7L185.69,119.12L185.7,192.46L186.25,165.44L186.31,153.86L186.74,130.7L186.81,169.3L186.92,142.28L186.92,134.56L187.53,119.12L187.64,196.31L187.64,192.45L187.64,103.69L187.68,180.88L188.36,134.56L188.43,146.14L188.85,188.59L188.92,99.83L189.18,177.02L189.25,169.3L189.29,173.16L189.66,111.41L189.94,142.28L190.01,161.58L190.02,180.87L190.31,126.84L190.76,146.14L190.77,146.14L190.92,126.84L191.34,196.31L191.52,146.14L191.53,134.56L192.24,68.96L192.26,231.04L192.3,157.72L192.42,134.56L192.42,192.45L193.01,161.58L193.06,138.42L193.55,126.84L193.7,200.17L193.7,200.17L193.73,130.71L194.19,119.12L194.4,184.74L194.48,146.14L194.52,169.3L194.67,192.46L194.67,115.26L195.06,165.44L195.08,130.7L195.35,119.12L195.41,180.88L195.76,134.56L195.89,130.7L195.89,119.12L195.9,192.46L196.64,153.86L196.65,153.86L197.06,111.41L197.32,188.6L197.43,177.02L197.91,122.98L198.22,157.72L198.23,165.44L198.66,126.84L198.89,204.04L198.89,188.6L198.9,204.04L199.66,99.83L199.66,99.83L199.68,200.17L199.77,126.84L200.46,142.28L200.48,142.28L200.66,119.12L201.21,177.02L201.26,130.7L201.69,111.41L201.96,196.31L201.97,153.86L202.05,177.01L202.09,196.31L202.15,134.56L202.73,165.44L202.88,165.44L203.29,126.85L203.43,180.87L203.56,138.42L203.61,161.58L203.88,92.12L203.95,207.88L204.27,169.29L204.29,126.85L204.42,204.03L205.01,92.12L205.07,92.12L205.08,80.54L205.48,180.86L205.75,161.57L205.77,161.57L205.89,173.15L206.43,88.26L206.44,146.14L206.53,138.43L206.6,99.84L206.88,184.73L207.28,115.27L207.29,177.01L207.56,188.59L207.9,88.27L208,169.29L208.05,165.44L208.19,146.14L208.2,134.56L208.83,115.27L208.84,184.73L208.92,130.71L208.96,134.56L209.34,188.59L209.38,95.97L209.72,177.01L209.77,177.01L209.89,88.25L209.91,211.75L210.51,142.28L210.53,157.72L210.54,177.01L210.77,107.55L211.27,173.16L211.3,126.84L211.32,122.98L211.37,177.02L212.05,142.28L212.06,157.72L212.48,103.69L212.64,192.45L212.72,192.45L213.44,115.26L213.52,126.84L213.57,157.72L213.8,169.3L213.88,115.27L214.27,142.28L214.35,142.28L214.89,122.98L215.08,177.02L215.09,161.58L215.12,134.56L215.6,177.02L215.64,122.98L215.77,153.86L215.8,153.86L216.04,173.16L216.5,103.69L216.5,153.86L216.52,196.31L216.57,204.03L216.58,142.28L216.74,169.3L216.98,119.12L217.31,142.28L217.34,142.28L217.66,180.88L217.73,80.51L218.09,130.7L218.12,169.3L218.17,107.54L218.43,188.6L218.86,134.56L218.89,146.14L219.42,92.08L219.44,207.92L219.56,192.47L219.57,204.06L219.69,215.64L219.74,107.53L220.31,146.14L220.33,153.86L220.75,200.19L220.77,88.23L220.94,119.11L220.97,180.89L221.61,188.61L221.62,107.53L221.69,177.03L221.77,177.03L221.84,122.97L222.54,146.14L222.57,177.02L222.92,111.39L223.2,192.47L223.32,130.69L223.36,169.31L223.66,173.17L224.08,126.83L224.17,146.14L224.64,95.94L224.66,215.64L224.9,122.97L224.94,177.03L225.28,103.66L225.29,200.2L225.61,134.56L225.74,165.44L226.33,111.39L226.36,200.19L226.47,184.75L226.5,184.75L226.5,115.25L227.24,157.72L227.29,142.28L227.8,126.83L228.05,177.03L228.08,157.72L228.11,126.83L228.24,211.78L228.78,165.44L228.81,169.31L228.93,173.17L229.37,111.39L229.55,138.42L229.6,161.58L230.21,180.89L230.28,119.11L230.31,157.72L230.39,161.58L230.6,126.84L231.12,192.47L231.15,146.14L231.21,107.53L231.27,204.05L231.56,165.44L231.56,122.97L231.56,103.67L231.77,219.49L232.31,173.16L232.32,188.61L232.81,126.84L233.06,153.86L233.09,146.14L233.33,119.12L233.48,184.74L233.82,173.16L233.86,130.7L234.43,115.26L234.49,184.74L234.62,146.14L234.62,134.56L235.07,111.4L235.24,188.6L235.36,130.7L235.39,153.86L235.71,177.02L235.79,107.54L236.11,126.84L236.16,153.86L236.71,204.04L236.83,107.54L236.91,196.32L236.93,188.6L236.95,200.18L236.96,99.82L237.62,173.16L237.65,126.84L237.65,111.4L238.11,173.16L238.4,130.7L238.43,153.86L238.62,115.26L238.65,184.74L239.05,119.12L239.05,115.26L239.07,200.18L239.8,126.85L239.83,111.41L239.88,188.59L240.54,142.28L240.6,130.7L240.79,169.3L240.97,119.13L241.33,165.43L241.37,134.57L241.54,188.59L241.56,111.41L242.12,153.86L242.14,146.14L242.35,122.98L242.87,180.88L242.94,161.58L242.94,119.12L243.32,180.88L243.63,122.98L243.73,169.3L244.33,80.53L244.33,219.47L244.46,184.73L244.61,115.27L244.63,103.69L245,173.16L245.28,161.58L245.29,184.74L245.32,188.59L245.35,111.41L245.66,138.42L245.71,138.42L245.85,88.25L245.94,200.17L246.45,157.72L246.48,126.84L246.63,119.13L246.71,180.87L247.14,169.3L247.25,157.72L247.48,173.15L247.65,88.26L247.95,134.56L248.06,119.13L248.19,173.15L248.42,45.84L248.81,165.43L248.82,107.57L248.82,92.14L248.83,207.86L249.54,157.72L249.63,142.28L249.79,122.99L250.2,169.29L250.35,146.14L250.39,146.14L250.93,115.27L251.11,192.45L251.13,157.72L251.17,134.56L251.71,99.83L251.79,184.73L251.92,134.56L251.94,134.56L251.98,192.45L252.43,119.13L252.69,146.14L252.71,153.86L252.96,192.45L253.45,119.13L253.48,130.7L253.67,111.41L254.06,169.29L254.23,146.14L254.25,177.01L254.8,196.31L255,99.83L255.01,153.86L255.52,88.28L255.64,211.72L255.69,134.57L255.8,92.14L255.96,65.13L256.49,184.73L256.57,165.43L256.59,134.57L256.68,177.01L256.73,130.71L257.36,157.72L257.38,157.72L258.03,126.85L258.05,173.15L258.08,146.14L258.08,126.85L258.13,173.15L258.52,119.13L258.83,153.86L258.86,157.72L258.94,173.15L259.08,115.27L259.46,146.14L259.54,142.28L259.55,165.43L260.24,95.98L260.26,157.72L260.3,157.72L260.42,84.41L260.86,196.3L260.93,169.29L261.01,173.15L261.32,184.72L261.54,126.85L261.76,146.14L261.79,161.58L262.07,53.54L262.39,211.73L262.54,126.85L262.57,88.27L263.34,192.45L263.34,180.87L263.35,107.55L263.82,80.54L264,200.17L264.09,138.42L264.12,161.58L264.14,169.3L264.21,103.69L264.87,146.14L264.89,138.42L264.92,184.73L265.06,115.27L265.63,169.3L265.65,119.13L266.17,180.87L266.37,157.72L266.46,138.42L266.62,196.31L266.64,99.83L267.2,146.14L267.27,130.7L267.73,173.16L267.95,122.98L267.97,153.86L268,115.26L268.16,134.56L268.27,115.26L268.29,184.74L268.54,192.46L268.86,95.96L269,192.46L269.05,200.18L269.23,88.23L269.73,200.19L269.8,177.02L269.84,169.3L269.88,76.65L269.91,223.35L270.59,146.14L270.61,180.88L270.61,184.74L270.73,119.12L271.36,153.86L271.37,161.58L271.79,188.61L271.83,115.25L272.12,161.58L272.12,165.44L272.64,200.18L272.73,107.54L272.86,173.16L272.95,173.16L273.58,200.18L273.67,88.24L273.68,169.3L273.71,157.72L274.23,192.46L274.27,107.54L274.46,138.42L274.5,157.72L274.53,111.4L274.56,188.6L275.2,138.42L275.27,161.58L275.42,130.7L275.66,177.02L275.99,153.86L276.02,173.16L276.04,180.88L276.76,119.12L276.76,126.84L276.8,180.88L276.9,111.4L277.47,196.32L277.54,146.14L277.56,146.14L278.11,207.91L278.12,107.54L278.26,119.12L278.29,177.02L278.33,111.4L278.36,188.6L279.01,153.86L279.01,173.16L279.1,184.73L279.13,169.3L279.24,153.86L279.53,107.54L279.85,177.02L279.89,134.56L279.91,134.56L280.28,115.26L280.35,196.32L280.57,177.02L280.69,134.56L281.05,180.87L281.06,119.13L281.4,130.7L281.45,165.44L281.94,72.81L282.11,188.6L282.14,146.14L282.2,211.75L282.67,122.98L283.05,165.44L283.05,180.87L283.56,92.12L283.56,254.16L283.8,180.87L283.82,130.71L284.17,180.87L284.17,99.84L284.6,153.86L284.61,153.86L285.1,192.44L285.37,107.55L285.37,107.55L285.46,126.85L285.68,169.29L286.25,157.72L286.27,142.28L286.52,184.72L286.54,115.28L287.03,157.72L287.04,142.28L287.08,107.56L287.16,196.29L287.44,165.43L287.45,134.57L288.05,15L288.07,227.15L288.19,138.43L288.21,138.43L288.39,111.42L288.58,173.15L288.82,134.57L288.86,134.57L288.93,192.43L289.05,96L289.6,146.14L289.64,161.57L289.93,177L290.18,122.99L290.39,142.28L290.41,157.72L290.94,188.58L290.99,111.42L291.14,138.43L291.21,161.57L291.55,115.28L291.78,180.86L291.94,153.86L291.97,142.28L292.53,177L292.67,111.42L292.73,153.86L293.16,111.43L293.31,184.72L293.5,146.14L293.51,146.14L293.91,177L293.91,115.28L294.19,161.57L294.2,138.43L294.64,107.57L294.69,196.29L294.92,173.14L295.06,177L295.46,122.99L295.65,180.86L295.82,134.57L295.84,134.57L296.2,184.72L296.43,107.56L296.46,138.43L296.51,153.86L296.57,173.15L296.6,122.99L297.24,169.29L297.28,130.71L297.51,119.13L297.71,177.01L298.02,146.14L298.03,119.13L298.42,115.28L298.45,192.44L298.76,146.14L298.84,142.28L298.9,122.99L299.55,177.01L299.59,161.58L299.6,161.58L299.67,196.3L299.83,99.84L300.28,153.86L300.29,146.14L300.37,184.72L300.45,111.42L301.02,146.14L301.05,138.43L301.12,123L301.13,177L301.13,126.85L301.87,153.86L301.89,146.14L302.51,188.58L302.53,111.42L302.61,153.86L302.61,192.44L302.62,99.84L303.31,122.99L303.36,188.58L304.08,84.4L304.11,215.6L304.14,157.72L304.23,219.46L304.23,80.54L304.85,153.86L304.91,146.14L305.23,119.13L305.23,196.3L305.66,130.71L305.67,146.14L306.09,192.45L306.29,119.13L306.4,157.72L306.46,146.14L306.64,180.87L306.71,122.99L307.18,153.86L307.23,126.84L307.56,103.68L307.67,196.32L307.89,165.44L307.9,134.56L307.9,115.26L308.06,184.74L308.63,153.86L308.66,146.14L308.84,184.74L308.96,107.54L309.34,119.12L309.44,173.16L309.52,122.98L309.66,188.6L310.14,138.42L310.16,157.72L310.46,126.84L310.82,173.16L310.85,165.44L310.9,165.44L311.45,184.74L311.56,119.12L311.64,138.42L311.66,169.3L311.81,184.74L312.23,122.98L312.41,134.56L312.48,169.3L312.89,107.54L312.94,192.46L313.27,134.56L313.28,165.44L313.72,211.78L313.94,57.34L314.02,165.44L314.1,173.16L314.11,115.25L314.4,192.47L314.79,165.44L314.86,169.3L314.86,173.16L315.05,119.12L315.61,161.58L315.62,157.72L315.91,111.4L316.11,207.9L316.39,134.56L316.42,153.86L316.45,169.3L317.06,130.7L317.13,169.3L317.25,153.86L317.4,173.16L317.96,126.84L318,161.58L318.36,169.3L318.64,130.7L318.69,161.58L318.69,169.3L318.74,99.81L318.76,200.19L319.41,173.16L319.45,173.16L319.45,177.02L319.56,126.84L320.2,134.56L320.21,153.86L320.84,192.46L320.87,119.12L320.94,153.86L320.98,146.14L321.17,130.7L321.55,180.87L321.68,157.72L321.69,134.56L321.69,115.27L322.09,188.6L322.43,177.02L322.47,146.14L322.59,184.74L322.84,115.26L322.85,180.88L322.99,103.68L323.46,188.6L323.59,122.98L323.61,157.72L324.25,119.12L324.33,180.88L324.42,153.86L324.9,126.84L325.06,177.02L325.11,165.44L325.19,134.56L325.57,126.84L325.58,173.16L325.95,146.14L325.95,138.42L326.05,126.84L326.76,192.47L326.76,157.72L327.15,207.92L327.4,95.94L327.51,146.14L327.55,146.14L327.74,88.23L327.91,196.32L328.3,153.86L328.34,142.28L328.54,134.56L328.57,200.19L328.57,211.77L328.62,223.35L328.67,68.93L328.94,207.91L329.01,134.56L329.43,115.25L329.61,177.02L329.76,157.72L329.76,138.42L329.83,115.25L330.27,180.89L330.49,146.14L330.56,161.58L331.03,126.84L331.16,184.75L331.29,153.86L331.33,146.14L331.37,111.39L331.66,180.89L332.07,146.14L332.14,153.86L332.41,192.47L332.48,111.39L332.89,169.3L332.91,169.3L333.04,111.39L333.11,192.47L333.66,122.98L333.7,157.72L333.84,115.26L334.22,180.87L334.43,146.14L334.49,134.56L334.54,99.83L334.58,200.17L335.24,153.86L335.26,146.14L335.57,99.82L335.58,188.6L336.01,157.72L336.04,161.58L336.21,196.32L336.51,119.12L336.77,126.84L336.83,134.56L337.03,122.98L337.27,204.03L337.59,173.16L337.59,126.84L337.67,180.88L337.8,119.12L338.37,153.86L338.37,146.14L338.69,115.27L338.71,200.17L339.04,146.14L339.11,134.56L339.2,126.84L339.23,173.16L339.4,184.74L339.69,107.54L339.93,146.14L339.97,157.72L339.97,173.16L340.25,115.26L340.72,122.98L340.75,146.14L341.33,126.84L341.33,169.29L341.42,130.71L341.42,111.41L341.44,99.84L341.72,169.3L342.11,138.42L342.14,161.58L342.54,184.73L342.87,95.98L342.89,153.86L342.91,188.59L343.33,103.69L343.34,196.31L343.64,157.72L343.67,153.86L343.96,119.13L344.33,192.45L344.42,146.14L344.43,122.98L344.75,188.59L344.77,103.69L345.22,153.86L345.25,134.57L345.48,99.82L345.64,184.74L346,142.28L346.03,130.71L346.03,107.55L346.12,192.45L346.78,153.86L346.79,146.14L346.95,177.01L346.99,103.7L347.52,161.58L347.55,161.58L347.97,122.99L348.15,177.01L348.3,165.43L348.33,134.57L348.4,200.16L348.41,99.84L349.08,142.28L349.1,142.28L349.18,138.42L349.23,165.44L349.25,180.87L349.72,119.13L350,161.58L350.02,146.14L350.42,184.74L350.45,103.69L350.6,153.86L350.6,173.16L350.82,103.69L350.91,188.6L351.32,153.86L351.37,142.28L351.7,169.29L351.81,107.56L352.12,146.14L352.13,153.86L352.22,138.43L352.35,161.57L352.37,146.14L352.37,119.13L352.37,115.28L352.85,184.72L353.12,153.86L353.15,153.86L353.47,177.01L353.82,122.99L353.9,134.57L353.95,138.43L354.15,184.73L354.68,119.13L354.68,130.71L354.71,142.28L354.75,119.13L355.36,169.3L355.46,130.7L355.52,157.72L355.56,122.99L355.99,169.3L356.27,134.56L356.3,165.44L356.41,184.73L356.54,103.69L357.05,153.86L357.08,122.99L357.1,180.87L357.8,142.28L357.85,153.86L358.51,84.39L358.52,227.19L358.59,146.14L358.64,142.28L358.65,227.19L358.66,72.81L359.38,130.7L359.42,153.86L359.74,177.01L360.05,103.69L360.09,103.69L360.16,103.69L360.49,173.15L360.93,153.86L360.94,146.14L361.22,107.54L361.33,188.6L361.69,157.72L361.7,138.42L361.85,177.02L362.1,115.26L362.44,157.72L362.48,161.58L362.53,134.56L362.85,165.44L362.94,138.42L362.94,126.84L363.11,173.16L363.67,134.56L363.71,134.56L364.05,119.11L364.19,184.74L364.23,134.56L364.24,184.74L364.68,188.61L364.85,119.12L364.98,122.97L365.02,161.58L365.12,207.92L365.16,92.08L365.7,138.42L365.8,138.42L366.23,115.25L366.25,219.51L366.53,161.58L366.56,153.86L366.88,173.17L367.16,126.83L367.33,130.69L367.35,169.31L367.35,122.97L368.03,184.75L368.1,146.14L368.12,146.14L368.14,130.69L368.41,184.75L368.85,153.86L368.9,146.14L369.54,107.53L369.56,192.47L369.64,188.61L369.66,111.39L369.84,188.61L370.39,146.14L370.42,138.42L370.47,192.48L370.47,107.52L371.15,142.28L371.16,142.28L371.56,192.48L371.73,115.23L371.91,115.23L371.93,157.73L372.01,119.1L372.04,204.07L372.68,146.14L372.75,146.14L373.24,99.81L373.25,204.05L373.48,169.31L373.5,130.69L373.57,184.75L374.26,165.44L374.29,173.17L374.58,119.11L374.6,188.61L374.95,153.86L375.05,146.14L375.44,92.07L375.47,207.93L375.77,134.55L375.79,88.21L376.06,200.19L376.56,153.86L376.58,153.86L376.83,119.11L376.9,196.34L377.13,177.03L377.2,103.66L377.2,196.34L377.94,142.28L377.96,146.14L378.31,200.2L378.42,115.25L378.69,161.58L378.72,161.58L378.87,111.39L378.9,184.75L379.18,161.58L379.19,180.89L379.88,192.48L379.96,99.8L379.99,165.44L379.99,184.75L380.09,134.55L380.1,188.61L380.16,146.14L380.16,207.92L380.39,107.53L380.98,130.7L381.09,177.02L381.38,88.24L381.41,200.18L381.85,142.28L381.89,169.3L382.17,122.97L382.42,188.61L382.59,153.86L382.65,146.14L382.87,115.25L382.88,196.33L383.35,161.58L383.36,130.69L383.8,196.35L384.05,103.65L384.09,142.28L384.09,122.97L384.31,111.39L384.38,196.33L384.94,153.86L384.99,153.86L385.25,169.3L385.72,130.7L385.72,161.58L385.77,157.72L386.18,192.47L386.24,107.53L386.5,165.44L386.5,146.14L387.03,107.53L387.11,200.2L387.24,173.17L387.26,173.17L387.8,177.03L387.86,119.11L387.99,126.83L388.05,157.72L388.43,126.83L388.53,188.61L388.77,142.28L388.81,157.72L389.28,88.21L389.54,200.2L389.57,107.52L389.69,76.63L390.23,177.03L390.3,157.72L390.37,142.28L390.43,180.9L390.57,146.14L390.57,126.83L390.76,122.97L391.28,200.2L391.34,146.14L391.34,99.8L391.49,184.75L392.13,157.72L392.15,153.86L392.19,165.45L392.67,126.83L392.89,153.86L392.92,161.58L392.94,126.83L393.21,165.45L393.67,138.42L393.68,142.28L393.68,173.16L393.69,122.97L394.38,142.28L394.47,157.72L394.94,200.19L395,99.81L395.22,119.11L395.26,107.53L395.28,196.33L396.01,173.16L396.03,177.03L396.32,84.36L396.64,196.34L396.71,196.34L396.81,122.97L397.01,169.31L397.23,107.52L397.56,157.72L397.57,146.14L397.59,173.17L397.65,126.83L398.26,126.83L398.35,161.59L398.64,115.24L398.96,192.49L399,157.73" style="vector-effect: non-scaling-stroke; fill: none; stroke: rgb(239, 85, 59); stroke-opacity: 1; stroke-width: 2px; opacity: 1;"/></g><g class="points"/><g class="text"/></g><g class="trace scatter trace64219f" style="stroke-miterlimit: 2; opacity: 1;"><g class="fills"/><g class="errorbars"/><g class="lines"><path class="js-line" d="M0,107.58L0.19,34.28L0.75,146.14L0.79,142.29L0.81,142.29L0.91,115.29L0.95,146.14L1.48,142.29L1.57,138.43L1.6,123.01L1.69,146.14L2.26,138.43L2.36,138.43L2.46,146.14L2.94,119.15L3.1,138.43L3.12,138.43L3.22,146.14L3.3,130.72L3.57,142.29L3.61,146.14L4.13,103.73L4.31,146.14L4.36,146.14L4.8,146.14L4.84,142.29L4.91,146.14L5.18,126.87L5.58,146.14L5.61,142.29L5.68,115.3L5.69,146.15L6.25,138.43L6.41,142.29L6.66,146.14L6.82,123.02L6.86,119.16L7.36,146.15L7.56,142.29L7.68,134.58L7.69,111.45L7.74,146.15L8.36,138.44L8.57,115.31L9.31,146.15L9.31,130.73L9.33,130.73L9.33,119.16L9.72,146.15L10.06,146.15L10.09,146.15L10.41,126.87L10.84,146.15L10.86,138.44L10.97,146.15L11.17,96.03L11.61,146.15L11.63,146.15L11.98,80.61L12.36,138.43L12.48,138.44L12.81,146.15L13,119.16L13.12,134.58L13.23,134.58L13.26,115.31L13.45,146.15L13.94,126.87L14,111.45L14.72,146.15L14.72,123.02L14.77,138.44L15.15,130.73L15.5,146.15L15.5,138.44L15.55,138.44L16.12,146.15L16.22,115.31L16.29,126.88L16.5,99.9L16.54,146.15L16.96,130.73L16.99,146.15L17.4,107.61L17.72,138.44L17.75,138.44L17.87,146.15L18.17,123.02L18.49,138.44L18.51,138.44L18.51,146.15L18.79,111.46L19.24,134.58L19.29,134.58L19.4,111.46L19.43,142.29L19.56,126.87L19.57,146.15L20.36,115.31L20.39,142.29L20.46,119.17L20.46,146.15L21.13,130.73L21.18,134.58L21.45,123.02L21.94,146.15L21.94,142.29L21.94,138.44L22.05,130.73L22.42,146.15L22.44,134.58L22.45,130.73L23.03,126.87L23.13,146.15L23.15,126.87L23.16,126.87L23.16,146.15L23.91,138.44L23.95,146.15L24.44,123.02L24.7,142.29L24.73,142.29L24.81,146.15L25.46,107.6L25.6,146.15L26.01,111.46L26.37,126.88L26.4,126.88L27.03,123.02L27.12,146.15L27.21,123.02L27.21,115.31L27.28,146.15L27.94,146.15L27.97,142.29L28.35,115.31L28.52,146.15L28.57,126.88L28.61,126.88L29.05,107.61L29.35,146.15L29.38,138.44L29.38,130.73L29.46,146.15L29.88,88.31L30.14,138.44L30.16,130.73L30.38,96.04L30.4,146.15L30.87,130.73L30.94,146.15L31.09,107.6L31.68,115.31L31.71,134.58L31.74,146.15L32.3,103.75L32.44,115.31L32.48,115.31L33.04,146.15L33.09,107.6L33.16,138.44L33.19,103.74L33.45,84.47L33.99,146.14L34.02,146.14L34.33,119.16L34.37,146.15L34.79,126.87L34.81,146.15L35.35,103.74L35.35,111.45L35.36,146.14L35.45,99.89L35.71,146.15L36.09,142.29L36.11,146.15L36.74,103.74L36.78,126.87L36.88,146.15L37.61,115.31L37.64,126.87L38.35,146.15L38.39,134.58L38.46,130.73L38.56,146.15L38.89,107.6L39.02,138.44L39.04,138.44L39.1,146.14L39.38,111.45L39.79,142.29L39.81,142.29L39.97,146.15L40.01,115.31L40.46,138.43L40.46,130.72L40.66,107.6L40.88,146.15L41.07,134.58L41.1,146.15L41.1,111.45L41.84,119.17L41.88,142.29L41.95,146.15L42.62,107.6L42.63,107.6L42.68,130.73L43.24,111.45L43.31,146.15L43.38,138.44L43.38,123.02L43.45,107.6L43.52,146.15L44.15,146.14L44.17,146.14L44.61,123.01L44.89,130.72L44.96,134.58L45.31,119.16L45.47,146.14L45.57,126.87L45.57,115.3L46.17,96.03L46.32,146.15L46.37,146.15L46.78,146.15L46.78,142.29L46.92,146.15L47.38,103.75L47.52,119.17L47.54,146.15L47.72,119.16L48.34,123.01L48.35,138.44L48.74,146.15L48.77,111.45L49.07,130.73L49.16,142.29L49.25,146.15L49.9,96.04L49.91,146.15L50.56,111.46L50.69,138.44L50.71,142.29L50.86,146.15L51.27,119.16L51.43,138.44L51.51,146.15L52.28,99.87L52.33,126.86L52.39,123.01L52.44,146.14L52.94,99.87L53.13,130.72L53.14,130.72L53.15,107.59L53.37,146.14L53.89,142.29L53.9,146.14L54.48,115.29L54.49,146.14L54.73,88.3L55.22,142.29L55.28,142.29L55.28,146.14L55.4,103.72L56.02,119.15L56.06,119.15L56.14,146.14L56.56,111.44L56.8,142.29L56.85,142.29L57.01,126.86L57.33,146.14L57.34,126.86L57.38,146.14L57.62,111.43L58.07,134.57L58.1,134.57L58.61,146.14L58.62,111.43L58.78,138.43L58.8,123L58.89,99.86L59.48,146.14L59.53,142.29L59.57,146.14L59.61,126.86L60.28,130.72L60.29,146.14L61.01,96L61.05,126.86L61.09,138.43L61.13,84.43L61.48,146.14L61.77,130.72L61.8,146.14L62.42,99.87L62.57,115.29L62.59,142.29L62.59,146.14L62.62,111.44L63.33,146.14L63.37,138.43L63.55,146.14L63.91,119.14L64.08,134.57L64.12,142.29L64.18,146.14L64.82,123L64.84,146.14L64.87,146.14L65.66,68.98L65.67,119.14L65.68,130.71L65.68,103.71L65.71,146.14L66.42,138.43L66.44,126.86L66.46,146.14L66.71,126.85L67.14,138.43L67.2,146.14L67.53,123L67.94,126.85L67.96,146.14L68.1,107.56L68.64,146.14L68.77,146.14L68.85,107.56L69.49,126.85L69.49,146.14L69.75,111.42L70.25,138.43L70.26,146.14L70.47,88.27L71.01,142.28L71.03,138.43L71.15,107.56L71.69,146.14L71.76,123L71.76,146.14L72.32,123L72.51,142.29L72.53,142.29L72.77,146.14L73.14,88.29L73.25,138.43L73.31,138.43L73.64,96L73.99,146.14L74.03,134.57L74.06,146.14L74.42,119.14L74.48,134.57L74.49,146.14L75.2,123L75.28,138.43L75.33,138.43L75.37,146.14L75.62,115.29L75.99,142.29L76,146.14L76.22,115.28L76.7,142.28L76.77,146.14L77.05,126.85L77.5,142.29L77.54,138.43L78.08,123L78.28,146.14L78.28,130.71L79.02,146.14L79.03,130.71L79.04,111.43L79.09,146.14L79.77,134.57L79.81,142.28L79.91,146.14L80.54,107.56L80.59,134.57L80.65,146.14L81.22,107.56L81.29,146.14L81.34,146.14L81.44,103.7L82.04,142.29L82.08,142.29L82.08,146.14L82.22,103.71L82.82,107.57L82.85,146.14L83.55,111.43L83.63,146.14L83.71,107.58L84.4,130.72L84.46,130.72L84.47,111.43L84.61,146.14L85.21,138.43L85.22,142.29L85.25,146.14L85.72,107.57L85.97,119.15L86,142.29L86.11,146.14L86.38,65.16L86.75,123L86.83,123L87.26,76.7L87.54,146.14L87.57,130.72L87.66,146.14L87.94,111.42L87.99,138.43L88.02,142.28L88.32,146.14L88.6,103.71L88.77,134.57L88.82,126.85L88.9,146.14L89.46,107.57L89.54,142.28L89.6,134.57L90.1,103.71L90.31,146.14L90.32,130.71L90.35,130.71L90.87,80.57L91.09,146.14L91.1,138.43L91.11,80.57L91.11,61.29L91.59,146.14L91.85,130.72L91.87,146.14L91.88,72.88L92.6,138.43L92.7,138.43L92.79,146.14L92.95,96.01L93.44,115.29L93.48,146.14L93.93,99.87L93.97,142.29L93.97,146.14L94.25,96.01L94.72,146.14L94.78,130.72L95.27,111.44L95.54,146.14L95.54,146.14L95.56,146.14L95.97,115.29L96.31,134.57L96.36,134.57L96.49,146.14L97.01,123.01L97.02,146.14L97.04,96.01L97.71,142.29L97.77,142.29L98.29,115.29L98.54,146.14L98.54,142.29L98.66,146.14L98.82,123.01L99.29,142.29L99.36,142.29L99.36,146.14L100.09,119.16L100.13,146.14L100.54,107.59L100.87,130.72L100.96,130.72L101.15,107.58L101.16,146.14L101.71,130.72L101.72,134.58L101.74,146.14L102.44,103.73L102.45,146.14L102.48,130.72L102.6,146.14L102.73,84.45L103.08,130.72L103.1,138.43L103.23,126.86L103.68,146.14L103.7,142.29L103.7,126.87L104.34,88.31L104.45,146.14L104.46,126.87L104.58,103.73L104.95,146.15L105.18,142.29L105.2,142.29L105.32,146.14L105.49,99.88L105.95,123.01L105.97,123.01L106.12,119.16L106.23,146.15L106.72,134.58L106.77,126.87L107.07,107.59L107.49,146.14L107.55,142.29L107.63,123.01L107.63,115.3L107.65,146.14L108.38,142.29L108.41,142.29L108.7,115.3L108.8,146.15L109.06,134.58L109.07,123.01L109.07,107.59L109.11,146.14L109.8,115.3L109.83,146.14L109.9,111.45L110.58,138.43L110.59,138.43L110.92,84.46L111.17,146.14L111.24,119.15L111.27,107.59L111.7,146.14L111.99,88.29L112.04,134.58L112.09,138.43L112.66,107.58L112.74,146.14L112.8,142.29L112.81,126.86L112.86,146.14L113.28,107.58L113.43,142.29L113.45,146.14L113.96,107.58L114.17,146.14L114.22,146.14L114.42,115.29L114.93,138.43L114.98,146.14L115.39,103.73L115.74,138.43L115.74,142.29L115.96,146.14L116.28,99.87L116.48,111.45L116.53,99.88L117.15,146.14L117.27,130.72L117.3,146.14L117.97,111.44L118.04,130.72L118.06,138.43L118.47,130.72L118.48,146.14L118.5,111.44L119.02,103.73L119.08,146.14L119.21,138.43L119.27,123.01L120.04,146.14L120.04,142.29L120.08,126.86L120.73,92.15L120.82,146.14L120.83,142.29L120.87,142.29L120.95,146.14L121.05,111.43L121.43,146.14L121.46,146.14L121.52,123L122.21,134.57L122.22,142.29L122.27,99.87L122.45,146.14L122.97,123.01L123.07,138.43L123.09,115.29L123.09,146.14L123.8,142.29L123.84,130.72L123.92,146.14L124.52,115.28L124.58,134.57L124.59,138.43L125.18,103.71L125.24,146.14L125.31,134.57L125.33,134.57L125.55,122.99L125.83,146.14L125.89,130.71L125.9,111.43L126.14,146.14L126.64,146.14L126.66,138.43L127.08,126.86L127.35,146.14L127.39,138.43L127.42,138.43L127.64,146.14L127.97,126.85L128.18,130.71L128.23,146.14L128.91,95.99L129.02,142.28L129.11,146.14L129.31,126.85L129.75,146.14L129.82,146.14L130.53,111.43L130.64,142.29L130.75,146.14L131.36,92.14L131.38,130.71L131.45,134.57L131.66,146.14L131.72,92.14L132.11,111.43L132.14,142.29L132.18,96L132.22,146.14L132.79,115.28L132.9,130.71L132.95,146.14L132.98,92.14L133.63,142.29L133.67,142.29L133.78,146.14L134.29,107.57L134.48,111.42L134.48,123L134.56,88.28L135.08,146.14L135.23,138.43L135.26,142.29L135.3,146.14L135.81,119.14L135.97,146.14L136.01,146.14L136.13,115.28L136.75,146.14L136.77,146.14L136.81,126.85L137.53,138.43L137.58,138.43L137.75,146.14L138.11,122.99L138.18,134.57L138.31,142.28L138.37,146.14L138.75,111.42L138.99,134.57L139.07,146.14L139.16,76.69L139.78,122.99L139.8,142.28L139.96,115.27L139.97,146.14L140.5,138.43L140.56,138.43L140.64,146.14L140.9,126.85L141.29,134.57L141.32,134.57L141.55,119.13L141.7,146.14L141.73,138.42L141.76,122.99L142.35,146.14L142.53,134.57L142.53,122.99L142.53,146.14L142.55,103.7L143.24,146.14L143.3,134.57L143.66,103.7L144.06,146.14L144.06,142.28L144.13,146.14L144.3,134.57L144.52,138.42L144.55,84.4L145.31,146.14L145.32,138.42L145.36,95.97L145.5,146.14L146.07,134.57L146.15,142.28L146.25,146.14L146.5,115.27L146.88,142.28L146.92,134.57L146.97,146.14L147.29,119.13L147.64,146.14L147.7,122.99L147.92,95.98L148.31,146.14L148.47,138.42L148.48,138.42L148.91,146.14L149.05,99.84L149.17,134.57L149.25,142.28L149.73,126.85L149.87,146.14L149.88,138.42L149.88,126.85L150.1,122.99L150.68,146.14L150.7,122.99L150.74,111.41L151.47,146.14L151.47,134.57L151.47,130.71L151.91,103.7L152.13,146.14L152.18,146.14L152.91,115.28L152.93,115.28L152.97,123L153.51,103.7L153.72,146.14L153.72,146.14L153.79,138.42L153.87,146.14L154.48,122.99L154.49,146.14L154.52,146.14L154.94,111.41L155.19,130.71L155.38,134.56L155.57,122.99L155.9,146.14L156.12,134.57L156.12,122.99L156.48,103.71L156.84,146.14L156.88,142.28L156.92,130.71L157.09,146.14L157.22,68.97L157.67,103.71L157.67,138.43L157.86,146.14L158.24,88.25L158.45,111.41L158.59,138.42L158.65,99.84L158.92,146.14L159.34,134.57L159.36,134.57L159.4,115.28L160.09,146.14L160.09,146.14L160.15,146.14L160.83,119.13L160.9,138.43L160.92,146.14L160.97,119.14L161.67,146.14L161.73,146.14L161.87,119.13L162.49,130.71L162.49,142.28L162.52,146.14L163.06,115.27L163.21,122.99L163.3,142.28L163.41,111.41L163.44,146.14L164.01,142.28L164.11,138.42L164.46,146.14L164.61,122.99L164.64,122.99L164.86,107.56L165.4,146.14L165.46,146.14L166.14,119.14L166.23,130.71L166.25,146.14L166.45,92.14L166.98,146.14L167.01,138.43L167.06,134.57L167.31,146.14L167.75,138.43L167.75,146.14L168.01,96L168.5,142.29L168.53,142.29L168.6,146.14L168.81,111.43L169.25,142.29L169.28,146.14L169.71,103.71L169.81,142.29L169.92,103.71L170.18,146.14L170.56,134.57L170.57,134.57L170.78,146.14L170.84,126.86L170.87,126.86L170.87,123L170.87,111.43L171.02,146.14L171.62,134.57L171.69,134.57L172.08,146.14L172.19,130.71L172.33,142.28L172.39,142.28L172.77,146.14L173,57.4L173.14,95.99L173.16,95.99L173.26,84.41L173.89,146.14L173.95,146.14L174.68,68.98L174.71,130.71L174.71,146.14L174.86,146.14L174.86,126.86L175.03,138.43L175.04,88.27L175.04,146.14L175.54,88.26L175.78,146.14L175.84,146.14L176.42,115.27L176.51,119.13L176.51,146.14L177.4,111.42L177.45,126.85L177.45,134.57L177.95,119.13L177.98,146.14L178.11,138.43L178.11,122.99L178.18,146.14L178.52,115.27L178.7,130.71L178.8,146.14L179.18,57.38L179.55,115.27L179.57,130.7L179.88,99.82L180.27,146.14L180.28,126.84L180.31,126.84L180.65,146.14L181.04,103.68L181.13,138.42L181.22,99.82L181.83,146.14L181.87,142.28L181.9,142.28L182.23,126.84L182.59,146.14L182.59,134.56L182.59,126.84L183.26,146.14L183.26,115.26L183.29,142.28L183.34,115.26L184.1,146.14L184.13,146.14L184.41,119.12L184.88,146.14L184.9,142.28L184.95,146.14L185.7,107.54L185.71,130.7L185.72,142.28L185.72,115.26L185.78,146.14L186.46,138.42L186.56,146.14L186.81,130.7L187.28,146.14L187.33,142.28L187.41,146.14L187.64,103.69L188.08,138.42L188.11,142.28L188.64,126.84L188.83,146.14L188.84,138.42L188.85,134.56L188.85,146.14L188.92,99.83L189.54,138.42L189.64,126.84L189.64,146.14L189.66,111.41L190.38,126.84L190.4,130.7L191.02,122.98L191.16,146.14L191.2,146.14L191.33,126.84L191.33,126.84L191.34,107.55L191.38,146.14L191.7,99.83L192.09,107.55L192.1,146.14L192.26,68.96L192.83,146.14L192.85,146.14L193.55,126.84L193.59,126.85L193.7,99.83L194.48,146.14L194.48,146.14L194.52,130.7L194.57,146.14L194.67,107.54L195.08,134.56L195.15,142.28L195.35,119.12L195.74,146.14L195.76,134.56L195.89,130.7L195.9,107.54L196.11,146.14L196.64,146.14L196.65,146.14L197.32,111.4L197.43,122.98L198.12,146.14L198.22,142.28L198.23,134.56L198.78,146.14L198.88,111.4L198.89,95.96L199.02,146.14L199.6,103.69L199.65,103.69L199.65,99.83L199.8,146.14L200.4,146.14L200.44,146.14L200.66,119.12L201.26,130.7L201.27,142.28L201.65,146.14L201.69,111.41L201.69,130.7L201.83,115.27L201.85,146.14L201.96,103.69L202.58,142.28L202.59,142.28L202.93,126.84L203.07,146.14L203.24,138.42L203.27,134.56L203.36,146.14L203.95,92.12L203.97,146.14L204.08,92.12L204.74,130.71L204.74,146.14L205.08,80.54L205.49,119.14L205.5,119.14L206.28,146.14L206.35,130.71L206.43,88.26L206.87,146.14L207.02,122.99L207.2,146.14L207.9,88.27L207.92,138.42L207.94,142.28L208.19,146.14L208.74,126.85L208.74,126.85L208.76,126.85L208.77,146.14L209.38,95.97L209.49,142.28L209.53,115.27L209.89,88.25L210.24,146.14L210.25,103.69L210.31,122.98L210.37,146.14L210.83,107.55L211.02,134.56L211.05,146.14L211.57,122.98L211.73,126.84L211.74,146.14L212.48,103.69L212.52,142.28L212.57,146.14L212.64,107.55L213.25,146.14L213.37,138.42L213.44,115.26L214.14,146.14L214.14,142.28L214.15,142.28L214.25,146.14L214.93,122.98L214.94,146.14L215.64,122.98L215.68,142.28L215.73,142.28L215.73,146.14L216.43,103.69L216.48,146.14L216.5,103.69L216.5,146.14L216.57,95.97L217.23,142.28L217.26,146.14L217.67,119.12L217.71,146.14L217.73,80.51L218.42,146.14L218.48,122.98L218.51,134.56L218.59,115.26L219.27,146.14L219.27,146.14L219.28,146.14L219.69,84.36L220.09,111.39L220.2,146.14L220.4,146.14L220.41,138.42L220.77,88.23L221.11,146.14L221.13,130.7L221.62,107.53L221.67,146.14L221.84,126.83L221.84,122.97L222.54,146.14L222.58,126.83L222.61,126.83L223.2,107.53L223.4,146.14L223.42,130.69L223.66,126.83L224.17,146.14L224.17,126.83L224.31,138.42L224.38,119.11L224.38,134.56L224.42,103.67L224.66,84.36L224.73,146.14L225.12,115.25L225.18,134.55L225.27,146.14L225.29,99.8L225.57,138.42L225.61,146.14L226.36,99.81L226.36,115.25L226.39,146.14L226.42,99.81L227.11,142.28L227.15,130.69L227.4,122.97L227.9,146.14L227.9,146.14L227.92,130.69L228.1,146.14L228.24,88.22L228.67,130.69L228.68,130.69L229.36,146.14L229.37,111.39L229.43,130.69L229.48,130.69L229.49,115.25L229.54,146.14L230.21,134.56L230.26,119.11L230.98,146.14L231.02,134.56L231.08,146.14L231.77,80.51L231.77,80.51L231.82,146.14L232.32,111.39L232.47,134.56L232.55,142.28L232.81,126.84L232.91,146.14L232.96,130.7L232.96,126.84L233.22,146.14L233.46,115.26L233.68,119.12L233.7,119.12L234.35,142.28L234.43,115.26L234.43,115.26L234.44,115.26L235.07,111.4L235.15,146.14L235.17,142.28L235.21,111.4L235.79,107.54L235.85,146.14L235.99,138.42L236,138.42L236.21,111.4L236.65,146.14L236.65,130.7L236.65,111.4L236.71,95.96L237.42,146.14L237.45,111.4L238.22,146.14L238.25,146.14L238.65,115.26L238.76,146.14L239.07,99.82L239.47,122.98L239.55,142.28L239.79,146.14L239.83,111.41L240.3,138.42L240.32,130.7L240.33,119.13L240.93,146.14L241.07,130.7L241.08,130.7L241.24,146.14L241.56,111.41L241.83,122.99L241.86,122.99L241.89,146.14L242.1,111.41L242.48,142.28L242.51,146.14L243.32,119.12L243.44,122.98L244,146.14L244.1,95.97L244.15,142.28L244.2,115.27L244.33,80.53L244.96,146.14L244.96,146.14L245,146.14L245.32,111.41L245.71,138.42L245.78,142.28L245.85,107.55L245.85,88.25L246.58,146.14L246.63,119.13L247.13,146.14L247.41,138.42L247.42,138.42L247.43,146.14L247.65,88.26L248.14,142.28L248.19,130.71L248.19,146.14L248.42,45.84L248.91,146.14L248.96,146.14L249.18,123L249.54,142.28L249.63,142.28L249.79,122.99L250.39,146.14L250.39,142.28L250.42,146.14L251.11,107.55L251.11,146.14L251.71,99.83L251.9,122.99L251.91,142.28L251.98,107.55L252.06,146.14L252.65,146.14L252.66,146.14L252.96,107.55L253.26,130.71L253.28,142.28L253.67,111.41L253.67,146.14L254.06,130.71L254.07,138.42L254.11,146.14L254.8,103.69L254.8,146.14L254.88,126.85L255.01,146.14L255.52,88.28L255.63,142.28L255.64,134.57L255.96,65.13L256.14,146.14L256.35,142.28L256.4,146.14L256.49,115.27L257.13,138.42L257.18,138.42L257.22,130.71L257.55,146.14L257.91,138.42L257.94,146.14L258.52,119.13L258.66,134.57L258.71,130.71L259.08,115.27L259.46,146.14L259.54,142.28L259.56,146.14L260.24,95.98L260.26,142.28L260.3,142.28L260.42,84.41L260.5,146.14L260.93,130.71L261.01,126.85L261.32,115.28L261.76,146.14L261.79,138.42L261.99,146.14L262.07,68.97L262.07,53.54L262.86,146.14L262.87,138.42L262.94,146.14L263.2,103.69L263.63,122.99L263.66,119.13L263.82,80.54L264.09,146.14L264.41,138.42L264.45,142.28L264.62,130.71L264.89,146.14L264.89,146.14L264.89,119.13L264.92,115.27L265.14,146.14L265.63,130.7L265.65,119.13L266.12,146.14L266.37,142.28L266.46,138.42L266.64,99.83L267.06,146.14L267.19,138.42L267.19,130.7L267.19,119.13L267.2,146.14L267.93,146.14L267.95,146.14L268.51,107.54L268.65,119.12L268.71,138.42L268.94,146.14L269.23,88.23L269.36,142.28L269.44,146.14L269.66,146.14L269.66,142.28L269.73,146.14L269.88,76.65L270.39,142.28L270.42,138.42L270.61,115.26L271.17,146.14L271.2,138.42L271.77,146.14L271.79,111.39L271.95,138.42L271.97,138.42L272.6,115.26L272.63,146.14L272.64,115.26L272.97,95.96L273.02,146.14L273.37,126.84L273.4,134.56L273.67,88.24L274.11,146.14L274.11,126.84L274.15,119.12L274.23,107.54L274.33,146.14L274.89,134.56L274.93,146.14L275.66,122.98L275.66,122.98L275.67,146.14L276.04,119.12L276.4,146.14L276.43,146.14L276.8,111.4L277.18,142.28L277.26,146.14L277.45,130.7L277.45,130.7L277.45,115.26L277.49,146.14L278.11,92.09L278.17,126.84L278.18,130.7L278.33,111.4L278.71,146.14L278.91,126.84L278.95,126.84L279.53,107.54L279.55,146.14L279.68,130.7L279.76,130.7L279.85,122.98L280.14,146.14L280.27,130.7L280.28,115.26L280.35,103.68L280.87,146.14L281.04,134.56L281.05,119.13L281.83,146.14L281.88,142.28L281.88,122.99L281.94,72.81L282.66,146.14L282.67,122.98L283.3,146.14L283.36,111.41L283.43,138.42L283.44,130.7L283.56,45.84L284.14,146.14L284.17,122.99L284.17,119.13L284.17,99.84L284.32,146.14L284.92,146.14L284.95,146.14L285.37,107.55L285.67,146.14L285.68,146.14L286.41,126.85L286.44,126.85L287.07,146.14L287.08,107.56L287.14,107.56L287.16,103.71L287.5,146.14L287.65,130.71L287.72,142.28L287.76,146.14L288.05,15L288.46,134.57L288.48,134.57L288.53,146.14L289.05,96L289.21,119.14L289.24,142.28L289.48,111.43L289.57,146.14L289.99,142.28L290.01,142.28L290.21,146.14L290.74,115.28L290.77,146.14L290.81,111.42L291.52,146.14L291.53,126.85L291.55,115.28L291.62,146.14L292.24,142.28L292.28,146.14L292.67,111.42L292.99,123L293.04,134.57L293.16,111.43L293.4,146.14L293.76,142.28L293.79,138.43L293.87,146.14L294.6,111.43L294.6,111.43L294.63,111.43L294.69,103.71L294.7,146.14L295.32,134.57L295.33,142.28L295.48,146.14L295.65,119.14L296.07,138.43L296.07,134.57L296.07,146.14L296.43,107.56L296.79,134.57L296.83,142.28L296.88,146.14L297.57,119.13L297.57,119.13L297.59,142.28L297.59,146.14L298.03,119.13L298.32,130.71L298.38,134.57L298.42,107.56L299.07,146.14L299.1,138.43L299.13,130.71L299.67,103.7L299.76,146.14L299.8,126.85L299.82,111.42L299.83,99.84L300,146.14L300.45,146.14L300.48,146.14L300.84,115.28L301.22,146.14L301.24,146.14L301.96,122.99L301.99,126.85L302,146.14L302.62,99.84L302.73,122.99L302.78,119.13L303.19,146.14L303.36,99.84L303.53,138.42L303.54,111.42L303.59,146.14L304.23,80.54L304.26,142.28L304.29,126.85L304.83,107.55L305.1,146.14L305.11,146.14L305.23,103.7L305.84,142.28L305.87,142.28L306.03,146.14L306.09,107.55L306.6,146.14L306.63,146.14L306.64,119.13L307.37,138.42L307.39,138.42L307.53,146.14L307.54,103.68L308.14,138.42L308.17,146.14L308.84,115.26L308.91,146.14L308.94,146.14L308.96,107.54L309.66,111.4L309.71,146.14L310.46,126.84L310.48,134.56L310.51,142.28L310.66,146.14L310.82,126.84L311.22,134.56L311.28,146.14L311.45,115.26L311.45,126.84L311.49,146.14L311.81,115.26L312.16,138.42L312.2,146.14L312.89,107.54L312.94,107.54L313.02,134.56L313.02,146.14L313.72,88.22L313.77,92.08L313.78,88.22L313.94,57.34L314.58,146.14L314.6,146.14L314.63,115.25L315.35,146.14L315.36,146.14L316.11,92.1L316.25,130.7L316.31,95.96L316.9,146.14L316.96,130.7L317.05,134.56L317.25,146.14L317.4,126.84L317.78,146.14L317.84,146.14L317.96,126.84L318.57,146.14L318.64,142.28L318.73,146.14L318.74,99.81L319.33,126.84L319.41,126.84L319.45,122.98L319.59,146.14L319.98,130.7L320.05,146.14L320.4,122.98L320.73,130.7L320.73,146.14L320.84,107.54L321.48,138.42L321.5,130.7L322.09,111.4L322.16,146.14L322.26,142.28L322.27,142.28L322.33,146.14L322.99,103.68L323.02,126.84L323.03,138.42L323.46,111.4L323.8,146.14L323.8,142.28L323.85,142.28L324.25,119.12L324.44,146.14L324.57,130.7L324.59,130.7L324.93,122.98L325.3,146.14L325.3,146.14L325.39,146.14L326.05,126.84L326.13,146.14L326.16,146.14L326.61,130.7L326.7,142.28L326.72,122.98L326.93,146.14L327.15,92.08L327.45,142.28L327.49,146.14L327.65,138.42L327.66,142.28L327.67,111.39L327.74,88.23L327.79,146.14L328.4,146.14L328.44,138.42L328.67,68.93L329.14,146.14L329.18,134.56L329.22,138.42L329.34,146.14L329.43,115.25L329.97,146.14L330,146.14L330.59,115.26L330.76,134.56L330.82,134.56L330.88,146.14L331.37,111.39L331.57,130.7L331.66,122.97L331.74,146.14L332.41,107.53L332.45,134.56L332.57,146.14L333.11,107.53L333.18,142.28L333.2,146.14L333.84,115.26L333.99,138.42L334.01,142.28L334.15,146.14L334.2,126.84L334.2,126.84L334.22,119.13L334.54,99.83L334.98,146.14L334.98,134.56L335,134.56L335.57,99.82L335.69,146.14L335.72,126.84L335.74,126.84L336.21,103.68L336.41,146.14L336.41,138.42L336.5,130.7L336.52,146.14L337.27,95.97L337.32,146.14L337.8,119.12L338.08,138.42L338.12,146.14L338.71,99.83L338.91,122.98L338.96,146.14L339.69,107.54L339.74,126.84L339.78,130.7L339.84,146.14L340.25,115.26L340.48,126.84L340.54,142.28L340.72,122.98L340.75,146.14L341.25,138.42L341.25,142.28L341.43,99.84L341.72,146.14L341.84,134.56L341.86,122.99L341.88,107.55L342.5,146.14L342.59,142.28L342.64,115.27L342.81,146.14L342.87,95.98L343.34,103.69L343.37,130.71L343.37,111.41L343.67,146.14L344.12,122.99L344.13,122.99L344.33,107.55L344.62,146.14L344.75,119.13L344.77,111.41L344.81,146.14L345.48,99.82L345.52,99.82L345.53,130.7L345.72,146.14L346.12,107.55L346.18,142.28L346.3,142.28L346.45,146.14L346.99,103.7L347.04,142.28L347.06,142.28L347.36,134.57L347.36,146.14L347.4,134.57L347.4,130.71L347.97,146.14L347.97,122.99L348.09,142.28L348.15,122.99L348.4,99.84L348.89,146.14L348.92,126.85L349.23,146.14L349.25,119.13L349.67,130.71L349.7,142.28L350.02,146.14L350.45,103.69L350.46,146.14L350.86,103.69L351.21,142.28L351.23,146.14L351.81,107.56L351.95,138.42L351.99,146.14L352.37,115.28L352.74,142.28L352.77,146.14L352.85,115.28L353.47,122.99L353.49,142.28L353.69,146.14L354.15,115.27L354.24,134.56L354.25,138.42L354.68,119.13L354.91,146.14L354.98,130.71L354.98,122.99L355.7,146.14L355.7,146.14L355.77,146.14L356.41,115.27L356.52,146.14L356.53,146.14L356.54,103.69L357.22,146.14L357.3,146.14L358.07,126.84L358.08,146.14L358.5,107.54L358.5,92.11L358.59,146.14L358.66,72.81L359.18,138.42L359.2,142.28L359.23,146.14L359.77,111.41L359.95,134.56L360,130.7L360.16,103.69L360.18,146.14L360.72,146.14L360.73,146.14L361.22,107.54L361.47,126.84L361.5,107.54L362.25,146.14L362.25,134.56L362.27,119.12L362.9,146.14L363.01,130.7L363.05,130.7L363.11,126.84L363.64,146.14L363.82,138.42L363.82,126.84L364.19,115.26L364.54,146.14L364.56,130.7L365.12,92.08L365.26,146.14L365.32,130.69L365.45,119.11L365.51,146.14L365.88,134.56L365.96,146.14L366.25,80.49L366.71,138.42L366.74,142.28L366.76,146.14L367.35,122.97L367.44,146.14L367.47,146.14L368.03,115.25L368.21,130.69L368.23,138.42L368.41,115.25L368.99,146.14L369,142.28L369,126.83L369.01,146.14L369.54,107.53L369.74,122.97L369.76,122.97L370.39,146.14L370.47,107.52L370.48,111.39L370.5,111.39L371.22,146.14L371.29,142.28L371.32,142.28L371.52,146.14L372.04,95.93L372.07,122.96L372.09,122.96L372.78,146.14L372.81,126.83L372.85,122.97L373.15,146.14L373.25,95.95L373.39,142.28L373.41,146.14L373.57,115.25L374.15,142.28L374.2,146.14L374.6,111.39L374.95,146.14L375.05,146.14L375.2,134.55L375.24,103.66L375.79,88.21L376.03,146.14L376.03,134.56L376.04,99.81L376.64,146.14L376.74,119.11L376.83,119.11L376.98,146.14L377.2,103.66L377.54,134.55L377.57,146.14L378.31,99.8L378.37,99.8L378.99,146.14L379.11,122.97L379.15,142.28L379.31,146.14L379.88,107.52L379.93,142.28L380.16,146.14L380.16,92.08L380.66,134.56L380.69,142.28L380.74,146.14L381.38,88.24L381.41,99.82L381.44,146.14L381.52,119.12L382.17,122.97L382.23,146.14L382.88,103.67L383.02,130.7L383.02,142.28L383.4,111.38L383.44,146.14L383.65,122.97L383.72,130.69L383.8,103.65L383.89,146.14L384.45,146.14L384.49,126.84L384.49,146.14L385.23,142.28L385.25,130.7L385.78,126.84L385.99,146.14L385.99,146.14L386.01,134.56L386.46,146.14L386.65,107.53L386.65,146.14L387.11,99.8L387.43,126.83L387.44,146.14L387.86,119.11L388.18,142.28L388.2,142.28L388.23,146.14L388.53,111.39L388.95,115.24L389.03,103.66L389.69,146.14L389.69,76.63L389.79,126.83L389.81,146.14L390.43,119.1L390.57,130.69L390.57,146.14L391.28,99.8L391.32,146.14L391.34,146.14L391.34,99.8L392.09,146.14L392.1,142.28L392.28,130.69L392.64,146.14L392.64,146.14L392.67,126.83L393.44,146.14L393.45,146.14L393.66,146.14L393.66,146.14L393.66,126.83L393.69,122.97L394.37,146.14L394.38,142.28L394.47,142.28L394.49,146.14L394.94,99.81L395.22,119.11L395.26,107.53L395.28,103.67L395.28,146.14L395.84,126.84L395.85,142.28L396,146.14L396.01,122.97L396.11,126.83L396.15,111.39L396.32,84.36L396.89,146.14L396.96,138.42L396.97,138.42L397.23,107.52L397.73,146.14L397.77,146.14L398.26,126.83L398.53,138.41L398.53,142.28L398.56,146.14L398.96,107.51L399,142.27" style="vector-effect: non-scaling-stroke; fill: none; stroke: rgb(0, 204, 150); stroke-opacity: 1; stroke-width: 2px; opacity: 1;"/></g><g class="points"/><g class="text"/></g></g></g><g class="overplot"/><path class="xlines-above crisp" d="M0,0" style="fill: none;"/><path class="ylines-above crisp" d="M0,0" style="fill: none;"/><g class="overlines-above"/><g class="xaxislayer-above"><g class="xtick"><text text-anchor="start" x="0" y="416" transform="translate(206.62,0) rotate(30,0,408.5)" style="font-family: 'Times New Roman'; font-size: 15px; fill: rgb(13, 13, 13); fill-opacity: 1; white-space: pre; opacity: 1;">1.6125210<tspan style="font-size:70%" dy="-0.6em">18</tspan><tspan dy="0.42em"></tspan></text></g><g class="xtick"><text text-anchor="start" x="0" y="416" style="font-family: 'Times New Roman'; font-size: 15px; fill: rgb(13, 13, 13); fill-opacity: 1; white-space: pre; opacity: 1;" transform="translate(285.8,0) rotate(30,0,408.5)">1.61252510<tspan style="font-size:70%" dy="-0.6em">18</tspan><tspan dy="0.42em"></tspan></text></g><g class="xtick"><text text-anchor="start" x="0" y="416" style="font-family: 'Times New Roman'; font-size: 15px; fill: rgb(13, 13, 13); fill-opacity: 1; white-space: pre; opacity: 1;" transform="translate(364.98,0) rotate(30,0,408.5)">1.6125310<tspan style="font-size:70%" dy="-0.6em">18</tspan><tspan dy="0.42em"></tspan></text></g><g class="xtick"><text text-anchor="start" x="0" y="416" style="font-family: 'Times New Roman'; font-size: 15px; fill: rgb(13, 13, 13); fill-opacity: 1; white-space: pre; opacity: 1;" transform="translate(444.16,0) rotate(30,0,408.5)">1.61253510<tspan style="font-size:70%" dy="-0.6em">18</tspan><tspan dy="0.42em"></tspan></text></g><g class="xtick"><text text-anchor="start" x="0" y="416" style="font-family: 'Times New Roman'; font-size: 15px; fill: rgb(13, 13, 13); fill-opacity: 1; white-space: pre; opacity: 1;" transform="translate(523.3399999999999,0) rotate(30,0,408.5)">1.6125410<tspan style="font-size:70%" dy="-0.6em">18</tspan><tspan dy="0.42em"></tspan></text></g></g><g class="yaxislayer-above"><g class="ytick"><text text-anchor="end" x="136" y="12.25" transform="translate(0,365.7)" style="font-family: 'Times New Roman'; font-size: 35px; fill: rgb(13, 13, 13); fill-opacity: 1; white-space: pre; opacity: 1;">0.03</text></g><g class="ytick"><text text-anchor="end" x="136" y="12.25" style="font-family: 'Times New Roman'; font-size: 35px; fill: rgb(13, 13, 13); fill-opacity: 1; white-space: pre; opacity: 1;" transform="translate(0,327.13)">0.02</text></g><g class="ytick"><text text-anchor="end" x="136" y="12.25" style="font-family: 'Times New Roman'; font-size: 35px; fill: rgb(13, 13, 13); fill-opacity: 1; white-space: pre; opacity: 1;" transform="translate(0,288.57)">0.01</text></g><g class="ytick"><text text-anchor="end" x="136" y="12.25" style="font-family: 'Times New Roman'; font-size: 35px; fill: rgb(13, 13, 13); fill-opacity: 1; white-space: pre; opacity: 1;" transform="translate(0,250)">0</text></g><g class="ytick"><text text-anchor="end" x="136" y="12.25" style="font-family: 'Times New Roman'; font-size: 35px; fill: rgb(13, 13, 13); fill-opacity: 1; white-space: pre; opacity: 1;" transform="translate(0,211.43)">0.01</text></g><g class="ytick"><text text-anchor="end" x="136" y="12.25" style="font-family: 'Times New Roman'; font-size: 35px; fill: rgb(13, 13, 13); fill-opacity: 1; white-space: pre; opacity: 1;" transform="translate(0,172.87)">0.02</text></g><g class="ytick"><text text-anchor="end" x="136" y="12.25" style="font-family: 'Times New Roman'; font-size: 35px; fill: rgb(13, 13, 13); fill-opacity: 1; white-space: pre; opacity: 1;" transform="translate(0,134.3)">0.03</text></g></g><g class="overaxes-above"/></g></g><g class="polarlayer"/><g class="smithlayer"/><g class="ternarylayer"/><g class="geolayer"/><g class="funnelarealayer"/><g class="pielayer"/><g class="iciclelayer"/><g class="treemaplayer"/><g class="sunburstlayer"/><g class="glimages"/><defs id="topdefs-845cab"><g class="clips"/><clipPath id="legend845cab"><rect width="144" height="67" x="0" y="0"/></clipPath></defs><g class="layer-above"><g class="imagelayer"/><g class="shapelayer"/></g><g class="infolayer"><g class="legend" pointer-events="all" transform="translate(543.98,100)"><rect class="bg" shape-rendering="crispEdges" style="stroke: rgb(68, 68, 68); stroke-opacity: 1; fill: rgb(255, 255, 255); fill-opacity: 1; stroke-width: 0px;" width="144" height="67" x="0" y="0"/><g class="scrollbox" transform="" clip-path="url(#legend845cab)"><g class="groups"><g class="traces" transform="translate(0,14.5)" style="opacity: 1;"><text class="legendtext" text-anchor="start" x="40" y="4.680000000000001" style="font-family: 'Open Sans', verdana, arial, sans-serif; font-size: 12px; fill: rgb(42, 63, 95); fill-opacity: 1; white-space: pre;">Realized (in %)</text><g class="layers" style="opacity: 1;"><g class="legendfill"/><g class="legendlines"><path class="js-line" d="M5,0h30" style="fill: none; stroke: rgb(99, 110, 250); stroke-opacity: 1; stroke-width: 2px;"/></g><g class="legendsymbols"><g class="legendpoints"/></g></g><rect class="legendtoggle" x="0" y="-9.5" width="138.71875" height="19" style="fill: rgb(0, 0, 0); fill-opacity: 0;"/></g><g class="traces" transform="translate(0,33.5)" style="opacity: 1;"><text class="legendtext" text-anchor="start" x="40" y="4.680000000000001" style="font-family: 'Open Sans', verdana, arial, sans-serif; font-size: 12px; fill: rgb(42, 63, 95); fill-opacity: 1; white-space: pre;">Effective (in %)</text><g class="layers" style="opacity: 1;"><g class="legendfill"/><g class="legendlines"><path class="js-line" d="M5,0h30" style="fill: none; stroke: rgb(239, 85, 59); stroke-opacity: 1; stroke-width: 2px;"/></g><g class="legendsymbols"><g class="legendpoints"/></g></g><rect class="legendtoggle" x="0" y="-9.5" width="138.71875" height="19" style="fill: rgb(0, 0, 0); fill-opacity: 0;"/></g><g class="traces" transform="translate(0,52.5)" style="opacity: 1;"><text class="legendtext" text-anchor="start" x="40" y="4.680000000000001" style="font-family: 'Open Sans', verdana, arial, sans-serif; font-size: 12px; fill: rgb(42, 63, 95); fill-opacity: 1; white-space: pre;">Half Quoted (in %)</text><g class="layers" style="opacity: 1;"><g class="legendfill"/><g class="legendlines"><path class="js-line" d="M5,0h30" style="fill: none; stroke: rgb(0, 204, 150); stroke-opacity: 1; stroke-width: 2px;"/></g><g class="legendsymbols"><g class="legendpoints"/></g></g><rect class="legendtoggle" x="0" y="-9.5" width="138.71875" height="19" style="fill: rgb(0, 0, 0); fill-opacity: 0;"/></g></g></g><rect class="scrollbar" rx="20" ry="3" width="0" height="0" style="fill: rgb(128, 139, 164); fill-opacity: 1;" x="0" y="0"/></g><g class="g-gtitle"/><g class="g-xtitle"><text class="xtitle" x="336.5" y="487.503125" text-anchor="middle" style="font-family: 'Open Sans', verdana, arial, sans-serif; font-size: 14px; fill: rgb(42, 63, 95); opacity: 1; font-weight: normal; white-space: pre;">Time Steps (ns)</text></g><g class="g-ytitle" transform="translate(24,0)"><text class="ytitle" transform="rotate(-90,12,250)" x="12" y="250" text-anchor="middle" style="font-family: 'Times New Roman'; font-size: 40px; fill: rgb(13, 13, 13); opacity: 1; font-weight: normal; white-space: pre;">Spreads (in %)</text></g></g></svg>