<svg class="main-svg" xmlns="http://www.w3.org/2000/svg" xmlns:xlink="http://www.w3.org/1999/xlink" width="700" height="500" style="" viewBox="0 0 700 500"><rect x="0" y="0" width="700" height="500" style="fill: rgb(255, 255, 255); fill-opacity: 1;"/><defs id="defs-301f2a"><g class="clips"><clipPath id="clip301f2axyplot" class="plotclip"><rect width="489" height="320"/></clipPath><clipPath class="axesclip" id="clip301f2ax"><rect x="131" y="0" width="489" height="500"/></clipPath><clipPath class="axesclip" id="clip301f2ay"><rect x="0" y="100" width="700" height="320"/></clipPath><clipPath class="axesclip" id="clip301f2axy"><rect x="131" y="100" width="489" height="320"/></clipPath></g><g class="gradients"/><g class="patterns"/></defs><g class="bglayer"><rect class="bg" x="131" y="100" width="489" height="320" style="fill: rgb(229, 236, 246); fill-opacity: 1; stroke-width: 0;"/></g><g class="layer-below"><g class="imagelayer"/><g class="shapelayer"/></g><g class="cartesianlayer"><g class="subplot xy"><g class="layer-subplot"><g class="shapelayer"/><g class="imagelayer"/></g><g class="minor-gridlayer"><g class="x"/><g class="y"/></g><g class="gridlayer"><g class="x"><path class="xgrid crisp" transform="translate(216.3,0)" d="M0,100v320" style="stroke: rgb(255, 255, 255); stroke-opacity: 1; stroke-width: 1px;"/><path class="xgrid crisp" transform="translate(313.35,0)" d="M0,100v320" style="stroke: rgb(255, 255, 255); stroke-opacity: 1; stroke-width: 1px;"/><path class="xgrid crisp" transform="translate(410.39,0)" d="M0,100v320" style="stroke: rgb(255, 255, 255); stroke-opacity: 1; stroke-width: 1px;"/><path class="xgrid crisp" transform="translate(507.44,0)" d="M0,100v320" style="stroke: rgb(255, 255, 255); stroke-opacity: 1; stroke-width: 1px;"/><path class="xgrid crisp" transform="translate(604.48,0)" d="M0,100v320" style="stroke: rgb(255, 255, 255); stroke-opacity: 1; stroke-width: 1px;"/></g><g class="y"><path class="ygrid crisp" transform="translate(0,353.64)" d="M131,0h489" style="stroke: rgb(255, 255, 255); stroke-opacity: 1; stroke-width: 1px;"/><path class="ygrid crisp" transform="translate(0,303.26)" d="M131,0h489" style="stroke: rgb(255, 255, 255); stroke-opacity: 1; stroke-width: 1px;"/><path class="ygrid crisp" transform="translate(0,252.89)" d="M131,0h489" style="stroke: rgb(255, 255, 255); stroke-opacity: 1; stroke-width: 1px;"/><path class="ygrid crisp" transform="translate(0,202.51)" d="M131,0h489" style="stroke: rgb(255, 255, 255); stroke-opacity: 1; stroke-width: 1px;"/><path class="ygrid crisp" transform="translate(0,152.14)" d="M131,0h489" style="stroke: rgb(255, 255, 255); stroke-opacity: 1; stroke-width: 1px;"/><path class="ygrid crisp" transform="translate(0,101.77)" d="M131,0h489" style="stroke: rgb(255, 255, 255); stroke-opacity: 1; stroke-width: 1px;"/></g></g><g class="zerolinelayer"><path class="yzl zl crisp" transform="translate(0,404.01)" d="M131,0h489" style="stroke: rgb(255, 255, 255); stroke-opacity: 1; stroke-width: 2px;"/></g><path class="xlines-below"/><path class="ylines-below"/><g class="overlines-below"/><g class="xaxislayer-below"/><g class="yaxislayer-below"/><g class="overaxes-below"/><g class="plot" transform="translate(131,100)" clip-path="url(#clip301f2axyplot)"><g class="scatterlayer mlayer"><g class="trace scatter traced30ad4" style="stroke-miterlimit: 2; opacity: 1;"><g class="fills"/><g class="errorbars"/><g class="lines"><path class="js-line" d="M0,304L19.88,295.7L19.88,295.69L23.9,293.54L23.9,293.54L23.9,293.53L26.55,292.54L26.55,292.53L28.27,291.73L28.38,291.72L30.75,290.65L30.9,290.65L38.87,286.14L38.87,286.13L39.98,285.51L40.03,285.51L44.91,282.4L44.91,282.4L44.94,282.4L48.28,280.28L48.34,280.28L59.21,273.8L59.21,273.8L59.21,273.79L62.98,271.75L62.98,271.74L94.3,252.72L94.3,252.72L94.41,252.71L96.22,251.49L96.22,251.49L96.31,251.49L98.92,249.56L98.92,249.56L98.93,249.55L116.36,239.57L116.36,239.57L116.36,239.56L119.56,237.84L119.56,237.84L119.57,237.83L121.7,236.54L121.7,236.53L129.99,231.26L129.99,231.25L132.82,229.52L132.82,229.51L135.59,228.08L135.59,228.08L135.59,228.04L150.65,218.46L150.65,218.46L150.72,218.46L152.17,217.4L152.26,217.39L157.62,214.28L157.62,214.28L157.63,214.27L160.24,212.93L160.24,212.92L162.59,211.36L162.59,211.36L162.59,211.34L167.46,207.85L167.49,207.85L172.42,204.89L172.42,204.88L181.77,199.44L181.77,199.43L196.6,191.21L196.6,191.21L196.6,191.17L199.42,189.78L199.42,189.77L209.99,183.25L210.07,183.25L217.21,179.45L217.21,179.43L220.6,177.4L220.76,177.4L226.59,173.94L226.59,173.94L226.64,173.93L230.94,171.29L230.94,171.29L231.09,171.28L239.52,166.33L239.52,166.32L240.72,165.55L240.79,165.54L243.64,163.73L243.64,163.73L243.67,163.73L275.87,145.08L275.87,145.08L275.87,145.07L278.16,143.73L278.16,143.73L278.16,143.72L280.5,142.33L280.5,142.33L280.5,142.32L303.63,129.17L303.63,129.17L303.63,129.16L307.03,127.04L307.03,127.03L324.69,116.8L324.8,116.79L332.59,111.87L332.59,111.87L332.61,111.87L341.5,106.86L341.5,106.85L352.87,100.59L353.02,100.58L356.66,97.96L356.74,97.95L363.06,93.77L363.06,93.76L366.47,91.79L366.67,91.79L371.81,88.94L371.81,88.92L373.57,87.83L373.57,87.83L373.57,87.82L376.18,85.95L376.18,85.95L376.26,85.94L379.67,83.89L379.67,83.88L389.74,78.1L389.87,78.09L401.66,70.59L401.8,70.58L416.57,62.33L416.7,62.32L419.89,60.16L419.89,60.15L425.96,56.51L426.02,56.51L427.8,55.32L427.8,55.32L427.86,55.31L431.25,52.59L431.25,52.59L431.41,52.58L433.79,51L433.79,50.99L435.37,49.98L435.4,49.97L441.08,45.95L441.08,45.94L445.6,43.04L445.6,43.03L447.03,42L447.03,42L447.04,41.99L449.63,40.58L449.71,40.57L454.12,37.82L454.17,37.82L464.8,31.75L464.8,31.75L464.8,31.74L468.03,29.55L468.03,29.55L468.03,29.54L470.64,27.97L470.64,27.97L470.66,27.96L478.09,23.07L478.28,23.07L489,16" style="vector-effect: non-scaling-stroke; fill: none; stroke: rgb(173, 0, 0); stroke-opacity: 1; stroke-width: 2px; opacity: 1;"/></g><g class="points"/><g class="text"/></g></g></g><g class="overplot"/><path class="xlines-above crisp" d="M0,0" style="fill: none;"/><path class="ylines-above crisp" d="M0,0" style="fill: none;"/><g class="overlines-above"/><g class="xaxislayer-above"><g class="xtick"><text text-anchor="middle" x="0" y="436" transform="translate(216.3,0)" style="font-family: 'Times New Roman'; font-size: 15px; fill: rgb(13, 13, 13); fill-opacity: 1; white-space: pre; opacity: 1;">1.61252×10​<tspan style="font-size:70%" dy="-0.6em">18</tspan><tspan dy="0.42em">​</tspan></text></g><g class="xtick"><text text-anchor="middle" x="0" y="436" style="font-family: 'Times New Roman'; font-size: 15px; fill: rgb(13, 13, 13); fill-opacity: 1; white-space: pre; opacity: 1;" transform="translate(313.35,0)">1.612525×10​<tspan style="font-size:70%" dy="-0.6em">18</tspan><tspan dy="0.42em">​</tspan></text></g><g class="xtick"><text text-anchor="middle" x="0" y="436" style="font-family: 'Times New Roman'; font-size: 15px; fill: rgb(13, 13, 13); fill-opacity: 1; white-space: pre; opacity: 1;" transform="translate(410.39,0)">1.61253×10​<tspan style="font-size:70%" dy="-0.6em">18</tspan><tspan dy="0.42em">​</tspan></text></g><g class="xtick"><text text-anchor="middle" x="0" y="436" style="font-family: 'Times New Roman'; font-size: 15px; fill: rgb(13, 13, 13); fill-opacity: 1; white-space: pre; opacity: 1;" transform="translate(507.44,0)">1.612535×10​<tspan style="font-size:70%" dy="-0.6em">18</tspan><tspan dy="0.42em">​</tspan></text></g><g class="xtick"><text text-anchor="middle" x="0" y="436" style="font-family: 'Times New Roman'; font-size: 15px; fill: rgb(13, 13, 13); fill-opacity: 1; white-space: pre; opacity: 1;" transform="translate(604.48,0)">1.61254×10​<tspan style="font-size:70%" dy="-0.6em">18</tspan><tspan dy="0.42em">​</tspan></text></g></g><g class="yaxislayer-above"><g class="ytick"><text text-anchor="end" x="130" y="12.25" transform="translate(0,404.01)" style="font-family: 'Times New Roman'; font-size: 35px; fill: rgb(13, 13, 13); fill-opacity: 1; white-space: pre; opacity: 1;">0</text></g><g class="ytick"><text text-anchor="end" x="130" y="12.25" style="font-family: 'Times New Roman'; font-size: 35px; fill: rgb(13, 13, 13); fill-opacity: 1; white-space: pre; opacity: 1;" transform="translate(0,353.64)">0.5M</text></g><g class="ytick"><text text-anchor="end" x="130" y="12.25" style="font-family: 'Times New Roman'; font-size: 35px; fill: rgb(13, 13, 13); fill-opacity: 1; white-space: pre; opacity: 1;" transform="translate(0,303.26)">1M</text></g><g class="ytick"><text text-anchor="end" x="130" y="12.25" style="font-family: 'Times New Roman'; font-size: 35px; fill: rgb(13, 13, 13); fill-opacity: 1; white-space: pre; opacity: 1;" transform="translate(0,252.89)">1.5M</text></g><g class="ytick"><text text-anchor="end" x="130" y="12.25" style="font-family: 'Times New Roman'; font-size: 35px; fill: rgb(13, 13, 13); fill-opacity: 1; white-space: pre; opacity: 1;" transform="translate(0,202.51)">2M</text></g><g class="ytick"><text text-anchor="end" x="130" y="12.25" style="font-family: 'Times New Roman'; font-size: 35px; fill: rgb(13, 13, 13); fill-opacity: 1; white-space: pre; opacity: 1;" transform="translate(0,152.14)">2.5M</text></g><g class="ytick"><text text-anchor="end" x="130" y="12.25" style="font-family: 'Times New Roman'; font-size: 35px; fill: rgb(13, 13, 13); fill-opacity: 1; white-space: pre; opacity: 1;" transform="translate(0,101.77)">3M</text></g></g><g class="overaxes-above"/></g></g><g class="polarlayer"/><g class="smithlayer"/><g class="ternarylayer"/><g class="geolayer"/><g class="funnelarealayer"/><g class="pielayer"/><g class="iciclelayer"/><g class="treemaplayer"/><g class="sunburstlayer"/><g class="glimages"/><defs id="topdefs-301f2a"><g class="clips"/></defs><g class="layer-above"><g class="imagelayer"/><g class="shapelayer"/></g><g class="infolayer"><g class="g-gtitle"/><g class="g-xtitle"><text class="xtitle" x="375.5" y="463.8" text-anchor="middle" style="font-family: 'Open Sans', verdana, arial, sans-serif; font-size: 14px; fill: rgb(42, 63, 95); opacity: 1; font-weight: normal; white-space: pre;">Time Steps (ns)</text></g><g class="g-ytitle" transform="translate(23.875,0)"><text class="ytitle" transform="rotate(-90,12.125,260)" x="12.125" y="260" text-anchor="middle" style="font-family: 'Times New Roman'; font-size: 40px; fill: rgb(13, 13, 13); opacity: 1; font-weight: normal; white-space: pre;">Cum. qty. executed securites</text></g></g></svg>