<svg class="main-svg" xmlns="http://www.w3.org/2000/svg" xmlns:xlink="http://www.w3.org/1999/xlink" width="700" height="500" style="" viewBox="0 0 700 500"><rect x="0" y="0" width="700" height="500" style="fill: rgb(255, 255, 255); fill-opacity: 1;"/><defs id="defs-83e054"><g class="clips"><clipPath id="clip83e054xyplot" class="plotclip"><rect width="497" height="320"/></clipPath><clipPath class="axesclip" id="clip83e054x"><rect x="123" y="0" width="497" height="500"/></clipPath><clipPath class="axesclip" id="clip83e054y"><rect x="0" y="100" width="700" height="320"/></clipPath><clipPath class="axesclip" id="clip83e054xy"><rect x="123" y="100" width="497" height="320"/></clipPath></g><g class="gradients"/><g class="patterns"/></defs><g class="bglayer"><rect class="bg" x="123" y="100" width="497" height="320" style="fill: rgb(229, 236, 246); fill-opacity: 1; stroke-width: 0;"/></g><g class="layer-below"><g class="imagelayer"/><g class="shapelayer"/></g><g class="cartesianlayer"><g class="subplot xy"><g class="layer-subplot"><g class="shapelayer"/><g class="imagelayer"/></g><g class="minor-gridlayer"><g class="x"/><g class="y"/></g><g class="gridlayer"><g class="x"><path class="xgrid crisp" transform="translate(209.7,0)" d="M0,100v320" style="stroke: rgb(255, 255, 255); stroke-opacity: 1; stroke-width: 1px;"/><path class="xgrid crisp" transform="translate(308.33000000000004,0)" d="M0,100v320" style="stroke: rgb(255, 255, 255); stroke-opacity: 1; stroke-width: 1px;"/><path class="xgrid crisp" transform="translate(406.96,0)" d="M0,100v320" style="stroke: rgb(255, 255, 255); stroke-opacity: 1; stroke-width: 1px;"/><path class="xgrid crisp" transform="translate(505.6,0)" d="M0,100v320" style="stroke: rgb(255, 255, 255); stroke-opacity: 1; stroke-width: 1px;"/><path class="xgrid crisp" transform="translate(604.23,0)" d="M0,100v320" style="stroke: rgb(255, 255, 255); stroke-opacity: 1; stroke-width: 1px;"/></g><g class="y"><path class="ygrid crisp" transform="translate(0,353.62)" d="M123,0h497" style="stroke: rgb(255, 255, 255); stroke-opacity: 1; stroke-width: 1px;"/><path class="ygrid crisp" transform="translate(0,303.22)" d="M123,0h497" style="stroke: rgb(255, 255, 255); stroke-opacity: 1; stroke-width: 1px;"/><path class="ygrid crisp" transform="translate(0,252.83)" d="M123,0h497" style="stroke: rgb(255, 255, 255); stroke-opacity: 1; stroke-width: 1px;"/><path class="ygrid crisp" transform="translate(0,202.44)" d="M123,0h497" style="stroke: rgb(255, 255, 255); stroke-opacity: 1; stroke-width: 1px;"/><path class="ygrid crisp" transform="translate(0,152.05)" d="M123,0h497" style="stroke: rgb(255, 255, 255); stroke-opacity: 1; stroke-width: 1px;"/><path class="ygrid crisp" transform="translate(0,101.65)" d="M123,0h497" style="stroke: rgb(255, 255, 255); stroke-opacity: 1; stroke-width: 1px;"/></g></g><g class="zerolinelayer"><path class="yzl zl crisp" transform="translate(0,404.01)" d="M123,0h497" style="stroke: rgb(255, 255, 255); stroke-opacity: 1; stroke-width: 2px;"/></g><path class="xlines-below"/><path class="ylines-below"/><g class="overlines-below"/><g class="xaxislayer-below"/><g class="yaxislayer-below"/><g class="overaxes-below"/><g class="plot" transform="translate(123,100)" clip-path="url(#clip83e054xyplot)"><g class="scatterlayer mlayer"><g class="trace scatter traceff6a16" style="stroke-miterlimit: 2; opacity: 1;"><g class="fills"/><g class="errorbars"/><g class="lines"><path class="js-line" d="M0,304L21.61,295.06L21.61,295.05L27.32,292.29L27.32,292.29L27.53,292.29L32.89,289.97L32.89,289.97L32.93,289.97L40.16,285.76L40.26,285.75L44.7,283.04L44.7,283.04L44.7,283.03L51.72,278.98L51.72,278.98L51.79,278.98L62.31,272.61L62.41,272.61L68.63,268.74L68.69,268.74L72.27,266.62L72.3,266.6L76.27,264.09L76.27,264.09L76.27,264.08L105.23,247.03L105.23,247.03L105.31,247.03L107.32,245.87L107.32,245.87L107.32,245.86L111.48,243.3L111.53,243.3L113.75,242.13L113.76,242.13L116.97,240.37L117.01,240.37L120.35,238.43L120.35,238.42L123.25,236.84L123.26,236.83L128.36,233.45L128.45,233.44L132.1,231.28L132.1,231.27L161.83,213.49L161.89,213.49L168.41,208.91L168.41,208.9L170.72,207.49L170.72,207.48L176.38,204.26L176.38,204.25L183.96,199.82L184.02,199.82L201.73,190.28L201.85,190.27L206.97,186.9L207.11,186.89L211.87,184.05L211.87,184.04L214.89,182.56L215,182.56L218.32,180.75L218.32,180.74L221.55,178.81L221.55,178.8L223.85,177.55L223.85,177.55L223.91,177.54L248.47,163.22L248.61,163.21L252.96,160.75L252.96,160.75L253,160.74L262.3,155.51L262.31,155.5L298.08,134.87L298.08,134.87L298.18,134.87L302.56,132.5L302.59,132.5L305.8,130.88L305.8,130.87L311.79,127.26L311.79,127.22L319.73,122.35L319.76,122.35L322.47,120.72L322.47,120.71L325.41,119.13L325.41,119.13L325.5,119.12L328.64,117.36L328.77,117.36L331.19,116.15L331.19,116.14L334.55,113.99L334.55,113.99L334.57,113.98L350.12,105.14L350.12,105.14L350.22,105.13L359.6,99.89L359.6,99.88L363.3,97.45L363.3,97.45L363.3,97.44L369,93.76L369,93.75L372.47,91.79L372.47,91.79L372.67,91.78L378.1,88.82L378.1,88.81L379.9,87.54L379.93,87.54L409.1,70.27L409.1,70.27L409.11,70.27L411.25,69.18L411.26,69.17L415.24,66.89L415.24,66.88L417.1,65.8L417.1,65.79L435.21,54.97L435.21,54.96L437.73,52.84L437.73,52.84L437.8,52.83L441.58,50.54L441.58,50.53L442.91,49.78L442.91,49.78L442.93,49.77L449.05,45.53L449.16,45.52L451.66,43.81L451.73,43.81L456.43,40.77L456.47,40.77L461.04,38.21L461.04,38.21L461.04,38.2L480.93,26.19L480.93,26.18L482.21,25.35L482.21,25.34L487.39,22.28L487.39,22.27L493.32,18.69L493.32,18.69L493.32,18.68L495.1,17.18L495.13,17.18L497,16" style="vector-effect: non-scaling-stroke; fill: none; stroke: rgb(1, 102, 87); stroke-opacity: 1; stroke-width: 2px; opacity: 1;"/></g><g class="points"/><g class="text"/></g></g></g><g class="overplot"/><path class="xlines-above crisp" d="M0,0" style="fill: none;"/><path class="ylines-above crisp" d="M0,0" style="fill: none;"/><g class="overlines-above"/><g class="xaxislayer-above"><g class="xtick"><text text-anchor="middle" x="0" y="436" transform="translate(209.7,0)" style="font-family: 'Times New Roman'; font-size: 15px; fill: rgb(13, 13, 13); fill-opacity: 1; white-space: pre; opacity: 1;">1.61252×10​<tspan style="font-size:70%" dy="-0.6em">18</tspan><tspan dy="0.42em">​</tspan></text></g><g class="xtick"><text text-anchor="middle" x="0" y="436" style="font-family: 'Times New Roman'; font-size: 15px; fill: rgb(13, 13, 13); fill-opacity: 1; white-space: pre; opacity: 1;" transform="translate(308.33000000000004,0)">1.612525×10​<tspan style="font-size:70%" dy="-0.6em">18</tspan><tspan dy="0.42em">​</tspan></text></g><g class="xtick"><text text-anchor="middle" x="0" y="436" style="font-family: 'Times New Roman'; font-size: 15px; fill: rgb(13, 13, 13); fill-opacity: 1; white-space: pre; opacity: 1;" transform="translate(406.96,0)">1.61253×10​<tspan style="font-size:70%" dy="-0.6em">18</tspan><tspan dy="0.42em">​</tspan></text></g><g class="xtick"><text text-anchor="middle" x="0" y="436" style="font-family: 'Times New Roman'; font-size: 15px; fill: rgb(13, 13, 13); fill-opacity: 1; white-space: pre; opacity: 1;" transform="translate(505.6,0)">1.612535×10​<tspan style="font-size:70%" dy="-0.6em">18</tspan><tspan dy="0.42em">​</tspan></text></g><g class="xtick"><text text-anchor="middle" x="0" y="436" style="font-family: 'Times New Roman'; font-size: 15px; fill: rgb(13, 13, 13); fill-opacity: 1; white-space: pre; opacity: 1;" transform="translate(604.23,0)">1.61254×10​<tspan style="font-size:70%" dy="-0.6em">18</tspan><tspan dy="0.42em">​</tspan></text></g></g><g class="yaxislayer-above"><g class="ytick"><text text-anchor="end" x="122" y="12.25" transform="translate(0,404.01)" style="font-family: 'Times New Roman'; font-size: 35px; fill: rgb(13, 13, 13); fill-opacity: 1; white-space: pre; opacity: 1;">0</text></g><g class="ytick"><text text-anchor="end" x="122" y="12.25" style="font-family: 'Times New Roman'; font-size: 35px; fill: rgb(13, 13, 13); fill-opacity: 1; white-space: pre; opacity: 1;" transform="translate(0,353.62)">0.5B</text></g><g class="ytick"><text text-anchor="end" x="122" y="12.25" style="font-family: 'Times New Roman'; font-size: 35px; fill: rgb(13, 13, 13); fill-opacity: 1; white-space: pre; opacity: 1;" transform="translate(0,303.22)">1B</text></g><g class="ytick"><text text-anchor="end" x="122" y="12.25" style="font-family: 'Times New Roman'; font-size: 35px; fill: rgb(13, 13, 13); fill-opacity: 1; white-space: pre; opacity: 1;" transform="translate(0,252.83)">1.5B</text></g><g class="ytick"><text text-anchor="end" x="122" y="12.25" style="font-family: 'Times New Roman'; font-size: 35px; fill: rgb(13, 13, 13); fill-opacity: 1; white-space: pre; opacity: 1;" transform="translate(0,202.44)">2B</text></g><g class="ytick"><text text-anchor="end" x="122" y="12.25" style="font-family: 'Times New Roman'; font-size: 35px; fill: rgb(13, 13, 13); fill-opacity: 1; white-space: pre; opacity: 1;" transform="translate(0,152.05)">2.5B</text></g><g class="ytick"><text text-anchor="end" x="122" y="12.25" style="font-family: 'Times New Roman'; font-size: 35px; fill: rgb(13, 13, 13); fill-opacity: 1; white-space: pre; opacity: 1;" transform="translate(0,101.65)">3B</text></g></g><g class="overaxes-above"/></g></g><g class="polarlayer"/><g class="smithlayer"/><g class="ternarylayer"/><g class="geolayer"/><g class="funnelarealayer"/><g class="pielayer"/><g class="iciclelayer"/><g class="treemaplayer"/><g class="sunburstlayer"/><g class="glimages"/><defs id="topdefs-83e054"><g class="clips"/></defs><g class="layer-above"><g class="imagelayer"/><g class="shapelayer"/></g><g class="infolayer"><g class="g-gtitle"/><g class="g-xtitle"><text class="xtitle" x="371.5" y="463.8" text-anchor="middle" style="font-family: 'Open Sans', verdana, arial, sans-serif; font-size: 14px; fill: rgb(42, 63, 95); opacity: 1; font-weight: normal; white-space: pre;">Time Steps (ns)</text></g><g class="g-ytitle" transform="translate(24.109375,0)"><text class="ytitle" transform="rotate(-90,11.890625,260)" x="11.890625" y="260" text-anchor="middle" style="font-family: 'Times New Roman'; font-size: 40px; fill: rgb(13, 13, 13); opacity: 1; font-weight: normal; white-space: pre;">Cum. executed trading vol. (in $)</text></g></g></svg>