<svg class="main-svg" xmlns="http://www.w3.org/2000/svg" xmlns:xlink="http://www.w3.org/1999/xlink" width="700" height="500" style="" viewBox="0 0 700 500"><rect x="0" y="0" width="700" height="500" style="fill: rgb(255, 255, 255); fill-opacity: 1;"/><defs id="defs-c7ab4f"><g class="clips"><clipPath id="clipc7ab4fxyplot" class="plotclip"><rect width="399" height="300"/></clipPath><clipPath class="axesclip" id="clipc7ab4fx"><rect x="137" y="0" width="399" height="500"/></clipPath><clipPath class="axesclip" id="clipc7ab4fy"><rect x="0" y="100" width="700" height="300"/></clipPath><clipPath class="axesclip" id="clipc7ab4fxy"><rect x="137" y="100" width="399" height="300"/></clipPath></g><g class="gradients"/><g class="patterns"/></defs><g class="bglayer"><rect class="bg" x="137" y="100" width="399" height="300" style="fill: rgb(229, 236, 246); fill-opacity: 1; stroke-width: 0;"/></g><g class="layer-below"><g class="imagelayer"/><g class="shapelayer"/></g><g class="cartesianlayer"><g class="subplot xy"><g class="layer-subplot"><g class="shapelayer"/><g class="imagelayer"/></g><g class="minor-gridlayer"><g class="x"/><g class="y"/></g><g class="gridlayer"><g class="x"><path class="xgrid crisp" transform="translate(206.47,0)" d="M0,100v300" style="stroke: rgb(255, 255, 255); stroke-opacity: 1; stroke-width: 1px;"/><path class="xgrid crisp" transform="translate(285.69,0)" d="M0,100v300" style="stroke: rgb(255, 255, 255); stroke-opacity: 1; stroke-width: 1px;"/><path class="xgrid crisp" transform="translate(364.90999999999997,0)" d="M0,100v300" style="stroke: rgb(255, 255, 255); stroke-opacity: 1; stroke-width: 1px;"/><path class="xgrid crisp" transform="translate(444.13,0)" d="M0,100v300" style="stroke: rgb(255, 255, 255); stroke-opacity: 1; stroke-width: 1px;"/><path class="xgrid crisp" transform="translate(523.35,0)" d="M0,100v300" style="stroke: rgb(255, 255, 255); stroke-opacity: 1; stroke-width: 1px;"/></g><g class="y"><path class="ygrid crisp" transform="translate(0,372.56)" d="M137,0h399" style="stroke: rgb(255, 255, 255); stroke-opacity: 1; stroke-width: 1px;"/><path class="ygrid crisp" transform="translate(0,331.03)" d="M137,0h399" style="stroke: rgb(255, 255, 255); stroke-opacity: 1; stroke-width: 1px;"/><path class="ygrid crisp" transform="translate(0,289.49)" d="M137,0h399" style="stroke: rgb(255, 255, 255); stroke-opacity: 1; stroke-width: 1px;"/><path class="ygrid crisp" transform="translate(0,206.41)" d="M137,0h399" style="stroke: rgb(255, 255, 255); stroke-opacity: 1; stroke-width: 1px;"/><path class="ygrid crisp" transform="translate(0,164.87)" d="M137,0h399" style="stroke: rgb(255, 255, 255); stroke-opacity: 1; stroke-width: 1px;"/><path class="ygrid crisp" transform="translate(0,123.33)" d="M137,0h399" style="stroke: rgb(255, 255, 255); stroke-opacity: 1; stroke-width: 1px;"/></g></g><g class="zerolinelayer"><path class="yzl zl crisp" transform="translate(0,247.95)" d="M137,0h399" style="stroke: rgb(255, 255, 255); stroke-opacity: 1; stroke-width: 2px;"/></g><path class="xlines-below"/><path class="ylines-below"/><g class="overlines-below"/><g class="xaxislayer-below"/><g class="yaxislayer-below"/><g class="overaxes-below"/><g class="plot" transform="translate(137,100)" clip-path="url(#clipc7ab4fxyplot)"><g class="scatterlayer mlayer"><g class="trace scatter traceac1355" style="stroke-miterlimit: 2; opacity: 1;"><g class="fills"/><g class="errorbars"/><g class="lines"><path class="js-line" d="M0,195.71L0.16,285L0.36,93.94L0.79,145.87L0.83,137.56L1.42,166.64L1.61,154.18L1.66,143.79L1.89,133.41L2.22,162.49L2.3,133.41L2.42,152.1L2.54,135.49L2.95,158.33L3.17,137.56L3.19,158.33L3.88,133.41L3.95,150.03L3.96,127.18L4.63,177.03L4.66,168.72L4.69,118.87L5.05,181.18L5.38,158.34L5.49,147.95L5.54,177.03L5.91,120.94L6.22,147.95L6.26,150.03L6.54,156.26L6.77,135.48L6.95,154.18L7.03,141.72L7.18,177.03L7.42,131.33L7.77,137.56L7.78,139.64L7.91,129.25L8.22,170.8L8.48,160.41L8.59,145.87L9.12,164.57L9.18,129.25L9.32,152.1L9.4,143.79L9.49,131.33L9.63,160.41L10.14,145.87L10.21,145.87L10.36,137.56L10.86,162.49L10.93,150.03L10.98,150.03L11.47,164.56L11.74,131.33L11.75,156.26L11.79,164.56L11.82,131.33L12.48,145.87L12.53,145.87L12.58,147.95L12.58,129.26L12.69,170.79L12.75,125.1L13.44,143.79L13.47,150.03L13.76,137.56L13.97,162.49L14.2,150.03L14.26,145.87L14.7,139.64L15.03,160.41L15.08,150.03L15.1,139.64L15.59,162.49L15.79,150.03L15.87,150.03L16.17,166.64L16.18,129.26L16.57,147.95L16.62,150.03L16.65,166.64L16.7,133.41L17.37,160.41L17.4,135.49L17.57,162.49L17.61,133.41L18.15,143.8L18.17,154.18L18.27,135.49L18.35,158.33L18.91,152.1L18.91,160.41L19.13,162.49L19.59,131.33L19.63,131.33L19.69,147.95L20,162.49L20.07,133.41L20.29,145.87L20.29,137.56L20.61,160.41L21.03,141.72L21.08,141.72L21.21,166.64L21.23,129.26L21.81,154.18L21.85,143.79L22.07,133.41L22.14,168.72L22.5,145.87L22.66,137.56L23,127.18L23.08,166.64L23.4,145.87L23.44,143.79L23.69,174.95L23.83,137.56L24.19,143.79L24.2,143.79L24.47,166.64L24.74,133.41L24.94,156.26L24.97,135.49L25.55,160.41L25.72,135.49L25.72,133.41L26.43,166.64L26.48,145.87L26.55,137.56L27.04,152.1L27.19,141.72L27.21,150.03L27.38,131.33L27.6,156.26L27.67,143.79L27.67,158.33L27.79,160.41L28.02,135.48L28.37,139.64L28.48,152.1L28.83,160.41L28.84,133.41L29.16,150.03L29.25,164.57L29.31,129.25L29.59,179.1L29.68,156.26L29.7,139.64L29.9,185.34L29.95,114.71L30.42,147.95L30.42,139.64L30.68,158.34L30.88,133.4L31.19,154.18L31.19,137.56L31.42,135.48L31.48,168.73L31.62,164.57L31.65,135.48L31.84,125.1L32.01,166.65L32.41,143.79L32.41,139.64L32.45,123.01L32.75,168.73L33.09,129.25L33.19,160.42L33.19,162.49L33.84,133.4L33.94,141.72L33.96,120.94L34.66,166.64L34.69,152.1L34.75,147.95L34.89,168.72L34.91,127.18L35.49,137.56L35.54,150.03L35.93,135.49L36.15,158.33L36.27,154.18L36.29,156.26L36.3,160.41L36.68,131.33L37,160.41L37.05,147.95L37.08,125.1L37.39,166.64L37.78,137.56L37.8,150.03L37.94,133.41L38.03,162.49L38.07,158.33L38.07,100.18L38.1,210.24L38.1,79.44L38.82,150.03L38.84,150.03L38.98,131.33L38.98,162.49L39.59,137.56L39.62,141.72L39.85,123.03L40.09,166.64L40.34,141.72L40.38,145.87L40.42,135.49L41.11,166.64L41.16,139.64L41.59,129.26L41.87,160.41L41.93,147.95L41.94,147.95L42.36,131.34L42.55,164.56L42.68,156.25L42.72,147.95L42.96,170.79L43.3,123.03L43.47,145.87L43.51,160.41L43.79,172.86L44.03,125.11L44.25,154.18L44.29,139.64L44.72,181.17L44.91,162.48L44.96,127.18L44.97,123.03L45.42,168.71L45.63,147.95L45.63,160.41L46.15,131.34L46.15,172.86L46.38,154.18L46.42,154.18L46.85,133.42L46.88,162.48L47.17,150.02L47.22,154.18L47.77,164.56L47.83,133.41L47.94,162.48L47.99,145.87L47.99,162.48L48.02,131.34L48.73,162.48L48.75,143.8L48.79,133.42L49.5,164.55L49.53,152.1L49.77,166.63L49.84,125.12L50.28,150.02L50.32,145.87L50.41,170.78L50.85,131.34L51.03,160.4L51.04,131.34L51.81,162.48L51.81,162.48L51.84,133.42L52.31,162.48L52.57,158.33L52.6,135.49L52.64,127.19L53.09,158.33L53.35,147.95L53.36,147.95L53.99,133.42L54.05,164.56L54.08,135.49L54.12,143.8L54.42,129.26L54.51,162.48L54.84,150.02L54.92,158.33L55.42,170.79L55.53,129.26L55.63,154.18L55.7,154.18L55.89,162.48L56.08,133.42L56.41,137.57L56.41,154.18L56.92,135.49L56.98,181.16L57.15,145.87L57.18,158.33L57.56,160.4L57.82,131.34L57.94,154.18L57.95,154.18L58.05,139.64L58.58,160.4L58.68,154.18L58.75,141.72L59,166.63L59.4,129.26L59.46,162.48L59.51,154.18L59.78,185.31L60,110.59L60.26,127.19L60.34,150.02L60.51,139.65L60.53,156.25L60.54,143.8L60.55,156.25L60.57,131.34L60.96,166.63L61.23,150.02L61.26,160.4L61.99,129.26L61.99,158.33L62.02,158.33L62.29,145.87L62.29,160.4L62.29,156.25L62.33,141.72L62.7,131.34L62.77,172.86L63.08,133.42L63.09,133.42L63.38,177.01L63.81,152.1L63.83,141.72L63.89,174.94L64.06,137.57L64.58,147.95L64.59,137.57L65.21,123.04L65.34,170.78L65.36,141.72L65.53,127.19L65.92,166.63L66.11,158.33L66.14,145.87L66.5,168.71L66.56,127.19L66.89,150.02L66.92,154.18L66.97,158.33L67.37,133.42L67.67,147.95L67.69,152.1L68.04,129.27L68.04,166.63L68.41,147.95L68.49,145.87L68.88,135.49L69.25,164.55L69.28,150.02L69.33,120.96L69.77,168.71L69.88,135.49L69.9,160.4L70.13,164.56L70.28,129.26L70.66,139.64L70.68,156.25L71.03,172.87L71.26,116.8L71.34,170.79L71.4,177.02L71.4,181.18L71.44,118.87L72.14,135.49L72.21,145.87L72.38,162.49L72.48,127.18L72.96,158.33L72.99,147.95L73.07,158.33L73.14,137.56L73.57,147.95L73.64,160.41L73.68,172.87L73.7,112.64L74.39,145.87L74.42,141.72L74.47,168.72L74.9,112.64L75.16,145.87L75.19,141.72L75.25,166.64L75.91,123.02L75.91,123.02L76,158.33L76.19,102.23L76.3,185.35L76.75,154.18L76.77,152.1L77.06,120.95L77.51,185.34L77.54,114.71L77.76,162.49L78.29,135.49L78.33,150.03L78.4,156.26L78.97,127.18L79.09,143.79L79.1,154.18L79.26,125.1L79.4,174.95L79.85,135.49L79.89,154.18L80.32,116.78L80.35,166.64L80.61,135.48L80.64,160.41L80.69,118.86L80.77,166.64L81.38,152.1L81.4,143.79L81.52,133.41L81.88,162.49L82.04,145.87L82.07,139.64L82.36,133.41L82.4,164.56L82.74,156.26L82.88,143.79L83.18,133.41L83.24,164.57L83.49,133.41L83.49,129.25L83.87,158.33L84.31,152.1L84.34,143.79L84.57,129.25L84.7,158.34L85.02,145.87L85.05,145.87L85.36,160.41L85.68,129.25L85.7,129.25L85.75,129.25L86.16,206.14L86.17,89.76L86.42,118.86L86.5,125.09L87.07,201.98L87.14,118.85L87.22,158.34L87.22,106.38L87.65,168.72L88.05,156.26L88.1,139.64L88.35,166.65L88.55,131.33L88.85,147.95L88.86,147.95L89.21,133.41L89.32,172.88L89.56,139.64L89.64,141.72L90.14,135.48L90.18,162.49L90.39,145.87L90.4,147.95L90.69,160.41L90.84,127.17L91.02,135.48L91.15,137.56L91.66,127.17L91.89,162.49L91.9,139.64L91.95,139.64L92.41,120.94L92.48,174.96L92.53,120.94L92.97,164.57L93.24,127.17L93.33,143.79L93.42,160.41L93.88,125.1L94.08,147.95L94.1,141.72L94.61,133.4L94.68,164.57L94.86,147.95L94.89,143.79L95.54,131.33L95.63,164.57L95.65,131.33L95.92,131.32L96.33,185.37L96.4,141.71L96.4,129.24L96.45,168.73L97.15,154.18L97.18,139.64L97.87,154.18L97.94,145.87L97.95,147.95L98.28,158.34L98.38,135.48L98.69,143.79L98.72,145.87L98.85,118.86L98.98,170.8L99.47,145.87L99.49,150.03L100.16,179.11L100.22,106.4L100.24,106.4L100.3,162.49L100.44,133.41L100.61,164.57L101.07,150.03L101.09,150.03L101.8,125.1L101.81,170.8L101.87,158.34L101.87,174.95L102.02,123.02L102.61,158.34L102.69,127.17L102.77,123.01L102.79,160.41L103.43,143.79L103.45,143.79L103.87,137.56L103.88,166.65L104.14,162.49L104.19,137.56L104.33,133.4L104.8,160.41L104.93,156.26L104.96,137.56L105.48,160.41L105.7,139.64L105.75,137.56L106.34,166.65L106.35,129.25L106.35,129.25L106.39,129.25L106.67,162.49L107.14,137.56L107.14,133.4L107.4,125.1L107.6,168.72L107.87,139.64L107.94,139.64L108.16,127.17L108.39,172.88L108.57,162.49L108.63,123.02L108.68,160.41L109.37,154.18L109.4,141.72L109.5,162.49L109.51,133.41L109.51,129.25L110.21,179.11L110.24,116.79L110.26,179.11L110.32,150.03L110.39,177.03L110.65,118.86L111.07,131.33L111.13,154.18L111.19,127.17L111.44,164.57L111.73,141.72L111.73,162.49L111.82,127.17L111.87,187.42L112.48,160.41L112.49,139.64L112.86,168.72L112.99,137.56L113.22,158.33L113.29,143.79L113.57,135.49L113.58,158.33L113.96,145.87L113.96,141.72L114.13,133.41L114.23,164.57L114.7,156.26L114.76,164.56L115.32,131.33L115.33,181.18L115.5,137.56L115.57,141.72L115.77,139.64L115.79,172.88L116.34,156.26L116.41,145.87L117.07,127.17L117.13,174.95L117.14,162.49L117.19,150.03L117.26,172.87L117.37,133.41L117.59,158.33L117.59,162.49L117.67,170.8L117.78,135.49L118.28,160.41L118.28,139.64L118.82,127.17L118.84,179.11L118.87,154.18L118.99,160.41L119.57,168.72L119.62,129.25L119.72,135.48L119.81,154.18L119.93,160.41L120.48,137.56L120.56,150.03L120.59,154.18L121.24,172.88L121.31,120.94L121.33,141.72L121.34,166.64L121.51,166.65L121.64,133.41L122.12,139.64L122.16,150.03L122.72,125.09L122.77,179.11L122.91,139.64L122.93,143.79L123.18,133.41L123.64,168.72L123.67,143.79L123.7,145.87L124.23,162.49L124.26,135.49L124.45,145.87L124.47,147.95L124.76,177.03L124.76,118.87L125.18,156.26L125.26,156.26L125.59,160.41L125.73,127.18L126,158.33L126.04,137.56L126.18,168.72L126.2,133.41L126.75,139.64L126.8,156.26L127.23,160.41L127.35,129.25L127.4,141.72L127.43,154.18L127.52,135.48L128.02,166.65L128.17,139.64L128.25,150.03L128.43,125.09L128.52,172.88L128.95,150.03L128.99,166.65L129.28,170.8L129.31,131.33L129.73,139.64L129.77,156.26L130.33,160.41L130.43,135.48L130.52,150.03L130.55,164.57L130.57,168.72L130.64,129.25L131.27,131.33L131.31,162.49L131.48,168.72L131.76,139.64L131.8,154.18L131.8,158.34L131.82,129.25L131.89,172.88L132.55,139.64L132.55,147.95L132.64,125.09L132.81,168.72L133.31,141.72L133.31,154.18L133.54,135.48L133.55,158.34L134.09,137.56L134.09,158.34L134.23,166.65L134.82,131.32L134.88,152.1L135.06,164.57L135.17,131.32L135.6,143.79L135.64,150.03L135.86,164.57L135.89,131.33L136.37,133.4L136.4,137.56L136.85,129.25L137.04,166.65L137.11,141.71L137.18,145.87L137.45,137.56L137.67,156.26L137.84,141.71L137.95,141.71L138.35,133.4L138.36,162.49L138.7,152.1L138.72,147.95L138.92,160.42L139.23,133.4L139.23,133.4L139.25,162.5L139.96,133.4L139.97,158.34L139.97,170.81L140.09,123.01L140.72,147.95L140.75,156.26L141.38,181.2L141.4,120.93L141.52,137.55L141.56,137.55L142.21,131.32L142.24,164.58L142.27,145.87L142.34,154.18L142.83,174.97L143.05,127.16L143.12,166.65L143.15,174.97L143.47,112.61L143.87,137.55L143.91,145.87L144.5,156.26L144.64,133.4L144.65,150.03L144.67,129.24L145.35,164.58L145.42,160.42L145.43,160.42L146.01,133.4L146.21,135.48L146.22,160.42L146.27,131.32L146.97,137.55L147.02,158.34L147.35,123L147.38,172.89L147.75,143.79L147.8,152.11L147.9,162.5L148.51,131.32L148.53,160.42L148.53,168.73L148.55,127.16L149.27,152.11L149.29,152.11L149.54,160.42L149.76,114.7L149.86,150.03L149.95,106.38L149.96,95.98L150.06,174.96L150.73,147.95L150.75,141.71L151.43,166.66L151.48,131.32L151.52,135.48L151.52,125.08L151.57,172.89L152.26,150.03L152.28,150.03L152.93,135.48L152.94,158.34L152.98,158.34L152.99,162.5L153.72,116.77L153.72,116.77L153.87,145.87L154.13,139.63L154.23,160.42L154.3,156.26L154.32,131.32L154.45,158.34L154.91,120.93L155.05,141.71L155.13,139.64L155.34,123.01L155.36,168.73L155.86,166.65L155.89,143.79L155.94,162.5L156.53,131.32L156.62,145.87L156.65,147.95L156.89,120.93L156.92,172.89L157.35,139.63L157.39,141.71L157.7,160.42L157.72,135.48L158.14,147.95L158.15,139.63L158.59,160.42L158.88,131.32L158.88,137.56L158.93,145.87L159.06,162.5L159.11,123.01L159.67,145.87L159.72,150.03L160.12,129.24L160.25,170.81L160.44,143.79L160.49,141.71L160.73,131.32L160.92,164.57L161.23,139.64L161.25,139.64L161.42,164.57L161.52,91.85L161.92,158.34L162.01,154.18L162.56,168.72L162.61,118.86L162.71,123.01L162.72,172.88L162.86,129.25L163.47,143.79L163.48,154.18L163.76,123.02L163.78,172.88L164.23,154.18L164.23,166.65L164.56,168.72L164.73,131.33L165,145.87L165.02,150.03L165.23,129.25L165.63,174.95L165.63,174.95L165.71,133.41L166.06,168.72L166.07,127.17L166.49,143.79L166.52,133.4L167.06,166.65L167.27,156.26L167.33,139.64L167.52,131.33L167.84,164.57L168.08,143.79L168.09,143.79L168.32,135.48L168.7,162.49L168.84,154.18L168.84,137.56L169.51,125.1L169.52,172.88L169.6,164.57L169.68,139.64L169.68,137.56L170.35,179.11L170.42,156.26L170.44,145.87L170.59,131.33L170.77,172.88L171.17,150.03L171.22,164.57L171.5,135.48L171.97,143.79L172.06,143.79L172.44,139.64L172.52,156.26L172.76,145.87L172.83,139.64L173.11,172.88L173.14,123.02L173.53,156.26L173.55,156.26L174.03,135.48L174.22,195.74L174.22,185.35L174.29,177.04L174.57,191.58L174.88,120.94L175.05,141.71L175.08,154.18L175.39,166.65L175.63,139.64L175.81,152.1L175.84,152.1L176.49,127.17L176.5,168.73L176.6,177.04L176.62,125.09L177.33,154.18L177.4,152.1L177.48,164.58L177.82,123.01L178.03,156.26L178.03,164.57L178.17,127.17L178.6,172.88L178.77,145.87L178.79,145.87L178.92,162.49L179.25,133.4L179.46,139.64L179.55,154.18L179.66,164.57L180.25,135.48L180.33,143.79L180.42,183.27L180.58,141.72L180.6,141.72L180.6,129.25L180.78,166.65L181.36,147.95L181.37,143.79L181.63,133.41L181.69,164.57L182.1,152.1L182.13,145.87L182.41,135.48L182.51,158.34L182.53,147.95L182.55,139.64L182.67,131.33L183.01,172.88L183.28,137.56L183.38,143.79L183.4,137.56L183.72,166.65L184.13,141.72L184.14,139.64L184.21,137.56L184.42,170.8L184.84,158.34L184.98,145.87L184.99,162.49L185.26,133.41L185.71,143.79L185.74,143.79L186.33,162.49L186.42,129.25L186.42,137.56L186.45,129.25L186.81,168.72L187.21,137.56L187.22,137.56L187.24,125.1L187.35,164.57L187.95,143.79L187.96,152.1L188.47,158.34L188.6,131.33L188.71,141.72L188.72,145.87L189.04,133.41L189.39,168.72L189.43,154.18L189.49,150.03L189.94,164.57L190.03,131.33L190.24,150.03L190.26,162.49L190.38,185.34L190.59,129.25L191.02,139.64L191.02,147.95L191.12,160.42L191.61,137.56L191.75,152.1L191.79,150.03L192.36,174.96L192.46,125.09L192.54,147.95L192.55,141.72L192.59,129.25L193.22,170.8L193.24,141.72L193.29,133.41L193.48,125.09L193.74,170.8L194.03,156.26L194.09,150.03L194.39,162.49L194.43,133.41L194.83,143.79L194.84,145.87L195.26,125.09L195.27,170.8L195.58,150.03L195.6,141.71L195.75,164.57L196.3,133.4L196.3,133.4L196.36,162.5L196.65,137.56L197.09,147.95L197.16,147.95L197.9,170.81L197.91,125.09L197.92,152.1L198.13,131.32L198.35,168.73L198.64,162.5L198.65,133.4L198.73,129.24L198.94,164.58L199.4,162.5L199.41,143.79L199.46,112.61L199.87,168.74L200.14,145.87L200.17,145.87L200.42,131.32L200.68,156.26L200.93,152.11L200.94,147.95L201,160.42L201.06,135.48L201.66,143.79L201.66,160.42L202.34,162.5L202.43,129.24L202.51,145.87L202.53,131.32L202.68,166.65L203.2,150.03L203.3,150.03L203.65,162.5L203.66,129.24L204.02,158.34L204.07,141.71L204.2,168.73L204.4,116.78L204.79,145.87L204.85,141.71L204.99,154.18L205,129.24L205.61,152.11L205.69,145.87L205.76,131.32L205.78,164.57L206.41,139.64L206.45,139.64L206.46,160.42L206.79,127.17L207.2,154.18L207.22,145.87L207.3,162.49L207.86,127.17L207.92,156.26L208.05,156.26L208.05,164.57L208.13,120.93L208.8,156.26L208.81,156.26L209.06,114.71L209.07,172.88L209.55,158.34L209.59,143.79L209.65,160.42L209.74,114.71L210.33,160.42L210.37,141.71L210.38,170.8L210.6,127.17L211.11,145.87L211.12,141.72L211.64,164.57L211.7,129.25L211.85,135.48L211.9,139.64L212.1,137.56L212.43,166.65L212.64,141.72L212.69,154.18L212.86,160.41L213.16,133.41L213.36,137.56L213.47,141.72L213.51,135.48L213.73,156.26L214.17,143.79L214.22,152.1L214.44,170.8L214.53,125.09L214.96,135.48L215.01,143.79L215.23,170.8L215.36,125.09L215.66,131.33L215.79,154.18L215.9,166.65L215.92,133.4L216.49,162.49L216.5,162.49L216.71,131.32L217.26,152.1L217.26,156.26L217.61,158.34L217.62,137.56L217.99,150.03L217.99,158.34L218.36,137.56L218.47,164.57L218.7,156.26L218.74,154.18L218.94,168.72L219.18,129.25L219.18,150.03L219.2,166.65L219.48,168.72L219.85,135.48L220,147.95L220.02,152.1L220.32,160.41L220.55,131.33L220.63,135.48L220.66,160.41L220.85,164.57L220.87,133.4L221.31,137.56L221.33,158.34L221.54,133.41L221.55,162.49L222.07,152.1L222.09,152.1L222.78,164.57L222.79,131.33L222.83,133.4L222.84,164.57L222.84,170.8L223.38,125.09L223.57,143.79L223.61,145.87L223.89,162.49L223.96,127.18L224.16,145.87L224.17,166.65L224.17,168.72L224.36,137.56L224.92,154.18L224.97,145.87L225.63,135.48L225.69,170.8L225.72,135.48L225.98,133.4L226.04,164.57L226.47,145.87L226.51,145.87L226.55,133.41L226.73,162.49L227.21,154.18L227.32,150.03L227.85,168.73L227.92,112.63L227.92,181.19L227.94,197.81L228.16,120.94L228.67,154.18L228.69,145.87L228.77,168.72L228.91,131.33L229.41,152.1L229.41,135.48L229.45,172.88L229.73,129.25L230.15,147.95L230.22,156.26L230.22,133.4L230.52,168.73L230.95,145.87L230.99,133.41L231.42,133.4L231.64,170.8L231.7,152.1L231.76,139.64L232.14,133.4L232.23,162.49L232.5,139.64L232.52,150.03L232.69,133.4L233.03,162.49L233.14,158.34L233.28,150.03L233.8,133.4L233.91,166.65L234.03,147.95L234.04,141.71L234.18,160.42L234.36,129.25L234.76,160.41L234.76,129.25L235.38,164.57L235.55,141.71L235.59,139.64L235.59,160.42L235.71,135.48L236.34,139.64L236.36,156.26L237.02,177.05L237.02,116.77L237.11,147.95L237.11,168.74L237.49,114.69L237.53,174.97L237.86,154.18L237.89,154.18L237.94,168.73L238.01,125.09L238.64,147.95L238.66,150.03L239.04,120.92L239.22,170.81L239.4,147.95L239.41,168.73L240.05,127.16L240.15,145.87L240.18,145.87L240.85,160.42L240.86,127.16L240.92,141.71L241,133.4L241.38,129.24L241.58,166.66L241.72,133.4L241.78,139.64L241.78,160.42L242.34,123.01L242.51,135.48L242.54,156.26L242.73,172.89L242.77,125.09L243.25,135.48L243.32,154.18L243.82,166.65L244.04,125.08L244.06,133.4L244.1,139.63L244.25,166.65L244.53,110.54L244.82,131.32L244.87,135.48L244.91,160.42L245.63,145.87L245.65,150.03L246.29,172.89L246.37,118.85L246.38,147.95L246.42,118.85L246.43,174.97L247.13,143.79L247.18,139.64L247.4,129.25L247.49,166.65L247.9,150.03L247.95,141.71L248.39,170.81L248.41,123.01L248.7,150.03L248.75,150.03L248.82,135.48L249.16,158.34L249.49,150.03L249.51,150.03L249.99,127.17L250,168.73L250.26,150.03L250.32,150.03L250.45,131.32L250.78,154.18L250.86,150.03L250.89,166.65L251.05,133.4L251.63,152.1L251.7,143.79L252.11,133.4L252.44,158.34L252.47,143.79L252.84,164.57L252.85,129.25L253.15,135.48L253.23,141.71L253.37,158.34L253.41,131.32L253.95,145.87L254.02,145.87L254.32,127.16L254.39,164.58L254.75,158.34L254.76,135.48L254.77,160.42L255.51,139.64L255.52,150.03L255.91,162.5L256.16,131.32L256.19,129.24L256.86,114.69L256.86,179.13L256.94,133.4L256.95,127.16L257.04,110.53L257.37,179.13L257.59,135.48L257.69,143.79L257.78,120.92L257.98,172.89L258.38,143.79L258.41,147.95L258.49,127.16L259.16,164.58L259.16,154.18L259.17,141.71L259.59,160.42L259.65,127.16L259.9,143.79L259.9,152.11L259.98,166.65L260.02,118.85L260.07,166.65L260.07,187.44L260.07,112.62L260.82,170.81L260.83,127.16L260.83,123.01L260.99,172.89L261.57,143.79L261.59,164.57L261.63,127.17L262.32,137.56L262.35,156.26L263.04,162.5L263.12,125.08L263.16,145.87L263.23,174.97L263.56,125.08L263.83,147.95L263.92,145.87L264.21,154.18L264.32,141.71L264.32,158.34L264.61,123.01L264.66,166.65L265.05,152.1L265.12,156.26L265.21,158.34L265.75,129.24L265.86,139.63L266.01,145.87L266.34,123.01L266.39,179.12L266.71,158.34L266.74,139.63L267.09,160.42L267.47,156.26L267.62,150.03L268.1,162.5L268.29,125.09L268.31,164.58L268.31,177.04L268.33,114.69L269.06,145.87L269.07,150.03L269.4,160.42L269.68,125.09L269.8,158.34L269.86,154.18L270.14,123.01L270.26,158.34L270.63,137.56L270.65,152.1L270.82,170.81L270.83,125.09L271.33,137.56L271.46,158.34L272.1,127.17L272.1,168.73L272.2,143.79L272.21,168.73L272.53,187.43L272.53,108.47L272.95,156.26L272.98,156.26L273.16,133.4L273.61,164.57L273.74,141.72L273.76,154.18L274.44,129.25L274.44,168.72L274.5,152.1L274.51,168.72L275.02,129.25L275.25,160.41L275.28,158.33L275.54,164.57L275.89,127.17L276.02,150.03L276.04,154.18L276.64,133.41L276.66,162.49L276.77,154.18L276.8,145.87L277.14,127.18L277.15,177.03L277.56,164.56L277.56,147.95L278.01,177.03L278.05,110.56L278.31,154.18L278.31,137.56L278.62,127.18L278.93,177.03L279.04,143.79L279.13,143.79L279.64,127.18L279.68,168.72L279.86,152.1L279.86,137.56L280.25,179.11L280.29,108.47L280.53,174.95L280.69,143.79L280.82,160.41L280.89,137.56L281.17,139.64L281.18,139.64L281.35,160.41L281.73,131.33L281.93,139.64L281.93,135.48L282.68,164.57L282.68,133.41L283.18,166.65L283.46,147.95L283.47,143.79L283.49,162.49L284.05,135.48L284.17,156.26L284.3,147.95L284.72,131.33L284.78,162.49L285.01,141.72L285.05,152.1L285.55,131.33L285.66,172.88L285.72,164.57L285.83,150.03L286.16,162.49L286.32,123.01L286.37,160.41L286.37,162.49L286.39,133.41L287.1,162.49L287.14,162.49L287.25,164.57L287.32,129.25L287.85,139.64L287.91,152.1L288.1,133.41L288.3,174.95L288.67,141.72L288.67,162.49L288.71,166.65L288.74,129.25L289.39,150.03L289.44,152.1L290.11,129.25L290.16,166.64L290.19,162.49L290.2,162.49L290.57,118.87L290.61,185.34L290.91,156.26L290.96,162.49L291.18,166.65L291.27,127.17L291.6,133.41L291.72,150.03L291.8,129.25L291.85,183.26L292.46,135.48L292.48,162.49L292.49,135.49L292.52,164.57L293.23,147.95L293.24,150.03L293.54,135.48L293.57,162.49L293.96,147.95L293.96,150.03L294.31,118.87L294.36,172.87L294.67,145.87L294.67,164.56L294.68,168.72L294.72,135.49L295.37,145.87L295.42,150.03L295.75,174.95L295.86,125.1L296.18,145.87L296.2,147.95L296.4,187.41L296.58,108.48L296.95,133.41L296.95,166.65L296.98,125.1L297.7,150.03L297.72,145.87L297.95,139.64L298.28,158.33L298.49,152.1L298.51,143.79L298.62,170.8L298.64,120.94L299.23,127.18L299.29,164.57L299.67,137.56L299.93,166.64L300.02,156.26L300.06,156.26L300.11,135.49L300.25,166.64L300.8,150.03L300.82,141.72L301.03,168.72L301.44,127.18L301.57,135.49L301.61,152.1L301.79,129.26L301.81,168.72L302.26,154.18L302.27,154.18L302.27,137.56L302.4,168.72L303,145.87L303.03,150.03L303.13,168.72L303.72,129.25L303.77,162.49L303.83,162.49L304.07,127.18L304.12,168.72L304.47,145.87L304.47,160.41L304.71,133.4L304.73,164.57L305.23,152.1L305.23,154.18L305.25,168.72L305.49,131.33L305.97,141.72L305.99,166.65L306.01,114.71L306.03,183.26L306.74,150.03L306.8,145.87L306.96,129.25L307.45,172.88L307.47,129.25L307.58,143.79L307.69,139.64L308.16,154.18L308.19,152.1L308.19,131.33L308.37,174.96L308.6,118.86L308.94,152.1L308.98,172.88L309.07,177.03L309.1,114.7L309.75,154.18L309.77,154.18L310.18,127.17L310.33,164.57L310.44,143.79L310.5,147.95L311,166.65L311.19,127.17L311.25,135.48L311.3,145.87L311.45,129.25L311.81,162.49L312.03,150.03L312.08,150.03L312.5,125.09L312.79,164.57L312.83,145.87L312.86,150.03L313.04,172.88L313.51,123.01L313.52,147.95L313.52,160.42L313.63,133.4L313.77,166.65L314.27,150.03L314.3,145.87L314.57,120.93L314.62,179.12L314.69,125.09L314.72,125.09L314.79,170.81L315.49,156.26L315.51,147.95L315.53,164.57L316.22,135.48L316.22,135.48L316.27,145.87L316.42,166.65L316.63,127.17L317,143.79L317.04,145.87L317.15,160.42L317.41,133.4L317.77,143.79L317.79,143.79L318.07,156.26L318.12,135.48L318.51,150.03L318.55,137.56L318.92,127.17L319.1,172.88L319.28,133.4L319.33,137.56L319.78,123.02L319.91,166.65L320.08,141.72L320.09,154.18L320.32,172.88L320.34,125.1L320.82,141.72L320.85,145.87L321.33,160.41L321.34,135.48L321.51,147.95L321.51,143.79L321.91,166.65L321.97,120.94L322.26,135.48L322.31,120.94L322.45,162.49L323.05,143.79L323.12,143.79L323.14,166.65L323.65,112.63L323.81,154.18L323.82,170.8L323.94,191.57L324.43,112.63L324.59,154.18L324.61,154.18L324.85,160.41L324.88,125.1L324.88,125.1L324.88,164.57L324.88,177.03L324.9,106.4L325.63,158.33L325.65,164.56L325.82,166.64L325.97,129.26L326.42,145.87L326.43,150.03L326.46,129.26L326.98,172.87L327.14,133.41L327.18,154.18L327.83,118.88L327.85,174.94L327.93,154.18L327.94,154.18L328.32,135.49L328.64,162.48L328.67,150.02L328.73,150.02L329.02,174.94L329.44,118.88L329.45,139.64L329.53,141.72L329.84,127.18L330.03,164.56L330.18,162.48L330.27,131.34L330.28,123.03L330.32,172.87L331.01,141.72L331.08,154.18L331.26,123.03L331.32,177.01L331.8,162.48L331.83,150.02L331.91,131.34L332.04,160.4L332.57,154.18L332.58,154.18L332.58,137.57L332.79,156.25L333.31,156.25L333.35,156.25L333.66,164.56L333.92,131.34L334.08,139.64L334.08,160.41L334.13,120.96L334.58,172.86L334.82,141.72L334.85,141.72L334.92,170.78L335.54,131.34L335.56,137.57L335.57,154.18L335.68,164.55L335.81,135.49L336.24,139.65L336.28,162.48L336.72,85.69L336.72,179.08L337.02,152.1L337.04,170.78L337.6,127.19L337.62,164.55L337.65,164.55L338.08,181.16L338.18,118.89L338.38,154.17L338.48,150.02L338.5,69.1L338.61,191.52L338.88,141.72L338.89,154.17L339,181.14L339.1,118.9L339.59,158.32L339.68,156.25L339.9,162.48L339.98,131.34L340.46,141.72L340.46,154.18L340.51,162.48L340.93,133.42L341.21,147.95L341.23,154.18L341.62,125.11L341.68,164.56L341.91,147.95L342,147.95L342.36,120.96L342.4,174.93L342.68,158.33L342.74,145.87L343.3,131.34L343.3,164.56L343.49,154.18L343.51,145.87L343.95,133.42L344.01,172.86L344.24,141.72L344.24,129.27L344.3,170.78L345.01,154.17L345.03,154.17L345.36,166.63L345.74,135.49L345.74,145.87L345.8,150.02L346.18,127.19L346.43,168.7L346.52,166.63L346.6,141.72L347.23,137.57L347.24,156.25L347.35,150.02L347.37,145.87L347.43,164.55L348.1,135.5L348.13,160.4L348.16,116.82L348.16,183.22L348.86,147.95L348.92,150.02L348.92,158.32L349.14,133.43L349.64,139.65L349.68,139.65L349.77,160.4L350.14,131.35L350.45,150.02L350.45,147.95L350.51,160.4L350.53,137.57L351.17,145.87L351.18,150.02L351.66,164.55L351.68,135.5L351.92,154.17L351.93,141.72L352.2,125.12L352.46,170.77L352.58,152.1L352.58,141.72L352.91,185.31L352.93,129.27L353.33,133.42L353.34,162.48L353.34,168.7L353.67,137.57L354.08,152.1L354.11,152.1L354.31,172.85L354.71,135.5L354.86,145.87L354.9,145.87L355.08,174.92L355.44,129.27L355.62,137.57L355.66,156.25L356.32,170.77L356.36,131.35L356.38,152.1L356.44,152.1L356.71,162.47L357.04,133.42L357.18,150.02L357.2,154.17L357.56,114.75L357.58,185.29L357.92,154.17L358.01,150.02L358.01,137.57L358.31,166.63L358.74,145.87L358.77,150.02L359.2,170.78L359.23,125.12L359.51,147.95L359.51,158.33L359.63,133.42L360.03,164.55L360.15,147.95L360.17,156.25L360.49,127.2L360.84,168.7L360.9,150.02L360.94,168.7L361.44,199.82L361.47,106.44L361.68,147.95L361.7,127.19L361.72,112.67L361.77,174.92L362.4,150.02L362.41,158.32L362.87,129.27L362.89,162.47L363.11,141.72L363.15,145.87L363.69,131.35L363.71,164.55L363.89,152.1L363.91,145.87L364,139.65L364.52,156.25L364.62,147.95L364.63,139.65L364.7,129.27L365.05,160.4L365.37,137.57L365.4,137.57L365.9,168.7L366.01,133.42L366.16,150.02L366.16,141.72L366.48,162.47L366.61,133.42L366.92,147.95L366.95,139.65L367.34,106.45L367.34,183.23L367.63,150.02L367.72,152.1L367.97,154.17L367.98,137.57L368.46,154.17L368.49,154.17L369.01,179.08L369.03,116.82L369.18,160.4L369.21,166.62L369.27,120.97L369.53,177L369.71,177L369.75,177L369.86,187.37L370.37,129.27L370.48,158.32L370.5,156.25L370.92,137.57L370.98,166.62L371.19,158.32L371.26,137.57L371.61,123.05L371.65,193.6L372.02,160.4L372.05,143.8L372.36,168.7L372.67,137.58L372.79,152.1L372.81,137.57L373.31,127.2L373.47,176.99L373.54,145.87L373.58,150.02L373.62,168.7L374.21,135.5L374.32,150.02L374.33,160.4L374.33,168.69L374.74,125.13L375.08,125.13L375.09,164.54L375.17,168.69L375.42,127.2L375.85,152.1L375.97,129.28L376.11,168.7L376.73,156.25L376.74,139.65L376.83,162.47L377.03,131.35L377.27,143.8L377.28,135.5L377.44,162.47L378.03,143.8L378.05,141.72L378.1,133.42L378.17,164.55L378.74,141.72L378.75,156.25L379.07,170.77L379.49,131.35L379.5,131.35L379.51,131.35L379.54,162.47L380.23,158.32L380.29,137.57L380.31,160.4L381.03,145.87L381.05,150.02L381.61,174.92L381.69,123.05L381.79,143.8L381.81,162.47L382.28,166.62L382.5,137.57L382.58,141.72L382.6,154.17L383.23,166.62L383.32,131.35L383.38,139.65L383.41,150.02L383.43,170.77L383.88,129.27L384.13,150.02L384.3,143.8L384.5,170.77L384.51,123.05L385.01,145.87L385.1,152.1L385.24,160.4L385.66,137.57L385.83,141.72L385.86,154.17L385.97,129.27L386.22,164.55L386.6,145.87L386.65,137.57L387.07,129.27L387.09,166.63L387.36,150.02L387.36,158.33L387.87,179.08L387.89,108.51L388.07,143.8L388.1,166.63L388.58,185.32L388.63,110.58L388.83,112.65L388.84,174.94L388.97,112.66L388.98,179.08L389.6,154.18L389.63,145.87L389.67,123.03L389.87,160.41L390.34,158.33L390.35,139.64L390.43,120.96L390.61,160.4L390.89,143.8L390.92,145.87L391.38,127.19L391.41,164.56L391.63,158.33L391.63,137.57L392.28,164.56L392.3,131.34L392.37,137.57L392.39,137.57L392.95,123.03L393,164.56L393.12,147.95L393.14,125.11L393.14,120.96L393.15,179.09L393.86,143.8L393.91,152.1L394.32,177.02L394.43,135.49L394.56,137.57L394.57,158.33L394.6,131.34L394.62,164.56L395.29,141.72L395.33,150.02L395.33,162.48L396.07,131.34L396.09,145.87L396.33,166.64L396.38,129.26L396.72,147.95L396.73,152.1L397.15,174.94L397.27,120.96L397.48,143.8L397.53,145.87L398.24,133.41L398.27,166.64L398.28,164.56L398.31,145.87L398.31,164.56L398.99,135.49L399,135.49" style="vector-effect: non-scaling-stroke; fill: none; stroke: rgb(99, 110, 250); stroke-opacity: 1; stroke-width: 2px; opacity: 1;"/></g><g class="points"/><g class="text"/></g><g class="trace scatter trace0dab4f" style="stroke-miterlimit: 2; opacity: 1;"><g class="fills"/><g class="errorbars"/><g class="lines"><path class="js-line" d="M0,100.19L0.16,162.48L0.17,15L0.79,154.18L0.83,158.33L1.42,129.26L1.58,145.87L1.59,152.1L1.61,133.41L1.89,164.56L2.3,162.49L2.42,143.79L2.54,160.41L2.91,137.56L3.17,158.33L3.19,137.56L3.88,162.49L3.95,139.64L3.96,168.72L4.63,118.87L4.66,123.02L4.69,177.03L4.94,127.18L5.38,160.41L5.49,162.49L5.54,118.86L5.56,177.03L6.22,145.87L6.26,145.87L6.54,139.64L6.77,160.41L6.95,141.72L7.03,154.18L7.07,162.49L7.14,127.17L7.77,158.34L7.78,158.34L7.85,166.64L8.22,125.1L8.48,150.03L8.59,143.79L9.12,131.33L9.18,166.65L9.19,129.25L9.78,154.18L9.81,145.87L9.83,129.25L10,158.33L10.57,150.03L10.65,156.26L10.86,133.41L11.33,160.41L11.34,150.03L11.47,131.33L11.74,164.56L12.22,141.72L12.27,141.72L12.69,125.1L12.75,170.79L13.02,145.87L13.06,154.18L13.16,164.56L13.65,137.56L13.8,150.03L13.82,145.87L13.86,154.18L13.97,133.41L14.51,145.87L14.63,150.03L14.9,135.49L14.99,158.33L15.3,152.1L15.39,143.79L15.59,133.41L16.11,156.26L16.14,156.26L16.17,139.64L16.17,129.26L16.18,166.64L16.91,150.03L16.96,145.87L17.4,160.41L17.42,133.41L17.42,133.41L17.54,133.41L17.61,162.49L18.27,141.72L18.35,137.57L18.41,160.41L18.91,135.49L19.08,150.03L19.11,150.03L19.42,129.26L19.63,170.79L19.82,145.87L19.93,150.03L20,133.41L20.07,162.49L20.62,143.79L20.62,156.26L21.21,129.26L21.23,166.64L21.32,143.79L21.44,154.18L22.07,162.49L22.14,127.18L22.14,135.49L22.2,145.87L22.76,135.49L22.79,162.49L22.91,143.79L22.91,139.64L23,168.72L23.08,127.18L23.64,141.72L23.69,127.18L23.69,120.95L23.83,160.41L24.39,129.26L24.47,129.26L24.78,162.49L25.17,152.1L25.3,152.1L25.55,135.49L25.57,160.41L25.7,137.56L25.72,160.41L25.72,164.56L26.43,129.25L26.48,158.33L26.56,160.41L27.21,141.72L27.34,152.1L27.38,164.57L27.6,135.48L28.08,145.87L28.11,143.79L28.58,135.49L28.77,160.41L28.78,143.79L28.83,137.56L29.31,168.72L29.37,116.79L29.57,150.03L29.59,150.03L29.9,110.55L29.95,181.19L30.32,154.18L30.34,154.18L30.85,135.48L30.88,164.57L31.08,145.87L31.12,145.87L31.48,125.09L31.85,170.8L31.87,152.1L31.94,158.34L32.45,172.88L32.85,127.17L32.85,133.4L32.97,160.42L32.98,127.17L33.01,168.73L33.48,133.4L33.79,152.1L33.83,145.87L33.85,129.25L34.23,162.49L34.56,139.64L34.59,145.87L34.89,127.18L34.91,168.72L35.28,143.79L35.3,164.56L35.44,137.56L35.93,160.41L36.07,154.18L36.29,135.49L36.68,164.56L36.79,158.33L36.84,150.03L37.39,166.64L37.39,129.26L37.57,158.33L37.57,164.56L37.58,166.64L38.07,129.26L38.09,141.72L38.1,83.58L38.22,189.47L38.84,158.33L38.87,145.87L38.98,131.33L39.09,168.72L39.62,158.33L39.66,150.03L39.85,172.87L40.09,129.26L40.4,143.79L40.42,143.79L40.97,162.49L40.97,131.33L41.16,160.41L41.19,143.79L41.58,131.34L41.59,166.63L41.93,156.25L41.94,139.64L42.4,164.56L42.54,131.34L42.68,137.57L42.72,141.72L42.92,125.11L43.27,172.86L43.47,150.02L43.51,135.49L44.02,125.11L44.03,170.79L44.25,150.02L44.29,156.25L44.51,158.33L44.72,114.73L44.91,133.41L44.96,170.79L44.97,172.86L45.42,127.18L45.55,143.8L45.56,139.64L45.67,162.48L46.15,123.04L46.31,150.02L46.36,143.8L46.78,133.42L46.85,162.48L47.1,137.57L47.16,164.56L47.77,131.34L47.89,131.34L47.94,131.34L48.11,164.56L48.72,154.18L48.73,139.64L48.73,129.27L48.79,162.48L49.43,150.02L49.49,139.65L49.77,129.27L49.84,170.78L50.23,143.8L50.26,143.8L50.85,164.56L50.86,131.34L51,145.87L51.03,133.42L51.22,164.56L51.74,162.48L51.81,133.42L52.28,162.48L52.56,137.57L52.57,137.57L52.62,135.49L52.76,162.48L53.29,150.02L53.35,150.02L53.49,133.42L53.99,162.48L54.04,145.87L54.05,131.34L54.42,166.63L54.79,158.33L54.84,152.1L55.46,135.49L55.53,160.41L55.53,166.64L55.62,133.41L56.27,141.72L56.31,141.72L56.88,131.34L56.9,160.4L56.96,137.57L56.97,123.04L57.7,160.4L57.72,137.57L57.73,145.87L57.82,164.55L58.15,135.49L58.45,139.65L58.48,145.87L58.93,160.4L58.93,135.49L58.96,150.02L58.97,133.42L59.22,162.48L59.62,123.04L59.63,183.23L60,185.31L60.05,110.59L60.35,145.87L60.43,150.02L60.53,139.65L60.57,156.25L60.57,164.55L60.96,125.11L61.32,150.02L61.39,152.1L61.99,166.63L61.99,129.26L62.09,135.49L62.18,139.64L62.7,164.56L62.77,123.04L62.92,141.72L63.02,141.72L63.08,162.48L63.38,118.88L63.76,150.02L63.78,145.87L63.89,120.96L64.06,158.33L64.52,145.87L64.54,154.18L65.21,172.86L65.21,123.04L65.29,145.87L65.31,152.1L65.31,125.11L65.51,160.4L66.02,150.02L66.07,154.18L66.56,168.71L66.59,127.19L66.82,143.8L66.83,143.8L66.97,129.27L67.52,158.33L67.57,145.87L67.58,145.87L68.04,166.63L68.04,129.27L68.33,145.87L68.34,139.65L68.88,160.4L68.91,135.49L69.02,143.8L69.04,152.1L69.25,125.12L69.33,174.93L69.77,127.19L69.81,168.71L70.13,131.34L70.56,154.18L70.58,145.87L71.03,123.03L71.26,179.1L71.27,141.72L71.31,141.72L71.45,114.72L71.5,170.79L72.03,156.26L72.14,150.03L72.38,133.41L72.48,168.72L72.85,158.33L72.9,150.03L72.96,137.56L73.12,158.33L73.64,150.03L73.66,162.49L73.69,179.1L74,127.18L74.39,154.18L74.42,145.87L74.47,127.18L74.9,183.26L75.16,162.49L75.19,160.41L75.25,129.25L75.91,174.95L75.91,145.87L76,137.56L76.19,199.9L76.32,120.94L76.75,150.03L76.77,137.56L77.06,174.95L77.51,110.56L77.54,185.34L78,131.33L78.29,160.41L78.33,145.87L78.48,133.41L78.97,168.72L79.08,156.26L79.09,139.64L79.26,170.8L79.4,120.95L79.8,137.56L79.84,158.33L80.27,170.8L80.35,129.25L80.59,160.41L80.61,166.65L80.69,177.03L80.76,118.86L81.34,150.03L81.37,154.18L81.53,164.57L82.12,131.33L82.18,152.1L82.36,162.49L82.37,131.33L82.91,150.03L82.94,150.03L83.24,127.18L83.49,166.64L83.7,145.87L83.7,150.03L83.87,137.56L83.89,158.33L84.45,145.87L84.46,152.1L84.57,166.65L84.7,137.56L85.17,150.03L85.2,143.79L85.22,133.41L85.75,166.65L85.94,162.49L86,152.1L86.16,89.76L86.17,206.14L86.62,120.94L86.64,174.96L86.64,120.94L87.14,208.22L87.39,150.03L87.42,143.79L87.71,177.04L87.93,133.4L88.2,156.26L88.24,150.03L88.35,129.25L88.57,164.57L88.92,152.1L88.95,143.79L89.19,164.57L89.32,118.87L89.72,156.26L89.76,152.1L89.95,131.32L90.01,162.49L90.49,139.64L90.52,145.87L90.62,154.18L90.69,135.48L90.78,145.87L90.8,158.34L90.84,168.72L91.35,131.33L91.54,154.18L91.58,156.26L91.66,168.72L92.14,131.33L92.3,152.1L92.34,152.1L92.41,174.96L92.48,120.94L92.92,152.1L92.93,160.41L92.97,131.33L93.1,172.88L93.65,154.18L93.71,162.49L93.88,170.8L93.96,137.56L94.41,158.34L94.47,137.56L94.68,162.49L94.68,131.33L95.2,150.03L95.25,145.87L95.92,164.57L95.92,131.32L96.01,158.34L96.07,152.1L96.33,102.22L96.4,166.66L96.8,139.64L96.85,156.26L96.91,133.4L96.91,162.49L97.6,152.1L97.65,143.79L98.28,137.56L98.38,160.41L98.46,139.64L98.85,177.04L98.98,120.94L99.16,150.03L99.22,156.26L99.27,166.65L99.32,129.25L99.92,135.48L99.99,156.26L100.16,116.79L100.22,189.5L100.74,135.48L100.77,145.87L101.21,135.48L101.29,158.34L101.49,154.18L101.53,137.56L101.87,120.94L101.88,174.95L102.23,160.41L102.24,131.33L102.77,172.88L102.99,158.34L103,139.64L103.43,164.57L103.79,154.18L103.79,141.71L103.88,129.25L104.19,162.49L104.53,135.48L104.56,152.1L104.67,164.57L104.8,135.48L105.3,145.87L105.33,150.03L105.48,133.41L105.48,164.57L106.06,150.03L106.09,145.87L106.34,129.25L106.35,166.65L106.83,143.79L106.89,143.79L107.4,170.8L107.58,123.02L107.62,133.41L107.66,145.87L108.09,131.33L108.21,162.49L108.24,123.02L108.63,172.88L108.94,141.72L109.07,145.87L109.19,154.18L109.5,133.41L109.5,141.72L109.51,164.57L110.21,116.79L110.24,179.11L110.26,116.79L110.32,139.64L110.39,118.86L110.65,179.11L111.07,145.87L111.13,141.72L111.19,168.72L111.39,127.17L111.73,158.34L111.73,133.41L111.82,170.8L111.87,108.48L112.48,150.03L112.49,143.79L112.86,127.18L113.11,162.49L113.2,145.87L113.22,137.56L113.47,133.41L113.57,160.41L114,145.87L114.03,145.87L114.13,162.49L114.25,131.33L114.7,139.64L114.76,152.1L115.32,172.87L115.33,114.71L115.5,143.79L115.57,156.26L115.77,162.49L115.79,116.79L116.34,139.64L116.41,152.1L117.06,160.41L117.13,120.94L117.14,120.94L117.19,145.87L117.29,131.33L117.37,162.49L117.59,133.41L117.6,131.33L117.67,125.1L117.78,162.49L118.31,137.56L118.37,162.49L118.82,168.72L118.84,116.79L119.06,143.79L119.08,150.03L119.25,129.25L119.29,135.48L119.33,168.72L119.93,135.48L120.09,145.87L120.13,150.03L120.68,137.56L120.72,160.41L120.87,141.72L120.89,156.26L121.24,123.02L121.27,174.95L121.64,166.65L121.65,154.18L121.96,156.26L122.23,137.56L122.39,141.72L122.41,152.1L122.57,164.57L122.77,116.79L123.13,143.79L123.17,152.1L123.61,162.49L123.64,127.18L123.9,156.26L123.95,139.64L124.23,125.1L124.64,164.57L124.67,127.18L124.76,118.87L124.76,177.03L125.28,152.1L125.28,158.33L125.73,170.8L125.75,135.49L126,137.56L126.04,158.33L126.2,168.72L126.48,131.33L126.75,156.26L126.8,139.64L127.23,135.48L127.32,168.72L127.52,150.03L127.56,139.64L127.98,160.41L128.02,129.25L128.28,150.03L128.28,143.79L128.43,170.8L128.52,123.02L129.01,150.03L129.04,150.03L129.28,123.02L129.31,164.57L129.77,139.64L129.84,145.87L130.33,135.48L130.43,160.41L130.55,150.03L130.57,137.56L130.57,127.18L130.64,168.72L131.31,133.41L131.36,133.41L131.82,168.72L131.89,123.02L132.1,160.41L132.15,135.48L132.64,170.8L132.65,125.09L132.89,158.34L132.93,145.87L132.98,127.17L133.16,166.65L133.65,156.26L133.71,150.03L133.8,137.56L134.12,160.42L134.21,158.34L134.23,137.56L134.23,129.25L134.42,170.81L134.95,154.18L135,154.18L135.02,129.25L135.17,166.65L135.73,141.71L135.76,154.18L135.86,131.33L135.89,164.57L136.45,154.18L136.53,150.03L136.85,166.65L137.04,129.25L137.27,150.03L137.29,150.03L137.45,158.34L137.67,139.64L137.97,141.71L138.04,154.18L138.36,133.4L138.4,166.65L138.76,145.87L138.78,158.34L138.88,162.5L139.25,133.4L139.47,137.56L139.52,152.11L139.97,125.08L140.01,172.89L140.27,141.71L140.28,141.71L140.4,168.73L140.6,137.56L141.04,150.03L141.05,145.87L141.32,112.61L141.4,174.97L141.74,160.42L141.81,145.87L142.14,131.32L142.21,164.58L142.45,141.71L142.6,150.03L142.83,118.85L143.15,177.05L143.34,154.18L143.36,170.81L143.47,183.28L143.69,125.08L144.08,154.18L144.12,141.71L144.8,135.48L144.89,162.5L144.91,156.26L144.96,137.55L145.35,131.32L145.4,162.5L145.7,143.79L145.71,139.63L146.14,135.48L146.27,168.74L146.5,164.58L146.51,156.26L147.08,172.89L147.24,135.48L147.31,145.87L147.35,172.89L147.38,123L148.03,158.34L148.09,152.11L148.53,127.16L148.55,168.73L148.85,137.56L148.9,152.11L149.04,133.4L149.53,162.5L149.54,133.4L149.54,131.32L149.96,193.67L150.06,120.93L150.28,154.18L150.33,160.42L150.86,166.65L150.94,133.4L151.11,145.87L151.13,150.03L151.52,170.81L151.57,123L151.82,139.63L151.82,131.32L151.86,168.73L152.56,145.87L152.65,150.03L153,162.5L153.04,133.4L153.36,152.11L153.4,152.11L153.72,133.4L153.72,193.67L154.16,137.55L154.18,152.11L154.23,135.48L154.92,172.89L154.96,139.64L155.34,172.89L155.64,129.24L155.7,141.71L155.73,145.87L155.74,162.5L155.81,131.32L156.48,154.18L156.49,154.18L156.89,174.97L156.89,120.93L157.13,160.42L157.16,160.42L157.7,135.48L157.93,150.03L157.95,150.03L158.4,162.5L158.41,137.56L158.53,141.71L158.54,137.56L159.06,133.4L159.11,177.04L159.28,150.03L159.3,145.87L159.4,133.4L159.45,164.57L159.92,137.56L159.92,127.16L160.19,166.65L160.67,145.87L160.71,150.03L160.76,164.57L160.92,129.25L161.25,160.42L161.26,135.48L161.54,204.04L162.02,143.79L162.08,143.79L162.12,135.48L162.35,158.34L162.44,137.56L162.48,168.73L162.61,177.04L162.72,118.86L163.23,143.79L163.26,137.56L163.76,172.88L163.78,123.02L164.01,143.79L164.04,135.48L164.48,125.1L164.73,168.72L164.78,133.4L164.8,133.4L165.19,120.94L165.58,170.8L165.61,152.1L165.62,143.79L165.63,120.94L166.07,168.72L166.36,160.41L166.4,152.1L166.52,162.49L166.55,133.4L167.15,152.1L167.16,152.1L167.81,164.57L167.84,131.33L167.87,145.87L167.97,145.87L168.18,137.56L168.23,158.34L168.71,154.18L168.75,150.03L168.84,158.34L169.03,131.33L169.47,139.64L169.51,156.26L169.51,170.8L169.52,123.02L170.21,158.34L170.27,152.1L170.35,123.02L170.35,116.79L170.72,164.57L171.15,145.87L171.17,145.87L171.35,133.4L171.5,160.41L171.88,143.79L171.88,135.48L171.94,160.41L172.61,145.87L172.62,139.64L173.11,123.02L173.14,172.88L173.36,143.79L173.42,152.1L173.58,160.42L173.77,133.4L173.77,133.4L173.79,162.49L174.22,100.16L174.49,158.34L174.56,120.94L174.57,104.31L174.88,174.96L175.31,154.18L175.32,154.18L175.39,158.34L175.4,118.85L175.51,145.87L175.57,150.03L175.63,156.26L175.75,137.56L176.27,150.03L176.33,150.03L176.6,118.86L176.62,177.04L177.01,150.03L177.09,145.87L177.13,158.34L177.48,129.24L177.78,152.1L177.8,135.48L178.03,127.17L178.09,166.65L178.59,162.49L178.6,133.4L178.6,123.02L179.25,162.49L179.34,152.1L179.38,150.03L179.46,156.26L179.66,131.33L180.15,135.48L180.16,150.03L180.42,112.63L180.6,162.49L180.83,145.87L180.87,145.87L181.17,135.48L181.37,160.41L181.5,143.79L181.5,139.64L181.63,162.49L181.69,131.33L182.31,154.18L182.31,139.64L182.67,164.57L183.01,123.02L183.06,129.25L183.07,145.87L183.13,127.17L183.8,158.34L183.82,145.87L183.84,145.87L183.94,158.33L184.42,125.1L184.44,143.79L184.52,152.1L185.04,129.25L185.14,160.41L185.24,156.26L185.26,156.26L185.26,162.49L185.27,133.41L186,137.56L186.02,152.1L186.42,166.64L186.57,131.33L186.76,135.49L186.78,135.49L186.81,168.72L186.81,127.17L187.49,145.87L187.56,143.79L187.89,137.56L188.28,160.41L188.34,143.79L188.6,164.57L188.8,129.25L189.09,150.03L189.12,143.79L189.38,127.17L189.67,154.18L189.78,143.79L189.87,143.79L190.29,166.65L190.38,110.55L190.5,154.18L190.59,166.65L190.8,133.4L191.24,139.64L191.26,154.18L191.93,164.57L191.95,131.33L191.96,133.4L192.04,139.64L192.36,120.94L192.46,170.8L192.72,145.87L192.74,129.25L193.22,125.1L193.45,170.8L193.49,131.33L193.53,137.56L193.57,123.02L194.11,162.49L194.24,141.72L194.25,150.03L194.39,133.41L194.43,162.49L194.94,150.03L195,158.34L195.26,170.8L195.27,125.09L195.75,133.4L195.83,152.1L196.3,162.5L196.44,133.4L196.56,150.03L196.58,150.03L196.65,158.34L197.28,129.24L197.31,141.71L197.33,156.26L197.91,125.09L197.91,170.81L198.07,158.34L198.09,150.03L198.64,133.4L198.65,164.58L198.71,154.18L198.73,162.5L198.88,129.24L199.46,183.29L199.59,150.03L199.87,127.16L199.87,168.74L200.34,133.4L200.35,156.26L201,135.48L201.01,160.42L201.06,160.42L201.66,135.48L201.82,137.56L201.86,150.03L202.34,133.4L202.43,166.65L202.57,164.58L202.62,164.58L202.68,129.24L203.36,139.64L203.38,158.34L203.45,168.73L203.65,133.4L204.12,145.87L204.13,168.73L204.21,123.01L204.4,179.12L204.89,154.18L204.91,143.79L205,166.65L205.61,135.48L205.69,141.71L205.76,164.57L205.78,131.32L206.41,156.26L206.45,156.26L206.78,135.48L206.79,168.73L207.2,141.72L207.22,154.18L207.25,166.65L207.3,133.4L207.67,143.79L207.7,160.42L208.13,131.32L208.13,174.96L208.39,133.4L208.47,162.5L209.07,123.02L209.11,172.88L209.21,156.26L209.24,152.1L209.38,183.26L209.65,135.48L209.98,145.87L210.05,141.71L210.1,168.73L210.38,125.09L210.76,143.79L210.81,152.1L210.87,160.41L211.46,135.48L211.55,152.1L211.58,141.72L211.64,131.33L211.66,168.72L212.33,145.87L212.37,143.79L212.43,129.25L212.86,160.41L213.07,158.34L213.13,154.18L213.16,162.49L213.16,133.41L213.82,156.26L213.94,150.03L214.41,170.8L214.54,125.09L214.69,143.79L214.7,152.1L215.23,125.1L215.36,170.8L215.36,170.8L215.39,125.09L215.66,164.57L216.16,158.34L216.21,143.79L216.39,129.25L216.71,164.57L216.95,145.87L216.97,150.03L217.05,135.48L217.61,158.34L217.68,145.87L217.7,150.03L217.71,135.48L217.82,154.18L218.43,150.03L218.46,143.79L218.94,127.18L219.18,166.65L219.2,129.25L219.25,129.25L219.48,168.72L219.5,120.94L220,150.03L220.02,143.79L220.32,135.48L220.55,164.57L220.63,160.41L220.66,135.48L220.82,162.49L220.95,133.41L221.4,160.41L221.48,137.56L221.5,162.49L221.55,133.41L222.22,150.03L222.27,150.03L222.84,125.1L222.88,166.65L223.01,145.87L223.03,145.87L223.38,170.8L223.39,125.09L223.72,135.48L223.8,162.49L223.9,168.72L224.17,127.17L224.56,139.64L224.61,145.87L224.78,125.09L225.15,158.34L225.35,152.1L225.38,143.79L225.6,127.17L225.72,164.57L226.03,145.87L226.04,131.33L226.72,162.49L226.81,160.41L226.82,135.48L227.12,133.41L227.37,162.49L227.6,145.87L227.66,143.79L227.92,183.27L227.94,98.08L228.41,145.87L228.44,150.03L228.44,166.65L228.54,123.02L229.19,154.18L229.29,143.79L229.45,123.01L229.73,166.65L230.01,135.48L230.15,141.71L230.22,162.49L230.32,133.4L230.73,137.56L230.74,158.34L231.08,164.57L231.52,129.25L231.61,125.09L231.84,160.42L232.4,152.1L232.4,135.48L232.8,162.49L233.03,133.4L233.14,150.03L233.28,143.79L233.8,162.49L233.91,129.25L234.03,158.34L234.04,156.26L234.36,166.65L234.72,129.25L234.76,154.18L234.76,166.64L234.98,150.03L235.01,131.33L235.25,166.65L235.38,131.32L235.8,150.03L235.83,145.87L236.06,135.48L236.31,158.34L236.6,156.26L236.6,150.03L236.97,116.77L237.02,179.13L237.33,150.03L237.35,145.87L237.51,181.21L237.53,120.93L237.94,166.65L237.94,127.17L238.01,170.81L238.68,154.18L238.72,154.18L239.04,174.97L239.04,120.92L239.45,141.71L239.48,141.71L240,129.24L240.05,168.74L240.23,158.34L240.29,152.11L240.66,158.34L240.69,137.55L240.8,139.63L240.84,164.58L240.86,168.73L241.58,120.93L241.58,135.48L241.61,160.42L241.64,164.58L242.14,135.48L242.33,137.56L242.34,172.89L242.49,172.89L242.5,154.18L242.73,123.01L242.74,172.89L243.24,152.11L243.25,145.87L243.57,164.57L243.82,129.24L243.82,133.4L243.88,166.65L244.25,129.24L244.53,185.36L244.63,166.65L244.64,170.81L244.72,174.97L244.77,156.26L244.82,133.4L244.82,164.58L245.57,156.26L245.59,150.03L245.66,166.65L245.98,129.24L245.98,166.65L246.37,181.2L246.43,116.77L246.67,150.03L246.73,152.1L247.26,135.48L247.36,160.42L247.38,135.48L247.38,133.4L247.49,129.25L247.5,166.65L248.12,139.64L248.16,143.79L248.39,125.09L248.41,172.88L248.94,150.03L248.97,145.87L249.1,154.18L249.16,137.56L249.7,141.71L249.74,143.79L249.99,168.73L250,127.17L250.34,160.42L250.41,162.5L250.45,164.58L251.05,133.4L251.13,145.87L251.23,141.71L251.24,160.42L251.35,135.48L251.97,145.87L252,145.87L252.11,162.49L252.38,139.64L252.47,143.79L252.47,160.42L252.84,131.32L252.85,166.65L253.15,145.87L253.23,156.26L253.37,137.56L253.41,164.58L253.95,150.03L254.02,150.03L254.39,127.16L254.7,168.73L254.76,158.34L254.77,135.48L254.93,162.5L255.52,156.26L255.56,141.71L255.91,133.4L256.19,168.73L256.31,152.11L256.32,141.71L257.03,123L257.04,185.37L257.06,135.47L257.08,135.48L257.37,116.77L257.44,187.44L257.78,174.97L257.84,174.97L258.19,123L258.59,156.26L258.6,139.63L259.01,166.66L259.16,127.16L259.35,143.79L259.37,154.18L260.07,108.46L260.07,187.44L260.12,141.71L260.16,145.87L260.77,120.93L260.8,174.97L260.92,164.58L260.99,150.03L260.99,123.01L261.06,168.73L261.72,164.58L261.77,145.87L261.78,133.4L262.1,164.58L262.42,160.42L262.51,160.42L263.12,177.05L263.2,118.85L263.25,170.81L263.28,145.87L263.33,135.48L263.58,170.81L264.03,145.87L264.03,143.79L264.36,131.32L264.63,172.89L264.64,141.71L264.66,123.01L265.41,162.5L265.41,152.11L265.49,145.87L265.66,137.56L265.75,166.65L266.21,150.03L266.24,158.34L266.34,172.89L266.39,116.77L266.98,139.63L267.07,139.63L267.76,137.56L267.82,156.26L267.88,139.63L268.31,118.85L268.33,181.2L268.6,143.79L268.65,152.1L269.16,131.32L269.23,164.58L269.35,145.87L269.38,139.63L269.66,170.81L270.06,133.4L270.1,141.71L270.14,172.89L270.87,125.09L270.92,152.1L270.92,160.42L271,162.5L271.03,133.4L271.33,158.34L271.76,143.79L271.79,152.1L272.53,108.47L272.53,187.43L272.53,108.47L272.61,150.03L272.67,174.96L272.93,135.48L273.3,156.26L273.36,139.64L273.5,137.56L273.74,160.42L273.97,141.71L274.02,135.48L274.05,166.65L274.44,123.02L274.77,150.03L274.8,143.79L275.38,164.57L275.54,131.33L275.6,141.72L275.64,131.33L275.8,166.65L276.28,145.87L276.42,150.03L277.12,164.56L277.15,118.87L277.15,125.1L277.23,141.72L277.38,120.95L277.93,168.72L277.96,135.48L278.01,127.18L278.01,118.87L278.05,185.34L278.7,166.64L278.78,133.41L279.23,164.57L279.27,131.33L279.53,143.79L279.55,152.1L279.64,168.72L280.25,116.79L280.26,179.11L280.26,189.5L280.31,116.79L280.97,154.18L281.06,143.79L281.35,135.48L281.73,164.57L281.81,150.03L281.85,154.18L282.13,131.33L282.31,160.41L282.37,152.1L282.43,143.79L282.68,164.57L283.17,129.25L283.18,129.25L283.24,152.1L283.44,133.41L283.64,156.26L283.99,143.79L284.02,152.1L284.06,135.48L284.72,166.65L284.77,141.72L284.78,129.25L285.16,162.49L285.51,143.79L285.55,166.65L285.66,123.02L286.29,156.26L286.31,164.57L286.39,133.41L287.05,152.1L287.09,145.87L287.21,131.33L287.32,166.64L287.83,143.79L287.85,156.26L288.1,162.49L288.3,120.94L288.63,141.72L288.67,141.72L288.71,129.25L288.74,166.65L289.39,143.79L289.44,141.72L290.11,166.64L290.12,129.25L290.19,129.25L290.2,152.1L290.57,177.03L290.61,110.56L290.91,139.64L290.96,150.03L291.27,168.72L291.33,129.25L291.72,145.87L291.73,150.03L291.85,112.63L292.42,162.49L292.48,133.41L292.49,162.49L292.91,131.33L293.24,145.87L293.25,145.87L293.57,133.41L293.63,160.41L293.98,150.03L294.02,150.03L294.35,172.87L294.36,123.02L294.72,160.41L294.79,150.03L294.93,160.41L295.1,133.41L295.54,156.26L295.56,137.56L296.21,118.87L296.31,179.11L296.37,179.11L296.57,116.79L296.57,189.49L297.12,133.41L297.15,152.1L297.19,162.49L297.32,135.48L297.85,135.48L297.94,150.03L298.62,125.1L298.64,174.95L298.68,150.03L298.71,152.1L299.23,168.72L299.29,127.18L299.45,141.72L299.49,152.1L299.67,158.34L299.69,137.56L299.89,154.18L299.89,158.33L300.11,162.49L300.25,129.25L300.63,152.1L300.7,145.87L301.03,127.18L301.04,168.72L301.41,166.64L301.43,133.41L301.81,127.18L301.82,168.72L302.18,145.87L302.19,152.1L302.27,158.33L302.4,137.56L302.4,127.18L303.11,162.49L303.13,133.41L303.18,137.56L303.55,129.25L303.72,166.64L303.93,141.72L303.99,141.72L304.12,127.18L304.4,168.72L304.71,145.87L304.73,131.33L305.25,127.18L305.49,164.57L305.51,154.18L305.52,131.33L306.01,181.19L306.03,112.63L306.23,152.1L306.29,143.79L306.64,168.72L306.64,125.1L307,137.56L307.05,137.56L307.45,123.02L307.47,170.8L307.79,143.79L307.82,143.79L308.37,120.94L308.48,164.57L308.56,145.87L308.59,145.87L308.64,118.86L309.08,181.19L309.33,160.41L309.36,137.56L309.83,164.57L310,133.41L310.06,158.34L310.18,168.72L310.33,131.33L310.81,150.03L310.84,150.03L311,129.25L311.19,170.8L311.59,150.03L311.6,137.56L311.67,133.4L311.86,164.57L312.34,145.87L312.37,145.87L312.5,170.81L312.8,123.01L313.12,162.49L313.13,129.25L313.51,172.88L313.91,152.1L313.92,154.18L314.57,174.96L314.58,120.93L314.68,133.4L314.69,170.81L314.79,125.09L315.46,152.1L315.49,152.1L315.54,127.17L316.22,160.42L316.22,160.42L316.27,150.03L316.33,135.48L316.51,179.12L316.85,158.34L316.85,160.42L317.19,135.48L317.41,164.57L317.62,139.64L317.64,158.34L317.7,135.48L317.72,160.42L318.4,145.87L318.44,143.79L318.92,168.73L319.1,116.78L319.18,154.18L319.2,145.87L319.78,172.88L319.91,125.1L319.95,150.03L319.97,152.1L320.32,123.02L320.34,172.88L320.71,133.41L320.75,145.87L320.88,135.48L321.04,162.49L321.5,150.03L321.5,145.87L321.91,129.25L322.22,172.88L322.26,162.49L322.31,145.87L322.32,127.17L322.46,162.49L323.05,137.56L323.12,160.41L323.48,133.41L323.65,183.26L323.82,154.18L323.86,168.72L323.94,104.32L324.34,183.26L324.55,143.79L324.58,183.26L324.9,189.49L325.1,116.8L325.32,141.72L325.36,174.95L325.65,127.18L326.15,131.33L326.17,156.26L326.22,135.49L326.23,158.33L326.47,135.49L326.47,127.18L326.98,123.03L327.19,162.48L327.26,154.18L327.27,145.87L327.83,177.02L327.85,118.88L327.99,145.87L328.03,145.87L328.64,133.41L328.76,160.41L328.83,150.02L329.02,120.95L329.33,181.17L329.58,141.72L329.59,143.8L329.72,137.57L329.79,160.41L329.79,162.48L330.28,172.87L330.32,123.03L330.51,143.8L330.55,154.18L331.18,133.41L331.19,164.56L331.19,168.71L331.26,174.94L331.29,120.96L331.95,145.87L331.97,145.87L332.19,139.64L332.2,162.48L332.68,145.87L332.71,145.87L333.43,160.41L333.44,135.49L333.46,145.87L333.53,152.1L334.13,129.26L334.13,166.63L334.26,154.18L334.27,137.57L334.58,123.04L334.92,170.78L334.92,133.42L335.03,152.1L335.54,164.55L335.68,131.34L335.68,131.34L335.81,154.18L335.81,160.4L335.85,131.34L336.56,156.25L336.6,133.42L336.72,210.21L336.72,116.82L337.23,150.02L337.24,145.87L337.87,129.27L337.99,172.86L337.99,145.87L338.55,193.59L338.61,102.3L338.72,150.02L338.76,150.02L339,114.75L339.1,177L339.5,139.65L339.52,150.02L339.55,129.27L339.57,170.77L340.25,137.57L340.28,152.1L340.51,133.42L340.93,162.48L341.03,150.02L341.05,150.02L341.62,170.79L341.68,120.96L341.79,143.8L341.91,145.87L342.2,135.49L342.36,164.55L342.36,174.93L342.4,120.96L343.08,145.87L343.13,150.02L343.3,164.56L343.3,131.34L343.77,139.64L343.81,139.64L344.01,123.04L344.24,166.63L344.5,164.55L344.6,143.8L344.71,158.33L344.85,135.49L344.94,141.72L344.95,154.17L345.36,129.27L345.38,166.63L345.7,133.42L345.74,141.72L346.09,162.48L346.43,125.12L346.49,145.87L346.51,150.02L347.23,158.32L347.24,137.57L347.27,158.32L347.45,131.35L348.01,154.17L348.03,156.25L348.16,112.68L348.32,172.85L348.79,145.87L348.79,150.02L348.83,164.55L348.92,137.57L349.54,152.1L349.59,143.8L349.77,135.5L350.14,164.55L350.27,152.1L350.34,150.02L350.45,137.57L350.77,158.32L351.02,150.02L351.09,145.87L351.25,135.5L351.68,160.4L351.83,145.87L351.86,137.57L352.45,125.12L352.47,170.77L352.67,154.17L352.68,154.17L352.89,114.74L353.33,162.48L353.4,141.72L353.47,156.25L353.52,137.57L354.21,139.65L354.23,152.1L354.31,120.98L354.44,162.47L354.98,160.4L355,143.8L355.08,120.97L355.44,166.62L355.74,158.32L355.78,150.02L356.28,162.47L356.31,127.2L356.36,154.17L356.36,164.55L357.1,133.42L357.13,143.8L357.45,166.62L357.58,110.6L357.92,150.02L358.01,141.72L358.01,158.32L358.31,129.27L358.74,152.1L358.77,145.87L359.2,125.12L359.23,170.78L359.51,158.33L359.51,137.57L359.63,162.48L360.03,131.35L360.23,156.25L360.26,125.13L360.95,170.78L360.96,125.12L361.02,145.87L361.09,145.87L361.33,98.14L361.72,185.3L361.75,108.52L362.43,164.55L362.46,143.8L362.56,150.02L362.71,164.55L362.88,125.12L363.3,154.17L363.34,137.57L363.71,131.35L363.72,164.55L364.1,143.8L364.13,150.02L364.7,166.62L364.86,137.57L364.92,154.17L365.37,158.32L365.62,129.27L365.72,141.72L365.75,141.72L365.9,127.2L366.01,162.47L366.5,137.57L366.56,143.8L367.24,170.78L367.27,116.82L367.29,141.72L367.32,141.72L367.34,189.45L367.34,106.45L368.06,145.87L368.1,150.02L368.35,160.4L368.57,137.57L368.85,150.02L368.87,158.32L369.25,174.93L369.6,114.75L369.62,129.27L369.63,145.87L369.86,108.53L370.37,168.7L370.39,150.02L370.4,139.65L370.92,158.32L370.98,129.27L371.15,145.87L371.16,145.87L371.61,172.85L371.65,102.3L371.86,162.47L371.87,133.42L372.02,131.35L372.05,152.1L372.13,139.65L372.17,158.32L372.36,127.2L372.66,162.47L372.92,145.87L372.93,143.8L373.22,129.28L373.28,162.47L373.3,133.42L373.3,166.62L373.31,168.7L373.47,118.9L373.94,154.17L373.99,152.1L374.33,125.13L374.64,168.69L374.74,145.87L374.75,141.73L374.78,123.05L375.08,170.77L375.49,137.57L375.51,137.58L375.97,166.62L376.11,127.2L376.16,139.65L376.18,158.32L376.83,162.47L376.86,133.43L376.93,141.73L376.98,150.02L377.03,164.54L377.48,133.43L377.69,145.87L377.76,150.02L378.1,162.47L378.13,129.28L378.51,141.72L378.52,152.1L378.57,160.4L379.07,125.12L379.24,160.4L379.38,135.5L379.42,131.35L379.49,164.55L380.11,154.17L380.15,143.8L380.29,158.32L380.75,131.35L380.89,152.1L380.95,150.02L381.15,156.25L381.16,133.42L381.39,150.02L381.41,160.4L381.61,120.97L381.64,174.92L382.16,150.02L382.18,150.02L382.28,129.27L382.81,160.4L382.93,152.1L382.96,150.02L383.43,125.12L383.45,170.77L383.7,141.72L383.72,154.17L383.88,166.62L383.9,129.27L384.49,145.87L384.49,160.4L384.51,172.85L384.53,120.98L385.24,135.5L385.31,143.8L385.66,137.57L385.72,160.4L386.05,156.25L386.06,139.65L386.22,131.35L386.22,164.55L386.78,156.25L386.82,139.65L387.07,166.63L387.5,127.19L387.56,154.18L387.61,141.72L387.87,116.81L387.89,187.39L388.36,143.8L388.44,150.02L388.58,110.58L388.89,187.39L389.15,166.64L389.21,135.49L389.24,120.96L389.28,170.79L389.98,154.18L390.04,156.25L390.38,177.01L390.7,135.49L390.78,143.8L390.81,152.1L391.09,131.34L391.38,168.71L391.56,145.87L391.58,145.87L392.02,162.48L392.28,131.34L392.33,160.4L392.37,158.33L392.49,133.42L392.51,166.63L392.95,162.48L392.95,172.86L393.15,116.81L393.21,179.09L393.7,133.41L393.72,152.1L394.23,162.48L394.35,118.87L394.46,145.87L394.51,154.18L394.6,164.56L394.64,131.34L395.25,143.8L395.26,160.41L395.58,137.57L396.01,160.41L396.02,160.41L396.34,166.64L396.37,129.26L396.79,143.8L396.81,152.1L397.15,116.8L397.27,174.94L397.53,152.1L397.57,145.87L398.24,162.48L398.27,129.26L398.31,150.02L398.33,145.87L398.62,131.34L398.99,162.48L399,145.87" style="vector-effect: non-scaling-stroke; fill: none; stroke: rgb(239, 85, 59); stroke-opacity: 1; stroke-width: 2px; opacity: 1;"/></g><g class="points"/><g class="text"/></g><g class="trace scatter trace9fc990" style="stroke-miterlimit: 2; opacity: 1;"><g class="fills"/><g class="errorbars"/><g class="lines"><path class="js-line" d="M0,100.19L0.17,15L0.25,145.87L0.79,141.72L0.83,137.56L1.42,129.26L1.58,145.87L1.58,145.87L1.59,143.79L1.6,145.87L1.89,131.33L2.3,133.41L2.42,143.79L2.54,135.49L3.12,145.87L3.12,141.72L3.12,145.87L3.17,137.56L3.85,141.72L3.88,141.72L4.06,145.87L4.63,118.87L4.66,123.02L4.69,118.87L4.87,145.87L5.2,141.72L5.26,145.87L5.56,118.86L5.97,133.41L6.09,143.79L6.22,145.87L6.77,135.48L6.77,137.56L6.87,141.72L6.91,145.87L7.14,127.17L7.59,145.87L7.64,139.64L7.66,145.87L8.28,125.1L8.39,137.56L8.41,143.79L9.12,145.87L9.12,135.48L9.12,131.33L9.18,129.25L9.89,145.87L9.9,141.72L9.97,141.72L10.14,145.87L10.7,135.49L10.81,141.72L10.84,145.87L11.47,131.33L11.49,141.72L11.65,143.79L11.84,131.33L11.92,145.87L12.19,135.49L12.2,145.87L12.69,125.1L12.94,139.64L12.97,139.64L13.16,131.33L13.64,145.87L13.72,143.79L13.75,143.79L13.79,145.87L13.97,133.41L14.47,145.87L14.51,145.87L14.66,145.87L14.66,143.79L14.76,145.87L14.9,135.49L15.41,139.64L15.47,143.79L15.66,145.87L16.18,129.26L16.3,143.79L16.52,145.87L16.65,129.26L16.8,139.64L16.9,145.87L17.42,133.41L17.61,133.41L17.66,143.79L17.7,145.87L18.11,133.41L18.41,139.64L18.48,143.79L18.56,145.87L19.13,133.41L19.17,141.72L19.27,143.8L19.33,145.87L19.63,125.1L20.01,139.64L20.05,139.64L20.07,133.41L20.67,145.87L20.8,143.79L20.82,143.79L21.08,145.87L21.08,137.56L21.08,135.49L21.21,137.56L21.21,129.26L21.23,129.26L21.24,141.72L21.61,145.87L21.65,129.26L21.98,137.56L22.02,143.79L22.02,145.87L22.14,127.18L22.76,135.49L22.79,135.49L22.88,145.87L23,127.18L23.54,139.64L23.64,141.72L23.69,120.95L23.74,145.87L24.35,145.87L24.37,143.79L24.39,129.26L24.5,145.87L25.08,143.79L25.13,143.79L25.3,143.79L25.35,145.87L25.54,145.87L25.55,135.49L25.55,145.87L25.72,131.33L26.22,145.87L26.32,137.56L26.43,129.25L27.04,145.87L27.11,143.79L27.19,141.72L27.34,137.56L27.38,145.87L27.38,141.72L27.38,131.33L28.13,145.87L28.21,143.79L28.23,143.79L28.6,145.87L28.84,133.41L28.97,137.56L29.02,145.87L29.37,116.79L29.75,137.56L29.8,137.56L29.9,110.55L30.55,145.87L30.57,145.87L30.88,131.33L31.32,145.87L31.34,145.87L31.48,125.09L31.94,137.56L31.99,145.87L32.45,123.01L32.75,127.17L32.78,127.17L33.58,145.87L33.66,143.79L33.66,135.48L33.85,129.25L34.09,145.87L34.44,141.72L34.46,141.72L34.51,145.87L34.91,127.18L35.18,145.87L35.22,145.87L35.48,131.33L35.75,139.64L35.78,145.87L36.08,135.49L36.14,141.72L36.14,145.87L36.68,131.33L36.89,143.79L36.93,143.79L36.93,145.87L37.39,129.26L37.67,145.87L37.7,135.49L38.1,83.58L38.22,145.87L38.47,143.79L38.51,137.56L38.56,145.87L39.09,127.18L39.23,141.72L39.23,143.79L39.48,145.87L39.85,123.03L39.85,123.03L39.89,143.79L39.89,145.87L40.09,129.26L40.6,143.79L40.65,141.72L40.87,145.87L40.97,131.33L41.28,145.87L41.41,139.64L41.41,145.87L41.59,129.26L42.16,141.72L42.17,143.8L42.17,145.87L42.92,125.11L42.96,145.87L43.27,123.03L43.67,137.57L43.72,131.34L43.79,145.87L44.02,125.11L44.47,145.87L44.5,137.57L44.65,114.73L45.23,145.87L45.27,143.8L45.28,143.8L45.42,127.18L45.86,145.87L45.86,139.64L45.86,133.41L46.15,123.04L46.53,145.87L46.59,139.64L46.63,141.72L46.78,133.42L47.09,145.87L47.1,137.57L47.16,131.34L47.23,145.87L47.89,131.34L47.94,131.34L48.62,145.87L48.72,141.72L48.73,139.64L48.73,129.27L49.18,145.87L49.43,145.87L49.49,139.65L49.84,125.12L49.99,145.87L50.23,143.8L50.26,143.8L50.28,145.87L50.85,131.34L51,145.87L51.03,133.42L51.22,131.34L51.33,145.87L51.74,133.42L51.81,133.42L52.39,145.87L52.57,137.57L52.6,135.49L52.63,145.87L52.73,133.42L53.35,145.87L53.36,143.8L53.4,145.87L54.05,131.34L54.08,131.34L54.12,143.8L54.28,145.87L54.42,129.26L54.84,143.8L54.92,137.57L55.53,129.26L55.57,145.87L55.63,137.57L55.7,139.64L55.73,145.87L55.89,133.42L56.41,137.57L56.42,143.8L56.88,131.34L56.92,145.87L56.92,131.34L56.93,131.34L56.97,123.04L57.69,145.87L57.69,143.8L57.7,143.8L57.73,145.87L57.82,131.34L58.45,139.65L58.48,145.87L59.01,129.27L59.22,133.42L59.23,143.8L59.34,145.87L59.78,110.59L59.98,110.59L60,110.59L60.74,145.87L60.78,141.72L60.79,143.8L60.96,125.11L61.05,145.87L61.51,145.87L61.54,145.87L61.99,129.26L62.18,141.72L62.29,145.87L62.77,123.04L63.04,143.8L63.05,139.64L63.06,145.87L63.38,118.88L63.72,145.87L63.75,143.8L63.89,120.96L64.31,145.87L64.5,143.8L64.51,143.8L65.01,145.87L65.08,131.34L65.19,133.42L65.21,123.04L65.29,145.87L65.96,145.87L66.02,145.87L66.59,127.19L66.73,145.87L66.76,145.87L66.97,129.27L67.24,143.8L67.27,145.87L68.04,129.27L68.1,137.57L68.12,137.57L68.88,145.87L68.88,137.57L68.98,145.87L69.33,120.96L69.63,137.57L69.64,127.19L70.38,145.87L70.44,145.87L71.26,116.8L71.26,116.8L71.27,141.72L71.4,145.87L71.45,114.72L71.99,139.64L72.03,139.64L72.48,127.18L72.71,145.87L72.76,139.64L72.78,137.56L72.78,145.87L73.53,145.87L73.54,145.87L73.69,116.79L74.24,143.79L74.34,139.64L74.9,112.64L75.06,145.87L75.08,139.64L75.08,135.49L75.61,127.18L75.85,145.87L75.86,139.64L75.87,139.64L75.91,145.87L76.19,96L76.61,127.17L76.63,141.72L76.75,145.87L77.08,120.95L77.37,143.79L77.39,143.79L77.54,110.56L77.62,145.87L78.09,143.79L78.11,145.87L78.48,133.41L78.87,141.72L78.91,141.72L78.96,145.87L79.4,120.95L79.64,137.56L79.68,141.72L79.78,145.87L80.27,125.1L80.42,145.87L80.44,133.41L80.69,118.86L81.18,145.87L81.21,143.79L81.34,145.87L81.37,141.72L81.52,145.87L81.53,131.33L81.87,145.87L82.29,137.56L82.29,135.49L82.37,131.33L82.98,145.87L82.99,139.64L83.05,139.64L83.09,145.87L83.24,127.18L83.76,143.79L83.78,145.87L84.51,135.48L84.56,145.87L84.57,129.25L85.3,145.87L85.31,145.87L85.75,129.25L86,143.79L86.03,143.79L86.16,89.76L86.35,145.87L86.69,127.17L86.72,127.17L87.14,87.68L87.39,145.87L87.52,143.79L87.52,133.4L87.71,118.86L88.28,145.87L88.28,139.64L88.3,139.64L88.3,145.87L88.35,129.25L89.05,145.87L89.1,137.56L89.32,118.87L89.87,145.87L89.87,145.87L89.89,145.87L89.95,131.32L90.63,145.87L90.68,145.87L90.84,127.17L91.43,143.79L91.44,145.87L91.66,127.17L92.17,135.48L92.22,145.87L92.41,131.33L92.41,135.48L92.41,120.94L93.1,145.87L93.21,133.4L93.24,127.17L93.88,125.1L94.03,145.87L94.03,139.64L94.08,141.72L94.2,145.87L94.68,131.33L94.68,133.41L94.78,145.87L95.33,133.4L95.53,137.56L95.54,137.56L95.63,145.87L95.92,131.32L96.28,137.56L96.31,139.63L96.33,102.22L96.6,145.87L97.04,143.79L97.07,143.79L97.18,139.64L97.38,145.87L97.82,145.87L97.84,145.87L98.54,135.48L98.59,145.87L98.61,145.87L98.85,118.86L99.34,141.72L99.38,133.41L99.44,145.87L100.12,123.02L100.14,123.02L100.22,106.4L101.02,145.87L101.05,143.79L101.21,135.48L101.57,145.87L101.72,139.64L101.72,133.41L101.87,120.94L102.3,145.87L102.47,141.72L102.52,145.87L102.77,123.01L103.26,143.79L103.31,143.79L103.54,145.87L103.9,129.25L104.05,141.72L104.05,143.79L104.33,145.87L104.67,131.33L104.67,143.79L104.71,145.87L105.48,131.33L105.58,137.56L105.67,135.48L106.31,145.87L106.33,141.72L106.33,135.48L106.43,145.87L106.49,129.25L107.05,143.79L107.08,141.71L107.58,123.02L107.82,145.87L107.82,141.72L107.84,141.72L107.85,145.87L108.24,123.02L108.57,137.56L108.63,123.02L109.46,145.87L109.46,145.87L109.48,145.87L110.26,116.79L110.32,139.64L110.41,145.87L110.65,116.78L111.07,145.87L111.13,141.72L111.19,127.17L111.66,145.87L111.75,131.33L111.75,127.17L111.83,123.02L111.84,143.79L111.87,112.63L111.87,108.48L112.23,145.87L112.61,145.87L112.63,145.87L112.86,127.18L113.39,139.64L113.44,137.56L113.52,145.87L114.13,133.41L114.14,143.79L114.18,139.64L114.23,131.33L114.48,145.87L114.93,145.87L115.03,145.87L115.33,114.71L115.77,125.1L115.79,125.1L115.79,116.79L115.89,145.87L116.53,145.87L116.55,145.87L116.8,145.87L116.8,145.87L116.82,139.64L117.13,120.94L117.27,145.87L117.58,141.72L117.59,141.72L117.67,125.1L117.85,145.87L118.31,137.56L118.37,133.41L118.84,116.79L119.17,145.87L119.17,145.87L119.18,133.41L119.33,127.18L119.55,145.87L119.93,135.48L119.96,137.56L120.48,145.87L120.62,141.72L120.63,137.56L121.19,129.25L121.23,145.87L121.23,127.17L121.31,120.94L121.4,145.87L121.83,141.72L121.9,141.72L122.23,137.56L122.39,145.87L122.42,137.56L122.43,127.17L122.66,145.87L122.77,116.79L123.18,133.41L123.2,133.41L123.34,145.87L123.64,127.18L123.95,139.64L124,139.64L124.05,145.87L124.7,120.94L124.72,120.94L124.76,120.94L124.76,118.87L124.85,145.87L125.51,145.87L125.55,141.72L125.61,145.87L125.73,125.1L126.23,145.87L126.29,145.87L126.48,131.33L127,145.87L127.08,137.56L127.32,127.18L127.89,145.87L127.9,145.87L128.52,123.02L128.65,141.72L128.66,137.56L128.93,145.87L129.28,123.02L129.35,145.87L129.42,143.79L129.59,137.56L130.03,145.87L130.1,143.79L130.1,141.72L130.33,135.48L130.55,145.87L130.57,137.56L130.57,127.18L131.26,145.87L131.31,133.41L131.36,133.41L131.42,145.87L131.89,123.02L132.1,135.48L132.15,135.48L132.24,145.87L132.64,125.09L132.89,137.56L132.93,145.87L132.98,127.17L133.65,139.64L133.71,145.87L134.42,125.09L134.53,137.56L134.53,145.87L135.17,129.25L135.22,145.87L135.9,131.33L135.98,141.71L136.01,141.71L136.13,145.87L136.57,131.32L136.73,137.56L136.74,145.87L137.05,129.25L137.47,143.79L137.59,143.79L137.63,145.87L138.29,139.64L138.3,145.87L138.33,145.87L138.4,129.25L139.07,139.63L139.09,145.87L139.52,133.4L139.84,143.79L139.87,143.79L140.01,123.01L140.1,145.87L140.37,137.56L140.4,127.16L141.15,145.87L141.15,143.79L141.16,137.56L141.2,145.87L141.32,112.61L141.91,137.56L141.92,137.56L142.14,131.32L142.6,145.87L142.67,143.79L142.69,141.71L142.73,145.87L142.83,118.85L143.42,145.87L143.46,145.87L143.47,112.61L144.2,145.87L144.25,143.79L144.5,135.48L144.87,145.87L144.89,135.48L145.16,145.87L145.35,131.32L145.63,139.63L145.65,139.63L145.93,145.87L146.27,127.16L146.3,143.79L146.38,145.87L146.5,131.32L147.03,137.55L147.03,145.87L147.38,123L147.49,145.87L147.53,145.87L147.89,143.79L147.9,133.4L148.53,127.16L148.7,145.87L148.72,135.48L148.72,145.87L149.03,133.4L149.47,145.87L149.49,145.87L149.96,102.23L150.22,137.56L150.28,145.87L150.86,129.24L151.01,145.87L151.05,145.87L151.43,129.24L151.48,131.32L151.52,145.87L151.57,123L152.26,145.87L152.28,145.87L152.94,135.48L152.96,145.87L152.98,145.87L153.72,102.23L153.87,145.87L154.03,145.87L154.05,141.71L154.06,145.87L154.32,131.32L154.79,143.79L154.81,139.63L154.92,123.01L155.17,145.87L155.56,145.87L155.58,145.87L155.64,129.24L156.29,135.48L156.36,141.71L156.47,145.87L156.89,120.93L157.01,137.55L157.1,145.87L157.74,135.48L157.83,145.87L157.88,145.87L158.4,133.4L158.62,137.56L158.63,145.87L159.11,118.86L159.4,133.4L159.42,139.63L159.49,145.87L159.92,127.16L160.12,145.87L160.19,145.87L160.19,129.24L160.92,129.25L160.97,137.56L161.2,145.87L161.52,91.85L161.72,143.79L161.74,145.87L162.12,135.48L162.28,145.87L162.32,145.87L162.72,118.86L163.09,133.4L163.1,145.87L163.78,123.02L163.85,141.72L164.05,127.17L164.33,145.87L164.46,143.79L164.48,125.1L165.16,145.87L165.19,120.94L165.27,143.79L165.29,133.41L165.47,145.87L165.63,120.94L165.99,143.79L166.01,143.79L166.07,127.17L166.2,145.87L166.62,143.79L166.66,143.79L166.8,135.48L167.37,145.87L167.37,137.56L167.4,135.48L167.79,131.33L168.07,145.87L168.16,139.64L168.17,139.64L168.32,145.87L168.76,133.4L168.89,141.72L168.92,145.87L169.52,123.02L169.6,145.87L169.68,127.17L169.86,145.87L170.35,116.79L170.42,141.72L170.44,145.87L170.82,123.01L171.15,145.87L171.17,145.87L171.35,133.4L171.91,135.48L171.94,143.79L171.94,135.48L172.08,145.87L172.69,143.79L172.7,143.79L173,145.87L173.05,131.33L173.09,131.33L173.09,127.17L173.14,123.02L173.19,145.87L173.75,133.4L173.77,143.79L173.81,145.87L174.22,100.16L174.49,137.56L174.56,120.94L174.57,104.31L174.72,145.87L175.31,141.71L175.32,141.71L175.4,118.85L175.8,145.87L176.01,141.71L176.1,141.71L176.39,145.87L176.49,127.17L176.5,127.17L176.6,118.86L176.84,145.87L177.33,133.4L177.4,143.79L177.48,129.24L177.97,145.87L178.03,143.79L178.03,135.48L178.06,145.87L178.6,123.02L178.77,145.87L178.79,145.87L179.25,133.4L179.59,137.56L179.6,145.87L179.66,131.33L180.03,143.79L180.06,143.79L180.08,145.87L180.42,112.63L180.82,137.56L180.83,145.87L181.17,135.48L181.17,135.48L181.34,145.87L181.69,131.33L182.06,135.49L182.1,143.79L182.41,135.48L182.49,145.87L182.59,141.72L182.59,133.41L182.64,145.87L183.01,123.02L183.28,137.56L183.38,145.87L183.72,129.25L184.13,145.87L184.14,139.64L184.25,145.87L184.42,125.1L184.52,143.79L184.54,145.87L185.04,129.25L185.27,133.41L185.33,133.41L186,145.87L186.06,141.72L186.15,137.56L186.3,139.64L186.3,133.41L186.33,133.41L186.42,129.25L186.51,145.87L186.81,127.17L187.15,137.56L187.18,139.64L187.24,145.87L187.31,127.18L187.89,137.56L187.95,143.79L188.57,145.87L188.6,133.41L188.6,131.33L188.77,145.87L188.8,129.25L189.35,131.33L189.38,131.33L189.38,127.17L189.42,145.87L190.09,141.72L190.14,143.79L190.16,145.87L190.38,110.55L190.8,133.4L190.8,145.87L191.63,137.56L191.65,145.87L192.38,120.94L192.42,141.72L192.46,125.09L192.53,145.87L193.17,145.87L193.18,145.87L193.57,123.02L193.93,145.87L193.97,145.87L194.43,133.41L194.72,145.87L194.76,143.79L195.05,145.87L195.16,133.4L195.24,133.4L195.24,129.25L195.26,125.09L195.92,145.87L196,139.64L196.04,139.64L196.3,133.4L196.61,145.87L196.76,139.63L196.77,137.56L196.84,145.87L197.28,129.24L197.51,141.71L197.54,141.71L197.9,125.09L198.3,145.87L198.3,137.56L198.35,145.87L198.88,129.24L198.97,137.56L199.03,145.87L199.15,137.56L199.25,145.87L199.25,129.24L199.46,112.61L200.03,145.87L200.06,135.47L200.34,133.4L200.7,145.87L200.7,137.56L200.83,139.63L201,135.48L201.44,145.87L201.48,139.63L201.66,143.79L201.86,145.87L202.34,133.4L202.41,139.63L202.43,129.24L203.14,145.87L203.2,143.79L203.3,145.87L203.91,127.17L204.02,137.56L204.07,145.87L204.4,116.78L204.79,141.71L204.85,137.56L205,129.24L205.47,145.87L205.58,139.64L205.61,135.48L205.76,131.32L206.4,145.87L206.41,143.79L206.41,139.64L206.79,127.17L207.06,145.87L207.11,141.72L207.2,141.72L207.25,129.25L207.84,145.87L207.84,139.64L207.86,135.48L208.13,120.93L208.25,145.87L208.6,133.4L208.64,141.71L209.06,145.87L209.11,123.02L209.3,145.87L209.34,145.87L209.38,112.63L210.09,129.25L210.1,129.25L210.22,145.87L210.38,125.09L210.83,141.71L210.86,137.56L211.01,145.87L211.46,135.48L211.59,137.56L211.64,131.33L211.66,127.18L211.97,145.87L212.37,141.72L212.4,141.72L212.43,129.25L212.71,145.87L213.14,137.56L213.16,137.56L213.16,133.41L213.2,145.87L213.82,139.64L213.94,145.87L214.54,125.09L214.73,141.71L214.76,141.72L215.23,125.1L215.29,145.87L215.33,139.64L215.36,125.09L216.12,145.87L216.16,141.71L216.16,137.56L216.39,129.25L216.95,145.87L216.95,145.87L216.97,145.87L217.05,135.48L217.35,143.79L217.43,145.87L217.71,135.48L218.05,145.87L218.17,145.87L218.48,131.33L218.85,135.49L218.94,143.79L219.17,145.87L219.5,120.94L219.69,141.72L219.7,141.72L219.75,145.87L220.25,133.41L220.43,139.64L220.47,143.79L220.53,145.87L220.55,131.33L221.06,137.56L221.14,145.87L221.55,133.41L221.84,141.72L221.9,141.72L221.93,145.87L222.13,135.48L222.58,137.56L222.69,141.72L222.83,145.87L223.39,125.09L223.4,145.87L223.46,139.64L223.54,145.87L223.96,127.18L224.06,141.72L224.09,145.87L224.78,125.09L224.87,137.56L224.88,137.56L225.52,135.48L225.57,145.87L225.6,137.56L225.6,127.17L226.29,145.87L226.34,139.64L226.4,139.64L226.55,133.41L227.12,145.87L227.16,141.72L227.16,139.64L227.37,133.41L227.6,145.87L227.76,135.48L227.76,131.33L227.94,98.08L228.44,145.87L228.47,135.48L228.54,127.17L228.54,123.02L228.55,145.87L229.29,143.79L229.32,143.79L229.43,145.87L229.46,123.01L230.01,135.48L230.15,141.71L230.32,133.4L230.4,145.87L230.82,145.87L230.83,145.87L231.52,129.25L231.61,125.09L232.35,145.87L232.4,143.79L232.4,135.48L232.69,133.4L233.14,145.87L233.28,143.79L233.41,145.87L233.91,129.25L234.03,137.56L234.04,139.64L234.36,129.25L234.7,145.87L234.76,141.72L234.76,129.25L235.36,145.87L235.36,141.71L235.36,131.32L235.74,145.87L236.07,135.48L236.16,141.71L236.31,137.56L236.91,145.87L236.91,141.71L236.91,137.56L237.33,145.87L237.49,114.69L237.61,133.4L237.67,139.63L237.8,118.85L237.83,145.87L238.38,133.4L238.43,133.4L238.67,145.87L239.04,120.92L239.14,133.4L239.18,131.32L239.26,120.93L239.9,145.87L239.94,141.71L239.99,135.48L240.05,127.16L240.08,145.87L240.73,145.87L240.8,145.87L240.86,127.16L241.46,139.63L241.58,131.32L241.58,120.93L241.65,145.87L242.33,137.56L242.34,123.01L242.49,123.01L242.5,141.71L242.72,145.87L242.74,123.01L243.24,143.79L243.25,145.87L243.88,118.85L243.97,141.71L244.04,145.87L244.53,110.54L244.77,139.63L244.82,133.4L244.82,131.32L245.08,145.87L245.57,139.63L245.59,145.87L246.28,125.09L246.29,139.64L246.37,114.69L246.38,145.87L247.02,145.87L247.05,145.87L247.5,129.25L247.8,141.71L247.81,141.71L247.87,145.87L248.41,123.01L248.56,141.71L248.59,137.56L248.82,135.48L249.36,145.87L249.41,141.71L249.86,145.87L249.94,129.24L249.98,139.64L249.99,127.17L250.8,145.87L250.86,145.87L251.1,133.4L251.6,141.71L251.63,143.79L251.79,143.79L251.82,145.87L252.11,133.4L252.11,133.4L252.12,145.87L252.85,129.25L252.89,143.79L252.89,145.87L253.41,131.32L253.61,143.79L253.66,145.87L254.39,127.16L254.4,143.79L254.6,145.87L254.7,127.16L255.09,145.87L255.16,145.87L255.64,135.48L255.77,145.87L255.83,145.87L256.57,120.92L256.59,139.63L256.67,141.71L256.8,145.87L257.44,108.45L257.5,112.61L258.33,145.87L258.36,143.79L258.36,139.63L258.98,145.87L259.01,129.24L259.01,131.32L259.09,133.4L259.65,123.01L259.83,145.87L259.85,143.79L259.87,143.79L260.07,108.46L260.16,145.87L260.56,143.79L260.62,143.79L260.66,145.87L260.8,120.93L261.09,137.56L261.16,141.71L261.16,145.87L261.63,127.17L261.88,137.56L261.93,141.71L262.06,145.87L262.1,131.32L262.68,137.56L262.68,145.87L263.12,118.85L263.4,135.48L263.47,137.56L263.58,125.08L263.74,145.87L264.17,143.79L264.2,143.79L264.25,145.87L264.66,123.01L264.95,143.79L265.04,145.87L265.75,129.24L265.8,133.4L265.81,145.87L266.39,116.77L266.55,141.71L266.57,145.87L266.71,137.55L266.92,139.63L266.97,145.87L267.72,139.63L267.75,139.63L268,145.87L268.33,114.69L268.47,127.17L268.5,139.64L268.55,145.87L269.23,131.32L269.26,135.48L269.26,145.87L269.66,125.09L270.01,145.87L270.05,143.79L270.15,123.01L270.18,145.87L270.8,131.32L270.81,141.71L270.87,125.09L270.88,145.87L271.46,137.56L271.53,137.56L271.93,145.87L272.1,127.17L272.2,139.64L272.21,127.17L272.53,108.47L272.91,145.87L272.98,143.79L273.09,141.71L273.09,145.87L273.18,135.48L273.84,143.79L273.85,143.79L274.05,129.25L274.44,145.87L274.44,139.64L274.44,123.02L275.18,145.87L275.2,135.49L275.25,135.49L275.44,145.87L275.8,129.25L275.97,141.72L276.02,141.72L276.02,145.87L276.2,133.41L276.77,139.64L276.8,145.87L277.15,118.87L277.6,133.41L277.63,143.79L277.87,145.87L278.01,118.87L278.04,139.64L278.04,118.87L278.09,110.56L278.21,143.79L278.7,129.26L278.78,133.41L278.78,145.87L279.23,131.33L279.53,143.79L279.55,143.79L279.64,127.18L279.77,145.87L280.06,135.48L280.06,131.33L280.26,106.4L280.79,145.87L280.81,137.56L280.82,139.64L281.18,145.87L281.3,135.48L281.55,135.48L281.58,143.79L281.73,131.33L281.93,145.87L281.93,135.48L281.99,135.48L282.13,141.72L282.13,131.33L282.25,135.48L282.26,143.79L282.35,145.87L282.76,131.33L282.82,145.87L282.89,145.87L283.18,129.25L283.64,139.64L283.74,143.79L283.92,145.87L284.34,135.48L284.49,143.79L284.52,143.79L284.72,129.25L285.14,145.87L285.15,143.79L285.16,133.41L285.66,123.02L285.93,145.87L285.95,145.87L286.31,131.33L286.7,145.87L286.71,145.87L287.32,129.25L287.43,145.87L287.5,141.72L287.7,133.41L288.04,145.87L288.04,139.64L288.06,133.41L288.3,120.94L288.67,145.87L288.78,139.64L288.86,139.64L288.95,145.87L289.19,129.25L289.61,145.87L289.67,145.87L289.94,145.87L289.94,145.87L289.94,143.79L290.27,145.87L290.61,110.56L290.69,145.87L290.72,145.87L291.27,127.17L291.37,135.48L291.39,143.79L291.6,133.41L291.72,145.87L291.8,145.87L291.85,123.02L291.85,112.63L292.02,145.87L292.57,143.79L292.67,145.87L292.92,131.33L293.43,143.79L293.48,143.79L293.57,133.41L294.16,145.87L294.19,139.64L294.19,135.48L294.35,123.02L294.79,145.87L294.93,135.49L294.97,143.79L295.1,133.41L295.45,145.87L295.54,139.64L295.56,137.56L295.6,145.87L295.91,116.79L296.27,120.94L296.29,141.72L296.4,145.87L296.57,106.4L296.98,125.1L297.07,145.87L297.19,133.41L297.82,145.87L297.83,145.87L297.85,135.48L298.52,143.79L298.54,143.79L298.64,120.94L298.68,145.87L299.29,137.56L299.3,143.79L299.41,131.33L299.45,145.87L299.49,143.79L299.55,145.87L300.25,129.25L300.3,145.87L300.31,145.87L301.03,127.18L301.06,133.41L301.07,145.87L301.44,127.18L301.82,127.18L301.85,143.79L301.9,145.87L302.4,127.18L302.55,143.79L302.61,145.87L303.13,127.18L303.25,145.87L303.3,145.87L304.07,127.18L304.12,127.18L304.88,145.87L304.88,143.79L304.99,145.87L305.68,125.1L305.71,135.48L305.77,145.87L306.03,112.63L306.29,143.79L306.3,143.79L306.42,145.87L306.64,125.1L307.05,137.56L307.07,145.87L307.45,123.02L307.69,139.64L307.77,143.79L308.16,137.56L308.18,145.87L308.19,141.72L308.19,131.33L308.33,145.87L308.64,118.86L308.89,139.64L308.91,145.87L309.08,114.71L309.66,145.87L309.69,145.87L310.19,127.17L310.33,131.33L310.34,145.87L310.56,133.41L310.79,143.79L310.81,145.87L311.19,125.09L311.45,133.4L311.49,143.79L311.86,131.33L312.08,145.87L312.09,143.79L312.14,137.56L312.71,145.87L312.8,123.01L312.86,129.25L312.95,141.71L313.07,145.87L313.51,123.01L313.66,139.64L313.71,141.71L313.77,129.25L314.43,145.87L314.45,143.79L314.5,145.87L314.58,120.93L315.16,135.48L315.22,143.79L315.43,143.79L315.43,145.87L315.54,127.17L316.2,137.56L316.21,145.87L316.51,116.78L316.95,145.87L317,145.87L317.41,131.32L317.77,139.64L317.79,143.79L317.95,145.87L318.55,129.25L318.56,141.71L318.57,143.79L318.63,145.87L319.1,116.78L319.33,135.48L319.37,135.48L319.78,123.02L320.1,145.87L320.14,141.72L320.17,137.56L320.17,145.87L320.32,123.02L320.88,135.48L320.94,145.87L321.54,131.33L321.69,137.56L321.72,137.56L321.86,129.25L322.18,145.87L322.22,129.25L322.22,123.02L322.83,145.87L322.95,139.64L322.99,139.64L322.99,145.87L323.65,112.63L323.73,129.25L323.76,143.79L323.81,145.87L323.94,104.32L324.5,145.87L324.51,145.87L324.58,112.63L324.72,139.64L324.74,145.87L324.91,106.4L325.44,139.64L325.49,145.87L325.63,127.18L326.23,137.56L326.25,145.87L326.98,123.03L326.98,145.87L327.02,145.87L327.71,125.11L327.71,125.11L327.71,145.87L327.85,118.88L328.45,143.8L328.48,143.8L328.83,145.87L328.92,131.34L328.94,131.34L328.97,125.11L329.33,114.73L329.71,145.87L329.73,137.57L329.77,139.64L329.84,145.87L330.33,123.03L330.49,127.18L330.51,143.8L330.61,145.87L331.26,120.96L331.26,145.87L331.29,120.96L332,145.87L332.02,143.8L332.2,133.42L332.25,145.87L332.58,137.57L332.96,141.72L333.01,145.87L333.66,131.34L333.79,133.41L333.86,145.87L334.13,129.26L334.46,133.42L334.5,145.87L334.58,123.04L335.24,143.8L335.27,141.72L335.46,145.87L335.68,131.34L335.68,131.34L335.81,141.72L335.85,131.34L336.06,145.87L336.56,139.65L336.6,133.42L336.72,85.69L337.3,145.87L337.38,141.72L337.39,131.34L338.08,114.73L338.09,145.87L338.11,125.11L338.16,116.81L338.49,145.87L338.5,143.8L338.55,102.3L339.35,145.87L339.35,139.65L339.39,143.8L339.57,125.12L340.09,145.87L340.1,143.8L340.11,133.42L340.84,145.87L340.88,143.8L340.88,137.57L340.93,133.42L341.56,145.87L341.61,143.8L341.62,125.11L341.68,120.96L341.69,145.87L342.36,120.96L342.4,120.96L343.15,145.87L343.18,133.42L343.25,143.8L343.43,145.87L344.01,123.04L344.01,131.34L344.09,123.04L344.82,145.87L344.84,139.65L344.85,135.49L344.89,145.87L345.36,129.27L345.6,143.8L345.65,141.72L345.74,145.87L346.09,133.42L346.31,137.57L346.34,145.87L346.43,125.12L347.09,145.87L347.16,139.65L347.3,145.87L347.45,131.35L347.75,141.72L347.76,145.87L348.16,112.68L348.51,145.87L348.54,145.87L348.83,141.72L348.83,131.35L349.13,145.87L349.61,139.65L349.64,139.65L350.14,131.35L350.34,145.87L350.36,141.72L350.45,141.72L350.45,137.57L350.64,145.87L351.18,145.87L351.21,137.57L351.21,145.87L351.25,135.5L351.96,143.8L351.97,135.5L352.09,145.87L352.2,125.12L352.71,145.87L352.75,145.87L352.89,114.74L353.47,141.72L353.5,141.72L353.52,137.57L353.62,145.87L354.23,139.65L354.27,139.65L354.31,120.98L354.35,145.87L355.01,143.8L355.04,145.87L355.08,120.97L355.79,145.87L355.8,145.87L356.31,127.2L356.57,143.8L356.58,145.87L357.1,133.42L357.13,143.8L357.43,129.27L357.54,145.87L357.56,143.8L357.58,110.6L358.42,145.87L358.5,145.87L359.23,125.12L359.26,139.65L359.26,145.87L359.36,127.19L360,133.42L360.03,131.35L360.26,125.13L360.76,145.87L360.81,145.87L361.33,98.14L361.47,104.37L361.55,143.8L361.75,108.52L361.77,145.87L362.23,139.65L362.26,145.87L362.88,125.12L363.02,135.5L363.06,135.5L363.63,145.87L363.69,131.35L363.79,135.5L363.83,133.42L363.87,145.87L364.55,145.87L364.61,143.8L364.7,129.27L364.75,145.87L365.37,137.57L365.4,137.57L365.9,127.2L366.13,145.87L366.16,141.72L366.25,143.8L366.29,145.87L366.97,131.35L367,139.65L367.03,139.65L367.24,125.12L367.26,143.8L367.26,139.65L367.27,116.82L367.29,145.87L367.34,106.45L367.99,145.87L368.06,145.87L368.31,145.87L368.31,145.87L368.31,137.57L368.85,145.87L368.88,123.05L368.95,133.42L369.01,116.82L369.6,114.75L369.67,145.87L369.76,116.83L369.81,135.5L369.86,108.53L369.88,145.87L370.52,135.5L370.56,143.8L370.7,145.87L370.98,137.57L370.98,129.27L371.33,145.87L371.57,127.2L371.61,127.2L371.65,102.3L371.86,145.87L372.36,127.2L372.37,127.2L373.01,145.87L373.12,141.72L373.18,141.72L373.36,145.87L373.47,118.9L373.91,145.87L373.93,143.8L374.12,145.87L374.33,125.13L374.65,127.2L374.7,141.72L374.73,145.87L374.78,123.05L375.42,131.35L375.47,137.57L376.09,145.87L376.11,127.2L376.22,139.65L376.23,139.65L376.8,145.87L376.83,133.43L376.87,141.73L376.91,133.43L377.03,131.35L377.66,145.87L377.66,145.87L377.69,145.87L378.13,129.28L378.17,143.8L378.19,145.87L378.98,131.35L379.02,143.8L379.08,125.12L379.09,145.87L379.73,137.57L379.77,139.65L380.05,131.35L380.43,145.87L380.44,139.65L380.54,145.87L380.75,131.35L381.28,141.72L381.33,143.8L381.6,145.87L381.61,120.97L381.64,120.97L382.18,145.87L382.38,129.27L382.41,133.42L383.18,145.87L383.22,145.87L383.43,125.12L383.94,133.42L384.02,145.87L384.53,120.98L384.77,131.35L384.79,143.8L384.81,133.42L384.82,145.87L385.49,145.87L385.5,145.87L385.66,145.87L385.66,137.57L386.22,131.35L386.39,145.87L386.4,133.42L386.89,145.87L387.07,129.27L387.15,143.8L387.18,133.42L387.18,145.87L387.89,108.51L387.93,145.87L387.98,143.8L388.2,125.11L388.44,145.87L388.44,131.34L388.54,145.87L388.89,108.51L389.15,129.26L389.21,135.49L389.24,120.96L389.88,145.87L389.91,141.72L389.93,133.42L390.38,118.89L390.63,145.87L390.68,135.49L390.69,141.72L390.71,145.87L391.38,127.19L391.41,139.64L391.43,141.72L392,133.42L392.08,145.87L392.17,143.8L392.22,143.8L392.3,145.87L392.51,129.27L392.82,139.64L392.83,129.26L393.15,116.81L393.65,145.87L393.66,145.87L394.35,118.87L394.42,137.57L394.6,131.34L395.19,145.87L395.19,145.87L395.2,145.87L395.92,135.49L395.92,135.49L395.95,145.87L396.33,129.26L396.7,145.87L396.72,145.87L397.15,116.8L397.48,143.8L397.53,143.8L398.01,133.41L398.13,145.87L398.23,143.8L398.24,133.41L398.28,129.26L398.31,145.87L398.85,145.87L398.9,145.87L398.99,133.41L399,145.87" style="vector-effect: non-scaling-stroke; fill: none; stroke: rgb(0, 204, 150); stroke-opacity: 1; stroke-width: 2px; opacity: 1;"/></g><g class="points"/><g class="text"/></g></g></g><g class="overplot"/><path class="xlines-above crisp" d="M0,0" style="fill: none;"/><path class="ylines-above crisp" d="M0,0" style="fill: none;"/><g class="overlines-above"/><g class="xaxislayer-above"><g class="xtick"><text text-anchor="start" x="0" y="416" transform="translate(206.47,0) rotate(30,0,408.5)" style="font-family: 'Times New Roman'; font-size: 15px; fill: rgb(13, 13, 13); fill-opacity: 1; white-space: pre; opacity: 1;">1.6125210<tspan style="font-size:70%" dy="-0.6em">18</tspan><tspan dy="0.42em"></tspan></text></g><g class="xtick"><text text-anchor="start" x="0" y="416" style="font-family: 'Times New Roman'; font-size: 15px; fill: rgb(13, 13, 13); fill-opacity: 1; white-space: pre; opacity: 1;" transform="translate(285.69,0) rotate(30,0,408.5)">1.61252510<tspan style="font-size:70%" dy="-0.6em">18</tspan><tspan dy="0.42em"></tspan></text></g><g class="xtick"><text text-anchor="start" x="0" y="416" style="font-family: 'Times New Roman'; font-size: 15px; fill: rgb(13, 13, 13); fill-opacity: 1; white-space: pre; opacity: 1;" transform="translate(364.90999999999997,0) rotate(30,0,408.5)">1.6125310<tspan style="font-size:70%" dy="-0.6em">18</tspan><tspan dy="0.42em"></tspan></text></g><g class="xtick"><text text-anchor="start" x="0" y="416" style="font-family: 'Times New Roman'; font-size: 15px; fill: rgb(13, 13, 13); fill-opacity: 1; white-space: pre; opacity: 1;" transform="translate(444.13,0) rotate(30,0,408.5)">1.61253510<tspan style="font-size:70%" dy="-0.6em">18</tspan><tspan dy="0.42em"></tspan></text></g><g class="xtick"><text text-anchor="start" x="0" y="416" style="font-family: 'Times New Roman'; font-size: 15px; fill: rgb(13, 13, 13); fill-opacity: 1; white-space: pre; opacity: 1;" transform="translate(523.35,0) rotate(30,0,408.5)">1.6125410<tspan style="font-size:70%" dy="-0.6em">18</tspan><tspan dy="0.42em"></tspan></text></g></g><g class="yaxislayer-above"><g class="ytick"><text text-anchor="end" x="136" y="12.25" transform="translate(0,372.56)" style="font-family: 'Times New Roman'; font-size: 35px; fill: rgb(13, 13, 13); fill-opacity: 1; white-space: pre; opacity: 1;">0.06</text></g><g class="ytick"><text text-anchor="end" x="136" y="12.25" style="font-family: 'Times New Roman'; font-size: 35px; fill: rgb(13, 13, 13); fill-opacity: 1; white-space: pre; opacity: 1;" transform="translate(0,331.03)">0.04</text></g><g class="ytick"><text text-anchor="end" x="136" y="12.25" style="font-family: 'Times New Roman'; font-size: 35px; fill: rgb(13, 13, 13); fill-opacity: 1; white-space: pre; opacity: 1;" transform="translate(0,289.49)">0.02</text></g><g class="ytick"><text text-anchor="end" x="136" y="12.25" style="font-family: 'Times New Roman'; font-size: 35px; fill: rgb(13, 13, 13); fill-opacity: 1; white-space: pre; opacity: 1;" transform="translate(0,247.95)">0</text></g><g class="ytick"><text text-anchor="end" x="136" y="12.25" style="font-family: 'Times New Roman'; font-size: 35px; fill: rgb(13, 13, 13); fill-opacity: 1; white-space: pre; opacity: 1;" transform="translate(0,206.41)">0.02</text></g><g class="ytick"><text text-anchor="end" x="136" y="12.25" style="font-family: 'Times New Roman'; font-size: 35px; fill: rgb(13, 13, 13); fill-opacity: 1; white-space: pre; opacity: 1;" transform="translate(0,164.87)">0.04</text></g><g class="ytick"><text text-anchor="end" x="136" y="12.25" style="font-family: 'Times New Roman'; font-size: 35px; fill: rgb(13, 13, 13); fill-opacity: 1; white-space: pre; opacity: 1;" transform="translate(0,123.33)">0.06</text></g></g><g class="overaxes-above"/></g></g><g class="polarlayer"/><g class="smithlayer"/><g class="ternarylayer"/><g class="geolayer"/><g class="funnelarealayer"/><g class="pielayer"/><g class="iciclelayer"/><g class="treemaplayer"/><g class="sunburstlayer"/><g class="glimages"/><defs id="topdefs-c7ab4f"><g class="clips"/><clipPath id="legendc7ab4f"><rect width="144" height="67" x="0" y="0"/></clipPath></defs><g class="layer-above"><g class="imagelayer"/><g class="shapelayer"/></g><g class="infolayer"><g class="legend" pointer-events="all" transform="translate(543.98,100)"><rect class="bg" shape-rendering="crispEdges" style="stroke: rgb(68, 68, 68); stroke-opacity: 1; fill: rgb(255, 255, 255); fill-opacity: 1; stroke-width: 0px;" width="144" height="67" x="0" y="0"/><g class="scrollbox" transform="" clip-path="url(#legendc7ab4f)"><g class="groups"><g class="traces" transform="translate(0,14.5)" style="opacity: 1;"><text class="legendtext" text-anchor="start" x="40" y="4.680000000000001" style="font-family: 'Open Sans', verdana, arial, sans-serif; font-size: 12px; fill: rgb(42, 63, 95); fill-opacity: 1; white-space: pre;">Realized (in %)</text><g class="layers" style="opacity: 1;"><g class="legendfill"/><g class="legendlines"><path class="js-line" d="M5,0h30" style="fill: none; stroke: rgb(99, 110, 250); stroke-opacity: 1; stroke-width: 2px;"/></g><g class="legendsymbols"><g class="legendpoints"/></g></g><rect class="legendtoggle" x="0" y="-9.5" width="138.71875" height="19" style="fill: rgb(0, 0, 0); fill-opacity: 0;"/></g><g class="traces" transform="translate(0,33.5)" style="opacity: 1;"><text class="legendtext" text-anchor="start" x="40" y="4.680000000000001" style="font-family: 'Open Sans', verdana, arial, sans-serif; font-size: 12px; fill: rgb(42, 63, 95); fill-opacity: 1; white-space: pre;">Effective (in %)</text><g class="layers" style="opacity: 1;"><g class="legendfill"/><g class="legendlines"><path class="js-line" d="M5,0h30" style="fill: none; stroke: rgb(239, 85, 59); stroke-opacity: 1; stroke-width: 2px;"/></g><g class="legendsymbols"><g class="legendpoints"/></g></g><rect class="legendtoggle" x="0" y="-9.5" width="138.71875" height="19" style="fill: rgb(0, 0, 0); fill-opacity: 0;"/></g><g class="traces" transform="translate(0,52.5)" style="opacity: 1;"><text class="legendtext" text-anchor="start" x="40" y="4.680000000000001" style="font-family: 'Open Sans', verdana, arial, sans-serif; font-size: 12px; fill: rgb(42, 63, 95); fill-opacity: 1; white-space: pre;">Half Quoted (in %)</text><g class="layers" style="opacity: 1;"><g class="legendfill"/><g class="legendlines"><path class="js-line" d="M5,0h30" style="fill: none; stroke: rgb(0, 204, 150); stroke-opacity: 1; stroke-width: 2px;"/></g><g class="legendsymbols"><g class="legendpoints"/></g></g><rect class="legendtoggle" x="0" y="-9.5" width="138.71875" height="19" style="fill: rgb(0, 0, 0); fill-opacity: 0;"/></g></g></g><rect class="scrollbar" rx="20" ry="3" width="0" height="0" style="fill: rgb(128, 139, 164); fill-opacity: 1;" x="0" y="0"/></g><g class="g-gtitle"/><g class="g-xtitle"><text class="xtitle" x="336.5" y="487.503125" text-anchor="middle" style="font-family: 'Open Sans', verdana, arial, sans-serif; font-size: 14px; fill: rgb(42, 63, 95); opacity: 1; font-weight: normal; white-space: pre;">Time Steps (ns)</text></g><g class="g-ytitle" transform="translate(24,0)"><text class="ytitle" transform="rotate(-90,12,250)" x="12" y="250" text-anchor="middle" style="font-family: 'Times New Roman'; font-size: 40px; fill: rgb(13, 13, 13); opacity: 1; font-weight: normal; white-space: pre;">Spreads (in %)</text></g></g></svg>