<svg class="main-svg" xmlns="http://www.w3.org/2000/svg" xmlns:xlink="http://www.w3.org/1999/xlink" width="700" height="500" style="" viewBox="0 0 700 500"><rect x="0" y="0" width="700" height="500" style="fill: rgb(255, 255, 255); fill-opacity: 1;"/><defs id="defs-fc93f0"><g class="clips"><clipPath id="clipfc93f0xyplot" class="plotclip"><rect width="494" height="320"/></clipPath><clipPath class="axesclip" id="clipfc93f0x"><rect x="126" y="0" width="494" height="500"/></clipPath><clipPath class="axesclip" id="clipfc93f0y"><rect x="0" y="100" width="700" height="320"/></clipPath><clipPath class="axesclip" id="clipfc93f0xy"><rect x="126" y="100" width="494" height="320"/></clipPath></g><g class="gradients"/><g class="patterns"/></defs><g class="bglayer"><rect class="bg" x="126" y="100" width="494" height="320" style="fill: rgb(229, 236, 246); fill-opacity: 1; stroke-width: 0;"/></g><g class="layer-below"><g class="imagelayer"/><g class="shapelayer"/></g><g class="cartesianlayer"><g class="subplot xy"><g class="layer-subplot"><g class="shapelayer"/><g class="imagelayer"/></g><g class="minor-gridlayer"><g class="x"/><g class="y"/></g><g class="gridlayer"><g class="x"><path class="xgrid crisp" transform="translate(212.22,0)" d="M0,100v320" style="stroke: rgb(255, 255, 255); stroke-opacity: 1; stroke-width: 1px;"/><path class="xgrid crisp" transform="translate(310.25,0)" d="M0,100v320" style="stroke: rgb(255, 255, 255); stroke-opacity: 1; stroke-width: 1px;"/><path class="xgrid crisp" transform="translate(408.28,0)" d="M0,100v320" style="stroke: rgb(255, 255, 255); stroke-opacity: 1; stroke-width: 1px;"/><path class="xgrid crisp" transform="translate(506.31,0)" d="M0,100v320" style="stroke: rgb(255, 255, 255); stroke-opacity: 1; stroke-width: 1px;"/><path class="xgrid crisp" transform="translate(604.3399999999999,0)" d="M0,100v320" style="stroke: rgb(255, 255, 255); stroke-opacity: 1; stroke-width: 1px;"/></g><g class="y"><path class="ygrid crisp" transform="translate(0,352.65999999999997)" d="M126,0h494" style="stroke: rgb(255, 255, 255); stroke-opacity: 1; stroke-width: 1px;"/><path class="ygrid crisp" transform="translate(0,306.55)" d="M126,0h494" style="stroke: rgb(255, 255, 255); stroke-opacity: 1; stroke-width: 1px;"/><path class="ygrid crisp" transform="translate(0,260.43)" d="M126,0h494" style="stroke: rgb(255, 255, 255); stroke-opacity: 1; stroke-width: 1px;"/><path class="ygrid crisp" transform="translate(0,214.32)" d="M126,0h494" style="stroke: rgb(255, 255, 255); stroke-opacity: 1; stroke-width: 1px;"/><path class="ygrid crisp" transform="translate(0,168.2)" d="M126,0h494" style="stroke: rgb(255, 255, 255); stroke-opacity: 1; stroke-width: 1px;"/><path class="ygrid crisp" transform="translate(0,122.08)" d="M126,0h494" style="stroke: rgb(255, 255, 255); stroke-opacity: 1; stroke-width: 1px;"/></g></g><g class="zerolinelayer"><path class="yzl zl crisp" transform="translate(0,398.78)" d="M126,0h494" style="stroke: rgb(255, 255, 255); stroke-opacity: 1; stroke-width: 2px;"/></g><path class="xlines-below"/><path class="ylines-below"/><g class="overlines-below"/><g class="xaxislayer-below"/><g class="yaxislayer-below"/><g class="overaxes-below"/><g class="plot" transform="translate(126,100)" clip-path="url(#clipfc93f0xyplot)"><g class="scatterlayer mlayer"><g class="trace scatter traced55bdf" style="stroke-miterlimit: 2; opacity: 1;"><g class="fills"/><g class="errorbars"/><g class="lines"><path class="js-line" d="M0,298.71L0.35,299.51L0.35,299.7L0.7,300.58L1.11,300.13L1.18,300.06L2.25,297.39L2.39,297.76L2.42,297.8L3.35,297.18L3.4,297.51L3.4,297.69L4.12,299.08L4.12,298.9L4.16,298.94L4.26,299.36L4.74,298.02L4.75,297.74L4.75,297.93L5.06,296.93L5.48,297.35L5.51,297.28L5.72,296.64L6.26,299.51L6.26,299.44L6.28,299.63L6.38,299.52L7.06,300.34L7.06,300.34L7.11,300.27L7.61,299.31L7.96,299.86L8.01,299.9L8.12,299.68L8.77,300.5L8.81,300.55L9.98,303.26L10.05,303.05L10.15,303.09L10.76,303.84L10.93,303.4L10.93,303.13L11.54,301.23L11.75,301.58L11.77,301.63L12.34,299.29L12.62,300.16L12.63,300.2L13.24,300.82L13.34,299.98L13.43,299.91L13.69,300.42L13.93,299.43L13.93,299.51L14,299.37L14.73,300.85L14.79,300.9L14.79,301.08L15.52,297.65L15.58,297.51L15.76,296.42L16.05,297.71L16.05,297.76L16.33,299.08L16.93,298.75L17,298.69L17.32,297.35L17.62,298.09L17.8,298.02L18.4,294.47L18.53,295.51L18.62,295.44L19.18,296L19.33,295.43L19.4,295.36L20.27,291.88L20.27,292.01L20.28,292.05L20.93,291.33L21.19,291.98L21.25,292.03L21.34,292.17L21.75,291.44L21.82,292.29L21.96,292.33L22.71,293.14L22.71,293.09L22.72,293.08L23.12,294.33L23.26,293.22L23.27,292.94L23.86,291.25L24.16,292.32L24.16,292.37L25.02,294.38L25.07,294.31L25.99,293.22L25.99,293.08L26.53,292.2L26.8,292.48L26.86,292.49L27.87,293.58L28.1,293.23L28.1,293.16L28.61,292.98L28.61,293.53L28.61,293.72L29.19,292.84L29.33,293.94L29.39,293.98L29.95,293.06L29.95,293.15L29.95,292.87L30.88,291.43L30.92,291.78L30.92,292.13L31.63,296.72L31.67,296.48L31.72,296.67L32.09,297.08L32.31,296.44L32.31,296.37L32.42,296.2L32.65,297.21L32.95,296.78L32.95,296.87L33.14,296.71L33.57,297.99L33.57,297.97L33.72,298.01L34.4,296.32L34.6,296.61L34.65,296.66L34.93,296.03L35.29,296.78L35.29,296.96L35.79,298.42L35.99,297.03L36.01,296.96L36.58,293.94L36.66,294.86L36.83,294.87L37.02,294.62L37.81,297.91L37.85,297.81L37.9,297.86L38.41,301.2L38.65,299.53L38.66,299.46L39.59,297.18L39.65,297.3L39.65,297.35L39.86,297.07L40,298.27L40.02,298.73L40.36,301.63L40.78,299.49L40.82,299.22L41.33,296.79L41.53,296.96L41.61,296.89L42.9,292.54L43.09,293.7L43.09,293.75L43.73,295L43.84,294.39L43.84,294.07L44.9,292.61L44.9,292.66L44.98,292.28L45.25,293.63L45.35,293.53L45.41,293.58L45.45,293.75L45.86,292.76L45.96,292.76L46,292.8L46.66,291.74L46.82,292.57L46.83,292.56L47.37,293.96L47.61,293.44L47.72,293.37L47.79,293.59L48.19,292.63L48.19,292.67L48.19,292.39L49.33,288.89L49.34,288.95L49.35,289L49.49,289.32L49.79,287.54L50.09,288.58L50.17,288.51L50.34,288.09L50.58,289.31L50.63,289.36L50.67,289.19L51.14,289.89L51.25,289.78L51.28,289.97L51.55,289.66L51.93,290.83L52.01,290.53L52.06,290.57L52.36,290.4L52.73,291.32L52.87,290.76L52.89,290.69L53.15,289.28L53.42,291.1L53.62,290.38L53.66,290.37L53.78,290.17L54.22,291.4L54.24,291.59L54.74,293.62L54.92,291.32L55.01,291.41L55.14,291.62L55.2,290.76L55.2,290.81L55.21,290.53L55.23,290.8L55.79,288.42L55.83,288.39L57.03,286.62L57.19,287.08L57.19,287.26L57.33,287.73L57.83,285.7L57.97,286.19L58.05,286.12L58.14,285.98L58.4,286.9L58.41,286.95L58.45,286.72L58.64,288.05L59.08,286.98L59.08,287.32L59.19,289.57L59.79,287.44L59.84,287.38L60.42,285.19L60.59,287.29L60.59,287.48L61.19,291.23L61.41,290.89L61.43,290.93L61.78,291.22L61.91,290.23L61.93,290.09L62.21,289.4L62.66,290.61L62.66,290.54L62.78,290.59L64.08,285.35L64.13,285.69L64.13,285.79L64.63,286.04L65.09,283.66L65.09,283.7L65.17,283.63L65.24,282.32L65.91,283.85L65.91,283.71L65.94,283.64L66.78,280.98L66.83,281.02L67.18,280.04L67.6,280.65L67.6,280.7L68.72,276.17L68.84,276.85L68.85,276.9L69.07,277.43L69.49,276.99L69.5,276.71L69.77,277.05L70.23,274.59L70.26,274.52L70.58,271.63L71.18,272L71.22,271.93L71.51,273.01L71.72,271.65L71.83,272.47L71.85,272.52L72.21,273.72L72.5,272.42L72.51,272.35L72.82,272.86L73.55,269.54L73.56,270.64L73.56,270.69L74.23,269.01L74.23,269.02L74.35,269.2L76.27,265.56L76.3,265.75L76.3,265.82L76.35,266.29L76.93,263.82L77,263.97L77.09,263.94L77.34,264.89L77.34,265.08L77.96,262.87L78.08,263.82L78.12,263.87L78.29,263.04L78.54,263.87L78.65,263.42L78.65,263.35L79.11,263.87L79.22,262.65L79.31,262.92L79.42,262.85L80.57,259.41L80.57,259.78L80.66,259.97L80.75,260.65L81.16,259.13L81.38,259.53L81.46,259.46L81.55,259.27L82.36,261.69L82.62,260.92L82.62,260.64L83.52,258.42L83.62,258.54L83.66,258.63L84.42,256.06L84.42,258.28L84.42,258.65L85.17,253.16L85.17,253.2L85.18,253.25L85.35,253.89L85.87,252.33L85.93,252.47L85.95,252.66L86.31,253.47L86.65,253.11L86.74,253.15L87.18,251.73L87.18,251.78L87.19,251.5L87.6,250.22L88.06,250.88L88.06,250.93L88.5,253.65L88.89,252.71L88.91,252.76L89.19,251.92L89.53,253.45L89.61,253.38L90.48,255.23L90.62,254.7L90.62,254.63L90.82,255.78L91.3,255L91.39,255.02L92.28,256.97L92.32,256.78L92.32,256.71L93.17,259.37L93.37,258.32L93.38,258.04L93.43,257.81L94.13,260.74L94.15,260.67L94.19,260.83L94.43,258.77L94.53,259.1L94.55,259.03L94.88,258.58L95.07,259.29L95.07,259.34L95.73,258.52L95.89,258.64L95.93,258.51L96.46,256.57L96.71,258.09L96.71,258.18L96.89,256.06L97.48,256.89L97.59,256.82L97.8,254.78L97.8,254.83L97.8,254.55L97.98,253.32L98.51,254.27L98.64,254.31L98.86,254.57L99.01,254.06L99.01,253.78L99.18,252.7L99.66,256.13L100.22,255.48L100.22,255.34L100.33,255.72L100.72,254.08L100.76,254.17L100.87,254.26L100.91,254.1L101.1,255.47L101.32,255.41L101.32,255.6L101.57,255.31L101.7,256.07L102.04,255.6L102.04,255.32L102.09,254.79L102.22,256.04L102.65,255.58L102.81,255.67L102.85,255.55L103.65,257.45L103.78,256.91L103.83,256.84L104.75,248.7L104.92,248.93L105.03,248.66L106.17,245.89L106.37,246.25L106.37,246.3L106.77,245.36L106.98,246.41L107.11,246.38L107.11,246.43L107.54,247.94L107.86,246.87L107.88,246.92L108.5,245.31L108.63,245.83L108.68,245.76L108.95,246.59L109.21,245.41L109.27,245.41L109.27,245.34L109.9,243.87L110.07,244.27L110.07,244.31L110.15,245.24L110.8,241.34L110.8,241.38L110.89,241.38L111.39,242.21L111.86,240.22L111.86,240.54L111.9,240.54L112.05,240.7L112.15,239.77L112.24,239.7L112.39,239.01L112.64,240.53L112.89,239.86L113.05,239.91L113.81,236.92L113.97,237.11L114.04,237.04L114.21,236.65L114.61,238.37L115.09,237.9L115.1,237.83L115.46,237.33L115.54,237.98L115.58,238.17L115.64,238.26L116.61,235.8L116.61,235.94L116.61,235.99L116.82,235.36L117.28,236.22L117.28,236.26L118.65,240.18L118.77,239.91L118.84,239.85L120.12,243.43L120.21,242.3L120.22,242.03L120.92,239.29L120.93,239.36L121,239.29L121.71,235.72L121.82,235.81L121.88,235.88L122.48,230.35L122.55,231.74L122.58,231.78L122.74,232.16L122.79,231.43L122.79,231.15L122.85,231.18L123.71,229.73L123.81,229.97L123.86,230.11L123.91,230.06L124.31,231.29L124.61,230.27L124.65,230.2L125.42,228.88L125.51,229.21L125.6,229.14L126.35,227.19L126.35,227.28L126.46,227.33L126.89,227.85L127.15,224.64L127.15,224.78L127.23,224.83L127.53,223.16L127.54,222.54L127.85,219.16L128.32,219.55L128.38,219.59L129.19,217.05L129.21,216.91L129.4,217.46L129.87,216.1L129.93,216.91L129.94,217.1L130.73,212.52L130.73,212.81L130.79,212.74L131.02,212.43L131.21,213.48L131.23,213.53L131.34,213.67L131.38,212.71L131.38,212.75L131.38,212.38L131.54,211.38L132.03,213.55L132.06,213.73L132.79,213.18L132.91,213.81L132.95,213.84L132.99,213.34L133.16,215.02L133.35,214.89L133.37,214.94L133.95,217.65L134.12,216.91L134.15,216.96L134.2,217.21L134.36,216.54L134.78,216.69L134.94,216.69L135.76,215.1L135.78,215.2L135.83,215.24L136.64,216.13L136.64,216.32L136.95,215.68L137.1,217.38L137.39,216.49L137.42,216.48L137.88,215.04L138.16,215.54L138.22,215.47L138.39,215L138.81,215.89L139.13,215.51L139.14,215.45L139.95,213.86L140.01,213.93L140.04,213.98L140.22,213.58L140.54,214.39L140.56,214.34L140.56,214.39L140.86,213.57L141.28,214.57L141.32,214.62L141.55,215.98L142.06,214.98L142.1,215.02L142.6,214.57L142.96,215.4L143.07,215.32L143.11,215.36L143.31,215.24L143.36,214.65L143.36,214.58L143.92,213.17L143.95,213.21L143.95,212.83L144.93,207.78L145.12,208.49L145.15,208.53L145.75,207.64L145.77,208.96L145.86,208.81L145.86,209L146.43,209.79L146.55,209.63L146.62,209.56L146.66,209.79L147.29,209.03L147.32,209.03L147.35,209L147.83,208.48L147.83,208.41L148.56,210.23L148.57,210.13L148.6,210.06L148.61,210.32L149.26,207.12L149.34,207.81L149.39,207.86L149.79,209.7L150.13,208.53L150.18,208.46L150.37,209.04L151.1,206.77L151.1,206.92L151.16,206.97L151.33,206.46L151.85,207.61L151.88,207.54L151.93,207.59L152.09,207.36L152.16,208.3L152.16,208.35L152.62,208.72L152.8,207.84L152.88,208.33L152.93,208.38L153.14,207.94L153.26,208.65L153.55,208.12L153.57,207.84L153.57,208.07L154.32,205.81L154.32,205.86L154.4,205.79L154.46,206.55L155.28,205.09L155.29,205.23L155.33,205.42L155.65,205.3L155.99,206.47L156.17,206.01L156.22,205.94L156.61,204.73L156.97,205.13L157.05,205.18L157.23,204.67L157.23,205.49L157.35,204.72L157.35,204.44L158.06,202.96L158.11,203.99L158.18,203.85L158.52,202.41L158.86,203.47L158.97,203.4L159.66,206.22L159.66,206.16L159.66,206.52L159.72,207.14L160.21,205.84L160.41,206.86L160.53,206.86L161.32,205.48L161.37,205.2L161.45,204.83L161.7,205.99L162.03,205.79L162.04,205.8L162.18,206.09L162.26,205.12L162.26,205.05L162.61,203.42L163.07,204.18L163.12,204.23L163.43,206L164.01,205.25L164.11,205.34L165.78,210.58L165.78,210.23L165.78,210.09L166.55,207.83L166.64,208.85L166.67,208.89L166.68,209.12L167.16,207.96L167.42,208.5L167.45,208.44L167.63,208.58L167.7,207.76L167.7,207.69L167.82,208.44L168.22,205.94L168.43,206.6L168.46,206.53L168.72,205.59L169.06,207.36L169.26,206.89L169.27,206.75L169.93,207.76L170.07,207.12L170.07,206.84L170.6,203.71L171.24,204.19L171.28,204.24L171.4,204.67L172.04,202.58L172.04,202.51L172.28,201.44L172.85,202.09L172.85,202.14L174.62,206.52L174.63,205.53L174.63,205.12L174.65,205.31L175,203.74L175.31,204.86L175.38,204.79L177.39,208.62L177.58,208.09L177.63,208.13L177.91,209.48L178.39,209.08L178.49,209.01L178.55,209.04L179.07,206.6L179.41,207.89L179.44,207.94L179.44,207.66L180.18,209.29L180.2,209.32L181.17,213.39L181.49,212.45L181.49,212.38L181.59,212.96L182.11,211.03L182.23,211.56L182.26,211.49L182.77,213.79L182.95,209.13L182.99,209.55L183.08,209.73L183.64,210.08L183.8,209.19L183.8,209.23L183.87,209.28L183.99,209.87L184.35,206.95L184.35,207.05L184.38,206.91L184.52,207.31L185.28,205.75L185.35,206.42L185.35,206.61L185.55,206.18L185.82,207.12L185.83,207.17L186,207.03L187.05,208.83L187.08,208.63L187.09,208.56L188.42,207.2L188.42,207.94L188.42,208.12L189.16,205.95L189.16,205.99L189.19,206.04L189.46,204.33L189.94,204.97L189.98,204.9L190.04,204.34L190.48,206.49L190.67,206.46L190.74,206.51L190.99,206.34L191.13,207.03L191.2,207.08L191.22,206.38L191.77,208.32L191.8,208.24L191.83,208.28L191.93,208.07L192.13,208.97L192.13,208.9L192.13,209.09L192.73,211.12L192.96,210.08L192.98,210.01L193.87,212L193.87,212.05L194.4,214.01L194.7,213.79L194.74,213.81L195.04,214.32L195.2,213.31L195.45,213.91L195.5,213.95L195.94,212.27L195.96,212.4L196,212.12L196.11,211.66L196.56,214.25L196.56,214.44L196.82,214.23L198.15,218.41L198.29,218.06L198.36,217.99L198.75,217.37L199,217.94L199.05,217.99L199.27,217.65L199.79,219.79L199.79,219.72L199.81,219.76L200.19,221.36L200.57,220.44L200.57,220.37L201.03,219.86L201.53,221.62L201.61,221.23L201.64,221.16L202.42,222.02L202.42,221.95L202.54,221.81L203.35,218.74L203.48,218.79L203.7,219.03L204.52,216.14L204.67,216.49L204.68,216.54L205.43,218.14L205.58,217.44L205.6,217.3L205.71,216.74L206.06,218.09L206.06,218.09L206.11,218.18L206.11,218.37L206.83,214.57L206.87,214.56L207.13,213.14L207.6,215.7L207.65,215.63L207.89,214.83L208.18,215.6L208.18,215.65L209.16,217.45L209.26,217.23L209.26,217.17L210.03,218.29L210.13,218.01L210.23,218.06L211.25,214.51L211.32,214.58L211.34,214.63L211.8,216.48L211.82,216.52L212.87,219.02L213.19,218.71L213.19,218.43L213.22,218.6L213.49,216.26L213.59,216.31L213.65,216.48L213.83,214.22L213.84,214.28L213.84,214L214.62,212.08L214.69,212.37L214.78,212.3L216.18,211.73L216.19,211.94L216.19,212.03L216.62,213.8L216.63,213.99L217.13,213.63L217.3,214.8L217.37,213.98L217.44,213.91L218.17,208.87L218.17,208.87L218.25,208.86L218.52,207.67L219.02,208.08L219.07,208.13L219.9,206.64L219.91,206.66L220.4,206.23L220.53,206.76L220.53,206.85L221.14,205.63L221.14,205.39L222.18,203.09L222.18,203.22L222.23,203.16L222.9,202.13L222.95,202.36L222.99,202.5L223.17,202.39L223.89,203.47L224.03,203.33L224.08,203.38L224.45,202.7L224.81,203.84L224.81,203.84L224.85,203.89L225.14,203.07L225.48,204.33L225.63,204.09L225.67,204.02L226.08,204.57L226.47,203.58L226.47,203.91L226.49,203.84L227.28,202.48L227.31,203.17L227.36,203.58L228,205.49L228.13,205L228.21,204.97L228.92,203.45L229.24,204.1L229.24,204.28L229.77,206.01L229.82,205.22L229.87,204.95L230.74,201.13L230.84,201.7L230.95,201.79L231.35,202.8L231.64,201.23L231.69,201.34L231.74,201.27L231.81,200.88L231.96,201.8L232.43,201.46L232.43,201.5L232.98,201.76L233.03,201.99L233.03,202.03L233.25,201.53L233.68,202.99L233.68,202.99L233.77,203.27L234.51,207.13L234.52,206.87L234.54,206.81L235.39,207.89L235.57,207.73L235.57,207.45L236.32,204.42L236.35,204.47L236.64,203.37L237.08,203.42L237.17,203.46L237.54,200.65L237.54,200.37L237.73,199.28L238.24,199.91L238.24,200.1L238.61,202.45L238.96,201.49L239.07,201.54L239.23,201.9L239.48,200.77L239.48,200.85L239.49,200.57L240.31,201.88L240.36,201.44L240.44,201.49L240.48,204.17L241.19,203.17L241.21,203.22L241.63,202.64L241.9,203.16L241.99,203.21L242.28,204.71L242.7,204.12L242.8,204.05L243.49,202.23L243.51,202.39L243.56,202.43L243.75,201.95L243.95,202.79L244.29,202.4L244.32,202.33L244.45,202.13L244.99,202.89L245.06,202.87L245.15,202.8L245.39,203.75L245.67,201.79L245.72,201.9L245.75,201.83L246.9,202.85L246.91,202.76L247,202.76L247.33,204.2L247.59,203.33L247.72,203.26L247.98,202.17L248.36,203.75L248.39,203.73L248.49,203.74L248.61,204.55L248.99,203.16L249,203.2L249.06,203.06L249.13,202.51L249.58,204.41L249.8,204.41L249.83,204.27L251.25,201.65L251.52,202.01L251.57,202.05L252.22,201.12L252.3,201.85L252.39,201.78L252.53,200.37L252.8,203.2L252.8,203.13L252.85,203.18L252.9,202.95L253.18,204.55L253.18,204.53L253.2,204.58L253.49,204.03L253.81,205.65L253.94,204.16L254.03,204.09L256.86,195.84L257.04,196.21L257.23,196.26L257.45,195.36L257.95,195.92L257.99,195.92L258.87,196.56L258.92,196.3L258.95,196.23L259.69,198.29L259.74,198.47L261.35,201.12L261.47,200.65L261.47,200.51L262.23,200.73L262.23,200.78L262.84,201.32L262.91,200.58L263.01,200.51L263.13,200.33L263.13,201.44L263.58,201.07L263.58,201.12L264.03,201.46L264.05,200.64L264.05,200.36L264.13,199.68L264.63,202.05L264.63,201.98L264.71,201.98L265.29,203.07L265.45,202.68L265.49,202.54L265.53,201.92L266.06,203.83L266.22,202.95L266.26,202.88L266.83,202.15L266.83,202.71L266.83,202.89L267.02,202.78L267.12,203.38L267.32,203.4L267.39,203.44L267.47,203.69L267.69,202.56L267.92,202.81L267.92,202.68L268.52,204.14L268.73,203.5L268.73,203.36L268.78,203.61L269.32,202.18L269.32,202.31L269.38,202.24L269.62,202.25L269.65,201.74L269.66,201.67L269.66,202.45L270.32,200.1L270.41,200.33L270.45,200.26L270.6,200.55L271.08,199.16L271.18,199.21L271.47,199.09L272,201.33L272.04,201.09L272.06,200.98L272.06,200.72L272.64,202.11L272.81,201.6L272.86,201.53L273.18,201.09L273.32,202.47L273.32,202.69L274.14,204.02L274.23,203.94L274.33,203.99L274.66,204.41L274.76,203.57L275.01,203.8L275.01,203.73L276.26,200.4L276.39,200.47L276.39,200.52L276.9,198.96L277.1,199.12L277.2,199.14L278.14,200.75L278.14,200.94L278.53,201.75L279.33,199.59L279.36,199.98L279.39,199.96L279.76,199.97L279.81,199.6L279.81,199.39L279.92,199.66L280.2,198.55L280.2,198.41L280.92,193.03L280.94,193.12L281.01,192.84L281.62,190.89L281.75,191.08L281.79,191.01L282.58,188.25L282.79,188.46L282.86,188.51L282.94,188.28L283.33,189.99L283.33,189.92L283.35,189.96L283.7,191.2L283.84,189.27L284.04,189.54L284.12,189.47L284.2,189.23L284.77,190.98L284.77,191.07L284.78,191.56L285.42,188.38L285.42,188.47L285.46,188.4L285.57,188.52L285.86,187.73L285.88,187.66L285.98,188.01L286.43,186.59L286.48,186.64L286.48,185.95L286.75,184.14L287.18,184.67L287.3,184.67L287.48,184.44L287.73,185.34L287.98,184.58L287.98,184.3L288.17,182.62L288.62,183.88L288.69,183.93L289.09,184.76L289.43,184.27L289.45,184.28L289.52,185L289.71,183.85L289.91,185.06L289.92,185.25L290.34,186.57L290.66,186.51L290.69,186.31L291.53,183.72L291.66,183.65L292.51,178.97L292.75,180.27L292.87,180.32L292.97,179.6L293.56,182.96L293.59,182.68L293.66,182.73L294.03,181.25L294.36,183L294.39,182.71L294.52,182.76L294.78,182.11L295.24,182.96L295.24,183L295.7,182.46L296.3,185.05L296.36,184.82L296.51,184.87L296.54,185.1L296.99,183.57L297.1,183.58L297.12,183.51L297.15,183.25L297.68,184.57L297.72,184.18L297.79,184.16L298.1,181.88L298.53,182.97L298.55,183.01L298.83,182.27L299.32,184.07L299.33,183.79L299.33,183.65L299.37,183.22L299.68,185.37L299.68,185.56L300.32,186.84L300.68,186.06L300.68,186L300.82,186.17L300.84,185.44L300.9,185.42L300.9,185.35L301.1,184.01L301.27,185.17L301.35,185.22L301.62,184.14L302.04,185.33L302.14,185.33L302.44,184.76L302.48,185.32L302.52,185.05L302.54,184.43L302.62,184.15L302.9,185.65L302.9,185.65L302.98,185.58L303.13,185.72L303.66,183.43L303.66,183.36L303.66,183.54L303.93,182.29L304.41,182.88L304.42,182.81L305.24,183.84L305.26,183.77L305.26,183.95L305.83,186.51L306.04,184.86L306.04,184.59L306.54,180.71L306.72,180.96L306.82,180.95L307.21,181.28L307.29,180.46L307.56,180.99L307.59,181.03L308.1,179.6L308.22,182.84L308.31,181.19L308.34,181.13L309.08,175.52L309.11,175.57L309.32,174.54L309.33,175.67L309.33,175.76L309.55,175.84L309.87,174.19L310.25,174.63L310.38,174.56L310.59,175.33L311.02,173.32L311.14,173.41L311.93,171.09L311.93,171.12L312.04,171.05L312.68,167.03L312.89,167.68L312.97,167.4L313.14,166.68L313.7,169.45L313.7,169.44L313.75,169.49L314.25,171.02L314.48,168.74L314.51,168.46L314.68,169L315.62,166.58L315.62,167.27L315.62,167.6L316,171.21L316.36,170.98L316.44,171.02L316.75,172.45L317.14,171.34L317.25,171.28L317.59,170.28L318,170.52L318.04,170.57L318.83,167.7L318.9,167.84L319.01,167.88L319.52,168.26L319.74,167.31L319.75,167.84L319.75,168.02L319.93,167.92L320.04,168.69L320.06,168.74L320.25,168.67L320.26,169.37L320.3,169.46L321.22,171.67L321.28,171.65L321.32,171.58L321.61,170.01L321.81,172.5L321.84,172.86L321.97,173.01L322.95,171.14L322.95,170.86L323.22,174.15L323.7,173.45L323.71,173.5L325.13,176.4L325.42,175.69L325.47,175.7L326.85,172.56L326.95,172.49L326.98,173.38L327.4,172.02L327.68,172.5L327.7,172.55L327.95,172.82L328.89,169.45L328.99,170.17L328.99,170.31L329.17,171.43L329.73,169.97L329.73,170.02L329.78,170.07L330.03,170.76L330.52,168.63L330.63,169.33L330.75,169.26L331.09,169.39L331.09,169.48L331.22,168.9L331.67,170.17L331.81,169.99L331.87,170.13L332.1,169.36L332.36,170.8L332.54,170.49L332.58,170.5L332.99,170.95L333.16,170.18L333.17,170.11L333.45,170.13L333.9,167.11L333.92,167.25L333.94,167.3L334.38,168.15L334.6,167L334.69,167.67L334.74,167.6L334.79,168.41L335.23,166.09L335.49,167.33L335.51,167.38L335.72,167.8L336.18,167.02L336.18,167.07L336.27,166.79L336.52,165.61L336.53,165.74L336.54,165.46L337.24,158.51L337.49,159.96L337.5,160.01L337.5,159.61L337.96,160.47L338.25,159.88L338.27,159.81L338.37,159.74L339.55,162.63L339.77,161.56L339.85,161.49L340.58,159.89L340.58,159.96L340.68,159.68L341.03,160.03L341.35,159.18L341.39,159.22L341.45,159.15L341.81,159.75L341.96,157.41L341.99,157.34L342.48,155.79L342.74,156.13L342.75,156.06L342.89,155.48L343.34,156.44L343.37,156.49L343.64,157.61L344.1,156.54L344.1,156.26L344.79,154.18L344.85,154.32L344.86,154.25L346.81,150.55L346.84,151.54L346.84,151.59L347.15,152.48L347.37,149.96L347.4,150.31L347.6,150.35L348.25,148.03L348.55,149.52L348.58,149.45L348.75,147.68L349.2,149.02L349.36,149.06L349.53,148.42L349.76,150.77L349.96,150.5L350.05,150.43L350.88,148.05L350.88,148.14L350.89,148.19L351.14,148.39L351.68,147.1L351.72,147.02L352.18,145.16L352.18,144.88L352.47,142.44L352.65,143.75L352.65,143.93L353.49,141.66L353.61,142.01L353.62,142.06L354.08,140.39L354.41,143.35L354.42,143.33L354.48,143.33L354.79,143.94L354.85,143.24L354.86,142.96L355.52,138.36L355.87,139.59L355.94,139.57L356.17,140.05L356.69,137.77L356.7,137.81L356.77,137.36L357.03,138.69L357.42,138.5L357.47,138.55L358.09,137.72L358.18,138.07L358.28,138.25L358.72,136.85L359.08,137.48L359.08,137.66L360.13,142.2L360.13,141.93L360.2,141.97L360.2,141.79L360.76,143.11L360.95,142.82L360.96,142.68L361.25,143.85L361.73,143.4L361.76,143.44L361.82,143.42L362.74,144.97L362.75,144.7L362.81,144.56L363.29,144.98L363.64,143.2L363.68,143.25L363.68,143.29L364.57,142.12L364.74,142.68L364.75,142.86L365.22,142.08L365.4,143.5L365.49,143.32L365.51,143.27L365.63,143.66L365.95,141.87L365.95,141.96L365.97,141.82L366,141.37L366.6,143.47L366.6,143.4L366.63,143.58L366.71,143.68L367.41,143.16L367.46,143.51L367.49,143.55L367.53,143.81L367.68,142.1L368.24,143.16L368.3,143.09L368.96,137.36L369.03,137.44L369.07,137.37L369.1,137.57L369.43,135.83L369.52,136.07L369.62,136L370.75,132.22L370.82,133.12L370.86,133.31L371,133.84L371.3,132.68L371.34,132.61L371.8,131.73L372.1,132.09L372.12,132.02L372.27,132.42L372.4,131.35L372.81,131.48L372.81,131.41L372.97,132.84L373.23,130.55L373.55,130.97L373.58,130.91L373.96,132.58L374.3,132.2L374.35,132.25L374.53,132.54L374.95,131.35L374.96,131.48L374.96,131.34L375.27,131.47L375.59,129.77L375.89,130.55L375.89,130.6L375.97,131.18L376.46,129.53L376.62,130.35L376.65,130.44L377.67,133.75L377.7,133.41L377.7,133.34L378.22,132.62L378.32,133.98L378.32,133.89L378.35,133.94L378.56,133.08L379.08,135.31L379.08,135.31L379.21,135.24L379.33,134.49L379.7,135.49L379.71,135.54L379.76,135.69L380.08,134.71L380.22,134.74L380.22,134.47L380.96,133.28L381.01,133.39L381.1,133.43L381.6,132.08L381.96,132.99L381.96,133.04L382.16,133.38L382.24,132.67L382.24,132.7L382.25,132.42L382.53,131.84L382.96,133.2L383.02,132.55L383.03,132.28L383.94,128.69L383.96,128.86L383.97,128.91L384.56,126.22L384.64,127.13L384.81,127.06L385.35,125.87L385.6,126.66L385.65,126.76L386.38,128.87L386.51,128.47L386.55,128.41L386.8,127.44L387.71,129.93L387.81,129.45L387.84,129.18L388.62,127.57L388.62,127.62L388.68,127.55L389.48,126.79L389.65,127.18L389.67,127.23L389.79,127.03L389.94,128.12L389.94,128.3L390.12,129.78L390.69,129.54L390.7,129.47L392.06,126.01L392.07,126.08L392.23,126.13L392.95,125.13L392.95,125.17L392.99,125.22L393.04,124.93L393.4,126.48L393.73,125.3L393.75,125.23L394.46,125.78L394.57,125.24L394.57,125.17L395.1,121.94L395.64,122.22L395.75,122.27L395.78,121.86L396.41,123.69L396.45,123.39L396.51,123.43L396.82,122.69L397.1,123.97L397.26,123.48L397.26,123.53L397.31,123.76L397.68,122.43L397.68,122.36L397.78,122.73L397.84,121.65L397.89,121.75L397.89,121.47L398.05,121.19L398.13,122.56L398.13,122.61L398.38,122.62L398.86,121.13L398.88,121.22L398.92,121.26L399.04,121.18L399.38,121.84L399.49,121L399.67,120.93L400.65,117.36L400.69,117.76L400.7,117.81L401.11,118.36L401.32,117.7L401.33,117.63L401.82,118.49L402.05,117.2L402.08,117.13L402.64,115.33L402.87,115.39L402.93,115.25L403.78,113.64L403.85,113.62L403.97,114.11L404.32,113.14L404.35,113.07L404.97,111.92L405.08,112.74L405.12,112.78L405.23,113.02L405.52,112.03L405.54,112.08L405.54,112.01L405.97,111.02L405.97,111.06L405.99,110.89L406.09,109.48L406.6,111.16L406.74,109.72L406.77,109.65L407.08,107.78L407.4,109L407.42,109L407.52,109.33L408.16,108.3L408.19,108.23L408.2,107.96L408.84,109.59L408.95,109.52L409.42,110.91L409.64,109.7L409.73,109.76L410.03,109.3L410.17,110.23L410.46,109.97L410.5,109.9L410.5,109.61L410.91,110.96L411.23,110.89L411.28,110.94L411.33,111.26L412.03,110L412.03,110.18L412.05,110.11L412.65,108.4L412.82,109.28L412.85,109.38L412.88,109.48L413.53,107.14L413.6,107.85L413.62,107.9L414.28,109.9L414.32,109.54L414.38,109.47L414.57,109.05L414.61,110L414.61,110.19L416.46,105.27L416.55,105.31L416.82,106.03L416.93,105.15L417.3,105.66L417.33,105.68L417.46,105.13L417.56,106.21L417.57,106.14L417.57,106.33L418.04,107.64L418.24,106.12L418.29,105.84L418.75,103.58L418.75,103.27L418.75,102.92L419.46,106.52L419.5,106.19L419.52,106.12L420.48,112.7L420.48,112.56L420.6,112.5L421.22,110.64L421.44,111.78L421.45,111.83L421.63,113.1L422.16,110.63L422.19,111.06L422.21,110.99L422.8,107.73L422.8,107.46L423.71,104.53L423.71,104.71L423.75,104.64L424.3,100.27L424.43,102.86L424.53,102.79L424.76,103.85L425.08,102.22L425.27,102.79L425.29,102.83L425.33,103.17L425.85,101.93L425.95,102.16L426.05,102.09L426.92,99.07L427.02,99.4L427.03,99.45L427.1,99.82L427.22,99.09L427.53,99.03L427.53,98.96L427.63,99L427.76,96.5L428.31,98.26L428.32,98.3L429.16,96.48L429.24,96.76L429.27,96.69L429.29,96.96L430.02,95.32L430.02,95.37L430.09,95.34L431.07,91.11L431.22,91.2L431.27,91.25L431.86,89.84L432.06,89.94L432.17,89.87L433.37,86.47L433.41,86.4L434.37,84.92L434.45,85.23L434.49,85.42L435.44,81.3L435.44,81.64L435.45,81.69L435.89,82.81L435.89,83L436.12,83.75L436.58,81.72L436.6,82.02L436.67,81.95L436.94,80.57L437.49,81.11L437.49,81.3L437.97,82.11L438.23,80.51L438.23,80.65L438.25,80.58L438.52,79.21L439,80.65L439.03,80.58L439.19,82.27L439.66,79.48L439.68,79.97L439.71,79.83L440.09,78.38L440.46,78.95L440.47,79L440.59,79.33L441.13,76.37L441.19,77.48L441.23,77.53L441.41,79.08L441.63,76.82L441.97,76.86L442,76.87L442.15,77.06L442.34,75.92L442.38,75.99L442.4,75.71L442.98,74.16L443.17,74.65L443.27,74.58L443.59,75.23L443.59,75.42L443.79,76.16L444.24,74.02L444.26,74.12L444.37,74.17L444.83,72.45L444.96,73.77L444.96,73.86L445.41,74.96L445.61,73.25L445.61,73.34L445.72,73.27L446.07,73.99L447.56,61.96L447.66,62.1L447.72,62.14L448.06,61.61L448.36,62.7L448.37,62.75L448.6,64.03L448.79,61.23L448.91,61.27L449.48,61.63L449.94,58.98L449.96,59.35L449.96,59.39L450.21,59.6L450.48,58.67L450.55,58.76L450.58,58.69L451.47,56.78L451.52,57.68L451.52,58.1L451.55,57.89L451.75,59.55L452.05,58.8L452.18,58.89L452.22,58.7L452.74,61.91L452.74,61.84L452.76,61.94L452.85,61.75L453.04,62.9L453.63,62.34L453.66,62.37L454.13,62.11L454.21,62.89L454.21,63.07L454.33,62.66L454.62,63.73L454.62,63.82L455.18,59.23L455.35,62.94L455.39,62.99L455.39,63.03L456.11,57.7L456.12,57.81L456.18,57.74L456.36,55.75L456.73,58.39L456.91,57.43L456.97,57.36L457.4,58.03L457.44,57.1L457.44,56.83L457.64,56.6L457.94,57.45L457.94,57.64L458.67,55.38L458.7,55.43L459.05,53.88L459.59,54.53L459.67,54.46L460.65,52.27L460.75,52.51L460.75,52.69L461.17,53.42L461.32,52.19L461.39,52.12L461.44,51.45L461.93,54.4L462.12,54.1L462.17,54.03L463.13,50.27L463.36,50.48L463.41,50.58L463.79,54.87L464.13,54.3L464.18,54.23L464.71,54.85L464.73,54.94L464.83,55.31L465.02,54.15L465.02,53.88L465.67,51.35L465.82,52.6L465.83,53.02L466.05,54.82L466.57,51.22L466.82,51.85L466.87,52.26L467.32,52.17L467.37,51.73L467.38,51.66L467.63,51L467.71,51.92L468.13,51.54L468.13,51.63L468.34,52.32L468.87,49.89L468.87,49.98L468.93,49.91L469.03,50.01L469.94,46.94L469.94,47.03L470.05,47.01L470.22,46.07L470.78,46.9L470.84,46.95L471.02,46.57L471.69,50.26L471.69,50.19L471.76,50.12L471.92,52.76L472.51,51.41L472.54,51.34L473.21,48.79L473.31,48.79L473.31,48.99L473.99,45.55L474.06,46.07L474.08,46L474.41,46.47L474.71,45.33L474.83,45.59L474.87,45.64L475.81,42.96L475.95,43.79L475.95,43.97L476.43,45.44L476.69,44.05L476.79,43.77L476.97,43.95L477.08,42.8L477.08,42.82L477.13,42.55L477.56,39.81L477.87,41.27L477.98,41.2L478.3,42.06L478.6,38.95L478.62,38.88L479.33,36.56L479.52,37.09L479.52,37.14L480.19,35.8L480.58,36.33L480.62,36.38L480.65,36.59L481.33,33.77L481.35,33.96L481.41,34.05L481.71,33.24L481.76,34.8L481.76,34.85L481.92,35.6L482.46,34.88L482.5,34.81L482.56,35.01L483.11,33.97L483.14,33.9L483.87,32.43L483.97,32.76L484,32.85L484.39,34.9L484.79,33.94L484.82,33.87L484.88,34.34L485.26,31.84L485.69,32.5L485.69,32.54L485.86,31.53L486.45,32.14L486.51,32.22L486.55,32.15L486.7,33.23L487.2,32.4L487.28,32.33L487.41,33.28L487.57,32.12L487.99,32.66L488.02,32.59L488.44,33.85L488.76,31.44L488.9,31.91L488.96,31.84L488.96,32.07L489.7,26.99L489.73,26.92L489.79,27.06L490.17,26.06L490.17,26L490.19,25.52L490.7,28.53L490.71,28.49L490.73,28.54L491.45,24.8L491.45,24.89L491.5,24.94L492.59,19.42L492.59,19.35L493.15,16L493.39,17.3L493.39,17.49L493.52,17.84L494,16.16" style="vector-effect: non-scaling-stroke; fill: none; stroke: rgb(1, 102, 30); stroke-opacity: 1; stroke-width: 2px; opacity: 1;"/></g><g class="points"/><g class="text"/></g></g></g><g class="overplot"/><path class="xlines-above crisp" d="M0,0" style="fill: none;"/><path class="ylines-above crisp" d="M0,0" style="fill: none;"/><g class="overlines-above"/><g class="xaxislayer-above"><g class="xtick"><text text-anchor="middle" x="0" y="436" transform="translate(212.22,0)" style="font-family: 'Times New Roman'; font-size: 15px; fill: rgb(13, 13, 13); fill-opacity: 1; white-space: pre; opacity: 1;">1.61252×10​<tspan style="font-size:70%" dy="-0.6em">18</tspan><tspan dy="0.42em">​</tspan></text></g><g class="xtick"><text text-anchor="middle" x="0" y="436" style="font-family: 'Times New Roman'; font-size: 15px; fill: rgb(13, 13, 13); fill-opacity: 1; white-space: pre; opacity: 1;" transform="translate(310.25,0)">1.612525×10​<tspan style="font-size:70%" dy="-0.6em">18</tspan><tspan dy="0.42em">​</tspan></text></g><g class="xtick"><text text-anchor="middle" x="0" y="436" style="font-family: 'Times New Roman'; font-size: 15px; fill: rgb(13, 13, 13); fill-opacity: 1; white-space: pre; opacity: 1;" transform="translate(408.28,0)">1.61253×10​<tspan style="font-size:70%" dy="-0.6em">18</tspan><tspan dy="0.42em">​</tspan></text></g><g class="xtick"><text text-anchor="middle" x="0" y="436" style="font-family: 'Times New Roman'; font-size: 15px; fill: rgb(13, 13, 13); fill-opacity: 1; white-space: pre; opacity: 1;" transform="translate(506.31,0)">1.612535×10​<tspan style="font-size:70%" dy="-0.6em">18</tspan><tspan dy="0.42em">​</tspan></text></g><g class="xtick"><text text-anchor="middle" x="0" y="436" style="font-family: 'Times New Roman'; font-size: 15px; fill: rgb(13, 13, 13); fill-opacity: 1; white-space: pre; opacity: 1;" transform="translate(604.3399999999999,0)">1.61254×10​<tspan style="font-size:70%" dy="-0.6em">18</tspan><tspan dy="0.42em">​</tspan></text></g></g><g class="yaxislayer-above"><g class="ytick"><text text-anchor="end" x="125" y="12.25" transform="translate(0,398.78)" style="font-family: 'Times New Roman'; font-size: 35px; fill: rgb(13, 13, 13); fill-opacity: 1; white-space: pre; opacity: 1;">0</text></g><g class="ytick"><text text-anchor="end" x="125" y="12.25" style="font-family: 'Times New Roman'; font-size: 35px; fill: rgb(13, 13, 13); fill-opacity: 1; white-space: pre; opacity: 1;" transform="translate(0,352.65999999999997)">200</text></g><g class="ytick"><text text-anchor="end" x="125" y="12.25" style="font-family: 'Times New Roman'; font-size: 35px; fill: rgb(13, 13, 13); fill-opacity: 1; white-space: pre; opacity: 1;" transform="translate(0,306.55)">400</text></g><g class="ytick"><text text-anchor="end" x="125" y="12.25" style="font-family: 'Times New Roman'; font-size: 35px; fill: rgb(13, 13, 13); fill-opacity: 1; white-space: pre; opacity: 1;" transform="translate(0,260.43)">600</text></g><g class="ytick"><text text-anchor="end" x="125" y="12.25" style="font-family: 'Times New Roman'; font-size: 35px; fill: rgb(13, 13, 13); fill-opacity: 1; white-space: pre; opacity: 1;" transform="translate(0,214.32)">800</text></g><g class="ytick"><text text-anchor="end" x="125" y="12.25" style="font-family: 'Times New Roman'; font-size: 35px; fill: rgb(13, 13, 13); fill-opacity: 1; white-space: pre; opacity: 1;" transform="translate(0,168.2)">1000</text></g><g class="ytick"><text text-anchor="end" x="125" y="12.25" style="font-family: 'Times New Roman'; font-size: 35px; fill: rgb(13, 13, 13); fill-opacity: 1; white-space: pre; opacity: 1;" transform="translate(0,122.08)">1200</text></g></g><g class="overaxes-above"/></g></g><g class="polarlayer"/><g class="smithlayer"/><g class="ternarylayer"/><g class="geolayer"/><g class="funnelarealayer"/><g class="pielayer"/><g class="iciclelayer"/><g class="treemaplayer"/><g class="sunburstlayer"/><g class="glimages"/><defs id="topdefs-fc93f0"><g class="clips"/></defs><g class="layer-above"><g class="imagelayer"/><g class="shapelayer"/></g><g class="infolayer"><g class="g-gtitle"/><g class="g-xtitle"><text class="xtitle" x="373" y="463.8" text-anchor="middle" style="font-family: 'Open Sans', verdana, arial, sans-serif; font-size: 14px; fill: rgb(42, 63, 95); opacity: 1; font-weight: normal; white-space: pre;">Time Steps (ns)</text></g><g class="g-ytitle" transform="translate(24,0)"><text class="ytitle" transform="rotate(-90,12,260)" x="12" y="260" text-anchor="middle" style="font-family: 'Times New Roman'; font-size: 40px; fill: rgb(13, 13, 13); opacity: 1; font-weight: normal; white-space: pre;">Turnaround (in $)</text></g></g></svg>