<svg class="main-svg" xmlns="http://www.w3.org/2000/svg" xmlns:xlink="http://www.w3.org/1999/xlink" width="700" height="500" style="" viewBox="0 0 700 500"><rect x="0" y="0" width="700" height="500" style="fill: rgb(255, 255, 255); fill-opacity: 1;"/><defs id="defs-a69394"><g class="clips"><clipPath id="clipa69394xyplot" class="plotclip"><rect width="494" height="320"/></clipPath><clipPath class="axesclip" id="clipa69394x"><rect x="126" y="0" width="494" height="500"/></clipPath><clipPath class="axesclip" id="clipa69394y"><rect x="0" y="100" width="700" height="320"/></clipPath><clipPath class="axesclip" id="clipa69394xy"><rect x="126" y="100" width="494" height="320"/></clipPath></g><g class="gradients"/><g class="patterns"/></defs><g class="bglayer"><rect class="bg" x="126" y="100" width="494" height="320" style="fill: rgb(229, 236, 246); fill-opacity: 1; stroke-width: 0;"/></g><g class="layer-below"><g class="imagelayer"/><g class="shapelayer"/></g><g class="cartesianlayer"><g class="subplot xy"><g class="layer-subplot"><g class="shapelayer"/><g class="imagelayer"/></g><g class="minor-gridlayer"><g class="x"/><g class="y"/></g><g class="gridlayer"><g class="x"><path class="xgrid crisp" transform="translate(212.05,0)" d="M0,100v320" style="stroke: rgb(255, 255, 255); stroke-opacity: 1; stroke-width: 1px;"/><path class="xgrid crisp" transform="translate(310.12,0)" d="M0,100v320" style="stroke: rgb(255, 255, 255); stroke-opacity: 1; stroke-width: 1px;"/><path class="xgrid crisp" transform="translate(408.18,0)" d="M0,100v320" style="stroke: rgb(255, 255, 255); stroke-opacity: 1; stroke-width: 1px;"/><path class="xgrid crisp" transform="translate(506.25,0)" d="M0,100v320" style="stroke: rgb(255, 255, 255); stroke-opacity: 1; stroke-width: 1px;"/><path class="xgrid crisp" transform="translate(604.3199999999999,0)" d="M0,100v320" style="stroke: rgb(255, 255, 255); stroke-opacity: 1; stroke-width: 1px;"/></g><g class="y"><path class="ygrid crisp" transform="translate(0,346.65999999999997)" d="M126,0h494" style="stroke: rgb(255, 255, 255); stroke-opacity: 1; stroke-width: 1px;"/><path class="ygrid crisp" transform="translate(0,289.32)" d="M126,0h494" style="stroke: rgb(255, 255, 255); stroke-opacity: 1; stroke-width: 1px;"/><path class="ygrid crisp" transform="translate(0,231.98)" d="M126,0h494" style="stroke: rgb(255, 255, 255); stroke-opacity: 1; stroke-width: 1px;"/><path class="ygrid crisp" transform="translate(0,174.64)" d="M126,0h494" style="stroke: rgb(255, 255, 255); stroke-opacity: 1; stroke-width: 1px;"/><path class="ygrid crisp" transform="translate(0,117.3)" d="M126,0h494" style="stroke: rgb(255, 255, 255); stroke-opacity: 1; stroke-width: 1px;"/></g></g><g class="zerolinelayer"><path class="yzl zl crisp" transform="translate(0,404)" d="M126,0h494" style="stroke: rgb(255, 255, 255); stroke-opacity: 1; stroke-width: 2px;"/></g><path class="xlines-below"/><path class="ylines-below"/><g class="overlines-below"/><g class="xaxislayer-below"/><g class="yaxislayer-below"/><g class="overaxes-below"/><g class="plot" transform="translate(126,100)" clip-path="url(#clipa69394xyplot)"><g class="scatterlayer mlayer"><g class="trace scatter trace8958a0" style="stroke-miterlimit: 2; opacity: 1;"><g class="fills"/><g class="errorbars"/><g class="lines"><path class="js-line" d="M0,303.57L0,304L0.18,302.88L0.59,303.79L0.78,303.95L0.78,301.81L0.8,304L1.5,304L1.55,304L1.74,300.84L2.26,304L2.33,304L2.76,301.76L3.09,302.78L3.09,304L3.64,298.13L3.71,304L3.9,303.3L3.9,304L4.5,293.39L4.61,304L4.74,292.95L4.74,304L5.48,304L5.52,303.08L5.8,296.86L6.23,304L6.24,303.72L6.28,303.51L6.28,304L6.84,301.77L7.03,304L7.11,304L7.24,303.02L7.83,303.98L7.9,303.36L8.18,297.62L8.67,304L8.72,303.13L8.72,304L9.15,300.94L9.46,303.65L9.49,302.55L9.5,302.11L9.56,304L10.18,304L10.25,304L11,288L11.01,304L11.48,303.93L11.48,286.41L11.61,304L12.21,301.39L12.26,303.86L12.54,302.87L12.98,304L12.98,303.66L13,303.6L13,304L13.52,298.86L13.74,304L13.8,304L14.47,302.19L14.55,302.85L14.6,303.93L14.62,300.26L14.63,304L15.31,304L15.32,304L15.67,294.78L16.02,303.95L16.13,304L16.65,300L16.88,304L16.97,304L17.16,300.8L17.34,303.82L17.46,304L17.93,300.79L18.21,304L18.23,303.92L18.24,304L18.76,291.48L18.93,303.85L18.96,304L19.08,282.12L19.69,304L19.72,304L20.01,298.97L20.13,304L20.13,291.11L20.87,304L20.87,303.85L21.14,304L21.82,296.33L22.06,304L22.19,302.63L22.77,303.81L22.77,304L23.15,301.06L23.42,304L23.48,303.95L23.62,304L23.69,303.4L23.69,299.15L23.69,304L24.44,303.77L24.48,303.18L24.48,304L25.21,296.88L25.21,303.75L25.25,304L25.35,303.72L25.35,304L25.36,292.7L26,304L26.12,303.63L26.47,301.81L26.88,304L26.88,304L26.98,304L27.22,298.39L27.71,300.85L27.74,302.28L28.14,299.91L28.44,304L28.44,302.93L28.5,297.45L28.5,304L28.54,283.04L29.25,304L29.26,303.93L29.29,304L29.31,298.23L29.77,303.84L29.77,304L29.9,303.54L30.06,303.92L30.07,301.31L30.07,304L30.4,298.94L30.77,301.06L30.83,304L31.09,302.44L31.14,304L31.17,304L31.33,304L31.35,303.07L31.35,304L32.05,304L32.13,303.43L32.13,304L32.77,301.85L32.79,304L32.9,304L32.99,294.46L33.65,304L33.7,304L34.08,296.81L34.42,304L34.5,303.77L34.5,304L34.76,293.96L35.21,303.7L35.33,301.79L35.33,304L35.79,300.24L35.93,304L36.12,303.74L36.13,304L36.35,302.14L36.77,304L36.93,303.73L36.93,304L37.58,301.33L37.67,304L37.7,302.34L37.7,304L38.41,295.98L38.44,304L38.46,304L39.19,298.71L39.19,303.97L39.22,304L39.76,300.26L39.86,303.79L39.94,304L40.1,294.36L40.66,303.95L40.75,302.58L40.75,304L41.3,285.39L41.5,303.23L41.52,303.95L41.54,304L41.62,282.42L42.05,302.84L42.07,304L42.11,285.94L42.66,304L42.67,303.93L42.75,299.32L42.75,304L43.41,304L43.47,303.97L43.53,304L43.9,297.97L43.97,304L43.99,304L44.19,299.15L44.19,300.18L44.23,297.1L44.23,304L44.4,295.35L44.97,303.21L45.01,304L45.12,290.56L45.75,304L45.78,304L45.9,297.94L46.49,304L46.5,304L46.76,301.15L47.01,304L47.03,304L47.06,299.73L47.78,303.92L47.81,303.34L47.81,304L48.48,298.88L48.54,304L48.62,297.95L48.62,304L49.02,297.1L49.35,304L49.39,304L49.55,300.55L49.73,303.57L49.74,304L50.07,295.44L50.46,304L50.5,304L50.69,301.87L51.25,304L51.29,304L51.47,301.11L51.69,303.91L51.82,304L52.16,299.51L52.55,304L52.58,303.89L52.6,304L52.85,292.64L53.31,304L53.41,303.97L53.41,282.97L53.43,304L54.13,303.95L54.19,303.82L54.19,304L54.69,301.16L54.91,303.99L54.96,303.86L55.02,304L55.41,299.61L55.71,303.8L55.72,304L56.01,302L56.46,304L56.51,303.77L56.62,304L56.8,302.06L57.26,303.63L57.31,303.85L57.35,304L57.48,298.63L58.02,303.59L58.06,303.62L58.06,304L58.27,300.26L58.8,304L58.86,303.79L58.86,304L59.57,292.18L59.61,304L59.65,304L60.35,301.76L60.39,303.95L60.42,304L60.79,299.95L61.12,303.57L61.18,303.83L61.19,304L61.86,300.57L61.92,304L61.93,303.95L61.95,304L62.17,300.58L62.66,304L62.69,303.83L62.69,304L62.86,298.67L63.43,300.42L63.45,304L63.45,301.58L64.2,303.6L64.22,303.47L64.22,304L64.38,300.96L64.94,303.74L65.01,304L65.17,302.11L65.76,302.62L65.79,304L65.95,301.37L66.52,304L66.56,304L66.72,302.32L67.1,304L67.16,304L67.91,294.02L67.92,304L68.06,293.36L68.48,303.63L68.52,303.8L68.67,300.71L69.27,304L69.27,303.93L69.33,304L70.06,300.48L70.07,303.69L70.1,303.9L70.45,304L70.46,303.81L70.49,302.57L70.49,304L70.84,298.08L71.2,304L71.27,303.79L71.27,304L71.77,294.49L71.99,303.61L72.03,303.99L72.45,302.72L72.76,303.36L72.76,304L72.95,300.61L73.31,303.58L73.41,304L74.11,286.62L74.16,303.98L74.18,304L74.89,300.42L74.89,304L74.94,303.89L75.02,304L75.64,302.06L75.67,303.87L75.7,303.66L75.91,302.7L76.48,304L76.49,304L76.9,296.53L77.13,303.93L77.25,304L77.32,297.77L77.71,304L77.77,304L78.25,296.15L78.31,303.58L78.32,304L78.92,294.2L79.06,304L79.12,303.85L79.67,301.59L79.81,304L79.89,304L80.13,302.12L80.17,304L80.19,304L80.94,297.95L80.99,303.92L81.01,297.49L81.26,304L81.71,304L81.77,303.74L82.02,302.69L82.37,304L82.37,304L82.41,300.11L82.42,304L82.67,296.36L83.1,303.93L83.21,304L83.72,299.3L83.96,302.66L84.01,303.84L84.01,304L84.64,296.28L84.75,303.68L84.77,304L85.36,301.5L85.4,304L85.4,297.17L85.44,304L85.55,292.32L86.14,303.12L86.16,303.37L86.16,304L86.16,294.17L86.89,304L86.94,303.61L86.96,300.75L86.96,304L87.68,304L87.69,304L87.91,298.03L88.25,303.09L88.25,303.97L88.3,304L88.89,296.19L88.98,304L89.13,303.88L89.24,304L89.76,301.45L89.86,303.42L89.86,304L89.97,292.87L90.5,302.45L90.57,304L91.33,297.49L91.33,304L91.85,302.41L92.13,303.46L92.13,304L92.67,300.85L92.78,302.47L92.78,304L92.89,300.08L93.53,304L93.56,304L93.99,304L93.99,301.99L94.54,297.27L94.74,304L94.74,303.39L94.77,303.65L94.86,303L95.32,304L95.32,294.97L95.32,304L95.38,292.94L96.04,304L96.08,304L96.6,302.89L96.66,303.99L96.72,301.72L96.93,290.27L97.42,304L97.44,303.46L97.49,304L98.13,302.63L98.23,303.76L98.31,303.94L98.42,304L99.03,295.95L99.03,304L99.07,304L99.42,294.01L99.8,304L99.84,304L100.38,302.5L100.47,302.66L100.6,304L100.66,303.76L100.69,300.52L100.87,304L100.9,286.76L100.92,304L101.65,304L101.73,304L102.48,301.36L102.48,304L102.5,304L103.22,299.66L103.24,303.56L103.31,304L103.47,301.58L103.47,302.03L103.5,297.87L104.3,304L104.3,303.92L104.46,304L104.51,300.64L105.04,303.36L105.07,303.91L105.23,304L105.23,303.14L105.27,304L105.3,299.47L105.65,295.19L106.04,304L106.04,303.67L106.07,303.33L106.1,304L106.49,298.87L106.8,304L106.83,303.9L106.97,304L107.26,302.21L107.48,303.6L107.5,304L107.97,297.96L108.25,304L108.27,304L108.52,293.18L109,304L109.06,303.84L109.1,304L109.2,300.73L109.71,303.08L109.84,304L110.07,298.18L110.54,304L110.63,304L111.14,296.66L111.37,303.94L111.45,303.12L111.45,304L112.12,299.26L112.18,302.91L112.24,304L112.66,301.94L112.93,303.61L113.02,304L113.51,300.76L113.73,303.95L113.78,304L114.26,300.92L114.46,304L114.49,303.95L114.57,304L115.2,289L115.22,303.98L115.3,304L115.95,302.45L116.05,303.51L116.05,304L116.49,300.57L116.75,304L116.88,304L116.92,302.05L117.51,304L117.64,304L118.21,300.35L118.36,303.89L118.38,303.81L118.87,302.09L119.07,304L119.07,281.34L119.53,272.11L119.81,304L119.81,303.83L119.87,303.48L119.87,304L120.61,248.7L120.61,304L120.66,303.81L120.71,304L120.82,301.96L121.03,304L121.07,304L121.51,302.24L121.81,304L121.84,303.77L121.84,304L122.05,298.17L122.59,301.56L122.6,303.92L122.68,304L123.1,294.82L123.29,304L123.32,303.97L123.43,303.85L123.45,304L123.45,302.85L124.06,301.06L124.23,304L124.25,303.36L124.25,304L124.66,298.31L124.99,303.51L125.05,303.29L125.05,304L125.5,298.58L125.76,304L125.81,304L125.99,300.46L126.56,304L126.57,304L126.92,286.08L127.25,304L127.37,303.28L127.76,301.78L128.11,304L128.11,304L128.15,303.43L128.47,283.68L128.89,304L128.93,304L129.37,302.4L129.67,303.92L129.69,304L130.35,295.44L130.44,304L130.46,304L130.55,271.96L131.21,303.82L131.23,304L131.23,295.68L131.98,302.47L131.99,304L132.76,294.06L132.76,304L133.32,301.29L133.37,304L133.48,304L133.58,297.47L134.18,303.72L134.27,303.63L134.3,301.69L134.36,304L134.85,303.11L134.89,304L135.01,298.88L135.03,303.85L135.03,173.8L135.03,304L135.77,303.88L135.88,303.85L135.94,304L136.21,297.12L136.35,304L136.42,303.86L136.64,304L136.67,303.54L136.68,302.81L136.68,304L137.14,299.8L137.35,303.9L137.48,304L138.05,300.55L138.21,303.97L138.26,303.85L138.42,302.49L138.79,304L138.86,257.94L138.86,304L139.3,206.13L139.61,304L139.62,304L140.14,302.06L140.39,303.99L140.4,304L140.6,297.28L141.15,304L141.16,304L141.42,303.08L141.49,304L141.49,301.19L141.49,304L142.12,299.75L142.2,304L142.28,301.03L142.28,304L142.93,300.92L143.03,304L143.05,304L143.62,297.95L143.71,304L143.81,304L144.5,290.75L144.54,302.6L144.6,304L144.85,287.81L145.32,303.9L145.38,303.23L145.38,304L145.45,302.81L146.09,303.62L146.14,301.91L146.8,304L146.8,295.67L146.89,303.82L146.96,303.8L147.13,303.06L147.72,304L147.74,303.58L147.94,301.87L148.37,304L148.37,304L148.41,299.36L148.41,304L149.12,303.65L149.18,303.81L149.3,302.86L149.51,304L149.51,300.9L150.32,304L150.33,303.9L150.46,304L150.51,302.81L150.7,303.19L150.74,304L151.27,300.71L151.45,300.96L151.51,303.82L151.64,304L151.66,285.43L152.42,304L152.52,301.93L153.15,296.45L153.24,304L153.28,303.77L153.28,304L153.6,301.3L154.01,303.79L154.06,303.78L154.32,302.83L154.68,304L154.69,275.09L154.69,304L155.32,304L155.49,304L155.66,304L155.67,301.28L155.67,304L156.4,304L156.44,304L156.55,300.22L156.95,302.99L156.95,304L157.37,297.18L157.68,304L157.76,304L158.36,290.78L158.51,303.19L158.51,303.98L158.91,301.65L158.92,304L158.94,300.13L159.66,304L159.66,303.54L159.77,304L159.84,300.55L160.51,303.86L160.54,304L160.61,300.7L160.67,303.99L160.69,304L160.69,302.26L161.44,303.88L161.48,303.87L161.78,303.26L161.89,304L161.89,301.08L162.24,294.39L162.61,304L162.61,296.66L162.67,304L163.37,300.44L163.4,303.85L163.43,304L163.5,301.42L164.03,303.32L164.03,304L164.05,297.75L164.78,303.88L164.83,303.26L164.83,304L164.95,299.39L165.57,303.61L165.63,303.82L165.63,304L165.67,302.07L166.38,304L166.4,303.22L166.76,292.27L167.16,304L167.17,303.77L167.17,304L167.83,300.61L167.91,304L167.95,304L168.38,304L168.38,302.9L168.7,298.78L169.11,304L169.11,303.76L169.15,303.83L169.52,301.2L169.9,304L169.9,302.17L169.95,294.93L169.95,304L170.62,303.55L170.65,304L171.28,299.73L171.36,304L171.41,304L171.66,301.5L171.85,304L171.89,304L172.55,297.77L172.62,304L172.68,304L173.17,301.15L173.38,304L173.47,304L173.92,299.79L174.21,304L174.23,303.64L174.26,300.91L174.26,16L174.99,304L174.99,303.85L175.08,303.97L175.13,304L175.83,299.35L175.83,303.99L175.85,304L175.88,303.84L175.92,304L175.92,298.92L176.39,294.62L176.63,304L176.63,303.71L176.7,304L177.23,304L177.23,301.48L177.29,291.07L177.98,304L178,297.99L178.7,297.97L178.8,304L178.8,303.65L178.81,303.57L178.81,304L178.89,303.2L179.53,304L179.67,303.76L180.27,300.43L180.32,304L180.32,303.8L180.35,300.85L180.35,304L180.64,298.18L181.07,304L181.11,304L181.63,288.91L181.86,303.86L181.91,303.71L181.91,304L182.51,301.67L182.66,304L182.67,303.95L182.9,304L183.32,299.43L183.42,304L183.82,301.79L184.12,303.8L184.19,304L184.36,266.39L184.93,294.88L184.96,304L185.09,298.99L185.28,304L185.44,303.82L185.46,304L185.46,302.74L185.68,290.7L185.99,304L185.99,303.5L185.99,291.78L186.06,288.35L186.06,304L186.44,304L186.56,304L186.62,286.43L187.31,303.87L187.45,303.58L187.45,304L187.76,298.96L188.2,303.43L188.21,304L188.36,304L188.36,303.17L188.47,296.19L189.09,304L189.09,304L189.17,304L189.88,300.07L189.88,303.66L189.93,303.85L190.03,302.29L190.34,304L190.39,299.65L190.4,304L190.53,294.14L191.11,303.87L191.14,303.98L191.29,302.57L191.64,304L191.65,304L192.01,299.59L192.38,303.96L192.51,304L193.24,300.06L193.24,304L193.33,303.85L193.71,302.44L193.8,304L193.8,303.82L193.81,297.09L193.81,304L193.95,296.66L194.53,302.57L194.61,304L195.48,288.44L195.48,303.59L195.48,283.71L195.48,304L196.22,304L196.25,304L196.69,301.94L196.97,304L197.03,304L197.77,301.26L197.77,304L197.8,303.73L197.8,304L197.82,297.68L198.55,304L198.7,302.89L199.02,300.49L199.46,304L199.48,303.83L199.59,303.67L199.62,304L199.68,300.42L199.68,304L199.96,299.35L200.43,304L200.45,304L201.06,299.19L201.14,304L201.32,304L201.78,302.64L201.81,304L201.82,300.88L201.82,304L202.47,299.48L202.54,304L202.58,303.84L202.58,304L203.16,293.35L203.33,304L203.36,304L203.51,299.25L204.09,304L204.21,304L204.48,298.53L204.48,304L204.79,302.7L205.09,304L205.09,301.19L205.35,299.59L205.79,304L205.79,303.97L205.98,303.67L205.98,304L206.19,302.01L206.72,304L206.78,304L206.79,289.91L207.5,304L207.54,304L207.61,298.32L208.19,300.08L208.3,304L208.35,286.37L208.44,304L208.5,304L208.57,282.99L209.23,304L209.28,304L209.28,300.54L209.89,303.98L210.04,304L210.31,302.31L210.75,303.41L210.8,304L211.32,294.13L211.5,303.99L211.56,303.96L211.6,304L212.04,290.73L212.28,303.97L212.32,303.26L212.32,304L212.76,300.49L213.07,303.63L213.08,304L213.61,296.14L213.81,304L213.86,304L214.43,299.97L214.46,303.92L214.5,304L214.86,302.23L215.14,303.83L215.21,303.4L215.65,300.52L215.83,304L215.85,302.43L215.85,295.48L215.9,304L216.56,300.4L216.64,303.82L216.71,304L216.71,298.82L217.38,302.27L217.41,303.76L217.41,304L217.81,291.83L218.13,304L218.22,304L218.28,303.59L218.54,304L218.54,288.65L218.54,304L219.27,304L219.31,304L219.74,298.34L220.05,303.8L220.07,303.94L220.17,304L220.18,302.91L220.18,304L220.2,296.4L220.9,304L220.92,303.64L220.99,301.76L220.99,299.88L220.99,304L221.68,304L221.76,304L222.08,293.73L222.21,304L222.28,303.77L222.52,303.29L223.06,304L223.07,304L223.42,290.26L223.82,302.87L223.84,304L224.39,300.73L224.49,303.92L224.57,304L224.92,300.82L225.32,303.01L225.32,304L225.86,300.68L226.08,303.77L226.08,304L226.41,301.7L226.52,303.28L226.52,298.69L226.55,297.95L227.22,304L227.33,304L227.87,300.82L228.05,303.86L228.1,303.33L228.15,304L228.44,298.18L228.84,302.64L228.86,304L229.02,293.76L229.61,303.99L229.63,303.92L229.94,303.11L229.94,299.89L230.03,298.76L230.73,304L230.76,304L231.35,301.2L231.5,303.74L231.53,301.93L231.53,300.29L231.53,304L232.26,303.04L232.29,304L232.87,300.84L233,304L233.05,304L233.64,299.43L233.83,303.67L233.89,304L234.61,295.79L234.64,300.07L234.66,304L234.93,286.78L235.26,302.04L235.26,304L235.53,300.07L235.98,304L236.02,303.39L236.02,304L236.53,301.85L236.73,303.65L236.81,303.78L237,303.29L237.12,304L237.12,295.23L237.89,304L237.89,297.86L237.89,304L238.54,292.38L238.54,304L238.66,303.73L238.79,304L238.79,302.82L238.79,292.9L239.58,304L239.63,304L239.64,298.13L240.32,303.92L240.36,303.7L240.36,304L240.93,302.85L241.1,303.5L241.13,303.94L241.21,304L241.36,299.85L241.87,303.92L241.95,303.91L242.04,303.75L242.12,304L242.12,302.35L242.46,302.26L242.87,304L242.87,303.82L242.9,303.39L242.9,304L243.16,294.95L243.65,304L243.67,304L244.1,301.09L244.35,304L244.5,303.91L244.55,304L244.94,300.87L245.14,303.95L245.19,303.99L245.25,304L245.3,302.19L245.5,304L245.5,298.37L245.61,294.19L246.26,304L246.36,304L246.89,300.99L247.06,303.99L247.12,303.12L247.12,304L247.39,302.63L247.83,304L247.89,304L248.39,294.9L248.64,304L248.69,303.82L248.69,304L249.27,299.05L249.42,302.46L249.48,303.8L249.52,303.16L249.61,304L249.61,298.4L249.69,304L250.33,304L250.38,303.75L250.38,304L250.68,203.79L251.1,303.51L251.14,304L251.16,300.85L251.88,303.79L251.93,303.85L252.26,299.67L252.66,304L252.71,304L253.28,298.56L253.44,303.52L253.53,304L253.7,302.78L253.96,302.88L253.99,295.87L254.03,304L254.74,304L254.76,303.86L254.94,303.13L255.27,304L255.29,303.62L255.31,301.02L255.31,304L255.56,300.13L256.05,302.43L256.07,303.61L256.09,303.11L256.09,304L256.78,304L256.85,304L257.02,301.8L257.55,303.88L257.55,304L258.18,297.99L258.25,303.91L258.27,296.27L258.27,304L258.32,290.33L259.02,303.87L259.11,304L259.86,301.11L259.86,304L259.88,303.77L259.88,304L260.11,281.17L260.63,302.88L260.66,303.47L260.66,304L260.81,296.55L261.38,303.27L261.42,303.9L261.59,304L261.61,303.29L261.63,303.73L261.64,303.02L261.68,293.51L262.38,304L262.38,303.26L262.42,304L262.65,296.39L263.11,304L263.23,303.17L263.23,304L263.9,265.47L263.98,303.76L263.99,304L264.4,302.49L264.77,303.41L264.77,304L265.43,296.27L265.51,304L265.58,303.62L265.63,304L265.98,302.31L266.33,303.84L266.34,302.75L266.36,304L266.65,301.05L267.08,303.97L267.11,303.81L267.34,304L267.36,302.16L267.41,303.92L267.41,274.28L267.41,304L267.48,271.12L268.15,304L268.17,302.05L268.19,301.17L268.24,304L268.85,304L268.91,303.97L268.99,298.83L269.09,304L269.61,303.31L269.67,303.76L269.83,298.97L270.43,304L270.43,302.84L270.69,294.05L271.2,304L271.25,303.8L271.28,304L271.7,299.61L271.95,304L271.99,304L272.69,294.25L272.71,303.97L272.76,303.88L272.76,298.18L272.91,304L273.5,303.1L273.55,303.84L273.55,304L274.24,297.82L274.29,304L274.39,303.86L274.39,304L274.52,295.68L275.13,302.93L275.2,304L275.44,291.35L275.86,304L275.96,304L276.17,302.66L276.67,303.81L276.73,303.82L276.87,301.78L277.3,304L277.3,300.02L278.11,304L278.11,304L278.16,304L278.56,293.92L278.89,303.99L278.92,303.84L278.99,304L279.4,287.65L279.64,303.67L279.68,303.88L279.74,304L280.31,299.62L280.36,303.66L280.42,304L280.69,301.01L281.09,303.95L281.11,304L281.59,297.57L281.71,302.16L281.73,303.93L282.03,304L282.11,302.93L282.26,302.04L282.86,304L282.89,303.78L282.98,304L283.23,298.62L283.62,303.15L283.65,304L283.69,303.83L283.69,304L283.71,299.61L283.71,304L284.04,298.39L284.44,304L284.52,304L284.66,300.97L285.22,303.56L285.38,303.53L285.42,304L286.15,275.24L286.15,294.52L286.15,304L286.85,304L286.91,304L287.39,299.66L287.66,303.71L287.67,304L288.32,302.45L288.39,304L288.44,303.64L288.44,304L289.15,296.78L289.17,296.95L289.2,304L289.25,295.81L289.94,303.75L289.95,303.8L289.95,304L290.35,296L290.7,302.91L290.73,304L291.07,293.32L291.46,304L291.49,304L291.75,300.47L292.19,304L292.27,303.93L292.33,304L292.68,299.11L293.02,303.76L293.02,303.98L293.07,304L293.57,296.15L293.7,302.63L293.7,304L293.95,295.27L294.44,303.95L294.46,304L295.2,300.83L295.32,303.68L295.32,304L295.79,299.33L296.01,304L296.12,303.99L296.18,304L296.87,289.63L296.91,304L297.36,301.7L297.64,303.78L297.7,303.87L297.83,304L297.88,303.48L297.9,302.37L298.28,298.47L298.53,304L298.66,303.57L298.68,302.08L299.4,304L299.4,302.17L299.45,304L299.79,298.22L300.13,304L300.22,304L300.81,302.31L300.9,304L300.94,304L301.58,299.47L301.69,303.64L301.74,303.92L301.8,304L302.15,291.27L302.48,303.96L302.57,302.75L303.11,301.88L303.14,304L303.31,303.18L303.31,295.41L303.32,304L303.34,287.18L303.99,304L304.07,304L304.77,299.76L304.82,303.85L304.83,304L305.28,300.35L305.58,304L305.6,303.92L305.71,304L305.93,302.87L306.3,303.23L306.3,297.37L307.1,304L307.1,303.74L307.39,302.47L307.64,304L307.79,303.67L307.8,302.76L307.8,304L308.15,293.48L308.53,304L308.58,303.93L308.59,304L308.87,297.73L309.33,304L309.41,304L310.14,301.26L310.16,303.94L310.19,303.92L310.29,304L310.62,284.74L310.91,304L310.95,303.87L311.04,304L311.52,302.47L311.69,303.99L311.71,304L311.72,275.33L312.45,303.62L312.49,304L312.78,301.7L313.19,303.47L313.25,300.48L313.25,304L313.42,292.48L314,303.88L314.08,304L314.32,303.58L314.32,302.03L314.92,298.9L315.07,304L315.09,303.35L315.3,304L315.3,297.75L316.05,304L316.05,304L316.06,303.79L316.7,301.93L316.71,304L316.75,303.79L316.75,301.94L317.27,296.59L317.51,304L317.51,304L317.52,303.7L317.92,302.85L318.25,304L318.25,303.61L318.29,303.75L318.29,304L318.39,299.63L319.01,303.57L319.06,303.39L319.06,304L319.59,302.24L319.81,303.43L319.85,304L320.47,286.47L320.55,304L320.59,304L320.6,303.63L320.62,304L320.63,286.14L320.63,304L321.38,303.75L321.39,303.98L321.52,303.62L321.58,304L321.58,299.43L322.44,304L322.45,303.91L322.49,303.02L322.49,304L322.56,297.64L323.24,304L323.27,304L323.53,301.08L323.97,301.99L324.1,303.72L324.15,303.39L324.3,304L324.3,304L324.3,298.56L324.5,294.21L325.01,304L325.01,303.92L325.07,304L325.66,300.23L325.82,304L325.85,303.9L325.93,300.88L325.93,304L326.55,303.97L326.69,304L326.79,297.95L327.17,303.99L327.19,304L327.32,295.3L327.94,302.05L327.99,304L328.55,288.35L328.74,304L328.75,304L328.95,304L328.95,304L329.03,303.14L329.03,304L329.33,301.4L329.78,303.93L329.8,304L330.04,303.58L330.12,304L330.13,295.26L330.13,304L330.85,292.47L330.93,303.67L331.19,302.13L331.41,304L331.41,302.71L331.41,289.59L331.41,304L332.11,304L332.2,304L332.4,297.93L332.95,304L332.97,304L333.14,297.58L333.22,304L333.22,284.25L333.51,261L333.82,304L333.92,303.89L334.03,304L334.68,297.6L334.78,303.97L334.81,303.76L334.82,304L335.48,300.46L335.55,304L335.58,304L335.96,302.34L336.24,303.76L336.4,303.53L336.68,301.26L337.1,304L337.19,303.37L337.19,304L337.92,295.84L337.92,304L337.95,295.73L338.68,304L338.73,304L338.99,299.37L339.5,303.13L339.57,304L340.08,300.58L340.28,304L340.33,303.33L340.33,304L340.97,297.93L341.08,303.34L341.09,304L341.74,300.59L341.8,302.54L341.86,303.69L341.86,304L342.19,293.17L342.61,304L342.62,303.92L342.69,302.57L342.73,304L343.24,304L343.38,304L343.44,299.43L344.12,304L344.17,304L344.76,300.23L344.91,303.9L344.95,303.67L344.95,304L345.11,302.2L345.68,303.94L345.73,303.84L345.73,304L346.13,297.37L346.48,304L346.51,302.96L346.63,293.66L347.26,304L347.29,302.65L347.58,292.04L348.02,304L348.02,304L348.02,297.31L348.11,277.76L348.11,304L348.72,303.98L348.79,303.59L349.33,302.55L349.57,304L349.57,303.43L349.61,304L349.97,300.1L350.3,303.62L350.34,304L350.92,301.77L351.09,303.51L351.11,304L351.26,300.35L351.39,303.76L351.39,303.93L351.41,304L351.55,302.25L352.12,304L352.17,304L352.9,289.4L352.92,304L352.97,304L353.69,301.58L353.72,304L353.73,304L353.73,301.51L354.45,303.84L354.52,303.99L354.56,304L355.24,300.3L355.27,303.81L355.28,304L355.77,295.53L355.97,304L356.05,304L356.31,296.45L356.8,301.26L356.81,303.98L356.83,304L357.25,295.73L357.51,303.33L357.55,303.71L357.66,303.03L358.25,304L358.25,302.76L358.72,299.07L358.95,304L358.99,303.68L359.05,297.22L359.8,304L359.83,303.64L359.87,304L360.39,300.13L360.56,301.73L360.58,303.94L360.68,298.76L360.74,304L361.27,304L361.36,303.69L361.36,304L361.88,302.04L362.11,303.93L362.14,304L362.25,301.53L362.88,303.93L362.93,304L363.43,297.42L363.68,304L363.69,304L363.76,299.69L364.23,304L364.3,304L364.38,302.96L365.04,304L365.06,304L365.79,299.91L365.82,302.99L365.86,304L366.09,299.61L366.6,303.97L366.63,303.85L366.67,304L366.72,303.15L366.72,303.23L366.72,287.11L367.48,304L367.51,303.85L367.56,304L367.57,303.88L367.57,300.28L367.64,299.03L368.28,304L368.3,303.86L368.37,304L368.8,291.19L369.08,303.97L369.18,304L369.48,297.26L369.85,303.09L369.94,301.86L369.94,304L370.21,287.05L370.66,304L370.72,304L370.95,303.09L371.03,304L371.11,300.79L371.13,273.56L371.14,304L371.83,303.7L371.92,303.9L372.05,304L372.66,298.85L372.72,303.22L372.72,304L373.46,295.44L373.46,304L373.49,301.96L373.49,304L373.49,298.79L374.24,303.85L374.26,303.88L374.58,303.65L374.59,302.94L375.02,296.56L375.22,304L375.31,303.83L375.38,304L376.07,296.9L376.12,303.79L376.12,304L376.88,298.96L376.88,304L376.93,299.09L377.61,303.88L377.69,303.76L377.83,303.2L377.86,304L377.86,295.65L377.86,304L378.15,286.52L378.61,304L378.68,303.75L378.74,304L379.05,300.62L379.41,304L379.45,304L379.97,295.36L380.07,303.71L380.18,304L380.44,302.4L380.93,304L380.95,303.83L380.95,304L381.62,298.86L381.66,303.99L381.71,303.64L382.12,298.01L382.35,304L382.4,303.89L382.52,299.17L382.52,304L382.81,295.13L383.24,303.33L383.28,304L383.68,300.65L384.02,304L384.09,303.85L384.13,304L384.45,279.58L384.48,303.92L384.53,304L384.8,298.22L384.81,296.85L384.81,304L385.53,303.56L385.64,303.6L386.05,301.9L386.19,304L386.19,299.28L386.31,304L386.94,303.89L386.95,303.99L387.32,302.9L387.45,303.65L387.52,302L387.52,304L387.9,194.79L388.22,303.75L388.3,303.82L388.3,304L388.44,302.61L389.04,303.92L389.06,302.14L389.2,300.79L389.74,304L389.77,303.98L389.82,303.83L389.82,304L390.13,301.54L390.56,304L390.59,304L390.59,301.18L391.34,303.53L391.35,304L391.5,302.22L391.51,304L391.53,301.03L391.53,304L391.57,299.34L392.25,304L392.32,303.68L392.32,304L392.58,301.43L393.05,304L393.08,304L393.18,302.59L393.22,304L393.55,297.07L393.96,304L394,304L394.24,301.81L394.36,304L394.45,304L395.02,301.29L395.19,303.99L395.21,304L395.7,301.32L395.8,303.88L395.83,300.24L395.83,304L396.36,296.86L396.58,303.53L396.59,303.58L396.61,304L397.23,302.36L397.34,303.85L397.38,303.66L397.59,300.55L398,304L398,298.25L398,304L398.73,296.21L398.78,304L398.78,297.69L399.52,303.04L399.54,304L399.63,301.61L400.27,303.76L400.33,303.63L400.33,304L400.77,302.02L401.08,304L401.1,304L401.47,298.7L401.47,300.31L401.49,289.23L401.49,304L402.19,303.56L402.27,304L402.54,303.5L402.95,304L403,304L403.62,297.71L403.75,304L403.76,303.39L403.77,304L404.05,294.83L404.5,304L404.55,303.46L404.55,304L405.28,297.39L405.29,303.99L405.32,304L405.82,303.65L405.82,304L405.82,301.9L406.26,298.13L406.68,304L406.68,296.56L407.14,284.79L407.33,304L407.39,303.83L407.47,304L407.58,300.18L407.89,302.86L407.89,304L408.34,297.95L408.62,304L408.65,302.54L408.65,304L409.25,297.85L409.38,304L409.41,304L410,295.81L410.16,304L410.18,304L410.65,291.21L410.91,304L410.95,304L411.35,301.56L411.39,304L411.41,300.44L412.14,304L412.15,303.89L412.2,304L412.84,299.24L412.9,304L413.12,301.76L413.14,304L413.14,297.39L413.17,296.75L413.89,304L413.89,302.46L413.93,304L414.67,297.01L414.83,304L414.91,293.7L415.55,304L415.59,304L415.88,301.79L416.28,303.77L416.34,303.84L416.37,303.4L416.58,304L416.59,298.69L416.59,304L417.33,304L417.35,303.7L417.67,301.97L418.03,304L418.09,303.86L418.12,302.2L418.12,304L418.84,300.58L418.86,303.84L418.9,304L419.67,302.45L419.67,304L420,296.66L420.37,304L420.54,303.92L420.68,304L420.69,302.97L421.05,299.45L421.43,304L421.43,303.98L421.52,303.94L421.57,304L422.27,299.03L422.27,299.29L422.27,304L422.38,302.71L422.51,303.99L422.54,304L422.83,301.73L422.85,304L422.85,299.28L423.59,304L423.59,302.98L423.64,303.94L423.78,303.65L423.78,302.52L423.78,304L424.53,304L424.6,304L425.01,290.61L425.31,304L425.37,304L425.68,267.5L426.07,303.92L426.13,303.83L426.16,304L426.56,301.25L426.86,304L426.89,304L427.48,296.61L427.63,303.85L427.68,303.85L427.7,302.02L428.4,304L428.47,304L428.82,297.44L429.21,303.62L429.26,303.85L429.37,304L429.43,301.94L429.43,304L430.17,300.88L430.18,301.19L430.2,304L430.74,301.31L430.88,303.84L430.97,303.31L430.97,304L431.43,299.49L431.72,303.65L431.78,304L432.22,297.87L432.48,304L432.52,304L432.68,300.46L433.22,304L433.27,304L433.37,294.67L433.39,304L433.51,304L433.65,301.38L433.68,304L433.69,304L433.71,288.02L434.43,304L434.45,304L434.49,300.67L435.2,303.04L435.22,302.52L435.87,300.41L435.92,304L435.96,303.93L435.99,302.97L435.99,304L436.14,296.98L436.72,303.88L436.75,303.97L436.83,267.74L436.83,304L437.48,304L437.53,304L437.93,302.08L438.2,303.89L438.28,304L438.33,295.7L439.03,304L439.06,304L439.06,302.23L439.7,303.45L439.83,303.63L439.88,304L440.15,298.74L440.55,303.52L440.71,302.43L440.71,304L441.45,303.93L441.48,304L442.12,299.78L442.22,304L442.25,304L443,280.91L443,304L443.02,304L443.15,266.21L443.73,303.53L443.78,303.94L443.92,304L444.51,300.52L444.53,304L444.96,298.56L445.05,303.98L445.14,304L445.91,302.76L445.92,304L445.96,303.85L445.96,304L445.98,300.91L445.98,304L446.27,299.79L446.72,304L446.75,303.68L446.75,304L447.48,299.07L447.5,303.87L447.51,303.96L447.61,304L447.97,298L447.97,304L448.09,303.86L448.1,301.73L448.1,304L448.28,292.74L448.8,303.58L448.86,303.85L449.3,300.82L449.34,304L449.35,299.14L449.35,304L449.66,287.34L450.1,303.35L450.11,304L450.76,297.71L450.78,280.78L450.87,280.3L451.51,304L451.55,303.86L451.75,304L451.76,302.99L451.76,302.3L452.19,300.81L452.52,304L452.52,302.51L452.52,304L452.58,299.05L453.16,302.51L453.29,303.98L453.38,304L453.84,294.88L454.02,304L454.04,304L454.14,293.92L454.75,304L454.8,303.85L454.84,304L454.89,303.2L454.93,303.87L454.96,301.25L455,304L455.07,290.35L455.66,304L455.72,304L455.82,301.53L456.25,303.39L456.26,304L456.56,294.25L456.9,304L456.97,304L457.42,301.72L457.69,303.78L457.71,304L457.96,289.29L458.33,303.98L458.34,303.97L458.36,304L458.73,300.76L459.08,304L459.13,304L459.3,283.36L459.47,303.46L459.47,304L460.06,157.72L460.17,304L460.27,303.77L460.27,304L460.89,301.8L461.02,304L461.08,303.52L461.08,304L461.39,299.74L461.82,304L461.86,304L462.47,285.16L462.57,303.96L462.67,304L463.2,300.85L463.38,304L463.39,304L464.13,300.82L464.13,301.41L464.18,303.87L464.23,304L464.29,300.65L464.52,304L464.52,279.19L465.15,304L465.24,303.87L465.39,303.23L465.39,304L465.91,300.52L466.14,303.98L466.17,303.48L466.17,301.72L466.17,304L466.9,303.42L466.97,304L467.45,292.38L467.72,303.7L467.73,303.96L467.76,302.9L467.76,304L468.45,303.82L468.48,304L468.48,301.37L469.21,303.6L469.29,304L469.41,303.02L469.44,303.11L469.44,298.9L469.48,304L470.14,303.91L470.22,304L470.61,294.98L470.93,304L470.98,303.78L470.98,304L471.7,285.69L471.73,304L471.78,304L472.23,300.6L472.39,303.76L472.39,304L472.52,302.19L473.11,303.62L473.2,304L473.58,299.06L473.94,302.8L473.97,304L473.98,297.79L474.66,304L474.74,304L475.46,299.68L475.49,303.74L475.5,304L475.81,297L476.01,303.32L476.02,303.97L476.72,302.78L476.78,303.24L476.78,304L476.92,300.27L477.51,303.32L477.54,303.97L477.57,304L478.12,290.13L478.28,304L478.34,303.74L478.34,304L478.97,299.48L479.08,304L479.11,302.04L479.11,296.19L479.12,304L479.84,304L479.93,303.47L480.04,296.03L480.44,304L480.5,302.86L480.52,299.43L480.95,298.07L481.32,304L481.32,303.95L481.37,304L481.71,292.21L482.07,303.76L482.07,304L482.63,302.42L482.81,302.97L482.87,304L482.97,301.03L483.33,303.91L483.43,304L483.47,300.44L484.1,304L484.16,303.71L484.16,304L484.19,299.5L484.9,304L484.92,303.06L484.92,304L485.11,298.12L485.66,303.56L485.7,303.47L485.7,304L485.96,302.4L486.45,304L486.47,303.2L486.6,301.55L487.23,304L487.23,302.59L487.25,300.75L487.73,304L487.73,303.58L487.83,282.48L487.83,304L488.58,304L488.63,304L488.93,298.24L489.14,304L489.18,304L489.38,300.68L489.92,304L489.94,304L490.31,275.12L490.59,303.84L490.65,303.84L490.69,304L491.01,272.41L491.31,295.15L491.51,304L491.94,300.88L492.26,304L492.31,304L492.58,298.9L493.05,304L493.08,303.89L493.23,304L493.45,302.62L493.51,304L493.52,293.58L493.54,304L494,302.9" style="vector-effect: non-scaling-stroke; fill: none; stroke: rgb(99, 110, 250); stroke-opacity: 1; stroke-width: 2px; opacity: 1;"/></g><g class="points"/><g class="text"/></g></g></g><g class="overplot"/><path class="xlines-above crisp" d="M0,0" style="fill: none;"/><path class="ylines-above crisp" d="M0,0" style="fill: none;"/><g class="overlines-above"/><g class="xaxislayer-above"><g class="xtick"><text text-anchor="middle" x="0" y="436" transform="translate(212.05,0)" style="font-family: 'Times New Roman'; font-size: 15px; fill: rgb(13, 13, 13); fill-opacity: 1; white-space: pre; opacity: 1;">1.61252×10​<tspan style="font-size:70%" dy="-0.6em">18</tspan><tspan dy="0.42em">​</tspan></text></g><g class="xtick"><text text-anchor="middle" x="0" y="436" style="font-family: 'Times New Roman'; font-size: 15px; fill: rgb(13, 13, 13); fill-opacity: 1; white-space: pre; opacity: 1;" transform="translate(310.12,0)">1.612525×10​<tspan style="font-size:70%" dy="-0.6em">18</tspan><tspan dy="0.42em">​</tspan></text></g><g class="xtick"><text text-anchor="middle" x="0" y="436" style="font-family: 'Times New Roman'; font-size: 15px; fill: rgb(13, 13, 13); fill-opacity: 1; white-space: pre; opacity: 1;" transform="translate(408.18,0)">1.61253×10​<tspan style="font-size:70%" dy="-0.6em">18</tspan><tspan dy="0.42em">​</tspan></text></g><g class="xtick"><text text-anchor="middle" x="0" y="436" style="font-family: 'Times New Roman'; font-size: 15px; fill: rgb(13, 13, 13); fill-opacity: 1; white-space: pre; opacity: 1;" transform="translate(506.25,0)">1.612535×10​<tspan style="font-size:70%" dy="-0.6em">18</tspan><tspan dy="0.42em">​</tspan></text></g><g class="xtick"><text text-anchor="middle" x="0" y="436" style="font-family: 'Times New Roman'; font-size: 15px; fill: rgb(13, 13, 13); fill-opacity: 1; white-space: pre; opacity: 1;" transform="translate(604.3199999999999,0)">1.61254×10​<tspan style="font-size:70%" dy="-0.6em">18</tspan><tspan dy="0.42em">​</tspan></text></g></g><g class="yaxislayer-above"><g class="ytick"><text text-anchor="end" x="125" y="12.25" transform="translate(0,404)" style="font-family: 'Times New Roman'; font-size: 35px; fill: rgb(13, 13, 13); fill-opacity: 1; white-space: pre; opacity: 1;">0</text></g><g class="ytick"><text text-anchor="end" x="125" y="12.25" style="font-family: 'Times New Roman'; font-size: 35px; fill: rgb(13, 13, 13); fill-opacity: 1; white-space: pre; opacity: 1;" transform="translate(0,346.65999999999997)">1000</text></g><g class="ytick"><text text-anchor="end" x="125" y="12.25" style="font-family: 'Times New Roman'; font-size: 35px; fill: rgb(13, 13, 13); fill-opacity: 1; white-space: pre; opacity: 1;" transform="translate(0,289.32)">2000</text></g><g class="ytick"><text text-anchor="end" x="125" y="12.25" style="font-family: 'Times New Roman'; font-size: 35px; fill: rgb(13, 13, 13); fill-opacity: 1; white-space: pre; opacity: 1;" transform="translate(0,231.98)">3000</text></g><g class="ytick"><text text-anchor="end" x="125" y="12.25" style="font-family: 'Times New Roman'; font-size: 35px; fill: rgb(13, 13, 13); fill-opacity: 1; white-space: pre; opacity: 1;" transform="translate(0,174.64)">4000</text></g><g class="ytick"><text text-anchor="end" x="125" y="12.25" style="font-family: 'Times New Roman'; font-size: 35px; fill: rgb(13, 13, 13); fill-opacity: 1; white-space: pre; opacity: 1;" transform="translate(0,117.3)">5000</text></g></g><g class="overaxes-above"/></g></g><g class="polarlayer"/><g class="smithlayer"/><g class="ternarylayer"/><g class="geolayer"/><g class="funnelarealayer"/><g class="pielayer"/><g class="iciclelayer"/><g class="treemaplayer"/><g class="sunburstlayer"/><g class="glimages"/><defs id="topdefs-a69394"><g class="clips"/></defs><g class="layer-above"><g class="imagelayer"/><g class="shapelayer"/></g><g class="infolayer"><g class="g-gtitle"/><g class="g-xtitle"><text class="xtitle" x="373" y="463.8" text-anchor="middle" style="font-family: 'Open Sans', verdana, arial, sans-serif; font-size: 14px; fill: rgb(42, 63, 95); opacity: 1; font-weight: normal; white-space: pre;">Time Steps (ns)</text></g><g class="g-ytitle" transform="translate(24,0)"><text class="ytitle" transform="rotate(-90,12,260)" x="12" y="260" text-anchor="middle" style="font-family: 'Times New Roman'; font-size: 40px; fill: rgb(13, 13, 13); opacity: 1; font-weight: normal; white-space: pre;">Speed (in sec.)</text></g></g></svg>