<svg class="main-svg" xmlns="http://www.w3.org/2000/svg" xmlns:xlink="http://www.w3.org/1999/xlink" width="700" height="500" style="" viewBox="0 0 700 500"><rect x="0" y="0" width="700" height="500" style="fill: rgb(255, 255, 255); fill-opacity: 1;"/><defs id="defs-6d996d"><g class="clips"><clipPath id="clip6d996dxyplot" class="plotclip"><rect width="494" height="320"/></clipPath><clipPath class="axesclip" id="clip6d996dx"><rect x="126" y="0" width="494" height="500"/></clipPath><clipPath class="axesclip" id="clip6d996dy"><rect x="0" y="100" width="700" height="320"/></clipPath><clipPath class="axesclip" id="clip6d996dxy"><rect x="126" y="100" width="494" height="320"/></clipPath></g><g class="gradients"/><g class="patterns"/></defs><g class="bglayer"><rect class="bg" x="126" y="100" width="494" height="320" style="fill: rgb(229, 236, 246); fill-opacity: 1; stroke-width: 0;"/></g><g class="layer-below"><g class="imagelayer"/><g class="shapelayer"/></g><g class="cartesianlayer"><g class="subplot xy"><g class="layer-subplot"><g class="shapelayer"/><g class="imagelayer"/></g><g class="minor-gridlayer"><g class="x"/><g class="y"/></g><g class="gridlayer"><g class="x"><path class="xgrid crisp" transform="translate(212.05,0)" d="M0,100v320" style="stroke: rgb(255, 255, 255); stroke-opacity: 1; stroke-width: 1px;"/><path class="xgrid crisp" transform="translate(310.12,0)" d="M0,100v320" style="stroke: rgb(255, 255, 255); stroke-opacity: 1; stroke-width: 1px;"/><path class="xgrid crisp" transform="translate(408.18,0)" d="M0,100v320" style="stroke: rgb(255, 255, 255); stroke-opacity: 1; stroke-width: 1px;"/><path class="xgrid crisp" transform="translate(506.25,0)" d="M0,100v320" style="stroke: rgb(255, 255, 255); stroke-opacity: 1; stroke-width: 1px;"/><path class="xgrid crisp" transform="translate(604.3199999999999,0)" d="M0,100v320" style="stroke: rgb(255, 255, 255); stroke-opacity: 1; stroke-width: 1px;"/></g><g class="y"><path class="ygrid crisp" transform="translate(0,368.04)" d="M126,0h494" style="stroke: rgb(255, 255, 255); stroke-opacity: 1; stroke-width: 1px;"/><path class="ygrid crisp" transform="translate(0,332.48)" d="M126,0h494" style="stroke: rgb(255, 255, 255); stroke-opacity: 1; stroke-width: 1px;"/><path class="ygrid crisp" transform="translate(0,296.90999999999997)" d="M126,0h494" style="stroke: rgb(255, 255, 255); stroke-opacity: 1; stroke-width: 1px;"/><path class="ygrid crisp" transform="translate(0,261.34000000000003)" d="M126,0h494" style="stroke: rgb(255, 255, 255); stroke-opacity: 1; stroke-width: 1px;"/><path class="ygrid crisp" transform="translate(0,225.76999999999998)" d="M126,0h494" style="stroke: rgb(255, 255, 255); stroke-opacity: 1; stroke-width: 1px;"/><path class="ygrid crisp" transform="translate(0,190.2)" d="M126,0h494" style="stroke: rgb(255, 255, 255); stroke-opacity: 1; stroke-width: 1px;"/><path class="ygrid crisp" transform="translate(0,154.63)" d="M126,0h494" style="stroke: rgb(255, 255, 255); stroke-opacity: 1; stroke-width: 1px;"/><path class="ygrid crisp" transform="translate(0,119.06)" d="M126,0h494" style="stroke: rgb(255, 255, 255); stroke-opacity: 1; stroke-width: 1px;"/></g></g><g class="zerolinelayer"><path class="yzl zl crisp" transform="translate(0,403.61)" d="M126,0h494" style="stroke: rgb(255, 255, 255); stroke-opacity: 1; stroke-width: 2px;"/></g><path class="xlines-below"/><path class="ylines-below"/><g class="overlines-below"/><g class="xaxislayer-below"/><g class="yaxislayer-below"/><g class="overaxes-below"/><g class="plot" transform="translate(126,100)" clip-path="url(#clip6d996dxyplot)"><g class="scatterlayer mlayer"><g class="trace scatter trace842f57" style="stroke-miterlimit: 2; opacity: 1;"><g class="fills"/><g class="errorbars"/><g class="lines"><path class="js-line" d="M0,303.65L1.46,303.09L1.46,303.12L1.5,302.91L2.21,301.33L2.6,301.75L2.6,301.89L3.29,302.86L3.33,302.79L3.36,302.83L3.64,302.62L3.9,303.35L3.96,303.3L4.61,303.17L4.74,303.33L4.74,303.4L4.84,303.55L5.06,302.9L5.13,302.92L5.15,302.66L5.36,300.73L5.87,300.9L5.91,300.85L6.78,299.42L6.96,299.62L7,299.66L7.57,300.04L7.77,299.56L7.78,299.3L8.27,297.55L8.72,298.07L8.72,298.22L9.5,299.37L9.5,299.31L9.56,299.26L10.43,302.16L10.43,302.11L10.45,302.15L10.6,301.78L10.69,302.7L11.13,302.53L11.22,302.56L11.48,301.52L11.91,302.23L11.91,302.26L13.25,300.27L13.29,300.51L13.29,300.68L14.18,301.81L14.18,301.75L14.26,301.7L15.4,304L15.54,303.87L15.54,303.81L16.64,300.51L16.65,300.53L16.73,300.56L17.16,299.4L17.59,299.68L17.59,299.72L18.5,297.72L18.63,298.32L18.71,298.27L19.49,299.54L19.67,299.24L19.67,299.19L20.69,296.38L20.69,296.42L20.76,296.46L21.27,297.03L21.54,296.78L21.61,296.72L22.72,296.12L22.72,295.91L23.24,295.98L23.49,295.06L23.5,295.11L23.56,295.06L24.61,293.13L24.75,293.64L24.75,293.71L25.45,295.24L25.45,295.22L25.53,295.21L25.68,295.35L26.37,294.58L26.37,294.68L26.39,294.72L27.2,292.85L27.45,294.02L27.45,294.05L28.44,291.45L28.5,291.62L28.5,291.69L29.02,290.86L29.44,294.2L29.47,294.18L29.56,294.21L29.72,294.6L30.29,294.2L30.32,294.14L30.68,294.77L30.85,293.74L30.85,293.77L30.91,293.67L30.97,293.4L31.35,294.68L31.54,294.28L31.62,294.39L34.33,289.5L34.41,289.84L34.41,289.88L34.76,290.03L35.08,289.41L35.15,289.49L35.2,289.44L36.41,288.42L36.41,288.37L36.51,288.86L37.15,288.23L37.15,288.26L37.19,288.13L37.93,285.89L37.93,285.96L37.95,286L39.19,288.78L39.31,288.24L39.34,288.18L39.78,286.71L39.79,286.66L39.98,285.44L40.44,286.81L40.52,286.74L40.61,286.69L41.08,287.05L41.24,286.55L41.3,286.61L41.39,286.55L41.95,285.72L42.15,286.47L42.17,286.5L42.31,286.36L42.59,287.05L42.66,287L42.66,287.14L43.39,284.89L43.54,285.07L43.54,285.1L43.78,285.1L43.84,284.54L43.93,284.47L43.93,284.41L44.85,282.61L44.87,282.7L44.87,282.73L45.1,282.28L45.3,283.18L45.54,282.3L45.6,282.44L45.73,282.92L46.13,281.5L46.18,281.53L46.22,281.55L46.93,279.19L46.94,278.98L47.18,279.26L47.81,276.56L47.87,276.88L47.9,276.83L48.11,275.02L48.11,274.81L48.15,273.47L48.68,275.87L48.71,276.04L49.04,276.84L49.07,275.97L49.07,275.91L49.14,275.08L49.61,276L49.82,275.61L49.84,275.56L50.63,273.47L50.64,273.42L50.7,273.43L51.35,269.5L51.69,270.76L51.82,270.71L52.96,270.08L52.96,270.79L52.96,270.87L53.09,270.56L53.31,271.4L53.41,271.34L54.36,269.05L54.39,269.1L54.41,269.12L54.75,271.03L55.18,269.97L55.21,270L55.64,270.27L55.85,269.09L55.87,269.23L56.14,268.08L56.43,269.37L56.44,268.72L56.45,268.5L57.06,268.78L57.11,268.92L57.11,268.96L57.24,269.67L57.84,266.44L57.84,266.47L57.88,266.42L58.28,266.62L58.51,266.19L58.61,266.6L58.61,266.64L58.77,267.01L59.07,265.41L59.07,265.19L59.11,264.71L59.31,265.6L59.84,264.88L59.88,264.92L60.76,265.7L60.8,265.53L60.81,265.48L61.22,263.45L61.71,264.04L61.74,264.11L62.42,266.69L62.42,267.01L63.02,268.74L63.14,267.47L63.2,267.42L63.45,267.59L64.25,266.47L64.26,266.58L64.29,266.53L64.52,266.14L64.89,266.73L65.03,266.55L65.03,266.59L65.37,266.94L65.63,266.12L65.79,266.44L65.8,266.48L67.17,269.53L67.18,269.46L67.29,269.42L67.33,269.05L67.64,270.2L68.02,269.29L68.06,269.23L68.14,269.5L68.53,267.51L68.58,267.62L68.61,267.51L68.63,267.66L69.17,266.83L69.27,266.86L69.33,266.76L69.94,266.49L70.05,266.91L70.05,266.95L71.05,266.81L71.06,266.69L71.06,266.64L71.76,265.58L71.83,266.15L71.83,266.29L72.6,268.46L72.74,267.67L72.74,267.46L72.8,267.44L73.51,268.14L73.59,268.17L74.84,264.81L74.86,264.59L76.9,258.45L77.32,259.02L77.32,259.17L78.25,257.02L78.36,257.45L78.47,257.44L79.21,257.34L79.32,257.45L79.32,257.59L79.42,258.22L79.73,257.2L79.76,256.98L80.06,255.88L80.13,257.48L80.5,257L80.55,256.94L82.41,253.71L82.48,254.33L82.54,254.28L83.51,253.51L83.53,253.58L83.53,253.62L84.61,252.16L84.63,252.3L84.85,252.27L85.44,254.45L85.47,254.49L85.87,255.89L86.05,254.65L86.05,254.6L86.22,254.96L87.49,251.09L87.75,252.16L87.75,252.2L88.62,250.78L88.65,251.56L88.65,251.74L88.73,251.61L88.9,252.48L88.98,252.51L88.98,252.69L89.55,252.53L89.69,252.83L89.69,252.86L89.89,252.58L90.64,254.4L90.64,254.35L90.69,254.3L91.03,253.55L91.08,253.5L91.83,251.53L91.83,251.6L91.84,251.55L92.13,252.21L92.4,251.33L92.43,251.28L93.64,244.47L93.66,243.94L94.1,241.85L94.46,242.77L94.52,242.81L94.54,242.48L95,243.49L95.26,242.86L95.3,242.81L96.04,243.19L96.16,243.09L96.19,243.04L96.6,243.66L96.73,243.16L96.78,243.06L96.89,243.17L98.31,242.21L98.31,242.43L98.42,242.37L98.75,244.51L99.26,243.45L99.29,243.46L99.7,243.94L100.47,242.26L100.6,242.58L100.85,243.93L101.26,242.2L101.27,242.31L101.34,242.26L102.31,241.1L102.31,241.17L102.31,240.85L102.64,238.68L102.64,238.57L102.8,238.18L103.24,239.25L103.24,239.19L103.31,239.14L103.43,239.07L104.81,241.97L104.96,241.25L104.96,241.2L105.63,239.47L105.75,239.77L105.77,239.92L106.11,240.52L106.49,240.14L106.58,240.18L106.64,240.44L107.09,239.41L107.09,239.41L107.09,239.36L107.3,238.27L107.7,239.59L107.82,239.24L107.89,239.19L108.52,242.39L108.52,242.54L108.63,243.24L109.25,240.84L109.27,240.96L109.35,240.91L110.43,242.8L110.43,242.78L110.44,243.1L110.83,242.68L111.14,243.34L111.14,243.41L111.23,243.71L111.82,241.67L111.89,241.7L111.94,241.64L111.94,241.8L112.68,240.33L112.7,240.28L114.26,242.54L114.42,242.38L114.45,242.32L114.85,243.41L115.01,242.57L115.01,242.52L115.04,241.98L115.71,243.68L115.72,243.82L116.11,244.34L116.37,243.26L116.37,243.3L116.42,243.17L117.38,242.03L117.39,241.81L118.26,240.71L118.26,240.66L119.37,239.35L119.51,239.67L119.51,239.7L120.11,240.5L120.35,240.36L120.35,240.25L121.3,239L121.3,238.78L122.1,237.6L122.14,237.89L122.2,237.92L122.68,236.85L122.82,237.79L122.82,237.93L123.2,238.03L123.6,236.46L123.68,236.56L123.76,236.6L124.03,237.3L124.66,236.15L124.66,236.74L124.66,236.88L124.99,237.16L125.32,236.75L125.39,236.7L125.99,237.55L126.01,237.69L126.24,236.94L126.65,237.6L126.65,237.64L126.81,237.55L126.92,238.35L126.92,238.42L127.01,238.76L127.25,237.62L127.37,237.41L127.48,237.09L128.06,237.71L128.11,237.74L128.27,237.93L128.41,236.29L128.86,237.48L128.89,237.43L129.02,238L129.56,237.2L129.56,237.15L130.28,234.44L130.61,235.68L130.61,235.72L132.14,230.33L132.23,231.09L132.26,231.23L132.28,231.79L133,229.06L133.02,229L133.63,227.53L133.98,228.1L134.01,228.14L134.3,227.51L134.36,228.65L134.58,228.29L134.58,228.43L134.89,228.92L135.22,227.79L135.28,227.74L135.66,229.2L136.07,228.73L136.09,228.77L136.28,228.51L136.87,228.81L136.95,228.76L137.35,228.26L137.68,228.82L137.72,228.86L137.88,229.05L138.97,226.46L138.97,226.41L139.04,225.94L139.28,228.22L139.65,227.75L139.66,227.71L139.97,226.95L139.97,227.05L139.97,226.84L140.4,226.9L140.4,226.53L140.4,226.15L140.79,223.61L141.28,224.06L141.37,224.04L141.89,221.8L141.94,224.63L141.94,224.95L142.09,224.59L142.48,226.36L142.53,226.4L143.5,227.68L143.5,227.72L143.51,227.9L143.71,226.24L144.19,227.75L144.33,227.69L144.66,226.71L145.08,227.31L145.11,227.46L145.85,226.91L145.85,226.92L145.95,226.86L146.28,227.21L146.49,226.2L146.49,226.22L146.52,226.17L147.31,225.72L147.34,225.79L147.34,225.83L148.18,226.99L148.21,226.94L148.21,226.83L148.35,227.01L148.41,226.5L148.64,226.29L148.64,226.08L149.29,224.49L149.57,225.3L149.63,225.34L149.9,225.38L150.34,224.79L150.43,224.84L150.44,224.87L150.53,224.1L151,225.36L151.17,224.46L151.27,224.4L151.55,224.67L151.95,224.07L151.98,224.18L152.03,224.16L152.6,222.62L152.75,222.76L152.79,222.91L152.87,223.1L153.38,221.23L153.53,221.27L153.56,221.21L153.94,222.77L154.28,221.88L154.32,221.77L154.45,221.98L155.02,220.32L155.09,220.46L155.25,221.19L155.7,219.5L155.79,219.71L155.85,219.66L157.24,214.5L157.26,214.44L157.61,215.07L158.02,213.72L158.11,214.11L158.11,214.13L159.17,215.24L159.49,214.68L159.49,214.62L159.5,214.36L160.1,215.88L160.15,215.77L160.16,215.91L160.28,216.27L160.47,215.01L160.74,215.1L160.81,215.05L161.32,215.35L161.55,214.96L161.55,214.99L161.57,214.94L163.19,211.88L163.19,211.83L163.88,210.96L164.03,211.43L164.03,211.57L164.42,210.49L164.78,210.94L164.83,210.94L164.88,211.14L165.39,210.37L165.44,210.62L165.57,210.57L166.05,210.25L166.05,210.04L167.28,207.81L167.29,207.9L167.29,208.04L167.88,207.78L167.91,207.73L168.13,207.75L168.15,207.36L168.15,207.04L168.27,207.15L168.29,206.27L168.29,206.06L168.52,204.72L168.7,206.27L168.7,206.31L169.15,206.3L169.44,207.77L169.47,207.77L170.32,209.37L170.32,209.31L170.38,209.26L171.04,206.79L171.23,207.35L171.27,207.3L172.09,205.33L172.09,205.41L172.14,205.41L172.69,206.29L172.72,206.43L172.73,206.68L173.1,204.98L173.38,205.1L173.47,205.1L173.95,205.41L173.95,205.37L173.98,205.52L174.75,204.4L174.87,204.8L174.88,204.83L175.82,205.14L175.82,204.92L176.23,202.92L176.55,203.65L176.62,203.59L177.29,202.48L177.52,203.07L177.52,203.11L177.88,201.91L178.22,202.46L178.31,202.5L178.78,201.64L179.12,202.37L179.12,202.44L179.82,201.41L179.94,201.87L180.08,201.91L180.35,204.72L180.82,203.96L180.96,204.06L182.05,202.07L182.16,202.02L183.13,200.54L183.17,200.58L183.23,200.62L183.42,201.23L183.97,199.84L183.97,199.94L184.02,199.89L184.36,198.97L184.36,198.86L184.93,197.75L184.98,198.74L184.98,198.78L186.26,200.28L186.26,200.36L186.39,200.3L187.11,201.55L187.16,200.91L187.16,200.85L187.55,201.67L187.9,199.72L188.04,199.96L188.04,200L188.16,200.48L188.58,198.74L188.59,198.53L188.94,197.74L189.52,199.53L189.54,199.51L189.56,199.35L189.93,200.37L190.31,198.4L190.31,198.54L190.34,198.57L190.59,199.34L190.59,199.38L191.2,199.61L191.2,199.75L191.24,199.78L192.08,198.58L192.2,199.29L192.24,199.32L192.51,199.72L192.67,199.18L192.93,199.56L193.02,199.7L194,202.3L194.19,201.78L194.26,201.72L194.86,202.5L195.14,201.77L195.14,201.67L195.64,202.75L195.97,202.4L195.97,202.35L196.87,205.14L196.91,204.14L196.91,204.03L197.82,200.44L198.05,200.85L198.11,200.89L198.33,200.17L198.33,199.96L198.83,198.97L199.14,199.58L199.21,199.61L199.48,199.33L199.87,199.74L199.93,199.63L199.96,199.66L200.02,199.47L200.35,200.54L200.35,200.49L200.39,200.53L201.14,197.27L201.14,197.3L201.32,197.09L201.98,194.78L201.98,194.73L203.51,187.09L203.76,187.74L203.77,187.77L203.79,187.95L204.32,186.39L204.34,186.43L204.34,186.38L204.69,186.69L204.92,185.98L204.92,185.93L205.78,184.86L205.79,184.91L205.98,184.85L207.17,181.4L207.17,181.43L207.18,181.47L210.51,173.18L210.56,173.95L210.56,174.02L210.58,174.24L211.18,173.03L211.25,173.12L211.25,173.07L212.83,175L212.91,174.98L212.93,175.21L213.56,174.33L213.59,174.27L213.61,174.47L213.86,172.83L214.27,173.65L214.29,173.64L214.4,173.23L214.52,173.78L214.96,173.78L214.96,173.82L215.25,173.96L215.83,172.98L215.85,173.36L215.85,173.54L215.9,173.5L216.4,174.78L216.56,173.73L216.64,173.8L216.65,174.05L217.32,173.21L217.36,173.25L217.36,173.14L217.51,173.19L217.59,172.44L217.59,172.39L217.73,172.53L218.13,169.72L218.28,169.8L218.35,169.69L218.42,169.24L218.81,171.01L218.91,170.88L218.96,170.91L219.02,171.55L219.52,168.28L219.71,169.39L219.74,169.4L220.21,169.62L220.32,168.99L220.44,169.28L220.44,169.17L220.68,169.04L220.69,169.75L220.78,169.81L220.79,169.84L221.49,171.22L221.68,170.45L221.76,170.4L222.06,168.81L222.59,169.63L222.59,169.66L222.97,170.39L222.97,170.43L223.07,170.78L223.4,168.34L223.62,168.73L223.67,168.68L224.11,169.29L224.39,168.61L224.41,168.55L225.36,169.87L225.39,169.84L225.51,169.88L225.69,167.33L225.72,167.4L225.72,166.97L226.06,163.47L226.52,164.33L226.53,164.27L227.33,165.24L227.33,165.19L227.4,165.22L227.62,165.26L228.15,164.27L228.18,164.21L228.29,163.99L228.33,164.88L228.8,164.65L228.8,164.68L228.87,164.54L229.06,165.82L229.12,165.77L229.82,165.09L229.82,165.03L230.02,164.41L230.5,165.43L230.51,165.4L230.51,165.54L230.76,167L231.1,164.57L231.16,164.74L231.2,164.78L231.34,164.65L231.53,165.49L231.53,165.63L231.79,166.65L232.26,166.29L232.29,166.24L232.35,166.27L232.67,164.84L233,165.39L233.05,165.33L233.51,164.59L233.51,164.48L233.83,164.01L234.16,164.74L234.16,164.88L234.64,165.55L234.87,165.31L234.93,165.34L235.26,164.84L235.62,165.78L235.79,165.75L235.98,166.6L236.03,165.47L236.44,165.84L236.5,165.79L236.68,165.55L237.12,166.33L237.12,166.3L237.21,166.28L238.02,165.44L238.29,165.92L238.29,165.95L238.33,166.17L238.7,164.16L238.73,164.18L238.73,163.97L238.9,164.77L239.37,163.78L239.37,163.68L239.92,155.73L240.07,156.2L240.2,156.24L240.47,156.84L240.77,155.47L240.93,155.91L240.97,155.95L241.95,157L241.95,157.1L242.26,158.15L242.69,156.75L242.69,157.11L242.72,157.11L243.07,158.56L243.26,156.69L243.27,156.73L243.27,156.68L243.64,157.57L243.87,156.43L243.99,156.59L244.04,156.57L245.3,159.54L245.39,159.33L245.47,158.6L245.63,159.49L246.04,159.43L246.2,159.46L246.82,159.21L246.84,159.11L246.84,159L249.48,151.63L249.69,151.99L249.69,152.06L249.88,152.34L250.22,151.48L250.42,152.25L250.46,152.2L251.29,151.23L251.29,151.26L251.32,151.29L251.47,151.01L252.07,151.73L252.1,151.76L252.28,152.05L252.42,151.42L252.71,151.42L252.84,151.36L253.1,149.09L253.53,150.46L253.64,150.4L254.31,152.16L254.39,151.99L254.41,151.93L255.44,149.08L255.56,149.38L255.56,149.53L256.03,150.79L256.3,149.58L256.32,149.53L257.26,148.05L257.35,148.25L257.4,148.2L258.02,146.79L258.22,147.65L258.22,147.79L258.48,149.65L258.98,148.65L259,148.44L259.71,146.6L259.96,147.5L259.96,147.65L260.13,148.9L260.48,147.76L260.53,147.79L260.66,148.32L261.28,147.82L261.3,147.85L261.37,148.15L261.78,146.94L261.78,146.88L263.39,150.75L263.45,150.02L263.46,149.8L263.53,149.68L263.82,150.63L264.22,149.91L264.25,149.92L264.42,149.42L264.82,150.77L264.82,151.13L265.51,153.26L265.58,153.3L266,152.74L266.08,154.01L266.32,154.04L266.34,153.53L266.39,154.38L267.07,154.06L267.08,154L267.59,152.12L267.81,153.48L267.9,153.62L268.72,155.65L268.78,155.47L268.81,155.51L269.59,154.72L269.68,154.83L269.73,154.86L269.81,155.06L270.14,154.14L270.14,153.92L270.69,154.11L271.06,152.47L271.06,152.61L271.16,152.62L271.7,152.74L271.71,152.46L271.71,152.4L272.7,148.14L272.81,148.4L272.84,148.35L272.99,148.12L273.12,149.02L273.5,148.69L273.5,148.76L274.48,149.14L274.48,149.08L274.5,149.15L274.5,149.33L274.73,148.51L275.24,149.15L275.26,149.1L276.62,148.03L276.65,148.15L276.65,148.19L277.72,145.64L277.74,145.58L278.25,143.28L278.55,144.3L278.56,144.31L278.81,144.55L279.28,143.71L279.28,143.75L279.32,143.69L280.13,142.6L280.2,143.16L280.2,143.31L280.46,143.6L280.8,142.17L281.09,142.91L281.11,142.95L281.45,142.64L281.53,143.59L281.57,143.46L281.58,143.74L281.71,144.19L282.28,141.01L282.39,141.85L282.44,141.79L282.59,141.47L282.86,143.39L282.89,143.37L282.98,143.36L283.71,142.26L283.9,142.59L283.9,142.62L284.6,142.67L284.63,142.31L284.63,142.26L284.68,141.95L285.03,144.2L285.17,143.91L285.22,143.85L285.44,144.3L285.68,143.26L285.76,144.23L285.76,144.3L286.15,145.33L286.6,144.73L286.68,144.68L286.93,144.91L287.44,143.77L287.5,143.85L287.52,143.85L288.7,139.64L288.92,139.86L288.96,139.9L289.08,139.75L289.25,140.64L289.25,140.78L289.33,141.15L289.96,138.98L290.01,138.98L290.26,138.23L290.48,140.57L290.57,140.49L290.57,140.52L291.7,138.47L291.72,138.86L291.74,138.81L291.83,138.27L292.02,140.32L292.39,139.68L292.39,139.71L293.72,138.21L293.81,138.48L293.81,138.55L295.03,137.55L295.2,137.88L295.2,137.92L295.45,138.45L295.76,136.96L295.77,137.01L295.77,136.79L295.92,136.15L296.51,138.16L296.58,138.19L297.28,139.54L297.35,139.33L297.36,139.28L297.7,140.04L298.03,138.67L298.07,138.73L298.12,138.76L298.37,139.69L298.37,139.72L298.71,140.2L298.77,139.66L298.79,140.15L298.79,140.38L298.87,141L299.2,140.3L299.52,140.52L299.52,140.36L299.7,140.23L300,142.13L300.3,141.65L300.33,141.69L300.77,141.93L301.08,138.95L301.14,138.9L301.56,133.97L302.1,134.87L302.1,134.94L303.88,128.67L304.14,129.52L304.18,129.47L304.41,129.79L304.84,128.12L304.84,128.19L304.88,128.14L306.64,130.52L306.64,130.46L306.74,130.32L307,131.01L307.14,131.02L307.15,131.06L307.84,131.76L307.92,131.65L308,131.69L308.13,131.51L308.23,132.83L308.23,133.04L308.25,133.07L308.92,131.08L308.97,131.4L309.04,131.44L309.43,132.02L309.57,131.12L309.59,131.13L309.6,131.07L310.14,131.31L310.14,131.38L310.14,131.49L310.57,132.83L310.73,131.67L310.73,131.62L311.57,133.33L311.57,133.32L311.57,133.36L311.57,133.53L311.99,132.79L312.27,133.16L312.33,133.19L313.16,134.63L313.35,134.26L313.4,134.2L314.1,134.77L314.13,134.68L314.27,134.62L315.3,133.24L315.4,133.33L315.44,133.3L316.18,132.06L316.18,131.58L316.97,127.05L316.97,127.08L317.07,127.05L317.27,126.84L317.42,127.74L317.42,127.88L317.43,128.49L317.73,127L318.13,127.05L318.18,126.99L318.25,126.83L318.55,128.22L318.55,128.22L318.55,128.36L318.85,127.14L319.26,127.97L319.33,128.11L319.87,129.09L320,127.8L320.07,127.75L320.15,127.14L320.37,128.32L320.79,127.95L320.82,127.99L320.92,127.39L321.58,127.48L321.72,127.51L323.2,124.66L323.24,125.11L323.27,125.14L323.51,125.03L323.94,126.02L323.97,125.86L324.1,125.89L324.3,125.49L324.3,125.3L324.3,125.08L324.67,125.58L324.86,124.65L324.86,124.6L324.95,124.84L325.22,123.77L325.22,123.55L325.27,123.18L325.88,123.92L325.93,123.85L325.93,123.94L325.93,124.63L326.55,124.09L326.69,124.19L326.89,120.57L327.32,120.88L327.46,120.91L328.19,119.54L328.2,119.69L328.34,119.72L329.2,126.38L329.7,125.62L329.7,125.51L329.77,125.23L330.65,127.49L331.05,126.71L331.13,126.75L331.13,126.53L331.57,127.56L331.88,127.19L331.92,127.14L332.75,128.4L332.81,128.43L332.82,128.42L333.51,129.97L333.57,130.01L334.32,130.72L334.39,130.22L334.39,130L335.13,128.43L335.16,128.32L335.28,127.62L335.71,128.81L335.87,128.19L335.96,128.14L336.6,125.37L336.82,126.76L336.82,126.91L337.47,125.69L337.64,126.37L337.66,126.4L338.41,123.66L338.41,123.75L338.46,123.79L339.04,123.45L339.46,126.55L339.74,125.86L339.74,125.64L339.86,125.11L340.33,126.1L340.42,126.05L341.19,125.11L341.23,125.11L341.74,124.44L341.91,125.68L341.91,125.62L341.92,125.69L342.02,125.38L342.36,126.27L342.41,126.31L343.19,125.65L343.24,126.05L343.38,126.08L343.87,127.74L344.08,126.62L344.09,126.41L344.32,127.25L344.84,126.63L344.86,126.62L345.37,124.75L345.73,125.14L345.74,125.09L346.91,119.07L347.22,119.15L347.22,119.19L347.49,118.66L347.8,119.36L347.91,118.96L347.93,118.75L349.08,117.8L349.08,117.84L349.23,117.78L349.75,117.3L349.82,117.98L349.84,118.01L350.26,116.26L350.26,116.3L350.26,116.24L351.39,113.6L351.53,114.03L351.53,114.07L351.55,114.26L352.17,112.5L352.17,112.66L352.2,112.6L352.57,113.23L352.58,113.26L352.87,113.27L353.06,112.35L353.33,112.93L353.4,112.87L353.47,112.45L353.9,113.9L354.13,113.74L354.16,113.68L354.31,113.86L354.97,110.86L355.15,111.2L355.2,111.14L355.72,109.47L355.91,110.13L355.97,110.07L356.8,111.8L357.04,111.16L357.05,111.1L357.49,110.94L357.85,111.66L357.85,111.61L357.85,111.55L358.4,111.66L358.45,112.03L358.45,112.07L359.05,114.88L359.24,114.68L359.32,114.63L359.69,114.5L360.7,117.42L360.78,117.23L360.81,117.17L361.1,116.36L361.1,116.25L361.55,116.83L362.26,112.2L362.26,112.15L362.67,112.54L363.08,111L363.09,111.25L363.09,111.28L363.34,112.16L363.65,111.02L363.67,110.8L363.9,108.88L364.45,109.41L364.58,109.45L364.73,109.69L364.76,108.87L364.79,108.33L365.79,102.83L365.98,103.35L366.09,103.29L366.52,101.71L366.52,101.49L366.72,100.88L367.08,102.56L367.12,102.48L367.12,102.62L367.78,104.5L367.94,104.25L367.97,104.29L369.02,102.45L369.18,102.8L369.2,102.84L369.28,102.44L369.79,103.32L369.95,103.2L369.97,103.23L370.21,103.7L370.72,102.98L370.75,103.02L370.83,102.81L371.38,100.64L371.39,100.43L371.49,99.98L372.03,100.75L372.03,100.7L372.05,100.84L372.21,101.23L372.45,100.45L372.79,100.64L372.81,100.64L372.91,100.08L373.51,101.91L373.55,101.95L374.92,105.31L375.11,104.98L375.22,105.01L376.59,102.26L376.88,103.17L376.88,103.21L376.96,102.97L377.44,103.94L377.45,103.98L377.59,102.99L378.18,103.86L378.21,104.01L378.74,104.67L378.89,103.94L378.95,103.89L379.57,103.13L379.73,103.37L379.73,103.4L379.89,103.83L380.44,103.07L380.44,103.59L380.44,103.74L380.95,103.26L381.17,104.22L381.25,104.17L381.53,104.1L382,105.6L382.01,105.74L382.13,106.52L382.75,105.79L382.79,105.74L383.73,106.24L383.78,105.74L383.78,105.53L384.34,105.21L384.34,106.05L384.37,105.98L384.41,106.01L384.58,105.88L385.23,107.33L385.24,107.22L385.66,108.52L385.79,107.73L385.82,107.67L385.83,107.94L386.56,106.09L386.58,106.03L386.78,106.45L387.24,105.69L387.25,105.73L387.29,105.68L387.33,105.86L387.93,105.21L388.07,105.56L388.08,105.7L388.11,105.38L388.82,106.25L388.82,106.21L388.87,106.16L389.14,106.76L389.41,106.03L389.42,105.98L389.51,105.29L390.13,106.03L390.13,106.1L390.2,106.93L390.49,105.54L390.85,106.17L390.89,106L391.17,106.57L391.6,105.99L391.65,105.93L391.77,105.59L391.97,106.76L392.25,106.44L392.32,106.39L392.58,105.66L392.82,106.77L392.82,107.13L393.73,110.91L393.75,110.73L393.81,110.68L394.09,110.06L394.25,111.02L394.26,111.17L394.33,111.02L394.59,112.04L394.63,111.99L394.64,112.14L394.66,112.49L395.3,111L395.32,111.17L395.36,111.12L395.66,110.92L395.73,111.71L395.87,111.73L395.87,111.77L396.04,111.97L396.59,111.19L396.73,111.48L396.74,111.56L396.88,112.09L397.31,111.51L397.34,111.4L397.59,112.2L398.05,111.58L398.1,111.62L398.49,110.77L398.68,111.63L398.68,111.77L398.68,112.06L399.43,108.83L399.43,108.84L399.44,108.73L399.72,107.72L399.77,107.82L399.77,107.39L400.34,106L400.49,106.61L400.55,106.56L400.76,106.9L401.26,104.56L401.38,105.22L401.38,105.36L401.47,104.81L402.19,106.25L402.27,106.2L403.24,103.67L403.62,103.97L403.62,104.01L404.14,102L404.37,102.85L404.42,102.84L404.92,103.33L405.51,99.66L405.51,98.87L406.55,86.43L406.56,86.47L406.58,86.54L407.47,89.1L407.51,89.17L407.98,90.74L408.4,89.87L408.43,89.82L409.46,90.94L409.46,90.98L410,90.62L410,91.34L410,91.49L410.04,91.48L410.75,93.2L410.75,93.15L410.83,93.1L411.71,95.52L411.79,95.46L412.72,93.48L412.73,93.55L412.73,93.69L412.78,93.34L413.32,94.81L413.39,94.81L413.63,94.63L413.69,95.42L413.8,95.45L413.8,95.49L414.01,95.88L414.66,94.6L414.93,95.16L414.93,95.26L415.08,95.3L415.27,94.58L415.27,94.53L415.63,92.97L415.63,92.91L416.01,93.45L416.58,91.77L416.58,91.81L416.98,90.86L417.25,92.65L417.25,92.6L417.3,92.63L418.12,90.94L418.19,90.98L418.37,90.65L418.8,91.36L418.8,91.47L419.33,94.48L419.59,93.18L419.62,93.07L420.34,91.46L420.37,91.55L420.54,91.5L420.73,91.18L420.88,92.12L421.18,91.95L421.28,91.98L422.2,90.55L422.26,91.25L422.26,91.29L422.94,92.11L423.04,91.89L423.1,91.83L423.37,91.28L423.52,91.98L423.65,91.39L423.65,91.29L424.21,90.32L424.51,90.72L424.51,90.89L426.48,87.37L426.49,87.16L427.36,85.27L427.48,85.3L427.7,85.03L427.75,85.68L427.75,85.82L428.72,84L428.83,84.39L428.86,84.42L428.91,84.26L429.19,85.73L429.21,85.63L429.26,85.7L429.43,86.2L429.66,85.18L429.91,85.52L429.93,85.31L430.47,85.64L430.5,85.68L430.79,86.29L431.1,85.24L431.15,85.02L431.29,83.98L431.95,84.63L431.95,84.7L432.72,82.15L432.81,82.2L432.84,82.14L433.04,81.89L433.04,81.46L433.87,77.85L433.92,78.16L433.96,78.2L434.71,79.97L434.78,79.29L434.81,79.33L435.8,75.61L436.05,75.89L436.09,75.84L436.83,76.4L436.9,76.38L437.14,76.42L437.9,75.44L437.9,75.39L438.35,74.73L438.59,75.8L438.62,75.84L438.72,76.07L439.37,71.86L439.37,71.96L439.4,72L439.83,69L440.15,69.48L440.18,69.52L440.55,67.57L440.92,68.5L440.96,68.53L442.14,70.22L442.17,69.41L442.17,69.19L442.54,70.96L442.93,69.45L442.98,69.13L442.98,69.45L443.68,67.44L443.73,67.53L443.78,67.48L444.57,64.8L444.57,64.59L444.96,63.43L445.25,65.18L445.25,65.12L445.31,65.11L445.57,65.86L445.89,65.15L445.91,65.54L445.91,65.69L446.8,67.58L446.86,67.59L446.95,67.93L446.98,66.75L446.98,66.82L447.04,66.39L447.8,61.91L447.89,62.1L447.9,62.17L448.28,63.49L448.77,63.05L448.79,63.08L449.04,63.63L449.44,62.5L449.5,62.56L449.51,62.51L449.66,62.82L449.78,62L449.82,62.02L449.82,61.97L450.29,59.93L450.4,63.26L450.46,63.29L450.85,62.09L450.85,61.88L452,57.72L452,57.75L452.06,57.75L452.74,55.94L452.82,55.73L453.74,50.72L453.74,50.79L453.83,50.83L454.66,49.01L454.67,49.05L454.68,49.24L455.33,47.88L455.33,47.95L455.37,47.99L456.47,44.01L456.5,45.02L456.55,45.05L456.56,45.26L457.18,42.72L457.23,42.74L457.33,42.69L458.33,40.79L458.33,40.92L458.34,40.93L459.47,42.21L459.57,41.86L459.59,41.81L459.75,42.13L459.96,40.21L460.17,40.92L460.17,40.71L461,38.76L461.02,38.55L461.82,38.22L461.86,38.33L461.86,38.36L462.25,37.97L462.56,38.98L462.75,38.71L462.77,38.65L462.95,38.92L463.16,38.08L463.51,38.67L463.54,38.61L463.89,37.83L463.96,38.82L464.24,38.61L464.28,38.61L464.5,39.58L464.7,38.28L465,38.4L465,38.38L465.74,38.75L465.74,38.78L465.74,38.82L466.46,35.33L466.5,35.36L467.45,32.66L467.58,32.88L467.58,33.06L468.15,34.79L468.4,33.55L468.4,33.5L468.57,33.75L468.76,32.86L468.89,32.85L468.89,32.79L469,32.95L469.29,32.18L469.31,32.21L469.31,32L469.44,32.68L469.95,29.24L470.11,30.04L470.13,30.18L470.22,30.85L470.41,29L470.85,29.2L470.89,29.1L470.93,28.45L471.35,30.72L471.56,30.36L471.58,30.39L471.91,28.93L472.13,30.31L472.22,30.35L472.76,32.69L473.04,31.76L473.09,31.71L473.58,32.44L473.82,31.41L473.82,31.45L473.84,31.48L475.49,27.62L475.6,27.75L475.6,27.82L475.89,28.08L476.27,27.65L476.28,27.54L477.03,28.78L477.03,28.68L477.08,28.57L477.48,27.42L477.75,27.9L477.84,27.74L478.08,27.11L478.43,29.29L478.56,28.01L478.62,28.04L479.16,29.34L479.54,28.85L479.6,28.79L479.69,28.2L480.2,29.43L480.35,29.41L480.41,29.55L480.52,30.01L481.06,28.58L481.07,28.66L481.11,28.61L481.32,27.76L481.76,29.93L481.81,29.88L482.46,28.05L482.63,28.37L482.68,28.41L482.8,28.3L482.96,29.12L482.96,29.26L483.06,29.11L483.58,30.6L483.61,30.53L483.64,30.52L484.83,27.33L484.88,26.96L485.42,25.44L485.66,25.61L485.7,25.56L486.75,20.97L486.91,21.01L486.93,21.04L487.09,21.41L487.51,20.79L487.55,20.69L488.33,19.32L488.33,20.23L488.36,20.26L489.45,17.3L489.49,17.29L489.69,16L489.94,18.45L489.95,18.62L489.99,18.52L490.76,20.14L490.82,19.27L490.83,19.17L490.87,19.63L491.13,19.16L491.57,19.56L491.63,19.59L492.33,20.68L492.39,20.05L492.47,20L493.38,18.43L493.52,19.08L493.52,19.22L494,17.48" style="vector-effect: non-scaling-stroke; fill: none; stroke: rgb(1, 102, 30); stroke-opacity: 1; stroke-width: 2px; opacity: 1;"/></g><g class="points"/><g class="text"/></g></g></g><g class="overplot"/><path class="xlines-above crisp" d="M0,0" style="fill: none;"/><path class="ylines-above crisp" d="M0,0" style="fill: none;"/><g class="overlines-above"/><g class="xaxislayer-above"><g class="xtick"><text text-anchor="middle" x="0" y="436" transform="translate(212.05,0)" style="font-family: 'Times New Roman'; font-size: 15px; fill: rgb(13, 13, 13); fill-opacity: 1; white-space: pre; opacity: 1;">1.61252×10​<tspan style="font-size:70%" dy="-0.6em">18</tspan><tspan dy="0.42em">​</tspan></text></g><g class="xtick"><text text-anchor="middle" x="0" y="436" style="font-family: 'Times New Roman'; font-size: 15px; fill: rgb(13, 13, 13); fill-opacity: 1; white-space: pre; opacity: 1;" transform="translate(310.12,0)">1.612525×10​<tspan style="font-size:70%" dy="-0.6em">18</tspan><tspan dy="0.42em">​</tspan></text></g><g class="xtick"><text text-anchor="middle" x="0" y="436" style="font-family: 'Times New Roman'; font-size: 15px; fill: rgb(13, 13, 13); fill-opacity: 1; white-space: pre; opacity: 1;" transform="translate(408.18,0)">1.61253×10​<tspan style="font-size:70%" dy="-0.6em">18</tspan><tspan dy="0.42em">​</tspan></text></g><g class="xtick"><text text-anchor="middle" x="0" y="436" style="font-family: 'Times New Roman'; font-size: 15px; fill: rgb(13, 13, 13); fill-opacity: 1; white-space: pre; opacity: 1;" transform="translate(506.25,0)">1.612535×10​<tspan style="font-size:70%" dy="-0.6em">18</tspan><tspan dy="0.42em">​</tspan></text></g><g class="xtick"><text text-anchor="middle" x="0" y="436" style="font-family: 'Times New Roman'; font-size: 15px; fill: rgb(13, 13, 13); fill-opacity: 1; white-space: pre; opacity: 1;" transform="translate(604.3199999999999,0)">1.61254×10​<tspan style="font-size:70%" dy="-0.6em">18</tspan><tspan dy="0.42em">​</tspan></text></g></g><g class="yaxislayer-above"><g class="ytick"><text text-anchor="end" x="125" y="12.25" transform="translate(0,403.61)" style="font-family: 'Times New Roman'; font-size: 35px; fill: rgb(13, 13, 13); fill-opacity: 1; white-space: pre; opacity: 1;">0</text></g><g class="ytick"><text text-anchor="end" x="125" y="12.25" style="font-family: 'Times New Roman'; font-size: 35px; fill: rgb(13, 13, 13); fill-opacity: 1; white-space: pre; opacity: 1;" transform="translate(0,368.04)">200</text></g><g class="ytick"><text text-anchor="end" x="125" y="12.25" style="font-family: 'Times New Roman'; font-size: 35px; fill: rgb(13, 13, 13); fill-opacity: 1; white-space: pre; opacity: 1;" transform="translate(0,332.48)">400</text></g><g class="ytick"><text text-anchor="end" x="125" y="12.25" style="font-family: 'Times New Roman'; font-size: 35px; fill: rgb(13, 13, 13); fill-opacity: 1; white-space: pre; opacity: 1;" transform="translate(0,296.90999999999997)">600</text></g><g class="ytick"><text text-anchor="end" x="125" y="12.25" style="font-family: 'Times New Roman'; font-size: 35px; fill: rgb(13, 13, 13); fill-opacity: 1; white-space: pre; opacity: 1;" transform="translate(0,261.34000000000003)">800</text></g><g class="ytick"><text text-anchor="end" x="125" y="12.25" style="font-family: 'Times New Roman'; font-size: 35px; fill: rgb(13, 13, 13); fill-opacity: 1; white-space: pre; opacity: 1;" transform="translate(0,225.76999999999998)">1000</text></g><g class="ytick"><text text-anchor="end" x="125" y="12.25" style="font-family: 'Times New Roman'; font-size: 35px; fill: rgb(13, 13, 13); fill-opacity: 1; white-space: pre; opacity: 1;" transform="translate(0,190.2)">1200</text></g><g class="ytick"><text text-anchor="end" x="125" y="12.25" style="font-family: 'Times New Roman'; font-size: 35px; fill: rgb(13, 13, 13); fill-opacity: 1; white-space: pre; opacity: 1;" transform="translate(0,154.63)">1400</text></g><g class="ytick"><text text-anchor="end" x="125" y="12.25" style="font-family: 'Times New Roman'; font-size: 35px; fill: rgb(13, 13, 13); fill-opacity: 1; white-space: pre; opacity: 1;" transform="translate(0,119.06)">1600</text></g></g><g class="overaxes-above"/></g></g><g class="polarlayer"/><g class="smithlayer"/><g class="ternarylayer"/><g class="geolayer"/><g class="funnelarealayer"/><g class="pielayer"/><g class="iciclelayer"/><g class="treemaplayer"/><g class="sunburstlayer"/><g class="glimages"/><defs id="topdefs-6d996d"><g class="clips"/></defs><g class="layer-above"><g class="imagelayer"/><g class="shapelayer"/></g><g class="infolayer"><g class="g-gtitle"/><g class="g-xtitle"><text class="xtitle" x="373" y="463.8" text-anchor="middle" style="font-family: 'Open Sans', verdana, arial, sans-serif; font-size: 14px; fill: rgb(42, 63, 95); opacity: 1; font-weight: normal; white-space: pre;">Time Steps (ns)</text></g><g class="g-ytitle" transform="translate(24,0)"><text class="ytitle" transform="rotate(-90,12,260)" x="12" y="260" text-anchor="middle" style="font-family: 'Times New Roman'; font-size: 40px; fill: rgb(13, 13, 13); opacity: 1; font-weight: normal; white-space: pre;">Turnaround (in $)</text></g></g></svg>