<svg class="main-svg" xmlns="http://www.w3.org/2000/svg" xmlns:xlink="http://www.w3.org/1999/xlink" width="700" height="500" style="" viewBox="0 0 700 500"><rect x="0" y="0" width="700" height="500" style="fill: rgb(255, 255, 255); fill-opacity: 1;"/><defs id="defs-a29be8"><g class="clips"><clipPath id="clipa29be8xyplot" class="plotclip"><rect width="399" height="300"/></clipPath><clipPath class="axesclip" id="clipa29be8x"><rect x="137" y="0" width="399" height="500"/></clipPath><clipPath class="axesclip" id="clipa29be8y"><rect x="0" y="100" width="700" height="300"/></clipPath><clipPath class="axesclip" id="clipa29be8xy"><rect x="137" y="100" width="399" height="300"/></clipPath></g><g class="gradients"/><g class="patterns"/></defs><g class="bglayer"><rect class="bg" x="137" y="100" width="399" height="300" style="fill: rgb(229, 236, 246); fill-opacity: 1; stroke-width: 0;"/></g><g class="layer-below"><g class="imagelayer"/><g class="shapelayer"/></g><g class="cartesianlayer"><g class="subplot xy"><g class="layer-subplot"><g class="shapelayer"/><g class="imagelayer"/></g><g class="minor-gridlayer"><g class="x"/><g class="y"/></g><g class="gridlayer"><g class="x"><path class="xgrid crisp" transform="translate(206.5,0)" d="M0,100v300" style="stroke: rgb(255, 255, 255); stroke-opacity: 1; stroke-width: 1px;"/><path class="xgrid crisp" transform="translate(285.71000000000004,0)" d="M0,100v300" style="stroke: rgb(255, 255, 255); stroke-opacity: 1; stroke-width: 1px;"/><path class="xgrid crisp" transform="translate(364.91999999999996,0)" d="M0,100v300" style="stroke: rgb(255, 255, 255); stroke-opacity: 1; stroke-width: 1px;"/><path class="xgrid crisp" transform="translate(444.13,0)" d="M0,100v300" style="stroke: rgb(255, 255, 255); stroke-opacity: 1; stroke-width: 1px;"/><path class="xgrid crisp" transform="translate(523.3399999999999,0)" d="M0,100v300" style="stroke: rgb(255, 255, 255); stroke-opacity: 1; stroke-width: 1px;"/></g><g class="y"><path class="ygrid crisp" transform="translate(0,362.54)" d="M137,0h399" style="stroke: rgb(255, 255, 255); stroke-opacity: 1; stroke-width: 1px;"/><path class="ygrid crisp" transform="translate(0,325.03)" d="M137,0h399" style="stroke: rgb(255, 255, 255); stroke-opacity: 1; stroke-width: 1px;"/><path class="ygrid crisp" transform="translate(0,287.51)" d="M137,0h399" style="stroke: rgb(255, 255, 255); stroke-opacity: 1; stroke-width: 1px;"/><path class="ygrid crisp" transform="translate(0,212.49)" d="M137,0h399" style="stroke: rgb(255, 255, 255); stroke-opacity: 1; stroke-width: 1px;"/><path class="ygrid crisp" transform="translate(0,174.97)" d="M137,0h399" style="stroke: rgb(255, 255, 255); stroke-opacity: 1; stroke-width: 1px;"/><path class="ygrid crisp" transform="translate(0,137.46)" d="M137,0h399" style="stroke: rgb(255, 255, 255); stroke-opacity: 1; stroke-width: 1px;"/></g></g><g class="zerolinelayer"><path class="yzl zl crisp" transform="translate(0,250)" d="M137,0h399" style="stroke: rgb(255, 255, 255); stroke-opacity: 1; stroke-width: 2px;"/></g><path class="xlines-below"/><path class="ylines-below"/><g class="overlines-below"/><g class="xaxislayer-below"/><g class="yaxislayer-below"/><g class="overaxes-below"/><g class="plot" transform="translate(137,100)" clip-path="url(#clipa29be8xyplot)"><g class="scatterlayer mlayer"><g class="trace scatter tracead1666" style="stroke-miterlimit: 2; opacity: 1;"><g class="fills"/><g class="errorbars"/><g class="lines"><path class="js-line" d="M0,172.5L0.33,206.27L0.85,97.47L0.88,146.25L0.97,104.97L1.63,165.01L1.65,157.5L1.72,176.26L2.07,131.24L2.4,134.99L2.41,172.51L2.94,116.23L3.15,142.5L3.2,157.5L3.37,134.99L3.72,161.26L3.72,161.26L3.83,146.25L3.98,127.49L4.11,183.77L4.47,165.01L4.59,165.01L4.83,131.24L5.16,172.51L5.27,161.26L5.35,153.75L5.74,138.75L5.83,172.51L5.85,187.52L6.1,134.99L6.6,146.25L6.61,153.75L6.76,176.26L6.85,123.74L7.19,138.75L7.19,168.76L7.19,176.26L7.46,119.99L7.94,138.75L8.07,146.25L8.12,131.24L8.63,183.76L8.82,153.75L8.84,131.24L8.89,176.26L8.96,127.49L9.59,134.99L9.62,150L10.11,116.24L10.3,180.01L10.37,153.75L10.39,142.5L10.65,116.23L10.7,187.52L11.18,176.26L11.27,157.5L11.39,176.26L11.82,116.23L12,138.74L12.01,161.26L12.21,168.76L12.66,134.99L12.75,146.25L12.79,153.75L12.92,165.01L13.18,131.24L13.54,146.25L13.56,146.25L13.6,180.01L13.76,134.99L14.24,157.5L14.24,134.99L14.53,127.49L14.94,176.26L15,153.75L15.02,123.74L15.5,165.01L15.74,157.5L15.77,112.48L15.82,89.97L15.89,202.53L15.89,221.29L16.55,89.97L16.62,202.53L16.71,142.5L16.81,172.51L17.12,134.99L17.46,146.25L17.52,153.75L17.94,191.26L18.1,127.49L18.27,165.01L18.28,134.99L18.31,131.24L18.49,172.51L18.81,161.25L18.91,146.25L19.33,172.5L19.52,127.5L19.66,138.75L19.66,161.25L20.19,123.74L20.21,168.76L20.49,138.75L20.52,153.75L21,187.51L21.17,116.24L21.3,135L21.3,172.51L21.4,112.49L21.99,180L22.06,157.5L22.08,138.75L22.17,119.99L22.19,180.01L22.57,138.75L22.57,150L22.97,180.01L23.04,93.73L23.32,157.5L23.36,157.5L23.98,123.74L24.01,172.51L24.04,131.25L24.15,153.75L24.79,119.99L24.86,176.26L24.9,161.25L24.92,161.25L25.01,183.76L25.54,123.74L25.72,146.25L25.72,168.76L25.74,176.26L25.88,123.74L26.41,157.5L26.43,146.25L26.65,135L27.15,172.5L27.15,172.5L27.18,127.5L27.26,180.01L27.65,123.75L27.89,142.5L27.92,127.5L28.11,105L28.25,176.25L28.53,146.25L28.54,153.75L28.9,180L28.94,104.99L29.29,161.25L29.31,146.25L29.33,180L29.98,116.25L30.04,142.5L30.07,157.5L30.35,172.5L30.61,127.5L30.8,131.25L30.82,172.5L30.85,183.75L31.5,120L31.57,150L31.58,168.75L31.88,123.75L32.08,135L32.11,161.25L32.58,187.5L32.81,105L32.84,153.75L32.91,146.25L32.96,221.25L33.08,78.75L33.65,180L33.68,165L34.31,195.01L34.4,104.99L34.42,150L34.45,146.25L34.53,142.5L35.17,165L35.18,142.5L35.28,127.5L35.37,127.49L35.87,176.25L36.04,146.25L36.04,131.25L36.66,202.49L36.76,93.75L36.78,194.99L36.83,161.25L36.96,112.5L36.97,187.5L37.58,161.25L37.59,161.25L37.83,187.5L38.11,123.75L38.26,142.5L38.34,153.75L38.62,120L38.67,187.5L39.06,165L39.1,135L39.34,187.5L39.46,123.75L39.83,146.25L39.86,157.5L40.25,217.5L40.28,93.75L40.61,135L40.65,135L40.94,202.49L41,153.75L41.07,150L41.47,183.75L41.49,116.25L41.75,127.5L41.85,146.25L42.02,105L42.03,198.75L42.56,153.75L42.65,161.25L43.22,180L43.34,104.99L43.37,150L43.38,195.01L44.17,112.49L44.17,123.74L44.18,187.51L44.22,112.49L44.77,243.79L44.88,217.53L44.92,210.03L45.57,101.24L45.65,127.5L45.73,153.75L45.89,123.74L46.04,168.76L46.33,150L46.33,172.51L46.43,183.76L47.08,108.74L47.08,191.26L47.37,119.99L47.83,165.01L47.87,142.5L48.11,123.73L48.58,180.02L48.61,131.24L49.12,191.27L49.27,123.73L49.34,153.75L49.37,131.24L49.44,123.73L50.09,176.27L50.1,131.24L50.2,161.26L50.32,123.73L50.67,191.28L50.95,131.24L51,131.24L51.23,112.47L51.25,206.29L51.74,146.25L51.81,150L52.52,172.52L52.55,119.97L52.61,153.75L52.62,116.22L53.32,183.78L53.36,161.26L53.52,131.23L53.56,183.78L53.72,146.25L53.72,138.74L53.89,116.22L54.25,172.52L54.47,168.77L54.52,146.25L54.76,89.95L54.78,213.8L55.27,142.49L55.31,142.49L55.43,202.54L55.46,112.47L55.49,150L55.49,112.47L55.64,97.46L55.67,202.54L56.24,176.27L56.26,116.22L56.51,112.47L56.59,187.53L57.02,157.51L57.07,168.77L57.34,176.27L57.35,123.73L57.79,142.49L57.83,146.25L57.96,116.22L58.38,187.53L58.52,138.74L58.52,176.27L58.64,127.48L59.33,150L59.37,161.26L59.58,168.76L59.86,123.73L59.89,183.77L60.49,108.72L60.53,191.28L60.6,123.73L60.65,153.75L60.75,123.73L61.36,172.52L61.38,127.48L61.95,172.52L62.14,150L62.19,150L62.3,180.02L62.73,127.48L62.9,138.74L62.93,123.73L62.99,119.98L63.04,146.25L63.04,176.27L63.74,213.79L63.8,108.73L63.85,108.72L63.85,93.72L64.13,168.76L64.6,150L64.61,142.5L64.69,165.01L64.75,123.74L64.75,161.26L64.77,104.98L64.77,97.48L65.02,183.77L65.43,104.97L65.56,131.24L65.94,119.98L66.13,195.02L66.35,161.26L66.36,142.5L66.5,180.02L66.56,127.49L66.89,146.25L66.92,157.5L67.09,187.52L67.34,116.23L67.65,150L67.71,153.75L68.11,168.76L68.36,127.49L68.36,157.5L68.36,187.52L68.96,97.47L69.1,191.27L69.1,142.5L69.15,150L69.19,191.27L69.27,108.73L69.88,131.24L69.92,172.51L70.4,119.98L70.58,176.26L70.67,142.5L70.72,138.74L70.88,180.02L71.4,101.23L71.44,112.49L71.49,157.5L71.79,97.47L71.81,202.53L72.24,123.73L72.26,138.74L72.29,183.77L72.95,112.47L72.99,146.25L73,161.26L73.08,191.28L73.37,119.98L73.74,172.51L73.77,153.75L73.91,180.02L74.16,138.74L74.44,157.5L74.5,157.5L74.85,131.24L75,172.51L75.25,138.74L75.27,157.5L75.33,127.49L76,198.77L76.02,176.26L76.07,213.77L76.19,89.97L76.69,213.78L76.75,176.26L76.88,157.5L77.09,131.25L77.1,195L77.12,172.5L77.13,210L77.15,86.24L77.86,116.24L77.89,153.75L78.36,191.25L78.39,108.75L78.6,153.75L78.66,138.75L79.05,120L79.26,183.75L79.34,172.5L79.41,161.25L79.61,131.25L79.76,187.5L80.15,157.5L80.17,127.5L80.52,97.49L80.66,206.25L80.86,153.75L81,157.5L81.07,108.75L81.15,213.76L81.74,153.75L81.77,138.75L82.04,198.77L82.16,101.22L82.45,165.01L82.56,150L82.77,127.49L82.9,180.01L83.32,161.26L83.37,146.25L83.59,74.98L83.64,251.26L84.11,131.25L84.13,153.75L84.41,104.98L84.57,206.27L84.81,153.75L84.84,187.51L85.27,108.74L85.73,138.75L85.78,153.75L85.91,123.74L86.26,168.76L86.49,153.75L86.49,131.24L86.94,119.99L87.09,206.26L87.18,146.25L87.2,172.5L87.43,195.01L87.73,116.23L87.92,135L87.96,157.5L88.13,123.74L88.13,123.74L88.13,93.73L88.72,198.76L88.91,157.5L88.95,142.5L89,225.02L89.28,119.99L89.69,183.76L89.72,180.01L90.42,131.24L90.47,142.5L90.5,138.75L90.77,108.74L90.83,187.51L91.21,127.49L91.28,172.51L91.68,195.01L91.71,112.49L92.07,131.25L92.07,161.25L92.25,195.01L92.27,104.99L92.79,131.24L92.81,176.26L93.06,183.75L93.41,119.99L93.59,146.25L93.64,153.75L94.28,112.49L94.3,202.51L94.4,127.49L94.52,108.73L94.7,172.51L95.15,165.01L95.2,165.01L95.38,206.27L95.66,104.99L95.92,153.75L95.96,153.75L96.08,206.27L96.63,93.72L96.68,138.74L96.68,176.26L97.11,191.27L97.12,123.73L97.49,146.25L97.49,165.01L97.56,112.48L97.58,191.27L98.24,127.49L98.27,150L98.29,195.02L98.65,116.23L99.01,150L99.03,157.5L99.58,187.52L99.58,97.48L99.68,153.75L99.69,195.02L99.71,101.23L100.45,131.24L100.48,138.74L100.68,104.98L101.1,187.52L101.15,119.98L101.18,112.48L101.52,172.51L101.54,101.23L102.01,142.5L102.04,146.25L102.06,119.98L102.12,202.53L102.6,150L102.62,157.5L102.72,168.76L103.28,127.49L103.42,138.74L103.43,168.76L103.92,191.27L104.03,123.74L104.15,123.74L104.19,134.99L104.19,112.48L104.25,187.52L104.94,157.5L104.98,157.5L105.11,168.76L105.55,138.74L105.69,150L105.72,157.5L105.99,187.52L106.17,123.73L106.5,146.25L106.53,153.75L107.03,168.76L107.1,123.73L107.26,131.24L107.26,157.5L107.7,176.27L107.72,112.48L107.94,119.99L107.94,191.27L108.08,195.02L108.6,86.21L108.69,97.47L108.7,97.47L108.71,217.53L109.44,161.26L109.46,161.26L109.97,176.26L110.12,104.98L110.12,104.98L110.13,195.02L110.77,112.48L110.9,157.5L110.92,153.75L111.36,168.76L111.5,112.48L111.5,112.48L111.51,187.52L111.53,101.23L112.26,153.75L112.3,146.25L112.35,119.99L112.51,191.25L113.05,150L113.08,142.5L113.15,172.51L113.82,93.73L113.84,93.73L113.86,206.27L113.89,89.97L114.6,150L114.6,146.25L115.08,183.77L115.12,116.23L115.35,157.5L115.37,138.74L115.38,180.01L115.71,119.99L116.07,134.99L116.15,134.99L116.42,187.52L116.71,108.74L116.89,153.75L116.89,131.25L117.14,221.25L117.46,93.75L117.7,195L117.71,194.99L118.41,123.75L118.43,221.25L118.49,221.25L118.57,243.75L118.57,56.25L119.26,150L119.32,165L119.49,180L119.53,123.75L120.06,168.75L120.1,168.75L120.62,183.75L120.86,123.75L120.86,131.25L120.86,176.25L121.07,187.5L121.48,120L121.6,146.25L121.63,183.75L121.78,120L122.37,153.75L122.4,176.25L122.45,123.75L122.86,180L123.11,168.75L123.19,142.5L123.26,127.5L123.74,176.25L123.88,153.75L123.97,135L124.33,191.25L124.39,123.75L124.65,157.5L124.75,131.25L124.76,127.5L124.99,187.51L125.45,142.5L125.59,157.5L126.04,142.5L126.27,150L126.27,165L126.45,180.01L126.75,127.5L127.01,157.5L127.06,153.75L127.23,172.5L127.69,123.74L127.8,123.75L127.82,161.25L127.88,176.25L128.03,135L128.57,165L128.68,146.25L128.81,187.51L129.31,123.75L129.4,168.75L129.46,161.25L129.65,183.75L130.11,120L130.19,131.25L130.24,150L130.3,165L130.77,135L130.82,142.5L130.83,172.5L130.84,127.5L131.54,176.26L131.58,153.75L131.62,153.75L132.09,123.75L132.14,172.5L132.36,172.5L132.39,150L132.48,127.49L132.5,206.26L132.98,142.5L133.02,127.5L133.13,108.74L133.17,191.26L133.73,153.75L133.78,131.25L134.5,176.26L134.53,131.25L134.55,142.5L134.68,131.24L134.89,183.76L135.12,172.51L135.12,138.75L135.2,131.24L135.4,180.01L135.45,146.25L135.47,191.26L135.6,206.27L135.62,93.73L136.02,146.25L136.02,161.25L136.21,172.51L136.23,127.49L136.8,142.5L136.81,153.75L136.83,168.76L137.13,119.99L137.48,138.74L137.57,142.5L137.97,123.74L138,176.26L138.3,150L138.3,127.49L138.9,180.01L138.94,104.98L139.05,138.74L139.06,123.74L139.23,198.77L139.5,78.72L139.81,146.25L139.83,217.54L139.87,82.46L140.57,127.48L140.61,150L141.02,198.79L141.05,104.96L141.32,146.25L141.32,168.77L141.92,104.96L142.01,172.52L142.06,127.48L142.09,157.51L142.15,108.72L142.2,191.28L142.82,146.25L142.87,153.75L143.19,116.23L143.2,187.52L143.59,138.74L143.62,138.74L144.11,108.72L144.16,180.02L144.36,142.5L144.4,150L144.49,119.98L144.74,176.26L145.13,127.49L145.24,157.5L145.63,112.48L145.91,180.02L145.95,134.99L146.03,161.26L146.62,119.98L146.7,176.26L146.77,150L146.79,161.25L146.94,176.26L146.95,123.74L147.54,150L147.55,150L147.64,161.26L147.99,108.73L148.3,138.75L148.31,153.75L148.31,168.76L148.82,112.48L149.02,112.49L149.14,146.25L149.14,183.76L149.24,112.49L149.88,134.99L149.91,150L150.07,202.53L150.15,93.72L150.59,123.73L150.68,146.25L150.73,123.73L150.91,172.51L151.4,146.25L151.4,161.26L151.49,172.51L151.8,127.49L152.15,146.25L152.17,157.5L152.35,165.01L152.87,123.74L152.91,142.5L152.94,153.75L153.49,116.23L153.51,183.77L153.67,153.75L153.7,146.25L153.9,187.53L154.3,97.46L154.43,123.73L154.46,131.24L154.53,119.97L154.95,191.28L155.12,157.5L155.14,150L155.34,123.73L155.75,172.51L155.82,127.49L155.9,165.01L156.16,187.53L156.46,104.97L156.65,131.23L156.68,134.99L156.7,104.97L156.72,198.78L157.44,153.75L157.45,165.01L157.89,172.51L157.96,116.23L158.18,157.5L158.25,161.25L158.48,187.52L158.73,108.73L158.96,134.99L159.01,146.25L159.24,168.76L159.36,131.24L159.7,146.25L159.73,165.01L159.76,123.74L159.77,176.26L160.48,134.99L160.52,165.01L161.04,101.23L161.1,183.76L161.23,165.01L161.28,127.49L161.52,165.01L162.05,138.75L162.09,134.99L162.28,108.74L162.35,191.26L162.84,146.25L162.85,150L162.94,123.74L162.99,183.76L163.59,138.75L163.62,153.75L164.15,202.5L164.17,93.75L164.34,142.5L164.37,198.75L164.41,217.49L164.73,89.99L165.11,161.25L165.14,146.25L165.16,112.49L165.25,176.26L165.86,127.49L165.86,161.25L166.07,172.51L166.54,127.49L166.58,172.51L166.62,168.76L166.67,131.24L166.76,172.51L167.02,138.75L167.02,131.24L167.4,187.51L167.42,116.24L167.7,153.75L167.7,131.25L167.87,183.76L167.9,116.24L168.47,146.25L168.47,131.24L169.16,108.73L169.17,191.27L169.22,157.5L169.23,123.74L169.72,191.27L169.98,150L170,150L170.57,112.48L170.62,191.27L170.75,191.26L170.81,146.25L170.82,183.76L170.88,127.49L171.55,161.25L171.57,165L171.59,112.49L172.22,191.27L172.31,153.75L172.43,187.52L172.51,116.23L173.16,150L173.17,153.75L173.66,172.51L173.84,116.23L173.85,161.25L173.87,202.52L174.57,127.49L174.66,157.5L174.69,127.49L174.78,187.51L174.79,112.49L175.44,146.25L175.46,150L175.8,116.23L175.81,187.52L176.18,176.26L176.25,161.26L176.52,127.49L176.7,176.26L177.04,146.25L177.04,168.76L177.35,191.27L177.46,123.74L177.7,153.75L177.74,138.74L177.86,176.26L178.09,123.74L178.44,146.25L178.49,146.25L178.77,180.01L178.84,108.73L179.19,157.5L179.27,153.75L179.45,112.48L179.53,176.26L180,165.01L180.01,165.01L180.5,74.96L180.56,217.54L180.68,202.53L180.71,116.23L180.84,89.95L180.86,221.3L181.45,157.5L181.51,157.5L181.61,172.51L181.67,108.72L182.24,138.74L182.28,146.25L182.74,176.27L182.99,123.74L183.01,108.73L183.24,176.26L183.69,142.5L183.78,150L184.25,176.26L184.36,134.99L184.42,142.5L184.42,172.51L184.67,195.03L184.87,93.72L185.09,134.99L185.23,153.75L185.84,180.01L185.91,131.24L185.91,157.5L185.92,187.52L185.92,127.49L186.66,168.76L186.69,131.24L186.86,112.48L186.98,180.02L187.44,180.01L187.58,134.99L187.63,165.01L187.76,127.49L188.09,142.5L188.13,183.77L188.71,191.27L188.73,112.48L188.86,112.48L188.91,150L189,89.97L189.04,195.03L189.63,127.49L189.67,161.26L190.24,172.51L190.3,116.23L190.44,176.26L190.66,116.23L191.2,138.74L191.21,172.51L191.52,195.03L191.59,104.97L191.99,131.24L192.03,161.26L192.11,112.48L192.14,180.02L192.78,142.49L192.8,153.75L192.95,168.76L193.04,123.73L193.55,138.74L193.56,161.26L194.23,217.55L194.26,82.45L194.28,112.47L194.34,157.51L194.74,101.21L194.79,180.02L195.05,176.27L195.1,123.73L195.32,104.97L195.35,195.02L195.87,150L195.9,150L196.33,176.27L196.52,116.23L196.65,146.25L196.66,153.75L196.74,116.23L196.76,180.01L197.36,142.5L197.36,172.51L197.73,202.52L197.86,104.98L198.11,138.75L198.11,187.51L198.35,74.96L198.39,213.78L198.85,108.72L198.9,108.72L199.42,183.77L199.61,123.74L199.67,116.23L199.84,172.51L200.41,119.99L200.48,131.24L200.58,187.51L200.66,108.73L201.23,168.76L201.24,134.99L201.4,180.01L201.61,119.98L201.99,146.25L202.06,146.25L202.55,119.99L202.59,180.01L202.81,157.5L202.85,146.25L202.87,123.75L203.52,176.25L203.59,153.75L203.62,138.75L203.77,104.99L203.83,191.26L204.38,157.5L204.4,142.5L204.77,198.76L205,127.5L205.15,161.25L205.18,142.5L205.18,191.25L205.91,120L205.92,180L205.98,146.25L206.08,120L206.08,172.5L206.66,127.5L206.67,172.5L206.8,123.75L206.97,183.75L207.4,165L207.46,146.25L207.5,172.5L207.5,135L208.2,165L208.21,150L208.21,127.5L208.23,176.25L208.96,157.5L208.97,180L209.05,180.01L209.32,119.99L209.71,138.75L209.74,142.5L210.15,187.51L210.43,119.99L210.46,180.01L210.51,150L210.65,213.76L210.94,82.49L211.26,165L211.29,165L211.56,180L212.02,123.75L212.05,150L212.09,112.49L212.16,172.5L212.79,172.5L212.81,172.5L213.08,172.51L213.09,108.74L213.55,165L213.57,161.25L213.87,116.24L213.89,187.51L214.31,142.5L214.36,153.75L214.42,93.75L214.51,183.75L215.11,153.75L215.12,138.75L215.66,131.25L215.66,168.75L215.81,153.75L215.88,157.5L216.16,187.49L216.61,90.01L216.65,101.27L216.69,206.23L217.15,82.52L217.37,161.25L217.42,135.01L217.43,48.8L217.53,213.72L218.17,153.75L218.19,127.51L218.27,123.75L218.92,172.5L218.93,123.75L219.19,176.25L219.68,165L219.74,142.5L219.98,123.76L220.35,191.23L220.45,146.25L220.5,161.24L220.59,187.48L220.85,120.01L221.18,179.99L221.26,172.49L221.37,176.24L222.02,116.26L222.1,161.25L222.5,105L222.66,180L222.81,153.75L222.89,161.25L222.99,120L223.13,172.5L223.66,146.25L223.67,153.75L224.14,176.25L224.16,120L224.42,127.5L224.43,146.25L224.74,187.5L224.82,120L225.09,165L225.15,120L225.67,183.74L225.9,172.49L225.94,179.99L226.37,206.24L226.44,63.77L226.69,131.26L226.7,131.26L226.92,209.98L227.11,123.76L227.45,168.74L227.46,146.25L227.46,86.28L227.53,213.71L228.15,157.5L228.23,153.75L228.63,187.49L228.76,112.51L228.94,142.5L228.97,142.5L229.28,224.96L229.39,116.27L229.62,183.73L229.67,127.51L229.87,191.23L229.92,120.01L230.37,153.75L230.5,168.74L230.55,183.74L231.12,97.5L231.25,157.5L231.26,168.75L231.34,116.25L231.36,183.75L232,157.5L232.02,153.75L232.16,191.24L232.6,116.26L232.76,142.5L232.79,142.5L232.84,165L233.51,123.75L233.54,135L233.56,135L233.64,176.25L233.9,112.51L234.28,138.75L234.33,153.75L234.44,179.99L234.45,131.25L235.04,161.25L235.04,135L235.62,120.01L235.65,183.74L235.65,191.24L235.67,108.76L235.86,194.98L236.39,131.25L236.42,165L236.99,168.75L237.12,127.5L237.12,127.5L237.16,191.24L237.62,116.26L237.9,142.5L237.93,157.5L237.97,127.5L238,172.5L238.61,157.5L238.64,135L239.18,172.49L239.39,138.75L239.41,146.25L239.76,123.76L239.95,209.97L239.95,209.97L239.98,221.21L239.98,228.71L240.17,105.02L240.72,157.5L240.75,153.75L241.27,172.49L241.3,123.76L241.5,153.75L241.53,142.5L241.92,179.99L241.97,120.01L242.28,168.74L242.29,168.74L242.38,112.51L242.41,187.48L243.04,146.25L243.07,146.25L243.5,179.99L243.58,135.01L243.81,164.99L243.84,135.01L244.05,187.48L244.11,112.52L244.56,176.24L244.63,142.5L244.63,172.49L244.84,116.27L245.37,157.5L245.42,150L245.74,135.01L245.76,183.73L246.16,179.98L246.2,176.23L246.41,123.77L246.61,239.92L246.94,164.99L246.97,164.99L247.22,86.3L247.37,191.21L247.75,135.01L247.76,146.25L248.04,176.23L248.21,123.77L248.48,157.49L248.6,135.01L249.1,179.98L249.31,120.02L249.33,138.76L249.41,161.24L249.55,176.22L249.55,105.04L250.13,161.24L250.2,146.25L250.48,183.72L250.51,123.77L250.95,164.99L250.96,142.5L251.62,183.73L251.64,127.51L251.72,172.49L251.75,127.51L251.77,112.52L251.94,187.48L252.44,142.5L252.48,164.99L253.13,93.79L253.23,209.94L253.27,150L253.4,105.04L253.41,194.96L254.01,172.48L254.08,172.48L254.39,172.49L254.44,120.02L254.8,150L254.84,168.74L254.95,120.02L255.16,172.49L255.56,157.5L255.6,157.5L255.85,179.98L255.95,127.51L256.34,135.01L256.38,138.76L256.38,123.77L256.49,168.74L257.08,146.25L257.14,146.25L257.7,116.27L257.86,191.23L257.92,161.24L258.03,112.52L258.13,191.22L258.68,183.73L258.68,161.24L259,127.51L259.38,183.73L259.41,179.98L259.43,153.75L259.6,198.71L259.74,116.27L260.22,146.25L260.23,150L260.58,105.04L260.71,187.46L260.95,146.25L261,157.49L261.53,120.03L261.54,176.23L261.77,146.25L261.77,179.97L261.99,191.22L262.04,127.52L262.51,135.01L262.56,164.99L262.72,176.23L262.72,127.51L263.4,97.53L263.44,202.47L263.48,202.46L263.59,209.96L264,123.77L264.25,138.76L264.27,157.49L264.38,123.77L264.92,183.72L265.04,138.76L265.28,187.47L265.35,131.27L265.76,157.49L265.79,138.76L266.4,202.46L266.5,105.04L266.55,127.52L266.56,105.04L266.79,179.97L267.29,127.52L267.32,127.52L267.8,108.78L267.81,191.22L268.06,168.74L268.09,138.76L268.22,105.03L268.24,194.97L268.53,112.53L268.53,187.47L269.18,112.52L269.25,206.21L269.27,194.97L269.37,142.5L269.42,179.98L269.45,116.27L270.11,153.75L270.13,138.76L270.45,202.45L270.65,116.28L270.8,168.74L270.91,168.74L270.97,116.27L271.45,176.23L271.58,131.26L271.71,142.51L272,123.76L272.35,202.47L272.47,172.49L272.48,179.98L272.5,213.71L272.5,86.29L273.2,164.99L273.24,138.76L273.88,183.73L273.9,112.52L273.98,153.75L274.02,153.75L274.34,179.98L274.64,127.51L274.68,172.48L274.77,168.74L274.88,105.03L274.96,191.22L275.5,150L275.53,150L275.65,157.49L275.71,131.26L275.73,135.01L275.73,172.48L276.12,120.02L276.37,179.97L276.45,168.73L276.52,146.25L277.04,123.77L277.1,183.72L277.23,157.49L277.35,142.51L277.99,116.27L278.01,183.73L278.1,172.48L278.15,157.49L278.2,127.52L278.22,179.98L278.88,161.24L278.88,131.26L279.16,127.52L279.24,179.98L279.63,142.51L279.67,150L279.87,131.26L280.1,176.23L280.3,142.51L280.31,127.52L280.83,198.71L280.91,123.77L281.05,150L281.09,157.5L281.22,191.23L281.49,112.52L281.84,172.49L281.86,179.99L282.24,127.51L282.58,183.73L282.62,161.24L282.67,142.5L282.71,194.98L283.03,105.02L283.08,142.5L283.11,105.02L283.48,97.53L283.81,168.74L283.85,123.76L283.89,153.75L283.89,191.23L283.93,131.26L284.62,135.01L284.65,153.75L284.78,206.22L284.9,82.53L285.36,146.25L285.37,135.01L285.71,112.52L286.07,179.98L286.1,150L286.13,142.51L286.15,116.27L286.82,179.98L286.82,179.98L286.85,172.48L287.16,191.22L287.18,116.27L287.36,123.77L287.41,116.27L287.42,183.73L288.13,150L288.19,135.01L288.67,75.06L288.67,213.69L288.92,116.27L288.95,146.25L289.11,172.48L289.43,67.58L289.66,172.48L289.71,93.79L289.79,78.8L290.45,206.21L290.49,168.74L291.13,112.52L291.13,187.48L291.24,116.28L291.26,179.98L291.74,228.68L291.78,108.77L292.01,146.25L292.02,135.01L292.61,172.48L292.63,112.53L292.76,142.51L292.78,142.51L292.96,131.27L293.17,164.99L293.27,138.76L293.27,131.26L293.35,127.52L293.54,179.97L293.93,150L293.95,127.52L294.33,202.45L294.36,101.29L294.68,127.52L294.72,168.73L295.51,127.52L295.53,164.99L295.6,194.96L296.29,135.01L296.34,142.51L296.52,179.97L296.87,93.8L297.09,153.75L297.11,135.01L297.24,131.27L297.6,176.23L297.83,172.48L297.88,123.77L298.03,194.97L298.1,112.53L298.6,172.48L298.66,153.75L298.85,93.8L299.28,172.48L299.33,150L299.35,127.52L299.75,90.05L299.76,194.96L300.09,131.27L300.16,123.78L300.42,187.46L300.58,120.03L300.91,157.49L300.93,157.49L301.19,127.52L301.23,172.48L301.68,164.99L301.71,176.23L302.2,116.27L302.22,206.21L302.45,146.25L302.48,161.24L302.82,97.54L302.9,232.44L303.2,183.73L303.31,138.76L303.87,112.52L303.91,187.48L304.03,161.24L304.07,138.76L304.44,183.73L304.47,112.53L304.83,172.48L304.83,131.26L305.2,213.7L305.22,101.29L305.57,138.76L305.59,153.75L305.71,131.27L305.86,176.23L306.19,153.75L306.2,127.52L306.61,112.53L306.62,183.72L306.94,142.5L306.98,138.76L307.29,105.03L307.39,176.23L307.69,153.75L307.75,142.5L307.99,131.26L308.18,183.73L308.23,176.23L308.23,138.76L308.39,108.78L308.83,213.71L308.86,213.7L308.96,101.28L308.96,78.8L309.01,206.21L309.68,138.76L309.73,157.5L309.94,112.52L309.98,179.98L310.48,142.5L310.49,161.24L310.62,209.96L311.15,108.77L311.22,179.98L311.25,187.47L311.69,194.96L311.81,60.06L311.81,75.05L311.81,224.95L312.24,90.03L312.53,142.5L312.61,153.75L313.19,127.51L313.27,172.49L313.34,157.5L313.34,164.99L313.5,105.02L313.56,213.72L314.09,176.23L314.11,123.77L314.66,172.49L314.69,120.02L314.86,146.25L314.9,131.26L315.32,176.24L315.41,93.78L315.52,108.77L315.58,176.23L315.95,108.77L316.29,150L316.34,150L316.79,116.27L316.87,194.98L317.08,153.75L317.12,135.01L317.13,187.48L317.17,120.02L317.87,153.75L317.9,123.76L317.92,183.73L318.42,108.77L318.64,138.76L318.67,142.51L318.82,183.73L319.19,131.26L319.4,153.75L319.45,146.25L319.76,112.52L319.88,183.73L320.12,164.99L320.14,127.51L320.14,112.52L320.17,183.73L320.89,146.25L320.9,157.5L321.3,168.74L321.54,131.26L321.66,150L321.66,157.49L322.09,183.73L322.21,116.27L322.41,138.76L322.42,153.75L322.46,116.27L322.51,183.73L323.16,168.74L323.21,93.79L323.81,168.74L323.93,142.51L323.95,142.51L324.31,131.26L324.62,176.24L324.65,123.76L324.65,179.98L324.79,90.03L325.36,131.26L325.41,142.5L325.52,183.73L325.9,123.77L326.15,123.77L326.19,161.24L326.27,116.27L326.42,179.98L326.94,146.25L326.96,153.75L327.34,108.77L327.37,194.97L327.68,146.25L327.69,153.75L328.13,142.5L328.22,176.23L328.26,176.23L328.92,116.28L329.04,138.76L329.04,164.99L329.69,112.54L329.76,198.69L329.8,183.71L329.81,217.42L330,108.8L330.55,116.28L330.59,150L331.08,86.31L331.11,209.94L331.34,153.75L331.35,153.75L331.51,176.22L331.6,138.76L331.66,146.25L331.67,116.29L332.02,93.82L332.13,191.2L332.38,153.75L332.43,146.25L332.95,123.78L332.99,172.47L333.23,168.73L333.27,131.27L333.64,179.96L333.73,120.04L334,146.25L334.08,138.76L334.66,202.43L334.69,86.33L334.77,183.71L334.84,157.49L334.93,176.22L335.07,172.48L335.1,146.25L335.13,194.95L335.14,120.03L335.2,150L335.21,90.06L335.97,179.97L336.01,157.49L336.02,120.03L336.66,191.2L336.78,153.75L336.79,146.25L337.06,120.03L337.1,183.71L337.42,164.98L337.46,135.02L338.07,127.52L338.26,168.73L338.26,150L338.28,112.54L338.51,179.97L339.01,153.75L339.03,153.75L339.51,123.78L339.53,179.96L339.67,138.76L339.68,176.22L340.04,187.46L340.08,135.02L340.49,157.49L340.5,157.49L341.06,206.18L341.22,97.56L341.25,101.31L341.26,93.81L341.28,191.2L342.01,116.29L342.03,179.97L342.03,187.46L342.28,131.27L342.74,172.47L342.79,127.53L342.87,108.8L342.89,191.2L343.52,153.75L343.57,150L343.87,179.96L344.08,123.78L344.29,168.73L344.33,131.27L344.4,127.53L344.52,172.47L345.03,142.51L345.13,168.73L345.18,172.47L345.27,135.02L345.55,157.49L345.56,142.51L345.84,123.78L346.21,191.2L346.36,161.24L346.36,142.51L346.54,108.81L347.14,194.95L347.19,135.02L347.41,97.57L347.43,202.43L347.9,135.02L347.95,157.49L348.35,176.22L348.43,135.02L348.44,157.49L348.46,172.47L349.02,187.45L349.1,116.29L349.2,164.98L349.27,161.24L349.64,191.2L349.67,116.29L350.01,146.25L350.02,206.18L350.05,108.8L350.76,138.76L350.78,138.76L350.9,101.31L350.94,198.69L351.53,153.75L351.56,123.78L351.56,183.71L351.81,120.04L352.28,146.25L352.33,153.75L352.83,176.22L352.88,120.03L353.08,150L353.08,157.49L353.22,116.29L353.45,191.2L353.65,127.53L353.69,164.98L353.71,191.2L353.77,123.78L354.37,150L354.4,153.75L354.7,194.95L354.87,120.03L355.14,153.75L355.14,161.24L355.61,105.05L355.62,194.95L355.83,127.53L355.96,157.49L355.96,172.47L356.58,127.53L356.7,164.98L356.72,135.02L356.87,153.75L356.88,131.27L356.95,138.76L356.99,164.98L357.12,123.78L357.43,179.96L357.75,135.02L357.8,172.47L357.93,179.96L358.45,120.04L358.55,127.53L358.57,120.04L358.59,108.8L358.65,191.2L359.32,150L359.37,150L359.43,101.32L359.94,187.44L360,179.95L360.05,142.51L360.42,187.45L360.45,112.55L360.53,153.74L360.53,120.04L361.25,187.44L361.25,187.44L361.32,187.44L362.13,112.55L362.18,150L362.66,191.19L362.66,112.55L362.76,131.28L362.82,187.45L363.01,112.55L363.55,146.26L363.62,142.51L363.89,123.78L364.25,179.97L364.35,161.24L364.39,164.98L364.42,187.46L364.78,120.03L365.13,168.73L365.14,150L365.27,127.53L365.27,176.22L365.48,153.75L365.49,176.22L365.99,131.27L366.26,153.75L366.31,146.25L366.73,172.47L366.73,127.53L367,150L367,127.53L367.24,187.45L367.75,161.23L367.77,164.98L367.81,172.47L367.82,123.78L368.51,138.76L368.53,142.51L368.7,176.22L368.75,116.29L369.31,161.24L369.38,146.25L369.52,191.2L369.92,101.31L370.1,146.25L370.14,131.27L370.38,198.69L370.42,108.8L370.87,150L370.91,135.02L371.19,191.2L371.46,112.54L371.57,179.97L371.59,120.03L371.63,194.96L371.99,101.3L372.33,131.27L372.35,131.27L372.43,105.04L372.82,191.21L373.16,172.48L373.17,135.01L373.29,179.97L373.92,116.27L373.92,138.76L373.94,131.26L374.05,179.98L374.29,120.02L374.68,138.76L374.74,164.99L375.17,213.7L375.19,86.3L375.49,142.51L375.54,157.49L375.7,78.82L375.77,213.69L376.03,146.25L376.04,120.02L376.48,183.73L376.81,153.75L376.86,142.51L376.87,123.77L377.32,187.47L377.6,161.24L377.66,127.51L377.88,191.22L377.9,108.78L378.4,153.75L378.46,120.02L378.56,183.72L378.59,112.53L379.22,135.01L379.31,142.5L379.79,101.28L380.03,179.98L380.03,172.49L380.09,127.51L380.6,120.02L380.87,179.98L380.89,135.01L380.99,101.29L381.02,202.45L381.5,153.75L381.51,131.26L381.96,176.23L382.07,112.52L382.24,161.24L382.28,161.24L382.37,120.02L382.42,179.98L383,142.51L383.06,150L383.65,202.45L383.65,101.29L383.81,135.01L383.82,142.51L384.06,176.23L384.06,183.73L384.27,198.71L384.47,108.78L384.82,135.01L384.84,161.24L385.05,116.27L385.09,183.73L385.35,86.29L385.4,224.95L385.82,127.51L385.86,127.51L386.14,116.27L386.61,176.23L386.62,120.02L386.67,123.76L386.67,116.27L386.69,176.23L386.73,187.48L386.82,116.27L387.43,153.75L387.45,176.23L387.72,209.96L387.78,112.53L388.2,135.01L388.25,135.01L388.95,112.52L388.98,187.48L388.98,187.48L389,112.52L389.01,191.23L389.22,90.03L389.73,164.99L389.79,135.01L389.95,172.49L389.96,112.52L390.47,138.76L390.48,161.24L390.83,120.01L391.21,183.73L391.3,168.74L391.78,105.03L391.97,183.73L392.06,116.27L392.06,183.73L392.66,127.51L392.8,157.5L392.84,138.76L393.14,183.73L393.15,112.52L393.59,131.26L393.63,146.25L393.86,120.02L393.93,194.97L394.37,127.52L394.42,146.25L394.44,168.74L394.75,120.02L395.17,146.25L395.18,153.75L395.53,123.77L395.76,176.23L395.91,146.25L395.96,153.75L396.12,172.48L396.36,105.03L396.7,157.49L396.7,164.99L397.1,187.46L397.1,108.79L397.37,157.49L397.4,164.99L398.04,194.97L398.06,101.28L398.12,120.02L398.13,191.22L398.78,112.53L398.89,135.01L398.91,135.01L398.95,164.99L399,135.01" style="vector-effect: non-scaling-stroke; fill: none; stroke: rgb(99, 110, 250); stroke-opacity: 1; stroke-width: 2px; opacity: 1;"/></g><g class="points"/><g class="text"/></g><g class="trace scatter trace5f90bb" style="stroke-miterlimit: 2; opacity: 1;"><g class="fills"/><g class="errorbars"/><g class="lines"><path class="js-line" d="M0,209.99L0.15,285L0.43,146.25L0.47,153.75L0.63,146.25L0.74,131.24L0.85,206.28L0.97,142.5L0.98,202.53L1.4,119.99L1.76,146.25L1.79,161.26L1.83,168.76L2.1,119.99L2.5,127.49L2.65,153.75L2.91,127.49L2.94,183.77L3.37,165.01L3.41,165.01L3.98,172.51L4.12,116.23L4.16,153.75L4.24,153.75L4.83,168.76L4.89,123.74L4.99,138.74L5.03,161.26L5.16,127.49L5.77,138.75L5.8,138.75L5.8,165.01L5.85,112.48L6.54,146.25L6.58,153.75L6.75,176.26L7.19,123.74L7.39,131.24L7.41,157.5L7.46,180.01L7.77,127.49L8.15,168.76L8.2,146.25L8.29,172.51L8.3,127.49L8.55,131.24L8.56,127.49L8.56,112.49L8.96,172.51L9.3,168.76L9.32,134.99L9.62,180.01L9.87,123.74L9.9,172.51L9.98,131.24L10.11,183.76L10.58,142.5L10.65,183.77L10.7,108.73L11.39,123.74L11.41,176.26L11.82,183.77L12.06,119.99L12.21,131.24L12.22,168.76L12.44,131.24L12.94,153.75L13.02,157.5L13.18,168.76L13.6,119.99L13.75,165.01L13.76,146.25L13.76,168.76L13.77,127.49L14.49,153.75L14.53,172.51L14.94,123.74L15.05,180.01L15.29,134.99L15.31,165.01L15.82,210.03L15.89,78.71L16.07,142.5L16.11,165.01L16.55,210.03L16.62,89.97L16.85,165.01L17.07,131.24L17.55,104.98L17.55,172.5L17.83,157.5L17.87,157.5L18.1,172.51L18.11,127.49L18.42,134.99L18.49,134.99L18.49,127.49L18.92,168.75L19.23,142.5L19.26,165L19.29,172.5L19.33,127.5L19.82,146.25L19.85,157.5L20.19,187.51L20.27,123.74L20.27,116.24L20.28,195.01L21,112.49L21,123.74L21.1,187.51L21.59,127.49L21.85,153.75L21.87,146.25L22.08,187.5L22.19,119.99L22.57,157.5L22.62,157.5L22.97,142.5L22.97,157.5L23.02,187.51L23.04,206.27L23.14,127.49L23.76,127.5L23.78,176.25L23.98,176.26L24.47,127.49L24.49,165L24.54,172.51L24.86,112.49L25.28,161.25L25.3,161.25L25.72,123.74L25.88,176.26L26.05,146.25L26.07,146.25L26.2,127.49L26.65,168.75L26.83,153.75L26.85,146.25L27.26,119.99L27.5,176.25L27.6,157.5L27.64,146.25L28.17,180L28.26,123.75L28.39,138.75L28.43,157.5L28.91,195L28.97,127.5L29.18,157.5L29.24,157.5L29.33,116.25L29.98,183.75L30,127.5L30.65,168.75L30.76,153.75L30.8,146.25L30.85,116.25L31.5,180L31.57,165L31.86,127.5L31.88,176.25L32.31,157.5L32.33,135L32.96,78.75L33.08,221.25L33.08,221.25L33.11,168.75L33.24,82.5L33.24,217.5L33.85,138.75L33.88,161.25L34.31,97.49L34.4,195.01L34.63,146.25L34.64,146.25L35.18,131.25L35.28,176.26L35.39,157.5L35.4,127.5L36.04,168.75L36.09,112.5L36.13,142.5L36.22,157.5L36.66,93.76L36.74,209.99L36.94,120L36.96,187.5L37.26,191.25L37.3,112.49L37.71,123.75L37.74,146.25L38.03,123.75L38.11,176.25L38.47,146.25L38.49,138.75L38.62,180L38.67,112.5L39.21,127.5L39.27,172.5L39.97,112.5L40.02,146.25L40.03,161.25L40.25,82.5L40.28,217.5L40.76,161.25L40.79,138.75L40.95,105L41.49,183.75L41.55,138.75L42.02,195L42.03,101.25L42.25,135L42.29,165L42.29,112.5L42.43,187.5L42.99,138.75L43.06,138.75L43.34,195.01L43.38,104.99L43.79,161.25L43.81,119.99L44.22,187.51L44.22,108.74L44.59,153.75L44.61,146.25L44.79,71.2L45.19,172.51L45.35,157.5L45.41,153.75L45.52,116.24L45.65,187.51L46.13,146.25L46.19,146.25L46.71,123.74L46.79,180.01L46.89,146.25L46.93,142.5L47.08,191.26L47.08,108.74L47.68,161.25L47.69,138.75L47.95,123.74L48.15,176.27L48.45,168.76L48.54,146.25L49.15,108.73L49.17,183.77L49.27,176.27L49.29,165.01L49.37,176.27L49.72,123.73L50.04,153.75L50.06,172.52L50.21,176.27L50.67,108.72L50.82,142.5L50.85,161.26L51.23,187.53L51.44,86.19L51.58,176.27L51.61,176.27L52,127.49L52.04,187.53L52.34,138.74L52.37,161.26L52.54,191.28L52.63,116.22L53.11,153.75L53.14,146.25L53.31,168.77L53.57,116.22L53.84,127.48L53.88,180.02L53.91,183.78L54.25,127.48L54.55,168.77L54.55,146.25L54.71,213.8L54.78,86.2L55.31,157.51L55.34,157.51L55.64,202.54L55.67,97.46L56.06,123.73L56.14,142.49L56.59,112.47L56.6,187.53L56.85,119.98L56.9,146.25L56.94,180.02L57.34,123.73L57.58,134.99L57.64,134.99L57.96,183.78L58.38,112.47L58.39,112.47L58.48,142.49L58.52,123.73L58.96,176.27L59.21,131.23L59.29,153.75L59.5,127.48L59.92,191.28L59.97,161.26L60.03,127.48L60.53,108.72L60.54,191.28L60.75,176.27L60.82,176.27L61.36,127.48L61.57,153.75L61.61,146.25L61.91,127.48L62.28,165.01L62.3,134.99L62.3,119.98L62.99,180.02L63.06,157.51L63.12,142.49L63.74,86.21L63.85,206.28L63.85,198.78L63.9,168.76L63.9,172.51L64.08,127.49L64.61,157.5L64.66,153.75L64.77,202.52L65.02,108.73L65.37,191.27L65.42,161.26L65.43,195.03L66.13,104.98L66.16,157.5L66.17,142.5L66.4,168.76L66.4,131.24L66.48,153.75L66.5,119.98L67.02,183.77L67.09,116.23L67.25,172.51L67.28,116.23L67.34,183.77L67.99,142.5L68.11,131.24L68.36,112.48L68.37,187.52L68.87,183.77L68.94,134.99L68.94,202.53L69.1,101.23L69.64,146.25L69.7,146.25L69.86,123.74L70.28,168.76L70.29,131.24L70.88,119.98L70.91,180.02L71.02,157.5L71.06,146.25L71.44,187.51L71.53,131.24L71.68,138.74L71.75,161.26L71.79,202.53L71.81,97.47L72.49,165.01L72.5,165.01L72.58,123.73L72.95,187.53L73.05,180.02L73.08,108.72L73.72,191.27L73.84,142.5L73.84,123.74L73.91,119.98L74,157.5L74.18,119.99L74.27,168.76L74.77,146.25L74.8,157.5L75.14,127.49L75.29,172.51L75.54,146.25L75.57,146.25L75.89,146.25L75.9,153.75L76.19,210.03L76.22,89.97L76.62,153.75L76.63,198.77L76.73,86.22L77.14,213.75L77.39,157.5L77.42,157.5L77.64,191.26L77.67,108.74L78.12,165L78.17,165L78.39,108.75L78.39,191.25L78.93,120L78.94,153.75L79.05,180L79.26,116.25L79.66,161.25L79.68,161.25L79.87,127.5L80.13,165L80.15,135L80.17,172.5L80.52,202.51L80.66,93.75L80.86,142.5L81,138.75L81.15,86.24L81.58,191.26L81.74,146.25L81.77,146.25L81.78,101.24L82.04,210.03L82.45,134.99L82.56,142.5L82.77,172.51L82.77,119.99L83.26,165.01L83.32,138.74L83.64,48.74L83.8,176.25L84.05,142.5L84.05,135L84.41,195.02L84.46,101.23L84.81,146.25L84.84,153.75L85.32,101.25L85.53,183.76L85.57,135L85.61,131.25L85.67,183.76L85.73,127.49L86.29,127.49L86.36,146.25L86.5,176.26L86.63,116.24L86.91,127.49L86.93,180.01L87.43,104.99L87.65,187.52L87.65,172.51L87.7,187.52L88.13,206.27L88.2,93.73L88.46,153.75L88.51,153.75L88.96,168.76L89.09,74.98L89.25,153.75L89.28,183.76L89.72,116.24L90.03,138.75L90.05,138.75L90.2,176.26L90.56,123.74L90.76,168.76L90.77,180.01L90.77,191.26L90.78,108.74L91.51,153.75L91.53,153.75L91.61,180.01L91.68,104.99L92.19,146.25L92.21,157.5L92.25,104.99L92.27,198.76L92.94,142.5L93,165L93.06,120L93.4,168.76L93.74,138.75L93.76,153.75L93.97,161.25L93.99,131.24L93.99,116.24L94.28,187.51L94.3,97.49L94.42,157.5L94.42,176.26L94.52,191.27L94.52,108.73L95.05,146.25L95.06,157.5L95.38,89.98L95.66,195.01L95.8,153.75L95.82,131.24L96.08,93.73L96.18,206.27L96.54,195.02L96.59,127.49L96.63,206.28L97.34,165.01L97.36,168.76L97.56,187.52L97.58,108.73L98.11,134.99L98.12,168.76L98.24,172.51L98.27,127.49L98.29,104.98L98.65,183.77L99.01,153.75L99.03,142.5L99.58,112.48L99.58,202.52L99.81,165.01L99.82,134.99L100.13,127.49L100.2,176.26L100.54,153.75L100.59,161.26L100.68,198.78L101.1,112.48L101.3,146.25L101.37,142.5L101.54,198.77L102.06,134.99L102.1,146.25L102.1,172.51L102.12,97.47L102.15,180.01L102.78,131.24L102.88,131.24L103.28,172.51L103.29,127.49L103.66,157.5L103.68,142.5L103.92,108.73L104.19,187.52L104.4,153.75L104.44,146.25L104.48,180.02L104.69,123.74L105.11,153.75L105.18,153.75L105.23,138.74L105.57,161.26L105.78,146.25L105.84,146.25L105.99,112.48L106,187.52L106.59,153.75L106.6,146.25L107.03,131.24L107.08,176.27L107.34,161.26L107.38,161.26L107.72,187.52L107.82,116.23L107.94,172.51L107.94,180.01L108.08,104.98L108.64,217.53L108.69,202.53L108.7,202.53L108.71,82.47L108.99,210.03L109.44,157.5L109.46,131.24L109.97,119.99L110.12,195.02L110.12,195.02L110.13,104.98L110.77,187.52L110.88,165.01L110.9,134.99L111.51,112.48L111.53,198.77L111.67,176.26L111.69,127.49L111.8,108.73L112.42,176.26L112.43,176.26L112.46,123.74L112.51,108.75L112.52,191.25L113.2,146.25L113.22,157.5L113.86,93.73L113.89,210.03L113.96,187.52L114.01,146.25L114.28,108.73L114.3,191.27L114.76,157.5L114.77,142.5L115.08,116.23L115.12,187.52L115.52,146.25L115.53,157.5L115.55,123.74L115.71,180.01L116.26,172.51L116.29,131.24L116.42,112.48L116.45,187.52L116.99,131.25L116.99,78.75L117.18,210L117.8,153.75L117.88,161.25L118.57,56.25L118.57,243.75L118.63,153.75L118.64,157.5L118.73,78.75L119.37,176.25L119.38,123.75L119.49,120L119.53,176.25L120.2,157.5L120.26,142.5L120.59,180L120.62,101.25L120.99,116.25L121.02,116.25L121.37,105L121.7,168.75L121.78,142.5L121.82,168.75L122.49,180L122.51,108.75L122.59,131.25L122.67,135L122.86,120L123.26,172.5L123.43,146.25L123.47,131.25L123.74,123.75L124.03,168.75L124.21,123.75L124.24,120L124.33,108.75L124.39,176.25L124.99,112.49L125,112.49L125.29,168.75L125.76,157.5L125.8,146.25L126.42,172.5L126.45,119.99L126.56,146.25L126.73,127.5L126.75,172.5L127.23,138.75L127.23,120L127.27,172.5L127.99,157.5L128.01,153.75L128.31,165L128.5,131.25L128.74,165L128.74,168.75L128.81,108.74L129.31,172.5L129.46,161.25L129.49,172.5L129.71,195L129.95,116.24L130.24,153.75L130.3,153.75L130.39,131.25L130.84,180.01L130.94,157.5L130.97,142.5L131.03,168.75L131.54,123.74L131.72,146.25L131.74,146.25L132.06,127.5L132.09,176.25L132.3,142.5L132.36,131.25L132.5,93.74L133.02,180.01L133.09,165L133.13,176.26L133.13,191.26L133.17,108.74L133.82,153.75L133.9,146.25L134.43,168.75L134.5,123.74L134.65,153.75L134.67,142.5L134.89,116.24L135.12,172.51L135.41,119.99L135.43,123.74L135.6,93.73L135.62,206.27L136.2,153.75L136.21,153.75L136.23,172.51L136.9,127.49L136.94,157.5L136.99,157.5L137.13,134.99L137.13,180.01L137.73,146.25L137.75,146.25L138,123.74L138.01,176.26L138.3,172.51L138.33,116.23L139.06,206.28L139.18,131.24L139.5,221.28L139.83,82.46L139.83,86.21L139.87,217.54L139.93,86.21L140.64,127.48L140.64,168.76L141.02,101.21L141.02,198.79L141.34,180.03L141.41,168.77L141.71,112.46L141.8,198.79L142.12,146.25L142.14,191.28L142.2,104.97L142.88,153.75L142.9,157.5L143.2,112.48L143.2,187.52L143.62,161.26L143.64,138.74L144.11,191.28L144.11,108.72L144.36,157.5L144.4,153.75L144.67,176.26L144.74,123.74L145.13,172.51L145.24,142.5L145.64,187.52L145.91,119.98L145.95,134.99L146.03,134.99L146.62,183.77L146.7,123.74L146.79,168.76L146.84,131.24L146.94,123.74L147.16,180.01L147.59,157.5L147.64,146.25L147.99,191.27L148.31,131.24L148.36,157.5L148.4,146.25L148.52,131.24L148.83,187.52L149.14,153.75L149.17,131.24L149.37,119.99L149.93,195.02L149.93,157.5L149.96,134.99L150.15,206.28L150.16,93.72L150.68,165.01L150.73,176.27L151.49,127.49L151.49,127.49L151.53,153.75L151.53,172.51L151.78,131.24L152.23,168.76L152.29,168.76L152.54,131.24L152.61,172.51L152.82,153.75L152.86,146.25L153.49,183.77L153.51,116.23L153.57,168.76L153.67,153.75L154.11,108.71L154.3,202.54L154.38,161.26L154.43,183.77L154.51,183.78L154.95,108.72L155.18,161.26L155.22,165.01L155.34,176.27L155.82,127.49L155.97,146.25L155.98,153.75L156.46,198.78L156.72,93.71L156.83,153.75L156.98,180.02L156.98,165.01L156.99,142.49L157.35,116.23L157.38,183.77L157.75,161.26L157.75,131.24L157.89,127.49L158.07,180.01L158.18,134.99L158.25,134.99L158.62,108.73L158.73,191.27L158.96,165.01L159.01,161.25L159.29,168.76L159.62,131.24L159.74,165.01L159.76,165.01L159.76,176.26L159.77,123.74L160.48,142.5L160.52,157.5L160.9,183.76L161.1,116.24L161.23,131.24L161.28,172.51L161.52,134.99L162.01,138.75L162.05,161.25L162.29,191.26L162.35,127.49L162.35,127.49L162.35,108.74L162.97,176.26L163.08,146.25L163.13,146.25L163.75,172.5L163.77,127.5L163.85,157.5L163.86,157.5L164.17,206.25L164.37,90L164.6,198.75L164.66,161.25L164.73,210.01L164.73,89.99L165.41,138.75L165.43,138.75L165.66,123.75L165.86,172.51L166.18,165L166.19,135L166.55,127.49L166.77,172.51L166.94,168.75L166.95,153.75L167.4,112.49L167.42,183.76L167.7,168.75L167.73,168.75L167.87,116.24L167.9,187.51L168.47,168.76L168.49,131.24L169.16,191.27L169.17,108.73L169.23,142.5L169.29,165L169.34,180.01L169.72,108.73L170.04,161.25L170.06,161.25L170.31,104.98L170.57,187.52L170.81,138.75L170.82,161.25L171.27,116.24L171.3,183.76L171.49,123.75L171.55,176.25L171.59,187.51L172.24,108.73L172.31,127.49L172.43,112.48L172.51,187.52L172.93,153.75L172.93,123.74L173.06,119.99L173.67,172.51L173.7,157.5L173.77,168.76L173.85,119.99L174.44,168.75L174.47,146.25L174.79,187.51L175.17,123.74L175.2,146.25L175.22,157.5L175.8,183.77L175.81,112.48L175.98,146.25L175.99,146.25L176.16,176.26L176.17,123.74L176.7,131.24L176.7,123.74L177.05,172.51L177.35,112.48L177.35,108.73L178.09,176.26L178.09,176.26L178.21,146.25L178.77,119.99L178.82,187.52L178.95,146.25L178.96,153.75L179.45,187.52L179.55,116.23L179.62,142.5L179.69,157.5L179.78,168.76L180.02,116.23L180.44,146.25L180.45,161.26L180.5,225.04L180.56,74.96L181.16,146.25L181.2,153.75L181.24,119.99L181.67,191.28L181.91,157.5L181.92,165.01L181.92,127.49L181.93,176.27L182.67,146.25L182.68,157.5L182.74,116.23L183.01,191.27L183.39,165.01L183.51,142.5L184.04,131.24L184.05,168.76L184.27,165.01L184.27,146.25L184.61,187.52L184.67,104.97L184.67,108.73L184.67,195.03L184.8,104.97L184.87,206.28L185.42,138.74L185.44,142.5L185.79,119.98L185.97,176.27L186.19,146.25L186.23,146.25L186.43,127.49L186.86,187.52L186.94,161.26L186.98,119.98L187.01,180.02L187.72,153.75L187.74,153.75L187.74,172.51L188.13,116.23L188.49,153.75L188.5,153.75L189,210.03L189.04,97.47L189.25,165.01L189.34,165.01L189.42,168.76L189.42,165.01L189.44,131.24L189.8,127.49L189.82,180.02L190.1,131.24L190.1,165.01L190.44,123.74L190.66,183.77L190.85,165.01L190.86,165.01L191.47,195.03L191.52,104.97L191.52,104.97L191.59,195.03L191.61,104.97L192.26,142.5L192.35,180.02L192.92,119.98L193.14,134.99L193.15,165.01L193.44,138.74L193.83,187.52L193.83,187.52L193.84,112.48L194.23,82.45L194.26,217.55L194.46,157.51L194.46,165.01L194.58,116.22L194.6,183.77L195.22,123.73L195.23,123.73L195.32,195.03L195.33,104.97L195.98,157.5L196.01,157.5L196.53,187.52L196.76,119.99L196.78,146.25L196.97,176.26L197.16,119.99L197.52,172.51L197.54,172.51L197.86,180.01L197.97,97.48L198.07,138.75L198.08,165.01L198.35,225.04L198.39,78.71L198.67,165.01L198.72,127.49L198.99,191.28L199.41,146.25L199.41,134.99L199.41,112.48L199.67,183.77L200.14,134.99L200.17,161.26L200.58,112.49L200.66,191.27L200.93,131.24L200.97,168.76L201.45,119.99L201.61,180.02L201.74,131.24L201.77,153.75L202.1,165.01L202.38,123.74L202.5,142.5L202.53,165L202.55,180.01L202.59,119.99L203.27,157.5L203.29,153.75L203.77,195.01L203.83,104.99L203.98,168.75L204.08,157.5L204.62,165L204.77,101.24L204.87,146.25L205,172.5L205.15,116.25L205.53,135L205.53,165L205.91,180L205.92,112.5L206.27,142.5L206.29,157.5L206.8,176.25L206.97,116.25L207.03,142.5L207.06,168.75L207.1,123.75L207.78,138.75L207.86,161.25L208.14,165L208.38,123.75L208.46,161.25L208.46,165L208.99,180L209.05,119.99L209.19,135L209.21,165L209.84,116.24L209.91,168.75L209.92,135L209.93,172.5L210.43,180.01L210.68,86.24L210.68,86.24L210.8,119.99L210.9,108.75L210.94,217.51L211.56,153.75L211.58,138.75L212.09,187.51L212.19,123.75L212.31,153.75L212.32,135L212.77,172.5L212.96,127.49L213.05,135L213.08,127.49L213.09,191.26L213.55,119.99L213.83,127.49L213.85,172.51L213.89,112.49L214.42,206.25L214.59,135L214.61,135L214.88,168.75L215.12,127.5L215.36,157.5L215.37,142.5L215.37,123.75L216.1,176.25L216.12,153.75L216.13,127.5L216.69,93.77L216.73,206.23L216.86,183.74L216.88,116.26L217.43,251.2L217.53,93.77L217.53,67.54L217.81,202.48L218.27,180L218.35,146.25L218.92,127.5L219.01,176.25L219.01,172.5L219.05,131.25L219.28,123.75L219.36,176.25L219.85,153.75L219.87,146.25L220.07,179.99L220.09,108.77L220.63,123.76L220.65,176.24L220.85,127.51L220.85,179.99L220.85,116.26L220.95,172.49L221.54,127.51L221.62,165L221.94,123.76L221.99,183.74L222.33,165L222.4,165L222.46,183.75L222.66,120L223.13,153.75L223.16,142.5L223.24,168.75L223.34,131.25L223.51,142.5L223.52,138.75L223.66,161.25L224.1,131.25L224.13,168.75L224.16,180L224.74,112.5L224.88,153.75L224.89,146.25L225.49,183.74L225.53,116.26L225.6,135.01L225.67,116.26L226.2,176.24L226.26,112.51L226.31,157.5L226.35,101.26L226.37,93.76L226.44,236.23L227.1,127.51L227.11,127.51L227.53,71.3L227.71,191.22L227.85,161.24L227.91,135.01L227.94,183.73L228.27,127.51L228.58,161.25L228.59,138.75L228.76,187.49L229.28,75.04L229.3,142.5L229.35,157.5L229.88,108.77L229.92,183.73L230.08,146.25L230.1,183.73L230.55,112.51L230.92,131.25L230.92,157.5L231.12,202.5L231.36,116.25L231.66,135L231.68,153.75L232.04,172.5L232.16,108.76L232.32,153.75L232.32,161.25L232.6,116.26L232.6,183.74L233.07,135L233.11,142.5L233.53,176.25L233.64,123.75L233.81,123.75L233.87,131.25L233.9,187.49L234.44,120.01L234.62,138.75L234.67,142.5L234.67,172.49L234.69,135L235.41,146.25L235.44,146.25L235.65,108.76L235.67,191.24L235.68,108.76L235.71,101.27L236.35,187.49L236.45,131.25L236.53,146.25L237.12,172.5L237.16,108.76L237.24,172.49L237.3,146.25L237.55,120.01L237.62,183.74L238,127.5L238.15,153.75L238.6,131.25L238.64,165L238.91,131.26L238.93,168.74L239.58,105.02L239.68,135.01L239.74,142.5L239.98,71.29L240.21,187.47L240.4,153.75L240.45,161.24L240.79,172.49L241.1,120.01L241.12,135.01L241.22,164.99L241.3,176.24L241.93,120.01L241.93,138.75L241.97,179.99L242.35,183.73L242.41,112.52L242.71,127.51L242.76,127.51L242.83,164.99L243.49,120.01L243.49,120.01L243.5,120.01L244.05,112.52L244.11,187.48L244.23,153.75L244.26,112.52L244.84,183.73L245.02,157.5L245.03,135.01L245.49,120.02L245.69,168.74L245.76,135.01L245.76,116.27L246.41,176.23L246.47,112.52L246.48,161.24L246.49,82.55L246.49,71.3L246.7,168.73L247.24,164.99L247.29,135.01L247.4,101.3L247.44,224.92L248,161.24L248.04,116.27L248.21,176.23L248.77,135.01L248.84,123.77L248.95,116.27L249.55,194.96L249.61,187.47L250.4,120.02L250.42,120.02L250.48,116.28L250.54,179.98L251.2,168.74L251.23,153.75L251.61,116.27L251.77,187.48L251.93,146.25L251.94,112.52L252.01,183.73L252.69,146.25L252.73,153.75L253.15,93.8L253.4,194.96L253.47,164.99L253.5,120.02L253.97,168.74L254.3,157.5L254.33,153.75L254.44,179.98L254.96,127.51L255.1,135.01L255.15,153.75L255.84,127.51L255.89,176.23L255.95,146.25L255.98,123.77L256.38,176.23L256.66,142.5L256.7,157.5L257.15,172.49L257.37,131.26L257.43,164.99L257.46,135.01L257.86,108.77L258.03,187.48L258.07,127.51L258.1,127.51L258.13,108.78L258.58,172.49L258.84,161.24L258.91,153.75L259.15,172.49L259.41,116.27L259.58,161.24L259.58,179.98L259.6,101.29L259.74,183.73L260.31,131.26L260.34,131.26L260.38,127.52L260.68,176.23L260.71,123.77L260.71,194.96L260.79,116.28L261.46,138.76L261.47,153.75L261.53,179.97L261.99,108.78L262.04,157.49L262.04,172.48L262.72,123.77L262.72,179.98L262.79,157.5L262.83,157.5L263.4,202.47L263.44,93.79L263.51,131.26L263.58,168.74L263.62,90.04L263.99,176.23L264.31,172.48L264.33,172.48L264.6,176.23L265.08,112.53L265.08,116.28L265.2,142.51L265.28,112.53L265.9,164.99L265.91,135.01L265.93,164.99L266.4,97.54L266.5,194.96L266.69,135.01L266.71,164.99L266.82,179.98L267.38,120.02L267.46,138.76L267.47,138.76L267.81,108.78L268.22,194.97L268.24,105.03L268.53,187.47L269,120.02L269.08,161.24L269.16,187.48L269.25,93.79L269.83,135.01L269.85,164.99L269.92,179.98L270.45,97.55L270.55,120.03L270.62,116.28L270.97,183.73L271.38,153.75L271.4,146.25L271.45,179.98L272.05,105.03L272.13,146.25L272.17,146.25L272.5,86.29L272.5,213.71L272.89,123.77L272.93,146.25L273.38,116.28L273.67,183.72L273.72,183.72L273.9,187.48L273.91,112.52L274.44,120.02L274.5,146.25L274.88,194.97L274.96,105.03L275.24,146.25L275.24,142.51L275.49,116.28L275.49,187.47L275.92,138.76L275.93,138.76L276.12,179.98L276.38,116.28L276.67,146.25L276.69,157.49L277.04,176.23L277.1,116.28L277.37,142.51L277.37,138.76L277.99,183.73L278.01,116.27L278.1,127.52L278.15,135.01L278.22,120.02L278.32,164.99L278.82,161.24L278.84,157.49L279.16,172.48L279.25,120.02L279.58,172.48L279.62,146.25L280.1,123.77L280.1,176.23L280.34,142.51L280.4,142.51L280.78,116.27L280.91,176.23L281.16,168.74L281.19,168.74L281.55,112.52L281.66,194.98L281.95,135.01L282.07,131.26L282.24,172.49L282.58,116.27L282.81,153.75L282.84,138.75L282.93,123.76L283.48,202.47L283.59,157.5L283.6,142.5L283.85,176.24L283.89,123.76L284.16,157.5L284.17,142.5L284.78,93.78L284.82,228.71L284.91,183.74L284.96,116.26L284.96,108.77L285.67,179.98L285.71,142.5L285.72,179.98L286.16,194.97L286.2,112.53L286.47,161.24L286.51,142.51L286.89,108.78L286.89,191.22L287.28,157.49L287.31,157.49L287.36,183.73L287.42,116.27L287.98,146.25L288.09,153.75L288.47,198.71L288.54,120.02L288.67,142.51L288.67,86.31L289.43,232.42L289.43,232.42L289.47,232.42L289.66,108.78L290.22,153.75L290.25,176.23L290.45,93.79L290.5,206.21L291,138.76L291.03,138.76L291.26,108.78L291.78,194.97L291.78,131.26L292.52,168.73L292.53,131.27L292.54,146.25L292.59,127.52L292.63,187.47L293.27,168.74L293.31,164.99L293.45,120.02L293.6,179.97L294.05,161.24L294.08,157.49L294.26,112.53L294.36,198.71L294.72,127.52L294.76,168.73L294.76,131.27L295.47,176.23L295.51,172.48L295.53,153.75L295.6,105.04L295.77,164.99L296.26,146.25L296.28,179.97L296.52,120.03L296.87,206.2L297.05,142.51L297.07,153.75L297.24,172.48L297.25,127.52L297.82,138.76L297.82,157.49L298.03,105.03L298.1,194.97L298.56,161.24L298.58,153.75L298.85,209.94L299.28,120.02L299.33,172.48L299.35,172.48L299.76,105.04L299.88,183.71L300.09,135.02L300.16,176.22L300.42,112.54L300.58,179.97L300.91,142.51L300.93,142.51L301.19,172.48L301.23,127.52L301.68,172.48L301.71,161.24L302.2,191.22L302.23,93.79L302.45,153.75L302.48,153.75L302.82,202.46L302.9,67.56L303.2,116.27L303.31,176.23L303.87,187.48L303.91,112.52L304.03,138.76L304.07,161.24L304.47,187.47L304.49,112.53L304.82,120.02L304.83,164.99L305.17,194.96L305.2,86.3L305.57,142.51L305.59,146.25L305.79,120.03L306.08,172.48L306.08,127.52L306.61,187.47L306.62,112.53L306.84,172.48L306.86,146.25L307.22,123.77L307.3,194.97L307.54,164.99L307.56,131.26L307.87,123.77L308.31,176.23L308.36,157.49L308.39,146.25L308.83,78.8L308.96,221.2L309.14,168.74L309.14,127.52L309.18,179.98L309.32,105.03L309.84,142.5L309.86,168.74L309.98,120.02L310.43,187.48L310.61,142.5L310.62,142.5L310.62,86.29L311.15,191.23L311.37,161.24L311.38,153.75L311.63,138.76L311.63,176.23L311.69,161.24L311.71,198.72L311.81,239.94L311.81,67.55L312.41,153.75L312.44,213.71L312.94,135.01L313.19,172.49L313.22,138.76L313.5,194.98L313.56,86.28L313.86,138.76L313.95,176.23L314.16,191.23L314.66,123.76L314.69,179.98L314.71,176.23L314.98,198.72L315.32,123.76L315.5,153.75L315.5,168.74L315.52,194.97L315.9,127.51L316.24,146.25L316.27,146.25L316.79,183.73L316.87,105.02L316.99,142.5L317.03,146.25L317.13,112.52L317.45,179.98L317.57,127.52L317.6,172.48L317.9,183.73L317.92,116.27L318.3,138.76L318.31,135.01L318.44,179.98L318.82,116.27L319.05,157.5L319.08,142.5L319.27,168.74L319.27,168.74L319.28,131.26L319.73,187.48L319.82,108.78L320.05,164.99L320.07,153.75L320.14,187.48L320.17,112.52L320.78,153.75L320.78,146.25L321.01,164.99L321.47,131.26L321.47,131.26L321.5,168.74L322.09,116.27L322.14,183.73L322.2,183.73L322.51,116.27L322.97,146.25L323,146.25L323.16,112.53L323.23,206.21L323.7,172.48L323.75,153.75L324.3,131.26L324.39,176.23L324.51,146.25L324.55,157.5L324.79,209.97L325.15,112.52L325.25,142.5L325.25,157.5L325.52,112.52L325.9,176.23L326,131.26L326,168.74L326.27,183.73L326.35,112.53L326.75,172.49L326.8,142.5L327.34,191.23L327.37,105.03L327.5,142.5L327.51,157.5L328.27,123.77L328.31,176.23L328.92,183.72L329.05,112.53L329.05,131.27L329.11,157.49L329.67,191.2L329.81,82.58L329.86,116.29L329.88,179.96L329.98,153.75L330,191.2L330.03,191.2L330.04,138.76L330.47,127.52L330.55,183.72L330.78,138.76L330.81,123.78L331.11,86.31L331.12,217.44L331.56,135.02L331.56,123.78L331.68,90.08L332.02,206.18L332.32,146.25L332.33,146.25L332.81,131.27L332.98,176.22L332.99,127.53L333.36,172.47L333.64,120.04L333.64,120.04L333.65,161.23L333.73,187.44L334.22,112.55L334.39,164.98L334.43,164.98L334.54,135.02L334.56,187.45L334.56,123.78L334.66,97.57L334.69,213.67L335.27,157.49L335.32,153.75L335.64,179.97L335.68,120.03L336.07,142.51L336.09,142.51L336.66,108.8L336.85,172.47L336.86,157.49L337.06,183.72L337.09,112.54L337.61,146.25L337.63,142.51L338.3,187.46L338.31,112.54L338.38,157.49L338.41,146.25L338.51,172.48L338.51,120.03L339.13,142.51L339.23,138.76L339.26,168.73L339.53,120.04L339.98,146.25L339.99,164.98L340.04,112.54L340.52,168.73L340.74,120.04L340.75,164.98L341.24,93.82L341.25,206.18L341.51,127.53L341.51,157.49L341.6,183.71L342.07,112.54L342.19,153.75L342.22,153.75L342.87,191.2L342.89,108.8L342.95,142.51L342.97,164.98L342.97,172.47L343.25,120.04L343.72,153.74L343.75,146.26L343.87,120.04L343.89,179.96L344.47,135.02L344.47,164.98L344.52,172.47L345.18,127.53L345.27,164.98L345.76,123.78L345.84,176.22L346.01,146.25L346.07,153.75L346.22,108.8L346.54,191.19L346.8,135.02L346.84,161.24L347.41,202.43L347.43,97.57L347.59,153.75L347.61,146.25L347.69,123.78L347.8,172.47L348.35,123.78L348.37,123.78L349.02,112.55L349.11,183.71L349.11,183.71L349.16,135.02L349.35,161.24L349.36,138.76L349.36,168.73L349.73,105.05L350.03,194.95L350.05,161.24L350.14,153.75L350.26,176.22L350.29,123.78L350.72,146.25L350.72,127.53L350.9,198.69L350.94,101.31L351.47,161.24L351.48,138.76L351.56,116.29L352.06,179.96L352.2,172.47L352.23,123.78L352.88,179.97L353.08,146.25L353.22,183.71L353.45,108.8L353.82,135.02L353.84,131.27L354.6,172.48L354.6,172.48L354.63,127.52L354.67,176.22L354.7,105.05L354.87,176.22L354.87,179.97L355.61,194.95L355.62,105.05L355.65,142.51L355.96,127.53L356.35,164.98L356.42,153.75L356.55,127.53L356.58,172.47L357.01,164.98L357.01,168.73L357.06,176.22L357.43,120.04L357.75,164.98L357.8,127.53L357.9,179.96L357.93,120.04L358.55,172.47L358.57,179.96L358.59,191.2L358.65,108.8L359.32,142.51L359.37,153.74L359.75,179.95L360,112.56L360.05,164.98L360.13,146.26L360.42,112.55L360.45,187.45L360.88,138.77L360.93,161.23L361.25,112.56L361.6,179.95L361.68,146.26L361.76,168.72L361.95,120.04L362.13,187.45L362.2,146.25L362.23,112.55L362.66,108.81L362.66,191.19L363.01,172.47L363.01,146.26L363.11,176.21L363.38,123.79L363.76,153.74L363.79,153.74L363.95,138.76L364.01,176.22L364.23,161.24L364.25,120.03L364.42,112.54L364.96,179.97L365.01,164.98L365.02,135.02L365.27,123.78L365.44,168.73L365.75,153.75L365.78,146.25L365.84,131.27L365.99,168.73L366.49,161.24L366.56,138.76L366.73,172.47L367.24,112.55L367.3,142.51L367.34,146.25L367.47,172.47L367.66,120.04L367.81,127.53L367.82,172.47L368.24,127.53L368.56,138.76L368.58,161.24L368.7,123.78L368.75,183.71L369.31,157.49L369.38,146.25L369.92,198.69L369.94,101.31L370.1,142.51L370.14,168.73L370.38,97.56L370.44,198.69L370.87,142.51L370.91,164.98L371.19,108.8L371.21,191.2L371.57,168.73L371.59,209.94L372,101.3L372.33,168.73L372.35,168.73L372.43,198.7L372.53,127.52L372.73,127.52L372.74,112.54L372.82,108.79L373.26,183.72L373.54,176.23L373.57,146.25L373.86,191.22L374.05,120.02L374.29,179.98L374.35,120.02L375,116.27L375.03,183.73L375.12,172.48L375.14,176.23L375.17,86.3L375.7,221.18L375.89,146.25L375.93,153.75L376.02,183.72L376.09,135.01L376.38,146.25L376.4,135.01L376.49,116.27L376.52,176.23L376.87,138.76L376.93,172.48L377.28,105.03L377.49,176.23L377.68,157.5L377.7,157.5L377.88,108.78L377.9,191.22L378.46,146.25L378.51,116.27L378.59,187.47L379.22,164.99L379.31,157.5L379.79,198.72L380.03,120.02L380.03,153.75L380.09,146.25L380.27,172.49L380.28,123.76L380.8,131.26L380.84,131.26L381.01,97.55L381.05,187.47L381.58,138.76L381.61,153.75L381.96,123.77L382.05,187.47L382.36,146.25L382.37,183.73L382.42,112.53L383.06,164.99L383.13,135.01L383.56,112.53L383.68,198.71L383.89,164.99L383.91,153.75L384.27,101.29L384.28,198.71L384.51,179.98L384.56,176.23L384.6,179.98L384.74,135.01L384.95,164.99L385.01,135.01L385.35,213.71L385.4,75.05L385.77,161.24L385.78,127.51L386.14,187.48L386.53,157.5L386.58,153.75L386.73,112.52L386.81,187.48L387.32,153.75L387.37,157.49L387.73,90.04L387.78,187.47L388.07,157.49L388.1,172.48L388.81,179.98L388.93,120.02L388.95,179.98L389.01,108.77L389.22,209.97L389.7,164.99L389.73,135.01L389.95,127.51L390.19,179.98L390.48,161.24L390.49,138.76L391.07,123.76L391.08,176.24L391.21,172.49L391.21,123.76L391.21,116.27L391.78,194.97L391.95,120.02L391.97,157.49L392.06,191.22L392.06,108.78L392.45,146.25L392.46,153.75L392.63,127.51L393.15,187.48L393.21,142.5L393.25,157.5L393.86,179.98L393.93,105.03L394.01,131.26L394.07,183.73L394.75,179.98L394.77,168.74L394.77,179.98L395.21,127.51L395.52,135.01L395.53,164.99L395.76,123.77L396.14,198.71L396.25,123.77L396.29,172.48L396.29,202.46L396.83,123.77L397.04,164.99L397.08,105.04L397.19,187.47L397.81,172.48L397.84,127.52L398.04,198.72L398.04,101.28L398.59,161.24L398.61,153.75L398.7,120.02L398.78,187.47L399,172.49" style="vector-effect: non-scaling-stroke; fill: none; stroke: rgb(239, 85, 59); stroke-opacity: 1; stroke-width: 2px; opacity: 1;"/></g><g class="points"/><g class="text"/></g><g class="trace scatter trace5ca43c" style="stroke-miterlimit: 2; opacity: 1;"><g class="fills"/><g class="errorbars"/><g class="lines"><path class="js-line" d="M0,90.01L0.15,15L0.3,146.25L0.63,146.25L0.74,131.24L0.85,93.72L0.88,146.25L1.4,119.99L1.47,146.25L1.72,123.74L1.83,131.24L1.88,146.25L2.1,119.99L2.5,127.49L2.65,146.25L2.94,116.23L3.44,134.99L3.44,146.25L3.64,146.25L3.64,138.74L3.98,127.49L4.02,146.25L4.11,134.99L4.11,116.23L4.78,146.25L4.83,131.24L4.89,123.74L5.65,146.25L5.66,142.5L5.68,142.5L5.85,112.48L5.88,146.25L6.11,134.99L6.12,146.25L6.81,123.74L6.92,127.49L7.01,142.5L7.19,146.25L7.46,119.99L7.73,134.99L7.74,146.25L8.3,127.49L8.46,146.25L8.53,131.24L8.56,112.49L8.56,146.25L9.11,131.24L9.13,146.25L9.62,119.99L9.87,123.74L9.9,127.49L10.11,116.24L10.51,146.25L10.58,142.5L10.65,116.23L10.7,108.73L10.73,146.25L11.18,123.74L11.27,142.5L11.82,116.23L11.96,146.25L11.98,138.74L12,138.74L12.06,119.99L12.17,146.25L12.71,146.25L12.75,146.25L13.18,131.24L13.45,146.25L13.52,138.74L13.6,119.99L14.24,146.25L14.24,134.99L14.26,134.99L14.75,146.25L14.94,123.74L15,134.99L15.02,123.74L15.05,119.99L15.11,146.25L15.5,134.99L15.63,146.25L15.89,78.71L16.34,142.5L16.42,146.25L16.62,89.97L16.85,134.99L17.07,131.24L17.21,127.49L17.46,146.25L17.52,127.49L17.55,104.98L17.61,142.5L18.28,134.99L18.31,134.99L18.49,127.49L18.59,146.25L19.03,146.25L19.08,146.25L19.61,127.5L19.79,135L19.82,146.25L20.28,104.99L20.55,138.75L20.62,146.25L21.1,112.49L21.21,127.49L21.3,146.25L21.38,119.99L22.05,127.5L22.06,127.5L22.08,112.5L22.36,146.25L22.75,142.5L22.8,146.25L23.05,93.73L23.54,142.5L23.57,146.25L23.98,123.74L24.29,146.25L24.33,146.25L24.86,112.49L25.08,146.25L25.11,146.25L25.72,123.74L25.84,146.25L25.88,123.74L26.69,146.25L26.69,146.25L26.72,146.25L27.26,119.99L27.37,138.75L27.38,146.25L28.17,120L28.25,131.25L28.27,146.25L28.91,105L28.97,127.5L29.01,120L29.33,116.25L29.58,146.25L29.7,123.75L29.83,135L29.89,146.25L29.98,116.25L30.58,146.25L30.6,146.25L30.85,116.25L31.38,127.5L31.44,127.5L31.5,120L31.57,146.25L32.11,131.25L32.13,142.5L32.18,146.25L32.81,105L32.84,146.25L32.91,146.25L33.08,78.75L33.65,120L33.68,127.5L33.76,146.25L34.31,97.49L34.41,127.5L34.42,135L35.11,146.25L35.17,135L35.18,131.25L35.28,123.74L35.3,146.25L35.76,142.5L35.76,146.25L36.09,112.5L36.22,142.5L36.23,146.25L36.74,90.01L37,112.5L37,138.75L37.26,108.75L37.74,146.25L37.75,142.5L37.76,142.5L37.8,146.25L38.49,120L38.56,146.25L38.67,112.5L39.3,127.5L39.32,142.5L39.46,146.25L40.07,101.25L40.11,142.5L40.17,146.25L40.35,82.5L40.86,138.75L40.86,146.25L40.95,105L41.49,116.25L41.55,138.75L41.75,146.25L42.03,101.25L42.29,116.25L42.38,120L42.43,112.5L42.43,146.25L43.06,138.75L43.14,142.5L43.34,104.99L43.61,146.25L43.79,138.75L43.81,119.99L44.22,108.74L44.61,146.25L44.61,127.49L44.79,71.2L44.97,146.25L45.27,131.25L45.34,142.5L45.52,116.24L45.57,146.25L45.64,135L45.65,112.49L46.33,146.25L46.43,142.5L46.44,127.49L46.68,119.99L47.04,146.25L47.08,119.99L47.08,108.74L47.81,146.25L47.87,142.5L47.89,142.5L48.01,146.25L48.58,119.98L48.63,134.99L48.63,146.25L49.12,108.73L49.37,123.73L49.41,142.49L49.5,146.25L50.09,123.73L50.1,131.24L50.2,131.24L50.5,146.25L50.67,108.72L50.94,138.74L50.95,138.74L51.08,146.25L51.44,86.19L51.69,138.74L51.71,138.74L51.74,146.25L52.04,112.47L52.45,134.99L52.51,138.74L52.54,108.72L52.62,146.25L53.26,138.74L53.27,146.25L53.91,116.22L54.02,131.23L54.07,138.74L54.11,146.25L54.71,86.2L54.82,86.2L54.85,138.74L54.94,146.25L55,97.47L55.61,116.22L55.61,138.74L55.67,97.46L56.17,146.25L56.36,138.74L56.42,146.25L56.59,112.47L57.11,127.48L57.22,127.48L57.36,123.73L57.38,146.25L57.79,138.74L57.83,146.25L58.39,112.47L58.55,134.99L58.64,146.25L58.96,123.73L59.37,142.49L59.44,146.25L59.92,108.72L60.19,146.25L60.24,142.49L60.41,146.25L60.46,134.99L60.47,134.99L60.49,108.72L61.21,146.25L61.31,146.25L61.36,127.48L62.04,138.74L62.11,146.25L62.3,119.98L62.86,123.73L62.88,131.24L63.13,146.25L63.23,119.98L63.53,146.25L63.63,146.25L63.74,86.21L64.23,142.5L64.35,146.25L64.77,119.99L64.77,97.48L65.31,146.25L65.43,104.97L65.56,146.25L66.13,104.98L66.3,142.5L66.32,142.5L66.43,146.25L67.09,116.23L67.09,146.25L67.34,116.23L67.81,142.5L67.85,134.99L67.92,146.25L68.36,112.48L68.59,146.25L68.63,146.25L68.96,97.47L69.37,142.5L69.41,142.5L69.57,119.98L69.79,146.25L69.86,131.24L69.86,123.74L70.4,119.98L70.54,146.25L70.61,123.74L70.62,123.74L70.88,119.98L71.38,146.25L71.38,146.25L71.4,146.25L71.87,97.47L72.15,127.49L72.21,127.49L72.29,116.23L72.33,146.25L72.85,138.74L72.87,138.74L73.08,108.72L73.15,146.25L73.59,142.5L73.62,142.5L73.62,146.25L73.72,108.73L74.36,146.25L74.38,146.25L75.14,127.49L75.16,146.25L75.29,127.49L75.91,146.25L75.93,146.25L76.73,86.22L76.75,123.74L77.14,86.25L77.49,146.25L77.5,116.25L77.64,108.74L78.12,146.25L78.22,135L78.26,135L78.39,108.75L78.52,146.25L79.01,123.75L79.05,120L79.26,116.25L79.87,146.25L79.87,127.5L80.28,97.49L80.52,146.25L80.52,97.49L80.54,97.49L81.03,146.25L81.15,86.24L81.3,142.5L81.32,127.5L81.78,101.24L82.01,146.25L82.04,138.75L82.04,89.97L82.3,146.25L82.79,119.99L82.82,146.25L82.89,119.99L83.57,123.74L83.59,123.74L83.64,48.74L84.02,146.25L84.3,142.5L84.36,142.5L84.56,146.25L84.59,101.23L85.07,138.75L85.08,138.75L85.16,146.25L85.32,101.25L85.83,138.75L85.86,131.25L86.5,119.99L86.58,146.25L86.59,119.99L86.59,116.24L87.01,108.74L87.24,146.25L87.35,123.74L87.35,116.24L87.43,104.99L87.45,146.25L88.09,146.25L88.12,134.99L88.22,93.73L88.24,146.25L88.86,112.49L88.9,108.74L89,74.98L89.11,146.25L89.65,131.24L89.67,142.5L89.72,116.24L89.73,146.25L90.36,146.25L90.38,142.5L90.46,146.25L90.78,108.74L91.11,138.75L91.11,146.25L91.68,104.99L91.86,135L91.9,135L92.27,101.24L92.48,146.25L92.59,127.49L92.59,108.74L93.27,146.25L93.37,142.5L93.38,131.24L93.57,146.25L94.03,108.74L94.07,146.25L94.09,146.25L94.3,97.49L94.83,142.5L94.91,142.5L95.06,131.24L95.08,146.25L95.15,138.75L95.2,123.74L95.36,146.25L95.38,89.98L95.92,138.75L95.96,142.5L96.1,146.25L96.63,93.72L96.68,138.74L96.68,146.25L97.36,127.49L97.42,146.25L97.45,146.25L97.58,108.73L98.14,131.24L98.24,127.49L98.29,104.98L99.01,146.25L99.03,142.5L99.2,127.49L99.42,146.25L99.58,134.99L99.58,112.48L99.58,97.48L99.66,146.25L100.29,138.74L100.34,138.74L100.48,146.25L100.68,101.22L101.1,112.48L101.15,146.25L101.54,101.23L101.89,142.5L101.96,146.25L102.12,97.47L102.7,131.24L102.72,131.24L102.88,131.24L102.91,146.25L103.29,127.49L103.66,142.5L103.68,142.5L103.72,146.25L103.92,108.73L104.4,146.25L104.44,146.25L104.49,119.98L105.11,146.25L105.18,146.25L105.9,138.74L105.93,146.25L105.99,112.48L106.67,146.25L106.7,142.5L106.73,146.25L107.08,123.73L107.44,127.49L107.46,123.73L108.08,104.98L108.21,146.25L108.21,134.99L108.24,134.99L108.3,146.25L108.71,82.47L108.91,104.98L108.95,146.25L108.99,89.97L109.66,146.25L109.75,127.49L109.75,146.25L110.12,104.98L110.49,127.49L110.55,127.49L110.55,146.25L110.77,112.48L111.26,146.25L111.31,146.25L111.53,101.23L112.04,146.25L112.1,142.5L112.35,146.25L112.42,123.74L112.5,123.74L112.5,119.99L112.52,108.75L112.56,146.25L113.22,134.99L113.26,138.75L113.26,146.25L113.89,89.97L114.01,134.99L114.07,142.5L114.19,146.25L114.3,108.73L114.85,123.74L114.92,123.74L115.12,112.48L115.62,146.25L115.67,131.24L115.69,131.24L115.71,119.99L115.92,146.25L116.38,134.99L116.39,134.99L116.58,146.25L116.99,78.75L117.14,78.75L117.18,93.75L117.18,90L117.2,146.25L117.93,127.5L118,146.25L118.57,56.25L118.73,78.75L118.77,146.25L119.09,86.25L119.54,123.75L119.55,146.25L120.12,131.25L120.33,138.75L120.34,142.5L120.62,101.25L121.05,146.25L121.05,146.25L121.07,112.5L121.37,105L121.39,146.25L121.82,131.25L121.87,138.75L122.02,146.25L122.51,108.75L122.57,146.25L122.58,146.25L122.86,120L123.26,127.5L123.34,135L123.43,146.25L123.74,123.75L124.03,131.25L124.06,142.5L124.33,108.75L124.36,146.25L124.65,142.5L124.75,146.25L125,112.49L125.45,138.75L125.59,142.5L126.25,146.25L126.27,142.5L126.27,135L126.45,119.99L127.07,146.25L127.08,142.5L127.15,146.25L127.23,120L127.82,131.25L127.84,131.25L127.88,123.75L128.56,146.25L128.57,135L128.68,146.25L128.81,108.74L129.4,131.25L129.46,138.75L129.56,146.25L129.71,105L130.19,127.5L130.24,146.25L130.84,119.99L130.9,142.5L130.94,142.5L131.2,146.25L131.54,123.74L131.68,135L131.7,146.25L132.5,93.74L132.57,123.74L132.58,138.75L132.8,112.49L132.89,146.25L133.13,123.74L133.13,112.49L133.13,108.74L133.43,146.25L133.82,146.25L133.9,146.25L134.5,123.74L134.65,146.25L134.67,142.5L134.67,146.25L134.89,116.24L135.41,119.99L135.43,123.74L135.6,93.73L136.2,146.25L136.21,146.25L136.9,127.49L136.94,142.5L136.99,142.5L136.99,146.25L137.13,119.99L137.73,146.25L137.75,146.25L138.33,116.23L138.49,138.75L138.49,146.25L139.06,93.72L139.24,93.72L139.25,112.48L139.36,146.25L139.51,78.72L139.93,86.21L139.97,146.25L140.47,104.97L140.71,142.49L140.73,142.49L141.02,101.21L141.05,146.25L141.41,131.23L141.45,138.74L141.58,146.25L141.8,101.21L142.2,104.97L142.21,146.25L142.73,116.23L142.92,134.99L142.99,134.99L143.02,146.25L143.2,112.48L143.74,142.5L143.76,146.25L144.11,108.72L144.49,146.25L144.52,131.24L144.67,123.74L145.28,146.25L145.28,138.74L145.34,131.24L145.52,146.25L145.63,112.48L146.05,131.24L146.16,131.24L146.62,116.23L146.87,146.25L146.89,138.74L146.93,138.74L146.93,146.25L147.16,119.99L147.64,138.74L147.73,138.74L147.99,108.73L148.4,146.25L148.47,138.75L148.47,134.99L148.82,112.48L149.14,146.25L149.19,138.75L149.2,123.74L149.28,146.25L149.93,104.98L149.93,142.5L150.16,93.72L150.17,146.25L150.59,123.73L150.68,134.99L150.73,123.73L150.87,146.25L151.29,138.74L151.4,146.25L151.49,127.49L152.15,146.25L152.17,142.5L152.17,146.25L152.87,123.74L152.91,142.5L152.94,142.5L152.94,146.25L153.49,116.23L153.67,146.25L153.7,146.25L154.32,97.46L154.43,119.98L154.46,142.49L154.49,146.25L154.95,108.72L155.18,138.74L155.22,134.99L155.34,123.73L156,146.25L156.06,146.25L156.72,93.71L156.83,146.25L156.98,119.98L157.01,142.5L157.04,146.25L157.35,116.23L157.75,131.24L157.89,142.5L157.96,146.25L158.62,108.73L158.63,134.99L158.67,134.99L158.73,108.73L158.85,146.25L159.36,131.24L159.44,138.75L159.76,123.74L160.15,146.25L160.19,138.75L160.23,146.25L160.59,119.99L160.71,131.24L160.72,146.25L161.12,116.24L161.43,134.99L161.48,146.25L162.09,134.99L162.19,142.5L162.26,142.5L162.35,108.74L162.44,146.25L163.01,134.99L163.05,146.25L163.77,127.5L163.82,142.5L163.84,146.25L164.37,90L164.6,101.25L164.66,138.75L164.73,89.99L164.84,146.25L165.41,138.75L165.43,138.75L165.66,123.75L165.85,146.25L165.86,127.49L165.86,146.25L166.58,127.49L166.62,127.49L167.34,146.25L167.4,116.24L167.4,112.49L167.45,146.25L168.15,138.75L168.24,146.25L168.61,119.99L169.03,138.75L169.05,138.75L169.21,146.25L169.72,108.73L169.81,146.25L170.31,104.98L170.62,108.73L170.63,142.5L170.88,146.25L171.24,116.24L171.38,138.75L171.39,135L171.59,112.49L171.97,146.25L171.98,142.5L172.03,127.49L172.22,108.73L172.8,146.25L172.8,146.25L172.82,146.25L173.08,119.99L173.54,138.74L173.63,138.74L173.83,146.25L174.21,119.99L174.27,146.25L174.79,112.49L175.04,119.99L175.1,146.25L175.81,112.48L175.86,142.5L175.92,146.25L176.18,123.74L176.46,131.24L176.51,146.25L177.23,119.98L177.3,119.98L177.35,108.73L177.39,146.25L178,127.49L178.05,142.5L178.21,146.25L178.77,119.99L178.8,146.25L178.82,116.23L178.82,112.48L178.93,146.25L179.55,116.23L179.62,142.5L179.78,131.24L179.99,146.25L180.01,134.99L180.02,116.23L180.5,74.96L180.62,146.25L180.74,108.72L180.74,101.22L180.86,78.7L181.39,146.25L181.51,134.99L181.52,127.49L181.67,108.72L181.7,146.25L182.24,142.5L182.28,146.25L183.08,108.73L183.08,123.74L183.13,123.74L183.96,146.25L184.04,146.25L184.74,101.22L184.8,104.97L184.85,146.25L184.87,93.72L185.09,142.49L185.23,142.5L185.41,146.25L185.79,119.98L185.98,123.73L186.1,127.49L186.28,146.25L186.85,131.24L186.86,131.24L186.86,112.48L186.9,146.25L187.59,134.99L187.62,134.99L187.67,146.25L188.13,116.23L188.29,146.25L188.4,138.74L188.45,146.25L189,89.97L189.15,104.97L189.18,134.99L189.2,104.97L189.5,146.25L189.91,146.25L189.93,146.25L190.66,116.23L190.66,116.23L190.7,146.25L191.42,119.98L191.43,146.25L191.61,104.97L192.15,142.5L192.17,134.99L192.35,119.98L192.53,146.25L192.92,119.98L192.95,142.49L192.96,123.73L193,146.25L193.7,134.99L193.73,142.5L194.11,146.25L194.26,82.45L194.44,142.49L194.46,142.49L194.58,116.22L194.74,146.25L195.17,131.24L195.22,123.73L195.33,104.97L195.67,146.25L195.92,134.99L195.93,146.25L196.53,112.48L196.6,138.74L196.65,146.25L196.76,119.99L196.97,123.74L197.01,146.25L197.73,97.48L197.73,97.48L197.83,142.5L197.86,146.25L198.35,74.96L198.55,116.23L198.62,138.74L198.85,108.72L199.07,146.25L199.37,134.99L199.38,146.25L199.41,112.48L200.06,146.25L200.14,134.99L200.66,108.73L200.71,146.25L200.78,123.74L200.78,116.23L201.36,146.25L201.54,123.74L201.56,123.74L201.61,119.98L202.34,146.25L202.34,134.99L202.55,119.99L202.99,146.25L203.1,142.5L203.1,135L203.59,146.25L203.77,104.99L203.82,123.75L203.83,104.99L204.61,146.25L204.61,142.5L204.66,146.25L204.77,101.24L205.35,142.5L205.37,138.75L205.86,146.25L205.92,112.5L206.08,138.75L206.08,120L206.87,146.25L206.95,142.5L206.95,120L206.97,116.25L207.2,146.25L207.5,146.25L207.59,146.25L208.23,123.75L208.34,146.25L208.37,146.25L209.05,119.99L209.09,127.5L209.14,127.5L209.19,146.25L209.78,116.24L209.88,142.5L209.9,142.5L209.94,146.25L210.68,86.24L210.68,86.24L210.8,119.99L210.94,82.49L211.03,146.25L211.5,135L211.56,146.25L212.09,112.49L212.32,135L212.32,146.25L213.09,108.74L213.09,127.49L213.09,112.49L213.21,146.25L213.83,127.49L213.85,127.49L214.42,93.75L214.51,146.25L214.59,135L214.61,135L215.12,127.5L215.27,146.25L215.36,142.5L215.37,142.5L215.37,123.75L215.57,146.25L216.12,146.25L216.13,127.5L216.69,93.77L216.73,146.25L216.86,116.26L216.88,116.26L217.13,146.25L217.43,48.8L217.53,93.77L217.53,67.54L218.24,146.25L218.27,120L218.35,146.25L219.01,123.75L219.05,131.25L219.09,142.5L219.19,146.25L219.36,123.75L219.43,146.25L219.44,146.25L220.09,108.77L220.19,142.5L220.21,142.5L220.5,116.27L220.85,146.25L220.85,127.51L220.85,116.26L221.36,146.25L221.54,127.51L221.62,135L221.68,146.25L221.99,116.26L222.33,135L222.4,135L222.4,146.25L222.46,116.25L223.13,146.25L223.16,142.5L223.24,131.25L223.67,146.25L223.67,131.25L223.78,131.25L224.16,120L224.42,146.25L224.46,131.25L224.56,142.5L224.74,112.5L225.05,146.25L225.09,142.5L225.15,120L225.49,116.26L225.9,146.25L225.94,120.01L225.99,146.25L226.44,63.77L226.69,131.26L226.7,131.26L226.98,101.26L227.37,146.25L227.44,138.76L227.45,116.26L227.53,71.3L228.15,146.25L228.15,142.5L228.23,142.5L228.37,146.25L228.76,112.51L228.97,142.5L228.99,146.25L229.28,75.04L229.74,123.76L229.81,146.25L229.87,108.77L230.56,146.25L230.57,146.25L231.12,97.5L231.34,116.25L231.36,116.25L232.12,146.25L232.12,142.5L232.12,108.76L232.97,146.25L232.97,146.25L233.04,146.25L233.81,123.75L233.87,131.25L233.9,112.51L233.98,146.25L234.62,138.75L234.67,142.5L234.67,127.51L234.71,146.25L235.41,146.25L235.44,146.25L235.6,146.25L235.6,146.25L235.61,135.01L235.61,146.25L235.71,101.27L236.35,112.51L236.39,138.75L236.53,146.25L237.12,127.5L237.12,127.5L237.16,108.76L237.2,146.25L237.9,142.5L237.93,142.5L237.97,127.5L238.29,146.25L238.6,142.5L238.6,131.25L239.18,127.51L239.33,146.25L239.34,138.75L239.39,138.75L239.94,146.25L239.95,90.03L239.95,90.03L239.98,75.04L239.98,71.29L240.28,146.25L240.72,142.5L240.75,142.5L241.1,120.01L241.24,146.25L241.5,146.25L241.53,142.5L241.53,146.25L241.92,120.01L242.28,146.25L242.29,123.76L242.41,112.52L242.54,146.25L242.96,138.76L243.02,146.25L243.23,146.25L243.27,142.5L243.39,146.25L243.49,123.76L243.49,120.01L244.05,112.52L244.23,146.25L244.26,112.52L244.98,146.25L245.03,135.01L245.07,138.76L245.44,146.25L245.49,120.02L245.76,135.01L245.76,116.27L246.4,146.25L246.47,112.52L246.48,138.76L246.49,82.55L246.49,71.3L246.6,146.25L247.24,135.01L247.29,135.01L247.44,75.08L247.81,146.25L248,138.76L248.04,116.27L248.61,146.25L248.77,135.01L248.84,123.77L249.42,146.25L249.55,105.04L249.61,112.53L250.23,146.25L250.34,123.77L250.4,123.77L250.45,146.25L250.48,116.28L251.15,142.5L251.2,131.26L251.77,112.52L251.93,146.25L251.94,112.52L251.95,146.25L252.69,146.25L252.73,146.25L253.15,93.8L253.47,135.01L253.5,120.02L254.39,146.25L254.39,127.51L254.44,120.02L255.15,146.25L255.16,127.51L255.89,123.77L255.95,146.25L255.98,123.77L256.78,146.25L256.81,142.5L257.14,146.25L257.15,135.01L257.15,127.51L257.85,146.25L257.86,108.77L257.92,138.76L258.13,108.78L258.54,146.25L258.55,131.26L258.68,116.27L259.24,146.25L259.31,138.76L259.36,142.51L259.43,146.25L259.63,101.29L260.08,116.27L260.1,146.25L260.41,127.52L260.47,142.51L260.47,146.25L260.71,105.04L261.22,135.01L261.29,142.51L261.46,146.25L261.99,108.78L262.04,127.52L262.06,146.25L262.72,120.02L262.79,142.5L262.83,142.5L263.01,146.25L263.44,93.79L263.51,131.26L263.58,131.26L263.62,90.04L263.64,146.25L264.33,127.52L264.35,138.76L264.58,138.76L264.6,131.27L264.67,146.25L265.08,112.53L265.35,146.25L265.37,123.78L265.99,146.25L266.08,123.77L266.09,138.76L266.12,123.77L266.4,97.54L266.91,146.25L266.91,127.52L266.92,146.25L267.32,120.02L267.66,146.25L267.67,146.25L268.24,105.03L268.4,146.25L268.41,146.25L269.16,112.52L269.18,112.52L269.25,93.79L269.42,146.25L269.83,135.01L269.85,135.01L269.99,146.25L270.45,97.55L270.55,120.03L270.62,116.28L270.97,116.27L271.44,146.25L271.44,127.52L271.49,146.25L272.05,105.03L272.19,146.25L272.23,101.28L272.39,97.53L272.41,146.25L272.5,86.29L272.76,146.25L272.77,146.25L273.38,116.28L273.52,142.51L273.53,146.25L273.91,112.52L273.94,142.5L273.95,146.25L274.15,146.25L274.17,142.5L274.26,146.25L274.88,105.03L274.96,105.03L275.65,146.25L275.71,131.26L275.73,146.25L276.38,116.28L276.45,146.25L276.52,146.25L277.1,116.28L277.23,142.51L277.35,142.51L277.52,127.52L277.94,146.25L277.99,135.01L277.99,116.27L278.58,146.25L278.84,142.51L278.85,135.01L278.88,146.25L279.24,120.02L279.58,127.52L279.62,146.25L280.1,123.77L280.34,142.51L280.4,142.51L280.44,146.25L280.84,116.27L281.16,131.26L281.19,131.26L281.2,146.25L281.66,105.02L281.91,142.5L281.94,127.51L282.58,116.27L282.67,146.25L282.7,135.01L282.71,135.01L282.71,146.25L283.03,105.02L283.45,108.77L283.48,97.53L284.21,146.25L284.31,142.5L284.38,142.5L284.82,71.29L285.13,146.25L285.16,142.5L285.22,146.25L285.77,120.02L285.93,135.01L285.93,146.25L286.16,105.03L286.66,146.25L286.69,146.25L286.89,108.78L287.44,120.02L287.46,146.25L287.93,120.02L288.19,135.01L288.19,146.25L288.68,86.31L288.92,146.25L288.95,146.25L289.48,67.58L289.71,86.29L289.71,146.25L289.8,78.8L290.29,146.25L290.37,142.5L290.45,93.79L290.61,146.25L291.09,112.52L291.13,112.52L291.26,108.78L291.74,146.25L291.78,112.53L291.78,105.03L292,146.25L292.53,131.27L292.54,146.25L292.63,112.53L293.31,131.26L293.33,146.25L293.45,120.02L294.05,138.76L294.08,142.51L294.3,146.25L294.36,101.29L294.84,135.01L294.86,135.01L295.47,123.77L295.57,146.25L295.59,142.51L295.6,112.53L295.6,105.04L295.81,146.25L296.35,146.25L296.37,146.25L296.87,93.8L297.11,127.52L297.13,127.52L297.71,146.25L297.83,127.52L297.88,123.77L298.03,105.03L298.69,146.25L298.72,138.76L298.83,131.27L298.84,146.25L298.84,146.25L298.85,93.8L298.85,90.06L298.86,146.25L299.6,135.01L299.61,131.27L299.75,146.25L299.76,105.04L300.32,127.52L300.4,146.25L300.42,112.54L301.13,135.01L301.19,135.01L301.57,146.25L301.72,127.51L301.92,142.5L301.95,142.5L302.1,146.25L302.22,93.79L302.69,135.01L302.71,135.01L302.9,67.56L302.92,146.25L303.46,138.76L303.54,146.25L303.91,112.52L304.3,127.51L304.31,146.25L304.49,112.53L304.99,146.25L305.06,146.25L305.2,86.3L305.8,142.51L305.86,142.51L305.9,146.25L306.62,112.53L306.62,146.25L307.29,105.03L307.36,112.53L307.39,123.77L308.16,146.25L308.16,146.25L308.16,127.52L308.18,146.25L308.83,78.8L308.86,142.51L308.96,90.04L308.96,78.8L309.05,146.25L309.68,138.76L309.73,138.76L309.78,146.25L310.43,112.52L310.48,142.5L310.49,142.5L310.55,146.25L310.62,86.29L311.22,116.27L311.25,112.53L311.38,146.25L311.81,60.06L311.89,123.77L311.93,131.26L312.24,146.25L312.36,71.3L312.63,146.25L312.69,146.25L313.29,123.76L313.3,138.75L313.33,146.25L313.56,86.28L314.05,131.26L314.09,123.77L314.16,108.77L314.78,146.25L314.86,135.01L314.86,120.02L314.98,101.28L315.65,146.25L315.65,131.26L315.75,146.25L315.95,108.77L316.37,142.5L316.43,142.5L316.43,146.25L316.87,105.02L317.18,131.26L317.19,142.51L317.35,146.25L317.63,120.02L317.64,146.25L317.92,116.27L318.39,131.26L318.42,146.25L318.82,116.27L319.08,142.5L319.19,146.25L319.82,108.78L319.93,146.25L319.96,146.25L320.17,112.52L320.75,131.26L320.76,146.25L321.54,131.26L321.54,131.26L321.57,146.25L321.84,123.77L322.01,146.25L322.05,146.25L322.09,116.27L322.8,131.26L322.82,142.5L322.85,146.25L323.21,93.79L323.53,146.25L323.59,142.51L323.69,127.52L323.75,146.25L324.34,138.76L324.36,142.5L324.41,146.25L324.79,90.03L325.09,112.52L325.13,112.52L325.88,146.25L325.89,142.5L325.9,123.77L326.35,112.53L326.69,146.25L326.69,146.25L326.7,146.25L327.37,105.03L327.37,123.76L327.5,142.5L328.12,146.25L328.13,142.5L328.14,135.01L328.14,146.25L328.52,120.02L328.89,123.77L328.91,123.77L328.95,146.25L329.05,112.53L329.65,127.52L329.66,146.25L329.81,82.58L330.35,123.78L330.45,138.76L330.68,146.25L331.12,82.56L331.19,127.52L331.21,127.52L331.6,146.25L331.68,90.08L332,135.02L332.01,135.02L332.02,93.82L332.32,146.25L332.72,138.76L332.78,142.51L332.98,123.78L333.42,146.25L333.49,138.77L333.58,146.26L334.22,112.55L334.33,138.76L334.35,138.76L334.69,86.33L335.07,127.52L335.1,142.51L335.21,90.06L335.86,146.25L335.86,138.76L335.97,146.25L336.63,112.54L336.65,138.76L336.66,108.8L336.76,146.25L337.4,142.51L337.42,142.51L337.59,146.25L337.84,123.78L338.17,138.76L338.18,138.76L338.26,146.25L338.28,112.54L338.3,112.54L339.09,146.25L339.09,135.02L339.11,135.02L339.53,120.04L339.88,146.25L339.9,142.51L339.98,146.25L340.04,112.54L340.72,123.78L340.74,123.78L340.93,146.25L341.06,93.82L341.49,127.53L341.51,127.53L341.53,146.25L342.03,112.54L342.24,146.25L342.28,135.02L342.39,146.25L342.87,108.8L343.03,127.53L343.05,146.25L343.25,120.04L343.27,142.51L343.28,146.25L343.43,146.26L343.89,120.04L343.98,131.27L344.07,142.51L344.08,123.78L344.18,146.26L344.8,138.76L344.83,138.76L345.18,127.53L345.45,146.25L345.45,131.27L345.45,127.53L345.45,146.25L346.14,108.8L346.19,120.04L346.21,108.8L346.77,146.26L346.97,138.76L347,146.26L347.44,97.57L347.71,146.26L347.74,146.26L348.46,123.78L348.49,142.51L348.51,131.27L348.65,146.25L349.02,112.55L349.2,135.02L349.27,138.76L349.73,105.05L350.02,146.25L350.03,105.05L350.72,146.25L350.78,138.76L350.81,138.76L350.9,101.31L351.34,146.25L351.38,123.78L351.41,116.29L352.04,146.25L352.16,138.76L352.2,135.02L352.27,146.25L352.88,120.03L353.08,146.25L353.45,108.8L353.82,135.02L353.84,131.27L354.13,127.53L354.6,146.25L354.6,127.52L354.7,105.05L354.74,146.25L354.78,146.25L354.8,146.25L354.97,120.03L355.54,146.25L355.58,131.27L355.62,105.05L355.79,146.25L356.28,138.76L356.35,135.02L356.46,127.53L356.95,146.25L357.05,127.53L357.05,123.78L357.43,120.04L357.67,146.25L357.81,142.51L357.82,123.78L357.92,146.26L357.94,120.04L358.08,138.77L358.1,146.26L358.44,127.53L358.45,120.04L358.59,108.8L359.09,146.26L359.21,131.28L359.25,123.79L359.78,146.26L359.94,112.56L360,135.02L360,112.56L360.13,146.26L360.42,112.55L360.74,135.02L360.76,135.02L361.21,146.26L361.25,112.56L361.25,112.56L361.32,112.56L361.96,146.26L362.06,127.53L362.07,127.53L362.49,146.26L362.66,108.81L362.82,131.28L362.84,142.51L363.11,123.79L363.36,146.26L363.37,135.02L363.38,123.79L363.44,146.26L363.89,123.78L364.11,146.25L364.14,146.25L364.42,112.54L364.88,120.03L364.89,142.51L364.96,120.03L364.98,146.25L365.61,142.51L365.66,146.25L366.01,131.27L366.41,146.25L366.42,146.25L366.73,127.53L367.14,146.25L367.19,146.25L367.24,112.55L367.62,146.26L367.69,138.77L367.75,138.77L367.77,127.53L368.29,146.25L368.47,142.51L368.51,135.02L368.75,116.29L369,146.26L369.26,138.77L369.28,146.26L369.94,101.31L370.04,131.27L370.09,146.25L370.15,146.26L370.38,97.56L370.86,135.02L370.87,142.51L371.55,146.25L371.59,90.06L371.68,131.27L371.76,138.76L371.99,101.3L372.17,146.25L372.5,138.76L372.53,131.27L372.53,146.25L372.82,108.79L373.28,116.28L373.29,146.25L373.86,108.78L374.09,123.77L374.13,135.01L374.29,120.02L374.37,146.25L374.88,138.76L374.91,131.27L375.17,86.3L375.58,146.25L375.62,131.27L375.7,78.82L376.38,146.25L376.48,127.52L376.49,116.27L377.25,146.25L377.25,127.52L377.28,105.03L377.41,146.25L377.93,146.25L377.96,142.5L378.01,146.25L378.61,112.53L378.61,112.53L378.7,146.25L379.16,123.77L379.41,146.25L379.45,146.25L379.79,101.28L380.28,123.76L380.29,146.25L381.01,97.55L381.02,97.55L381.05,112.53L381.84,146.25L381.84,142.51L381.84,138.76L382.01,146.25L382.05,112.53L382.56,146.25L382.6,127.52L382.65,120.02L382.66,146.25L383.21,146.25L383.26,146.25L383.65,101.29L383.96,146.25L384.02,146.25L384.28,101.29L384.76,131.26L384.82,131.26L385.4,75.05L385.42,146.25L385.57,142.51L385.59,116.27L385.63,146.25L386.14,112.52L386.3,146.25L386.35,146.25L386.81,112.52L387.12,127.52L387.15,135.01L387.72,90.04L387.77,146.25L387.85,142.51L387.87,112.53L388.64,146.25L388.67,138.76L388.67,146.25L389.22,90.03L389.42,146.25L389.45,123.76L389.51,146.25L389.68,112.52L390.2,146.25L390.21,146.25L390.24,123.76L390.94,146.25L391,146.25L391.41,108.77L391.74,123.77L391.76,123.77L391.78,105.03L392.55,146.25L392.55,142.51L392.58,127.51L392.69,146.25L393.15,112.52L393.33,127.51L393.36,146.25L393.93,105.03L394.13,135.01L394.21,146.25L394.77,120.02L394.9,131.26L394.93,138.76L394.98,146.25L395.53,123.77L395.66,146.25L395.68,146.25L396.29,97.54L396.39,146.25L396.43,146.25L397.08,105.04L397.19,112.53L397.22,146.25L397.85,123.77L397.94,131.26L397.98,123.77L398.04,101.28L398.75,146.25L398.75,142.51L398.76,131.26L398.78,112.53L398.85,142.51L399,127.51" style="vector-effect: non-scaling-stroke; fill: none; stroke: rgb(0, 204, 150); stroke-opacity: 1; stroke-width: 2px; opacity: 1;"/></g><g class="points"/><g class="text"/></g></g></g><g class="overplot"/><path class="xlines-above crisp" d="M0,0" style="fill: none;"/><path class="ylines-above crisp" d="M0,0" style="fill: none;"/><g class="overlines-above"/><g class="xaxislayer-above"><g class="xtick"><text text-anchor="start" x="0" y="416" transform="translate(206.5,0) rotate(30,0,408.5)" style="font-family: 'Times New Roman'; font-size: 15px; fill: rgb(13, 13, 13); fill-opacity: 1; white-space: pre; opacity: 1;">1.6125210<tspan style="font-size:70%" dy="-0.6em">18</tspan><tspan dy="0.42em"></tspan></text></g><g class="xtick"><text text-anchor="start" x="0" y="416" style="font-family: 'Times New Roman'; font-size: 15px; fill: rgb(13, 13, 13); fill-opacity: 1; white-space: pre; opacity: 1;" transform="translate(285.71000000000004,0) rotate(30,0,408.5)">1.61252510<tspan style="font-size:70%" dy="-0.6em">18</tspan><tspan dy="0.42em"></tspan></text></g><g class="xtick"><text text-anchor="start" x="0" y="416" style="font-family: 'Times New Roman'; font-size: 15px; fill: rgb(13, 13, 13); fill-opacity: 1; white-space: pre; opacity: 1;" transform="translate(364.91999999999996,0) rotate(30,0,408.5)">1.6125310<tspan style="font-size:70%" dy="-0.6em">18</tspan><tspan dy="0.42em"></tspan></text></g><g class="xtick"><text text-anchor="start" x="0" y="416" style="font-family: 'Times New Roman'; font-size: 15px; fill: rgb(13, 13, 13); fill-opacity: 1; white-space: pre; opacity: 1;" transform="translate(444.13,0) rotate(30,0,408.5)">1.61253510<tspan style="font-size:70%" dy="-0.6em">18</tspan><tspan dy="0.42em"></tspan></text></g><g class="xtick"><text text-anchor="start" x="0" y="416" style="font-family: 'Times New Roman'; font-size: 15px; fill: rgb(13, 13, 13); fill-opacity: 1; white-space: pre; opacity: 1;" transform="translate(523.3399999999999,0) rotate(30,0,408.5)">1.6125410<tspan style="font-size:70%" dy="-0.6em">18</tspan><tspan dy="0.42em"></tspan></text></g></g><g class="yaxislayer-above"><g class="ytick"><text text-anchor="end" x="136" y="12.25" transform="translate(0,362.54)" style="font-family: 'Times New Roman'; font-size: 35px; fill: rgb(13, 13, 13); fill-opacity: 1; white-space: pre; opacity: 1;">0.03</text></g><g class="ytick"><text text-anchor="end" x="136" y="12.25" style="font-family: 'Times New Roman'; font-size: 35px; fill: rgb(13, 13, 13); fill-opacity: 1; white-space: pre; opacity: 1;" transform="translate(0,325.03)">0.02</text></g><g class="ytick"><text text-anchor="end" x="136" y="12.25" style="font-family: 'Times New Roman'; font-size: 35px; fill: rgb(13, 13, 13); fill-opacity: 1; white-space: pre; opacity: 1;" transform="translate(0,287.51)">0.01</text></g><g class="ytick"><text text-anchor="end" x="136" y="12.25" style="font-family: 'Times New Roman'; font-size: 35px; fill: rgb(13, 13, 13); fill-opacity: 1; white-space: pre; opacity: 1;" transform="translate(0,250)">0</text></g><g class="ytick"><text text-anchor="end" x="136" y="12.25" style="font-family: 'Times New Roman'; font-size: 35px; fill: rgb(13, 13, 13); fill-opacity: 1; white-space: pre; opacity: 1;" transform="translate(0,212.49)">0.01</text></g><g class="ytick"><text text-anchor="end" x="136" y="12.25" style="font-family: 'Times New Roman'; font-size: 35px; fill: rgb(13, 13, 13); fill-opacity: 1; white-space: pre; opacity: 1;" transform="translate(0,174.97)">0.02</text></g><g class="ytick"><text text-anchor="end" x="136" y="12.25" style="font-family: 'Times New Roman'; font-size: 35px; fill: rgb(13, 13, 13); fill-opacity: 1; white-space: pre; opacity: 1;" transform="translate(0,137.46)">0.03</text></g></g><g class="overaxes-above"/></g></g><g class="polarlayer"/><g class="smithlayer"/><g class="ternarylayer"/><g class="geolayer"/><g class="funnelarealayer"/><g class="pielayer"/><g class="iciclelayer"/><g class="treemaplayer"/><g class="sunburstlayer"/><g class="glimages"/><defs id="topdefs-a29be8"><g class="clips"/><clipPath id="legenda29be8"><rect width="144" height="67" x="0" y="0"/></clipPath></defs><g class="layer-above"><g class="imagelayer"/><g class="shapelayer"/></g><g class="infolayer"><g class="legend" pointer-events="all" transform="translate(543.98,100)"><rect class="bg" shape-rendering="crispEdges" style="stroke: rgb(68, 68, 68); stroke-opacity: 1; fill: rgb(255, 255, 255); fill-opacity: 1; stroke-width: 0px;" width="144" height="67" x="0" y="0"/><g class="scrollbox" transform="" clip-path="url(#legenda29be8)"><g class="groups"><g class="traces" transform="translate(0,14.5)" style="opacity: 1;"><text class="legendtext" text-anchor="start" x="40" y="4.680000000000001" style="font-family: 'Open Sans', verdana, arial, sans-serif; font-size: 12px; fill: rgb(42, 63, 95); fill-opacity: 1; white-space: pre;">Realized (in %)</text><g class="layers" style="opacity: 1;"><g class="legendfill"/><g class="legendlines"><path class="js-line" d="M5,0h30" style="fill: none; stroke: rgb(99, 110, 250); stroke-opacity: 1; stroke-width: 2px;"/></g><g class="legendsymbols"><g class="legendpoints"/></g></g><rect class="legendtoggle" x="0" y="-9.5" width="138.71875" height="19" style="fill: rgb(0, 0, 0); fill-opacity: 0;"/></g><g class="traces" transform="translate(0,33.5)" style="opacity: 1;"><text class="legendtext" text-anchor="start" x="40" y="4.680000000000001" style="font-family: 'Open Sans', verdana, arial, sans-serif; font-size: 12px; fill: rgb(42, 63, 95); fill-opacity: 1; white-space: pre;">Effective (in %)</text><g class="layers" style="opacity: 1;"><g class="legendfill"/><g class="legendlines"><path class="js-line" d="M5,0h30" style="fill: none; stroke: rgb(239, 85, 59); stroke-opacity: 1; stroke-width: 2px;"/></g><g class="legendsymbols"><g class="legendpoints"/></g></g><rect class="legendtoggle" x="0" y="-9.5" width="138.71875" height="19" style="fill: rgb(0, 0, 0); fill-opacity: 0;"/></g><g class="traces" transform="translate(0,52.5)" style="opacity: 1;"><text class="legendtext" text-anchor="start" x="40" y="4.680000000000001" style="font-family: 'Open Sans', verdana, arial, sans-serif; font-size: 12px; fill: rgb(42, 63, 95); fill-opacity: 1; white-space: pre;">Half Quoted (in %)</text><g class="layers" style="opacity: 1;"><g class="legendfill"/><g class="legendlines"><path class="js-line" d="M5,0h30" style="fill: none; stroke: rgb(0, 204, 150); stroke-opacity: 1; stroke-width: 2px;"/></g><g class="legendsymbols"><g class="legendpoints"/></g></g><rect class="legendtoggle" x="0" y="-9.5" width="138.71875" height="19" style="fill: rgb(0, 0, 0); fill-opacity: 0;"/></g></g></g><rect class="scrollbar" rx="20" ry="3" width="0" height="0" style="fill: rgb(128, 139, 164); fill-opacity: 1;" x="0" y="0"/></g><g class="g-gtitle"/><g class="g-xtitle"><text class="xtitle" x="336.5" y="487.503125" text-anchor="middle" style="font-family: 'Open Sans', verdana, arial, sans-serif; font-size: 14px; fill: rgb(42, 63, 95); opacity: 1; font-weight: normal; white-space: pre;">Time Steps (ns)</text></g><g class="g-ytitle" transform="translate(24,0)"><text class="ytitle" transform="rotate(-90,12,250)" x="12" y="250" text-anchor="middle" style="font-family: 'Times New Roman'; font-size: 40px; fill: rgb(13, 13, 13); opacity: 1; font-weight: normal; white-space: pre;">Spreads (in %)</text></g></g></svg>