<svg class="main-svg" xmlns="http://www.w3.org/2000/svg" xmlns:xlink="http://www.w3.org/1999/xlink" width="700" height="500" style="" viewBox="0 0 700 500"><rect x="0" y="0" width="700" height="500" style="fill: rgb(255, 255, 255); fill-opacity: 1;"/><defs id="defs-4508b2"><g class="clips"><clipPath id="clip4508b2xyplot" class="plotclip"><rect width="511" height="320"/></clipPath><clipPath class="axesclip" id="clip4508b2x"><rect x="109" y="0" width="511" height="500"/></clipPath><clipPath class="axesclip" id="clip4508b2y"><rect x="0" y="100" width="700" height="320"/></clipPath><clipPath class="axesclip" id="clip4508b2xy"><rect x="109" y="100" width="511" height="320"/></clipPath></g><g class="gradients"/><g class="patterns"/></defs><g class="bglayer"><rect class="bg" x="109" y="100" width="511" height="320" style="fill: rgb(229, 236, 246); fill-opacity: 1; stroke-width: 0;"/></g><g class="layer-below"><g class="imagelayer"/><g class="shapelayer"/></g><g class="cartesianlayer"><g class="subplot xy"><g class="layer-subplot"><g class="shapelayer"/><g class="imagelayer"/></g><g class="minor-gridlayer"><g class="x"/><g class="y"/></g><g class="gridlayer"><g class="x"><path class="xgrid crisp" transform="translate(198.01,0)" d="M0,100v320" style="stroke: rgb(255, 255, 255); stroke-opacity: 1; stroke-width: 1px;"/><path class="xgrid crisp" transform="translate(299.45,0)" d="M0,100v320" style="stroke: rgb(255, 255, 255); stroke-opacity: 1; stroke-width: 1px;"/><path class="xgrid crisp" transform="translate(400.9,0)" d="M0,100v320" style="stroke: rgb(255, 255, 255); stroke-opacity: 1; stroke-width: 1px;"/><path class="xgrid crisp" transform="translate(502.34,0)" d="M0,100v320" style="stroke: rgb(255, 255, 255); stroke-opacity: 1; stroke-width: 1px;"/><path class="xgrid crisp" transform="translate(603.78,0)" d="M0,100v320" style="stroke: rgb(255, 255, 255); stroke-opacity: 1; stroke-width: 1px;"/></g><g class="y"><path class="ygrid crisp" transform="translate(0,346.86)" d="M109,0h511" style="stroke: rgb(255, 255, 255); stroke-opacity: 1; stroke-width: 1px;"/><path class="ygrid crisp" transform="translate(0,289.15)" d="M109,0h511" style="stroke: rgb(255, 255, 255); stroke-opacity: 1; stroke-width: 1px;"/><path class="ygrid crisp" transform="translate(0,231.43)" d="M109,0h511" style="stroke: rgb(255, 255, 255); stroke-opacity: 1; stroke-width: 1px;"/><path class="ygrid crisp" transform="translate(0,173.72)" d="M109,0h511" style="stroke: rgb(255, 255, 255); stroke-opacity: 1; stroke-width: 1px;"/><path class="ygrid crisp" transform="translate(0,116)" d="M109,0h511" style="stroke: rgb(255, 255, 255); stroke-opacity: 1; stroke-width: 1px;"/></g></g><g class="zerolinelayer"><path class="yzl zl crisp" transform="translate(0,404.58)" d="M109,0h511" style="stroke: rgb(255, 255, 255); stroke-opacity: 1; stroke-width: 2px;"/></g><path class="xlines-below"/><path class="ylines-below"/><g class="overlines-below"/><g class="xaxislayer-below"/><g class="yaxislayer-below"/><g class="overaxes-below"/><g class="plot" transform="translate(109,100)" clip-path="url(#clip4508b2xyplot)"><g class="scatterlayer mlayer"><g class="trace scatter trace715bca" style="stroke-miterlimit: 2; opacity: 1;"><g class="fills"/><g class="errorbars"/><g class="lines"><path class="js-line" d="M0,16L0.55,16L0.55,55.61L0.83,269.95L1.16,16L1.16,16L1.16,232.43L1.36,16L1.36,281.49L1.61,267.06L1.65,16L2.34,290.15L2.34,44.86L2.41,16L2.54,275.72L2.68,16L2.73,16L2.75,18.89L2.75,16L2.77,223.78L2.77,16L2.86,301.69L3.51,16L3.62,16L3.79,290.15L4.37,278.61L4.37,41.97L4.6,16L4.77,272.83L4.9,16L5.01,16L5.71,293.03L5.72,16L5.87,16L6,301.69L6.61,67.94L6.75,16L7,16L7.01,295.92L7.08,16L7.49,298.81L7.7,117L7.8,203.58L7.8,16L7.8,287.26L8.54,16L8.55,16L8.55,295.92L9.3,16L9.32,238.2L9.46,16L9.81,290.84L10.02,16L10.11,16L10.37,16L10.37,223.78L10.99,16L11.06,291.59L11.18,241.09L11.29,16L11.39,298.81L11.93,255.52L12.01,200.69L12.23,293.03L12.24,16L12.75,16L12.78,93.92L12.78,16L13.44,290.15L13.46,30.43L13.55,16L13.98,297.36L14.29,200.69L14.32,16L14.96,282.21L15.05,262.73L15.1,16L15.6,297.36L15.85,209.35L15.88,209.35L15.88,16L16.17,299.53L16.57,79.49L16.68,16L17.38,285.82L17.42,93.92L17.46,16L17.62,298.81L18.21,36.2L18.22,16L18.36,284.38L18.97,16L18.98,16L19.09,291.59L19.73,239.55L19.83,16L19.83,278.61L20.58,125.66L20.63,148.75L20.82,303.13L21.22,16L21.28,145.86L21.4,16L21.52,284.38L22.13,215.12L22.22,105.46L22.28,16L22.44,294.89L22.97,192.03L22.98,128.55L23.08,16L23.27,298.81L23.68,16L23.81,281.49L23.94,16L24.56,16L24.6,245.79L24.63,16L24.63,290.15L25.34,92.95L25.39,16L25.74,293.03L26.13,292.31L26.22,76.57L26.28,16L26.53,298.81L26.9,27.54L27.02,174.72L27.11,295.92L27.73,16L27.81,16L28.24,295.92L28.53,16L28.56,41.37L28.65,258.4L28.86,16L28.91,298.81L29.02,16L29.63,238.2L29.71,16L29.94,301.69L30.46,128.55L30.49,16L31.03,298.81L31.31,258.4L31.31,140.09L31.31,16L31.42,265.62L32.03,93.92L32.06,226.66L32.1,16L32.49,293.19L32.8,186.26L32.88,16L32.89,293.03L33.56,16L33.67,16L34.4,300.83L34.47,203.58L34.47,117L34.91,295.92L35.13,16L35.13,16L35.15,241.09L35.16,16L35.6,287.26L35.79,16L35.96,16L36.3,267.06L36.63,62.17L36.83,16L37.38,298.81L37.61,267.06L37.61,16L37.66,290.15L38.3,218L38.37,16L38.39,288.71L39.06,16L39.14,16L39.87,290.15L39.87,167.5L39.94,30.43L39.98,16L39.99,290.15L40.03,16L40.59,297.36L40.74,67.94L40.78,157.4L40.8,163.17L40.82,16L41,59.29L41,290.15L41.21,298.81L41.74,16L41.8,16L42.43,298.81L42.57,202.13L42.57,16L42.72,297.36L43.27,174.72L43.36,16L43.94,293.03L43.99,16L44.03,16L44.78,281.49L44.79,219.93L44.79,16L45.35,301.69L45.54,160.29L45.59,232.43L45.62,16L46.01,303.86L46.27,16L46.39,16L47.11,295.92L47.17,275.72L47.21,88.14L47.23,298.81L47.92,16L47.93,168.95L47.97,253.65L47.97,16L48.3,286.54L48.7,16L48.77,16L48.99,303.86L49.52,269.95L49.55,16L49.8,291.59L50.29,223.78L50.33,16L50.73,298.81L51.04,290.15L51.09,16L51.62,298.81L51.83,16L51.94,16L52.12,298.81L52.44,232.43L52.5,16L52.93,290.15L53.26,223.78L53.27,16L53.83,295.92L53.87,229.55L53.94,24.66L53.94,295.92L54.08,16L54.68,16L54.78,16L55.51,288.71L55.51,104.02L55.54,16L55.95,301.72L56.29,125.66L56.33,16L56.52,284.38L57.08,16L57.11,67.94L57.11,16L57.45,298.81L57.86,78.06L57.88,93.92L57.93,16L58.62,302.41L58.68,16L59.4,300.97L59.45,112.19L59.45,16L59.82,290.15L60.19,203.58L60.22,102.57L60.25,16L60.26,301.69L60.89,148.75L61.04,16L61.5,301.72L61.79,128.92L61.8,79.49L61.84,16L62.21,301.69L62.51,16L62.56,16L62.98,298.81L63.3,295.92L63.32,16L63.83,295.92L63.98,237.44L63.98,16L64.06,279.64L64.59,16L64.63,16L65.31,303.86L65.38,301.69L65.42,16L65.45,301.69L66.16,281.49L66.18,39.09L66.36,16L66.36,301.69L66.87,207.9L67.01,16L67.29,300.25L67.72,16L67.79,16L68.22,303.13L68.53,16L68.55,16L68.8,300.25L69.19,258.4L69.24,16L69.24,284.38L69.99,108.34L70.07,209.35L70.14,296.09L70.78,16L70.84,148.75L70.84,271.39L70.89,16L71.58,187.7L71.61,16L72.01,281.49L72.37,280.05L72.42,16L73.14,295.92L73.28,16L74.01,293.03L74.07,16L74.07,293.03L74.78,16L74.89,16L75.34,281.49L75.59,16L75.63,16L76.39,295.92L76.41,252.63L76.41,16L76.61,137.2L76.61,275.72L76.65,16L76.75,298.81L77.36,210.13L77.37,67.94L78.06,287.26L78.12,16L78.14,16L78.55,301.69L78.9,278.61L78.94,16L79.12,299.28L79.68,151.63L79.69,16L80.38,290.15L80.44,16L80.5,16L80.98,295.92L81.17,16L81.26,230.11L81.64,301.69L81.99,16L82.05,16L82.16,295.92L82.75,206.46L82.81,16L82.81,294.42L83.56,16L83.62,16L84.25,272.83L84.36,192.03L84.38,16L84.69,290.5L85.17,238.2L85.17,82.37L85.74,297.36L85.85,16L85.85,170.39L85.91,284.38L86.08,16L86.64,262.73L86.72,16L87.08,288.22L87.46,16L87.48,16L88.01,293.03L88.13,189.15L88.15,16L88.49,289.06L88.9,16L88.93,16L89.11,285.76L89.67,186.26L89.72,16L90.39,302.65L90.48,205.02L90.48,16L90.65,301.69L91.2,16L91.24,85.26L91.61,290.15L91.92,16L91.92,16L91.95,281.49L91.96,16L92.7,16L92.71,294.02L92.78,16L93.37,295.92L93.43,16L93.48,56.4L93.51,16L93.62,289.43L94.22,73.72L94.24,246.86L94.34,16L94.89,293.03L94.95,102.57L94.95,16L95.11,301.69L95.67,232.43L95.72,16L95.89,293.03L95.93,16L95.97,16L96.2,290.15L96.68,16L96.75,16L97.21,16L97.22,140.09L97.22,292.17L97.26,16L97.95,151.63L98,44.86L98.14,16L98.66,301.69L98.75,272.83L98.76,47.74L98.81,16L99.24,275.72L99.5,16L99.54,16L100.11,290.15L100.27,16L100.34,47.74L100.39,16L100.93,300.92L101.09,196.36L101.1,16L101.81,301.69L101.84,301.69L101.86,16L101.9,30.43L101.93,16L101.94,300.97L101.94,16L102.67,215.12L102.71,16L102.84,301.69L103.37,16L103.48,16L103.81,298.81L104.23,16L104.29,102.57L104.32,16L104.37,298.81L105.03,16L105.07,16L105.23,274.28L105.8,16L105.83,16L106.01,281.49L106.58,16L106.59,189.15L106.64,16L106.79,302.41L107.32,21.77L107.41,281.49L107.41,16L108.1,293.03L108.17,16L108.78,301.63L108.92,212.23L108.95,16L109.54,301.69L109.64,284.38L109.64,16L110.31,295.92L110.32,16L110.4,16L110.9,301.69L111.18,197.8L111.18,16L111.84,298.81L111.94,183.37L111.97,137.2L111.97,16L112.36,299.01L112.65,16L112.75,16L112.87,290.15L113.48,160.29L113.62,73.72L113.63,16L113.72,278.61L114.35,16L114.43,16L114.74,293.03L115.18,16L115.2,16L115.29,298.81L115.92,16L115.96,16L116.54,265.62L116.71,151.63L116.72,16L117.42,298.81L117.45,16L117.54,16L117.58,301.69L118.2,16L118.32,16L118.99,282.21L119.03,226.66L119.11,16L119.63,301.69L119.87,300.97L119.92,140.09L119.92,16L120.45,301.69L120.62,148.75L120.72,148.75L120.75,16L120.92,296.05L121.45,128.22L121.55,16L121.73,16L121.73,16L121.74,166.06L121.75,16L122.28,293.33L122.49,16L122.5,16L123.17,295.92L123.21,24.66L123.28,16L123.37,24.66L123.37,300.25L123.44,295.92L123.44,24.66L123.44,295.92L123.62,16L124.18,16L124.21,16L124.94,301.69L124.94,18.89L124.97,16L124.97,16L124.97,255.52L124.97,16L125.04,301.69L125.69,16L125.82,16L126.6,295.92L126.61,24.66L126.61,295.92L126.64,16L127.35,16L127.43,247.58L127.7,300.25L128.15,16L128.17,105.46L128.2,16L128.83,301.69L128.95,189.15L128.95,16L129.1,301.69L129.63,142.97L129.71,16L129.82,295.92L130.43,186.98L130.48,251.19L130.58,261.29L131.23,16L131.23,16L131.27,157.46L131.27,16L131.46,284.38L132.01,16L132.04,16L132.47,301.69L132.78,243.98L132.8,82.37L132.96,295.92L133.52,16L133.68,16L134.29,278.61L134.33,16L134.75,301.69L135.04,27.54L135.09,16L135.75,298.81L135.79,73.72L135.87,16L135.97,39.09L136.01,16L136.01,293.48L136.01,16L136.56,298.81L136.76,114.12L136.78,16L137.37,293.03L137.52,108.34L137.55,16L137.96,298.81L138.24,220.89L138.35,16L138.98,287.26L139.08,137.2L139.14,183.37L139.65,301.69L139.76,16L139.78,187.7L139.82,297.36L139.86,16L140.56,298.81L140.62,128.55L140.64,16L140.9,293.76L141.37,226.66L141.38,60.89L141.42,16L141.86,293.03L142.08,160.29L142.22,264.18L142.26,16L142.48,301.69L142.97,16L143.02,293.48L143.63,298.81L143.75,16L143.77,300.25L144.5,16L144.5,16L144.54,16L145,290.15L145.26,16L145.3,16L145.86,294L146.01,16L146.09,16L146.77,275.72L146.84,95.36L146.85,99.69L146.9,16L147.18,281.49L147.57,255.52L147.58,16L147.68,295.92L148.3,241.09L148.34,16L148.66,297.36L148.89,174.72L148.89,16L149.38,301.72L149.7,228.64L149.7,30.43L149.74,16L150.15,302.41L150.45,295.92L150.62,16L151.31,293.03L151.31,166.06L151.35,27.54L151.41,293.03L151.43,16L152.06,229.55L152.1,16L152.87,267.06L152.88,229.55L152.88,91.03L152.9,16L153.35,258.4L153.61,241.09L153.68,16L154.23,285.82L154.44,141.53L154.48,16L154.82,260.66L155.23,235.32L155.25,16L155.3,301.69L155.93,278.61L155.93,41.97L156.37,16L156.37,301.69L156.47,301.69L156.47,16L157.21,16L157.26,23.04L157.27,16L157.32,284.38L158,16L158.04,287.26L158.08,16L158.47,295.92L158.78,183.37L158.8,137.2L158.85,300.25L158.85,16L159.52,16L159.58,16L160,293.03L160.08,229.76L160.08,16L160.42,303.86L160.66,16L160.84,16L161.03,16L161.03,16L161.03,280.77L161.69,301.69L161.78,16L161.82,16L162.24,301.69L162.55,16L162.65,16L162.84,301.69L163.37,243.98L163.46,16L164.09,272.83L164.19,16L164.27,290.15L164.27,16L164.99,76.6L165.07,16L165.27,295.92L165.79,275L165.83,16L166.27,287.26L166.47,16L166.6,16L166.69,218L167.35,142.97L167.42,16L167.73,287.26L168.17,16L168.2,171.83L168.27,16L168.32,295.92L168.92,200.69L168.99,102.57L169.01,16L169.69,290.15L169.69,16L169.79,218L169.79,16L170.22,288.55L170.51,243.98L170.55,16L170.9,287.26L171.27,275.72L171.33,131.43L171.36,16L171.99,298.08L172,16L172.1,16L172.66,301.69L172.84,252.11L172.88,119.89L172.91,16L173.4,298.92L173.61,16L173.65,68.19L173.65,16L174.08,301.69L174.36,24.66L174.43,16L174.47,18.89L174.5,16L174.5,134.32L174.5,16L174.93,301.69L175.24,145.86L175.27,16L175.66,295.92L175.99,157.4L176.03,16L176.77,295.92L176.82,294.48L177.37,298.81L177.58,16L177.58,171.83L178.25,232.43L178.34,16L178.34,160.29L178.47,16L178.66,298.81L179.08,125.66L179.13,102.57L179.16,16L179.76,300.68L179.87,145.1L179.9,16L180.03,293.03L180.65,166.06L180.76,16L181.15,284.38L181.49,235.32L181.54,189.15L181.88,274.28L182.4,16L182.4,197.8L182.4,16L182.98,301.69L183.13,16L183.16,295.92L183.16,16L183.9,16L183.94,16L184.01,293.76L184.69,82.37L184.72,16L185.05,298.81L185.38,16L185.44,16L185.85,16L185.86,41.97L186.01,16L186.49,302.41L186.58,281.49L186.65,16L186.86,298.81L187.37,91.03L187.43,16L187.51,287.26L188.18,180.49L188.19,88.14L188.2,16L188.43,300.25L188.91,16L188.95,16L189.34,295.92L189.63,295.2L189.73,119.89L189.73,16L190.14,272.83L190.46,16L190.53,47.74L190.6,16L191.26,278.61L191.26,41.97L191.3,16L192.01,301.69L192.05,16L192.07,16L192.39,290.15L192.8,246.86L192.83,16L193.27,298.81L193.58,65.06L193.59,16L194.07,295.92L194.35,248.27L194.37,16L194.88,301.69L195.12,82.37L195.17,16L195.44,279.14L195.83,16L195.87,16L196.32,290.15L196.62,16L196.68,16L196.86,301.69L197.51,166.06L197.51,16L197.69,284.38L198.23,183.37L198.25,16L198.36,27.54L198.36,293.03L199,16L199,16L199.13,278.61L199.29,16L199.4,290.15L199.86,16L199.89,16L199.99,294.48L200.62,16L200.66,241.81L201.21,290.15L201.41,16L201.41,275.72L201.45,16L201.64,278.61L202.03,16L202.21,241.09L202.21,16L202.96,299.53L202.96,16L202.98,16L203.14,302.41L203.68,16L203.74,16L203.86,287.26L204.22,160.29L204.25,16L204.52,301.69L204.93,16L205.01,16L205.21,291.59L205.67,16L205.82,16L205.87,295.92L206.55,168.95L206.66,151.63L206.73,16L207.25,303.13L207.41,16L207.48,171.83L207.48,16L207.84,300.25L208.06,16L208.25,16L208.55,16L208.56,218L208.59,16L208.77,303.13L209.31,16L209.34,16L209.85,284.38L209.91,16L209.95,16L210.55,287.26L210.65,228.51L210.75,272.51L210.77,16L210.9,295.92L211.5,16L211.52,220.89L211.63,16L212.19,295.92L212.27,174.72L212.32,16L212.33,272.83L212.87,16L213.06,16L213.57,295.92L213.81,39.09L213.84,16L213.9,293.03L214.54,281.49L214.54,39.09L215.03,298.81L215.08,16L215.19,290.15L215.26,16L215.94,33.31L215.95,33.31L216.02,16L216.11,295.37L216.69,16L216.71,16L216.72,293.03L217.27,226.66L217.28,16L217.55,295.2L218.06,235.32L218.06,194.92L218.11,16L218.44,295.92L218.68,16L218.76,16L218.85,298.81L219.5,16L219.53,33.31L219.53,16L220.25,298.81L220.26,171.83L220.32,16L221,290.15L221.06,274.28L221.1,137.2L221.1,16L221.64,272.83L221.84,76.6L221.86,16L222.47,293.03L222.61,93.92L222.63,16L223.26,278.81L223.33,16L223.41,258.4L223.41,16L224.1,293.03L224.16,16L224.17,16L224.34,16L224.34,281.49L224.54,296.41L225.09,16L225.1,258.4L225.17,16L225.41,295.92L225.79,206.46L225.87,16L225.89,295.92L226.57,16L226.64,16L227.08,287.26L227.35,117L227.42,16L228.08,287.26L228.08,215.12L228.23,16L228.27,300.25L228.53,100.69L228.59,16L229.01,298.81L229.31,16L229.39,16L229.73,296.64L229.95,16L230.04,16L230.18,293.03L230.78,16L230.81,16L231.09,294.48L231.5,258.4L231.52,16L232.21,271.87L232.3,16L232.8,287.26L233.03,16L233.07,298.81L233.07,16L233.81,67.94L233.84,16L234.04,287.26L234.59,16L234.6,16L234.79,269.95L235.25,91.03L235.37,16L235.7,291.59L236.09,243.98L236.11,16L236.32,298.08L236.86,16L236.87,16L236.9,293.03L237.58,16L237.71,16L237.85,278.61L238.46,16L238.5,262.73L238.96,296.21L239.28,16L239.3,117L239.31,16L240.03,302.98L240.03,22.71L240.06,137.2L240.47,301.69L240.6,16L240.62,33.31L240.62,287.26L241.36,16L241.36,298.81L241.37,49.95L241.41,16L241.84,298.81L242.11,181.45L242.18,16L242.86,288.03L242.93,47.74L242.95,16L243.1,301.37L243.7,93.92L243.72,226.66L244.36,301.69L244.42,16L244.46,85.26L244.52,235.32L244.96,295.92L245.28,16L245.37,108.34L245.47,16L245.99,246.86L246.12,127.99L246.14,16L246.67,249.75L246.87,142.97L246.9,241.09L246.94,285.82L247.01,16L247.61,275.72L247.66,79.49L247.68,16L247.89,303.13L248.33,264.18L248.47,218L248.47,16L249.22,295.2L249.22,188.25L249.26,166.06L249.58,300.97L250.02,16L250.04,39.09L250.07,16L250.79,301.69L250.79,16L250.8,114.12L250.8,280.05L250.89,16L251.54,70.83L251.56,249.75L251.63,301.69L252.31,16L252.34,16L252.75,298.92L253.08,245.42L253.1,134.32L253.12,16L253.39,296.17L253.83,16L253.86,16L254.42,281.49L254.51,16L254.67,16L254.84,298.81L255.39,166.06L255.43,16L255.9,287.26L256.15,16L256.22,30.43L256.22,16L256.42,293.03L256.96,16L256.98,16L257.45,294.32L257.73,16L257.77,16L258.2,284.38L258.48,269.95L258.65,16L259.34,298.81L259.38,16L259.93,293.03L259.97,16L260.28,295.92L260.69,238.2L260.74,151.63L260.84,16L261.03,290.15L261.41,16L261.54,53.52L261.54,16L261.88,294.48L262.25,16L262.37,238.93L263.06,291.59L263.14,16L263.17,16L263.64,294.48L263.83,215.12L263.93,73.72L263.93,16L264.23,272.83L264.68,58.63L264.69,88.14L264.77,298.81L265.45,16L265.45,16L265.62,16L266.33,295.92L266.36,16L266.41,16L267.13,299.61L267.17,154.52L267.17,32.21L267.21,16L267.85,287.26L267.89,59.29L267.92,70.83L267.92,16L268.33,297.36L268.66,142.97L268.68,272.83L268.85,284.38L269.38,16L269.44,85.26L269.44,235.32L269.5,295.94L270.24,16L270.27,16L270.32,272.9L271.02,50.63L271.1,16L271.68,295.92L271.84,16L271.86,16L272.09,287.98L272.55,269.23L272.6,16L272.61,287.26L273.35,243.98L273.37,41.97L273.42,16L273.89,288.71L274.11,194.92L274.14,16L274.91,277.16L274.98,102.57L275.24,300.25L275.7,16L275.79,249.75L275.81,16L276.01,291.59L276.54,16L276.56,16L277.14,297.36L277.31,290.15L277.32,16L277.52,290.15L278.06,232.43L278.08,88.14L278.1,16L278.68,268.51L278.81,188.8L278.85,16L279.34,292.83L279.54,113.39L279.64,16L280.16,293.03L280.39,233.88L280.49,16L280.93,301.69L281.23,16L281.28,16L281.84,301.69L282,16L282.03,16L282.07,287.26L282.77,96.8L282.78,16L283.51,269.95L283.53,98.45L283.54,36.2L283.55,16L283.95,295.92L284.29,151.63L284.3,168.95L284.88,291.59L285.04,16L285.07,137.2L285.16,16L285.23,298.81L285.67,16L285.77,16L285.91,295.92L286.59,243.98L286.59,16L286.78,284.38L287.31,105.46L287.34,16L287.59,16L287.59,16L287.6,170.29L287.74,303.13L288.36,16L288.36,287.26L289.06,16L289.15,275.72L289.21,16L289.36,301.69L289.89,111.23L289.91,21.77L290.06,16L290.14,298.81L290.61,16L290.69,160.29L290.72,16L291.3,303.86L291.43,62.17L291.46,16L292.04,298.81L292.29,241.09L292.32,79.49L292.33,16L292.74,295.92L293.07,233.88L293.18,16L293.5,295.92L293.96,145.86L294.02,140.09L294.02,16L294.45,300.97L294.76,16L294.78,16L295.54,295.92L295.54,24.66L295.54,16L296.17,301.69L296.27,16L296.3,223.78L296.34,16L296.98,293.03L297.06,258.4L297.12,16L297.5,293.03L297.71,16L297.89,160.29L297.89,16L298.23,298.92L298.64,129.44L298.69,67.94L298.73,16L299.22,297.36L299.44,16L299.51,194.92L299.51,16L300.24,278.61L300.26,16L300.31,16L300.34,286.54L301.04,16L301.08,16L301.74,297.36L301.82,166.06L301.83,16L302.07,298.49L302.57,264.18L302.66,56.4L302.69,298.92L302.78,16L303.37,255.52L303.42,62.17L303.46,16L303.76,300.33L304.16,16L304.24,189.15L304.25,16L304.63,277.16L304.81,16L305,16L305.18,73.72L305.29,16L305.29,275.72L305.48,16L305.62,294.48L306,98.24L306.05,16L306.51,297.36L306.72,284.77L306.79,36.2L306.8,16L306.96,295.92L307.54,16L307.58,287.26L308.29,16L308.29,160.29L308.33,151.63L308.33,281.49L308.38,16L309.07,16L309.11,16L309.16,20.06L309.17,208.38L309.17,16L309.7,294.63L309.89,23.59L309.96,122.77L310.62,293.03L310.66,16L310.73,243.82L310.75,16L310.76,298.92L311.44,200.69L311.51,16L311.84,289.43L312.25,16L312.29,16L312.5,273.66L313.03,16L313.06,16L313.29,295.92L313.81,16L313.86,16L314.34,298.81L314.61,284.38L314.65,197.8L315.31,293.76L315.38,16L315.38,16L315.44,16L316.12,296.17L316.18,24.66L316.2,252.63L316.23,16L316.62,294.48L316.91,215.12L316.98,105.46L316.98,16L317.3,290.15L317.72,33.31L317.74,16L317.97,294.48L318.43,16L318.51,16L318.95,287.26L318.96,79.49L318.96,16L319.6,285.7L319.71,16L319.72,16L320.28,295.08L320.47,16L320.48,16L320.9,298.81L321.22,246.14L321.26,249.75L321.28,16L321.37,288.71L322,16L322.03,160.29L322.03,16L322.44,284.38L322.75,215.12L322.84,215.12L322.87,16L323.3,300.97L323.58,16L323.63,16L323.88,298.81L324.21,16L324.26,16L324.44,290.15L324.94,16L325.08,16L325.1,295.34L325.3,223.78L325.4,16L325.91,293.03L326.15,269.95L326.15,67.94L326.15,295.92L326.23,16L326.9,16L326.92,16L327.05,284.38L327.69,272.83L327.69,47.74L328.23,16L328.27,287.26L328.29,194.92L328.34,254.08L328.34,16L328.69,301.69L329.08,16L329.13,16L329.21,293.48L329.84,262.65L329.97,16L330.23,298.81L330.71,16L330.81,275.72L330.81,16L331.5,290.84L331.5,254.08L331.58,16L332.07,303.13L332.32,255.52L332.37,16L332.99,293.03L333.11,16L333.16,16L333.33,27.54L333.33,293.03L333.46,295.92L333.99,16L334.04,56.4L334.15,16L334.66,295.92L334.66,59.29L334.69,16L334.86,301.69L335.46,248.3L335.47,16L335.97,293.03L336.19,243.98L336.19,76.6L336.46,300.45L336.8,16L336.8,125.66L336.84,246.86L337.15,301.69L337.58,16L337.62,295.92L337.96,301.69L338.36,16L338.36,16L338.43,16L339.03,290.15L339.17,16L339.19,71.95L339.43,16L339.86,287.26L339.96,275.72L340,16L340.35,285.61L340.76,223.78L340.78,16L341.04,277.16L341.52,16L341.54,16L342.09,290.15L342.24,16L342.32,142.97L342.42,16L342.84,301.69L342.89,16L342.98,18.89L342.98,301.69L342.98,16L343.68,16L343.74,295.92L344.49,16L344.51,28.19L344.61,16L344.99,295.92L345.26,269.95L345.3,232.43L345.31,16L346.04,292.07L346.07,122.77L346.69,298.92L346.8,16L346.82,65.06L346.82,284.38L347,16L347.56,98.45L347.58,16L347.73,295.92L348.23,16L348.26,16L348.91,295.92L348.95,16L349.19,286.54L349.69,16L349.74,246.14L350.15,293.03L350.5,16L350.5,16L350.56,16L351.13,298.57L351.3,229.55L351.35,16L351.93,295.92L352.04,125.66L352.14,33.31L352.21,271.38L352.75,16L352.8,166.06L352.8,267.06L353.02,301.69L353.56,16L353.56,267.06L353.63,16L353.72,293.03L354.31,65.06L354.33,65.06L354.36,267.06L354.97,16L355,235.32L355.05,16L355.33,295.92L355.75,16L355.78,16L355.93,16L355.95,278.61L356.63,16L356.63,160.29L356.71,76.6L356.73,16L356.9,290.15L357.46,53.52L357.52,16L357.88,298.81L358.26,106.7L358.29,16L359.02,298.81L359.04,21.77L359.1,16L359.45,298.81L359.85,200.99L359.87,16L360.09,278.61L360.12,191.89L360.13,16L360.13,298.81L360.87,16L360.95,16L361.36,295.92L361.6,16L361.64,16L362.2,295.92L362.39,16L362.43,114.12L362.44,16L363.11,300.25L363.17,161.04L363.19,16L363.21,293.03L363.93,16L363.95,16L363.99,301.69L364.7,251.19L364.72,108.34L364.72,16L365.21,301.69L365.47,281.49L365.49,39.09L365.56,16L365.56,301.69L365.56,16L366.28,16L366.32,16L366.53,301.69L367.07,16L367.1,126.41L367.26,293.03L367.85,16L367.85,137.2L367.85,16L367.85,300.25L368.58,16L368.61,16L369.15,301.69L369.32,73.72L369.33,21.77L369.39,16L370.02,293.03L370.06,16L370.12,196.36L370.17,293.03L370.88,16L370.88,264.18L370.88,16L370.89,272.83L371.61,160.29L371.68,16L372.21,301.69L372.38,117L372.49,16L372.57,281.49L373.23,67.94L373.26,16L373.59,295.92L374.01,16L374.05,16L374.54,294.48L374.7,267.78L374.72,16L374.77,298.81L375.46,16L375.55,206.46L376.27,294.48L376.3,16L376.3,16L376.32,264.18L376.38,16L376.39,287.26L376.99,16L377.13,166.06L377.13,16L377.83,275.72L377.88,16L377.96,16L378.15,301.69L378.7,82.37L378.75,16L379.01,290.15L379.46,207.9L379.52,16L380.22,294.48L380.27,16L380.3,246.86L380.3,16L380.88,284.38L381.05,16L381.13,16L381.14,299.64L381.78,264.18L381.89,264.18L381.91,16L382.58,47.08L382.67,274.28L382.68,16L382.95,298.81L383.42,88.14L383.48,16L383.59,36.2L383.66,16L383.66,209.35L383.71,287.26L384.42,16L384.47,249.75L384.62,16L384.96,298.81L385.13,269.95L385.15,16L385.55,287.26L385.87,16L385.92,16L386.7,275.72L386.7,73.72L386.71,275.72L386.71,16L387.39,267.06L387.47,16L388.23,275.72L388.3,16L388.81,298.81L389.06,160.29L389.06,16L389.17,47.74L389.17,272.83L389.47,281.49L389.6,16L389.65,287.26L389.69,16L389.76,295.92L390.4,59.29L390.43,16L390.84,303.86L391.18,16L391.19,16L391.81,275.72L391.93,16L391.99,16L392.74,287.26L392.74,117.85L392.78,235.32L392.82,16L393.38,293.03L393.53,267.06L393.54,293.03L393.56,16L394.29,95.51L394.37,16L394.53,16L394.53,160.29L394.79,295.92L395.26,16L395.27,82.37L395.27,238.2L395.27,16L395.56,275.72L395.99,62.17L396.11,16L396.2,21.77L396.2,298.81L396.88,16L396.95,41.97L396.96,278.61L397.46,298.81L397.72,16L397.72,16L397.76,16L398.06,296.9L398.49,16L398.57,226.66L399.27,16L399.28,301.69L399.32,40.05L399.32,301.69L399.48,303.13L400.06,16L400.1,16L400.22,287.26L400.85,209.35L400.86,232.43L400.86,16L401.02,298.81L401.58,252.63L401.66,16L401.8,301.72L402.2,236.76L402.25,16L402.45,298.81L402.82,16L402.84,16L402.91,298.81L403.58,243.98L403.62,16L403.93,302.72L404.34,16L404.39,16L404.54,298.81L405,160.29L405,16L405.29,290.84L405.82,160.29L405.83,16L406.5,293.03L406.58,16L406.61,16L407.14,301.69L407.29,281.49L407.3,16L407.63,16L407.63,137.2L407.65,16L407.9,301.69L408.31,174.72L408.4,16L408.61,285.82L408.98,16L409.06,16L409.27,16L409.27,102.57L409.27,16L409.74,295.92L410,67.94L410.05,16L410.53,303.13L410.8,191.66L410.83,278.61L410.92,298.81L410.98,16L411.58,16L411.6,16L412.34,299.77L412.35,16L412.36,21.77L412.36,298.81L412.4,16L413.08,16L413.14,16L413.53,291.23L413.87,16L413.94,16L414.18,301.69L414.67,229.55L414.7,91.03L414.74,16L415.25,301.69L415.45,249.75L415.45,16L415.73,295.96L416.17,65.06L416.22,16L416.91,288.84L416.94,287.26L417.08,16L417.7,298.81L417.82,241.09L417.84,16L418.54,288.24L418.58,16L418.61,16L418.95,289.43L419.26,264.18L419.42,16L419.5,27.54L419.5,293.03L419.79,303.01L420.26,16L420.26,16L420.32,16L420.6,300.97L421.12,298.5L421.12,16L421.83,297.36L421.88,235.32L421.92,232.43L421.92,16L422.39,301.69L422.67,293.03L422.68,16L423.34,261.29L423.41,16L423.46,16L424.11,296.64L424.2,16L424.25,16L424.98,290.15L425.01,16L425.5,298.81L425.55,16L425.78,290.15L426.31,160.29L426.31,16L426.82,298.81L427.04,290.15L427.11,16L427.5,298.81L427.86,16L427.87,16L428.44,302.59L428.57,16L428.59,16L428.6,287.26L429.3,16L429.37,16L429.76,293.03L430.11,16L430.13,183.37L430.2,16L430.44,293.03L430.87,122.77L430.92,197.8L430.92,16L431.56,300.25L431.67,298.81L431.68,144.26L431.73,301.69L432.42,16L432.42,16L432.43,148.75L432.51,16L432.89,260.57L432.95,16L432.96,293.48L433.7,16L433.75,16L433.76,303.13L434.49,16L434.53,16L434.81,298.81L435.26,16L435.28,16L435.93,281.49L436.03,16L436.06,91.03L436.08,16L436.14,293.03L436.8,232.43L436.91,16L437.35,293.03L437.66,223.78L437.68,96.8L437.77,302L438.36,16L438.37,127.19L438.51,166.91L438.51,16L439.21,303.13L439.24,111.23L439.28,235.71L439.49,297.36L440.01,16L440.01,16L440.04,243.98L440.04,298.81L440.09,16L440.74,16L440.8,68.75L440.85,16L441.09,293.03L441.51,114.12L441.55,16L441.65,287.26L442.3,258.4L442.31,218L442.41,16L442.81,301.69L443.04,197.8L443.08,163.17L443.14,16L443.23,293.03L443.81,16L443.84,16L444.36,303.13L444.58,89.59L444.65,280.05L444.65,16L444.72,289.19L445.38,135.83L445.43,225.22L445.55,16L446.11,291.59L446.11,67.94L446.13,16L446.57,284.38L446.87,16L446.94,16L447.09,298.44L447.61,293.03L447.7,16L447.78,281.49L448.04,16L448.11,16L448.58,298.08L448.89,76.6L448.91,16L449.17,287.26L449.62,16L449.67,16L449.9,298.81L450.39,44.86L450.47,275.72L451.01,295.2L451.23,16L451.24,254.02L451.49,295.92L451.86,16L451.94,215.78L452.19,179.05L452.25,16L452.9,301.69L452.93,21.77L452.97,16L453,268.51L453.71,160.29L453.81,16L454.17,279.18L454.55,16L454.6,16L454.78,16L454.8,88.14L454.8,297.36L454.96,16L455.51,137.2L455.59,183.37L456.14,298.81L456.26,16L456.26,16L456.29,298.81L456.29,16L457.04,62.17L457.05,301.69L457.15,16L457.8,157.57L457.81,16L457.89,278.61L458.49,215.12L458.53,16L458.55,301.72L459.25,65.06L459.33,16L459.49,16L459.49,160.29L459.87,290.15L460.24,16L460.25,36.2L460.27,284.38L460.31,289.43L460.98,16L460.98,76.6L461.05,16L461.32,301.69L461.79,16L461.81,206.46L462.16,298.81L462.6,16L462.62,16L463.13,303.86L463.35,288.71L463.38,246.86L463.39,16L463.55,298.81L464.08,16L464.15,16L464.36,301.69L464.93,295.92L464.96,166.06L465.32,295.92L465.72,16L465.72,16L465.79,43.93L465.79,16L466.51,301.69L466.54,67.94L466.58,16L467.19,301.69L467.32,16L467.36,16L468.09,294.48L468.09,36.2L468.16,284.38L468.16,16L468.6,295.92L468.89,16L468.98,145.86L468.98,16L469.65,293.03L469.68,16L469.75,16L469.93,293.03L470.5,16L470.55,125.66L470.61,16L471,284.38L471.2,16L471.24,16L471.32,303.13L471.99,258.4L472.01,16L472.38,293.03L472.76,192.03L472.8,16L472.82,301.19L473.55,238.2L473.56,27.54L473.66,16L473.88,298.81L474.31,200.69L474.32,16L474.59,300.25L475.06,212.23L475.07,16L475.38,298.81L475.41,273.56L475.43,16L475.85,298.81L476,203.58L476.01,16L476.3,275.72L476.45,243.98L476.54,16L477.17,293.03L477.27,16L477.31,16L477.75,293.03L478.07,200.69L478.11,16L478.74,293.03L478.88,160.29L478.88,16L479.43,296.17L479.63,28.99L479.65,16L479.67,298.08L480.3,62.17L480.41,16L481.01,290.15L481.16,16L481.25,16L481.94,300.25L481.99,229.55L482.03,33.31L482.03,16L482.1,301.69L482.76,47.74L482.8,16L483.19,301.69L483.53,154.52L483.53,16L483.57,297.36L484.28,16L484.3,16L485.04,296.63L485.1,88.14L485.36,301.72L485.78,16L485.78,16L485.78,293.03L486.25,301.72L486.55,16L486.55,16L486.57,16L487.14,301.69L487.3,128.55L487.31,16L487.89,301.69L488.01,16L488.07,16L488.78,298.81L488.82,16L488.87,16L489.62,301.69L489.62,18.89L489.65,64.1L489.66,16L489.69,30.43L489.69,300.73L490.35,16L490.36,301.69L491.1,16L491.1,219.45L491.2,16L491.61,301.69L491.97,235.32L491.98,16L492.19,290.15L492.76,264.18L492.76,16L493.18,287.26L493.52,242.53L493.52,16L494.01,281.49L494.19,16L494.29,16L494.86,298.81L495.03,254.08L495.09,16L495.39,298.81L495.82,59.29L495.85,16L496.23,301.69L496.56,102.57L496.61,16L496.79,293.03L497.29,16L497.37,16L497.5,293.03L498.06,134.32L498.1,16L498.47,284.38L498.87,162.51L498.92,73.72L499,16L499.59,303.86L499.68,267.06L499.72,293.03L499.72,16L500.17,297.36L500.46,16L500.49,119.89L500.49,16L500.9,298.81L501.24,206.46L501.26,16L501.86,297.36L502,203.58L502.11,16L502.11,295.92L502.85,16L502.88,16L503.45,281.49L503.63,16L503.65,16L503.85,299.56L504.39,16L504.42,215.12L504.47,16L504.61,295.92L505.16,62.17L505.18,16L505.22,290.15L505.92,16L505.97,16L505.97,290.15L506.71,16L506.73,16L506.81,304L507.47,142.97L507.53,177.6L507.53,16L507.72,297.36L508.22,103.83L508.42,16L508.75,301.69L508.95,226.66L509,93.92L509.53,284.59L509.73,16L509.73,16L509.76,293.03L509.76,16L510.5,295.2L510.5,26.56L510.52,16L510.59,284.38L511,272.83" style="vector-effect: non-scaling-stroke; fill: none; stroke: rgb(99, 110, 250); stroke-opacity: 1; stroke-width: 2px; opacity: 1;"/></g><g class="points"/><g class="text"/></g></g></g><g class="overplot"/><path class="xlines-above crisp" d="M0,0" style="fill: none;"/><path class="ylines-above crisp" d="M0,0" style="fill: none;"/><g class="overlines-above"/><g class="xaxislayer-above"><g class="xtick"><text text-anchor="middle" x="0" y="436" transform="translate(198.01,0)" style="font-family: 'Times New Roman'; font-size: 15px; fill: rgb(13, 13, 13); fill-opacity: 1; white-space: pre; opacity: 1;">1.61252×10​<tspan style="font-size:70%" dy="-0.6em">18</tspan><tspan dy="0.42em">​</tspan></text></g><g class="xtick"><text text-anchor="middle" x="0" y="436" style="font-family: 'Times New Roman'; font-size: 15px; fill: rgb(13, 13, 13); fill-opacity: 1; white-space: pre; opacity: 1;" transform="translate(299.45,0)">1.612525×10​<tspan style="font-size:70%" dy="-0.6em">18</tspan><tspan dy="0.42em">​</tspan></text></g><g class="xtick"><text text-anchor="middle" x="0" y="436" style="font-family: 'Times New Roman'; font-size: 15px; fill: rgb(13, 13, 13); fill-opacity: 1; white-space: pre; opacity: 1;" transform="translate(400.9,0)">1.61253×10​<tspan style="font-size:70%" dy="-0.6em">18</tspan><tspan dy="0.42em">​</tspan></text></g><g class="xtick"><text text-anchor="middle" x="0" y="436" style="font-family: 'Times New Roman'; font-size: 15px; fill: rgb(13, 13, 13); fill-opacity: 1; white-space: pre; opacity: 1;" transform="translate(502.34,0)">1.612535×10​<tspan style="font-size:70%" dy="-0.6em">18</tspan><tspan dy="0.42em">​</tspan></text></g><g class="xtick"><text text-anchor="middle" x="0" y="436" style="font-family: 'Times New Roman'; font-size: 15px; fill: rgb(13, 13, 13); fill-opacity: 1; white-space: pre; opacity: 1;" transform="translate(603.78,0)">1.61254×10​<tspan style="font-size:70%" dy="-0.6em">18</tspan><tspan dy="0.42em">​</tspan></text></g></g><g class="yaxislayer-above"><g class="ytick"><text text-anchor="end" x="108" y="12.25" transform="translate(0,404.58)" style="font-family: 'Times New Roman'; font-size: 35px; fill: rgb(13, 13, 13); fill-opacity: 1; white-space: pre; opacity: 1;">0</text></g><g class="ytick"><text text-anchor="end" x="108" y="12.25" style="font-family: 'Times New Roman'; font-size: 35px; fill: rgb(13, 13, 13); fill-opacity: 1; white-space: pre; opacity: 1;" transform="translate(0,346.86)">20</text></g><g class="ytick"><text text-anchor="end" x="108" y="12.25" style="font-family: 'Times New Roman'; font-size: 35px; fill: rgb(13, 13, 13); fill-opacity: 1; white-space: pre; opacity: 1;" transform="translate(0,289.15)">40</text></g><g class="ytick"><text text-anchor="end" x="108" y="12.25" style="font-family: 'Times New Roman'; font-size: 35px; fill: rgb(13, 13, 13); fill-opacity: 1; white-space: pre; opacity: 1;" transform="translate(0,231.43)">60</text></g><g class="ytick"><text text-anchor="end" x="108" y="12.25" style="font-family: 'Times New Roman'; font-size: 35px; fill: rgb(13, 13, 13); fill-opacity: 1; white-space: pre; opacity: 1;" transform="translate(0,173.72)">80</text></g><g class="ytick"><text text-anchor="end" x="108" y="12.25" style="font-family: 'Times New Roman'; font-size: 35px; fill: rgb(13, 13, 13); fill-opacity: 1; white-space: pre; opacity: 1;" transform="translate(0,116)">100</text></g></g><g class="overaxes-above"/></g></g><g class="polarlayer"/><g class="smithlayer"/><g class="ternarylayer"/><g class="geolayer"/><g class="funnelarealayer"/><g class="pielayer"/><g class="iciclelayer"/><g class="treemaplayer"/><g class="sunburstlayer"/><g class="glimages"/><defs id="topdefs-4508b2"><g class="clips"/></defs><g class="layer-above"><g class="imagelayer"/><g class="shapelayer"/></g><g class="infolayer"><g class="g-gtitle"/><g class="g-xtitle"><text class="xtitle" x="364.5" y="463.8" text-anchor="middle" style="font-family: 'Open Sans', verdana, arial, sans-serif; font-size: 14px; fill: rgb(42, 63, 95); opacity: 1; font-weight: normal; white-space: pre;">Time Steps (ns)</text></g><g class="g-ytitle" transform="translate(23.5,0)"><text class="ytitle" transform="rotate(-90,12.5,260)" x="12.5" y="260" text-anchor="middle" style="font-family: 'Times New Roman'; font-size: 40px; fill: rgb(13, 13, 13); opacity: 1; font-weight: normal; white-space: pre;">Fill rate (in %)</text></g></g></svg>