<svg class="main-svg" xmlns="http://www.w3.org/2000/svg" xmlns:xlink="http://www.w3.org/1999/xlink" width="700" height="500" style="" viewBox="0 0 700 500"><rect x="0" y="0" width="700" height="500" style="fill: rgb(255, 255, 255); fill-opacity: 1;"/><defs id="defs-fb63f5"><g class="clips"><clipPath id="clipfb63f5xyplot" class="plotclip"><rect width="494" height="320"/></clipPath><clipPath class="axesclip" id="clipfb63f5x"><rect x="126" y="0" width="494" height="500"/></clipPath><clipPath class="axesclip" id="clipfb63f5y"><rect x="0" y="100" width="700" height="320"/></clipPath><clipPath class="axesclip" id="clipfb63f5xy"><rect x="126" y="100" width="494" height="320"/></clipPath></g><g class="gradients"/><g class="patterns"/></defs><g class="bglayer"><rect class="bg" x="126" y="100" width="494" height="320" style="fill: rgb(229, 236, 246); fill-opacity: 1; stroke-width: 0;"/></g><g class="layer-below"><g class="imagelayer"/><g class="shapelayer"/></g><g class="cartesianlayer"><g class="subplot xy"><g class="layer-subplot"><g class="shapelayer"/><g class="imagelayer"/></g><g class="minor-gridlayer"><g class="x"/><g class="y"/></g><g class="gridlayer"><g class="x"><path class="xgrid crisp" transform="translate(212.22,0)" d="M0,100v320" style="stroke: rgb(255, 255, 255); stroke-opacity: 1; stroke-width: 1px;"/><path class="xgrid crisp" transform="translate(310.25,0)" d="M0,100v320" style="stroke: rgb(255, 255, 255); stroke-opacity: 1; stroke-width: 1px;"/><path class="xgrid crisp" transform="translate(408.28,0)" d="M0,100v320" style="stroke: rgb(255, 255, 255); stroke-opacity: 1; stroke-width: 1px;"/><path class="xgrid crisp" transform="translate(506.3,0)" d="M0,100v320" style="stroke: rgb(255, 255, 255); stroke-opacity: 1; stroke-width: 1px;"/><path class="xgrid crisp" transform="translate(604.3299999999999,0)" d="M0,100v320" style="stroke: rgb(255, 255, 255); stroke-opacity: 1; stroke-width: 1px;"/></g><g class="y"><path class="ygrid crisp" transform="translate(0,357.44)" d="M126,0h494" style="stroke: rgb(255, 255, 255); stroke-opacity: 1; stroke-width: 1px;"/><path class="ygrid crisp" transform="translate(0,310.87)" d="M126,0h494" style="stroke: rgb(255, 255, 255); stroke-opacity: 1; stroke-width: 1px;"/><path class="ygrid crisp" transform="translate(0,264.31)" d="M126,0h494" style="stroke: rgb(255, 255, 255); stroke-opacity: 1; stroke-width: 1px;"/><path class="ygrid crisp" transform="translate(0,217.75)" d="M126,0h494" style="stroke: rgb(255, 255, 255); stroke-opacity: 1; stroke-width: 1px;"/><path class="ygrid crisp" transform="translate(0,171.18)" d="M126,0h494" style="stroke: rgb(255, 255, 255); stroke-opacity: 1; stroke-width: 1px;"/><path class="ygrid crisp" transform="translate(0,124.62)" d="M126,0h494" style="stroke: rgb(255, 255, 255); stroke-opacity: 1; stroke-width: 1px;"/></g></g><g class="zerolinelayer"><path class="yzl zl crisp" transform="translate(0,404)" d="M126,0h494" style="stroke: rgb(255, 255, 255); stroke-opacity: 1; stroke-width: 2px;"/></g><path class="xlines-below"/><path class="ylines-below"/><g class="overlines-below"/><g class="xaxislayer-below"/><g class="yaxislayer-below"/><g class="overaxes-below"/><g class="plot" transform="translate(126,100)" clip-path="url(#clipfb63f5xyplot)"><g class="scatterlayer mlayer"><g class="trace scatter traceafaf39" style="stroke-miterlimit: 2; opacity: 1;"><g class="fills"/><g class="errorbars"/><g class="lines"><path class="js-line" d="M0,304L0.74,302.8L0.79,303.96L0.85,303.85L1.09,301.47L1.53,304L1.69,304L1.75,300.41L2.39,303.89L2.49,303.83L2.78,303.21L2.89,304L2.93,303.52L2.95,302.67L3.53,301.63L3.74,304L3.78,301.94L3.78,304L4,294.95L4.46,300.23L4.53,304L4.61,303.69L4.63,304L4.63,293.33L5.41,304L5.41,304L5.41,300.48L5.66,299.79L6.16,304L6.25,303.96L6.29,304L6.97,299.08L6.97,304L7.14,302.38L7.72,304L7.73,304L8.06,301.66L8.06,301.85L8.2,303.69L8.28,304L8.92,302.82L8.94,303.96L9.06,304L9.61,299.65L9.73,303.67L9.74,304L10.29,301.91L10.49,304L10.58,304L11.14,294.36L11.33,304L11.36,304L11.94,302.48L12,304L12,299.36L12.71,304L12.76,303.44L12.78,301.85L12.78,304L13.35,300.14L13.53,303.57L13.57,303.48L13.72,297.61L14.06,304L14.06,300.54L14.13,294.78L14.13,304L14.86,304L14.91,303.83L14.98,304L15.27,301.11L15.64,304L15.73,304L16.23,301.74L16.31,304L16.38,301.59L16.95,303.71L17.1,304L17.44,292.87L17.84,302.88L17.89,302.33L17.99,304L18.32,287.09L18.64,304L18.75,303.74L19.3,302.14L19.52,304L19.52,303.76L19.86,300.65L19.87,304L19.87,300.4L20.66,304L20.66,303.99L20.73,304L21.39,302.3L21.46,304L21.52,304L21.67,304L21.67,301.37L21.74,304L22.19,300.15L22.34,303.85L22.44,303.77L22.66,303.31L23.06,304L23.11,303.28L23.11,304L23.77,298.78L23.85,304L23.91,303.93L24.04,304L24.28,301.92L24.61,304L24.68,304L25.16,301.62L25.42,304L25.49,304L25.97,297.84L26.14,303.99L26.27,304L26.78,300.77L27.02,304L27.06,303.74L27.27,299.32L27.77,304L27.77,303.89L27.78,301.8L28.45,304L28.45,303.94L28.57,302.79L28.57,304L29.1,281.59L29.32,304L29.33,303.4L29.33,304L29.35,280.98L30.05,303.89L30.09,304L30.22,303.75L30.22,304L30.24,301.17L30.24,304L30.99,303.99L31.06,304L31.23,304L31.23,302.55L31.39,297.56L31.89,304L31.89,300.92L32,304L32.62,303.95L32.66,303.9L32.67,304L32.92,301.46L33.38,303.59L33.47,303.79L33.86,300.35L33.97,304L33.97,269.88L34.68,304L34.93,304L35.68,302.39L35.68,304L35.7,304L36.28,299.15L36.42,303.87L36.49,304L36.89,300.19L36.91,303.79L36.96,304L37.33,302.97L37.34,304L37.34,299.22L37.34,304L38.09,304L38.16,304L38.57,299.64L38.89,303.58L38.95,304L39.02,292.36L39.68,302.66L39.84,303.8L39.84,304L40,301.51L40.59,304L40.63,303.84L40.63,304L40.77,299.73L41.38,304L41.41,304L41.94,299.6L42.16,303.54L42.17,304L42.87,299.31L42.96,303.79L43.02,304L43.3,301.87L43.38,304L43.41,215.74L43.41,304L44.15,303.32L44.17,303.41L44.17,304L44.29,292.92L44.89,304L45.01,303.65L45.01,304L45.6,301.24L45.73,303.91L45.78,302.93L45.78,304L45.93,300.15L46.52,303.79L46.54,303.96L46.56,298.63L46.57,304L47.28,303.84L47.29,304L47.91,301.48L47.91,303.99L48.07,303.99L48.09,302.35L48.21,304L48.81,298.58L48.82,304L48.92,304L49.24,289.15L49.56,304L49.69,304L50,300.73L50.41,304L50.51,304L51.26,299.29L51.26,304L51.29,303.84L51.52,303.33L51.6,304L51.61,303.91L51.64,293.91L52.44,304L52.45,303.88L52.57,303.13L52.58,304L52.58,302.78L52.6,304L52.68,300.2L53.29,303.67L53.34,304L53.87,299.67L54.09,303.95L54.1,304L54.47,303.45L54.87,304L54.91,304L55.65,294.84L55.65,304L55.67,303.95L55.71,260.45L55.78,304L56.4,304L56.42,304L56.97,302.2L57.18,304L57.2,304L57.84,300.38L57.95,301.32L57.99,303.9L58.17,303.62L58.33,304L58.35,298.39L58.35,304L59.1,304L59.21,304L59.43,301.85L59.87,303.7L59.87,303.92L59.94,304L60.27,301.9L60.55,303.69L60.63,303.82L60.7,304L60.7,303.62L60.73,296.57L60.73,304L60.92,295.09L61.48,302.93L61.5,303.88L61.52,304L62.24,300.54L62.24,304L62.28,304L62.29,299.93L63.03,303.94L63.04,303.65L63.05,304L63.3,302.95L63.79,304L63.84,303.56L63.84,304L63.99,299.66L64.57,304L64.64,304L64.64,301.67L65.39,303.95L65.43,302.59L65.6,297.37L66.26,304L66.26,303.41L66.74,302.49L66.99,304L66.99,304L67.05,304L67.35,301.74L67.35,299.87L67.36,304L68.03,296.57L68.07,297.05L68.11,303.75L68.48,302.66L68.68,304L68.68,303.76L68.71,300.92L68.72,304L69.13,287.89L69.18,303.71L69.22,304L70.03,300.49L70.05,304L70.37,281.7L70.8,303.92L70.82,304L71.22,302.03L71.54,303.95L71.59,304L71.62,303.75L71.7,304L71.7,287.81L72.49,304L72.49,300.08L72.69,299.25L73.22,304L73.27,304L73.3,294.81L73.55,304L73.65,304L74.1,300.56L74.4,304L74.4,291.53L75.16,304L75.18,303.9L75.25,303.82L75.25,304L75.86,299.97L76,303.89L76.01,303.97L76.12,304L76.6,303.3L76.74,303.4L76.83,304L77.59,300.45L77.59,303.97L77.6,304L78.02,296.31L78.24,304L78.26,304L78.94,294.45L78.96,301.4L79.05,303.78L79.15,300.95L79.54,304L79.54,302.47L79.93,302.29L80.29,304L80.3,302.19L80.3,300.66L80.35,304L81.05,303.98L81.07,304L81.79,300.03L81.82,303.81L81.84,303.96L82.12,303.6L82.12,300.18L82.12,304L82.87,304L82.89,303.94L83.2,304L83.2,301.33L83.2,304L83.43,300.94L83.94,302.89L83.98,303.68L83.98,304L84.5,299.21L84.68,303.75L84.77,303.65L84.94,293.68L85.5,304L85.5,301.78L85.93,299.77L86.23,304L86.23,303.99L86.28,302.1L86.28,304L87.03,304L87.05,302.82L87.05,304L87.5,301.5L87.74,303.9L87.81,304L88.59,293.07L88.59,301.84L88.62,304L88.74,301.48L89.37,303.98L89.4,303.89L89.45,304L89.74,300.9L90.1,304L90.15,304L90.38,299.12L90.61,304L90.7,304L90.97,300.19L91.1,303.87L91.1,303.99L91.14,304L91.68,302.98L91.83,303.98L91.85,304L91.94,303.62L91.98,304L92.03,300.17L92.03,304L92.78,303.06L92.84,304L93.32,301.63L93.56,303.98L93.66,304L93.82,299.36L94.39,304L94.41,304L94.58,302.9L94.76,304L94.76,301.65L94.93,301.25L95.42,304L95.53,302.96L95.89,300.36L96.28,304L96.3,300.1L96.3,304L97.02,296.13L97.05,303.97L97.06,304L97.1,303.53L97.38,303.97L97.41,282.17L97.43,304L98.11,304L98.17,304L98.58,302.42L98.92,304L98.95,304L99.05,296.24L99.7,303.75L99.74,304L100.46,300.91L100.47,304L100.51,303.86L100.6,291.83L100.63,304L101.21,303.24L101.25,302.76L101.25,304L101.82,301.03L101.98,303.99L102.03,300.51L102.15,300.1L102.71,304L102.77,302.48L102.85,303.81L102.85,304L103.4,296.6L103.59,304L103.71,303.71L103.74,303.65L103.74,304L103.78,295.1L103.82,304L103.89,294.71L104.49,304L104.55,303.12L105.2,298.65L105.23,304L105.34,304L105.81,301.59L106.09,303.7L106.1,303.99L106.13,304L106.37,302.61L106.85,303.83L106.85,304L107.52,302.39L107.57,302.93L107.57,304L107.83,297.9L108.32,303.77L108.35,304L108.85,301.28L109.1,304L109.11,303.48L109.11,304L109.56,299.75L109.84,303.66L109.87,304L110.63,302L110.72,302.05L110.72,303.74L110.89,299.7L111.11,304L111.11,303.68L111.18,294.11L111.18,304L111.91,304L111.95,302.96L111.95,304L112.58,294.17L112.7,301.08L112.72,304L112.8,300.47L112.92,303.63L112.92,304L112.95,301.17L113.67,304L113.77,302.07L113.77,304L113.9,290.15L114.49,302.71L114.53,304L114.62,303.25L115.28,303.71L115.31,304L115.61,301.5L116.02,303.95L116.1,303.88L116.2,304L116.84,299.29L116.84,302.64L116.88,304L117.44,302.18L117.59,304L117.63,304L117.74,303L118.38,304L118.39,304L118.54,292.15L119.13,302.65L119.17,303.91L119.19,304L119.83,300.94L119.89,304L120.01,303.91L120.21,303.52L120.21,304L120.21,300.74L120.24,300.73L120.93,304L120.95,303.91L121.03,304L121.29,302.16L121.41,303.53L121.44,303.94L121.52,304L121.86,295.88L121.93,303.85L121.93,304L122.06,295.26L122.14,304L122.14,292L122.82,304L122.86,303.95L122.92,303.66L123.01,303.17L123.61,304L123.61,303.98L123.71,304L124.13,300.99L124.44,303.97L124.49,304L124.68,295.27L125.11,303.92L125.27,303.62L125.27,304L125.99,302.06L125.99,304L126.04,303.8L126.29,302.01L126.29,304L126.29,291.32L126.71,289.63L127.03,304L127.03,302.98L127.13,303.83L127.13,304L127.15,301.96L127.88,303.61L127.89,304L128.46,298.25L128.64,304L128.65,304L128.75,295.38L129.4,304L129.42,302.62L129.42,304L129.99,301.07L130.17,304L130.19,303.25L130.53,301.47L130.87,304L130.87,304L130.98,303.95L131.12,304L131.13,301.45L131.74,303.45L131.78,304L132.44,297.56L132.47,304L132.56,304L133.04,298.45L133.3,304L133.33,304L133.6,302.97L133.69,304L133.69,298.17L134.44,304L134.45,303.86L134.59,304L134.63,303.55L134.63,303.83L134.63,300.77L135.29,299.53L135.31,304L135.36,303.71L135.44,304L135.98,292.37L136.17,303.24L136.23,303.96L136.45,302.74L136.56,303.97L136.56,301.48L136.75,295.62L137.17,304L137.27,303.83L137.35,303.9L137.5,304L137.6,301.62L137.69,303.4L137.69,304L137.91,302.22L138.41,303.53L138.49,304L138.58,300.35L138.91,300.7L138.94,303.94L139.05,302.65L139.13,304L139.65,304L139.7,304L140.3,299.7L140.42,303.98L140.52,304L140.63,298.75L141.12,303.72L141.2,303.8L141.2,304L141.54,296.73L141.95,302.45L141.98,303.93L142.09,304L142.46,301.91L142.64,304L142.64,298.41L143.4,304L143.42,304L143.72,302.44L144.17,303.84L144.2,304L144.65,298.72L144.93,304L144.97,303.84L144.97,304L145.4,298.1L145.65,303.96L145.73,304L146.1,303.33L146.24,303.89L146.24,295.05L146.24,304L146.98,302.96L147.02,304L147.22,302.06L147.49,303.86L147.5,304L148.11,300.09L148.18,304L148.3,304L149.01,301.65L149.01,304L149.07,303.98L149.23,302.83L149.26,304L149.26,300.95L150.02,304L150.02,304L150.03,302.91L150.37,302.54L150.78,304L150.83,302.54L150.83,304L151.28,299.93L151.5,303.72L151.6,304L151.92,301.6L152.28,303.63L152.3,304L152.53,303.67L152.62,304L152.65,302.34L153.16,302.06L153.4,304L153.41,303.73L153.43,303.67L153.43,301.4L153.49,304L154.13,304L154.19,304L154.42,303.85L154.42,303.8L154.42,303.19L154.73,301.97L155.13,304L155.18,303.71L155.46,293.15L155.93,304L155.93,303.74L155.95,304L156.15,303.56L156.16,304L156.16,301.28L156.8,304L156.87,303.66L156.94,302.7L156.94,304L156.94,302.58L157.68,303L157.74,304L158.12,302.64L158.16,304L158.24,303.89L158.3,304L158.32,300.58L158.32,300.92L158.32,299.33L158.32,304L159.03,304L159.09,304L159.62,283.34L159.82,304L159.87,304L159.96,303.66L160.12,303.72L160.14,281.47L160.14,304L160.72,274.66L160.87,303.97L160.95,304L161.69,300.27L161.73,298.53L161.73,304L161.94,298.03L162.46,303.93L162.49,303.85L163.07,302.57L163.17,304L163.17,303.94L163.17,303L163.17,304L163.7,300.86L163.92,304L163.93,303.95L163.95,304L164.49,291.84L164.58,303.89L164.74,304L165.35,294.99L165.48,303.95L165.54,304L166.19,302.3L166.27,304L166.36,303.96L166.4,297.87L166.46,304L167.1,304L167.13,304L167.82,297.32L167.88,303.88L167.91,303.92L167.97,304L168.32,300.29L168.47,303.87L168.48,304L168.6,302.36L169.14,304L169.19,303.91L169.25,304L169.77,301.29L169.85,303.98L170.04,304L170.16,303.37L170.21,303.97L170.21,300.39L170.77,300.18L170.98,304L171.02,303.96L171.2,304L171.56,302.04L171.65,304L171.78,304L172.18,300.61L172.53,304L172.55,303.89L172.56,304L173,298.93L173.29,304L173.34,303.86L173.36,304L173.72,297.51L174.01,304L174.11,304L174.41,299.77L174.86,303.96L174.91,304L174.91,302.49L175.65,304L175.7,304L175.78,299.39L176.41,304L176.46,304L176.67,302.34L176.96,303.71L176.98,304L177.08,303.41L177.14,304L177.16,298.98L177.28,220.89L177.91,304L177.91,304L177.92,303.58L178.44,302.28L178.61,304L178.61,303.55L178.61,301.58L178.61,304L179.31,298.8L179.31,304L179.41,303.97L179.56,302.26L179.63,303.89L179.66,297.71L179.74,297.87L179.74,297.78L179.78,304L179.78,296.98L180.52,304L180.55,299.85L180.55,304L180.98,298.71L181.29,304L181.31,304L182.04,302.08L182.04,304L182.12,304L182.25,300.92L182.36,304L182.44,304L182.64,300.23L182.89,303.98L182.92,204.96L183.66,304L183.72,303.51L183.72,304L184.22,301.17L184.47,304L184.48,304L185.17,292.15L185.22,303.77L185.35,303.87L185.53,303.34L185.67,304L185.7,303.73L185.77,303.09L185.77,304L186.52,302.72L186.55,304L186.78,302.14L187.15,303.64L187.23,303.86L187.28,304L187.85,299.96L187.96,301.44L188,304L188,298.26L188.72,304L188.78,304L188.91,301.16L189.19,304L189.22,304L189.95,302.18L189.95,303.04L189.96,304L190.42,302.96L190.43,303.99L190.45,300.95L190.9,297.73L191.09,304L191.22,299.11L192.01,304L192.01,303.47L192.09,303.85L192.3,300.63L192.78,304L192.79,303.93L192.79,300.16L193.16,299.42L193.55,304L193.55,304L193.61,304L193.83,303.15L194.05,304L194.05,295.34L194.05,304L194.71,292.18L194.75,303.82L194.86,304L195.02,300.1L195.16,303.95L195.17,304L195.34,302.9L195.9,303.05L195.95,302.31L195.95,304L196.53,300.43L196.64,304L196.73,304L197.24,303.01L197.49,303.93L197.61,303.72L197.82,301.66L197.93,304L197.93,299.57L198.56,297.25L198.64,304L198.69,303.72L198.69,295.57L198.69,304L199.44,304L199.52,304L199.63,301.21L200.03,304L200.11,304L200.46,301.52L200.79,304L200.87,303.88L201.01,303.66L201.02,297.63L201.02,304L201.74,304L201.78,303.76L202.04,303.07L202.05,304L202.05,293.64L202.71,304L202.84,304L203.14,295.17L203.49,303.92L203.61,303.26L204.01,303.09L204.34,304L204.34,303.95L204.38,303.62L204.38,304L205.08,295.37L205.11,304L205.14,304L205.28,303.47L205.33,304L205.33,296.79L206,304L206.1,303.64L206.12,303.45L206.76,300.95L206.85,304L206.85,304L206.9,303.61L206.9,304L207.54,299.23L207.65,303.81L207.69,304L208.2,300.64L208.45,303.81L208.45,304L208.99,297.69L209.19,303.91L209.22,303.94L209.22,304L209.36,296.26L209.96,304L210.01,303.41L210.01,304L210.31,298.17L210.76,303.97L210.8,304L211.25,301.7L211.49,304L211.57,304L212.12,301.62L212.32,304L212.34,304L212.51,299.31L213.08,303.77L213.1,303.92L213.19,304L213.39,302.56L213.54,304L213.55,297.59L213.55,304L214.3,304L214.34,304L214.73,302.86L215.06,304L215.08,304L215.22,303.55L215.24,302.39L215.24,304L215.45,299.61L215.97,304L216.01,304L216.13,296.92L216.75,304L216.79,303.39L216.8,304L217.19,301.98L217.54,304L217.55,303.74L217.98,299.42L218.17,304L218.17,303.27L218.19,300.12L218.19,304L218.19,295.77L218.91,303.94L218.99,303.79L219,304L219.12,301.72L219.73,303.99L219.83,303.77L219.91,303.9L219.95,281.14L219.95,304L220.67,303.91L220.73,304L221.15,301.7L221.47,303.89L221.53,304L222.18,302.42L222.28,303.86L222.29,303.98L222.33,303.99L222.55,301.11L222.78,303.45L222.78,304L222.9,303.39L222.95,303.87L222.96,301.97L222.96,304L222.96,301.95L223.71,302.21L223.75,300.7L223.78,300.63L224.41,304L224.48,303.81L224.52,303.9L224.85,304L224.86,303.18L224.86,304L224.86,302.86L225.59,303.93L225.63,303.86L225.71,304L225.93,301.36L226.24,304L226.28,304L226.4,301.34L227.01,303.98L227.06,302.35L227.07,301.96L227.07,304L227.75,304L227.78,303.93L228.01,303.39L228.13,304L228.13,303.73L228.13,303L228.65,302.89L228.92,304L228.94,304L229.43,295.73L229.66,304L229.72,304L230.05,300.63L230.43,303.99L230.49,304L231.19,297.73L231.23,303.93L231.25,304L231.62,286.79L231.98,304L232.1,304L232.84,301.39L232.84,304L232.86,303.91L232.9,304L233.12,299.21L233.6,304L233.64,304L233.9,278.37L234.37,304L234.41,304L235.13,300.94L235.17,304L235.21,300.95L235.24,304L235.86,256.2L235.92,304L236.02,303.46L236.27,298.21L236.3,304L236.37,298.23L236.9,295.89L237.17,304L237.17,302.88L237.21,304L237.87,300.17L237.91,303.76L237.93,303.85L237.94,304L238.03,303.11L238.67,304L238.68,303.91L238.68,304L239.06,300.78L239.43,304L239.46,303.42L239.5,301.35L240.18,304L240.19,303.59L240.21,299.23L240.51,295.56L240.92,304L240.92,303.89L240.99,304L241.14,302.86L241.16,304L241.16,302.12L241.85,300.05L241.87,304L241.87,303.62L241.89,300.19L241.89,304L242.64,304L242.69,303.5L242.71,304L242.87,297.54L243.41,302.06L243.45,303.91L243.6,303.54L244.07,304L244.07,303.77L244.07,303.25L244.07,304L244.8,300.62L244.82,303.93L244.83,303.99L244.98,302.87L245.32,304L245.44,303.87L245.48,304L245.99,296.89L246.04,303.89L246.07,280.12L246.15,304L246.36,217.34L246.81,303.96L246.84,303.75L246.84,304L247.4,301.08L247.59,303.92L247.62,303.93L247.85,304L247.86,299.9L248.3,296.26L248.61,304L248.63,304L248.79,304L248.95,300.68L249.08,304L249.44,298.37L249.7,304L249.74,304L249.81,301.03L250.47,304L250.5,301.88L250.51,304L251.05,301.53L251.25,303.89L251.29,303.63L251.31,297.37L251.34,304L252.03,304L252.05,303.69L252.05,304L252.76,302.44L252.77,304L252.82,303.83L252.82,304L253.29,300.54L253.57,303.95L253.59,303.95L253.61,304L253.72,296.65L253.94,304L254.2,303.64L254.2,304L254.59,299.83L254.94,303.99L254.96,304L255.67,299.73L255.71,304L255.74,303.74L255.74,304L256.03,301.43L256.44,303.91L256.5,302.8L256.5,304L256.7,297.37L257.2,303.95L257.26,304L257.41,304L257.41,302.31L257.41,304L257.96,294.51L258.09,304L258.2,303.08L258.56,297.84L258.89,304L258.96,303.99L259.06,304L259.76,301.29L259.78,303.83L259.83,304L260.48,299.49L260.54,304L260.59,303.87L260.74,304L260.74,302.42L260.83,302.56L260.85,304L261,301.35L261.59,304L261.64,302.63L261.94,299.82L262.39,304L262.41,302.62L262.41,304L262.8,293.14L263.13,304L263.17,304L263.46,302.49L263.91,304L263.96,303.87L264.17,303.29L264.17,301.74L264.17,304L264.19,294.41L264.92,303.98L264.94,304L265.51,300.1L265.62,304L265.71,304L265.85,301.53L266.46,304L266.47,303.93L266.55,304L266.59,303.33L266.68,304L266.68,297.01L266.69,304L266.86,260.14L267.43,302.72L267.54,304L268.22,302.11L268.29,304L268.32,303.91L268.46,303.44L268.5,304L268.5,303.07L268.63,301.6L269.21,304L269.23,303.42L269.26,303.93L269.28,304L269.95,301.32L270.01,303.42L270.04,303.92L270.17,304L270.23,297.85L270.23,304L270.78,292.25L270.98,303.97L271.03,303.87L271.1,304L271.3,297.32L271.76,304L271.87,304L272.31,301.52L272.62,303.87L272.67,304L273.06,300.24L273.4,303.95L273.42,304L273.77,303.32L273.8,304L273.8,302.37L274.26,299.11L274.55,304L274.58,304L274.75,295.67L275.33,303.7L275.44,303.45L275.44,304L275.73,293.43L276.19,304L276.26,303.4L276.26,304L276.34,296.5L277.01,304L277.1,303.85L277.17,302.38L277.28,304L277.28,300.98L277.5,300.22L278.07,304L278.11,304L278.84,300.07L278.84,304L278.87,304L279.07,303.87L279.09,298.85L279.12,304L279.51,292.85L279.81,302.89L279.85,303.91L279.96,302.5L279.97,303.98L280.5,303.24L280.62,303.94L280.64,304L281.2,301.09L281.36,304L281.39,304L281.57,281.55L281.79,300.56L281.85,304L282.57,302.65L282.6,303.92L282.65,303.95L282.75,302.71L282.75,303.96L282.75,302.56L283.25,301.19L283.38,304L283.46,303.82L283.6,303.77L283.6,304L283.99,293.47L284.34,302.95L284.36,304L284.41,301.84L285.11,302.64L285.12,304L285.12,261.45L285.86,304L285.91,304L285.91,302.38L286.61,303.9L286.69,304L286.99,301.43L287.19,302.4L287.24,304L287.25,301.07L287.97,304L288.01,303.74L288.13,301.4L288.68,304L288.74,303.86L288.8,303.45L288.8,304L289.48,301.03L289.61,303.92L289.76,304L289.84,302.73L290.23,303.93L290.28,304L290.3,299.06L291.03,302.65L291.06,304L291.22,301.12L291.78,303.94L291.82,303.85L291.82,304L292.04,302.45L292.55,303.92L292.58,302.91L292.83,300.31L293.3,304L293.3,301L293.3,304L293.95,296.34L294.05,304L294.07,288.76L294.07,304L294.81,304L294.84,304L295.26,301.92L295.39,303.95L295.41,304L295.41,284.47L296.16,304L296.17,303.94L296.23,304L296.23,300.59L296.91,304L296.94,301.24L297.02,300.66L297.65,304L297.68,303.81L297.73,304L298.29,297.57L298.38,303.99L298.5,303.89L298.67,304L298.94,301.14L299.02,303.99L299.04,304L299.39,302.82L299.76,303.89L299.78,303.96L299.84,304L300.33,296.04L300.52,303.98L300.59,304L300.64,303.72L300.65,304L300.65,295.16L301.35,304L301.42,303.72L301.71,302.8L301.84,304L301.85,302.16L301.96,304L302.1,291.56L302.56,304L302.63,302.16L302.67,304L303.27,300.03L303.38,304L303.39,303.63L303.39,304L303.83,302.52L304.13,303.8L304.21,303.7L304.21,304L304.34,300.69L304.86,303.49L304.98,303.52L304.98,304L305.45,302.36L305.7,304L305.75,304L305.83,300.95L306.5,303.67L306.51,304L306.96,298.03L306.97,304L306.98,295.84L307,304L307.11,290.63L307.73,303.99L307.74,303.91L307.85,304L307.97,302.79L308.16,304L308.18,304L308.26,299.84L308.93,303.45L308.99,303.74L308.99,304L309.14,297.06L309.73,304L309.77,304L309.86,303.19L309.89,304L309.92,283.8L309.92,304L310.65,302.36L310.68,298.02L310.68,304L311.37,303.78L311.45,304L311.8,300.36L312.09,304L312.13,304L312.46,298.63L312.88,303.39L312.88,304L313.31,302.65L313.31,304L313.33,304L313.37,301.94L314.08,304L314.09,304L314.45,295.54L314.58,303.98L314.67,304L315.45,301.98L315.46,304L315.56,301.31L316.21,303.93L316.29,303.96L316.43,304L316.49,301.42L316.57,303.62L316.68,303.96L316.75,304L317.25,301.59L317.37,303.49L317.46,304L317.88,303.71L317.88,304L317.88,302.25L318.5,304L318.54,302.55L318.58,300.52L318.58,304L318.63,296.84L319.33,303.8L319.42,304L319.73,303.01L319.99,303.88L320.02,304L320.1,303.27L320.42,304L320.42,301.12L320.98,304L321.06,303.95L321.09,289.98L321.12,304L321.84,304L321.85,304L322.42,300.23L322.6,302.71L322.63,302.75L322.64,302.54L323.38,304L323.38,304L323.42,304L323.84,296.25L324.11,303.93L324.32,304L324.99,293.42L325.01,299.87L325.01,304L325.14,301.91L325.54,304L325.54,288.84L326.28,304L326.28,303.95L326.3,303.97L326.61,302.65L326.66,303.98L326.7,301.91L326.7,304L327.45,297.86L327.49,304L327.96,296.41L328.24,303.98L328.27,304L328.47,302.9L328.61,303.71L328.68,303.84L328.86,302.51L328.93,304L328.99,301.21L328.99,304L329.74,304L329.76,304L330.12,300.68L330.2,304L330.27,295.32L330.27,304L330.28,294.94L331.02,302.25L331.03,303.98L331.52,302.74L331.52,302.94L331.57,301.96L331.57,304L332.17,300.2L332.3,303.69L332.34,304L332.57,303.36L332.6,304L332.6,300.37L333.2,304L333.34,303.83L333.36,295.96L333.36,304L334.11,302.17L334.14,304L334.61,302.26L334.94,303.56L334.96,304L335.67,297.54L335.67,304L335.73,304L336.3,300.85L336.37,304L336.48,304L337.15,298.51L337.21,303.99L337.25,304L337.76,294.43L337.86,303.98L337.9,303.07L337.9,304L338.05,302.94L338.62,303.87L338.69,304L339.14,301.18L339.46,302.53L339.48,303.96L339.91,302.43L340.03,303.97L340.17,304L340.23,301.44L340.42,304L340.49,304L340.53,302.39L341.26,302.93L341.26,304L341.95,299.01L342,303.93L342.07,303.68L342.18,304L342.56,296.66L342.78,304L342.86,304L343.42,299.59L343.58,304L343.62,304L344.23,301.63L344.29,304L344.51,302.78L344.52,302.82L344.52,302.46L344.73,297.95L345.22,304L345.23,303.95L345.35,303.75L345.49,303.39L345.53,304L345.53,303.87L345.54,300.87L345.54,304L345.59,298.33L346.24,303.91L346.31,303.84L346.37,304L346.37,301.71L347.01,301.47L347.11,304L347.14,303.91L347.18,304L347.43,301.08L347.89,303.77L347.89,304L348.33,301.73L348.63,303.55L348.64,303.97L348.77,303.19L348.88,304L348.88,299.64L349.55,296.28L349.63,304L349.65,303.94L349.76,297.38L349.77,304L350.34,303.79L350.46,304L351.02,301.98L351.19,303.97L351.22,304L351.93,299.67L351.96,303.75L352.04,303.81L352.31,304L352.31,298.45L352.36,304L352.37,292.26L353.06,302.26L353.13,301.06L353.81,299.11L353.9,304L353.9,303.85L353.93,304L353.93,303.76L353.96,298.11L353.96,304L354.65,301.41L354.72,304L355.4,298.15L355.43,304L355.5,304L356.18,302.95L356.23,303.38L356.3,303.28L356.76,300.91L357.06,304L357.06,303.28L357.63,292.98L357.82,304L357.82,302.86L357.87,304L357.89,302.28L358.25,304L358.3,304L358.71,296.9L358.91,304L358.98,303.89L359.06,303.56L359.06,303.99L359.13,295.83L359.19,293.91L359.82,304L359.92,303.92L359.99,304L360.02,294.37L360.36,304L360.43,304L360.82,302.27L361.13,303.71L361.21,304L361.58,295.03L361.94,299.99L361.98,304L362.28,298.79L362.37,303.96L362.45,304L363.2,302.85L363.2,303.87L363.21,304L363.39,300.08L363.94,304L363.98,303.87L364.05,304L364.52,300.24L364.72,303.95L364.76,304L364.82,303.75L364.85,299.2L364.85,304L365.24,291.75L365.59,303.89L365.62,303.93L365.77,304L365.77,302.99L365.83,304L365.83,179.52L365.92,304L366.21,146.74L366.58,303.98L366.63,303.5L366.63,304L367.07,301.35L367.35,303.4L367.4,304L367.4,298.34L368.12,304L368.16,304L368.4,301.76L368.54,303.99L368.57,304L368.72,300.86L368.72,304L368.75,304L369.03,302.76L369.41,304L369.56,304L370.18,301.24L370.31,304L370.35,304L371.1,295.52L371.13,300.07L371.15,303.94L371.21,304L371.91,302.8L371.94,304L372.36,301.18L372.7,303.54L372.73,304L373.31,301.45L373.48,304L373.51,304L373.92,299.06L374.25,304L374.31,303.76L374.9,302.44L375.03,304L375.03,303.73L375.15,304L375.86,300.89L375.89,304L375.92,303.85L376.04,301.03L376.67,304L376.7,303.27L376.98,304L376.98,303.02L377.03,297.42L377.08,304L377.08,274.95L377.76,298.93L377.79,304L377.8,297.52L378.54,300.73L378.56,303.88L378.66,304L378.67,302.81L378.67,304L378.7,302.68L379.39,303.47L379.43,304L379.43,300.84L380.18,304L380.19,304L380.89,301.92L380.9,304L380.94,304L381.56,302.17L381.69,303.61L381.75,304L382.15,294.3L382.24,303.81L382.26,303.96L382.79,302.67L382.86,304L382.86,302.1L383.27,298.5L383.61,304L383.62,302.98L383.63,302.81L383.63,304L384.19,290.12L384.38,304L384.39,303.15L384.39,304L384.74,301.46L385.13,304L385.15,302.52L385.16,304L385.87,299.21L385.9,303.83L385.92,303.87L386,304L386.33,302.9L386.65,303.86L386.68,303.93L386.77,304L386.85,302L387.41,303.97L387.44,304L387.86,302.24L388.12,303.43L388.12,304L388.29,300.04L388.87,304L388.92,303.41L388.93,304L389.68,298.48L389.68,304L390,292.13L390.35,303.78L390.43,304L391.07,298.45L391.16,303.63L391.19,303.88L391.29,304L391.31,302.65L391.38,304L391.81,300.55L392.02,303.94L392.03,303.97L392.03,304L392.04,295.77L392.72,304L392.81,303.9L392.86,304L393.19,302.67L393.55,303L393.56,303.99L393.67,304L394.31,301.6L394.36,303.87L394.38,299.8L394.42,304L395.12,300.2L395.12,304L395.32,301.58L395.53,303.57L395.55,296.48L395.55,304L395.64,295.5L396.3,303.97L396.39,303.85L396.84,301.98L397.09,304L397.18,304L397.91,302.76L397.95,303.34L397.95,304L398.22,299.8L398.66,303.85L398.71,303.59L398.96,301.97L399.46,304L399.46,303.86L399.5,304L399.83,295.12L400.25,301.69L400.27,303.98L400.58,304L400.58,303.89L400.65,303.16L400.65,304L400.97,301.79L401.37,303.73L401.41,300.63L401.41,304L401.56,297.12L402.15,304L402.19,303.89L402.28,304L402.78,302.47L402.78,304L403.3,302.86L403.54,303.96L403.56,304L403.6,285.49L404.28,303.83L404.33,304L404.43,282.32L405.06,303.92L405.14,304L405.87,302.72L405.9,303.1L405.92,303.95L406.22,303.24L406.37,304L406.37,301.53L406.6,296.21L407.15,304L407.2,304L407.68,302.41L407.94,303.94L407.99,304L408.15,303.75L408.2,304L408.21,289.5L408.29,304L408.95,303.72L409.11,304L409.58,300.53L409.81,304L409.93,303.28L409.93,304L410.34,297.87L410.68,304L410.69,303.86L410.82,302.65L410.91,304L410.91,302.59L410.91,304L411.35,301.19L411.65,303.51L411.69,304L411.76,302.9L412.1,303.9L412.23,304L412.68,301.05L412.96,303.69L412.99,304L413.27,297.91L413.73,304L413.75,303.89L413.77,304L414.32,295.19L414.48,304L414.51,304L414.68,299.18L415.25,303.78L415.27,303.39L415.3,304L415.72,299.19L416.02,303.88L416.09,303.84L416.28,300.67L416.67,304L416.7,300.13L417.09,290.55L417.51,304L417.51,303.96L417.57,303.42L417.57,304L418.22,295.6L418.3,304L418.33,303.96L418.56,302.92L419.05,303.91L419.06,293.57L419.06,304L419.47,281.5L419.81,303.9L419.84,303.96L419.85,16L419.92,304L420.56,302.36L420.62,303.91L420.74,304L421.25,300.83L421.32,304L421.35,304L421.6,303.24L422.13,303.35L422.16,304L422.86,296.54L422.87,304L423,304L423.58,302.32L423.59,304L424.32,291.63L424.32,304L424.38,303.56L424.38,304L425.1,301.4L425.11,303.79L425.15,303.88L425.36,303.46L425.61,304L425.62,300.12L425.62,304L426.32,303.54L426.38,303.94L426.43,304L426.73,297.96L427.08,304L427.12,303.83L427.71,302.49L427.72,304L427.84,303.84L427.84,302.51L427.84,304L428.23,299.36L428.59,303.46L428.62,304L429.2,285.53L429.34,302.87L429.38,303.92L429.56,303.31L429.64,304L429.64,304L429.64,303.19L429.77,302.41L430.36,304L430.4,303.83L430.4,304L430.5,299.58L431.15,304L431.19,304L431.71,301.56L431.94,303.93L431.99,304L432.61,302.25L432.63,304L432.63,299.05L433.24,304L433.25,303.76L433.25,299.69L433.46,298.59L434.02,304L434.05,303.77L434.07,303.95L434.26,304L434.26,301.14L434.26,304L434.4,297.09L435.01,303.67L435.1,304L435.76,301.67L435.81,304L435.88,303.72L435.88,304L436.41,290.81L436.61,303.72L436.66,304L437.4,300.27L437.4,303.93L437.42,303.96L437.48,299.67L437.48,304L438.16,304L438.17,304L438.6,300.73L438.91,304L438.92,304L438.97,303.79L439.07,303.92L439.08,260.6L439.09,304L439.78,303.59L439.84,303.52L440.47,297.77L440.59,304L440.63,304L441.09,299.56L441.24,304L441.28,304L442.02,301.02L442.02,304L442.39,302.49L442.74,303.89L442.77,304L443.05,300.71L443.52,303.95L443.53,304L443.77,300.16L444.18,303.57L444.18,304L444.8,298.58L444.83,303.99L444.95,303.72L444.96,304L445.52,279.71L445.67,304L445.72,304L446.01,299.14L446.45,304L446.51,303.78L446.63,303.11L446.98,304L447,303.68L447,302.2L447,304L447.56,301.2L447.72,303.79L447.76,303.91L447.83,304L448.07,299.34L448.32,304L448.39,304L448.65,301.88L449.07,303.31L449.12,304L449.3,300.24L449.65,303.61L449.74,303.71L449.74,304L450.25,301.82L450.45,304L450.51,304L451,302.53L451.26,303.72L451.3,303.91L451.42,303.12L451.42,304L451.42,301.02L452.12,298.84L452.18,304L452.2,303.51L452.52,302.35L452.9,304L452.91,303.06L452.97,304L453.72,295.93L453.73,304L454.36,295.02L454.45,303.97L454.55,303.76L454.97,297.91L455.2,304L455.23,301.85L455.23,304L455.54,249.93L455.97,304L456.02,303.97L456.03,304L456.77,301.07L456.79,304L457.3,299.33L457.52,304L457.57,304L457.62,303.58L457.66,303.89L457.69,234.48L458.45,304L458.53,304L458.66,302.31L459.23,303.87L459.29,304L459.41,303.86L459.41,304L459.47,302.55L460.16,300.32L460.19,304L460.19,300.26L460.65,298.41L460.95,304L460.95,302.13L460.99,302.01L461.03,304L461.53,220.27L461.71,303.81L461.75,303.92L461.94,304L462.28,300.67L462.46,303.99L462.46,304L463.08,300.78L463.21,304L463.22,303.77L463.79,303.13L463.81,304L463.84,302.66L464.48,299.45L464.49,304L464.58,303.92L464.6,302.81L464.6,304L465.03,301.31L465.31,304L465.38,304L465.77,302.65L466.06,303.91L466.08,277.78L466.82,304L466.82,301.94L466.88,304L466.9,300.63L467.61,303.9L467.68,304L468.3,300.72L468.42,303.88L468.42,304L468.65,304L468.65,299.88L469.28,304L469.37,303.94L469.42,303.88L469.48,304L469.6,301.02L470.11,304L470.12,304L470.24,300.5L470.86,303.59L470.89,303.93L471.12,303.93L471.12,302.73L471.12,304L471.74,300.49L471.86,303.86L471.89,304L472.12,300.31L472.56,303.77L472.68,304L473.14,287.15L473.34,303.98L473.4,303.85L473.92,301.89L474.04,304L474.06,303.77L474.06,289.51L474.86,304L474.87,304L475.21,283.75L475.62,303.94L475.63,303.78L475.63,304L476.01,302.22L476.38,304L476.42,304L476.48,300.74L477.15,304L477.2,302.96L477.2,304L477.44,300.17L477.9,304L477.96,304L478.38,297.17L478.71,304L478.82,304L479.54,303.41L479.7,303.73L479.77,304L480.16,300.75L480.42,304L480.46,304L480.63,299.3L481.19,303.8L481.23,303.9L481.28,304L481.63,296.06L481.69,304L482.04,304L482.05,303.21L482.05,304L482.39,298.44L482.78,303.97L482.84,302.81L482.84,304L483.4,304L483.61,304L484.33,297.94L484.36,304L484.42,304L484.42,295.93L485.15,303.95L485.19,304L485.63,301.99L485.82,304L485.83,300.21L485.83,304L486.16,295.08L486.54,304L486.6,303.84L486.66,304L487.33,301.24L487.35,304L487.39,304L487.52,300.12L488.11,304L488.15,304L488.79,302.04L488.9,304L488.92,304L489.21,295.74L489.63,303.9L489.71,303.61L490.31,303.54L490.44,304L490.44,301.63L490.74,298.39L490.79,304L490.79,303.99L490.87,298.15L490.87,304L491.62,303.91L491.69,304L492.27,302.33L492.41,303.28L492.45,304L492.75,299.36L493.07,304L493.11,304L493.29,303.52L493.29,302.59L493.45,301.68L493.99,304L494,303.94" style="vector-effect: non-scaling-stroke; fill: none; stroke: rgb(99, 110, 250); stroke-opacity: 1; stroke-width: 2px; opacity: 1;"/></g><g class="points"/><g class="text"/></g></g></g><g class="overplot"/><path class="xlines-above crisp" d="M0,0" style="fill: none;"/><path class="ylines-above crisp" d="M0,0" style="fill: none;"/><g class="overlines-above"/><g class="xaxislayer-above"><g class="xtick"><text text-anchor="middle" x="0" y="436" transform="translate(212.22,0)" style="font-family: 'Times New Roman'; font-size: 15px; fill: rgb(13, 13, 13); fill-opacity: 1; white-space: pre; opacity: 1;">1.61252×10​<tspan style="font-size:70%" dy="-0.6em">18</tspan><tspan dy="0.42em">​</tspan></text></g><g class="xtick"><text text-anchor="middle" x="0" y="436" style="font-family: 'Times New Roman'; font-size: 15px; fill: rgb(13, 13, 13); fill-opacity: 1; white-space: pre; opacity: 1;" transform="translate(310.25,0)">1.612525×10​<tspan style="font-size:70%" dy="-0.6em">18</tspan><tspan dy="0.42em">​</tspan></text></g><g class="xtick"><text text-anchor="middle" x="0" y="436" style="font-family: 'Times New Roman'; font-size: 15px; fill: rgb(13, 13, 13); fill-opacity: 1; white-space: pre; opacity: 1;" transform="translate(408.28,0)">1.61253×10​<tspan style="font-size:70%" dy="-0.6em">18</tspan><tspan dy="0.42em">​</tspan></text></g><g class="xtick"><text text-anchor="middle" x="0" y="436" style="font-family: 'Times New Roman'; font-size: 15px; fill: rgb(13, 13, 13); fill-opacity: 1; white-space: pre; opacity: 1;" transform="translate(506.3,0)">1.612535×10​<tspan style="font-size:70%" dy="-0.6em">18</tspan><tspan dy="0.42em">​</tspan></text></g><g class="xtick"><text text-anchor="middle" x="0" y="436" style="font-family: 'Times New Roman'; font-size: 15px; fill: rgb(13, 13, 13); fill-opacity: 1; white-space: pre; opacity: 1;" transform="translate(604.3299999999999,0)">1.61254×10​<tspan style="font-size:70%" dy="-0.6em">18</tspan><tspan dy="0.42em">​</tspan></text></g></g><g class="yaxislayer-above"><g class="ytick"><text text-anchor="end" x="125" y="12.25" transform="translate(0,404)" style="font-family: 'Times New Roman'; font-size: 35px; fill: rgb(13, 13, 13); fill-opacity: 1; white-space: pre; opacity: 1;">0</text></g><g class="ytick"><text text-anchor="end" x="125" y="12.25" style="font-family: 'Times New Roman'; font-size: 35px; fill: rgb(13, 13, 13); fill-opacity: 1; white-space: pre; opacity: 1;" transform="translate(0,357.44)">1000</text></g><g class="ytick"><text text-anchor="end" x="125" y="12.25" style="font-family: 'Times New Roman'; font-size: 35px; fill: rgb(13, 13, 13); fill-opacity: 1; white-space: pre; opacity: 1;" transform="translate(0,310.87)">2000</text></g><g class="ytick"><text text-anchor="end" x="125" y="12.25" style="font-family: 'Times New Roman'; font-size: 35px; fill: rgb(13, 13, 13); fill-opacity: 1; white-space: pre; opacity: 1;" transform="translate(0,264.31)">3000</text></g><g class="ytick"><text text-anchor="end" x="125" y="12.25" style="font-family: 'Times New Roman'; font-size: 35px; fill: rgb(13, 13, 13); fill-opacity: 1; white-space: pre; opacity: 1;" transform="translate(0,217.75)">4000</text></g><g class="ytick"><text text-anchor="end" x="125" y="12.25" style="font-family: 'Times New Roman'; font-size: 35px; fill: rgb(13, 13, 13); fill-opacity: 1; white-space: pre; opacity: 1;" transform="translate(0,171.18)">5000</text></g><g class="ytick"><text text-anchor="end" x="125" y="12.25" style="font-family: 'Times New Roman'; font-size: 35px; fill: rgb(13, 13, 13); fill-opacity: 1; white-space: pre; opacity: 1;" transform="translate(0,124.62)">6000</text></g></g><g class="overaxes-above"/></g></g><g class="polarlayer"/><g class="smithlayer"/><g class="ternarylayer"/><g class="geolayer"/><g class="funnelarealayer"/><g class="pielayer"/><g class="iciclelayer"/><g class="treemaplayer"/><g class="sunburstlayer"/><g class="glimages"/><defs id="topdefs-fb63f5"><g class="clips"/></defs><g class="layer-above"><g class="imagelayer"/><g class="shapelayer"/></g><g class="infolayer"><g class="g-gtitle"/><g class="g-xtitle"><text class="xtitle" x="373" y="463.8" text-anchor="middle" style="font-family: 'Open Sans', verdana, arial, sans-serif; font-size: 14px; fill: rgb(42, 63, 95); opacity: 1; font-weight: normal; white-space: pre;">Time Steps (ns)</text></g><g class="g-ytitle" transform="translate(24,0)"><text class="ytitle" transform="rotate(-90,12,260)" x="12" y="260" text-anchor="middle" style="font-family: 'Times New Roman'; font-size: 40px; fill: rgb(13, 13, 13); opacity: 1; font-weight: normal; white-space: pre;">Speed (in sec.)</text></g></g></svg>