<svg class="main-svg" xmlns="http://www.w3.org/2000/svg" xmlns:xlink="http://www.w3.org/1999/xlink" width="700" height="500" style="" viewBox="0 0 700 500"><rect x="0" y="0" width="700" height="500" style="fill: rgb(255, 255, 255); fill-opacity: 1;"/><defs id="defs-b95309"><g class="clips"><clipPath id="clipb95309xyplot" class="plotclip"><rect width="511" height="320"/></clipPath><clipPath class="axesclip" id="clipb95309x"><rect x="109" y="0" width="511" height="500"/></clipPath><clipPath class="axesclip" id="clipb95309y"><rect x="0" y="100" width="700" height="320"/></clipPath><clipPath class="axesclip" id="clipb95309xy"><rect x="109" y="100" width="511" height="320"/></clipPath></g><g class="gradients"/><g class="patterns"/></defs><g class="bglayer"><rect class="bg" x="109" y="100" width="511" height="320" style="fill: rgb(229, 236, 246); fill-opacity: 1; stroke-width: 0;"/></g><g class="layer-below"><g class="imagelayer"/><g class="shapelayer"/></g><g class="cartesianlayer"><g class="subplot xy"><g class="layer-subplot"><g class="shapelayer"/><g class="imagelayer"/></g><g class="minor-gridlayer"><g class="x"/><g class="y"/></g><g class="gridlayer"><g class="x"><path class="xgrid crisp" transform="translate(198.19,0)" d="M0,100v320" style="stroke: rgb(255, 255, 255); stroke-opacity: 1; stroke-width: 1px;"/><path class="xgrid crisp" transform="translate(299.59000000000003,0)" d="M0,100v320" style="stroke: rgb(255, 255, 255); stroke-opacity: 1; stroke-width: 1px;"/><path class="xgrid crisp" transform="translate(400.99,0)" d="M0,100v320" style="stroke: rgb(255, 255, 255); stroke-opacity: 1; stroke-width: 1px;"/><path class="xgrid crisp" transform="translate(502.39,0)" d="M0,100v320" style="stroke: rgb(255, 255, 255); stroke-opacity: 1; stroke-width: 1px;"/><path class="xgrid crisp" transform="translate(603.79,0)" d="M0,100v320" style="stroke: rgb(255, 255, 255); stroke-opacity: 1; stroke-width: 1px;"/></g><g class="y"><path class="ygrid crisp" transform="translate(0,347.24)" d="M109,0h511" style="stroke: rgb(255, 255, 255); stroke-opacity: 1; stroke-width: 1px;"/><path class="ygrid crisp" transform="translate(0,290.47)" d="M109,0h511" style="stroke: rgb(255, 255, 255); stroke-opacity: 1; stroke-width: 1px;"/><path class="ygrid crisp" transform="translate(0,233.7)" d="M109,0h511" style="stroke: rgb(255, 255, 255); stroke-opacity: 1; stroke-width: 1px;"/><path class="ygrid crisp" transform="translate(0,176.93)" d="M109,0h511" style="stroke: rgb(255, 255, 255); stroke-opacity: 1; stroke-width: 1px;"/><path class="ygrid crisp" transform="translate(0,120.16)" d="M109,0h511" style="stroke: rgb(255, 255, 255); stroke-opacity: 1; stroke-width: 1px;"/></g></g><g class="zerolinelayer"><path class="yzl zl crisp" transform="translate(0,404.01)" d="M109,0h511" style="stroke: rgb(255, 255, 255); stroke-opacity: 1; stroke-width: 2px;"/></g><path class="xlines-below"/><path class="ylines-below"/><g class="overlines-below"/><g class="xaxislayer-below"/><g class="yaxislayer-below"/><g class="overaxes-below"/><g class="plot" transform="translate(109,100)" clip-path="url(#clipb95309xyplot)"><g class="scatterlayer mlayer"><g class="trace scatter traceeb5a2c" style="stroke-miterlimit: 2; opacity: 1;"><g class="fills"/><g class="errorbars"/><g class="lines"><path class="js-line" d="M0,304L9.93,300.24L9.93,300.24L9.94,300.23L14.04,298.56L14.04,298.56L14.07,298.55L17.14,297.13L17.14,297.13L17.24,297.12L23.66,294.05L23.66,294.05L23.86,294.04L27.91,292.45L27.91,292.45L27.95,292.44L41.86,285.72L41.86,285.71L51.27,280.04L51.27,280.04L51.4,280.03L87.08,259.38L87.16,259.38L89.56,257.99L89.56,257.99L89.62,257.98L96.29,254.32L96.29,254.31L98.24,252.98L98.31,252.98L109.18,247.08L109.18,247.08L109.26,247.07L113.17,244.76L113.23,244.75L159.63,218.5L159.63,218.5L159.67,218.49L162.11,217.05L162.19,217.04L163.76,216.08L163.77,216.07L168.39,213.42L168.45,213.42L185.48,203.58L185.58,203.57L190.27,201.32L190.27,201.31L192.8,199.96L192.8,199.96L192.84,199.95L199.81,195.63L199.81,195.63L199.81,195.62L208.63,190.95L208.63,190.95L208.63,190.94L214.37,187.77L214.37,187.77L214.37,187.76L219.24,184.98L219.29,184.98L222.52,182.94L222.52,182.94L222.59,182.93L226.73,180.38L226.8,180.38L229.16,179.08L229.16,179.08L229.18,179.07L235.1,175.66L235.11,175.65L238.82,173.5L238.86,173.5L266.47,157.05L266.5,157.05L268.16,156.07L268.3,156.07L278.32,150.67L278.46,150.66L280.04,149.76L280.1,149.76L286.01,146.47L286.01,146.47L286.01,146.46L288.92,144.77L288.92,144.77L288.93,144.76L290.73,143.68L290.73,143.68L290.84,143.67L294.63,141.67L294.63,141.67L294.72,141.66L296.06,140.93L296.06,140.93L296.16,140.92L298.01,139.99L298.01,139.99L298.05,139.98L303.76,136.97L303.76,136.97L303.76,136.96L306.48,135.34L306.48,135.34L306.48,135.33L310.38,133.24L310.38,133.24L310.38,133.23L314.78,130.58L314.78,130.58L314.78,130.57L319.24,128.13L319.26,128.13L332.03,120.91L332.03,120.91L332.03,120.9L340.32,116.55L340.32,116.54L345.86,113.55L345.95,113.55L356.55,107.78L356.55,107.77L361.81,104.9L361.81,104.9L361.81,104.89L363.86,103.87L363.86,103.87L363.96,103.86L371.19,100.03L371.19,100.03L371.19,100.02L374.37,98.26L374.37,98.25L379.54,95.24L379.63,95.23L382.72,93.5L382.72,93.5L382.72,93.49L384.75,92.18L384.75,92.17L388.75,89.74L388.75,89.74L388.75,89.73L412.38,75.93L412.38,75.93L412.43,75.92L415.85,73.66L415.85,73.66L415.85,73.65L420.8,70.78L420.87,70.78L423.44,69.51L423.44,69.5L444.05,57.17L444.05,57.16L449.36,53.69L449.36,53.68L455.45,49.75L455.45,49.74L458.78,47.7L458.78,47.69L460.89,46.36L460.89,46.35L463.49,44.77L463.53,44.77L466.21,43.15L466.21,43.15L466.23,43.14L473.27,38.51L473.32,38.51L500.92,22.23L500.96,22.23L504.99,19.51L504.99,19.51L505.05,19.5L506.81,18.53L506.81,18.53L506.81,18.52L511,16" style="vector-effect: non-scaling-stroke; fill: none; stroke: rgb(168, 0, 173); stroke-opacity: 1; stroke-width: 2px; opacity: 1;"/></g><g class="points"/><g class="text"/></g></g></g><g class="overplot"/><path class="xlines-above crisp" d="M0,0" style="fill: none;"/><path class="ylines-above crisp" d="M0,0" style="fill: none;"/><g class="overlines-above"/><g class="xaxislayer-above"><g class="xtick"><text text-anchor="middle" x="0" y="436" transform="translate(198.19,0)" style="font-family: 'Times New Roman'; font-size: 15px; fill: rgb(13, 13, 13); fill-opacity: 1; white-space: pre; opacity: 1;">1.61252×10​<tspan style="font-size:70%" dy="-0.6em">18</tspan><tspan dy="0.42em">​</tspan></text></g><g class="xtick"><text text-anchor="middle" x="0" y="436" style="font-family: 'Times New Roman'; font-size: 15px; fill: rgb(13, 13, 13); fill-opacity: 1; white-space: pre; opacity: 1;" transform="translate(299.59000000000003,0)">1.612525×10​<tspan style="font-size:70%" dy="-0.6em">18</tspan><tspan dy="0.42em">​</tspan></text></g><g class="xtick"><text text-anchor="middle" x="0" y="436" style="font-family: 'Times New Roman'; font-size: 15px; fill: rgb(13, 13, 13); fill-opacity: 1; white-space: pre; opacity: 1;" transform="translate(400.99,0)">1.61253×10​<tspan style="font-size:70%" dy="-0.6em">18</tspan><tspan dy="0.42em">​</tspan></text></g><g class="xtick"><text text-anchor="middle" x="0" y="436" style="font-family: 'Times New Roman'; font-size: 15px; fill: rgb(13, 13, 13); fill-opacity: 1; white-space: pre; opacity: 1;" transform="translate(502.39,0)">1.612535×10​<tspan style="font-size:70%" dy="-0.6em">18</tspan><tspan dy="0.42em">​</tspan></text></g><g class="xtick"><text text-anchor="middle" x="0" y="436" style="font-family: 'Times New Roman'; font-size: 15px; fill: rgb(13, 13, 13); fill-opacity: 1; white-space: pre; opacity: 1;" transform="translate(603.79,0)">1.61254×10​<tspan style="font-size:70%" dy="-0.6em">18</tspan><tspan dy="0.42em">​</tspan></text></g></g><g class="yaxislayer-above"><g class="ytick"><text text-anchor="end" x="108" y="12.25" transform="translate(0,404.01)" style="font-family: 'Times New Roman'; font-size: 35px; fill: rgb(13, 13, 13); fill-opacity: 1; white-space: pre; opacity: 1;">0</text></g><g class="ytick"><text text-anchor="end" x="108" y="12.25" style="font-family: 'Times New Roman'; font-size: 35px; fill: rgb(13, 13, 13); fill-opacity: 1; white-space: pre; opacity: 1;" transform="translate(0,347.24)">10k</text></g><g class="ytick"><text text-anchor="end" x="108" y="12.25" style="font-family: 'Times New Roman'; font-size: 35px; fill: rgb(13, 13, 13); fill-opacity: 1; white-space: pre; opacity: 1;" transform="translate(0,290.47)">20k</text></g><g class="ytick"><text text-anchor="end" x="108" y="12.25" style="font-family: 'Times New Roman'; font-size: 35px; fill: rgb(13, 13, 13); fill-opacity: 1; white-space: pre; opacity: 1;" transform="translate(0,233.7)">30k</text></g><g class="ytick"><text text-anchor="end" x="108" y="12.25" style="font-family: 'Times New Roman'; font-size: 35px; fill: rgb(13, 13, 13); fill-opacity: 1; white-space: pre; opacity: 1;" transform="translate(0,176.93)">40k</text></g><g class="ytick"><text text-anchor="end" x="108" y="12.25" style="font-family: 'Times New Roman'; font-size: 35px; fill: rgb(13, 13, 13); fill-opacity: 1; white-space: pre; opacity: 1;" transform="translate(0,120.16)">50k</text></g></g><g class="overaxes-above"/></g></g><g class="polarlayer"/><g class="smithlayer"/><g class="ternarylayer"/><g class="geolayer"/><g class="funnelarealayer"/><g class="pielayer"/><g class="iciclelayer"/><g class="treemaplayer"/><g class="sunburstlayer"/><g class="glimages"/><defs id="topdefs-b95309"><g class="clips"/></defs><g class="layer-above"><g class="imagelayer"/><g class="shapelayer"/></g><g class="infolayer"><g class="g-gtitle"/><g class="g-xtitle"><text class="xtitle" x="364.5" y="463.8" text-anchor="middle" style="font-family: 'Open Sans', verdana, arial, sans-serif; font-size: 14px; fill: rgb(42, 63, 95); opacity: 1; font-weight: normal; white-space: pre;">Time Steps (ns)</text></g><g class="g-ytitle" transform="translate(23.5,0)"><text class="ytitle" transform="rotate(-90,12.5,260)" x="12.5" y="260" text-anchor="middle" style="font-family: 'Times New Roman'; font-size: 40px; fill: rgb(13, 13, 13); opacity: 1; font-weight: normal; white-space: pre;">Cum. qty. executed orders</text></g></g></svg>