<svg class="main-svg" xmlns="http://www.w3.org/2000/svg" xmlns:xlink="http://www.w3.org/1999/xlink" width="700" height="500" style="" viewBox="0 0 700 500"><rect x="0" y="0" width="700" height="500" style="fill: rgb(255, 255, 255); fill-opacity: 1;"/><defs id="defs-798e83"><g class="clips"><clipPath id="clip798e83xyplot" class="plotclip"><rect width="497" height="320"/></clipPath><clipPath class="axesclip" id="clip798e83x"><rect x="123" y="0" width="497" height="500"/></clipPath><clipPath class="axesclip" id="clip798e83y"><rect x="0" y="100" width="700" height="320"/></clipPath><clipPath class="axesclip" id="clip798e83xy"><rect x="123" y="100" width="497" height="320"/></clipPath></g><g class="gradients"/><g class="patterns"/></defs><g class="bglayer"><rect class="bg" x="123" y="100" width="497" height="320" style="fill: rgb(229, 236, 246); fill-opacity: 1; stroke-width: 0;"/></g><g class="layer-below"><g class="imagelayer"/><g class="shapelayer"/></g><g class="cartesianlayer"><g class="subplot xy"><g class="layer-subplot"><g class="shapelayer"/><g class="imagelayer"/></g><g class="minor-gridlayer"><g class="x"/><g class="y"/></g><g class="gridlayer"><g class="x"><path class="xgrid crisp" transform="translate(209.74,0)" d="M0,100v320" style="stroke: rgb(255, 255, 255); stroke-opacity: 1; stroke-width: 1px;"/><path class="xgrid crisp" transform="translate(308.37,0)" d="M0,100v320" style="stroke: rgb(255, 255, 255); stroke-opacity: 1; stroke-width: 1px;"/><path class="xgrid crisp" transform="translate(406.99,0)" d="M0,100v320" style="stroke: rgb(255, 255, 255); stroke-opacity: 1; stroke-width: 1px;"/><path class="xgrid crisp" transform="translate(505.61,0)" d="M0,100v320" style="stroke: rgb(255, 255, 255); stroke-opacity: 1; stroke-width: 1px;"/><path class="xgrid crisp" transform="translate(604.24,0)" d="M0,100v320" style="stroke: rgb(255, 255, 255); stroke-opacity: 1; stroke-width: 1px;"/></g><g class="y"><path class="ygrid crisp" transform="translate(0,355.47)" d="M123,0h497" style="stroke: rgb(255, 255, 255); stroke-opacity: 1; stroke-width: 1px;"/><path class="ygrid crisp" transform="translate(0,306.94)" d="M123,0h497" style="stroke: rgb(255, 255, 255); stroke-opacity: 1; stroke-width: 1px;"/><path class="ygrid crisp" transform="translate(0,258.4)" d="M123,0h497" style="stroke: rgb(255, 255, 255); stroke-opacity: 1; stroke-width: 1px;"/><path class="ygrid crisp" transform="translate(0,209.87)" d="M123,0h497" style="stroke: rgb(255, 255, 255); stroke-opacity: 1; stroke-width: 1px;"/><path class="ygrid crisp" transform="translate(0,161.32999999999998)" d="M123,0h497" style="stroke: rgb(255, 255, 255); stroke-opacity: 1; stroke-width: 1px;"/><path class="ygrid crisp" transform="translate(0,112.8)" d="M123,0h497" style="stroke: rgb(255, 255, 255); stroke-opacity: 1; stroke-width: 1px;"/></g></g><g class="zerolinelayer"><path class="yzl zl crisp" transform="translate(0,404.01)" d="M123,0h497" style="stroke: rgb(255, 255, 255); stroke-opacity: 1; stroke-width: 2px;"/></g><path class="xlines-below"/><path class="ylines-below"/><g class="overlines-below"/><g class="xaxislayer-below"/><g class="yaxislayer-below"/><g class="overaxes-below"/><g class="plot" transform="translate(123,100)" clip-path="url(#clip798e83xyplot)"><g class="scatterlayer mlayer"><g class="trace scatter trace555c02" style="stroke-miterlimit: 2; opacity: 1;"><g class="fills"/><g class="errorbars"/><g class="lines"><path class="js-line" d="M0,304L19.74,295.5L19.74,295.49L23.99,293.73L24.06,293.72L36.74,287.64L36.74,287.61L40.99,285.41L40.99,285.4L42.68,284.44L42.68,284.43L51.68,278.58L51.74,278.57L53.37,277.61L53.37,277.61L53.41,277.6L55.71,276.46L55.75,276.46L64,271.55L64,271.54L66.71,269.91L66.71,269.9L75.92,264.15L75.99,264.14L79.86,261.76L79.86,261.75L82.1,260.16L82.18,260.16L101.35,248.68L101.42,248.68L104.52,247.23L104.52,247.23L104.52,247.22L107.66,245.55L107.72,245.55L110.23,244.04L110.23,244.04L110.32,244.03L113.7,241.84L113.7,241.84L113.7,241.82L120.04,238.76L120.04,238.76L120.1,238.75L123.72,236.36L123.72,236.35L126.08,235.14L126.15,235.14L128.3,233.8L128.3,233.79L131.46,231.72L131.46,231.71L136.28,228.99L136.28,228.98L149.91,220.9L149.91,220.9L149.91,220.89L154.95,218.01L154.95,218L157.31,216.43L157.31,216.42L159.29,215.42L159.31,215.4L160.93,214.47L160.97,214.46L164.46,212.32L164.46,212.31L166.31,211.18L166.31,211.18L166.31,211.17L169.44,209.08L169.44,209.08L169.49,209.07L174.17,206.26L174.17,206.24L181.04,202.46L181.04,202.45L184.35,200.61L184.35,200.61L184.46,200.6L186.98,199.24L186.98,199.24L186.98,199.23L196.94,193.18L196.94,193.18L197.03,193.17L199.66,191.79L199.66,191.78L201.73,190.74L201.73,190.74L201.76,190.73L204.15,189.37L204.24,189.37L207.52,187.22L207.67,187.21L213.56,183.72L213.56,183.72L213.59,183.71L214.68,182.97L214.72,182.97L222.57,178.23L222.57,178.23L222.57,178.22L231.26,173.21L231.26,173.19L240.83,166.9L240.88,166.89L248.34,162.53L248.34,162.53L248.34,162.52L251.12,160.87L251.12,160.87L251.12,160.86L254.3,158.9L254.3,158.9L254.36,158.9L255.76,158.12L255.85,158.11L258.32,156.6L258.57,156.6L262.07,154.81L262.12,154.81L266.06,152.69L266.11,152.68L268.74,151.08L268.74,151.07L271.65,149.62L271.65,149.61L284.64,142.36L284.7,142.36L286.96,141.12L287.04,141.11L291.01,139.22L291.01,139.18L295.25,136.88L295.25,136.88L295.31,136.87L300.41,133.89L300.41,133.89L300.45,133.88L329.27,117.01L329.27,117.01L329.44,117.01L332.19,115.49L332.19,115.49L332.21,115.48L339.81,111.23L339.81,111.23L339.84,111.21L342.09,110.26L342.09,110.26L342.18,110.25L354.69,103.3L354.69,103.3L354.74,103.29L358.21,101.45L358.21,101.44L395.68,78.18L395.68,78.18L395.68,78.17L398.8,76.62L398.8,76.62L398.8,76.61L408.27,70.94L408.27,70.94L408.31,70.94L410.88,69.61L411.18,69.61L415.04,67.16L415.04,67.15L418.79,64.6L418.79,64.59L420.17,63.67L420.17,63.67L420.18,63.67L423.88,61.65L423.88,61.64L426.85,60.11L426.85,60.11L426.89,60.11L433.89,55.71L433.97,55.71L464.47,36.13L464.47,36.13L464.47,36.12L497,16" style="vector-effect: non-scaling-stroke; fill: none; stroke: rgb(1, 102, 87); stroke-opacity: 1; stroke-width: 2px; opacity: 1;"/></g><g class="points"/><g class="text"/></g></g></g><g class="overplot"/><path class="xlines-above crisp" d="M0,0" style="fill: none;"/><path class="ylines-above crisp" d="M0,0" style="fill: none;"/><g class="overlines-above"/><g class="xaxislayer-above"><g class="xtick"><text text-anchor="middle" x="0" y="436" transform="translate(209.74,0)" style="font-family: 'Times New Roman'; font-size: 15px; fill: rgb(13, 13, 13); fill-opacity: 1; white-space: pre; opacity: 1;">1.61252×10​<tspan style="font-size:70%" dy="-0.6em">18</tspan><tspan dy="0.42em">​</tspan></text></g><g class="xtick"><text text-anchor="middle" x="0" y="436" style="font-family: 'Times New Roman'; font-size: 15px; fill: rgb(13, 13, 13); fill-opacity: 1; white-space: pre; opacity: 1;" transform="translate(308.37,0)">1.612525×10​<tspan style="font-size:70%" dy="-0.6em">18</tspan><tspan dy="0.42em">​</tspan></text></g><g class="xtick"><text text-anchor="middle" x="0" y="436" style="font-family: 'Times New Roman'; font-size: 15px; fill: rgb(13, 13, 13); fill-opacity: 1; white-space: pre; opacity: 1;" transform="translate(406.99,0)">1.61253×10​<tspan style="font-size:70%" dy="-0.6em">18</tspan><tspan dy="0.42em">​</tspan></text></g><g class="xtick"><text text-anchor="middle" x="0" y="436" style="font-family: 'Times New Roman'; font-size: 15px; fill: rgb(13, 13, 13); fill-opacity: 1; white-space: pre; opacity: 1;" transform="translate(505.61,0)">1.612535×10​<tspan style="font-size:70%" dy="-0.6em">18</tspan><tspan dy="0.42em">​</tspan></text></g><g class="xtick"><text text-anchor="middle" x="0" y="436" style="font-family: 'Times New Roman'; font-size: 15px; fill: rgb(13, 13, 13); fill-opacity: 1; white-space: pre; opacity: 1;" transform="translate(604.24,0)">1.61254×10​<tspan style="font-size:70%" dy="-0.6em">18</tspan><tspan dy="0.42em">​</tspan></text></g></g><g class="yaxislayer-above"><g class="ytick"><text text-anchor="end" x="122" y="12.25" transform="translate(0,404.01)" style="font-family: 'Times New Roman'; font-size: 35px; fill: rgb(13, 13, 13); fill-opacity: 1; white-space: pre; opacity: 1;">0</text></g><g class="ytick"><text text-anchor="end" x="122" y="12.25" style="font-family: 'Times New Roman'; font-size: 35px; fill: rgb(13, 13, 13); fill-opacity: 1; white-space: pre; opacity: 1;" transform="translate(0,355.47)">0.5B</text></g><g class="ytick"><text text-anchor="end" x="122" y="12.25" style="font-family: 'Times New Roman'; font-size: 35px; fill: rgb(13, 13, 13); fill-opacity: 1; white-space: pre; opacity: 1;" transform="translate(0,306.94)">1B</text></g><g class="ytick"><text text-anchor="end" x="122" y="12.25" style="font-family: 'Times New Roman'; font-size: 35px; fill: rgb(13, 13, 13); fill-opacity: 1; white-space: pre; opacity: 1;" transform="translate(0,258.4)">1.5B</text></g><g class="ytick"><text text-anchor="end" x="122" y="12.25" style="font-family: 'Times New Roman'; font-size: 35px; fill: rgb(13, 13, 13); fill-opacity: 1; white-space: pre; opacity: 1;" transform="translate(0,209.87)">2B</text></g><g class="ytick"><text text-anchor="end" x="122" y="12.25" style="font-family: 'Times New Roman'; font-size: 35px; fill: rgb(13, 13, 13); fill-opacity: 1; white-space: pre; opacity: 1;" transform="translate(0,161.32999999999998)">2.5B</text></g><g class="ytick"><text text-anchor="end" x="122" y="12.25" style="font-family: 'Times New Roman'; font-size: 35px; fill: rgb(13, 13, 13); fill-opacity: 1; white-space: pre; opacity: 1;" transform="translate(0,112.8)">3B</text></g></g><g class="overaxes-above"/></g></g><g class="polarlayer"/><g class="smithlayer"/><g class="ternarylayer"/><g class="geolayer"/><g class="funnelarealayer"/><g class="pielayer"/><g class="iciclelayer"/><g class="treemaplayer"/><g class="sunburstlayer"/><g class="glimages"/><defs id="topdefs-798e83"><g class="clips"/></defs><g class="layer-above"><g class="imagelayer"/><g class="shapelayer"/></g><g class="infolayer"><g class="g-gtitle"/><g class="g-xtitle"><text class="xtitle" x="371.5" y="463.8" text-anchor="middle" style="font-family: 'Open Sans', verdana, arial, sans-serif; font-size: 14px; fill: rgb(42, 63, 95); opacity: 1; font-weight: normal; white-space: pre;">Time Steps (ns)</text></g><g class="g-ytitle" transform="translate(24.109375,0)"><text class="ytitle" transform="rotate(-90,11.890625,260)" x="11.890625" y="260" text-anchor="middle" style="font-family: 'Times New Roman'; font-size: 40px; fill: rgb(13, 13, 13); opacity: 1; font-weight: normal; white-space: pre;">Cum. executed trading vol. (in $)</text></g></g></svg>