<svg class="main-svg" xmlns="http://www.w3.org/2000/svg" xmlns:xlink="http://www.w3.org/1999/xlink" width="700" height="500" style="" viewBox="0 0 700 500"><rect x="0" y="0" width="700" height="500" style="fill: rgb(255, 255, 255); fill-opacity: 1;"/><defs id="defs-60175b"><g class="clips"><clipPath id="clip60175bxyplot" class="plotclip"><rect width="511" height="320"/></clipPath><clipPath class="axesclip" id="clip60175bx"><rect x="109" y="0" width="511" height="500"/></clipPath><clipPath class="axesclip" id="clip60175by"><rect x="0" y="100" width="700" height="320"/></clipPath><clipPath class="axesclip" id="clip60175bxy"><rect x="109" y="100" width="511" height="320"/></clipPath></g><g class="gradients"/><g class="patterns"/></defs><g class="bglayer"><rect class="bg" x="109" y="100" width="511" height="320" style="fill: rgb(229, 236, 246); fill-opacity: 1; stroke-width: 0;"/></g><g class="layer-below"><g class="imagelayer"/><g class="shapelayer"/></g><g class="cartesianlayer"><g class="subplot xy"><g class="layer-subplot"><g class="shapelayer"/><g class="imagelayer"/></g><g class="minor-gridlayer"><g class="x"/><g class="y"/></g><g class="gridlayer"><g class="x"><path class="xgrid crisp" transform="translate(198.19,0)" d="M0,100v320" style="stroke: rgb(255, 255, 255); stroke-opacity: 1; stroke-width: 1px;"/><path class="xgrid crisp" transform="translate(299.59000000000003,0)" d="M0,100v320" style="stroke: rgb(255, 255, 255); stroke-opacity: 1; stroke-width: 1px;"/><path class="xgrid crisp" transform="translate(400.99,0)" d="M0,100v320" style="stroke: rgb(255, 255, 255); stroke-opacity: 1; stroke-width: 1px;"/><path class="xgrid crisp" transform="translate(502.39,0)" d="M0,100v320" style="stroke: rgb(255, 255, 255); stroke-opacity: 1; stroke-width: 1px;"/><path class="xgrid crisp" transform="translate(603.79,0)" d="M0,100v320" style="stroke: rgb(255, 255, 255); stroke-opacity: 1; stroke-width: 1px;"/></g><g class="y"><path class="ygrid crisp" transform="translate(0,346.98)" d="M109,0h511" style="stroke: rgb(255, 255, 255); stroke-opacity: 1; stroke-width: 1px;"/><path class="ygrid crisp" transform="translate(0,289.23)" d="M109,0h511" style="stroke: rgb(255, 255, 255); stroke-opacity: 1; stroke-width: 1px;"/><path class="ygrid crisp" transform="translate(0,231.49)" d="M109,0h511" style="stroke: rgb(255, 255, 255); stroke-opacity: 1; stroke-width: 1px;"/><path class="ygrid crisp" transform="translate(0,173.74)" d="M109,0h511" style="stroke: rgb(255, 255, 255); stroke-opacity: 1; stroke-width: 1px;"/><path class="ygrid crisp" transform="translate(0,116)" d="M109,0h511" style="stroke: rgb(255, 255, 255); stroke-opacity: 1; stroke-width: 1px;"/></g></g><g class="zerolinelayer"><path class="yzl zl crisp" transform="translate(0,404.72)" d="M109,0h511" style="stroke: rgb(255, 255, 255); stroke-opacity: 1; stroke-width: 2px;"/></g><path class="xlines-below"/><path class="ylines-below"/><g class="overlines-below"/><g class="xaxislayer-below"/><g class="yaxislayer-below"/><g class="overaxes-below"/><g class="plot" transform="translate(109,100)" clip-path="url(#clip60175bxyplot)"><g class="scatterlayer mlayer"><g class="trace scatter trace6f6b2a" style="stroke-miterlimit: 2; opacity: 1;"><g class="fills"/><g class="errorbars"/><g class="lines"><path class="js-line" d="M0,16L0.14,267.19L0.71,16L0.77,16L0.88,261.41L0.98,16L1.07,16L1.42,238.32L1.59,174.8L1.75,16L1.87,291.73L2.48,16L2.57,16L2.99,272.96L3.12,111.28L3.19,16L3.35,259.25L3.91,16L3.97,16L4.48,290.29L4.69,16L4.76,16L5.44,278.47L5.44,122.37L5.53,88.18L5.53,16L5.58,296.06L6.28,16L6.29,16L6.57,270.08L7.03,111.28L7.05,16L7.22,296.06L7.39,226.77L7.53,16L8.05,285.79L8.17,249.86L8.23,16L8.8,296.78L9.01,270.08L9.01,50.65L9.24,301.83L9.73,16L9.73,16L9.81,16L9.86,293.17L10.56,238.32L10.6,16L11.21,229.65L11.34,16L11.38,16L12.14,279.62L12.15,16L12.44,298.95L12.83,169.02L12.94,183.46L13.19,296.06L13.62,16L13.66,281.62L13.72,267.19L13.72,16L13.81,296.06L14.45,16L14.52,39.1L14.53,16L14.54,281.62L15.19,16L15.28,186.35L15.79,267.19L16.05,16L16.05,16L16.07,16L16.38,16L16.39,76.63L16.41,16L16.79,302.56L17.14,16L17.24,209.44L17.24,302.56L17.24,16L17.96,16L18,76.63L18.11,16L18.67,283.07L18.7,232.54L18.85,220.99L18.85,16L19.15,293.17L19.59,16L19.67,119.94L19.71,16L19.96,292.45L20.42,24.66L20.43,16L20.67,296.06L21.13,272.96L21.21,16L21.37,296.06L21.96,176.24L22.01,16L22.12,298.95L22.71,16L22.88,16L22.93,30.44L22.93,290.29L23.66,16L23.86,16L24.05,301.83L24.59,281.62L24.67,16L24.85,44.87L24.87,16L24.88,293.17L25.03,16L25.62,73.74L25.64,281.62L25.89,16L26.03,298.95L26.37,16L26.4,111.28L26.4,298.95L26.4,16L27.04,232.54L27.17,16L27.62,286.68L27.8,137.26L27.81,16L28.26,296.06L28.48,203.67L28.63,16L29.23,287.4L29.31,180.57L29.39,85.29L29.66,16L29.88,300.39L30.13,259.92L30.23,16L30.93,292.86L30.98,16L31.03,293.17L31.03,16L31.75,16L31.82,16L32.47,267.19L32.57,16L32.68,209.44L32.76,16L32.81,295.34L33.42,16L33.47,16L34.16,301.83L34.19,296.06L34.27,16L35.02,301.83L35.03,298.95L35.05,16L35.34,278.74L35.4,249.86L35.4,16L35.71,296.06L35.87,16L36.13,16L36.75,296.06L36.85,148.81L36.91,223.88L36.92,16L37.43,299.06L37.66,16L37.67,232.54L37.67,16L37.82,303.28L38.36,201.69L38.43,218.11L38.44,16L38.63,301.83L39.14,16L39.21,244.09L39.24,16L39.52,301.83L39.93,16L39.97,16L40.21,16L40.23,125.71L40.31,16L40.59,284.51L40.88,16L40.9,16L41.38,296.06L41.65,16L41.66,16L42.17,293.17L42.37,16L42.46,16L43.01,303.28L43.23,224.84L43.23,16L43.44,298.95L43.92,16L43.99,16L44.47,287.4L44.67,226.77L44.78,16L45.46,299.27L45.5,21.77L45.53,16L45.78,301.86L46.21,215.22L46.32,16L46.55,301.86L47.04,55.37L47.1,16L47.51,304L47.85,16L47.87,93.95L47.87,16L48.3,296.06L48.61,16L48.64,281.62L48.65,16L49.06,304L49.38,18.89L49.42,301.83L50.16,16L50.22,285.95L50.47,301.83L50.93,16L50.95,130.87L50.99,284.51L50.99,16L51.73,206.56L51.75,114.17L51.95,16L52.27,303.28L52.33,148.81L52.46,16L52.58,301.83L53.09,16L53.13,16L53.63,301.83L53.88,16L53.95,16L54.39,284.51L54.55,184.9L54.67,16L55.27,285.95L55.41,16L55.45,16L55.96,301.83L56.17,16L56.34,16L56.47,272.96L56.93,16L56.96,16L57.56,296.06L57.65,16L57.7,16L57.97,301.83L58.42,296.06L58.49,16L58.86,301.83L59.23,276.11L59.27,47.76L59.27,16L59.39,275.85L60,65.08L60.07,16L60.38,301.86L60.8,264.9L60.89,16L61.3,301.83L61.61,104.84L61.61,41.98L62,293.17L62.32,16L62.34,267.19L62.82,296.57L63.14,16L63.26,16L63.38,284.51L64.05,281.62L64.07,16L64.81,300.55L64.83,16L64.95,298.95L65.57,16L65.63,16L65.77,301.83L66.4,174.8L66.54,174.8L66.64,16L66.86,287.4L67.27,16L67.3,185.84L67.3,16L67.87,296.06L67.98,16L68.13,16L68.26,301.83L68.92,261.41L68.92,59.31L68.99,16L69.49,296.06L69.67,226.77L69.67,16L70.3,298.95L70.41,16L70.45,241.2L70.61,284.51L71.26,16L71.28,77.87L71.48,303.28L72,16L72,16L72.07,16L72.4,280.18L72.46,111.28L72.48,16L73.12,301.83L73.25,272.96L73.25,47.76L73.68,301.83L73.76,16L73.8,275.85L73.85,291.73L73.87,16L74.46,154.59L74.6,290.29L74.76,16L75.33,303.28L75.35,16L75.4,235.43L75.45,301.83L75.54,16L76,296.06L76.02,16L76.03,296.06L76.42,16L76.49,16L77.08,301.83L77.21,218.11L77.28,16L77.84,296.06L78.02,102.62L78.05,16L78.56,301.83L78.84,232.54L78.87,16L79.11,272.96L79.59,16L79.64,16L80.26,298.95L80.39,183.46L80.41,267.91L80.6,299.06L81.09,16L81.15,163.25L81.15,291.73L81.88,299.06L81.88,16L81.93,275.85L82.21,16L82.21,232.54L82.24,296.06L82.24,16L82.97,16L83.04,16L83.07,276.57L83.77,112.72L83.8,16L83.86,280.18L84.5,128.6L84.55,16L84.96,241.92L85.29,232.54L85.44,16L85.46,267.19L86.19,131.49L86.28,160.36L86.28,16L86.67,301.83L87.02,16L87.04,160.36L87.04,16L87.2,298.95L87.75,16L87.81,120.99L87.82,16L87.86,296.06L88.54,41.11L88.65,16L88.73,292.45L89.07,59.31L89.07,16L89.16,27.55L89.2,16L89.24,275.13L89.25,16L89.87,301.86L89.97,105.5L90.02,143.04L90.04,16L90.11,298.95L90.76,209.44L90.83,16L90.88,275.85L91.56,16L91.59,16L91.79,302.05L92.34,70.86L92.36,16L92.37,298.95L93.08,16L93.12,160.36L93.12,16L93.58,287.4L93.87,16L93.88,16L94.25,298.95L94.62,160.36L94.62,16L95.2,284.83L95.37,174.8L95.43,145.92L95.49,16L95.77,298.95L96.11,44.87L96.11,16L96.29,298.95L96.78,16L96.88,16L96.93,296.06L97.61,255.64L97.62,16L97.7,286.78L98.34,62.2L98.38,16L98.82,293.74L99.09,285.73L99.1,16L99.18,275.85L99.24,160.36L99.24,16L99.74,301.83L100.01,270.08L100.05,16L100.77,287.4L100.79,249.86L100.84,70.86L100.9,16L101.05,297.68L101.24,16L101.26,16L101.57,301.86L101.99,290.29L102.02,16L102.46,301.83L102.77,16L102.84,16L103.24,290.29L103.58,16L103.61,16L103.73,284.1L104.34,258.53L104.37,16L104.69,298.95L104.93,57.86L104.94,16L105.4,290.29L105.73,160.36L105.73,16L105.74,298.95L106.45,246.98L106.5,79.52L106.51,278.74L106.51,16L107.16,16L107.28,16L108.06,298.95L108.07,21.77L108.15,16L108.82,301.83L108.85,16L108.97,281.62L109.58,267.19L109.63,53.53L109.67,16L110.06,298.95L110.37,16L110.41,232.54L110.49,229.65L110.49,16L110.87,296.06L111.22,137.26L111.27,174.8L111.27,16L111.79,280.15L112.01,16L112.05,85.29L112.11,16L112.4,301.83L112.79,16L112.84,16L113.33,301.83L113.5,16L113.6,16L113.95,267.19L114.35,257.08L114.4,160.36L114.4,16L114.43,301.83L115.09,16L115.17,267.19L115.17,16L115.59,289.56L115.92,258.53L115.96,62.2L116.02,16L116.58,302.56L116.7,65.08L116.74,240.48L117.01,278.74L117.47,16L117.48,258.53L117.55,108.39L117.58,16L118.25,287.4L118.25,102.62L118.34,16L118.85,284.51L119.09,16L119.17,16L119.44,298.95L119.91,174.8L119.99,16L120.36,298.95L120.74,16L120.77,16L120.97,294.47L121.52,16L121.55,16L122.32,290.29L122.32,30.44L122.52,289.12L122.83,16L122.83,232.54L122.83,16L123.03,293.17L123.56,16L123.6,203.67L123.6,16L123.69,300.39L124.35,16L124.36,102.62L124.4,16L124.62,301.83L125.11,16L125.2,16L125.75,296.06L125.87,246.98L125.87,16L126.61,288.38L126.64,16L126.9,293.17L127.33,16L127.4,16L127.74,275.85L128.09,137.26L128.17,227.73L128.33,301.83L128.92,16L128.92,16L128.93,267.19L128.97,16L129.4,301.11L129.63,96.2L129.7,16L129.99,301.83L130.44,56.42L130.48,16L130.76,301.83L130.97,148.81L131.06,16L131.55,278.74L131.75,16L131.87,301.86L131.9,16L132.11,303.28L132.59,220.99L132.63,242.3L132.81,292.45L133.33,16L133.35,183.46L133.42,27.55L133.42,293.17L133.44,16L134.13,140.15L134.19,16L134.87,296.06L134.91,151.7L134.95,16L134.96,293.62L135.64,16L135.77,16L136.04,295.1L136.52,16L136.55,16L136.9,286.68L137.27,56.42L137.33,30.44L137.4,16L137.62,292.21L138.08,16L138.11,128.6L138.2,16L138.42,298.95L138.76,73.74L138.78,16L139.26,299.06L139.52,82.41L139.63,16L139.93,296.06L140.38,16L140.42,16L140.85,303.33L141.18,249.86L141.21,16L141.88,284.51L141.99,166.14L142.08,16L142.34,296.42L142.76,16L142.84,21.77L142.95,270.08L143.16,16L143.17,24.66L143.17,296.06L143.17,16L143.56,301.86L143.91,258.53L143.96,296.06L143.97,16L144.04,300.39L144.71,257.08L144.73,293.17L144.73,16L144.94,301.83L145.47,93.95L145.49,180.57L145.88,246.98L146.23,16L146.24,160.36L146.24,261.41L146.28,16L146.47,301.07L146.98,16L147.02,16L147.58,301.83L147.72,56.42L147.73,16L148.05,301.83L148.48,36.21L148.49,197.89L148.51,16L148.85,301.83L149.24,301.83L149.3,303.11L149.3,16L149.57,303.28L150,16L150.07,16L150.1,301.83L150.81,16L150.83,16L151.52,282.83L151.58,186.35L151.62,16L152.29,293.17L152.38,232.54L152.4,157.53L152.91,284.51L153.04,16L153.12,65.08L153.12,255.64L153.42,301.83L153.9,16L153.9,16L153.91,79.52L153.98,16L154.34,296.06L154.64,195.01L154.65,16L155.28,293.17L155.4,128.6L155.41,298.95L155.41,16L156.15,16L156.21,16L156.3,301.24L156.61,16L156.62,16L156.69,294.62L157.36,16L157.38,16L157.78,180.57L158.09,16L158.16,16L158.78,301.83L158.94,296.06L158.94,24.66L159,16L159.01,226.77L159.34,255.64L159.78,16L159.78,16L159.83,16L160,16L160,16L160.01,232.54L160.01,16L160.73,301.11L160.73,16L160.77,16L161.01,301.83L161.16,255.64L161.18,16L161.29,301.83L161.92,16L161.96,16L162.34,16L162.34,169.02L162.38,16L162.86,290.29L163.09,16L163.11,281.35L163.16,16L163.81,296.06L163.87,16L164.59,283.07L164.63,264.9L164.63,16L164.74,301.83L165.32,16L165.37,16L166.07,301.83L166.12,16L166.16,65.08L166.24,298.95L166.3,16L166.83,16L166.91,16L167.3,298.95L167.64,244.09L167.72,62.2L167.94,16L168.05,272.96L168.45,16L168.47,16L169.09,301.83L169.19,16L169.25,16L169.48,301.83L169.98,160.36L170.01,16L170.58,293.62L170.72,209.44L170.77,209.44L171.11,304L171.51,16L171.52,190.98L171.52,241.2L171.53,16L171.89,301.83L172.26,183.46L172.28,154.59L172.35,16L172.8,299.06L173,298.95L173.08,143.04L173.08,16L173.4,301.83L173.83,29.75L173.97,16L174.55,301.86L174.68,16L174.79,16L175.45,287.4L175.54,287.4L175.55,16L176.07,296.06L176.3,102.62L176.32,114.17L176.38,263.58L176.41,16L177.04,122.83L177.09,284.51L177.09,16L177.13,301.83L177.84,212.33L177.9,16L178.49,290.29L178.5,53.53L178.57,16L178.72,16L178.72,16L178.73,53.53L178.76,16L178.76,296.06L179.36,16L179.52,265.86L179.6,16L179.75,284.51L180.23,16L180.28,16L180.34,281.62L180.95,200.78L181.04,16L181.05,289.53L181.78,16L181.82,258.53L181.84,16L182.43,281.62L182.57,16L182.67,16L182.82,296.06L183.4,200.78L183.51,220.99L183.51,16L184.03,282.35L184.25,249.86L184.28,16L184.78,301.2L185.03,16L185.04,16L185.45,296.06L185.85,105.5L185.93,16L185.97,296.06L186.68,145.92L186.69,16L187.04,303.28L187.4,16L187.48,16L187.65,293.17L188.23,16L188.24,16L188.78,301.83L188.96,16L189.04,16L189.16,293.17L189.79,154.59L189.83,166.14L189.83,16L190.34,301.83L190.58,290.29L190.73,290.29L191.54,16L191.56,232.54L192.24,284.51L192.32,16L192.32,82.41L192.32,254.41L192.55,16L192.88,284.51L193.07,145.92L193.08,125.71L193.18,16L193.43,300.39L193.78,122.83L193.93,16L194.13,16L194.13,16L194.13,160.36L194.47,298.95L194.89,16L194.91,99.73L194.92,16L195.57,289.32L195.62,16L195.67,16L195.7,296.06L196.4,16L196.43,252.66L196.48,16L196.7,281.62L197.18,16L197.24,16L197.28,284.22L197.99,192.12L198,16L198.07,299.97L198.72,24.66L198.78,16L198.82,21.77L198.82,189.23L198.87,16L198.87,298.95L199.12,16L199.26,16L199.32,301.83L199.81,16L199.83,16L200.29,303.76L200.3,16L200.37,16L201.05,301.83L201.12,16L201.18,206.56L201.73,269.35L201.88,16L201.92,70.86L201.97,249.86L202.1,298.95L202.69,16L202.69,93.95L202.89,16L203.3,303.28L203.6,44.87L203.69,44.87L203.69,275.85L203.75,16L204.41,218.11L204.45,301.97L204.45,16L205.19,16L205.22,246.98L205.22,16L205.29,295.7L205.93,16L206.08,261.41L206.09,16L206.29,293.17L206.72,174.8L206.85,102.62L206.92,16L207.13,290.29L207.59,16L207.65,16L207.93,44.87L207.94,186.35L207.99,16L208.33,304L208.68,16L208.73,51.68L208.87,288.84L208.95,16L209,50.65L209,297.79L209.67,16L209.68,264.3L209.82,264.3L209.82,16L210.46,274.69L210.5,154.59L210.62,79.52L210.67,287.74L210.74,16L211.3,258.53L211.37,16L211.87,293.17L212.09,39.1L212.11,16L212.13,296.78L212.71,258.53L212.74,16L212.91,298.95L213.36,212.33L213.52,16L214.23,301.83L214.26,283.15L214.28,16L215.01,296.06L215.01,212.33L215.11,16L215.32,298.95L215.78,189.23L215.83,16L215.95,36.21L215.99,284.51L216.28,290.29L216.7,16L216.7,16L216.78,16L217.42,298.95L217.55,189.23L217.55,22.28L217.55,16L217.61,298.95L218.3,16L218.33,16L218.77,284.51L218.89,16L218.95,16L219.34,290.46L219.35,16L219.36,16L219.66,298.23L219.95,104.06L219.99,16L220.17,281.62L220.69,278.74L220.72,16L221.09,292.45L221.45,209.44L221.52,16L221.77,296.78L222.25,16L222.28,18.89L222.28,301.83L222.34,16L223,16L223.1,117.05L223.15,16L223.48,284.51L223.84,177.68L223.87,143.04L223.88,16L224.48,278.74L224.61,16L224.66,131.49L224.66,16L225.31,301.83L225.41,40.75L225.45,16L225.7,290.29L226.19,16L226.22,128.6L226.22,276.57L226.27,16L226.91,16L227.01,67.97L227.09,16L227.43,284.51L227.73,53.53L227.77,236.79L227.85,16L228.22,300.39L228.49,16L228.54,164.69L228.69,301.83L229.22,16L229.3,301.83L229.52,16L230.03,16L230.07,211.61L230.79,298.95L230.82,16L230.82,16L230.85,21.77L230.88,16L230.91,298.95L231.63,16L231.66,244.09L231.67,76.63L231.75,16L232.03,298.95L232.39,47.76L232.43,16L232.78,300.39L233.12,16L233.22,16L233.47,285.23L233.97,267.19L233.99,16L234.22,298.95L234.72,16L234.79,16L235.21,293.17L235.5,16L235.55,171.91L235.65,284.51L236.32,16L236.36,96.84L236.36,16L236.44,301.83L237.08,264.3L237.16,235.43L237.19,244.09L237.19,16L237.33,293.17L237.89,62.34L237.94,16L238.33,293.17L238.67,287.4L238.77,16L239.06,298.23L239.53,267.19L239.55,53.53L239.62,16L240.28,297.66L240.31,39.1L240.58,283.07L240.75,16L240.82,59.31L240.82,273.92L240.85,16L241.14,299.81L241.56,16L241.58,16L242.04,299.06L242.27,16L242.31,16L243.02,301.83L243.05,16L243.1,16L243.22,287.4L243.39,16L243.5,16L243.98,287.4L244.24,16L244.31,16L244.35,21.77L244.35,298.95L245.1,16L245.13,220.99L245.15,16L245.77,298.95L245.88,275.85L245.89,256.6L246.59,298.95L246.59,16L246.61,284.51L246.64,279.25L246.64,16L246.81,303.28L247.34,16L247.46,16L247.75,299.06L248.18,16L248.22,16L248.71,299.06L248.95,296.06L249.01,16L249.16,287.4L249.21,54.5L249.28,16L249.43,301.83L250.02,143.04L250.04,16L250.17,294.62L250.79,108.39L250.82,16L251.23,274.1L251.55,16L251.58,16L252.01,293.89L252.32,16L252.35,16L252.76,293.17L253.04,39.1L253.16,16L253.7,301.83L253.92,259.01L253.93,16L254.03,264.3L254.18,134.38L254.22,16L254.75,297.85L254.89,294L254.99,16L255.04,298.95L255.64,263.58L255.65,16L255.9,299.06L256.44,252.75L256.45,67.97L256.61,298.95L256.83,16L256.85,251.31L256.91,16L256.94,284.51L257.51,16L257.65,278.74L257.66,16L258.33,291.73L258.38,16L258.41,16L258.55,288.32L259.13,52.86L259.17,195.01L259.46,287.4L259.89,16L259.93,241.2L260.45,291.73L260.7,16L260.7,16L260.72,16L260.99,16L260.99,16L261,41.98L261.04,16L261.14,298.23L261.73,16L261.85,299.12L261.85,16L262.6,16L262.65,16L263.06,16L263.08,160.36L263.08,16L263.72,296.1L263.83,284.51L263.87,16L263.98,292.45L264.28,203.67L264.28,16L264.46,301.83L265.02,99.58L265.07,16L265.53,296.06L265.6,16L265.86,16L266.52,279.46L266.61,16L266.63,16L266.67,281.62L267.39,272.96L267.46,16L267.46,296.06L268.16,246.98L268.3,16L268.58,301.83L269,16L269.25,16L269.81,289.56L270.02,287.4L270.02,33.32L270.3,174.8L270.38,16L270.38,102.62L270.39,293.17L270.45,16L271.11,145.92L271.18,16L271.81,288.84L271.9,215.22L271.95,16L272,270.08L272.68,160.36L272.76,16L273.51,287.4L273.53,223.88L273.56,96.84L273.68,264.3L274.27,16L274.32,187.79L274.35,249.86L274.42,16L274.56,119.94L274.56,16L275,290.29L275.26,16L275.35,16L275.92,293.17L276.09,125.71L276.1,24.66L276.11,296.06L276.26,16L276.84,16L276.93,16L277.23,281.62L277.58,16L277.7,16L278.16,302.81L278.32,180.57L278.46,16L279.21,284.51L279.24,162.24L279.25,16L279.73,301.83L279.92,288.84L280.04,79.52L280.52,288.84L280.55,16L280.6,260.26L280.64,296.06L280.64,16L280.64,301.83L281.36,281.62L281.43,16L281.48,304L282.11,16L282.22,16L282.22,288.38L282.93,16L282.98,16L283.52,278.47L283.71,16L283.77,16L284.43,292.45L284.51,160.36L284.57,258.53L284.57,16L284.67,293.17L285.31,16L285.35,291.73L285.41,16L285.79,298.95L286.06,175.29L286.14,272.96L286.14,16L286.39,298.95L286.89,16L286.91,16L287.05,296.06L287.64,16L287.68,16L288.4,296.06L288.43,220.99L288.47,16L288.64,268.63L288.99,16L289.03,16L289.6,301.83L289.77,16L289.79,220.99L289.83,16L290.16,296.06L290.44,255.64L290.47,16L291.22,298.95L291.26,248.39L291.26,114.17L291.77,225.32L292.02,16L292.02,36.21L292.04,293.17L292.05,16L292.48,301.83L292.77,111.28L292.8,16L293.13,271.52L293.39,91.07L293.42,16L293.67,278.74L294.14,16L294.18,261.41L294.51,275.85L294.93,16L294.94,93.95L294.95,282.79L295.05,16L295.7,16L295.74,238.32L295.74,290.29L295.87,16L296.47,16L296.56,16L296.82,290.29L297.07,220.99L297.13,16L297.79,261.41L297.88,16L297.93,254.92L298.62,16L298.68,96.84L298.73,212.33L299.26,300.39L299.43,16L299.44,236.15L299.58,16L299.76,16L299.76,16L299.81,275.85L299.81,16L300.36,293.17L300.56,293.17L300.57,16L301.04,293.17L301.31,36.21L301.39,284.51L302.12,16L302.18,270.08L302.27,16L302.69,272.96L302.91,137.26L303.03,16L303.23,287.4L303.76,270.08L303.84,270.08L303.85,16L304.19,297.5L304.58,16L304.65,264.3L304.69,16L305.09,302.32L305.36,298.95L305.42,16L306.16,298.95L306.21,65.08L306.21,16L306.49,302.56L306.95,220.99L307.04,46.25L307.13,16L307.44,296.06L307.74,16L307.82,16L307.85,293.17L308.55,16L308.62,16L309.1,294.77L309.37,144.32L309.4,16L309.82,296.06L309.82,24.66L309.9,16L309.91,234.71L309.91,16L310,301.83L310.64,16L310.67,264.3L310.71,16L311.11,272.96L311.4,244.09L311.46,212.33L311.52,16L311.68,272.96L312.1,117.05L312.22,16L312.92,298.95L312.95,238.32L312.98,16L313.09,220.99L313.3,215.22L313.3,16L313.64,293.17L314.05,16L314.09,16L314.78,280.18L314.83,206.56L314.85,255.43L314.85,16L315.58,293.17L315.59,16L315.61,16L316.31,293.17L316.33,16L316.36,16L316.62,297.5L317.11,95.91L317.13,39.1L317.21,16L317.23,281.62L317.86,16L317.9,16L318.15,287.4L318.58,16L318.76,16L318.87,296.06L319.51,16L319.56,16L319.8,301.83L320.31,16L320.38,16L320.72,301.83L321.07,199.34L321.12,16L321.59,293.17L321.84,16L321.92,16L322.32,287.4L322.62,177.68L322.68,16L322.83,272.96L323.29,151.7L323.36,16L323.5,301.89L323.64,197.89L323.74,16L323.92,295.77L324.49,122.83L324.56,16L325.05,293.17L325.27,208.48L325.32,16L325.41,298.95L326.03,203.67L326.16,56.42L326.2,16L326.76,294.62L326.9,16L326.97,16L327.34,295.34L327.65,278.74L327.73,41.98L327.76,16L328.24,301.83L328.46,16L328.5,16L328.75,16L328.77,294.62L329.36,301.83L329.39,16L329.5,192.12L329.54,16L330.1,287.4L330.25,16L330.31,197.89L330.31,16L330.61,293.17L331.03,16L331.07,16L331.4,290.29L331.74,16L331.75,16L332.18,298.95L332.49,16L332.59,16L333.29,281.62L333.32,222.44L333.35,16L333.84,297.5L334.08,16L334.13,39.1L334.13,281.62L334.14,16L334.88,16L334.91,258.53L334.91,16L334.99,288.84L335.62,96.84L335.69,16L335.81,301.83L336.05,282.35L336.13,16L336.75,294.62L336.91,284.51L336.92,33.32L337.04,16L337.52,300.39L337.66,232.54L337.68,16L338.03,301.83L338.43,44.87L338.54,16L339.22,301.83L339.29,278.74L339.33,16L339.79,296.31L340.02,154.59L340.06,16L340.09,296.06L340.74,16L340.83,82.41L340.85,16L341.01,289.56L341.56,16L341.63,245.53L341.63,16L341.89,296.06L342.37,216.66L342.39,220.99L342.44,16L342.93,301.86L343.12,101.2L343.17,16L343.28,284.51L343.85,278.74L343.85,41.98L344.26,266.47L344.54,16L344.54,70.86L344.54,249.86L344.89,293.62L345.21,16L345.28,235.43L345.32,16L345.43,290.29L346.07,267.06L346.1,16L346.1,284.51L346.85,16L346.9,16L347.12,297.5L347.68,174.8L347.68,145.92L348.1,296.06L348.43,16L348.46,16L349.09,301.83L349.21,44.87L349.27,16L350.06,290.29L350.11,264.3L350.11,43.35L350.58,290.29L350.79,16L350.81,128.6L350.81,192.12L350.88,16L350.93,295.34L351.55,192.12L351.58,200.78L351.61,296.06L351.73,16L352.26,16L352.28,16L352.83,296.78L353.03,16L353.08,16L353.84,296.06L353.84,16L353.99,290.29L354.58,16L354.65,16L354.87,297.5L355.32,16L355.38,16L355.79,292.02L356.13,16L356.24,16L356.36,272.96L356.6,241.2L356.6,16L357.34,303.28L357.38,160.36L357.43,16L357.46,301.83L358.11,275.85L358.15,18.89L358.15,301.83L358.34,16L358.87,16L358.92,16L359.36,284.51L359.65,16L359.68,16L359.86,301.83L360.48,226.77L360.48,93.95L360.49,16L360.77,296.06L361.22,108.39L361.25,122.83L361.26,16L361.58,293.17L361.99,215.22L362.04,16L362.1,255.64L362.78,16L362.8,16L363.57,296.06L363.57,24.66L363.66,16L363.66,16L363.74,238.32L363.78,16L363.83,293.17L364.49,275.85L364.5,189.23L364.8,265.71L365.16,16L365.21,148.81L365.28,200.78L365.98,298.95L366.06,16L366.06,16L366.08,16L366.34,299.91L366.66,145.92L366.76,16L367.36,296.06L367.36,127.05L367.41,16L368.06,275.85L368.16,16L368.25,16L368.4,296.31L368.94,229.65L369.02,16L369.03,296.06L369.74,197.89L369.79,16L369.94,296.23L370.01,16L370.66,289.56L370.71,253.04L370.73,16L370.77,287.54L371.42,218.11L371.49,271.52L371.96,294.62L372.19,16L372.2,157.47L372.3,16L372.48,297.5L373.01,241.2L373.04,16L373.24,284.51L373.79,212.33L373.8,125.71L373.8,16L374.52,298.95L374.54,16L374.61,16L374.84,298.95L375,16L375.04,16L375.17,298.95L375.76,36.21L375.8,16L375.84,294.62L376.55,99.73L376.58,220.99L376.62,16L377.11,301.83L377.31,16L377.38,68.49L377.38,298.95L377.4,16L378.12,21.77L378.16,16L378.17,301.83L378.89,16L378.91,16L379.26,300.82L379.64,27.55L379.66,16L379.73,293.17L380.39,80.16L380.42,16L380.69,301.83L381.17,215.12L381.18,93.95L381.21,16L381.68,298.95L381.84,16L382,16L382.74,278.74L382.86,41.98L382.92,16L382.92,297.5L383.58,70.86L383.63,16L384.13,280.18L384.32,216.66L384.39,16L384.7,277.29L385.15,241.2L385.15,79.52L385.15,16L385.9,283.79L385.91,16L386.37,294.62L386.63,76.63L386.71,244.09L386.72,16L386.8,301.3L387.41,30.44L387.54,143.04L387.57,16L387.77,303.28L388.29,16L388.36,16L388.5,39.1L388.5,297.5L389.3,16L389.31,296.78L389.52,298.95L390.07,16L390.08,59.31L390.08,260.53L390.17,16L390.73,301.11L390.8,195.71L391.02,16L391.54,296.06L391.77,16L391.79,16L392.38,298.95L392.5,16L392.58,173.35L392.9,291.73L393.32,16L393.36,160.36L393.36,16L393.74,298.95L394.1,16L394.16,126.82L394.24,16L394.54,301.83L394.89,16L394.93,16L394.96,293.89L395.6,16L395.64,16L396.1,300.39L396.1,232.54L396.14,16L396.56,298.95L396.9,296.06L396.9,24.66L396.91,16L397.46,300.88L397.64,289.68L397.71,16L397.92,16L397.93,85.29L397.93,16L398.65,284.51L398.68,16L398.7,70.86L398.75,16L399.05,296.06L399.43,148.81L399.46,200.46L399.85,296.06L400.15,16L400.19,65.08L400.23,24.66L400.24,296.06L400.27,16L400.96,16L401.03,16L401.21,264.3L401.74,16L401.79,16L402.42,292.63L402.53,16L402.58,16L403.2,301.83L403.36,298.95L403.36,21.77L403.38,16L403.42,293.83L404.04,16L404.11,16L404.61,301.83L404.86,267.19L404.88,16L405.48,298.95L405.53,157.47L405.64,16L406.39,278.74L406.39,16L406.42,16L406.72,278.74L407.15,244.09L407.15,16L407.32,301.83L407.88,114.17L407.93,202.82L407.95,275.85L408.63,16L408.65,111.28L408.72,16L409.16,299.99L409.46,235.43L409.48,16L409.87,281.62L410.2,246.98L410.23,16L410.62,301.83L411.01,129.3L411.04,16L411.75,283.6L411.8,16L411.9,33.32L411.93,208.48L412.32,296.06L412.61,16L412.61,16L412.67,287.4L412.67,16L413.03,301.83L413.42,183.46L413.52,16L413.77,288.84L414.13,16L414.2,16L414.77,301.83L414.9,137.26L414.93,44.87L414.98,16L415,297.5L415.64,16L415.7,16L415.71,296.78L416.45,16L416.46,157.47L416.46,16L417.19,281.62L417.19,255.64L417.22,16L417.77,301.83L417.97,272.96L417.98,16L418.1,293.17L418.72,16L418.77,160.36L418.77,16L419.15,284.51L419.52,16L419.53,235.43L419.65,16L419.86,278.74L420.21,122.83L420.32,16L420.32,296.06L420.96,16L421.17,16L421.83,301.83L421.94,296.06L421.96,45.87L421.98,16L422.26,295.19L422.45,55.98L422.77,16L423,301.83L423.47,24.66L423.53,24.66L423.53,296.06L423.53,16L424.25,16L424.29,225.22L424.29,16L424.36,301.83L425.04,16L425.05,301.83L425.05,16L425.78,16L425.81,16L425.9,296.31L426.51,33.32L426.57,287.4L426.66,16L427.24,290.29L427.31,16L427.34,16L427.38,293.89L428.09,160.36L428.1,233.5L428.63,301.83L428.86,16L428.87,36.21L428.87,284.71L428.87,16L429.56,289.86L429.59,16L429.64,16L429.92,284.51L430.34,280.18L430.41,65.08L430.43,16L430.93,288.38L431.15,148.81L431.17,171.91L431.23,16L431.57,301.86L431.87,16L431.94,125.71L431.95,16L432.01,300.39L432.62,206.56L432.7,255.64L432.7,16L432.9,298.95L433.45,16L433.48,16L433.48,291.25L434.16,190.68L434.25,278.74L434.25,16L434.97,300.39L434.99,16L435.03,206.56L435.15,301.83L435.82,16L435.82,16L435.85,16L436.39,301.83L436.65,246.98L436.66,16L437.19,293.89L437.41,244.09L437.42,76.63L437.9,298.95L438.04,16L438.16,232.54L438.17,16L438.36,293.17L438.88,16L438.92,186.35L438.92,16L439.58,280.9L439.67,111.28L439.68,160.36L439.68,16L440.38,300.59L440.41,258.53L440.46,108.39L441.08,299.06L441.14,16L441.18,59.31L441.19,261.41L441.44,287.81L441.82,16L441.87,114.17L441.99,226.77L441.99,16L442.56,299.67L442.73,236.15L442.75,16L443.2,301.86L443.5,16L443.51,16L443.75,296.06L444.23,24.66L444.27,16L444.43,296.06L444.95,16L445.03,16L445.54,288.83L445.77,16L445.8,16L446.41,290.29L446.54,16L446.57,56.42L446.62,16L447.26,281.62L447.31,239.76L447.34,145.92L447.36,16L447.5,304L448.09,16L448.12,85.29L448.15,16L448.5,293.17L448.84,154.59L448.88,16L449.56,303.28L449.63,16L449.66,301.83L450.42,16L450.43,16L450.68,16L450.7,297.5L450.89,299.74L451.46,16L451.46,16L451.5,33.32L451.5,287.4L451.64,16L452.23,16L452.28,16L452.54,298.95L452.97,16L452.98,16L453.75,290.29L453.77,30.44L453.78,16L454.19,298.95L454.52,16L454.53,47.76L454.54,16L455.14,280.18L455.27,16L455.29,16L455.94,293.17L456.04,16L456.07,16L456.67,284.51L456.82,111.28L456.83,16L457.15,293.17L457.56,16L457.59,254.2L457.61,16L457.92,298.95L458.33,16L458.35,16L458.78,298.95L459.04,241.2L459.07,16L459.47,275.85L459.85,257.08L459.91,206.56L459.91,16L459.98,290.29L460.66,278.74L460.68,241.96L460.69,16L460.78,297.93L461.41,16L461.46,292.45L461.7,298.95L462.29,16L462.29,16L462.3,16L462.92,296.06L463.04,73.74L463.09,91.07L463.09,16L463.34,302.56L463.84,16L463.88,16L463.88,301.83L464.63,264.3L464.64,16L465.3,299.06L465.35,267.19L465.41,53.53L465.47,16L465.51,299.06L466.15,16L466.18,16L466.24,288.84L466.94,281.62L466.96,16L467.07,301.83L467.71,16L467.74,285.95L467.95,16L468.42,301.86L468.49,301.83L468.56,16L468.76,301.83L469.3,246.98L469.33,117.05L469.34,16L469.41,298.95L470.08,160.36L470.09,296.06L470.89,16L470.89,291.73L470.89,16L471.21,296.06L471.64,16L471.65,177.68L471.66,16L472.21,301.83L472.39,62.2L472.42,62.2L472.51,16L473.06,296.03L473.08,229.65L473.2,229.65L473.21,16L473.9,301.83L473.95,16L473.97,275.85L473.97,16L473.98,298.95L474.64,16L474.75,259.97L474.76,16L475.28,271.59L475.5,16L475.51,173.61L475.51,287.4L475.57,16L476.26,16L476.32,16L476.53,290.29L476.85,246.98L476.89,16L477.01,299.67L477.64,284.51L477.68,16L478.31,301.83L478.31,16L478.59,301.83L479.04,293.62L479.08,16L479.29,296.06L479.82,36.21L479.84,16L480.02,301.83L480.59,154.59L480.69,160.36L480.69,16L480.85,301.83L481.4,16L481.46,16L481.48,280.88L482.19,16L482.25,243.37L482.3,16L482.34,290.29L482.84,262.86L482.86,99.73L482.87,16L483.52,301.83L483.57,290.29L483.64,119.94L483.78,16L483.94,301.83L484.34,180.57L484.41,140.15L484.41,16L484.97,290.29L485.15,140.15L485.17,16L485.63,301.83L485.88,16L485.96,16L486.25,293.17L486.7,232.54L486.73,16L486.88,299.06L487.45,212.33L487.49,238.32L487.55,16L487.98,246.98L488.24,16L488.27,85.29L488.28,16L488.98,299.06L488.99,298.95L489.04,16L489.34,301.83L489.75,229.65L489.82,91.07L489.87,16L489.88,297.93L490.57,85.29L490.59,16L490.75,293.01L491.33,16L491.35,16L491.79,301.86L492.09,16L492.11,16L492.69,290.29L492.82,225.32L492.87,174.8L492.87,16L493.04,278.74L493.57,16L493.63,255.64L493.65,16L494.04,298.95L494.34,16L494.4,293.17L494.43,16L494.6,297.5L495.14,16L495.18,16L495.69,281.62L495.78,16L495.94,16L496.47,296.49L496.49,237.59L496.53,16L497.02,293.17L497.17,122.83L497.17,16L497.64,281.62L497.92,16L497.95,16L498.64,294.16L498.67,16L498.7,16L498.85,284.51L499.45,209.44L499.46,16L499.63,299.67L500.25,249.86L500.25,187.79L500.75,285.95L500.98,16L500.98,282.35L501.6,297.14L501.72,16L501.73,41.98L501.75,278.74L501.79,16L502.25,296.06L502.5,16L502.52,62.2L502.54,16L502.87,301.83L503.24,160.36L503.28,160.36L503.28,16L503.34,291.05L504.03,16L504.04,16L504.47,298.95L504.74,16L504.82,16L504.89,24.66L504.91,16L504.95,203.67L504.98,16L505.29,298.01L505.68,218.11L505.72,16L506.03,303.28L506.48,67.97L506.56,160.36L507.03,287.4L507.27,16L507.32,215.22L507.42,16L507.68,290.29L508.05,16L508.08,238.32L508.1,16L508.82,301.83L508.82,16L508.84,16L509.34,298.95L509.57,16L509.6,59.31L509.63,16L509.7,280.99L510.29,272.96L510.37,56.42L510.37,16L510.99,270.08L511,50.65" style="vector-effect: non-scaling-stroke; fill: none; stroke: rgb(99, 110, 250); stroke-opacity: 1; stroke-width: 2px; opacity: 1;"/></g><g class="points"/><g class="text"/></g></g></g><g class="overplot"/><path class="xlines-above crisp" d="M0,0" style="fill: none;"/><path class="ylines-above crisp" d="M0,0" style="fill: none;"/><g class="overlines-above"/><g class="xaxislayer-above"><g class="xtick"><text text-anchor="middle" x="0" y="436" transform="translate(198.19,0)" style="font-family: 'Times New Roman'; font-size: 15px; fill: rgb(13, 13, 13); fill-opacity: 1; white-space: pre; opacity: 1;">1.61252×10​<tspan style="font-size:70%" dy="-0.6em">18</tspan><tspan dy="0.42em">​</tspan></text></g><g class="xtick"><text text-anchor="middle" x="0" y="436" style="font-family: 'Times New Roman'; font-size: 15px; fill: rgb(13, 13, 13); fill-opacity: 1; white-space: pre; opacity: 1;" transform="translate(299.59000000000003,0)">1.612525×10​<tspan style="font-size:70%" dy="-0.6em">18</tspan><tspan dy="0.42em">​</tspan></text></g><g class="xtick"><text text-anchor="middle" x="0" y="436" style="font-family: 'Times New Roman'; font-size: 15px; fill: rgb(13, 13, 13); fill-opacity: 1; white-space: pre; opacity: 1;" transform="translate(400.99,0)">1.61253×10​<tspan style="font-size:70%" dy="-0.6em">18</tspan><tspan dy="0.42em">​</tspan></text></g><g class="xtick"><text text-anchor="middle" x="0" y="436" style="font-family: 'Times New Roman'; font-size: 15px; fill: rgb(13, 13, 13); fill-opacity: 1; white-space: pre; opacity: 1;" transform="translate(502.39,0)">1.612535×10​<tspan style="font-size:70%" dy="-0.6em">18</tspan><tspan dy="0.42em">​</tspan></text></g><g class="xtick"><text text-anchor="middle" x="0" y="436" style="font-family: 'Times New Roman'; font-size: 15px; fill: rgb(13, 13, 13); fill-opacity: 1; white-space: pre; opacity: 1;" transform="translate(603.79,0)">1.61254×10​<tspan style="font-size:70%" dy="-0.6em">18</tspan><tspan dy="0.42em">​</tspan></text></g></g><g class="yaxislayer-above"><g class="ytick"><text text-anchor="end" x="108" y="12.25" transform="translate(0,404.72)" style="font-family: 'Times New Roman'; font-size: 35px; fill: rgb(13, 13, 13); fill-opacity: 1; white-space: pre; opacity: 1;">0</text></g><g class="ytick"><text text-anchor="end" x="108" y="12.25" style="font-family: 'Times New Roman'; font-size: 35px; fill: rgb(13, 13, 13); fill-opacity: 1; white-space: pre; opacity: 1;" transform="translate(0,346.98)">20</text></g><g class="ytick"><text text-anchor="end" x="108" y="12.25" style="font-family: 'Times New Roman'; font-size: 35px; fill: rgb(13, 13, 13); fill-opacity: 1; white-space: pre; opacity: 1;" transform="translate(0,289.23)">40</text></g><g class="ytick"><text text-anchor="end" x="108" y="12.25" style="font-family: 'Times New Roman'; font-size: 35px; fill: rgb(13, 13, 13); fill-opacity: 1; white-space: pre; opacity: 1;" transform="translate(0,231.49)">60</text></g><g class="ytick"><text text-anchor="end" x="108" y="12.25" style="font-family: 'Times New Roman'; font-size: 35px; fill: rgb(13, 13, 13); fill-opacity: 1; white-space: pre; opacity: 1;" transform="translate(0,173.74)">80</text></g><g class="ytick"><text text-anchor="end" x="108" y="12.25" style="font-family: 'Times New Roman'; font-size: 35px; fill: rgb(13, 13, 13); fill-opacity: 1; white-space: pre; opacity: 1;" transform="translate(0,116)">100</text></g></g><g class="overaxes-above"/></g></g><g class="polarlayer"/><g class="smithlayer"/><g class="ternarylayer"/><g class="geolayer"/><g class="funnelarealayer"/><g class="pielayer"/><g class="iciclelayer"/><g class="treemaplayer"/><g class="sunburstlayer"/><g class="glimages"/><defs id="topdefs-60175b"><g class="clips"/></defs><g class="layer-above"><g class="imagelayer"/><g class="shapelayer"/></g><g class="infolayer"><g class="g-gtitle"/><g class="g-xtitle"><text class="xtitle" x="364.5" y="463.8" text-anchor="middle" style="font-family: 'Open Sans', verdana, arial, sans-serif; font-size: 14px; fill: rgb(42, 63, 95); opacity: 1; font-weight: normal; white-space: pre;">Time Steps (ns)</text></g><g class="g-ytitle" transform="translate(23.5,0)"><text class="ytitle" transform="rotate(-90,12.5,260)" x="12.5" y="260" text-anchor="middle" style="font-family: 'Times New Roman'; font-size: 40px; fill: rgb(13, 13, 13); opacity: 1; font-weight: normal; white-space: pre;">Fill rate (in %)</text></g></g></svg>