<svg class="main-svg" xmlns="http://www.w3.org/2000/svg" xmlns:xlink="http://www.w3.org/1999/xlink" width="700" height="500" style="" viewBox="0 0 700 500"><rect x="0" y="0" width="700" height="500" style="fill: rgb(255, 255, 255); fill-opacity: 1;"/><defs id="defs-a6c168"><g class="clips"><clipPath id="clipa6c168xyplot" class="plotclip"><rect width="399" height="300"/></clipPath><clipPath class="axesclip" id="clipa6c168x"><rect x="137" y="0" width="399" height="500"/></clipPath><clipPath class="axesclip" id="clipa6c168y"><rect x="0" y="100" width="700" height="300"/></clipPath><clipPath class="axesclip" id="clipa6c168xy"><rect x="137" y="100" width="399" height="300"/></clipPath></g><g class="gradients"/><g class="patterns"/></defs><g class="bglayer"><rect class="bg" x="137" y="100" width="399" height="300" style="fill: rgb(229, 236, 246); fill-opacity: 1; stroke-width: 0;"/></g><g class="layer-below"><g class="imagelayer"/><g class="shapelayer"/></g><g class="cartesianlayer"><g class="subplot xy"><g class="layer-subplot"><g class="shapelayer"/><g class="imagelayer"/></g><g class="minor-gridlayer"><g class="x"/><g class="y"/></g><g class="gridlayer"><g class="x"><path class="xgrid crisp" transform="translate(206.64,0)" d="M0,100v300" style="stroke: rgb(255, 255, 255); stroke-opacity: 1; stroke-width: 1px;"/><path class="xgrid crisp" transform="translate(285.82,0)" d="M0,100v300" style="stroke: rgb(255, 255, 255); stroke-opacity: 1; stroke-width: 1px;"/><path class="xgrid crisp" transform="translate(364.99,0)" d="M0,100v300" style="stroke: rgb(255, 255, 255); stroke-opacity: 1; stroke-width: 1px;"/><path class="xgrid crisp" transform="translate(444.17,0)" d="M0,100v300" style="stroke: rgb(255, 255, 255); stroke-opacity: 1; stroke-width: 1px;"/><path class="xgrid crisp" transform="translate(523.3399999999999,0)" d="M0,100v300" style="stroke: rgb(255, 255, 255); stroke-opacity: 1; stroke-width: 1px;"/></g><g class="y"><path class="ygrid crisp" transform="translate(0,369.13)" d="M137,0h399" style="stroke: rgb(255, 255, 255); stroke-opacity: 1; stroke-width: 1px;"/><path class="ygrid crisp" transform="translate(0,329.41999999999996)" d="M137,0h399" style="stroke: rgb(255, 255, 255); stroke-opacity: 1; stroke-width: 1px;"/><path class="ygrid crisp" transform="translate(0,289.71000000000004)" d="M137,0h399" style="stroke: rgb(255, 255, 255); stroke-opacity: 1; stroke-width: 1px;"/><path class="ygrid crisp" transform="translate(0,210.29000000000002)" d="M137,0h399" style="stroke: rgb(255, 255, 255); stroke-opacity: 1; stroke-width: 1px;"/><path class="ygrid crisp" transform="translate(0,170.57999999999998)" d="M137,0h399" style="stroke: rgb(255, 255, 255); stroke-opacity: 1; stroke-width: 1px;"/><path class="ygrid crisp" transform="translate(0,130.87)" d="M137,0h399" style="stroke: rgb(255, 255, 255); stroke-opacity: 1; stroke-width: 1px;"/></g></g><g class="zerolinelayer"><path class="yzl zl crisp" transform="translate(0,250)" d="M137,0h399" style="stroke: rgb(255, 255, 255); stroke-opacity: 1; stroke-width: 2px;"/></g><path class="xlines-below"/><path class="ylines-below"/><g class="overlines-below"/><g class="xaxislayer-below"/><g class="yaxislayer-below"/><g class="overaxes-below"/><g class="plot" transform="translate(137,100)" clip-path="url(#clipa6c168xyplot)"><g class="scatterlayer mlayer"><g class="trace scatter trace1c83f7" style="stroke-miterlimit: 2; opacity: 1;"><g class="fills"/><g class="errorbars"/><g class="lines"><path class="js-line" d="M0,257.19L0.14,15L0.71,142.06L0.74,165.88L1.42,126.17L1.46,173.83L1.49,142.06L1.51,165.88L1.68,98.38L1.76,102.35L1.77,205.59L1.78,213.53L1.87,102.35L2.43,161.91L2.49,161.91L2.68,177.79L3.12,130.15L3.23,142.06L3.23,165.88L3.85,181.76L3.92,130.15L4.05,142.06L4.05,157.94L4.36,177.79L4.37,106.33L4.74,138.09L4.87,142.06L5.15,177.79L5.28,114.27L5.63,161.91L5.64,138.09L5.76,114.27L5.93,185.73L6.27,153.97L6.28,118.24L6.75,173.82L7.03,165.88L7.06,161.91L7.51,114.27L7.57,181.76L7.79,130.15L7.86,134.12L8.25,118.24L8.27,177.79L8.61,142.06L8.71,146.03L8.76,161.91L8.79,134.12L8.97,142.06L8.99,86.49L9.14,122.21L9.15,146.03L9.23,130.15L9.5,185.72L9.83,130.15L9.92,130.15L10.02,118.25L10.67,165.88L10.67,150L10.71,130.15L10.74,165.88L11.46,146.03L11.48,153.97L11.58,197.64L11.74,130.15L12.15,142.06L12.15,165.88L12.39,177.79L12.83,138.09L12.9,146.03L12.92,161.91L12.95,122.21L13.58,169.85L13.64,142.06L13.66,157.94L13.95,185.73L14.27,126.18L14.41,142.06L14.45,150L14.8,102.38L15.05,177.79L15.19,130.15L15.22,150L15.43,126.18L15.56,193.66L15.77,165.88L15.79,126.18L16.36,193.66L16.49,122.22L16.56,153.97L16.62,161.91L16.69,118.25L17.28,161.91L17.34,142.06L17.34,181.75L17.38,118.25L18.04,161.91L18.12,138.1L18.35,173.81L18.78,118.25L18.89,150L18.93,142.06L19.49,122.22L19.54,189.68L19.67,169.84L19.72,169.84L20,130.16L20.46,134.13L20.49,153.97L20.53,134.13L20.72,173.81L21.22,150L21.25,146.03L21.82,130.16L21.94,169.84L21.96,146.03L22.03,146.03L22.24,161.91L22.39,134.13L22.64,146.03L22.67,142.06L22.98,173.81L23.16,130.16L23.33,157.94L23.33,134.13L23.7,130.16L23.99,181.75L24.04,157.94L24.11,142.06L24.23,110.31L24.53,173.81L24.75,161.91L24.77,130.16L24.79,169.84L25.51,153.97L25.57,146.03L25.62,173.81L25.77,130.16L26.3,130.16L26.33,146.03L26.39,185.72L27.07,122.22L27.07,177.78L27.17,126.19L27.25,177.78L27.98,173.81L28.01,142.06L28.22,142.06L28.22,142.06L28.24,157.94L28.86,122.22L28.9,177.78L28.98,150L29.04,150L29.57,181.75L29.64,122.21L29.67,181.75L30.16,122.22L30.35,138.09L30.45,146.03L30.82,122.21L30.98,201.6L31.18,181.76L31.21,177.79L31.41,185.72L31.7,134.12L31.92,146.03L31.94,209.55L32.2,126.18L32.69,189.7L32.71,153.97L33.08,122.21L33.09,181.76L33.45,150L33.45,157.94L33.63,106.33L34.04,177.79L34.18,150L34.22,173.82L34.27,181.76L34.72,130.15L35,150L35.01,157.94L35.06,94.42L35.08,205.58L35.76,138.09L35.76,177.79L35.9,201.62L36.06,78.53L36.51,146.03L36.51,185.73L36.55,205.59L36.56,82.5L37.26,146.03L37.27,153.97L37.59,213.53L37.61,102.35L37.99,153.97L38.01,201.63L38.01,217.52L38.12,58.63L38.71,94.4L38.82,193.68L38.89,86.45L39.52,138.09L39.59,161.91L39.66,126.18L39.81,177.79L40.22,157.94L40.22,165.88L40.54,114.26L40.54,189.71L40.96,157.94L41.05,138.09L41.4,177.79L41.71,102.36L41.78,146.03L41.83,185.72L42.52,189.7L42.52,110.3L42.59,118.24L42.69,142.06L43.29,106.33L43.37,185.73L43.41,126.18L43.45,106.33L43.47,70.6L43.55,233.37L44.17,126.18L44.24,146.03L44.76,177.79L44.95,110.3L44.99,146.03L45.01,165.87L45.24,197.63L45.49,118.25L45.75,169.85L45.78,157.94L45.89,114.28L46.07,181.75L46.53,153.97L46.54,153.97L46.85,177.78L47.17,122.21L47.23,165.88L47.23,197.63L47.67,98.4L47.98,193.66L48,153.97L48.06,189.69L48.48,122.22L48.76,142.06L48.79,146.03L49.1,98.4L49.21,213.49L49.5,161.9L49.56,142.06L50.05,118.25L50.12,189.68L50.31,130.15L50.34,130.15L50.36,173.82L50.86,122.22L51.03,150L51.1,157.94L51.31,205.56L51.36,106.34L51.84,142.06L51.96,146.03L52.25,185.72L52.41,126.19L52.69,138.09L52.7,138.09L52.99,102.38L53.04,205.56L53.27,142.06L53.28,142.06L53.66,118.25L53.81,181.75L54.03,142.06L54.05,153.97L54.45,122.22L54.54,201.59L54.73,130.16L54.81,126.19L55.11,185.72L55.24,114.28L55.54,142.06L55.57,138.09L55.83,114.28L55.85,201.6L56.3,134.13L56.32,134.13L56.71,126.19L56.76,181.75L57.05,165.88L57.08,134.12L57.62,173.81L57.66,114.29L57.83,157.94L57.85,157.94L58.14,122.22L58.38,185.71L58.57,146.03L58.6,146.03L58.94,173.81L59.08,126.19L59.18,146.03L59.21,134.12L59.67,110.31L59.67,189.69L59.95,146.03L59.98,138.09L60.24,165.88L60.36,110.31L60.72,146.03L60.78,161.91L60.88,193.66L61.43,114.27L61.47,146.03L61.48,173.81L61.58,110.31L62.1,173.82L62.19,146.03L62.24,142.06L62.66,122.21L62.66,177.79L62.98,165.87L63.01,165.87L63.43,114.28L63.58,189.69L63.75,165.87L63.75,181.75L63.77,114.28L64.4,161.91L64.45,153.97L64.69,225.39L64.71,86.51L65.11,161.91L65.14,138.09L65.26,185.72L65.36,126.19L65.89,165.88L65.9,165.88L66.02,118.25L66.13,205.56L66.6,169.84L66.71,181.75L66.73,106.35L66.73,185.72L67.41,161.9L67.45,157.94L67.93,213.48L67.96,78.58L68.2,118.25L68.25,110.31L68.85,181.75L68.92,106.34L69.03,185.72L69.41,197.61L69.77,98.41L69.78,130.16L69.79,177.78L69.87,193.65L70.47,106.35L70.47,106.35L70.54,185.72L70.73,213.49L70.73,114.28L71.26,130.16L71.34,173.81L71.88,185.7L72.09,94.46L72.1,126.2L72.12,161.9L72.58,106.35L72.68,213.48L72.82,161.9L72.86,146.03L73.14,197.61L73.53,110.33L73.6,130.16L73.62,126.19L74.25,193.64L74.39,157.94L74.43,157.94L74.93,118.26L75.18,185.71L75.18,181.74L75.19,142.06L75.52,173.81L75.56,126.19L75.94,130.16L75.96,169.84L76.01,173.81L76.67,122.23L76.71,165.87L76.76,146.03L76.79,185.7L77.39,130.16L77.52,173.8L77.62,142.06L77.9,122.22L78.09,205.54L78.23,138.1L78.26,106.35L78.26,78.58L78.46,233.31L79,173.81L79.05,161.9L79.62,185.71L79.63,110.32L79.8,130.16L79.86,165.87L80,118.25L80.12,209.52L80.59,169.84L80.61,177.78L80.72,122.22L81.15,157.94L81.15,189.67L81.3,66.71L81.33,201.56L81.85,185.7L81.92,161.9L81.93,126.2L82.66,213.47L82.66,181.74L82.7,177.77L82.95,98.43L82.96,217.44L83.43,134.13L83.46,157.94L83.97,189.68L84,110.32L84.11,181.74L84.21,134.13L84.65,189.68L84.81,118.26L84.97,146.03L84.97,130.16L85.42,126.19L85.47,197.61L85.8,169.84L85.82,130.16L86.09,118.26L86.18,193.65L86.57,142.06L86.59,157.94L86.67,130.16L87.11,173.81L87.29,150L87.34,153.97L87.7,197.62L87.73,106.35L88.07,165.87L88.11,134.13L88.24,185.72L88.59,118.26L88.84,130.16L88.94,142.06L89.5,205.55L89.52,122.22L89.6,181.75L89.7,146.03L89.74,181.75L90.44,118.25L90.45,126.19L90.49,161.91L90.98,193.66L91.23,118.25L91.24,157.94L91.28,153.97L91.37,110.32L91.44,181.74L92,130.16L92.04,169.84L92.11,58.7L92.15,217.47L92.75,118.24L92.8,150L92.94,114.28L92.94,185.72L93.53,146.03L93.58,146.03L93.71,126.18L94.24,173.82L94.31,161.91L94.37,114.27L94.59,102.36L94.86,173.82L95.1,146.03L95.17,138.09L95.62,181.76L95.73,114.28L95.81,146.03L95.91,134.12L96.64,98.41L96.65,185.71L96.7,197.62L96.7,205.56L96.84,86.5L97.43,130.16L97.46,165.87L97.46,122.22L98.01,173.81L98.19,146.03L98.22,150L98.7,201.6L98.76,106.33L98.78,169.85L98.86,110.3L99.24,189.69L99.4,78.55L99.61,146.03L99.69,153.97L99.84,122.21L100.1,181.75L100.36,150L100.4,161.91L100.87,181.75L100.94,122.22L101.04,130.16L101.04,169.84L101.22,189.69L101.28,110.31L101.76,146.03L101.8,138.09L101.85,130.16L102,165.87L102.52,142.06L102.54,157.94L102.72,122.22L103.22,177.78L103.29,130.16L103.29,146.03L103.7,122.22L104.02,177.78L104.03,161.91L104.11,138.09L104.78,185.72L104.8,118.25L104.86,169.84L104.87,130.16L104.99,110.31L105.43,185.72L105.62,165.88L105.63,142.06L105.66,177.78L106.15,118.25L106.33,150L106.33,134.12L106.53,126.19L106.62,157.94L106.63,138.09L106.65,173.81L107.37,110.31L107.45,118.25L107.45,102.37L108.17,181.75L108.22,118.25L108.26,110.31L108.67,193.66L108.94,126.19L109.03,138.09L109.05,126.19L109.61,173.81L109.75,161.91L109.83,138.09L109.98,189.69L109.98,110.31L110.57,165.87L110.57,134.13L111.21,181.75L111.24,118.25L111.29,177.78L111.32,114.28L111.62,193.65L112.05,134.13L112.1,134.13L112.22,221.42L112.23,78.58L112.83,146.03L112.86,146.03L113.32,114.29L113.37,185.71L113.56,153.97L113.58,130.16L114.31,78.59L114.32,217.44L114.35,217.43L115.04,74.62L115.05,241.24L115.08,146.03L115.18,153.97L115.22,241.23L115.36,66.68L115.9,130.16L115.94,130.17L115.94,114.29L116.23,173.8L116.69,138.1L116.72,161.9L116.89,181.74L117.09,126.2L117.49,146.03L117.5,161.9L117.76,126.2L118.11,197.6L118.22,126.2L118.24,138.1L118.27,169.83L118.36,106.37L118.98,153.97L119,153.97L119.23,181.73L119.28,106.36L119.63,165.87L119.68,197.61L119.68,122.23L120.43,161.9L120.45,161.9L120.76,118.27L120.76,181.73L121.15,150L121.17,153.97L121.7,181.73L121.89,58.77L121.92,126.2L121.97,118.27L122.36,229.32L122.51,90.51L122.7,126.2L122.7,118.27L122.89,102.41L122.99,193.63L123.44,153.97L123.49,153.97L123.88,185.7L124.02,126.2L124.2,157.93L124.2,142.07L124.3,177.76L124.76,130.17L124.8,169.83L124.84,169.83L124.94,118.27L125.21,193.63L125.34,142.07L125.35,181.73L125.38,185.7L125.56,122.23L125.72,153.97L125.72,130.17L125.76,185.69L126.43,122.24L126.47,161.9L126.58,177.76L127.26,126.2L127.34,157.93L127.36,173.8L127.87,126.2L128.1,142.07L128.14,142.07L128.7,122.24L128.94,197.6L128.96,150L128.98,126.2L129.54,189.67L129.71,138.1L129.74,169.83L129.86,118.26L130.15,189.67L130.51,138.1L130.53,150L130.63,130.17L131.17,173.8L131.25,146.03L131.31,146.03L131.46,130.17L131.72,173.8L132.03,134.13L132.11,150L132.22,134.13L132.75,181.73L132.8,118.27L132.81,177.76L133.54,169.83L133.56,130.17L133.92,173.8L134.26,114.3L134.3,130.17L134.37,169.83L134.78,110.33L134.86,189.67L135.08,130.17L135.15,169.83L135.48,193.63L135.65,118.27L135.9,150L135.91,150L135.98,189.67L136.66,106.37L136.66,153.97L136.69,173.8L137.11,122.24L137.43,197.58L137.48,189.65L137.64,114.31L137.69,197.59L138.19,165.87L138.24,161.9L138.29,130.17L138.31,169.83L139,142.07L139,165.86L139.27,177.76L139.27,118.27L139.75,153.97L139.78,153.97L140.43,177.77L140.51,106.36L140.55,134.13L140.63,161.9L141.28,181.74L141.39,118.26L141.39,189.67L141.45,114.3L142.12,169.83L142.16,138.1L142.43,118.26L142.79,189.67L142.87,177.77L142.9,122.23L143.4,94.44L143.48,205.56L143.64,126.2L143.66,157.93L144.27,106.35L144.36,205.55L144.4,150L144.42,118.26L144.43,102.39L144.49,177.77L145.11,161.9L145.18,157.93L145.35,134.13L145.47,169.84L145.92,146.03L145.94,150L146.32,185.71L146.33,98.41L146.69,122.22L146.72,130.16L147.02,122.22L147.4,185.72L147.47,138.1L147.5,169.84L147.51,106.35L147.7,189.68L148.22,134.13L148.28,157.94L148.55,177.78L148.62,114.28L149.06,146.03L149.08,153.97L149.51,237.31L149.6,66.65L149.85,134.13L149.86,142.06L150.35,169.84L150.36,126.19L150.61,142.06L150.65,146.03L151.16,173.81L151.26,122.22L151.31,157.94L151.42,118.25L152.06,181.75L152.07,114.28L152.19,153.97L152.2,118.25L152.2,114.28L152.25,185.72L152.95,161.91L153.01,153.97L153.08,122.22L153.29,173.81L153.45,126.19L153.45,173.81L153.71,185.72L154.07,102.38L154.14,110.32L154.14,197.62L154.15,86.51L154.87,157.94L154.9,146.03L155.32,110.32L155.33,189.68L155.61,146.03L155.61,142.06L155.98,189.68L156.03,98.42L156.33,146.03L156.38,153.97L156.99,118.25L157.01,189.68L157.1,142.06L157.18,146.03L157.49,94.44L157.75,181.75L157.9,177.78L157.95,126.19L158.22,185.72L158.27,110.32L158.55,150L158.56,153.97L158.74,161.9L159.12,118.26L159.28,146.03L159.51,130.16L159.88,173.81L160.03,157.94L160.04,142.06L160.2,193.65L160.22,122.22L160.34,142.06L160.35,110.32L161.07,177.78L161.08,157.94L161.15,157.94L161.26,177.78L161.81,130.16L161.86,161.91L162.07,177.78L162.14,122.22L162.61,157.94L162.63,157.94L162.8,189.68L163.31,102.38L163.4,130.16L163.51,122.22L163.7,161.91L163.87,126.19L163.9,157.94L163.97,181.75L164.03,94.45L164.63,142.06L164.67,161.91L164.68,181.75L165.32,122.22L165.4,177.78L165.43,134.13L165.91,90.49L166.03,197.61L166.12,130.16L166.15,130.16L166.16,122.23L166.91,177.77L167,173.8L167,181.74L167.01,118.26L167.75,153.97L167.78,146.03L168.13,181.74L168.16,102.39L168.49,142.06L168.49,181.74L169.11,118.26L169.2,138.1L169.27,157.94L169.7,86.52L169.77,221.4L169.98,126.2L170.07,150L170.37,98.43L170.77,225.37L170.82,169.83L170.88,169.83L171.01,118.27L171.05,181.73L171.63,130.17L171.65,169.83L171.74,130.17L171.93,181.73L172.35,138.1L172.35,165.86L172.62,181.73L173.01,122.24L173.07,146.03L173.07,173.8L173.47,213.45L173.74,122.24L173.85,138.1L173.86,157.93L174.1,173.8L174.24,122.23L174.61,142.07L174.64,157.93L174.8,102.4L174.84,201.56L175.38,122.24L175.42,165.86L175.42,197.59L176.08,118.27L176.17,122.24L176.19,177.76L176.24,181.73L176.81,106.38L176.93,169.83L176.95,146.03L177.45,102.41L177.58,185.69L177.71,153.97L177.72,150L177.73,86.56L178.23,185.69L178.46,161.9L178.5,153.97L178.56,197.58L178.59,110.34L179.17,122.24L179.21,122.24L179.54,66.73L179.57,253.06L179.94,157.93L180.03,157.93L180.26,181.73L180.31,126.21L180.76,142.07L180.79,165.86L180.8,118.28L180.91,185.69L181.49,138.1L181.55,181.72L181.67,110.35L182.3,138.1L182.31,146.03L182.37,110.35L182.4,177.76L183.05,165.86L183.07,153.97L183.4,193.61L183.64,118.28L183.75,146.03L183.83,142.07L183.95,122.24L184,173.79L184.26,146.03L184.26,130.17L184.26,114.31L184.29,185.69L184.99,130.17L185.03,165.86L185.21,173.79L185.31,118.28L185.71,161.9L185.73,138.1L186.04,110.36L186.36,205.51L186.5,157.93L186.51,138.1L186.78,102.42L187.28,201.55L187.3,161.9L187.31,114.31L187.31,189.65L188.04,142.07L188.06,146.03L188.45,193.62L188.59,114.31L188.81,118.28L188.82,118.27L189.2,98.43L189.22,201.57L189.55,114.3L189.59,150L189.82,229.33L190.04,118.27L190.34,161.9L190.35,169.83L190.69,122.23L190.86,197.59L191.11,138.1L191.11,157.93L191.68,193.62L191.74,114.31L191.86,118.27L191.88,114.31L191.88,98.45L192.62,177.76L192.7,153.97L193.27,197.59L193.28,106.37L193.43,142.07L193.45,157.93L193.68,185.69L193.83,102.41L194.2,142.07L194.24,138.1L194.26,197.58L194.27,126.21L194.99,150L194.99,134.14L195.24,177.76L195.28,126.21L195.28,118.27L195.34,126.21L195.34,98.45L195.35,205.52L195.38,98.44L196.05,126.2L196.13,134.14L196.36,110.34L196.6,181.73L196.77,153.97L196.78,118.27L196.87,197.59L197.13,106.38L197.52,150L197.56,146.03L197.71,118.27L197.74,177.76L198.27,150L198.33,150L198.81,181.74L198.82,114.3L199.1,142.06L199.11,157.94L199.48,94.45L199.5,197.62L199.84,153.97L199.84,177.77L199.85,106.36L199.9,201.57L200.56,181.73L200.6,157.93L200.6,181.73L200.64,114.3L201.35,134.13L201.36,142.06L201.54,173.81L201.78,114.3L202.08,150L202.1,126.2L202.3,118.26L202.77,173.8L202.84,157.93L202.93,169.83L202.93,177.77L203.41,90.5L203.59,114.3L203.69,146.03L203.71,122.24L204.2,185.7L204.37,134.13L204.46,134.13L204.9,189.67L205.1,94.47L205.31,146.03L205.47,122.24L205.63,173.8L206.1,130.17L206.12,138.1L206.17,126.2L206.56,181.73L206.87,146.03L206.88,153.97L207.33,197.6L207.34,102.4L207.61,153.97L207.64,153.97L207.64,114.3L208.19,181.74L208.36,130.16L208.45,153.97L209,221.41L209.16,78.57L209.16,86.51L209.24,169.84L209.34,74.61L209.38,173.8L209.99,153.97L210.04,177.77L210.6,185.7L210.81,106.36L210.81,106.36L210.83,185.7L210.83,193.64L210.87,118.26L211.58,138.1L211.59,130.16L211.93,118.26L212.26,205.54L212.27,114.3L212.8,181.74L213.05,138.1L213.07,142.07L213.41,177.77L213.8,118.26L213.8,150L213.87,181.74L213.92,193.64L214,102.39L214.65,134.13L214.67,153.97L214.79,110.32L215.4,197.61L215.41,150L215.45,142.07L215.58,209.49L215.59,82.56L216.16,134.13L216.23,165.87L216.47,217.44L216.52,70.66L216.97,86.52L217.05,181.74L217.13,110.33L217.78,146.03L217.82,157.93L218.39,209.51L218.42,86.52L218.57,134.13L218.66,142.06L218.72,205.56L219.1,90.48L219.26,134.13L219.35,157.93L219.8,173.8L219.98,114.29L220.09,126.2L220.11,189.67L220.63,94.46L220.71,193.64L220.81,157.93L220.83,181.74L221.43,185.71L221.57,114.29L221.58,169.84L221.6,193.64L221.9,118.26L222.32,122.23L222.38,126.19L222.38,118.26L222.38,181.74L223.08,153.97L223.14,146.03L223.32,114.3L223.62,165.87L223.89,157.93L223.93,150L223.96,122.23L224.49,169.84L224.68,153.97L224.69,153.97L224.91,126.19L224.92,181.74L225.44,153.97L225.46,165.87L225.54,114.29L225.58,177.77L226.2,134.13L226.25,146.03L226.26,185.71L226.28,122.23L227,165.87L227,130.16L227.42,201.57L227.6,98.43L227.71,134.13L227.8,165.87L227.8,126.2L228.52,150L228.56,157.93L228.81,181.73L228.95,118.27L229.32,122.23L229.36,142.07L229.36,102.39L229.52,189.67L230.06,146.03L230.12,142.07L230.29,34.98L230.63,173.8L230.87,54.82L230.89,161.9L230.94,78.6L231.39,181.73L231.62,165.87L231.7,150L232.12,205.52L232.33,94.48L232.44,138.1L232.47,138.1L232.6,66.74L232.8,209.47L233.22,157.93L233.26,146.03L233.36,185.68L233.64,126.21L233.99,142.07L234,153.96L234.1,138.11L234.18,177.75L234.18,217.41L234.22,110.35L234.92,189.65L234.94,189.65L235.03,98.45L235.03,201.55L235.7,142.07L235.7,165.86L235.88,126.21L235.95,177.75L236.44,142.07L236.46,161.89L236.79,134.14L236.84,169.83L236.84,161.9L236.89,134.14L237.34,173.79L237.63,134.14L237.64,134.14L237.78,110.34L237.88,189.65L238.35,126.21L238.39,126.21L238.69,102.41L238.89,209.47L239.11,153.96L239.15,134.14L239.21,102.43L239.32,197.56L239.87,177.75L239.9,130.17L239.96,102.41L239.97,181.72L240.65,169.83L240.66,153.97L240.92,118.27L240.98,189.66L241.32,150L241.35,126.21L241.35,118.28L241.92,193.62L242.08,134.14L242.11,142.07L242.58,185.68L242.66,118.28L242.85,142.07L242.9,157.93L243.09,181.72L243.32,118.28L243.57,146.04L243.59,161.89L243.81,114.32L244.16,169.82L244.34,138.11L244.36,150L244.47,205.49L244.67,106.4L245.1,150L245.13,150L245.79,181.72L245.85,102.43L245.88,181.71L245.9,157.93L245.96,114.32L246.47,181.71L246.62,146.04L246.63,153.96L247.02,201.53L247.21,122.25L247.36,165.86L247.39,138.11L247.7,106.39L247.72,193.61L248.14,142.07L248.2,118.28L248.33,86.56L248.41,201.54L248.95,157.93L248.97,130.18L248.98,185.68L249.67,118.29L249.7,130.18L249.77,138.11L249.98,185.68L250.16,114.32L250.52,161.89L250.53,150L250.98,181.71L251.07,102.44L251.28,157.93L251.29,146.04L251.62,177.75L251.63,118.28L252.02,153.96L252.05,130.18L252.33,193.61L252.43,82.6L252.79,181.72L252.89,185.68L253.12,126.21L253.2,209.47L253.57,142.07L253.58,165.86L253.96,118.29L254.24,181.71L254.33,146.04L254.34,177.74L254.92,126.21L255.1,146.04L255.13,169.82L255.25,213.42L255.84,98.48L255.84,114.33L255.9,138.11L256.11,114.33L256.12,205.49L256.59,157.93L256.66,142.07L257.02,126.22L257.25,193.6L257.33,185.67L257.35,98.47L257.75,209.45L258.2,181.71L258.21,146.04L258.45,181.71L258.48,130.18L258.93,134.15L258.98,142.07L259.43,98.48L259.51,217.36L259.69,189.63L259.7,134.15L260.04,213.4L260.05,86.6L260.44,157.93L260.48,157.93L260.82,126.22L260.91,185.67L261.23,126.22L261.26,173.78L261.66,177.74L261.7,122.26L262.03,165.85L262.06,157.93L262.59,193.6L262.64,94.5L262.77,153.96L262.9,138.11L263.21,94.49L263.33,221.36L263.65,153.96L263.65,138.11L263.95,205.49L263.96,110.36L264.01,201.53L264.03,201.53L264.09,217.39L264.52,138.11L264.57,150L264.58,134.15L264.62,201.53L264.76,122.25L265.3,177.75L265.31,122.25L265.42,110.36L265.73,177.75L266.06,150L266.13,165.86L266.41,106.39L266.63,205.49L266.83,153.96L266.96,153.96L267.15,165.86L267.33,122.25L267.71,142.07L267.72,165.86L267.81,177.75L268.38,130.18L268.49,157.93L268.5,157.93L268.77,118.29L269.04,189.64L269.25,142.07L269.29,146.04L269.9,114.32L269.95,189.64L270.03,118.29L270.06,138.11L270.38,126.22L270.56,169.82L270.87,157.93L270.91,146.04L271.42,98.47L271.42,201.53L271.58,134.14L271.63,189.64L271.66,193.6L271.68,106.4L272,138.11L272,177.74L272.59,126.22L272.81,134.15L272.81,169.82L272.81,177.74L273.33,122.26L273.55,142.07L273.59,157.93L273.78,169.81L273.82,126.22L273.94,130.18L273.95,181.7L273.98,114.33L274.01,185.67L274.39,177.73L274.43,138.11L274.55,185.67L274.8,126.22L275.13,165.85L275.15,142.07L275.22,114.34L275.74,197.56L275.9,153.96L275.92,157.93L276.16,197.55L276.18,94.52L276.66,146.04L276.69,138.11L277.17,110.38L277.18,189.62L277.34,157.93L277.38,114.33L277.39,185.67L278.08,181.7L278.16,165.85L278.48,90.56L278.52,205.48L278.84,153.96L278.94,165.85L278.94,241.14L278.98,86.58L279.65,181.7L279.71,150L279.97,114.33L280.4,181.71L280.42,138.11L280.44,138.11L280.7,106.41L280.74,213.41L281.18,201.52L281.19,114.33L281.19,98.48L281.34,177.74L281.92,146.04L281.98,142.07L282.12,106.4L282.48,189.63L282.74,165.85L282.74,146.04L282.78,197.56L283.08,114.33L283.48,157.93L283.52,153.96L283.63,130.18L283.65,165.85L284.27,161.89L284.28,126.22L284.42,189.63L284.61,98.49L285.04,165.85L285.04,126.22L285.16,102.44L285.54,173.78L285.73,146.04L285.74,138.11L286.38,106.4L286.45,197.56L286.5,197.56L286.79,114.33L286.84,205.48L287.25,138.11L287.25,177.74L287.29,122.26L288,146.04L288.02,150L288.15,173.78L288.5,130.19L288.74,157.92L288.79,157.92L289.28,177.74L289.29,122.26L289.52,153.96L289.64,153.96L290.14,126.22L290.26,181.7L290.35,181.7L290.37,181.7L290.77,98.48L290.79,193.6L291.13,153.96L291.14,169.81L291.28,122.26L291.37,177.74L291.83,153.96L291.87,150L292.04,209.44L292.16,82.63L292.61,130.18L292.63,134.14L293.02,185.67L293.05,122.25L293.38,157.93L293.39,157.93L293.6,110.37L293.61,189.63L294.1,173.78L294.15,122.26L294.37,110.37L294.53,181.71L294.88,150L294.93,165.86L294.93,126.21L295.32,181.71L295.67,153.96L295.69,153.96L295.91,169.83L296.08,110.35L296.43,153.96L296.45,153.96L296.75,193.61L296.75,94.5L297.17,134.14L297.22,157.93L297.3,114.31L297.31,185.69L297.97,142.07L297.98,161.89L298.03,173.79L298.1,126.21L298.5,146.03L298.5,153.97L298.97,185.69L299,114.31L299.14,122.24L299.15,161.89L299.31,173.79L299.57,114.31L299.87,130.18L299.88,177.75L300,193.61L300.15,122.24L300.59,134.14L300.67,146.04L300.87,126.21L300.98,173.79L301.42,146.04L301.44,146.04L301.81,106.39L302.14,189.64L302.17,169.82L302.19,157.93L302.28,213.43L302.33,122.25L302.91,130.18L303,130.18L303.54,114.32L303.6,173.79L303.76,165.86L303.78,153.96L303.78,114.32L303.82,197.57L304.52,153.96L304.57,157.93L304.7,173.78L305.14,114.32L305.31,161.89L305.33,161.89L305.92,241.18L305.94,58.82L306.08,146.04L306.1,161.89L306.43,173.79L306.84,106.39L306.84,130.18L306.9,173.78L307.65,126.22L307.69,165.86L308.29,106.39L308.34,193.61L308.39,146.04L308.45,169.82L308.93,197.57L308.95,86.57L309.19,173.79L309.19,189.65L309.32,106.39L309.95,157.93L309.98,146.04L310.35,102.44L310.58,193.6L310.73,126.21L310.74,153.96L310.9,177.75L311.17,102.43L311.44,138.11L311.45,169.82L311.52,181.71L312.07,118.29L312.2,138.11L312.21,142.07L312.47,181.71L312.81,118.29L312.93,181.71L312.98,181.71L313.63,106.4L313.68,185.67L313.73,122.26L313.75,146.04L313.84,189.63L313.85,114.33L314.48,146.04L314.52,130.18L314.58,177.75L314.74,110.36L315.27,161.89L315.28,138.11L315.37,185.68L315.93,126.22L315.97,138.11L316.03,146.04L316.23,181.71L316.64,118.29L316.77,177.75L316.8,126.22L316.88,114.33L317.09,193.6L317.55,138.11L317.57,130.18L317.91,185.68L318.05,118.28L318.32,153.96L318.44,161.89L318.6,193.61L318.73,106.39L319.04,153.96L319.04,134.14L319.43,110.36L319.48,229.28L319.79,177.75L319.84,122.25L320.53,185.67L320.56,138.11L320.62,126.22L320.71,114.32L321.03,177.75L321.37,173.78L321.38,157.93L321.42,189.64L321.69,114.32L322.09,153.96L322.14,138.11L322.72,102.44L322.77,197.56L322.81,150L322.81,110.36L322.81,98.47L322.9,197.56L323.55,114.34L323.6,177.74L324.04,185.66L324.08,102.45L324.35,146.04L324.37,146.04L324.78,217.39L324.78,82.61L325.08,142.07L325.17,153.96L325.35,106.39L325.36,225.31L325.85,142.07L325.9,161.89L326.08,181.71L326.36,126.22L326.45,150L326.45,185.67L326.64,110.36L326.86,197.57L327.16,157.93L327.23,169.82L327.45,181.71L327.59,98.47L327.96,138.11L328.02,142.07L328.49,134.15L328.66,189.64L328.7,185.68L328.86,146.04L329.03,185.68L329.04,114.32L329.54,153.96L329.57,130.18L329.71,118.29L330.19,185.68L330.28,150L330.28,134.14L330.45,114.32L330.78,177.75L331,153.96L331.1,146.04L331.27,201.54L331.57,118.29L331.86,181.71L331.86,142.07L331.89,94.5L332.03,197.57L332.6,146.04L332.64,153.96L333.2,110.36L333.21,201.53L333.38,197.57L333.42,142.07L333.77,126.22L334.1,169.82L334.18,150L334.18,118.29L334.77,177.75L334.8,106.39L334.93,122.25L334.97,169.82L335.48,177.75L335.49,118.29L335.75,150L335.76,165.85L335.91,193.6L336.02,106.4L336.5,146.04L336.52,146.04L336.66,106.39L336.71,193.61L337.29,161.89L337.29,138.11L337.51,177.75L337.91,118.28L338.04,157.93L338.07,146.04L338.26,189.65L338.29,122.25L338.32,150L338.32,110.35L338.38,189.65L339,142.07L339.08,114.31L339.68,249.16L339.76,74.62L339.83,138.1L339.85,157.93L339.91,66.68L339.91,217.44L340.52,130.17L340.56,130.17L340.65,161.9L340.83,98.45L341.31,146.03L341.32,146.03L341.78,177.76L341.79,114.31L341.95,114.31L341.96,114.31L342.17,205.51L342.28,94.49L342.72,138.11L342.77,146.04L342.85,102.42L343.3,185.68L343.52,146.03L343.56,138.1L344.13,177.75L344.28,114.32L344.31,126.21L344.33,114.31L344.56,181.72L345.02,173.79L345.11,126.21L345.74,169.83L345.86,130.17L345.87,122.24L345.88,205.51L345.91,102.42L346.62,126.2L346.63,130.17L346.8,177.76L347.08,118.27L347.38,161.9L347.39,130.17L347.66,201.55L347.75,197.58L347.75,134.14L347.75,94.48L348.05,177.76L348.47,146.03L348.51,130.17L348.57,173.8L348.7,114.31L349.27,150L349.29,150L349.66,185.69L349.84,118.27L350.01,138.1L350.04,161.9L350.41,185.69L350.74,110.34L350.77,142.07L350.81,157.93L351.03,90.51L351.47,173.8L351.58,142.07L351.63,153.97L351.67,126.2L351.7,173.8L352.35,150L352.35,138.1L353.02,201.56L353.04,98.44L353.1,130.17L353.11,142.07L353.18,138.1L353.31,181.73L353.35,169.83L353.35,110.34L354.02,181.73L354.1,153.97L354.13,161.9L354.67,106.36L354.7,177.77L354.86,150L354.9,153.97L354.95,110.33L355.18,177.77L355.58,146.03L355.59,161.9L356.05,213.47L356.06,90.5L356.34,146.03L356.35,150L356.51,201.57L356.74,102.39L356.95,185.7L356.99,106.37L357.02,197.6L357.67,146.03L357.75,138.1L358.21,122.23L358.36,177.77L358.5,161.9L358.53,142.07L359.17,181.73L359.27,114.3L359.29,153.97L359.51,185.7L359.93,98.44L360.03,138.1L360.07,138.1L360.24,185.7L360.31,118.26L360.74,153.97L360.75,161.9L361.42,193.63L361.44,78.6L361.5,142.07L361.51,134.14L361.62,193.63L361.66,106.37L362.21,161.9L362.27,157.93L362.81,181.73L363.04,110.34L363.04,110.34L363.1,146.03L363.42,114.3L363.45,197.6L363.88,138.1L363.88,153.97L363.94,130.17L364.57,177.76L364.61,138.1L364.64,146.03L364.7,193.63L364.72,102.41L365.39,130.17L365.41,130.17L365.79,185.69L365.8,106.37L366.15,161.9L366.17,142.07L366.48,134.14L366.53,169.83L366.77,165.86L366.78,134.14L367.46,193.63L367.47,102.41L367.53,126.2L367.97,193.62L368.27,122.24L368.27,122.24L368.28,122.24L368.29,193.62L368.98,114.31L369.03,165.86L369.05,138.1L369.26,181.72L369.29,118.28L369.77,146.03L369.81,114.31L370.27,185.69L370.55,165.86L370.57,165.86L370.82,181.72L370.82,118.28L371.31,126.21L371.34,173.79L371.58,185.69L371.59,114.31L372.09,126.2L372.12,173.8L372.16,193.62L372.67,122.24L372.87,138.1L372.88,138.1L373.15,181.72L373.18,106.38L373.57,142.07L373.67,130.17L373.84,205.52L374.01,110.34L374.42,153.97L374.44,146.03L375.16,106.38L375.17,201.55L375.17,193.62L375.23,185.69L375.39,114.31L375.81,217.41L375.95,197.59L375.99,197.59L376.37,225.35L376.42,90.51L376.72,181.73L376.8,157.93L376.84,110.34L377.1,205.52L377.54,169.83L377.59,130.17L377.87,189.66L377.98,90.51L378.34,130.17L378.42,130.17L378.86,118.27L378.93,185.69L378.97,153.97L378.97,130.17L379.39,114.31L379.68,181.72L379.72,150L379.75,146.03L379.8,106.38L379.81,205.51L380.43,150L380.45,189.66L381.21,114.31L381.22,153.97L381.23,185.69L381.33,134.14L381.86,197.58L381.99,153.97L381.99,201.55L382.03,114.31L382.7,165.86L382.78,138.1L382.8,189.66L382.81,114.31L383.53,146.03L383.54,146.03L384.06,102.38L384.3,201.57L384.33,177.77L384.8,193.63L384.85,98.44L385.07,146.03L385.11,153.97L385.53,114.3L385.58,181.74L385.84,161.9L385.89,169.84L386.54,189.68L386.58,106.35L386.62,177.78L386.65,130.16L386.65,102.38L386.74,181.74L387.36,130.16L387.41,142.06L387.7,126.19L387.96,177.78L387.97,126.19L388.03,118.26L388.74,173.81L388.81,150L388.81,118.26L388.82,114.29L388.84,177.78L389.49,146.03L389.52,138.1L390.13,106.35L390.21,185.71L390.24,146.03L390.25,106.35L390.98,173.81L391.01,126.19L391.05,138.1L391.26,118.26L391.65,181.74L391.78,173.81L391.81,146.03L391.85,169.84L391.95,118.26L392.56,146.03L392.57,138.1L392.57,169.84L392.59,130.16L393.31,142.06L393.33,146.03L393.63,173.81L393.81,98.41L393.82,197.62L394.11,110.32L394.6,146.03L394.6,161.9L394.72,173.81L395.01,130.16L395.29,142.06L395.3,161.9L395.31,106.35L395.42,173.81L396.02,153.97L396.07,142.06L396.24,181.75L396.33,118.25L396.82,165.87L396.84,126.19L397.31,181.75L397.32,98.41L397.6,169.84L397.6,122.22L397.79,114.28L397.96,193.65L398.31,134.13L398.39,138.09L398.44,189.69L398.56,122.22L399,142.06" style="vector-effect: non-scaling-stroke; fill: none; stroke: rgb(99, 110, 250); stroke-opacity: 1; stroke-width: 2px; opacity: 1;"/></g><g class="points"/><g class="text"/></g><g class="trace scatter trace656a88" style="stroke-miterlimit: 2; opacity: 1;"><g class="fills"/><g class="errorbars"/><g class="lines"><path class="js-line" d="M0,42.81L0.14,285L0.77,153.97L0.84,146.03L1.42,173.83L1.46,126.17L1.51,134.12L1.59,138.09L1.68,213.53L1.78,86.47L2.25,169.85L2.28,130.15L2.28,126.18L2.78,177.79L3.02,146.03L3.05,153.97L3.12,169.85L3.17,126.18L3.74,138.09L3.78,161.91L3.85,118.24L4.37,193.67L4.45,153.97L4.53,173.82L4.53,177.79L4.53,122.21L5.28,146.03L5.31,126.18L5.77,185.73L5.93,114.27L6.04,161.91L6.22,138.09L6.29,126.18L6.75,173.82L6.97,161.91L6.99,153.97L7.51,185.73L7.57,114.27L7.66,153.97L7.7,153.97L8.25,181.76L8.27,118.24L8.35,142.06L8.47,142.06L8.91,134.12L9.08,209.54L9.23,146.03L9.33,146.03L9.49,118.25L10.1,181.75L10.12,142.06L10.16,177.78L10.17,122.22L10.79,146.03L10.9,153.97L11.18,165.88L11.34,134.12L11.58,153.97L11.64,169.85L12.39,122.21L12.53,142.06L12.62,134.12L12.79,161.91L12.92,138.09L12.95,161.91L12.95,177.79L13.58,130.15L13.69,142.06L13.81,142.06L13.97,114.27L14.27,173.82L14.53,134.12L14.55,165.88L14.58,114.28L14.81,193.65L15.3,138.09L15.36,142.06L15.56,106.34L15.79,173.82L15.85,169.85L15.87,130.15L16.36,106.34L16.58,177.78L16.63,169.84L16.67,161.91L16.69,181.75L17.34,118.25L17.38,181.75L17.43,177.78L18.04,118.25L18.25,157.94L18.3,153.97L18.78,181.75L19.01,126.19L19.09,165.87L19.43,181.75L19.5,110.32L19.67,153.97L19.72,126.19L20,169.84L20.46,165.87L20.49,146.03L20.52,165.87L20.72,126.19L21.22,146.03L21.25,157.94L21.82,169.84L21.94,130.16L21.96,157.94L22.03,153.97L22.24,138.09L22.39,165.87L22.64,146.03L22.67,157.94L23.16,169.84L23.38,126.19L23.44,153.97L23.46,153.97L23.69,130.16L23.7,169.84L23.98,146.03L23.99,130.16L23.99,118.25L24.23,189.69L24.7,134.12L24.75,130.16L24.77,169.84L25.43,146.03L25.51,146.03L25.62,126.19L25.74,181.75L26.08,138.09L26.1,118.25L26.33,173.81L26.39,114.28L26.87,146.03L26.91,134.12L27.07,177.78L27.56,118.24L27.64,138.09L27.67,138.09L27.77,126.19L27.93,161.91L28.34,146.03L28.43,157.94L28.86,177.78L28.92,122.22L29.17,157.94L29.23,146.03L29.64,177.79L29.67,118.25L29.95,153.97L30.01,146.03L30.16,118.25L30.16,181.75L30.65,130.15L30.65,122.21L30.98,98.4L31.16,189.69L31.4,153.97L31.41,153.97L31.94,82.51L31.98,169.85L32.05,126.18L32.18,161.91L32.32,177.79L32.64,122.21L32.93,142.06L32.98,157.94L33.08,181.76L33.09,118.24L33.45,142.06L33.45,126.18L33.63,193.67L34.18,138.09L34.22,126.18L34.27,118.24L34.45,169.85L34.54,142.06L34.55,126.18L35.06,205.58L35.08,94.42L35.29,157.94L35.32,142.06L35.9,98.38L36.06,221.47L36.09,98.38L36.55,94.41L36.56,217.5L36.8,165.88L36.82,134.12L37.29,118.23L37.52,193.68L37.57,94.4L38.01,82.48L38.12,249.3L38.31,142.06L38.35,142.06L38.38,122.2L38.42,177.8L38.7,153.97L38.7,189.71L38.82,106.32L38.84,213.54L39.43,185.74L39.51,146.03L39.81,177.79L40.19,118.23L40.26,118.23L40.29,118.23L40.54,185.74L40.57,106.32L40.96,165.88L41.05,138.09L41.05,193.67L41.37,122.21L41.78,130.15L41.83,153.97L41.95,126.18L42.52,193.67L42.56,161.91L42.59,138.09L42.75,118.24L43.29,193.67L43.3,106.33L43.55,66.63L43.62,233.37L44.06,165.88L44.07,138.09L44.76,122.21L44.8,185.72L44.83,173.82L44.89,165.88L44.95,189.7L44.96,110.3L45.23,173.82L45.24,126.18L45.24,102.37L45.48,197.63L45.96,165.88L46,153.97L46.1,118.25L46.37,185.71L46.69,161.91L46.71,165.88L47.23,102.37L47.41,209.54L47.46,157.94L47.47,146.03L47.73,193.66L47.98,102.37L48.2,130.16L48.25,153.97L48.36,126.19L48.48,177.78L48.97,142.06L49.03,122.22L49.1,201.6L49.21,86.51L49.73,118.25L49.75,153.97L50.14,110.32L50.15,189.68L50.51,146.03L50.54,146.03L50.71,122.22L51.13,189.69L51.15,110.31L51.31,94.44L51.35,193.65L51.81,153.97L51.81,126.19L52.25,114.28L52.49,173.81L52.55,126.19L52.57,126.19L52.99,197.62L53.04,94.44L53.3,181.75L53.36,142.06L53.66,181.75L53.81,118.25L54.11,169.84L54.16,146.03L54.5,177.78L54.54,98.41L54.88,138.09L54.88,118.25L55.11,114.28L55.24,185.72L55.67,161.91L55.73,161.91L55.8,177.78L55.82,106.34L55.83,193.66L55.85,98.4L56.59,134.13L56.64,142.06L56.71,177.78L56.76,118.25L57.38,146.03L57.4,138.09L57.7,185.71L58.05,114.29L58.14,177.78L58.25,177.78L58.38,114.29L58.98,142.06L59.04,157.94L59.67,189.69L59.67,110.31L59.78,161.91L59.8,138.09L59.8,122.22L60.07,201.59L60.51,165.87L60.6,165.88L61.14,110.31L61.26,185.72L61.35,122.21L61.38,197.63L61.45,114.27L62.1,126.18L62.14,146.03L62.66,122.21L62.68,177.79L62.77,146.03L62.79,126.19L63.32,118.25L63.36,189.69L63.5,118.25L63.54,126.18L63.56,181.76L63.58,110.31L64.3,165.87L64.31,138.09L64.69,74.61L64.71,225.39L65.06,142.06L65.07,157.94L65.26,114.28L65.33,169.84L65.79,169.84L65.81,177.78L66.02,189.69L66.13,98.41L66.6,126.19L66.71,118.25L66.73,193.65L66.73,106.35L67.46,157.94L67.51,153.97L67.95,86.52L67.96,221.42L68.2,146.03L68.25,189.69L68.85,114.28L68.92,193.66L69.03,153.97L69.41,102.39L69.42,205.55L69.79,122.22L69.84,177.78L70.47,193.65L70.58,102.38L70.58,134.13L70.62,157.94L70.66,94.44L70.68,169.84L71.34,126.19L71.43,142.06L71.88,114.3L72.07,189.67L72.18,153.97L72.21,157.93L72.68,86.52L72.76,189.68L72.91,181.74L72.93,110.32L73.14,102.39L73.53,189.67L73.58,153.97L73.58,110.33L73.6,197.61L74.25,106.36L74.33,161.9L74.34,138.1L74.8,173.81L74.8,126.19L74.92,146.03L74.92,130.16L74.93,181.74L75.18,114.29L75.65,157.94L75.68,157.94L76.21,177.77L76.22,122.23L76.46,142.07L76.51,157.93L76.67,114.3L77.21,173.8L77.22,173.8L77.27,161.9L77.94,106.35L78.01,181.74L78.02,157.93L78.03,157.93L78.18,157.94L78.18,142.06L78.22,161.9L78.26,221.42L78.27,78.58L78.89,142.06L78.89,157.94L78.92,193.65L78.94,106.35L79.62,126.19L79.63,185.71L79.63,189.68L80,106.35L80.36,146.03L80.41,146.03L80.61,122.22L80.95,181.74L81.14,161.9L81.15,126.19L81.15,110.33L81.3,233.29L81.85,153.97L81.92,161.9L81.93,173.8L82.56,90.49L82.66,98.42L82.7,122.23L82.95,201.57L82.96,82.56L83.43,165.87L83.46,134.13L84,189.68L84.09,110.32L84.11,157.94L84.21,165.87L84.81,181.74L84.81,118.26L84.96,157.94L84.97,157.94L85.42,181.74L85.47,102.39L85.72,153.97L85.8,153.97L86.18,106.35L86.21,193.65L86.49,146.03L86.49,161.9L87.11,126.19L87.14,173.81L87.23,165.88L87.28,134.12L87.7,102.38L87.73,193.65L87.89,181.75L87.89,189.68L87.92,102.38L88.63,122.22L88.7,146.03L88.8,173.81L89.42,110.32L89.44,146.03L89.45,153.97L89.5,94.45L89.83,185.71L90.15,138.09L90.17,161.91L90.3,165.87L90.43,118.25L90.44,181.75L91.02,106.34L91.15,177.78L91.2,153.97L91.44,118.26L91.81,189.68L91.91,173.81L91.97,169.84L92.11,241.3L92.3,126.18L92.69,130.15L92.73,153.97L92.94,185.72L92.94,114.28L93.4,161.91L93.53,173.81L93.82,122.22L94.24,126.18L94.27,173.82L94.37,193.67L94.94,126.18L95.04,146.03L95.1,153.97L95.62,118.24L95.63,181.76L95.81,181.75L95.91,165.88L96.16,130.16L96.27,181.75L96.63,161.9L96.64,181.75L96.7,94.44L96.84,213.5L97.35,146.03L97.41,138.09L97.42,126.19L97.5,177.78L98.15,153.97L98.18,153.97L98.58,114.27L98.86,193.67L98.9,138.09L98.94,138.09L99.22,106.34L99.4,221.45L99.69,146.03L99.7,146.03L99.84,177.79L100.09,130.15L100.36,153.97L100.4,138.09L100.55,122.22L100.9,185.72L101.04,122.22L101.04,114.28L101.22,110.31L101.4,189.69L101.76,153.97L101.8,146.03L101.81,134.12L101.81,173.81L102.55,165.87L102.6,134.13L102.6,177.78L103.22,122.22L103.29,157.94L103.37,153.97L103.61,138.09L103.65,161.91L103.7,126.19L103.7,177.78L104.02,122.22L104.45,161.91L104.46,161.91L104.99,189.69L105.01,110.31L105.02,161.91L105.07,177.78L105.34,181.75L105.43,114.28L105.66,122.22L105.69,177.78L106.15,181.75L106.22,126.19L106.5,153.97L106.52,153.97L106.65,126.19L106.67,177.78L107.26,142.06L107.28,157.94L107.45,197.63L107.59,134.12L107.99,165.88L108.03,165.88L108.16,193.66L108.67,106.34L108.76,138.09L108.8,146.03L109.07,173.81L109.33,122.22L109.55,157.94L109.57,153.97L109.98,110.31L109.98,189.69L110.3,173.81L110.3,126.19L110.47,122.22L110.81,173.81L111.07,161.91L111.08,161.91L111.32,185.72L111.62,106.35L111.86,134.13L111.86,165.87L112.23,221.42L112.23,78.58L112.58,165.87L112.63,138.1L113.32,185.71L113.37,114.29L113.39,114.29L113.74,189.69L114.07,106.35L114.13,110.32L114.18,146.03L114.32,70.66L114.37,217.44L114.89,134.13L114.9,173.81L115.05,58.76L115.22,229.34L115.65,134.13L115.66,161.9L115.7,197.61L115.73,106.36L116.32,169.83L116.36,142.07L116.57,126.2L116.91,165.87L117.09,146.03L117.09,118.26L117.57,177.77L117.62,106.36L117.83,146.03L117.86,146.03L118.11,102.4L118.36,193.63L118.58,165.87L118.65,146.03L119.12,177.77L119.23,118.27L119.38,169.83L119.39,130.17L119.5,177.77L119.68,98.43L120.12,146.03L120.17,146.03L120.4,114.3L120.76,181.73L120.89,142.07L120.93,157.93L121.17,161.9L121.7,118.27L121.79,181.73L122.36,70.68L122.51,209.49L122.54,153.97L122.58,146.03L122.89,197.59L122.99,102.41L123.11,138.1L123.2,153.97L123.88,114.3L123.9,185.7L123.92,126.2L123.97,142.07L124.02,177.76L124.1,126.2L124.68,153.97L124.72,146.03L124.94,181.73L125.21,106.37L125.46,146.03L125.49,153.97L125.57,177.77L125.75,114.3L126.19,173.8L126.21,126.2L126.42,122.24L126.43,177.76L126.95,169.83L126.97,130.17L127.36,126.2L127.57,173.8L127.72,153.97L127.74,130.17L127.87,173.8L128.49,146.03L128.51,146.03L128.7,181.73L128.93,110.33L129.23,126.2L129.26,134.13L129.54,110.33L129.82,173.8L130,134.13L130.01,126.2L130.16,110.33L130.25,169.83L130.56,161.9L130.59,161.9L131.2,126.2L131.25,173.8L131.34,146.03L131.39,153.97L131.72,126.2L131.72,173.8L132.11,142.07L132.15,153.97L132.8,181.73L132.81,118.27L132.9,130.17L132.93,169.83L133.56,185.7L133.65,118.27L133.71,130.17L133.92,126.2L134.4,185.7L134.45,130.16L134.47,122.23L134.69,110.33L134.78,189.67L135.24,173.8L135.29,126.2L135.35,110.33L135.64,181.73L136.03,165.87L136.07,126.2L136.54,110.34L136.61,185.69L136.84,165.86L136.9,165.86L137.16,181.72L137.5,102.42L137.65,165.86L137.66,153.97L137.69,102.41L137.81,177.76L138.34,146.03L138.45,146.03L139.06,126.2L139.13,177.76L139.27,142.07L139.27,122.24L139.27,181.73L140.02,146.03L140.04,153.97L140.39,142.07L140.41,169.83L140.42,169.83L140.43,122.23L140.46,185.7L141.15,153.97L141.2,130.16L141.39,110.33L141.45,185.7L141.94,138.1L141.97,138.1L142.42,130.16L142.43,181.74L142.75,169.83L142.78,177.77L143.19,213.48L143.49,90.48L143.52,197.61L143.55,130.16L144.27,193.65L144.27,102.38L144.29,126.2L144.32,138.1L144.43,197.61L144.49,122.23L145.05,161.9L145.09,138.1L145.25,165.87L145.64,130.16L145.8,146.03L145.83,153.97L146.32,114.29L146.33,201.59L146.58,142.06L146.61,173.81L146.69,177.78L147.03,118.25L147.36,153.97L147.38,153.97L147.51,106.35L147.55,193.65L148.1,138.09L148.17,134.13L148.55,122.22L148.62,185.72L148.92,146.03L148.97,153.97L149.51,62.69L149.52,237.31L149.71,161.91L149.73,161.91L149.73,114.28L150.36,173.81L150.45,169.84L150.49,157.94L150.61,161.91L150.81,130.16L151.23,153.97L151.23,173.81L151.24,189.69L151.29,122.22L151.95,126.19L152.01,177.78L152.25,114.28L152.43,185.72L152.58,173.81L152.61,146.03L152.7,177.78L153.29,126.19L153.36,157.94L153.43,173.81L153.87,122.22L153.92,177.78L154.14,94.44L154.15,213.49L154.66,177.78L154.68,173.81L155.08,122.22L155.32,189.68L155.32,189.68L155.33,110.32L156.03,201.58L156.07,185.71L156.11,114.29L156.19,197.61L156.86,161.91L156.89,157.94L157.51,193.65L157.52,106.35L157.67,118.25L157.7,169.84L157.77,189.69L158.27,114.28L158.42,146.03L158.46,146.03L158.81,122.22L158.82,181.74L159.12,181.74L159.28,153.97L159.73,134.13L159.88,169.84L159.88,169.84L159.88,118.25L160.15,102.38L160.35,189.68L160.63,157.94L160.64,134.12L161.04,185.72L161.07,114.28L161.41,157.94L161.51,157.94L162.09,122.22L162.14,177.78L162.25,161.91L162.35,138.09L162.8,110.32L162.86,189.68L163.16,177.78L163.16,122.22L163.2,114.29L163.24,205.55L163.9,161.91L163.97,181.75L163.97,118.25L164.03,205.55L164.68,118.25L164.78,118.25L165.38,177.78L165.48,173.81L165.55,173.81L165.91,209.51L166.03,102.39L166.3,173.81L166.33,153.97L166.52,138.1L166.87,181.74L166.89,138.1L167.01,181.74L167.27,114.29L167.63,134.13L167.65,165.87L167.87,114.3L167.88,209.49L168.36,169.84L168.36,177.77L168.49,118.26L168.74,181.74L169.09,177.78L169.11,177.78L169.77,78.6L169.8,205.54L169.84,94.46L169.87,130.17L169.92,86.55L169.98,213.45L170.62,169.83L170.63,169.83L170.74,189.67L170.77,74.63L171.38,161.9L171.4,142.07L171.65,130.17L171.74,169.83L172.13,153.97L172.16,153.97L172.19,118.27L172.75,177.76L172.87,165.87L172.92,142.07L172.97,177.76L173.44,90.51L173.67,153.97L173.69,122.24L173.69,118.27L173.69,181.73L174.44,146.03L174.47,126.2L174.8,201.56L174.84,98.44L175.22,146.03L175.24,153.97L175.29,189.66L175.42,102.41L175.95,130.17L176,153.97L176.08,118.27L176.65,185.69L176.68,134.14L176.78,134.14L176.79,177.76L177.47,118.28L177.47,161.9L177.55,130.17L177.76,233.26L178.23,98.45L178.29,142.07L178.31,134.14L178.56,102.42L178.59,197.58L179.04,146.03L179.1,153.97L179.54,241.18L179.57,42.96L179.76,157.93L179.84,157.93L180.26,114.31L180.31,173.79L180.59,134.14L180.61,173.79L180.81,189.65L180.91,114.31L181.36,146.04L181.41,153.96L181.67,189.65L181.74,114.31L182.13,146.03L182.16,161.9L182.37,122.24L182.37,189.65L182.89,126.21L182.95,126.21L183.35,114.31L183.64,189.65L183.69,169.82L183.74,161.9L183.75,185.69L184.29,114.31L184.41,153.97L184.51,153.97L184.99,169.83L185.21,126.21L185.22,173.79L185.81,177.76L185.85,102.42L186,118.28L186.04,189.64L186.34,106.38L186.71,169.83L186.73,185.69L186.78,197.58L187.28,98.45L187.47,114.31L187.5,110.35L188.04,173.79L188.27,146.04L188.29,146.04L188.45,102.42L188.81,201.55L188.99,161.9L189.05,153.97L189.2,201.57L189.83,70.67L189.89,70.67L190.44,181.73L190.71,157.93L190.71,142.07L190.86,102.41L191.32,177.76L191.34,122.24L191.68,106.38L191.88,209.48L192.05,157.93L192.11,153.97L192.4,169.83L192.62,122.24L192.75,169.83L192.75,173.8L193.27,102.41L193.27,197.59L193.47,157.93L193.54,161.9L193.83,197.59L194.26,102.42L194.28,146.03L194.37,153.97L194.59,126.21L194.77,181.72L195.07,169.83L195.12,157.93L195.35,94.48L195.37,205.52L195.88,146.03L195.92,134.14L196.36,197.59L196.6,110.34L196.67,146.03L196.73,153.97L196.87,102.41L197.13,193.62L197.47,146.03L197.51,153.97L197.71,185.69L197.74,118.27L198.24,138.1L198.27,165.86L198.66,185.7L198.81,118.26L198.99,146.03L199.03,146.03L199.48,205.55L199.5,86.51L199.78,169.84L199.79,130.16L199.9,98.43L200.14,185.7L200.54,130.17L200.55,142.07L200.6,110.34L200.63,185.69L201.3,138.1L201.31,161.9L201.54,122.23L201.78,193.63L201.82,146.03L201.87,134.13L202.3,181.74L202.56,126.2L202.61,173.8L202.69,146.03L202.93,122.23L203.4,213.46L203.41,146.03L203.53,165.86L203.59,189.66L204.06,130.17L204.2,153.97L204.2,118.27L204.9,110.33L204.9,193.63L204.95,185.7L204.97,157.93L205.05,122.23L205.1,205.53L205.69,161.9L205.72,165.86L206.17,173.8L206.42,126.2L206.49,138.1L206.5,161.9L206.56,118.27L206.63,181.73L207.25,153.97L207.26,146.03L207.26,126.2L207.34,201.57L207.98,165.87L208.03,146.03L208.22,114.3L208.64,189.67L208.77,153.97L208.79,142.07L209.1,241.26L209.38,126.2L209.53,161.9L209.55,153.97L209.63,181.74L209.72,122.22L209.97,138.1L209.99,185.71L210.6,114.3L210.7,153.97L210.79,142.07L210.81,193.64L210.83,106.36L211.49,134.13L211.56,157.93L212.26,94.46L212.27,185.7L212.3,165.87L212.31,165.87L212.37,185.71L212.8,118.26L213.05,161.9L213.07,161.9L213.56,114.29L213.8,181.74L213.8,181.74L213.87,118.26L213.92,106.36L214.38,209.51L214.65,165.87L214.67,142.07L215.07,205.54L215.4,102.39L215.41,130.17L215.45,169.83L215.58,90.51L215.62,217.43L216.16,165.87L216.23,134.13L216.47,82.56L216.52,237.27L216.87,197.61L216.91,102.39L216.97,213.48L217.66,181.74L217.72,142.06L218.08,122.23L218.08,185.7L218.31,130.16L218.31,189.67L218.39,90.49L218.42,213.48L219.06,153.97L219.1,146.03L219.13,94.46L219.15,177.77L219.81,126.2L219.87,189.67L220.11,110.33L220.58,205.54L220.6,142.07L220.63,205.54L220.71,106.36L221.3,130.16L221.38,181.74L221.5,185.71L221.58,114.29L222.13,161.9L222.15,146.03L222.38,181.74L222.38,118.26L222.9,126.2L222.91,126.2L223.36,185.7L223.66,161.9L223.68,138.1L224.07,181.74L224.27,126.2L224.45,153.97L224.46,146.03L224.92,110.33L225.2,165.87L225.2,165.87L225.22,134.13L225.58,114.29L225.61,185.71L225.97,146.03L225.98,146.03L226.26,114.29L226.28,185.71L226.73,134.13L226.74,157.93L227.01,189.67L227.42,98.43L227.49,146.03L227.5,157.93L227.57,126.2L227.8,173.8L228.25,142.07L228.3,142.07L228.79,169.83L228.81,118.27L229.06,157.93L229.07,142.07L229.36,197.61L229.52,110.33L229.8,153.97L229.84,165.87L230.28,126.2L230.38,217.42L230.54,161.9L230.61,165.87L230.87,253.11L230.94,118.27L231.26,142.07L231.28,134.14L231.75,122.24L231.81,169.83L232.02,142.07L232.05,165.86L232.6,233.26L232.72,86.56L232.8,153.96L232.84,193.61L233.22,118.28L233.58,126.21L233.62,142.07L234.18,82.59L234.22,189.65L234.31,126.21L234.39,181.72L234.68,82.6L235.03,201.55L235.13,126.21L235.17,157.93L235.21,177.76L235.27,122.24L235.76,153.97L235.76,157.93L236.14,169.83L236.29,122.25L236.52,134.14L236.61,134.14L236.84,130.17L237.17,169.83L237.31,130.17L237.34,126.21L237.8,189.65L237.88,110.35L238.1,142.07L238.1,134.14L238.62,90.51L238.64,193.62L238.81,122.25L238.81,106.39L238.89,90.53L239.21,197.57L239.55,165.85L239.59,177.75L239.96,193.62L239.97,118.28L240.29,134.14L240.35,146.03L240.92,181.73L240.97,110.34L241.1,161.9L241.17,142.07L241.35,181.72L241.35,118.28L241.82,153.97L241.84,122.24L241.92,106.38L242.04,177.76L242.35,142.07L242.35,157.93L242.54,173.79L242.55,114.32L242.72,134.14L242.72,114.32L243.32,189.65L243.45,134.14L243.49,142.07L243.6,130.18L243.89,169.82L244.2,157.93L244.25,165.86L244.47,94.51L244.67,193.6L244.98,169.82L245.01,169.82L245.4,118.29L245.43,181.71L245.77,153.96L245.79,177.75L245.79,110.35L245.85,213.42L246.54,173.79L246.56,157.93L247.02,90.54L247.21,177.75L247.22,153.96L247.29,177.75L247.7,193.61L247.72,106.39L248.04,134.14L248.05,146.04L248.31,217.4L248.41,98.46L248.75,130.18L248.9,153.96L248.98,114.32L249.12,177.75L249.66,130.18L249.67,173.78L249.98,114.32L250.16,185.68L250.41,142.07L250.43,134.14L250.43,118.28L251.1,185.67L251.19,153.96L251.61,177.75L251.62,122.25L251.91,126.22L251.96,173.78L252.33,106.39L252.37,193.61L253.2,90.53L253.28,153.96L253.31,173.79L253.96,118.29L254.03,146.04L254.07,153.96L254.07,177.74L254.24,118.29L254.81,153.96L254.83,138.11L255.25,86.58L255.37,193.6L255.58,138.11L255.59,138.11L255.84,201.52L256.12,94.51L256.33,134.14L256.41,153.96L256.47,114.33L257.02,173.78L257.04,142.07L257.16,157.93L257.35,213.42L257.53,86.58L257.91,146.04L257.92,153.96L257.99,185.67L258.14,110.36L258.67,165.85L258.68,165.85L259.01,118.29L259.03,181.71L259.37,146.04L259.37,169.82L259.43,201.52L260.04,86.6L260.04,86.6L260.05,213.4L260.06,86.6L260.78,138.11L260.82,161.89L260.86,110.37L261.51,177.74L261.57,165.85L261.58,134.14L261.66,122.26L261.78,185.67L262.31,161.89L262.39,157.93L262.61,209.46L263.08,78.64L263.17,209.47L263.33,78.64L263.91,146.04L263.94,146.04L263.96,189.64L264.09,82.61L264.62,165.85L264.65,102.43L265.47,197.56L265.49,157.93L265.5,193.6L265.73,122.25L266.24,153.96L266.26,153.96L266.51,201.53L266.63,94.51L266.97,146.04L267.05,142.07L267.23,134.14L267.33,177.75L267.69,161.89L267.7,138.11L267.81,122.25L268.38,169.82L268.43,134.14L268.49,142.07L268.65,185.67L269.04,110.36L269.13,153.96L269.24,142.07L269.86,197.56L269.95,110.36L269.99,146.04L270.03,146.04L270.56,130.18L270.67,173.78L270.73,165.86L270.83,134.14L271.41,201.53L271.42,98.47L271.58,138.11L271.63,110.36L271.68,193.6L271.77,106.4L271.77,106.4L271.78,193.6L272.02,122.26L272.54,126.22L272.57,142.07L272.81,122.26L273.18,177.74L273.33,146.04L273.82,185.67L274.01,98.48L274.09,118.3L274.18,114.34L274.8,177.74L274.92,130.19L274.96,126.22L275.22,185.66L275.5,102.44L275.59,142.07L275.63,102.44L275.65,197.56L276.37,161.89L276.4,138.11L276.5,185.67L276.51,114.33L276.86,161.89L276.92,134.15L277.17,189.62L277.18,110.38L277.67,153.96L277.69,130.19L278.36,98.48L278.44,173.78L278.44,153.96L278.46,122.26L278.58,225.3L278.99,78.66L279.14,126.23L279.23,134.15L279.43,78.67L279.97,185.67L279.98,146.04L279.99,153.96L280.4,114.33L280.44,165.85L280.58,146.04L280.6,169.82L280.74,86.59L281.19,201.52L281.35,169.82L281.42,138.11L281.48,118.29L282.09,181.71L282.12,181.71L282.43,189.63L282.47,110.37L282.84,181.71L282.89,161.89L283.08,185.67L283.11,106.4L283.64,161.89L283.65,146.04L284.09,165.85L284.39,110.37L284.39,126.22L284.42,153.96L284.46,189.63L285,118.3L285.15,161.89L285.16,177.74L285.16,197.56L285.26,126.22L285.9,165.85L285.93,134.15L286.38,193.6L286.45,102.44L286.5,102.44L286.71,189.63L286.84,94.52L287.06,118.3L287.06,181.7L287.08,118.3L287.26,181.71L287.81,134.15L287.83,153.96L288.15,126.22L288.5,169.81L288.55,169.81L288.62,157.93L289.28,122.26L289.29,177.74L289.35,157.93L289.4,146.04L289.71,130.19L290.01,173.78L290.13,165.85L290.14,134.15L290.77,201.52L290.85,118.29L290.91,165.85L290.94,165.85L291.15,122.26L291.28,177.74L291.69,146.04L291.74,142.07L292.04,90.56L292.16,217.37L292.45,177.75L292.5,146.04L292.63,94.51L293.14,177.74L293.24,157.93L293.27,142.07L293.51,110.37L293.6,189.63L294.02,173.78L294.04,146.04L294.04,189.63L294.16,106.4L294.75,126.21L294.81,153.96L294.93,173.79L295.19,118.28L295.55,126.21L295.58,146.04L296.09,185.68L296.13,122.24L296.3,153.96L296.34,146.04L296.75,106.39L296.75,205.5L297.1,153.96L297.12,146.04L297.3,185.69L297.31,114.31L297.83,169.83L297.85,130.17L298.56,181.72L298.6,118.28L298.6,118.28L298.63,181.72L298.97,114.31L298.99,185.69L299.45,142.07L299.47,157.93L299.57,185.69L299.69,122.24L300.15,142.07L300.25,173.79L300.28,181.72L300.35,126.21L300.87,173.79L300.97,134.14L301.03,126.21L301.57,173.79L301.69,157.93L301.69,161.89L302.23,197.57L302.28,86.57L302.42,165.86L302.48,138.11L303.04,134.14L303.24,173.79L303.28,173.79L303.6,126.21L303.82,193.61L304.02,138.11L304.04,177.75L304.7,122.25L304.71,173.79L304.82,165.86L305.14,185.68L305.33,122.25L305.57,126.21L305.58,201.53L305.92,58.82L305.94,241.18L306.32,134.14L306.34,134.14L306.56,197.57L306.63,126.21L307.08,165.86L307.12,134.14L307.65,118.29L307.77,173.78L307.89,153.96L307.91,153.96L308.34,106.39L308.62,197.57L308.66,193.61L308.66,106.39L308.93,102.43L308.95,213.43L309.4,157.93L309.45,138.11L309.86,181.71L309.98,114.32L310.19,118.29L310.21,161.89L310.33,114.33L310.35,197.56L310.94,122.25L311.03,189.64L311.17,197.57L311.18,102.43L311.79,169.82L311.83,173.78L312.07,181.71L312.47,118.29L312.61,130.18L312.62,161.89L312.87,118.29L313.08,181.71L313.38,169.82L313.43,138.11L313.64,189.63L313.84,110.37L314.18,153.96L314.19,146.04L314.58,122.25L314.74,189.64L314.92,146.04L314.95,153.96L315.15,177.75L315.37,114.32L315.7,142.07L315.71,157.93L316.03,181.71L316.23,118.29L316.43,153.96L316.46,165.86L316.77,98.47L317.11,189.64L317.2,157.93L317.27,153.96L317.91,114.32L317.91,185.68L317.99,146.04L318.05,146.04L318.6,106.39L318.62,193.61L318.75,138.11L318.82,153.96L319.48,70.72L319.56,197.56L319.58,126.21L319.62,193.6L319.75,106.4L320.35,169.82L320.4,146.04L320.53,114.33L320.62,181.71L321.15,146.04L321.16,157.93L321.5,110.36L321.64,189.64L321.85,177.75L321.92,153.96L322.26,177.74L322.53,114.33L322.64,138.11L322.67,102.44L322.9,90.54L323.32,205.47L323.44,153.96L323.45,153.96L323.88,110.37L324.08,197.55L324.18,153.96L324.22,157.93L324.73,110.36L324.76,189.64L324.78,217.39L325.36,70.72L325.51,146.04L325.55,146.04L326.08,114.32L326.27,173.78L326.32,130.18L326.68,189.64L326.8,102.43L327.08,169.82L327.09,130.18L327.16,181.71L327.45,118.29L327.58,173.78L327.58,185.67L327.59,201.53L328.11,106.39L328.28,134.15L328.31,134.15L328.49,165.85L328.7,114.32L329,122.25L329.02,157.93L329.04,114.32L329.71,189.64L329.77,146.04L329.78,146.04L330.19,114.32L330.31,185.68L330.45,146.04L330.54,122.25L330.7,181.71L331.15,110.35L331.19,130.18L331.24,114.32L331.89,205.5L331.94,94.5L331.98,114.32L332.03,157.93L332.49,181.71L332.72,126.22L332.73,173.78L332.77,173.78L333.2,189.64L333.31,98.47L333.55,138.11L333.57,157.93L333.73,126.22L334.23,173.78L334.32,173.78L334.33,146.04L334.51,126.22L334.8,193.61L334.83,130.18L334.97,122.25L335.49,181.71L335.58,130.18L335.59,130.18L335.77,118.29L335.98,193.6L336.31,134.15L336.35,161.89L336.47,153.96L336.48,177.75L336.5,177.75L336.52,126.21L336.71,106.39L336.89,193.61L337.27,126.21L337.27,122.25L337.91,181.72L337.92,118.28L338.04,138.11L338.07,146.04L338.25,110.35L338.32,189.65L338.85,157.93L338.89,153.97L339.16,114.31L339.64,209.49L339.64,189.66L339.65,153.97L339.73,241.24L339.76,165.87L339.76,134.13L339.77,241.24L339.91,74.63L340.48,189.66L340.52,146.03L340.78,118.28L340.83,201.55L341.28,157.93L341.28,142.07L341.78,122.24L341.95,189.66L341.96,146.03L342.01,126.21L342.17,94.49L342.28,205.51L342.72,161.89L342.77,161.89L342.88,185.68L343.3,114.32L343.52,157.93L343.56,161.9L344.2,114.32L344.28,189.65L344.31,181.72L344.33,189.65L345.02,126.21L345.11,173.79L345.71,130.17L345.86,146.03L345.87,177.76L345.88,94.49L345.91,197.58L346.62,173.8L346.63,173.8L346.7,122.24L347.08,189.66L347.39,146.03L347.43,146.03L347.49,169.83L347.66,118.27L347.66,98.45L347.75,205.52L348.4,146.03L348.42,146.03L348.57,118.27L348.7,189.66L349.16,146.03L349.17,153.97L349.66,114.31L349.67,185.69L349.78,122.24L349.84,181.73L350.41,114.31L350.46,197.59L350.56,153.97L350.58,185.69L350.6,122.24L351.06,217.42L351.33,153.97L351.35,153.97L351.47,126.2L351.67,173.8L351.98,146.03L351.98,130.17L352.65,185.7L352.71,126.2L352.73,173.8L352.79,173.8L353.04,201.56L353.07,98.44L353.35,130.17L353.35,189.66L354.02,118.27L354.1,146.03L354.13,153.97L354.19,197.6L354.7,122.23L354.77,122.23L355.37,177.77L355.53,142.07L355.53,126.2L355.92,82.57L356.06,213.47L356.28,142.07L356.32,153.97L356.51,98.43L356.79,205.54L356.95,114.3L356.99,193.63L357.02,102.4L357.67,165.87L357.75,161.9L358.36,122.23L358.36,177.77L358.5,138.1L358.53,161.9L358.76,181.73L359.17,118.27L359.27,146.03L359.29,169.83L359.51,114.3L359.62,189.66L360.03,126.2L360.07,185.7L360.24,114.3L360.82,134.13L360.87,153.97L361.45,82.57L361.55,233.28L361.62,82.57L361.65,173.8L361.66,197.6L361.94,126.2L362.37,173.8L362.41,161.9L362.8,114.3L363.04,189.66L363.13,153.97L363.18,157.93L363.4,201.56L363.48,102.4L363.88,130.17L363.94,169.83L364.59,122.24L364.67,134.14L364.7,165.86L364.7,106.37L364.72,197.59L365.44,114.3L365.48,165.86L365.79,114.31L365.8,193.63L366.23,153.97L366.28,146.03L366.53,130.17L367.05,169.83L367.05,146.03L367.45,122.24L367.47,201.56L367.7,142.07L367.78,142.07L368.27,177.76L368.29,106.38L368.37,173.79L368.37,177.76L368.97,114.31L368.98,185.69L369.14,146.03L369.17,153.97L369.65,110.34L369.81,189.66L369.91,146.03L369.94,146.03L370.2,110.35L370.28,185.69L370.69,153.97L370.71,146.03L370.82,118.28L370.82,181.72L371.44,161.9L371.48,146.03L371.59,185.69L372.16,106.38L372.22,126.21L372.24,126.21L372.25,114.31L372.67,177.76L372.99,130.17L373.03,146.03L373.18,193.62L373.72,102.41L373.78,173.79L373.82,173.79L373.84,94.48L373.88,197.58L374.49,138.1L374.56,146.03L375.16,193.62L375.17,98.45L375.26,142.07L375.33,157.93L375.39,185.69L375.46,78.62L375.95,102.41L375.99,102.41L376.2,209.49L376.37,74.65L376.72,118.27L376.8,130.17L376.84,189.66L377.11,94.48L377.53,126.21L377.54,153.97L377.87,110.34L377.88,205.52L378.19,157.93L378.24,134.14L378.3,114.31L378.97,185.69L378.98,165.86L379.01,146.03L379.2,173.79L379.63,118.28L379.75,157.93L379.78,138.1L379.81,94.49L379.86,181.73L380.45,153.97L380.47,122.24L381.15,114.31L381.21,185.69L381.22,165.86L381.23,114.31L381.69,98.45L382.03,185.69L382.05,114.31L382.21,177.75L382.8,110.34L382.81,189.66L383.13,118.27L383.56,181.73L383.59,177.76L384.01,217.45L384.3,98.43L384.37,142.07L384.39,157.93L384.8,106.37L384.81,193.63L385.12,130.17L385.21,142.07L385.28,114.3L385.35,189.67L385.95,146.03L385.96,157.93L386.25,126.2L386.59,193.65L386.6,122.22L386.65,197.62L386.74,118.26L387.34,153.97L387.36,146.03L387.7,173.81L387.8,130.16L387.8,142.06L387.82,169.84L387.96,122.22L388.03,181.74L388.57,134.13L388.58,134.13L388.82,185.71L388.84,118.26L389.28,161.9L389.34,146.03L389.59,173.81L389.94,118.26L389.99,165.87L390.01,185.71L390.13,106.35L390.25,193.65L390.69,157.94L390.71,146.03L391.18,110.32L391.26,181.74L391.45,177.77L391.48,122.23L391.63,118.26L392.06,181.74L392.24,157.94L392.24,142.06L392.4,173.81L392.8,122.22L392.97,138.1L392.97,161.9L393.63,126.19L393.68,173.81L393.73,134.13L393.8,201.59L393.82,102.38L394.46,173.81L394.54,142.06L394.72,126.19L395.01,169.84L395.29,146.03L395.3,138.1L395.31,193.65L395.44,122.22L396.02,153.97L396.07,157.94L396.24,118.25L396.33,185.71L396.74,153.97L396.76,146.03L397.31,118.25L397.32,201.59L397.38,142.06L397.43,181.75L397.47,201.59L397.96,102.38L398.2,146.03L398.21,146.03L398.31,181.75L398.44,110.31L398.95,157.94L398.99,157.94L399,138.09L399,161.91" style="vector-effect: non-scaling-stroke; fill: none; stroke: rgb(239, 85, 59); stroke-opacity: 1; stroke-width: 2px; opacity: 1;"/></g><g class="points"/><g class="text"/></g><g class="trace scatter trace27a164" style="stroke-miterlimit: 2; opacity: 1;"><g class="fills"/><g class="errorbars"/><g class="lines"><path class="js-line" d="M0,42.81L0.14,15L0.84,146.03L0.88,146.03L1.41,130.14L1.42,138.09L1.42,126.17L1.61,146.03L1.66,142.06L1.68,86.47L1.77,146.03L2.39,146.03L2.43,142.06L2.68,146.03L2.78,122.21L3.17,126.18L3.21,146.03L3.85,118.24L3.95,146.03L4.05,142.06L4.24,146.03L4.37,106.33L4.74,134.12L4.87,142.06L5.04,146.03L5.49,126.18L5.72,134.12L5.73,134.12L5.93,114.27L5.94,146.03L6.43,146.03L6.51,134.12L6.51,146.03L6.75,126.18L7.23,134.12L7.32,134.12L7.44,146.03L7.51,114.27L8.06,126.18L8.14,142.06L8.18,146.03L8.25,118.24L8.89,134.12L8.91,134.12L9.08,90.46L9.59,146.03L9.6,130.15L9.64,130.15L10.02,118.25L10.35,146.03L10.39,138.09L10.43,138.09L10.45,146.03L10.71,130.15L11.18,134.12L11.2,138.09L11.66,126.18L11.98,146.03L12,138.09L12.39,122.21L12.79,146.03L12.79,138.09L12.79,146.03L12.95,122.21L13.54,134.12L13.58,130.15L13.87,146.03L13.95,114.27L14.32,146.03L14.34,146.03L14.81,106.35L15.06,122.21L15.14,142.06L15.56,106.34L15.84,146.03L15.85,138.09L15.85,130.15L16.36,106.34L16.4,146.03L16.58,122.22L16.62,138.09L16.76,146.03L17.38,118.25L17.43,122.22L17.95,146.03L18.04,118.25L18.25,142.06L18.3,146.03L18.78,118.25L19.01,126.19L19.09,134.13L19.14,146.03L19.54,110.32L19.78,142.06L19.88,142.06L20,130.16L20.22,146.03L20.62,134.13L20.71,138.09L20.8,146.03L20.98,126.19L21.41,138.09L21.45,146.03L21.94,130.16L22.18,146.03L22.24,146.03L22.98,126.19L23.07,130.16L23.38,126.19L23.63,146.03L23.67,134.12L23.68,134.12L23.75,146.03L24.23,110.31L24.33,130.15L24.41,146.03L24.53,126.19L25.08,134.12L25.18,142.06L25.35,130.16L25.61,146.03L25.62,130.16L25.62,126.19L25.74,118.25L26.17,146.03L26.38,134.12L26.39,118.25L26.39,114.28L26.42,146.03L27.07,122.22L27.17,126.19L27.25,122.22L27.37,146.03L27.51,138.09L27.53,146.03L27.56,118.24L28.27,142.06L28.29,142.06L28.76,146.03L28.82,126.19L28.83,126.19L28.86,126.19L28.86,122.22L28.87,146.03L29.57,146.03L29.64,134.12L29.67,118.25L29.79,146.03L30.35,138.09L30.45,146.03L30.98,98.4L31.24,114.28L31.28,142.06L31.68,146.03L31.7,134.12L31.9,138.09L31.92,138.09L31.92,146.03L31.94,82.51L32.64,142.06L32.68,146.03L33.09,118.24L33.42,142.06L33.45,146.03L33.63,106.33L34.18,138.09L34.22,126.18L34.27,118.24L35,146.03L35.02,142.06L35.02,130.15L35.03,146.03L35.06,94.42L35.76,138.09L35.78,126.17L35.84,146.03L36.06,78.53L36.26,134.12L36.35,146.03L36.56,82.5L37.11,130.14L37.18,130.14L37.57,90.43L37.9,146.03L37.9,122.2L37.93,122.2L38.05,146.03L38.12,50.7L38.68,130.14L38.69,130.14L38.84,86.46L39.37,146.03L39.43,114.26L39.51,146.03L40.19,118.23L40.26,118.23L40.29,118.23L40.57,106.32L40.83,146.03L41.05,126.18L41.05,114.27L41.05,106.33L41.59,146.03L41.78,130.15L41.83,146.03L42.52,106.33L42.59,138.09L42.69,134.12L42.93,146.03L43.47,66.63L43.48,146.03L43.55,66.63L44.17,146.03L44.24,138.09L44.32,146.03L44.95,110.3L44.99,126.19L45.01,122.22L45.24,102.37L45.72,146.03L45.75,130.15L45.78,134.12L45.86,146.03L45.89,114.28L46.53,146.03L46.54,146.03L46.98,114.28L47.17,138.09L47.21,146.03L47.45,90.46L47.96,122.22L47.96,138.09L48,146.03L48.1,102.37L48.68,138.09L48.71,142.06L48.82,146.03L49.03,122.22L49.05,102.37L49.21,86.51L49.61,146.03L49.75,146.03L49.81,130.16L49.94,146.03L50.12,110.32L50.54,146.03L50.59,146.03L50.71,122.22L50.89,130.16L50.89,146.03L51.31,94.44L51.65,126.19L51.66,130.16L51.7,146.03L52.25,114.28L52.38,134.13L52.41,146.03L53.04,94.44L53.08,142.06L53.19,142.06L53.46,146.03L53.9,118.25L53.9,118.25L53.98,142.06L54.1,146.03L54.54,98.41L54.7,146.03L54.72,146.03L55.24,114.28L55.46,146.03L55.48,134.13L55.5,146.03L55.85,98.4L56.2,146.03L56.22,146.03L56.76,118.25L56.92,146.03L57.01,146.03L57.7,114.29L57.7,146.03L58.38,114.29L58.46,130.16L58.54,130.16L58.6,146.03L59.25,122.22L59.25,122.22L59.29,138.09L59.67,110.31L59.98,146.03L60.02,134.13L60.02,130.16L60.07,98.41L60.61,146.03L60.79,134.12L60.79,122.22L61.38,102.37L61.4,146.03L61.51,122.22L61.51,106.34L61.63,146.03L62.25,134.12L62.32,146.03L62.72,122.21L63.1,126.19L63.13,146.03L63.58,110.31L63.6,122.21L63.7,138.09L63.75,118.25L64.45,146.03L64.48,146.03L64.69,74.61L65.19,122.22L65.25,138.09L65.53,146.03L65.98,110.31L65.98,114.28L66.02,110.31L66.13,98.41L66.28,146.03L66.73,106.35L66.78,142.06L66.91,130.16L67.06,146.03L67.3,138.09L67.37,130.16L67.75,146.03L67.96,78.58L68.09,142.06L68.13,138.1L68.2,146.03L68.25,110.31L68.85,114.28L68.91,146.03L69.42,94.45L69.65,146.03L69.68,134.13L69.75,146.03L70.45,106.35L70.45,106.35L70.47,106.35L70.66,94.44L71.26,146.03L71.34,126.19L71.88,114.3L72.02,146.03L72.06,130.16L72.07,110.33L72.58,146.03L72.68,86.52L72.82,138.1L72.86,146.03L73.14,102.39L73.6,102.39L73.62,126.19L74.25,106.36L74.47,146.03L74.47,146.03L74.52,146.03L75.18,114.29L75.26,146.03L75.29,146.03L76.07,126.19L76.07,130.16L76.14,146.03L76.67,114.3L76.87,146.03L76.9,142.07L76.95,146.03L77.51,114.29L77.62,146.03L77.68,142.06L77.97,146.03L78.27,78.58L78.29,138.1L78.35,142.07L78.37,146.03L78.54,82.55L79.09,118.26L79.11,142.06L79.63,110.32L79.86,134.13L79.89,134.13L79.96,146.03L80.02,106.35L80.42,146.03L80.46,146.03L81.15,110.33L81.19,138.1L81.23,146.03L81.3,66.71L81.94,126.2L82,138.1L82.51,146.03L82.55,102.39L82.56,102.39L82.56,90.49L82.96,82.56L83.12,146.03L83.27,126.19L83.43,134.13L83.54,146.03L84.09,110.32L84.11,142.06L84.21,134.13L84.81,118.26L84.96,146.03L84.97,138.1L84.97,130.16L85.47,102.39L85.69,146.03L85.7,110.32L86.18,106.35L86.37,146.03L86.43,130.16L86.48,146.03L87.14,126.19L87.23,134.12L87.28,134.12L87.37,146.03L87.92,102.38L88.01,142.06L88.13,146.03L88.25,114.28L88.74,130.16L88.76,146.03L89.5,94.45L89.52,130.16L89.74,110.32L90.03,146.03L90.26,146.03L90.3,134.13L90.43,118.25L90.93,146.03L90.96,122.22L90.98,106.34L91.2,146.03L91.73,114.29L91.78,134.13L92,146.03L92.11,58.7L92.51,130.16L92.52,146.03L92.94,114.28L93.27,130.15L93.29,138.09L93.82,122.22L93.94,146.03L94.02,138.09L94.06,138.09L94.17,146.03L94.31,118.24L94.37,106.33L94.54,146.03L95.1,142.06L95.17,138.09L95.62,118.24L95.68,146.03L95.73,138.09L95.74,118.25L96.54,146.03L96.57,146.03L96.84,86.5L97.22,138.09L97.22,146.03L97.5,122.22L97.96,138.09L98.01,138.09L98.15,146.03L98.76,106.33L98.78,138.09L98.88,146.03L99.4,78.55L99.5,130.15L99.55,134.12L99.84,122.21L100.26,146.03L100.26,142.06L100.36,146.03L101.05,114.28L101.18,142.06L101.33,146.03L101.4,110.31L101.91,146.03L102,134.13L102.52,146.03L102.6,122.22L102.72,130.16L102.72,122.22L103.61,146.03L103.61,146.03L103.61,138.09L103.91,146.03L104.02,122.22L104.21,138.09L104.28,146.03L105.01,110.31L105.07,122.22L105.11,134.12L105.16,146.03L105.43,114.28L105.79,146.03L105.91,146.03L106.15,118.25L106.65,126.19L106.67,126.19L106.91,146.03L107.37,110.31L107.45,110.31L107.45,102.37L107.67,146.03L108.17,118.25L108.22,118.25L108.38,146.03L108.67,106.34L108.94,126.19L109.03,138.09L109.12,146.03L109.33,122.22L109.75,138.09L109.83,138.09L109.95,146.03L109.98,110.31L110.57,134.13L110.59,134.13L111.2,146.03L111.21,118.25L111.29,118.25L111.32,114.28L111.62,106.35L112.02,146.03L112.05,142.06L112.1,126.19L112.13,146.03L112.22,78.58L112.83,146.03L112.86,146.03L113.39,114.29L113.62,142.06L113.62,146.03L114.32,70.66L114.35,126.2L114.36,146.03L115.05,58.76L115.08,146.03L115.18,146.03L115.22,70.66L115.94,122.23L115.94,146.03L115.94,110.33L116.69,138.1L116.72,138.1L116.84,146.03L116.94,130.16L117.09,146.03L117.09,118.26L117.12,146.03L117.62,106.36L117.83,146.03L117.86,146.03L118.11,102.4L118.58,134.13L118.65,146.03L119.23,118.27L119.4,122.23L119.46,146.03L119.68,98.43L120.21,146.03L120.23,142.07L120.23,146.03L120.4,114.3L120.96,142.07L121.06,146.03L121.79,118.27L121.79,146.03L122.36,70.68L122.54,146.03L122.58,146.03L122.99,102.41L123.29,126.2L123.29,142.07L123.38,146.03L123.91,114.3L124.02,122.24L124.03,146.03L124.2,126.2L124.8,130.17L124.84,130.17L125.21,106.37L125.5,146.03L125.56,122.23L125.57,122.23L125.75,114.3L126.28,146.03L126.31,130.17L126.35,130.17L126.58,122.24L126.9,146.03L127,134.13L127.02,142.07L127.52,146.03L127.57,126.2L127.74,130.17L127.81,146.03L127.87,126.2L128.56,146.03L128.6,130.17L128.93,110.33L129.23,146.03L129.35,134.13L129.35,130.16L129.54,110.33L129.93,146.03L130.06,118.27L130.14,118.27L130.16,110.33L130.19,146.03L130.79,130.17L130.88,134.13L131.2,126.2L131.63,146.03L131.63,130.17L131.72,126.2L132.4,146.03L132.43,142.07L132.43,138.1L132.74,146.03L132.75,118.27L132.8,118.27L133.46,146.03L133.54,130.17L133.56,114.3L133.65,146.03L134.3,142.07L134.37,142.07L134.45,146.03L134.86,110.33L135.08,130.17L135.15,130.17L135.17,146.03L135.35,110.33L135.9,138.1L135.91,138.1L135.91,146.03L135.98,110.33L136.66,146.03L136.69,118.27L136.98,146.03L137.43,102.42L137.48,106.38L137.51,146.03L137.69,102.41L138.19,134.13L138.24,134.13L138.29,130.17L139,146.03L139,134.14L139.27,118.27L139.55,146.03L139.73,130.17L139.73,126.2L140.4,146.03L140.45,114.3L140.46,114.3L140.5,138.1L140.78,146.03L141.02,122.23L141.2,126.2L141.23,142.07L141.45,110.33L141.61,146.03L141.98,138.1L142,138.1L142.19,146.03L142.43,118.26L142.79,122.23L142.79,142.07L142.93,146.03L143.19,86.52L143.58,122.23L143.59,146.03L144.27,102.38L144.34,122.23L144.36,146.03L144.43,102.39L145.11,130.16L145.18,142.07L145.26,146.03L145.64,130.16L145.85,146.03L145.9,146.03L146.33,98.41L146.61,126.19L146.62,146.03L147.03,118.25L147.29,126.19L147.36,146.03L147.55,106.35L148.09,126.19L148.1,138.09L148.19,118.25L148.22,142.06L148.44,138.1L148.46,146.03L149.14,114.28L149.2,146.03L149.21,146.03L149.52,62.69L149.9,146.03L149.96,146.03L150.36,126.19L150.65,146.03L150.68,146.03L150.81,130.16L151.04,146.03L151.16,146.03L151.24,110.31L151.86,138.1L151.9,138.1L152.07,114.28L152.62,146.03L152.63,126.19L152.71,122.22L152.79,146.03L153.01,146.03L153.07,146.03L153.8,126.19L153.82,146.03L153.83,142.06L153.93,146.03L154.15,86.51L154.6,126.19L154.6,138.1L154.74,146.03L155.32,110.32L155.33,110.32L155.38,142.06L155.89,118.25L155.94,146.03L155.96,126.19L155.96,114.28L156.03,98.42L156.66,146.03L156.74,134.13L156.74,130.16L156.99,118.25L157.49,146.03L157.51,106.35L158.1,146.03L158.22,122.22L158.27,114.28L158.27,110.32L158.42,146.03L158.98,146.03L159.05,142.06L159.12,118.26L159.28,146.03L159.78,130.16L159.82,130.16L160.15,102.38L160.48,146.03L160.48,126.19L160.52,126.19L161.04,114.28L161.25,146.03L161.26,142.06L161.32,146.03L162.14,122.22L162.16,142.06L162.36,146.03L162.86,110.32L162.91,130.16L162.93,146.03L163.24,94.45L163.68,138.09L163.7,138.09L163.87,146.03L163.9,138.09L163.97,118.25L164.01,146.03L164.03,94.45L164.68,118.25L164.78,118.25L164.78,146.03L165.48,126.19L165.55,126.19L165.58,146.03L165.91,90.49L166.3,126.19L166.33,146.03L167.05,118.26L167.11,122.23L167.11,146.03L167.27,114.29L167.65,134.13L167.68,146.03L167.88,90.51L168.43,126.2L168.44,146.03L169.11,118.26L169.14,130.16L169.2,146.03L169.63,118.26L169.7,146.03L169.77,82.56L169.77,78.6L169.8,146.03L170.48,146.03L170.54,142.07L170.69,146.03L170.77,74.63L171.22,142.07L171.22,126.2L171.93,146.03L171.98,134.13L172.08,146.03L172.2,118.27L172.31,138.1L172.31,146.03L172.71,122.24L173.05,146.03L173.07,146.03L173.44,90.51L173.8,146.03L173.81,146.03L174.24,122.23L174.54,142.07L174.57,142.07L174.8,98.44L175.03,146.03L175.2,134.14L175.22,126.2L175.22,146.03L175.42,102.41L175.95,130.17L176,146.03L176.65,114.31L176.68,134.14L176.78,134.14L176.81,146.03L177.47,118.28L177.47,138.1L177.55,130.17L177.76,66.74L178.2,146.03L178.29,142.07L178.31,134.14L178.56,102.42L179.1,146.03L179.14,142.07L179.3,146.03L179.57,42.96L179.85,138.1L179.94,142.07L180.19,146.03L180.26,114.31L180.28,146.03L180.3,146.03L180.81,110.35L181.06,118.28L181.12,118.28L181.58,146.04L181.67,110.35L181.85,130.17L181.92,142.07L182.31,146.03L182.32,130.17L182.35,142.07L182.37,122.24L182.37,110.35L182.47,146.04L183.09,146.03L183.15,146.03L183.4,146.04L183.64,110.35L183.89,146.03L183.92,146.03L184.29,114.31L184.71,134.14L184.74,142.07L184.74,126.21L185.05,146.04L185.48,146.04L185.5,146.04L185.85,102.42L186.18,138.11L186.26,138.11L186.35,146.04L186.76,102.42L186.89,146.03L186.94,114.31L186.95,146.03L187.28,98.45L187.68,142.07L187.7,146.03L188.15,146.04L188.45,102.42L188.48,146.03L189.22,98.43L189.26,122.23L189.3,122.23L189.63,146.03L189.91,70.67L190.04,118.27L190.13,146.03L190.44,118.27L190.71,142.07L190.76,146.03L190.86,102.41L190.91,122.24L190.95,146.03L191.68,106.38L191.68,106.38L191.74,106.38L191.88,90.52L192.5,146.03L192.51,142.07L192.62,122.24L193.06,146.03L193.13,130.17L193.22,130.17L193.28,146.03L193.83,102.41L193.93,122.24L193.96,146.03L194.26,102.42L194.7,146.03L194.76,146.03L195.35,94.48L195.51,138.1L195.55,122.24L195.55,102.41L195.56,146.03L196.26,114.3L196.33,126.2L196.36,102.41L196.38,146.03L197.05,130.17L197.13,142.07L197.13,106.38L197.3,146.03L197.87,122.24L197.9,138.1L198.14,134.14L198.51,146.03L198.56,138.1L198.56,126.2L198.72,146.03L199.14,114.29L199.14,114.29L199.16,146.03L199.5,86.51L199.9,98.43L199.95,126.2L200.6,110.34L200.73,146.03L200.74,142.07L200.75,146.03L201.47,118.26L201.47,118.26L201.54,122.23L201.78,106.37L202.04,146.03L202.28,130.16L202.3,118.26L203,106.37L203.06,146.03L203.1,146.03L203.4,86.54L203.85,134.14L203.87,142.07L203.87,146.03L204.2,114.3L204.62,142.07L204.63,138.1L204.66,146.03L205.1,94.47L205.33,138.1L205.4,134.13L205.45,146.03L205.47,118.27L206.12,130.17L206.16,130.17L206.21,146.03L206.63,118.27L206.87,146.03L206.88,146.03L207.34,98.43L207.69,130.17L207.7,146.03L207.74,114.3L208.45,130.16L208.46,130.16L208.57,138.1L208.64,110.33L208.75,118.26L208.77,146.03L209.1,58.74L209.38,126.2L209.49,126.2L209.5,110.32L209.55,146.03L210.04,118.26L210.24,130.16L210.7,146.03L210.8,106.36L211.01,138.1L211.02,138.1L211.06,146.03L211.58,118.26L211.74,146.03L211.79,122.23L211.85,146.03L212.26,94.46L212.37,114.29L212.39,146.03L212.8,118.26L213.14,122.23L213.16,146.03L213.92,106.36L213.96,126.2L213.97,134.13L214.22,146.03L214.38,90.49L214.73,114.29L214.79,110.32L214.88,146.03L215.07,94.46L215.54,146.03L215.58,94.47L215.62,82.57L215.82,146.03L216.33,142.07L216.37,142.07L216.45,146.03L216.52,62.73L217.08,126.2L217.13,130.16L217.13,110.33L217.42,146.03L217.87,126.2L217.98,142.07L218.11,146.03L218.31,110.33L218.31,90.49L218.42,86.52L219.1,146.03L219.13,94.46L219.24,146.03L219.87,110.33L219.89,146.03L220.63,94.46L220.7,142.07L220.73,106.36L220.91,146.03L221.43,114.29L221.5,114.29L222.2,146.03L222.22,142.07L222.27,146.03L222.81,118.26L223.01,138.1L223.02,142.07L223.15,146.03L223.32,114.3L223.68,138.1L223.74,138.1L224.07,118.26L224.21,146.03L224.27,126.2L224.92,110.33L225.08,146.03L225.09,142.07L225.09,146.03L225.54,114.29L225.77,138.1L225.88,134.13L226.26,114.29L226.69,146.03L226.72,146.03L227.42,98.43L227.42,98.43L227.48,142.07L227.57,126.2L228.21,146.03L228.23,142.07L228.25,142.07L228.74,134.13L228.78,146.03L228.78,146.03L228.78,130.17L229.36,102.39L229.46,146.03L229.52,110.33L230.29,146.03L230.29,146.03L230.31,118.27L230.46,146.03L230.87,46.89L231.03,146.03L231.1,146.03L231.25,146.03L231.25,142.07L231.39,146.03L231.76,122.24L231.96,138.1L232,146.03L232.6,66.74L232.72,86.56L232.75,146.04L232.84,106.39L233.45,146.03L233.5,146.03L233.63,146.04L234.18,82.59L234.23,130.17L234.28,146.04L234.68,82.6L235.03,98.45L235.04,98.45L235.2,146.04L235.81,146.03L235.82,146.03L235.9,146.04L236.29,122.25L236.61,134.14L236.63,134.14L236.9,146.04L237.34,126.21L237.34,126.21L237.4,142.07L237.48,146.03L237.8,110.35L238.14,146.03L238.17,146.03L238.43,118.28L238.57,134.14L238.57,146.03L238.62,90.51L238.79,146.04L239.33,102.44L239.36,146.04L239.96,106.38L240.14,130.18L240.14,146.03L240.23,146.04L240.36,118.28L240.88,122.24L240.92,130.17L240.97,110.34L241,146.03L241.63,142.07L241.69,146.03L241.92,106.38L242.07,146.04L242.43,146.04L242.45,146.03L242.72,114.32L242.79,146.04L243.15,146.04L243.2,142.07L243.32,110.35L243.79,146.04L243.89,142.07L243.89,130.18L244.36,146.04L244.46,106.4L244.47,106.4L244.47,94.51L245.13,146.04L245.22,142.07L245.25,146.04L245.85,86.58L245.96,134.14L246.02,146.04L246.47,118.29L246.76,138.11L246.83,138.11L247.02,90.54L247.35,146.04L247.56,138.11L247.57,134.14L247.57,146.04L248.31,82.6L248.33,146.04L248.42,98.46L249.06,130.18L249.12,122.25L249.67,118.29L249.9,146.04L249.96,146.04L250.16,114.32L250.7,146.04L250.74,146.04L251.1,114.33L251.47,138.11L251.49,146.04L251.61,122.25L252.23,126.22L252.26,142.07L252.37,106.39L252.43,146.04L252.92,134.14L253.02,146.04L253.2,90.53L253.78,130.18L253.78,138.11L253.96,146.04L254.26,118.29L254.51,130.18L254.57,122.26L255.1,146.04L255.16,102.43L255.18,98.47L255.25,146.04L255.25,86.58L255.9,106.4L255.9,126.22L256,146.04L256.12,94.51L256.59,142.07L256.66,142.07L256.97,126.22L257.2,146.04L257.25,122.25L257.35,86.58L257.57,146.04L257.99,114.33L258.05,142.07L258.14,110.36L258.26,146.04L258.43,146.04L258.45,146.04L259.03,118.29L259.2,138.11L259.23,138.11L259.54,90.56L259.76,146.04L259.95,142.07L260,142.07L260.06,86.6L260.06,146.04L260.72,142.07L260.73,142.07L260.86,110.37L260.9,146.04L261.27,122.26L261.47,134.15L261.53,146.04L261.78,114.33L262.2,146.04L262.21,146.04L262.61,90.54L262.95,110.35L262.99,146.04L263.33,78.64L263.67,138.11L263.71,142.07L263.8,146.04L264.09,82.61L264.34,146.04L264.48,138.11L264.54,146.04L264.65,102.43L265.14,134.14L265.14,122.25L265.47,102.44L265.91,146.04L266.01,134.14L266.63,94.51L266.75,146.04L266.76,142.07L266.77,142.07L267.23,122.25L267.43,146.04L267.55,146.04L267.81,122.25L268.29,130.18L268.32,146.04L269.04,110.36L269.06,126.22L269.09,146.04L269.86,102.44L269.88,130.18L269.95,110.36L269.99,146.04L270.57,130.18L270.6,146.04L271.43,98.47L271.45,146.04L271.66,106.4L272.15,134.15L272.21,138.11L272.81,122.26L272.94,146.04L272.94,126.22L273.04,146.04L273.18,122.26L273.65,138.11L273.71,138.11L273.71,146.04L274.01,98.48L274.43,138.11L274.5,138.11L274.81,118.29L275.16,146.04L275.22,114.34L275.5,102.44L275.89,146.04L276,138.11L276,122.26L276.19,106.41L276.58,146.04L276.69,142.08L276.81,142.08L277.06,146.04L277.18,110.38L277.58,130.19L277.63,146.04L278.36,98.48L278.4,146.04L278.58,74.7L279.14,126.23L279.23,134.15L279.43,78.67L279.95,146.04L279.96,134.15L279.97,114.33L280.68,146.04L280.7,106.41L280.72,106.41L280.74,86.59L280.9,146.04L281.43,146.04L281.47,146.04L282.12,118.29L282.17,138.11L282.21,142.07L282.27,146.04L282.5,110.37L282.91,130.18L282.95,138.11L283.11,106.4L283.48,146.04L283.68,134.15L283.72,134.15L284.27,146.04L284.37,126.22L284.39,110.37L284.42,146.04L285.13,130.19L285.15,138.11L285.16,102.44L285.66,146.04L285.89,130.18L285.9,134.15L286.22,146.04L286.38,106.4L286.45,110.37L286.45,102.44L286.53,98.48L286.53,98.48L286.55,146.04L286.84,94.52L287.31,138.11L287.33,134.15L287.39,122.26L288.08,146.04L288.08,134.15L288.14,138.11L288.15,126.22L288.29,146.04L288.86,142.08L288.91,146.04L289.29,122.26L289.65,142.07L289.65,146.04L290.43,118.3L290.47,142.07L290.77,98.48L291.14,146.04L291.15,126.22L291.15,122.26L291.17,146.04L291.9,122.26L291.92,122.26L292.16,82.63L292.25,146.04L292.67,126.22L292.68,94.51L293.48,146.04L293.49,138.11L293.49,122.26L293.99,146.04L294.16,106.4L294.24,146.04L294.3,146.04L294.37,110.37L295.05,146.04L295.08,146.04L295.75,114.32L295.79,134.14L295.85,118.28L296.17,146.04L296.5,106.39L296.63,142.07L296.75,94.5L297.23,146.04L297.23,114.32L297.3,114.31L297.97,146.04L297.98,142.07L298.03,134.14L298.56,118.28L298.73,146.04L298.76,146.04L298.79,146.04L299,114.31L299.51,138.11L299.55,142.07L299.57,114.31L299.8,146.04L300.3,138.11L300.32,146.04L300.35,126.21L301.07,130.18L301.12,138.11L301.47,130.18L301.53,146.04L301.54,130.18L301.81,106.39L301.95,146.04L302.14,142.07L302.14,110.36L302.28,86.57L302.84,146.04L302.9,138.11L302.91,130.18L303.42,122.25L303.47,146.04L303.53,130.18L303.53,118.28L303.6,146.04L303.82,106.39L304.23,130.18L304.26,134.14L304.69,122.25L305.05,146.04L305.07,142.07L305.44,146.04L305.82,70.72L305.84,122.25L305.94,58.82L306.03,146.04L306.58,118.28L306.63,126.21L306.77,146.04L306.84,106.39L306.98,146.04L306.99,146.04L307.65,118.29L307.77,126.22L307.83,142.07L307.83,146.04L308.29,106.39L308.56,122.25L308.59,142.07L308.79,146.04L308.95,86.57L309.33,118.28L309.4,142.07L309.64,146.04L309.86,118.29L309.95,134.14L309.98,146.04L310.35,102.44L310.73,122.25L310.74,146.04L311.18,102.43L311.45,138.11L311.49,146.04L312.07,118.29L312.23,146.04L312.25,146.04L312.47,118.29L312.99,118.29L313.08,118.29L313.62,146.04L313.64,110.37L313.79,134.15L313.84,110.37L314.6,146.04L314.6,142.07L314.6,126.22L314.74,110.36L315.26,146.04L315.35,130.18L315.37,122.25L315.37,114.32L315.58,146.04L316.12,138.11L316.14,138.11L316.39,146.04L316.77,98.47L316.88,114.33L316.93,114.33L317.06,110.36L317.66,146.04L317.69,142.07L317.76,142.07L317.87,146.04L317.91,114.32L318.48,122.25L318.52,142.07L318.6,106.39L319.23,146.04L319.24,138.11L319.24,134.14L319.48,70.72L320.03,146.04L320.03,146.04L320.07,146.04L320.53,114.33L320.73,122.26L320.8,146.04L321.03,122.25L321.2,146.04L321.22,146.04L321.64,110.36L321.99,122.25L322.04,142.07L322.04,146.04L322.67,102.44L322.77,102.44L322.81,130.18L322.9,90.54L323,146.04L323.55,134.15L323.6,122.26L324.08,102.45L324.4,146.04L324.4,146.04L324.42,146.04L324.78,82.61L325.17,146.04L325.18,146.04L325.36,70.72L325.93,142.07L325.95,146.04L326.73,106.39L326.74,146.04L326.8,102.43L327.49,134.14L327.53,134.14L327.59,98.47L327.74,146.04L328.11,106.39L328.2,138.11L328.48,146.04L328.7,114.32L328.92,146.04L328.97,138.11L329.27,146.04L329.71,110.36L329.71,118.28L329.77,146.04L330.31,114.32L330.54,122.25L330.56,122.25L331.14,146.04L331.27,98.46L331.32,138.11L331.35,142.07L331.81,146.04L331.89,94.5L332.1,142.07L332.12,142.07L332.19,146.04L332.85,114.32L332.85,126.22L332.95,146.04L333.31,98.47L333.55,138.11L333.57,142.07L333.6,146.04L333.73,126.22L334.32,126.22L334.33,146.04L334.8,106.39L335.18,122.25L335.18,142.07L335.33,146.04L335.49,118.29L335.93,118.29L335.96,118.29L336.09,146.04L336.71,106.39L336.73,138.11L336.88,106.39L337.49,146.04L337.5,142.07L337.55,146.04L338.25,110.35L338.26,110.35L338.73,146.04L339,138.1L339.08,114.31L339.73,58.76L339.83,146.03L339.83,138.1L339.85,142.07L339.91,74.63L340.03,146.03L340.57,134.14L340.62,134.14L340.83,98.45L341.37,146.03L341.38,142.07L341.4,146.03L342.12,106.38L342.13,146.03L342.28,94.49L342.54,146.04L342.84,146.04L342.85,146.04L343.31,114.32L343.58,134.14L343.62,146.03L344.13,146.04L344.33,110.35L344.38,126.21L344.4,134.14L344.99,146.04L345.02,126.21L345.13,126.21L345.2,134.14L345.71,130.17L345.86,146.03L345.86,146.03L345.87,122.24L345.88,94.49L345.96,146.03L346.62,126.2L346.63,126.2L347.08,110.34L347.39,146.03L347.43,146.03L347.66,98.45L347.67,146.03L347.69,146.03L347.75,94.48L348.4,146.03L348.42,146.03L348.7,110.34L349.17,146.03L349.19,146.03L349.66,114.31L349.93,138.1L349.98,146.03L350.74,94.48L350.75,142.07L350.77,146.03L351.06,82.58L351.47,126.2L351.52,146.03L352.09,126.2L352.3,134.13L352.33,142.07L352.45,146.03L353.07,98.44L353.1,118.27L353.11,142.07L353.25,130.17L353.31,146.03L353.35,130.17L353.35,110.34L353.38,146.03L354.1,146.03L354.13,146.03L354.19,102.4L354.83,142.07L354.86,146.03L355.38,122.23L355.5,134.13L355.5,146.03L355.92,82.57L356.18,126.2L356.2,126.2L356.79,94.46L356.93,146.03L356.95,126.2L356.95,114.3L357.02,102.4L357.16,146.03L357.52,146.03L357.54,146.03L358.36,122.23L358.38,126.2L358.41,126.2L358.43,146.03L358.76,118.27L359.16,146.03L359.17,130.17L359.22,146.03L359.62,110.34L359.92,114.3L359.93,146.03L360.24,114.3L360.68,134.14L360.69,134.14L361.15,102.41L361.26,146.03L361.35,126.2L361.35,118.27L361.49,146.03L361.55,66.72L362.01,142.07L362.06,142.07L362.08,146.03L362.46,110.34L362.81,138.1L362.82,118.27L363.13,146.03L363.4,98.44L363.57,126.2L363.58,126.2L364.36,146.03L364.36,146.03L364.41,146.03L364.72,102.41L365.16,126.2L365.18,126.2L365.49,146.03L365.81,106.37L365.86,146.03L365.91,106.37L366.61,138.1L366.63,138.1L366.64,146.03L367.16,126.21L367.37,142.07L367.41,142.07L367.46,146.03L367.47,98.44L368.09,130.17L368.13,134.14L368.13,146.03L368.29,106.38L368.88,130.17L368.93,130.17L369.05,146.03L369.65,110.34L369.68,130.17L369.73,146.04L369.81,110.34L370.46,122.24L370.51,122.24L370.82,118.28L371.27,146.04L371.28,142.07L371.29,142.07L371.29,146.04L371.58,114.31L371.99,138.1L372.06,138.1L372.19,106.38L372.59,146.04L372.77,118.28L372.8,142.07L372.86,146.04L373.18,106.38L373.55,130.17L373.57,142.07L373.84,94.48L374.02,146.04L374.29,130.17L374.33,138.1L374.44,146.03L374.64,122.24L375.08,138.1L375.11,138.1L375.13,146.03L375.46,78.62L375.83,118.28L375.88,118.28L376.37,74.65L376.49,146.03L376.59,106.37L376.6,106.37L376.6,90.51L377.03,146.03L377.35,146.03L377.36,138.1L377.59,122.24L377.85,146.03L377.86,134.14L377.87,110.34L377.88,94.48L377.94,146.03L378.59,134.14L378.6,146.03L378.97,114.31L379.35,146.03L379.36,146.03L379.81,94.49L380.11,122.24L380.14,138.1L380.28,146.03L380.65,118.27L380.85,142.07L380.9,138.1L380.94,146.03L381.4,114.31L381.53,142.07L381.61,142.07L381.61,146.03L381.69,98.45L382.36,134.14L382.37,146.03L382.81,110.34L382.82,146.03L383.08,114.31L383.61,122.24L383.64,146.03L383.81,126.2L383.94,138.1L383.95,106.37L384.01,82.55L384.58,146.03L384.7,126.2L384.74,126.2L384.81,106.37L384.81,146.03L385.39,134.13L385.43,142.07L385.53,146.03L385.58,118.26L386.17,142.07L386.19,142.07L386.3,146.03L386.65,102.38L386.94,134.13L386.97,134.13L386.97,146.03L387.1,122.22L387.7,126.19L387.73,126.19L388.03,118.26L388.43,146.03L388.49,142.06L388.5,138.1L388.58,146.03L388.82,114.29L389.23,142.06L389.28,142.06L389.34,146.03L390.02,110.32L390.04,126.19L390.13,106.35L390.19,146.03L390.78,130.16L390.82,130.16L391.18,110.32L391.44,146.03L391.58,142.07L391.6,142.07L391.63,118.26L391.67,146.03L392.33,134.13L392.36,146.03L392.8,122.22L393.02,142.06L393.07,146.03L393.8,98.41L393.82,102.38L393.9,130.16L393.94,146.03L394.01,110.32L394.65,142.06L394.66,138.1L394.78,146.03L395.32,106.35L395.37,146.03L395.4,146.03L395.77,122.22L396.13,138.1L396.2,146.03L396.33,114.29L396.95,130.16L396.99,126.19L397.32,98.41L397.75,146.03L397.75,134.12L397.96,102.38L397.97,146.03L398.44,110.31L398.51,138.09L398.51,146.03L398.56,122.22L399,138.09" style="vector-effect: non-scaling-stroke; fill: none; stroke: rgb(0, 204, 150); stroke-opacity: 1; stroke-width: 2px; opacity: 1;"/></g><g class="points"/><g class="text"/></g></g></g><g class="overplot"/><path class="xlines-above crisp" d="M0,0" style="fill: none;"/><path class="ylines-above crisp" d="M0,0" style="fill: none;"/><g class="overlines-above"/><g class="xaxislayer-above"><g class="xtick"><text text-anchor="start" x="0" y="416" transform="translate(206.64,0) rotate(30,0,408.5)" style="font-family: 'Times New Roman'; font-size: 15px; fill: rgb(13, 13, 13); fill-opacity: 1; white-space: pre; opacity: 1;">1.6125210<tspan style="font-size:70%" dy="-0.6em">18</tspan><tspan dy="0.42em"></tspan></text></g><g class="xtick"><text text-anchor="start" x="0" y="416" style="font-family: 'Times New Roman'; font-size: 15px; fill: rgb(13, 13, 13); fill-opacity: 1; white-space: pre; opacity: 1;" transform="translate(285.82,0) rotate(30,0,408.5)">1.61252510<tspan style="font-size:70%" dy="-0.6em">18</tspan><tspan dy="0.42em"></tspan></text></g><g class="xtick"><text text-anchor="start" x="0" y="416" style="font-family: 'Times New Roman'; font-size: 15px; fill: rgb(13, 13, 13); fill-opacity: 1; white-space: pre; opacity: 1;" transform="translate(364.99,0) rotate(30,0,408.5)">1.6125310<tspan style="font-size:70%" dy="-0.6em">18</tspan><tspan dy="0.42em"></tspan></text></g><g class="xtick"><text text-anchor="start" x="0" y="416" style="font-family: 'Times New Roman'; font-size: 15px; fill: rgb(13, 13, 13); fill-opacity: 1; white-space: pre; opacity: 1;" transform="translate(444.17,0) rotate(30,0,408.5)">1.61253510<tspan style="font-size:70%" dy="-0.6em">18</tspan><tspan dy="0.42em"></tspan></text></g><g class="xtick"><text text-anchor="start" x="0" y="416" style="font-family: 'Times New Roman'; font-size: 15px; fill: rgb(13, 13, 13); fill-opacity: 1; white-space: pre; opacity: 1;" transform="translate(523.3399999999999,0) rotate(30,0,408.5)">1.6125410<tspan style="font-size:70%" dy="-0.6em">18</tspan><tspan dy="0.42em"></tspan></text></g></g><g class="yaxislayer-above"><g class="ytick"><text text-anchor="end" x="136" y="12.25" transform="translate(0,369.13)" style="font-family: 'Times New Roman'; font-size: 35px; fill: rgb(13, 13, 13); fill-opacity: 1; white-space: pre; opacity: 1;">0.03</text></g><g class="ytick"><text text-anchor="end" x="136" y="12.25" style="font-family: 'Times New Roman'; font-size: 35px; fill: rgb(13, 13, 13); fill-opacity: 1; white-space: pre; opacity: 1;" transform="translate(0,329.41999999999996)">0.02</text></g><g class="ytick"><text text-anchor="end" x="136" y="12.25" style="font-family: 'Times New Roman'; font-size: 35px; fill: rgb(13, 13, 13); fill-opacity: 1; white-space: pre; opacity: 1;" transform="translate(0,289.71000000000004)">0.01</text></g><g class="ytick"><text text-anchor="end" x="136" y="12.25" style="font-family: 'Times New Roman'; font-size: 35px; fill: rgb(13, 13, 13); fill-opacity: 1; white-space: pre; opacity: 1;" transform="translate(0,250)">0</text></g><g class="ytick"><text text-anchor="end" x="136" y="12.25" style="font-family: 'Times New Roman'; font-size: 35px; fill: rgb(13, 13, 13); fill-opacity: 1; white-space: pre; opacity: 1;" transform="translate(0,210.29000000000002)">0.01</text></g><g class="ytick"><text text-anchor="end" x="136" y="12.25" style="font-family: 'Times New Roman'; font-size: 35px; fill: rgb(13, 13, 13); fill-opacity: 1; white-space: pre; opacity: 1;" transform="translate(0,170.57999999999998)">0.02</text></g><g class="ytick"><text text-anchor="end" x="136" y="12.25" style="font-family: 'Times New Roman'; font-size: 35px; fill: rgb(13, 13, 13); fill-opacity: 1; white-space: pre; opacity: 1;" transform="translate(0,130.87)">0.03</text></g></g><g class="overaxes-above"/></g></g><g class="polarlayer"/><g class="smithlayer"/><g class="ternarylayer"/><g class="geolayer"/><g class="funnelarealayer"/><g class="pielayer"/><g class="iciclelayer"/><g class="treemaplayer"/><g class="sunburstlayer"/><g class="glimages"/><defs id="topdefs-a6c168"><g class="clips"/><clipPath id="legenda6c168"><rect width="144" height="67" x="0" y="0"/></clipPath></defs><g class="layer-above"><g class="imagelayer"/><g class="shapelayer"/></g><g class="infolayer"><g class="legend" pointer-events="all" transform="translate(543.98,100)"><rect class="bg" shape-rendering="crispEdges" style="stroke: rgb(68, 68, 68); stroke-opacity: 1; fill: rgb(255, 255, 255); fill-opacity: 1; stroke-width: 0px;" width="144" height="67" x="0" y="0"/><g class="scrollbox" transform="" clip-path="url(#legenda6c168)"><g class="groups"><g class="traces" transform="translate(0,14.5)" style="opacity: 1;"><text class="legendtext" text-anchor="start" x="40" y="4.680000000000001" style="font-family: 'Open Sans', verdana, arial, sans-serif; font-size: 12px; fill: rgb(42, 63, 95); fill-opacity: 1; white-space: pre;">Realized (in %)</text><g class="layers" style="opacity: 1;"><g class="legendfill"/><g class="legendlines"><path class="js-line" d="M5,0h30" style="fill: none; stroke: rgb(99, 110, 250); stroke-opacity: 1; stroke-width: 2px;"/></g><g class="legendsymbols"><g class="legendpoints"/></g></g><rect class="legendtoggle" x="0" y="-9.5" width="138.71875" height="19" style="fill: rgb(0, 0, 0); fill-opacity: 0;"/></g><g class="traces" transform="translate(0,33.5)" style="opacity: 1;"><text class="legendtext" text-anchor="start" x="40" y="4.680000000000001" style="font-family: 'Open Sans', verdana, arial, sans-serif; font-size: 12px; fill: rgb(42, 63, 95); fill-opacity: 1; white-space: pre;">Effective (in %)</text><g class="layers" style="opacity: 1;"><g class="legendfill"/><g class="legendlines"><path class="js-line" d="M5,0h30" style="fill: none; stroke: rgb(239, 85, 59); stroke-opacity: 1; stroke-width: 2px;"/></g><g class="legendsymbols"><g class="legendpoints"/></g></g><rect class="legendtoggle" x="0" y="-9.5" width="138.71875" height="19" style="fill: rgb(0, 0, 0); fill-opacity: 0;"/></g><g class="traces" transform="translate(0,52.5)" style="opacity: 1;"><text class="legendtext" text-anchor="start" x="40" y="4.680000000000001" style="font-family: 'Open Sans', verdana, arial, sans-serif; font-size: 12px; fill: rgb(42, 63, 95); fill-opacity: 1; white-space: pre;">Half Quoted (in %)</text><g class="layers" style="opacity: 1;"><g class="legendfill"/><g class="legendlines"><path class="js-line" d="M5,0h30" style="fill: none; stroke: rgb(0, 204, 150); stroke-opacity: 1; stroke-width: 2px;"/></g><g class="legendsymbols"><g class="legendpoints"/></g></g><rect class="legendtoggle" x="0" y="-9.5" width="138.71875" height="19" style="fill: rgb(0, 0, 0); fill-opacity: 0;"/></g></g></g><rect class="scrollbar" rx="20" ry="3" width="0" height="0" style="fill: rgb(128, 139, 164); fill-opacity: 1;" x="0" y="0"/></g><g class="g-gtitle"/><g class="g-xtitle"><text class="xtitle" x="336.5" y="487.503125" text-anchor="middle" style="font-family: 'Open Sans', verdana, arial, sans-serif; font-size: 14px; fill: rgb(42, 63, 95); opacity: 1; font-weight: normal; white-space: pre;">Time Steps (ns)</text></g><g class="g-ytitle" transform="translate(24,0)"><text class="ytitle" transform="rotate(-90,12,250)" x="12" y="250" text-anchor="middle" style="font-family: 'Times New Roman'; font-size: 40px; fill: rgb(13, 13, 13); opacity: 1; font-weight: normal; white-space: pre;">Spreads (in %)</text></g></g></svg>