<svg class="main-svg" xmlns="http://www.w3.org/2000/svg" xmlns:xlink="http://www.w3.org/1999/xlink" width="700" height="500" style="" viewBox="0 0 700 500"><rect x="0" y="0" width="700" height="500" style="fill: rgb(255, 255, 255); fill-opacity: 1;"/><defs id="defs-c49f2a"><g class="clips"><clipPath id="clipc49f2axyplot" class="plotclip"><rect width="494" height="320"/></clipPath><clipPath class="axesclip" id="clipc49f2ax"><rect x="126" y="0" width="494" height="500"/></clipPath><clipPath class="axesclip" id="clipc49f2ay"><rect x="0" y="100" width="700" height="320"/></clipPath><clipPath class="axesclip" id="clipc49f2axy"><rect x="126" y="100" width="494" height="320"/></clipPath></g><g class="gradients"/><g class="patterns"/></defs><g class="bglayer"><rect class="bg" x="126" y="100" width="494" height="320" style="fill: rgb(229, 236, 246); fill-opacity: 1; stroke-width: 0;"/></g><g class="layer-below"><g class="imagelayer"/><g class="shapelayer"/></g><g class="cartesianlayer"><g class="subplot xy"><g class="layer-subplot"><g class="shapelayer"/><g class="imagelayer"/></g><g class="minor-gridlayer"><g class="x"/><g class="y"/></g><g class="gridlayer"><g class="x"><path class="xgrid crisp" transform="translate(212.22,0)" d="M0,100v320" style="stroke: rgb(255, 255, 255); stroke-opacity: 1; stroke-width: 1px;"/><path class="xgrid crisp" transform="translate(310.25,0)" d="M0,100v320" style="stroke: rgb(255, 255, 255); stroke-opacity: 1; stroke-width: 1px;"/><path class="xgrid crisp" transform="translate(408.28,0)" d="M0,100v320" style="stroke: rgb(255, 255, 255); stroke-opacity: 1; stroke-width: 1px;"/><path class="xgrid crisp" transform="translate(506.3,0)" d="M0,100v320" style="stroke: rgb(255, 255, 255); stroke-opacity: 1; stroke-width: 1px;"/><path class="xgrid crisp" transform="translate(604.3299999999999,0)" d="M0,100v320" style="stroke: rgb(255, 255, 255); stroke-opacity: 1; stroke-width: 1px;"/></g><g class="y"><path class="ygrid crisp" transform="translate(0,364.31)" d="M126,0h494" style="stroke: rgb(255, 255, 255); stroke-opacity: 1; stroke-width: 1px;"/><path class="ygrid crisp" transform="translate(0,324.66999999999996)" d="M126,0h494" style="stroke: rgb(255, 255, 255); stroke-opacity: 1; stroke-width: 1px;"/><path class="ygrid crisp" transform="translate(0,285.03999999999996)" d="M126,0h494" style="stroke: rgb(255, 255, 255); stroke-opacity: 1; stroke-width: 1px;"/><path class="ygrid crisp" transform="translate(0,245.41)" d="M126,0h494" style="stroke: rgb(255, 255, 255); stroke-opacity: 1; stroke-width: 1px;"/><path class="ygrid crisp" transform="translate(0,205.78)" d="M126,0h494" style="stroke: rgb(255, 255, 255); stroke-opacity: 1; stroke-width: 1px;"/><path class="ygrid crisp" transform="translate(0,166.15)" d="M126,0h494" style="stroke: rgb(255, 255, 255); stroke-opacity: 1; stroke-width: 1px;"/><path class="ygrid crisp" transform="translate(0,126.51)" d="M126,0h494" style="stroke: rgb(255, 255, 255); stroke-opacity: 1; stroke-width: 1px;"/></g></g><g class="zerolinelayer"><path class="yzl zl crisp" transform="translate(0,403.94)" d="M126,0h494" style="stroke: rgb(255, 255, 255); stroke-opacity: 1; stroke-width: 2px;"/></g><path class="xlines-below"/><path class="ylines-below"/><g class="overlines-below"/><g class="xaxislayer-below"/><g class="yaxislayer-below"/><g class="overaxes-below"/><g class="plot" transform="translate(126,100)" clip-path="url(#clipc49f2axyplot)"><g class="scatterlayer mlayer"><g class="trace scatter trace568508" style="stroke-miterlimit: 2; opacity: 1;"><g class="fills"/><g class="errorbars"/><g class="lines"><path class="js-line" d="M0,303.88L0.33,303.9L0.47,303.31L0.47,303.25L1.04,302.93L1.04,302.69L1.09,302.63L1.87,300.29L1.96,300.23L2.89,299.19L2.89,299.23L3.92,297.06L3.93,297.1L3.93,297.26L4,297.78L4.61,296.95L4.67,297.16L4.71,297.2L5.2,298.14L5.4,296.78L5.46,297.09L5.51,297.03L6.06,297.44L6.23,296.98L6.25,296.92L7.1,296.27L7.1,296.31L7.13,296.39L7.71,297.74L7.87,293.74L7.87,293.86L7.89,293.9L8.41,295.17L8.66,294.49L8.71,294.43L8.96,293.2L9.41,293.26L9.48,293.14L9.61,292.29L10.21,292.91L10.21,292.99L10.29,292.71L10.96,293.3L10.96,293.24L11.01,293.28L11.42,289.68L11.89,289.78L11.94,289.82L12.11,289.39L12.3,290.41L12.41,290.43L12.41,290.47L12.83,290.07L13.14,290.63L13.14,290.79L13.3,291.82L13.79,288.78L13.79,288.86L13.79,288.74L13.97,289.55L14.41,288.27L14.44,288.21L15.13,286.09L15.27,286.03L16,282.98L16.15,283.84L16.18,283.88L16.38,284.19L16.81,282.56L16.91,283.21L16.94,283.2L16.95,283.36L17.37,282.19L17.61,282.25L17.64,282.19L18.04,281.65L18.34,282.32L18.38,282.36L18.57,282.57L19.26,280.77L19.3,281.27L19.33,281.28L19.65,279.93L19.67,279.78L20.26,279.04L20.5,279.59L20.53,279.6L20.73,279.97L21.03,278.98L21.03,278.92L21.39,277.61L21.79,277.86L21.84,277.8L21.95,277.84L22.55,277.04L22.69,277.36L22.7,277.4L22.84,277.91L23.17,277.24L23.44,277.37L23.45,277.41L24.77,275.85L24.78,276.1L25.03,276.04L25.25,276.46L25.77,273.02L25.77,273.1L25.86,273.14L26.14,273.96L26.56,273.17L26.62,273.21L26.82,271.35L27.32,272.42L27.41,272.36L28.28,271.06L28.31,271.19L28.33,271.15L29.33,268.78L29.35,268.88L29.35,268.64L29.95,268.17L30,268.9L30.05,268.79L30.05,268.95L30.22,269.55L30.65,268.24L30.65,268.36L30.67,268.12L31.72,263.47L31.91,264.14L32,264.02L32.06,263.43L32.6,265.07L32.72,264.45L32.8,264.49L32.91,264.29L33.14,265.45L33.19,265.37L33.19,265.41L33.86,267.09L33.86,267.25L33.88,267.05L34.08,267.53L34.58,267.34L34.64,267.38L35,266.4L35,266.28L36.04,263.55L36.06,263.58L36.12,263.4L36.42,264.52L36.61,264.3L36.61,264.34L36.77,264.73L37.05,263.72L37.05,263.76L37.08,263.7L37.8,261.6L38.16,262L38.16,262.16L38.35,259.7L38.97,260.17L38.99,260.15L39.24,261.03L39.68,259.83L39.84,259.77L40.96,256.64L40.96,257.12L40.96,257.28L41.25,256.67L41.32,256.61L41.42,255.62L41.92,257.61L41.94,257.65L42.42,259.5L42.69,258.49L42.74,258.44L43.36,257.52L43.41,259.08L43.47,257.83L43.51,257.85L43.91,255.56L44.27,257.57L44.29,257.6L44.46,258.02L44.82,256.98L44.82,256.74L45.2,254.86L45.6,256.33L45.6,256.37L45.93,257.49L46.45,257.18L46.52,257.12L47.3,258.83L47.38,258.65L47.39,258.69L47.8,256.16L48.1,256.93L48.15,256.96L50.82,249.87L50.83,250.35L50.83,250.39L51.48,248.79L51.84,249.68L51.84,249.72L53.16,247.32L53.36,247.97L53.36,248.13L53.47,249.12L54.1,247.62L54.1,247.7L54.13,247.74L55.5,245.72L55.57,245.76L55.84,246.22L56.23,245.46L56.31,245.84L56.31,245.92L56.42,246.24L56.89,245.06L56.89,244.94L57.32,244.33L57.62,251.06L57.65,251.1L58.4,254.47L58.5,254.21L58.53,254.09L59,250.99L59.26,251.67L59.3,251.75L59.36,251.55L60.07,255.61L60.31,255.45L60.35,255.53L60.44,255.3L60.52,256.92L60.73,256.52L60.73,257.21L60.98,256.68L61.29,257.47L61.39,257.5L61.39,257.54L61.67,258.58L62.1,257.88L62.13,257.77L62.75,250.79L63.33,251.52L63.38,251.53L63.84,252.05L64.03,250.55L64.13,251.02L64.15,251.06L65.03,250.03L65.06,249.79L65.99,248.41L65.99,248.49L66.06,248.53L66.67,249.73L66.74,248.34L66.74,248.38L66.83,248.26L67.12,246.56L67.58,248.1L67.62,248.14L68.03,245.68L68.03,245.44L68.76,243.62L68.76,243.7L68.8,243.66L69.15,244.08L69.82,242.66L69.99,242.82L69.99,242.98L70.27,243.64L70.84,240.83L70.84,240.85L70.85,240.79L71.7,238.12L71.87,239.38L71.87,239.62L72.27,240.39L72.61,238.77L72.65,238.93L72.69,239.25L73.03,238.11L73.36,238.38L73.41,238.4L73.77,237.3L73.97,238.37L74.02,238.53L75.03,240.95L75.04,240.68L75.05,240.56L75.25,240.3L75.54,241.06L75.89,240.64L75.89,240.52L76.16,240.98L76.72,239.49L76.72,239.43L77.05,239.96L77.19,239.21L77.19,238.98L77.58,238.44L77.59,239.38L77.93,239.09L77.95,239.14L78.2,238.55L78.57,239.5L78.69,239.17L78.69,239.19L79.89,232.37L80.16,233.68L80.16,233.84L81.13,238.24L81.18,238.18L81.34,238.34L81.58,237.77L81.91,238.01L81.98,238.05L82.12,237.85L82.18,238.9L82.35,238.75L82.35,238.9L82.93,239.73L83.22,239.34L83.31,239.28L83.45,239.08L83.91,239.62L84.13,239.33L84.14,239.09L84.35,238.78L84.59,239.47L84.89,238.99L84.9,239.03L85.8,235.89L85.8,235.98L85.82,236.02L86.11,236.45L86.39,235.16L86.58,235.33L86.64,235.37L87.11,232.93L87.51,234.4L87.51,234.44L88.01,233.67L88.17,234.75L88.22,234.63L88.22,234.79L88.51,235.43L88.74,234.73L88.83,234.67L89.2,234.7L89.31,234.28L89.32,234.14L90.09,233.52L90.1,233.63L90.15,233.65L90.24,233.47L90.89,236.67L90.9,236.55L90.92,236.49L91.28,236.92L91.78,235.86L91.78,235.94L91.93,236.53L92.49,233.75L92.52,233.77L92.54,233.71L92.61,233.81L93.32,232.12L93.37,232.26L93.37,232.3L95.04,229.75L95.07,229.91L95.07,229.95L95.14,230.21L95.38,229.29L95.66,229.27L95.67,229.21L96.25,228.92L96.29,229.6L96.29,229.76L96.58,231.04L96.79,229.07L97.02,229.57L97.04,229.51L97.68,230.83L97.78,229.88L97.81,229.64L97.95,229.4L98.17,230.33L98.17,230.41L98.95,232.23L99.26,231.47L99.26,231.41L99.57,230.66L99.57,230.6L100.46,230.43L100.47,230.54L100.47,230.58L101.57,228.54L101.61,228.58L102.15,228.35L102.39,229.33L102.42,229.36L102.71,230.02L103.43,229.2L103.48,229.35L103.48,229.42L103.96,230.37L104.26,229.62L104.26,229.57L104.38,229.29L104.55,230.19L104.8,230.07L104.8,230.11L105.16,229.65L105.81,230.99L105.86,230.79L105.86,230.73L107.08,228.95L107.1,229.13L107.12,229.17L107.46,229.48L107.83,228.37L107.85,229.07L107.89,229.1L108.14,229.33L108.25,228.44L108.26,228.48L108.29,228.42L109.04,228.53L109.04,228.47L109.09,228.35L109.11,228.09L109.21,228.94L109.82,228.46L109.84,228.4L110.17,229.73L110.47,228.74L110.47,228.62L111.34,229.34L111.34,229.5L111.59,230.8L111.98,228.68L112.06,229.06L112.1,229L112.34,228.79L112.41,229.73L112.42,229.77L112.7,230.66L113.09,229.21L113.15,229.57L113.18,229.65L113.9,227.73L113.9,227.77L113.95,227.81L114.41,228.27L114.65,227.68L114.68,227.63L115.2,227.29L115.4,227.86L115.4,227.9L115.54,228.48L116,227.63L116.1,227.76L116.1,227.7L116.36,226.85L116.36,226.79L116.4,226.99L116.84,225.42L116.84,225.58L116.88,225.34L116.93,225.13L117.58,226.58L117.66,226.11L117.74,226.15L117.84,226.45L118.48,224.78L118.48,224.82L118.5,224.98L119.18,223.86L119.27,224.06L119.31,224.06L120.16,221.88L120.18,222.11L120.18,222.19L121.17,220.03L121.24,220.25L121.29,220.21L121.68,221.82L122.04,221.61L122.05,221.49L122.78,220.76L122.82,221.47L122.82,221.55L123.52,219.25L123.6,219.19L123.91,219.11L124.12,219.88L124.31,219.65L124.42,219.73L125.1,221.23L125.11,221.21L125.27,221.15L125.68,219.76L125.71,219.53L126.58,216.88L126.6,217.18L126.62,217.22L127.03,215.98L127.37,216.65L127.48,216.69L128.31,218.11L128.4,217.73L128.4,217.5L128.66,218.82L129.12,217.08L129.16,216.85L129.31,217.35L129.76,216.35L129.99,216.65L129.99,216.7L130.42,216.96L130.47,217.28L130.47,217.32L130.64,217.19L131.52,218.63L131.65,218.43L131.74,218.37L132.77,219.03L132.79,218.91L132.79,218.85L132.83,218.64L133.15,220.24L133.2,220.4L133.29,220.53L133.67,219.68L133.69,219.76L133.7,219.7L133.87,219.21L134.88,221.52L134.88,221.6L135.58,222.45L135.74,221.85L135.8,221.74L135.99,221.53L136.13,222.6L136.16,222.64L136.91,225.88L136.95,225.89L137.5,225.48L137.61,227.26L137.69,226.78L137.72,226.54L138.9,223.68L138.91,223.79L138.94,223.83L139.8,220.99L139.81,220.93L140.57,219.16L140.6,219.25L140.63,219.25L140.65,219.43L141.38,218.38L141.41,218.32L142.4,216.74L142.48,217.67L142.48,217.83L142.66,218.11L142.8,217L142.81,216.76L143.34,217.05L143.57,216.41L143.57,216.44L143.6,216.48L143.72,216.57L144.22,215.15L144.39,216.37L144.4,216.53L145.25,219.41L145.27,219.39L145.31,219.43L145.54,219.24L145.65,220.24L145.65,220.4L146.24,221.55L146.24,221.7L146.48,220.04L146.49,220.12L146.49,219.88L146.58,220.27L147.18,218.5L147.24,218.84L147.27,218.78L147.54,219.61L148.11,218.07L148.18,218.17L148.3,218.21L149.13,214.73L149.13,214.5L149.25,213.61L149.67,214.85L149.72,214.85L149.88,215.03L150.3,214.33L150.43,214.62L150.43,214.56L151.36,212.83L151.41,213.94L151.44,214.26L152.24,216.89L152.42,216.61L152.53,216.65L153.07,217.49L153.19,216.83L153.19,216.59L153.5,217.8L154.01,217.11L154.01,216.99L154.42,214.37L154.42,213.84L154.95,208.24L155.13,208.61L155.18,208.68L155.38,207.43L155.56,208.99L155.56,208.95L155.56,209.03L155.8,208.66L155.93,209.9L156.29,209.16L156.34,209.1L156.35,208.67L156.8,209.92L157.02,209.44L157.1,209.38L157.16,208.81L157.79,210.33L157.84,210.33L158.03,210.58L158.24,209.67L158.26,209.69L158.29,209.51L158.44,209.9L158.95,207.98L159.03,208.18L159.09,208.06L159.87,206.1L159.96,206.23L160,206.27L160.59,203.56L160.87,204.66L160.95,204.7L161.15,203.81L161.55,205L161.55,205.2L161.55,206.15L162.14,204.03L162.3,204.15L162.31,204.19L162.43,204.49L162.75,203.53L162.76,203.3L163.47,199.29L163.47,199.33L163.56,199.37L164.49,194.81L165.04,195.07L165.09,195.11L165.46,196.82L165.81,195.52L165.81,195.4L165.94,195.41L166.19,193.2L166.63,193.67L166.73,193.75L167.43,194.82L167.51,194.58L167.53,194.4L167.58,194.14L167.63,195.31L168.27,194.41L168.32,194.45L168.69,193.62L169.07,194.02L169.13,194.01L170.31,195.55L170.31,195.37L170.31,195.25L170.51,196.43L171.06,195.64L171.09,195.64L172.18,192.35L172.25,192.37L172.43,192.39L172.56,193.04L173.18,190.35L173.18,190.35L173.25,190.29L173.87,188.54L173.96,188.84L174.01,188.88L174.54,187.83L175.06,188.39L175.07,188.43L175.22,189.2L175.56,188.18L175.6,188.22L175.6,187.98L176.37,186.81L176.41,187.14L176.46,187.3L177.3,188.43L177.3,188.37L177.4,188.31L177.66,188.74L177.83,187.77L177.87,187.92L177.87,187.68L178.23,186.7L178.49,188.17L178.49,188.11L178.6,188.05L178.81,189.02L179.24,187.66L179.31,187.81L179.41,187.75L179.74,186.66L179.74,186.25L180.91,183.04L181.16,183.16L181.17,183.2L181.27,183.23L181.73,181.07L182.16,181.4L182.16,181.44L182.49,183.06L182.95,181.98L182.98,181.87L183.52,180.94L183.64,181.65L183.64,181.81L184.46,183.51L184.55,183.47L184.57,183.23L184.65,182.81L185.07,183.82L185.1,183.8L185.1,184.12L186.11,182.23L186.15,182.44L186.26,182.32L186.72,180.66L186.99,182.18L186.99,182.25L187.31,183.54L187.77,182.72L187.81,182.6L187.83,182.36L188.33,184.39L188.34,184.37L188.39,184.53L188.5,184.3L189.3,187.77L189.45,187.64L189.52,187.58L190.01,188.96L190.24,188.44L190.28,188.43L190.3,188.11L191.03,192.53L191.09,192.47L191.46,193.12L191.46,193.16L191.48,193.25L191.61,192.62L192.01,194.68L192.01,194.71L192.26,194.51L192.3,195.22L192.3,195.38L192.72,196.53L193.05,195.41L193.07,195.17L193.16,195.45L193.74,192.99L193.81,193.21L193.83,193.37L194.09,194.01L194.28,193.15L194.5,193.73L194.6,193.77L194.72,194.17L195.02,193.56L195.32,193.63L195.34,193.57L196.38,191.84L196.38,191.78L196.57,191.16L196.83,192.44L196.92,192.3L196.92,192.34L197.24,191.95L197.82,194.36L197.95,193.91L197.95,193.79L198.28,194.47L198.51,191.96L198.69,192.53L198.74,192.47L198.87,192L198.99,192.7L199.44,192.38L199.52,192.46L199.84,193.04L200.11,192.15L200.22,192.23L200.22,192.17L200.61,191.12L200.88,192L201.01,192.04L201.37,191.66L201.56,192.44L201.7,192.2L201.7,192.24L201.73,192.39L202.14,190.92L202.14,191L202.17,190.76L203.09,191.05L203.09,191.21L203.33,190.63L203.33,190.39L203.45,191.04L203.45,191.24L203.74,191.54L204.06,190.22L204.17,190.3L204.25,190.24L204.59,187.97L205.15,188.29L205.26,188.05L205.28,187.54L205.86,188.82L205.99,188.45L206,188.49L206.63,187.68L206.82,188.11L206.85,188.14L207.37,189.2L207.37,189.36L208,190.24L208.07,189.33L208.09,189.08L208.85,187.1L208.87,187.25L208.89,187.29L208.99,187.83L209.37,186.85L209.49,186.84L209.57,186.88L209.65,187.12L209.87,185.38L209.92,185.14L210.81,182.68L210.88,182.94L210.9,182.91L211.25,181.79L211.25,181.73L211.75,182.97L212,182.43L212.04,182.47L212.12,182.92L212.79,179.8L212.84,179.74L213.34,180.63L213.55,178.8L213.59,179.08L213.68,179.02L215.04,181.87L215.08,181.59L215.08,181.47L215.2,181.2L215.68,182.35L215.68,182.51L216.22,179.08L216.42,180.35L216.44,180.29L216.8,180.17L217.3,181.38L217.33,181.08L217.33,181.02L217.81,179.94L218,180.72L218.01,180.84L218.01,180.99L218.74,177.52L218.75,177.52L218.87,177.56L219.26,178.13L219.36,177.28L219.36,177.16L219.7,175.37L220.09,175.7L220.16,175.7L220.44,175.06L220.89,175.37L220.94,175.45L221.23,174.49L221.67,174.63L221.75,174.65L222.38,175.68L222.48,174.78L222.48,174.55L222.48,174.27L222.97,175.02L223.23,174.49L223.24,174.5L223.78,173.33L223.99,173.84L224.03,173.78L224.97,175.75L225.15,175.56L225.23,175.5L226.21,173.51L226.23,173.63L226.23,173.15L227.17,167.69L227.21,167.73L227.5,169.04L227.92,167.25L227.98,167.13L229.14,164L229.27,164.21L229.3,164.15L229.66,162.83L230.05,163.15L230.07,163.14L230.13,163.56L230.51,161.89L230.98,162.27L231.04,162.21L231.1,162.95L231.74,161.09L231.78,161.13L231.81,161.17L231.9,161.88L233.16,157.85L233.24,158L233.28,157.94L233.64,156.86L233.64,156.92L233.64,156.7L234.47,154.92L234.49,154.86L234.73,155.73L235.13,154.35L235.17,154.47L235.21,154.23L235.4,154.13L236.3,157.34L236.47,157.14L236.47,157.08L238.33,152.94L238.48,153.37L238.48,153.41L238.59,153.23L238.68,154.21L238.69,154.21L238.69,154.25L238.85,154.11L238.85,154.91L238.85,154.83L238.94,154.99L239.28,156.61L239.76,155.74L239.79,155.5L240.15,155.61L240.37,154.82L240.54,155.31L240.64,155.35L241.13,154.92L241.16,155.66L241.2,155.82L241.28,155.74L241.89,156.98L242.01,156.56L242.06,156.6L242.19,156.48L243.41,160.15L243.62,159.24L243.62,159L243.72,158.58L244.29,160.96L244.35,161.04L244.82,161.82L245.02,161.51L245.26,161.45L245.26,161.26L245.99,162.55L245.99,162.49L246.03,162.48L246.42,162.73L246.7,159.58L247.13,160.87L247.13,160.91L247.34,161.4L247.86,160.74L247.87,160.68L248.38,160.02L248.53,161.13L248.54,161.09L248.54,161.17L249.16,162.15L249.36,161.39L249.39,161.43L249.7,162.58L250.19,162.28L250.19,162.22L250.76,162.82L251,162.28L251.05,162.22L251.34,162.45L251.76,160.41L251.8,160.65L251.82,160.6L252.31,159.8L252.31,159.74L252.84,156.94L253.03,157.24L253.14,157.18L253.38,156.78L253.69,157.92L253.77,157.9L253.79,157.94L254.36,158.06L254.52,157.85L254.52,157.79L254.96,160.58L255.26,160.04L255.28,160.08L255.99,160.46L256.03,160.21L256.03,160.09L256.54,158.87L256.77,159.46L257.01,159.4L257.28,159.65L257.65,159.14L257.71,159.51L257.73,159.55L258.56,162.26L258.62,162.14L258.67,162.18L258.96,162.97L259.44,162.47L259.5,162.41L260.29,163.06L260.29,162.82L260.36,162.86L260.6,163.2L260.97,162.21L261.11,162.37L261.13,162.41L261.51,163.75L261.82,163.07L261.85,163.01L261.96,163.04L262.53,162.37L262.54,162.51L262.66,162.45L262.81,162.19L263.09,163.4L263.53,163.02L263.57,163.05L263.74,162.52L264.19,163.69L264.2,163.66L264.22,163.65L264.37,164.13L264.85,162.95L264.97,163.38L264.98,163.37L265.22,164.02L265.71,162.81L265.73,163.24L265.76,163.28L265.79,162.67L266.42,164.24L266.42,164.12L266.46,164.16L266.68,163.55L266.85,164.95L266.86,164.99L266.9,164.75L267.61,166.43L267.63,166.41L267.89,166.83L267.95,165.94L267.95,165.95L267.95,165.65L268.47,163.9L268.77,164.69L268.83,164.73L268.85,165.21L269.27,163.89L269.56,164.59L269.6,164.53L270,164.11L270.11,164.84L270.31,164.49L270.39,164.55L270.6,163.55L270.84,164.71L270.96,164.65L271.19,164.03L271.59,165.74L271.59,165.94L272.28,167.26L272.4,167.01L272.49,166.95L273.06,166.88L273.1,167.2L273.12,167.24L273.45,166.27L273.45,166.35L273.45,166.11L273.98,163.96L274.27,164.12L274.33,164.11L274.93,163.12L275.25,163.8L275.32,163.84L275.68,163.66L275.98,165.26L276.07,165.04L276.09,164.98L276.91,164.34L277.01,164.73L277.1,164.67L277.19,164.5L277.5,165.58L277.92,164.97L277.93,164.91L278.68,164.2L278.68,164.28L278.71,164.04L278.71,164.46L279.42,161.28L279.42,161.35L279.51,161.29L279.52,161.55L279.78,160.62L280.24,161.21L280.29,161.15L280.5,161.36L280.66,160.71L280.73,160.65L280.78,160.53L281.67,157.78L281.88,158.15L281.9,158.19L282.33,158.16L282.51,158.61L282.51,158.65L283.38,156.59L283.61,156.78L283.61,156.86L284.04,158.49L284.39,157.8L284.41,157.74L285.61,159.94L285.82,158.92L285.84,158.8L285.91,158.98L286.21,157.99L286.31,158.06L286.31,158L286.32,157.85L286.47,159.03L286.99,158.95L286.99,159.11L287.65,159.35L287.67,159.15L287.77,158.91L287.89,158.09L288.38,159.59L288.46,159.5L288.55,159.54L288.81,159.44L288.9,158.97L288.98,158.95L289.03,158.89L289.14,159.01L289.94,156.25L290.28,156.95L290.3,157.11L291.01,158.32L291.06,157.76L291.12,157.7L291.64,157.91L291.75,157.39L291.75,157.27L292.04,156.17L292.58,156.65L292.62,156.66L293.14,155.91L293.33,156.13L293.41,156.1L294.08,157.23L294.1,157.39L294.41,158.12L294.79,157.42L294.79,157.23L295.2,155.89L295.52,156.34L295.59,156.38L296.32,158.19L296.35,158.15L296.49,158.47L296.95,157.46L297.1,157.85L297.17,157.8L297.36,158.44L297.59,156.71L297.82,156.87L297.87,156.81L299.13,154.68L299.46,155.37L299.48,155.41L299.68,156.7L300.33,156.26L300.37,156.2L300.52,155.7L300.85,156.61L301.1,156.17L301.16,156.11L301.34,156.88L301.65,156.13L301.71,156.12L302.54,154.53L302.54,154.61L302.54,154.76L302.93,153.37L303.23,154.59L303.24,154.75L304.31,159.88L304.35,159.69L304.37,159.71L305.09,157.98L305.13,159.36L305.14,159.4L305.3,161.3L305.89,159.67L305.9,159.79L306.17,160.55L306.31,159.63L306.4,159.57L306.5,159.34L306.98,160.05L307.02,160.04L307.02,160.08L307.43,159.56L307.85,159.87L307.85,159.91L309.14,158.21L309.24,158.77L309.27,159.05L309.66,161.39L309.92,159.91L310.03,159.95L310.22,162.03L310.8,160.92L310.81,160.91L311.12,160.33L311.13,160.27L311.88,158.52L311.88,158.53L311.95,158.53L312.06,158.78L312.09,157.83L312.62,158.3L312.62,158.25L313.14,159.24L313.14,159.39L313.43,158.84L313.86,159.36L313.94,159.44L313.96,159.59L314.56,158.5L314.58,159.25L314.67,159.19L314.77,160.38L315.11,158.81L315.19,158.83L315.31,158.59L315.9,158.88L316.21,157.9L316.21,157.94L316.29,157.88L316.53,157.15L317.01,157.5L317.07,157.58L317.14,157.98L317.68,156.95L317.77,156.98L317.79,157.02L317.88,156.01L318.54,157.16L318.58,157.2L319.06,156.19L319.1,155.95L319.2,155.55L319.62,158.22L319.85,156.96L319.94,157L320.57,158.48L320.71,157.49L320.73,157.43L321.66,155.86L321.85,156.82L321.9,156.77L322.06,156.55L322.36,157.69L322.68,157.62L322.68,157.26L323.48,154.28L323.48,154.32L323.73,154.36L324.41,155.81L324.53,155.54L324.58,155.54L324.65,155.83L324.77,154.66L325.17,154.82L325.17,154.76L325.7,153.08L326.13,153.39L326.13,153.47L327.06,149.9L327.06,149.94L327.07,149.4L327.91,143.04L327.91,143.08L327.94,143.08L328.61,142.38L328.68,142.4L328.7,142.34L328.71,142.73L329.07,141.29L329.35,141.32L329.4,141.33L330.86,139.15L330.86,139.23L330.86,139.35L331,139.99L331.39,138.3L331.57,138.94L331.63,138.97L332.16,140.23L332.43,139.81L332.46,139.75L333.16,141.36L333.2,141.19L333.34,141.13L333.62,141.79L334,140.57L334.06,140.69L334.11,140.85L334.74,141.54L334.74,141.7L335.19,143.59L335.48,142.84L335.5,142.78L336.34,141.26L336.37,141.27L336.48,141.31L336.84,141.91L338.23,136.75L338.23,136.95L338.41,136.99L339.26,135.24L339.63,136.04L339.67,136.06L340.38,137.08L340.49,136.59L340.5,136.63L340.74,137.17L341.09,135.66L341.21,136.01L341.26,135.95L341.39,135.53L341.72,136.74L342,136.19L342.07,136.23L343.12,134.94L343.42,135.7L343.42,135.74L343.43,135.94L343.95,132.53L344.16,132.78L344.2,132.78L344.44,131.44L344.91,132.41L345.02,132.44L345.05,132.2L345.56,133.64L345.6,133.5L345.71,133.38L345.8,133.26L346.65,135.02L346.72,134.85L346.75,134.79L347.01,135.5L347.16,134.4L347.19,134.48L347.22,134.42L347.71,134.34L347.78,133.82L347.79,133.7L348.69,130.9L348.73,130.94L349.12,129.84L349.55,130.57L349.55,130.61L349.62,130.81L349.88,129.61L349.92,129.63L349.92,129.6L350.81,128.11L350.81,128.27L351.16,129.71L351.47,128.08L351.56,128.08L351.64,128.12L351.93,127.55L352.13,128.37L352.13,128.53L352.31,128.88L352.66,127.95L352.84,128.02L352.86,127.96L353.75,127.2L353.75,127.44L353.77,127.48L354.65,128.49L354.65,128.37L354.72,128.32L355.52,123.79L355.81,124.76L355.91,124.7L356.02,124.81L356.09,123.87L356.09,123.81L356.76,118.11L356.76,118.82L356.85,118.86L357.19,119.49L357.59,117.77L357.59,117.81L357.63,117.85L358.37,113.46L358.4,113.49L358.79,116.08L359.15,115.93L359.16,115.97L359.21,116.17L359.55,114.86L359.55,114.74L359.99,114.27L360.13,115.11L360.17,115.13L360.21,115.21L360.74,113.76L360.74,113.52L360.82,113.68L361.12,112.65L361.12,112.59L361.98,105.77L362.03,105.65L362.69,104.67L362.75,104.9L362.79,104.94L363.25,102.74L363.7,103.46L363.73,103.5L363.94,103.27L364.61,104.64L364.72,104.06L364.76,103.75L364.85,103.08L365.35,104.21L365.38,104.15L365.38,104.19L366.21,104.32L366.21,104.43L366.21,104.47L366.85,105.14L367.07,104.8L367.07,104.74L368.4,98.22L368.4,98.86L368.49,98.9L368.53,99.34L368.9,97.86L369.14,98.14L369.29,98.14L369.63,97.37L369.64,98.56L369.86,98.39L369.86,98.43L370.9,94.47L370.99,94.48L372.01,92.31L372.08,92.43L372.11,92.37L373.32,88.89L373.52,89.88L373.52,90.04L373.59,90.81L374.08,88.8L374.18,88.98L374.25,88.92L374.84,87.65L375.15,88.61L375.15,88.73L375.34,87.36L375.73,88.49L375.73,88.57L376.31,87.1L376.43,88.13L376.51,88.17L376.82,87.16L377.1,88.28L377.25,88.17L377.26,88.21L377.71,88.92L377.71,88.96L378.15,90.62L378.35,88.72L378.36,88.66L378.75,88L379.11,88.36L379.13,88.3L379.28,87.85L379.97,89.59L379.97,89.45L380.04,89.39L380.09,89.21L380.28,90.21L380.66,89.88L380.71,89.82L380.78,89.78L381.39,90.82L381.51,90.32L381.51,90.08L381.75,90.3L381.95,89.13L381.95,89.01L382.55,90.77L382.82,90.11L382.86,90.15L384.03,88.69L384.03,88.89L384.04,88.93L384.1,88.43L384.7,89.92L384.76,89.61L384.83,89.65L385.45,88.34L385.57,88.72L385.59,88.71L385.6,88.39L386.21,89.91L386.21,89.91L386.28,89.95L386.7,87.29L387.12,87.94L387.14,87.88L387.36,88.7L387.51,87.59L387.51,87.61L387.62,87.38L388.18,86.51L388.38,87.27L388.43,87.43L389.05,89.41L389.25,88.18L389.25,87.94L390.08,89.02L390.11,88.72L390.19,88.48L390.82,88.04L390.88,88.48L390.97,88.56L391.66,90.39L391.72,90.02L391.74,90.1L392.03,90.84L392.42,89.18L392.48,89.32L392.52,89.48L392.56,89.36L393.19,92.75L393.33,91.93L393.41,91.97L393.77,90.75L394.26,90.98L394.31,90.82L395.06,89.96L395.12,90L395.25,89.36L395.84,89.86L395.86,89.9L396.04,91.33L396.55,89.63L396.59,89.71L396.63,89.65L396.81,88.59L397.26,89.5L397.26,89.53L397.39,90.23L397.96,87.22L397.96,87.26L398.02,87.23L399.27,87.1L399.27,87.17L399.27,87.23L399.78,88.89L400.01,88.76L400.03,88.8L400.8,96.75L401.18,94.66L401.2,94.7L401.37,93.81L402.13,96.37L402.19,96.21L402.25,95.97L402.6,93.78L402.99,96.4L403.02,96.34L403.6,101.28L403.75,100.85L403.78,100.73L403.95,100.32L404.35,102.07L404.53,101.58L404.54,101.58L404.86,101.25L405.21,102.26L405.23,101.92L405.27,101.96L406.34,102.69L406.47,102.39L406.47,102.33L406.69,102.01L406.96,103.03L406.96,102.97L407.15,102.97L408.12,100.67L408.21,101.3L408.21,101.69L408.21,104.87L408.95,103.87L409.11,103.91L409.93,102.07L409.93,102.01L410.9,99.37L411.2,100.03L411.2,100.07L411.94,97.33L411.96,97.37L411.96,97.14L413.17,91.07L413.68,91.87L413.7,91.91L413.75,90.73L414.09,92.38L414.27,92.2L414.32,92.08L415.01,93.42L415.08,93.58L415.27,92.87L415.3,92.81L415.72,92.84L415.97,90.85L416.02,91.09L416.09,91.13L416.28,92.27L416.7,91.3L416.79,91.25L417.09,90.69L417.51,93.1L417.57,93.04L417.74,92.7L418.2,93.45L418.2,93.49L418.37,93.53L419.02,91.75L419.27,91.96L419.27,92L419.27,92.2L419.47,90.05L420.01,90.61L420.04,90.69L420.56,91.48L420.79,90.67L420.8,90.61L421.18,89.97L421.54,90.63L421.54,90.67L422.36,91.71L422.57,91.13L422.57,90.77L423.64,85.14L423.64,85.3L423.75,85.34L424.22,84.54L424.48,85.45L424.52,85.48L424.79,84.76L424.91,85.45L424.91,85.61L425.02,87.14L425.36,85.36L425.57,86.21L425.58,86.15L426.8,87.97L426.8,88.13L427.4,87.47L427.4,87.36L427.84,86.58L427.84,86.34L428,84.91L428.59,85.17L428.62,85.11L428.77,85.93L429.34,85.2L429.34,84.96L430.01,87.31L430.33,87.05L430.36,86.99L430.44,86.66L430.57,88.1L430.86,88.16L430.86,88.32L431.56,83.91L431.84,85.19L431.93,85.23L432.61,82.71L432.68,82.92L432.74,82.86L432.98,83.35L433.32,81.67L433.39,82.15L433.39,81.91L433.51,81.14L434.07,81.27L434.22,81.21L434.4,82.21L434.87,81.01L434.87,81.09L434.98,80.99L435.1,81.5L435.44,80L435.57,80.08L435.57,79.85L435.64,79.71L435.8,80.95L435.88,80.87L435.88,80.91L435.92,80.37L436.25,81.92L436.61,81.72L436.66,81.42L437.27,78.33L437.48,79.76L437.49,79.8L437.6,80.13L438.02,77.91L438.2,78.22L438.25,78.2L438.34,78.05L438.91,79.29L439.07,78.47L439.07,78.24L439.42,77.67L439.71,78.31L439.78,78.09L439.84,77.85L439.94,77.1L440.53,78.66L440.56,78.32L440.59,78.2L440.84,78.6L441.22,75.08L441.58,75.96L441.58,76.12L442.2,77.17L442.41,76.87L442.41,76.63L444.42,68.7L444.44,68.74L444.44,68.5L445.42,67.22L445.45,67.85L445.45,67.89L445.75,70.08L446.1,67.69L446.19,67.52L447.03,66.27L447.08,66.44L447.13,66.48L447.68,67.01L447.83,66.34L447.84,66.1L448.29,63.5L448.65,64.09L448.7,64.03L449.19,66.36L449.41,66.09L449.48,65.97L450.13,67.18L450.23,67.11L450.25,67.05L452.34,63.9L452.34,63.36L453.22,60.9L453.28,60.92L453.31,60.96L455.23,54.95L455.34,55.22L455.37,55.16L455.65,54.65L455.78,55.56L456.08,55.48L456.12,55.42L456.35,54.8L456.77,55.45L456.77,55.04L456.79,55.02L457.24,52.88L457.52,53.05L457.57,52.99L457.98,52.34L458.22,53.88L458.3,53.82L458.31,54.05L458.81,51.49L458.95,51.55L458.95,51.49L459.16,51.66L459.72,48.74L459.72,48.86L459.75,48.62L460.22,49.47L460.5,48.62L460.5,48.56L460.56,48.77L460.9,47.48L460.91,47.42L461.14,47.69L461.66,45.69L461.71,45.73L462.14,44.47L462.51,45.22L462.64,45.26L462.88,45.94L463.25,44.85L463.26,44.89L463.26,44.83L463.34,44.87L464.77,41.41L464.77,41.45L464.82,41.39L464.86,41.21L465.29,42.58L465.29,42.62L466.08,39.91L466.3,41.06L466.33,41.09L466.57,40.47L466.77,41.74L467.06,41.32L467.11,41.32L467.57,39.44L467.85,39.85L467.93,39.79L467.98,40.58L468.68,40.13L468.72,40.07L468.84,39.67L469.28,41.6L469.37,41.6L469.42,41.64L471.43,47.59L471.6,47.36L471.63,47.37L472.47,44.93L472.47,44.97L472.53,45.01L472.95,46.24L473.21,45.39L473.3,45.33L473.32,45.57L473.82,43.16L474.04,43.66L474.06,43.74L474.7,44.35L474.8,44.06L474.84,44.1L474.86,44.42L475.28,43.31L475.54,43.35L475.55,43.11L475.72,42.96L475.83,44.04L475.86,44.01L475.88,44.05L476.62,45.02L476.67,44.53L476.73,44.29L477.02,42.89L477.51,43.5L477.51,43.54L478.22,42.45L478.49,43.26L478.53,43.3L478.71,42.73L478.95,43.63L479.07,42.72L479.11,42.48L479.2,43.43L479.77,40.51L479.85,40.73L479.95,40.42L480.01,40.55L480.49,39.02L480.72,39.34L480.77,39.28L481.5,37.36L481.5,38.08L481.54,38.15L481.91,37.72L482.26,38.62L482.26,38.66L482.34,38.24L482.84,39.01L482.9,38.89L482.9,39.05L483.03,40.12L483.61,38.95L483.72,38.95L484.78,32.52L484.81,32.51L485.6,29.17L485.75,29.38L485.78,29.42L486.14,30.18L486.47,29.16L486.47,29.1L487.4,25.36L487.56,27.26L487.58,27.3L488.38,25.02L488.48,24.96L488.63,24.69L488.7,25.48L488.73,25.49L488.73,25.81L488.85,26.34L489.41,23.96L489.42,23.72L489.43,23.93L490.16,20.68L490.2,20.72L490.39,21.04L490.92,19.31L490.97,19.07L491.18,19.65L491.6,18.43L491.7,18.71L491.74,18.7L491.81,18.69L492.48,20.25L492.48,20.19L492.5,20.13L492.92,18.92L492.92,18.86L493.85,16.33L493.85,16.36L493.9,16.4L493.99,16L494,16.22" style="vector-effect: non-scaling-stroke; fill: none; stroke: rgb(1, 102, 30); stroke-opacity: 1; stroke-width: 2px; opacity: 1;"/></g><g class="points"/><g class="text"/></g></g></g><g class="overplot"/><path class="xlines-above crisp" d="M0,0" style="fill: none;"/><path class="ylines-above crisp" d="M0,0" style="fill: none;"/><g class="overlines-above"/><g class="xaxislayer-above"><g class="xtick"><text text-anchor="middle" x="0" y="436" transform="translate(212.22,0)" style="font-family: 'Times New Roman'; font-size: 15px; fill: rgb(13, 13, 13); fill-opacity: 1; white-space: pre; opacity: 1;">1.61252×10​<tspan style="font-size:70%" dy="-0.6em">18</tspan><tspan dy="0.42em">​</tspan></text></g><g class="xtick"><text text-anchor="middle" x="0" y="436" style="font-family: 'Times New Roman'; font-size: 15px; fill: rgb(13, 13, 13); fill-opacity: 1; white-space: pre; opacity: 1;" transform="translate(310.25,0)">1.612525×10​<tspan style="font-size:70%" dy="-0.6em">18</tspan><tspan dy="0.42em">​</tspan></text></g><g class="xtick"><text text-anchor="middle" x="0" y="436" style="font-family: 'Times New Roman'; font-size: 15px; fill: rgb(13, 13, 13); fill-opacity: 1; white-space: pre; opacity: 1;" transform="translate(408.28,0)">1.61253×10​<tspan style="font-size:70%" dy="-0.6em">18</tspan><tspan dy="0.42em">​</tspan></text></g><g class="xtick"><text text-anchor="middle" x="0" y="436" style="font-family: 'Times New Roman'; font-size: 15px; fill: rgb(13, 13, 13); fill-opacity: 1; white-space: pre; opacity: 1;" transform="translate(506.3,0)">1.612535×10​<tspan style="font-size:70%" dy="-0.6em">18</tspan><tspan dy="0.42em">​</tspan></text></g><g class="xtick"><text text-anchor="middle" x="0" y="436" style="font-family: 'Times New Roman'; font-size: 15px; fill: rgb(13, 13, 13); fill-opacity: 1; white-space: pre; opacity: 1;" transform="translate(604.3299999999999,0)">1.61254×10​<tspan style="font-size:70%" dy="-0.6em">18</tspan><tspan dy="0.42em">​</tspan></text></g></g><g class="yaxislayer-above"><g class="ytick"><text text-anchor="end" x="125" y="12.25" transform="translate(0,403.94)" style="font-family: 'Times New Roman'; font-size: 35px; fill: rgb(13, 13, 13); fill-opacity: 1; white-space: pre; opacity: 1;">0</text></g><g class="ytick"><text text-anchor="end" x="125" y="12.25" style="font-family: 'Times New Roman'; font-size: 35px; fill: rgb(13, 13, 13); fill-opacity: 1; white-space: pre; opacity: 1;" transform="translate(0,364.31)">200</text></g><g class="ytick"><text text-anchor="end" x="125" y="12.25" style="font-family: 'Times New Roman'; font-size: 35px; fill: rgb(13, 13, 13); fill-opacity: 1; white-space: pre; opacity: 1;" transform="translate(0,324.66999999999996)">400</text></g><g class="ytick"><text text-anchor="end" x="125" y="12.25" style="font-family: 'Times New Roman'; font-size: 35px; fill: rgb(13, 13, 13); fill-opacity: 1; white-space: pre; opacity: 1;" transform="translate(0,285.03999999999996)">600</text></g><g class="ytick"><text text-anchor="end" x="125" y="12.25" style="font-family: 'Times New Roman'; font-size: 35px; fill: rgb(13, 13, 13); fill-opacity: 1; white-space: pre; opacity: 1;" transform="translate(0,245.41)">800</text></g><g class="ytick"><text text-anchor="end" x="125" y="12.25" style="font-family: 'Times New Roman'; font-size: 35px; fill: rgb(13, 13, 13); fill-opacity: 1; white-space: pre; opacity: 1;" transform="translate(0,205.78)">1000</text></g><g class="ytick"><text text-anchor="end" x="125" y="12.25" style="font-family: 'Times New Roman'; font-size: 35px; fill: rgb(13, 13, 13); fill-opacity: 1; white-space: pre; opacity: 1;" transform="translate(0,166.15)">1200</text></g><g class="ytick"><text text-anchor="end" x="125" y="12.25" style="font-family: 'Times New Roman'; font-size: 35px; fill: rgb(13, 13, 13); fill-opacity: 1; white-space: pre; opacity: 1;" transform="translate(0,126.51)">1400</text></g></g><g class="overaxes-above"/></g></g><g class="polarlayer"/><g class="smithlayer"/><g class="ternarylayer"/><g class="geolayer"/><g class="funnelarealayer"/><g class="pielayer"/><g class="iciclelayer"/><g class="treemaplayer"/><g class="sunburstlayer"/><g class="glimages"/><defs id="topdefs-c49f2a"><g class="clips"/></defs><g class="layer-above"><g class="imagelayer"/><g class="shapelayer"/></g><g class="infolayer"><g class="g-gtitle"/><g class="g-xtitle"><text class="xtitle" x="373" y="463.8" text-anchor="middle" style="font-family: 'Open Sans', verdana, arial, sans-serif; font-size: 14px; fill: rgb(42, 63, 95); opacity: 1; font-weight: normal; white-space: pre;">Time Steps (ns)</text></g><g class="g-ytitle" transform="translate(24,0)"><text class="ytitle" transform="rotate(-90,12,260)" x="12" y="260" text-anchor="middle" style="font-family: 'Times New Roman'; font-size: 40px; fill: rgb(13, 13, 13); opacity: 1; font-weight: normal; white-space: pre;">Turnaround (in $)</text></g></g></svg>